<svg xmlns="http://www.w3.org/2000/svg" width="525.805" height="362.105" viewBox="0 0 525.805 362.105"><defs><style>.a{fill:#fff;}</style></defs><path class="a" d="M1256.253,249.115c18.036-8.991,29.833-23.929,29.833-40.835,0-17.409-12.511-32.731-31.46-41.63,5.493-5.493,8.731-12.213,8.731-19.463,0-18.517-21-33.52-46.911-33.52a60.762,60.762,0,0,0-25.827,5.536c-10.542-33.8-51.242-58.984-99.841-58.984-37.239,0-69.84,14.787-87.784,36.91a176.479,176.479,0,0,0-52.443-7.742c-67.462,0-122.148,35.888-122.148,80.161a53.553,53.553,0,0,0,.6,7.872c-36.012,6.682-62.833,32.26-62.833,62.8,0,31.547,28.611,57.8,66.413,63.4a44.1,44.1,0,0,0-1.249,10.386c0,35,41.51,63.374,92.715,63.374a128.578,128.578,0,0,0,40.889-6.488c14.316,26.135,47.436,44.436,86.011,44.436,42.711,0,78.7-22.415,89.936-53.048a115.506,115.506,0,0,0,46.728,9.6c51.983,0,94.126-32.628,94.126-72.879C1281.739,279.689,1272.056,262.156,1256.253,249.115Z" transform="translate(-762.379 -57.675)"/><path d="M1252.091,245.093a66.6,66.6,0,0,0,11.132-6.953,52.644,52.644,0,0,0,9.245-9.137,40.442,40.442,0,0,0,6.255-11.2,34.337,34.337,0,0,0,2.044-12.559,34.966,34.966,0,0,0-2.654-12.408,41.96,41.96,0,0,0-6.736-10.948,60.947,60.947,0,0,0-20.858-15.506h0l-2.66-1.222,2.07-2.163a28.232,28.232,0,0,0,6.8-10.953,22.257,22.257,0,0,0,.368-12.527,26.821,26.821,0,0,0-6.244-11.1,39.308,39.308,0,0,0-10.44-7.991,57.52,57.52,0,0,0-25.821-6.569,62.64,62.64,0,0,0-13.451,1.049,55.986,55.986,0,0,0-12.851,3.99h0l-1.8,1.135-1.081-2.4a85.083,85.083,0,0,0-6.406-11.667,86.133,86.133,0,0,0-8.11-10.4,94.749,94.749,0,0,0-9.553-9.132,101.148,101.148,0,0,0-10.813-7.769,120.647,120.647,0,0,0-50.6-17.365,130.522,130.522,0,0,0-27.184-.076,125.653,125.653,0,0,0-26.589,5.617A109.619,109.619,0,0,0,1021.6,78.4a90.978,90.978,0,0,0-10.813,8.137,77.694,77.694,0,0,0-9.375,9.732h0l-.843,1.081-1.4-.4a181.981,181.981,0,0,0-54-6.785,175.093,175.093,0,0,0-53.405,9.267A135.524,135.524,0,0,0,867.2,110.678a108.318,108.318,0,0,0-11.148,7.51,92.347,92.347,0,0,0-10.013,8.856,76.011,76.011,0,0,0-8.412,10.272,62.569,62.569,0,0,0-6.223,11.64,54.227,54.227,0,0,0-3.39,12.727,53.557,53.557,0,0,0-.492,6.617,56.753,56.753,0,0,0,.33,6.612l.227,2.065-1.908.292h0a100.618,100.618,0,0,0-22.361,8.18,80.179,80.179,0,0,0-19.139,13.516A60.908,60.908,0,0,0,771.28,217.6a49.668,49.668,0,0,0-4.5,22.107,50.538,50.538,0,0,0,5.807,21.885,63.758,63.758,0,0,0,14.381,18.122,83.19,83.19,0,0,0,19.788,12.894,102.359,102.359,0,0,0,22.794,7.537H830.8l-.162,1.584a48.321,48.321,0,0,0,2.13,20.582,53.336,53.336,0,0,0,10.153,17.555A75.151,75.151,0,0,0,858.4,353.492a93.832,93.832,0,0,0,9.034,5.282,102.683,102.683,0,0,0,9.6,4.325,129.06,129.06,0,0,0,41.494,8.391,139.072,139.072,0,0,0,42.522-4.769h0l1.546-.589.952,1.562a74.213,74.213,0,0,0,16.879,19.123,92.625,92.625,0,0,0,21.891,13.089,115.265,115.265,0,0,0,75.057,4.579,100.992,100.992,0,0,0,23.286-9.732,95.144,95.144,0,0,0,19.723-15.338,93.675,93.675,0,0,0,8.234-9.418,107.249,107.249,0,0,0,7.082-10.6h0l.687-2.044,2.114.854a119.11,119.11,0,0,0,56.93,7.726,114.606,114.606,0,0,0,14.219-2.4,108.2,108.2,0,0,0,13.77-4.131,97.047,97.047,0,0,0,24.983-13.722,73.613,73.613,0,0,0,18.766-20.907,55.686,55.686,0,0,0,2.022-53.686,73.913,73.913,0,0,0-17.49-22.507l-2.352-2.1Zm4.725,2.222A72.616,72.616,0,0,1,1274.4,268.4a63.249,63.249,0,0,1,5.7,14.489,60.8,60.8,0,0,1,1.811,15.565,60.007,60.007,0,0,1-2.3,15.538,64.4,64.4,0,0,1-6.12,14.441,78.725,78.725,0,0,1-20.6,23.085,99.808,99.808,0,0,1-27.032,14.543,114.7,114.7,0,0,1-14.721,4.2,120.878,120.878,0,0,1-15.106,2.19c-2.536.211-5.077.335-7.612.389h-3.8c-1.287,0-2.541-.054-3.817-.108a119.224,119.224,0,0,1-15.138-1.622,109.649,109.649,0,0,1-28.876-9.1l2.806-1.189h0a47.974,47.974,0,0,1-4.6,13.17,61.608,61.608,0,0,1-7.828,11.651,81.546,81.546,0,0,1-21.7,17.5,107.62,107.62,0,0,1-25.616,10.488,118.709,118.709,0,0,1-27.243,3.936,115.7,115.7,0,0,1-53.367-10.953,94.66,94.66,0,0,1-22.777-15.224,74.562,74.562,0,0,1-16.608-21.669l2.492.973h0a121.836,121.836,0,0,1-43.976,8.158,124.384,124.384,0,0,1-44.441-7.726,103.287,103.287,0,0,1-10.467-4.6,93.08,93.08,0,0,1-9.894-5.823,72.914,72.914,0,0,1-17.112-15.6,51.826,51.826,0,0,1-10.034-21.085,41.2,41.2,0,0,1,1.654-22.891l1.081,1.622h0a90.226,90.226,0,0,1-24.329-5.671A81.959,81.959,0,0,1,782.9,284.517,67.1,67.1,0,0,1,766.285,265a55.98,55.98,0,0,1-7.088-25,54.831,54.831,0,0,1,1.081-13.089,56.7,56.7,0,0,1,4.114-12.435,65.042,65.042,0,0,1,15.435-20.669,80.019,80.019,0,0,1,21.388-13.792,87.44,87.44,0,0,1,11.894-4.266c2.027-.541,4.066-1.081,6.115-1.492s4.12-.779,6.19-1.043h0l-1.681,2.352a53.579,53.579,0,0,1-.66-14.4,56.232,56.232,0,0,1,3.141-14.138,63.412,63.412,0,0,1,2.838-6.666,69.242,69.242,0,0,1,3.547-6.326,76.4,76.4,0,0,1,8.872-11.353,95.022,95.022,0,0,1,10.591-9.6,114.849,114.849,0,0,1,11.781-8.029,137.43,137.43,0,0,1,25.767-11.77,163.668,163.668,0,0,1,27.4-6.747,181.49,181.49,0,0,1,28.065-2.222,174.486,174.486,0,0,1,55.313,8.65l-2.244.676h0a91.661,91.661,0,0,1,21.2-18.717,113.97,113.97,0,0,1,25.41-12.229,133.394,133.394,0,0,1,27.486-6.207,140.857,140.857,0,0,1,14.057-.952c4.7-.086,9.418.043,14.116.395a138.238,138.238,0,0,1,27.913,4.866,110.9,110.9,0,0,1,26.281,11.251,94.2,94.2,0,0,1,11.781,8.321,77.449,77.449,0,0,1,10.272,10.218,64.448,64.448,0,0,1,7.986,12.143,51.91,51.91,0,0,1,4.736,13.673l-2.882-1.265h0a58.187,58.187,0,0,1,13.749-4.66,67.408,67.408,0,0,1,14.43-1.341,65.088,65.088,0,0,1,14.4,1.833,56.51,56.51,0,0,1,13.646,5.2,44.2,44.2,0,0,1,11.678,9.04,30.869,30.869,0,0,1,7.234,13.17,26.773,26.773,0,0,1-.643,15.111,31.965,31.965,0,0,1-8.11,12.483l-.584-3.363h0a65.04,65.04,0,0,1,22.28,16.592,46.186,46.186,0,0,1,7.4,12.046,38.5,38.5,0,0,1,.686,27.967,44.88,44.88,0,0,1-6.893,12.354A62.031,62.031,0,0,1,1256.816,247.315Z" transform="translate(-759.158 -55.512)"/></svg>