<svg xmlns="http://www.w3.org/2000/svg" width="330.117" height="281.603" viewBox="0 0 330.117 281.603"><defs><style>.a{fill:#fff;}</style></defs><path d="M42.455,28.752a.173.173,0,0,0,0-.072h0A.132.132,0,0,1,42.455,28.752Z" transform="translate(243.745 0.731)"/><path d="M282.2,35.73c-30.478-19.137-70.961-29.68-114-29.68S84.683,16.558,54.2,35.73c-30.8,19.347-47.8,45.2-47.8,72.8,0,51.9,60.852,95.438,141.828,101.708-.758,11.676-2.157,20.69-3.976,25.687-7.812,21.484-26.759,40.76-26.945,40.959l-4.524,4.565,5.911-1.168c.28,0,32.939-15.47,46.639-42.932a267.927,267.927,0,0,0,10.8-26.422C262.411,208.264,329.9,163.441,329.9,108.564,329.967,80.927,313,55.03,282.2,35.73Z" transform="translate(-6.4 0.154)"/><path d="M42.455,28.752a.173.173,0,0,0,0-.072h0A.132.132,0,0,1,42.455,28.752Z" transform="translate(243.745 0.731)"/><path class="a" d="M161.758,1.66C73.238,1.66,1.47,46.785,1.47,102.43c0,51.795,62.149,94.45,142.112,100.126-.479,8.367-1.611,21.135-4.226,28.308-8.055,22.235-27.421,41.754-27.421,41.754.479-.094,32.417-15.775,45.526-42.129A269.834,269.834,0,0,0,168.6,203.071C253.931,200.8,322,156.6,322,102.43,322.034,46.785,250.277,1.66,161.758,1.66Z" transform="translate(6.598 0.042)"/><path d="M275.756,29.68C245.313,10.508,204.832,0,161.8,0S78.281,10.508,47.8,29.68C17,49.027,0,74.877,0,102.479c0,51.9,60.85,95.438,141.825,101.708-.758,11.676-2.157,20.69-3.976,25.687-7.812,21.484-26.758,40.76-26.945,40.959l-4.536,4.565,5.923-1.168c.28,0,32.938-15.482,46.637-42.932a265.363,265.363,0,0,0,10.808-26.422c86.373-2.7,153.822-47.521,153.822-102.4C323.559,74.877,306.595,49.039,275.756,29.68Zm.665,140.788c-28.484,18.6-66.762,29.447-107.791,30.532h-1.1l-.42,1.168A271.1,271.1,0,0,1,156.1,229.3c-8.5,16.977-25.056,29.4-35.421,35.927,6.424-7.846,15.355-20.293,20.3-33.86,2.623-7.239,3.813-19.7,4.349-28.874l.1-1.95-1.679-.117C105.179,197.7,69.618,186.172,43.583,168s-40.2-41.379-40.2-65.537C3.381,48.1,74.5,3.876,161.8,3.876s158.416,44.24,158.416,98.6C320.213,127.851,304.659,151.985,276.42,170.468Z" transform="translate(6.558)"/></svg>