<?xml version="1.0" encoding="UTF-8"?><svg id="a" xmlns="http://www.w3.org/2000/svg" viewBox="0 0 842.63 592.34"><defs><style>.b{fill:#0071a6;}.c{fill:#7bb4d8;}.d{fill:#00addd;}.e{fill:#0092c7;}</style></defs><path class="e" d="M425.1,206.65c-1.1,2.45,0,5.33,2.45,6.43,2.46,1.1,5.33,0,6.43-2.45,1.1-2.45,0-5.33-2.45-6.43-2.46-1.1-5.33,0-6.43,2.45Z"/><path class="c" d="M462.45,225.32c-1.46,3.27,0,7.11,3.27,8.58,3.27,1.46,7.11,0,8.57-3.27,1.47-3.27,0-7.11-3.27-8.58-3.27-1.46-7.11,0-8.58,3.27Z"/><path class="b" d="M445.11,213.9c-1.22,2.73,0,5.93,2.72,7.15,2.73,1.22,5.93,0,7.15-2.72,1.22-2.72,0-5.92-2.73-7.15-2.73-1.22-5.93,0-7.15,2.73Z"/><path class="d" d="M479.24,243.33c-1.22,2.72,0,5.93,2.73,7.14,2.73,1.22,5.93,0,7.15-2.72,1.22-2.73,0-5.93-2.73-7.15-2.72-1.22-5.92,0-7.15,2.73Z"/><path class="e" d="M489.54,263.37c-1.22,2.73,0,5.93,2.72,7.15,2.73,1.22,5.93,0,7.15-2.72,1.22-2.73,0-5.93-2.73-7.15-2.73-1.22-5.93,0-7.15,2.72Z"/><path class="b" d="M363.26,217.55c-.98,2.18,0,4.74,2.18,5.72,2.18,.97,4.74,0,5.72-2.18,.98-2.18,0-4.74-2.18-5.72-2.18-.97-4.74,0-5.72,2.18Z"/><path class="b" d="M492.41,308.65c-1.22,2.73,0,5.92,2.73,7.15,2.73,1.22,5.93,0,7.15-2.73,1.22-2.72,0-5.93-2.73-7.15-2.73-1.22-5.93,0-7.15,2.73Z"/><path class="c" d="M381.8,208.13c-1.22,2.73,0,5.93,2.72,7.15,2.73,1.22,5.93,0,7.15-2.73,1.22-2.72,0-5.93-2.73-7.15-2.73-1.22-5.93,0-7.15,2.72Z"/><path class="d" d="M496.5,288.3c-.61,1.36,0,2.96,1.36,3.57,1.36,.61,2.96,0,3.58-1.36,.61-1.36,0-2.96-1.37-3.57-1.36-.61-2.96,0-3.57,1.36Z"/><path class="d" d="M400.61,203.63c-1.83,4.09,0,8.89,4.08,10.72,4.09,1.83,8.89,0,10.72-4.09,1.83-4.09,0-8.89-4.08-10.72-4.09-1.83-8.89,0-10.72,4.09Z"/><path class="c" d="M323.33,275.06c3.37,1.93,7.67,.77,9.6-2.6,1.93-3.37,.77-7.67-2.6-9.6-3.37-1.93-7.66-.77-9.6,2.6-1.93,3.37-.77,7.67,2.6,9.6Z"/><path class="e" d="M348.59,234.6c1.3,.74,2.95,.3,3.69-1,.74-1.3,.3-2.95-1-3.69-1.3-.74-2.95-.3-3.69,1-.74,1.3-.3,2.95,1,3.69Z"/><path class="e" d="M333.35,254.47c2.85,1.63,6.48,.65,8.12-2.2,1.64-2.85,.65-6.49-2.2-8.12-2.85-1.64-6.49-.65-8.12,2.2-1.64,2.85-.65,6.49,2.2,8.12Z"/><path class="b" d="M318.93,288.33c-1.22,2.73,0,5.93,2.72,7.15,2.73,1.22,5.93,0,7.15-2.73,1.22-2.73,0-5.93-2.73-7.15-2.73-1.22-5.93,0-7.15,2.72Z"/><path class="d" d="M323.76,311.44c-.49,1.09,0,2.37,1.09,2.86,1.09,.49,2.37,0,2.86-1.09,.49-1.09,0-2.37-1.09-2.86-1.09-.49-2.37,0-2.86,1.09Z"/><path class="c" d="M348.04,352.67c.74-2.11-.37-4.43-2.49-5.17-2.12-.74-4.43,.37-5.17,2.49-.74,2.12,.37,4.43,2.49,5.17,2.11,.74,4.43-.37,5.17-2.49Z"/><path class="b" d="M337.68,335c.99-2.82-.49-5.91-3.31-6.89-2.82-.99-5.9,.5-6.89,3.31-.99,2.82,.5,5.91,3.31,6.9,2.82,.99,5.91-.49,6.89-3.32Z"/><path class="e" d="M468.7,368.58c1.39-3.94-.69-8.27-4.64-9.66-3.95-1.38-8.27,.7-9.65,4.64-1.38,3.95,.69,8.27,4.64,9.65,3.95,1.38,8.27-.69,9.65-4.64Z"/><path class="b" d="M479.97,346.84c-2.71-1.27-5.92-.09-7.19,2.61-1.26,2.71-.09,5.93,2.61,7.19,2.71,1.26,5.92,.09,7.19-2.62,1.26-2.7,.09-5.92-2.61-7.19Z"/><path class="c" d="M491.43,330.17c-1.89-.88-4.15-.07-5.03,1.83-.89,1.9-.07,4.15,1.83,5.04,1.9,.88,4.15,.07,5.03-1.83,.89-1.9,.07-4.15-1.83-5.03Z"/><path class="e" d="M414.93,182.69c-1.22,2.73,0,5.92,2.72,7.15,2.73,1.22,5.93,0,7.15-2.73,1.22-2.72,0-5.93-2.72-7.15-2.73-1.22-5.93,0-7.15,2.72Z"/><path class="b" d="M439.11,187.09c-1.22,2.73,0,5.92,2.72,7.14,2.73,1.22,5.93,0,7.15-2.72,1.22-2.72,0-5.92-2.73-7.15-2.73-1.22-5.93,0-7.15,2.73Z"/><path class="b" d="M349.92,196.02c-1.83,4.09,0,8.89,4.09,10.72,4.09,1.83,8.89,0,10.72-4.09,1.83-4.09,0-8.89-4.09-10.73-4.09-1.83-8.89,0-10.72,4.09Z"/><path class="e" d="M371.92,188.15c-1.22,2.73,0,5.93,2.72,7.15,2.73,1.22,5.93,0,7.15-2.72,1.22-2.73,0-5.93-2.73-7.15-2.73-1.22-5.93,0-7.15,2.72Z"/><path class="c" d="M396.15,183.44c-.49,1.09,0,2.37,1.09,2.86,1.09,.49,2.37,0,2.86-1.09,.49-1.09,0-2.37-1.09-2.86-1.09-.49-2.37,0-2.86,1.09Z"/><path class="e" d="M337.36,216.97c2.59,1.48,5.9,.59,7.39-2,1.49-2.59,.59-5.9-2-7.38-2.59-1.49-5.89-.59-7.38,2-1.49,2.59-.59,5.9,2,7.38Z"/><path class="e" d="M518.33,259.82c-3.87-.33-7.27,2.54-7.6,6.41-.32,3.87,2.54,7.27,6.41,7.6,3.87,.33,7.27-2.53,7.6-6.41,.33-3.87-2.54-7.27-6.41-7.61Z"/><path class="b" d="M522.01,285.72c-2.98-.26-5.59,1.95-5.85,4.93-.25,2.98,1.95,5.6,4.93,5.85,2.97,.25,5.59-1.95,5.85-4.93,.25-2.98-1.96-5.59-4.93-5.85Z"/><path class="b" d="M483.94,207.16c-2.97-.25-5.59,1.95-5.85,4.93-.25,2.98,1.95,5.59,4.93,5.85,2.98,.25,5.6-1.96,5.85-4.93,.25-2.98-1.96-5.59-4.94-5.85Z"/><path class="c" d="M499.18,218.86c-5.05-.43-9.51,3.32-9.94,8.38-.44,5.06,3.32,9.51,8.38,9.94,5.06,.43,9.51-3.32,9.94-8.38,.43-5.06-3.32-9.51-8.38-9.94Z"/><path class="d" d="M511.43,242.34c-2.09-.18-3.92,1.37-4.09,3.45-.18,2.08,1.37,3.92,3.45,4.09,2.08,.18,3.91-1.37,4.09-3.45,.18-2.08-1.37-3.92-3.45-4.1Z"/><path class="e" d="M458.12,199.11c-.76,4.11,1.94,8.07,6.05,8.84,4.11,.77,8.07-1.94,8.84-6.05,.77-4.11-1.94-8.07-6.05-8.83-4.11-.77-8.07,1.94-8.84,6.05Z"/><path class="b" d="M521.59,333.22c-.8-2.87-3.79-4.56-6.67-3.75-2.88,.81-4.55,3.79-3.75,6.67,.81,2.88,3.79,4.56,6.67,3.75,2.87-.81,4.56-3.79,3.75-6.67Z"/><path class="c" d="M514.93,351.88c-1.21-4.31-5.68-6.83-10-5.62-4.32,1.21-6.84,5.68-5.63,10,1.21,4.32,5.69,6.83,10,5.63,4.32-1.21,6.84-5.68,5.63-10Z"/><path class="d" d="M499.83,370.86c-.81-2.88-3.79-4.55-6.66-3.75-2.88,.81-4.56,3.79-3.75,6.66,.8,2.88,3.79,4.56,6.67,3.75,2.87-.8,4.56-3.79,3.75-6.67Z"/><path class="e" d="M520.73,309.96c-2.06,.36-3.44,2.32-3.08,4.38,.36,2.06,2.32,3.44,4.38,3.08,2.06-.36,3.44-2.32,3.08-4.38-.36-2.06-2.32-3.44-4.38-3.08Z"/><path class="b" d="M334.54,373.64c2.45-1.71,3.05-5.08,1.34-7.53-1.71-2.45-5.08-3.06-7.53-1.35-2.44,1.71-3.05,5.08-1.34,7.53,1.71,2.45,5.08,3.05,7.53,1.34Z"/><path class="e" d="M302.1,314.55c2.05,.39,4.03-.96,4.43-3.01,.39-2.05-.96-4.04-3.01-4.43-2.05-.39-4.04,.95-4.43,3.01-.39,2.05,.96,4.04,3.01,4.43Z"/><path class="b" d="M300.5,291.59c2.94,.56,5.77-1.36,6.33-4.3,.56-2.94-1.36-5.77-4.3-6.33-2.93-.56-5.76,1.37-6.33,4.3-.56,2.93,1.37,5.77,4.3,6.32Z"/><path class="c" d="M316.41,359.92c4.69,.9,9.22-2.19,10.12-6.88,.9-4.69-2.18-9.22-6.87-10.12-4.69-.89-9.23,2.19-10.12,6.88-.9,4.7,2.18,9.24,6.88,10.13Z"/><path class="d" d="M306.25,337.42c2.93,.56,5.77-1.36,6.33-4.3,.56-2.94-1.36-5.77-4.3-6.33-2.93-.56-5.76,1.37-6.33,4.3-.56,2.94,1.37,5.77,4.3,6.33Z"/><path class="b" d="M311.29,243.11c.31,2.07,2.23,3.5,4.3,3.19,2.07-.31,3.49-2.23,3.19-4.3-.31-2.07-2.23-3.5-4.3-3.19-2.07,.31-3.5,2.24-3.19,4.3Z"/><path class="c" d="M321.31,225.27c.44,2.95,3.19,4.99,6.14,4.55,2.96-.44,5-3.19,4.55-6.14-.44-2.95-3.19-5-6.14-4.55-2.96,.44-5,3.19-4.56,6.14Z"/><path class="e" d="M307.74,268.76c3.31-.16,5.87-2.97,5.71-6.29-.16-3.31-2.97-5.87-6.28-5.71-3.31,.16-5.87,2.97-5.71,6.28,.16,3.32,2.97,5.87,6.28,5.72Z"/><path class="e" d="M392.67,160.15c-.8,2.88,.89,5.86,3.77,6.66,2.88,.8,5.86-.89,6.66-3.77,.8-2.88-.89-5.86-3.77-6.66-2.88-.8-5.86,.89-6.66,3.77Z"/><path class="b" d="M413.59,159.85c-1.36,4.89,1.51,9.96,6.4,11.31,4.9,1.36,9.96-1.51,11.32-6.4,1.36-4.89-1.52-9.96-6.41-11.32-4.9-1.35-9.96,1.52-11.32,6.41Z"/><path class="b" d="M333.81,181.27c-.81,1.93,.1,4.15,2.02,4.96,1.93,.81,4.15-.1,4.96-2.02,.81-1.93-.1-4.15-2.02-4.96-1.93-.81-4.15,.1-4.96,2.03Z"/><path class="c" d="M351.62,171.21c-1.16,2.75,.14,5.92,2.89,7.08,2.75,1.16,5.92-.14,7.08-2.89,1.15-2.75-.14-5.92-2.89-7.08-2.75-1.16-5.93,.13-7.08,2.89Z"/><path class="d" d="M369.53,162.42c-1.04,3.74,1.16,7.61,4.9,8.65,3.74,1.04,7.62-1.16,8.65-4.9,1.04-3.74-1.16-7.61-4.9-8.65-3.75-1.04-7.62,1.16-8.65,4.9Z"/><path class="e" d="M315.55,202.15c2.63,1.42,5.91,.45,7.34-2.17,1.43-2.63,.45-5.91-2.17-7.34-2.63-1.43-5.91-.45-7.33,2.17-1.43,2.62-.45,5.91,2.17,7.33Z"/><path class="e" d="M514.14,207.14c-2.77,1.11-4.12,4.25-3.01,7.03,1.12,2.77,4.26,4.12,7.03,3.01,2.77-1.11,4.13-4.25,3.02-7.03-1.11-2.77-4.26-4.12-7.04-3.01Z"/><path class="b" d="M528.46,227.12c-2.77,1.11-4.12,4.25-3.01,7.03,1.11,2.78,4.25,4.13,7.03,3.02,2.77-1.11,4.12-4.26,3.01-7.03-1.11-2.77-4.26-4.12-7.03-3.01Z"/><path class="b" d="M465.11,169.47c-1.45,.36-2.34,1.82-1.98,3.27,.36,1.45,1.82,2.34,3.27,1.98,1.45-.36,2.34-1.82,1.98-3.27-.36-1.45-1.82-2.34-3.28-1.98Z"/><path class="c" d="M483.55,176.72c-2.9,.71-4.67,3.64-3.96,6.54,.71,2.9,3.64,4.68,6.54,3.96,2.9-.71,4.67-3.64,3.96-6.54-.71-2.9-3.64-4.68-6.54-3.96Z"/><path class="d" d="M501,188.21c-3.77,.93-6.08,4.74-5.15,8.51,.93,3.77,4.74,6.08,8.51,5.15,3.77-.92,6.07-4.73,5.15-8.5-.93-3.77-4.73-6.08-8.5-5.15Z"/><path class="e" d="M439.57,167.19c.42,2.95,3.16,5.01,6.12,4.59,2.96-.42,5.01-3.16,4.59-6.12-.42-2.96-3.16-5.01-6.12-4.59-2.96,.42-5.01,3.16-4.6,6.11Z"/><path class="e" d="M540.21,334.1c-1.38-1.14-3.43-.94-4.57,.45-1.14,1.38-.93,3.43,.45,4.57,1.38,1.14,3.43,.94,4.57-.45,1.14-1.39,.94-3.43-.45-4.57Z"/><path class="b" d="M530.98,354.6c-2.31-1.9-5.72-1.57-7.61,.74-1.9,2.31-1.56,5.72,.74,7.61,2.31,1.9,5.72,1.56,7.62-.75,1.89-2.31,1.56-5.72-.75-7.61Z"/><path class="b" d="M547.33,268.94c-2.05-2.17-5.47-2.27-7.65-.23-2.17,2.05-2.27,5.47-.23,7.65,2.05,2.18,5.47,2.28,7.65,.23,2.17-2.05,2.28-5.47,.23-7.65Z"/><path class="c" d="M549.69,288.94c-2.87-3.04-7.66-3.19-10.7-.32-3.05,2.87-3.19,7.66-.32,10.7,2.87,3.04,7.66,3.19,10.7,.32,3.05-2.87,3.19-7.66,.32-10.7Z"/><path class="d" d="M547.86,311.6c-2.31-1.9-5.71-1.56-7.61,.74-1.9,2.31-1.56,5.72,.75,7.61,2.31,1.9,5.72,1.56,7.61-.75,1.9-2.31,1.56-5.72-.75-7.61Z"/><path class="e" d="M535.43,248.3c-1.89,1.46-2.25,4.18-.79,6.07,1.46,1.9,4.17,2.25,6.07,.79,1.89-1.46,2.25-4.17,.79-6.07-1.46-1.89-4.17-2.25-6.07-.79Z"/><path class="b" d="M506.37,395.34c.52-2.93-1.44-5.75-4.38-6.27-2.94-.52-5.75,1.43-6.28,4.38-.52,2.94,1.44,5.75,4.38,6.27,2.94,.52,5.75-1.44,6.27-4.38Z"/><path class="e" d="M515.25,375.57c-1.15-.33-2.35,.34-2.67,1.49-.33,1.15,.34,2.35,1.49,2.67,1.15,.33,2.34-.34,2.67-1.49,.33-1.15-.34-2.34-1.49-2.67Z"/><path class="e" d="M319.56,394.35c1.9-.87,2.73-3.12,1.86-5.02-.87-1.9-3.12-2.73-5.02-1.86-1.9,.87-2.74,3.12-1.86,5.02,.87,1.9,3.12,2.74,5.02,1.86Z"/><path class="b" d="M304.94,376.58c2.72-1.24,3.91-4.46,2.66-7.17-1.25-2.72-4.45-3.91-7.17-2.66-2.71,1.24-3.9,4.46-2.66,7.17,1.25,2.71,4.46,3.9,7.17,2.66Z"/><path class="e" d="M279.7,267.4c3.56,1.9,7.97,.55,9.88-3,1.89-3.56,.54-7.99-3.01-9.88-3.56-1.89-7.98-.56-9.88,3-1.9,3.56-.55,7.99,3.01,9.88Z"/><path class="b" d="M287.01,243.56c2.63,1.41,5.91,.41,7.31-2.23,1.41-2.64,.41-5.91-2.23-7.32-2.63-1.4-5.92-.41-7.32,2.23-1.4,2.64-.41,5.91,2.23,7.32Z"/><path class="b" d="M277.81,338.37c3.38,2.45,8.12,1.71,10.58-1.67,2.46-3.38,1.72-8.11-1.66-10.58-3.39-2.46-8.12-1.71-10.59,1.67-2.45,3.38-1.71,8.12,1.67,10.58Z"/><path class="c" d="M274.34,315.66c2.41,1.76,5.8,1.22,7.55-1.19,1.76-2.42,1.23-5.8-1.18-7.56-2.42-1.76-5.8-1.22-7.55,1.19-1.76,2.42-1.23,5.8,1.19,7.56Z"/><path class="d" d="M273.47,292.72c1.93,1.41,4.64,.98,6.04-.95,1.41-1.93,.98-4.64-.95-6.05-1.93-1.41-4.64-.98-6.04,.95-1.41,1.93-.98,4.64,.95,6.04Z"/><path class="e" d="M295.39,355.42c1.99-2.23,1.8-5.65-.43-7.64-2.23-1.99-5.65-1.8-7.64,.43-1.99,2.23-1.8,5.65,.43,7.63,2.23,1.99,5.65,1.8,7.64-.42Z"/><path class="c" d="M296.84,220.63c2.49,3.36,7.24,4.06,10.59,1.57,3.36-2.49,4.06-7.23,1.57-10.59-2.49-3.36-7.24-4.06-10.59-1.57-3.36,2.49-4.06,7.23-1.57,10.59Z"/><path class="e" d="M421.82,135.46c-.83,1.59-.21,3.55,1.38,4.38,1.59,.83,3.55,.21,4.38-1.38,.83-1.59,.21-3.55-1.38-4.38-1.59-.83-3.55-.21-4.38,1.38Z"/><path class="b" d="M357.59,146.2c-.55,1.06-.14,2.37,.92,2.92,1.06,.55,2.37,.14,2.92-.92,.55-1.06,.14-2.37-.92-2.92-1.06-.55-2.37-.14-2.92,.92Z"/><path class="c" d="M373.53,136.26c-1.72,3.31-.44,7.4,2.88,9.12,3.31,1.72,7.39,.44,9.12-2.88,1.72-3.31,.43-7.39-2.88-9.12-3.31-1.73-7.4-.44-9.12,2.87Z"/><path class="d" d="M396.16,134.74c-1.38,2.65-.35,5.91,2.3,7.29,2.65,1.38,5.92,.35,7.3-2.3,1.38-2.65,.35-5.91-2.3-7.29-2.65-1.38-5.92-.35-7.3,2.3Z"/><path class="e" d="M482.18,150.39c-2.29,1.92-2.59,5.33-.68,7.62,1.92,2.29,5.33,2.59,7.62,.67,2.29-1.92,2.59-5.33,.68-7.62-1.92-2.29-5.33-2.6-7.62-.68Z"/><path class="b" d="M502.7,165.75c-1.84,1.53-2.08,4.26-.54,6.09,1.53,1.83,4.26,2.08,6.09,.54,1.83-1.53,2.07-4.26,.54-6.1-1.53-1.83-4.27-2.07-6.09-.54Z"/><path class="e" d="M443.42,135.23c-2.29,1.92-2.6,5.33-.68,7.62,1.91,2.29,5.33,2.6,7.62,.68,2.29-1.92,2.59-5.33,.67-7.62-1.92-2.29-5.33-2.6-7.62-.68Z"/><path class="c" d="M460.92,140.51c-3.32,2.78-3.76,7.72-.98,11.04,2.78,3.33,7.72,3.76,11.04,.98,3.32-2.78,3.76-7.73,.98-11.05-2.78-3.32-7.72-3.76-11.05-.98Z"/><path class="e" d="M561.32,233.25c-2.99-.08-5.47,2.27-5.56,5.26-.08,2.99,2.27,5.47,5.26,5.56,2.98,.08,5.47-2.27,5.55-5.26,.09-2.99-2.27-5.47-5.25-5.56Z"/><path class="b" d="M523.63,179.08c-2.99-.08-5.47,2.27-5.56,5.26-.08,2.99,2.27,5.47,5.26,5.56,2.99,.08,5.48-2.27,5.56-5.26,.08-2.99-2.27-5.47-5.26-5.56Z"/><path class="c" d="M539.41,193.67c-2.98-.08-5.47,2.27-5.55,5.26-.08,2.99,2.27,5.47,5.26,5.56,2.98,.08,5.47-2.27,5.55-5.26,.09-2.99-2.27-5.48-5.26-5.56Z"/><path class="d" d="M550.78,209.32c-4.48-.13-8.21,3.41-8.34,7.88-.12,4.48,3.41,8.21,7.89,8.34,4.48,.13,8.21-3.41,8.34-7.88,.12-4.48-3.41-8.21-7.89-8.34Z"/><path class="e" d="M574.2,296.23c-2.73-1.22-5.93,0-7.15,2.72-1.22,2.73,0,5.92,2.72,7.15,2.72,1.22,5.92,0,7.15-2.72,1.22-2.72,0-5.92-2.72-7.15Z"/><path class="b" d="M571.34,316.96c-4.63-2.09-10.07-.01-12.15,4.62-2.08,4.63-.01,10.08,4.62,12.15,4.63,2.08,10.07,0,12.15-4.62,2.08-4.63,0-10.08-4.63-12.15Z"/><path class="e" d="M570.01,256.72c-1.63-.73-3.55,0-4.29,1.63-.74,1.63,0,3.56,1.63,4.29,1.63,.73,3.56,0,4.29-1.63,.73-1.64,0-3.56-1.63-4.29Z"/><path class="c" d="M572.8,275.01c-2.72-1.22-5.92,0-7.15,2.72-1.22,2.73,0,5.93,2.72,7.15,2.72,1.22,5.92,0,7.15-2.72,1.23-2.73,0-5.93-2.72-7.15Z"/><path class="e" d="M531.72,402.05c-1.18-2.75-4.35-4.02-7.1-2.85-2.75,1.18-4.03,4.35-2.85,7.1,1.17,2.75,4.35,4.03,7.09,2.85,2.75-1.17,4.03-4.35,2.86-7.1Z"/><path class="b" d="M565.19,345.17c-1.17-2.75-4.35-4.03-7.1-2.85-2.74,1.17-4.02,4.35-2.85,7.1,1.18,2.75,4.36,4.03,7.1,2.86,2.75-1.18,4.02-4.35,2.85-7.1Z"/><path class="c" d="M558.53,365.6c-1.17-2.75-4.35-4.03-7.1-2.85-2.75,1.17-4.02,4.35-2.85,7.1,1.17,2.74,4.35,4.02,7.1,2.85,2.75-1.17,4.03-4.35,2.85-7.1Z"/><path class="d" d="M543.59,384.8c-.47-1.1-1.74-1.61-2.84-1.14-1.1,.47-1.61,1.74-1.14,2.84,.47,1.1,1.74,1.61,2.84,1.14,1.1-.47,1.61-1.74,1.14-2.84Z"/><path class="e" d="M519.18,419.7c-.05-4.63-3.83-8.35-8.46-8.3-4.63,.04-8.35,3.83-8.31,8.46,.05,4.62,3.83,8.34,8.46,8.3,4.63-.05,8.36-3.83,8.31-8.46Z"/><path class="c" d="M498.58,429.93c-.03-2.99-2.47-5.38-5.45-5.36-2.99,.03-5.39,2.47-5.36,5.46,.02,2.98,2.47,5.38,5.45,5.36,2.99-.02,5.39-2.47,5.36-5.45Z"/><path class="b" d="M292.9,399.84c2.68-1.33,3.77-4.57,2.44-7.25-1.33-2.67-4.58-3.76-7.25-2.43-2.67,1.32-3.76,4.57-2.44,7.25,1.33,2.67,4.58,3.76,7.25,2.43Z"/><path class="e" d="M342.45,441.42c2.14-1.06,3.01-3.66,1.95-5.8-1.06-2.14-3.66-3.02-5.8-1.95-2.14,1.07-3.01,3.67-1.95,5.8,1.06,2.14,3.66,3.01,5.8,1.95Z"/><path class="c" d="M326.07,430.99c2.68-1.33,3.76-4.58,2.44-7.25-1.33-2.68-4.58-3.77-7.25-2.44-2.67,1.33-3.76,4.57-2.44,7.25,1.33,2.68,4.58,3.77,7.25,2.44Z"/><path class="e" d="M254.19,318.65c2.86,.87,5.88-.74,6.75-3.59,.87-2.86-.74-5.88-3.59-6.75-2.86-.87-5.88,.73-6.75,3.59-.87,2.86,.73,5.88,3.59,6.75Z"/><path class="b" d="M276.9,378.31c1.43,.44,2.94-.37,3.38-1.8,.44-1.43-.37-2.94-1.79-3.38-1.43-.44-2.94,.37-3.38,1.79-.44,1.43,.37,2.94,1.8,3.38Z"/><path class="c" d="M264.78,362.63c2.86,.87,5.88-.74,6.75-3.59,.87-2.86-.73-5.88-3.59-6.76-2.85-.87-5.88,.74-6.75,3.59-.87,2.86,.73,5.89,3.59,6.76Z"/><path class="d" d="M258.46,342.98c3.43,1.05,7.05-.89,8.1-4.31,1.05-3.43-.88-7.06-4.3-8.11-3.43-1.05-7.06,.88-8.11,4.3-1.05,3.43,.88,7.06,4.31,8.11Z"/><path class="e" d="M259.33,253.23c1.61,1.33,4,1.1,5.33-.51,1.33-1.61,1.1-4-.5-5.33-1.61-1.33-4-1.11-5.33,.51s-1.11,4,.5,5.33Z"/><path class="b" d="M265.97,232.22c3.1,2.58,7.71,2.14,10.28-.97,2.57-3.11,2.14-7.71-.97-10.28-3.1-2.57-7.71-2.13-10.28,.97-2.57,3.11-2.13,7.71,.97,10.28Z"/><path class="e" d="M251.01,294.97c2.07,1.71,5.14,1.42,6.85-.65,1.71-2.07,1.42-5.14-.65-6.85-2.07-1.71-5.14-1.42-6.85,.65-1.71,2.07-1.42,5.14,.65,6.85Z"/><path class="c" d="M251.8,275.19c3.11,2.57,7.71,2.13,10.28-.97,2.57-3.11,2.13-7.71-.97-10.28-3.11-2.57-7.71-2.13-10.28,.97-2.57,3.11-2.14,7.71,.97,10.28Z"/><path class="e" d="M330.85,157.59c.46,2.95,3.23,4.97,6.18,4.51,2.95-.46,4.97-3.23,4.51-6.18-.46-2.95-3.23-4.97-6.18-4.5-2.95,.46-4.97,3.23-4.51,6.18Z"/><path class="b" d="M278.5,206.99c.28,1.77,1.94,2.98,3.71,2.7,1.77-.28,2.98-1.94,2.71-3.71-.28-1.77-1.94-2.98-3.71-2.71-1.77,.28-2.98,1.94-2.71,3.71Z"/><path class="c" d="M291.89,188.22c.46,2.95,3.23,4.97,6.18,4.51,2.95-.46,4.97-3.23,4.51-6.18-.46-2.95-3.23-4.97-6.18-4.51-2.96,.46-4.97,3.23-4.51,6.18Z"/><path class="d" d="M305.33,173.29c.78,5.01,5.49,8.45,10.5,7.67,5.02-.79,8.45-5.5,7.66-10.51-.78-5.01-5.49-8.45-10.5-7.66-5.02,.79-8.45,5.49-7.66,10.51Z"/><path class="e" d="M235.7,234.86c3.04,2.51,7.54,2.08,10.05-.96,2.51-3.04,2.08-7.54-.95-10.05-3.04-2.51-7.54-2.09-10.05,.95-2.51,3.04-2.09,7.54,.95,10.05Z"/><path class="b" d="M243.78,214c2.3,1.91,5.71,1.59,7.62-.72,1.91-2.3,1.58-5.71-.72-7.61-2.3-1.9-5.71-1.58-7.61,.72-1.9,2.3-1.58,5.71,.72,7.61Z"/><path class="c" d="M229.61,256.97c2.3,1.91,5.71,1.58,7.62-.72,1.91-2.3,1.58-5.71-.72-7.62-2.3-1.9-5.71-1.58-7.61,.72-1.9,2.3-1.58,5.71,.72,7.62Z"/><path class="e" d="M307.45,140.83c.46,2.95,3.23,4.97,6.18,4.51,2.95-.46,4.97-3.23,4.51-6.18-.46-2.95-3.23-4.97-6.18-4.5-2.95,.46-4.97,3.23-4.51,6.18Z"/><path class="b" d="M251.36,190.82c.6,3.83,4.2,6.46,8.04,5.86,3.84-.6,6.46-4.19,5.86-8.03-.6-3.84-4.2-6.46-8.04-5.87-3.84,.61-6.46,4.2-5.86,8.04Z"/><path class="c" d="M268.49,171.46c.46,2.95,3.23,4.97,6.18,4.51,2.95-.46,4.97-3.23,4.51-6.18-.46-2.95-3.23-4.97-6.18-4.51-2.96,.46-4.97,3.23-4.51,6.18Z"/><path class="d" d="M288.34,155.52c.23,1.47,1.61,2.48,3.09,2.25,1.48-.23,2.49-1.62,2.25-3.09-.23-1.47-1.61-2.48-3.09-2.25-1.48,.23-2.49,1.61-2.25,3.09Z"/><path class="e" d="M353.37,118.08c-.1,2.98,2.24,5.49,5.22,5.59,2.98,.1,5.49-2.24,5.59-5.22,.1-2.98-2.24-5.49-5.22-5.59-2.99-.1-5.49,2.24-5.59,5.22Z"/><path class="b" d="M376.91,111.69c-.04,1.05,.78,1.92,1.83,1.96,1.05,.04,1.92-.78,1.96-1.83,.04-1.04-.78-1.92-1.83-1.96-1.04-.03-1.92,.78-1.96,1.83Z"/><path class="c" d="M326.39,126.44c-.19,5.38,4.02,9.87,9.4,10.06,5.38,.18,9.88-4.03,10.06-9.4,.18-5.37-4.03-9.88-9.39-10.06-5.38-.18-9.88,4.03-10.06,9.4Z"/><path class="e" d="M471.99,118.97c-1.13,1.19-1.08,3.07,.11,4.21,1.19,1.13,3.08,1.08,4.21-.11,1.13-1.19,1.08-3.08-.11-4.2-1.19-1.13-3.08-1.08-4.21,.11Z"/><path class="b" d="M397.56,104.53c-2.05,2.17-1.96,5.59,.21,7.65,2.17,2.05,5.59,1.96,7.65-.2,2.06-2.17,1.96-5.6-.2-7.65-2.17-2.05-5.59-1.96-7.65,.21Z"/><path class="c" d="M420.01,103.11c-3.19,3.36-3.04,8.66,.32,11.85,3.36,3.18,8.66,3.04,11.85-.32,3.18-3.36,3.05-8.67-.32-11.85-3.36-3.19-8.67-3.05-11.85,.32Z"/><path class="d" d="M444.96,109.28c-2.06,2.17-1.96,5.59,.2,7.65,2.17,2.05,5.6,1.96,7.65-.21,2.06-2.17,1.96-5.59-.2-7.64-2.17-2.06-5.59-1.97-7.65,.2Z"/><path class="e" d="M512.71,135.46c-4.36,3.03-5.44,9.03-2.41,13.4,3.04,4.37,9.03,5.44,13.4,2.42,4.36-3.04,5.45-9.03,2.42-13.4-3.04-4.37-9.03-5.45-13.41-2.41Z"/><path class="b" d="M533.24,152.47c-2.46,1.7-3.07,5.07-1.36,7.53,1.71,2.45,5.08,3.06,7.53,1.35,2.45-1.7,3.06-5.07,1.36-7.53-1.71-2.45-5.08-3.06-7.53-1.36Z"/><path class="c" d="M495.68,127.26c-2.45,1.7-3.06,5.07-1.36,7.53,1.7,2.45,5.07,3.06,7.53,1.36,2.45-1.7,3.06-5.07,1.36-7.53-1.7-2.46-5.07-3.06-7.53-1.36Z"/><path class="e" d="M586.25,236.18c-1.48-.17-2.83,.88-3,2.37-.17,1.48,.89,2.83,2.37,3,1.48,.17,2.83-.89,3-2.37,.18-1.48-.88-2.83-2.37-3Z"/><path class="b" d="M553.15,169.24c-2.08-.24-3.96,1.24-4.2,3.32-.24,2.08,1.24,3.96,3.32,4.2,2.08,.24,3.96-1.24,4.21-3.32,.24-2.08-1.24-3.96-3.32-4.21Z"/><path class="c" d="M567.84,185.32c-4.3-.51-8.2,2.57-8.7,6.87-.51,4.3,2.56,8.2,6.87,8.71,4.3,.51,8.2-2.57,8.71-6.87,.51-4.31-2.57-8.2-6.87-8.71Z"/><path class="d" d="M577.87,208.46c-2.96-.35-5.65,1.77-6,4.73-.35,2.97,1.77,5.66,4.74,6.01,2.96,.35,5.65-1.77,6-4.74,.35-2.97-1.77-5.66-4.74-6.01Z"/><path class="e" d="M597.24,280.24c-4.84-1.53-10.01,1.15-11.54,5.99-1.53,4.84,1.16,10,6,11.54,4.84,1.53,10-1.15,11.54-5.99,1.53-4.84-1.15-10.01-6-11.54Z"/><path class="b" d="M596.98,304.89c-2.85-.91-5.89,.67-6.79,3.52-.9,2.85,.67,5.89,3.52,6.79,2.85,.9,5.89-.68,6.79-3.52,.9-2.85-.68-5.89-3.52-6.79Z"/><path class="c" d="M594.01,259.74c-2.85-.9-5.89,.67-6.79,3.52-.91,2.85,.68,5.89,3.52,6.79,2.85,.9,5.89-.68,6.79-3.52,.9-2.85-.68-5.89-3.52-6.79Z"/><path class="e" d="M565.39,396.6c-1.54-2.57-4.86-3.4-7.42-1.86-2.56,1.54-3.39,4.86-1.86,7.42,1.53,2.56,4.86,3.39,7.42,1.86,2.56-1.53,3.4-4.86,1.86-7.42Z"/><path class="b" d="M597.25,330.06c-1.53-2.56-4.86-3.39-7.42-1.86-2.56,1.54-3.4,4.85-1.87,7.42,1.54,2.56,4.86,3.4,7.42,1.86,2.56-1.54,3.4-4.86,1.86-7.42Z"/><path class="c" d="M589.09,354.15c-1.23-2.05-3.89-2.72-5.94-1.49-2.05,1.23-2.72,3.88-1.49,5.93,1.23,2.05,3.89,2.72,5.93,1.49,2.05-1.23,2.72-3.88,1.49-5.93Z"/><path class="d" d="M579.91,374.42c-1.53-2.56-4.85-3.4-7.42-1.87-2.56,1.54-3.4,4.86-1.86,7.42,1.53,2.56,4.85,3.4,7.41,1.87,2.56-1.54,3.4-4.86,1.86-7.42Z"/><path class="e" d="M529.13,437.88c-.74-2.9-3.69-4.64-6.58-3.9-2.9,.74-4.64,3.69-3.9,6.58,.73,2.89,3.68,4.64,6.57,3.9,2.9-.74,4.64-3.68,3.91-6.58Z"/><path class="d" d="M553.57,419.71c-1.32-5.21-6.63-8.35-11.84-7.03-5.21,1.34-8.36,6.64-7.03,11.85,1.33,5.2,6.63,8.35,11.83,7.02,5.22-1.33,8.37-6.63,7.04-11.84Z"/><path class="e" d="M321.11,455.56c2.28-1.93,2.57-5.34,.64-7.62-1.93-2.28-5.34-2.56-7.62-.64-2.28,1.92-2.57,5.34-.64,7.62,1.93,2.28,5.34,2.57,7.63,.64Z"/><path class="b" d="M301.79,443.85c1.6-1.35,1.8-3.74,.45-5.33-1.35-1.6-3.74-1.8-5.34-.45-1.6,1.35-1.8,3.74-.45,5.33,1.35,1.6,3.74,1.8,5.33,.45Z"/><path class="e" d="M242.17,366.22c1.2,.03,2.18-.92,2.21-2.12,.03-1.19-.92-2.18-2.11-2.21-1.19-.03-2.19,.92-2.21,2.11-.03,1.19,.92,2.19,2.11,2.21Z"/><path class="b" d="M281.4,431.9c2.98,.07,5.46-2.3,5.53-5.29,.07-2.99-2.3-5.46-5.28-5.53-2.99-.06-5.47,2.3-5.53,5.29-.06,2.99,2.3,5.46,5.29,5.53Z"/><path class="c" d="M265.3,415.13c4.03,.09,7.37-3.1,7.47-7.13,.09-4.04-3.1-7.38-7.13-7.47-4.03-.09-7.38,3.1-7.47,7.13-.1,4.03,3.1,7.38,7.13,7.47Z"/><path class="d" d="M253.12,393.58c2.98,.07,5.46-2.3,5.53-5.28,.07-2.99-2.3-5.47-5.29-5.53-2.99-.07-5.46,2.29-5.53,5.28-.07,2.99,2.29,5.46,5.28,5.54Z"/><path class="e" d="M233.53,344.88c2.96,.37,5.67-1.72,6.05-4.69,.38-2.96-1.72-5.67-4.69-6.04-2.96-.38-5.67,1.72-6.05,4.68-.37,2.97,1.72,5.67,4.69,6.05Z"/><path class="b" d="M228.65,326.22c4,.52,7.66-2.32,8.16-6.32,.51-4-2.32-7.66-6.33-8.16-4-.51-7.65,2.32-8.16,6.32-.51,3.99,2.32,7.66,6.32,8.16Z"/><path class="b" d="M224.11,299.63c1.97,2.24,5.39,2.47,7.63,.5,2.25-1.97,2.47-5.39,.5-7.63-1.98-2.25-5.39-2.47-7.64-.5-2.24,1.97-2.47,5.39-.5,7.64Z"/><path class="c" d="M227.24,275.9c1.58,1.8,4.31,1.98,6.11,.4,1.8-1.58,1.98-4.31,.4-6.1-1.57-1.8-4.31-1.98-6.11-.4-1.8,1.57-1.98,4.31-.4,6.1Z"/><path class="b" d="M252.53,436.53c1.5-.98,1.92-3,.93-4.5-.99-1.5-3-1.91-4.49-.93-1.5,.98-1.91,3-.93,4.49,.99,1.5,3,1.91,4.49,.93Z"/><path class="e" d="M205.94,352.52c2.96,.43,5.7-1.63,6.12-4.59,.43-2.96-1.63-5.69-4.58-6.12-2.96-.43-5.7,1.63-6.12,4.59-.43,2.95,1.62,5.7,4.58,6.12Z"/><path class="b" d="M236.62,419.88c2.96,.42,5.7-1.63,6.12-4.59,.42-2.96-1.63-5.7-4.58-6.12-2.96-.42-5.71,1.63-6.13,4.59-.42,2.96,1.63,5.7,4.59,6.12Z"/><path class="c" d="M223.62,399.92c3.61,.53,6.95-1.98,7.46-5.59,.52-3.61-1.98-6.95-5.59-7.47-3.61-.52-6.96,1.99-7.48,5.59-.52,3.62,1.99,6.96,5.6,7.47Z"/><path class="d" d="M213.23,383.12c5.91,.85,11.39-3.26,12.24-9.17,.85-5.92-3.25-11.4-9.17-12.25-5.91-.85-11.4,3.26-12.25,9.17-.85,5.92,3.25,11.4,9.17,12.25Z"/><path class="e" d="M197.17,303.42c3.64,1.25,7.61-.68,8.87-4.33,1.25-3.64-.69-7.61-4.33-8.87-3.64-1.26-7.61,.68-8.87,4.32-1.25,3.65,.68,7.62,4.33,8.88Z"/><path class="b" d="M197.32,280.88c2.82,.98,5.9-.52,6.88-3.35,.98-2.82-.53-5.9-3.35-6.88-2.82-.97-5.9,.53-6.87,3.35-.98,2.82,.53,5.9,3.35,6.87Z"/><path class="c" d="M200.22,323.02c1.13,.39,2.36-.21,2.75-1.34,.39-1.13-.21-2.36-1.34-2.75-1.13-.39-2.36,.21-2.75,1.34-.39,1.13,.21,2.36,1.34,2.75Z"/><path class="b" d="M199.81,254.52c.81,1.43,2.62,1.93,4.05,1.12,1.43-.81,1.93-2.62,1.13-4.05-.81-1.43-2.63-1.93-4.06-1.13-1.43,.81-1.94,2.62-1.13,4.06Z"/><path class="c" d="M205.51,232.37c1.47,2.6,4.77,3.52,7.37,2.05,2.6-1.47,3.52-4.77,2.05-7.37-1.47-2.6-4.77-3.52-7.37-2.05-2.6,1.47-3.52,4.77-2.05,7.37Z"/><path class="d" d="M213.66,210.3c1.84,3.25,5.96,4.4,9.21,2.57,3.25-1.84,4.4-5.97,2.56-9.22-1.83-3.25-5.95-4.4-9.2-2.56-3.25,1.84-4.4,5.96-2.57,9.22Z"/><path class="b" d="M494.99,489.47c-.24-.86-1.13-1.37-2-1.13-.86,.24-1.37,1.13-1.13,2,.24,.86,1.13,1.37,2,1.13,.86-.24,1.37-1.13,1.13-2Z"/><path class="b" d="M329.32,492.27c.9-1.19,.66-2.89-.54-3.79-1.19-.9-2.89-.65-3.79,.54-.9,1.2-.65,2.89,.54,3.79,1.19,.9,2.89,.65,3.79-.54Z"/><path class="d" d="M269.02,455.39c2.92-.6,4.81-3.46,4.21-6.38-.6-2.93-3.47-4.81-6.39-4.21-2.93,.6-4.81,3.46-4.21,6.38,.6,2.93,3.46,4.81,6.39,4.21Z"/><path class="b" d="M606.73,384.6c-2.47-1.69-5.83-1.05-7.52,1.42-1.68,2.47-1.05,5.84,1.42,7.52,2.47,1.68,5.83,1.05,7.51-1.42,1.68-2.47,1.05-5.83-1.42-7.52Z"/><path class="e" d="M547.05,461.05c-.95-3.74-4.74-6-8.48-5.05-3.74,.94-5.99,4.74-5.05,8.47,.94,3.74,4.74,6,8.47,5.05,3.74-.94,6-4.74,5.06-8.47Z"/><path class="b" d="M600.04,406.46c-1.27-5.04-6.4-8.09-11.43-6.81-5.04,1.28-8.09,6.4-6.83,11.42,1.29,5.05,6.41,8.11,11.45,6.83,5.03-1.29,8.1-6.4,6.82-11.44Z"/><path class="c" d="M579.4,427.88c-.44-1.74-2.21-2.79-3.94-2.35-1.74,.44-2.79,2.2-2.35,3.94,.44,1.74,2.21,2.79,3.94,2.36,1.74-.44,2.8-2.21,2.35-3.94Z"/><path class="d" d="M565.82,444.38c-.73-2.89-3.67-4.65-6.57-3.92-2.9,.73-4.66,3.67-3.92,6.57,.73,2.89,3.67,4.65,6.57,3.91,2.9-.73,4.65-3.67,3.92-6.57Z"/><path class="c" d="M523.67,477.76c-.17-2.98-2.73-5.25-5.71-5.09-2.99,.18-5.26,2.73-5.08,5.72,.17,2.98,2.73,5.26,5.71,5.09,2.98-.18,5.26-2.73,5.08-5.72Z"/><path class="b" d="M559.08,137.96c-2.95,2.29-3.48,6.54-1.19,9.49,2.29,2.94,6.54,3.48,9.49,1.18,2.95-2.28,3.48-6.54,1.2-9.48-2.3-2.95-6.54-3.49-9.49-1.19Z"/><path class="e" d="M614.62,215.96c-5.67-.36-10.55,3.94-10.91,9.61-.37,5.66,3.94,10.54,9.59,10.9,5.67,.37,10.55-3.93,10.91-9.6,.36-5.66-3.93-10.55-9.59-10.91Z"/><path class="b" d="M578.42,156.09c-2.98-.19-5.55,2.07-5.74,5.05-.19,2.98,2.07,5.55,5.05,5.74,2.99,.18,5.56-2.08,5.75-5.06,.19-2.98-2.08-5.55-5.05-5.74Z"/><path class="c" d="M592.66,179.38c-1.19-.08-2.22,.83-2.29,2.02-.08,1.19,.83,2.22,2.02,2.3,1.19,.08,2.22-.83,2.3-2.02,.08-1.19-.83-2.22-2.02-2.3Z"/><path class="d" d="M604.28,196.28c-2.98-.19-5.55,2.07-5.75,5.05-.19,2.98,2.07,5.56,5.05,5.74,2.98,.19,5.55-2.07,5.74-5.05,.19-2.99-2.07-5.55-5.05-5.75Z"/><path class="e" d="M625.64,274c-1.01-.26-2.04,.35-2.31,1.36-.26,1.01,.35,2.04,1.36,2.31,1.01,.26,2.04-.35,2.31-1.36,.26-1.01-.35-2.05-1.36-2.31Z"/><path class="b" d="M628.53,291.55c-2.89-.75-5.84,.98-6.59,3.88-.75,2.89,.99,5.84,3.88,6.59,2.89,.74,5.84-.99,6.59-3.88,.75-2.89-.99-5.84-3.88-6.59Z"/><path class="c" d="M623.14,246.63c-2.89-.75-5.84,.99-6.59,3.88-.75,2.89,.99,5.84,3.88,6.59,2.89,.75,5.84-.99,6.59-3.88,.74-2.89-.99-5.85-3.89-6.59Z"/><path class="b" d="M629.25,317.28c-1.34-1.98-4.02-2.5-6.01-1.17-1.98,1.33-2.5,4.02-1.17,6,1.34,1.98,4.03,2.51,6.01,1.17,1.98-1.34,2.5-4.03,1.17-6.01Z"/><path class="c" d="M624.19,340.56c-1.67-2.48-5.04-3.13-7.51-1.46-2.48,1.67-3.13,5.03-1.46,7.5,1.67,2.47,5.03,3.13,7.51,1.46,2.48-1.67,3.13-5.03,1.47-7.5Z"/><path class="d" d="M618.29,362.88c-2.27-3.36-6.85-4.25-10.21-2-3.37,2.27-4.26,6.85-1.99,10.22,2.27,3.37,6.83,4.26,10.2,1.99,3.37-2.27,4.26-6.84,1.99-10.21Z"/><path class="b" d="M454.84,84.01c-1.06,2.8,.36,5.92,3.16,6.97,2.8,1.05,5.92-.36,6.96-3.16,1.06-2.79-.36-5.91-3.15-6.97-2.8-1.05-5.92,.36-6.97,3.16Z"/><path class="e" d="M543.97,125.28c-2.65,1.4-3.65,4.67-2.25,7.31,1.4,2.64,4.67,3.64,7.31,2.25,2.64-1.39,3.65-4.67,2.25-7.31-1.39-2.64-4.67-3.65-7.31-2.25Z"/><path class="b" d="M478.39,86.72c-3.83,2.02-5.29,6.77-3.27,10.6,2.03,3.83,6.77,5.29,10.6,3.27,3.83-2.04,5.29-6.79,3.27-10.61-2.04-3.83-6.78-5.29-10.61-3.26Z"/><path class="c" d="M502.34,98.41c-2.65,1.39-3.65,4.67-2.25,7.31,1.39,2.65,4.66,3.65,7.3,2.26,2.64-1.4,3.65-4.67,2.26-7.31-1.4-2.65-4.67-3.65-7.31-2.25Z"/><path class="d" d="M523.61,111.52c-1.58,.84-2.19,2.8-1.35,4.38,.84,1.59,2.8,2.19,4.39,1.35,1.58-.84,2.19-2.8,1.35-4.39-.84-1.59-2.8-2.19-4.38-1.35Z"/><path class="b" d="M227.31,187.6c2.34,1.86,5.74,1.47,7.6-.87,1.85-2.34,1.47-5.74-.88-7.6-2.33-1.86-5.74-1.47-7.59,.87-1.86,2.34-1.47,5.74,.87,7.6Z"/><path class="e" d="M293.92,115.4c.52,2.95,3.33,4.9,6.27,4.38,2.94-.52,4.9-3.33,4.38-6.27-.51-2.94-3.32-4.9-6.27-4.38-2.94,.52-4.9,3.32-4.38,6.26Z"/><path class="b" d="M240.84,165.35c.39,2.21,2.5,3.68,4.7,3.29,2.21-.39,3.68-2.5,3.29-4.7-.4-2.21-2.5-3.68-4.7-3.29-2.21,.4-3.68,2.5-3.29,4.7Z"/><path class="c" d="M255.58,146.8c.51,2.94,3.32,4.9,6.26,4.38,2.95-.52,4.9-3.32,4.38-6.26-.52-2.94-3.33-4.91-6.27-4.39-2.95,.52-4.91,3.33-4.38,6.27Z"/><path class="d" d="M267.12,131.89c1.04,5.88,6.66,9.8,12.54,8.77,5.88-1.04,9.82-6.65,8.77-12.54-1.03-5.88-6.65-9.81-12.54-8.77-5.89,1.03-9.81,6.65-8.77,12.54Z"/><path class="e" d="M339.38,91.76c-.04,2.99,2.34,5.44,5.33,5.48,2.98,.04,5.44-2.35,5.48-5.34,.05-2.98-2.34-5.44-5.33-5.48-2.99-.04-5.44,2.35-5.49,5.34Z"/><path class="b" d="M354.68,84.78c-.09,5.53,4.33,10.07,9.86,10.15,5.53,.09,10.06-4.34,10.15-9.86,.08-5.53-4.34-10.06-9.86-10.15-5.53-.08-10.07,4.34-10.15,9.86Z"/><path class="c" d="M320.15,100.76c-.02,1.2,.94,2.18,2.13,2.2,1.2,.02,2.18-.94,2.19-2.13,.02-1.19-.94-2.18-2.13-2.19-1.19-.02-2.18,.94-2.19,2.13Z"/><path class="b" d="M385.04,77.76c-2.01,2.21-1.85,5.63,.36,7.64,2.21,2.01,5.63,1.85,7.64-.35,2.01-2.21,1.85-5.64-.36-7.65-2.21-2.01-5.63-1.85-7.64,.36Z"/><path class="c" d="M409.07,77.8c-1.41,1.55-1.3,3.94,.25,5.35,1.55,1.41,3.94,1.3,5.35-.25,1.41-1.54,1.3-3.94-.25-5.35-1.54-1.41-3.94-1.3-5.35,.25Z"/><path class="d" d="M430.63,77.58c-2.91,3.2-2.68,8.16,.51,11.08,3.21,2.92,8.18,2.68,11.09-.52,2.92-3.2,2.69-8.15-.51-11.07-3.2-2.92-8.16-2.69-11.09,.51Z"/><path class="b" d="M354.96,60.75c.13,2.99,2.66,5.3,5.64,5.17,2.98-.13,5.3-2.66,5.16-5.64-.13-2.98-2.66-5.29-5.64-5.16-2.99,.14-5.3,2.66-5.16,5.64Z"/><path class="e" d="M454.22,54.75c-1.88,2.33-1.52,5.73,.8,7.61,2.32,1.88,5.73,1.51,7.61-.81,1.88-2.32,1.52-5.73-.81-7.6-2.32-1.88-5.73-1.52-7.6,.8Z"/><path class="b" d="M376.19,51.15c-2.91,3.6-2.35,8.88,1.25,11.79,3.6,2.91,8.88,2.35,11.79-1.24,2.91-3.61,2.35-8.89-1.25-11.8-3.61-2.9-8.89-2.35-11.79,1.26Z"/><path class="c" d="M404.18,49.97c-1.88,2.32-1.52,5.73,.81,7.6,2.32,1.88,5.73,1.52,7.6-.8,1.88-2.32,1.52-5.73-.8-7.61-2.33-1.88-5.73-1.52-7.61,.81Z"/><path class="d" d="M429.74,54.34c-.75,.93-.61,2.29,.32,3.04,.93,.75,2.29,.61,3.04-.32,.75-.93,.61-2.29-.32-3.04-.93-.75-2.29-.61-3.04,.32Z"/><path class="c" d="M477.25,58.74c-4.34,3.67-4.88,10.14-1.22,14.48,3.67,4.34,10.15,4.88,14.48,1.21,4.33-3.66,4.88-10.15,1.22-14.48-3.66-4.33-10.15-4.88-14.48-1.22Z"/><path class="b" d="M175.88,250.68c3.46,.95,7.03-1.08,7.98-4.55,.94-3.46-1.1-7.03-4.55-7.97-3.45-.95-7.02,1.09-7.97,4.54-.95,3.46,1.09,7.03,4.54,7.97Z"/><path class="e" d="M209.88,157.32c2.87,4.38,8.73,5.6,13.11,2.74,4.38-2.86,5.59-8.73,2.73-13.1-2.85-4.38-8.72-5.6-13.1-2.73-4.37,2.86-5.6,8.72-2.74,13.1Z"/><path class="b" d="M178.72,224.6c1.63,2.5,4.99,3.2,7.49,1.56,2.5-1.64,3.2-4.99,1.57-7.49-1.64-2.5-5-3.2-7.49-1.57-2.5,1.64-3.2,4.99-1.56,7.49Z"/><path class="c" d="M187.68,199.97c1.06,1.63,3.24,2.08,4.86,1.02,1.63-1.06,2.08-3.24,1.02-4.86-1.06-1.62-3.25-2.08-4.87-1.02-1.63,1.07-2.08,3.25-1.01,4.87Z"/><path class="d" d="M195.37,179.79c1.64,2.5,4.99,3.19,7.49,1.57,2.5-1.64,3.2-4.99,1.56-7.49-1.63-2.5-4.99-3.2-7.49-1.56-2.5,1.63-3.2,4.99-1.57,7.49Z"/><path class="e" d="M248.27,114.44c.57,1.38,2.15,2.04,3.53,1.47,1.38-.57,2.04-2.15,1.47-3.53-.56-1.38-2.15-2.04-3.53-1.47-1.38,.57-2.04,2.15-1.47,3.53Z"/><path class="b" d="M267.43,99.12c1.13,2.77,4.29,4.09,7.06,2.95,2.76-1.13,4.08-4.3,2.94-7.06-1.14-2.76-4.3-4.08-7.06-2.95-2.76,1.14-4.08,4.3-2.94,7.06Z"/><path class="c" d="M228.63,132.55c1.14,2.77,4.29,4.08,7.06,2.95,2.77-1.14,4.08-4.3,2.94-7.06-1.14-2.76-4.3-4.08-7.06-2.95-2.76,1.14-4.08,4.3-2.94,7.06Z"/><path class="b" d="M282.06,81.19c-1.84,5.3,.97,11.1,6.27,12.94,5.31,1.84,11.1-.96,12.95-6.26,1.84-5.31-.97-11.11-6.27-12.95-5.31-1.84-11.1,.96-12.94,6.27Z"/><path class="c" d="M309.25,73.19c-.98,2.83,.51,5.91,3.33,6.89,2.82,.98,5.9-.51,6.88-3.33,.98-2.82-.51-5.9-3.33-6.88-2.82-.98-5.9,.51-6.88,3.33Z"/><path class="d" d="M335.54,66.23c-.39,1.13,.21,2.36,1.33,2.75,1.13,.39,2.37-.21,2.76-1.34,.39-1.13-.2-2.36-1.33-2.75-1.13-.39-2.36,.2-2.76,1.33Z"/><path class="b" d="M655.05,288.3c-2.95-.5-5.74,1.48-6.24,4.42-.5,2.95,1.48,5.74,4.42,6.23,2.95,.5,5.73-1.48,6.24-4.42,.5-2.95-1.48-5.74-4.43-6.24Z"/><path class="e" d="M636.54,386.59c-1.88-2.33-5.28-2.69-7.61-.82-2.33,1.88-2.69,5.28-.82,7.6,1.87,2.33,5.28,2.7,7.61,.82,2.33-1.87,2.7-5.28,.82-7.6Z"/><path class="b" d="M659.65,311.33c-2.77-3.44-7.81-3.99-11.25-1.21-3.44,2.77-3.99,7.81-1.22,11.26,2.79,3.44,7.83,3.99,11.27,1.22,3.44-2.78,3.99-7.82,1.21-11.26Z"/><path class="c" d="M653.28,338.28c-1.87-2.33-5.28-2.7-7.6-.82-2.33,1.87-2.7,5.27-.82,7.6,1.87,2.33,5.29,2.69,7.61,.82,2.33-1.88,2.7-5.28,.82-7.61Z"/><path class="d" d="M643.81,362.07c-1.12-1.39-3.16-1.61-4.56-.49-1.4,1.13-1.62,3.17-.49,4.56,1.12,1.4,3.17,1.62,4.56,.49,1.4-1.12,1.62-3.17,.49-4.56Z"/><path class="c" d="M628.81,409.23c-2.53-4.75-8.41-6.55-13.17-4.03-4.75,2.53-6.55,8.43-4.03,13.17,2.53,4.75,8.42,6.55,13.17,4.04,4.74-2.53,6.55-8.42,4.03-13.17Z"/><path class="b" d="M511.47,75.34c-.44,.85-.11,1.89,.73,2.33,.85,.44,1.9,.11,2.33-.74,.44-.85,.11-1.89-.73-2.33-.85-.44-1.89-.11-2.33,.73Z"/><path class="e" d="M593.16,130.89c-2.24,.86-3.35,3.36-2.49,5.59,.86,2.23,3.36,3.34,5.59,2.49,2.23-.85,3.35-3.36,2.49-5.59-.85-2.23-3.36-3.35-5.59-2.49Z"/><path class="b" d="M531.23,79.05c-4.1,1.57-6.14,6.17-4.57,10.27,1.57,4.1,6.17,6.15,10.27,4.58,4.11-1.58,6.15-6.19,4.58-10.28-1.59-4.1-6.18-6.15-10.28-4.57Z"/><path class="c" d="M552.8,95.74c-2.79,1.06-4.19,4.2-3.11,6.98,1.07,2.8,4.2,4.18,6.98,3.11,2.79-1.07,4.19-4.2,3.12-6.99-1.07-2.79-4.21-4.19-6.99-3.11Z"/><path class="d" d="M571.7,111.07c-3.21,1.23-4.8,4.83-3.58,8.04,1.23,3.21,4.83,4.81,8.03,3.58,3.21-1.23,4.81-4.83,3.58-8.04-1.23-3.21-4.83-4.81-8.04-3.58Z"/><path class="e" d="M620.49,165.22c-6.53,1.17-10.86,7.41-9.7,13.94,1.18,6.52,7.42,10.86,13.95,9.69,6.51-1.15,10.86-7.4,9.69-13.93-1.18-6.53-7.42-10.87-13.95-9.7Z"/><path class="b" d="M633.74,198.8c-.88,.16-1.47,1-1.31,1.88,.16,.88,1,1.47,1.88,1.31,.88-.16,1.47-1,1.31-1.88-.16-.88-1-1.47-1.88-1.31Z"/><path class="c" d="M606.9,150.93c-2.94,.53-4.89,3.33-4.37,6.28,.53,2.94,3.34,4.9,6.28,4.37,2.94-.53,4.9-3.34,4.37-6.27-.53-2.94-3.34-4.9-6.28-4.37Z"/><path class="b" d="M644.6,218.5c-2.55-1.55-5.88-.75-7.43,1.8-1.55,2.55-.75,5.88,1.8,7.44,2.55,1.55,5.88,.74,7.44-1.81,1.55-2.56,.75-5.88-1.8-7.43Z"/><path class="c" d="M652.06,239.59c-4.04-2.46-9.29-1.18-11.75,2.85-2.46,4.03-1.18,9.29,2.85,11.74,4.02,2.46,9.29,1.18,11.74-2.85,2.46-4.02,1.18-9.29-2.84-11.74Z"/><path class="d" d="M654.92,266.32c-2.04-1.24-4.7-.59-5.95,1.44-1.24,2.05-.59,4.71,1.45,5.95,2.04,1.24,4.7,.6,5.94-1.44,1.25-2.04,.6-4.7-1.44-5.95Z"/><path class="e" d="M276.11,496.11c1.59-.83,2.21-2.78,1.38-4.37-.83-1.59-2.79-2.21-4.37-1.39-1.59,.83-2.21,2.79-1.38,4.38,.83,1.59,2.78,2.21,4.37,1.38Z"/><path class="c" d="M256.2,480.5c2.87-.85,4.49-3.86,3.64-6.73-.85-2.87-3.87-4.49-6.73-3.64-2.86,.85-4.49,3.87-3.64,6.73,.86,2.86,3.87,4.49,6.73,3.64Z"/><path class="b" d="M609.92,430.75c-2.33-1.88-5.73-1.52-7.61,.81-1.87,2.33-1.51,5.74,.81,7.6,2.33,1.88,5.73,1.51,7.6-.81,1.88-2.33,1.52-5.73-.81-7.6Z"/><path class="b" d="M597.56,452.67c-.49-2.95-3.29-4.93-6.23-4.43-2.95,.5-4.93,3.3-4.43,6.24,.51,2.95,3.3,4.93,6.24,4.44,2.95-.51,4.93-3.29,4.43-6.24Z"/><path class="c" d="M580.28,471.52c-.39-2.36-2.63-3.94-4.98-3.54-2.36,.4-3.95,2.63-3.55,4.99,.4,2.35,2.63,3.94,4.99,3.55,2.36-.4,3.95-2.63,3.54-4.99Z"/><path class="d" d="M564.36,487.07c-.5-2.94-3.29-4.92-6.23-4.44-2.95,.5-4.93,3.29-4.43,6.24,.5,2.94,3.29,4.93,6.24,4.43,2.95-.5,4.93-3.29,4.43-6.24Z"/><path class="e" d="M494.86,525.88c.09-4.33-3.34-7.92-7.68-8.01-4.32-.09-7.91,3.35-8.01,7.68-.1,4.32,3.34,7.91,7.67,8.01,4.33,.08,7.92-3.35,8.01-7.68Z"/><path class="c" d="M514.97,517.05c.06-2.99-2.3-5.46-5.29-5.53-2.99-.06-5.46,2.31-5.52,5.29-.07,2.99,2.31,5.46,5.29,5.53,2.99,.06,5.46-2.3,5.52-5.29Z"/><path class="b" d="M193.99,392.48c.87-.22,1.4-1.1,1.18-1.97-.22-.87-1.1-1.4-1.97-1.18-.87,.22-1.39,1.1-1.18,1.97,.22,.87,1.1,1.4,1.97,1.18Z"/><path class="e" d="M165.69,303.76c5.37,2.78,11.94,.68,14.72-4.69,2.78-5.36,.67-11.95-4.68-14.72-5.36-2.78-11.95-.68-14.72,4.68-2.77,5.36-.68,11.95,4.68,14.72Z"/><path class="b" d="M181.76,373.37c2.65,1.37,5.92,.33,7.29-2.32,1.37-2.66,.33-5.92-2.32-7.29-2.66-1.37-5.93-.33-7.3,2.32-1.37,2.66-.33,5.92,2.32,7.29Z"/><path class="c" d="M172.31,351.33c4.03,2.1,9,.51,11.08-3.53,2.09-4.03,.51-8.99-3.52-11.07-4.03-2.09-9-.51-11.08,3.51-2.09,4.04-.51,9,3.52,11.08Z"/><path class="d" d="M171.25,325.8c2.65,1.37,5.91,.33,7.29-2.32,1.37-2.65,.33-5.92-2.32-7.29-2.65-1.37-5.92-.33-7.29,2.32-1.38,2.66-.33,5.92,2.32,7.29Z"/><path class="c" d="M170.5,271.67c2.35,1.85,5.75,1.44,7.6-.9,1.85-2.35,1.44-5.75-.91-7.6-2.35-1.85-5.75-1.44-7.6,.9-1.85,2.35-1.44,5.75,.91,7.6Z"/><path class="b" d="M234.06,462.12c2.96,.39,5.68-1.69,6.07-4.66,.39-2.96-1.69-5.68-4.65-6.07-2.96-.38-5.68,1.7-6.07,4.66-.39,2.97,1.69,5.68,4.65,6.08Z"/><path class="c" d="M217.36,443.22c4.3,.57,8.24-2.45,8.81-6.75,.57-4.3-2.45-8.23-6.74-8.8-4.29-.57-8.23,2.45-8.8,6.75-.58,4.29,2.45,8.24,6.74,8.8Z"/><path class="d" d="M203.77,418.56c2.96,.39,5.68-1.69,6.07-4.64,.39-2.97-1.69-5.69-4.66-6.08-2.96-.39-5.68,1.69-6.07,4.64-.39,2.97,1.69,5.69,4.65,6.08Z"/><path class="b" d="M177.26,423.28c2.84-.95,4.36-4.02,3.41-6.85-.95-2.84-4.02-4.36-6.85-3.4-2.83,.95-4.35,4.02-3.41,6.84,.96,2.83,4.02,4.36,6.85,3.41Z"/><path class="e" d="M144.1,329.52c2.76,1.17,5.92-.12,7.09-2.87,1.17-2.75-.12-5.92-2.87-7.09-2.75-1.17-5.92,.12-7.09,2.87-1.16,2.75,.12,5.92,2.87,7.09Z"/><path class="b" d="M162.8,404.02c3.44,1.46,7.41-.16,8.86-3.59,1.45-3.44-.16-7.41-3.59-8.87-3.45-1.45-7.42,.16-8.87,3.59-1.45,3.45,.16,7.41,3.6,8.87Z"/><path class="c" d="M156.46,379.74c2.75,1.17,5.93-.12,7.09-2.87,1.17-2.75-.12-5.92-2.87-7.08-2.75-1.17-5.93,.12-7.09,2.87-1.16,2.76,.12,5.93,2.87,7.09Z"/><path class="d" d="M147.92,359.15c4.4,1.86,9.48-.2,11.35-4.6,1.86-4.41-.2-9.48-4.6-11.34-4.39-1.87-9.48,.2-11.34,4.59-1.87,4.41,.2,9.48,4.6,11.34Z"/><path class="c" d="M145.78,300c1.24,.83,2.92,.5,3.75-.74,.83-1.24,.5-2.92-.74-3.75-1.24-.83-2.92-.5-3.75,.74-.83,1.24-.5,2.92,.75,3.75Z"/><path class="b" d="M238.3,496.81c2.35-1.85,2.74-5.26,.88-7.6-1.85-2.35-5.25-2.73-7.6-.88-2.34,1.86-2.73,5.26-.89,7.6,1.86,2.34,5.26,2.74,7.6,.88Z"/><path class="b" d="M217.44,480.24c1.49,.08,2.77-1.06,2.85-2.55,.08-1.49-1.06-2.76-2.55-2.85-1.49-.08-2.77,1.06-2.85,2.55-.08,1.49,1.06,2.77,2.55,2.85Z"/><path class="c" d="M201.83,463.78c2.99,.16,5.54-2.12,5.7-5.11,.16-2.99-2.12-5.53-5.1-5.69-2.98-.17-5.53,2.12-5.7,5.1-.17,2.98,2.12,5.54,5.1,5.7Z"/><path class="d" d="M187.74,443.12c2.68,.14,4.98-1.91,5.13-4.59,.15-2.69-1.91-4.99-4.6-5.13-2.68-.15-4.98,1.91-5.13,4.59-.15,2.69,1.91,4.98,4.6,5.13Z"/><path class="b" d="M638.95,439.28c-2.66-2.51-6.83-2.39-9.33,.27-2.5,2.65-2.38,6.83,.28,9.32,2.65,2.5,6.83,2.38,9.32-.27,2.5-2.65,2.38-6.83-.27-9.32Z"/><path class="b" d="M626.19,461.24c-.27-2.97-2.9-5.17-5.88-4.9-2.97,.28-5.17,2.91-4.9,5.88,.28,2.98,2.91,5.17,5.88,4.9,2.98-.28,5.17-2.9,4.9-5.88Z"/><path class="c" d="M609.57,480.08c-.19-2.08-2.03-3.62-4.11-3.43-2.08,.19-3.62,2.03-3.43,4.11,.19,2.08,2.03,3.62,4.11,3.43,2.09-.19,3.62-2.03,3.43-4.11Z"/><path class="d" d="M592.52,496.48c-.27-2.97-2.9-5.16-5.87-4.9-2.98,.27-5.17,2.9-4.9,5.87,.27,2.97,2.9,5.17,5.88,4.9,2.98-.27,5.17-2.9,4.9-5.88Z"/><path class="c" d="M548.2,527.54c.29-2.98-1.87-5.62-4.85-5.92-2.98-.3-5.62,1.88-5.92,4.85-.29,2.97,1.88,5.62,4.85,5.92,2.97,.3,5.62-1.88,5.92-4.85Z"/><path class="e" d="M679.66,326.1c-2.74-1.19-5.92,.07-7.12,2.8-1.19,2.74,.07,5.92,2.81,7.12,2.73,1.19,5.92-.07,7.12-2.8,1.19-2.74-.07-5.93-2.81-7.12Z"/><path class="b" d="M677.24,348.96c-4.93-2.16-10.67,.11-12.81,5.04-2.15,4.93,.11,10.67,5.04,12.81,4.93,2.14,10.66-.12,12.82-5.04,2.14-4.93-.12-10.67-5.04-12.81Z"/><path class="b" d="M673.17,377.99c-1.26-2.7-4.48-3.88-7.18-2.62-2.71,1.26-3.88,4.48-2.62,7.19,1.26,2.71,4.48,3.88,7.19,2.62,2.71-1.27,3.88-4.48,2.62-7.19Z"/><path class="c" d="M662.57,401.11c-1.01-2.17-3.59-3.11-5.75-2.1-2.17,1.01-3.1,3.58-2.09,5.75,1.01,2.16,3.58,3.1,5.75,2.09,2.17-1,3.1-3.58,2.1-5.74Z"/><path class="d" d="M652.47,422.59c-1.26-2.71-4.48-3.88-7.18-2.63-2.71,1.26-3.89,4.49-2.62,7.19,1.26,2.7,4.48,3.88,7.18,2.62,2.71-1.26,3.89-4.48,2.62-7.19Z"/><path class="b" d="M655.75,174.41c-3.6,1.04-5.66,4.78-4.62,8.37,1.04,3.59,4.79,5.66,8.37,4.61,3.58-1.03,5.65-4.79,4.62-8.37-1.04-3.59-4.79-5.65-8.37-4.61Z"/><path class="e" d="M685.3,270.78c-2.71-1.28-5.92-.13-7.21,2.57-1.28,2.7-.12,5.92,2.57,7.2,2.7,1.28,5.93,.13,7.21-2.57,1.28-2.7,.13-5.92-2.57-7.2Z"/><path class="b" d="M668.25,198.74c-1.62-.77-3.56-.07-4.32,1.54-.76,1.62-.07,3.56,1.54,4.32,1.63,.76,3.56,.07,4.33-1.54,.76-1.62,.08-3.56-1.54-4.32Z"/><path class="c" d="M674.79,220.6c-2.7-1.29-5.93-.13-7.2,2.57-1.28,2.7-.13,5.92,2.57,7.2,2.7,1.28,5.93,.13,7.21-2.57,1.28-2.71,.13-5.93-2.57-7.21Z"/><path class="d" d="M682.61,241.27c-4.18-1.98-9.18-.19-11.17,3.99-1.98,4.18-.2,9.18,3.99,11.17,4.18,1.98,9.19,.2,11.17-3.99,1.99-4.19,.2-9.18-3.98-11.17Z"/><path class="c" d="M682.38,300.21c-1.21-.88-2.89-.62-3.78,.58-.88,1.21-.62,2.9,.59,3.78,1.2,.88,2.9,.62,3.78-.58,.88-1.21,.62-2.9-.59-3.78Z"/><path class="e" d="M577.25,82.46c-2.42,1.76-2.95,5.14-1.2,7.56,1.75,2.41,5.14,2.95,7.56,1.2,2.41-1.75,2.95-5.13,1.2-7.55-1.76-2.42-5.14-2.95-7.56-1.2Z"/><path class="b" d="M595.9,96.43c-4.22,3.04-5.16,8.93-2.1,13.14,3.04,4.21,8.93,5.14,13.14,2.09,4.21-3.06,5.14-8.94,2.1-13.15-3.05-4.2-8.94-5.14-13.14-2.09Z"/><path class="b" d="M618.65,114.41c-2.97-.29-5.62,1.89-5.91,4.86-.29,2.97,1.89,5.62,4.86,5.91,2.98,.29,5.62-1.89,5.91-4.86,.28-2.98-1.89-5.62-4.86-5.91Z"/><path class="c" d="M633.12,135.82c-2.08-.2-3.94,1.32-4.14,3.4-.2,2.08,1.32,3.93,3.4,4.13,2.08,.2,3.93-1.32,4.13-3.4,.21-2.08-1.32-3.93-3.4-4.13Z"/><path class="d" d="M646.55,154.9c-2.97-.29-5.61,1.89-5.91,4.85-.29,2.98,1.89,5.63,4.86,5.91,2.97,.29,5.62-1.88,5.91-4.85,.29-2.97-1.88-5.62-4.86-5.91Z"/><path class="b" d="M436.71,25.47c-.77,2.89,.95,5.85,3.84,6.62,2.89,.77,5.85-.95,6.61-3.84,.77-2.88-.96-5.85-3.83-6.62-2.89-.76-5.85,.95-6.62,3.84Z"/><path class="e" d="M533.21,49.48c-2.49,1.66-3.16,5.01-1.51,7.5,1.65,2.49,5.01,3.16,7.5,1.51,2.49-1.65,3.16-5.01,1.51-7.5-1.65-2.49-5.01-3.17-7.5-1.51Z"/><path class="b" d="M462.4,26.5c-1.74,1.16-2.21,3.51-1.06,5.25,1.16,1.74,3.51,2.21,5.25,1.06,1.74-1.16,2.21-3.52,1.06-5.25-1.16-1.74-3.51-2.21-5.25-1.06Z"/><path class="c" d="M486.91,29.93c-2.49,1.65-3.17,5.01-1.51,7.5,1.65,2.49,5,3.17,7.49,1.51,2.49-1.65,3.17-5.01,1.52-7.5-1.66-2.49-5.02-3.17-7.5-1.51Z"/><path class="d" d="M504.54,33.55c-5.52,3.67-7.02,11.12-3.36,16.65,3.67,5.52,11.13,7.02,16.65,3.35,5.52-3.66,7.02-11.12,3.36-16.64-3.68-5.53-11.13-7.02-16.65-3.35Z"/><path class="c" d="M557.14,67.66c-1.1,.46-1.62,1.73-1.16,2.83,.46,1.1,1.73,1.62,2.83,1.16,1.1-.46,1.62-1.73,1.16-2.83-.46-1.1-1.73-1.62-2.83-1.16Z"/><path class="e" d="M316.15,44.98c.26,2.98,2.88,5.18,5.86,4.92,2.97-.26,5.17-2.88,4.92-5.86-.25-2.97-2.88-5.17-5.85-4.92-2.98,.26-5.18,2.88-4.93,5.86Z"/><path class="b" d="M344.95,35.59c.1,1.19,1.15,2.07,2.34,1.97,1.19-.1,2.07-1.15,1.97-2.34-.1-1.19-1.15-2.07-2.34-1.97-1.19,.1-2.07,1.15-1.97,2.34Z"/><path class="b" d="M364.86,25.98c-1.78,2.4-1.28,5.79,1.12,7.57,2.4,1.78,5.79,1.28,7.57-1.12,1.78-2.4,1.28-5.79-1.12-7.57-2.4-1.78-5.79-1.28-7.57,1.12Z"/><path class="c" d="M385.47,20.75c-3.39,4.56-2.43,11,2.12,14.38,4.56,3.39,10.99,2.43,14.37-2.12,3.38-4.55,2.43-10.99-2.13-14.38-4.55-3.39-10.99-2.43-14.37,2.12Z"/><path class="d" d="M411.55,21.18c-2.75,3.72-1.98,8.96,1.72,11.72,3.72,2.77,8.98,1.99,11.74-1.73,2.76-3.71,1.99-8.96-1.72-11.72-3.72-2.76-8.97-1.99-11.74,1.73Z"/><path class="b" d="M195.79,134.3c2.07,2.16,5.49,2.22,7.65,.15,2.16-2.07,2.22-5.5,.15-7.65-2.07-2.16-5.49-2.22-7.64-.16-2.15,2.07-2.22,5.5-.15,7.65Z"/><path class="e" d="M266.38,64.26c.12,2.99,2.64,5.3,5.63,5.18,2.99-.12,5.3-2.64,5.18-5.62-.12-2.99-2.64-5.3-5.63-5.18-2.98,.12-5.3,2.64-5.18,5.62Z"/><path class="b" d="M211.08,112.83c.06,1.49,1.32,2.65,2.81,2.59,1.49-.06,2.65-1.32,2.59-2.81-.07-1.49-1.33-2.66-2.82-2.59-1.49,.07-2.65,1.32-2.59,2.82Z"/><path class="c" d="M225.65,93.71c.12,2.99,2.64,5.31,5.62,5.18,2.99-.12,5.3-2.64,5.18-5.62-.12-2.99-2.64-5.31-5.62-5.19-2.99,.12-5.31,2.64-5.18,5.63Z"/><path class="d" d="M240.7,80.4c.21,5.07,4.49,9.01,9.57,8.81,5.07-.21,9.01-4.5,8.81-9.57-.2-5.07-4.49-9.02-9.56-8.8-5.08,.21-9.02,4.49-8.81,9.56Z"/><path class="c" d="M285.78,51.96c-.88,5.92,3.19,11.41,9.1,12.3,5.92,.89,11.42-3.2,12.29-9.11,.88-5.91-3.2-11.41-9.1-12.3-5.91-.88-11.42,3.2-12.3,9.11Z"/><path class="e" d="M148.06,251.28c4.77,2.36,10.54,.4,12.9-4.37,2.34-4.76,.39-10.54-4.38-12.9-4.75-2.36-10.53-.4-12.9,4.36-2.35,4.77-.4,10.54,4.37,12.91Z"/><path class="b" d="M155.39,220.91c2.68,1.33,5.92,.23,7.25-2.45,1.33-2.68,.23-5.92-2.45-7.25-2.68-1.32-5.92-.23-7.25,2.45-1.32,2.68-.22,5.92,2.45,7.25Z"/><path class="b" d="M161.96,194.77c.45,1.11,1.71,1.64,2.82,1.19,1.11-.45,1.64-1.71,1.19-2.82-.45-1.11-1.72-1.64-2.82-1.19-1.11,.45-1.64,1.71-1.19,2.82Z"/><path class="c" d="M169.68,173.83c1.13,2.77,4.29,4.1,7.05,2.97,2.77-1.13,4.1-4.28,2.97-7.05-1.12-2.76-4.28-4.09-7.05-2.97-2.77,1.12-4.1,4.28-2.97,7.04Z"/><path class="d" d="M179.32,153.48c1.69,4.14,6.42,6.14,10.57,4.46,4.16-1.69,6.15-6.43,4.46-10.58-1.69-4.15-6.42-6.15-10.56-4.46-4.15,1.69-6.15,6.42-4.46,10.58Z"/><path class="e" d="M144.29,275.19c2.76,1.17,5.92-.12,7.09-2.87,1.17-2.75-.13-5.92-2.87-7.09-2.75-1.17-5.92,.12-7.09,2.87-1.16,2.75,.12,5.92,2.87,7.09Z"/><path class="e" d="M270.56,30.21c.68,2.91,3.59,4.71,6.5,4.03,2.9-.68,4.71-3.59,4.03-6.5-.68-2.9-3.59-4.71-6.5-4.03-2.91,.69-4.71,3.6-4.03,6.51Z"/><path class="b" d="M319.79,7.59c-1.41,2.63-.43,5.91,2.2,7.33,2.63,1.42,5.91,.44,7.33-2.19,1.41-2.63,.43-5.92-2.2-7.33-2.63-1.41-5.91-.43-7.33,2.2Z"/><path class="b" d="M613.85,73.71c-1.45,1.07-1.75,3.1-.68,4.54,1.07,1.44,3.1,1.74,4.54,.68,1.44-1.06,1.74-3.1,.68-4.54-1.07-1.44-3.1-1.75-4.54-.68Z"/><path class="b" d="M632.52,87.63c-2.97-.26-5.6,1.94-5.86,4.91-.26,2.98,1.94,5.6,4.92,5.87,2.98,.25,5.61-1.94,5.86-4.92,.25-2.98-1.94-5.6-4.92-5.86Z"/><path class="c" d="M647.44,101.29c-5.65-.51-10.65,3.68-11.13,9.33-.51,5.66,3.68,10.64,9.33,11.14,5.65,.5,10.65-3.69,11.14-9.33,.5-5.66-3.69-10.65-9.34-11.13Z"/><path class="d" d="M659.82,123.68c-2.97-.26-5.6,1.94-5.86,4.91-.27,2.98,1.93,5.6,4.91,5.87,2.97,.26,5.6-1.95,5.86-4.92,.26-2.98-1.94-5.6-4.91-5.86Z"/><path class="e" d="M506.2,10.76c-1.66,2.49-.98,5.84,1.5,7.5,2.48,1.65,5.84,.98,7.5-1.5,1.66-2.48,.98-5.84-1.5-7.5-2.49-1.66-5.85-.98-7.5,1.5Z"/><path class="b" d="M534.98,22.59c-.67,.99-.4,2.34,.6,3,.99,.66,2.34,.39,3-.6,.66-.99,.39-2.34-.6-3-.99-.66-2.34-.39-3,.6Z"/><path class="c" d="M484.63,5.22c-.83,1.25-.49,2.92,.75,3.75,1.24,.83,2.92,.49,3.75-.75,.83-1.24,.5-2.92-.75-3.75-1.24-.83-2.92-.5-3.75,.75Z"/><path class="c" d="M575.59,37.62c-5.78,1.53-9.23,7.45-7.7,13.22,1.52,5.78,7.44,9.22,13.2,7.7,5.78-1.52,9.23-7.44,7.71-13.21-1.52-5.78-7.44-9.23-13.21-7.71Z"/><path class="d" d="M595.95,55.36c-2.88,.76-4.61,3.72-3.85,6.6,.77,2.9,3.73,4.62,6.62,3.86,2.89-.76,4.61-3.71,3.85-6.6-.76-2.89-3.72-4.62-6.61-3.85Z"/><path class="b" d="M645.32,59.49c-2.98-.14-5.52,2.17-5.65,5.15-.13,2.98,2.17,5.51,5.16,5.66,2.98,.13,5.51-2.17,5.65-5.16,.13-2.99-2.17-5.52-5.16-5.65Z"/><path class="d" d="M676.61,99.53c-1.19-.05-2.21,.87-2.26,2.06-.06,1.2,.87,2.21,2.06,2.26,1.19,.06,2.21-.87,2.26-2.06,.06-1.19-.87-2.21-2.06-2.26Z"/><path class="e" d="M561.54,1.05c-2.41,1.77-2.93,5.15-1.16,7.56,1.77,2.41,5.16,2.92,7.56,1.16,2.41-1.77,2.93-5.15,1.15-7.56-1.77-2.41-5.15-2.93-7.56-1.16Z"/><path class="b" d="M712.86,283.74c-2.96-.48-5.73,1.52-6.21,4.48-.48,2.95,1.53,5.73,4.48,6.2,2.94,.48,5.72-1.53,6.2-4.47,.47-2.95-1.53-5.73-4.47-6.2Z"/><path class="b" d="M721.89,303.81c-4.73-5.77-13.25-6.62-19.03-1.89-5.77,4.74-6.62,13.26-1.91,19.04,4.77,5.77,13.28,6.63,19.05,1.89,5.76-4.75,6.62-13.26,1.88-19.04Z"/><path class="c" d="M712.5,332.26c-1.88-2.32-5.3-2.65-7.61-.76-2.32,1.9-2.66,5.3-.76,7.61,1.89,2.31,5.31,2.65,7.61,.76,2.32-1.9,2.66-5.31,.76-7.61Z"/><path class="d" d="M707.23,355.05c-1.13-1.39-3.18-1.59-4.57-.46-1.39,1.14-1.59,3.18-.46,4.57,1.14,1.39,3.18,1.59,4.57,.46,1.39-1.14,1.59-3.18,.45-4.57Z"/><path class="e" d="M683.93,163.18c-2.93,.55-4.87,3.38-4.32,6.32,.55,2.93,3.38,4.86,6.32,4.31,2.93-.54,4.86-3.38,4.32-6.31-.56-2.94-3.38-4.87-6.32-4.32Z"/><path class="b" d="M693.37,190.55c-2.94,.55-4.87,3.37-4.32,6.31,.55,2.94,3.38,4.87,6.31,4.32,2.94-.55,4.87-3.38,4.32-6.31-.55-2.93-3.38-4.87-6.31-4.32Z"/><path class="c" d="M671.2,145.58c-1.47,.27-2.43,1.69-2.16,3.16,.27,1.47,1.69,2.43,3.16,2.16,1.47-.27,2.43-1.69,2.16-3.16-.28-1.47-1.69-2.44-3.16-2.16Z"/><path class="b" d="M706.5,209.75c-4.56-2.72-10.47-1.24-13.2,3.32-2.73,4.57-1.25,10.47,3.32,13.21,4.57,2.72,10.48,1.24,13.21-3.33,2.72-4.57,1.24-10.48-3.33-13.21Z"/><path class="c" d="M708.81,237.93c-2.57-1.53-5.89-.7-7.42,1.87-1.54,2.56-.7,5.88,1.86,7.42,2.56,1.53,5.88,.7,7.42-1.86,1.54-2.56,.7-5.88-1.86-7.42Z"/><path class="d" d="M712.02,262.1c-1.54-.92-3.53-.42-4.45,1.11-.92,1.54-.42,3.54,1.12,4.46,1.54,.92,3.53,.42,4.45-1.12,.92-1.54,.42-3.53-1.12-4.45Z"/><path class="e" d="M738.64,246.42c-2.97-.35-5.65,1.77-6.01,4.73-.35,2.96,1.77,5.65,4.74,6.01,2.96,.36,5.65-1.76,6.01-4.73,.35-2.97-1.77-5.66-4.74-6.01Z"/><path class="b" d="M740.55,275.87c-1.19-.14-2.26,.7-2.4,1.89-.14,1.19,.7,2.26,1.89,2.4,1.19,.14,2.26-.71,2.41-1.89,.14-1.19-.71-2.27-1.89-2.41Z"/><path class="b" d="M744.44,296.82c-1.99-2.23-5.41-2.43-7.64-.44-2.23,1.99-2.43,5.41-.44,7.64,1.99,2.23,5.41,2.43,7.64,.44,2.23-1.99,2.43-5.41,.44-7.64Z"/><path class="c" d="M743.47,319.81c-1.99-2.23-5.41-2.43-7.64-.44-2.24,1.99-2.43,5.41-.44,7.63,1.98,2.23,5.4,2.43,7.64,.44,2.23-1.98,2.43-5.4,.45-7.63Z"/><path class="d" d="M743.43,339.56c-3.57-4.01-9.72-4.37-13.73-.81-4.03,3.59-4.38,9.75-.8,13.76,3.57,4.02,9.72,4.38,13.73,.8,4.02-3.58,4.38-9.73,.8-13.75Z"/><path class="e" d="M728.71,198.3c-2.95-.49-5.73,1.51-6.22,4.46-.49,2.95,1.51,5.73,4.45,6.22,2.95,.49,5.73-1.51,6.22-4.46,.49-2.95-1.51-5.73-4.46-6.22Z"/><path class="b" d="M702.91,131.89c-3.68-.61-7.16,1.89-7.77,5.57-.6,3.68,1.89,7.16,5.56,7.77,3.7,.6,7.18-1.9,7.78-5.57,.6-3.69-1.89-7.17-5.58-7.77Z"/><path class="c" d="M711.98,153.06c-2.95-.49-5.73,1.51-6.21,4.46-.49,2.95,1.51,5.73,4.45,6.21,2.95,.49,5.74-1.51,6.22-4.45,.48-2.96-1.51-5.74-4.46-6.22Z"/><path class="c" d="M735.53,218.9c-4.21-1.55-8.86,.6-10.42,4.81-1.55,4.21,.6,8.87,4.81,10.42,4.2,1.55,8.87-.61,10.42-4.8,1.54-4.2-.61-8.87-4.81-10.42Z"/><path class="b" d="M628.04,502.22c-2.08-3.11-6.28-3.93-9.39-1.84-3.1,2.08-3.92,6.28-1.83,9.38,2.08,3.1,6.28,3.92,9.38,1.84,3.1-2.09,3.92-6.28,1.84-9.38Z"/><path class="b" d="M607.17,521.79c.16-1.18-.67-2.27-1.86-2.43-1.19-.16-2.27,.68-2.43,1.86-.15,1.19,.68,2.27,1.86,2.43,1.19,.16,2.27-.68,2.43-1.86Z"/><path class="c" d="M591.24,535.86c.41-2.96-1.69-5.68-4.64-6.07-2.96-.4-5.69,1.68-6.08,4.64-.39,2.96,1.69,5.69,4.65,6.08,2.96,.39,5.69-1.69,6.07-4.65Z"/><path class="e" d="M692.82,399.46c-2.41-1.77-5.79-1.24-7.56,1.16-1.77,2.41-1.24,5.79,1.16,7.56,2.4,1.76,5.79,1.24,7.56-1.16,1.76-2.41,1.24-5.8-1.17-7.56Z"/><path class="b" d="M684.36,421.36c-4.45-3.28-10.71-2.32-13.99,2.14-3.28,4.45-2.3,10.71,2.14,13.99,4.46,3.26,10.72,2.3,13.99-2.15,3.27-4.45,2.31-10.72-2.15-13.99Z"/><path class="c" d="M700.93,375.97c-2.41-1.77-5.79-1.25-7.57,1.16-1.77,2.41-1.24,5.8,1.16,7.56,2.41,1.77,5.79,1.25,7.56-1.16,1.76-2.41,1.25-5.79-1.16-7.56Z"/><path class="b" d="M672.47,448.67c-.63-2.92-3.51-4.78-6.43-4.14-2.92,.63-4.78,3.51-4.14,6.43,.64,2.92,3.52,4.77,6.43,4.14,2.92-.64,4.77-3.52,4.14-6.43Z"/><path class="c" d="M654.42,469.4c-.25-1.17-1.41-1.91-2.57-1.66-1.17,.25-1.91,1.4-1.66,2.57,.25,1.17,1.4,1.91,2.57,1.66,1.17-.25,1.91-1.41,1.66-2.57Z"/><path class="d" d="M644.25,487.12c-.63-2.91-3.51-4.77-6.42-4.14-2.93,.64-4.78,3.52-4.15,6.44,.63,2.92,3.5,4.78,6.42,4.14,2.92-.63,4.77-3.51,4.15-6.43Z"/><path class="e" d="M670.76,497.54c-1.77-2.41-5.16-2.92-7.57-1.15-2.4,1.77-2.91,5.15-1.15,7.57,1.76,2.4,5.15,2.92,7.56,1.15,2.41-1.77,2.92-5.15,1.16-7.57Z"/><path class="b" d="M637.92,536.26c.27-2.98-1.92-5.61-4.9-5.88-2.97-.27-5.61,1.92-5.88,4.9-.26,2.98,1.92,5.6,4.9,5.88,2.98,.26,5.61-1.93,5.88-4.9Z"/><path class="e" d="M700.05,455.17c-1.66-2.49-5.01-3.15-7.5-1.49-2.49,1.66-3.15,5.02-1.5,7.5,1.66,2.49,5.02,3.15,7.5,1.49,2.48-1.66,3.15-5.01,1.49-7.5Z"/><path class="e" d="M735.57,365.68c-1.77-2.4-5.15-2.92-7.56-1.15-2.4,1.77-2.92,5.15-1.15,7.57,1.76,2.4,5.16,2.92,7.56,1.16,2.41-1.78,2.93-5.16,1.15-7.57Z"/><path class="c" d="M194.18,499.57c2.99,.03,5.42-2.39,5.43-5.37,.02-2.99-2.39-5.43-5.37-5.44-2.99-.01-5.43,2.4-5.44,5.38-.01,2.99,2.4,5.42,5.39,5.43Z"/><path class="d" d="M179.94,488.56c5.97,.02,10.84-4.79,10.86-10.77,.04-5.97-4.78-10.85-10.76-10.87-5.97-.02-10.83,4.81-10.87,10.77-.02,5.98,4.79,10.84,10.77,10.87Z"/><path class="b" d="M116.31,324.1c2.98,.28,5.61-1.91,5.89-4.88,.28-2.97-1.91-5.61-4.89-5.88-2.97-.28-5.6,1.91-5.89,4.88-.27,2.98,1.91,5.61,4.88,5.89Z"/><path class="d" d="M117.51,252.2c1.02,1.09,2.73,1.14,3.82,.12,1.09-1.02,1.14-2.74,.12-3.82-1.02-1.09-2.73-1.14-3.82-.12-1.09,1.02-1.14,2.73-.12,3.82Z"/><path class="e" d="M154.05,445.31c4.48-1.16,7.17-5.73,6.01-10.22-1.16-4.47-5.73-7.16-10.22-6-4.47,1.14-7.17,5.72-6.02,10.21,1.17,4.49,5.74,7.18,10.23,6.02Z"/><path class="b" d="M142.04,415.76c2.9-.75,4.64-3.69,3.89-6.59-.74-2.89-3.7-4.63-6.59-3.88-2.89,.75-4.63,3.7-3.89,6.59,.75,2.89,3.7,4.63,6.59,3.89Z"/><path class="c" d="M167.87,461.75c2.89-.75,4.62-3.69,3.88-6.59-.75-2.89-3.7-4.63-6.59-3.87-2.89,.74-4.63,3.7-3.88,6.59,.75,2.89,3.7,4.63,6.59,3.88Z"/><path class="c" d="M123.43,369.53c2.66,1.36,5.92,.3,7.28-2.36,1.36-2.66,.3-5.92-2.36-7.27-2.66-1.36-5.92-.3-7.28,2.36-1.36,2.66-.3,5.92,2.36,7.28Z"/><path class="e" d="M93.1,363.07c2.98,.15,5.52-2.14,5.68-5.13,.15-2.98-2.15-5.52-5.14-5.67-2.97-.16-5.52,2.14-5.67,5.12-.15,2.99,2.14,5.53,5.13,5.68Z"/><path class="b" d="M89.21,333.81c1.19,.06,2.21-.85,2.27-2.05,.06-1.19-.86-2.21-2.05-2.27-1.19-.06-2.21,.86-2.27,2.05-.06,1.19,.86,2.21,2.05,2.27Z"/><path class="b" d="M83.92,313.17c2.14,2.09,5.56,2.06,7.65-.07,2.09-2.13,2.06-5.56-.07-7.65-2.14-2.09-5.56-2.06-7.65,.07-2.09,2.14-2.06,5.56,.07,7.65Z"/><path class="c" d="M83.33,290.17c2.13,2.09,5.56,2.06,7.65-.07,2.1-2.13,2.06-5.56-.07-7.65-2.13-2.09-5.56-2.06-7.65,.07-2.09,2.13-2.06,5.55,.07,7.65Z"/><path class="d" d="M82.99,269.49c3.3,3.24,8.6,3.19,11.85-.1,3.25-3.31,3.2-8.63-.12-11.86-3.3-3.24-8.61-3.2-11.84,.1-3.25,3.31-3.2,8.61,.11,11.86Z"/><path class="e" d="M106.25,410.41c2.98,.29,5.61-1.89,5.9-4.87,.29-2.98-1.89-5.61-4.86-5.9-2.98-.29-5.62,1.89-5.9,4.87-.29,2.97,1.89,5.61,4.86,5.9Z"/><path class="c" d="M126,454.42c2.97,.29,5.62-1.89,5.9-4.86,.29-2.98-1.89-5.62-4.86-5.9-2.98-.29-5.62,1.89-5.91,4.86-.28,2.98,1.89,5.62,4.87,5.91Z"/><path class="c" d="M99.43,385.64c1.72,.5,3.52-.48,4.03-2.2,.51-1.72-.48-3.53-2.2-4.03-1.72-.5-3.52,.48-4.03,2.2-.5,1.72,.48,3.53,2.2,4.03Z"/><path class="b" d="M186.24,101.59c1.83,2.37,5.23,2.8,7.59,.97,2.36-1.83,2.79-5.22,.96-7.59-1.83-2.36-5.23-2.79-7.59-.96-2.36,1.83-2.79,5.23-.96,7.58Z"/><path class="b" d="M137.93,180.99c2.52,1.61,5.86,.86,7.46-1.67,1.61-2.52,.85-5.86-1.67-7.47-2.52-1.6-5.86-.85-7.47,1.67-1.6,2.52-.85,5.87,1.67,7.47Z"/><path class="c" d="M121.99,231.27c2.53,1.61,5.86,.86,7.47-1.66,1.6-2.52,.85-5.87-1.67-7.46-2.52-1.6-5.86-.85-7.47,1.67-1.6,2.52-.86,5.86,1.67,7.46Z"/><path class="c" d="M158.97,135.82c.83,2.87,3.83,4.53,6.7,3.7,2.87-.83,4.53-3.83,3.7-6.69-.83-2.87-3.82-4.53-6.69-3.7-2.87,.83-4.52,3.83-3.7,6.7Z"/><path class="e" d="M146.72,107.35c1.93,2.28,5.34,2.56,7.63,.64,2.27-1.93,2.56-5.34,.64-7.63-1.92-2.27-5.33-2.56-7.62-.63-2.29,1.93-2.57,5.34-.65,7.63Z"/><path class="b" d="M157.99,89.75c3.63,4.33,10.08,4.87,14.4,1.23,4.32-3.63,4.85-10.1,1.21-14.41-3.65-4.3-10.08-4.85-14.39-1.22-4.32,3.64-4.87,10.09-1.22,14.4Z"/><path class="b" d="M177.15,65.24c-.07,2.99,2.29,5.46,5.28,5.54,2.98,.06,5.46-2.3,5.54-5.29,.06-2.99-2.3-5.46-5.28-5.54-2.99-.06-5.47,2.3-5.54,5.28Z"/><path class="c" d="M191.35,49.75c-.1,4.34,3.33,7.94,7.65,8.03,4.34,.11,7.92-3.32,8.03-7.65,.1-4.32-3.33-7.92-7.66-8.03-4.33-.11-7.92,3.32-8.02,7.65Z"/><path class="e" d="M117.53,152.19c1.82,2.37,5.21,2.81,7.58,.98,2.37-1.82,2.81-5.22,.99-7.59-1.82-2.37-5.22-2.81-7.59-.98-2.37,1.82-2.81,5.22-.98,7.58Z"/><path class="b" d="M93.6,220.52c.91,1.18,2.61,1.4,3.79,.49,1.18-.91,1.4-2.61,.49-3.8-.92-1.18-2.61-1.4-3.8-.49-1.18,.92-1.4,2.61-.49,3.8Z"/><path class="c" d="M98.38,198.66c1.82,2.37,5.22,2.81,7.58,.98,2.37-1.82,2.81-5.21,.99-7.58-1.82-2.36-5.22-2.81-7.59-.99-2.37,1.83-2.81,5.22-.99,7.59Z"/><path class="c" d="M134.05,125.79c.81,1.61,2.76,2.25,4.36,1.44,1.6-.81,2.24-2.76,1.44-4.36-.8-1.6-2.76-2.24-4.36-1.44-1.6,.81-2.24,2.76-1.44,4.36Z"/><path class="e" d="M88.12,243.87c1.93,2.28,5.34,2.57,7.62,.64,2.28-1.93,2.57-5.34,.64-7.63-1.92-2.28-5.34-2.57-7.62-.64-2.28,1.94-2.57,5.34-.64,7.63Z"/><path class="e" d="M150.27,491.91c2.98,.28,5.61-1.89,5.9-4.87,.29-2.98-1.89-5.61-4.86-5.9-2.98-.29-5.62,1.89-5.9,4.87-.29,2.97,1.89,5.61,4.87,5.9Z"/><path class="e" d="M235.35,58.39c1.93,2.28,5.34,2.56,7.63,.64,2.27-1.93,2.56-5.34,.64-7.63-1.92-2.27-5.33-2.56-7.62-.63-2.29,1.93-2.57,5.34-.65,7.63Z"/><path class="b" d="M140.34,69.17c.02,1.19,1.01,2.15,2.2,2.12,1.19-.02,2.14-1.01,2.13-2.2-.03-1.2-1.01-2.15-2.2-2.13-1.19,.02-2.15,1.01-2.12,2.2Z"/><path class="c" d="M153.97,52.87c.05,2.99,2.52,5.37,5.5,5.31,2.99-.05,5.36-2.52,5.31-5.5-.05-2.98-2.52-5.37-5.5-5.31-2.99,.06-5.37,2.52-5.31,5.51Z"/><path class="b" d="M82.39,178.47c1.06,.56,2.37,.15,2.92-.91,.56-1.06,.15-2.36-.91-2.92-1.06-.55-2.36-.15-2.92,.91-.56,1.06-.15,2.37,.91,2.92Z"/><path class="b" d="M87.77,155.07c1.06,2.79,4.19,4.19,6.98,3.13,2.79-1.06,4.19-4.18,3.14-6.98-1.07-2.79-4.19-4.19-6.99-3.13-2.79,1.07-4.19,4.19-3.13,6.98Z"/><path class="c" d="M95.73,134.44c1.85,4.86,7.29,7.31,12.15,5.45,4.86-1.85,7.3-7.28,5.45-12.13-1.85-4.86-7.28-7.3-12.14-5.45-4.86,1.84-7.3,7.28-5.45,12.13Z"/><path class="d" d="M109.9,112.83c1.06,2.79,4.19,4.19,6.97,3.14,2.8-1.07,4.2-4.2,3.14-6.99-1.06-2.79-4.18-4.19-6.97-3.13-2.79,1.06-4.2,4.18-3.14,6.98Z"/><path class="e" d="M78.32,110.86c3.76,3.77,9.85,3.77,13.62,.02,3.75-3.75,3.76-9.85,0-13.62-3.74-3.76-9.85-3.77-13.62-.02-3.76,3.76-3.77,9.86-.02,13.63Z"/><path class="b" d="M107.99,64.73c.18,2.98,2.74,5.26,5.72,5.08,2.98-.18,5.26-2.74,5.08-5.72-.18-2.99-2.74-5.26-5.72-5.08-2.98,.18-5.26,2.74-5.08,5.72Z"/><path class="c" d="M114.12,43.9c.44,7.31,6.71,12.88,14.02,12.44,7.31-.43,12.88-6.71,12.44-14-.44-7.3-6.7-12.87-14.01-12.44-7.31,.42-12.88,6.7-12.45,14Z"/><path class="e" d="M61.75,153.04c.71,.77,1.9,.83,2.67,.12,.77-.7,.83-1.9,.12-2.67-.7-.77-1.9-.83-2.67-.12-.77,.7-.83,1.9-.12,2.67Z"/><path class="c" d="M69.01,129.99c1.56,2.55,4.89,3.35,7.44,1.79,2.55-1.56,3.35-4.89,1.78-7.44-1.56-2.55-4.89-3.34-7.44-1.79-2.55,1.56-3.35,4.89-1.79,7.44Z"/><path class="d" d="M31.56,233.09c4.08,5.22,11.63,6.15,16.85,2.08,5.23-4.09,6.17-11.63,2.08-16.86-4.08-5.22-11.63-6.15-16.86-2.08-5.23,4.09-6.15,11.63-2.07,16.86Z"/><path class="c" d="M43.53,204.94c2.37,1.82,5.76,1.38,7.59-.98,1.83-2.37,1.38-5.77-.99-7.58-2.36-1.83-5.76-1.39-7.58,.98-1.82,2.37-1.38,5.76,.98,7.59Z"/><path class="d" d="M62.33,257.09c1.91,2.3,5.32,2.61,7.62,.7,2.3-1.91,2.62-5.32,.71-7.62-1.91-2.3-5.32-2.61-7.62-.7-2.3,1.91-2.61,5.32-.7,7.62Z"/><path class="e" d="M74.55,206.81c2.42,1.75,5.8,1.2,7.55-1.22,1.75-2.42,1.2-5.8-1.22-7.55-2.41-1.75-5.8-1.2-7.55,1.22-1.75,2.42-1.2,5.8,1.22,7.55Z"/><path class="b" d="M59.49,332.04c2.88,2.82,7.5,2.78,10.33-.1,2.82-2.88,2.78-7.5-.09-10.33-2.89-2.82-7.51-2.78-10.33,.1-2.82,2.88-2.79,7.5,.1,10.33Z"/><path class="c" d="M61.4,307.18c2.13,2.1,5.56,2.06,7.64-.07,2.1-2.13,2.06-5.55-.07-7.64-2.13-2.09-5.56-2.06-7.65,.07-2.1,2.14-2.06,5.56,.07,7.65Z"/><path class="b" d="M99.31,450.05c2.86-.86,4.48-3.88,3.61-6.74-.86-2.86-3.89-4.47-6.75-3.61-2.86,.87-4.47,3.88-3.61,6.74,.87,2.86,3.89,4.48,6.74,3.61Z"/><path class="b" d="M84.14,430.13c4.72,2.16,10.31,.1,12.48-4.62,2.17-4.73,.1-10.31-4.62-12.49-4.73-2.16-10.32-.09-12.49,4.63-2.16,4.72-.1,10.31,4.63,12.48Z"/><path class="b" d="M43.01,371.52c2.99,.04,5.43-2.36,5.46-5.35,.04-2.99-2.37-5.43-5.36-5.46-2.98-.03-5.42,2.36-5.46,5.35-.03,2.98,2.37,5.44,5.35,5.46Z"/><path class="b" d="M38.73,345.86c1.11,1,2.82,.92,3.82-.19,1-1.11,.92-2.82-.19-3.82-1.11-1-2.82-.91-3.82,.2-1,1.11-.92,2.82,.19,3.82Z"/><path class="c" d="M31.95,322.9c2.22,2,5.64,1.83,7.64-.39,2.01-2.22,1.83-5.63-.38-7.64-2.21-2-5.63-1.83-7.64,.39-2.01,2.21-1.84,5.63,.38,7.64Z"/><path class="d" d="M30.04,303.06c3.88,3.5,9.85,3.2,13.36-.66,3.51-3.89,3.21-9.88-.67-13.37-3.87-3.51-9.86-3.21-13.36,.66-3.51,3.88-3.21,9.86,.67,13.37Z"/><path class="b" d="M34.72,251.89c1.92,2.29,5.33,2.59,7.62,.68,2.28-1.92,2.59-5.33,.68-7.62-1.93-2.29-5.34-2.59-7.63-.68-2.29,1.92-2.59,5.33-.67,7.62Z"/><path class="d" d="M101.27,514.98c2.96,.39,5.68-1.69,6.07-4.65,.39-2.96-1.69-5.69-4.65-6.08-2.96-.39-5.68,1.7-6.07,4.66-.39,2.96,1.69,5.68,4.66,6.07Z"/><path class="c" d="M126.45,495.54c2.96-.45,4.98-3.2,4.54-6.16-.45-2.96-3.21-4.98-6.16-4.53-2.95,.45-4.98,3.21-4.54,6.16,.45,2.96,3.21,4.98,6.16,4.54Z"/><path class="d" d="M154.78,536.85c2.98-.03,5.38-2.48,5.35-5.46-.03-2.99-2.48-5.39-5.47-5.36-2.98,.03-5.38,2.49-5.35,5.47,.03,2.99,2.48,5.38,5.47,5.35Z"/><path class="d" d="M147.73,568.41c2.98-.16,5.27-2.7,5.12-5.67-.15-2.99-2.7-5.29-5.69-5.12-2.98,.15-5.28,2.7-5.12,5.67,.16,2.99,2.69,5.28,5.68,5.12Z"/><path class="b" d="M115,533.02c2.98,.26,5.6-1.94,5.86-4.92,.25-2.97-1.95-5.59-4.92-5.86-2.98-.25-5.61,1.95-5.86,4.92-.25,2.98,1.95,5.6,4.92,5.85Z"/><path class="e" d="M128.68,551.5c3.73,.15,6.88-2.75,7.04-6.48,.15-3.72-2.75-6.87-6.49-7.04-3.72-.16-6.87,2.75-7.03,6.48-.15,3.73,2.74,6.88,6.48,7.04Z"/><path class="b" d="M704.77,496.83c-1.97-2.25-5.39-2.47-7.63-.49-2.24,1.97-2.46,5.39-.49,7.63,1.97,2.25,5.39,2.46,7.63,.5,2.24-1.98,2.46-5.4,.49-7.64Z"/><path class="d" d="M664.63,555.9c.02-6.62-5.35-12.02-11.97-12.04-6.64-.02-12.04,5.34-12.06,11.96-.01,6.63,5.35,12.02,11.97,12.05,6.64,.02,12.02-5.34,12.06-11.97Z"/><path class="b" d="M750.38,410.99c-2.62-1.45-5.91-.5-7.35,2.12-1.45,2.61-.49,5.9,2.13,7.34,2.61,1.44,5.9,.49,7.34-2.12,1.45-2.62,.49-5.91-2.12-7.35Z"/><path class="b" d="M741.93,437.47c-.8-2.25-3.28-3.42-5.53-2.62-2.25,.8-3.42,3.28-2.63,5.53,.81,2.25,3.28,3.42,5.54,2.62,2.25-.81,3.42-3.27,2.62-5.53Z"/><path class="d" d="M716.87,479.97c-.4-1.12-1.64-1.71-2.76-1.31-1.13,.4-1.71,1.64-1.31,2.77,.4,1.12,1.63,1.71,2.76,1.31,1.13-.4,1.71-1.64,1.31-2.76Z"/><path class="e" d="M748.41,484.43c-2.07-2.16-5.49-2.24-7.65-.17-2.15,2.06-2.23,5.48-.17,7.65,2.06,2.16,5.48,2.23,7.65,.17,2.16-2.07,2.23-5.49,.17-7.65Z"/><path class="b" d="M735.64,504.08c-3.19-3.36-8.5-3.48-11.85-.27-3.35,3.19-3.46,8.5-.27,11.85,3.2,3.34,8.5,3.46,11.85,.27,3.35-3.2,3.47-8.51,.26-11.85Z"/><path class="b" d="M720.82,527.01c-.12-2.99-2.63-5.32-5.61-5.2-2.98,.12-5.31,2.63-5.2,5.61,.12,2.99,2.63,5.32,5.61,5.2,2.99-.12,5.31-2.63,5.2-5.61Z"/><path class="c" d="M703.44,548.11c-.05-1.34-1.18-2.39-2.53-2.34-1.34,.05-2.39,1.18-2.34,2.52,.05,1.34,1.18,2.39,2.52,2.34,1.34-.05,2.39-1.18,2.34-2.52Z"/><path class="d" d="M689.49,563.38c-.12-2.98-2.62-5.31-5.6-5.2-2.99,.11-5.32,2.63-5.2,5.61,.11,2.99,2.62,5.32,5.6,5.2,2.99-.11,5.31-2.62,5.2-5.61Z"/><path class="e" d="M771.57,437.38c-1.97-2.25-5.38-2.48-7.64-.52-2.25,1.97-2.48,5.38-.52,7.63,1.97,2.25,5.38,2.48,7.63,.52,2.25-1.97,2.48-5.38,.52-7.63Z"/><path class="c" d="M764.21,460.81c-2.49-4.25-7.95-5.69-12.21-3.21-4.27,2.49-5.69,7.96-3.21,12.21,2.49,4.26,7.95,5.69,12.21,3.21,4.25-2.48,5.69-7.95,3.21-12.21Z"/><path class="e" d="M667.19,581.9c.05-.9-.64-1.66-1.53-1.71-.89-.05-1.66,.64-1.71,1.53-.05,.89,.64,1.66,1.53,1.71,.9,.05,1.66-.63,1.71-1.53Z"/><path class="d" d="M795.5,364.25c-1.79-2.39-5.17-2.88-7.57-1.1-2.4,1.79-2.89,5.18-1.1,7.58,1.79,2.39,5.18,2.88,7.57,1.1,2.4-1.79,2.88-5.18,1.09-7.57Z"/><path class="e" d="M780.37,414.26c-2.1-1.68-5.16-1.35-6.85,.74-1.68,2.09-1.35,5.16,.75,6.85,2.09,1.68,5.15,1.35,6.84-.74,1.68-2.1,1.35-5.16-.75-6.84Z"/><path class="c" d="M788.23,388.18c-2.33-1.87-5.73-1.5-7.61,.82-1.87,2.33-1.5,5.74,.83,7.6,2.32,1.87,5.73,1.51,7.6-.82,1.87-2.33,1.5-5.73-.82-7.61Z"/><path class="d" d="M768.42,337.34c-.93-1.17-2.63-1.36-3.8-.43-1.17,.93-1.36,2.63-.43,3.8,.93,1.17,2.63,1.36,3.8,.43,1.17-.93,1.36-2.63,.43-3.8Z"/><path class="c" d="M764,359.8c-2.39-1.8-5.77-1.33-7.58,1.05-1.8,2.39-1.32,5.78,1.06,7.57,2.38,1.8,5.78,1.33,7.58-1.05,1.8-2.39,1.33-5.78-1.06-7.58Z"/><path class="b" d="M765.19,237.47c-2.21-.16-4.12,1.5-4.28,3.7-.16,2.21,1.5,4.12,3.71,4.28,2.2,.16,4.12-1.5,4.28-3.7,.16-2.21-1.5-4.12-3.71-4.28Z"/><path class="c" d="M774.15,284.98c-2.92-3-7.72-3.04-10.71-.11-2.99,2.92-3.04,7.71-.12,10.7,2.92,2.99,7.73,3.04,10.71,.12,2.99-2.93,3.05-7.73,.12-10.71Z"/><path class="b" d="M738.02,144.45c-2.02,.56-3.19,2.65-2.62,4.67,.56,2.01,2.66,3.19,4.67,2.62,2.01-.56,3.19-2.65,2.62-4.66-.56-2.02-2.66-3.19-4.67-2.62Z"/><path class="c" d="M758.08,189.03c-3.66-1.77-8.06-.24-9.83,3.42-1.77,3.66-.24,8.06,3.41,9.82,3.66,1.77,8.06,.25,9.83-3.41,1.78-3.65,.25-8.05-3.41-9.82Z"/><path class="d" d="M763.5,212.64c-2.69-1.3-5.92-.17-7.23,2.5-1.3,2.7-.17,5.93,2.52,7.23,2.69,1.3,5.92,.18,7.22-2.51,1.3-2.69,.18-5.92-2.51-7.23Z"/><path class="e" d="M787.69,196.61c-2.99-.09-5.48,2.26-5.57,5.25-.09,2.98,2.26,5.47,5.25,5.57,2.98,.1,5.47-2.26,5.57-5.24,.09-2.99-2.26-5.48-5.25-5.57Z"/><path class="b" d="M797.9,246.31c-2.18-2.05-5.6-1.94-7.65,.23-2.05,2.18-1.95,5.6,.23,7.65,2.18,2.05,5.61,1.94,7.65-.23,2.04-2.18,1.94-5.6-.23-7.65Z"/><path class="c" d="M801.8,271.96c-1.85-1.74-4.76-1.65-6.5,.2-1.74,1.85-1.65,4.76,.19,6.5,1.85,1.74,4.76,1.65,6.5-.2,1.74-1.84,1.65-4.76-.2-6.5Z"/><path class="d" d="M801.09,294.2c-2.18-2.04-5.59-1.94-7.64,.22-2.05,2.18-1.95,5.61,.23,7.65,2.17,2.05,5.6,1.95,7.64-.23,2.05-2.17,1.95-5.59-.23-7.65Z"/><path class="e" d="M771.19,146.84c-2.98-.23-5.58,2.01-5.8,4.99-.23,2.98,2.01,5.57,4.99,5.8,2.98,.23,5.57-2.01,5.8-4.99,.22-2.98-2.01-5.57-4.98-5.8Z"/><path class="b" d="M798.15,342.31c-1.87-2.33-5.28-2.7-7.61-.83-2.32,1.87-2.7,5.28-.83,7.61,1.88,2.33,5.29,2.7,7.61,.83,2.32-1.87,2.7-5.28,.83-7.61Z"/><path class="e" d="M804.68,317.33c-3.76-4.25-10.25-4.66-14.52-.91-4.24,3.75-4.65,10.23-.91,14.51,3.73,4.25,10.23,4.65,14.51,.91,4.26-3.76,4.67-10.24,.92-14.51Z"/><path class="d" d="M736.94,77.93c-2.95-.45-5.71,1.58-6.16,4.53-.45,2.96,1.58,5.72,4.53,6.17,2.95,.45,5.71-1.58,6.17-4.53,.45-2.96-1.58-5.71-4.53-6.17Z"/><path class="c" d="M748.56,100.08c-2.98,.3-5.14,2.95-4.85,5.93,.3,2.97,2.95,5.14,5.92,4.83,2.97-.29,5.14-2.94,4.84-5.92-.3-2.97-2.95-5.14-5.92-4.85Z"/><path class="d" d="M699.09,75.07c-2.96-.36-5.66,1.75-6.02,4.71-.36,2.97,1.75,5.67,4.72,6.03,2.96,.36,5.66-1.76,6.02-4.72,.36-2.97-1.75-5.66-4.72-6.03Z"/><path class="e" d="M724.71,120.02c-2.96,.39-5.04,3.11-4.65,6.07,.39,2.96,3.11,5.04,6.07,4.66,2.95-.39,5.04-3.1,4.65-6.07-.39-2.96-3.11-5.05-6.07-4.66Z"/><path class="b" d="M780.66,97.96c-2.47,.61-3.97,3.1-3.35,5.57,.61,2.47,3.11,3.97,5.57,3.35,2.46-.61,3.96-3.11,3.35-5.57-.62-2.46-3.11-3.97-5.57-3.35Z"/><path class="b" d="M796.77,120.19c-2.65-1.38-5.92-.35-7.3,2.29-1.38,2.65-.35,5.91,2.29,7.3,2.66,1.37,5.92,.35,7.3-2.3,1.38-2.65,.35-5.92-2.3-7.3Z"/><path class="d" d="M811.42,165.83c-2.65-1.38-5.91-.35-7.3,2.29-1.38,2.65-.36,5.92,2.29,7.3,2.64,1.38,5.92,.35,7.3-2.29,1.38-2.65,.36-5.92-2.29-7.3Z"/><path class="b" d="M725.19,17.21c-2.49,1.66-3.15,5.02-1.49,7.5,1.66,2.49,5.02,3.15,7.5,1.49,2.48-1.66,3.14-5.02,1.49-7.5-1.66-2.49-5.02-3.15-7.5-1.49Z"/><path class="c" d="M758.74,56.64c-2.96-.4-5.69,1.67-6.09,4.63-.4,2.96,1.67,5.69,4.62,6.09,2.96,.4,5.69-1.67,6.09-4.63,.41-2.96-1.66-5.68-4.62-6.09Z"/><path class="d" d="M771.48,75.46c-2.96-.4-5.68,1.67-6.09,4.62-.41,2.97,1.67,5.69,4.63,6.09,2.96,.4,5.68-1.66,6.09-4.62,.4-2.96-1.67-5.69-4.63-6.09Z"/><path class="b" d="M813.37,99.48c-1.22-.57-2.67-.05-3.24,1.17-.57,1.22-.05,2.67,1.17,3.24,1.22,.57,2.67,.05,3.24-1.17,.57-1.22,.05-2.67-1.17-3.24Z"/><path class="c" d="M826.66,119.23c-2.71-1.27-5.93-.11-7.2,2.59-1.27,2.7-.11,5.93,2.59,7.19,2.7,1.27,5.92,.11,7.19-2.59,1.28-2.7,.12-5.92-2.59-7.19Z"/><path class="d" d="M832.79,140.79c-3-1.41-6.57-.12-7.98,2.87-1.41,3.01-.12,6.59,2.88,7.99,3,1.41,6.58,.13,7.98-2.87,1.41-3,.13-6.57-2.88-7.99Z"/><path class="e" d="M758.88,12.63c-1.75,.43-2.81,2.18-2.38,3.93,.42,1.74,2.18,2.8,3.92,2.38,1.74-.43,2.81-2.18,2.38-3.93-.43-1.74-2.18-2.81-3.92-2.38Z"/><path class="c" d="M775.97,31.34c-2.99,.16-5.28,2.69-5.13,5.68,.15,2.99,2.7,5.28,5.68,5.13,2.98-.15,5.28-2.7,5.13-5.68-.16-2.98-2.7-5.28-5.68-5.13Z"/><path class="e" d="M839.15,168.95c-1.16-.68-2.65-.3-3.33,.86-.68,1.16-.3,2.65,.86,3.33,1.15,.68,2.65,.3,3.33-.86,.68-1.16,.3-2.65-.86-3.33Z"/><path class="e" d="M706.8,1.41c-1.62,.77-2.3,2.71-1.52,4.33,.77,1.61,2.71,2.3,4.33,1.52,1.61-.77,2.3-2.71,1.53-4.33-.78-1.62-2.71-2.3-4.33-1.52Z"/><path class="b" d="M621.14,1.23c-2.95,.46-4.97,3.22-4.52,6.17,.46,2.95,3.22,4.97,6.17,4.53,2.95-.46,4.98-3.23,4.52-6.18-.46-2.95-3.22-4.97-6.17-4.52Z"/><path class="c" d="M640.44,18.45c-2.3,.36-3.88,2.51-3.53,4.81,.35,2.31,2.51,3.88,4.81,3.53,2.3-.36,3.88-2.51,3.53-4.81-.35-2.3-2.51-3.88-4.81-3.53Z"/><path class="d" d="M657.83,31.7c-2.95,.46-4.97,3.22-4.52,6.16,.45,2.96,3.22,4.98,6.18,4.52,2.95-.45,4.97-3.21,4.52-6.16-.46-2.95-3.22-4.98-6.17-4.53Z"/><path class="b" d="M718.78,62.16c-.96,1.15-.8,2.85,.35,3.81,1.14,.96,2.85,.8,3.81-.35,.95-1.15,.8-2.85-.35-3.81-1.15-.96-2.85-.8-3.81,.35Z"/><path class="c" d="M669.42,3.17c-2.98,.18-5.26,2.74-5.08,5.72,.17,2.99,2.73,5.26,5.71,5.08,2.98-.17,5.26-2.73,5.08-5.72-.17-2.98-2.73-5.26-5.71-5.08Z"/><path class="d" d="M685.48,14.54c-4.92,.29-8.67,4.52-8.39,9.42,.29,4.94,4.52,8.68,9.44,8.39,4.92-.29,8.67-4.5,8.38-9.42-.29-4.92-4.51-8.68-9.43-8.39Z"/><path class="c" d="M703.01,38.3c-2.97,.39-5.04,3.1-4.66,6.07,.39,2.97,3.11,5.05,6.07,4.65,2.96-.38,5.05-3.1,4.66-6.06-.39-2.96-3.1-5.05-6.07-4.66Z"/><path class="b" d="M810.75,189.12c-1.69,2.47-1.05,5.83,1.42,7.51,2.47,1.69,5.83,1.05,7.52-1.42,1.68-2.47,1.04-5.83-1.42-7.51-2.47-1.68-5.84-1.05-7.51,1.42Z"/><path class="b" d="M822.2,374.66c-2.69-1.3-5.92-.17-7.22,2.52-1.3,2.7-.16,5.93,2.53,7.22,2.69,1.3,5.92,.16,7.22-2.52,1.29-2.69,.16-5.92-2.53-7.22Z"/><path class="b" d="M818.31,403.52c-.75-1.79-2.81-2.63-4.6-1.88-1.79,.75-2.63,2.81-1.88,4.6,.76,1.79,2.82,2.63,4.6,1.88,1.79-.76,2.64-2.82,1.88-4.61Z"/><path class="c" d="M810.43,424.24c-1.15-2.75-4.33-4.05-7.08-2.89-2.76,1.15-4.05,4.32-2.9,7.08,1.16,2.75,4.33,4.05,7.08,2.9,2.76-1.16,4.06-4.33,2.89-7.08Z"/><path class="b" d="M829.47,282.91c-1.19-.12-2.25,.74-2.37,1.93-.13,1.19,.74,2.25,1.93,2.37,1.19,.12,2.25-.74,2.37-1.93,.12-1.19-.74-2.25-1.93-2.37Z"/><path class="b" d="M834.07,304.78c-2.02-2.2-5.44-2.34-7.64-.32-2.2,2.02-2.35,5.44-.33,7.64,2.03,2.2,5.45,2.34,7.65,.32,2.19-2.02,2.34-5.44,.32-7.64Z"/><path class="c" d="M831.37,329.6c-2.02-2.2-5.45-2.35-7.64-.32-2.2,2.02-2.35,5.44-.33,7.63,2.02,2.2,5.44,2.35,7.64,.33,2.2-2.01,2.35-5.43,.33-7.63Z"/><path class="d" d="M830.75,350.75c-2.83-3.08-7.62-3.28-10.69-.46-3.1,2.83-3.29,7.63-.46,10.71,2.83,3.07,7.61,3.29,10.69,.46,3.08-2.83,3.29-7.62,.46-10.71Z"/><path class="c" d="M839.33,419.72c-.51-1.08-1.8-1.55-2.88-1.04-1.08,.51-1.55,1.8-1.04,2.88,.51,1.08,1.79,1.55,2.88,1.04,1.08-.51,1.55-1.79,1.04-2.87Z"/><path class="d" d="M834.08,441.89c-1.27-2.7-4.49-3.86-7.19-2.6-2.71,1.27-3.87,4.5-2.6,7.2,1.27,2.7,4.49,3.87,7.19,2.6,2.71-1.27,3.87-4.49,2.6-7.2Z"/><path class="b" d="M817.66,483.55c-1.09-3.57-4.89-5.57-8.45-4.46-3.56,1.11-5.56,4.9-4.47,8.46,1.12,3.57,4.9,5.57,8.47,4.46,3.56-1.11,5.57-4.89,4.45-8.46Z"/><path class="e" d="M825.72,463.12c-1.01-2.81-4.11-4.27-6.93-3.26-2.8,1.01-4.26,4.11-3.26,6.93,1,2.8,4.11,4.26,6.92,3.25,2.81-1.02,4.27-4.1,3.26-6.92Z"/><path class="e" d="M828.58,254.62c-2.9-.73-5.83,1.03-6.56,3.93-.73,2.89,1.03,5.83,3.93,6.56,2.89,.73,5.83-1.03,6.57-3.93,.72-2.9-1.04-5.84-3.93-6.56Z"/><path class="c" d="M825.37,228.76c-2.9-.73-5.83,1.03-6.57,3.93-.73,2.9,1.03,5.84,3.93,6.56,2.9,.73,5.84-1.02,6.56-3.92,.73-2.9-1.02-5.84-3.92-6.57Z"/><path class="b" d="M785.07,467.56c-2.87,.82-4.53,3.82-3.7,6.69,.82,2.88,3.82,4.53,6.69,3.71,2.87-.83,4.53-3.82,3.7-6.69-.83-2.87-3.82-4.53-6.69-3.71Z"/><path class="b" d="M736.35,552.5c-1.22-1.31-3.28-1.38-4.59-.15-1.31,1.22-1.37,3.28-.15,4.59,1.22,1.3,3.27,1.37,4.58,.15,1.31-1.22,1.38-3.28,.15-4.59Z"/><path class="b" d="M724.71,572.78c-.09-2.98-2.58-5.33-5.56-5.25-2.99,.08-5.34,2.57-5.26,5.56,.09,2.99,2.58,5.34,5.57,5.26,2.98-.09,5.33-2.58,5.25-5.56Z"/><path class="c" d="M703.44,589.84c-.04-1.35-1.16-2.4-2.5-2.36-1.34,.04-2.4,1.16-2.36,2.5,.04,1.34,1.16,2.4,2.5,2.36,1.34-.04,2.4-1.15,2.36-2.5Z"/><path class="e" d="M749.11,583.04c-.53-1.24-1.96-1.81-3.2-1.28-1.24,.53-1.81,1.96-1.28,3.19,.53,1.24,1.96,1.81,3.2,1.28,1.23-.53,1.81-1.96,1.28-3.19Z"/><path class="e" d="M767.81,562.3c-1.64-2.5-4.99-3.2-7.49-1.56-2.5,1.63-3.2,4.98-1.56,7.49,1.63,2.49,4.98,3.19,7.49,1.56,2.5-1.64,3.2-4.99,1.56-7.49Z"/><path class="c" d="M780.57,542.09c-1.64-2.5-4.99-3.2-7.5-1.57-2.5,1.63-3.2,4.99-1.56,7.48,1.63,2.5,4.98,3.2,7.48,1.57,2.5-1.64,3.2-4.99,1.57-7.49Z"/><path class="e" d="M753.44,531.29c-1.71-2.45-5.08-3.04-7.53-1.33-2.45,1.71-3.04,5.08-1.33,7.53,1.71,2.45,5.08,3.05,7.53,1.34,2.45-1.72,3.05-5.09,1.33-7.54Z"/><path class="c" d="M771.51,507.18c-3.08-4.42-9.14-5.49-13.56-2.42-4.41,3.09-5.48,9.16-2.4,13.56,3.07,4.41,9.15,5.49,13.55,2.41,4.42-3.08,5.5-9.15,2.41-13.55Z"/><path class="d" d="M779.42,491.98c-.96-2.83-4.03-4.34-6.86-3.38-2.83,.96-4.35,4.04-3.39,6.86,.96,2.83,4.04,4.34,6.87,3.38,2.83-.96,4.34-4.03,3.38-6.87Z"/><path class="c" d="M806.14,502.59c-1.64-2.5-4.99-3.2-7.5-1.56-2.5,1.63-3.2,4.99-1.56,7.48,1.63,2.5,4.98,3.2,7.49,1.57,2.5-1.64,3.2-4.99,1.57-7.49Z"/><path class="b" d="M22.76,405.24c1.38,.9,3.22,.51,4.12-.87,.9-1.38,.51-3.22-.86-4.12-1.38-.9-3.22-.51-4.12,.87-.9,1.38-.51,3.22,.87,4.12Z"/><path class="c" d="M17.92,382.56c2.5,1.63,5.86,.93,7.49-1.57,1.64-2.5,.93-5.85-1.57-7.48-2.5-1.63-5.86-.93-7.49,1.57-1.64,2.5-.93,5.85,1.57,7.48Z"/><path class="d" d="M12.4,363.27c4.25,2.77,9.95,1.57,12.72-2.65,2.78-4.27,1.58-9.97-2.68-12.74-4.25-2.78-9.94-1.59-12.72,2.66-2.78,4.25-1.59,9.95,2.67,12.73Z"/><path class="d" d="M23.18,498.91c3.87,1.1,7.92-1.14,9.03-5.01,1.11-3.88-1.13-7.92-5.01-9.03-3.87-1.11-7.92,1.14-9.03,5-1.11,3.89,1.13,7.92,5.01,9.04Z"/><path class="b" d="M125.24,580.91c2.01-1.3,2.57-3.99,1.27-5.99-1.31-2-3.99-2.57-5.99-1.26-2,1.3-2.56,3.98-1.27,5.98,1.31,2,3.99,2.57,5.99,1.26Z"/><path class="b" d="M102.88,565.41c2.96,.43,5.7-1.61,6.14-4.56,.43-2.95-1.6-5.7-4.56-6.14-2.96-.43-5.71,1.61-6.15,4.57-.43,2.95,1.61,5.71,4.57,6.14Z"/><path class="c" d="M89.03,549.29c4.73,.7,9.12-2.57,9.82-7.3,.7-4.73-2.56-9.12-7.29-9.82-4.73-.7-9.13,2.57-9.83,7.29-.7,4.75,2.57,9.14,7.3,9.83Z"/><path class="d" d="M74.07,527.1c2.95,.44,5.7-1.61,6.14-4.56,.44-2.96-1.6-5.71-4.56-6.15-2.95-.43-5.71,1.61-6.14,4.56-.44,2.96,1.6,5.71,4.56,6.15Z"/><path class="b" d="M93.98,590.42c1.34,.14,2.54-.83,2.68-2.16,.14-1.34-.83-2.54-2.16-2.68-1.34-.14-2.54,.83-2.68,2.17-.14,1.34,.83,2.54,2.16,2.68Z"/><path class="c" d="M74.96,576.12c2.97,.31,5.64-1.84,5.95-4.81,.32-2.97-1.84-5.63-4.8-5.95-2.96-.31-5.63,1.84-5.94,4.81-.32,2.97,1.83,5.63,4.8,5.95Z"/><path class="b" d="M35.39,517.08c2.9,.73,5.83-1.04,6.56-3.94,.71-2.9-1.04-5.84-3.94-6.56-2.91-.71-5.84,1.05-6.56,3.95-.72,2.9,1.04,5.84,3.94,6.56Z"/><path class="e" d="M46.27,536.15c2.93,.59,5.78-1.31,6.37-4.24,.58-2.92-1.31-5.77-4.24-6.37-2.92-.6-5.77,1.3-6.37,4.23-.59,2.93,1.31,5.78,4.24,6.37Z"/><path class="b" d="M66.72,73.98c4.59,4.41,11.88,4.26,16.29-.34,4.41-4.59,4.24-11.88-.35-16.29-4.59-4.4-11.88-4.24-16.28,.34-4.41,4.6-4.25,11.9,.35,16.29Z"/><path class="d" d="M117.85,11.82c.25,2.97,2.86,5.19,5.83,4.95,2.99-.25,5.2-2.87,4.95-5.84-.24-2.97-2.85-5.19-5.83-4.95-2.98,.24-5.19,2.85-4.95,5.84Z"/><path class="d" d="M20.43,101.74c1.11,2.77,4.27,4.11,7.03,3,2.78-1.11,4.12-4.26,3.01-7.03-1.11-2.77-4.26-4.11-7.03-3.01-2.78,1.11-4.12,4.26-3.01,7.04Z"/><path class="e" d="M45.64,58.09c1.77,2.41,5.15,2.93,7.56,1.16,2.4-1.77,2.92-5.15,1.16-7.56-1.76-2.4-5.15-2.92-7.56-1.16-2.4,1.77-2.92,5.16-1.16,7.56Z"/><path class="d" d="M35.34,137.19c1.2,2.73,4.39,3.98,7.12,2.79,2.74-1.2,3.99-4.39,2.79-7.12-1.19-2.74-4.39-3.98-7.12-2.79-2.74,1.2-3.99,4.38-2.79,7.12Z"/><path class="c" d="M45.9,114.54c1.29,1.65,3.66,1.94,5.32,.65,1.65-1.29,1.94-3.67,.65-5.31-1.28-1.65-3.66-1.94-5.31-.65-1.65,1.29-1.94,3.67-.65,5.32Z"/><path class="b" d="M14.31,234.49c1.56,.54,3.25-.28,3.79-1.84,.54-1.55-.29-3.25-1.84-3.78-1.55-.54-3.24,.29-3.78,1.84-.54,1.55,.29,3.25,1.84,3.78Z"/><path class="b" d="M14.12,207.11c1.47,2.6,4.77,3.52,7.37,2.05,2.6-1.47,3.52-4.76,2.05-7.37-1.48-2.6-4.77-3.52-7.37-2.05-2.6,1.48-3.52,4.77-2.05,7.37Z"/><path class="c" d="M19.87,187.39c1.46,2.6,4.77,3.52,7.36,2.05,2.6-1.47,3.52-4.77,2.06-7.36-1.47-2.6-4.77-3.52-7.36-2.06-2.61,1.47-3.53,4.77-2.06,7.37Z"/><path class="d" d="M19.54,166.15c3.6,6.36,11.67,8.62,18.04,5.03,6.39-3.6,8.65-11.68,5.06-18.05-3.6-6.37-11.7-8.62-18.06-5.04-6.38,3.61-8.63,11.68-5.04,18.07Z"/><path class="b" d="M8.43,305.32c1.58,1.36,3.97,1.19,5.34-.4,1.37-1.58,1.19-3.97-.39-5.34-1.59-1.36-3.98-1.19-5.35,.4-1.36,1.58-1.19,3.97,.4,5.34Z"/><path class="c" d="M7.17,281.59c2.27,1.95,5.69,1.7,7.63-.56,1.95-2.27,1.7-5.68-.56-7.63-2.26-1.95-5.68-1.7-7.63,.56-1.95,2.26-1.7,5.68,.56,7.63Z"/><path class="e" d="M4.94,143.01c.53,1.07,1.83,1.51,2.9,.97,1.07-.53,1.5-1.83,.97-2.9-.53-1.07-1.83-1.5-2.9-.97-1.07,.53-1.5,1.83-.97,2.9Z"/><path class="b" d="M7.28,71.85c.66,2.3,3.05,3.63,5.35,2.97,2.3-.65,3.63-3.05,2.98-5.35-.66-2.3-3.06-3.63-5.35-2.97-2.29,.66-3.63,3.05-2.97,5.35Z"/><path class="c" d="M18.29,50.46c.82,2.87,3.82,4.53,6.69,3.72,2.88-.82,4.54-3.81,3.72-6.68-.82-2.87-3.81-4.54-6.69-3.72-2.87,.82-4.54,3.81-3.72,6.68Z"/><path class="b" d="M39.18,568.62c2.64-1.4,3.64-4.67,2.24-7.31-1.4-2.64-4.68-3.64-7.31-2.24-2.64,1.4-3.64,4.68-2.24,7.31,1.4,2.64,4.68,3.64,7.32,2.24Z"/><path class="c" d="M8.74,527.24c2.91,.7,5.83-1.09,6.53-3.99,.7-2.91-1.09-5.83-3.99-6.52-2.9-.7-5.83,1.09-6.53,3.99-.7,2.9,1.09,5.82,3.99,6.52Z"/><path class="e" d="M2.46,570.62c1.19-.16,2.01-1.26,1.84-2.44-.16-1.18-1.26-2.01-2.44-1.84-1.19,.17-2.01,1.26-1.84,2.44,.17,1.18,1.26,2.01,2.44,1.84Z"/><path class="e" d="M17.93,591.86c1.71-.56,2.64-2.39,2.08-4.09-.55-1.7-2.39-2.63-4.09-2.08-1.7,.55-2.63,2.39-2.08,4.09,.56,1.7,2.39,2.63,4.09,2.08Z"/><path class="e" d="M54.83,588.99c1.55-.56,2.34-2.26,1.79-3.81-.56-1.54-2.26-2.35-3.81-1.79-1.54,.55-2.35,2.26-1.79,3.8,.56,1.54,2.26,2.35,3.81,1.79Z"/><path class="d" d="M792.16,584.51c-.62-2.92-3.5-4.78-6.42-4.16-2.93,.63-4.79,3.5-4.16,6.42,.63,2.92,3.5,4.78,6.42,4.16,2.92-.63,4.78-3.5,4.16-6.42Z"/><path class="b" d="M840.22,503.18c-2.49-1.66-5.84-.99-7.5,1.5-1.66,2.48-.98,5.84,1.5,7.5,2.49,1.66,5.85,.98,7.5-1.5,1.66-2.49,.99-5.85-1.5-7.5Z"/><path class="b" d="M831.03,528.26c-.85-3.21-4.14-5.11-7.35-4.27-3.2,.85-5.11,4.13-4.27,7.34,.86,3.21,4.15,5.12,7.35,4.27,3.21-.85,5.12-4.13,4.27-7.34Z"/><path class="c" d="M818.27,549.63c-.77-2.89-3.73-4.62-6.62-3.85-2.89,.76-4.61,3.73-3.85,6.61,.76,2.89,3.72,4.61,6.62,3.85,2.88-.76,4.6-3.73,3.84-6.61Z"/><path class="e" d="M833.71,576.53c-1.88-2.33-5.29-2.69-7.62-.81-2.32,1.88-2.68,5.28-.81,7.61,1.87,2.32,5.28,2.68,7.62,.81,2.32-1.88,2.68-5.29,.81-7.61Z"/><path class="b" d="M819.79,47.64c-3.04,1.32-4.43,4.86-3.1,7.9,1.32,3.04,4.86,4.42,7.91,3.1,3.03-1.32,4.42-4.86,3.1-7.9-1.32-3.04-4.87-4.43-7.91-3.1Z"/><path class="b" d="M836.38,74.8c-1.42-.46-2.94,.32-3.41,1.74-.46,1.42,.32,2.94,1.74,3.41,1.42,.46,2.95-.32,3.41-1.74,.46-1.42-.32-2.95-1.74-3.41Z"/><path class="c" d="M828.22,6.14c-1.16,.29-1.87,1.45-1.59,2.62,.28,1.16,1.46,1.87,2.61,1.59,1.16-.28,1.88-1.45,1.59-2.61-.28-1.16-1.45-1.87-2.61-1.59Z"/><path class="e" d="M806.59,26.02c-2.88,.8-4.57,3.77-3.77,6.65,.79,2.88,3.78,4.57,6.65,3.77,2.88-.78,4.57-3.77,3.78-6.65-.8-2.88-3.78-4.57-6.66-3.78Z"/><path class="c" d="M789.54,2.57c-4.18,1.15-6.62,5.46-5.48,9.65,1.14,4.18,5.47,6.62,9.64,5.47,4.18-1.14,6.63-5.46,5.49-9.63-1.15-4.18-5.47-6.64-9.65-5.48Z"/><path class="e" d="M427.86,249.41c-.86,1.18-.61,2.83,.57,3.7,1.18,.86,2.83,.61,3.7-.56,.87-1.18,.61-2.83-.56-3.7-1.18-.86-2.83-.61-3.7,.56Z"/><path class="c" d="M444.27,262.66c-1.67,2.27-1.18,5.47,1.09,7.14,2.28,1.67,5.48,1.18,7.15-1.09,1.67-2.27,1.19-5.47-1.09-7.14-2.27-1.67-5.47-1.18-7.15,1.09Z"/><path class="b" d="M437.65,255.55c-.96,1.31-.68,3.14,.63,4.1,1.31,.96,3.15,.68,4.11-.63,.96-1.31,.68-3.14-.63-4.11-1.31-.96-3.14-.68-4.11,.63Z"/><path class="d" d="M452.4,275.09c-.96,1.31-.68,3.15,.63,4.11,1.31,.96,3.15,.68,4.11-.63,.96-1.31,.68-3.15-.63-4.11-1.31-.96-3.15-.68-4.11,.63Z"/><path class="e" d="M455.57,286.9c-.96,1.31-.68,3.15,.62,4.11,1.31,.96,3.15,.68,4.11-.63,.96-1.31,.68-3.15-.62-4.11-1.31-.96-3.15-.68-4.11,.63Z"/><path class="b" d="M393.79,248.11c-.77,1.04-.54,2.52,.5,3.28,1.05,.77,2.52,.54,3.29-.5,.77-1.05,.54-2.52-.5-3.29-1.05-.77-2.52-.54-3.29,.5Z"/><path class="b" d="M451.9,311.27c-.96,1.31-.68,3.14,.63,4.11,1.31,.96,3.14,.68,4.11-.63,.96-1.3,.68-3.14-.63-4.1-1.31-.96-3.15-.68-4.11,.63Z"/><path class="c" d="M404.71,245.23c-.96,1.31-.68,3.15,.63,4.11,1.31,.96,3.14,.68,4.11-.63,.96-1.31,.68-3.15-.63-4.1-1.31-.96-3.15-.68-4.1,.63Z"/><path class="d" d="M455.87,300.54c-.69,.95-.49,2.28,.46,2.97,.95,.7,2.28,.49,2.98-.45,.69-.95,.49-2.28-.46-2.98-.95-.7-2.28-.49-2.98,.46Z"/><path class="d" d="M413.61,243.83c-2.09,2.84-1.48,6.84,1.36,8.93,2.85,2.09,6.84,1.48,8.93-1.36,2.09-2.84,1.48-6.84-1.36-8.93-2.84-2.09-6.84-1.48-8.93,1.36Z"/><path class="c" d="M366,274.06c1.57,1.41,3.98,1.29,5.39-.28,1.41-1.57,1.29-3.98-.28-5.39-1.57-1.41-3.98-1.29-5.39,.28-1.41,1.57-1.29,3.98,.28,5.39Z"/><path class="e" d="M382.18,257.55c1.75,1.57,4.44,1.44,6.02-.31,1.58-1.75,1.44-4.44-.31-6.02-1.75-1.57-4.44-1.44-6.01,.31-1.57,1.75-1.44,4.44,.31,6.02Z"/><path class="e" d="M373.68,264.28c1.33,1.19,3.37,1.09,4.56-.24,1.2-1.32,1.09-3.37-.24-4.56-1.32-1.19-3.37-1.09-4.56,.24-1.2,1.32-1.09,3.37,.24,4.56Z"/><path class="b" d="M361.08,279.82c-1.39,1.9-.99,4.56,.91,5.96,1.9,1.39,4.56,.98,5.96-.91,1.39-1.9,.98-4.56-.91-5.95-1.9-1.39-4.56-.99-5.95,.91Z"/><path class="d" d="M361.63,293.11c-.56,.76-.39,1.82,.36,2.38,.76,.56,1.83,.39,2.38-.36,.56-.76,.39-1.82-.36-2.38-.76-.56-1.82-.39-2.38,.37Z"/><path class="b" d="M388.83,337.05c1.6-2.6,.78-6.01-1.83-7.61-2.61-1.6-6.02-.78-7.61,1.83-1.6,2.6-.78,6.02,1.83,7.62,2.61,1.6,6.02,.78,7.62-1.83Z"/><path class="c" d="M370.22,318.09c.64-1.04,.31-2.39-.73-3.03-1.04-.63-2.39-.31-3.03,.73-.64,1.04-.31,2.39,.73,3.03,1.04,.63,2.39,.31,3.03-.73Z"/><path class="b" d="M366.75,307.52c.85-1.38,.41-3.19-.97-4.04-1.38-.84-3.19-.41-4.04,.97-.85,1.38-.41,3.19,.97,4.04,1.38,.85,3.19,.41,4.04-.97Z"/><path class="c" d="M451.28,319.47c-2.62-1.99-6.36-1.48-8.35,1.14-2,2.62-1.49,6.37,1.14,8.36,2.62,1.99,6.36,1.48,8.36-1.14,1.99-2.62,1.48-6.37-1.15-8.36Z"/><path class="e" d="M426.74,229.22c-1.06,1.45-.75,3.48,.7,4.55,1.45,1.06,3.49,.75,4.55-.7,1.06-1.45,.75-3.48-.7-4.55-1.45-1.07-3.48-.76-4.55,.69Z"/><path class="b" d="M438.36,233.37c-1.9,2.58-1.34,6.2,1.24,8.1,2.58,1.9,6.2,1.34,8.1-1.24,1.89-2.58,1.34-6.2-1.24-8.1-2.58-1.89-6.21-1.34-8.1,1.24Z"/><path class="b" d="M386.81,228.8c-1.59,2.17-1.13,5.23,1.04,6.83,2.17,1.59,5.23,1.13,6.82-1.04,1.6-2.17,1.13-5.23-1.04-6.83-2.17-1.59-5.23-1.13-6.83,1.04Z"/><path class="e" d="M400.75,226.96c-1.07,1.45-.75,3.49,.7,4.55,1.45,1.06,3.48,.75,4.55-.7,1.06-1.45,.75-3.49-.69-4.55-1.45-1.07-3.49-.76-4.55,.69Z"/><path class="c" d="M415.6,227.28c-.43,.58-.3,1.39,.28,1.82,.58,.43,1.39,.3,1.82-.28,.43-.58,.3-1.39-.28-1.82-.58-.43-1.39-.3-1.82,.28Z"/><path class="e" d="M376.76,239.53c1.34,1.2,3.39,1.1,4.6-.24,1.2-1.34,1.1-3.39-.24-4.6-1.34-1.2-3.39-1.1-4.6,.24-1.2,1.33-1.1,3.39,.24,4.6Z"/><path class="e" d="M477.75,287.71c-2.23-.69-4.6,.57-5.29,2.8-.68,2.23,.57,4.6,2.81,5.29,2.24,.69,4.6-.57,5.29-2.8,.68-2.23-.57-4.6-2.81-5.29Z"/><path class="b" d="M476.63,303.41c-1.72-.53-3.54,.44-4.06,2.16-.53,1.72,.44,3.54,2.16,4.07,1.72,.53,3.54-.44,4.07-2.16,.53-1.72-.44-3.54-2.16-4.07Z"/><path class="b" d="M464.22,252.37c-1.72-.53-3.54,.44-4.06,2.16-.53,1.72,.44,3.54,2.16,4.07,1.72,.53,3.54-.44,4.07-2.16,.52-1.72-.44-3.54-2.16-4.07Z"/><path class="c" d="M471.69,261.19c-2.92-.9-6.01,.75-6.91,3.67-.9,2.92,.74,6.02,3.66,6.91,2.92,.9,6.02-.75,6.91-3.67,.9-2.92-.74-6.02-3.67-6.91Z"/><path class="d" d="M475.92,276.56c-1.2-.37-2.48,.31-2.85,1.51-.37,1.2,.31,2.48,1.51,2.85,1.2,.37,2.48-.31,2.84-1.51,.37-1.2-.31-2.48-1.51-2.85Z"/><path class="e" d="M450.06,244.36c-.97,2.32,.12,4.99,2.44,5.97,2.32,.97,4.99-.12,5.96-2.44,.97-2.32-.12-4.99-2.44-5.96-2.32-.97-4.99,.12-5.97,2.43Z"/><path class="e" d="M441.02,356.42c-.11-1.79-1.65-3.16-3.44-3.05-1.8,.11-3.16,1.65-3.05,3.45,.11,1.79,1.65,3.16,3.45,3.05,1.79-.11,3.16-1.65,3.05-3.45Z"/><path class="b" d="M426.25,360.86c-.09-1.44-1.32-2.53-2.76-2.44-1.44,.08-2.53,1.32-2.44,2.75,.09,1.43,1.32,2.53,2.76,2.44,1.43-.09,2.53-1.32,2.44-2.75Z"/><path class="b" d="M470.35,331.3c-.11-1.79-1.65-3.16-3.45-3.05-1.79,.11-3.16,1.65-3.05,3.45,.11,1.79,1.65,3.16,3.45,3.05,1.79-.11,3.16-1.65,3.05-3.45Z"/><path class="c" d="M464.06,341.43c-.16-2.69-2.48-4.74-5.17-4.58-2.69,.16-4.74,2.48-4.58,5.17,.16,2.69,2.48,4.74,5.17,4.58,2.69-.16,4.74-2.47,4.58-5.17Z"/><path class="e" d="M472.87,315.73c-2.24-.09-4.12,1.66-4.21,3.89-.09,2.24,1.65,4.12,3.89,4.21,2.24,.09,4.12-1.65,4.21-3.89,.09-2.24-1.65-4.12-3.89-4.21Z"/><path class="e" d="M364.26,343.8c1.99-.83,2.93-3.12,2.09-5.11-.83-1.99-3.12-2.92-5.11-2.09-1.99,.83-2.93,3.12-2.1,5.11,.83,1.99,3.12,2.93,5.11,2.09Z"/><path class="b" d="M355.2,331.32c1.66-.69,2.44-2.6,1.75-4.26-.7-1.66-2.6-2.44-4.26-1.75-1.65,.69-2.44,2.6-1.75,4.26,.7,1.66,2.6,2.44,4.26,1.75Z"/><path class="d" d="M372.56,350.6c.66-.28,.98-1.04,.7-1.71-.28-.66-1.04-.98-1.7-.7-.66,.28-.97,1.04-.7,1.7,.28,.66,1.04,.98,1.7,.7Z"/><path class="e" d="M342.93,294.08c2.06,.87,4.44-.09,5.32-2.15,.87-2.06-.09-4.45-2.15-5.32-2.06-.87-4.44,.09-5.31,2.15-.88,2.07,.08,4.44,2.15,5.32Z"/><path class="b" d="M345.6,278.74c1.65,.71,3.57-.07,4.27-1.72,.7-1.66-.07-3.57-1.73-4.27-1.65-.7-3.56,.07-4.27,1.72-.7,1.66,.07,3.57,1.73,4.27Z"/><path class="c" d="M346.29,320.95c2.65,1.12,5.7-.11,6.82-2.76,1.13-2.65-.11-5.7-2.76-6.83-2.65-1.12-5.71,.12-6.83,2.76-1.12,2.65,.11,5.71,2.76,6.83Z"/><path class="d" d="M343.17,306.42c1.65,.7,3.56-.07,4.27-1.72,.7-1.66-.07-3.57-1.73-4.27-1.65-.7-3.56,.07-4.27,1.72-.7,1.66,.07,3.57,1.73,4.27Z"/><path class="b" d="M357.54,251.55c-.1,1.57,1.09,2.92,2.66,3.03,1.57,.1,2.92-1.08,3.03-2.66,.1-1.57-1.09-2.93-2.66-3.03-1.57-.1-2.92,1.09-3.03,2.66Z"/><path class="c" d="M366.27,242.37c-.12,1.79,1.24,3.34,3.04,3.46,1.79,.12,3.34-1.24,3.46-3.03,.12-1.79-1.24-3.34-3.03-3.46-1.8-.12-3.34,1.24-3.46,3.04Z"/><path class="e" d="M352.76,266.23c1.97,.33,3.83-1,4.16-2.97,.33-1.97-1-3.83-2.97-4.16-1.97-.33-3.83,1-4.16,2.97-.33,1.97,1,3.83,2.97,4.16Z"/></svg>