<?xml version="1.0" encoding="UTF-8"?><svg id="a" xmlns="http://www.w3.org/2000/svg" viewBox="0 0 1000 1000"><defs><style>.b{fill:#fff;}</style></defs><rect class="b" width="1000" height="1000"/><path d="M560.67,583c-32.21,0-58.42-26.21-58.42-58.42s26.21-58.42,58.42-58.42,58.42,26.21,58.42,58.42-26.21,58.42-58.42,58.42Zm0-94.34c-19.81,0-35.92,16.11-35.92,35.92s16.11,35.92,35.92,35.92,35.92-16.11,35.92-35.92-16.11-35.92-35.92-35.92Z"/><path d="M916.85,974c-32.21,0-58.42-26.21-58.42-58.42s26.21-58.42,58.42-58.42,58.42,26.21,58.42,58.42-26.21,58.42-58.42,58.42Zm0-94.34c-19.81,0-35.92,16.11-35.92,35.92s16.11,35.92,35.92,35.92,35.92-16.11,35.92-35.92-16.11-35.92-35.92-35.92Z"/><path d="M449.38,173.45c-.59,0-1.19-.05-1.79-.14l-73.08-11.65c-2.95-.47-5.59-2.09-7.34-4.51-1.75-2.42-2.47-5.43-2-8.37l11.66-73.08c.47-2.95,2.09-5.59,4.51-7.34,2.42-1.75,5.43-2.47,8.37-2l73.08,11.66c6.14,.98,10.32,6.75,9.34,12.88l-11.66,73.08c-.88,5.54-5.66,9.48-11.1,9.48Zm-60.21-32.24l50.86,8.11,8.11-50.86-50.86-8.11-8.11,50.86Z"/><path d="M136.05,585.08c-.59,0-1.19-.05-1.79-.14l-73.08-11.66c-2.95-.47-5.59-2.09-7.34-4.51s-2.47-5.43-2-8.38l11.66-73.08c.47-2.95,2.09-5.59,4.51-7.34s5.43-2.47,8.37-2l73.08,11.66c6.14,.98,10.32,6.75,9.34,12.88l-11.66,73.08c-.88,5.54-5.66,9.48-11.1,9.48Zm-60.21-32.24l50.86,8.11,8.11-50.86-50.86-8.11-8.11,50.86Z"/><g><path d="M631,248.41c-1.87,0-3.77-.47-5.52-1.46l-69.53-39.27c-5.41-3.06-7.32-9.92-4.26-15.33,3.06-5.41,9.92-7.32,15.33-4.26l69.53,39.27c5.41,3.06,7.32,9.92,4.26,15.33-2.07,3.66-5.88,5.72-9.81,5.72Z"/><path d="M576.6,263.53c-1.87,0-3.77-.47-5.52-1.46-5.41-3.06-7.32-9.92-4.26-15.33l39.27-69.53c3.06-5.41,9.92-7.32,15.33-4.26,5.41,3.06,7.32,9.92,4.26,15.33l-39.27,69.53c-2.07,3.66-5.88,5.72-9.81,5.72Z"/></g><g><path d="M108.8,917.07c-1.87,0-3.77-.47-5.52-1.46l-69.53-39.27c-5.41-3.06-7.32-9.92-4.26-15.33,3.06-5.41,9.92-7.32,15.33-4.26l69.53,39.27c5.41,3.06,7.32,9.92,4.26,15.33-2.07,3.66-5.88,5.72-9.81,5.72Z"/><path d="M54.4,932.19c-1.87,0-3.77-.47-5.52-1.46-5.41-3.06-7.32-9.92-4.26-15.33l39.27-69.53c3.06-5.41,9.92-7.32,15.33-4.26,5.41,3.06,7.32,9.92,4.26,15.33l-39.27,69.53c-2.07,3.66-5.88,5.72-9.81,5.72Z"/></g><path d="M349.73,556.1c-2.36,0-4.7-.74-6.67-2.19l-59.82-44.03c-3.24-2.38-4.96-6.31-4.51-10.31,.44-3.99,2.99-7.45,6.67-9.06l68.04-29.79c3.68-1.61,7.94-1.14,11.18,1.25,3.24,2.38,4.96,6.31,4.51,10.31l-8.22,73.82c-.44,3.99-2.99,7.45-6.67,9.06-1.45,.63-2.98,.94-4.51,.94Zm-37.45-52.79l28.43,20.93,3.91-35.08-32.34,14.16Z"/><path d="M927.08,284.56c-2.36,0-4.71-.74-6.67-2.19l-59.82-44.03c-3.24-2.38-4.96-6.31-4.51-10.31,.44-3.99,2.99-7.45,6.67-9.06l68.04-29.79c3.68-1.61,7.94-1.14,11.18,1.25,3.24,2.38,4.96,6.31,4.51,10.31l-8.22,73.82c-.45,4-2.99,7.45-6.67,9.06-1.45,.63-2.98,.94-4.51,.94Zm-37.46-52.79l28.43,20.93,3.91-35.08-32.34,14.16Z"/><path d="M463.36,982.5c-2.36,0-4.71-.74-6.67-2.19l-59.82-44.03c-3.24-2.38-4.96-6.31-4.51-10.31,.45-3.99,2.99-7.45,6.67-9.06l68.04-29.79c3.68-1.61,7.94-1.14,11.18,1.25,3.24,2.38,4.96,6.31,4.51,10.31l-8.22,73.82c-.45,3.99-2.99,7.45-6.67,9.06-1.45,.63-2.98,.94-4.51,.94Zm-37.46-52.79l28.43,20.93,3.91-35.08-32.34,14.16Z"/><path d="M415.2,380.87c-5.15,0-10.48-1.36-15.76-5.07-13.77-9.7-12.55-25.18-11.67-36.49,.75-9.52,.78-14.24-2.19-16.33-2.96-2.09-7.39-.47-16.11,3.45-10.34,4.65-24.51,11.02-38.28,1.32-13.77-9.7-12.55-25.18-11.66-36.49,.75-9.52,.78-14.24-2.19-16.32-2.96-2.09-7.39-.47-16.11,3.45-10.34,4.65-24.51,11.02-38.28,1.32-13.77-9.7-12.55-25.18-11.66-36.49,.75-9.52,.78-14.24-2.19-16.32-5.08-3.58-6.3-10.59-2.72-15.68,3.58-5.08,10.59-6.3,15.67-2.72,13.77,9.7,12.55,25.18,11.66,36.49-.75,9.52-.78,14.24,2.19,16.32,2.96,2.09,7.39,.47,16.11-3.45,10.34-4.65,24.51-11.02,38.28-1.32,13.77,9.7,12.55,25.18,11.66,36.49-.75,9.52-.78,14.24,2.19,16.33,2.96,2.09,7.39,.47,16.11-3.45,10.34-4.65,24.51-11.02,38.28-1.32,13.77,9.7,12.55,25.18,11.66,36.49-.75,9.52-.78,14.24,2.19,16.33,2.96,2.09,7.39,.47,16.11-3.45,10.34-4.65,24.51-11.02,38.28-1.32,5.08,3.58,6.3,10.59,2.72,15.68-3.58,5.08-10.6,6.3-15.68,2.72-2.96-2.09-7.39-.47-16.11,3.45-6.38,2.87-14.22,6.39-22.53,6.39Z"/><path d="M210.56,128.26c-1.73,0-3.49-.4-5.14-1.25l-83.91-43.15c-5.49-2.82-7.68-9.55-4.9-15.07,10-19.84,30-32.16,52.2-32.16,32.21,0,58.42,26.21,58.42,58.42,0,9.46-2.32,18.87-6.71,27.2-2.01,3.82-5.92,6.01-9.96,6.01Zm-67.28-58.51l60.95,31.34c.33-1.98,.5-3.99,.5-6.05,0-19.81-16.11-35.92-35.92-35.92-9.8,0-18.9,3.91-25.53,10.62Z"/><path d="M765.59,432.12c-1.73,0-3.49-.4-5.14-1.25l-83.91-43.15c-5.49-2.82-7.68-9.55-4.9-15.07,10-19.84,30-32.16,52.2-32.16,32.21,0,58.42,26.21,58.42,58.42,0,9.46-2.32,18.87-6.71,27.2-2.01,3.82-5.92,6.01-9.96,6.01Zm-67.28-58.51l60.95,31.35c.33-1.98,.5-3.99,.5-6.05,0-19.81-16.11-35.92-35.92-35.92-9.8,0-18.9,3.91-25.53,10.62Z"/><circle cx="220.99" cy="401.51" r="11.25"/><circle cx="916.85" cy="44.96" r="11.25"/><circle cx="751.85" cy="943.84" r="11.25"/><circle cx="544.67" cy="379.56" r="11.25"/><path d="M66.8,690.1c0,6.21-5.04,11.25-11.25,11.25s-11.25-5.04-11.25-11.25,5.04-11.25,11.25-11.25,11.25,5.04,11.25,11.25Z"/><circle cx="626.5" cy="67.46" r="11.25"/><circle cx="232.24" cy="921.4" r="11.25"/><circle cx="758.4" cy="553.32" r="11.25"/><circle cx="52.3" cy="128.26" r="11.25"/><circle cx="621.75" cy="669.59" r="11.25"/><circle cx="329.18" cy="29.13" r="11.25"/><circle cx="953.92" cy="753.91" r="11.25"/><circle cx="401.66" cy="655.62" r="11.25"/><path d="M363.45,833.17c-1.71,0-3.42-.39-5-1.17-3.37-1.67-5.68-4.91-6.16-8.64l-7.06-54.72-59.67,26.79c-2.92,1.31-6.27,1.32-9.19,.01-2.93-1.3-5.16-3.79-6.13-6.85l-19.66-61.45-57.56,34.66c-3.19,1.92-7.11,2.14-10.49,.59-3.38-1.55-5.78-4.67-6.4-8.34l-8.5-49.87c-1.04-6.12,3.07-11.94,9.2-12.98,6.12-1.05,11.94,3.07,12.98,9.2l5.73,33.62,55.62-33.49c2.95-1.77,6.54-2.1,9.76-.89,3.22,1.21,5.71,3.83,6.76,7.1l20.16,63.01,62.01-27.84c3.25-1.46,6.99-1.29,10.1,.45,3.11,1.74,5.21,4.85,5.66,8.38l6.84,53.03,23.6-13.58c5.39-3.1,12.26-1.24,15.36,4.14,3.1,5.39,1.24,12.26-4.14,15.36l-38.21,21.98c-1.73,1-3.67,1.5-5.61,1.5Z"/><path d="M811.72,801.13c-3.97,0-7.82-2.11-9.87-5.84-2.99-5.44-1.01-12.27,4.42-15.26,.43-.24,29.89-16.94,34.17-42.61,2.37-14.19-3.54-29.29-17.56-44.86-11.53-12.81-27.06-17.14-41.53-11.59-10.27,3.94-21.24,13.92-21.24,30.13,0,16.46,5.21,30.04,13.29,34.59,5.19,2.92,11.83,1.97,19.74-2.84,6.95-4.22,7.14-8.47,6.67-11.3-1.03-6.28-6.64-11.36-8.73-11.83-6.06-1.35-9.89-7.35-8.55-13.42,1.34-6.06,7.33-9.89,13.39-8.56,12.28,2.7,23.74,15.92,26.09,30.1,2.28,13.74-3.98,26.22-17.19,34.23-14.94,9.07-30.02,10.21-42.45,3.21-15.51-8.73-24.76-28.99-24.76-54.2,0-22.75,14.01-42.82,35.68-51.14,23.17-8.89,48.58-2.17,66.31,17.54,18.88,20.97,26.62,42.43,23,63.77-6.18,36.49-43.88,57.58-45.48,58.46-1.72,.94-3.58,1.39-5.41,1.39Z"/><path d="M127.9,343.77c-3.97,0-7.82-2.11-9.87-5.84-2.99-5.44-1.01-12.27,4.42-15.26,.43-.24,29.89-16.94,34.17-42.61,2.37-14.19-3.54-29.29-17.56-44.86-11.53-12.81-27.06-17.14-41.53-11.58-10.27,3.94-21.24,13.92-21.24,30.13,0,16.46,5.21,30.04,13.29,34.59,5.19,2.92,11.83,1.97,19.74-2.84,6.95-4.22,7.14-8.47,6.67-11.3-1.03-6.28-6.64-11.36-8.73-11.83-6.06-1.35-9.89-7.35-8.55-13.41,1.34-6.06,7.33-9.89,13.39-8.56,12.28,2.7,23.74,15.92,26.09,30.1,2.28,13.74-3.98,26.22-17.19,34.23-14.94,9.07-30.02,10.21-42.45,3.21-15.51-8.73-24.76-28.99-24.76-54.2,0-22.75,14.01-42.82,35.68-51.14,23.17-8.89,48.58-2.17,66.31,17.54,18.88,20.97,26.62,42.43,23,63.77-6.18,36.49-43.88,57.58-45.48,58.46-1.72,.94-3.58,1.39-5.41,1.39Z"/><path d="M762.83,246.49c-6.21,0-11.25-5.04-11.25-11.25s5.04-11.25,11.25-11.25c4.18,0,12.33-2.58,17.39-8.33,3.6-4.08,4.97-9.03,4.19-15.11-1.14-8.96-5.52-11.81-12.76-16.53-9.33-6.08-22.1-14.41-22.74-37.07-.73-25.74,18.9-36.27,31.89-43.23,3.04-1.63,10.87-5.83,11.77-7.72-1.67-2.31-9.43-6.15-13.68-8.26-12.18-6.04-27.34-13.55-29.7-29.45-1.16-7.84,.27-22.56,22.93-32.96,10.38-4.77,21.04-6.68,21.49-6.76,6.12-1.08,11.95,3,13.03,9.12,1.08,6.11-3,11.94-9.1,13.03h0c-10.94,1.97-26.92,8.67-26.09,14.27,.63,4.26,10.34,9.07,17.44,12.59,5.81,2.88,11.81,5.85,16.56,9.72,9.15,7.45,10.24,15.66,9.54,21.24-1.66,13.28-13.29,19.52-23.55,25.02-13.85,7.42-20.34,12.09-20.03,22.76,.31,10.88,4.65,13.72,12.54,18.86,8.58,5.6,20.33,13.26,22.79,32.54,1.6,12.51-1.73,23.86-9.62,32.83-9.71,11.02-24.21,15.96-34.28,15.96Z"/><path d="M634.4,888.93c-5.91,0-10.87-4.61-11.22-10.59-.36-6.2,4.37-11.53,10.57-11.89,4.34-.26,12.87-4.93,15.17-10.22,.48-1.1,1.21-2.76-1.46-6-2.7-3.29-13.55-1.57-22.28-.19-7.83,1.24-15.93,2.52-23.85,1.91-10.73-.82-19.04-5.11-24.71-12.73-5.55-7.46-7.36-15.94-5.39-25.21,1.47-6.93,4.75-13.12,7.93-19.11,5.93-11.19,7.44-15.59,4.69-19.65-1.88-2.77-3.12-2.84-3.59-2.87-4.54-.26-12.72,6.27-16.63,10.87-4.03,4.73-11.13,5.3-15.86,1.27-4.73-4.03-5.3-11.13-1.27-15.86,.41-.49,4.21-4.88,9.84-9.25,8.67-6.74,17.13-9.94,25.16-9.5,5.86,.32,14.26,2.78,20.99,12.7,10.82,15.94,2.59,31.47-3.42,42.82-6.19,11.67-7.59,16-4.36,20.36,3.89,5.24,13.22,4.2,26.99,2.03,6.99-1.1,14.22-2.25,21.05-1.92,9.57,.45,17.01,3.84,22.12,10.05,7.37,8.96,9.03,19.37,4.69,29.3-6,13.72-22.56,22.97-34.47,23.67-.22,.01-.45,.02-.67,.02Z"/><path d="M935.4,598.96c-1.93,0-3.88-.5-5.66-1.54-5.37-3.13-7.18-10.02-4.04-15.39l19.04-32.62-37.35-15.81c-5.69-2.41-8.37-8.95-6.01-14.66l16.82-40.65-36.1-15.07c-2.81-1.17-5.02-3.43-6.13-6.26-1.12-2.83-1.04-5.99,.21-8.76l30.65-67.86c2.56-5.66,9.22-8.18,14.88-5.62,5.66,2.56,8.18,9.22,5.62,14.88l-25.88,57.3,35.77,14.93c5.72,2.39,8.43,8.95,6.06,14.68l-16.84,40.7,38.85,16.45c2.98,1.26,5.27,3.74,6.29,6.81,1.02,3.07,.67,6.43-.96,9.22l-25.49,43.66c-2.09,3.58-5.86,5.58-9.73,5.58Z"/></svg>