<svg xmlns="http://www.w3.org/2000/svg" width="684.045" height="685.262" viewBox="0 0 684.045 685.262"><g transform="translate(0)"><path d="M113.295,209.345c-1.535-4.427,1.642-8.569,3.928-12.176,1.821-2.821,6.106-4.07,9.355-5.963a18.648,18.648,0,0,1,2.107-.893c-.75-.286-1.464-.607-2.214-.821a15.353,15.353,0,0,1-11.747-9.141c0-.321-1.321-5.891-3.785,0a19.352,19.352,0,0,1-11.212,9.426c-.643.25-1.214.678-1.857,1,.786.25,1.75.25,2.249.75,4,3.571,9.569,6.284,9.676,12.89,4.5,3.856.964,8.212-.357,11.319a19.317,19.317,0,0,1-15.925,11.6,17.21,17.21,0,0,1-14.5-6.82,13.961,13.961,0,0,1-4.142-8.034,16.6,16.6,0,0,1-.786-7.141,26.386,26.386,0,0,1,6.177-10.712,19.352,19.352,0,0,1,4.57-3.356c3.285-1.892,3.178-1.642.714-3.571a37.814,37.814,0,0,1-7.962-7.355c-3.321-4.82-3.571-15.675,1.285-20.781,4.07-4.213,8.069-7.784,14.782-8,8.5-.25,13.318,4.32,17.853,10.247.928,1.214,2.178,1.357,2.821,0a15.889,15.889,0,0,1,12.783-10.033c.5,0,.928-.5,1.393-.75a4.463,4.463,0,0,0-1.178-.893,16.746,16.746,0,0,1-11.176-9.89c-.464-1.25-.857-2.535-1.285-3.785l-.536-1.464a4.928,4.928,0,0,0-1.143,1.464,30.028,30.028,0,0,1-7.141,9.855c-4.677,5.213-18.1,4.892-23.494,0a20.316,20.316,0,0,1-7-19.531,20.709,20.709,0,0,1,15.211-14.282c11.069-1.5,17.853,4.213,22.387,13.282a22.55,22.55,0,0,1,.893,2.142c.286-.75.607-1.464.821-2.214a15.353,15.353,0,0,1,9.141-11.783c.286,0,6.248-1.821,0-3.571-2.642-.786-4.82-3.963-6.677-6.463a16.389,16.389,0,0,1-1.5-17.21c5.606-11.569,14.639-15.353,25.672-10.033,11.818,5.641,13.5,15.6,8.926,25.458a26.494,26.494,0,0,1-8.569,8.391c-1.464,1.107-1.25,1.5-.214,2.107a22.459,22.459,0,0,1,10.247,10.176c.357.821,1.143,2.606,2.464,0a14.282,14.282,0,0,1,12.14-8.605c.464,0,.928-.5,1.393-.786a11.929,11.929,0,0,0-1.143-1.178c-2.357-1.857-4.749-3.571-7.141-5.463-6.713-5.034-6-12.354-5.142-19.138.714-5.749,10.712-12.354,16.639-12.89,10.89-.964,16.782,5.07,20.816,14.032.214.5.536.928.786,1.393.321-.393.821-.75.893-1.178,1.393-8.284,7.962-11.354,14.568-14,3.82-1.535,7.605.786,10.712,2.321a21.423,21.423,0,0,1,10.462,14.282c1.143,3.82-1.178,7.427-2.714,10.712-2.642,5.606-8.141,8.141-13.6,10.033a12.64,12.64,0,0,1-10.712-2.535c-4-2.678-8.748-5.463-8.819-11.461,0-.428-.571-.821-.893-1.214-.25.464-.571.893-.786,1.393-3.106,7.141-7.427,12.675-15.675,14a4.82,4.82,0,0,0-1.392.75,7.855,7.855,0,0,0,2.035.893,17.174,17.174,0,0,1,12.6,10.533,24.316,24.316,0,0,1,1.25,4.606c.964-1.678,2-3.285,2.892-5.035a19.388,19.388,0,0,1,25.458-8.462,15.96,15.96,0,0,1,10.462,16.317,15.853,15.853,0,0,1-.928,8.141c-3.856,7.962-3.606,7.962-14.532,11.533a7.929,7.929,0,0,0-1.392.821,5.569,5.569,0,0,0,1.25.857,37.779,37.779,0,0,1,6.106,1.821,15.925,15.925,0,0,1,9.64,15.282,26.352,26.352,0,0,1-.821,9.034c-2.321,6.677-7.141,9.391-13.1,11.6a13.751,13.751,0,0,0-1.357.821c.428.286.821.75,1.285.857A17.567,17.567,0,0,1,226.3,202.954c4.57,8.462-1.143,19.138-6.356,22.459-11.854,7.534-22.637,2.178-27.993-7.641a9.677,9.677,0,0,1-.643-2.321,11.71,11.71,0,0,0-2.392,1.964,12.423,12.423,0,0,0-1.25,2.892c-2.357,6.141-7.855,7.677-13.425,8.462a20.388,20.388,0,0,1-9.819-.964c-8.069-3-9.212-4.749-11.926-14.282,0-.5-.428-.964-.607-1.428-.393.536-1,1.035-1.071,1.642a16.817,16.817,0,0,1-12.533,14.711C126.72,231.161,112.938,226.769,113.295,209.345Zm38.633-1.035a10.7,10.7,0,0,0,.786-1.393c3.571-10.5,3.571-10.712,12.283-15.1.678-.357,1.571-.321,2.249-.643s.428-.75.5-1.178-.393-.464-.607-.464c-7.82-.678-11.854-5.713-14.282-12.461a7.139,7.139,0,0,0-.893-1.25,10.964,10.964,0,0,0-.821,1.393,17.174,17.174,0,0,1-13.711,12.283,6.645,6.645,0,0,0-1.464.607,7.427,7.427,0,0,0,1.607,1.071,20.781,20.781,0,0,1,13.247,12.6,19.673,19.673,0,0,1,.357,3.285c-.214.464.286.821.607,1.25ZM191.2,136.434c-.321.357-.893.714-.928,1.071a14.853,14.853,0,0,1-9.141,12.6c-1.892.928-1.821,2.249.25,3.356a16.71,16.71,0,0,1,8.784,11.176l.607,2.321c.786-.643,2.178-1.178,2.321-1.928,1.178-6.463,6.427-8.748,11.426-11.212.893-.464,2.178,0,3.285-.357.393,0,.75-.607,1.107-.928a10.459,10.459,0,0,0-1.393-.75c-10.14-3.213-10.14-3.213-14.532-11.747l-1.107-2.107a5.089,5.089,0,0,0-.643-1.5ZM190.847,176c-.214.536-.393,1.035-.607,1.5-2.821,6.213-6.57,11.247-14.068,12.033-.464,0-.893.536-1.357.821a14.277,14.277,0,0,0,1.357.857c5.249,2.392,11.212,3.928,12.426,11,.179.928,1.464,1.642,2.249,2.464a21.777,21.777,0,0,0,1.785-3.035,14.818,14.818,0,0,1,9.962-8.748,2.285,2.285,0,0,0,1.25-1.678,2.142,2.142,0,0,0-1.25-1.642,10.962,10.962,0,0,1-8.962-9.212,16.355,16.355,0,0,0-1.714-3.57c-.071-.321-.643-.536-1.035-.786Zm-28.029-23.923c0-.5,0-1.393-.393-1.464a18.424,18.424,0,0,1-9.5-9.533c-.428-.75-1.214-2.107-2.107,0a15.068,15.068,0,0,1-11.569,9.069,9.286,9.286,0,0,0-2.035.893,11.39,11.39,0,0,1,2.178.821,48.733,48.733,0,0,1,5.392,3.356,20.924,20.924,0,0,1,6.605,10c2.464-3.285,3.571-7.57,7.141-9.926,1.107-.714,2.357-1.143,3.571-1.857a5.393,5.393,0,0,0,.75-1.357Z" transform="translate(190.201 190.986)"/><path d="M92.431,111.038A25.815,25.815,0,0,1,79.077,103.9c-3.571-3.356-1.821-8-4.677-11.033,2.178-2.428.75-6.07,2.464-8.355a36.456,36.456,0,0,1,8.5-8.391,26.35,26.35,0,0,1,8.462-2.178c1.892,3.571,6,.25,8.284,2.785a45.383,45.383,0,0,1,7.962,8.712,21.067,21.067,0,0,1,1.821,7.712,14.46,14.46,0,0,1-2.607,8.212,33.6,33.6,0,0,1-8.427,8.5A23.1,23.1,0,0,1,92.431,111.038Z" transform="translate(191.249 190.067)"/><path d="M130.243,135.724a17,17,0,0,1-17.424,17.032,16.71,16.71,0,0,1-16.782-17.6,16.425,16.425,0,0,1,16.924-16.567,16.853,16.853,0,0,1,17.281,17.139Z" transform="translate(246.807 304.811)"/><path d="M152.785,102.861a16.889,16.889,0,0,1-17.174,17.246,16.425,16.425,0,0,1-17-16.5,16.6,16.6,0,0,1,16.639-17.674,16.96,16.96,0,0,1,17.531,16.924Z" transform="translate(304.816 220.881)"/><path d="M85.441,135.09a17,17,0,0,1,17.46-17,16.71,16.71,0,0,1,16.674,17.531,16.425,16.425,0,0,1-16.96,16.532A16.853,16.853,0,0,1,85.441,135.09Z" transform="translate(219.626 303.552)"/><path d="M135.2,131.147a17,17,0,0,1-17.1-17.353,16.782,16.782,0,0,1,17.531-16.782,16.5,16.5,0,0,1,16.639,16.853A16.889,16.889,0,0,1,135.2,131.147Z" transform="translate(303.553 249.332)"/><path d="M103.392,63.84a18.638,18.638,0,0,1,16.817,17.853,17.155,17.155,0,1,1-34.277-1.5,18.817,18.817,0,0,1,17.46-16.353Z" transform="translate(220.849 164.104)"/><path d="M114.063,63.84a18.817,18.817,0,0,1,17.174,16.675,17.139,17.139,0,1,1-34.277,0A18.888,18.888,0,0,1,114.063,63.84Z" transform="translate(249.24 164.104)"/><path d="M80.73,85A17.14,17.14,0,1,1,63.841,102.39,17.14,17.14,0,0,1,80.73,85Z" transform="translate(164.102 218.496)"/><path d="M97.532,113.532A18.674,18.674,0,0,1,79.68,130.278,17.174,17.174,0,0,1,81.322,96a18.745,18.745,0,0,1,16.21,17.531Z" transform="translate(164.689 246.773)"/><path d="M119,91.194c0-10.712,4.963-15.389,15.71-15.353s15.175,5,15.139,15.925c0,10-5.07,14.925-15.282,14.925S119,101.727,119,91.194Z" transform="translate(305.895 194.951)"/><path d="M138.37,134.679c0,10.5-4.963,15.246-15.853,15.211s-15.032-5.07-15-16.068c0-9.819,5.213-14.782,15.425-14.782S138.405,124.039,138.37,134.679Z" transform="translate(276.385 305.999)"/><path d="M105.73,134.128c0,10.712-4.927,15.318-15.782,15.282s-15.1-5-15.068-16q0-14.853,15.353-14.853C100.767,118.56,105.73,123.7,105.73,134.128Z" transform="translate(192.482 304.765)"/><path d="M118.56,123.691c0-10.5,4.963-15.246,15.853-15.211s15.032,5.07,15,16.068c0,9.819-5.213,14.782-15.425,14.782S118.524,134.331,118.56,123.691Z" transform="translate(304.764 278.854)"/><path d="M107.163,80.13c1.785,5-2.285,8.355-4.606,11a16.032,16.032,0,0,1-11.783,4.356,14.568,14.568,0,0,1-10.712-4.677A15.817,15.817,0,0,1,75.849,78.88a16.139,16.139,0,0,1,4.82-10.712A11.6,11.6,0,0,1,91.81,64.6c2.107.536,4.784,0,6.427.928A18.567,18.567,0,0,1,106.02,73.2a34.277,34.277,0,0,1,1.143,6.927Z" transform="translate(194.869 165.346)"/><path d="M109,80.592c-2.035-5.106,1.428-8.891,4.178-11.711a16.746,16.746,0,0,1,22.173,0,16.924,16.924,0,0,1,4.535,11.783,15.318,15.318,0,0,1-15.5,15.425,16.567,16.567,0,0,1-11.14-4C110.572,89.411,107,85.733,109,80.592Z" transform="translate(278.618 166.276)"/><path d="M80.454,108.175c4.927-2.5,8.248,1.571,10.926,3.892a16.174,16.174,0,0,1,4.356,11.783,14.282,14.282,0,0,1-4.677,10.712,15.817,15.817,0,0,1-11.926,4.213,15.211,15.211,0,0,1-14.889-15.96,14.675,14.675,0,0,1,4.356-11C71.349,109.246,75.348,106,80.454,108.175Z" transform="translate(165.093 276.053)"/><path d="M95.6,90.248c1.357,4.856-1.285,7.855-4.392,10.962a14.5,14.5,0,0,1-21.745,0,14.282,14.282,0,0,1-4.713-10.962A12.711,12.711,0,0,1,69.247,80a13.318,13.318,0,0,1,10.712-5.177A14.461,14.461,0,0,1,90.92,79.465C93.92,82.607,97.2,85.356,95.6,90.248Z" transform="translate(166.409 192.326)"/><path d="M157.49,22.07A27.493,27.493,0,0,1,167.1,26a18.138,18.138,0,0,1,5.356,11.462,44.135,44.135,0,0,1-3.57,9.6,15.1,15.1,0,0,1-11.247,5.749c-7.927.964-15.71-6.534-16.1-14.782a16.21,16.21,0,0,1,15.96-15.96Z" transform="translate(363.809 56.732)"/><path d="M63.861,46.131c-1.535,3.785-1.678,7.855-5.034,10.712a16,16,0,0,1-10.926,4.5,15.353,15.353,0,0,1,0-30.671,16.067,16.067,0,0,1,10.926,4.749C62.147,38.454,62.29,42.56,63.861,46.131Z" transform="translate(85.566 78.839)"/><path d="M52.923,56.066a16.246,16.246,0,0,1-15.889,15.96C28.75,71.67,21.216,63.957,22.18,55.995a15.155,15.155,0,0,1,25.994-10.1,22.1,22.1,0,0,1,4.749,10.176Z" transform="translate(56.8 106.215)"/><path d="M194.013,60.049a26.065,26.065,0,0,1-3.963,9.6,15.568,15.568,0,0,1-11.461,5.213,14.282,14.282,0,0,1-9.64-3.356,16.46,16.46,0,0,1-5.713-11.247,15.675,15.675,0,0,1,14.853-16.1,16.21,16.21,0,0,1,15.925,15.889Z" transform="translate(419.585 113.516)"/><path d="M50.9,155.16a22.1,22.1,0,0,1-4.606,10.176,15.155,15.155,0,0,1-25.994-10.1c-.964-7.962,6.57-15.675,14.853-16.032A16.246,16.246,0,0,1,50.9,155.16Z" transform="translate(51.968 357.821)"/><path d="M74.973,36.049a26.065,26.065,0,0,1-3.963,9.6,15.567,15.567,0,0,1-11.461,5.213,14.282,14.282,0,0,1-9.64-3.356,16.46,16.46,0,0,1-5.713-11.247,15.675,15.675,0,0,1,14.853-16.1A16.21,16.21,0,0,1,74.973,36.049Z" transform="translate(113.588 51.822)"/><path d="M154.471,194.474c-3.749-1.571-7.82-1.678-10.712-5.034a16.068,16.068,0,0,1-4.5-10.926,15.353,15.353,0,1,1,30.707,0,16.246,16.246,0,0,1-4.463,10.926C162.29,192.76,158.22,192.9,154.471,194.474Z" transform="translate(357.974 419.412)"/><path d="M72.02,177.24a22.1,22.1,0,0,1-4.606,10.176,15.155,15.155,0,0,1-25.994-10.1c-.964-7.962,6.57-15.675,14.853-16.032A16.246,16.246,0,0,1,72.02,177.24Z" transform="translate(106.258 414.579)"/><path d="M25.6,62.886c6.677-.321,15.639,8.319,15.818,15.246,0,6.32-7.962,15-14.6,15.6S11.037,85.809,10.573,78.918,18.714,63.315,25.6,62.886Z" transform="translate(27.132 161.63)"/><path d="M188.6,96.619c-6.855,0-15.568-9.034-15.318-15.746s9.319-15.5,15.96-15.1,14.782,8.926,14.889,15.318S195.493,96.726,188.6,96.619Z" transform="translate(445.42 169.031)"/><path d="M187.641,150.859c-6.855,0-15.568-9.034-15.318-15.746s9.319-15.5,15.96-15.1,14.782,8.926,14.889,15.318S194.533,150.966,187.641,150.859Z" transform="translate(442.953 308.458)"/><path d="M135.462,41.416c-6.855,0-15.639-8.855-15.46-15.6s9.141-15.568,15.818-15.246,14.853,8.748,15.032,15.175S142.282,41.416,135.462,41.416Z" transform="translate(308.463 27.139)"/><path d="M176.672,141.6c6.855,0,15.6,8.784,15.46,15.6s-8.426,14.889-14.961,15.246-15.675-8.284-15.889-15.175S169.816,141.636,176.672,141.6Z" transform="translate(414.575 363.991)"/><path d="M40.472,132.129c.321,6.677-8.319,15.675-15.211,15.853s-15.032-7.927-15.639-14.568S17.513,117.6,24.4,117.133,40.15,125.274,40.472,132.129Z" transform="translate(24.655 301.051)"/><path d="M78.377,172.32c6.855,0,15.6,9.034,15.353,15.71s-9.248,15.5-15.925,15.139-14.818-8.891-14.925-15.282S71.486,172.249,78.377,172.32Z" transform="translate(161.635 442.958)"/><path d="M80.958,40.462c-6.927-.214-15.568-9.212-15.211-15.853s9.533-15.461,16.067-15S96.6,18.682,96.6,25.037,87.778,40.677,80.958,40.462Z" transform="translate(168.98 24.665)"/><path d="M61.583,165.423c.214,6.713-8.534,15.639-15.389,15.675s-15-8.141-15.46-14.746,8.069-15.746,14.961-16.1S61.368,158.531,61.583,165.423Z" transform="translate(78.954 386.193)"/><path d="M167.191,33.08a33.706,33.706,0,0,1,10.5,4.856,16.639,16.639,0,0,1,4.784,10.5,16.282,16.282,0,0,1-4.5,10.712,17.282,17.282,0,0,1-10.712,4.677,14.889,14.889,0,0,1-9.962-4.07,17.174,17.174,0,0,1-5.07-10.426,16.531,16.531,0,0,1,4.213-10.712C159.05,35.829,163.406,34.9,167.191,33.08Z" transform="translate(391.314 85.034)"/><path d="M132.595,204.21a34.491,34.491,0,0,1-10.712-5.035,17.424,17.424,0,0,1-4.713-10.712,15.1,15.1,0,0,1,4.035-10,17.139,17.139,0,0,1,10.39-5.106,15.639,15.639,0,0,1,15.746,14.6,16.6,16.6,0,0,1-4.32,10.712C140.628,201.425,136.272,202.353,132.595,204.21Z" transform="translate(301.191 445.631)"/><path d="M38.437,89.059c1.321,3.856-1.285,6.284-3.571,9.283-3,3.856-6.641,3.571-10.712,3.785a12.783,12.783,0,0,1-9.569-3.963c-3.963-3.071-3.142-6.82-3.571-10.712a11.354,11.354,0,0,1,4.178-9.5,12.033,12.033,0,0,1,9.819-3.571,12.568,12.568,0,0,1,9.712,3.571A11.247,11.247,0,0,1,38.437,89.059Z" transform="translate(28.261 191.051)"/><path d="M165.43,152.937c3.892-1.321,6.284,1.285,9.319,3.571,3.82,3,3.356,6.641,3.749,10.712a12.64,12.64,0,0,1-4.035,9.569c-3.035,4-6.784,3.142-10.712,3.571a11.462,11.462,0,0,1-9.5-4.177,12.033,12.033,0,0,1-3.571-9.819,12.426,12.426,0,0,1,3.749-9.712A11.1,11.1,0,0,1,165.43,152.937Z" transform="translate(387.183 392.216)"/><path d="M134.461,187.7a13.711,13.711,0,1,1-13.711-13.925A13,13,0,0,1,134.461,187.7Z" transform="translate(275.152 446.644)"/><path d="M200.744,123.859a13.714,13.714,0,1,1-13.425-14A13.714,13.714,0,0,1,200.744,123.859Z" transform="translate(445.525 282.399)"/><path d="M201.193,91.928a13.726,13.726,0,1,1-27.422-1.285c0-8.069,5.891-13.1,14.282-13.39C194.444,77.039,202.55,84.18,201.193,91.928Z" transform="translate(446.647 198.572)"/><path d="M187.259,83.113a13.726,13.726,0,1,1,1.285-27.422c8.069,0,13.1,5.891,13.39,14.282C202.113,76.365,194.972,84.47,187.259,83.113Z" transform="translate(447.727 143.118)"/><path d="M38.085,99.094a13.068,13.068,0,0,1-13.854,13.782,13.711,13.711,0,0,1,0-27.422,13.14,13.14,0,0,1,13.854,13.64Z" transform="translate(27.042 219.614)"/><path d="M156.113,188.411a13.032,13.032,0,0,1-14.282,13.354c-7.962,0-13.068-6.034-13.211-14.5A14.282,14.282,0,0,1,142.545,174.2a13.5,13.5,0,0,1,13.568,14.211Z" transform="translate(330.624 447.791)"/><path d="M110.385,157.5a13.711,13.711,0,1,1,14-13.639,13.032,13.032,0,0,1-14,13.639Z" transform="translate(249.24 334.38)"/><path d="M81.181,110.5A13.711,13.711,0,1,1,66.9,97a13.1,13.1,0,0,1,14.282,13.5Z" transform="translate(138.193 249.202)"/><path d="M125.344,68.179a13.714,13.714,0,1,1-13.425-14A13.714,13.714,0,0,1,125.344,68.179Z" transform="translate(251.706 139.271)"/><path d="M91.046,10.574a13.033,13.033,0,0,1,13.711,14.068,13.712,13.712,0,1,1-27.422-.286A13.068,13.068,0,0,1,91.046,10.574Z" transform="translate(198.74 27.131)"/><path d="M77.817,145.981A13.711,13.711,0,1,1,91.742,132.27a13,13,0,0,1-13.925,13.711Z" transform="translate(165.337 304.766)"/><path d="M200.22,145.528a13.711,13.711,0,1,1-13.639-14,13.032,13.032,0,0,1,13.639,14Z" transform="translate(444.192 338.068)"/><path d="M123.65,11.011a13.1,13.1,0,0,1,13.711,13.925,13.711,13.711,0,1,1-27.422,0A13.1,13.1,0,0,1,123.65,11.011Z" transform="translate(282.535 28.265)"/><path d="M144.017,114.741a13.711,13.711,0,1,1,13.5-14.282,13.1,13.1,0,0,1-13.5,14.282Z" transform="translate(334.437 224.462)"/><path d="M145.981,133.461a13.711,13.711,0,1,1-13.711-13.925,13,13,0,0,1,13.711,13.925Z" transform="translate(304.765 307.217)"/><path d="M24.731,107.014A13.033,13.033,0,0,1,38.085,121.3c0,7.962-6.034,13.068-14.5,13.211A14.282,14.282,0,0,1,10.52,120.582a13.5,13.5,0,0,1,14.211-13.568Z" transform="translate(27.042 275.036)"/><path d="M67.665,113.34a13.711,13.711,0,1,1,14-13.64,13.032,13.032,0,0,1-14,13.64Z" transform="translate(139.426 220.864)"/><path d="M133.23,92.742a13.711,13.711,0,1,1,13.711-13.925A13.1,13.1,0,0,1,133.23,92.742Z" transform="translate(307.233 167.909)"/><path d="M143.79,125.342A13.711,13.711,0,1,1,157.5,111.417a13.1,13.1,0,0,1-13.711,13.925Z" transform="translate(334.378 251.709)"/><path d="M101.822,187.01A13.711,13.711,0,1,1,87.9,173.3a13.1,13.1,0,0,1,13.925,13.711Z" transform="translate(191.249 445.407)"/><path d="M66.741,172.825a13.711,13.711,0,1,1-13.925,13.711,13,13,0,0,1,13.925-13.711Z" transform="translate(135.709 444.167)"/><path d="M37.609,141.9a13,13,0,0,1-13.5,14.282,13.675,13.675,0,0,1-14.068-12.854A14.282,14.282,0,0,1,23.256,128.65C31.718,128.793,37.5,133.827,37.609,141.9Z" transform="translate(25.803 330.702)"/><path d="M113.393,144.283a13.032,13.032,0,0,1-14.282,13.354c-7.962,0-13.068-6.034-13.211-14.5A14.068,14.068,0,0,1,99.825,130a13.461,13.461,0,0,1,13.568,14.282Z" transform="translate(220.81 334.172)"/><path d="M112.927,10.56a14.532,14.532,0,0,1,13.568,14.068c0,6.82-7.141,13-14.282,13.532-4.32.321-5.963-3.571-9.462-4.213-.286-3.571-4.463-5.142-3.892-9.641A15.318,15.318,0,0,1,112.927,10.56Z" transform="translate(253.983 27.145)"/><path d="M101.6,81.491A15.282,15.282,0,0,1,87.321,67.208a11.461,11.461,0,0,1,4.427-9.176,13.6,13.6,0,0,1,10.1-4.392c4.249,0,5.891,3.892,9.426,4.356.357,3.571,4,5.356,4,9.641s-4.106,6.641-4.642,10.39C107.03,78.063,105.387,83.49,101.6,81.491Z" transform="translate(224.459 137.884)"/><path d="M93.233,77.976c-1.321,3.214-1.785,7.141-4.106,9.319a16.924,16.924,0,0,1-10,4.535A15.353,15.353,0,0,1,69.7,87.9a16.353,16.353,0,0,1-4.249-9.141c-1-4,1.964-7.427,3.928-10.176s5.927-3.285,9.212-4.106c4.035-1,7.355,2.107,10.14,4.07S91.734,74.548,93.233,77.976Z" transform="translate(167.738 165.25)"/><path d="M131.39,24.67c1.5-3.392,2.071-7.605,4.463-9.391s6.141-4.963,10.1-4.106a16.389,16.389,0,0,1,9.248,4.035c1.964,2.749,4.963,6.177,3.963,10.176a16.889,16.889,0,0,1-4.178,9.176,15.853,15.853,0,0,1-9.39,3.963,17.174,17.174,0,0,1-10.033-4.535C133.211,32.133,132.711,27.919,131.39,24.67Z" transform="translate(337.744 28.353)"/><path d="M101.684,10.43c3.571,1.5,7.605,2.071,9.391,4.463s4.963,6.141,4.106,10.1a16.389,16.389,0,0,1-4.035,9.248c-2.749,1.964-6.177,4.963-10.176,3.963a16.889,16.889,0,0,1-9.176-4.32A15.746,15.746,0,0,1,87.83,24.5a17,17,0,0,1,4.535-10C94.221,12.251,98.435,11.751,101.684,10.43Z" transform="translate(225.771 26.811)"/><path d="M25.314,52.62c3.571,1.714,8.105,2.464,9.89,5.106s4.713,5.677,3.749,9.426-1.607,7.5-3.928,9.319-6.141,4.963-10.1,4.106A19.245,19.245,0,0,1,15.6,76.543a21.031,21.031,0,0,1-3.928-9.391c-.964-3.571,2.035-6.891,3.749-9.426S21.743,54.334,25.314,52.62Z" transform="translate(29.53 135.263)"/><path d="M69.4,38.172c-3.571-1.714-8.105-2.464-9.89-5.106s-4.713-5.641-3.571-9.426,1.607-7.5,3.928-9.319S66,9.358,69.968,10.214a19.245,19.245,0,0,1,9.319,4.035,21.423,21.423,0,0,1,3.928,9.391c.964,3.749-2.035,6.891-3.749,9.426S72.967,36.458,69.4,38.172Z" transform="translate(143.123 25.884)"/><path d="M38.479,110.032a32.386,32.386,0,0,1-4.963,9.748,14.6,14.6,0,0,1-9.5,3.571,13.068,13.068,0,0,1-9.212-3.856c-2-2.714-5.034-6.106-4.035-10.14a16.6,16.6,0,0,1,4.142-9.176A16.638,16.638,0,0,1,24.161,96a17.067,17.067,0,0,1,10.033,4.535C36.551,102.248,37.087,106.712,38.479,110.032Z" transform="translate(27.183 246.773)"/><path d="M157.06,122.864c-.25,6.034-8.426,13.711-14.282,13.39s-13.6-8.676-13.175-14.282,8.355-13.033,13.818-12.961C149.49,108.975,157.31,116.973,157.06,122.864Z" transform="translate(333.105 280.216)"/><path d="M120.944,157.831c-3.571-1.892-8.105-2-10.212-6.07-1.321-2.571-3.571-5.677-3.071-7.891.964-3.571,1.821-8.141,5.927-10.212,2.571-1.285,5.784-3.571,7.891-2.928a18.531,18.531,0,0,1,9.819,5.284c2,2.571,1.035,5.963,3.571,8-2.214,2.714-1.785,6.463-4.535,9.283S123.586,155.51,120.944,157.831Z" transform="translate(276.565 335.763)"/><path d="M101.916,143.531c-1.678,2.856-1.964,6.677-5.07,9.5a13.282,13.282,0,0,1-8.641,3.571,14.639,14.639,0,0,1-8.605-3.571,18.96,18.96,0,0,1-4.5-9.5c-.75-2,1.678-5.284,2.964-7.855,2.035-4.142,6.641-4.5,10.247-5.963a7.855,7.855,0,0,1,5.927,1.607,22.565,22.565,0,0,1,5.856,5.891,21.1,21.1,0,0,1,1.821,6.32Z" transform="translate(192.689 333.245)"/><path d="M121.053,187.108a9,9,0,0,1-3.571,8.962,6.677,6.677,0,0,1-5.927,2.285c-3.571-.607-8.034,1.785-10.962-2.392-1.107-1.571-3.178-2.892-3.571-4.535a19.674,19.674,0,0,1,0-10.89c1.571-2.964,4.106-7.141,9.141-6.213a13.069,13.069,0,0,0,4.249,0,8.069,8.069,0,0,1,7.391,2.964,7.891,7.891,0,0,1,2.892,7.391A4.97,4.97,0,0,1,121.053,187.108Z" transform="translate(247.427 447.773)"/><path d="M141.576,76.808c4.677,0,7.677-.179,10.712,2.785a10.712,10.712,0,0,1,2.892,9.141,11.354,11.354,0,0,1-2.749,9.212,10.711,10.711,0,0,1-9.141,2.892,11.354,11.354,0,0,1-9.212-2.749,10.712,10.712,0,0,1-2.892-9.141,11.354,11.354,0,0,1,2.749-9.212A9.64,9.64,0,0,1,141.576,76.808Z" transform="translate(336.877 197.375)"/><path d="M198.274,100.71c0,8.319-3.57,11.64-12.39,11.6s-11.64-3.571-11.6-12.39c0-8.319,3.57-11.64,12.39-11.6C194.7,88.356,198.274,91.855,198.274,100.71Z" transform="translate(447.994 227.031)"/><path d="M120.474,196.69q0,12.068-11.89,12.1T96.48,196.9q0-12.033,11.89-12.1T120.474,196.69Z" transform="translate(248.006 475.039)"/><path d="M85.44,196.8c0-8.069,3.963-12,12-12s12,3.963,12,12-3.963,12-12,12S85.44,204.831,85.44,196.8Z" transform="translate(219.627 475.039)"/><path d="M67.269,75.407c6.677-.786,11.926,5.713,11.819,12.39a12.218,12.218,0,1,1-24.423-.786,11.569,11.569,0,0,1,12.6-11.6Z" transform="translate(140.501 193.671)"/><path d="M79.677,33.224q0,11.926-12.1,11.89t-11.89-12.1q0-11.961,12.1-11.89T79.677,33.224Z" transform="translate(143.125 54.29)"/><path d="M98.167,197.754q-12.176,0-12.247-11.747T97.667,173.76q12.176,0,12.247,11.747T98.167,197.754Z" transform="translate(220.861 446.66)"/><path d="M196.951,99.44c6.677-1.035,12.211,5.534,12.211,12a12.211,12.211,0,1,1-24.422,0C184.7,104.76,190.489,98.4,196.951,99.44Z" transform="translate(474.882 255.33)"/><path d="M185.507,99.36q12.14,0,12.247,11.747t-11.747,12.247q-12.176,0-12.247-11.747T185.507,99.36Z" transform="translate(446.658 255.41)"/><path d="M100.808,66.487q0,11.819-12.247,11.747T76.814,65.987q0-11.819,12.247-11.747T100.808,66.487Z" transform="translate(197.404 139.427)"/><path d="M133.434,66.458q0,12.176-11.747,12.247T109.44,66.958q0-12.14,11.747-12.247T133.434,66.458Z" transform="translate(281.32 140.634)"/><path d="M65.987,108q12.14,0,12.247,11.747T66.487,131.994q-12.176,0-12.247-11.747T65.987,108Z" transform="translate(139.426 277.62)"/><path d="M196.951,88.88c6.677-1.035,12.211,5.534,12.211,12a12.211,12.211,0,1,1-24.422,0C184.7,94.2,190.489,87.845,196.951,88.88Z" transform="translate(474.882 228.185)"/><path d="M175.315,175.4a12.961,12.961,0,0,1-11.783,12.961,7.748,7.748,0,0,1-7.391-2.928c-1.928-2.571-5.5-3.963-4.927-8.284.428-3.071,0-6.106,3.071-8.248s4.142-5.177,8.391-4.749c3.213.321,6.034.321,8.141,3.285S176.565,171.576,175.315,175.4Z" transform="translate(388.545 421.85)"/><path d="M174.345,177.536c-4.249,1.607-6.034-1.892-8.534-4.035a8.855,8.855,0,0,1-3.571-8,13.64,13.64,0,0,1,12.533-11.926c3.82-.286,5.606,1.964,7.784,4.07a9.641,9.641,0,0,1,4,7.855,10.033,10.033,0,0,1-3.57,8C180.379,175.644,178.593,179.143,174.345,177.536Z" transform="translate(416.938 394.717)"/><path d="M46.685,65.1A13.175,13.175,0,0,1,34.259,77.524c-4.142.286-5.82-2.607-8.426-4.57a9.712,9.712,0,0,1-3.285-8.141c-.428-4.285,2.785-5.82,4.785-8.391a9.533,9.533,0,0,1,7.32-3.178c4.249-.5,6.106,2.142,8.569,4.392S47.792,62.1,46.685,65.1Z" transform="translate(57.861 136.709)"/><path d="M123.364,11.976A13.318,13.318,0,0,1,111.51,24.33,13.6,13.6,0,0,1,99.37,13.118a12.011,12.011,0,1,1,23.994-1.143Z" transform="translate(255.399 1.378)"/><path d="M176.183,58.074A13.568,13.568,0,0,1,164.15,45.863,13.39,13.39,0,0,1,176.611,34.08a13.639,13.639,0,0,1,11.6,11.783A13.568,13.568,0,0,1,176.183,58.074Z" transform="translate(421.955 87.605)"/><path d="M12.334,109.423A13.318,13.318,0,0,1,.48,97.069C.73,91,7.335,84.786,13.048,85.5a12.854,12.854,0,0,1,11.39,11.854,13.211,13.211,0,0,1-12.1,12.069Z" transform="translate(1.234 219.639)"/><path d="M144.068,46.554A13.39,13.39,0,0,1,132,34.414,13.5,13.5,0,0,1,143.5,22.56a13.282,13.282,0,0,1,12.5,11.711A13.318,13.318,0,0,1,144.068,46.554Z" transform="translate(339.312 57.992)"/><path d="M45.114,140.76A13.318,13.318,0,0,1,33.26,153.114,13.6,13.6,0,0,1,21.12,141.9,13.425,13.425,0,0,1,32.546,129.12a13.283,13.283,0,0,1,12.568,11.64Z" transform="translate(54.29 331.91)"/><path d="M33.152,151.15c2.535,2.5,6.891,1.285,8.569,4.677,1.25,2.607,3.571,6.07,2.892,7.891-1.25,2.821-.5,7.141-4.285,8.534-2.678,1.071-6.07,3.571-8,2.714-2.785-1.214-6.927-.607-8.426-4.427-.964-2.464-3.285-5.356-2.606-7.141.964-2.857.607-6.82,4.035-8.569C27.9,153.4,30.617,152.293,33.152,151.15Z" transform="translate(54.433 388.54)"/><path d="M74.83,196.211c2.464-2.571,1-6.927,4.463-8.641,2.607-1.285,5.713-3.571,7.891-3.106,2.821.75,6.82.714,8.5,4.106,1.285,2.571,2.214,5.356,3.321,8.034-2.856,1.821-1,5.677-3.82,7.962s-5.927,1.214-8.034,3.571c-2.249-2.107-5.534-1.321-8.069-3.392S77.651,198.282,74.83,196.211Z" transform="translate(192.354 474.018)"/><path d="M24.53,108.1c-2.749,3-1.464,7.141-4.892,9.034-2.571,1.285-5.749,3.571-7.891,3.035-2.821-.857-6.82-.75-8.5-4.142C2,113.42,1.071,110.635,0,107.957c2.856-1.821,1.035-5.641,3.892-7.927s5.963-1.071,8.034-3.571c2.392,2.321,6.106,1.321,8.712,4.035S20.816,106.922,24.53,108.1Z" transform="translate(0 247.956)"/><path d="M100.691,24.173c-2.571-2.464-6.927-1-8.641-4.463C90.765,17.1,88.48,14,88.944,11.819c.75-2.821.714-6.82,4.106-8.5C95.621,2.035,98.406,1.107,101.084,0c1.821,2.856,5.677,1,7.962,3.82s1.214,5.927,3.571,8.034c-2.107,2.249-1.321,5.534-3.571,8.069S102.762,21.423,100.691,24.173Z" transform="translate(228.477)"/><path d="M177.773,35.186c-2.392,2.571-1.178,6.855-4.57,8.569-2.606,1.285-5.82,3.571-7.927,3-2.821-.893-6.784-.821-8.462-4.213-1.285-2.571-2.142-5.356-3.213-8.069,2.749-1.857,1.143-5.641,3.928-7.891s5.963-1.107,8.069-3.571c2.321,2.428,6.748.714,8.5,4.249C175.38,30.115,176.451,32.615,177.773,35.186Z" transform="translate(394.836 59.149)"/><path d="M55.853,174.242c-2.464,2.535-1.214,6.855-4.642,8.534-2.571,1.285-5.891,3.571-7.891,2.964-2.821-1.035-6.855-.75-8.5-4.249-1.214-2.642-2.107-5.391-3.142-8.105,2.714-2.107.821-6.855,4.749-8.319,2.464-.928,5.427-3.356,7.141-2.642,2.856,1.107,6.82.536,8.569,3.963C53.532,168.993,54.674,171.671,55.853,174.242Z" transform="translate(81.435 417.185)"/><path d="M130.828,196.714a24.994,24.994,0,0,1-3.571,7.855,14.568,14.568,0,0,1-8.319,4.213,12,12,0,0,1-7.784-3.392,12.319,12.319,0,0,1-4.035-7.534A12,12,0,0,1,110.4,190a14.031,14.031,0,0,1,7.891-4.642,11.532,11.532,0,0,1,7.819,3.285,32.6,32.6,0,0,1,4.713,8.07Z" transform="translate(275.357 476.478)"/><path d="M175.156,55.67a25.387,25.387,0,0,1,7.82,3.571,14.5,14.5,0,0,1,4.285,8.248,11.176,11.176,0,0,1-3.356,7.784,14.282,14.282,0,0,1-8.5,4.142,12,12,0,0,1-7.748-3.571,12.425,12.425,0,0,1-3.928-7.57,12.1,12.1,0,0,1,3.285-7.855,33.1,33.1,0,0,1,8.141-4.749Z" transform="translate(420.875 143.103)"/><path d="M64.453,183.467a9.176,9.176,0,0,1-10.712-9.783c.321-7.534,2.749-10.319,9.64-10.89a9.533,9.533,0,0,1,11.14,10.319C74.129,180.29,71.523,183.4,64.453,183.467Z" transform="translate(138.068 418.1)"/><path d="M74.566,151.313c-3.214.964-4.606-1.964-6.82-3.571-2.892-2.071-2-4.927-2.428-7.605-.571-3.571,2.035-4.856,3.571-7.141,2.071-2.892,4.927-2,7.605-2.428,3.571-.571,4.856,2.035,7.141,3.571,2.892,2.071,2,4.927,2.428,7.605.571,3.571-2.035,4.856-3.571,7.141C80.35,151.848,77.565,151.241,74.566,151.313Z" transform="translate(167.696 335.425)"/><path d="M141.087,141.525a10.283,10.283,0,1,1,10.033-10.712,9.676,9.676,0,0,1-10.033,10.712Z" transform="translate(335.617 310.936)"/><path d="M131.156,55.69a10.283,10.283,0,1,1-10.14,10.283,9.64,9.64,0,0,1,10.14-10.283Z" transform="translate(311.02 143.118)"/><path d="M141.718,66.732a10.283,10.283,0,1,1-10.176,10.39,9.64,9.64,0,0,1,10.176-10.39Z" transform="translate(338.056 171.496)"/><path d="M172.967,153.046A10.283,10.283,0,1,1,183.286,142.8a9.64,9.64,0,0,1-10.319,10.247Z" transform="translate(418.279 340.547)"/><path d="M205.8,120.941a10.283,10.283,0,1,1-10.533-10.033A9.676,9.676,0,0,1,205.8,120.941Z" transform="translate(476.17 284.995)"/><path d="M44.962,21.622a9.64,9.64,0,0,1,10.176,10.39A10.284,10.284,0,1,1,34.572,31.8a9.64,9.64,0,0,1,10.39-10.176Z" transform="translate(88.826 55.502)"/><path d="M65.388,119.561a10.283,10.283,0,1,1-10.712,10.033,9.676,9.676,0,0,1,10.712-10.033Z" transform="translate(140.525 307.192)"/><path d="M140.307,164.2a10.283,10.283,0,1,1-10.712,9.891,9.712,9.712,0,0,1,10.712-9.891Z" transform="translate(333.112 421.945)"/><path d="M129.423,152.08a10.283,10.283,0,1,1,10.712-10.033,9.676,9.676,0,0,1-10.712,10.033Z" transform="translate(307.362 338.086)"/><path d="M196.06,78.257A10.283,10.283,0,1,1,185.777,88.54,9.64,9.64,0,0,1,196.06,78.257Z" transform="translate(477.488 201.104)"/><path d="M33.594,52.883A9.676,9.676,0,0,1,23.561,42.171,9.676,9.676,0,0,1,34.094,32.138,9.676,9.676,0,0,1,44.127,42.85,9.676,9.676,0,0,1,33.594,52.883Z" transform="translate(60.418 82.513)"/><path d="M20.974,117.248a10.24,10.24,0,1,1-10.64-9.64,10.212,10.212,0,0,1,10.64,9.64Z" transform="translate(1.306 276.585)"/><path d="M76.174,75.008a10.24,10.24,0,1,1-10.64-9.64A10.212,10.212,0,0,1,76.174,75.008Z" transform="translate(143.2 168.004)"/><path d="M98.87,10.957a10.283,10.283,0,0,1-10.712,9.926,9.855,9.855,0,0,1-9.926-10.426A9.855,9.855,0,0,1,88.836.531,10.14,10.14,0,0,1,98.87,10.957Z" transform="translate(201.056 1.29)"/><path d="M120.608,1.009a10.24,10.24,0,1,1-9.64,10.64,10.212,10.212,0,0,1,9.64-10.64Z" transform="translate(285.221 2.562)"/><path d="M87.286,65A10.283,10.283,0,1,1,77,54.72,10.712,10.712,0,0,1,87.286,65Z" transform="translate(171.507 140.661)"/><path d="M21.643,85.238c0,3.571-7.141,10.5-10.712,10.212S.505,87.916.934,84.738a16.389,16.389,0,0,1,10.283-9.855C14.609,74.669,21.75,81.775,21.643,85.238Z" transform="translate(2.351 192.48)"/><path d="M107.087,151.1c-.357,4.106-6.748,10.712-10,10.712a11.89,11.89,0,0,1-5.677-2.678c-5.784-4.463-5.784-10.069-.214-14.782a7.141,7.141,0,0,1,11.1,0,42.349,42.349,0,0,1,4.785,6.748Z" transform="translate(223.759 364.242)"/><path d="M151.888,119.936c-3.571,0-10.533-7.141-10.283-10.5s7.427-10.426,10.712-10.069a16.389,16.389,0,0,1,9.855,10.069C162.421,112.795,155.423,119.936,151.888,119.936Z" transform="translate(363.984 255.401)"/><path d="M142.081,98.538c0-3.571,7.141-10.5,10.712-10.212s10.39,7.534,10,10.712a16.389,16.389,0,0,1-10.283,9.855C149.115,109.107,141.974,102,142.081,98.538Z" transform="translate(365.222 227.025)"/><path d="M150.169,175.21a25.89,25.89,0,0,1,4.82,2.142,9.176,9.176,0,0,1,.357,15.96,7.355,7.355,0,0,1-10,0,9.212,9.212,0,0,1,.321-16A29.312,29.312,0,0,1,150.169,175.21Z" transform="translate(362.098 450.387)"/><path d="M117.647,151.513c-.357,4.106-6.748,10.89-10,10.712a11.89,11.89,0,0,1-5.677-2.678c-5.784-4.463-5.784-10.069-.214-14.782a7.141,7.141,0,0,1,11.1.179A42.348,42.348,0,0,1,117.647,151.513Z" transform="translate(250.904 365.539)"/><path d="M183.1,161.139c-6.32,0-8.784-2.178-8.855-8.069s2.178-8.962,7.855-9.069c6.891,0,9.283,2.035,9.283,8.5S189.095,161.1,183.1,161.139Z" transform="translate(447.891 370.16)"/><path d="M97.369,61.78c-6.141,0-8.534-2.357-8.569-8.355,0-6.57,2.285-8.855,9-8.784,5.891,0,8.177,2.5,8.141,8.784S103.511,61.78,97.369,61.78Z" transform="translate(228.264 114.748)"/><path d="M108.338,61.779c-6.07,0-8.462-2.392-8.5-8.427s2.285-8.641,8.212-8.712c6.641,0,8.962,2.249,8.926,8.855C116.943,59.494,114.694,61.779,108.338,61.779Z" transform="translate(256.643 114.75)"/><path d="M61.779,95.751c0,6.248-2.249,8.676-8.177,8.748-6.677,0-9-2.249-8.962-8.819,0-6,2.428-8.319,8.605-8.319S61.743,89.645,61.779,95.751Z" transform="translate(114.749 224.564)"/><path d="M192.82,54.614c0,6.177-2.321,8.569-8.319,8.605-6.606,0-8.891-2.285-8.819-8.962,0-5.927,2.5-8.212,8.748-8.177S192.82,48.508,192.82,54.614Z" transform="translate(451.592 118.451)"/><path d="M53.245,115.06c-6.177,0-8.569-2.321-8.605-8.319,0-6.57,2.285-8.891,8.962-8.819,5.927,0,8.212,2.5,8.177,8.748S59.351,115.06,53.245,115.06Z" transform="translate(114.749 251.708)"/><path d="M43.3,60.8a8.605,8.605,0,0,1-8.712-8.177,8.105,8.105,0,0,1,7.927-8.891,8.319,8.319,0,0,1,9.176,8.534A8.5,8.5,0,0,1,43.3,60.8Z" transform="translate(88.81 112.301)"/><path d="M60.345,183.312a10.354,10.354,0,0,1-8.962,8.034,8.578,8.578,0,0,1,.786-17.139,10.355,10.355,0,0,1,8.177,9.1Z" transform="translate(111.041 447.784)"/><path d="M151.035,127.533a8.569,8.569,0,1,1,8.177-8.962,10.355,10.355,0,0,1-8.177,8.962Z" transform="translate(365.23 283.795)"/><path d="M152.319,30.1A10.247,10.247,0,0,1,144,21.282a8.573,8.573,0,1,1,17.139.5A10.248,10.248,0,0,1,152.319,30.1Z" transform="translate(370.158 33.312)"/><path d="M62.739,41.689a10.319,10.319,0,0,1-8.569,8.569A10.319,10.319,0,0,1,45.6,41.689a10.319,10.319,0,0,1,8.569-8.569,10.319,10.319,0,0,1,8.569,8.569Z" transform="translate(117.217 85.137)"/><path d="M126.1,151.169a8.569,8.569,0,1,1-8.569-8.569,10.319,10.319,0,0,1,8.569,8.569Z" transform="translate(280.087 366.561)"/><path d="M84.889,159.219a8.569,8.569,0,1,1,8.569-8.569,8.569,8.569,0,0,1-8.569,8.569Z" transform="translate(196.184 365.225)"/><path d="M151.022,95.339a10.319,10.319,0,0,1-8.462-8.676,8.57,8.57,0,0,1,17.139.214A10.319,10.319,0,0,1,151.022,95.339Z" transform="translate(366.457 201.017)"/><path d="M203.341,76.588c0,2.678-5.57,8.569-8.426,8.712s-8.569-5.57-8.712-8.426,5.57-8.569,8.427-8.712S203.341,73.732,203.341,76.588Z" transform="translate(478.634 175.207)"/><path d="M52.38,109.006c2.642-.25,8.641,5.213,8.926,8.212s-5.213,8.641-8.212,8.926-8.641-5.213-8.926-8.212S49.381,109.006,52.38,109.006Z" transform="translate(113.508 280.185)"/><path d="M62.263,85.143c-.214,3-6.106,8.534-8.819,8.319s-8.534-6.106-8.319-8.819,6.106-8.534,8.819-8.319S62.548,82.323,62.263,85.143Z" transform="translate(115.979 196.181)"/><path d="M128.021,53.548c0,2.678-5.57,8.569-8.426,8.712s-8.569-5.57-8.712-8.427,5.57-8.569,8.426-8.712S127.878,50.692,128.021,53.548Z" transform="translate(285.02 115.982)"/><path d="M127.364,186.244c2.714-.214,8.569,5.32,8.819,8.319s-5.32,8.605-8.319,8.819-8.605-5.32-8.819-8.319S124.364,186.494,127.364,186.244Z" transform="translate(305.993 478.736)"/><path d="M160.663,43.353c-.214,3-6.106,8.534-8.819,8.319s-8.534-6.106-8.319-8.819,6.106-8.534,8.819-8.319S160.877,40.747,160.663,43.353Z" transform="translate(368.92 88.757)"/><path d="M202.419,130.969a13.461,13.461,0,0,1-8.569,8.569,13.461,13.461,0,0,1-8.569-8.569,13.461,13.461,0,0,1,8.569-8.569,13.461,13.461,0,0,1,8.569,8.569Z" transform="translate(476.271 314.636)"/><path d="M19.962,141.124c3,.25,8.534,6.106,8.319,8.819s-6.106,8.534-8.819,8.319S11,152.157,11,149.444,17.248,140.91,19.962,141.124Z" transform="translate(28.276 362.753)"/><path d="M27.213,50.97c0,5.891-.678,6.463-7.141,6.427s-6.748-.821-6.641-7.712c0-5.32,1.071-6.106,7.5-6C26.713,43.758,27.285,44.436,27.213,50.97Z" transform="translate(34.486 112.275)"/><path d="M154.564,52.508c0-5.891.678-6.463,7.141-6.427s6.748.821,6.641,7.712c0,5.32-1.071,6.106-7.5,6C155.064,59.721,154.492,59.042,154.564,52.508Z" transform="translate(397.3 118.45)"/><path d="M85.577,58.4c-6.82,0-6.82,0-6.855-6.641s.5-7.141,7.141-7.141c5.891,0,6.463.678,6.427,7.141S92.4,58.4,85.577,58.4Z" transform="translate(202.352 114.698)"/><path d="M71.708,199.533c-5.891,0-6.463-.678-6.427-7.141s.821-6.748,7.712-6.641c5.32,0,6.106,1.071,6,7.5C78.921,199.034,78.242,199.6,71.708,199.533Z" transform="translate(167.804 477.444)"/><path d="M139.265,56.769a7.141,7.141,0,0,1,7.141,6.391,6.784,6.784,0,0,1-7.141,7.141,6.855,6.855,0,0,1,0-13.711Z" transform="translate(340.366 145.468)"/><path d="M15.053,126.161A7.141,7.141,0,0,1,8.626,133.3a6.855,6.855,0,0,1-7.141-7.141A7.141,7.141,0,0,1,8.34,119.52a7.141,7.141,0,0,1,6.713,6.641Z" transform="translate(3.8 307.233)"/><path d="M51.3,152.64a6.864,6.864,0,1,1-7.141,6.57A7.141,7.141,0,0,1,51.3,152.64Z" transform="translate(113.485 392.37)"/><path d="M145.261,139.379a7.141,7.141,0,0,1-6.606,6.891,6.915,6.915,0,1,1,6.57-6.784Z" transform="translate(338.048 340.468)"/><path d="M47.313,148.286a7.141,7.141,0,0,1-6.248,7.141,7.141,7.141,0,0,1-7.462-6.855,6.859,6.859,0,1,1,13.711-.428Z" transform="translate(86.368 363.731)"/><path d="M155.264,161.376a7.141,7.141,0,0,1-6.5,7.141,7.006,7.006,0,1,1,6.57-7.141Z" transform="translate(364.036 397.202)"/><path d="M166.407,150.909a7.141,7.141,0,0,1-6.641,6.856,6.9,6.9,0,1,1,6.57-6.713Z" transform="translate(392.312 370.106)"/><path d="M53.355,11.623A7.141,7.141,0,0,1,60.5,18.05a7.006,7.006,0,1,1-7.141-6.57Z" transform="translate(119.53 29.51)"/><path d="M62.426,131.521a6.857,6.857,0,0,1-.286,13.711,6.927,6.927,0,0,1-6.927-7.427,7.141,7.141,0,0,1,7.212-6.284Z" transform="translate(141.881 338.079)"/><path d="M74.7,23a11.783,11.783,0,0,1,7.141,6.248c.321,2.107-4.642,7.677-6.855,7.391a7.605,7.605,0,0,1-4.249-1.785A11.39,11.39,0,0,1,68.2,30.141C67.738,28.463,72.665,23.321,74.7,23Z" transform="translate(175.238 59.123)"/><path d="M63.545,68.874a13.354,13.354,0,0,1-4.427-1.928,10.14,10.14,0,0,1-2.428-4.82c-.464-2.142,5.142-7.141,7.141-6.963a12.033,12.033,0,0,1,6.32,7.141,12.675,12.675,0,0,1-6.605,6.57Z" transform="translate(145.653 141.789)"/><path d="M136.6,8.954a19.176,19.176,0,0,1-2.571,4.785,7.677,7.677,0,0,1-4.249,1.821c-2.178.321-7.141-5.284-6.891-7.391a12.033,12.033,0,0,1,7.141-6.248,12.6,12.6,0,0,1,6.57,7.034Z" transform="translate(315.862 4.935)"/><path d="M36.857,126.783a13.1,13.1,0,0,1-6.713,6.82c-2.321,0-7.32-4.927-7.141-7.141s5.32-6.82,7.141-6.391a11.355,11.355,0,0,1,4.82,2.5A12.6,12.6,0,0,1,36.857,126.783Z" transform="translate(59.119 308.575)"/><path d="M30.556,65.76A12.176,12.176,0,0,1,37.7,72.187a12,12,0,0,1-6.213,7.141c-2.142.321-7.712-4.606-7.427-6.82a7.5,7.5,0,0,1,1.785-4.285A19.425,19.425,0,0,1,30.556,65.76Z" transform="translate(61.814 169.04)"/><path d="M130.477,38.484a22.173,22.173,0,0,1-3.035-1.714c-1.25-1.107-2.321-2.464-3.571-3.571-2.035-1.678-1.857-3.142,0-4.749a21.639,21.639,0,0,0,3-3c1.642-2.035,3.142-1.857,4.749,0a21.635,21.635,0,0,0,3,3c2.035,1.642,1.714,3.035,0,4.749a55.532,55.532,0,0,0-4.142,5.284Z" transform="translate(314.663 61.67)"/><path d="M56.419,71.532c0,3.571-1.5,4.963-5.07,5s-5.463-1.607-5.213-5.713c.214-3.321,1.857-4.713,5.5-4.57S56.419,67.925,56.419,71.532Z" transform="translate(118.538 170.267)"/><path d="M76.548,169.547c0,3.571-1.285,5.213-4.713,5.356s-5.356-1.214-5.57-4.5c-.286-4.106,1.214-5.784,5.142-5.784S76.476,165.977,76.548,169.547Z" transform="translate(170.248 423.165)"/><path d="M130.788,170.547c0,3.571-1.285,5.213-4.713,5.356s-5.356-1.214-5.57-4.5c-.286-4.106,1.214-5.784,5.142-5.784S130.716,166.977,130.788,170.547Z" transform="translate(309.675 425.736)"/><path d="M171.038,68.645c3.571,0,4.892,1.607,4.856,5.213s-1.821,5.356-5.856,5.07c-3.249-.25-4.606-2-4.427-5.641S167.289,68.538,171.038,68.645Z" transform="translate(425.671 176.438)"/><path d="M73.087,45.12c3.571,0,5.213,1.285,5.356,4.713s-1.214,5.356-4.5,5.57c-4.106.286-5.784-1.214-5.784-5.142S69.588,45.191,73.087,45.12Z" transform="translate(175.208 115.983)"/><path d="M7.4,76.059c-3.571,0-4.963-1.5-5-5.07s1.607-5.463,5.713-5.213c3.321.214,4.713,1.857,4.57,5.5S11.005,76.13,7.4,76.059Z" transform="translate(6.169 169.024)"/><path d="M55.433,125.746c0,3.571-1.25,5.284-4.57,5.5s-5.463-1.178-5.713-4.356c-.321-4.035,1.214-5.856,5-5.927S55.433,122.319,55.433,125.746Z" transform="translate(115.953 310.933)"/><path d="M132.69,51.152c0,3.571-1.357,5.106-4.856,5.213-4.178,0-5.57-1.321-5.427-5.5,0-3.571,1.678-4.856,5.284-4.785S132.655,47.582,132.69,51.152Z" transform="translate(314.628 118.449)"/><path d="M131.279,148.715c0,3.571-1.214,5.356-4.5,5.57s-5.5-1.143-5.784-4.285c-.357-4.035,1.178-5.927,4.927-6S131.137,145.287,131.279,148.715Z" transform="translate(310.897 370.158)"/><path d="M76.548,147.967c0,3.571-1.285,5.213-4.713,5.356s-5.356-1.214-5.57-4.5c-.286-4.106,1.214-5.784,5.142-5.784S76.476,144.468,76.548,147.967Z" transform="translate(170.248 367.692)"/><path d="M169.782,133.174c-3.57,0-5.07-1.428-5.142-4.927,0-4.106,1.428-5.534,5.57-5.356,3.571,0,4.785,1.714,4.713,5.356S173.352,133.174,169.782,133.174Z" transform="translate(423.215 315.859)"/><path d="M147.755,122.411c3.571-.179,5.356,1.214,5.57,4.5s-1.143,5.5-4.285,5.784c-4.035.357-5.927-1.178-6-4.927S144.327,122.554,147.755,122.411Z" transform="translate(367.689 314.625)"/><path d="M148.715,68.16c3.57,0,5.356,1.214,5.57,4.5s-1.143,5.5-4.285,5.784c-4.035.357-5.927-1.178-6-4.927S145.287,68.3,148.715,68.16Z" transform="translate(370.157 175.209)"/><path d="M74.192,1.44C77.763,1.44,79.3,2.8,79.405,6.3c0,4.178-1.321,5.57-5.5,5.427-3.571,0-4.856-1.678-4.785-5.284S70.622,1.476,74.192,1.44Z" transform="translate(177.674 3.702)"/><path d="M98.611,38.264c-1.785,1.5-3.356,3.571-4.106,3.285-1.5-.536-2.535-2.321-3.785-3.571,1.178-1.035,2.357-2.785,3.571-2.856S96.754,36.728,98.611,38.264Z" transform="translate(233.2 90.276)"/><path d="M91.716,162.563a21.425,21.425,0,0,1-3.321-4.356c-.536-1.357,2.5-4.213,3.571-3.571s2.821,2.285,2.856,3.571S93.215,160.671,91.716,162.563Z" transform="translate(227.062 397.264)"/><path d="M106.94,157.411a21.926,21.926,0,0,1-3.571,3.785c-1.178.714-4.463-2-3.928-3.321s1.964-3.106,3.142-3.249S105.155,156.162,106.94,157.411Z" transform="translate(255.47 397.453)"/><path d="M194.444,137.514a23.6,23.6,0,0,1-4,3.571c-1.285.643-4.32-2.214-3.571-3.571s2.107-2.964,3.321-3.071S192.552,136.157,194.444,137.514Z" transform="translate(480.068 345.582)"/><path d="M139.244,190.792a23.6,23.6,0,0,1-4,3.571c-1.285.643-4.32-2.214-3.571-3.571s2.107-3,3.321-3.071S137.352,189.435,139.244,190.792Z" transform="translate(338.173 482.543)"/><path d="M104.993,43.075a24.136,24.136,0,0,1-3.571-3.571c-.714-1.214,2.071-4.427,3.571-3.856s3.071,2,3.178,3.214S106.279,41.219,104.993,43.075Z" transform="translate(260.416 91.463)"/><path d="M157.411,90.5a21.923,21.923,0,0,1,3.785,3.571c.714,1.178-2,4.463-3.321,3.928s-3.106-1.964-3.249-3.142S156.162,92.285,157.411,90.5Z" transform="translate(397.451 232.635)"/><path d="M38.916,96.324A21.423,21.423,0,0,1,35.6,91.968c-.536-1.393,2.5-4.213,3.571-3.571s2.821,2.285,2.856,3.571S40.415,94.36,38.916,96.324Z" transform="translate(91.338 226.99)"/><path d="M157.956,109.283a21.425,21.425,0,0,1-3.321-4.356c-.536-1.357,2.5-4.213,3.571-3.571s2.821,2.285,2.856,3.571S159.455,107.462,157.956,109.283Z" transform="translate(397.335 260.305)"/><path d="M42.724,102.511a24.136,24.136,0,0,1-3.749,3.571c-1.214.714-4.427-2.071-3.856-3.571s2-3.071,3.214-3.178S40.867,101.225,42.724,102.511Z" transform="translate(90.1 255.33)"/><path d="M32.2,80.366a23.6,23.6,0,0,1-4,3.571c-1.285.643-4.32-2.214-3.571-3.571s2.142-2.964,3.321-3.035S30.312,79.01,32.2,80.366Z" transform="translate(63.022 198.78)"/><path d="M167.874,174.244a24.135,24.135,0,0,1-3.57-3.749c-.714-1.214,2.071-4.427,3.392-3.856s3.071,2,3.178,3.214S169.159,172.387,167.874,174.244Z" transform="translate(422.052 428.18)"/><path d="M82.56,156.442c-1.214.928-1.857,1.714-2.642,1.892s-1.107-.786-1.678-1.214a8.212,8.212,0,0,1,1.785-2.035C80.347,154.871,81.2,155.692,82.56,156.442Z" transform="translate(201.119 398.566)"/><path d="M115.155,157.52a9.5,9.5,0,0,1-3,1.25c-.428,0-1.357-1.357-1.25-1.535a4.927,4.927,0,0,1,2.071-1.678C113.263,155.449,113.977,156.413,115.155,157.52Z" transform="translate(285.067 399.844)"/><path d="M177.609,156.23c.75,1.357,1.535,2.214,1.357,2.535a8.213,8.213,0,0,1-2.035,1.785c-.428-.571-1.321-1.25-1.214-1.678A21.743,21.743,0,0,1,177.609,156.23Z" transform="translate(451.664 401.598)"/><path d="M159.84,81.555c-1.214.928-1.857,1.714-2.642,1.892s-1.107-.786-1.678-1.214a8.213,8.213,0,0,1,1.785-2.035C157.627,80.02,158.484,80.805,159.84,81.555Z" transform="translate(399.771 206.089)"/><path d="M62.829,36.32c-1.178,1.107-1.892,2.071-2.178,1.964a4.927,4.927,0,0,1-2.071-1.678s.821-1.535,1.25-1.535a9.5,9.5,0,0,1,3,1.25Z" transform="translate(150.582 90.149)"/><path d="M117.065,26.954a9.5,9.5,0,0,1-3,1.25c-.428,0-1.357-1.357-1.25-1.535a4.928,4.928,0,0,1,2.071-1.678C115.208,25.026,115.923,25.847,117.065,26.954Z" transform="translate(289.977 64.238)"/><path d="M27.2,27.8a9.5,9.5,0,0,1-1.25-3c0-.428,1.357-1.357,1.535-1.25a4.927,4.927,0,0,1,1.678,2.071C29.271,25.9,28.307,26.617,27.2,27.8Z" transform="translate(66.706 60.505)"/><path d="M139.155,5.84a9.5,9.5,0,0,1-3,1.25c-.428,0-1.357-1.357-1.25-1.535a4.926,4.926,0,0,1,2.071-1.678C137.263,3.769,137.977,4.733,139.155,5.84Z" transform="translate(346.76 9.942)"/><path d="M60.978,6.72c-.928-1.214-1.714-1.857-1.892-2.642S59.871,2.971,60.3,2.4a8.212,8.212,0,0,1,2.035,1.785C62.406,4.542,61.728,5.364,60.978,6.72Z" transform="translate(151.826 6.169)"/><path d="M24.8,164.39c1.107,1.178,2.071,1.892,1.964,2.178a4.927,4.927,0,0,1-1.678,2.071c-.179,0-1.535-.821-1.535-1.25A9.5,9.5,0,0,1,24.8,164.39Z" transform="translate(60.536 422.574)"/><path d="M39.84,112.809c-1.357.75-2.214,1.535-2.535,1.357a8.212,8.212,0,0,1-1.785-2.035c.571-.428,1.25-1.321,1.678-1.214A15.677,15.677,0,0,1,39.84,112.809Z" transform="translate(91.306 285.094)"/><path d="M79.04,169.875a9.5,9.5,0,0,1-1.25-3c0-.428,1.357-1.357,1.535-1.25A4.927,4.927,0,0,1,81,167.7C81.111,167.983,80.147,168.7,79.04,169.875Z" transform="translate(199.963 425.729)"/><path d="M60.96,145.449c-1.357.75-2.214,1.535-2.535,1.357a8.213,8.213,0,0,1-1.785-2.035c.571-.428,1.25-1.321,1.678-1.214A15.677,15.677,0,0,1,60.96,145.449Z" transform="translate(145.596 368.997)"/><path d="M6.72,133.381c-1.214.928-1.857,1.714-2.642,1.892s-1.107-.786-1.678-1.214a8.213,8.213,0,0,1,1.785-2.035C4.542,131.952,5.364,132.631,6.72,133.381Z" transform="translate(6.169 339.361)"/><path d="M47.36,132.23c1.107,1.178,2.071,1.892,1.964,2.178a4.927,4.927,0,0,1-1.678,2.071s-1.535-.821-1.535-1.25a9.5,9.5,0,0,1,1.25-3Z" transform="translate(118.528 339.905)"/><path d="M8.16,57.075C6.946,58,6.3,58.789,5.518,58.968s-1.107-.786-1.678-1.214a8.212,8.212,0,0,1,1.785-2.035C5.947,55.54,6.8,56.325,8.16,57.075Z" transform="translate(9.871 143.162)"/><path d="M136.8,146.889c-1.357.75-2.214,1.535-2.535,1.357a8.21,8.21,0,0,1-1.785-2.035c.571-.428,1.25-1.321,1.678-1.214A15.674,15.674,0,0,1,136.8,146.889Z" transform="translate(340.546 372.699)"/><path d="M37.28,82.515a9.5,9.5,0,0,1-1.25-3c0-.428,1.357-1.357,1.535-1.25a4.927,4.927,0,0,1,1.678,2.071C39.493,80.623,38.387,81.337,37.28,82.515Z" transform="translate(92.617 201.166)"/><path d="M170.4,82.089c-1.357.75-2.214,1.535-2.535,1.357a8.214,8.214,0,0,1-1.785-2.035c.571-.428,1.25-1.321,1.678-1.214A10.706,10.706,0,0,1,170.4,82.089Z" transform="translate(426.916 206.127)"/><path d="M146.24,57.83c1.107,1.178,2.071,1.892,1.964,2.178a4.927,4.927,0,0,1-1.678,2.071s-1.535-.821-1.535-1.25a9.5,9.5,0,0,1,1.25-3Z" transform="translate(372.703 148.655)"/><path d="M26.378,114.72c-.928-1.214-1.714-1.857-1.892-2.642s.786-1.107,1.214-1.678a8.213,8.213,0,0,1,2.035,1.785C28.056,112.542,27.271,113.364,26.378,114.72Z" transform="translate(62.886 283.789)"/><path d="M138.675,49.06a9.5,9.5,0,0,1-3,1.25c-.428,0-1.357-1.357-1.25-1.535A4.928,4.928,0,0,1,136.5,47.1C136.783,46.846,137.5,47.953,138.675,49.06Z" transform="translate(345.526 120.97)"/><path d="M51.309,57.9c-1.178,1.107-1.892,2.071-2.178,1.964a4.927,4.927,0,0,1-2.071-1.678c0-.179.821-1.535,1.25-1.535a9.5,9.5,0,0,1,3,1.25Z" transform="translate(120.97 145.622)"/><path d="M62.349,47.36c-1.178,1.107-1.892,2.071-2.178,1.964A4.927,4.927,0,0,1,58.1,47.645s.821-1.535,1.25-1.535a9.5,9.5,0,0,1,3,1.25Z" transform="translate(149.349 118.528)"/><path d="M35.36,179.955a9.5,9.5,0,0,1-1.25-3c0-.428,1.357-1.357,1.535-1.25a4.927,4.927,0,0,1,1.678,2.071C37.288,178.063,36.467,178.777,35.36,179.955Z" transform="translate(87.681 451.641)"/><path d="M155.529,177.83c.75,1.357,1.535,2.214,1.357,2.535a8.213,8.213,0,0,1-2.035,1.785c-.428-.571-1.321-1.25-1.214-1.678A15.674,15.674,0,0,1,155.529,177.83Z" transform="translate(394.906 457.122)"/><path d="M17.235,155.6a9.5,9.5,0,0,1-3,1.25c-.428,0-1.357-1.357-1.25-1.535a4.927,4.927,0,0,1,2.071-1.678C15.343,153.529,16.057,154.493,17.235,155.6Z" transform="translate(33.36 394.909)"/><path d="M38.369,55.91c.75,1.357,1.535,2.214,1.357,2.535A8.212,8.212,0,0,1,37.69,60.23c-.428-.571-1.321-1.25-1.214-1.678S37.583,57.124,38.369,55.91Z" transform="translate(93.741 143.72)"/><path d="M156.32,117.065a9.5,9.5,0,0,1-1.25-3c0-.428,1.357-1.357,1.535-1.25a4.927,4.927,0,0,1,1.678,2.071C158.391,115.208,157.427,115.923,156.32,117.065Z" transform="translate(398.614 289.978)"/><path d="M180.018,41.28c-.928-1.214-1.714-1.857-1.892-2.642s.786-1.107,1.214-1.678a8.211,8.211,0,0,1,2.035,1.785C181.553,39.067,180.768,39.924,180.018,41.28Z" transform="translate(457.824 95.008)"/><path d="M117.065,38a9.5,9.5,0,0,1-3,1.25c-.428,0-1.357-1.357-1.25-1.535a4.927,4.927,0,0,1,2.071-1.678C115.208,35.929,115.923,36.893,117.065,38Z" transform="translate(289.977 92.611)"/><path d="M84.48,37.449c-1.357.75-2.214,1.535-2.535,1.357A8.212,8.212,0,0,1,80.16,36.77c.571-.428,1.25-1.321,1.678-1.214A22,22,0,0,1,84.48,37.449Z" transform="translate(206.055 91.377)"/><path d="M59.955,189.2a9.5,9.5,0,0,1-3,1.25c-.428,0-1.357-1.357-1.25-1.535a4.927,4.927,0,0,1,2.071-1.678C58.063,187.129,58.777,188.093,59.955,189.2Z" transform="translate(143.173 481.279)"/><path d="M144.8,134.15c1.107,1.178,2.071,1.892,1.964,2.178a4.927,4.927,0,0,1-1.678,2.071s-1.535-.821-1.535-1.25A9.5,9.5,0,0,1,144.8,134.15Z" transform="translate(369.002 344.84)"/></g></svg>