<svg xmlns="http://www.w3.org/2000/svg" width="714.637" height="715.617" viewBox="0 0 714.637 715.617"><g transform="translate(0 0)"><path d="M151.668,28.817c-1.535,3.356-1.464,7.141-4.392,10.176a54.592,54.592,0,0,1-8.962,6.963c-4.963,3.178-9.462.893-13.854-.607-3.571-1.321-7.641-7.141-9.141-11.354-.25-.786-1.321-1.25-2.035-1.857A8.463,8.463,0,0,0,112,33.887a36.7,36.7,0,0,1-5.034,8.534,19.638,19.638,0,0,1-11.533,5A19.852,19.852,0,0,1,77.758,34.887c-4.963-12.354,5.106-23.1,15.925-24.994A16.781,16.781,0,0,1,108.5,16.32c5.713,6.391,5,6.427,10.712,0a10.712,10.712,0,0,1,9.176-5.034c3.285-3.571,6.5-.821,9.748,0a28.564,28.564,0,0,1,8.105,5.82A26.529,26.529,0,0,1,151.668,28.817Z" transform="translate(196.532 24.426)"/><path d="M28.882,84.38c2.964,1.785,6.641,1.357,9.533,3.856a43.775,43.775,0,0,1,7.605,9.533c3.142,5,.857,9.462-.607,13.854-1.25,3.571-7.141,7.677-11.354,9.176-.75.25-1.25,1.321-1.857,2a6.106,6.106,0,0,0,1.75,1.321,41.132,41.132,0,0,1,8.534,5.106,17.853,17.853,0,0,1-7.5,29.243c-12.318,4.963-23.03-4.963-24.994-15.889a16.889,16.889,0,0,1,6.427-14.853c6.356-5.749,6.427-5.035,0-10.712-2.464-2.178-5.82-4.963-5.142-9.391-3.571-3.285-.893-6.5,0-9.748a29.386,29.386,0,0,1,5.5-8.141C20.348,86.594,24.633,85.915,28.882,84.38Z" transform="translate(24.355 216.909)"/><path d="M210.5,133.481a22.6,22.6,0,0,1-12.568,17c-12.425,4.892-22.887-4.927-24.994-15.853-.928-4.713,3.249-12.426,7.141-15.032,2.178-1.428,3.571-4.535,7.141-3.571a3.035,3.035,0,0,0,.928-1.928c0-.536-.928-1.143-1.571-1.393a40.526,40.526,0,0,1-8.641-5.07A24.564,24.564,0,0,1,172.9,96.062a18.71,18.71,0,0,1,6.391-14.282,24.315,24.315,0,0,1,9.748-5.142c3.856-1.392,7.57.821,10.712,2.321a20.28,20.28,0,0,1,10.426,14.282,13.39,13.39,0,0,1-3.142,11.39c-2.821,3.571-5.284,8.141-11.069,8.034-.321,0-1,1.285-.928,1.892a2.285,2.285,0,0,0,1.571,1.393C206.176,118.128,209.747,127.518,210.5,133.481Z" transform="translate(444.199 195.873)"/><path d="M181.226,193.418c-1.964,2-1,6.141-4.142,8.534a69.838,69.838,0,0,1-8.355,6.748,12.211,12.211,0,0,1-8.534,1.571c-3.571-1.178-7.391-1.785-9.748-5.534-1.857-2.964-5.784-4.606-5.427-8.962a1.674,1.674,0,0,0-1.357-.571c-.393.143-1.607.714-1.714,1.25-1.642,8.569-8.284,12.211-15.5,13.854-5.963,1.357-11.354-2.285-15.282-6.713a14.568,14.568,0,0,1-4.142-7.748,15.639,15.639,0,0,1-.75-7.141,24.065,24.065,0,0,1,6.177-10.712,17.853,17.853,0,0,1,6.248-3.571,15.211,15.211,0,0,1,14.282.786c3.785,3.035,8.676,5.57,8.819,11.569,0,.428,1.143,1.214,1.714,1.178a2.214,2.214,0,0,0,1.607-1.321c2.464-6.963,9.283-13.354,15.675-13.854a21.173,21.173,0,0,1,7.855,1.607C174.728,176.565,181.762,186.812,181.226,193.418Z" transform="translate(272.875 444.147)"/><path d="M159.935,192.127a22.637,22.637,0,0,1-11.961,18.067,18.174,18.174,0,0,1-24.03-11.6,11,11,0,0,0-1.535-2.749c-.25-.393-.786-.607-1.178-.893-.214.464-.643.964-.643,1.428,0,5.713-5.427,7.605-8.605,10.89a12.532,12.532,0,0,1-8.069,2.749,12.1,12.1,0,0,1-8.355-2.071c-3.571-3.57-9.569-5.713-9.283-12.283-3.963-5.749-.75-10.5,2.749-14.5,2.392-2.749,4.285-6.534,8.962-7.141,2.571-.321,5.356-2.714,7.784-1.357s7.141,1.571,9.033,5.142c1.607,2.821,5.463,3.892,5.856,7.855,0,1.357,1.678,2.607,2.535,3.892a13.461,13.461,0,0,1,.857-3.928,23.958,23.958,0,0,1,15.46-11.354c3.82-.964,12.783,3.356,15.318,6.927a35.889,35.889,0,0,1,3.356,5.427,36.635,36.635,0,0,1,1.75,5.5Z" transform="translate(217.078 442.795)"/><path d="M192.476,108.86c2.928,1.821,6.641,1.25,9.533,3.82a47.169,47.169,0,0,1,7.677,9.5,13.14,13.14,0,0,1-.678,13.747c-2.357,4.07-5.356,8.748-11.176,9.319a4.356,4.356,0,0,0-2.107,1.035,8.139,8.139,0,0,0-1.285,1.785,12.387,12.387,0,0,0,1.464.571c10.212,3,16.425,15.818,11.961,24.637-1.607,3.178-11.211,11.069-14.853,11.212a17.067,17.067,0,0,1-9.426-1.75,22.887,22.887,0,0,1-11.533-15.282,12.533,12.533,0,0,1,1.857-9.283c3.571-3.571,5.891-9.248,12.176-9.6.643,0,1.321-.928,1.892-1.5a7.147,7.147,0,0,0,.857-1.178c-.5-.214-.964-.5-1.464-.678a38.026,38.026,0,0,1-8.641-4.963,25.888,25.888,0,0,1-5.07-11.569c-.643-6.32,6.106-15.568,12.5-17.853Z" transform="translate(441.689 279.837)"/><path d="M186.713,59.671a50.452,50.452,0,0,1-9.962-4.356,14.282,14.282,0,0,1-6.927-9.89c-.179-1.357,0-3.106-1.964-2.714-.643,0-1.393,1.535-1.428,2.357,0,3.785-3.571,4.856-5.5,7.141s-4,5.177-7.57,4.106c-3.821,3.178-8.141.643-11.283-.393s-6.534-5.284-9.176-8.569c-1.035-1.25,0-4.106-.893-5.534s-2.5-3.106-.179-4.856c-.714-6.748,4.856-9.569,8.5-13.568,1.178-1.285,9.141-1.892,11.069-1.964,5.427,0,8.5,3.321,11.854,6.713,2.071,2.107,3.892,4.035,3.249,7.141a1.964,1.964,0,0,0,.357,1.535c.714.75,1.607,1.321,2.392,2A18.729,18.729,0,0,0,169.9,36.5a14.568,14.568,0,0,1,6.713-9.962,21.815,21.815,0,0,1,10.069-4.356,17.853,17.853,0,0,1,9.6,3.285,19.388,19.388,0,0,1,7.819,9.462c4.07,10.283-4.32,20.531-11.854,22.959Z" transform="translate(335.801 55.093)"/><path d="M181.389,80.462a11.567,11.567,0,0,0-2.571-1.178,14.282,14.282,0,0,1-10.712-6.82,20.959,20.959,0,0,1-4.356-10.212,16.425,16.425,0,0,1,3.285-9.6,20.888,20.888,0,0,1,9.5-7.82c10.319-3.892,20.6,4.535,22.923,12,1.535,4.927,1.035,6.748-1.321,12.6a18.709,18.709,0,0,1-10.462,9.64c-1.178.607-2.606.607-3.82,1.143-.571.286-.821,1.178-1.214,1.785a5.568,5.568,0,0,0,1.464.536,14.282,14.282,0,0,1,10.712,6.784,21.066,21.066,0,0,1,4.285,10.1,16.389,16.389,0,0,1-3.285,9.569,20.674,20.674,0,0,1-9.5,7.82c-10.319,3.892-20.6-4.535-22.923-12-1.643-5.249-1.25-7.141,1.678-13.282a16.853,16.853,0,0,1,10.962-9A34.279,34.279,0,0,0,181.389,80.462Z" transform="translate(417.534 112.711)"/><path d="M91.864,210.045a30.207,30.207,0,0,1-13.211-6.213,30.993,30.993,0,0,1-5.213-13.175A19.888,19.888,0,0,1,92.328,172.34a25.672,25.672,0,0,1,13.6,6.07c2,1.392,5.284,11.069,5.213,13.175a18.674,18.674,0,0,1-6,12.747A21,21,0,0,1,91.864,210.045Z" transform="translate(188.781 443.015)"/><path d="M187.449,170.854a30.991,30.991,0,0,1-6.141,13.354c-1.321,1.892-11.069,5.213-13.175,5.213a19.959,19.959,0,0,1-18.353-18.888,26.85,26.85,0,0,1,6.034-13.64c1.285-1.928,11.1-5.249,13.175-5.213a18.46,18.46,0,0,1,12.747,6A20.245,20.245,0,0,1,187.449,170.854Z" transform="translate(385.016 389.908)"/><path d="M117.272,9.6a20.174,20.174,0,0,1,12.354,5.677,18.5,18.5,0,0,1,6,12.711c0,2.142-3.214,11.819-5.213,13.175a25.423,25.423,0,0,1-13.6,6.07,18.674,18.674,0,0,1-12.89-5.57,18.674,18.674,0,0,1-6-12.783,40.956,40.956,0,0,1,5.142-13.247A35.991,35.991,0,0,1,117.272,9.6Z" transform="translate(251.708 24.683)"/><path d="M128.643,47.8c-9.89,0-20.1-10.712-19.674-19.424,0-2,4.285-12.14,5.856-12.925,4.213-2.071,8.069-5.392,13.1-5.356,8.962,0,19.174,10.712,18.745,19.352,0,2.035-4.285,12.14-5.856,12.925C136.605,44.51,132.714,47.51,128.643,47.8Z" transform="translate(280.077 25.943)"/><path d="M151.67,52.183c.357-10.033,11-20.245,19.6-19.5a19.71,19.71,0,0,1,12.675,6.106,18.817,18.817,0,0,1,5.463,12.961c-.321,9.034-10.962,19.245-19.567,18.46a19.852,19.852,0,0,1-12.675-6.07A19,19,0,0,1,151.67,52.183Z" transform="translate(389.875 83.932)"/><path d="M29.143,143.821c-10.069-.357-20.245-11-19.5-19.6a19.71,19.71,0,0,1,6.106-12.675,18.817,18.817,0,0,1,13.1-5.463c9.069.321,19.281,10.962,18.5,19.567a19.852,19.852,0,0,1-6.07,12.675,19,19,0,0,1-12.14,5.5Z" transform="translate(24.701 272.69)"/><path d="M28.176,111.145a20.067,20.067,0,0,1-12.033-5.57,19.638,19.638,0,0,1-6.034-12.711c-.607-8.676,9.6-19.281,18.638-19.424a19.316,19.316,0,0,1,12.961,5.57,19.638,19.638,0,0,1,6.034,12.711C48.349,100.433,38.137,110.931,28.176,111.145Z" transform="translate(25.918 188.787)"/><path d="M51,30.24A20.923,20.923,0,0,1,69.925,48.593,19.852,19.852,0,0,1,52.073,67.731c-9.176.75-19.281-8.748-19.352-18.567S41.575,31.49,51,30.24Z" transform="translate(84.108 77.739)"/><path d="M198.2,159.818c-1,9.462-9.176,18.388-18.638,18.638a18.638,18.638,0,0,1,0-37.277C189.02,141.394,197.2,150.356,198.2,159.818Z" transform="translate(413.652 362.917)"/><path d="M67.815,168.673c-1.178,9.426-9.391,18.388-18.852,18.424s-19.317-10.176-18.638-19.245A19.888,19.888,0,0,1,49.391,149.82,20.923,20.923,0,0,1,67.815,168.673Z" transform="translate(77.864 385.127)"/><path d="M91.82,38.569C90.57,48,82.322,56.993,72.9,56.922S53.579,46.745,54.329,37.6c.786-9.962,10.247-18.46,19.138-17.853A20.888,20.888,0,0,1,91.82,38.569Z" transform="translate(139.552 50.701)"/><path d="M190.947,97.92c9.462.928,18.424,9.141,18.71,18.567a18.638,18.638,0,1,1-37.277,0C172.594,107.1,181.414,99.063,190.947,97.92Z" transform="translate(443.111 251.715)"/><path d="M39.533,89.42C30.107,88.17,21.109,79.958,21.18,70.5S31.249,51.179,40.533,51.929c9.926.786,18.424,10.247,17.853,19.138A20.888,20.888,0,0,1,39.533,89.42Z" transform="translate(54.444 133.389)"/><path d="M99.569,191.257a26.244,26.244,0,0,1-7.141,13.39c-3.571,3.57-8.034,1.785-11.069,4.642-2.428-2.142-6.07-.75-8.355-2.464a36.455,36.455,0,0,1-8.462-8.5,26.35,26.35,0,0,1-2.142-8.319c3.571-1.857.25-5.963,2.785-8.284a45.382,45.382,0,0,1,8.712-7.962,21.069,21.069,0,0,1,7.712-1.821,14.461,14.461,0,0,1,8.212,2.607,33.171,33.171,0,0,1,8.391,8.319A22.744,22.744,0,0,1,99.569,191.257Z" transform="translate(160.402 441.987)"/><path d="M158.251,199.89a22.067,22.067,0,0,1-8.141-1.357,74.316,74.316,0,0,1-8.641-8.177c-2.464-2.285.678-6.356-2.749-8.284.857-2.571,1.071-5.57,2.035-7.712,1.535-3.392,5.32-5.713,7.855-8.748s6.427.643,8.248-2.892c2.785,1.035,6.141,1.035,8.5,2.214a30.17,30.17,0,0,1,8.534,8.248c1.857,2.285,0,6,2.535,8.319-1.821,2.357-.821,5.677-2,7.712a27.637,27.637,0,0,1-8.355,8.426,23.029,23.029,0,0,1-7.82,2.25Z" transform="translate(356.586 418.287)"/><path d="M209.969,84.632a25.851,25.851,0,0,1-2.321,8.105,25.636,25.636,0,0,1-8.5,8.248,23.921,23.921,0,0,1-7.748,1.75,13.068,13.068,0,0,1-8.212-2.464,29.922,29.922,0,0,1-8.355-8.462c-1.25-2,0-5.392-2.035-7.677,2.285-2.357.75-6.034,2.5-8.319a29.387,29.387,0,0,1,8.534-8.284c2.321-1.25,5.713-1.071,8.462-2.249,1.857,3.571,5.963.214,8.248,2.856a83.588,83.588,0,0,1,8.069,8.676A20.782,20.782,0,0,1,209.969,84.632Z" transform="translate(444.19 167.812)"/><path d="M56.65,146.3a19.674,19.674,0,0,1-1.393,7.712,33.028,33.028,0,0,1-8.391,8.427,12.14,12.14,0,0,1-8.212,2.5,24.994,24.994,0,0,1-14.282-7.141c-3.356-3.571-3.356-7.927-4.606-11.89a11.176,11.176,0,0,1,2.571-8.069,26.707,26.707,0,0,1,8.5-8.248,24.138,24.138,0,0,1,7.748-1.75,13.318,13.318,0,0,1,8.212,2.464,34.492,34.492,0,0,1,8.426,8.462A19.888,19.888,0,0,1,56.65,146.3Z" transform="translate(50.717 328.594)"/><path d="M70.621,198.577c-3.285-1.464-7.141-2.785-10.462-4.713-5.213-2.928-5.749-8.962-8.319-13.64a95.341,95.341,0,0,1,4.5-10.962c2.892-5.177,8.962-5.784,13.568-8.462,3.892,1.678,8.212,2.071,11.711,4.856,4.57,3.571,5.856,8.926,7.927,13.854-2.107,3.571-2.357,8.069-5.249,11.569C80.726,195.434,75.548,196.22,70.621,198.577Z" transform="translate(133.257 413.351)"/><path d="M59.662,160.77a103.842,103.842,0,0,1,10.712,4.856,18.745,18.745,0,0,1,7.712,13.818c.571,3.285-2.321,7.427-4.213,10.712-2.892,5.213-8.962,5.713-13.6,8.355-4.07-1.857-8.641-2.392-12.318-5.5-4.285-3.571-5-8.784-7.141-13.354,2.107-3.963,2.607-8.534,5.927-12.14S55.342,163.376,59.662,160.77Z" transform="translate(104.904 413.274)"/><path d="M27.433,62.88c10.926,0,17.424,6.356,17.424,17.067S38.5,97.157,27.576,97.157a15.746,15.746,0,0,1-17-16.639C10.545,69.486,16.829,62.916,27.433,62.88Z" transform="translate(27.125 161.642)"/><path d="M43.99,134.615c0,10.712-6.606,16.71-17.674,16.889a15.568,15.568,0,0,1-11.783-4.57,16.317,16.317,0,0,1-4.892-13.39,15.925,15.925,0,0,1,17.317-16.389C37.67,117.19,44.025,123.9,43.99,134.615Z" transform="translate(24.565 300.999)"/><path d="M162.652,180.216c0,10.712-6.641,16.674-17.853,16.853a15.6,15.6,0,0,1-11.783-4.606,16.389,16.389,0,0,1-4.856-13.39c.286-10,6.855-16.353,17.353-16.353S162.688,169.254,162.652,180.216Z" transform="translate(329.226 418.287)"/><path d="M38.856,41.28c11,0,17.567,6.284,17.567,16.924S50.067,75.379,39.284,75.629a15.6,15.6,0,0,1-12.533-4.82,15.175,15.175,0,0,1-4.677-11.747C22.288,47.921,28.323,41.316,38.856,41.28Z" transform="translate(56.692 106.118)"/><path d="M66.94,58.893c0,10.712-6.427,17.21-17.317,17.174s-17-6.57-16.96-17.531A15.782,15.782,0,0,1,49.552,41.79C60.478,41.79,66.94,48.145,66.94,58.893Z" transform="translate(83.88 107.323)"/><path d="M186.458,60.928c0,10.712-6.5,17.1-17.424,17.067s-16.889-6.606-16.853-17.639a15.746,15.746,0,0,1,17-16.639C180.174,43.717,186.458,50.073,186.458,60.928Z" transform="translate(391.114 112.25)"/><path d="M175.915,49.513c0,10.926-6.32,17.424-17.067,17.424s-17.21-6.356-17.21-17.281a15.746,15.746,0,0,1,16.639-17C169.309,32.625,175.879,38.909,175.915,49.513Z" transform="translate(363.952 83.888)"/><path d="M100.062,26.731c0,10.712-6.391,17.21-17.281,17.174s-17.031-6.534-17-17.5A15.782,15.782,0,0,1,82.638,9.628C93.563,9.628,100.062,15.984,100.062,26.731Z" transform="translate(169.014 24.655)"/><path d="M65.5,156.385c0,10.712-6.5,17.1-17.424,17.067s-16.889-6.606-16.853-17.639a15.746,15.746,0,0,1,17.139-16.567C59.068,139.246,65.5,145.673,65.5,156.385Z" transform="translate(80.183 357.781)"/><path d="M136.811,10.56c10.962,0,17.531,6.32,17.531,16.96s-6.356,17.139-17.174,17.424a15.782,15.782,0,0,1-12.533-4.892,15.282,15.282,0,0,1-4.642-11.747C120.065,17.2,126.242,10.6,136.811,10.56Z" transform="translate(308.4 27.151)"/><path d="M36.739,173.406a13.711,13.711,0,0,1-11.89-4.677,16.139,16.139,0,0,1-4.606-13.461c.25-9.819,7.141-16.1,17.6-16.067s16.6,6.641,16.782,17.853a15.6,15.6,0,0,1-4.677,11.783A14.568,14.568,0,0,1,36.739,173.406Z" transform="translate(51.703 357.827)"/><path d="M195.585,148.31c0,10.712-6.427,17.174-17.353,17.139s-16.96-6.57-16.924-17.567a15.782,15.782,0,0,1,16.853-16.853C189.123,131.028,195.585,137.527,195.585,148.31Z" transform="translate(414.549 336.721)"/><path d="M77.978,48.383c0,10.712-6.534,17.032-17.46,17S43.665,59.094,43.7,47.847a15.71,15.71,0,0,1,17.067-16.6C71.658,31.244,77.978,37.671,77.978,48.383Z" transform="translate(112.26 80.163)"/><path d="M59.237,150.24c10.712,0,17,6.57,16.96,17.531s-6.641,16.639-17.853,16.817A15.139,15.139,0,0,1,46.6,179.947a15.639,15.639,0,0,1-4.856-12.533C42.1,156.524,48.347,150.24,59.237,150.24Z" transform="translate(107.186 386.206)"/><path d="M60.739,54.366a13.711,13.711,0,0,1-11.89-4.677,16.139,16.139,0,0,1-4.606-13.461c.25-9.819,7.141-16.1,17.6-16.068s16.6,6.641,16.782,17.853A15.6,15.6,0,0,1,73.95,49.8a14.568,14.568,0,0,1-13.211,4.57Z" transform="translate(113.396 51.828)"/><path d="M167.268,141.6a17.067,17.067,0,0,1,17.174,17.317,16.817,16.817,0,0,1-17.531,16.889,16.46,16.46,0,0,1-16.674-16.817A16.853,16.853,0,0,1,167.268,141.6Z" transform="translate(386.167 363.996)"/><path d="M196.952,82.864a16.925,16.925,0,0,1-17.21,17.246,16.424,16.424,0,0,1-16.96-16.532,16.639,16.639,0,0,1,16.674-17.853,17,17,0,0,1,17.5,17.139Z" transform="translate(418.324 168.938)"/><path d="M156.107,186.567a16.924,16.924,0,1,1,12.3-4.891,16.96,16.96,0,0,1-12.3,4.891Z" transform="translate(357.838 391.012)"/><path d="M38.016,117.605A17,17,0,0,1,54.94,135.137a16.674,16.674,0,0,1-17.853,16.674,16.46,16.46,0,0,1-16.46-17.032,16.889,16.889,0,0,1,17.389-17.174Z" transform="translate(52.997 302.298)"/><path d="M100,38.611c-1.25,8.784-6.248,16.746-18.21,16.139a16.032,16.032,0,0,1-15.96-17.424A16.567,16.567,0,0,1,83.508,20.687,16.817,16.817,0,0,1,100,38.611Z" transform="translate(169.072 53.087)"/><path d="M80.51,196a17.032,17.032,0,0,1-17.139-17.317,16.817,16.817,0,0,1,17.5-16.889,16.5,16.5,0,0,1,16.674,16.853A16.889,16.889,0,0,1,80.51,196Z" transform="translate(162.894 415.861)"/><path d="M38.481,97.842A16.924,16.924,0,0,1,21.628,79.989a16.567,16.567,0,0,1,17.853-16.6,16.425,16.425,0,0,1,16.46,17.067,16.924,16.924,0,0,1-17.46,17.389Z" transform="translate(55.531 162.815)"/><path d="M120,38.751a17.032,17.032,0,0,1,17.353-17.139,16.746,16.746,0,0,1,16.853,17.531,16.5,16.5,0,0,1-16.853,16.639A16.889,16.889,0,0,1,120,38.751Z" transform="translate(308.465 55.553)"/><path d="M161.76,136.843a17.139,17.139,0,1,1,16.425,17.424A18.674,18.674,0,0,1,161.76,136.843Z" transform="translate(415.811 308.483)"/><path d="M135.167,196.895c-8.355,0-17.389-8.284-17.567-16.282a18.71,18.71,0,0,1,16.71-17.853c8.355,0,17.389,8.284,17.567,16.317a18.638,18.638,0,0,1-16.71,17.817Z" transform="translate(302.296 418.39)"/><path d="M110.621,38.54c-.643,8.212-9.748,16.639-17.567,16.282-8.534-.393-17.353-9.89-16.71-17.853s9.748-16.639,17.567-16.282C102.445,20.938,111.264,30.435,110.621,38.54Z" transform="translate(196.16 53.157)"/><path d="M126.179,21.12c8.355,0,17.46,9.462,17.067,17.639A19.21,19.21,0,0,1,126.036,55.4c-8.355,0-17.46-9.462-17.067-17.6a19.245,19.245,0,0,1,17.21-16.675Z" transform="translate(280.078 54.296)"/><path d="M37.611,106.56c7.891,0,16.889,8.427,17.317,16.532s-8.569,17.567-16.96,17.853-16.889-8.427-17.317-16.532S29.077,106.774,37.611,106.56Z" transform="translate(53.045 273.924)"/><path d="M55.4,91.175c0,8.391-9.5,17.424-17.674,17.032A19.245,19.245,0,0,1,21.12,90.96c0-8.355,9.5-17.424,17.674-17.032A19.281,19.281,0,0,1,55.4,91.175Z" transform="translate(54.29 190.013)"/><path d="M145.634,173.764c7.427.321,17.353,10.89,16.817,17.853s-10.533,16.674-17.46,16.389-17.353-10.89-16.817-17.853S138.707,173.479,145.634,173.764Z" transform="translate(329.427 446.661)"/><path d="M172.326,148.671c-.321-6.784,9.034-16.889,16.282-17.567s17.639,9.283,17.853,16.71c.357,6.784-9.033,16.924-16.282,17.567S172.683,155.99,172.326,148.671Z" transform="translate(442.951 336.931)"/><path d="M69.53,206.6C65,204.168,59.354,204.2,56.712,199.455a81.622,81.622,0,0,1-4.392-10.962c2.749-3.571,2.107-9.283,6.57-11.747,3.571-1.892,7.5-4.784,10.712-4.249,4.427.678,9.89,1.857,12.533,6.463a81.62,81.62,0,0,1,4.392,10.962c-2.749,3.57-2.107,9.248-6.57,11.747C76.6,203.561,72.851,204.917,69.53,206.6Z" transform="translate(134.491 443.251)"/><path d="M195.976,126.022c-2.392,4.535-2.428,10.14-7.141,12.783a82.12,82.12,0,0,1-11,4.356c-3.57-2.892-9.283-2.107-11.711-6.606-1.892-3.571-4.784-7.534-4.249-10.712.75-4.392,1.964-9.855,6.534-12.5a82.118,82.118,0,0,1,11-4.356c3.571,2.892,9.248,2.107,11.747,6.606A73.274,73.274,0,0,1,195.976,126.022Z" transform="translate(415.944 280.171)"/><path d="M140.713,179.313c-2.5,4.035-2.357,9.069-6.284,12.211a46.7,46.7,0,0,1-11.6,4.927c-3.571-2.607-9.283-2.071-11.783-6.5-1.928-3.571-4.82-7.462-4.32-10.712a17.853,17.853,0,0,1,5.713-12.069,45.525,45.525,0,0,1,11.6-4.963c3.57,2.642,9.248,2.107,11.783,6.5C137.785,172.172,139.142,175.992,140.713,179.313Z" transform="translate(274.185 416.976)"/><path d="M107.991,179c-1.428,3.214-2.785,6.963-4.713,10.39-2.464,4.463-8.105,3.82-11.711,6.57a82.118,82.118,0,0,1-11-4.392c-4.606-2.642-5.784-8.105-6.5-12.5-.5-3.321,2.392-7.355,4.285-10.712,2.464-4.463,8.105-3.821,11.747-6.57a116.892,116.892,0,0,1,10.962,4.32C103.457,167.289,107.777,175.858,107.991,179Z" transform="translate(190.256 415.896)"/><path d="M196.4,93.056c-2.357,4.32-2.464,9.176-6.177,12.461s-7.855,3.178-11.6,5.07c-3.571-2.535-8.177-2.249-11.354-5.641a17.639,17.639,0,0,1-4.892-11.461,17.21,17.21,0,0,1,5.534-12.1c3.356-3,7.82-3.142,11.569-5.07,3.571,2.535,8.676,1.892,11.211,5.784A110.685,110.685,0,0,1,196.4,93.056Z" transform="translate(417.379 196.165)"/><path d="M66.8,69.33c-1.535,3.571-2.928,7.141-4.856,10.712-2.5,4.463-8.141,3.82-11.747,6.534a41.847,41.847,0,0,1-11.64-4.927,17.853,17.853,0,0,1-5.749-12.033C32.24,66.331,35.2,62.26,37.1,58.9c2.5-4.463,8.141-3.82,11.747-6.534A41.847,41.847,0,0,1,60.483,57.3C64.483,60.19,64.2,65.331,66.8,69.33Z" transform="translate(84.159 134.626)"/><path d="M189.879,55.68c10.5,0,15.246,4.963,15.21,15.853s-5.07,15.032-16.067,15c-9.819,0-14.782-5.213-14.782-15.425S179.239,55.68,189.879,55.68Z" transform="translate(447.892 143.134)"/><path d="M178.359,98.88c10.5,0,15.246,4.963,15.211,15.853s-5.07,15.032-16.067,15c-9.819,0-14.782-5.213-14.782-15.425S167.719,98.88,178.359,98.88Z" transform="translate(418.279 254.182)"/><path d="M83.65,166.268c0,10.712-4.749,15.782-15.282,15.782S52.8,177.087,52.8,166.554s4.963-15.318,14.853-15.353C78.508,151.165,83.614,155.842,83.65,166.268Z" transform="translate(135.725 388.674)"/><path d="M118.69,36.882c0,10.712-4.963,15.568-15.5,15.568S87.8,47.487,87.84,36.739c0-10.176,4.927-15.1,15.068-15.139C113.762,21.564,118.69,26.349,118.69,36.882Z" transform="translate(225.796 55.53)"/><path d="M114.162,21.6c10.712,0,15.568,4.963,15.568,15.5s-4.963,15.389-15.71,15.353c-10.176,0-15.1-4.927-15.139-15.068C98.844,26.6,103.629,21.636,114.162,21.6Z" transform="translate(254.175 55.53)"/><path d="M37.259,85.44c10.5,0,15.246,4.963,15.211,15.853s-5.07,15.032-16.067,15c-9.819,0-14.782-5.213-14.782-15.425S26.547,85.44,37.259,85.44Z" transform="translate(55.575 219.634)"/><path d="M86.05,47.005c0,10.712-4.963,15.568-15.5,15.568S55.164,57.61,55.2,46.863c0-10.176,4.927-15.1,15.068-15.139C81.122,31.545,86.05,36.294,86.05,47.005Z" transform="translate(141.894 81.54)"/><path d="M146.394,63.97c-10.712,0-15.389-4.963-15.353-15.71s5-15.175,15.925-15.139c10,0,14.925,5.106,14.925,15.282S156.927,63.97,146.394,63.97Z" transform="translate(336.844 85.142)"/><path d="M85.441,177.289c0-10.033,5.32-14.675,16.5-14.568,9.676,0,14.282,5.32,14.282,15.853s-5.07,15.068-16.067,15C90.082,193.535,85.369,188.358,85.441,177.289Z" transform="translate(219.627 418.286)"/><path d="M37.259,96.48c10.5,0,15.246,4.963,15.211,15.853,0,10.355-5.07,15.032-16.067,15-9.819,0-14.782-5.213-14.782-15.425S26.547,96.48,37.259,96.48Z" transform="translate(55.575 248.013)"/><path d="M62.53,144.616c0,10.533-4.963,15.389-15.71,15.353s-15.175-5-15.139-15.925c0-9.962,5.07-14.889,15.282-14.925S62.53,134.083,62.53,144.616Z" transform="translate(81.435 331.916)"/><path d="M183.49,70.625c0,10.5-5,15.461-15.639,15.425S152.6,81.087,152.64,70.2c0-10.1,4.963-14.961,15.211-15S183.49,60.128,183.49,70.625Z" transform="translate(392.368 141.9)"/><path d="M144.853,183.436c-5.106,2.035-8.891-1.428-11.711-4.142a15.853,15.853,0,0,1-4.106-11.14,15.675,15.675,0,0,1,4.285-11.069,17.1,17.1,0,0,1,11.818-4.535,15.246,15.246,0,0,1,15.389,15.5,16.5,16.5,0,0,1-4,11.14C153.672,181.865,149.994,185.543,144.853,183.436Z" transform="translate(331.672 392.143)"/><path d="M25.393,159.44c-4.82,2.392-8.177-1.571-10.962-3.821A16.425,16.425,0,0,1,10,143.836a13.711,13.711,0,0,1,4.57-10.962,15.532,15.532,0,0,1,11.89-4.285,15.96,15.96,0,0,1,10.712,4.677,16.317,16.317,0,0,1,4.32,11.176,15.711,15.711,0,0,1-4.856,11.676A10.39,10.39,0,0,1,25.393,159.44Z" transform="translate(25.666 330.447)"/><path d="M178.77,88.494c4.927-2.5,8.284,1.571,10.926,3.928a15.889,15.889,0,0,1,4.356,11.819,14.568,14.568,0,0,1-4.677,10.712,16.393,16.393,0,0,1-22.637-.607,16.282,16.282,0,0,1-4.07-11.1,14.782,14.782,0,0,1,4.249-10.926C169.665,89.566,173.665,86.281,178.77,88.494Z" transform="translate(418.118 225.471)"/><path d="M127.237,178.287c2.035,5.106-1.428,8.891-4.178,11.711a15.889,15.889,0,0,1-11.1,4.142,15.71,15.71,0,0,1-11.069-4.32,16.782,16.782,0,0,1-4.535-11.783,15.318,15.318,0,0,1,15.5-15.425,16.567,16.567,0,0,1,11.14,4C125.809,169.54,129.487,173.217,127.237,178.287Z" transform="translate(247.67 418.001)"/><path d="M181.989,147.174c2.5,4.927-1.571,8.284-3.892,10.926a16.174,16.174,0,0,1-11.854,4.356,14.532,14.532,0,0,1-10.89-4.642,15.889,15.889,0,0,1-4.213-11.961,15.211,15.211,0,0,1,15.96-14.889,14.675,14.675,0,0,1,11,4.356C180.918,138.069,184.2,142.068,181.989,147.174Z" transform="translate(388.405 336.607)"/><path d="M59.473,73.753c-5.034,1.785-8.355-2.285-11.033-4.606a16.175,16.175,0,0,1-4.356-11.854A14.568,14.568,0,0,1,48.761,46.4a15.817,15.817,0,0,1,11.926-4.213A16.318,16.318,0,0,1,71.4,47.01a11.533,11.533,0,0,1,3.749,11.14c-.536,2.107,0,4.785-.928,6.463a18.674,18.674,0,0,1-7.534,7.712,33.528,33.528,0,0,1-7.213,1.428Z" transform="translate(113.27 108.351)"/><path d="M11.779,67.324c-1.571-4.427,2.357-6.784,5-10.033s6.713-3.963,11-4.5c5.641-.678,7.748,3.571,11.319,5.927,4.178,2.856,2.964,6.784,3.571,10.712.928,5.249-2.928,7.355-5.427,10.712s-6.213,3.82-10.283,4.142a12.211,12.211,0,0,1-10.712-5.07C11.886,74.287,11.743,74.394,11.779,67.324Z" transform="translate(29.354 135.525)"/><path d="M172.453,59.291a15.782,15.782,0,0,1-15.5,15.568A15.96,15.96,0,0,1,141.6,60a15.429,15.429,0,1,1,30.85-.714Z" transform="translate(363.986 113.673)"/><path d="M57.629,140.16A15.425,15.425,0,1,1,42.24,155.835,15.818,15.818,0,0,1,57.629,140.16Z" transform="translate(108.58 360.295)"/><path d="M71.079,10.08a15.818,15.818,0,0,1,15.46,15.6,15.425,15.425,0,1,1-30.85,0,15.675,15.675,0,0,1,15.389-15.6Z" transform="translate(143.154 25.917)"/><path d="M162.373,26.171A15.429,15.429,0,1,1,146.591,11.1a15.429,15.429,0,0,1,15.782,15.068Z" transform="translate(338.075 28.536)"/><path d="M155.835,172.455a15.675,15.675,0,0,1-15.675-15.392,15.96,15.96,0,0,1,14.746-15.458,15.432,15.432,0,0,1,.928,30.85Z" transform="translate(360.288 363.991)"/><path d="M96.617,47.109c0,6.927-8.712,15.6-15.6,15.461s-14.889-8.319-15.246-15,8.284-15.639,15.175-15.889S96.581,40.217,96.617,47.109Z" transform="translate(169.031 81.437)"/><path d="M120.48,48.132c0-6.855,8.855-15.639,15.6-15.461s15.568,9.176,15.246,15.853-8.748,14.818-15.175,15S120.48,54.845,120.48,48.132Z" transform="translate(309.699 83.984)"/><path d="M63.5,79.37c0,6.855-8.891,15.6-15.639,15.425s-15.532-9.176-15.211-16,8.784-14.818,15.211-15S63.5,72.514,63.5,79.37Z" transform="translate(83.896 164.005)"/><path d="M47.082,118.08c6.927,0,15.6,8.748,15.46,15.6s-8.426,14.889-14.961,15.246-15.675-8.284-15.889-15.175S40.191,118.116,47.082,118.08Z" transform="translate(81.458 303.537)"/><path d="M168.094,96.21c-2.357-.678-5.356-.643-6.784-2.142-2.928-3.071-8.034-4.856-7.427-10.5-4.106-2.964.393-5.856.464-8.748s8.819-8.427,12.14-8.962c1.107,0,2.321.786,3.571,1.214,7.141,2.392,9,4.285,11.283,11.212,3.571,2.107,0,4.178,0,6.284,0,4.5-3.928,6-6.356,8.391A22.067,22.067,0,0,1,168.094,96.21Z" transform="translate(391.125 169.303)"/><path d="M63.83,166.363c.357-4.713,6.748-11.926,10.712-13.925a10.926,10.926,0,0,1,10.39.464A16.353,16.353,0,0,1,93,162.114a11.676,11.676,0,0,1-2.892,12.818c-2.321,2.178-3.856,5.927-8.141,5.035-3.356,3.571-7.141.5-9.248-.857a14.854,14.854,0,0,1-7.891-11.14C64.758,167.4,64.08,166.756,63.83,166.363Z" transform="translate(164.078 389.043)"/><path d="M132.35,179.874c-4.606,1.535-7.141-1.071-10.033-3.571-3.82-2.964-3.571-6.641-3.785-10.533a12.854,12.854,0,0,1,4-9.6c3.071-3.963,6.82-3.142,10.712-3.571a11.354,11.354,0,0,1,9.5,4.177,12.033,12.033,0,0,1,3.571,9.819,11.319,11.319,0,0,1-3.785,9.676C139.277,179.338,136.421,181.659,132.35,179.874Z" transform="translate(304.684 392.207)"/><path d="M166.365,121.257c3.856-1.321,6.284,1.285,9.283,3.571,3.856,3,3.392,6.641,3.785,10.712a12.747,12.747,0,0,1-4,9.569c-3.071,4-6.82,3.142-10.712,3.57a11.533,11.533,0,0,1-9.5-4.213,12,12,0,0,1-3.57-9.819,12.568,12.568,0,0,1,3.57-9.712A11.283,11.283,0,0,1,166.365,121.257Z" transform="translate(389.676 310.786)"/><path d="M198.9,99.888c4.606-1.571,7.141,1.035,10.033,3.571,3.82,3,3.356,6.641,3.571,10.712a12.747,12.747,0,0,1-4,9.569c-3.071,4-6.82,3.142-10.712,3.571a11.5,11.5,0,0,1-9.5-4.213,12.033,12.033,0,0,1-3.57-9.819,11.426,11.426,0,0,1,3.785-9.676C191.936,100.388,194.793,98.21,198.9,99.888Z" transform="translate(474.685 255.281)"/><path d="M178.606,177.984a10.212,10.212,0,0,1-3.356,9.748,12.712,12.712,0,0,1-10.426,4.106,13.211,13.211,0,0,1-9.712-3.57,13.068,13.068,0,0,1-3.892-10.712,11.747,11.747,0,0,1,3.928-9.6,11.89,11.89,0,0,1,9.676-3.785,12.568,12.568,0,0,1,10.426,4.07A10.247,10.247,0,0,1,178.606,177.984Z" transform="translate(388.54 421.875)"/><path d="M175.665,153.88a10.712,10.712,0,0,1,10.712,3.785,12.5,12.5,0,0,1,3.57,9.748,12.782,12.782,0,0,1-3.57,9.783,13.032,13.032,0,0,1-10.462,4.07,12.14,12.14,0,0,1-9.676-3.785,11.854,11.854,0,0,1-3.928-9.64,12.5,12.5,0,0,1,3.928-10.5C169.06,154.844,171.666,152.737,175.665,153.88Z" transform="translate(417.045 394.742)"/><path d="M197.841,116.186c-3.856,1.321-6.284-1.285-9.283-3.571-3.856-2.964-3.571-6.641-3.785-10.712a12.676,12.676,0,0,1,4.035-9.569c3.035-3.963,6.784-3.142,10.712-3.571a11.462,11.462,0,0,1,9.426,4.427,12.033,12.033,0,0,1,3.57,9.819,12.533,12.533,0,0,1-3.571,9.712,11.176,11.176,0,0,1-11.1,3.463Z" transform="translate(474.957 228.164)"/><path d="M100.2,185.1c3.856-1.321,6.284,1.285,9.283,3.571,3.856,3,3.571,6.641,3.785,10.712a12.747,12.747,0,0,1-4.106,9.5c-3.071,4-6.82,3.142-10.712,3.57a11.533,11.533,0,0,1-9.5-4.213,12,12,0,0,1-3.571-9.819,12.568,12.568,0,0,1,3.571-9.712A11.283,11.283,0,0,1,100.2,185.1Z" transform="translate(219.326 474.891)"/><path d="M109.52,212.195c-3.856,1.321-6.284-1.285-9.283-3.571-3.856-2.964-3.571-6.641-3.785-10.712a12.783,12.783,0,0,1,4-9.569c3.071-3.963,6.82-3.142,10.712-3.571a11.461,11.461,0,0,1,9.5,4.177,12.033,12.033,0,0,1,3.57,9.819,12.568,12.568,0,0,1-3.57,9.712,11.247,11.247,0,0,1-11.14,3.713Z" transform="translate(247.927 474.929)"/><path d="M177.667,61.5a13.714,13.714,0,0,1,.571-27.422A13,13,0,0,1,191.45,47.65,13.068,13.068,0,0,1,177.667,61.5Z" transform="translate(422.184 87.608)"/><path d="M156.727,55.308a13.726,13.726,0,0,1-1.285,27.422c-8.069,0-13.1-5.891-13.39-14.282C141.874,62.057,149.015,53.951,156.727,55.308Z" transform="translate(365.144 141.792)"/><path d="M91.01,60.216A13.1,13.1,0,0,1,77.3,46.291a13.711,13.711,0,1,1,27.422,0A13.1,13.1,0,0,1,91.01,60.216Z" transform="translate(198.632 83.755)"/><path d="M60.675,88.822a13,13,0,0,1-13.568,14A13.639,13.639,0,0,1,33.075,89.965,14.282,14.282,0,0,1,46.25,75.29C54.784,75.718,60.568,80.753,60.675,88.822Z" transform="translate(85.003 193.543)"/><path d="M159.024,57.417a13,13,0,0,1-13.5,14.282,13.639,13.639,0,0,1-14.032-12.854A14.282,14.282,0,0,1,144.67,44.17C153.132,44.313,158.917,49.347,159.024,57.417Z" transform="translate(337.996 113.547)"/><path d="M71.581,67.7A13.711,13.711,0,1,1,57.87,53.776,13,13,0,0,1,71.581,67.7Z" transform="translate(113.516 138.183)"/><path d="M60.216,121.73a13.1,13.1,0,0,1-13.925,13.711,13.711,13.711,0,0,1,0-27.422A13.1,13.1,0,0,1,60.216,121.73Z" transform="translate(83.748 277.607)"/><path d="M82.622,57A13.711,13.711,0,1,1,68.768,43.216,13.1,13.1,0,0,1,82.622,57Z" transform="translate(141.894 111.038)"/><path d="M113.3,27.062A13.1,13.1,0,0,1,99.371,13.351a13.711,13.711,0,0,1,27.279-.428A13,13,0,0,1,113.3,27.062Z" transform="translate(255.398 2.08)"/><path d="M48.7,164.89A13.1,13.1,0,0,1,34.771,178.6a13.711,13.711,0,0,1,0-27.422A13.1,13.1,0,0,1,48.7,164.89Z" transform="translate(54.136 388.552)"/><path d="M181.073,36.386a13.461,13.461,0,0,1-13.568,14.282A14.282,14.282,0,0,1,153.58,37.6c0-8.462,5.249-14.282,13.211-14.5a13.033,13.033,0,0,1,14.282,13.282Z" transform="translate(394.784 59.239)"/><path d="M123.463,60.8a13,13,0,0,1-13.5-14.282,13.713,13.713,0,1,1,27.422.428A13.1,13.1,0,0,1,123.464,60.8Z" transform="translate(282.507 84.884)"/><path d="M59.307,176.047a13.1,13.1,0,0,1-14,13.64,13.711,13.711,0,0,1,0-27.422,13.068,13.068,0,0,1,14,13.782Z" transform="translate(81.229 417.028)"/><path d="M103.076,165.307a15.318,15.318,0,0,1-14.282,14.711,11.39,11.39,0,0,1-9.212-4.427,13.747,13.747,0,0,1-4.392-10.1c0-4.213,3.892-5.891,4.356-9.426,3.571-.357,5.32-4,9.64-4s6.5,3.963,10.247,4.606C99.505,160.415,106.254,161.629,103.076,165.307Z" transform="translate(193.279 390.885)"/><path d="M67.315,141.028A15.282,15.282,0,0,1,81.6,155.31a11.355,11.355,0,0,1-4.427,9.176,13.461,13.461,0,0,1-10.1,4.392c-4.213,0-5.891-3.892-9.426-4.356-.357-3.57-4-5.32-4-9.64s3.963-6.5,4.606-10.212C62.066,144.456,63.566,138.743,67.315,141.028Z" transform="translate(137.884 361.141)"/><path d="M180.064,90.665A14.282,14.282,0,0,1,166.21,104.59a14.925,14.925,0,0,1-13.568-13.211,13.714,13.714,0,1,1,27.422-.571Z" transform="translate(392.366 198.913)"/><path d="M43.572,143.169A14.639,14.639,0,0,1,58.354,129.6c6.141.179,12.211,7.57,12.818,14.282a11.283,11.283,0,0,1-4.427,9.176,13.461,13.461,0,0,1-10.1,4.392c-4.213,0-5.891-3.892-9.426-4.356C46.428,149.239,41.465,147.1,43.572,143.169Z" transform="translate(110.675 333.149)"/><path d="M16.542,113.2C7.4,113.2.546,106.735.51,99.7A15.853,15.853,0,0,1,13.328,85.419c4.785-.821,6.82,3.214,10.533,3.856.464,3.571,4.213,5.213,4.356,9.426a16.353,16.353,0,0,1-4.535,10.5C22.04,111.556,18.006,112.377,16.542,113.2Z" transform="translate(1.311 219.298)"/><path d="M121.637,152.51c3.249,1.321,7.462,1.821,9.319,4.178a17,17,0,0,1,4.535,10,15.96,15.96,0,0,1-3.963,9.426,17.1,17.1,0,0,1-9.176,4.177c-4,1.036-7.427-2-10.176-3.963a16.388,16.388,0,0,1-4.035-9.248c-.857-3.963,2.071-7.391,4.106-10.1S118.245,154.01,121.637,152.51Z" transform="translate(277.586 392.041)"/><path d="M166,138.048c-3.571-1.678-8.105-2.428-9.926-5.07s-4.713-5.641-3.785-9.391a21.673,21.673,0,0,1,3.856-9.426,20.138,20.138,0,0,1,9.319-4.07c4.035-1,7.391,2.071,10.14,4.07a13.176,13.176,0,0,1,3.785,9.248,14.532,14.532,0,0,1-3.57,9.5A34.208,34.208,0,0,1,166,138.048Z" transform="translate(391.005 282.498)"/><path d="M103,198.4a32.384,32.384,0,0,1-5.106,9.819,14.6,14.6,0,0,1-9.5,3.571,12.926,12.926,0,0,1-9.355-4.106c-2-2.714-5.034-6.106-4.035-10.14A14.068,14.068,0,0,1,88.544,184.3a17.067,17.067,0,0,1,10.033,4.535C101.077,190.62,101.577,194.9,103,198.4Z" transform="translate(192.315 473.759)"/><path d="M198.7,110.42c6,0,13.782,8.319,13.5,14.282s-8.534,13.675-14.282,13.282a17.246,17.246,0,0,1-13.1-13.711C184.633,118.133,193.6,109.849,198.7,110.42Z" transform="translate(475.06 283.775)"/><path d="M60.2,110.787c0,5.963-8.284,13.782-14.282,13.5S32.208,115.786,32.6,110A17.353,17.353,0,0,1,46.454,97C52.453,96.719,60.772,105.646,60.2,110.787Z" transform="translate(83.764 249.345)"/><path d="M112.674,33.131c6.57,0,14.282,9.283,13.711,14-.5,6-8.5,13.961-14.282,13.39A16.639,16.639,0,0,1,98.891,46.985C98.463,41.593,106.925,32.7,112.674,33.131Z" transform="translate(254.164 85.132)"/><path d="M168.1,145.45c-.214,6-8.427,13.711-14.282,13.39s-13.6-8.676-13.175-14.282,8.355-13.068,13.818-13C160.494,131.489,168.314,139.558,168.1,145.45Z" transform="translate(361.483 338.188)"/><path d="M14.068,123.919C8.248,124.169,0,116.206,0,110.386S7.141,97,12.925,96.5s14.282,7.141,14.5,13.14S20.1,123.669,14.068,123.919Z" transform="translate(0 247.996)"/><path d="M115.759,45.834c.286,5.82-7.534,13.961-13.532,14.282-5.392,0-13.39-7.141-13.889-12.89s7.141-14.282,13.1-14.532S115.473,39.764,115.759,45.834Z" transform="translate(227.014 84.033)"/><path d="M116.195,13.572c.464,5.392-8.034,14.068-13.782,13.889A16.782,16.782,0,0,1,88.844,14.286C88.237,8.5,95.985.254,102.127,0S116.087,7.574,116.195,13.572Z" transform="translate(228.292 0.002)"/><path d="M50.437,45.191c.536,5.284-7.891,14.032-13.747,13.925a16.746,16.746,0,0,1-13.6-13.14c-.643-5.784,7.141-14.032,13.247-14.282S50.294,39.228,50.437,45.191Z" transform="translate(59.25 81.463)"/><path d="M157.135,156c-.179,6-8.355,13.782-14.282,13.461s-13.675-8.569-13.282-14.282a17.246,17.246,0,0,1,13.747-13.068C149.458,141.9,157.778,150.9,157.135,156Z" transform="translate(333.03 365.305)"/><path d="M60.655,99.882c0,6-8.355,13.782-14.282,13.461S32.7,104.773,33.09,99.06a17.246,17.246,0,0,1,14-13.14C52.978,85.814,61.369,94.811,60.655,99.882Z" transform="translate(85.023 220.867)"/><path d="M47.265,21.125c5.82-.286,14,7.534,14.282,13.532,0,5.392-7.141,13.39-12.854,13.889S34.411,41.406,34.126,35.479,41.231,21.411,47.265,21.125Z" transform="translate(87.701 54.291)"/><path d="M120.823,185.285c5.856-.286,14.282,8.605,13.782,13.889a16.746,16.746,0,0,1-13.318,13.675c-5.784.536-13.782-7.427-14.282-13.425C106.72,194.318,114.611,185.178,120.823,185.285Z" transform="translate(275.043 476.274)"/><path d="M113.4,165.713c-2.321,3.571-2.285,8.355-6.391,10.39-2.571,1.285-5.641,3.571-7.962,2.928a15,15,0,0,1-10.712-6.748C87.154,170,85.475,167,86.082,164.927A15.318,15.318,0,0,1,92.4,155c2.285-1.286,5.177-3.249,7.141-2.678,3.571,1,8.141,1.75,10.283,5.82C111.112,160.678,112.29,163.356,113.4,165.713Z" transform="translate(220.949 391.3)"/><path d="M198.7,105.031c-3.571-1.892-8.105-2-10.212-6.07-1.321-2.571-3.571-5.677-3.071-7.855.964-3.571,1.821-8.177,5.927-10.247,2.571-1.285,5.784-3.571,7.891-2.928a18.352,18.352,0,0,1,9.855,5.32c2,2.535,1.035,5.927,3.57,7.962-2.214,2.714-1.785,6.463-4.535,9.283S201.382,102.746,198.7,105.031Z" transform="translate(476.451 200.043)"/><path d="M108.806,177.213a8.926,8.926,0,0,1-8.962-3.571,6.784,6.784,0,0,1-2.321-5.927c.643-3.571-1.75-8,2.392-10.962,1.535-1.107,2.856-3.214,4.5-3.571a19.816,19.816,0,0,1,10.926,0c2.964,1.535,7.141,4.07,6.213,9.141a14.282,14.282,0,0,0,0,4.249,8.105,8.105,0,0,1-2.928,7.391,7.927,7.927,0,0,1-7.391,2.928A15.927,15.927,0,0,0,108.806,177.213Z" transform="translate(250.39 391.797)"/><path d="M176.634,111.107c0,8.819-3.249,12.247-11.747,12.247s-12.247-3.249-12.247-11.747S155.889,99.4,164.387,99.36,176.634,102.609,176.634,111.107Z" transform="translate(392.368 255.416)"/><path d="M177.195,101.5a9,9,0,0,1-3.571,8.962,6.784,6.784,0,0,1-5.927,2.321c-3.571-.607-8,1.75-10.962-2.357-1.107-1.571-3.213-2.892-3.571-4.535a19.674,19.674,0,0,1,0-10.712c1.535-3,4.07-7.141,9.1-6.248a13.069,13.069,0,0,0,4.249,0,8.141,8.141,0,0,1,7.391,2.928,7.748,7.748,0,0,1,2.928,7.391C177.123,99.641,177.195,100.212,177.195,101.5Z" transform="translate(391.807 228.285)"/><path d="M122.176,25.066a11.283,11.283,0,0,1-11.247-12.854,12.152,12.152,0,1,1,24.244,1.714,11.354,11.354,0,0,1-13,11.14Z" transform="translate(284.866 2.361)"/><path d="M24.5,119.315a11.533,11.533,0,0,1-11.426,12.568,12.218,12.218,0,0,1-.786-24.423C18.792,107.354,25.29,112.6,24.5,119.315Z" transform="translate(1.204 276.237)"/><path d="M102.507,13.141c1.071,3-1.071,5.177-3.571,7.355s-4.32,4.892-8.569,4.392a9.426,9.426,0,0,1-7.141-3.178c-2.142-2.678-5.427-4.249-5-8.569.321-3.214.357-6,3.285-8.177S85.8.18,89.939.466a13.175,13.175,0,0,1,12.568,12.675Z" transform="translate(200.989 1.147)"/><path d="M24.885,86.859c1.178,3.571-.75,5.713-3.213,7.891s-4.285,4.963-8.569,4.427a9.355,9.355,0,0,1-7.32-3.142C3.783,93.5.5,91.965.962,87.716c.321-3.178,0-6.034,3.178-8.177S8.353,74.5,12.6,74.862a9.712,9.712,0,0,1,8.069,3.571C22.635,80.825,26.206,82.574,24.885,86.859Z" transform="translate(2.359 192.365)"/><path d="M164.541,187.272c1.357,3.571-1.035,5.642-3.321,7.891a11.1,11.1,0,0,1-8.5,4.427,10.14,10.14,0,0,1-7.891-3.928c-2.071-2.178-4.606-3.856-4.178-7.748a9.891,9.891,0,0,1,3.321-8.141c2.607-2,4.32-4.784,8.462-4.606a9.89,9.89,0,0,1,8.069,3.57C162.506,181.2,165.97,182.951,164.541,187.272Z" transform="translate(361.436 450.257)"/><path d="M197.76,155.891a12,12,0,1,1-11.569-12.426A12,12,0,0,1,197.76,155.891Z" transform="translate(446.652 368.772)"/><path d="M132.6,44.64a13.318,13.318,0,0,1,12.354,12,13.568,13.568,0,0,1-11.212,12.14A13.425,13.425,0,0,1,120.96,57.351,13.318,13.318,0,0,1,132.6,44.64Z" transform="translate(310.933 114.755)"/><path d="M78.743,67.623A13.568,13.568,0,0,1,66.71,55.483,13.39,13.39,0,0,1,79.171,43.7a13.639,13.639,0,0,1,11.6,11.783A13.568,13.568,0,0,1,78.743,67.623Z" transform="translate(171.481 112.339)"/><path d="M187.223,69.594A13.532,13.532,0,0,1,175.19,57.383,13.39,13.39,0,0,1,187.651,45.6a13.639,13.639,0,0,1,11.6,11.783,13.532,13.532,0,0,1-12.033,12.211Z" transform="translate(450.334 117.223)"/><path d="M56.423,88.9A13.247,13.247,0,0,1,44.64,76.329,13.318,13.318,0,0,1,57.28,64.76a13.532,13.532,0,0,1,11.354,12A13.354,13.354,0,0,1,56.423,88.9Z" transform="translate(114.749 166.475)"/><path d="M154.894,66.72a13.318,13.318,0,0,1,11.64,12.568,13.425,13.425,0,0,1-12.783,11.426,13.568,13.568,0,0,1-11.212-12.14A13.318,13.318,0,0,1,154.894,66.72Z" transform="translate(366.405 171.513)"/><path d="M165.6,133.331a12,12,0,1,1-11.569-12.426A12,12,0,0,1,165.6,133.331Z" transform="translate(363.983 310.78)"/><path d="M67.674,131.089a13.247,13.247,0,0,1-11.783,12.426,13.532,13.532,0,0,1-12.211-11.14A13.39,13.39,0,0,1,55.034,119.52a13.283,13.283,0,0,1,12.64,11.569Z" transform="translate(112.281 307.239)"/><path d="M76.868,165.6A13.354,13.354,0,0,1,64.8,153.457,13.532,13.532,0,0,1,76.226,141.6,12,12,0,0,1,76.8,165.6Z" transform="translate(166.571 363.994)"/><path d="M131.374,166.521a13.282,13.282,0,0,1-11.854-12.354c.25-5.927,6.855-12.283,12.568-11.533a12.854,12.854,0,0,1,11.39,11.819A13.247,13.247,0,0,1,131.374,166.521Z" transform="translate(307.232 366.498)"/><path d="M54.46,173.76c2.321,2.428,6.284,1.071,8.641,4.142s1.393,5.749,3.356,8.069c-2.107,2.5-1.035,6.713-4.392,8.427a19.066,19.066,0,0,1-8.034,3.106,12.64,12.64,0,0,1-7.641-3.821,10.712,10.712,0,0,1-3.571-7.641,17.139,17.139,0,0,1,3-8.141C48.176,174.831,52.139,176.188,54.46,173.76Z" transform="translate(110.071 446.666)"/><path d="M67.277,54.23a31.493,31.493,0,0,1,8.355,4.392A11.89,11.89,0,0,1,79.2,66.406a12.675,12.675,0,0,1-3.571,7.748,12.533,12.533,0,0,1-7.605,3.856,12.247,12.247,0,0,1-7.891-3.178,14.282,14.282,0,0,1-4.356-8.177A11.14,11.14,0,0,1,59.1,58.872a31.1,31.1,0,0,1,8.177-4.642Z" transform="translate(143.385 139.407)"/><path d="M154.212,33.741c-7.141,0-10.176-2.964-10.212-10.14,0-7.712,2.892-10.212,10.712-10.712A9.5,9.5,0,0,1,164.6,23.6C164.138,30.777,161.424,33.776,154.212,33.741Z" transform="translate(370.158 33.106)"/><path d="M195.987,122.437a10.283,10.283,0,1,1-10.712,9.89,9.712,9.712,0,0,1,10.712-9.89Z" transform="translate(476.24 314.605)"/><path d="M23.243,43.2A10.283,10.283,0,1,1,12.96,53.483,10.283,10.283,0,0,1,23.243,43.2Z" transform="translate(33.314 111.054)"/><path d="M75.2,185.3a10.283,10.283,0,1,1-10.39,10.176A9.676,9.676,0,0,1,75.2,185.3Z" transform="translate(166.561 476.259)"/><path d="M141.581,152.564a10.283,10.283,0,1,1,10.033-10.533,9.676,9.676,0,0,1-10.033,10.533Z" transform="translate(336.872 339.321)"/><path d="M21.323,161.686A10.283,10.283,0,1,1,31.606,151.4a10.283,10.283,0,0,1-10.283,10.283Z" transform="translate(28.379 362.763)"/><path d="M65,151.607a10.283,10.283,0,1,1,10.283-10.248A9.641,9.641,0,0,1,65,151.607Z" transform="translate(140.66 336.851)"/><path d="M141.321,76.887c-3.213.964-4.642-1.964-6.855-3.571-2.892-2.035-2-4.892-2.428-7.57-.571-3.571,2.035-4.892,3.571-7.141,2.071-2.892,4.927-1.964,7.605-2.428,3.571-.571,4.856,2.035,7.141,3.571,2.892,2.071,2,4.927,2.428,7.605.571,3.571-1.714,5.106-3.571,7.141C146.391,77.173,146.391,77.173,141.321,76.887Z" transform="translate(339.203 144.208)"/><path d="M196.542,68.177A10.283,10.283,0,1,1,186.258,78.5a9.64,9.64,0,0,1,10.283-10.319Z" transform="translate(478.72 175.198)"/><path d="M129.238,186.252a10.283,10.283,0,1,1-10.176,10.39,9.64,9.64,0,0,1,10.176-10.39Z" transform="translate(305.976 478.734)"/><path d="M11.4,119a10.283,10.283,0,0,1,9.926,10.712A9.89,9.89,0,0,1,10.9,139.675a9.926,9.926,0,0,1-9.89-10.5A10.176,10.176,0,0,1,11.4,119Z" transform="translate(2.559 305.9)"/><path d="M56.39,11A10.712,10.712,0,0,1,66.674,21.283a10.283,10.283,0,1,1-20.531,0A10.712,10.712,0,0,1,56.39,11Z" transform="translate(118.566 28.282)"/><path d="M131.434,55.377a10.283,10.283,0,1,1-20.531,0,10.265,10.265,0,0,1,20.531,0Z" transform="translate(285.035 116.015)"/><path d="M55.481,76.32A10.283,10.283,0,1,1,45.09,86.5,10.712,10.712,0,0,1,55.481,76.32Z" transform="translate(115.905 196.191)"/><path d="M44.16,119.243A10.283,10.283,0,1,1,54.3,129.526a10.712,10.712,0,0,1-10.14-10.283Z" transform="translate(113.515 280.094)"/><path d="M88.522,64.726A10.283,10.283,0,1,1,98.806,54.3,10.712,10.712,0,0,1,88.522,64.726Z" transform="translate(201.12 113.522)"/><path d="M97.168,152.891a16.606,16.606,0,0,1-1.642,3.285,31.893,31.893,0,0,1-3.571,3.571c-4.035,3.892-6.534,3.892-10.712,0a24.778,24.778,0,0,1-3.571-3.57,7.356,7.356,0,0,1-1.357-3.571c-.286-3.856,6.356-10.712,10.212-10.462a5.07,5.07,0,0,1,3.106.643,65.128,65.128,0,0,1,6.677,6.641C97.026,150.035,96.883,151.392,97.168,152.891Z" transform="translate(196.152 365.31)"/><path d="M162.656,120.688c0,3.571-7.141,10.712-10.5,10.283s-10.426-7.427-10.069-10.712a16.5,16.5,0,0,1,10.069-9.855C155.515,110.155,162.656,117.153,162.656,120.688Z" transform="translate(365.214 283.791)"/><path d="M119.039,163.145c-3.571-.286-10.426-7.427-10.069-10.712s7.748-10.355,10.926-9.855,9.64,7.141,9.64,10.283S122.395,163.394,119.039,163.145Z" transform="translate(280.077 366.446)"/><path d="M152.449,98.5a32.526,32.526,0,0,1-5.356-2.856c-5.784-4.463-5.784-10.033-.214-14.782a7.534,7.534,0,0,1,10.712-.5,9.176,9.176,0,0,1-.428,16,30.415,30.415,0,0,1-4.713,2.142Z" transform="translate(366.887 201.436)"/><path d="M10.669,82.419c-6.248,0-8.676-2.249-8.748-8.177S4.1,65.387,9.883,65.28c6.927,0,9.176,2,9.176,8.605S16.7,82.383,10.669,82.419Z" transform="translate(4.934 167.812)"/><path d="M131.842,19.059c-6.32,0-8.891-2.178-8.962-7.927,0-6.641,1.964-9.1,7.748-9.212,6.927,0,9.355,2.035,9.391,8.391S137.769,18.987,131.842,19.059Z" transform="translate(315.868 4.941)"/><path d="M97.671,62.261c-6.034,0-8.391-2.428-8.391-8.534s2.285-8.712,9.176-8.605c5.784,0,8.034,2.642,7.962,9S103.919,62.3,97.671,62.261Z" transform="translate(229.498 115.987)"/><path d="M53.475,87.84c6.284,0,8.712,2.214,8.784,8.141s-2.178,8.926-7.927,9c-6.927,0-9.212-2.035-9.212-8.569S47.477,87.876,53.475,87.84Z" transform="translate(115.983 225.803)"/><path d="M53.475,98.4c6.284,0,8.712,2.214,8.784,8.141s-2.178,8.926-7.927,9c-6.927,0-9.212-2.035-9.212-8.569S47.477,98.436,53.475,98.4Z" transform="translate(115.983 252.949)"/><path d="M85.781,9.177c0,6.32-2.214,8.748-8.105,8.819S68.75,15.818,68.643,10.1C68.536,3.178,70.678,1,77.069,1S85.746,3.178,85.781,9.177Z" transform="translate(176.439 2.576)"/><path d="M100.32,53.869c0-6.248,2.249-8.676,8.177-8.748s8.891,2.178,8.962,7.962c0,6.927-2,9.176-8.605,9.176S100.356,59.9,100.32,53.869Z" transform="translate(257.877 115.988)"/><path d="M150.907,117.462a8.574,8.574,0,0,1,.571-17.139,8.926,8.926,0,0,1,8.069,8.855A8.605,8.605,0,0,1,150.907,117.462Z" transform="translate(366.608 257.881)"/><path d="M96.826,142.561a8.712,8.712,0,0,1,8.212,8.712,8.5,8.5,0,0,1-9.426,8.427,8.748,8.748,0,0,1-7.784-9.141A8.926,8.926,0,0,1,96.826,142.561Z" transform="translate(225.737 366.464)"/><path d="M115.534,151.5a8.783,8.783,0,0,1-8.141,8.784,8.177,8.177,0,0,1-8.926-7.927,8.319,8.319,0,0,1,8.5-9.355,8.5,8.5,0,0,1,8.569,8.5Z" transform="translate(252.946 367.593)"/><path d="M151.464,89.28a8.748,8.748,0,0,1,8.784,8.141,8.141,8.141,0,0,1-7.891,8.962,8.355,8.355,0,0,1-9.355-8.5,8.534,8.534,0,0,1,8.462-8.605Z" transform="translate(367.586 229.505)"/><path d="M139.06,65.354c0,2.856-6.034,8.569-8.676,8.427s-8.605-6.034-8.462-8.676,6.034-8.605,8.712-8.462S139.2,62.676,139.06,65.354Z" transform="translate(313.399 145.6)"/><path d="M76.358,72.821c-2.642,0-8.534-5.606-8.676-8.462s5.606-8.534,8.462-8.676,8.534,5.606,8.676,8.462S79.215,72.678,76.358,72.821Z" transform="translate(173.973 143.133)"/><path d="M65.318,83.341c-2.642,0-8.534-5.606-8.676-8.462S62.248,66.345,65.1,66.2s8.534,5.606,8.676,8.462S68.175,83.341,65.318,83.341Z" transform="translate(145.594 170.175)"/><path d="M64.144,137.621c-2.892,0-8.605-6.034-8.462-8.676s6.034-8.605,8.712-8.462,8.569,6.034,8.426,8.712S66.786,137.763,64.144,137.621Z" transform="translate(143.126 309.705)"/><path d="M141.194,84.821c-2.678,0-8.569-5.57-8.712-8.427s5.57-8.569,8.462-8.712,8.534,5.57,8.676,8.462S144.05,84.678,141.194,84.821Z" transform="translate(340.544 173.979)"/><path d="M83.343,140.353c-.214,3-6.106,8.534-8.819,8.319s-8.534-6.106-8.319-8.819,6.106-8.534,8.819-8.319S83.7,137.6,83.343,140.353Z" transform="translate(170.166 338.107)"/><path d="M132,128.828c0-5.891.678-6.463,7.141-6.427s6.784.821,6.641,7.712c0,5.32-1.071,6.106-7.5,6C132.5,136.041,132,135.255,132,128.828Z" transform="translate(339.312 314.641)"/><path d="M127.673,146.689c-6.034,0-6.713-.714-6.713-6.784s.5-7.141,7.427-6.927c5.891,0,6.356.607,6.284,7.141S134.1,146.725,127.673,146.689Z" transform="translate(310.933 341.769)"/><path d="M144.858,194.225a7.141,7.141,0,0,1-6.713,6.713,6.906,6.906,0,1,1,6.57-6.748Z" transform="translate(336.737 481.045)"/><path d="M170.475,166.183a7.141,7.141,0,0,1,7.141,6.427,7.006,7.006,0,1,1-7.141-6.57Z" transform="translate(420.592 426.821)"/><path d="M193.145,147.759a12.961,12.961,0,0,1-4.427-1.928,10.14,10.14,0,0,1-2.428-4.82c-.464-2.142,5.142-7.141,7.141-7.141a12.033,12.033,0,0,1,6.32,7.141,12.568,12.568,0,0,1-6.606,6.748Z" transform="translate(478.796 344.126)"/><path d="M193.835,71.8a19.175,19.175,0,0,1-4.784-2.571,7.677,7.677,0,0,1-1.821-4.249c-.321-2.178,5.284-7.141,7.391-6.891a11.925,11.925,0,0,1,6.248,7.141,12.5,12.5,0,0,1-7.034,6.57Z" transform="translate(481.248 149.297)"/><path d="M67.414,82.9c0,3.571-1.428,5.07-4.927,5.142-4.07,0-5.534-1.428-5.356-5.57,0-3.571,1.714-4.785,5.356-4.713S67.414,79.333,67.414,82.9Z" transform="translate(146.819 199.89)"/><path d="M185.49,161.071c0,3.571-1.357,5.106-4.856,5.213-4.177,0-5.57-1.321-5.427-5.5,0-3.571,1.678-4.82,5.284-4.785S185.455,157.536,185.49,161.071Z" transform="translate(450.352 401.012)"/><path d="M143.748,84.127c0,3.571-1.285,5.213-4.713,5.356s-5.356-1.214-5.57-4.5c-.286-4.106,1.214-5.784,5.142-5.784S143.676,80.628,143.748,84.127Z" transform="translate(342.989 203.594)"/><path d="M61.547,110.4c3.571,0,5.213,1.321,5.356,4.713s-1.214,5.356-4.5,5.57c-4.106.286-5.784-1.214-5.784-5.142S57.977,110.471,61.547,110.4Z" transform="translate(145.544 283.795)"/><path d="M33.353,168.946c0,3.571-1.25,5.32-4.57,5.5s-5.463-1.143-5.713-4.356c-.321-4.035,1.214-5.856,5-5.927S33.21,165.519,33.353,168.946Z" transform="translate(59.196 421.986)"/><path d="M122.159,61.837c0,3.571-1.214,5.356-4.5,5.57s-5.5-1.107-5.784-4.285c-.357-4.035,1.178-5.891,4.927-6S122.017,58.445,122.159,61.837Z" transform="translate(287.454 146.832)"/><path d="M89.508,61.547c0,3.571-1.285,5.213-4.713,5.356s-5.356-1.214-5.57-4.5c-.286-4.106,1.214-5.784,5.142-5.784S89.436,57.977,89.508,61.547Z" transform="translate(203.563 145.551)"/><path d="M158.558,177.605c3.571,0,4.892,1.607,4.856,5.213s-1.821,5.392-5.856,5.07c-3.213-.25-4.606-2-4.427-5.641S154.809,177.5,158.558,177.605Z" transform="translate(393.591 456.532)"/><path d="M6.847,131.52c3.571,0,5.213,1.321,5.356,4.713s-1.214,5.356-4.5,5.57c-4.106.286-5.784-1.214-5.784-5.142S3.348,131.591,6.847,131.52Z" transform="translate(4.935 338.085)"/><path d="M88.054,137.624c0,3.571-1.428,5.07-4.927,5.142-4.07,0-5.534-1.428-5.356-5.57,0-3.571,1.714-4.785,5.356-4.713S88.054,134.053,88.054,137.624Z" transform="translate(199.875 340.551)"/><path d="M120.69,138.511c0,3.571-1.357,5.106-4.856,5.213-4.178,0-5.57-1.321-5.427-5.5,0-3.571,1.678-4.82,5.284-4.785S120.655,134.976,120.69,138.511Z" transform="translate(283.781 343.02)"/><path d="M171.487,25.44c3.571,0,5.213,1.285,5.356,4.713s-1.214,5.356-4.5,5.57c-4.106.286-5.784-1.214-5.784-5.142S168.131,25.511,171.487,25.44Z" transform="translate(428.15 65.401)"/><path d="M60.127,186.72c3.571,0,5.213,1.285,5.356,4.713s-1.214,5.356-4.5,5.57c-4.106.286-5.784-1.214-5.784-5.142S56.628,186.791,60.127,186.72Z" transform="translate(141.894 479.98)"/><path d="M139.763,13.668c-3.571,0-5.213-1.285-5.356-4.713s1.214-5.356,4.5-5.57c4.106-.286,5.784,1.214,5.784,5.142S143.262,13.6,139.763,13.668Z" transform="translate(345.474 8.618)"/><path d="M30.8,34.229a56.414,56.414,0,0,1-5.284-5.713c-.75-1.107,4.142-6.141,5.213-5.392,1.928,1.321,4.57,3.285,4.642,5.07S32.728,31.837,30.8,34.229Z" transform="translate(65.39 59.254)"/><path d="M14.548,59.836a61.376,61.376,0,0,1-5.677,5.32c-1.071.75-6.177-4.07-5.427-5.177C4.765,58.05,6.693,55.372,8.478,55.3S12.156,57.8,14.548,59.836Z" transform="translate(8.66 142.157)"/><path d="M44.788,179.836a61.38,61.38,0,0,1-5.677,5.32c-1.071.75-6.177-4.07-5.427-5.177,1.321-1.928,3.249-4.606,5.034-4.677S42.4,177.8,44.788,179.836Z" transform="translate(86.394 450.623)"/><path d="M69.748,6.606a61.376,61.376,0,0,1-5.677,5.32c-1.071.75-6.177-4.07-5.427-5.177C60.108,4.821,61.893,2,63.678,2S67.249,4.678,69.748,6.606Z" transform="translate(150.554 5.147)"/><path d="M143.718,116.689a42.841,42.841,0,0,1-5.927,5.07c-1.214.714-6.034-4.356-5.213-5.356,1.428-1.857,3.571-4.427,5.249-4.463S141.468,114.69,143.718,116.689Z" transform="translate(340.555 287.754)"/><path d="M185.141,40.962c.536,2.821-1.107,3.035-3.571,2.928-3.571,0-3.285,0-3.571-3.856,0-2.892,1.178-3.178,3.571-3.071C185.141,37.142,185.141,37.142,185.141,40.962Z" transform="translate(457.557 94.975)"/><path d="M129.941,71.607c0,3.928,0,3.82-3.571,3.963-2.357,0-3.571-.214-3.571-3.071.214-3.785,0-3.571,3.571-3.856C128.87,68.536,130.655,68.822,129.941,71.607Z" transform="translate(315.663 176.41)"/><path d="M75.521,71.44c.393,2.249-.214,3.571-3.035,3.321-3.82-.179-3.571,0-3.856-3.571,0-2.357.214-3.571,3.071-3.571C75.521,67.977,75.521,67.763,75.521,71.44Z" transform="translate(176.416 173.827)"/><path d="M97.614,60.571c0,3.571,0,3.571-3.82,3.571-2.856,0-3.178-1.107-3.071-3.571C90.9,57,90.722,57.25,94.579,57,97.4,57.214,98.006,58.464,97.614,60.571Z" transform="translate(233.162 146.528)"/><path d="M20.021,156.567c0,3.928,0,3.821-3.571,3.963-2.357,0-3.571-.214-3.571-3.071.214-3.785,0-3.571,3.571-3.856C18.95,153.5,20.45,153.782,20.021,156.567Z" transform="translate(33.109 394.804)"/><path d="M63.987,104.679c.5,3.571-2.142,2.535-3.856,2.535-3.142,0-2.964,0-3.071-4.249,0-3.571,2.178-2.535,3.928-2.535C64.308,100.395,64.344,100.573,63.987,104.679Z" transform="translate(146.675 257.809)"/><path d="M108.174,61.091c0,3.571,0,3.571-3.82,3.571-2.856,0-3.178-1.107-3.071-3.571,0-3.571,0-3.321,3.856-3.571C107.959,57.591,108.566,58.841,108.174,61.091Z" transform="translate(260.307 147.864)"/><path d="M70.326,128.827c-3.571.5-2.535-2.142-2.535-3.856,0-3.142,0-2.964,4.249-3.071,3.571,0,2.535,2.214,2.535,3.928C74.61,129.005,74.432,129.041,70.326,128.827Z" transform="translate(173.9 313.357)"/><path d="M163.374,18.371c0,3.571,0,3.571-3.82,3.571-2.892,0-3.178-1.178-3.071-3.571,0-3.571,0-3.321,3.892-3.571C163.232,14.871,163.731,16.157,163.374,18.371Z" transform="translate(402.2 38.05)"/><path d="M61.6,89.353c2.785-.536,3.035,1.107,2.928,3.571,0,3.571,0,3.321-3.856,3.571-2.892,0-3.178-1.178-3.071-3.571C57.746,89.282,57.639,89.282,61.6,89.353Z" transform="translate(148.025 229.432)"/><path d="M40.753,12.71c1.321,1.857,3.035,3.214,2.928,4.392s-1.785,2.642-3.106,3.249S36.433,17.816,37,16.566A23.316,23.316,0,0,1,40.753,12.71Z" transform="translate(94.927 32.678)"/><path d="M141.164,93.834a23.6,23.6,0,0,1-4,3.571c-1.285.643-4.32-2.214-3.571-3.571s2.142-2.964,3.321-3.071S139.272,92.477,141.164,93.834Z" transform="translate(343.109 233.306)"/><path d="M141.166,105.068c-1.857,1.321-3.178,3.035-4.356,2.928s-2.678-1.785-3.285-3.106,2.535-4.106,3.785-3.571a23.317,23.317,0,0,1,3.856,3.749Z" transform="translate(343.035 260.277)"/><path d="M103.452,141.382c-1.428-1.892-3.142-3.178-3.071-4.392s1.892-2.321,2.928-3.571c1.25,1.25,3,2.357,3.571,3.856C107.059,138.1,104.988,139.633,103.452,141.382Z" transform="translate(258.03 342.969)"/><path d="M92.484,133.15c1.5,1.785,3.571,3.356,3.285,4.106-.536,1.5-2.321,2.571-3.571,3.785-1.035-1.178-2.785-2.357-2.856-3.571S91.02,135.007,92.484,133.15Z" transform="translate(229.651 342.275)"/><path d="M129.923,126.051a23.106,23.106,0,0,1-4.356,3.356c-1.357.536-4.213-2.535-3.571-3.57s2.285-2.821,3.571-2.856S128.031,124.551,129.923,126.051Z" transform="translate(313.36 316.132)"/><path d="M22.883,37.211a23.1,23.1,0,0,1-4.356,3.356c-1.357.536-4.213-2.535-3.571-3.571s2.285-2.821,3.571-2.856S20.991,35.854,22.883,37.211Z" transform="translate(38.209 87.764)"/><path d="M84.471,70.64a9.963,9.963,0,0,1-3.035,1.25c-.428,0-1.357-1.357-1.25-1.535a4.928,4.928,0,0,1,2.071-1.678C82.543,68.569,83.114,69.533,84.471,70.64Z" transform="translate(206.1 176.52)"/><path d="M201.138,96.48c-.928-1.214-1.714-1.857-1.892-2.642s.786-1.107,1.214-1.678a9.033,9.033,0,0,1,2.035,1.785C202.673,94.267,202,95.159,201.138,96.48Z" transform="translate(512.114 236.908)"/><path d="M201.129,103c.75,1.357,1.535,2.214,1.357,2.535a8.211,8.211,0,0,1-2.035,1.785c-.428-.571-1.321-1.214-1.214-1.678A10.082,10.082,0,0,1,201.129,103Z" transform="translate(512.123 264.773)"/><path d="M70.4,79c1.107,1.178,2.071,1.892,1.964,2.178a4.535,4.535,0,0,1-1.678,2.071S69.15,82.428,69.15,82A9.5,9.5,0,0,1,70.4,79Z" transform="translate(177.753 203.08)"/><path d="M188.48,146.15c1.107,1.178,2.071,1.892,1.964,2.178a4.534,4.534,0,0,1-1.678,2.071s-1.535-.821-1.535-1.25a9.5,9.5,0,0,1,1.25-3Z" transform="translate(481.283 375.693)"/><path d="M49.92,189.129c-1.357.75-2.214,1.535-2.535,1.357A7.641,7.641,0,0,1,45.6,188.45c.571-.428,1.25-1.321,1.678-1.214A15.677,15.677,0,0,1,49.92,189.129Z" transform="translate(117.217 481.285)"/><path d="M144.969,188.87c.75,1.357,1.535,2.214,1.357,2.535a8.21,8.21,0,0,1-2.035,1.785c-.428-.571-1.321-1.214-1.214-1.678A14.328,14.328,0,0,1,144.969,188.87Z" transform="translate(367.762 485.507)"/><path d="M93.11,201.129c-1.357.75-2.214,1.535-2.535,1.357a7.64,7.64,0,0,1-1.785-2.035c.571-.428,1.25-1.321,1.678-1.214A14.328,14.328,0,0,1,93.11,201.129Z" transform="translate(228.239 512.131)"/><path d="M100.64,203.511a9.639,9.639,0,0,1-1.25-3.035c0-.428,1.357-1.357,1.535-1.25A4.927,4.927,0,0,1,102.6,201.3C102.711,201.618,101.747,202.3,100.64,203.511Z" transform="translate(255.486 512.106)"/></g></svg>