<svg xmlns="http://www.w3.org/2000/svg" width="742.995" height="741.893" viewBox="0 0 742.995 741.893"><g transform="translate(0 0)"><path d="M192.579,370.554c-4.927.75-8.569-1.964-12.033-5.427a16,16,0,0,1-5.749-12.247c0-4.82.357-9.355,4.106-12.89s6.213-7.141,11.64-7.141c.464,0,.928-.464,1.393-.714-.357-.321-.714-.893-1.107-.928-8.676-.464-11.569-7.462-15.318-13.5-2.678,6.927-6.534,12.533-14.711,13.5-.464,0-.857.571-1.285.857a12.434,12.434,0,0,1,1.357.821c3.142,2.749,6.248,5.534,9.462,8.248,2.142,1.821,0,4.606,1.321,6.284s2.464,3.071,0,4.82c.714,6.748-4.856,9.6-8.5,13.6-1.178,1.285-9.141,1.857-11.069,1.892-5.463,0-8.141-3.928-11.961-6.57s-1.678-7.534-4.713-10.176a16.925,16.925,0,0,0,1.785-8.569c4.213-3.035,6.141-9,12.354-9.462.464,0,.893-.536,1.357-.821-.464-.286-.893-.75-1.393-.821a18.1,18.1,0,0,1-9.855-7.141c-1.964-2.214-1.821-5.606-3.571-7.962-2,2.571-3.892,5.284-6.07,7.748-9.783,10.926-26.6,6.141-31.492-7.141a17.21,17.21,0,0,1,5-19.781c2.107-1.857,6.177-2.892,6.034-5.677,0-1.785-4.07-3.106-5.856-5.034a19.174,19.174,0,0,1,5.32-30.564c.214,0,.357-.428.607-.571l3.571-1.821a22.422,22.422,0,0,0-3.785-2.392,15.818,15.818,0,0,1-8.962-9.033c-.428-.964-.464-2.071-.821-3.071a12.6,12.6,0,0,0-1-1.785c-.607.607-1.75,1.25-1.75,1.821a10.712,10.712,0,0,1-4.927,8.284c-11,9.748-23.423,4.57-29.957-4.249,0-4.142-3-7.891-1.714-12.14a24.281,24.281,0,0,1,3.178-8.069,17.853,17.853,0,0,1,20.995-7.141c7.141,2.5,8.319,3.571,11.961,11.89.428.964,1.571,1.642,2.357,2.428.286-1,.571-2,.893-3a19.067,19.067,0,0,1,11.961-12.39l1.5-.607a16.065,16.065,0,0,0-1.607-1.107,20.781,20.781,0,0,1-11.1-10.248c-.678-1.535-1.571-2.678-2.749.536a17.638,17.638,0,0,1-6.927,7.141,18.138,18.138,0,0,1-16.6,1.535c-6.284-2.285-13.282-10.712-12.39-17.853a23.887,23.887,0,0,1,4.82-12.675c6.641-8.676,22.244-8.748,28.314,0,.928,1.357,2.571,2.428,2.964,3.892.75,2.964,1.75,1.143,2.428.25a38.916,38.916,0,0,1,3.106-4.642c1.964-1.857,4.392-3.213,6.5-4.927,1.071-.893,2.856-1.25-.357-2.856a18.1,18.1,0,0,1-9.6-16.139,19.531,19.531,0,0,1,14.068-19.6c.893-.25,1.75-.714,2.642-1.035-.821-.821-1.785-2.392-2.428-2.249-4.356.75-6.141-2.714-8.212-5.106a18.46,18.46,0,0,1,0-24.458c4.856-6,13.033-8.962,23.066-4.642a13.461,13.461,0,0,1,8.426,9.676,20.282,20.282,0,0,0,1.714,4.427c0,.393.678.607,1.035.893a3.857,3.857,0,0,0,.607-1.428,14.282,14.282,0,0,1,6.713-10.89A18.353,18.353,0,0,1,159.3,98.049a20.388,20.388,0,0,1,17.6,10c1.464,2.535,1.678,2.464,3.392,0a16.1,16.1,0,0,1,12.1-8.427c.5,0,1.25-1.071,1.25-1.642s-.786-1.607-1.25-1.642c-5.677-.25-8.5-4.677-10.39-8.641a17.853,17.853,0,0,1-1-14.282,19.245,19.245,0,0,1,9.748-11.5,18.21,18.21,0,0,1,17.246.25,12.64,12.64,0,0,1,8.105,10.069,2.035,2.035,0,0,0,1.357,1.535,2.642,2.642,0,0,0,1.964-1c1.357-1.678,2.535-3.571,3.82-5.249,7.141-9.6,24.994-7.57,30.635,5.57A18.567,18.567,0,0,1,251.6,92.264c-1.714,1.892-3.356,4.677-5.5,5.213-3.785.964-2.285,2.357-.571,3.178a16.175,16.175,0,0,1,9.962,13.247c0,.464.536.928.786,1.357a7.575,7.575,0,0,0,.893-1.285c2.642-6.713,6.641-11.854,14.568-12.39a4.856,4.856,0,0,1,6.106-1.571,74.979,74.979,0,0,1,10.712,4.856,8.141,8.141,0,0,1,2.428,2.392c1.642,2,3.249,4.07,4.856,6.106a51.173,51.173,0,0,1,4.285-5.927c8.426-8.641,18.5-8,27.636.286,6.07,5.5,6.106,18.888,1.678,23.423-3.249,3.356-6.213,7.141-11.211,8.177-.393,0-.714.607-1.071.928a5.355,5.355,0,0,0,1.428.714,16.139,16.139,0,0,1,13.925,13.925,5.534,5.534,0,0,0,1.321,2.035c.357.428.786.785,1.214,1.214a6,6,0,0,0,.821-1.357,41.2,41.2,0,0,1,1.785-5.249,16.032,16.032,0,0,1,15.5-9.069,15.246,15.246,0,0,1,15.318,9c4.535,10,2.107,19.959-8.676,24.708a17.46,17.46,0,0,1-23.78-12.283c-.214-.786-.536-1.5-.821-2.249-.786.786-1.892,1.428-2.357,2.392s-.571,3.214-1.357,4.57c-1.357,2.321-3.57,4.213-4.642,6.641s-6.606.964-3.928,4.463c1.357,1.785,4.535,3,6.213,5.142a29.346,29.346,0,0,1,3.57,6.248c.75,1.642.821,1.464,1.821,0a43.2,43.2,0,0,1,7.141-8.212c4.713-3.892,10.712-2.964,16.067-2.285s12.354,10.712,12.925,16.6c.928,8.962-3.356,14.854-10.462,19.1-2.214,1.285-2.178,2.142-.536,3.571s3.571,2.535,5.284,3.82c9.6,7.141,7.57,24.994-5.534,30.635a18.781,18.781,0,0,1-19.21-2.249c-.821-.786-1.571-1.678-2.428-2.428a20.352,20.352,0,0,1-5.463-8.891,48.311,48.311,0,0,1-4.32,8.712,14.282,14.282,0,0,1-9.283,6.463c-.428,0-.786.571-1.178.893a10.7,10.7,0,0,0,1.393.786,19.531,19.531,0,0,1,12.283,12.1c.5,1.285.571,1.214,1.678-.393a26.742,26.742,0,0,1,7.962-8.534c9.284-5.391,16.282-3.106,22.887,4.428a17.317,17.317,0,0,1,3.356,4.606c5.427,13.318-5.713,23.744-16.21,25.458a21.637,21.637,0,0,1-14.568-6.891,19.029,19.029,0,0,1-3.321-4.606c-1-3.142-.786-2.678-1.928,0a17.639,17.639,0,0,1-9.819,10.426c-1.321.5-2.856,1.892-.5,3.571,1.571,1.178,2.749,2.928,4.285,4.178,5.713,4.677,5.57,15.353,2.714,20.6a19.174,19.174,0,0,1-25.279,8.784,20.5,20.5,0,0,1-8.819-8.5c-1.178-2.107-1.642-1.821-2.392-.428a18.1,18.1,0,0,1-14.282,10.712c-.857,0-1.571,1.5-2.321,2.321l2.214.786a23.137,23.137,0,0,1,13.033,14.854,14.782,14.782,0,0,1-5.57,13.854c-2.535,2-3.892,5-7.927,5.82-7.641,1.5-11.6,1.321-16.674-4.106-2.392-2.5-6.177-4.035-5.891-8.748,0-1.892-1.75-.321-2,.286a23.672,23.672,0,0,1-6.748,8.355,18.174,18.174,0,0,1-19.888,2.214c-11.569-6.57-13.1-16.246-8.712-25.815a15.6,15.6,0,0,1,8.855-8.427c2.142-.75.678-1.714,0-2.107a22.1,22.1,0,0,1-10.212-10.212c-.321-.643-1.25-2.249-2.178-.25a14.639,14.639,0,0,1-12.5,9.176c-.393,0-.75.607-1.107.928a9.746,9.746,0,0,0,1.214,1.214c1.785,1.25,3.57,2.392,5.356,3.571,6.784,4.82,8.069,11.819,7.141,19.352-.857,5.677-9.355,14.568-16.21,14.282Zm76.481-36.491a2.571,2.571,0,0,0-.321-.75,1.249,1.249,0,0,0-.678-.464c-7.57-.428-11.176-5.713-14.282-11.64-.321-.643-.643-1.321-.928-2a12.068,12.068,0,0,1-.821,2.25c-2.5,4.177-4.785,8.462-9.89,10.319-1.5.571-3.571,2.749.607,2.892,3.785,4.249,9.212,7.355,9.355,14.032,0,.428.571.821.857,1.25a7.921,7.921,0,0,0,.821-1.393A19.459,19.459,0,0,1,265.74,336.24a19.957,19.957,0,0,0,3.321-2.178ZM137.878,229.874c.357-.321.893-.571,1-.964a18.281,18.281,0,0,1,12.568-12.64c.393,0,.714-.607,1.071-.928-.5-.25-.928-.536-1.428-.75-6.32-2.607-11.176-6.5-12.211-13.818a5.679,5.679,0,0,0-.643-1.428c-.357.321-.893.536-1,.928a18.281,18.281,0,0,1-12.568,12.64c-.393,0-.714.607-1.071.928.464.25.928.536,1.428.75,6.32,2.607,11.176,6.5,12.211,13.818A5.249,5.249,0,0,0,137.878,229.874Zm91.763,24.994a10.717,10.717,0,0,0-1.428-.75,19.46,19.46,0,0,1-12.176-12.1c-.178-.5-.464-.964-.678-1.428-.357.321-.893.536-1,.928a18.21,18.21,0,0,1-12.568,12.64c-.393,0-.714.607-1.071.928a10.713,10.713,0,0,0,1.428.75,19.46,19.46,0,0,1,12.176,12.1c0,.5.464.964.678,1.428.357-.321.893-.536,1-.928A18.21,18.21,0,0,1,228.57,255.8a7.285,7.285,0,0,0,1.071-1.036ZM217.18,152.714c.214-.428.5-.893.678-1.357A19.424,19.424,0,0,1,230,139.181c.464,0,.928-.464,1.392-.678-.321-.357-.571-.893-.964-1a18.174,18.174,0,0,1-12.6-12.568c0-.428-.643-.714-.964-1.035a12.85,12.85,0,0,0-.714,1.393,19.424,19.424,0,0,1-12.14,12.176c-.464.178-.928.464-1.393.678.286.357.571.893.964,1a18.174,18.174,0,0,1,12.6,12.568C216.181,152.107,216.716,152.392,217.18,152.714ZM200.4,98.906a7.141,7.141,0,0,0,1.821.821c7.141.607,10.712,6,13.782,11.354a9.78,9.78,0,0,1,.75,2.249,18.607,18.607,0,0,1,1-1.857,58.59,58.59,0,0,1,5.106-7.141,47.278,47.278,0,0,1,5.82-4.32,2.428,2.428,0,0,0,.286-1.714,22.28,22.28,0,0,1-10.712-10.712c-.393-.678-1.25-2.214-2.142,0a12.927,12.927,0,0,1-1.464,2.785,21.888,21.888,0,0,1-12,8.034A3.716,3.716,0,0,0,200.4,98.906ZM344.577,218.019c-.214-.5-.286-1.285-.607-1.428a18.638,18.638,0,0,1-9.783-9.533c-.893-1.714-2.214-1.678-3.571.643a14.853,14.853,0,0,1-12.1,8.641c-.5,0-.928.464-1.393.714.357.321.714.857,1.107.928a16,16,0,0,1,9.855,7.141,37.958,37.958,0,0,1,3.749,8.177,21.959,21.959,0,0,1,4.856-8.248c2.321-1.892,3.57-5.034,7.141-5.534C344.22,219.376,344.363,218.519,344.577,218.019Zm-193.7-81.373a8.351,8.351,0,0,0-1.071-.893,14.854,14.854,0,0,1-9.248-12.318,1.714,1.714,0,0,0-3.285,0c-.893,5.891-4.927,8.712-9.962,10.712a17.068,17.068,0,0,0-3.571,2.678,28.238,28.238,0,0,1,3.928.714,17.854,17.854,0,0,1,3.57,1.678c3.571,2.142,4.749,6.391,8.212,8.569,2.714-2.856,5.427-5.749,8.177-8.534a12.924,12.924,0,0,1,2.035-1.25A15.242,15.242,0,0,0,150.875,136.646Zm103.974,94.87c.214-.536.428-1,.607-1.5a21.1,21.1,0,0,1,11.5-12c.714-.321,1.464-.571,2.214-.857-.75-.286-1.5-.536-2.214-.857a32.777,32.777,0,0,1-3.571-1.714c-4.427-2.785-6.284-7.605-9.141-11.64a18.139,18.139,0,0,1-9.426,11.64c-.25,0-.714,0-.714.25,0,.964-.357,2.678,0,2.821a14.889,14.889,0,0,1,9.676,13.068C253.814,231.016,254.457,231.266,254.85,231.516Zm53.558-14.282c-.25-.393-.464-.964-.786-1.071a18.138,18.138,0,0,1-12.747-12.533c0-.428-.607-.75-.928-1.107a10.462,10.462,0,0,0-.75,1.393,19.388,19.388,0,0,1-12.14,12.211,10.719,10.719,0,0,0-1.428.714l1.857,1a18.6,18.6,0,0,1,10.069,9.034c.786,1.928,2.142,1.785,3.321-.25a16.032,16.032,0,0,1,12.033-8.819,5.572,5.572,0,0,0,1.464-.357ZM177.583,161.569c-.321.357-.821.678-.928,1.107a19.5,19.5,0,0,1-13.39,13c5.606,3.356,11.5,6.463,13.39,13.568a4.928,4.928,0,0,0,.821,1.357,14.281,14.281,0,0,0,.857-1.357c1.964-4.535,4.035-8.819,9.248-10.712,1.75-.643,1.678-2.178-.643-3.571a14.854,14.854,0,0,1-8.641-12.1A3.358,3.358,0,0,0,177.583,161.569Zm14.282,53.558-1.5-.607a21.1,21.1,0,0,1-12.033-11.354c-.321-.714-.571-1.464-.857-2.214-.286.75-.536,1.5-.857,2.214a27.532,27.532,0,0,1-1.75,3.571c-2.749,4.427-7.57,6.284-11.6,9.141a18.138,18.138,0,0,1,11.64,9.426c0,.25,0,.714.25.714.964,0,2.678.357,2.821,0a14.889,14.889,0,0,1,13.068-9.676c.286-.107.536-.75.785-1.143ZM186.938,293.5c0-.5-.214-1.321-.536-1.464a15,15,0,0,1-9.783-12.961c0-.357-.643-.643-.964-1a13.319,13.319,0,0,0-.714,1.428,21.423,21.423,0,0,1-11.319,12.211,16.591,16.591,0,0,1-2.249.75c.643.321,1.285.678,1.964.964a21.424,21.424,0,0,1,11.676,11.854,9,9,0,0,0,1.071,1.607l.607-1.464a16.531,16.531,0,0,1,9.569-10.5c.286-.107.393-.893.643-1.357ZM294.054,192.49a19.275,19.275,0,0,1,.786-2.321,18.923,18.923,0,0,1,9.1-10.033c1.964-.786,1.892-2.214-.357-3.392a15.139,15.139,0,0,1-8.784-12,4.535,4.535,0,0,0-.607-1.428c-.357.286-.928.5-1.035.857a18.139,18.139,0,0,1-12.6,12.675c-.393,0-.678.643-1,.964a10.708,10.708,0,0,0,1.428.714,19.388,19.388,0,0,1,12.14,12.211,18.2,18.2,0,0,0,.964,1.714ZM253.029,308.6a13.37,13.37,0,0,0,.678-1.464,19.317,19.317,0,0,1,12.283-12.069,7.925,7.925,0,0,0,1.393-.821,10,10,0,0,0-1.25-.893,16.781,16.781,0,0,1-10.712-9.176c-.75-1.857-2.214-1.821-3.571.5a15.1,15.1,0,0,1-12.068,8.712,4.32,4.32,0,0,0-1.428.678c.321.321.607.857,1,.964a18.067,18.067,0,0,1,12.6,12.675c.214.428.928.678,1.107.964ZM255.1,166.1c-.571.821-1.035,1.393-1.392,2a15.746,15.746,0,0,1-12.068,8.748,4.534,4.534,0,0,0-1.428.607c.286.357.5.928.857,1.035a18.067,18.067,0,0,1,12.675,12.6c0,.393.643.678.964,1a13.316,13.316,0,0,0,.714-1.428,21.423,21.423,0,0,1,11.354-12.14,16.6,16.6,0,0,1,2.249-.75c-.643-.321-1.321-.607-1.964-.964-4.07-2.249-8.284-4.249-9.962-9.141-.179-.5-1.107-.857-1.964-1.5Zm40.633-38.848c-.393.393-.964.75-1.178,1.214a21.71,21.71,0,0,1-10.176,10.212c-.607.321-2.321,1.285-.321,2.178a14.854,14.854,0,0,1,9.141,12.318c0,.464.571.857.857,1.285a4.428,4.428,0,0,0,.786-1.357,13.461,13.461,0,0,1,5.927-8.605,70.625,70.625,0,0,1,9.248-4.82,19.924,19.924,0,0,1-9.462-6.034c-1.321-1.714-2.607-3.571-3.892-5.213ZM150.911,292.43l-1.357-.857a42.31,42.31,0,0,1-6.855-4.07c-1.964-1.714-3.071-5.427-5.07-5.891-2.714-.607-2.749,3.963-5.142,5.32s-4.427,3.106-6.641,4.642h-.857c-1.5.321-1.928.714-.321,1.75a55.486,55.486,0,0,1,5.284,3.856,16.96,16.96,0,0,1,6.034,11.176c2.249-3.571,2.571-8.534,6.677-11.069,2.249-1.393,4.606-2.678,6.891-4Zm152.926,2.035-2.107-1.178a15.746,15.746,0,0,1-8.605-12.211c0-.5-.464-.928-.714-1.393a9.32,9.32,0,0,0-.964,1.107,40.7,40.7,0,0,1-3.963,6.891c-5.749,6.606-5.784,6.463,0,12.783,1.785,2,3.249,4.356,4.856,6.534a51.824,51.824,0,0,1,4.927-6.5c1.464-1.464,2.357-4,5.213-3.892.393.178.785-1.036,1.357-2ZM152.91,175.994c-.893-.357-1.571-.536-2.214-.821a23.815,23.815,0,0,1-10-8.105c-1.714-2.464-1.714-2.428-3.571,0-.643.857-1.393,1.714-2.107,2.5-5.463,5.856-5.284,5.749-.428,12.64a34.922,34.922,0,0,1,3.035,8.034c1.607-2.5,3-5.142,4.82-7.462a15.6,15.6,0,0,1,8.569-5.891A11.568,11.568,0,0,0,152.91,175.994Zm64.27,12.89c.25-.571.464-1.071.714-1.535a17.5,17.5,0,0,1,13.282-9.176c-4.713-3.106-10.462-5.106-12.426-11.247a16.64,16.64,0,0,0-1-2.142c-.25-.464-.5-.928-.786-1.393-.286.393-.75.714-.893,1.143a16.853,16.853,0,0,1-9.6,11.069c-.321,0-.25,2.571,0,2.678a15.889,15.889,0,0,1,8.891,8.962C215.645,187.884,216.43,188.277,217.18,188.884Zm75.731,56.486a7.714,7.714,0,0,0-1.285,1.535,14.568,14.568,0,0,1-7.355,7.141c-2.571,1.143-2.357,1.75,0,3.892a19.531,19.531,0,0,1,7.891,13.068c2.678-4.142,4.642-8.855,9.033-11.676a24.609,24.609,0,0,1,3.571-1.75c.714-.321,1.5-.5,2.249-.786l-2-.928c-4.356-2.249-8.6-4.606-10.283-9.712-.321-.464-1.143-.536-1.964-.857ZM176.547,243.8c-.464.25-1.071.357-1.357.75a20.638,20.638,0,0,1-2.464,4.035c-2.392,2.178-5.07,4.035-7.641,6.034a58.837,58.837,0,0,1,7.534,6.677,21.994,21.994,0,0,1,2.428,6.605c0,.464.428.928.678,1.428.321-.321.893-.536,1-.893a18.281,18.281,0,0,1,12.426-12.64,9.208,9.208,0,0,0,1.321-.857,14.294,14.294,0,0,0-1.357-.857,17.281,17.281,0,0,1-11.212-9.89c0-.286-.964-.321-1.5-.464Zm78.159-3.571c-.286.464-.571.928-.821,1.393-1.143,2.071-2.142,4.213-3.392,6.213-2.357,3.571-6.784,4.677-10.069,7.141a22.173,22.173,0,0,1,10.712,7.141c.643.786.607,2.178,1.285,2.785a4.177,4.177,0,0,0,2.714.464,18.817,18.817,0,0,1,9.6-9.462c.714-.464,2.071-1.214,0-2.142a14.461,14.461,0,0,1-9.1-12.39,5.708,5.708,0,0,1-1.071-1.035Zm12.461-102.154c-.5-.214-1.035-.357-1.5-.607a15.925,15.925,0,0,1-8.569-12.1,4.536,4.536,0,0,0-.643-1.428c-.321.607-.785,1.143-1.035,1.75a21.423,21.423,0,0,1-11.533,11.783c-.714.321-1.428.571-2.178.857a20.345,20.345,0,0,1,2.214.857,38.706,38.706,0,0,1,5.392,3.285c6.106,5.142,6.034,5.142,12.533-.286,1.428-1.178,3.142-2,4.677-3.035A1.555,1.555,0,0,0,267.168,138.075ZM149.34,253.154a6.713,6.713,0,0,1-2.214-.75,17.389,17.389,0,0,1-8.248-11.569,6.819,6.819,0,0,0-.893-2.035,11.389,11.389,0,0,1-.821,2.178,48.73,48.73,0,0,1-3.356,5.392,20.923,20.923,0,0,1-10,6.606c3.285,2.464,7.57,3.571,9.926,7.141a35.712,35.712,0,0,0,1.857,3.571c1.035,1.285,2.678,1.393,3.249-.25a15,15,0,0,1,8.462-8.248C148.055,254.618,148.519,253.832,149.34,253.154Zm65.769,26.779c-.25.464-.571.893-.786,1.393-2.071,4.392-4.035,8.712-9.176,10.712-1.821.678-1.857,2.285.464,3.571a12.818,12.818,0,0,1,7.141,7.5c.75,2.142,1.857,1.75,4.035-.5,3.178-3.321,6.106-7.141,11.461-7.141.464,0,.928-.428,1.393-.678-.321-.321-.607-.857-1-.964a18.317,18.317,0,0,1-12.6-12.5,3.962,3.962,0,0,0-.928-1.535Zm11.212-63.056c0-.536,0-1.428-.321-1.535a18.531,18.531,0,0,1-9.5-9.5c-.393-.643-1.285-2.249-2.178-.286a14.711,14.711,0,0,1-12.318,9.212c-.464,0-.893.5-1.357.786.428.286.786.75,1.25.857A19.781,19.781,0,0,1,214.324,228.2a14.569,14.569,0,0,0,1.036,1.785,7.892,7.892,0,0,1,.714-2.249c2.571-3.571,4.213-8.319,9.319-9.6.393-.25.643-.964.928-1.392Zm-48.417-64.2c.214-.536.428-1.035.607-1.535a19.531,19.531,0,0,1,12.211-11.961,10.458,10.458,0,0,0,1.392-.75c-.357-.321-.678-.785-1.071-.928a16.6,16.6,0,0,1-11.212-9.712c0-.321-2.571-.25-2.678,0a16.282,16.282,0,0,1-8.962,8.926c-.571.286-.928,2.214-.893,2.249a14.282,14.282,0,0,1,9.533,12.925C176.69,152.214,177.369,152.428,177.9,152.678Z" transform="translate(154.156 153.89)"/><path d="M94.795,131.153c0,10.926-6.32,17.424-17.067,17.424s-17.21-6.356-17.21-17.282a15.746,15.746,0,0,1,16.639-17C88.189,114.122,94.759,120.442,94.795,131.153Z" transform="translate(155.429 293.743)"/><path d="M77.989,81.6c10.712,0,17.174,6.427,17.174,17.317s-6.57,17-17.531,16.96a15.782,15.782,0,0,1-16.6-16.889C61.029,88.063,67.242,81.6,77.989,81.6Z" transform="translate(156.774 209.757)"/><path d="M133.185,61c10.712,0,16.71,6.606,16.889,17.674a15.71,15.71,0,0,1-4.57,11.783,16.424,16.424,0,0,1-13.39,4.892,15.925,15.925,0,0,1-16.389-17.317C115.725,67.177,122.223,61,133.185,61Z" transform="translate(297.316 156.804)"/><path d="M117.451,77.291c0,10.962-6.284,17.531-16.96,17.531s-17.139-6.356-17.46-17.174a15.639,15.639,0,0,1,4.856-12.533,15.282,15.282,0,0,1,11.747-4.642C110.81,60.652,117.416,66.722,117.451,77.291Z" transform="translate(213.324 155.402)"/><path d="M124.322,197.49a17,17,0,0,1,17.46-17,16.71,16.71,0,0,1,16.746,17.638,16.425,16.425,0,0,1-16.96,16.532,16.853,16.853,0,0,1-17.246-17.174Z" transform="translate(319.568 463.955)"/><path d="M51.584,131.088a16.96,16.96,0,1,1-4.852-12.237,16.96,16.96,0,0,1,4.852,12.237Z" transform="translate(44.392 292.451)"/><path d="M180.482,100.932A16.96,16.96,0,1,1,185.4,113.2a16.96,16.96,0,0,1-4.915-12.265Z" transform="translate(463.93 215.919)"/><path d="M204.781,68.208a16.853,16.853,0,0,1-17.1,17.317,17.069,17.069,0,0,1-.5-34.135,16.889,16.889,0,0,1,17.6,16.817Z" transform="translate(437.917 132.064)"/><path d="M85.686,43.9A17.15,17.15,0,1,1,67.922,27.383,17.15,17.15,0,0,1,85.686,43.9Z" transform="translate(132.118 70.361)"/><path d="M34.667,115.356A16.96,16.96,0,0,1,17.778,97.789a16.567,16.567,0,0,1,17.853-16.6A16.389,16.389,0,0,1,52.055,98.218a16.889,16.889,0,0,1-17.389,17.139Z" transform="translate(45.671 208.565)"/><path d="M98.178,180a17.067,17.067,0,0,1,17.174,17.317,16.853,16.853,0,0,1-17.5,16.889,16.46,16.46,0,0,1-16.71-16.817A16.853,16.853,0,0,1,98.178,180Z" transform="translate(208.568 462.699)"/><path d="M101.035,51.534A17,17,0,0,1,84,34.11a16.71,16.71,0,0,1,17.853-16.782,16.425,16.425,0,0,1,16.532,16.96,16.853,16.853,0,0,1-17.353,17.246Z" transform="translate(215.922 44.442)"/><path d="M112.021,17.29a16.889,16.889,0,0,1,16.746,17.674,16.353,16.353,0,0,1-17.853,16.46c-9.641-.821-15.889-5.856-16.353-17.1a16.782,16.782,0,0,1,17.46-17.032Z" transform="translate(243.069 44.409)"/><path d="M123.011,17.285A16.96,16.96,0,0,1,139.9,34.853a16.639,16.639,0,0,1-17.853,16.6,16.46,16.46,0,0,1-16.46-17.032,16.924,16.924,0,0,1,17.424-17.139Z" transform="translate(271.391 44.414)"/><path d="M150.88,34.685A16.853,16.853,0,0,1,133.777,52,16.353,16.353,0,0,1,116.71,35.614a16.5,16.5,0,0,1,16.567-17.853,16.889,16.889,0,0,1,17.6,16.924Z" transform="translate(299.865 45.616)"/><path d="M161.434,35.059A17,17,0,0,1,143.9,51.983,16.6,16.6,0,0,1,127.264,34.13,16.46,16.46,0,0,1,144.3,17.777a16.889,16.889,0,0,1,17.139,17.281Z" transform="translate(327.016 45.672)"/><path d="M61.683,164.02a17.147,17.147,0,1,1-16.6-17.674A17.147,17.147,0,0,1,61.683,164.02Z" transform="translate(70.427 376.169)"/><path d="M185.717,183.024a16.889,16.889,0,0,1-17.21-17.21,16.389,16.389,0,0,1,16.5-16.96,16.639,16.639,0,0,1,17.674,16.675,17,17,0,0,1-16.96,17.5Z" transform="translate(433.13 382.553)"/><path d="M55.084,157.442a17,17,0,0,1,17.031,17.424,16.71,16.71,0,0,1-17.6,16.781,16.425,16.425,0,0,1-16.567-16.924,16.853,16.853,0,0,1,17.139-17.282Z" transform="translate(97.521 404.707)"/><path d="M213.806,143.765a17.151,17.151,0,1,1-17.781-16.5A17.151,17.151,0,0,1,213.806,143.765Z" transform="translate(461.455 327.12)"/><path d="M197.49,107.153a17,17,0,0,1-17-17.46,16.71,16.71,0,0,1,17.638-16.675,16.424,16.424,0,0,1,16.532,16.96,16.853,16.853,0,0,1-17.174,17.174Z" transform="translate(463.953 187.632)"/><path d="M113.763,197.387a16.96,16.96,0,1,1,4.9,12.288,16.96,16.96,0,0,1-4.9-12.288Z" transform="translate(292.422 463.952)"/><path d="M174.312,193.636a16.96,16.96,0,0,1-16.853-17.6,16.567,16.567,0,0,1,17.853-16.567,16.389,16.389,0,0,1,16.424,17.067,16.889,16.889,0,0,1-17.424,17.1Z" transform="translate(404.723 409.788)"/><path d="M82.716,185.869a16.96,16.96,0,0,1-17.567,16.889,16.567,16.567,0,0,1-16.6-17.853A16.389,16.389,0,0,1,65.613,168.48a16.889,16.889,0,0,1,17.1,17.389Z" transform="translate(124.661 433.052)"/><path d="M166.2,29.285a17,17,0,0,1,16.924,17.531,16.639,16.639,0,0,1-17.853,16.639,16.46,16.46,0,0,1-16.5-17A16.924,16.924,0,0,1,166.2,29.285Z" transform="translate(382.414 75.261)"/><path d="M146.4,187.307a16.96,16.96,0,1,1,4.9,12.288,16.96,16.96,0,0,1-4.9-12.288Z" transform="translate(376.325 438.041)"/><path d="M51.5,109.4a17,17,0,0,1-17.424,16.96,16.71,16.71,0,0,1-16.746-17.639,16.425,16.425,0,0,1,16.96-16.532A16.853,16.853,0,0,1,51.5,109.4Z" transform="translate(44.478 236.948)"/><path d="M74.6,55.577a17.148,17.148,0,1,1-16.567-17.71A17.148,17.148,0,0,1,74.6,55.577Z" transform="translate(103.637 97.314)"/><path d="M70.08,196.635a17.032,17.032,0,0,1,17.317-17.1,16.746,16.746,0,0,1,16.889,17.5A16.5,16.5,0,0,1,87.433,213.7,16.925,16.925,0,0,1,70.08,196.635Z" transform="translate(180.143 461.49)"/><path d="M46.286,48.48A17.067,17.067,0,0,1,63.461,65.8,16.853,16.853,0,0,1,46.036,82.686a16.46,16.46,0,0,1-16.71-16.817A16.853,16.853,0,0,1,46.286,48.48Z" transform="translate(75.362 124.62)"/><path d="M193.638,57.411a17.032,17.032,0,0,1-17.317,17.1,16.746,16.746,0,0,1-16.889-17.5,16.5,16.5,0,0,1,16.853-16.675,16.925,16.925,0,0,1,17.353,17.067Z" transform="translate(409.784 103.692)"/><path d="M214.407,133.968a16.96,16.96,0,1,1-4.9-12.288,16.96,16.96,0,0,1,4.9,12.288Z" transform="translate(462.569 299.854)"/><path d="M89.817,16.8a18.817,18.817,0,0,1,17.317,16.532,18.71,18.71,0,0,1-16.96,17.853A18.817,18.817,0,0,1,73,34.546,18.71,18.71,0,0,1,89.817,16.8Z" transform="translate(187.65 43.185)"/><path d="M51,141.887A18.638,18.638,0,0,1,33.148,158.6c-8.034,0-16.425-9.212-16.317-17.567a18.638,18.638,0,0,1,17.853-16.71C42.717,124.5,51.108,133.532,51,141.887Z" transform="translate(43.262 319.572)"/><path d="M52.037,86.9a18.817,18.817,0,0,1-16.425,17.46A18.638,18.638,0,0,1,17.76,87.54,18.817,18.817,0,0,1,34.185,70.08,18.638,18.638,0,0,1,52.037,86.9Z" transform="translate(45.653 180.145)"/><path d="M78.666,27.36A18.745,18.745,0,0,1,96.2,43.677,18.674,18.674,0,0,1,79.451,61.53,18.745,18.745,0,0,1,61.92,45.213,18.674,18.674,0,0,1,78.666,27.36Z" transform="translate(159.168 70.33)"/><path d="M197.106,105.6A17.139,17.139,0,1,1,180,122.346a18.817,18.817,0,0,1,17.1-16.746Z" transform="translate(462.695 271.451)"/><path d="M214.783,111.949a18.71,18.71,0,0,1-17.853,16.889,18.924,18.924,0,0,1-16.46-17.389A18.71,18.71,0,0,1,198.323,94.56a18.924,18.924,0,0,1,16.46,17.389Z" transform="translate(463.906 243.072)"/><path d="M34.109,137a17.142,17.142,0,1,1,17.46-16.817A17.142,17.142,0,0,1,34.109,137Z" transform="translate(44.443 264.045)"/><path d="M120.287,180.481A18.674,18.674,0,0,1,137,198.334c0,8-9.212,16.389-17.567,16.282a18.674,18.674,0,0,1-16.71-17.853C102.9,188.764,111.932,180.374,120.287,180.481Z" transform="translate(264.046 463.933)"/><path d="M109.727,214.2c-8.355,0-17.389-8.284-17.567-16.318a18.638,18.638,0,0,1,16.71-17.853c8.355,0,17.389,8.284,17.567,16.318a18.638,18.638,0,0,1-16.71,17.853Z" transform="translate(236.901 462.777)"/><path d="M61.883,152.365a19.245,19.245,0,0,1-16.71,17.424c-8.177.393-17.567-8.605-17.853-17a19.245,19.245,0,0,1,16.71-17.424C52.207,134.976,61.6,143.974,61.883,152.365Z" transform="translate(70.227 347.942)"/><path d="M63.107,76.921c-.286,8.427-9.676,17.353-17.853,16.889s-16.71-9.569-16.46-17.389c.286-8.427,9.676-17.353,17.853-16.889S63.357,69.1,63.107,76.921Z" transform="translate(74.002 152.987)"/><path d="M155.346,63.077c-8.355,0-17.5-9.355-17.139-17.567A19.21,19.21,0,0,1,155.346,28.8c8.355,0,17.5,9.355,17.139,17.567a19.21,19.21,0,0,1-17.139,16.71Z" transform="translate(355.242 74.032)"/><path d="M94.047,185.36c-2.785,3.785-2.535,8.534-5.927,11.711a15.925,15.925,0,0,1-23.53-.607c-3-3.392-3.142-7.855-5.07-11.6,2.535-3.571,2.249-8.177,5.677-11.354a17.5,17.5,0,0,1,11.461-4.892,14.6,14.6,0,0,1,11.926,5.606A91.727,91.727,0,0,1,94.047,185.36Z" transform="translate(152.999 433.417)"/><path d="M187.007,61.88c4.035,2.5,9.069,2.357,12.176,6.284a45.523,45.523,0,0,1,4.963,11.6c-2.607,3.571-2.071,9.283-6.5,11.783-3.571,1.928-7.462,4.82-10.712,4.32A17.853,17.853,0,0,1,174.9,90.159a45.522,45.522,0,0,1-4.963-11.6c2.606-3.571,2.107-9.248,6.5-11.783a113.9,113.9,0,0,1,10.569-4.892Z" transform="translate(436.838 159.066)"/><path d="M151.479,170.4c10.5,0,15.246,4.963,15.211,15.853,0,10.355-5.07,15.032-16.067,15-9.819,0-14.782-5.213-14.782-15.425S140.839,170.364,151.479,170.4Z" transform="translate(349.183 438.023)"/><path d="M184.242,169.57c-10.712,0-15.318-4.927-15.282-15.782s5-15.1,16-15.068q14.853,0,14.853,15.353C199.81,164.714,194.811,169.57,184.242,169.57Z" transform="translate(434.319 356.587)"/><path d="M210.8,155c0,10.033-5.32,14.675-16.5,14.568-9.676,0-14.282-5.32-14.282-15.853s5.07-15.032,16.067-15C206.156,138.756,210.87,143.969,210.8,155Z" transform="translate(462.749 356.587)"/><path d="M166.69,197.079c0,10.5-4.963,15.246-15.853,15.211-10.355,0-15.032-5.07-15-16.068,0-9.819,5.213-14.782,15.425-14.782S166.725,186.439,166.69,197.079Z" transform="translate(349.183 466.402)"/><path d="M75.792,210.8c-5.106,2.035-8.891-1.428-11.711-4.178a16.746,16.746,0,0,1,0-22.173,16.924,16.924,0,0,1,11.783-4.535,15.318,15.318,0,0,1,15.425,15.5,16.567,16.567,0,0,1-4,11.14C84.611,209.226,80.933,212.9,75.792,210.8Z" transform="translate(153.937 462.467)"/><path d="M197.517,63.261c5-1.75,7.427,2.035,10.712,4.749a14.64,14.64,0,0,1,4.5,11.033c.678,5.641-3.571,7.748-5.927,11.319-2.821,4.178-6.748,3-10.5,3.571-5.249.928-7.391-2.892-10.712-5.392a12.247,12.247,0,0,1-4.177-10.319,13.068,13.068,0,0,1,5-10.712C189.626,64.26,192.732,61.94,197.517,63.261Z" transform="translate(466.212 161.47)"/><path d="M71.212,65.129a15.428,15.428,0,1,1-15.1-15.746A15.428,15.428,0,0,1,71.212,65.129Z" transform="translate(103.745 126.932)"/><path d="M78.626,17.28a15.434,15.434,0,0,1-1.071,30.85A15.925,15.925,0,0,1,62.88,32.6,15.71,15.71,0,0,1,78.626,17.28Z" transform="translate(161.636 44.419)"/><path d="M180.13,55.745A15.425,15.425,0,1,1,164.491,40.32,15.746,15.746,0,0,1,180.13,55.745Z" transform="translate(383.731 103.645)"/><path d="M82.37,55.162c0,7.141-8.641,15.353-16.5,14.782-6.32-.464-15.282-9.176-14.532-16.1A16.425,16.425,0,0,1,67.588,38.88,15.925,15.925,0,0,1,82.37,55.162Z" transform="translate(131.863 99.943)"/><path d="M49.569,75.353A15.425,15.425,0,1,1,34,60,15.818,15.818,0,0,1,49.569,75.353Z" transform="translate(48.121 154.233)"/><path d="M154.288,49.093A15.818,15.818,0,0,1,138.72,33.6a15.925,15.925,0,0,1,14.853-15.353,15.429,15.429,0,0,1,.714,30.85Z" transform="translate(356.586 46.884)"/><path d="M48.132,151.372a15.428,15.428,0,1,1-30.85-.607A15.889,15.889,0,0,1,32.6,135.84,15.817,15.817,0,0,1,48.132,151.372Z" transform="translate(44.417 349.184)"/><path d="M159.83,66.331a27.492,27.492,0,0,1,3.928-9.6,18.138,18.138,0,0,1,11.461-5.356,44.131,44.131,0,0,1,9.6,3.571,15.1,15.1,0,0,1,5.749,11.247c.964,7.927-6.534,15.71-14.782,16.1a16.21,16.21,0,0,1-15.96-15.96Z" transform="translate(410.85 132.049)"/><path d="M80.612,173.452c-1.714,3.963-1.964,8.319-5.677,11.426a16.424,16.424,0,0,1-10.355,3.749,15.568,15.568,0,0,1-15.139-15.782A16.139,16.139,0,0,1,64.723,157.92a25.209,25.209,0,0,1,10.712,4.642C79.148,165.347,79.077,169.631,80.612,173.452Z" transform="translate(127.087 405.942)"/><path d="M69.621,162.192c-1.571,3.785-1.678,7.855-5.034,10.89a16,16,0,0,1-10.926,4.5,15.353,15.353,0,0,1,0-30.671,16.067,16.067,0,0,1,10.926,4.427C67.907,154.372,68.05,158.479,69.621,162.192Z" transform="translate(100.373 377.64)"/><path d="M172.973,180.107a34.458,34.458,0,0,1-10.5-5.249,14.282,14.282,0,0,1,.428-21.138,17.317,17.317,0,0,1,10.712-4.32,14.961,14.961,0,0,1,9.819,4.427,16.246,16.246,0,0,1,4.677,10.533,14.282,14.282,0,0,1-4.427,10.712A57.127,57.127,0,0,1,172.973,180.107Z" transform="translate(406.17 384.041)"/><path d="M177.651,175.119c-1.785,3.571-2.714,8.069-5.392,10.712a14.282,14.282,0,0,1-21.138-.75,16.21,16.21,0,0,1-4.142-10.712,17.246,17.246,0,0,1,5.177-10.39,14.818,14.818,0,0,1,9.962-4,17.281,17.281,0,0,1,10.712,4.749,34.776,34.776,0,0,1,4.82,10.39Z" transform="translate(377.819 411.238)"/><path d="M141.471,168.6a18.674,18.674,0,0,1-12.533-7.82c-1.571-2.392-3.571-5.641-3.035-7.962a22.031,22.031,0,0,1,7.141-11.533c2.464-2.142,5.784-1.25,8.034-3.57a20.637,20.637,0,0,1,12,7.962c1.5,2.392,3.571,5.641,3,7.962a22.959,22.959,0,0,1-7.141,11.533C146.47,167.667,142.9,166.1,141.471,168.6Z" transform="translate(323.413 353.991)"/><path d="M45.133,71c1.464,2.749,5.106,1.143,7.57,3.571A33.813,33.813,0,0,1,60.13,86.1c-1.857,2.642-1.393,6.07-3.749,8.748a26.815,26.815,0,0,1-11.64,7.141c-2.142-2.285-5.534-1.214-8.034-3.571a32.135,32.135,0,0,1-7.427-11.5c1.857-2.642,1.393-6.07,3.785-8.748A24.994,24.994,0,0,1,45.133,71Z" transform="translate(75.266 182.51)"/><path d="M89.507,58.973c-2.571-.75-5.534-.786-7.141-2.285-2.892-3.071-8.034-4.892-7.391-10.5-4.106-3,1.5-5.82,0-8.748a24.994,24.994,0,0,1,12.5-8.962c1.035-.214,2.321.857,3.57,1.25,7.141,2.392,9,4.249,11.283,11.247,4.213,2.392.25,4.927,0,7.141C101.5,52.4,93.506,58.509,89.507,58.973Z" transform="translate(188.782 73.138)"/><path d="M164.443,141.121a10.14,10.14,0,0,1-3.213,10.283,12.6,12.6,0,0,1-10.5,3.963,13.068,13.068,0,0,1-9.676-3.821c-3.571-3.071-3.571-6.606-3.785-10.712a11.461,11.461,0,0,1,4.035-9.569,11.676,11.676,0,0,1,9.712-3.571,11.533,11.533,0,0,1,9.748,3.571C163.55,134.408,166.514,137.015,164.443,141.121Z" transform="translate(352.786 328.05)"/><path d="M131.014,205.97c1.535,4.57-1.071,7.141-3.571,10-3,3.856-6.641,3.392-10.712,3.785a12.782,12.782,0,0,1-9.569-4c-4-3.071-3.142-6.82-3.571-10.712a11.462,11.462,0,0,1,4.177-9.5,12.033,12.033,0,0,1,9.819-3.571,11.426,11.426,0,0,1,9.676,3.785C130.479,199.008,132.8,201.864,131.014,205.97Z" transform="translate(266.244 493.323)"/><path d="M84.56,197.317c-3.856,1.321-6.284-1.285-9.283-3.571-3.856-3-3.571-6.641-3.785-10.712a12.783,12.783,0,0,1,4-9.569c3.071-3.963,6.82-3.142,10.712-3.571a11.354,11.354,0,0,1,9.5,4.178,12.033,12.033,0,0,1,3.571,9.819A12.568,12.568,0,0,1,95.7,193.6,11.247,11.247,0,0,1,84.56,197.317Z" transform="translate(183.766 436.671)"/><path d="M56.188,140.42c1.321,3.856-1.285,6.284-3.571,9.283-3,3.856-6.641,3.571-10.712,3.785a12.782,12.782,0,0,1-9.569-4c-3.963-3.071-3.142-6.82-3.571-10.712a11.39,11.39,0,0,1,4.428-9.462,12,12,0,0,1,9.819-3.571,12.568,12.568,0,0,1,9.712,3.571,11.247,11.247,0,0,1,3.463,11.1Z" transform="translate(73.923 323.074)"/><path d="M192.257,109.04c-1.321-3.856,1.285-6.284,3.571-9.283,3-3.856,6.641-3.571,10.712-3.785a12.783,12.783,0,0,1,9.569,4c3.963,3.071,3.142,6.82,3.57,10.712a11.354,11.354,0,0,1-4.177,9.5,12,12,0,0,1-9.819,3.571,12.568,12.568,0,0,1-9.712-3.571A11.247,11.247,0,0,1,192.257,109.04Z" transform="translate(493.288 246.694)"/><path d="M184.173,101.216c-3.892,1.178-6.427-1.107-9.462-3.571-3.571-3-3.571-6.534-3.856-10.533a12.711,12.711,0,0,1,3.928-9.6c3.071-3.82,6.713-3.285,10.712-3.571a11.39,11.39,0,0,1,9.533,4.142,11.747,11.747,0,0,1,3.571,9.748,12.6,12.6,0,0,1-3.571,9.748,10.926,10.926,0,0,1-10.854,3.642Z" transform="translate(439.173 189.999)"/><path d="M141.924,57.1c-4.57,1.535-7.141-1.071-10-3.571-3.856-3-3.392-6.641-3.785-10.712a12.783,12.783,0,0,1,4-9.569c3.071-3.963,6.82-3.142,10.712-3.571a11.354,11.354,0,0,1,9.5,4.178,12.033,12.033,0,0,1,3.57,9.819,11.426,11.426,0,0,1-3.785,9.676C148.851,56.561,145.995,58.882,141.924,57.1Z" transform="translate(329.387 76.228)"/><path d="M185.822,185.09A13.711,13.711,0,1,1,171.9,171.379a13.1,13.1,0,0,1,13.925,13.711Z" transform="translate(407.174 440.471)"/><path d="M125.868,183.9a13.726,13.726,0,1,1,27.422,1.285c0,8.07-5.891,13.1-14.282,13.39C132.617,198.788,124.512,191.647,125.868,183.9Z" transform="translate(323.163 439.091)"/><path d="M155.1,75.861a13.711,13.711,0,1,1-14.282-13.425A13.14,13.14,0,0,1,155.1,75.861Z" transform="translate(328.209 160.367)"/><path d="M165.661,87.381A13.711,13.711,0,1,1,151.95,73.456a13,13,0,0,1,13.711,13.925Z" transform="translate(355.353 188.766)"/><path d="M52.59,196.862A13.711,13.711,0,1,1,66.3,182.937,13.1,13.1,0,0,1,52.59,196.862Z" transform="translate(99.944 435.555)"/><path d="M169.442,174.287a13.714,13.714,0,1,1,13.425,14A13.714,13.714,0,0,1,169.442,174.287Z" transform="translate(435.551 413.497)"/><path d="M88.861,140.181A13.711,13.711,0,1,1,75.15,126.256a13,13,0,0,1,13.711,13.925Z" transform="translate(157.936 324.492)"/><path d="M55.947,172.207a13.14,13.14,0,0,1-14,13.64,13.711,13.711,0,0,1,0-27.422,13.068,13.068,0,0,1,14,13.782Z" transform="translate(72.592 407.151)"/><path d="M219.421,120.5a13.711,13.711,0,1,1-13.711-13.925A13,13,0,0,1,219.42,120.5Z" transform="translate(493.546 273.903)"/><path d="M198.742,54.944a13.711,13.711,0,1,1-14-13.64,13.068,13.068,0,0,1,14,13.64Z" transform="translate(440.386 106.088)"/><path d="M197.342,141.844a13.711,13.711,0,1,1-14-13.639,13.068,13.068,0,0,1,14,13.639Z" transform="translate(436.787 329.469)"/><path d="M120.061,205.941a13.711,13.711,0,1,1-13.711-13.925,13,13,0,0,1,13.711,13.925Z" transform="translate(238.136 493.531)"/><path d="M86.223,164.793A13.461,13.461,0,0,1,71.94,151.225,14.068,14.068,0,0,1,85.009,137.3c8.462,0,14.282,5.249,14.5,13.211a13.033,13.033,0,0,1-13.282,14.282Z" transform="translate(184.924 352.937)"/><path d="M174.75,57.3c-4.963,2.392-6.534-3.571-10.355-3.892-.179-3.571-4.249-5.284-3.571-9.712A15.389,15.389,0,0,1,175.107,30.24c6.427,0,12.6,7.141,13.5,13.461.607,4.427-3.571,6.141-3.571,9.712C181.034,53.806,179.5,59.876,174.75,57.3Z" transform="translate(413.212 77.734)"/><path d="M86.65,89.462A32.384,32.384,0,0,1,76.9,84.356a14.6,14.6,0,0,1-3.392-9.5,13,13,0,0,1,3.856-9.212c2.714-2,6.106-5.034,10.14-4.035a14.068,14.068,0,0,1,13.247,13.532,17.067,17.067,0,0,1-4.535,10.033C94.434,87.534,90.149,88.034,86.65,89.462Z" transform="translate(188.96 157.87)"/><path d="M134.613,21.278a32.885,32.885,0,0,1-4.677,9.89,20.316,20.316,0,0,1-9.391,3.928c-3.57.964-6.784-2.107-9.426-3.749s-3.571-5.784-4.356-9.069c-1.107-4.035,1.857-7.462,3.82-10.247a16.639,16.639,0,0,1,9.176-4.178c4-1,7.391,2,10.176,3.963S133.007,17.779,134.613,21.278Z" transform="translate(273.821 19.676)"/><path d="M75.762,99.436c-6.034-.25-13.711-8.462-13.354-14.282s8.712-13.6,14.5-13.14S89.938,80.405,89.83,85.868C89.723,91.867,81.618,99.686,75.762,99.436Z" transform="translate(160.393 185.066)"/><path d="M68.759,41.514c.286,5.82-7.534,13.961-13.532,14.282-5.392,0-13.39-7.141-13.889-12.89s7.141-14.282,13.1-14.532S68.33,35.444,68.759,41.514Z" transform="translate(106.198 72.922)"/><path d="M21.581,92.663c6,0,13.782,8.319,13.5,14.282S26.544,120.62,20.8,120.227a17.281,17.281,0,0,1-13.1-13.711C7.513,100.375,16.475,92.056,21.581,92.663Z" transform="translate(19.766 238.114)"/><path d="M42.622,109.516c-6.034-.25-13.711-8.462-13.354-14.282s8.712-13.6,14.5-13.14,13.14,8.391,13.14,14C56.655,101.947,48.55,109.766,42.622,109.516Z" transform="translate(75.205 210.977)"/><path d="M95.688,218.914c-6.034,0-13.854-8.177-13.6-14.032s8.462-13.925,14.282-13.318A16.5,16.5,0,0,1,109.542,205.1C109.863,210.773,101.151,219.342,95.688,218.914Z" transform="translate(210.986 492.341)"/><path d="M110.032,7.2c6,.214,13.711,8.427,13.39,14.282s-8.676,13.6-14.461,13.175S96,26.305,96,20.771,104.141,6.989,110.032,7.2Z" transform="translate(246.772 18.505)"/><path d="M34.639,116.874c.25,5.82-7.57,13.961-13.532,14.282-5.427,0-13.39-7.141-13.889-12.89s7.141-14.282,13.1-14.532S34.353,110.84,34.639,116.874Z" transform="translate(18.491 266.639)"/><path d="M57.679,52.074c.25,5.82-7.57,13.961-13.532,14.282s-13.39-7.141-13.889-12.89,7.141-14.282,13.1-14.532S57.393,46.04,57.679,52.074Z" transform="translate(77.716 100.067)"/><path d="M219.466,131.342c-2.285,3.571-2.214,8.391-6.32,10.462-2.571,1.285-5.677,3.571-7.891,3-3.571-.964-8.141-1.928-10.212-6-1.285-2.535-3.571-5.749-2.856-7.927a18.174,18.174,0,0,1,5.392-9.748c2.535-2.071,5.891-1.071,8-3.571,3.178,1.857,6.927,2.249,9.819,5.213S216.86,129.271,219.466,131.342Z" transform="translate(493.679 302.195)"/><path d="M144.586,43.022c-2.285,3.571-2.214,8.391-6.32,10.462-2.571,1.285-5.677,3.571-7.891,3-3.571-.964-8.141-1.928-10.212-6-1.285-2.535-3.571-5.749-2.856-7.927a18.1,18.1,0,0,1,5.356-9.748c2.571-2.071,5.927-1.071,8.034-3.571,3.178,1.857,6.927,2.249,9.819,5.213S141.944,40.987,144.586,43.022Z" transform="translate(301.196 75.163)"/><path d="M98.222,28.75c3.571,2.285,8.391,2.214,10.462,6.32,1.285,2.571,3.571,5.677,3,7.891-.964,3.571-1.928,8.141-6,10.212-2.535,1.285-5.749,3.571-7.927,2.856a18.1,18.1,0,0,1-9.748-5.356c-2.071-2.571-1.071-5.927-3.571-8.034,1.857-3.178,2.249-6.927,5.213-9.819S96.187,31.392,98.222,28.75Z" transform="translate(217.057 73.903)"/><path d="M141.511,206.375c-1.928,3.571-2,8.105-6.106,10.212-2.535,1.321-5.641,3.571-7.855,3.071-3.571-.964-8.177-1.821-10.212-5.927-1.285-2.571-3.571-5.784-2.928-7.891a18.246,18.246,0,0,1,5.32-9.819c2.535-2,5.927-1,7.962-3.571,2.714,2.214,6.5,1.785,9.283,4.535S139.226,203.7,141.511,206.375Z" transform="translate(293.81 494.704)"/><path d="M53.274,127.447c0,8.5-3.571,11.747-12.247,11.747S29.28,135.624,29.28,126.947,32.851,115.2,41.527,115.2,53.274,118.628,53.274,127.447Z" transform="translate(75.266 296.128)"/><path d="M216.954,97.9c0,8.355-3.57,11.569-12.461,11.533-8.355,0-11.569-3.571-11.533-12.461,0-8.355,3.57-11.569,12.461-11.533C213.777,85.476,216.99,88.939,216.954,97.9Z" transform="translate(496.012 219.628)"/><path d="M94.817,170.414q11.854,0,11.747,12.247T94.317,194.408q-11.818,0-11.747-12.247T94.817,170.414Z" transform="translate(212.25 438.009)"/><path d="M183.127,108.825c-4.392,1.678-6.177-1.821-8.676-3.963a8.855,8.855,0,0,1-3.57-8,13.64,13.64,0,0,1,12.533-11.926c3.82-.286,5.606,1.964,7.784,4.07a9.64,9.64,0,0,1,4,7.855,9.89,9.89,0,0,1-3.571,8C189.019,106.968,187.3,110.646,183.127,108.825Z" transform="translate(439.147 218.274)"/><path d="M106.327,172.665c-4.392,1.678-6.177-1.821-8.676-3.963a8.855,8.855,0,0,1-3.571-8,13.639,13.639,0,0,1,12.533-11.926c3.82-.286,5.606,1.964,7.784,4.07a9.64,9.64,0,0,1,4,7.855,9.891,9.891,0,0,1-3.57,8C112.219,170.808,110.5,174.629,106.327,172.665Z" transform="translate(241.729 382.378)"/><path d="M109.555,18.917A12.961,12.961,0,0,1,97.772,31.878a7.748,7.748,0,0,1-7.391-2.928c-1.928-2.571-5.5-3.963-4.927-8.284.428-3.071,0-6.106,3.071-8.248s4.142-5.177,8.391-4.749c3.214.321,6.034.321,8.141,3.285S110.8,15.1,109.555,18.917Z" transform="translate(219.506 19.61)"/><path d="M172.733,119.013c1.357,4.32-2.321,5.891-4.249,8.534a9.819,9.819,0,0,1-8.141,3.321c-4.285.428-5.749-2.857-8.391-4.713s-2.785-5.07-3.142-8.212c-.536-4.285,2.928-5.713,4.892-8.319a9.283,9.283,0,0,1,7.32-3.071c4.249-.5,6,2.357,8.534,4.463A7.141,7.141,0,0,1,172.733,119.013Z" transform="translate(382.38 273.748)"/><path d="M130.094,8.583c4.392-1.678,6.177,1.821,8.676,3.963a8.855,8.855,0,0,1,3.571,8,13.639,13.639,0,0,1-12.533,11.926c-3.856.286-5.606-1.964-7.784-4.07a9.641,9.641,0,0,1-4-7.855,9.89,9.89,0,0,1,3.57-8C124.238,10.44,125.916,6.762,130.094,8.583Z" transform="translate(303.37 20.802)"/><path d="M31.753,127.238c1.071,3-1.071,5.177-3.571,7.355s-4.32,4.892-8.569,4.392a9.533,9.533,0,0,1-7.141-3.178c-2-2.571-5.213-4.106-4.785-8.355.321-3.214.357-6,3.249-8.177s4.32-4.856,8.462-4.57a13.14,13.14,0,0,1,12.354,12.533Z" transform="translate(19.662 294.802)"/><path d="M170.568,128.981c-1.071-4.427,3.035-5.749,4.749-8.462,2.107-3.285,5.249-2.464,8.284-2.892,4.356-.607,5.57,3.214,8.212,5.035s2.535,4.606,2.821,7.462c.464,4.142-2.607,5.82-4.57,8.427s-4.963,2.964-8.177,3.285c-4.249.428-5.713-2.928-8.391-4.749a7.819,7.819,0,0,1-2.928-8.105Z" transform="translate(437.889 302.199)"/><path d="M117.481,149.448c4.427-1.035,5.749,3.035,8.462,4.749,3.285,2.107,2.464,5.249,2.892,8.284.607,4.356-3.214,5.57-5.034,8.212s-4.606,2.535-7.462,2.821c-4.142.464-5.82-2.606-8.426-4.57s-2.964-4.963-3.285-8.177c-.428-4.249,2.928-5.713,4.749-8.391A7.82,7.82,0,0,1,117.481,149.448Z" transform="translate(268.852 383.601)"/><path d="M75.1,40.037A13.175,13.175,0,0,1,87.634,52.463c.286,4.142-2.607,5.82-4.57,8.427s-4.963,2.964-8.177,3.285c-4.249.428-5.784-2.785-8.355-4.785a9.533,9.533,0,0,1-3.178-7.141c-.5-4.249,2.142-6.106,4.392-8.569S72.1,38.966,75.1,40.037Z" transform="translate(162.697 102.214)"/><path d="M139.125,183.094c1.25,4.285-2.178,6.034-4.213,8.605a9.926,9.926,0,0,1-8.105,3.571c-4.249.357-5.784-2.821-8.426-4.713s-2.856-5-3.178-8.177c-.464-4.249,2.821-5.784,4.82-8.319a9.355,9.355,0,0,1,7.141-3.142c4.285-.536,6.07,2.249,8.569,4.427S140.3,179.666,139.125,183.094Z" transform="translate(296.018 439.183)"/><path d="M65.255,73.173c1.25,4.32-2.178,6.034-4.213,8.605a9.926,9.926,0,0,1-8.105,3.571c-4.249.357-5.784-2.821-8.427-4.713s-2.856-5-3.178-8.177c-.464-4.249,2.821-5.784,4.82-8.319A9.39,9.39,0,0,1,53.293,61c4.285-.536,6.07,2.285,8.569,4.427S66.254,69.746,65.255,73.173Z" transform="translate(106.132 156.628)"/><path d="M120,41.182a13.318,13.318,0,0,1-11.926,12.283,13.461,13.461,0,0,1-12.068-11.14,12.007,12.007,0,1,1,23.994-1Z" transform="translate(246.765 76.646)"/><path d="M171.84,194.771a12,12,0,1,1-11.569-12.426A12,12,0,0,1,171.84,194.771Z" transform="translate(380.024 468.71)"/><path d="M204.96,163.091a12,12,0,1,1-11.569-12.425A12,12,0,0,1,204.96,163.091Z" transform="translate(465.16 387.274)"/><path d="M194.611,52.8a13.282,13.282,0,0,1,11.783,12.426,13.247,13.247,0,0,1-12.64,11.569,13.532,13.532,0,0,1-11.354-12,13.354,13.354,0,0,1,12.211-12Z" transform="translate(468.867 135.725)"/><path d="M163.2,53.054a12,12,0,1,1-12.283-11.711A12,12,0,0,1,163.2,53.054Z" transform="translate(357.817 106.264)"/><path d="M53.754,116.851a13.282,13.282,0,0,1-12.425,11.783,13.247,13.247,0,0,1-11.569-12.64,13.532,13.532,0,0,1,12-11.354A13.354,13.354,0,0,1,53.754,116.851Z" transform="translate(76.499 268.983)"/><path d="M173.282,107.843a12.007,12.007,0,1,1-23.994-1A13.461,13.461,0,0,1,161.356,95.56a13.318,13.318,0,0,1,11.926,12.283Z" transform="translate(383.723 245.642)"/><path d="M119,53.794a13.318,13.318,0,0,1-12-12.426c.25-5.927,6.855-12.283,12.568-11.569a12.854,12.854,0,0,1,11.39,11.854A13.211,13.211,0,0,1,119,53.794Z" transform="translate(275.048 76.46)"/><path d="M160.8,75.134a12,12,0,1,1,11.711,12.283A12,12,0,0,1,160.8,75.134Z" transform="translate(413.341 163.022)"/><path d="M73.314,159.36a12.011,12.011,0,0,1-1.143,23.994,13.6,13.6,0,0,1-11.211-12.14A13.318,13.318,0,0,1,73.314,159.36Z" transform="translate(156.7 409.644)"/><path d="M19.934,106.077A12,12,0,1,1,32.217,94.365,12,12,0,0,1,19.934,106.077Z" transform="translate(21.127 210.989)"/><path d="M39.84,149.063A13.282,13.282,0,0,1,52.266,137.28a13.282,13.282,0,0,1,11.569,12.64,13.5,13.5,0,0,1-12,11.354,13.354,13.354,0,0,1-12-12.211Z" transform="translate(102.41 352.886)"/><path d="M53.754,105.383a13.39,13.39,0,0,1-12,12.211,13.5,13.5,0,0,1-12-11.354A13.282,13.282,0,0,1,41.329,93.6a13.282,13.282,0,0,1,12.425,11.783Z" transform="translate(76.499 240.604)"/><path d="M117.414,182.569c-2.428,2.321-1.071,6.284-4.142,8.641-2.535,1.964-5.749,1.392-8.069,3.356-2.5-2.107-6.713-1.035-8.426-4.392a19.567,19.567,0,0,1-3.106-8.034,12.64,12.64,0,0,1,3.821-7.57A10.926,10.926,0,0,1,105.132,171a17.139,17.139,0,0,1,8.141,3C116.272,176.284,114.986,180.212,117.414,182.569Z" transform="translate(240.783 439.565)"/><path d="M182.912,107c2.535,2.5,6.891,1.285,8.569,4.677,1.25,2.607,3.571,6.07,2.892,7.891-1.25,2.821-.5,7.141-4.285,8.534-2.678,1.071-6.07,3.571-8,2.714-2.785-1.214-6.927-.607-8.427-4.427-.964-2.464-3.285-5.356-2.607-7.141.964-2.856.607-6.82,4.035-8.569A85.643,85.643,0,0,1,182.912,107Z" transform="translate(439.398 275.05)"/><path d="M149.036,184.624a30.885,30.885,0,0,1-8.391-4.5,11.283,11.283,0,0,1-3.285-7.784,14.282,14.282,0,0,1,4.356-8.177,12.033,12.033,0,0,1,7.855-3.285,12.247,12.247,0,0,1,7.605,3.856,12.5,12.5,0,0,1,3.571,7.712,11.89,11.89,0,0,1-3.571,7.784A32.137,32.137,0,0,1,149.036,184.624Z" transform="translate(353.09 413.551)"/><path d="M128.5,182.62a31.1,31.1,0,0,1-4.463,8.355,11.176,11.176,0,0,1-7.784,3.356A14.5,14.5,0,0,1,108,190.047a11.854,11.854,0,0,1-3.285-7.855,12.425,12.425,0,0,1,3.785-7.641,12.747,12.747,0,0,1,7.712-3.571,11.925,11.925,0,0,1,7.819,3.571,32.136,32.136,0,0,1,4.463,8.07Z" transform="translate(269.187 439.514)"/><path d="M183.028,96a32.6,32.6,0,0,1,8.069,4.713,11.533,11.533,0,0,1,3.285,7.819,14.032,14.032,0,0,1-4.642,7.891,12.069,12.069,0,0,1-7.855,3.285,12.318,12.318,0,0,1-7.534-4.035,12,12,0,0,1-3.392-7.784,14.568,14.568,0,0,1,4.213-8.319A25,25,0,0,1,183.028,96Z" transform="translate(439.46 246.773)"/><path d="M73.708,192.64a24.208,24.208,0,0,1-3.571,7.855,14.283,14.283,0,0,1-8.391,4.07A11.89,11.89,0,0,1,54,201a12.568,12.568,0,0,1-4-7.57,12.033,12.033,0,0,1,3.285-7.855A14.282,14.282,0,0,1,61.39,181a11.247,11.247,0,0,1,7.819,3.285,32.136,32.136,0,0,1,4.5,8.355Z" transform="translate(128.527 465.271)"/><path d="M72.406,115.189c0,7.141-2.892,10.39-9.855,10.5-7.712,0-10.712-2.464-10.712-9.641,0-7.82,2.785-10.926,10.283-10.926S72.335,108.262,72.406,115.189Z" transform="translate(133.257 270.217)"/><path d="M180.551,150.689c0,6.463-3.249,9.391-10.069,9.426s-10.247-2.964-10.5-9.034a16.07,16.07,0,0,1,0-5.07,8.105,8.105,0,0,1,5.534-5.892,22.5,22.5,0,0,1,9.64.286C179.373,141.477,180.694,144.691,180.551,150.689Z" transform="translate(410.731 359.186)"/><path d="M116.566,62.174a10.283,10.283,0,1,1-10.247-10.319,9.64,9.64,0,0,1,10.247,10.319Z" transform="translate(246.772 133.243)"/><path d="M127.606,62.14a10.283,10.283,0,1,1-10.283-10.283A9.641,9.641,0,0,1,127.606,62.14Z" transform="translate(275.151 133.241)"/><path d="M60.74,169.36a10.283,10.283,0,1,1,10.712-9.89A9.712,9.712,0,0,1,60.74,169.36Z" transform="translate(130.82 382.505)"/><path d="M171.806,30.4A10.283,10.283,0,1,1,161.523,20.12,10.283,10.283,0,0,1,171.806,30.4Z" transform="translate(388.769 51.72)"/><path d="M62.14,94.577A10.283,10.283,0,1,1,51.857,104.86,9.641,9.641,0,0,1,62.14,94.577Z" transform="translate(133.24 243.055)"/><path d="M146.806,203.638a10.283,10.283,0,1,1-10.39-10.176,9.641,9.641,0,0,1,10.39,10.176Z" transform="translate(324.506 497.226)"/><path d="M40.829,60.708A9.64,9.64,0,0,1,30.4,70.991a10.283,10.283,0,0,1,0-20.566A9.64,9.64,0,0,1,40.829,60.708Z" transform="translate(51.719 129.531)"/><path d="M73.366,61.214A10.283,10.283,0,1,1,63.119,50.895,9.64,9.64,0,0,1,73.366,61.214Z" transform="translate(135.725 130.775)"/><path d="M38.809,158.859a9.676,9.676,0,0,1-10.533,10.033,10.286,10.286,0,0,1,.5-20.566,9.676,9.676,0,0,1,10.033,10.533Z" transform="translate(46.884 381.259)"/><path d="M202.87,150.166a10.283,10.283,0,1,1,10.176-10.39,9.641,9.641,0,0,1-10.176,10.39Z" transform="translate(494.779 333.145)"/><path d="M214.006,85.762a10.283,10.283,0,1,1-10.176-10.39,9.64,9.64,0,0,1,10.176,10.39Z" transform="translate(497.247 193.705)"/><path d="M92.494,202.208a10.24,10.24,0,1,1-10.64-9.64A10.212,10.212,0,0,1,92.494,202.208Z" transform="translate(185.152 494.979)"/><path d="M63.738,18.243a10.283,10.283,0,0,1,9.926,10.712,10.179,10.179,0,1,1-20.352-.5A10.14,10.14,0,0,1,63.738,18.243Z" transform="translate(137.033 46.884)"/><path d="M160.7,73.292a10.233,10.233,0,1,1,9.926-10.533A10.283,10.283,0,0,1,160.7,73.292Z" transform="translate(386.273 135.8)"/><path d="M169.48,161.223a10.709,10.709,0,0,1-1.643,3.392c-7.141,7.855-9.033,9.462-17.174.357a6.07,6.07,0,0,1,0-8.784c1.357-1.428,2.964-2.714,4.178-4.249a4.713,4.713,0,0,1,4.5-1.642C162.66,150.4,169.23,156.8,169.48,161.223Z" transform="translate(382.455 386.144)"/><path d="M159.568,117.6c3.571,0,10.712,7.141,10.283,10.5s-7.427,10.426-10.712,10.069a16.389,16.389,0,0,1-9.855-10.069C149.035,124.741,156.033,117.6,159.568,117.6Z" transform="translate(383.726 302.297)"/><path d="M28.841,136.6c0,3.571-7.141,10.5-10.712,10.212s-10.39-7.534-10-10.712a16.389,16.389,0,0,1,10.283-9.855C21.985,126.029,29.127,133.135,28.841,136.6Z" transform="translate(20.861 324.504)"/><path d="M136.509,159.61c-.393,3.892-6.891,10.712-10.033,10.355a14.282,14.282,0,0,1-6.855-3.928c-4.463-4.142-4.463-8.069,0-12.283,5.891-5.749,8.391-4.749,13.532.214A26.958,26.958,0,0,1,136.509,159.61Z" transform="translate(298.884 385.15)"/><path d="M130.083,16.835c0-5.713,2.607-7.82,9.212-7.712,5.749,0,8,2.642,7.927,9s-2.642,8.355-9.64,8.141C132.154,26.119,129.976,23.334,130.083,16.835Z" transform="translate(334.374 23.441)"/><path d="M159.025,85.92c6.034,0,8.355,2.428,8.355,8.569s-2.285,8.676-9.212,8.569c-5.749,0-8-2.642-7.927-9S152.741,85.885,159.025,85.92Z" transform="translate(386.197 220.862)"/><path d="M92.98,16.73c0,6.141-2.321,8.534-8.355,8.569-6.57,0-8.855-2.285-8.784-8.962,0-5.927,2.5-8.212,8.748-8.177S92.98,10.588,92.98,16.73Z" transform="translate(194.949 20.975)"/><path d="M101.14,159.194c0,5.713-2.607,7.82-9.212,7.712-5.749,0-8-2.642-7.927-9s2.642-8.319,9.64-8.141C99.069,149.911,101.247,152.7,101.14,159.194Z" transform="translate(215.925 384.959)"/><path d="M17.439,72.48c6.32,0,8.748,2.214,8.819,8.105s-2.178,8.926-7.891,9.034c-6.927,0-9.248-2.035-9.248-8.534S11.441,72.516,17.439,72.48Z" transform="translate(23.443 186.314)"/><path d="M83.556,40.8a10.319,10.319,0,0,1,8.462,8.676,10.319,10.319,0,0,1-8.676,8.462,10.319,10.319,0,0,1-8.462-8.676A10.319,10.319,0,0,1,83.556,40.8Z" transform="translate(192.482 104.879)"/><path d="M50.722,90a10.355,10.355,0,0,1-8.962-8.177A10.355,10.355,0,0,1,49.937,73,10.355,10.355,0,0,1,58.9,81.177,10.355,10.355,0,0,1,50.722,90Z" transform="translate(107.346 187.651)"/><path d="M135.705,60.983a8.578,8.578,0,1,1-8.962-8.177A8.578,8.578,0,0,1,135.705,60.983Z" transform="translate(304.757 135.719)"/><path d="M49.369,144.339a8.569,8.569,0,1,1,8.569-8.569A8.569,8.569,0,0,1,49.369,144.339Z" transform="translate(104.878 326.975)"/><path d="M146.745,50.729a8.578,8.578,0,1,1-8.177-8.962A8.578,8.578,0,0,1,146.745,50.729Z" transform="translate(333.136 107.34)"/><path d="M61.514,101.139c-2.678,0-8.569-5.57-8.712-8.427S58.372,84,61.228,84s8.569,5.57,8.712,8.427S64.228,101,61.514,101.139Z" transform="translate(135.723 215.927)"/><path d="M68.98,125.068c0,2.678-5.57,8.569-8.426,8.712s-8.569-5.57-8.712-8.427,5.57-8.569,8.426-8.712S68.838,122.212,68.98,125.068Z" transform="translate(133.255 299.828)"/><path d="M100.111,59.105c0,6.641-.214,6.891-6.57,6.927S86.4,65.568,86.4,59.676c0-6.855.428-7.391,7.141-7.355C99.433,52.357,100.111,53.035,100.111,59.105Z" transform="translate(222.095 134.49)"/><path d="M168.188,89.133c-5.891,0-6.463-.678-6.427-7.141s.821-6.748,7.712-6.641c5.32,0,6.106,1.071,6,7.5C175.4,88.633,174.722,89.2,168.188,89.133Z" transform="translate(415.81 193.655)"/><path d="M87.151,167.585c0,6.641-.214,6.891-6.57,6.927s-7.141-.464-7.141-6.356c0-6.855.428-7.391,7.141-7.355C86.472,160.837,87.151,161.515,87.151,167.585Z" transform="translate(188.781 413.344)"/><path d="M184.6,180.416a6.864,6.864,0,1,1-6.57-7.141A7.141,7.141,0,0,1,184.6,180.416Z" transform="translate(439.25 445.396)"/><path d="M167.585,130.209a7.141,7.141,0,0,1,7.141,6.391,6.784,6.784,0,0,1-7.141,7.141,6.855,6.855,0,0,1,0-13.711Z" transform="translate(413.164 334.249)"/><path d="M207.155,148.236a6.864,6.864,0,1,1-6.57-7.141A7.141,7.141,0,0,1,207.155,148.236Z" transform="translate(497.242 362.675)"/><path d="M152.875,147.3a6.864,6.864,0,1,1-6.57-7.141A7.141,7.141,0,0,1,152.875,147.3Z" transform="translate(357.713 360.259)"/><path d="M141.393,168.456a6.857,6.857,0,1,1-13.711.25,6.858,6.858,0,1,1,13.711-.357Z" transform="translate(328.205 415.58)"/><path d="M145.056,194.451a7.141,7.141,0,0,1,7.141,6.5,7.006,7.006,0,1,1-7.141-6.57Z" transform="translate(355.249 499.665)"/><path d="M201.305,79.119a13.354,13.354,0,0,1-4.427-1.928,10.141,10.141,0,0,1-2.428-4.82c-.464-2.142,5.142-7.141,7.141-7.141a12.033,12.033,0,0,1,6.32,7.141,12.675,12.675,0,0,1-6.605,6.748Z" transform="translate(499.771 167.677)"/><path d="M75.426,201.3c-1.75,1.678-3.571,4.749-6.213,5.606s-4.285-3.035-6.32-4.785c-.643-.571-1.178-2.357-.821-2.749a42.485,42.485,0,0,1,6.034-5.856C69.249,192.66,75.748,199.015,75.426,201.3Z" transform="translate(159.266 497.243)"/><path d="M154.136,71.675a59.015,59.015,0,0,0-4.428,4.5c-2,2.428-3.571,1.857-5.392,0-5.57-5.927-5.606-4,0-10.176,2.107-2.285,3.571-2,5.356,0,1.071,1.321,2.428,2.392,3.571,3.571A3.606,3.606,0,0,1,154.136,71.675Z" transform="translate(360.201 165.517)"/><path d="M76.054,14.264c0,3.571-1.428,5.07-4.927,5.142-4.106,0-5.534-1.428-5.356-5.57,0-3.571,1.714-4.785,5.356-4.713S76.054,10.693,76.054,14.264Z" transform="translate(169.028 23.441)"/><path d="M47.754,127.913c-3.571,0-5.284-1.25-5.5-4.57s1.178-5.463,4.356-5.713c4.035-.321,5.856,1.214,5.927,5S51.182,127.77,47.754,127.913Z" transform="translate(108.564 302.268)"/><path d="M151.433,58.546c0,3.571-1.25,5.284-4.57,5.5s-5.463-1.178-5.713-4.356c-.321-4.035,1.214-5.856,5-5.927S151.433,55.119,151.433,58.546Z" transform="translate(362.725 138.191)"/><path d="M68.359,149.979c-3.571,0-4.963-1.5-5-5.07s1.607-5.463,5.713-5.213c3.321.214,4.713,1.857,4.57,5.5S71.965,150.05,68.359,149.979Z" transform="translate(162.869 359.039)"/><path d="M35.312,171.36c3.571,0,5.106,1.357,5.213,4.856,0,4.178-1.321,5.57-5.5,5.427-3.571,0-4.856-1.678-4.785-5.284S31.742,171.4,35.312,171.36Z" transform="translate(77.731 440.491)"/><path d="M192.708,168.127c0,3.571-1.285,5.213-4.713,5.356s-5.356-1.214-5.57-4.5c-.286-4.106,1.214-5.784,5.142-5.784S192.636,164.628,192.708,168.127Z" transform="translate(468.843 419.515)"/><path d="M69.942,63.094c-3.571,0-5.07-1.428-5.142-4.927,0-4.106,1.428-5.534,5.57-5.356,3.571,0,4.785,1.714,4.713,5.356S73.512,63.094,69.942,63.094Z" transform="translate(166.571 135.715)"/><path d="M147.114,20.873c-3.571,0-5.284-1.25-5.5-4.57s1.178-5.463,4.356-5.713c4.035-.321,5.856,1.214,5.927,5S150.542,20.73,147.114,20.873Z" transform="translate(363.974 27.115)"/><path d="M151.68,70.163c0-3.571,1.285-5.213,4.713-5.356s5.356,1.214,5.57,4.5c.286,4.106-1.214,5.784-5.142,5.784S151.751,73.662,151.68,70.163Z" transform="translate(389.9 166.565)"/><path d="M20.865,67.838c0,3.571-1.607,4.892-5.213,4.856s-5.356-1.821-5.07-5.856c.25-3.249,2-4.606,5.641-4.428S20.972,64.089,20.865,67.838Z" transform="translate(27.123 160.392)"/><path d="M97.2,46.955c0,3.571-1.214,5.356-4.5,5.57s-5.5-1.143-5.784-4.285c-.357-4.035,1.178-5.927,4.927-6S97.057,43.527,97.2,46.955Z" transform="translate(223.293 108.578)"/><path d="M129.81,47.792c0,3.571-1.357,5.106-4.856,5.213-4.178,0-5.57-1.321-5.427-5.5,0-3.571,1.678-4.856,5.284-4.785S129.775,44.222,129.81,47.792Z" transform="translate(307.224 109.812)"/><path d="M178.9,42.934c-3.571,0-5.07-1.428-5.142-4.927,0-4.106,1.428-5.534,5.57-5.356,3.571,0,4.785,1.714,4.713,5.356S182.472,42.934,178.9,42.934Z" transform="translate(446.658 83.892)"/><path d="M59.2,63.365c3.571,0,4.892,1.607,4.856,5.213s-1.821,5.356-5.856,5.07c-3.249-.25-4.606-2-4.427-5.641S55.449,63.258,59.2,63.365Z" transform="translate(138.181 162.865)"/><path d="M69.727,63.36c3.571,0,5.213,1.285,5.356,4.713s-1.214,5.356-4.5,5.57c-4.106.286-5.784-1.214-5.784-5.142S66.228,63.431,69.727,63.36Z" transform="translate(166.571 162.87)"/><path d="M170.614,189.944c0,3.571-1.428,5.07-4.927,5.142-4.106,0-5.534-1.428-5.356-5.57,0-3.571,1.714-4.785,5.356-4.713S170.614,186.373,170.614,189.944Z" transform="translate(412.099 475.037)"/><path d="M19.428,143.647c0,3.571-1.285,5.213-4.713,5.356s-5.356-1.214-5.57-4.5c-.286-4.106,1.214-5.784,5.142-5.784S19.428,140.148,19.428,143.647Z" transform="translate(23.419 356.588)"/><path d="M53.019,90.252c0,3.571-1.5,4.963-5.07,5s-5.463-1.607-5.213-5.713c.214-3.321,1.857-4.713,5.5-4.57S53.09,86.645,53.019,90.252Z" transform="translate(109.798 218.387)"/><path d="M128.812,167.212c-2.357,2-4.178,4.785-5.927,4.713s-3.571-2.857-5.284-4.428c1.821-1.857,3.571-4.606,5.534-5.142C124.384,162.035,126.562,165.177,128.812,167.212Z" transform="translate(302.296 417.288)"/><path d="M161.387,145.634a54.723,54.723,0,0,1-5.606,5.463c-1,.75-6.177-4.035-5.463-5.142,1.285-1.928,3.178-4.606,4.963-4.713S158.995,143.742,161.387,145.634Z" transform="translate(386.227 363.063)"/><path d="M89.636,161.51c2.142,2.107,5.07,3.571,5.177,5.427s-2.357,3.963-4.035,5.677c-.821.893-6.32-3.571-5.749-4.82a37.5,37.5,0,0,1,4.606-6.284Z" transform="translate(218.466 415.171)"/><path d="M68.036,150c2.142,2.107,5.07,3.571,5.177,5.427s-2.357,3.963-4.035,5.677c-.821.893-6.32-3.571-5.749-4.82A37.493,37.493,0,0,1,68.036,150Z" transform="translate(162.943 385.583)"/><path d="M144.56,162.833a52.809,52.809,0,0,1-5.284-5.677c-.75-1.107,4.142-6.141,5.213-5.391,1.928,1.321,4.57,3.285,4.642,5.07S146.489,160.477,144.56,162.833Z" transform="translate(357.815 389.925)"/><path d="M43.793,35.637c-2.357,1.928-4.285,4.642-6.034,4.535s-3.571-2.749-5.034-4.677c-.75-1.107,4.356-5.927,5.427-5.177a61.733,61.733,0,0,1,5.641,5.32Z" transform="translate(83.926 77.728)"/><path d="M51.947,186.965a54.742,54.742,0,0,1-5.606,5.391c-1,.75-6.177-4.035-5.463-5.142,1.285-1.928,3.178-4.606,4.963-4.713S49.555,185.073,51.947,186.965Z" transform="translate(104.907 469.124)"/><path d="M57.95,150.438a42.842,42.842,0,0,1-5.07-5.927c-.714-1.214,4.356-6.034,5.356-5.213,1.857,1.428,4.427,3.571,4.463,5.249S59.949,148.117,57.95,150.438Z" transform="translate(135.752 357.831)"/><path d="M166.5,119.27c2.071,2.214,5.249,4.356,4.927,5.606-.536,2.142-3.249,3.571-5.07,5.57-1.607-1.75-4.463-3.571-4.5-5.249S164.538,121.591,166.5,119.27Z" transform="translate(416.068 306.59)"/><path d="M30.8,164.814a65.432,65.432,0,0,1-5.5,5.463c-1,.785-6.248-3.856-5.534-5.035,1.178-1.964,3.071-4.713,4.856-4.82S28.337,162.957,30.8,164.814Z" transform="translate(50.643 412.366)"/><path d="M195.921,48.164a65.444,65.444,0,0,1-5.5,5.463c-1,.786-6.248-3.856-5.534-5.034,1.178-1.964,3.071-4.713,4.856-4.82S193.457,46.343,195.921,48.164Z" transform="translate(475.092 112.511)"/><path d="M173.4,92.2c-2.357,1.964-4.213,4.677-6,4.606s-3.749-2.714-5.07-4.606c-.786-1.107,4.249-6,5.356-5.249A55.7,55.7,0,0,1,173.4,92.2Z" transform="translate(417.063 223.325)"/><path d="M161.867,135.59c-2.428,1.857-4.392,4.57-6.141,4.428s-3.571-2.821-4.927-4.785c-.714-1.143,4.5-5.856,5.534-5.07a64.258,64.258,0,0,1,5.534,5.427Z" transform="translate(387.461 334.366)"/><path d="M174.412,26.572c-2.357,2-4.178,4.785-5.927,4.713s-3.571-2.856-5.284-4.427c1.821-1.857,3.57-4.606,5.534-5.142C169.984,21.4,172.162,24.537,174.412,26.572Z" transform="translate(419.513 55.765)"/><path d="M51.054,23.651c0,3.571,0,3.571-3.82,3.571-2.892,0-3.178-1.178-3.071-3.571,0-3.571,0-3.321,3.856-3.571C50.769,20.151,51.411,21.437,51.054,23.651Z" transform="translate(113.476 51.617)"/><path d="M137.621,57.171c0,3.963,0,3.82-3.571,4-2.357,0-3.571-.214-3.571-3.071.214-3.82,0-3.571,3.571-3.856C136.55,54.136,138.157,54.422,137.621,57.171Z" transform="translate(335.405 139.388)"/><path d="M156.519,76.374c3.57-.5,2.535,2.142,2.535,3.856,0,3.178,0,2.964-4.249,3.071-3.571,0-2.535-2.178-2.535-3.928C152.235,76.2,152.413,76.16,156.519,76.374Z" transform="translate(391.059 196.131)"/><path d="M47.559,96.045c3.571-.5,2.535,2.142,2.535,3.856,0,3.178,0,2.964-4.249,3.071-3.571,0-2.535-2.178-2.535-3.928C43.275,96.045,43.453,95.83,47.559,96.045Z" transform="translate(110.973 246.729)"/><path d="M133.122,152.233c2.785-.536,3.035,1.107,2.928,3.571,0,3.571,0,3.321-3.856,3.571-2.892,0-3.178-1.178-3.071-3.571C129.266,152.162,129.159,152.162,133.122,152.233Z" transform="translate(331.87 391.063)"/><path d="M47.079,107.045c3.571-.5,2.535,2.142,2.535,3.856,0,3.178,0,2.964-4.249,3.071-3.571,0-2.535-2.178-2.535-3.928C42.795,107.045,42.973,107.045,47.079,107.045Z" transform="translate(109.739 275.005)"/><path d="M115.841,46.925c.393,2.249-.214,3.571-3.035,3.356-3.82,0-3.571,0-3.856-3.571,0-2.357.214-3.571,3.071-3.571C115.841,43.5,115.841,43.283,115.841,46.925Z" transform="translate(280.061 110.894)"/><path d="M101.046,49.627c-3.571.5-2.535-2.142-2.535-3.856,0-3.142,0-2.964,4.249-3.071,3.571,0,2.535,2.178,2.535,3.928C105.33,49.805,105.152,49.841,101.046,49.627Z" transform="translate(252.867 109.763)"/><path d="M29.141,45.282c.536,2.785-1.107,3.035-3.571,2.928-3.571,0-3.321,0-3.571-3.856,0-2.892,1.178-3.178,3.571-3.071C29.141,41.426,29.141,41.319,29.141,45.282Z" transform="translate(56.552 106.074)"/><path d="M78.4,151.274c2.749-.536,3.035,1.071,2.928,3.571,0,3.571,0,3.321-3.856,3.571-2.856,0-3.178-1.107-3.071-3.571C74.581,151.2,74.438,151.2,78.4,151.274Z" transform="translate(191.21 388.594)"/><path d="M79.524,53c1.5,1.785,3.571,3.356,3.285,4.106-.536,1.5-2.321,2.535-3.571,3.785-1.035-1.178-2.785-2.357-2.856-3.571S78.06,54.821,79.524,53Z" transform="translate(196.337 136.239)"/><path d="M165.444,98.11c1.5,1.785,3.571,3.356,3.285,4.106-.536,1.5-2.321,2.535-3.571,3.785-1.035-1.178-2.785-2.357-2.856-3.571S163.98,99.967,165.444,98.11Z" transform="translate(417.198 252.197)"/><path d="M99.132,170.147C97.7,168.29,95.99,167,96.062,165.791s1.892-2.321,2.928-3.571c1.25,1.25,3,2.357,3.571,3.856C102.738,166.9,100.668,168.576,99.132,170.147Z" transform="translate(246.925 416.996)"/><path d="M57.9,82.124a23.6,23.6,0,0,1-3.571-4c-.643-1.285,2.214-4.32,3.571-3.571s3,2.142,3.071,3.321S59.254,80.232,57.9,82.124Z" transform="translate(139.411 191.345)"/><path d="M114.766,166.033c-1.857,1.321-3.178,3.035-4.356,2.928s-2.678-1.785-3.285-3.106,2.535-4.142,3.785-3.571A23.32,23.32,0,0,1,114.766,166.033Z" transform="translate(275.173 416.967)"/><path d="M213.646,102.673c-1.857,1.321-3.178,3.035-4.356,2.928s-2.678-1.785-3.285-3.106,2.535-4.142,3.785-3.571a23.316,23.316,0,0,1,3.856,3.749Z" transform="translate(529.348 254.097)"/><path d="M56.131,128.9a21.925,21.925,0,0,1,3.785,3.571c.714,1.178-2,4.463-3.321,3.928s-3.106-1.964-3.249-3.142S54.881,130.721,56.131,128.9Z" transform="translate(137.107 331.345)"/><path d="M165.9,116.684a23.6,23.6,0,0,1-3.57-4c-.643-1.285,2.214-4.32,3.57-3.571s3,2.142,3.071,3.321S167.254,114.792,165.9,116.684Z" transform="translate(417.03 280.183)"/><path d="M113.987,209.4c-1.857,1.428-3.178,3.142-4.356,3.071s-2.321-1.892-3.571-2.928c1.25-1.25,2.357-3,3.856-3.571C110.737,205.789,112.273,207.86,113.987,209.4Z" transform="translate(272.632 529.424)"/><path d="M112.378,4.32c-.928-1.214-1.714-1.857-1.892-2.642S111.271.571,111.7,0a8.211,8.211,0,0,1,2.035,1.785C113.771,2.107,112.985,2.964,112.378,4.32Z" transform="translate(283.952 0)"/><path d="M198.72,155.529c-1.357.75-2.214,1.535-2.535,1.357a8.214,8.214,0,0,1-1.785-2.035c.571-.428,1.25-1.321,1.678-1.214A15.674,15.674,0,0,1,198.72,155.529Z" transform="translate(499.714 394.908)"/><path d="M103.629,1.28c-1.178,1.107-1.892,2.071-2.178,1.964A4.927,4.927,0,0,1,99.38,1.565c0-.179.821-1.535,1.25-1.535a9.5,9.5,0,0,1,3,1.25Z" transform="translate(255.461 0.077)"/><path d="M11.36,150c1.107,1.178,2.071,1.892,1.964,2.178a4.928,4.928,0,0,1-1.678,2.071s-1.535-.821-1.535-1.25a9.5,9.5,0,0,1,1.25-3Z" transform="translate(25.988 385.583)"/><path d="M4.32,97.929c-1.357.75-2.214,1.535-2.535,1.357A8.212,8.212,0,0,1,0,97.25c.571-.428,1.25-1.321,1.678-1.214A15.682,15.682,0,0,1,4.32,97.929Z" transform="translate(0 246.844)"/><path d="M155.538,15.84c-.928-1.214-1.714-1.857-1.892-2.642s.786-1.107,1.214-1.678a8.213,8.213,0,0,1,2.035,1.785C157.073,13.627,156.288,14.484,155.538,15.84Z" transform="translate(394.897 29.613)"/><path d="M1.929,106.31c.75,1.357,1.535,2.214,1.357,2.535A8.212,8.212,0,0,1,1.25,110.63c-.428-.571-1.321-1.25-1.214-1.678A15.677,15.677,0,0,1,1.929,106.31Z" transform="translate(0.071 273.276)"/><path d="M197.6,55.43c1.107,1.178,2.071,1.892,1.964,2.178a4.927,4.927,0,0,1-1.678,2.071c-.179,0-1.535-.821-1.535-1.25a9.5,9.5,0,0,1,1.25-3Z" transform="translate(504.726 142.486)"/><path d="M210.669,90.08c-1.178,1.107-1.892,2.071-2.178,1.964a4.928,4.928,0,0,1-2.071-1.678c0-.179.821-1.535,1.25-1.535a9.5,9.5,0,0,1,3,1.25Z" transform="translate(530.612 228.343)"/><path d="M54.08,198.675a9.5,9.5,0,0,1-1.25-3c0-.428,1.357-1.357,1.535-1.25a4.928,4.928,0,0,1,1.678,2.071C56.151,196.783,55.187,197.5,54.08,198.675Z" transform="translate(135.802 499.761)"/><path d="M210.2,122.954a9.5,9.5,0,0,1-3,1.25c-.428,0-1.357-1.357-1.25-1.535a4.927,4.927,0,0,1,2.071-1.678C208.3,121.026,209.017,121.847,210.2,122.954Z" transform="translate(529.372 311.012)"/><path d="M151.52,200.6a9.5,9.5,0,0,1-1.25-3c0-.428,1.357-1.357,1.535-1.25a4.927,4.927,0,0,1,1.678,2.071C153.591,198.7,152.627,199.417,151.52,200.6Z" transform="translate(386.276 504.697)"/><path d="M86.24,210.2a9.5,9.5,0,0,1-1.25-3c0-.429,1.357-1.357,1.535-1.25a4.928,4.928,0,0,1,1.678,2.071C88.311,208.3,87.347,209.017,86.24,210.2Z" transform="translate(218.471 529.374)"/><path d="M121.92,208.369c-1.357.75-2.214,1.535-2.535,1.357a8.211,8.211,0,0,1-1.785-2.035c.571-.428,1.25-1.321,1.678-1.214A10.031,10.031,0,0,1,121.92,208.369Z" transform="translate(302.296 530.736)"/></g></svg>