<svg xmlns="http://www.w3.org/2000/svg" width="675.168" height="675.439" viewBox="0 0 675.168 675.439"><g transform="translate(0 0)"><path d="M111.842,197.114c-2.678-1.535-7.141-1-9.426-4.427s-6.427-4.392-7.141-9.069c-.321-2.571-2.714-5.391-1.357-7.748,1.714-3,1.571-7.141,5.142-9.069,3.035-1.678,4.32-5.213,8.676-6,7.141-1.285,11.283-1.25,15.925,3.749,2.535,2.714,7.141,4.392,6.177,9.391a1.757,1.757,0,0,0,1.285.786c.393-.071,1.964-.643,1.964-.964-.179-6.213,5.356-8.5,8.891-11.569a15.818,15.818,0,0,1,10.212-2c6.177.214,9.069,4.677,13.068,7.927,2.428,2,1.964,4.356,2.249,6.82.25,1.857,3.321,3.571.214,5.534.893,6.855-4.856,9.533-8.462,13.568-1.107,1.25-9.141,1.857-11.033,1.892-5.784,0-8.926-3.571-12.39-7.32-1.571-1.643-3.285-3.071-2.749-5.749a2.5,2.5,0,0,0-1.714-1.143,2.214,2.214,0,0,0-1.571,1.357A20.745,20.745,0,0,1,111.842,197.114Z" transform="translate(240.258 411.448)"/><path d="M198.588,115.291c-1.428,2.607-1.071,6.713-4.32,9.391s-5.463,7.141-10.712,7.391c-1.178,0-2.321,1.5-3.57,2.285a21.96,21.96,0,0,1,4.07.607,10.462,10.462,0,0,1,3.571,1.857c1.75,1.5,3.285,3.178,4.892,4.82,2.642,2.749,2.856,8.569,3,12.89.25,7.391-5.891,9.748-9.355,14.282a78.551,78.551,0,0,1-10.462.714c-7.141.857-10-5.427-14.068-9.283-1.071-1,0-4.07-.893-5.5s-2.428-3.106,0-4.856c-.75-6.748,4.927-9.5,8.462-13.64,1.821-2.142,4.178-.928,6.32-1.321a1.571,1.571,0,0,0,.928-1.178c0-.75-.321-1.892-.857-2.142-8.605-4.07-11.14-6.855-13.782-13.747a11.212,11.212,0,0,1,.857-8.462,18.353,18.353,0,0,1,23.744-12.14A23.815,23.815,0,0,1,198.588,115.291Z" transform="translate(409.734 247.367)"/><path d="M168.887,36.4a16.175,16.175,0,0,1-10.926,16.746,17.853,17.853,0,0,1-23.6-11.783V39.684c0-.393-1.107-1.25-1.714-1.25S131,39.4,131.075,39.72c1,4.392-2.749,6.284-4.535,9.283-2.856,4.856-8.248,3.892-11.961,6.463-3.106-2.249-7.605-.464-10.426-3.571-1.535-1.714-3.249-3.213-4.82-4.856-2.642-2.749-2.714-8.391-2.892-12.89-.357-7.462,5.927-9.676,9.319-14.282a85.23,85.23,0,0,1,10.426-.678c6.891-.928,9.426,5.07,13.6,8.462,1.892,1.571.857,3.571,1.25,5.463,0,.678.821,1.178,1.285,1.75.678-.607,1.607-1.071,2.035-1.821.75-1.393,1.143-2.964,1.785-4.392,3.571-8.141,10.319-9.855,18.353-9.212a15.925,15.925,0,0,1,13.389,10.5,23.5,23.5,0,0,1,1,6.463Z" transform="translate(247.768 49.147)"/><path d="M59.8,76.935c-9.462-1.178-18.424-9.355-18.46-18.853S51.516,38.766,60.621,39.444A19.924,19.924,0,0,1,78.474,58.511,20.888,20.888,0,0,1,59.8,76.935Z" transform="translate(106.167 101.375)"/><path d="M165.711,48.867a20.888,20.888,0,0,1-18.567,18.745A19.924,19.924,0,0,1,128.22,49.438,19.888,19.888,0,0,1,147,30.3C156.534,30.514,164.6,39.369,165.711,48.867Z" transform="translate(329.496 77.956)"/><path d="M82.56,177.752c1.857-9.819,10.712-18.424,19.5-17.853a19.924,19.924,0,0,1,17.853,19.067c-.5,9.962-10.712,19.245-19.709,18.246A21.066,21.066,0,0,1,82.56,177.752Z" transform="translate(212.125 411.029)"/><path d="M185.895,147.073c-1.178,9.462-9.355,18.388-18.852,18.46s-19.317-10.176-18.638-19.281a19.924,19.924,0,0,1,19.067-18.031A20.888,20.888,0,0,1,185.895,147.073Z" transform="translate(381.294 329.665)"/><path d="M48.631,49.92A20.959,20.959,0,0,1,67.484,68.38,19.924,19.924,0,0,1,49.631,87.447c-9.1.678-19.317-8.891-19.281-18.674S39.169,51.134,48.631,49.92Z" transform="translate(77.917 128.39)"/><path d="M168.684,52.32c9.462,1.214,18.424,9.391,18.46,18.853s-10.176,19.352-19.281,18.674c-9.89-.75-18.46-10.14-18.031-19.067a20.959,20.959,0,0,1,18.852-18.46Z" transform="translate(385.009 134.559)"/><path d="M178.213,122.537c-9.391-1.214-18.388-9.462-18.353-18.924s10.176-19.281,19.352-18.567c9.962.786,18.46,10.247,17.853,19.138a20.923,20.923,0,0,1-18.852,18.353Z" transform="translate(410.828 218.59)"/><path d="M89.9,47.729c-1.214,9.426-9.462,18.424-18.924,18.388S51.692,55.941,52.406,46.765c.821-9.962,10.283-18.46,19.138-17.853A20.923,20.923,0,0,1,89.9,47.729Z" transform="translate(134.52 74.309)"/><path d="M47.213,163.817c-9.391-1.214-18.424-9.462-18.353-18.924s10.176-19.281,19.352-18.567c9.962.821,18.46,10.283,17.853,19.138a20.923,20.923,0,0,1-18.852,18.353Z" transform="translate(74.086 324.703)"/><path d="M76.937,156.245c-1.214,9.391-9.462,18.388-18.924,18.353s-19.281-10.212-18.567-19.352c.821-9.962,10.283-18.46,19.138-17.853a20.923,20.923,0,0,1,18.353,18.852Z" transform="translate(101.205 353.163)"/><path d="M145.823,149.76c9.855,1.857,18.424,10.712,17.853,19.5a19.924,19.924,0,0,1-19.067,18.031c-9.962-.5-19.245-10.712-18.245-19.71A21.031,21.031,0,0,1,145.823,149.76Z" transform="translate(324.533 385.034)"/><path d="M157.133,78.857c-9.391-1.214-18.424-9.462-18.353-18.924s10.176-19.281,19.352-18.567c9.962.821,18.46,10.283,17.853,19.138a20.923,20.923,0,0,1-18.853,18.353Z" transform="translate(356.641 106.308)"/><path d="M68.5,148.32a20.959,20.959,0,0,1,18.745,18.6,19.959,19.959,0,0,1-18.174,18.924A19.924,19.924,0,0,1,50,167.066C50,157.5,59,149.463,68.5,148.32Z" transform="translate(128.428 381.333)"/><path d="M55.889,111.81a22.53,22.53,0,0,1-1.321,8.105,71.7,71.7,0,0,1-8.177,8.641c-2.321,2.5-6.391-.678-8.319,2.749-2.535-.821-5.57-1.071-7.677-2.035-3.571-1.535-5.749-5.284-8.784-7.855s.643-6.391-2.892-8.248c1.035-2.785,1.035-6.141,2.214-8.462a29.706,29.706,0,0,1,8.248-8.534c2.285-1.857,6.034,0,8.319-2.571,2.357,1.821,5.677.857,7.712,2a28.172,28.172,0,0,1,8.462,8.355,24.245,24.245,0,0,1,2.214,7.855Z" transform="translate(48.021 240.672)"/><path d="M174.449,157.872c-2.392,2.464-.607,7.141-4.106,10.712a33.348,33.348,0,0,1-14.068,7.712c-2.428-2.107-6.07-.75-8.355-2.428a34.955,34.955,0,0,1-8.391-8.462,27.315,27.315,0,0,1-2.249-8.462c3.57-1.892.286-5.963,2.749-8.284a43.7,43.7,0,0,1,8.712-8.034,22.21,22.21,0,0,1,7.712-1.785,13.854,13.854,0,0,1,8.212,2.535,33.028,33.028,0,0,1,8.391,8.427,21.96,21.96,0,0,1,1.392,8.069Z" transform="translate(352.785 356.963)"/><path d="M90,196.591c-1.75-.321-4.106-.643-6.427-1.25a6.248,6.248,0,0,1-2.678-1.75,60.391,60.391,0,0,1-7.141-7.141c-1.535-2.107.607-5.642-2.214-7.641,1.035-2.5,1-5.677,2.035-7.677a37.027,37.027,0,0,1,8.534-9.462c2.035-1.821,5.749.786,7.57-2.321,2.785,1.178,6.177,1,8.462,2.249a28.958,28.958,0,0,1,8.534,8.284c1.785,2.285.214,5.963,2.5,8.319-2.892,2.821-.857,7.141-4.035,10.426A23.53,23.53,0,0,1,90,196.591Z" transform="translate(183.798 409.686)"/><path d="M55.864,102.054a25.958,25.958,0,0,1-7.141,13.39c-3.392,3.571-8,1.785-11.069,4.642-2.428-2.142-6.07-.75-8.355-2.464a36.992,36.992,0,0,1-8.391-8.462,27.244,27.244,0,0,1-2.178-8.5c3.571-1.857.25-5.963,2.821-8.248a44.453,44.453,0,0,1,8.855-8,20.888,20.888,0,0,1,7.712-1.785A14.284,14.284,0,0,1,46.3,85.2a33.17,33.17,0,0,1,8.389,8.461,22.173,22.173,0,0,1,1.178,8.391Z" transform="translate(48.047 212.473)"/><path d="M179.474,110.961a21.743,21.743,0,0,1-8.248-1.178,71.412,71.412,0,0,1-8.676-8.141c-2.464-2.321.678-6.391-2.749-8.319.857-2.535,1.107-5.57,2.035-7.677,1.535-3.571,5.32-5.749,7.855-8.784s6.427.643,8.248-2.892c2.821,1.035,6.177,1.035,8.5,2.214a29.708,29.708,0,0,1,8.534,8.248c1.857,2.285,0,6.034,2.535,8.319-1.785,2.357-.821,5.677-2,7.712a28.065,28.065,0,0,1-8.319,8.462,24.244,24.244,0,0,1-7.712,2.035Z" transform="translate(410.674 190.212)"/><path d="M103.007,55.889a25.958,25.958,0,0,1-13.39-7.141c-3.571-3.392-1.821-8-4.677-11.069,2.178-2.428.786-6.07,2.5-8.355A36.313,36.313,0,0,1,95.866,20.9a27.279,27.279,0,0,1,8.462-2.178c1.892,3.571,6,.25,8.284,2.821a45.6,45.6,0,0,1,8.248,8.891,20.889,20.889,0,0,1,1.785,7.712,14.284,14.284,0,0,1-2.572,8.178,33.171,33.171,0,0,1-8.461,8.389,22.03,22.03,0,0,1-8.605,1.178Z" transform="translate(218.243 48.189)"/><path d="M132.853,160.8c10.712,0,17.174,6.427,17.139,17.317s-6.534,17-17.531,16.96a15.71,15.71,0,0,1-16.746-16.889C115.714,167.3,122.07,160.8,132.853,160.8Z" transform="translate(297.228 413.413)"/><path d="M178.3,63.84c10.712,0,17,6.57,16.96,17.531s-6.641,16.639-17.853,16.853a15.425,15.425,0,0,1-11.783-4.677,15.746,15.746,0,0,1-4.856-12.533C161.2,70.2,167.41,63.84,178.3,63.84Z" transform="translate(413.061 164.172)"/><path d="M177.014,152.381c-10.712,0-17.174-6.427-17.174-17.317s6.606-17,17.567-16.96a15.746,15.746,0,0,1,16.71,16.924C194.153,145.954,187.8,152.381,177.014,152.381Z" transform="translate(410.777 303.576)"/><path d="M78.364,183.077c-10.712,0-16.96-6.57-16.924-17.567s6.677-16.746,17.853-16.71c10.14,0,16.46,6.677,16.46,17.174S89.29,183.113,78.364,183.077Z" transform="translate(157.835 382.566)"/><path d="M108.707,35.741c0,10.926-6.32,17.281-17.174,17.281s-17.1-6.463-17.1-17.389A15.782,15.782,0,0,1,91.211,18.745C102.173,18.745,108.707,25.065,108.707,35.741Z" transform="translate(191.12 48.164)"/><path d="M35.812,106.242a13.854,13.854,0,0,1-11.89-4.677,16.21,16.21,0,0,1-4.642-13.5c.25-9.819,7.141-16.1,17.6-16.068s16.6,6.677,16.817,17.853a15.818,15.818,0,0,1-4.677,11.783,14.711,14.711,0,0,1-13.211,4.606Z" transform="translate(49.139 185.148)"/><path d="M29.28,132.6c0-10.712,6.606-16.96,17.6-16.924s16.746,6.677,16.674,17.853c0,10.14-6.641,16.46-17.139,16.46S29.28,143.495,29.28,132.6Z" transform="translate(75.166 297.43)"/><path d="M184.073,80.269c0,10.926-6.32,17.389-17.067,17.389S149.8,91.3,149.8,80.376a15.782,15.782,0,0,1,16.674-17C177.5,63.345,184.073,69.629,184.073,80.269Z" transform="translate(384.83 162.918)"/><path d="M64.6,78.248c0,11-6.284,17.531-16.96,17.531s-17.1-6.32-17.389-17.139a15.639,15.639,0,0,1,4.856-12.533,15.389,15.389,0,0,1,11.747-4.677C58.03,61.645,64.6,67.715,64.6,78.248Z" transform="translate(77.551 157.94)"/><path d="M135.544,64.553c-10.926,0-17.424-6.32-17.424-17.067s6.391-17.21,17.317-17.21A15.746,15.746,0,0,1,152.4,46.95C152.29,57.983,146.006,64.553,135.544,64.553Z" transform="translate(303.534 77.766)"/><path d="M80.427,63.577c-10.712,0-17.067-6.5-17.067-17.424S69.966,29.264,81.213,29.3A15.71,15.71,0,0,1,97.78,46.331C97.78,57.221,91.317,63.612,80.427,63.577Z" transform="translate(162.771 75.314)"/><path d="M36.251,138.99c-10.962,0-17.5-6.284-17.531-16.96s6.356-17.1,17.174-17.389a15.639,15.639,0,0,1,12.39,4.927,15.389,15.389,0,0,1,4.677,11.747C52.89,132.349,46.82,138.99,36.251,138.99Z" transform="translate(48.021 268.978)"/><path d="M61.6,176.451a13.675,13.675,0,0,1,4.677-11.89,16.175,16.175,0,0,1,13.461-4.642c9.855.25,16.1,7.141,16.067,17.6s-6.641,16.6-17.853,16.817a15.782,15.782,0,0,1-11.747-4.677A14.6,14.6,0,0,1,61.6,176.451Z" transform="translate(157.745 410.831)"/><path d="M183,135.9c2.357,5.249-2,8.427-4.427,11.569a15.818,15.818,0,0,1-13.068,5.32,16.1,16.1,0,0,1-11.533-5.07,16.675,16.675,0,0,1-5.213-13.211A16.139,16.139,0,0,1,154,123.086a17.853,17.853,0,0,1,12.39-5.106,16.282,16.282,0,0,1,12.247,5.463C181.6,126.621,185.1,130.584,183,135.9Z" transform="translate(382.193 303.342)"/><path d="M134.737,53.964a17.148,17.148,0,1,1,17.692-16.585A17.148,17.148,0,0,1,134.737,53.964Z" transform="translate(303.591 50.65)"/><path d="M63.845,35.6a16.96,16.96,0,0,1,17.6-16.853A16.5,16.5,0,0,1,98.015,36.6,16.353,16.353,0,0,1,80.984,53.026,16.924,16.924,0,0,1,63.845,35.6Z" transform="translate(163.999 48.231)"/><path d="M52.957,132.772A17.032,17.032,0,0,1,35.64,149.911a16.817,16.817,0,0,1-16.889-17.531A16.532,16.532,0,0,1,35.6,115.7a16.889,16.889,0,0,1,17.353,17.067Z" transform="translate(48.062 297.477)"/><path d="M149.954,166.512A17.139,17.139,0,1,1,132.1,149.8a16.853,16.853,0,0,1,17.853,16.71Z" transform="translate(297.265 385.064)"/><path d="M53.916,78.6A17.032,17.032,0,0,1,36.634,95.632a16.817,16.817,0,0,1-16.924-17.5,16.5,16.5,0,0,1,16.817-16.71A16.853,16.853,0,0,1,53.916,78.6Z" transform="translate(50.531 157.945)"/><path d="M154.826,184.514a17.139,17.139,0,1,1,16.71-17.853,16.853,16.853,0,0,1-16.71,17.853Z" transform="translate(352.77 386.272)"/><path d="M166.3,139.7c8.819,1.25,16.746,6.248,16.139,18.21a16.1,16.1,0,0,1-17.424,16,16.567,16.567,0,0,1-16.639-17.853A16.889,16.889,0,0,1,166.3,139.7Z" transform="translate(381.179 359.1)"/><path d="M184.521,59.295a17.143,17.143,0,1,1-16.746-17.531A17.143,17.143,0,0,1,184.521,59.295Z" transform="translate(386.096 107.411)"/><path d="M57.407,148.321a18.674,18.674,0,0,1,16.71,17.853c0,8-9.212,16.389-17.531,16.282A18.674,18.674,0,0,1,39.84,164.6C40.019,156.6,49.088,148.214,57.407,148.321Z" transform="translate(102.311 381.332)"/><path d="M63.532,154.107a18.781,18.781,0,0,1-16.389,17.46A18.638,18.638,0,0,1,29.29,154.75a18.888,18.888,0,0,1,16.389-17.46,18.638,18.638,0,0,1,17.853,16.817Z" transform="translate(75.192 352.979)"/><path d="M146.117,75.537c-7.784.321-16.924-8.248-17.46-16.389s8.355-17.531,16.817-17.853c7.819-.286,16.96,8.284,17.46,16.389S154.614,75.215,146.117,75.537Z" transform="translate(330.559 106.201)"/><path d="M64.037,122.266c0,8.391-9.319,17.531-17.531,17.139A19.245,19.245,0,0,1,29.76,122.3c0-8.391,9.355-17.531,17.567-17.174a19.245,19.245,0,0,1,16.71,17.139Z" transform="translate(76.4 270.277)"/><path d="M41.285,67.748c.321-8.462,9.748-17.353,17.853-16.853s16.674,9.641,16.389,17.46c-.286,8.462-9.712,17.353-17.853,16.817S41,75.567,41.285,67.748Z" transform="translate(106.008 130.843)"/><path d="M64.517,89.626c0,8.391-9.355,17.531-17.531,17.139A19.245,19.245,0,0,1,30.24,89.626c0-8.355,9.355-17.5,17.567-17.139A19.281,19.281,0,0,1,64.517,89.626Z" transform="translate(77.634 186.374)"/><path d="M76.037,46.426c0,8.391-9.319,17.531-17.531,17.139a19.245,19.245,0,0,1-16.746-17.1c0-8.391,9.355-17.531,17.567-17.174A19.245,19.245,0,0,1,76.037,46.426Z" transform="translate(107.247 75.326)"/><path d="M91.51,64.037c-8.391,0-17.46-9.426-17.1-17.6A19.281,19.281,0,0,1,91.617,29.76c8.355,0,17.46,9.462,17.067,17.639A19.174,19.174,0,0,1,91.51,64.037Z" transform="translate(191.142 76.568)"/><path d="M123.941,64.547c-8.426-.25-17.353-9.676-16.889-17.853s9.569-16.71,17.424-16.46c8.426.286,17.353,9.712,16.853,17.853S131.9,64.8,123.941,64.547Z" transform="translate(275.039 77.772)"/><path d="M156.79,65c-8.355,0-17.46-9.391-17.1-17.6A19.281,19.281,0,0,1,156.862,30.72c8.391,0,17.5,9.426,17.1,17.6A19.174,19.174,0,0,1,156.79,65Z" transform="translate(358.947 79.035)"/><path d="M30.725,56.708c.321-8.462,9.748-17.353,17.853-16.853S65.252,49.5,64.967,57.315c-.286,8.462-9.712,17.353-17.853,16.817S30.439,64.527,30.725,56.708Z" transform="translate(78.863 102.464)"/><path d="M52.325,57.148c.321-8.462,9.748-17.353,17.853-16.853S86.888,50.006,86.6,57.9c-.286,8.462-9.748,17.353-17.853,16.817S52.039,65.11,52.325,57.148Z" transform="translate(134.387 103.595)"/><path d="M156.1,52.323c7.141-.214,16.889,9.141,17.389,16.46s-9.426,17.567-16.853,17.853-16.889-9.1-17.424-16.46S148.677,52.573,156.1,52.323Z" transform="translate(357.706 134.557)"/><path d="M166.97,108.441c-4.428-2.535-10.14-2.357-12.783-7.141a86.792,86.792,0,0,1-4.427-10.712c2.749-3.571,2.107-9.283,6.57-11.747,3.571-1.892,7.5-4.82,10.712-4.285,4.392.75,9.89,1.821,12.5,6.463a77.3,77.3,0,0,1,4.428,10.962c-2.714,3.571-2.071,9.248-6.534,11.747A84.334,84.334,0,0,1,166.97,108.441Z" transform="translate(384.866 191.554)"/><path d="M106.706,166.342c-2.392,4.5-2.428,10.14-7.141,12.783a82.118,82.118,0,0,1-11,4.356c-3.571-2.749-9.248-2.107-11.711-6.57-1.892-3.571-4.785-7.5-4.249-10.712.678-4.392,1.892-9.855,6.5-12.5a81.625,81.625,0,0,1,10.962-4.392c3.571,2.785,9.248,2.142,11.747,6.606C103.885,159.236,105.206,162.985,106.706,166.342Z" transform="translate(186.373 383.878)"/><path d="M67.941,137.74c3.321,1.464,7.141,2.785,10.5,4.677,4.5,2.5,3.856,8.141,6.641,11.711a75.662,75.662,0,0,1-4.32,11c-2.607,4.642-8.105,5.82-12.5,6.57-3.285.571-7.355-2.321-10.712-4.213-4.463-2.428-3.856-8.105-6.641-11.711a82.124,82.124,0,0,1,4.356-11C57.765,140.2,63.443,140.2,67.941,137.74Z" transform="translate(130.767 354.136)"/><path d="M183.454,124.219a105.834,105.834,0,0,1-5,10.712c-2.642,4.213-8.069,3.856-11.819,6.391-3.821-1.75-8.177-2.142-11.6-5a17.853,17.853,0,0,1-5.606-12.1c-.393-3.392,2.428-7.391,4.428-10.712,2.607-4.213,8.069-3.856,11.818-6.427,3.821,1.785,8.141,2.214,11.569,5.035S180.99,120.184,183.454,124.219Z" transform="translate(383.914 275.323)"/><path d="M122,149.69c3.82,2.785,8.569,2.535,11.711,5.927a15.853,15.853,0,0,1-.607,23.53c-3.356,3.035-7.819,3.178-11.569,5.07-3.571-2.535-8.212-2.249-11.354-5.641a17.389,17.389,0,0,1-4.927-11.461,14.818,14.818,0,0,1,5.641-11.961A96.788,96.788,0,0,1,122,149.69Z" transform="translate(270.448 384.854)"/><path d="M74.621,143.679c-1.571,3.571-2.928,7.141-4.892,10.712-2.5,4.428-8.105,3.785-11.747,6.5A42.847,42.847,0,0,1,46.235,156.1a18.174,18.174,0,0,1-5.749-12.069c-.536-3.285,2.392-7.355,4.32-10.712,2.464-4.463,8.105-3.785,11.747-6.534a42.846,42.846,0,0,1,11.64,4.927C72.193,134.681,71.871,139.68,74.621,143.679Z" transform="translate(103.807 325.989)"/><path d="M141.769,170.478c-10,0-14.639-5.284-14.568-16.5,0-9.64,5.32-14.282,15.853-14.282s15.068,5.07,15,16.068C158.014,165.765,152.837,170.55,141.769,170.478Z" transform="translate(326.873 359.175)"/><path d="M169.09,144.473c0,10.712-4.963,15.532-15.568,15.5s-15.282-4.927-15.282-15.782c0-10.1,4.963-15.032,15.139-15.068C164.126,129.12,169.09,133.976,169.09,144.473Z" transform="translate(355.253 331.978)"/><path d="M116.77,46.022c0,10.462-4.963,15.139-15.96,15.068-10.212,0-14.925-5.177-14.889-16.21,0-9.712,5.32-14.639,15.568-14.639S116.805,35.2,116.77,46.022Z" transform="translate(220.762 77.801)"/><path d="M141.9,192.048c-4.927,2.5-8.248-1.571-10.926-3.892a16.068,16.068,0,0,1-4.32-11.818,14.639,14.639,0,0,1,4.642-10.926,15.746,15.746,0,0,1,11.961-4.178,16.246,16.246,0,0,1,10.712,4.785,16.425,16.425,0,0,1,4.07,11.14,14.711,14.711,0,0,1-4.392,11.033C151.007,190.977,147.008,194.3,141.9,192.048Z" transform="translate(325.419 414.407)"/><path d="M30.9,109.614c-2.5-4.892,1.571-8.248,3.892-10.712a15.924,15.924,0,0,1,11.819-4.356,14.282,14.282,0,0,1,10.712,4.642,15.71,15.71,0,0,1,4.5,11.783,16.246,16.246,0,0,1-4.785,10.712,16.6,16.6,0,0,1-11.14,4.07,14.711,14.711,0,0,1-11.033-4.392C31.976,118.719,28.655,114.756,30.9,109.614Z" transform="translate(77.327 243.046)"/><path d="M176.055,130.265c4.892-2.5,8.248,1.571,10.712,3.892a15.889,15.889,0,0,1,4.356,11.819,14.532,14.532,0,0,1-4.642,10.89,15.746,15.746,0,0,1-11.961,4.213,16.246,16.246,0,0,1-10.712-4.785,16.425,16.425,0,0,1-4.07-11.14,14.675,14.675,0,0,1,4.392-11.033C166.95,131.336,170.913,128.015,176.055,130.265Z" transform="translate(410.486 332.904)"/><path d="M127.311,46.108c2.035,5.106-1.464,8.926-4.178,11.711a15.782,15.782,0,0,1-11.1,4.142,15.567,15.567,0,0,1-11.1-4.32A16.924,16.924,0,0,1,96.39,46.108a15.318,15.318,0,0,1,15.5-15.425,16.425,16.425,0,0,1,11.14,4C125.7,37.36,129.418,41.038,127.311,46.108Z" transform="translate(247.675 78.929)"/><path d="M61.562,99.293c2.107,5.142-1.607,8.784-4.285,11.676a16.5,16.5,0,0,1-11.033,4,15.389,15.389,0,0,1-11.176-4.5,16.889,16.889,0,0,1-4.427-11.819,13.711,13.711,0,0,1,4.606-10.926,14.639,14.639,0,0,1,11-4.285,15.925,15.925,0,0,1,11.1,4.106C60.1,90.367,63.6,94.187,61.562,99.293Z" transform="translate(78.625 214.519)"/><path d="M66.033,190.692a15.429,15.429,0,0,1,.678-30.85A15.925,15.925,0,0,1,81.565,175.2,15.746,15.746,0,0,1,66.033,190.692Z" transform="translate(130.855 410.943)"/><path d="M180.612,112.012a15.428,15.428,0,1,1-30.85-.607,15.429,15.429,0,0,1,30.85.607Z" transform="translate(384.863 248.075)"/><path d="M94.564,164.5c0-7.141,8.641-15.353,16.532-14.782,6.284.464,15.246,9.176,14.5,16.1a16.389,16.389,0,0,1-16.246,14.961A15.889,15.889,0,0,1,94.564,164.5Z" transform="translate(242.967 384.86)"/><path d="M114.373,164.826a15.746,15.746,0,0,1-15.46,15.6,16,16,0,0,1-15.389-14.818,15.43,15.43,0,0,1,30.849-.785Z" transform="translate(214.589 385.108)"/><path d="M176.739,84.13a15.425,15.425,0,1,1,15.389-15.639A15.782,15.782,0,0,1,176.739,84.13Z" transform="translate(414.479 137.027)"/><path d="M34.5,126.724a15.43,15.43,0,1,1-15.835,15.014A15.43,15.43,0,0,1,34.5,126.724Z" transform="translate(47.876 325.805)"/><path d="M144.789,51.012A15.428,15.428,0,1,1,160.517,35.89,15.428,15.428,0,0,1,144.789,51.012Z" transform="translate(333.208 51.888)"/><path d="M180.613,101.016a15.746,15.746,0,0,1-15.46,15.6A16,16,0,0,1,149.764,101.8a15.43,15.43,0,1,1,30.849-.785Z" transform="translate(384.862 221.081)"/><path d="M97.862,202.211c-3.142-1.393-7.5-1.642-10.712-5.356A16.46,16.46,0,0,1,83.58,186.5a15.568,15.568,0,0,1,15.782-15.139,16.139,16.139,0,0,1,14.889,15.318,21.423,21.423,0,0,1-4.677,10.712A21.1,21.1,0,0,1,97.862,202.211Z" transform="translate(214.747 440.557)"/><path d="M50.91,65.938c-.321,9-7.962,16.532-15.96,15.71a15.282,15.282,0,0,1-9-27.208,42.454,42.454,0,0,1,9.6-3.571,18.21,18.21,0,0,1,11.426,5.356A27.208,27.208,0,0,1,50.91,65.938Z" transform="translate(51.858 130.832)"/><path d="M68.066,49.644a21.673,21.673,0,0,1-10.176-4.57,15.5,15.5,0,0,1-4.57-11.033,15.853,15.853,0,0,1,3.963-10.247,15.6,15.6,0,0,1,10.712-5c7.962-1,15.675,6.534,16.032,14.854a16.21,16.21,0,0,1-15.96,16Z" transform="translate(136.962 48.15)"/><path d="M202.568,112.461c-1.75,3.928-2,8.284-5.713,11.39a16.5,16.5,0,0,1-10.39,3.571,15.568,15.568,0,0,1-15.1-15.782A16.21,16.21,0,0,1,186.679,97a24.708,24.708,0,0,1,10.712,4.677C201.1,104.391,201.032,108.64,202.568,112.461Z" transform="translate(440.388 249.412)"/><path d="M187.586,85.924c6.963.286,15.5,9.319,15.1,15.96s-9.64,15.389-16.139,14.889-14.782-9.176-14.711-15.5C171.947,94.386,180.91,85.674,187.586,85.924Z" transform="translate(441.623 220.926)"/><path d="M124.94,187.515c0,6.891-9.176,15.532-15.853,15.175s-15.425-9.533-15-16.068,9.1-14.782,15.46-14.782S125.155,180.766,124.94,187.515Z" transform="translate(241.727 441.792)"/><path d="M38.845,109.34c-.286,4.677-6.677,12-10.712,14a11.176,11.176,0,0,1-10.39-.464A16.639,16.639,0,0,1,9.674,113.7a12,12,0,0,1,3.571-13.461c2.178-1.964,3.571-5.356,7.534-4.463,3.356-3.571,7.141-.571,9.248.857a14.639,14.639,0,0,1,7.784,11C37.81,108.3,38.6,108.948,38.845,109.34Z" transform="translate(22.79 241.927)"/><path d="M56.6,92.663c-1.428-2.535-5-1-7.5-3.285a22.887,22.887,0,0,1-7.141-11.569C41.427,75.524,43.5,72.275,45,69.882A20.78,20.78,0,0,1,57.03,61.92c2.178,2.214,5.534,1.25,8.034,3.571A22.138,22.138,0,0,1,72.2,77.023c.536,2.321-1.464,5.57-3.035,7.927A18.745,18.745,0,0,1,56.6,92.663Z" transform="translate(107.545 159.237)"/><path d="M68.647,130.969a10.176,10.176,0,0,1-3.285,9.64A12.854,12.854,0,0,1,54.9,144.68a13.211,13.211,0,0,1-9.712-3.571,13.033,13.033,0,0,1-3.892-10.5,13.175,13.175,0,0,1,13.6-13.425,12.64,12.64,0,0,1,10.462,3.892A10.212,10.212,0,0,1,68.647,130.969Z" transform="translate(105.924 301.136)"/><path d="M199.679,89.938c1.535,4.606-1.035,7.141-3.571,10.033-3,3.82-6.641,3.571-10.712,3.571a12.854,12.854,0,0,1-9.6-4c-3.963-3.071-3.142-6.784-3.57-10.712a11.461,11.461,0,0,1,4.213-9.5,12,12,0,0,1,9.783-3.571,11.5,11.5,0,0,1,9.676,3.785C199.144,83.011,201.464,85.831,199.679,89.938Z" transform="translate(442.563 194.668)"/><path d="M91.679,55.249c1.535,4.606-1.071,7.141-3.571,10.033-3,3.82-6.641,3.571-10.712,3.749a12.854,12.854,0,0,1-9.6-4c-3.963-3.071-3.142-6.784-3.571-10.712a11.462,11.462,0,0,1,4.213-9.5,12,12,0,0,1,9.783-3.571,11.5,11.5,0,0,1,9.676,3.785C91.179,48.322,93.464,51.214,91.679,55.249Z" transform="translate(164.944 105.958)"/><path d="M111.487,9.683c4.606-1.535,7.141,1.035,10.033,3.392,3.82,3,3.571,6.641,3.749,10.712a12.854,12.854,0,0,1-4.106,9.462c-3.071,3.963-6.784,3.142-10.712,3.571a11.461,11.461,0,0,1-9.5-4.213,12.033,12.033,0,0,1-3.571-9.819,11.569,11.569,0,0,1,3.785-9.676C104.56,10.183,107.417,7.9,111.487,9.683Z" transform="translate(250.074 23.341)"/><path d="M186.523,108.767c3.892-1.285,6.284,1.285,9.319,3.571,3.82,3,3.392,6.641,3.749,10.712a12.854,12.854,0,0,1-4,9.6c-3.071,3.963-6.784,3.142-10.712,3.571a11.461,11.461,0,0,1-9.5-4.213,12,12,0,0,1-3.571-9.783,12.64,12.64,0,0,1,3.749-9.748,11.247,11.247,0,0,1,10.962-3.713Z" transform="translate(441.401 278.777)"/><path d="M23.932,84.247c3.892-1.285,6.284,1.285,9.319,3.571,3.82,3,3.571,6.641,3.571,10.712a12.747,12.747,0,0,1-4,9.569c-3.071,4-6.784,3.178-10.712,3.571a11.461,11.461,0,0,1-9.5-4.213,12,12,0,0,1-3.571-9.783,12.568,12.568,0,0,1,3.749-9.712,11.212,11.212,0,0,1,11.14-3.713Z" transform="translate(22.993 215.747)"/><path d="M113.628,22.02a11.462,11.462,0,0,1-3.571,11.212A12.354,12.354,0,0,1,100.31,36.8a12,12,0,0,1-9.783-3.571A11.5,11.5,0,0,1,86.385,23.7c.393-3.856-.25-7.57,3.571-10.712a12.818,12.818,0,0,1,9.6-3.963c3.928.357,7.605,0,10.5,3.856C112.414,16.093,115.449,18.414,113.628,22.02Z" transform="translate(221.904 23.251)"/><path d="M76.256,166.541a10.176,10.176,0,0,1-9.783-3.321,12.64,12.64,0,0,1-4.07-10.39,13.14,13.14,0,0,1,14.282-13.6,13.176,13.176,0,0,1,13.39,13.6,12.747,12.747,0,0,1-4,10.39,10.212,10.212,0,0,1-9.819,3.32Z" transform="translate(160.194 357.827)"/><path d="M132.424,69.684a10.176,10.176,0,0,1-9.783-3.321,12.64,12.64,0,0,1-4.07-10.533,13.14,13.14,0,0,1,14.282-13.6,13.175,13.175,0,0,1,13.39,13.6,12.747,12.747,0,0,1-4.07,10.712A10.212,10.212,0,0,1,132.424,69.684Z" transform="translate(304.547 108.483)"/><path d="M120.027,199.606a10.462,10.462,0,0,1-10.283-3.178A12.568,12.568,0,0,1,105.6,186a13.14,13.14,0,0,1,14.282-13.675,13.175,13.175,0,0,1,13.5,13.532,12.461,12.461,0,0,1-4.035,10.462C126.24,198.892,123.6,200.927,120.027,199.606Z" transform="translate(271.241 442.912)"/><path d="M130.716,140.168a13.711,13.711,0,1,1-13.568,14.068,13.068,13.068,0,0,1,13.568-14.068Z" transform="translate(300.935 360.349)"/><path d="M80.741,65.782A13.711,13.711,0,1,1,67.03,51.857,12.961,12.961,0,0,1,80.741,65.782Z" transform="translate(136.964 133.308)"/><path d="M22.139,133.033a13.726,13.726,0,0,1,1.285-27.422c8.105,0,13.1,5.927,13.39,14.282C37.064,126.32,29.923,134.39,22.139,133.033Z" transform="translate(23.179 271.508)"/><path d="M163.532,178.7a12.961,12.961,0,0,1-14.282-13.5A13.639,13.639,0,0,1,162.1,151.175a14.282,14.282,0,0,1,14.675,13.211C176.636,172.812,171.637,178.6,163.532,178.7Z" transform="translate(383.519 388.654)"/><path d="M135.908,23.757A13.72,13.72,0,1,1,122.7,9.547,13.72,13.72,0,0,1,135.908,23.757Z" transform="translate(278.747 24.584)"/><path d="M167.582,78.052a13.711,13.711,0,1,1-13.925-13.711,13.068,13.068,0,0,1,13.925,13.711Z" transform="translate(360.188 165.385)"/><path d="M166.673,131.906a13.461,13.461,0,0,1-13.532,14.282A14.282,14.282,0,0,1,139.18,133.12c0-8.462,5.249-14.282,13.211-14.5a13.033,13.033,0,0,1,14.282,13.282Z" transform="translate(357.669 304.841)"/><path d="M103.345,22.387a12.961,12.961,0,0,1-13.5,14.282A13.6,13.6,0,0,1,75.816,23.851,14.282,14.282,0,0,1,89.027,9.14C97.453,9.283,103.237,14.282,103.345,22.387Z" transform="translate(194.768 23.563)"/><path d="M86.521,171.846a13.711,13.711,0,1,1-13.5,14,13.068,13.068,0,0,1,13.5-14Z" transform="translate(187.526 441.786)"/><path d="M37.176,86.69A13.068,13.068,0,0,1,23.251,100.4a13.711,13.711,0,0,1,0-27.422A13.1,13.1,0,0,1,37.176,86.69Z" transform="translate(24.424 187.596)"/><path d="M79.893,141.7a32.135,32.135,0,0,1-4.677,9.89,20.673,20.673,0,0,1-9.355,3.892c-3.785,1-6.784-2.107-9.462-3.571s-3.571-5.784-4.356-9.034c-1.107-4.035,1.857-7.5,3.82-10.247a16.889,16.889,0,0,1,9.176-4.213c4.035-1,7.391,2.035,10.212,4S78.287,138.134,79.893,141.7Z" transform="translate(133.062 329.677)"/><path d="M156.655,67.242c-.179,6-8.319,13.782-14.282,13.461S128.7,72.169,129.09,66.42a17.246,17.246,0,0,1,14-13.14C149.014,53.174,157.369,62.171,156.655,67.242Z" transform="translate(331.696 137.026)"/><path d="M57.245,163.21c-.214,6.034-8.391,13.747-14.282,13.39s-13.639-8.641-13.211-14.282,8.355-13.068,13.818-13S57.5,157.354,57.245,163.21Z" transform="translate(76.337 383.903)"/><path d="M164.722,59.7c-6,0-13.782-8.319-13.5-14.282s8.569-13.675,14.282-13.282a17.317,17.317,0,0,1,13.1,13.854C178.719,52.018,169.757,60.266,164.722,59.7Z" transform="translate(388.613 82.624)"/><path d="M198.573,132.909c-1.892,3.571-2,8.105-6.07,10.212-2.571,1.321-5.677,3.571-7.855,3.106-3.571-1-8.177-1.857-10.247-5.927-1.285-2.571-3.571-5.82-2.892-7.927a17.853,17.853,0,0,1,5.284-9.783c2.535-2,5.927-1.035,7.962-3.571,2.714,2.214,6.463,1.785,9.319,4.535S196.431,130.267,198.573,132.909Z" transform="translate(440.455 306.015)"/><path d="M155.666,142.7c-2.321,3.571-2.249,8.319-6.356,10.355-2.571,1.285-5.677,3.571-7.927,2.964a14,14,0,0,1-10.283-6.177c-1.321-2.535-3.392-5.677-2.821-7.962a14.6,14.6,0,0,1,6.391-9.89c2.285-1.25,5.142-3.214,7.141-2.678,3.749.964,8.177,1.75,10.283,5.82A69.854,69.854,0,0,1,155.666,142.7Z" transform="translate(329.4 332.247)"/><path d="M143.441,186.1c-1.75,3.285-2.249,7.141-5.356,9.783s-6.07,2-8.676,3.856c-3.356-2.107-8.069-2.071-10.14-6.213-1.285-2.571-3.571-5.856-2.928-7.855a19.853,19.853,0,0,1,4.606-9.248c2.678-2.428,6.248-1.857,8.641-4.106,2.714,2.214,6.427,1.821,9.283,4.5S141.12,183.46,143.441,186.1Z" transform="translate(298.672 443.026)"/><path d="M99.834,54.15c0,8.355-3.571,11.64-12.354,11.6S75.84,62.184,75.84,53.4s3.571-11.64,12.39-11.64S99.87,45.331,99.834,54.15Z" transform="translate(194.851 107.414)"/><path d="M45.03,30.24c8.355,0,11.64,3.571,11.6,12.39S53.1,54.377,44.28,54.377,32.64,50.806,32.64,42.023,36.211,30.24,45.03,30.24Z" transform="translate(83.803 77.801)"/><path d="M174.491,165.24c-4.677,0-7.677.179-10.712-2.749a10.89,10.89,0,0,1-2.928-9.141,11.283,11.283,0,0,1,2.749-9.212,10.89,10.89,0,0,1,9.141-2.928,11.318,11.318,0,0,1,9.212,2.749,11.033,11.033,0,0,1,2.928,9.141,11.283,11.283,0,0,1-2.749,9.212,9.426,9.426,0,0,1-7.641,2.928Z" transform="translate(413.05 362.735)"/><path d="M164.865,34.119c.821,6.713-5.677,11.961-12.354,11.819a12.211,12.211,0,0,1,.75-24.387,11.533,11.533,0,0,1,11.6,12.568Z" transform="translate(362.905 55.463)"/><path d="M53.9,106.56c7.962,0,11.89,4.106,11.854,12.14s-4.07,11.89-12.1,11.854-11.926-4.07-11.89-12.1S45.866,106.525,53.9,106.56Z" transform="translate(107.247 273.986)"/><path d="M64.794,172.69q0,12.068-11.854,12.1T40.8,172.94q0-12.1,11.89-12.14T64.794,172.69Z" transform="translate(104.779 413.413)"/><path d="M150.968,162.721c7.927,0,11.819,4.178,11.747,12.247s-4.142,11.819-12.247,11.747-11.818-4.142-11.747-12.247S142.9,162.649,150.968,162.721Z" transform="translate(356.486 418.348)"/><path d="M86.394,183.837c0,8.069-3.928,12-11.961,12S62.4,191.907,62.4,183.873s3.963-12.033,12-12.033S86.394,175.982,86.394,183.837Z" transform="translate(160.303 441.792)"/><path d="M132.475,54.458c0,8.105-3.82,12.176-11.747,12.247s-12.176-3.82-12.247-11.747,3.856-12.176,11.747-12.247S132.4,46.6,132.475,54.458Z" transform="translate(278.753 109.856)"/><path d="M174.61,67.677q-11.961,0-11.89-12.1t12.14-11.89q11.89,0,11.854,12.14T174.61,67.677Z" transform="translate(418.18 112.347)"/><path d="M196.794,77.17c0,8.034-3.892,12.068-11.854,12.1s-12.1-3.892-12.14-11.854,3.928-12.1,11.89-12.14S196.758,69.208,196.794,77.17Z" transform="translate(444.091 167.874)"/><path d="M66.714,86.06c0,7.962-4.07,11.89-12.1,11.854s-11.926-4.07-11.89-12.1,4.106-11.926,12.14-11.89S66.75,78.026,66.714,86.06Z" transform="translate(109.714 190.083)"/><path d="M152.321,76.194c4.32-1.428,6.07,2,8.641,4.106a9.783,9.783,0,0,1,3.571,8.034c.214,4.142-2.607,5.856-4.606,8.462a9.89,9.89,0,0,1-8.105,3.356c-3.928.393-5.57-2.107-7.784-4.213a10.212,10.212,0,0,1-3.928-7.891,11.176,11.176,0,0,1,4.428-8.534C146.858,77.23,148.751,74.8,152.321,76.194Z" transform="translate(360.06 194.879)"/><path d="M152.357,131.892a7.141,7.141,0,0,1-8.212-3.106c-2.142-2.535-4.963-4.285-4.463-8.534a9.069,9.069,0,0,1,3.071-7.355c2.571-1.964,4-5.392,8.319-4.892,3.106.393,6.034,0,8.177,3.142s5.177,4.142,4.749,8.427c-.321,3.214-.428,6.034-3.356,8.105S156.642,133.678,152.357,131.892Z" transform="translate(358.81 277.575)"/><path d="M117.557,140.412a12.961,12.961,0,0,1,13.175,11.747,7.748,7.748,0,0,1-2.928,7.391c-2.571,1.964-3.963,5.534-8.284,4.927-3.071-.393-6.07,0-8.212-3.071s-5.177-4.142-4.749-8.391c.286-3.213.25-6.07,3.285-8.141S113.843,138.912,117.557,140.412Z" transform="translate(273.712 360.141)"/><path d="M33.076,128.863c1.25,4.285-2.214,6-4.213,8.605a10.033,10.033,0,0,1-8.105,3.571c-4.249.357-5.784-2.785-8.426-4.677s-2.892-5.034-3.213-8.177c-.428-4.249,2.821-5.784,4.82-8.355a9.712,9.712,0,0,1,7.355-3.142c4.249-.536,6.034,2.285,8.534,4.463S34.219,125.4,33.076,128.863Z" transform="translate(23.239 299.85)"/><path d="M85.8,139.941a7.141,7.141,0,0,1,7.962,3.178c2.142,2.535,4.963,4.285,4.463,8.534a9.248,9.248,0,0,1-3.071,7.355c-2.571,1.928-4.035,5.392-8.319,4.892-3.106-.393-6.07,0-8.212-3.142s-5.142-4.142-4.713-8.426a9.641,9.641,0,0,1,3.356-8.105C79.873,142.262,81.479,138.585,85.8,139.941Z" transform="translate(189.783 359.04)"/><path d="M143.606,22.594c1.071,3-1.071,5.177-3.571,7.355s-4.356,4.927-8.569,4.392a9.319,9.319,0,0,1-7.141-3.178c-2-2.535-5.213-4.106-4.785-8.355a9.6,9.6,0,0,1,3.249-8.141c2.607-1.964,4.285-4.856,8.462-4.606a13.247,13.247,0,0,1,12.354,12.533Z" transform="translate(307.076 25.891)"/><path d="M32,162.676c-3.571,1.143-5.713-.75-7.855-3.249s-5-4.285-4.463-8.534a9.676,9.676,0,0,1,3.142-7.355c2.571-2,4.106-5.249,8.355-4.82,3.142.321,6.034.179,8.177,3.214s5.034,4.178,4.677,8.427a10.033,10.033,0,0,1-3.392,8.105C38.03,160.5,36.316,163.926,32,162.676Z" transform="translate(50.313 356.551)"/><path d="M89.28,21.306a12,12,0,1,1-23.994-.857,13.5,13.5,0,0,1,12-11.319A13.318,13.318,0,0,1,89.28,21.306Z" transform="translate(167.7 23.537)"/><path d="M54.014,119.517a12,12,0,0,1,.571-23.994,13.461,13.461,0,0,1,11.64,11.854A13.282,13.282,0,0,1,54.014,119.517Z" transform="translate(108.632 245.605)"/><path d="M54.666,108.939a12,12,0,1,1,1-23.851A13.461,13.461,0,0,1,67.091,97.014,13.211,13.211,0,0,1,54.666,108.939Z" transform="translate(107.766 218.477)"/><path d="M110.4,54.611A12,12,0,1,1,98.831,42.186,12,12,0,0,1,110.4,54.611Z" transform="translate(221.99 108.488)"/><path d="M10.08,74.183A13.282,13.282,0,0,1,22.506,62.4,13.282,13.282,0,0,1,34.074,75.04a13.461,13.461,0,0,1-12,11.354,13.354,13.354,0,0,1-12-12.211Z" transform="translate(25.812 160.471)"/><path d="M67.674,31.249A13.211,13.211,0,0,1,55.891,43.674,13.6,13.6,0,0,1,43.68,32.534,13.425,13.425,0,0,1,55.034,19.68a13.282,13.282,0,0,1,12.64,11.569Z" transform="translate(112.182 50.656)"/><path d="M33.766,40.8A13.247,13.247,0,0,1,45.548,53.226a13.247,13.247,0,0,1-12.64,11.569,13.461,13.461,0,0,1-11.319-12,13.39,13.39,0,0,1,12.176-12Z" transform="translate(55.399 104.947)"/><path d="M121.44,54.426a12,12,0,1,1-23.994-.857,13.5,13.5,0,0,1,12-11.319,13.318,13.318,0,0,1,12,12.176Z" transform="translate(250.369 108.674)"/><path d="M152.35,86.41a30.564,30.564,0,0,1,8.105,4.642,11.247,11.247,0,0,1,3.285,7.82,13.925,13.925,0,0,1-4.57,7.927,12.14,12.14,0,0,1-7.819,3.321,12.64,12.64,0,0,1-7.57-4,12.033,12.033,0,0,1-3.571-7.784,14.282,14.282,0,0,1,4.178-8.355A24.78,24.78,0,0,1,152.35,86.41Z" transform="translate(360.317 222.19)"/><path d="M116.515,150.612a9.141,9.141,0,0,1-9.783,10.712c-7.57-.321-10.712-2.714-10.712-9.676,0-7.855,2.749-10.962,10.212-11S116.444,143.578,116.515,150.612Z" transform="translate(246.725 361.616)"/><path d="M160.9,109.394c.928,3.214-2,4.642-3.571,6.855-2.035,2.856-4.892,1.964-7.57,2.428-3.571.571-4.892-2.035-7.141-3.571-2.856-2.035-1.964-4.892-2.428-7.57-.571-3.571,2.035-4.892,3.571-7.141,2.035-2.856,4.892-1.964,7.57-2.428,3.571-.571,4.892,2.035,7.141,3.571C161.4,103.609,160.79,106.43,160.9,109.394Z" transform="translate(360.053 251.693)"/><path d="M106,150.828a10.283,10.283,0,1,1-10.033-10.712A9.676,9.676,0,0,1,106,150.828Z" transform="translate(219.535 360.222)"/><path d="M150.647,75.538a10.283,10.283,0,1,1-10.14-10.248,10.712,10.712,0,0,1,10.14,10.247Z" transform="translate(334.277 167.899)"/><path d="M128.16,184.043a10.283,10.283,0,1,1,10.283,10.283A10.712,10.712,0,0,1,128.16,184.043Z" transform="translate(329.342 446.728)"/><path d="M84.373,139.724A10.212,10.212,0,1,1,81.6,132.36a10.212,10.212,0,0,1,2.774,7.364Z" transform="translate(164.038 332.05)"/><path d="M192.887,141.2a10.284,10.284,0,1,1-10.408-10.158A10.284,10.284,0,0,1,192.887,141.2Z" transform="translate(442.857 336.926)"/><path d="M73.721,127.807a10.232,10.232,0,1,1-10.64-9.64A10.247,10.247,0,0,1,73.721,127.807Z" transform="translate(136.842 303.799)"/><path d="M74.807,74.254A10.284,10.284,0,1,1,64.649,63.846,10.284,10.284,0,0,1,74.807,74.254Z" transform="translate(139.327 164.184)"/><path d="M119.52,64.523A10.283,10.283,0,1,1,129.8,74.806,10.712,10.712,0,0,1,119.52,64.523Z" transform="translate(307.132 139.495)"/><path d="M85.807,63.444A10.284,10.284,0,1,1,75.4,53.286,10.284,10.284,0,0,1,85.807,63.444Z" transform="translate(167.603 137.039)"/><path d="M62.18,192.493a26.747,26.747,0,0,1-4.82-2.107,9.212,9.212,0,0,1-.321-16,7.391,7.391,0,0,1,9.962,0,9.212,9.212,0,0,1-.321,16A29.321,29.321,0,0,1,62.18,192.493Z" transform="translate(134.994 443.384)"/><path d="M149.8,129.828c0,3.571-7.141,10.712-10.712,10.212s-10.39-7.5-10-10.712a16.46,16.46,0,0,1,10.14-9.783C142.767,119.295,149.908,126.4,149.8,129.828Z" transform="translate(331.695 307.347)"/><path d="M138.284,139.577c-.357,4.07-6.713,10.712-9.962,10.712a11.14,11.14,0,0,1-5.677-2.678c-5.82-4.463-5.82-10.033-.25-14.746a7.141,7.141,0,0,1,11.14,0,44.629,44.629,0,0,1,4.749,6.713Z" transform="translate(303.864 334.733)"/><path d="M184.048,75.816c-3.571,0-10.533-7.141-10.283-10.5s7.427-10.426,10.712-10.069a16.318,16.318,0,0,1,9.855,9.855C194.581,68.675,187.618,75.816,184.048,75.816Z" transform="translate(446.554 142.056)"/><path d="M19.839,52.8c6.32,0,8.748,2.214,8.819,8.105s-2.178,8.962-7.891,9.034c-6.891,0-9.248-2.035-9.248-8.5S13.841,52.871,19.839,52.8Z" transform="translate(29.514 135.793)"/><path d="M63.913,10.08c6.32,0,8.855,2.214,8.926,8,0,6.641-1.928,9.034-7.748,9.141-6.927,0-9.355-2.035-9.391-8.391S57.914,10.151,63.913,10.08Z" transform="translate(143.08 25.979)"/><path d="M140.018,28.179c-6.07,0-8.462-2.357-8.5-8.427s2.285-8.641,8.248-8.712c6.641,0,8.962,2.249,8.891,8.855C148.623,25.894,146.231,28.214,140.018,28.179Z" transform="translate(337.979 28.447)"/><path d="M27.221,137.568c0,5.963-2.464,8.248-8.676,8.212s-8.569-2.392-8.462-9.319c0-5.891,2.464-7.891,9.141-7.82C25.043,128.748,27.293,131.248,27.221,137.568Z" transform="translate(25.809 330.743)"/><path d="M193.034,116.019c-2.678,0-8.569-5.57-8.712-8.427s5.606-8.569,8.462-8.712a13.247,13.247,0,0,1,8.676,8.462C201.6,110.02,195.89,115.912,193.034,116.019Z" transform="translate(473.702 254.244)"/><path d="M167.861,172.142c0,2.678-5.57,8.569-8.426,8.676s-8.569-5.57-8.712-8.427,5.606-8.569,8.462-8.712A13.247,13.247,0,0,1,167.861,172.142Z" transform="translate(387.331 420.816)"/><path d="M178.9,161.689a13.425,13.425,0,0,1-8.534,8.569,13.461,13.461,0,0,1-8.6-8.534,13.532,13.532,0,0,1,8.569-8.605A13.461,13.461,0,0,1,178.9,161.689Z" transform="translate(415.712 393.671)"/><path d="M192.678,105.462c-3-.214-8.534-6.07-8.355-8.784s6.106-8.534,8.819-8.355,8.534,6.106,8.319,8.819S195.392,105.676,192.678,105.462Z" transform="translate(473.701 227.096)"/><path d="M93.182,184.326c2.678-.25,8.641,5.213,8.926,8.212s-5.213,8.641-8.177,8.926-8.641-5.213-8.962-8.177S90.183,184.647,93.182,184.326Z" transform="translate(218.285 473.867)"/><path d="M113.139,193.033c0,2.856-6.034,8.569-8.676,8.427S96,195.425,96,192.783s6.034-8.569,8.712-8.462S113.281,190.32,113.139,193.033Z" transform="translate(246.673 473.872)"/><path d="M27.548,164.933c-5.891,0-6.463-.678-6.427-7.141s.821-6.748,7.712-6.641c5.32,0,6.106,1.071,6,7.5C34.761,164.612,34.118,165.148,27.548,164.933Z" transform="translate(54.19 388.571)"/><path d="M38.108,176.013c-5.891,0-6.463-.678-6.427-7.141s.821-6.748,7.712-6.641c5.32,0,6.106,1.071,6,7.5C45.321,175.728,44.678,176.085,38.108,176.013Z" transform="translate(81.335 417.052)"/><path d="M171.447,34.084c5.927,0,6.5.714,6.427,7.141s-.786,6.784-7.712,6.641c-5.284,0-6.07-1.071-6-7.5C164.27,34.584,164.913,34.012,171.447,34.084Z" transform="translate(421.878 87.669)"/><path d="M90.5,60.7a6.855,6.855,0,1,1-7.141-6.463A7.141,7.141,0,0,1,90.5,60.7Z" transform="translate(197.326 139.495)"/><path d="M36.854,38.726a7.141,7.141,0,0,1-6.963,6.5A7.141,7.141,0,0,1,23,38.476a6.857,6.857,0,1,1,13.711.25Z" transform="translate(59.023 81.669)"/><path d="M160.293,23a7.141,7.141,0,0,1,7.141,6.284,6.927,6.927,0,0,1-6.891,7.427A6.857,6.857,0,0,1,160.221,23Z" transform="translate(394.542 59.19)"/><path d="M82.138,130.08a7.141,7.141,0,0,1,6.855,6.641,6.784,6.784,0,0,1-7.141,7.141,6.9,6.9,0,0,1,.286-13.782Z" transform="translate(193.694 334.446)"/><path d="M41.015,34.871a6.855,6.855,0,1,1,6.855-6.855,6.855,6.855,0,0,1-6.855,6.855Z" transform="translate(87.711 54.461)"/><path d="M191.492,110.4a7.141,7.141,0,0,1,7.141,6.284,6.927,6.927,0,0,1-6.891,7.427,6.857,6.857,0,0,1-.321-13.711Z" transform="translate(474.743 283.857)"/><path d="M67.827,114.8a7.141,7.141,0,0,1-6.391,7.141,7.006,7.006,0,1,1,6.57-7.141Z" transform="translate(139.451 277.534)"/><path d="M106.027.48a7.141,7.141,0,0,1,7.141,6.427,6.82,6.82,0,0,1-7.141,7.141,7.141,7.141,0,0,1-6.677-6.82A7.141,7.141,0,0,1,106.027.48Z" transform="translate(255.284 1.302)"/><path d="M95.961,0a7.141,7.141,0,0,1,6.605,6.891,7.141,7.141,0,0,1-6.641,6.82A6.855,6.855,0,0,1,88.785,6.57,7.141,7.141,0,0,1,95.961,0Z" transform="translate(228.109 0.068)"/><path d="M68.559,82.406a6.954,6.954,0,0,1-13.889-.25,6.857,6.857,0,1,1,13.711.25Z" transform="translate(140.433 193.951)"/><path d="M14.12,92.091a7.141,7.141,0,0,1-6.463,7.141A6.82,6.82,0,0,1,.516,92.091,7.141,7.141,0,0,1,7.407,85.45,7.141,7.141,0,0,1,14.12,92.091Z" transform="translate(1.206 219.722)"/><path d="M13.64,103.131a7.141,7.141,0,0,1-6.463,7.141,6.82,6.82,0,0,1-7.141-7.141A7.141,7.141,0,0,1,6.927,96.49a7.141,7.141,0,0,1,6.713,6.641Z" transform="translate(-0.028 248.101)"/><path d="M137.82,90.515a6.857,6.857,0,0,1-.179-13.711,6.855,6.855,0,0,1,7.141,7.141A7.141,7.141,0,0,1,137.82,90.515Z" transform="translate(336.642 197.482)"/><path d="M199.12,84.806a6.954,6.954,0,0,1-13.89-.25,6.857,6.857,0,1,1,13.711.25Z" transform="translate(476.043 200.12)"/><path d="M88.583,190.783a6.855,6.855,0,1,1-7.141-6.463A7.141,7.141,0,0,1,88.583,190.783Z" transform="translate(192.391 473.873)"/><path d="M123.181,61.642a7.141,7.141,0,0,1-6.605,6.855,6.906,6.906,0,1,1,6.57-6.748Z" transform="translate(281.191 140.662)"/><path d="M114.146,198.918A7.141,7.141,0,0,1,107,192.456a7.006,7.006,0,1,1,7.141,6.57Z" transform="translate(274.945 476.413)"/><path d="M117.521,14.1A12.247,12.247,0,0,1,110.38,7.67,11.962,11.962,0,0,1,116.628.529c2.107-.286,7.712,4.642,7.391,6.855a7.5,7.5,0,0,1-1.785,4.285,18.568,18.568,0,0,1-4.713,2.428Z" transform="translate(283.638 1.396)"/><path d="M121.664,137.608a12.14,12.14,0,0,1-6.5,7.141c-1.857.179-6.927-4.285-7.141-6.284s4.785-7.677,6.927-7.355a7.962,7.962,0,0,1,4.249,1.857A17.853,17.853,0,0,1,121.664,137.608Z" transform="translate(277.566 337.058)"/><path d="M136.856,109.44a13.211,13.211,0,0,1,6.82,6.605c0,2.357-4.892,7.141-7.141,7.141s-6.855-5.32-6.391-7.141a11.355,11.355,0,0,1,2.5-4.82,13.531,13.531,0,0,1,4.213-1.785Z" transform="translate(334.357 281.389)"/><path d="M13.617,113.6a12.069,12.069,0,0,1-6.427,7.141,11.89,11.89,0,0,1-7.141-6.213c-.286-2.107,4.642-7.712,6.855-7.427a7.784,7.784,0,0,1,4.285,1.821,18.566,18.566,0,0,1,2.428,4.677Z" transform="translate(-0.005 275.341)"/><path d="M154.628,180.305a23.382,23.382,0,0,1-1.678,3.035c-1.143,1.25-2.5,2.357-3.571,3.57-1.678,2.035-3.142,1.857-4.749,0a21.639,21.639,0,0,0-3-3c-2.071-1.678-1.857-3.142,0-4.749a23.814,23.814,0,0,0,3-3c1.678-2.071,3.035-1.75,4.785,0A46.424,46.424,0,0,0,154.628,180.305Z" transform="translate(360.181 449.216)"/><path d="M6.828,74.33c1.071.464,1.678.536,2.035.893a43.555,43.555,0,0,1,4.749,4.856,3.571,3.571,0,0,1,0,2.821c-.286.714-1.143,1.214-1.75,1.821-5.07,5-3.785,4.963-8.926,0-3.035-2.964-3.571-3.249,0-6.534C4.364,76.9,5.65,75.508,6.828,74.33Z" transform="translate(1.071 191.137)"/><path d="M91.276,7.9c-1.785,1.678-3.571,4.785-6.248,5.606s-4.249-3-6.284-4.785C78.1,8.19,77.565,6.4,77.922,5.976A42.525,42.525,0,0,1,83.957.049C85.063-.737,91.562,5.512,91.276,7.9Z" transform="translate(199.91 0.019)"/><path d="M15.651,140.64c3.571,0,5.106,1.357,5.213,4.856,0,4.178-1.285,5.606-5.5,5.427-3.571,0-4.82-1.678-4.785-5.284S12.08,140.676,15.651,140.64Z" transform="translate(27.097 361.591)"/><path d="M178.9,153.814c-3.571,0-5.034-1.393-5.142-4.927,0-4.07,1.428-5.534,5.57-5.356,3.571,0,4.82,1.75,4.713,5.356S182.508,153.814,178.9,153.814Z" transform="translate(446.559 368.984)"/><path d="M149.034,22.793c-3.571,0-5.284-1.25-5.5-4.57s1.178-5.427,4.356-5.713c4.035-.321,5.891,1.25,5.927,5S152.39,22.685,149.034,22.793Z" transform="translate(368.81 32.119)"/><path d="M196.05,72.751c0,3.571-1.357,5.106-4.856,5.213-4.142,0-5.57-1.285-5.427-5.5,0-3.571,1.678-4.82,5.284-4.785S196.05,69.216,196.05,72.751Z" transform="translate(477.398 174.043)"/><path d="M71.607,75.583c-3.571,0-5.177-1.285-5.356-4.713s1.25-5.32,4.5-5.57c4.142-.25,5.784,1.214,5.784,5.142S75.141,75.511,71.607,75.583Z" transform="translate(170.163 167.854)"/><path d="M65.023,102.847c0,3.571-1.285,5.213-4.713,5.356s-5.32-1.214-5.57-4.5c-.25-4.106,1.214-5.784,5.142-5.784S64.951,99.348,65.023,102.847Z" transform="translate(140.542 251.777)"/><path d="M42.72,179.127c0-3.571,1.321-5.177,4.713-5.356s5.356,1.25,5.57,4.5c.286,4.106-1.214,5.784-5.142,5.784S42.827,182.661,42.72,179.127Z" transform="translate(109.715 446.717)"/><path d="M190.314,132.233c-3.571,0-5.284-1.25-5.5-4.57s1.178-5.427,4.356-5.713c4.035-.321,5.891,1.25,5.927,5S193.777,132.125,190.314,132.233Z" transform="translate(474.922 313.441)"/><path d="M109.179,60.492c0,3.571-1.5,5-5.07,5s-5.463-1.607-5.213-5.713c.214-3.321,1.892-4.713,5.5-4.57S109.25,56.885,109.179,60.492Z" transform="translate(254.061 141.955)"/><path d="M98.623,59.647c0,3.571-1.285,5.213-4.713,5.356s-5.32-1.214-5.57-4.5c-.25-4.106,1.214-5.784,5.142-5.784S98.551,56.148,98.623,59.647Z" transform="translate(226.912 140.729)"/><path d="M185.5,50.547c0,3.571-1.285,5.213-4.713,5.356s-5.32-1.214-5.57-4.5c-.25-4.106,1.214-5.784,5.142-5.784S185.431,46.977,185.5,50.547Z" transform="translate(450.241 117.337)"/><path d="M22.783,47.647c0,3.571-1.285,5.213-4.713,5.356s-5.32-1.214-5.57-4.5c-.25-4.106,1.214-5.784,5.142-5.784S22.711,44.148,22.783,47.647Z" transform="translate(31.962 109.882)"/><path d="M69.247,184.8c3.571,0,5.213,1.321,5.356,4.713s-1.214,5.356-4.5,5.57c-4.106.286-5.784-1.214-5.784-5.142S65.748,184.907,69.247,184.8Z" transform="translate(165.238 475.107)"/><path d="M65.5,91.807c0,3.571-1.285,5.213-4.713,5.356s-5.32-1.214-5.57-4.5c-.25-4.106,1.214-5.784,5.142-5.784S65.431,88.308,65.5,91.807Z" transform="translate(141.775 223.398)"/><path d="M124.074,196.073c-3.571,0-5.284-1.25-5.5-4.57s1.178-5.427,4.356-5.713c4.035-.321,5.891,1.25,5.927,5S127.537,195.965,124.074,196.073Z" transform="translate(304.649 477.545)"/><path d="M102.7,130.79c2.035,2.214,5.213,4.356,4.927,5.606-.571,2.178-3.285,3.571-5.106,5.57-1.607-1.714-4.427-3.571-4.5-5.213S100.735,133.147,102.7,130.79Z" transform="translate(251.865 336.271)"/><path d="M76.517,124.419a48.738,48.738,0,0,1-5.891,5.106c-1.214.714-6.07-4.356-5.249-5.356,1.428-1.857,3.571-4.463,5.249-4.5S74.2,122.241,76.517,124.419Z" transform="translate(167.716 307.686)"/><path d="M98.113,135.925a51.555,51.555,0,0,1-5.963,5.07c-1.178.714-6.034-4.356-5.213-5.392,1.464-1.821,3.571-4.428,5.249-4.463S95.9,133.89,98.113,135.925Z" transform="translate(223.137 337.17)"/><path d="M5.293,129.874c-2-2.321-4.749-4.142-4.713-6.07s2.856-3.571,4.463-5.284c1.821,1.821,4.57,3.571,5.142,5.534C10.506,125.447,7.364,127.625,5.293,129.874Z" transform="translate(1.392 304.73)"/><path d="M56.763,15.972c-2.392,1.892-4.32,4.606-6.07,4.535s-3.571-2.785-5-4.713c-.75-1.107,4.356-5.927,5.392-5.142a53.557,53.557,0,0,1,5.677,5.32Z" transform="translate(117.167 27.228)"/><path d="M125.97,66c1.892,2.428,4.57,4.392,4.463,6.141s-2.856,3.571-4.785,4.927c-1.143.714-5.891-4.5-5.106-5.5A64.517,64.517,0,0,1,125.97,66Z" transform="translate(309.537 169.725)"/><path d="M142.208,92.957a57.129,57.129,0,0,1-5.677,5.32c-1.071.786-6.177-4.07-5.392-5.177,1.285-1.928,3.213-4.57,5-4.677S139.815,91.064,142.208,92.957Z" transform="translate(336.789 227.354)"/><path d="M142.243,103.556c-2.071,2.142-3.571,5.106-5.427,5.213s-3.963-2.392-5.677-4.035c-.857-.857,3.571-6.356,4.82-5.784a36.1,36.1,0,0,1,6.284,4.606Z" transform="translate(336.718 254.317)"/><path d="M75.041,4.24c.393,2.249,0,3.571-3.035,3.321-3.785,0-3.571,0-3.856-3.571,0-2.357.25-3.571,3.071-3.571C75.041.777,75.041.563,75.041,4.24Z" transform="translate(175.083 1.147)"/><path d="M126.894,124.491c0,3.571,0,3.321-3.82,3.571-2.892,0-3.178-1.143-3.071-3.571.179-3.571,0-3.571,3.892-3.571C126.894,121.206,126.894,121.206,126.894,124.491Z" transform="translate(308.327 310.899)"/><path d="M8.334,68.331c0,3.571,0,3.321-3.82,3.571-2.892,0-3.178-1.143-3.071-3.571.179-3.571,0-3.571,3.892-3.571C8.334,64.974,8.334,64.974,8.334,68.331Z" transform="translate(3.564 166.537)"/><path d="M125.034,8.347c-3.571.5-2.5-2.107-2.535-3.856,0-3.142,0-2.964,4.249-3.071,3.571,0,2.535,2.214,2.571,3.963C129.319,8.525,129.176,8.6,125.034,8.347Z" transform="translate(314.472 3.718)"/><path d="M6.756,56.169c-1.357.75-2.249,1.535-2.571,1.357A9.1,9.1,0,0,1,2.4,55.49c.571-.428,1.25-1.321,1.678-1.214A17.012,17.012,0,0,1,6.756,56.169Z" transform="translate(6.07 139.566)"/><path d="M167.529,24.23c.75,1.357,1.535,2.249,1.357,2.535a7.641,7.641,0,0,1-2.035,1.785c-.428-.536-1.321-1.214-1.214-1.642A15.463,15.463,0,0,1,167.529,24.23Z" transform="translate(425.654 62.352)"/><path d="M25.76,26.37a9.641,9.641,0,0,1-1.25-3.035c0-.428,1.393-1.357,1.535-1.214a4.856,4.856,0,0,1,1.714,2.071C27.866,24.477,26.867,25.3,25.76,26.37Z" transform="translate(62.905 56.892)"/><path d="M24.024,167.556c-.928-1.25-1.678-1.892-1.892-2.678s.786-1.107,1.214-1.678a9.106,9.106,0,0,1,2.035,1.785C25.559,165.307,24.774,166.056,24.024,167.556Z" transform="translate(56.714 419.583)"/><path d="M188,57.35c1.107,1.178,2.107,1.892,2,2.178a4.856,4.856,0,0,1-1.714,2.071s-1.535-.786-1.535-1.214A9.64,9.64,0,0,1,188,57.35Z" transform="translate(479.95 147.489)"/><path d="M159.4,15.369c-1.357.75-2.249,1.535-2.571,1.357a9.105,9.105,0,0,1-1.785-2.035c.571-.428,1.25-1.321,1.678-1.214A17.012,17.012,0,0,1,159.4,15.369Z" transform="translate(398.438 34.687)"/><path d="M181,37.449c-1.357.75-2.249,1.535-2.571,1.357a9.106,9.106,0,0,1-1.785-2.035c.571-.428,1.25-1.321,1.678-1.214A17.012,17.012,0,0,1,181,37.449Z" transform="translate(453.962 91.445)"/><path d="M34.569,174c.75,1.357,1.535,2.25,1.357,2.535a7.644,7.644,0,0,1-2.035,1.785c-.428-.536-1.321-1.214-1.214-1.643A14.183,14.183,0,0,1,34.569,174Z" transform="translate(83.874 447.345)"/><path d="M15.876,153.565c-1.25.928-1.892,1.678-2.678,1.892s-1.107-.786-1.678-1.214a9.1,9.1,0,0,1,1.785-2.035C13.627,152.03,14.519,152.815,15.876,153.565Z" transform="translate(29.514 391.262)"/><path d="M156.516,178.569c-1.357.75-2.249,1.535-2.571,1.357a9.1,9.1,0,0,1-1.785-2.035c.571-.428,1.25-1.321,1.678-1.214A24.486,24.486,0,0,1,156.516,178.569Z" transform="translate(391.035 454.202)"/><path d="M187.689,133.19c.75,1.357,1.535,2.249,1.357,2.535a7.642,7.642,0,0,1-2.035,1.785c-.428-.536-1.321-1.214-1.214-1.642A15.459,15.459,0,0,1,187.689,133.19Z" transform="translate(477.476 342.44)"/><path d="M176.169,154.79c.75,1.357,1.535,2.249,1.357,2.535a7.641,7.641,0,0,1-2.035,1.785c-.428-.536-1.321-1.214-1.214-1.642A15.461,15.461,0,0,1,176.169,154.79Z" transform="translate(447.863 397.964)"/><path d="M134.72,2.15c1.107,1.178,2.107,1.892,2,2.178A4.856,4.856,0,0,1,135.005,6.4s-1.535-.786-1.535-1.214a9.641,9.641,0,0,1,1.25-3.035Z" transform="translate(342.991 5.595)"/><path d="M2.24,130.31c1.107,1.178,2.107,1.892,2,2.178a4.856,4.856,0,0,1-1.714,2.071S.99,133.773.99,133.345a9.64,9.64,0,0,1,1.25-3.035Z" transform="translate(2.446 335.037)"/><path d="M58.519,187.04c-1.214,1.107-1.892,2.107-2.178,2a4.856,4.856,0,0,1-2.071-1.714s.786-1.535,1.214-1.535a9.641,9.641,0,0,1,3.035,1.25Z" transform="translate(139.404 477.651)"/><path d="M61.956,2.347c-1.25.928-1.892,1.678-2.678,1.892S58.171,3.454,57.6,3.025a9.105,9.105,0,0,1,1.785-2C59.707.812,60.6,1.6,61.956,2.347Z" transform="translate(147.964 2.613)"/></g></svg>