<svg xmlns="http://www.w3.org/2000/svg" width="668.238" height="669.512" viewBox="0 0 668.238 669.512"><g transform="translate(0 0)"><path d="M87.856,301.079c-.893-9.355,4.213-14.068,10.712-17.853,1.821-1.107,1.821-2.285,0-3.571a15.818,15.818,0,0,1-8.891-11.926c0-.643-.821-1.214-1.25-1.785-.714.571-1.75,1.035-2.107,1.785A17.5,17.5,0,0,1,67,279.441c-13.175-1.714-20.174-15.818-15.1-25.815a17.067,17.067,0,0,1,10.069-9.89c4-1.178.643-2.285,0-2.785-1.821-1.607-4-2.785-5.856-4.356-10.712-9.1-7.141-26.351,6.463-31.528a16.353,16.353,0,0,1,18.5,3.571c2.821,2.964,6.213,5.534,6.927,10,0,.393.607.714.928,1.071a4.678,4.678,0,0,0,.714-1.392c1-7.355,5.856-11.283,12.211-13.925a13.313,13.313,0,0,0,1.428-.714c-.357-.321-.678-.821-1.107-.964A18.817,18.817,0,0,1,90.32,192.284c-.321-.678-1.071-2.678-2.535,0a24.78,24.78,0,0,1-7.141,8.105,19.567,19.567,0,0,1-16.032,1.821c-4.392-.964-7.355-4.963-10.1-8.391a15.46,15.46,0,0,1-2.642-9.212c-.536-9.1,4.249-14.282,11.6-18.21a17.5,17.5,0,0,1,19.138,2.642,18.067,18.067,0,0,1,6.07,7.748c2.035-2.5,3.856-5.106,6.106-7.391a83.3,83.3,0,0,1,6.713-5.5,63.058,63.058,0,0,1-6.5-4.892,10.712,10.712,0,0,1-3.571-7.927,2.142,2.142,0,0,0-1.464-1.464c-.607,0-1.714.571-1.821,1.107a16.139,16.139,0,0,1-10.033,10.712c-8.534,3.928-17.389.357-22.816-7.677-4.963-7.355-3.571-13.889.321-20.352a19.067,19.067,0,0,1,22.459-6.5,25.173,25.173,0,0,1,11.6,13.6l1,1.892a5.783,5.783,0,0,0,.678-1.428,16.032,16.032,0,0,1,13.961-13.889,5.855,5.855,0,0,0,1.393-.75c-.357-.321-.678-.786-1.143-.928a21.423,21.423,0,0,1-13-11.676,19.245,19.245,0,0,1,2.5-18.567c4-4.356,8.105-8,14.889-7.605a19.781,19.781,0,0,1,19,14.925c.214.75.5,1.5.75,2.249a9.176,9.176,0,0,0,.928-2,16.71,16.71,0,0,1,13.6-13.211,8.211,8.211,0,0,0,1.5-.5c-.393-.607-.643-1.393-1.214-1.785a20.708,20.708,0,0,0-4.106-2.428,15.71,15.71,0,0,1-9.6-16.389,17.853,17.853,0,0,1,9.712-15.639A17.281,17.281,0,0,1,160.874,54.1a16.782,16.782,0,0,1,7.141,17.317,16.46,16.46,0,0,1-8.5,13,61.522,61.522,0,0,0-5.57,3.142,5.714,5.714,0,0,0-1.071,1.178,4.213,4.213,0,0,0,1.392.786,14.961,14.961,0,0,1,12.318,9.391,1.75,1.75,0,0,0,3.285,0,14.889,14.889,0,0,1,12.64-9.391c.5,0,.928-.536,1.392-.821a13,13,0,0,0-1.214-1.214c-3-2.428-6.177-4.677-8.926-7.141-5.213-5-4.606-16.5-1.035-21.423A19.817,19.817,0,0,1,194.152,50.5a19.21,19.21,0,0,1,12.211,10.319,13.1,13.1,0,0,0,1.357,2c.714.821,1.035,1.785,2.178,0a35.313,35.313,0,0,1,7.141-8.248c4.677-3.856,10.712-2.964,16.032-2.285s12.211,10.712,12.961,16.639c1.143,8.784-3.571,14.5-9.783,18.924-1.964,1.393-2.714,1.5-.678,2.642,5.534,3.071,9.89,6.82,10.39,13.6,0,.357.643.643,1,.964.214-.5.428-.964.678-1.428a25,25,0,0,1,3.035-5.606c2.892-3.249,5.856-6.713,10.962-6.534.428,0,.893-.5,1.357-.786a5.787,5.787,0,0,0-1.107-1.178,29.922,29.922,0,0,0-4.142-2.428,16.46,16.46,0,0,1-9.962-17.1A18.781,18.781,0,0,1,274.1,53.782a17.853,17.853,0,0,1,11.069,17.424c-.286,6.534-2.5,12.783-9.6,15.568a20.281,20.281,0,0,0-4.142,2.428,6.46,6.46,0,0,0-1.178,1.785,8.212,8.212,0,0,0,1.5.5,15.853,15.853,0,0,1,11.926,8.926c1.571,2.821,1.643,2.714,3.856,0,1.107-1.321,2.535-2.357,3.571-3.571,5.142-6.427,12.318-6.07,19.138-5.034,5.891.893,12.283,10.712,12.854,16.639,1,10.712-5.177,16.21-13.282,20.745a15.108,15.108,0,0,1-2.214.893,18.532,18.532,0,0,0,2.214.821,16.246,16.246,0,0,1,13.211,13.747,12.694,12.694,0,0,0,.607,1.464c.429-.25.964-.393,1.214-.75.857-1.357,1.714-2.714,2.428-4.142a16.782,16.782,0,0,1,17.853-10.1,18.353,18.353,0,0,1,14.282,9.1,17.853,17.853,0,0,1-.464,20.424c-3.142,5.284-13.925,10.962-22.387,6.391a17.853,17.853,0,0,1-10.1-10.712c-.357-1.143-1.75-1.964-2.642-2.892a21.889,21.889,0,0,1-.75,3.106,17.389,17.389,0,0,1-8.641,10.39c-2.357,1.071-2.357,2.642-.464,3.356,4.82,1.892,6.82,6,9.141,10.033.357.643.607,1.321.928,2a6.068,6.068,0,0,1,.821-2.214,47.489,47.489,0,0,1,7.748-7.855,18.888,18.888,0,0,1,14.568-1.607,21.674,21.674,0,0,1,13.318,15.282,19.709,19.709,0,0,1-10.712,19.852c-2.178,1.25-2.071,2.107-.321,3.571a57.127,57.127,0,0,1,8.212,7.141,18.817,18.817,0,0,1-.928,21.423c-4.106,4.213-8.069,7.82-14.854,7.784a18.353,18.353,0,0,1-17.6-11.247c-.607-1.178-1.143-2.357-1.75-3.571,0-.25-.5-.643-.607-.571s-1,.5-1.035.786c-.714,7.891-5.784,11.89-12.6,14.282-.393,0-.678.678-1,1a12.93,12.93,0,0,0,1.428.678,20.638,20.638,0,0,1,11.747,10.712c.393.75,1,1.964,2.178,0a43.3,43.3,0,0,1,6.284-7.57c4.856-4.606,15.246-4.427,20.138-1.25a20.138,20.138,0,0,1,9.391,21.709,21.923,21.923,0,0,1-16.317,14.282,19.245,19.245,0,0,1-19.388-10.248c-1.964-3.57-2.642-.571-2.892,0a16.96,16.96,0,0,1-8.784,9.069c-1.571.643-2.571,2-.357,3.571,1.607,1.143,2.785,2.892,4.285,4.178,5.641,4.856,5.641,14.889,2.607,20.6a18.781,18.781,0,0,1-25.279,8.534,42.274,42.274,0,0,1-8.248-6.963c-2.249-2.285-3.106-2.642-4.106-.464a15.032,15.032,0,0,1-12.425,9.319,2.035,2.035,0,0,0-1.214,1.678c0,.571.857,1.607,1.285,1.607,5.534,0,7.141,5.284,10.712,7.712,0,5.034,2.749,9.426.786,15.139-4.285,12.318-15.853,15.461-27.208,11.5-2.607-3.571-7.748-5.034-7.891-10.426a2.142,2.142,0,0,0-1.428-1.5c-.607,0-1.75.571-1.857,1.071-.786,3.571-4.106,5.249-6.391,7.605-4.5,4.677-16.782,4.606-22.066-.214a19.46,19.46,0,0,1-8.069-17.246,13.39,13.39,0,0,1,3.571-8.891,27.387,27.387,0,0,1,6.891-6.177c2.535-1.143,1.357-1.928.286-2.464a22.459,22.459,0,0,1-10.212-10.212c-.464-.928-1.035-1.785-2.107,0a23.388,23.388,0,0,1-5.82,7.141,31.384,31.384,0,0,1-7.5,3.178c2.178,1.607,4.32,3.249,6.57,4.82,6.927,4.856,7.927,12,6.713,19.424a21.1,21.1,0,0,1-15.532,14.282,20.459,20.459,0,0,1-18.424-7.5A19.46,19.46,0,0,1,166.8,333a20,20,0,0,1,13.211-10.283,11.708,11.708,0,0,0,2.071-.893,4.213,4.213,0,0,0-1.393-.786c-7.355-.893-11.319-5.784-13.961-12.1-.214-.5-.464-.964-.678-1.464-.357.321-.893.571-1,.964a18.388,18.388,0,0,1-12.64,12.64c-2.035.678-.286,1.928.321,2.142a16.353,16.353,0,0,1,8.819,9.1c4.285,8.426.286,18.1-7.927,23.53-7.5,4.927-14.282,3.178-20.352-.928a17.1,17.1,0,0,1-7.57-16.389,17.567,17.567,0,0,1,11.1-15.639c2.357-.857,3.178-1.178.893-2.535-5.392-3.142-10-6.713-10.426-13.568,0-.393-.643-.714-.964-1.071-.393.428-.857.786-1.178,1.214-1.25,1.785-2.428,3.571-3.571,5.356-4.82,6.784-11.783,7.962-19.352,7.141-5.034-.678-8.069-4.642-11.14-8.141A10.248,10.248,0,0,1,87.856,301.079Zm.821-74.518c-.286.393-.786.786-.857,1.25a17.853,17.853,0,0,1-7.141,9.855,73.208,73.208,0,0,1-6.5,4.856,53.56,53.56,0,0,1,7.141,4.285,16.175,16.175,0,0,1,3.071,4.642c1.178,2.071,2.249,4.213,3.356,6.284.25.464.571.893.857,1.321.286-.428.786-.857.821-1.357.75-7.427,5.784-11.176,11.926-14.068a9.32,9.32,0,0,0,1.535-1.107l-1.464-.571c-6.177-2.821-11.212-6.57-12-14.032C89.428,227.454,88.963,227.025,88.678,226.561Zm54.2-21.423-2.035-.928c-6.141-2.856-11.211-6.606-11.961-14.068,0-.5-.536-.928-.821-1.357a6.675,6.675,0,0,0-.857,1.357A19.459,19.459,0,0,1,115.278,202.5l-1.5.536a8.783,8.783,0,0,0,1.5,1.143c6.141,2.856,11.212,6.605,11.961,14.1,0,.464.536.893.821,1.357a6.9,6.9,0,0,0,.821-1.357,19.567,19.567,0,0,1,11.961-12.354Zm62.485,24.994c-.357.321-.893.571-1,.964a18.1,18.1,0,0,1-12.6,12.568c-.393,0-.678.678-1,1,.5.25.964.5,1.428.678a19.567,19.567,0,0,1,12.14,12.176,10.719,10.719,0,0,0,.714,1.428c.321-.357.857-.643.964-1.035a18.174,18.174,0,0,1,12.6-12.568c.393,0,.643-.643.964-1-.464-.214-.928-.5-1.392-.678a19.5,19.5,0,0,1-12.14-12.176,12.009,12.009,0,0,0-.678-1.357Zm15.889-101.939c-.25-.357-.464-.964-.786-1.035A18.21,18.21,0,0,1,207.72,114.7a4.855,4.855,0,0,0-.857-1.25,7.636,7.636,0,0,0-.821,1.357,20.1,20.1,0,0,1-13.461,12.89c5.749,3.285,11.64,6.391,13.5,13.532,0,.464.571.857.857,1.25a6.536,6.536,0,0,0,.821-1.357,19.281,19.281,0,0,1,12-12.318Zm37.812,195.274c-.357-.321-.714-.928-1.107-.928-7.57-.536-11.14-5.891-14.282-11.819-.321-.607-.678-1.178-1.035-1.75a9.712,9.712,0,0,1-.714,2.249,31.064,31.064,0,0,1-7.141,9c-2.928,2.357-2.928,3.571-.25,6.034a24.5,24.5,0,0,1,6.748,8.284c0,.536,2.214.857,2.214.821,2.5-6.5,8-9.176,14.068-11.176a7.64,7.64,0,0,0,1.5-.714ZM322.691,195.5c-.536.357-1.535.607-1.785,1.178a14.711,14.711,0,0,1-12.39,9.283c-.464,0-.893.571-1.357.857.464.286.857.75,1.357.821a13.425,13.425,0,0,1,8.641,5.891,68.8,68.8,0,0,1,4.927,9.212,19.745,19.745,0,0,1,6.034-9.462c1.964-1.464,4.07-2.714,5.891-4.356a3.107,3.107,0,0,0-.179-2.714,17,17,0,0,1-9.569-9.569c-.179-.5-.857-.678-1.571-1.143ZM219.574,88.7c-.286-.321-.536-.821-.928-1a22.28,22.28,0,0,1-10.14-10.283c-.893-1.571-1.178-2-2.749.464-3.035,4.677-7.141,9.355-13.532,9.819a4.035,4.035,0,0,0-1.428.678,10.888,10.888,0,0,0,1.785,1c1,.357,2.107.428,3.071.786a20.138,20.138,0,0,1,10.39,10.89l.964,1.928a13.427,13.427,0,0,1,.75-2.214c2.5-4.249,4.892-8.534,10-10.283C218.467,90.237,218.967,89.523,219.574,88.7ZM167.73,180.037c.214-.536.393-1.035.607-1.5a17.424,17.424,0,0,1,9.533-10.712c1.393-.536,1.285-2.357-.464-3.142a15.1,15.1,0,0,1-9.176-11.569,6.569,6.569,0,0,0-.964-1.857,10.714,10.714,0,0,0-.714,1.428,19.388,19.388,0,0,1-12.211,12.14,10.464,10.464,0,0,0-1.393.75c.357.321.678.786,1.107.928a18.138,18.138,0,0,1,12.533,12.711C166.766,179.573,167.337,179.751,167.73,180.037Zm89.978,103.8a11.677,11.677,0,0,1-2.321-.786,19,19,0,0,1-10.033-9.069c-.786-1.964-2.214-1.928-3.392.357a15.1,15.1,0,0,1-12,8.748,5.675,5.675,0,0,0-1.428.643c.286.357.5.928.857,1.035a18.067,18.067,0,0,1,12.675,12.568c0,.393.643.678.964,1a12.852,12.852,0,0,0,.714-1.392,19.531,19.531,0,0,1,12.211-12.176A12.57,12.57,0,0,0,257.707,283.833ZM244.425,181.786c.357-.321.893-.536,1-.928a18.067,18.067,0,0,1,12.6-12.783c.393,0,.643-.643,1-1L257.6,166.4c-4.5-2.071-8.855-4.142-10.712-9.462-.464-1.393-2.464-1.393-3.214.25a14.818,14.818,0,0,1-12.461,9.248c-.428,0-.821.571-1.25.857a6.033,6.033,0,0,0,1.392.786,19.352,19.352,0,0,1,12.283,12.1C243.925,180.787,244.175,181.287,244.425,181.786Zm-67.376,101.4c-.357-.536-.607-1.535-1.178-1.785a14.818,14.818,0,0,1-9.283-12.39c0-.5-.536-.928-.821-1.357a6.675,6.675,0,0,0-.857,1.357,20.209,20.209,0,0,1-13.461,12.961c5.749,3.285,11.676,6.356,13.5,13.568,0,.428.607.75.928,1.143.25-.464.536-.928.75-1.393,2.071-4.463,3.963-9.069,9.426-10.712C176.406,284.618,176.62,283.869,177.049,283.19Zm-9.712-92.549a13.777,13.777,0,0,0-.714,1.464,21.424,21.424,0,0,1-11.354,12.1,16.791,16.791,0,0,1-2.249.786c.643.321,1.321.607,1.964.964a19.067,19.067,0,0,1,10.033,9.1c.786,1.928,2.214,1.892,3.356-.393a15.282,15.282,0,0,1,12.033-8.748,5.677,5.677,0,0,0,1.428-.643c-.286-.357-.5-.893-.857-1.035a17.853,17.853,0,0,1-12.747-12.568C168.229,191.284,167.694,190.963,167.337,190.641ZM298.411,206.6a13.036,13.036,0,0,0-1.464-.643A21.423,21.423,0,0,1,284.879,194.5a20.236,20.236,0,0,1-.821-2.214,18.058,18.058,0,0,1-.893,2.071,37.88,37.88,0,0,1-2.749,4.856,22.423,22.423,0,0,1-10.712,7.141c3.571,2.5,8,4.106,10.712,7.891.607.821.571,2.249,1.321,2.821s2.571.464,2.714,0a15.175,15.175,0,0,1,13.068-9.748C297.84,207.6,298.126,206.959,298.411,206.6Zm-3.178-38.99c-.5-.321-1.107-.75-1.714-1.071a16.532,16.532,0,0,1-8.641-11.283,7.712,7.712,0,0,0-.714-2.285c-.321.607-.714,1.214-1,1.857a21.423,21.423,0,0,1-11.783,11.711,12.142,12.142,0,0,0-1.714,1.035l1.428.678A19.317,19.317,0,0,1,283.165,180.5a10.717,10.717,0,0,0,.786,1.393,5,5,0,0,0,.893-1.25,17.282,17.282,0,0,1,9.89-11.212C295.02,169.361,295.02,168.468,295.234,167.611Zm-50.38,53.558.607-1.5a21.1,21.1,0,0,1,11.5-12,23.646,23.646,0,0,1,2.214-.857c-.75-.286-1.5-.536-2.214-.893a32.773,32.773,0,0,1-3.571-1.714c-4.463-2.749-6.32-7.57-9.141-11.6a18.317,18.317,0,0,1-9.426,11.64c-.25,0-.714,0-.714.25,0,.964-.357,2.642,0,2.821a14.889,14.889,0,0,1,9.676,13.033C243.818,220.67,244.461,220.884,244.853,221.17ZM126.24,298.4c.321-.393.928-.75.928-1.107a12.5,12.5,0,0,1,3.249-8.105c2.678-3.571,6.927-4.713,10.247-7.141a22.923,22.923,0,0,1-10.712-7.32c-.607-.786-.571-2.214-1.285-2.785s-2.642-.536-2.749-.25a17.139,17.139,0,0,1-11.247,9.712c-1.785.643-.786,1,.393,1.75,5.177,3.249,9.783,7.141,10.5,13.854C125.561,297.472,125.99,297.937,126.24,298.4Zm174.1-168.78-1.928-.821a22.994,22.994,0,0,1-11.818-10.712c-.893-2.071-1.75-.607-2.107,0a22.03,22.03,0,0,1-10.212,10.176c-.607.321-2.285,1.285-.286,2.178a14.818,14.818,0,0,1,9.248,12.64c0,.286.928.428,1.428.643,2.571-7.141,6.57-12.426,14.782-13.1A10.984,10.984,0,0,0,300.34,129.621Zm-159.425-3.356a11.1,11.1,0,0,1-1.25-1.035,39.276,39.276,0,0,1-7.141-5.713,31.029,31.029,0,0,1-3.142-7.57c-1.821,2.357-3.571,4.892-5.5,7.141a15.389,15.389,0,0,1-9.212,6.356c-.393,0-.75.571-1.107.893a5.854,5.854,0,0,0,1.393.75,14.961,14.961,0,0,1,12.318,9.391c0,.5,2.642.678,2.678.536a18.959,18.959,0,0,1,9.712-9.569A7.569,7.569,0,0,0,140.915,126.264ZM282.487,269.551c-.214,0-.536,0-.607.214a12.909,12.909,0,0,1-.464,1.5c-2.142,4.142-4.178,8.319-9,10.14a29.885,29.885,0,0,0-4.57,2.678c1.678.786,3.321,1.642,5,2.392a20.173,20.173,0,0,1,8.141,8.962c.428.714,1.214,2.178,2.178,0a19.1,19.1,0,0,1,9.069-9.141c1.928-1,1.892-2.249-.357-3.571a15.211,15.211,0,0,1-8.784-12A5.106,5.106,0,0,0,282.487,269.551Zm14.282-23.494a35.316,35.316,0,0,0-5-2.357c-4.392-1.464-5.213-6.57-9-8.605-2.571,3.571-4.856,7.712-9.6,9.212-.214,0-.428.357-.607.571s-2.178,1.285,0,2.214a14.675,14.675,0,0,1,9.176,12.318c0,.5.536.928.821,1.357a5.107,5.107,0,0,0,.821-1.321,18.353,18.353,0,0,1,12.675-12.39A6.15,6.15,0,0,1,296.769,246.056ZM219.752,283.94a9.217,9.217,0,0,0-1.321-.857,18.281,18.281,0,0,1-12.426-12.64c0-.357-.678-.607-1.035-.893l-.643,1.428a28.912,28.912,0,0,0-1.678,3.57c-1.428,4.428-6.57,5.249-8.605,9,3.571,2.571,7.712,4.892,9.212,9.6,0,.25.357.428.607.607s1.285,2.178,2.178,0a14.675,14.675,0,0,1,12.354-9.141C218.86,284.69,219.288,284.226,219.752,283.94Zm26.529-170.494c-.286.464-.571.893-.821,1.357-1.143,2.071-2.142,4.213-3.392,6.248-2.357,3.571-6.784,4.642-10.069,7.141a22.351,22.351,0,0,1,10.712,7.141c.643.821.607,2.214,1.285,2.821a4.178,4.178,0,0,0,2.714.464,18.888,18.888,0,0,1,9.6-9.5c.714-.428,2.071-1.178,0-2.107a14.461,14.461,0,0,1-9.176-12.5C247.1,114.232,246.567,113.839,246.282,113.446Zm-77.766,3.571c-.5,0-1.357,0-1.428.464a18.459,18.459,0,0,1-9.569,9.319c-.893.5-1.964,1.25,0,2.071a15.6,15.6,0,0,1,8.962,10.712c.286.928.643,1.857.964,2.749.393-.964.75-1.928,1.214-2.892a15.246,15.246,0,0,1,1.821-3.571,23.494,23.494,0,0,1,11.14-7.82c-3.928-2.535-8.427-4.356-11.212-8.391-.428-.607-.321-1.571-.678-2.249s-.714-.357-1.214-.571Zm38.169,35.991c-.214.25-.536.393-.607.643A16.853,16.853,0,0,1,196.008,165.5c-.214,0,0,2.035,0,2.142a18.674,18.674,0,0,1,9.5,9.569c.393.678,1.178,2.107,2.107,0a14.568,14.568,0,0,1,12.533-9.141c.464,0,.857-.571,1.285-.857a6.536,6.536,0,0,0-1.357-.821,18.281,18.281,0,0,1-12.354-12.6A6.511,6.511,0,0,0,206.684,153.008Zm-63.841,12.6c-.893-.321-1.607-.536-2.214-.821a23.316,23.316,0,0,1-10-8.105c-1.714-2.428-1.678-2.392-3.571,0a15.923,15.923,0,0,1-2.714,3.071c-1.678,1.321-3.571,2.285-5.177,3.571-.428.393-5.106,1.892,0,3.178a10,10,0,0,1,4.785,4.57,70.16,70.16,0,0,1,4.249,8.712,29.458,29.458,0,0,1,5.32-8.891,28.245,28.245,0,0,1,7.462-4.535Zm73.482,40.24v-.786a21.673,21.673,0,0,1-10.1-10.1c-.857-1.357-1.535-1-1.892.607a7.677,7.677,0,0,1-1.678,2.678,18.281,18.281,0,0,1-11.711,6.57c3.963,2.535,8.5,4.32,11.247,8.391a33.6,33.6,0,0,1,2.214,5.035c.214.464.536.893.786,1.357a4.107,4.107,0,0,0,.893-1.214,16.639,16.639,0,0,1,9.712-11.033C216.075,207.352,216.146,206.352,216.325,205.852Zm-76.981,36.812a8.462,8.462,0,0,1-2.214-.75,17.532,17.532,0,0,1-8.177-11.569,9.392,9.392,0,0,0-.857-2.071,14.961,14.961,0,0,1-.857,2.214c-1.035,1.821-2.178,3.571-3.321,5.392-2.428,3.571-6.82,4.642-10.1,7.141a22.351,22.351,0,0,1,10.712,7.141c.643.821.643,2.071,1.25,2.857s2.714,1.428,3.285-.214a14.782,14.782,0,0,1,8.462-8.248A19.47,19.47,0,0,0,139.344,242.664Zm116.543,1.714a7.643,7.643,0,0,1-2.214-.75,17.5,17.5,0,0,1-8.248-11.569,7.14,7.14,0,0,0-.893-2.071,11.746,11.746,0,0,1-.821,2.214,59.275,59.275,0,0,1-3.356,5.392,20.6,20.6,0,0,1-10,6.57c3.249,2.464,7.57,3.571,9.926,7.141.714,1.071,1.035,2.428,1.857,3.571s2.678,1.428,3.249-.214a15,15,0,0,1,8.462-8.248A12.745,12.745,0,0,0,255.886,244.378Zm-75.767,0c-.214-.25-.393-.536-.643-.607A17.1,17.1,0,0,1,167.622,233.7a3.178,3.178,0,0,0-2.142,0,18.6,18.6,0,0,1-9.533,9.5c-.714.429-2.142,1.214,0,2.142a14.639,14.639,0,0,1,9.141,12.39c0,.464.536.857.857,1.285a10.715,10.715,0,0,0,.821-1.357,18.246,18.246,0,0,1,12.675-12.354c.214-.071.428-.643.678-1Z" transform="translate(128.131 128.348)"/><path d="M79.779,84.717c-10.926,0-17.389-6.356-17.389-17.139S68.817,50.4,79.707,50.44a15.71,15.71,0,0,1,17,16.71C96.7,78.148,90.383,84.717,79.779,84.717Z" transform="translate(160.382 129.583)"/><path d="M150.943,68.281c0,10.712-6.356,17.389-17.1,17.389s-17.21-6.427-17.174-17.317a15.746,15.746,0,0,1,16.674-16.96C144.373,51.356,150.907,57.64,150.943,68.281Z" transform="translate(299.773 132.094)"/><path d="M161.467,79.74c0,11.033-6.891,17.1-18.21,17.032-9.855,0-16.1-7.141-16.067-17.6s6.641-16.567,17.853-16.782a15.746,15.746,0,0,1,11.747,4.677,14.282,14.282,0,0,1,4.677,12.676Z" transform="translate(326.953 160.411)"/><path d="M132.686,161.487c-10.962,0-17.5-6.32-17.5-17s6.32-17.281,17.21-17.281,17.031,6.391,17.067,16.532C149.5,155.025,143.255,161.452,132.686,161.487Z" transform="translate(296.107 327.067)"/><path d="M77.8,126.25c10.712,0,17.317,6.32,17.317,17.139s-6.463,17.139-17.389,17.139a15.782,15.782,0,0,1-16.71-16.746C60.808,132.784,67.128,126.25,77.8,126.25Z" transform="translate(156.786 324.6)"/><path d="M99.57,137.29c10.712,0,17.281,6.32,17.281,17.174s-6.5,17.1-17.424,17.1a15.782,15.782,0,0,1-16.853-16.782C82.539,143.824,88.895,137.29,99.57,137.29Z" transform="translate(212.179 352.978)"/><path d="M171.786,112.521c0,10.712-6.606,16.71-17.853,16.924a15.6,15.6,0,0,1-11.783-4.606,16.317,16.317,0,0,1-4.892-13.354A15.889,15.889,0,0,1,154.576,95.1C165.466,95.1,171.821,101.6,171.786,112.521Z" transform="translate(352.626 244.351)"/><path d="M85.742,78.444c0,10.712-6.57,17-17.567,16.96s-16.6-6.677-16.782-17.853A15.282,15.282,0,0,1,56.035,65.8,15.853,15.853,0,0,1,68.6,60.948C79.208,61.234,85.742,67.554,85.742,78.444Z" transform="translate(132.067 156.637)"/><path d="M67.833,115.21c10.712,0,16.96,6.57,16.924,17.531s-6.641,16.6-17.853,16.817a15.425,15.425,0,0,1-11.747-4.677,15.639,15.639,0,0,1-4.749-12.568C50.659,121.6,56.907,115.174,67.833,115.21Z" transform="translate(129.445 296.221)"/><path d="M160.573,134.125c0,10.712-6.57,17-17.567,16.96s-16.6-6.677-16.782-17.853a15.175,15.175,0,0,1,4.677-11.747,15.746,15.746,0,0,1,12.533-4.856C154.217,116.986,160.573,123.234,160.573,134.125Z" transform="translate(324.42 299.765)"/><path d="M110.544,172.087c-10.926,0-17.424-6.356-17.424-17.1s6.391-17.21,17.281-17.174a15.71,15.71,0,0,1,17,16.639C127.4,165.482,121.256,172.051,110.544,172.087Z" transform="translate(239.375 354.173)"/><path d="M154.5,84.658c5.749-1.964,9.64,1.535,12.783,4.5a17.067,17.067,0,0,1,0,24.637,17.853,17.853,0,0,1-12.39,5.07,16.032,16.032,0,0,1-12.211-5.5,15.5,15.5,0,0,1-5-11.569,16.889,16.889,0,0,1,5.034-12.39C145.966,86.622,149.251,82.088,154.5,84.658Z" transform="translate(353.916 215.728)"/><path d="M74.18,110.523A16.924,16.924,0,0,1,56.327,127.3a16.389,16.389,0,0,1-16.46-17.853c.821-9.6,5.856-15.853,17.1-16.317a16.782,16.782,0,0,1,17.21,17.389Z" transform="translate(102.317 239.459)"/><path d="M39.855,98.772c1.25-8.819,6.248-16.746,18.21-16.139a16.032,16.032,0,0,1,15.96,17.424A16.567,16.567,0,0,1,56.351,116.7a16.853,16.853,0,0,1-16.5-17.924Z" transform="translate(102.366 212.397)"/><path d="M112.43,39.856a16.96,16.96,0,0,1,16.924,17.531A16.674,16.674,0,0,1,111.5,74.026a16.5,16.5,0,0,1-16.5-17.032A16.889,16.889,0,0,1,112.43,39.856Z" transform="translate(244.201 102.497)"/><path d="M117.855,57.178a16.924,16.924,0,0,1-17.567,16.853,17.1,17.1,0,0,1,.428-34.17,16.924,16.924,0,0,1,17.139,17.317Z" transform="translate(216.318 102.528)"/><path d="M105.8,154.184a18.924,18.924,0,0,1-16.532,17.353A17.149,17.149,0,0,1,88.05,137.26,18.71,18.71,0,0,1,105.8,154.185Z" transform="translate(183.817 352.901)"/><path d="M154.23,139.887a17.139,17.139,0,1,1,17.281-16.6,18.71,18.71,0,0,1-17.281,16.6Z" transform="translate(352.793 271.543)"/><path d="M172.028,90.709a17.139,17.139,0,1,1-17.014-17.264A17.139,17.139,0,0,1,172.028,90.709Z" transform="translate(354.098 188.861)"/><path d="M140.373,57.183a18.888,18.888,0,0,1-16.46,17.424A18.71,18.71,0,0,1,106.06,57.719,18.888,18.888,0,0,1,122.52,40.33,18.674,18.674,0,0,1,140.373,57.183Z" transform="translate(272.638 103.737)"/><path d="M121.717,137.771a18.674,18.674,0,0,1,16.71,17.853c0,8.034-9.248,16.425-17.567,16.317a18.71,18.71,0,0,1-16.71-17.853C104.328,146.054,113.362,137.664,121.717,137.771Z" transform="translate(267.728 354.212)"/><path d="M56.39,138.55c-8.391,0-17.424-9.533-17.031-17.853A19.21,19.21,0,0,1,56.6,104.13c8.391,0,17.424,9.5,17.032,17.853A19.281,19.281,0,0,1,56.39,138.55Z" transform="translate(101.148 267.739)"/><path d="M74.589,88.786c0,8.391-9.533,17.424-17.674,17.032s-16.746-9.391-16.6-17.281,9.533-17.424,17.674-17A19.245,19.245,0,0,1,74.589,88.786Z" transform="translate(103.623 183.929)"/><path d="M90.615,39.37A19.245,19.245,0,0,1,107.682,55.9c.357,8.177-8.748,17.567-17.1,17.6A19.245,19.245,0,0,1,73.4,56.83C73.119,48.761,82.26,39.406,90.615,39.37Z" transform="translate(188.679 101.27)"/><path d="M160.641,144.246c0,7.141-9.248,16.853-16.6,17.281s-17.531-9.6-17.853-17.032,9.248-16.817,16.567-17.246S160.5,136.712,160.641,144.246Z" transform="translate(324.351 327.135)"/><path d="M67.12,160.5c-4.427-2.535-10.14-2.357-12.783-7.141A81.769,81.769,0,0,1,49.91,142.4c2.714-3.571,2.071-9.248,6.534-11.747,3.571-1.892,7.5-4.82,10.712-4.285,4.392.75,9.89,1.821,12.533,6.463a81.763,81.763,0,0,1,4.428,10.962c-2.749,3.571-2.107,9.248-6.534,11.747A86.664,86.664,0,0,1,67.12,160.5Z" transform="translate(128.301 324.733)"/><path d="M144.364,85.467c-4.427-2.571-10.14-2.357-12.783-7.141a83.268,83.268,0,0,1-4.392-10.712c2.714-3.571,2.071-9.283,6.534-11.783,3.571-1.892,7.5-4.82,10.712-4.285,4.392.75,9.89,1.821,12.533,6.463A86.794,86.794,0,0,1,161.4,68.971c-2.749,3.571-2.107,9.248-6.534,11.747A107.061,107.061,0,0,1,144.364,85.467Z" transform="translate(326.953 132.404)"/><path d="M146.52,153.855c0,10.712-4.749,15.746-15.282,15.782s-15.568-4.963-15.568-15.5,4.963-15.318,14.853-15.353C141.521,138.537,146.484,143.143,146.52,153.855Z" transform="translate(297.341 356.802)"/><path d="M168.6,132.841c0,10.426-5,15.175-15.925,15.139-10.247,0-15-5.142-14.925-16.139,0-9.783,5.249-14.746,15.5-14.711S168.636,122.093,168.6,132.841Z" transform="translate(354.098 301.156)"/><path d="M67.54,50.41C78,50.41,82.715,55.373,82.68,66.335c0,10.247-5.142,14.961-16.139,14.925-9.783,0-14.711-5.284-14.711-15.5S56.793,50.374,67.54,50.41Z" transform="translate(133.237 129.648)"/><path d="M76.159,168.4c-4.927,2.5-8.284-1.571-10.926-3.892a15.889,15.889,0,0,1-4.356-11.819,14.568,14.568,0,0,1,4.677-10.712,15.675,15.675,0,0,1,11.926-4.213,16.1,16.1,0,0,1,10.712,4.784,16.424,16.424,0,0,1,4.07,11.14,14.782,14.782,0,0,1-4.356,11.033C85.264,167.291,81.265,170.647,76.159,168.4Z" transform="translate(156.432 354.077)"/><path d="M117.765,55.992c-2.5-4.892,1.571-8.248,3.892-10.89a16.032,16.032,0,0,1,11.854-4.356,14.532,14.532,0,0,1,10.712,4.642,15.889,15.889,0,0,1,4.213,11.961,15.211,15.211,0,0,1-15.96,14.889,14.711,14.711,0,0,1-11.033-4.392C118.836,65.062,115.551,61.1,117.765,55.992Z" transform="translate(300.709 104.75)"/><path d="M169.485,78.875c2.5,4.927-1.571,8.248-3.892,10.926a16.139,16.139,0,0,1-11.854,4.32,14.282,14.282,0,0,1-10.712-4.642,15.889,15.889,0,0,1-4.392-11.819A15.2,15.2,0,0,1,154.6,62.879a14.568,14.568,0,0,1,11,4.07C168.557,69.77,171.7,73.769,169.485,78.875Z" transform="translate(356.319 161.633)"/><path d="M70.683,131.785c1.821,5.035-2.214,7.391-4.82,10.712s-6.748,3.892-11.033,4.463c-5.284.643-7.427-2.892-10.712-5.427-3.856-2.964-3.892-6.748-4.32-11.069-.536-5.284,3.106-7.355,5.534-10.712s6.284-3.749,10.319-4.106a12.925,12.925,0,0,1,10.712,5.034C69.791,123.823,72,127,70.683,131.785Z" transform="translate(102.172 297.32)"/><path d="M56.848,91.8a15.425,15.425,0,1,1,.643-30.742A15.925,15.925,0,0,1,72.38,76.375,15.782,15.782,0,0,1,56.848,91.8Z" transform="translate(104.117 156.813)"/><path d="M93.723,55.428a15.43,15.43,0,1,1-30.85-.786A15.96,15.96,0,0,1,78.3,39.86,15.746,15.746,0,0,1,93.723,55.428Z" transform="translate(161.612 102.529)"/><path d="M124.364,163.848c-.321,9-7.962,16.532-15.96,15.71a15.282,15.282,0,0,1-9.033-27.208,43.1,43.1,0,0,1,9.6-3.57,18.317,18.317,0,0,1,11.461,5.356A28.564,28.564,0,0,1,124.364,163.848Z" transform="translate(240.694 382.514)"/><path d="M82.54,163.616c1.178-3.035,1.321-7.141,4.642-10.176a16.139,16.139,0,0,1,10.712-4.57,15.853,15.853,0,0,1,15.532,14.746,16.067,16.067,0,0,1-14.961,15.889A16.282,16.282,0,0,1,82.54,163.616Z" transform="translate(212.178 382.746)"/><path d="M163.556,126.251c-3.035-1.143-7.141-1.285-10.14-4.606a16.211,16.211,0,0,1-4.606-10.712A15.818,15.818,0,0,1,163.556,95.58a16.032,16.032,0,0,1,16.032,15.032,16.21,16.21,0,0,1-16.032,15.639Z" transform="translate(382.528 245.761)"/><path d="M179.962,100.425c-1.714,3.928-1.964,8.319-5.677,11.426a16.853,16.853,0,0,1-10.355,3.571,15.6,15.6,0,0,1-15.139-15.782A16.1,16.1,0,0,1,164.073,85a24.387,24.387,0,0,1,10.712,4.642C178.462,92.391,178.426,96.6,179.962,100.425Z" transform="translate(382.476 218.564)"/><path d="M45.177,113.426c-6.82,0-15.6-8.891-15.425-15.639s9.141-15.532,15.818-15.211S60.423,91.324,60.6,97.751,52.068,113.426,45.177,113.426Z" transform="translate(76.477 212.311)"/><path d="M100.211,29.29c6.855,0,15.6,8.748,15.46,15.568S107.245,59.783,100.71,60.14,85,51.856,85,44.965,93.355,29.326,100.211,29.29Z" transform="translate(218.502 75.358)"/><path d="M60.126,109c0,6.855-8.891,15.639-15.639,15.461s-15.532-9.176-15.211-15.853,8.784-14.818,15.211-15S60.126,102.146,60.126,109Z" transform="translate(75.239 240.695)"/><path d="M111.328,60.639c-6.713.286-15.675-8.355-15.818-15.282,0-6.32,8-15,14.6-15.568s15.71,7.962,16.246,14.818S118.219,60.318,111.328,60.639Z" transform="translate(245.518 76.573)"/><path d="M135.074,164.644a21.031,21.031,0,0,1-10.926,13.818c-1.75.571-3.571,1.857-5.249,1.535a15.39,15.39,0,0,1-7.141-3.571,17.032,17.032,0,0,1-6.141-7.641,11.676,11.676,0,0,1,2.892-12.818c2.321-2.214,3.856-5.927,8.141-5.034,3.571-3.571,7.141-.464,9.248.893a14.746,14.746,0,0,1,8.069,10.962C134.074,163.609,134.824,164.252,135.074,164.644Z" transform="translate(269.403 383.789)"/><path d="M55.07,156.445a20.638,20.638,0,0,1-13.818-10.712c-.607-1.928-1.785-4.428-1.071-5.82,1.321-2.571.571-6.106,3.963-7.82,2.606-1.321,3.963-4,7.391-4.963a11.033,11.033,0,0,1,11.354,2.5c2.5,2.285,6.57,4,5.749,8.641,3.571,3.571.571,7.141-.857,9.283a14.711,14.711,0,0,1-10.962,8.034C56.105,155.516,55.462,156.23,55.07,156.445Z" transform="translate(102.718 325.255)"/><path d="M164.724,137.01c-2.357-.678-5.392-.643-6.784-2.107-2.928-3.106-8.069-4.892-7.427-10.5-4.106-3,.393-5.856.464-8.784s8.819-8.427,12.14-8.962c1.071,0,2.321.821,3.571,1.214,7.141,2.392,9.033,4.285,11.319,11.247,3.571,2.071,0,4.178,0,6.248,0,4.535-3.928,6-6.356,8.427a22.353,22.353,0,0,1-6.927,3.213Z" transform="translate(382.468 274.242)"/><path d="M179.977,89.642c-2.5,1.428-.964,5-3.249,7.5a22.887,22.887,0,0,1-11.569,7.141c-2.321.5-5.534-1.5-7.927-3.035a20.531,20.531,0,0,1-7.962-12c2.142-2.214,1.214-5.57,3.392-8.034a21.959,21.959,0,0,1,11.533-7.141c2.321-.536,5.57,1.464,7.962,3A18.888,18.888,0,0,1,179.977,89.642Z" transform="translate(383.711 190.25)"/><path d="M141.348,138.76A23.816,23.816,0,0,1,153.2,145.9c2.392,2.642,1.857,6.106,3.749,8.712a33.564,33.564,0,0,1-7.462,11.533c-2.5,2.178-5.856,1.178-8.034,3.571a26.708,26.708,0,0,1-11.6-7.141c-2.392-2.678-1.857-6.141-3.571-8.748,2-4.142,3.571-8.641,7.57-11.39Z" transform="translate(324.614 356.757)"/><path d="M87.939,179.548c-2.571-.786-5.534-.786-6.963-2.285-2.928-3.071-8.034-4.892-7.391-10.712-4.142-2.964,1.5-5.784,0-8.748a24.994,24.994,0,0,1,12.5-8.926c1.035-.25,2.321.821,3.571,1.25,7.141,2.392,9,4.249,11.283,11.247,4.213,2.357.25,4.892-.179,7.141C99.936,173.157,91.938,179.262,87.939,179.548Z" transform="translate(185.177 382.667)"/><path d="M167.977,143.882c-2.535,1.428-.964,5-3.249,7.5a23.031,23.031,0,0,1-11.569,7.141c-2.321.535-5.534-1.535-7.927-3.035a20.459,20.459,0,0,1-7.962-12.033c2.178-2.178,1.25-5.534,3.392-8a22.066,22.066,0,0,1,11.569-7.141c2.321-.536,5.534,1.464,7.927,3.035A18.674,18.674,0,0,1,167.977,143.882Z" transform="translate(352.864 329.677)"/><path d="M65.192,137.32a18.817,18.817,0,0,1,12.533,7.855c1.535,2.357,3.571,5.606,3.035,7.927a21.959,21.959,0,0,1-7.141,11.533c-2.464,2.178-5.856,1.214-8.034,3.571a20.71,20.71,0,0,1-12-7.962c-1.535-2.392-3.571-5.641-3.035-7.927a22.816,22.816,0,0,1,7.141-11.569C60.158,138.32,63.728,139.748,65.192,137.32Z" transform="translate(129.729 353.056)"/><path d="M143.314,41.565c3.856-1.285,6.284,1.321,9.283,3.571,3.856,3,3.392,6.641,3.785,10.712a12.854,12.854,0,0,1-4,9.569c-3.071,3.963-6.82,3.142-10.712,3.571a11.5,11.5,0,0,1-9.5-4.213,11.961,11.961,0,0,1-3.57-9.783,12.533,12.533,0,0,1,3.57-9.712,11.247,11.247,0,0,1,11.14-3.713Z" transform="translate(330.431 106.037)"/><path d="M57.316,85.923A10.1,10.1,0,0,1,54.1,96.171a12.5,12.5,0,0,1-10.39,4,13.068,13.068,0,0,1-9.676-3.82c-3.571-3.106-3.571-6.606-3.785-10.712a11.462,11.462,0,0,1,4.035-9.569A11.711,11.711,0,0,1,44,72.5a11.747,11.747,0,0,1,9.748,3.571C56.423,79.211,59.387,81.817,57.316,85.923Z" transform="translate(77.692 186.256)"/><path d="M120.07,57.669c-3.856,1.285-6.284-1.285-9.283-3.571-3.856-3-3.571-6.641-3.785-10.712a12.854,12.854,0,0,1,4-9.6c3.071-3.963,6.82-3.142,10.712-3.571a11.426,11.426,0,0,1,9.462,4.213,11.854,11.854,0,0,1,3.571,9.783,12.6,12.6,0,0,1-3.57,9.748,11.354,11.354,0,0,1-11.1,3.713Z" transform="translate(275.052 77.687)"/><path d="M30.3,118.925c-1.535-4.606,1.071-7.141,3.571-10.033,3-3.82,6.641-3.571,10.712-3.749a12.783,12.783,0,0,1,9.569,4c4,3.071,3.142,6.784,3.571,10.712a11.426,11.426,0,0,1-4.178,9.5,12.068,12.068,0,0,1-9.819,3.571,11.5,11.5,0,0,1-9.676-3.785C30.832,125.709,28.511,122.852,30.3,118.925Z" transform="translate(76.29 270.333)"/><path d="M101.752,44.576c1.321,3.892-1.285,6.32-3.571,9.319-3,3.82-6.641,3.392-10.712,3.571a12.6,12.6,0,0,1-9.569-4c-4-3.071-3.142-6.784-3.571-10.712a11.533,11.533,0,0,1,4.213-9.5,11.925,11.925,0,0,1,9.819-3.571,12.461,12.461,0,0,1,9.712,3.571A11.212,11.212,0,0,1,101.752,44.576Z" transform="translate(191.038 76.211)"/><path d="M55.785,51.184c3.892-1.285,6.391,1.178,9.391,3.571,3.749,3,3.571,6.57,3.82,10.712a12.818,12.818,0,0,1-3.963,9.6c-3.071,3.892-6.748,3.249-10.712,3.571a11.39,11.39,0,0,1-9.5-4.142,12,12,0,0,1-3.571-9.783,12.5,12.5,0,0,1,3.571-9.748,11.1,11.1,0,0,1,10.962-3.785Z" transform="translate(105.895 130.731)"/><path d="M166.639,65.88a10.712,10.712,0,0,1-3.785,10.712A12.5,12.5,0,0,1,153,79.948a12.675,12.675,0,0,1-9.783-3.571,12.961,12.961,0,0,1-4.07-10.426,12.14,12.14,0,0,1,3.785-9.712,11.961,11.961,0,0,1,9.64-3.928,12.5,12.5,0,0,1,10.5,3.928C165.675,59.381,167.782,62.095,166.639,65.88Z" transform="translate(357.594 134.353)"/><path d="M79.752,55.008c1.321,3.892-1.285,6.32-3.571,9.319-3,3.82-6.641,3.571-10.712,3.749a12.6,12.6,0,0,1-9.569-4c-4-3.071-3.142-6.784-3.571-10.712a11.533,11.533,0,0,1,4.213-9.5A11.926,11.926,0,0,1,66.363,40.3a12.461,12.461,0,0,1,9.712,3.571,11.212,11.212,0,0,1,3.678,11.14Z" transform="translate(134.486 103.485)"/><path d="M163.691,63.4a13.711,13.711,0,1,1-13.925,13.711A13,13,0,0,1,163.691,63.4Z" transform="translate(384.929 162.938)"/><path d="M143.093,163.636a13.713,13.713,0,1,1-13.5-13.925,13.713,13.713,0,0,1,13.5,13.925Z" transform="translate(297.339 384.904)"/><path d="M176.213,131.956a13.713,13.713,0,1,1-13.5-13.925,13.713,13.713,0,0,1,13.5,13.925Z" transform="translate(382.476 303.468)"/><path d="M88.85,162.817a13.711,13.711,0,1,1-13.639-14,13.068,13.068,0,0,1,13.639,14Z" transform="translate(157.916 382.581)"/><path d="M42.731,143.782a34.17,34.17,0,0,1-10-5.106,14.282,14.282,0,0,1-3.392-9.5,13.033,13.033,0,0,1,3.785-9.248c2.749-2,6.106-5.07,10.14-4.07a19.781,19.781,0,0,1,9.319,4.07,21.1,21.1,0,0,1,3.82,9.391c.964,3.785-2.035,6.927-3.749,9.426S46.3,142.1,42.731,143.782Z" transform="translate(75.424 297.391)"/><path d="M131.692,58.194c-3.571-1.535-7.677-2.107-9.391-4.535s-5.07-6.07-4.07-10.14c.821-3.285,1.714-7.5,4.106-9.176s6.248-4.927,10.176-3.928c3.285.821,7.5,1.821,9.141,4.249a15.21,15.21,0,0,1,3.928,9.426,17.1,17.1,0,0,1-4.57,10C139.012,56.373,134.906,56.873,131.692,58.194Z" transform="translate(303.456 77.768)"/><path d="M43.722,88.959c-6,0-13.782-8.355-13.5-14.282s8.534-13.64,14.282-13.247a17.246,17.246,0,0,1,13.1,13.711C58,81.354,48.828,89.566,43.722,88.959Z" transform="translate(77.682 157.94)"/><path d="M77.331,29.294c6.034.214,13.711,8.427,13.39,14.282S82.044,57.145,76.331,56.823,63.3,48.432,63.37,43.005C63.37,36.864,71.44,29.044,77.331,29.294Z" transform="translate(162.901 75.354)"/><path d="M137.75,152.633c1.857-3.571,2-8.105,6.07-10.212,2.535-1.321,5.677-3.571,7.855-3.106,3.571,1,8.177,1.821,10.247,5.927,1.285,2.571,3.571,5.856,2.892,7.891a19.853,19.853,0,0,1-4.606,9.248c-2.678,2.428-6.248,1.785-8.641,4.07-2.678-2.249-6.463-1.785-9.283-4.535S140.035,155.346,137.75,152.633Z" transform="translate(354.098 358.024)"/><path d="M164.233,55.088a9.1,9.1,0,0,1-3.571,9,6.784,6.784,0,0,1-5.927,2.285c-3.571-.643-8.034,1.75-10.962-2.428-1.107-1.535-3.178-2.892-3.571-4.5a20.138,20.138,0,0,1,0-10.926c1.535-2.928,4.106-7.141,9.141-6.177a15.389,15.389,0,0,0,4.249,0,8,8,0,0,1,7.391,2.964,7.855,7.855,0,0,1,2.892,7.391A4.807,4.807,0,0,1,164.233,55.088Z" transform="translate(358.464 108.546)"/><path d="M161.374,129.13q11.926,0,11.89,12.1t-12.1,11.89c-7.962,0-11.926-4.106-11.89-12.14S153.341,129.094,161.374,129.13Z" transform="translate(383.711 332.003)"/><path d="M184.784,98.034q0,11.926-12.1,11.89c-7.962,0-11.926-4.106-11.89-12.14s4.07-11.89,12.1-11.854S184.82,90,184.784,98.034Z" transform="translate(413.323 220.955)"/><path d="M106.511,184.8c-8.034,0-11.961-3.963-11.961-12.033s3.963-11.961,12-11.961,12,3.928,12,12S114.581,184.8,106.511,184.8Z" transform="translate(243.051 413.438)"/><path d="M139.294,174.724q-12.033,0-12.1-11.89t11.89-12.1q12.068,0,12.1,11.854T139.294,174.724Z" transform="translate(326.953 387.527)"/><path d="M66.386,53.309A11.319,11.319,0,0,1,53.532,64.556a12.152,12.152,0,0,1,1.714-24.244,11.354,11.354,0,0,1,11.14,13Z" transform="translate(108.576 103.612)"/><path d="M64.274,150.247c0,8.034-3.963,12-12.033,12S40.28,158.281,40.28,150.211s3.963-11.961,12-11.961S64.274,142.178,64.274,150.247Z" transform="translate(103.547 355.446)"/><path d="M43.514,51.141c4.285-1.357,5.891,2.321,8.534,4.285a9.819,9.819,0,0,1,3.5,8.105c.428,4.285-2.892,5.749-4.713,8.427s-5.07,2.749-8.212,3.142c-4.285.5-5.749-2.928-8.319-4.892a9.319,9.319,0,0,1-3.071-7.355c-.5-4.249,2.357-6,4.463-8.534A7.141,7.141,0,0,1,43.514,51.141Z" transform="translate(80.139 130.774)"/><path d="M53.714,139.336c1.464,4.32-2,6.07-4.07,8.641a10,10,0,0,1-8.105,3.606c-4.142.179-5.856-2.607-8.462-4.606a10.14,10.14,0,0,1-3.356-8.141c-.393-3.892,2.107-5.57,4.213-7.748a10.14,10.14,0,0,1,7.891-3.928,11.1,11.1,0,0,1,8.569,4.392C52.714,133.73,55.106,135.765,53.714,139.336Z" transform="translate(76.295 326.939)"/><path d="M43.795,106.318A13.175,13.175,0,0,1,31.369,118.85c-4.142.25-5.82-2.642-8.462-4.606s-2.928-4.927-3.249-8.141c-.428-4.249,2.785-5.82,4.785-8.355a9.248,9.248,0,0,1,7.248-3.178c4.249-.536,6.106,2.107,8.569,4.392S44.866,103.425,43.795,106.318Z" transform="translate(50.437 242.985)"/><path d="M129.225,172.011a13,13,0,0,1-11.783,13,7.82,7.82,0,0,1-7.391-2.928c-1.928-2.607-5.5-3.963-4.927-8.319.428-3.071,0-6.07,3.071-8.212s4.142-5.177,8.391-4.749c3.213.321,6.034.321,8.141,3.249S130.475,168.19,129.225,172.011Z" transform="translate(270.074 413.306)"/><path d="M163.551,53.464c4.427-1.071,5.749,3,8.426,4.749,3.321,2.107,2.5,5.249,2.928,8.248.607,4.356-3.214,5.606-5.034,8.248s-4.606,2.5-7.462,2.821c-4.142.464-5.82-2.642-8.462-4.606a9.819,9.819,0,0,1-3.249-8.141c-.428-4.249,2.928-5.713,4.749-8.391a7.748,7.748,0,0,1,8.105-2.928Z" transform="translate(387.283 136.913)"/><path d="M43.532,95.675c1.75,4.32-1.678,6.141-3.892,8.605a10.033,10.033,0,0,1-7.962,3.571,9.676,9.676,0,0,1-7.855-3.963C21.716,101.71,19.288,100,19.645,96.1A9.962,9.962,0,0,1,23.216,88c2.571-2,4.285-4.785,8.462-4.57A9.962,9.962,0,0,1,39.712,87C41.6,89.748,45.425,91.391,43.532,95.675Z" transform="translate(50.414 214.494)"/><path d="M65.7,53.609c-4.642,1.357-6.356-2.071-8.926-4.106A9.962,9.962,0,0,1,53.2,41.4c-.357-4.249,2.821-5.784,4.713-8.427s5-2.892,8.177-3.214c4.249-.428,5.784,2.821,8.319,4.82a9.462,9.462,0,0,1,3.142,7.355c.536,4.249-2.214,6.106-4.463,8.534S68.982,55.287,65.7,53.609Z" transform="translate(136.687 76.462)"/><path d="M96.524,184.895a12.925,12.925,0,0,1-12.961-11.747,7.748,7.748,0,0,1,2.928-7.391c2.571-1.928,3.963-5.534,8.284-4.927,3.071.393,6.106,0,8.248,3.071s5.177,4.142,4.749,8.391c-.321,3.213-.321,6.034-3.285,8.141S100.344,186.18,96.524,184.895Z" transform="translate(214.548 413.312)"/><path d="M74.707,161.2c1.75,4.32-1.678,6.141-3.892,8.605a10.033,10.033,0,0,1-7.962,3.571,9.676,9.676,0,0,1-7.819-3.642c-2.107-2.178-4.535-3.892-4.178-7.784a9.962,9.962,0,0,1,3.571-8.105c2.571-2,4.285-4.785,8.462-4.57a9.962,9.962,0,0,1,8.034,3.571C72.886,155.455,76.456,156.919,74.707,161.2Z" transform="translate(130.641 383.765)"/><path d="M97.906,20.168c4.642-1.357,6.356,2.107,8.926,4.106a9.962,9.962,0,0,1,3.571,8.105c.357,4.249-2.821,5.784-4.713,8.427s-5,2.892-8.177,3.213c-4.249.464-5.784-2.821-8.319-4.82a9.462,9.462,0,0,1-3.285-7.462c-.536-4.249,2.214-6.07,4.463-8.534S94.621,18.525,97.906,20.168Z" transform="translate(220.664 50.453)"/><path d="M109.4,19.941c4.285-1.357,5.891,2.321,8.534,4.285a9.819,9.819,0,0,1,3.321,8.105c.428,4.285-2.892,5.749-4.713,8.427s-5.07,2.749-8.212,3.142c-4.285.5-5.749-2.928-8.319-4.892a9.319,9.319,0,0,1-3.071-7.391c-.5-4.249,2.357-6,4.463-8.534A7.141,7.141,0,0,1,109.4,19.941Z" transform="translate(249.05 50.573)"/><path d="M184.915,108.717a13.175,13.175,0,0,1-12.425,12.533c-4.142.25-5.82-2.642-8.462-4.606a9.819,9.819,0,0,1-3.249-8.141c-.428-4.285,2.785-5.82,4.785-8.391A9.5,9.5,0,0,1,172.7,96.97c4.249-.536,6.106,2.142,8.569,4.392S185.986,105.718,184.915,108.717Z" transform="translate(413.193 249.155)"/><path d="M141.649,55.335a13.247,13.247,0,0,1-12.568-12.426c-.25-4.178,2.642-5.856,4.606-8.462s4.963-2.928,8.177-3.249c4.249-.428,5.784,2.785,8.355,4.785A9.5,9.5,0,0,1,153.4,43.3c.5,4.249-2.142,6.106-4.392,8.569S144.649,56.406,141.649,55.335Z" transform="translate(331.775 80.163)"/><path d="M98.852,31.35A13.318,13.318,0,0,1,86.5,43.2c-5.927-.286-12.283-6.855-11.569-12.568A12.925,12.925,0,0,1,86.784,19.21,13.282,13.282,0,0,1,98.852,31.35Z" transform="translate(192.474 49.447)"/><path d="M172.329,74.89a13.247,13.247,0,0,1,12.425,11.783,13.639,13.639,0,0,1-11.14,12.211A13.425,13.425,0,0,1,160.76,87.53a13.247,13.247,0,0,1,11.569-12.64Z" transform="translate(413.246 192.576)"/><path d="M31.343,105.131a12,12,0,1,1-12.211,11.783A12,12,0,0,1,31.343,105.131Z" transform="translate(49.179 270.308)"/><path d="M84.1,184.33A12,12,0,1,1,96.53,172.761,12,12,0,0,1,84.1,184.33Z" transform="translate(186.442 412.198)"/><path d="M119.436,43.342A13.318,13.318,0,0,1,107.51,31.166a12,12,0,0,1,23.958,0,13.354,13.354,0,0,1-12.033,12.176Z" transform="translate(276.365 51.023)"/><path d="M31.534,72.49a13.247,13.247,0,0,1,12.1,12.033,12.818,12.818,0,0,1-11.39,11.854c-5.713.75-12.318-5.606-12.568-11.533A13.282,13.282,0,0,1,31.534,72.49Z" transform="translate(50.594 186.406)"/><path d="M171.879,107.53A13.247,13.247,0,0,1,184.3,119.313a13.639,13.639,0,0,1-11.14,12.211A13.425,13.425,0,0,1,160.31,120.17a13.247,13.247,0,0,1,11.569-12.64Z" transform="translate(412.09 276.479)"/><path d="M72.451,160.816a10.283,10.283,0,1,1-10.033,10.533,9.676,9.676,0,0,1,10.033-10.533Z" transform="translate(160.354 413.432)"/><path d="M137.2,172.07a10.283,10.283,0,1,1-10.283-10.283A9.641,9.641,0,0,1,137.2,172.07Z" transform="translate(299.808 415.889)"/><path d="M41.2,72.71A9.641,9.641,0,0,1,30.913,82.993a10.283,10.283,0,0,1,0-20.566A9.64,9.64,0,0,1,41.2,72.71Z" transform="translate(53.036 160.479)"/><path d="M172.084,64.828a10.283,10.283,0,1,1-10.319,10.248,9.64,9.64,0,0,1,10.319-10.248Z" transform="translate(415.776 166.646)"/><path d="M159.977,140.69a10.283,10.283,0,1,1-10.712,9.89,9.676,9.676,0,0,1,10.712-9.89Z" transform="translate(383.68 361.575)"/><path d="M85.356,29.973A10.283,10.283,0,1,1,75.073,19.69,10.283,10.283,0,0,1,85.356,29.973Z" transform="translate(166.551 50.681)"/><path d="M40.236,126.95a9.641,9.641,0,0,1-10.283,10.283,10.283,10.283,0,0,1,0-20.566A9.64,9.64,0,0,1,40.236,126.95Z" transform="translate(50.568 299.906)"/><path d="M139.6,30.933A10.283,10.283,0,1,1,129.313,20.65,10.283,10.283,0,0,1,139.6,30.933Z" transform="translate(305.978 53.149)"/><path d="M181.356,129.316a10.283,10.283,0,1,1-10.319-10.247,9.64,9.64,0,0,1,10.319,10.247Z" transform="translate(413.324 306.073)"/><path d="M148.158,151.215a10.283,10.283,0,1,1-9.89,10.712,9.712,9.712,0,0,1,9.89-10.712Z" transform="translate(355.295 388.755)"/><path d="M41.491,61.343a10.247,10.247,0,1,1,7.354-2.785,10.248,10.248,0,0,1-7.354,2.785Z" transform="translate(81.484 105.005)"/><path d="M52.886,50.806A10.283,10.283,0,1,1,63.276,40.63,10.712,10.712,0,0,1,52.886,50.806Z" transform="translate(109.794 77.801)"/><path d="M40.594,158.806a10.283,10.283,0,1,1,10.212-10.39,10.712,10.712,0,0,1-10.212,10.39Z" transform="translate(77.739 355.421)"/><path d="M171.806,53a10.712,10.712,0,0,1-10.283,10.283A10.283,10.283,0,1,1,171.806,53Z" transform="translate(388.775 109.881)"/><path d="M61.357,159.538A10.283,10.283,0,1,1,51.073,149.29,10.712,10.712,0,0,1,61.357,159.538Z" transform="translate(104.858 383.825)"/><path d="M161.2,41.973A10.283,10.283,0,1,1,150.913,31.69,10.712,10.712,0,0,1,161.2,41.973Z" transform="translate(361.501 81.528)"/><path d="M180.944,140.4c-.214,3.571-7.141,10.462-10.712,10.14s-10.39-7.641-9.926-10.712,7.141-9.641,10.212-9.712S181.122,137.047,180.944,140.4Z" transform="translate(412.022 334.547)"/><path d="M137.04,161.75c3.892.393,10.712,6.891,10.355,10.033a14.282,14.282,0,0,1-3.928,6.855c-4.178,4.427-8.069,4.463-12.283,0-5.749-5.891-4.749-8.391.214-13.5a25.57,25.57,0,0,1,5.642-3.392Z" transform="translate(327.137 415.854)"/><path d="M36.809,136.332c0,6.07-2.392,8.462-8.426,8.5s-8.676-2.285-8.712-8.248c0-6.641,2.249-8.962,8.855-8.891C34.488,127.727,36.809,130.119,36.809,136.332Z" transform="translate(50.568 328.3)"/><path d="M139.048,38.269c-6.07,0-8.5-2.392-8.5-8.462s2.285-8.641,8.212-8.676c6.641,0,8.962,2.249,8.926,8.855C147.653,35.948,145.225,38.269,139.048,38.269Z" transform="translate(335.59 54.383)"/><path d="M60.792,177.949c-6.32,0-8.891-2.214-8.962-7.962,0-6.641,1.964-9.069,7.748-9.176,6.927,0,9.355,2.035,9.391,8.355S66.719,177.877,60.792,177.949Z" transform="translate(133.237 413.438)"/><path d="M179.34,62.748c0,6.177-2.321,8.569-8.319,8.641-6.606,0-8.891-2.285-8.819-8.962,0-5.927,2.5-8.212,8.748-8.177S179.34,56.678,179.34,62.748Z" transform="translate(416.947 139.519)"/><path d="M189.976,95.424a8.605,8.605,0,1,1-17.174-.393,8.891,8.891,0,0,1,8.784-8.141,8.5,8.5,0,0,1,8.391,8.534Z" transform="translate(444.123 223.422)"/><path d="M71.352,28.147a8.605,8.605,0,1,1-17.067-.286,8.891,8.891,0,0,1,8.784-8.141,8.5,8.5,0,0,1,8.284,8.427Z" transform="translate(139.316 50.758)"/><path d="M29.97,69.015a8.926,8.926,0,0,1-8.855-8.069,8.784,8.784,0,0,1,7.855-9.069,8.5,8.5,0,0,1,9.283,8.462A8.605,8.605,0,0,1,29.97,69.015Z" transform="translate(54.265 133.324)"/><path d="M189.487,107.014a8.605,8.605,0,1,1-8.034-9.141,8.6,8.6,0,0,1,8.034,9.141Z" transform="translate(442.897 251.608)"/><path d="M93.222,172.33a8.605,8.605,0,1,1-8.623,8.033A8.605,8.605,0,0,1,93.222,172.33Z" transform="translate(217.421 443.051)"/><path d="M112.179,180.95a8.926,8.926,0,0,1-8.069,8.855,8.819,8.819,0,0,1-9.069-7.855,8.584,8.584,0,1,1,17.139-1Z" transform="translate(244.274 444.428)"/><path d="M106.479,9.61a10.319,10.319,0,0,1,8.569,8.534,8.569,8.569,0,1,1-17.139,0,10.319,10.319,0,0,1,8.569-8.534Z" transform="translate(251.688 24.77)"/><path d="M26.7,93.024a10.355,10.355,0,0,1-8.534,8.605A10.355,10.355,0,0,1,9.6,93.059a10.319,10.319,0,0,1,8.569-8.569A10.319,10.319,0,0,1,26.7,93.024Z" transform="translate(24.683 217.253)"/><path d="M181.359,93.469A10.319,10.319,0,0,1,172.79,84.9a8.569,8.569,0,1,1,17.139,0A10.355,10.355,0,0,1,181.359,93.469Z" transform="translate(444.17 196.277)"/><path d="M189.448,117.4a8.569,8.569,0,1,1-8.676-8.426A10.212,10.212,0,0,1,189.448,117.4Z" transform="translate(442.937 280.18)"/><path d="M104.009,18.144a10.355,10.355,0,0,1-8.569,8.569,10.355,10.355,0,0,1-8.569-8.569A10.319,10.319,0,0,1,95.439,9.61a10.319,10.319,0,0,1,8.569,8.534Z" transform="translate(223.309 24.77)"/><path d="M18.169,95.05A8.569,8.569,0,1,1,9.6,103.619,8.569,8.569,0,0,1,18.169,95.05Z" transform="translate(24.683 244.398)"/><path d="M114.532,172.81a10.212,10.212,0,0,1,8.676,8.427,8.569,8.569,0,1,1-8.676-8.426Z" transform="translate(272.664 444.285)"/><path d="M125.96,18.414c.214,2.714-5.32,8.569-8.319,8.819S109,21.877,109,18.878s5.32-8.569,8.319-8.784S125.71,15.414,125.96,18.414Z" transform="translate(280.195 25.999)"/><path d="M166.891,160.368c0,2.856-6.034,8.569-8.712,8.462s-8.569-6.034-8.427-8.712,6.034-8.569,8.676-8.427S167.033,157.726,166.891,160.368Z" transform="translate(384.943 389.993)"/><path d="M26.731,114.518c0,2.678-5.57,8.534-8.462,8.712s-8.534-5.606-8.676-8.462,5.57-8.534,8.426-8.676S26.588,111.662,26.731,114.518Z" transform="translate(24.655 272.775)"/><path d="M84.879,9.61a13.425,13.425,0,0,1,8.569,8.534,13.532,13.532,0,0,1-8.569,8.605,13.461,13.461,0,0,1-8.569-8.569A13.461,13.461,0,0,1,84.879,9.61Z" transform="translate(196.164 24.77)"/><path d="M18.394,90.593c-3-.25-8.534-6.106-8.319-8.819s6.106-8.534,8.819-8.319,8.534,6.07,8.319,8.784S21.107,90.771,18.394,90.593Z" transform="translate(25.887 188.87)"/><path d="M81.754,189.473c-3-.25-8.534-6.106-8.319-8.819s6.106-8.534,8.819-8.319,8.534,6.07,8.319,8.784S84.467,189.651,81.754,189.473Z" transform="translate(188.756 443.047)"/><path d="M159.311,46.963c-6.606,0-7.141-.428-7.141-6.284,0-6.463.643-7.141,6.07-7.5s8.034.857,7.712,6.784S165.345,46.963,159.311,46.963Z" transform="translate(391.165 85.214)"/><path d="M44.323,157.035a7.141,7.141,0,0,1-6.427,7.141,7.006,7.006,0,1,1,6.57-7.141Z" transform="translate(79.045 386.113)"/><path d="M16.375,117.259a7.141,7.141,0,0,1,7.141,6.391,6.82,6.82,0,0,1-7.141,7.141,6.855,6.855,0,0,1,0-13.711Z" transform="translate(24.477 301.028)"/><path d="M175.037,148.5a7.141,7.141,0,0,1-6.641,6.891,6.906,6.906,0,1,1,6.57-6.748Z" transform="translate(414.502 364.017)"/><path d="M170.114,44.2a7.141,7.141,0,0,1,6.962,6.534,7.006,7.006,0,1,1-7.141-6.57Z" transform="translate(419.21 113.583)"/><path d="M185.923,126.8a7.141,7.141,0,0,1-6.427,7.141,7.006,7.006,0,1,1,6.57-7.141Z" transform="translate(443.035 308.379)"/><path d="M27.33,152.789a7.141,7.141,0,0,1-7.141-6.248,6.868,6.868,0,0,1,13.711-.821,7.141,7.141,0,0,1-6.57,7.07Z" transform="translate(51.87 358.046)"/><path d="M54.935,168.105a7.141,7.141,0,0,1-6.5,7.141,7.006,7.006,0,1,1,6.57-7.141Z" transform="translate(106.138 414.569)"/><path d="M126.775,10.57a7.141,7.141,0,0,1,7.141,6.391,7.013,7.013,0,1,1-7.141-6.391Z" transform="translate(308.265 27.238)"/><path d="M186.908,72.575a7.141,7.141,0,0,1-6.463,7.141,7.006,7.006,0,1,1,6.57-7.141Z" transform="translate(445.477 169.004)"/><path d="M152.866,169.711a7.141,7.141,0,0,1-6.248,7.141,6.855,6.855,0,1,1,6.248-7.141Z" transform="translate(357.728 419.498)"/><path d="M70.023,186.045a7.141,7.141,0,0,1-7.141-6.356,7.015,7.015,0,1,1,7.141,6.356Z" transform="translate(161.604 443.047)"/><path d="M39.935,30.781a7.141,7.141,0,0,1,7.141,6.5,7.006,7.006,0,1,1-7.141-6.57Z" transform="translate(85.039 79.009)"/><path d="M148.375,22.09a7.141,7.141,0,0,1,7.141,6.391,7.013,7.013,0,1,1-7.141-6.391Z" transform="translate(363.789 56.85)"/><path d="M130.8,180.085a7.141,7.141,0,0,1-6.463,7.141,7.006,7.006,0,1,1,6.57-7.141Z" transform="translate(301.243 445.364)"/><path d="M17.1,62.89a12.175,12.175,0,0,1,7.141,6.391,11.961,11.961,0,0,1-6.213,7.141c-2.142.321-7.712-4.606-7.427-6.855a7.391,7.391,0,0,1,1.785-4.249A18.674,18.674,0,0,1,17.1,62.89Z" transform="translate(27.22 161.729)"/><path d="M72.3,9.61A12.176,12.176,0,0,1,79.437,16a11.961,11.961,0,0,1-6.213,7.141c-2.142.321-7.712-4.606-7.427-6.855a7.391,7.391,0,0,1,1.785-4.249A18.674,18.674,0,0,1,72.3,9.61Z" transform="translate(169.114 24.77)"/><path d="M28.853,41.29a13.14,13.14,0,0,1,6.82,6.57c0,2.357-4.927,7.141-7.141,7.141s-6.82-5.356-6.391-7.141a11.14,11.14,0,0,1,2.5-4.82,12.282,12.282,0,0,1,4.213-1.75Z" transform="translate(56.846 106.205)"/><path d="M50.712,20.17A12.175,12.175,0,0,1,57.853,26.7,11.961,11.961,0,0,1,51.6,33.845c-2.142.321-7.712-4.606-7.427-6.855a7.391,7.391,0,0,1,1.785-4.249,18.675,18.675,0,0,1,4.749-2.571Z" transform="translate(113.539 51.915)"/><path d="M178.153,141.838c-3.571,0-5.213-1.321-5.356-4.713s1.214-5.356,4.5-5.57c4.106-.286,5.784,1.214,5.784,5.142S181.652,141.731,178.153,141.838Z" transform="translate(444.163 338.148)"/><path d="M133.772,184.548c-3.571,0-5.07-1.428-5.142-4.927,0-4.106,1.428-5.57,5.57-5.356,3.571,0,4.785,1.714,4.713,5.356S137.342,184.548,133.772,184.548Z" transform="translate(330.655 447.972)"/><path d="M22.657,58.285c-2.428,1.892-4.392,4.57-6.141,4.463s-3.571-2.821-4.927-4.785c-.714-1.143,4.5-5.856,5.534-5.07a69.191,69.191,0,0,1,5.534,5.392Z" transform="translate(29.622 135.806)"/><path d="M60.484,21.3c-2-2.357-4.785-4.178-4.713-5.963s2.856-3.571,4.427-5.249c1.857,1.785,4.57,3.356,5.142,5.5C65.661,16.91,62.519,19.016,60.484,21.3Z" transform="translate(143.364 26.004)"/><path d="M142.652,15.571a65.448,65.448,0,0,1-5.5,5.463c-1,.786-6.248-3.856-5.57-5.034,1.214-2,3.106-4.713,4.892-4.856S140.367,13.715,142.652,15.571Z" transform="translate(338.092 28.699)"/><path d="M21.328,133.525a51.492,51.492,0,0,1-5.927,5.07c-1.214.714-6.034-4.356-5.249-5.392,1.464-1.821,3.571-4.428,5.284-4.463S19.007,131.49,21.328,133.525Z" transform="translate(25.88 331)"/><path d="M63.932,177.331a65.464,65.464,0,0,1-5.5,5.463c-1,.785-6.248-3.856-5.57-5.035,1.214-2,3.106-4.713,4.892-4.856S61.468,175.475,63.932,177.331Z" transform="translate(135.738 444.512)"/><path d="M179.7,66.838a58.659,58.659,0,0,1-5.391-5.606c-.786-1.035,4.035-6.177,5.106-5.463,1.964,1.285,4.642,3.178,4.749,4.963S181.6,64.41,179.7,66.838Z" transform="translate(447.861 143.249)"/><path d="M188.321,95.73c-3.57,0-3.321,0-3.57-3.856,0-2.892,1.178-3.178,3.57-3.071,3.571,0,3.571,0,3.571,3.892C191.677,95.73,191.677,95.73,188.321,95.73Z" transform="translate(474.914 228.293)"/><path d="M103.531,188.8c.536,2.785-1.071,3.071-3.571,2.964-3.571-.179-3.356,0-3.571-3.856,0-2.856,1.107-3.213,3.571-3.106C103.6,184.98,103.6,184.873,103.531,188.8Z" transform="translate(247.78 475.068)"/><path d="M107.034,3.487a23.636,23.636,0,0,1-3.749,3.571c-1.214.714-4.427-2.035-3.856-3.356s2-3.071,3.213-3.178S105.213,2.237,107.034,3.487Z" transform="translate(255.418 1.4)"/><path d="M96.665,3.619c-1.857,1.357-3.178,3.035-4.392,2.928S89.524,4.9,88.881,3.619,91.416-.487,92.666.048a21.421,21.421,0,0,1,4,3.571Z" transform="translate(228.26 0.019)"/><path d="M188.927,85.534a21.175,21.175,0,0,1-3.57-4c-.643-1.285,2.214-4.32,3.57-3.571s2.964,2.107,3.071,3.321S190.284,83.5,188.927,85.534Z" transform="translate(476.235 200.177)"/><path d="M39.225,165.247a23.632,23.632,0,0,1-3.571,3.571c-1.214.714-4.427-2.035-3.856-3.356s2-3.071,3.213-3.178S37.369,163.961,39.225,165.247Z" transform="translate(81.572 417.213)"/><path d="M7.716,100.268C5.86,101.625,4.539,103.3,3.325,103.2S.682,101.41.075,100.089s2.535-4.106,3.785-3.571a21.423,21.423,0,0,1,3.856,3.749Z" transform="translate(0.002 248)"/><path d="M154.392,163.87c1.5,1.821,3.571,3.356,3.285,4.106-.536,1.5-2.321,2.571-3.571,3.82-1.035-1.214-2.821-2.357-2.856-3.571S152.929,165.762,154.392,163.87Z" transform="translate(388.8 421.304)"/><path d="M192.681,102.563c-1.785,1.535-3.356,3.571-4.106,3.285-1.5-.5-2.535-2.285-3.785-3.571,1.178-1.035,2.357-2.821,3.571-2.856S190.824,101.134,192.681,102.563Z" transform="translate(475.017 255.631)"/><path d="M3.6,93.357C2.174,91.464.46,90.179.532,89s1.892-2.357,2.928-3.571c1.25,1.25,3,2.321,3.571,3.856C7.208,90.107,5.138,91.607,3.6,93.357Z" transform="translate(1.366 219.669)"/><path d="M24.186,150.94a21.173,21.173,0,0,1,3.571,4c.643,1.285-2.214,4.32-3.571,3.571s-2.964-2.107-3.035-3.321S22.865,152.8,24.186,150.94Z" transform="translate(54.371 388.067)"/><path d="M169.785,156.607a23.635,23.635,0,0,1-3.57,3.571c-1.214.714-4.428-2.035-3.856-3.356s2-3.071,3.213-3.178S167.929,155.321,169.785,156.607Z" transform="translate(417.182 395.004)"/><path d="M192.4,113.407a23.635,23.635,0,0,1-3.571,3.571c-1.214.714-4.427-2.035-3.856-3.356s2-3.071,3.214-3.178S190.36,112.122,192.4,113.407Z" transform="translate(475.302 283.956)"/><path d="M171.874,37.187a23.172,23.172,0,0,1-4,3.571c-1.285.643-4.32-2.214-3.571-3.571s2.107-2.964,3.321-3.035S169.982,35.758,171.874,37.187Z" transform="translate(422.056 87.85)"/><path d="M156.677,22.78a21.171,21.171,0,0,1,3.571,4c.643,1.285-2.214,4.32-3.571,3.571s-2.964-2.107-3.035-3.321S155.32,24.637,156.677,22.78Z" transform="translate(394.943 58.624)"/><path d="M41.625,24.137a23.637,23.637,0,0,1-3.571,3.571c-1.214.714-4.427-2.035-3.856-3.356s2-3.071,3.213-3.178S39.769,22.816,41.625,24.137Z" transform="translate(87.741 54.482)"/><path d="M77.721,184.1a21.956,21.956,0,0,1,3.785,3.571c.714,1.143-2,4.427-3.321,3.892s-3.106-1.928-3.249-3.106S76.472,185.957,77.721,184.1Z" transform="translate(192.61 473.306)"/><path d="M89.087,192.534a21.174,21.174,0,0,1-3.571-4c-.643-1.285,2.214-4.32,3.571-3.571s2.964,2.107,3.071,3.321S90.444,190.642,89.087,192.534Z" transform="translate(219.592 475.227)"/><path d="M26.844,31.43c1.321,1.892,3.035,3.214,2.928,4.392s-1.785,2.642-3.142,3.249-4.106-2.5-3.571-3.571a23.209,23.209,0,0,1,3.785-4.07Z" transform="translate(59.105 80.859)"/><path d="M110.212,193.2c-1.428-1.892-3.142-3.178-3.071-4.356s1.892-2.357,2.928-3.571c1.25,1.25,3,2.321,3.571,3.856C113.783,189.947,111.569,191.447,110.212,193.2Z" transform="translate(275.412 476.314)"/><path d="M144.79,16.765a9.641,9.641,0,0,1-1.25-3.035c0-.428,1.357-1.321,1.535-1.214a4.535,4.535,0,0,1,1.678,2.071C146.861,14.873,145.9,15.551,144.79,16.765Z" transform="translate(368.982 32.218)"/><path d="M12.443,140.39c.786,1.357,1.571,2.249,1.357,2.571a8.891,8.891,0,0,1-2,1.785c-.428-.571-1.321-1.25-1.214-1.678A18.637,18.637,0,0,1,12.443,140.39Z" transform="translate(27.196 360.947)"/><path d="M4.79,120.489c-1.357.75-2.214,1.535-2.535,1.357A7.641,7.641,0,0,1,.47,119.81c.571-.428,1.25-1.321,1.678-1.214A15.677,15.677,0,0,1,4.79,120.489Z" transform="translate(1.214 304.903)"/><path d="M5.142,65.725c-1.214.928-1.857,1.714-2.642,1.892S1.393,66.689,1,66.4a7.641,7.641,0,0,1,1.785-2.035C2.928,64.19,3.785,64.975,5.142,65.725Z" transform="translate(2.576 165.464)"/><path d="M190.059,68.96c-1.178,1.143-1.892,2.107-2.178,2a5.07,5.07,0,0,1-2.071-1.714s.821-1.535,1.25-1.535a11.642,11.642,0,0,1,3,1.25Z" transform="translate(477.639 174.119)"/><path d="M2.785,74.63c.786,1.357,1.571,2.249,1.357,2.571a8.891,8.891,0,0,1-2,1.785C1.714,78.415,1,77.736,1,77.308S1.893,75.951,2.785,74.63Z" transform="translate(2.576 191.907)"/><path d="M13.75,47.005A9.641,9.641,0,0,1,12.5,43.97c0-.428,1.357-1.321,1.535-1.214a4.535,4.535,0,0,1,1.678,2.071C15.821,45.113,14.857,45.827,13.75,47.005Z" transform="translate(32.137 109.952)"/><path d="M71.99,2c-1.357.75-2.214,1.535-2.535,1.357A7.641,7.641,0,0,1,67.67,1.321C68.241.893,68.848,0,69.348,0S70.776,1.071,71.99,2Z" transform="translate(173.954 0.067)"/><path d="M44.612,178.11c-.893-1.214-1.678-1.857-1.857-2.678s.786-1.107,1.214-1.642a7.463,7.463,0,0,1,2,1.785C46.183,175.79,45.4,176.682,44.612,178.11Z" transform="translate(109.855 446.804)"/><path d="M126.185,2.99a9.5,9.5,0,0,1-3,1.25c-.428,0-1.357-1.393-1.25-1.535A5.071,5.071,0,0,1,124.007.99C124.293,1.026,125.007,1.883,126.185,2.99Z" transform="translate(313.426 2.612)"/><path d="M144.9,176.48c-1.178,1.143-1.892,2.107-2.178,2a5.071,5.071,0,0,1-2.071-1.714s.821-1.535,1.25-1.535a11.641,11.641,0,0,1,3,1.25Z" transform="translate(361.553 450.505)"/><path d="M186.07,126.205a9.641,9.641,0,0,1-1.25-3.035c0-.428,1.357-1.321,1.535-1.214a4.535,4.535,0,0,1,1.678,2.071C188.141,124.313,187.177,125.027,186.07,126.205Z" transform="translate(475.094 313.54)"/><path d="M65.59,184.55c1.107,1.214,2.071,1.892,1.964,2.178a4.534,4.534,0,0,1-1.678,2.071s-1.535-.786-1.535-1.214a9.64,9.64,0,0,1,1.25-3.035Z" transform="translate(165.394 474.463)"/><path d="M46.9,10.31c1.107,1.214,2.071,1.892,1.964,2.178a4.535,4.535,0,0,1-1.678,2.071s-1.535-.786-1.535-1.214A9.64,9.64,0,0,1,46.9,10.31Z" transform="translate(117.351 26.569)"/><path d="M175.03,143.27c1.107,1.214,2.071,1.892,1.964,2.178a4.535,4.535,0,0,1-1.678,2.071c-.178,0-1.535-.785-1.535-1.214a9.643,9.643,0,0,1,1.25-3.035Z" transform="translate(446.715 368.35)"/><path d="M176.47,49.885a9.638,9.638,0,0,1-1.25-3.035c0-.428,1.357-1.321,1.535-1.214a4.534,4.534,0,0,1,1.678,2.071C178.541,47.993,177.577,48.671,176.47,49.885Z" transform="translate(450.416 117.355)"/><path d="M122.825,187.8a9.5,9.5,0,0,1-3,1.25c-.428,0-1.357-1.392-1.25-1.535a5.07,5.07,0,0,1,2.071-1.714C120.933,185.689,121.647,186.546,122.825,187.8Z" transform="translate(304.789 477.644)"/></g></svg>