<svg xmlns="http://www.w3.org/2000/svg" width="617.42" height="677.914" viewBox="0 0 617.42 677.914"><defs><style>.a{fill:#1a1a1a;}</style></defs><g transform="translate(0 0.004)"><path class="a" d="M397.11,244c-8.61,12.43-2.35,19.72,7.35,21.68l-3.89,10c-9.2-4.69-16-3.28-18.94,3.93-2.73,6.79,1,12.55,10.67,16a48.514,48.514,0,0,0-2.38,4.41,48.7,48.7,0,0,0-1.54,4.84c-13.11-5.74-18.47-.63-21.08,10-11.31-6.44-17.91-3.17-20.38,10.45a44.259,44.259,0,0,0-4.72-3.13,10.72,10.72,0,1,0,5.58,12.63,37.56,37.56,0,0,0,.83-4.89c1.54-.52,2,.8,2.81,1.33a24.449,24.449,0,0,0,2.77,1.66,12.212,12.212,0,0,0,3.1.87,12.47,12.47,0,0,0,3.23,0,10,10,0,0,0,3.1-.86,10.7,10.7,0,0,0,2.56-2,13.132,13.132,0,0,0,2.05-2.48,12.59,12.59,0,0,0,1.29-3,27.108,27.108,0,0,0,.64-3.18l11.3,3.83a23.749,23.749,0,0,0-2.53,3.77c-3.14,7-1,12.49,5.85,15.29A10.88,10.88,0,0,0,399.2,338a50.45,50.45,0,0,0,.95-5c2,1.27,3.61,2.84,5.55,3.45,7.1,2.23,11,.67,14.46-5.86a32.153,32.153,0,0,0,1.76-5.54,42.159,42.159,0,0,0,5.37,2.7,39.092,39.092,0,0,0,5.66,1.12c.8,1.15-.53,1.35-.87,2s-1,1.41-1.4,2.17A10.43,10.43,0,0,0,436,347.55a10.55,10.55,0,0,0,13.82-6.12,10.32,10.32,0,0,0-7.17-13.71,38.439,38.439,0,0,0-4.61-.74,44.916,44.916,0,0,0,3.31-5,40.281,40.281,0,0,0,1.86-5.5c1.86.88,3.55,1.84,5.34,2.49a43,43,0,0,0,5,1.16c-4.25,7.41-4.46,11.69-.93,15.56s8.66,5,13,2.89a11.06,11.06,0,0,0,6-11.27c-.47-5.14-3.86-7.95-11.47-9.46q2.17-5.55,4.34-11.11a37.307,37.307,0,0,0,4.78,2.66,41.509,41.509,0,0,0,5.85,1.42c-.92,1.49-1.78,2.67-2.43,3.95-2.36,4.74-1.5,9.72,2.17,13a10.81,10.81,0,0,0,17.8-10.73,10,10,0,0,0-6.71-7.3,40.249,40.249,0,0,0-4.9-1.11c-.66-1.49.67-2,1.22-2.77,5.4-7.95,1-16.76-7.78-18.05-.84-.12-1.71-.14-3.09-.25,1-1.64,1.9-3,2.65-4.4,2.57-4.92,1.69-10.05-2.25-13.53a11.13,11.13,0,0,0-17.8,4.23,40.4,40.4,0,0,0-1.3,4.83l-10.6-4.38a15,15,0,0,0,3.29-11.51,52.786,52.786,0,0,0,4.54,3.31,10.26,10.26,0,0,0,13-1.74c3.58-3.88,4.26-9,1.73-13.1a11,11,0,0,0-13-4.77,10.48,10.48,0,0,0-6.74,7.37,45.069,45.069,0,0,0-.82,5.21,40.59,40.59,0,0,0-5.63-3.65,36.289,36.289,0,0,0-6.34-1.58c4-4.35,5.52-9,2.65-14.33a10.66,10.66,0,0,0-10.93-5.39c-6.54,1.12-9.44,5.49-10,11.63-1.81.8-2.32-.94-3.42-1.32-1.42-.49-2.77-1.2-4.2-1.6a34.54,34.54,0,0,0-4.23-.6,54.005,54.005,0,0,0,3-5,10.31,10.31,0,0,0-1.59-11.51A10.09,10.09,0,0,0,393,222.16a10.35,10.35,0,0,0-8.3,8.18,10.87,10.87,0,0,0,7.38,12.73,44.665,44.665,0,0,0,5.03.93Zm54.44,51.74a42.793,42.793,0,0,0,2.5-4.88,36.628,36.628,0,0,0,1.16-4.89l11.13,4a15.25,15.25,0,0,0-4.68,10.09ZM387,324.05c1.87-3.65,3.51-6.85,5-9.87l9.57,3.42a42.258,42.258,0,0,0-2.51,5,42.344,42.344,0,0,0-1.1,5.78C394.73,325.47,391.39,323.61,387,324.05Zm25.35-61.87c.66-1.11,1.4-2.17,1.95-3.32.46-1,.62-2.05,1.06-3s-.49-2.63,1.54-3.37c2.56,2.59,5.95,3.67,10,3.56a48.908,48.908,0,0,0-3,4.6,54.988,54.988,0,0,0-2,5.21ZM399.8,292.27a49.428,49.428,0,0,0,2.4-4.65c.57-1.52.87-3.14,1.29-4.73l9.52,4.3c-1.19,2.64-2.4,5.31-3.74,8.26-1.43-.63-2.74-1.31-4.12-1.77C403.56,293.15,401.91,292.81,399.8,292.27Zm35.07-14.59-4.46,8.74c-1.67-.75-3-1.43-4.43-2s-2.63-.81-3.9-1.2c1.26-3.13,2.37-5.86,3.6-8.9a41.992,41.992,0,0,0,4,1.87A53.382,53.382,0,0,0,434.87,277.68Zm-21.21,27.68,8.91,3.33c-.83,1.64-1.57,3.19-2.4,4.69s.08,3.47-1.46,4.31l-9.1-3.66Zm26,3-8.77-3.6c.74-1.32,1.56-2.59,2.18-3.95s1.16-3.05,1.71-4.53l8.8,3.05Z"/><path class="a" d="M363.82,334.09a10.572,10.572,0,1,0,13.72,5.94A10.572,10.572,0,0,0,363.82,334.09Z"/><path class="a" d="M412.24,214c-6.18,2.92-7.76,8.84-5.88,14.1,1.8,5,8.53,7.43,13.7,5.36a10.49,10.49,0,0,0,5.84-13.92A10.85,10.85,0,0,0,412.24,214Z"/><path class="a" d="M484.73,294a10.7,10.7,0,1,0,6.17-13.75A10.61,10.61,0,0,0,484.73,294Z"/><path class="a" d="M499.51,301.2a10.42,10.42,0,1,0,8.128.142,10.44,10.44,0,0,0-8.128-.142Z"/><path class="a" d="M350.43,362.56a10.23,10.23,0,0,0,5.75-13.27,10.34,10.34,0,0,0-13.72-5.93,10.61,10.61,0,0,0-5.59,14,10.47,10.47,0,0,0,13.56,5.2Z"/><path class="a" d="M436.59,239.76A10.72,10.72,0,0,0,450,245.64a10.37,10.37,0,1,0-7.52-19.32A10.77,10.77,0,0,0,436.59,239.76Z"/><path class="a" d="M376.86,215.88a10.365,10.365,0,1,0,5.355-13.645,10.365,10.365,0,0,0-5.355,13.645Z"/><path class="a" d="M306.77,344.65a10.226,10.226,0,1,0,5.715-13.285A10.226,10.226,0,0,0,306.77,344.65Z"/><path class="a" d="M476.07,273.07a10.26,10.26,0,0,0,13.56,5.05,10.14,10.14,0,0,0,5.3-13.42,10.45,10.45,0,0,0-13.57-5.2,10.58,10.58,0,0,0-5.29,13.57Z"/><path class="a" d="M315.7,365.76a10.23,10.23,0,1,0,.1-7.876,10.24,10.24,0,0,0-.1,7.876Z"/><path class="a" d="M414.86,337.49a10.143,10.143,0,1,0,13.335,5.285,10.15,10.15,0,0,0-13.335-5.285Z"/><path class="a" d="M294.89,374.88a10.21,10.21,0,1,0,5.341-13.221A10.21,10.21,0,0,0,294.89,374.88Z"/><path class="a" d="M480.17,256.82a9.81,9.81,0,1,0-7.29-18.21,10,10,0,0,0-5.62,12.84,9.87,9.87,0,0,0,12.91,5.37Z"/><path class="a" d="M347.05,203.58a10,10,0,1,0,5.16-12.98,10,10,0,0,0-5.16,12.98Z"/><path class="a" d="M373.88,266.63a10.031,10.031,0,1,0,5.25-12.92,10.06,10.06,0,0,0-5.25,12.92Z"/><path class="a" d="M274.06,383.9a9.884,9.884,0,1,0,5-13.04,9.85,9.85,0,0,0-5,13.04Z"/><path class="a" d="M388.52,359.82a9.81,9.81,0,1,0,5.455-12.756,9.809,9.809,0,0,0-5.455,12.756Z"/><path class="a" d="M521.18,327.39a9.93,9.93,0,1,0-4.17,13.41A9.93,9.93,0,0,0,521.18,327.39Z"/><path class="a" d="M487.05,332.2a9.56,9.56,0,0,0-4.79,13,9.84,9.84,0,0,0,13.07,4.8,10,10,0,0,0,4.82-13.12,9.82,9.82,0,0,0-13.1-4.68Z"/><path class="a" d="M356,224.47a9.64,9.64,0,0,0,12.9,5.12,9.808,9.808,0,1,0-12.9-5.12Z"/><path class="a" d="M446.13,210.18a9.81,9.81,0,0,0-13.36-3.82,9.52,9.52,0,0,0-3.69,13.28,9.78,9.78,0,0,0,12.84,3.84C446.65,221,448.63,214.7,446.13,210.18Z"/><path class="a" d="M398.18,206.48a9.81,9.81,0,1,0,5.24-12.82,9.81,9.81,0,0,0-5.24,12.82Z"/><path class="a" d="M286,353.87a10.09,10.09,0,0,0,13.18,4.84A9.73,9.73,0,0,0,303.83,346a9.47,9.47,0,0,0-13-4.78A9.77,9.77,0,0,0,286,353.87Z"/><path class="a" d="M370.29,233a9.43,9.43,0,0,0-5.17,12.27,9.68,9.68,0,0,0,12.75,5.42,10,10,0,0,0,5.24-12.43A9.69,9.69,0,0,0,370.29,233Z"/><path class="a" d="M368.67,194.69a9.6,9.6,0,1,0,4.92-12.446,9.6,9.6,0,0,0-4.92,12.446Z"/><path class="a" d="M461.4,353.87a9.91,9.91,0,0,0,12.6,4.92,9.63,9.63,0,0,0,4.8-13,9.46,9.46,0,0,0-12.59-4.44A9.65,9.65,0,0,0,461.4,353.87Z"/><path class="a" d="M515.93,305.77a9.68,9.68,0,0,0,12.48,4.79,9.53,9.53,0,0,0,4.7-12.94,9.63,9.63,0,0,0-12.58-4.43A9.77,9.77,0,0,0,515.93,305.77Z"/><path class="a" d="M368,368.75a9.414,9.414,0,1,0,5.02-12.33A9.414,9.414,0,0,0,368,368.75Z"/><path class="a" d="M258.31,380.29a9.38,9.38,0,1,0,12.39,5.1,9.51,9.51,0,0,0-12.39-5.1Z"/><path class="a" d="M459.11,230.46a9.27,9.27,0,1,0,5.16-12.16,9.12,9.12,0,0,0-5.16,12.16Z"/><path class="a" d="M338.7,182.55A9.35,9.35,0,0,0,351.23,187a9.22,9.22,0,0,0,4.5-12,9.37,9.37,0,0,0-12.35-4.92,9.47,9.47,0,0,0-4.68,12.47Z"/><path class="a" d="M507.2,284.59a9,9,0,0,0,12.29,4.81,9.223,9.223,0,0,0-7.16-17,9.13,9.13,0,0,0-5.13,12.19Z"/><path class="a" d="M277.9,367.29a9.25,9.25,0,0,0,4.54-12.47,9.35,9.35,0,0,0-12-4.65,9.49,9.49,0,0,0-5,12.35,9.36,9.36,0,0,0,12.46,4.77Z"/><path class="a" d="M359,382.68a9.22,9.22,0,0,0,4.83-12.4,9,9,0,0,0-11.94-4.6A9.19,9.19,0,0,0,347,378a9.4,9.4,0,0,0,12,4.68Z"/><path class="a" d="M537.16,331.48a9.27,9.27,0,0,0,4.93-12.39,9.49,9.49,0,0,0-12-4.74,9.36,9.36,0,0,0-4.86,12.44,9.15,9.15,0,0,0,11.93,4.69Z"/><path class="a" d="M262.21,413.63a9.3,9.3,0,1,0,5.12-12.12,9.3,9.3,0,0,0-5.12,12.12Z"/><path class="a" d="M317.29,191.1a9.332,9.332,0,1,0,5.2-12.13,9.332,9.332,0,0,0-5.2,12.13Z"/><path class="a" d="M283.58,404.82a9.39,9.39,0,0,0,12,4.78,9.14,9.14,0,0,0,4.71-12.44,8.88,8.88,0,0,0-12-4.3,9.17,9.17,0,0,0-4.71,11.96Z"/><path class="a" d="M325.67,386.55a9.2,9.2,0,1,0,5.14-11.661A9.2,9.2,0,0,0,325.67,386.55Z"/><path class="a" d="M304.92,395.69a9.124,9.124,0,1,0,4.975-11.905,9.124,9.124,0,0,0-4.975,11.905Z"/><path class="a" d="M440.49,362.39a9.141,9.141,0,1,0,5.245-11.815A9.141,9.141,0,0,0,440.49,362.39Z"/><path class="a" d="M510.23,268.09a9,9,0,0,0,5-11.8,9.41,9.41,0,0,0-12-4.88,9.13,9.13,0,0,0-4.79,11.9,8.73,8.73,0,0,0,11.79,4.78Z"/><path class="a" d="M253.09,427.61a9.37,9.37,0,0,0,5-11.79A9.15,9.15,0,0,0,245.87,411a8.79,8.79,0,0,0-4.56,11.8,9.11,9.11,0,0,0,11.78,4.81Z"/><path class="a" d="M232.34,401.33a8.88,8.88,0,0,0,11.74,4.91,9.11,9.11,0,0,0,4.75-11.88,9.22,9.22,0,0,0-11.42-4.75,9,9,0,0,0-5.07,11.72Z"/><path class="a" d="M362.26,296.11a9.036,9.036,0,1,0,5.07-11.73,9.036,9.036,0,0,0-5.07,11.73Z"/><path class="a" d="M513.14,356.61a8.932,8.932,0,1,0,4.545-11.785A8.932,8.932,0,0,0,513.14,356.61Z"/><path class="a" d="M435.5,363.85a8.8,8.8,0,1,0-3.35,11.69A8.8,8.8,0,0,0,435.5,363.85Z"/><path class="a" d="M320.39,174.52a8.7,8.7,0,1,0-11.33-4.27,8.52,8.52,0,0,0,11.33,4.27Z"/><path class="a" d="M244.78,371.28a8.76,8.76,0,1,0,.939-8.83A8.76,8.76,0,0,0,244.78,371.28Z"/><path class="a" d="M492.36,365.81a8.639,8.639,0,1,0,4.12-11.5,8.7,8.7,0,0,0-4.12,11.5Z"/><path class="a" d="M231.79,436.18a8.72,8.72,0,1,0-11.2-4.85,8.72,8.72,0,0,0,11.2,4.85Z"/><path class="a" d="M420.4,197a8.73,8.73,0,1,0,4.6-11.25A8.55,8.55,0,0,0,420.4,197Z"/><path class="a" d="M390.24,184.83a8.64,8.64,0,1,0,4.5-11.3,8.64,8.64,0,0,0-4.5,11.3Z"/><path class="a" d="M268.33,345.53a8.52,8.52,0,0,0,4.78-11.16,8.65,8.65,0,0,0-11.27-4.62,8.47,8.47,0,0,0-4.7,11.18,8.38,8.38,0,0,0,11.19,4.6Z"/><path class="a" d="M287.83,179.14a8.52,8.52,0,0,0,11.41,4.16,8.37,8.37,0,0,0,4.29-11.3,8.46,8.46,0,0,0-11.37-4.22,8.63,8.63,0,0,0-4.33,11.36Z"/><path class="a" d="M494.53,230.79a37.858,37.858,0,1,0,.03,0Z"/><path class="a" d="M534.73,347.54a8.76,8.76,0,0,0,11.42,4.37,8.51,8.51,0,0,0,4.08-11.45,8.4,8.4,0,0,0-10.89-4.2,8.63,8.63,0,0,0-4.61,11.28Z"/><path class="a" d="M234.09,441.34a8.13,8.13,0,0,0-4.29,10.74,8.44,8.44,0,0,0,11.2,4.53,8.81,8.81,0,0,0,4.36-10.91,8.47,8.47,0,0,0-11.27-4.36Z"/><path class="a" d="M398.68,380.14a15.235,15.235,0,1,1,0,.05Z"/><path class="a" d="M462,213.6a8.62,8.62,0,0,0,4.5-11.27,8.51,8.51,0,0,0-15.68,6.58A8.61,8.61,0,0,0,462,213.6Z"/><path class="a" d="M289.49,336.38a8.22,8.22,0,0,0,4.24-10.8,8.33,8.33,0,0,0-11.23-4.47,8.73,8.73,0,0,0-4.36,10.9,8.58,8.58,0,0,0,11.35,4.37Z"/><path class="a" d="M266,436.64a8.11,8.11,0,0,0-10.78-4.23,8.4,8.4,0,0,0-4.59,10.73A8.64,8.64,0,0,0,262,447.6a8.35,8.35,0,0,0,4-10.96Z"/><path class="a" d="M364.71,162.15a8.3,8.3,0,1,0,6.554-.447,8.33,8.33,0,0,0-6.554.447Z"/><path class="a" d="M342.21,305.15a8.29,8.29,0,1,0,.666-8.483,8.281,8.281,0,0,0-.666,8.483Z"/><path class="a" d="M321,314a8.22,8.22,0,1,0,1.564-9.012A8.26,8.26,0,0,0,321,314Z"/><path class="a" d="M213,450.47a8.226,8.226,0,1,0,10.88,4.11A8.34,8.34,0,0,0,213,450.47Z"/><path class="a" d="M538.05,296.11a8.21,8.21,0,1,0,1.7-8.977A8.25,8.25,0,0,0,538.05,296.11Z"/><path class="a" d="M280.46,315.37a8.139,8.139,0,1,0-10.747-4.125,8.138,8.138,0,0,0,10.747,4.125Z"/><path class="a" d="M290,161.81a8,8,0,0,0,4.18-10.71A8.19,8.19,0,1,0,290,161.81Z"/><path class="a" d="M258.33,166.61a8,8,0,0,0,10.74,4.12,8.12,8.12,0,1,0-10.74-4.12Z"/><path class="a" d="M482.44,378.5a48.278,48.278,0,1,1,.05,0Z"/><path class="a" d="M210.78,444.36a8.19,8.19,0,1,0-6.292.191,8.19,8.19,0,0,0,6.292-.191Z"/><path class="a" d="M338.23,216.07a8.08,8.08,0,1,0-6.261.238A8,8,0,0,0,338.23,216.07Z"/><path class="a" d="M263.5,313.15a8.15,8.15,0,1,0-3.81,10.9,8.06,8.06,0,0,0,3.81-10.9Z"/><path class="a" d="M304,312.22a8.18,8.18,0,1,0,10.88,4.37A8.52,8.52,0,0,0,304,312.22Z"/><path class="a" d="M547,317.15a8.13,8.13,0,1,0,4.57-10.66A8.24,8.24,0,0,0,547,317.15Z"/><path class="a" d="M260.77,289.83a8,8,0,0,0,10.17,4.48,8.11,8.11,0,0,0,4.67-10.62,8.22,8.22,0,0,0-10.82-4.25A8.12,8.12,0,0,0,260.77,289.83Z"/><path class="a" d="M378.22,389a7.941,7.941,0,1,0,4.31-10.37A7.941,7.941,0,0,0,378.22,389Z"/><path class="a" d="M282.59,438.44a7.947,7.947,0,1,0-10.36-4.23,8.21,8.21,0,0,0,10.36,4.23Z"/><path class="a" d="M345.43,154.55a7.77,7.77,0,0,0-10.07-4.4A8.06,8.06,0,0,0,331,160.79a8.16,8.16,0,0,0,10.35,4,7.89,7.89,0,0,0,4.08-10.24Z"/><path class="a" d="M539.63,279.35a7.69,7.69,0,0,0,4.42-10.11A7.8,7.8,0,0,0,534,264.66a8,8,0,0,0-4.65,10.59A7.88,7.88,0,0,0,539.63,279.35Z"/><path class="a" d="M491.85,225.1a7.88,7.88,0,0,0,4.51-10.1,8,8,0,0,0-10.67-4.34,7.75,7.75,0,0,0-4,10.25,7.65,7.65,0,0,0,10.16,4.19Z"/><path class="a" d="M238.89,158.47a7.6,7.6,0,0,0,3.89-10.22,7.8,7.8,0,0,0-14.19,6.49,7.62,7.62,0,0,0,10.3,3.73Z"/><path class="a" d="M222.78,414a7.57,7.57,0,0,0,3.88-10.18,7.68,7.68,0,0,0-10.17-4,8,8,0,0,0-4,10.26A7.88,7.88,0,0,0,222.78,414Z"/><path class="a" d="M187.94,469.93A7.47,7.47,0,0,0,198,474a7.76,7.76,0,0,0,4.26-10.1A8.19,8.19,0,0,0,192,459.74,7.82,7.82,0,0,0,187.94,469.93Z"/><path class="a" d="M527.16,367.43a7.64,7.64,0,1,0,5.973-.225A7.64,7.64,0,0,0,527.16,367.43Z"/><path class="a" d="M252,268.59a7.75,7.75,0,0,0,10.12,4.28,8.06,8.06,0,0,0,4.31-10.2,7.87,7.87,0,0,0-10.19-4.15A7.56,7.56,0,0,0,252,268.59Z"/><path class="a" d="M367,402.07a7.46,7.46,0,0,0,4.41-10,7.76,7.76,0,0,0-10.17-4.25,8.11,8.11,0,0,0-4.27,9.75,7.69,7.69,0,0,0,10.03,4.5Z"/><path class="a" d="M303.91,428.92a7.45,7.45,0,0,0,4-10.17,7.78,7.78,0,0,0-9.75-4.09,8.12,8.12,0,0,0-4.44,10.2,7.71,7.71,0,0,0,10.19,4.06Z"/><path class="a" d="M460.68,387.27a7.744,7.744,0,1,0-9.99-4.52,7.74,7.74,0,0,0,9.99,4.52Z"/><path class="a" d="M560.8,328.06a8,8,0,0,0-4.5,9.57,7.74,7.74,0,0,0,10,4.67,7.59,7.59,0,0,0,4.45-9.49,7.7,7.7,0,0,0-9.95-4.75Z"/><path class="a" d="M243.48,248a7.6,7.6,0,0,0,9.7,3.85,7.71,7.71,0,0,0,4-10.17,7.81,7.81,0,0,0-9.77-3.85A7.66,7.66,0,0,0,243.48,248Z"/><path class="a" d="M530.69,257.81a7.43,7.43,0,0,0,4.07-9.61,7.59,7.59,0,0,0-10.1-4.22,7.8,7.8,0,0,0-4.1,9.73,7.56,7.56,0,0,0,10.13,4.1Z"/><path class="a" d="M197.09,491a7.57,7.57,0,0,0,10.1,4,7.7,7.7,0,0,0,3.85-9.74,7.85,7.85,0,0,0-10.19-4,7.67,7.67,0,0,0-3.76,9.74Z"/><path class="a" d="M325.2,419.71a7.54,7.54,0,1,0-5.91.162A7.56,7.56,0,0,0,325.2,419.71Z"/><path class="a" d="M254.32,135.5a7.44,7.44,0,1,0,9.57,4.19,7.44,7.44,0,0,0-9.57-4.19Z"/><path class="a" d="M250,302.56a7.43,7.43,0,1,0-9.617-3.926A7.43,7.43,0,0,0,250,302.56Z"/><path class="a" d="M291.62,302a7.47,7.47,0,1,0,3.41-10A7.47,7.47,0,0,0,291.62,302Z"/><path class="a" d="M336.16,406.86a5.739,5.739,0,1,0-.03,0Z"/><path class="a" d="M286.47,270.89a7.44,7.44,0,1,0,9.69,3.81,7.33,7.33,0,0,0-9.69-3.81Z"/><path class="a" d="M218.45,482.23a7.52,7.52,0,1,0,.5-7.671,7.52,7.52,0,0,0-.5,7.671Z"/><path class="a" d="M558.23,362.09a7.31,7.31,0,1,0,.29,5.628A7.38,7.38,0,0,0,558.23,362.09Z"/><path class="a" d="M502.32,386a7.29,7.29,0,0,0,9.56,4.08,7.39,7.39,0,0,0,4.11-9.58,7.54,7.54,0,0,0-9.62-4.12,7.45,7.45,0,0,0-4.05,9.62Z"/><path class="a" d="M452.62,191.11a7.19,7.19,0,0,0,3.82-9.19,7.28,7.28,0,1,0-3.82,9.19Z"/><path class="a" d="M239.85,472.94a7.334,7.334,0,1,0,3.75-9.67,7.4,7.4,0,0,0-3.75,9.67Z"/><path class="a" d="M202.35,132.87a7.21,7.21,0,1,0,6.48,12.881,7,7,0,0,0,3.24-9.321,7.16,7.16,0,0,0-9.72-3.56Z"/><path class="a" d="M176.69,500.24a7.26,7.26,0,0,0,9.83,3.2,7.46,7.46,0,0,0,3.25-9.4,7.38,7.38,0,0,0-9.75-3.56,7.16,7.16,0,0,0-3.33,9.76Z"/><path class="a" d="M430.15,391.85a7.22,7.22,0,0,0,9.65,3.86,7.52,7.52,0,0,0,3.65-9.32,7.28,7.28,0,0,0-9.72-3.74,7,7,0,0,0-3.58,9.2Z"/><path class="a" d="M412.82,175.2a7,7,0,0,0,9.51,3.84,7.26,7.26,0,0,0,4-9,7.54,7.54,0,0,0-9.47-4.34,7.32,7.32,0,0,0-4.04,9.5Z"/><path class="a" d="M247.85,220.73a6.93,6.93,0,0,0-9.64-3.48,7.22,7.22,0,0,0-3.67,9.14,7.44,7.44,0,0,0,9.6,4,7.2,7.2,0,0,0,3.71-9.66Z"/><path class="a" d="M273.83,259.72a7.28,7.28,0,1,0,.565-7.429A7.28,7.28,0,0,0,273.83,259.72Z"/><path class="a" d="M310.71,151.82a7,7,0,0,0,3.86-9.1,7.12,7.12,0,1,0-13.09,5.57,7,7,0,0,0,9.23,3.53Z"/><path class="a" d="M512.36,232.65a7,7,0,0,0,9.24,3.53,7.22,7.22,0,0,0,3.58-9.29,7.32,7.32,0,0,0-9.35-3.53A7.09,7.09,0,0,0,512.36,232.65Z"/><path class="a" d="M171.48,469.41a6.84,6.84,0,0,0-3.89,9,7.09,7.09,0,0,0,8.93,4.17,7.41,7.41,0,0,0,4.14-9.53,7.14,7.14,0,0,0-9.18-3.64Z"/><path class="a" d="M268.63,229.48a6.94,6.94,0,0,0-3.57,9.12,7.072,7.072,0,1,0,12.84-5.93,7,7,0,0,0-9.27-3.19Z"/><path class="a" d="M302.35,190.16a6.83,6.83,0,0,0-3.76,9.09,7,7,0,1,0,12.87-5.36,6.85,6.85,0,0,0-9.11-3.73Z"/><path class="a" d="M237.75,350.15c1.56,4.09,8.37,4.77,11.41,1.14a7.11,7.11,0,0,0,.68-8.36,7.32,7.32,0,0,0-8.47-2.84,5.159,5.159,0,0,0-1.66,1C238.43,342.12,237.11,348.47,237.75,350.15Z"/><path class="a" d="M386.17,154.59a6.657,6.657,0,1,0,9.37,2.88A7,7,0,0,0,386.17,154.59Z"/><path class="a" d="M231.9,277.37a7,7,0,0,0,9.18,3.55,7.18,7.18,0,0,0,3.59-9.24,7.35,7.35,0,0,0-9.28-3.55,7.08,7.08,0,0,0-3.49,9.24Z"/><path class="a" d="M486.1,193.76a6.89,6.89,0,0,0-9.29-3.15,7,7,0,0,0-3.27,8.8,7.12,7.12,0,0,0,9.21,3.61,7,7,0,0,0,3.35-9.26Z"/><path class="a" d="M205.09,214.08a6.83,6.83,0,1,0,3.76-9.08,7,7,0,0,0-3.76,9.08Z"/><path class="a" d="M234.93,208.84a6.84,6.84,0,1,0-9-4.05,6.91,6.91,0,0,0,9,4.05Z"/><path class="a" d="M491,398.36a6.78,6.78,0,1,0-9.08-3.08,6.78,6.78,0,0,0,9.08,3.08Z"/><path class="a" d="M337.52,232.28a6.82,6.82,0,1,0,3.39-8.75A7.17,7.17,0,0,0,337.52,232.28Z"/><path class="a" d="M189.09,452.26a6.75,6.75,0,0,0,3.22-9.21,6.82,6.82,0,0,0-8.77-3.23,6.94,6.94,0,0,0-3.67,9.12,6.84,6.84,0,0,0,9.22,3.32Z"/><path class="a" d="M220.41,133.09a6.87,6.87,0,1,0,3.88-9.12,7.23,7.23,0,0,0-3.88,9.12Z"/><path class="a" d="M418.26,404.23a6.77,6.77,0,0,0,3.59-8.61,6.85,6.85,0,1,0-3.59,8.61Z"/><path class="a" d="M214,235a6.77,6.77,0,1,0,3.63-8.61A6.92,6.92,0,0,0,214,235Z"/><path class="a" d="M264.74,455a6.71,6.71,0,1,0,6.79.618,6.71,6.71,0,0,0-6.79-.618Z"/><path class="a" d="M208.31,163.12a6.7,6.7,0,0,0,8.5,3.7,6.79,6.79,0,0,0,3.87-8.93,6.93,6.93,0,0,0-8.54-3.7,6.76,6.76,0,0,0-3.83,8.93Z"/><path class="a" d="M242.25,166.2a6.6,6.6,0,1,0,8.58,3.63A6.67,6.67,0,0,0,242.25,166.2Z"/><path class="a" d="M164.66,512.06a6.74,6.74,0,0,0,3.52-8.6,6.83,6.83,0,1,0-3.52,8.6Z"/><path class="a" d="M178.31,150.82a6.94,6.94,0,0,0,8.57,3.77,6.7,6.7,0,1,0-5-12.42,6.88,6.88,0,0,0-3.57,8.65Z"/><path class="a" d="M272.35,178.21a6.72,6.72,0,1,0,8.507,3.736A6.713,6.713,0,0,0,272.35,178.21Z"/><path class="a" d="M232,259.76a6.46,6.46,0,0,0,3.52-8.59A6.55,6.55,0,0,0,227,247.5a6.7,6.7,0,0,0-3.73,9.06,6.63,6.63,0,0,0,8.73,3.2Z"/><path class="a" d="M265.28,220.5a6.53,6.53,0,0,0,3.27-8.69,6.91,6.91,0,0,0-8.8-3.22,7,7,0,0,0-3.25,8.81,6.6,6.6,0,0,0,8.78,3.1Z"/><path class="a" d="M189.58,512.07a6.63,6.63,0,0,0-3.78,8.51,6.82,6.82,0,0,0,9.11,3.65,6.63,6.63,0,0,0,3.27-8.71,6.46,6.46,0,0,0-8.6-3.45Z"/><path class="a" d="M210.47,503.22a6.42,6.42,0,0,0-3.57,8.51,6.63,6.63,0,0,0,8.48,3.78,6.8,6.8,0,0,0,3.76-9,6.58,6.58,0,0,0-8.67-3.29Z"/><path class="a" d="M173.25,120.94a6.68,6.68,0,0,0-4.09,8.41,6.79,6.79,0,0,0,9,4,6.663,6.663,0,0,0-4.88-12.4Z"/><path class="a" d="M322.45,295.75a6.38,6.38,0,0,0,3.13-8.6,6.45,6.45,0,0,0-8.54-3.33,6.56,6.56,0,1,0,5.41,11.93Z"/><path class="a" d="M208.53,188a6.36,6.36,0,0,0-8.29-3.88,6.57,6.57,0,0,0-4,8.81,6.82,6.82,0,0,0,8.59,3.51A6.52,6.52,0,0,0,208.53,188Z"/><path class="a" d="M304.45,271.28a6.58,6.58,0,0,0,8.52,3.54,6.47,6.47,0,0,0,3.85-8.37,6.7,6.7,0,0,0-8.93-3.84,6.91,6.91,0,0,0-3.44,8.67Z"/><path class="a" d="M230.17,369.82c-1.54,2.76-3,5.32-4.39,7.93a2.88,2.88,0,0,0,.57,3.5,6.83,6.83,0,0,0,12.07-3.57,6.49,6.49,0,0,0-3.66-6.83A23.405,23.405,0,0,0,230.17,369.82Z"/><path class="a" d="M578.37,353.6a6.23,6.23,0,0,0-8.6-3,6.5,6.5,0,0,0-3.19,8.62,6.85,6.85,0,0,0,8.75,3.11,6.55,6.55,0,0,0,3.04-8.73Z"/><path class="a" d="M168.38,521.26a6.47,6.47,0,0,0-3.56,8.47,6.55,6.55,0,1,0,12.09-5,6.46,6.46,0,0,0-8.53-3.47Z"/><path class="a" d="M541.67,400.86a6.29,6.29,0,0,0,3.56-7.95,6.4,6.4,0,1,0-11.76,5A6.28,6.28,0,0,0,541.67,400.86Z"/><path class="a" d="M299.28,241.63a6.58,6.58,0,0,0-3.68,8.52,6.78,6.78,0,0,0,8.7,3.37,6.46,6.46,0,0,0,3.36-8.12,6.29,6.29,0,0,0-8.38-3.77Z"/><path class="a" d="M578.07,310.8a6.24,6.24,0,0,0,3.5-8.42,6.372,6.372,0,0,0-11.59,5.3,6.27,6.27,0,0,0,8.09,3.12Z"/><path class="a" d="M388.71,409.61a6.37,6.37,0,1,0,.6-6.465,6.37,6.37,0,0,0-.6,6.465Z"/><path class="a" d="M283.76,131.08a6.62,6.62,0,0,0-8.64-3.24,6.38,6.38,0,0,0-3,8.16,6.06,6.06,0,0,0,8.49,3.16,6.32,6.32,0,0,0,3.15-8.08Z"/><path class="a" d="M232.05,494.32a6.2,6.2,0,0,0-3.57,8.43,6.31,6.31,0,1,0,11.58-5A6.2,6.2,0,0,0,232.05,494.32Z"/><path class="a" d="M152,130.33a6.21,6.21,0,0,0-3.41,8.5,6.312,6.312,0,1,0,11.48-5.25A6.22,6.22,0,0,0,152,130.33Z"/><path class="a" d="M359.58,266a6.3,6.3,0,0,0-3.66,7.94,6.2,6.2,0,1,0,3.66-7.94Z"/><path class="a" d="M560.9,286.33a6.38,6.38,0,1,0,3.518-8.189,6.38,6.38,0,0,0-3.518,8.189Z"/><path class="a" d="M356.94,142.84a6.15,6.15,0,1,0,8.21,2.91,6.24,6.24,0,0,0-8.21-2.91Z"/><path class="a" d="M291.39,457.69a6.22,6.22,0,1,0-8.19-2.91,6.14,6.14,0,0,0,8.19,2.91Z"/><path class="a" d="M287.23,229.45a6.41,6.41,0,0,0,8.28,2.88,6.22,6.22,0,1,0-8.28-2.88Z"/><path class="a" d="M461.36,404a6.38,6.38,0,0,0,8.3,2.81,6.17,6.17,0,1,0-8.3-2.81Z"/><path class="a" d="M504.12,211.05a6.22,6.22,0,0,0,7.85,3.69,6.3,6.3,0,0,0,3.64-7.89,6.38,6.38,0,0,0-7.89-3.71,6.29,6.29,0,0,0-3.6,7.91Z"/><path class="a" d="M143.07,520.74a6.172,6.172,0,1,0-8.115-3.215,6.172,6.172,0,0,0,8.115,3.215Z"/><path class="a" d="M190.86,120.83a6.32,6.32,0,0,0,8.08,3.16,6.42,6.42,0,0,0,3.33-8,6.29,6.29,0,0,0-8.52-3.26,6.21,6.21,0,0,0-2.89,8.1Z"/><path class="a" d="M147.16,530.57a6.16,6.16,0,1,0,8.1,3.19A6.16,6.16,0,0,0,147.16,530.57Z"/><path class="a" d="M515.49,398.62a6.08,6.08,0,0,0-3.13,8.09,6.18,6.18,0,0,0,8.15,3,6.1,6.1,0,1,0-5-11.11Z"/><path class="a" d="M169.8,172.73a6.138,6.138,0,1,0,8.09,3.14,6.2,6.2,0,0,0-8.09-3.14Z"/><path class="a" d="M555.49,257.46a6.4,6.4,0,0,0-3.12,8.19,6.131,6.131,0,0,0,11.24-4.9,6.34,6.34,0,0,0-8.12-3.29Z"/><path class="a" d="M221.13,175.65a6.14,6.14,0,1,0,7.723,3.612A6.14,6.14,0,0,0,221.13,175.65Z"/><path class="a" d="M191.38,163.76a6.09,6.09,0,1,0,6.155.85,6.09,6.09,0,0,0-6.155-.85Z"/><path class="a" d="M139.83,117.76a6.111,6.111,0,1,0,3.22-8.02,6.111,6.111,0,0,0-3.22,8.02Z"/><path class="a" d="M248.09,195.85a4.4,4.4,0,1,0-.03,0Z"/><path class="a" d="M554.87,388.51a6.14,6.14,0,0,0,8.09,3.08,6,6,0,0,0,2.88-8.12,5.78,5.78,0,0,0-7.59-2.88,6,6,0,0,0-3.38,7.92Z"/><path class="a" d="M157.94,159.94a6,6,0,1,0,.16-6.366A6,6,0,0,0,157.94,159.94Z"/><path class="a" d="M367.81,418.3a6.07,6.07,0,1,0,3.45-7.84,5.93,5.93,0,0,0-3.45,7.84Z"/><path class="a" d="M155.12,490.59a6.1,6.1,0,1,0-7.9-3.42,6,6,0,0,0,7.9,3.42Z"/><path class="a" d="M350.28,245.37a5.86,5.86,0,0,0-2.85,8.13,6.019,6.019,0,1,0,10.91-5.09,5.87,5.87,0,0,0-8.06-3.04Z"/><path class="a" d="M587.34,331.53a6.14,6.14,0,0,0,2.65-8.19,6,6,0,0,0-7.75-2.45,5.89,5.89,0,0,0-2.65,8.13,6.13,6.13,0,0,0,7.75,2.51Z"/><path class="a" d="M338.41,275.71a5.63,5.63,0,0,0-2.76,7.61,5.774,5.774,0,0,0,10.41-5,5.6,5.6,0,0,0-7.65-2.61Z"/><path class="a" d="M121.7,119.18a5.9,5.9,0,0,0-2.93,7.63,6.27,6.27,0,0,0,7.67,3.06,5.89,5.89,0,0,0,2.94-8.1,5.62,5.62,0,0,0-7.68-2.59Z"/><path class="a" d="M175.85,201.93a5.91,5.91,0,1,0,2.82-7.65,6,6,0,0,0-2.82,7.65Z"/><path class="a" d="M182,553.65a5.83,5.83,0,0,0,3.25-7.44,5.76,5.76,0,1,0-10.71,4.23,5.83,5.83,0,0,0,7.46,3.21Z"/><path class="a" d="M140.11,160.94a6,6,0,0,0-3.5,7.38,5.92,5.92,0,0,0,7.38,3.43,5.64,5.64,0,0,0,3.4-7.3A5.72,5.72,0,0,0,140.11,160.94Z"/><path class="a" d="M329.58,254.48a5.68,5.68,0,0,0-3,7.55,6,6,0,0,0,7.64,3,5.92,5.92,0,0,0,2.94-7.64,5.65,5.65,0,0,0-7.58-2.91Z"/><path class="a" d="M250.19,493.26a5.47,5.47,0,0,0,7.4,3.16,5.73,5.73,0,0,0,3.33-7.4,6.18,6.18,0,0,0-7.55-3.27,5.82,5.82,0,0,0-3.18,7.51Z"/><path class="a" d="M161.55,108.84a5.83,5.83,0,0,0,7.7,2.72,6.15,6.15,0,0,0,2.7-7.79,5.79,5.79,0,0,0-7.75-2.57,5.57,5.57,0,0,0-2.65,7.64Z"/><path class="a" d="M195.91,541.51a5.69,5.69,0,0,0,7.57,2.94,5.93,5.93,0,0,0,3-7.12A6,6,0,0,0,199,534a5.77,5.77,0,0,0-3.09,7.51Z"/><path class="a" d="M278.68,208.1a5.8,5.8,0,0,0,7.65,2.71,6.11,6.11,0,0,0,2.69-7.74,5.78,5.78,0,0,0-7.7-2.57,5.55,5.55,0,0,0-2.64,7.6Z"/><path class="a" d="M112.94,98a6,6,0,0,0-2.92,7.68,5.88,5.88,0,0,0,7.74,2.65,5.64,5.64,0,0,0,2.68-7.16,5.76,5.76,0,0,0-7.5-3.17Z"/><path class="a" d="M127.73,147.51a5.71,5.71,0,0,0,7.55,2.88,5.47,5.47,0,0,0,3-7.43,5.76,5.76,0,0,0-7.51-3.05,6.11,6.11,0,0,0-3.04,7.6Z"/><path class="a" d="M245.53,116.2a5.7,5.7,0,0,0-2.56,7.65,5.6,5.6,0,0,0,7.65,2.43,5.89,5.89,0,0,0,2.53-7.22,6,6,0,0,0-7.62-2.86Z"/><path class="a" d="M160.69,562.57a5.62,5.62,0,1,0-7.3-3.14,5.619,5.619,0,0,0,7.3,3.14Z"/><path class="a" d="M354.59,430.33a5.776,5.776,0,1,0-7.73-2.65,5.83,5.83,0,0,0,7.73,2.65Z"/><path class="a" d="M304.63,445.11a5.56,5.56,0,0,0,7.33,3.26,5.89,5.89,0,0,0,3.38-7.36,5.79,5.79,0,0,0-7.41-3.19,5.54,5.54,0,0,0-3.3,7.29Z"/><path class="a" d="M309,220.11a5.572,5.572,0,1,0,2.84-7.35A5.572,5.572,0,0,0,309,220.11Z"/><path class="a" d="M333.16,439.15a5.48,5.48,0,1,0-7-2.78,5.32,5.32,0,0,0,7,2.78Z"/><path class="a" d="M317.63,240.53a5.6,5.6,0,1,0,.969-5.612A5.6,5.6,0,0,0,317.63,240.53Z"/><path class="a" d="M193.22,418.26a5.7,5.7,0,0,0,10.49-4.42c-1-2.53-4.23-4.29-6.25-3.12C193.68,412.89,191.81,415,193.22,418.26Z"/><path class="a" d="M499.21,418.13a5.51,5.51,0,1,0-7.09-2.64,5.6,5.6,0,0,0,7.09,2.64Z"/><path class="a" d="M134.07,89.25a5.51,5.51,0,1,0,5.609.449A5.51,5.51,0,0,0,134.07,89.25Z"/><path class="a" d="M543.89,244a5.52,5.52,0,1,0,.015-4.361A5.48,5.48,0,0,0,543.89,244Z"/><path class="a" d="M123.25,547.32a5.53,5.53,0,1,0,.831-5.557,5.53,5.53,0,0,0-.831,5.557Z"/><path class="a" d="M217.08,532.44a5.38,5.38,0,1,0,2.74-7,5.5,5.5,0,0,0-2.74,7Z"/><path class="a" d="M132.46,568.18a5.24,5.24,0,1,0,3.026-6.565A5.24,5.24,0,0,0,132.46,568.18Z"/><path class="a" d="M435.64,165.35a5.39,5.39,0,1,0,3.083-6.792A5.39,5.39,0,0,0,435.64,165.35Z"/><path class="a" d="M98.14,135.46a5.25,5.25,0,1,0,2.74-6.9,5.249,5.249,0,0,0-2.74,6.9Z"/><path class="a" d="M89.09,114.08a5.23,5.23,0,1,0,3-6.546,5.23,5.23,0,0,0-3,6.546Z"/><path class="a" d="M443.4,405.58a5.3,5.3,0,0,0-2.54,7.09,5.51,5.51,0,0,0,7.19,2.46,5.38,5.38,0,0,0,2.46-7.16,5.13,5.13,0,0,0-7.11-2.39Z"/><path class="a" d="M163.32,450.08a5.42,5.42,0,0,0-3.22,6.79,5.5,5.5,0,0,0,7.36,3.09,5.32,5.32,0,0,0,2.73-7,5.19,5.19,0,0,0-6.87-2.88Z"/><path class="a" d="M472.83,180.67a5.63,5.63,0,0,0,3.17-7,5.56,5.56,0,0,0-6.93-3.19,5.42,5.42,0,0,0-3.13,6.91A5.52,5.52,0,0,0,472.83,180.67Z"/><path class="a" d="M215.44,104.61a5.17,5.17,0,0,0-2.39,7.11,5.3,5.3,0,0,0,9.5-4.67,5.17,5.17,0,0,0-7.11-2.44Z"/><path class="a" d="M331.43,141.23a5.32,5.32,0,0,0,2.6-7.07,5.1,5.1,0,0,0-7-2.56,5.29,5.29,0,0,0-2.69,7A5.49,5.49,0,0,0,331.43,141.23Z"/><path class="a" d="M114.39,525.89a5.311,5.311,0,1,0,3.21-6.79,5.311,5.311,0,0,0-3.21,6.79Z"/><path class="a" d="M113.61,159.22a5.33,5.33,0,0,0,3.09-6.84,5.08,5.08,0,0,0-6.27-3,5.14,5.14,0,0,0-3.55,6.56,5.33,5.33,0,0,0,6.73,3.28Z"/><path class="a" d="M550.25,420.93a5.109,5.109,0,1,0-6.61-2.3,5.15,5.15,0,0,0,6.61,2.3Z"/><path class="a" d="M104,77.59a4.91,4.91,0,0,0-2.38,6.49,5.14,5.14,0,0,0,6.93,2.62A5.48,5.48,0,0,0,111,80.09a5.19,5.19,0,0,0-7-2.5Z"/><path class="a" d="M126.82,495.77a4.94,4.94,0,0,0,6.82,2.87,5.29,5.29,0,0,0,3.05-6.35,5.59,5.59,0,0,0-6.79-3.37,5.3,5.3,0,0,0-3.08,6.85Z"/><path class="a" d="M182.87,99.13a4.84,4.84,0,0,0,6.18,3.09,5.22,5.22,0,0,0,3.46-6.63,5.55,5.55,0,0,0-7-2.93,5.17,5.17,0,0,0-2.64,6.47Z"/><path class="a" d="M576.57,379.41a5.32,5.32,0,0,0,7.13,2.37,5,5,0,0,0,2.49-6.51,5.35,5.35,0,0,0-6.91-2.95A5.6,5.6,0,0,0,576.57,379.41Z"/><path class="a" d="M405.84,153.69a5.09,5.09,0,0,0,6.41,2.66,4.83,4.83,0,0,0,3-6.69,5.19,5.19,0,0,0-6.37-2.86A5.52,5.52,0,0,0,405.84,153.69Z"/><path class="a" d="M185.32,222.42a5.21,5.21,0,1,0,2.732-6.712,5.21,5.21,0,0,0-2.732,6.712Z"/><path class="a" d="M80.28,93a5.29,5.29,0,0,0,6.38,3,5.36,5.36,0,0,0,3.16-6.29A5.05,5.05,0,1,0,80.28,93Z"/><path class="a" d="M146.57,189.62A4.83,4.83,0,0,0,153,192a5,5,0,0,0,2.73-6.35,5.31,5.31,0,0,0-7-2.59,5,5,0,0,0-2.16,6.56Z"/><path class="a" d="M109.36,558.77a5,5,0,0,0,2.57-6.47,4.867,4.867,0,0,0-9,3.71A5,5,0,0,0,109.36,558.77Z"/><path class="a" d="M153.09,87.28a5.07,5.07,0,0,0,6.49,2.4,4.8,4.8,0,0,0,2.47-6.85,4.75,4.75,0,0,0-6.54-2,5,5,0,0,0-2.42,6.45Z"/><path class="a" d="M522.43,427.05a4.87,4.87,0,1,0,2.78-6.37A5.21,5.21,0,0,0,522.43,427.05Z"/><path class="a" d="M272.09,484.32a4.779,4.779,0,1,0,8.771-3.8,4.83,4.83,0,0,0-6.341-2.66A4.91,4.91,0,0,0,272.09,484.32Z"/><path class="a" d="M238.79,523a4.73,4.73,0,1,0,8.54-4,4.56,4.56,0,0,0-5.92-2.23,4.63,4.63,0,0,0-2.62,6.23Z"/><path class="a" d="M118.45,579.45a4.5,4.5,0,0,0,2.31-5.9,4.65,4.65,0,1,0-8.36,4.05,4.46,4.46,0,0,0,6.05,1.85Z"/><path class="a" d="M71.44,116.8a4.58,4.58,0,0,0-2.66,6.28,4.67,4.67,0,0,0,8.74-3.22,4.57,4.57,0,0,0-6.08-3.06Z"/><path class="a" d="M565,409.11a5,5,0,0,0,6.44,2.52,4.84,4.84,0,1,0-6.44-2.52Z"/><path class="a" d="M589,348.76a4.9,4.9,0,0,0,6.44,2.63,4.75,4.75,0,0,0-3.35-8.89,4.93,4.93,0,0,0-3.09,6.26Z"/><path class="a" d="M169.4,582.49a4.69,4.69,0,1,0-6.02-2.4,4.69,4.69,0,0,0,6.02,2.4Z"/><path class="a" d="M538.22,216.48a4.59,4.59,0,1,0,3.42,8.52,4.64,4.64,0,0,0,2.77-5.7,4.72,4.72,0,0,0-6.19-2.82Z"/><path class="a" d="M502.88,192.09a4.83,4.83,0,0,0,2.14-6.55,4.64,4.64,0,0,0-6.1-1.9,4.47,4.47,0,0,0-2.11,6.46A4.64,4.64,0,0,0,502.88,192.09Z"/><path class="a" d="M184.4,570.8a4.61,4.61,0,1,0,2.51-5.94,4.72,4.72,0,0,0-2.51,5.94Z"/><path class="a" d="M420.24,421.39a4.73,4.73,0,1,0,.3-4.88,4.722,4.722,0,0,0-.3,4.88Z"/><path class="a" d="M100.26,537.38a4.83,4.83,0,0,0,2.52-6,4.61,4.61,0,1,0-8.521,3.52A4.85,4.85,0,0,0,100.26,537.38Z"/><path class="a" d="M129.5,77.34a4.65,4.65,0,1,0-3.689.172,4.69,4.69,0,0,0,3.689-.172Z"/><path class="a" d="M77.75,144a4.61,4.61,0,1,0,2.54-5.788A4.61,4.61,0,0,0,77.75,144Z"/><path class="a" d="M62.5,95.73a4.72,4.72,0,0,0-2.7,5.81,4.511,4.511,0,1,0,8.49-3.05A4.74,4.74,0,0,0,62.5,95.73Z"/><path class="a" d="M294.92,126.23a4.524,4.524,0,1,0,2.52-5.88A4.524,4.524,0,0,0,294.92,126.23Z"/><path class="a" d="M180.53,80.24a4.32,4.32,0,0,0,1.93-6,4.49,4.49,0,0,0-5.5-2.09,4.73,4.73,0,0,0-2.45,5.93,4.65,4.65,0,0,0,6.02,2.16Z"/><path class="a" d="M99.19,65.43a4.62,4.62,0,0,0,2.23-6,4.29,4.29,0,0,0-5.87-2.25,4.68,4.68,0,0,0-2.37,5.91A4.88,4.88,0,0,0,99.19,65.43Z"/><path class="a" d="M77.89,74.5a4.73,4.73,0,0,0,2.43-5.94A4.53,4.53,0,0,0,72,72.07,4.73,4.73,0,0,0,77.89,74.5Z"/><path class="a" d="M148.57,591.11a4.7,4.7,0,0,0,2.06-6,4.57,4.57,0,0,0-6-1.92,4.25,4.25,0,0,0-2,5.92,4.44,4.44,0,0,0,5.94,2Z"/><path class="a" d="M112.45,507a4.54,4.54,0,0,0,1.78-6.13,4.4,4.4,0,0,0-7.82,4,4.64,4.64,0,0,0,6.04,2.13Z"/><path class="a" d="M471.7,423.66a4.41,4.41,0,1,0,2.434-5.6A4.41,4.41,0,0,0,471.7,423.66Z"/><path class="a" d="M376.36,141.28a4.59,4.59,0,0,0,5.43,2.35,4.52,4.52,0,0,0,2.59-5.82,4.69,4.69,0,0,0-5.44-2.38,4.61,4.61,0,0,0-2.58,5.85Z"/><path class="a" d="M195.13,243.3a4.36,4.36,0,1,0,2.65-5.75,4.47,4.47,0,0,0-2.65,5.75Z"/><path class="a" d="M205,90.33a4.59,4.59,0,0,0,5.51,2,4.51,4.51,0,0,0,2.19-5.93,4.313,4.313,0,0,0-7.7,3.89Z"/><path class="a" d="M208.55,556.13a4.264,4.264,0,0,0,2.54,8.14,4.37,4.37,0,0,0,3.07-5.46,4.3,4.3,0,0,0-5.61-2.68Z"/><path class="a" d="M144.77,65.8a4.12,4.12,0,0,0,5.83,2,4.37,4.37,0,0,0,2.23-5.33A4.61,4.61,0,0,0,147.05,60a4.47,4.47,0,0,0-2.28,5.8Z"/><path class="a" d="M84.69,559.34a4.15,4.15,0,1,0,5.37,2.15,4.15,4.15,0,0,0-5.37-2.15Z"/><path class="a" d="M117.24,177.58a4.2,4.2,0,0,0,7.18-4.37,4.2,4.2,0,1,0-7.18,4.37Z"/><path class="a" d="M399.72,430.14a4.29,4.29,0,0,0,7.66-3.86,4.41,4.41,0,0,0-5.5-2.1,4.34,4.34,0,0,0-2.16,5.96Z"/><path class="a" d="M142.36,460.2a4.47,4.47,0,0,0-2.37,5.4,4.3,4.3,0,1,0,7.911-3.37,4.46,4.46,0,0,0-5.541-2.03Z"/><path class="a" d="M378.55,439a4.12,4.12,0,1,0,2.11-5.317A4.12,4.12,0,0,0,378.55,439Z"/><path class="a" d="M121.51,597.89a4.181,4.181,0,1,0,2.04-5.55,4.17,4.17,0,0,0-2.04,5.55Z"/><path class="a" d="M91.42,585.62a4.21,4.21,0,0,0,5.12,2.6,4.37,4.37,0,0,0,2.54-5.2,4.21,4.21,0,0,0-5.17-2.55A4.14,4.14,0,0,0,91.42,585.62Z"/><path class="a" d="M117.2,48.36a4.34,4.34,0,0,0-2.47,5.24,4.111,4.111,0,0,0,7.73-2.8A4.37,4.37,0,0,0,117.2,48.36Z"/><path class="a" d="M270.37,116.25a4.34,4.34,0,0,0,2.34-5.29,4.21,4.21,0,0,0-5.27-2.33,4.14,4.14,0,0,0-2.3,5.24,4.21,4.21,0,0,0,5.23,2.38Z"/><path class="a" d="M87.29,164.64a4.06,4.06,0,0,0,5.38,2.05,4.11,4.11,0,0,0,1.86-5,3.83,3.83,0,0,0-5.34-2A3.88,3.88,0,0,0,87.29,164.64Z"/><path class="a" d="M341.56,458.92a4,4,0,0,0,2.2-5.25,3.75,3.75,0,0,0-4.69-2.2,3.87,3.87,0,0,0-2.66,5,4,4,0,0,0,5.15,2.45Z"/><path class="a" d="M294,474.57a3.91,3.91,0,1,0,7.38-2.58,3.81,3.81,0,0,0-4.63-2.42,3.86,3.86,0,0,0-2.75,5Z"/><path class="a" d="M357.23,447.93a4.183,4.183,0,1,0,2.215-5.485,4.183,4.183,0,0,0-2.215,5.485Z"/><path class="a" d="M504.44,430.67a3.77,3.77,0,0,0-2,4.82,3.69,3.69,0,0,0,5.2,2.17,3.93,3.93,0,0,0,2.08-4.82,4.07,4.07,0,0,0-5.28-2.17Z"/><path class="a" d="M237.14,96.73a4,4,0,0,0-1.73,5.48,4.19,4.19,0,0,0,5.64,1.45,4.06,4.06,0,0,0,1.5-5.1,3.83,3.83,0,0,0-5.41-1.83Z"/><path class="a" d="M53.37,75.67a4.08,4.08,0,0,0-1.5,5.57,3.91,3.91,0,0,0,6.9-3.57,4.09,4.09,0,0,0-5.4-2Z"/><path class="a" d="M78.45,545.68a4,4,0,0,0,2.38-5.19A4.1,4.1,0,0,0,76,538.36a3.76,3.76,0,0,0-2.27,5.17,3.68,3.68,0,0,0,4.72,2.15Z"/><path class="a" d="M591.91,401.81a3.65,3.65,0,0,0,2-4.72,3.78,3.78,0,0,0-5.13-2.27,4.06,4.06,0,0,0-2.12,4.79,4,4,0,0,0,5.25,2.2Z"/><path class="a" d="M232.27,554.75a3.82,3.82,0,0,0-3.06-7,3.76,3.76,0,0,0-1.74,4.94,3.65,3.65,0,0,0,4.8,2.06Z"/><path class="a" d="M171,58.63a4.05,4.05,0,0,0,2.19-4.72A3.8,3.8,0,0,0,168,51.84a3.56,3.56,0,0,0-1.73,4.78A3.84,3.84,0,0,0,171,58.63Z"/><path class="a" d="M554,439a3.59,3.59,0,0,0,6.51-3,3.66,3.66,0,0,0-4.79-1.85A3.7,3.7,0,0,0,554,439Z"/><path class="a" d="M315.46,465.76a4.07,4.07,0,0,0,4.82,2,3.85,3.85,0,0,0,1.86-5.27,3.58,3.58,0,0,0-4.88-1.5,3.8,3.8,0,0,0-1.8,4.77Z"/><path class="a" d="M86.79,36.79A3.59,3.59,0,0,0,85,41.6a3.69,3.69,0,0,0,4.75,2,4,4,0,0,0,2.06-5.31A3.87,3.87,0,0,0,86.79,36.79Z"/><path class="a" d="M260.85,513.4a3.64,3.64,0,0,0,4.81,2,3.49,3.49,0,0,0,2.1-4.72,3.81,3.81,0,0,0-4.79-2.13,4,4,0,0,0-2.12,4.85Z"/><path class="a" d="M156.64,210a3.64,3.64,0,0,0,4.62,2.22,3.76,3.76,0,1,0-2.72-7A3.68,3.68,0,0,0,156.64,210Z"/><path class="a" d="M105.42,608.49a3.7,3.7,0,0,0,1.85-4.81,3.79,3.79,0,0,0-4.28-1.94,3.71,3.71,0,0,0-2.25,4.62,3.59,3.59,0,0,0,4.68,2.13Z"/><path class="a" d="M138.71,39.83a3.55,3.55,0,1,0,3.573.769,3.55,3.55,0,0,0-3.573-.769Z"/><path class="a" d="M91.08,515.11a3.51,3.51,0,0,0,1.61-4.87,3.62,3.62,0,1,0-6.48,3.23,3.52,3.52,0,0,0,4.87,1.64Z"/><path class="a" d="M177.9,602.57a3.523,3.523,0,1,0-4.72-1.94,3.6,3.6,0,0,0,4.72,1.94Z"/><path class="a" d="M601.38,365a3.46,3.46,0,1,0,4.57,1.75,3.47,3.47,0,0,0-4.57-1.75Z"/><path class="a" d="M205,264a3.42,3.42,0,1,0,2-4.65,3.55,3.55,0,0,0-2,4.65Z"/><path class="a" d="M63.79,50.49a3.6,3.6,0,0,0,4.76,1.74A3.4,3.4,0,1,0,66,45.92a3.6,3.6,0,0,0-2.21,4.57Z"/><path class="a" d="M48.52,131.66a3.48,3.48,0,1,0-.025-2.807,3.49,3.49,0,0,0,.025,2.807Z"/><path class="a" d="M584.78,276.11a3.39,3.39,0,0,0,4.72,1.73,3.25,3.25,0,0,0,1.71-4.22,3.39,3.39,0,0,0-4.12-2,3.44,3.44,0,0,0-2.31,4.49Z"/><path class="a" d="M154.28,605a3.51,3.51,0,0,0-1.8,4.77,3.37,3.37,0,0,0,4.31,1.64,3.55,3.55,0,0,0,2.08-4.15,3.6,3.6,0,0,0-4.59-2.26Z"/><path class="a" d="M529.64,196.76a3.76,3.76,0,0,0-1.63,4.92,3.89,3.89,0,0,0,4.52,1.43,3.77,3.77,0,0,0,1.62-4.93,3.9,3.9,0,0,0-4.51-1.42Z"/><path class="a" d="M44.3,112.12a3.33,3.33,0,0,0,1.7-4.28,3.49,3.49,0,0,0-4.72-1.9,3.62,3.62,0,0,0-1.45,4.92,3.58,3.58,0,0,0,4.47,1.26Z"/><path class="a" d="M121.46,469.9a3.64,3.64,0,0,0-1.94,4.29,3.4,3.4,0,0,0,4.76,1.86,3.24,3.24,0,0,0,1.5-4.36,3.48,3.48,0,0,0-4.32-1.79Z"/><path class="a" d="M131.44,618.75a3.13,3.13,0,0,0,4.33,1.29,3.09,3.09,0,0,0,1.35-4.3,3.4,3.4,0,0,0-4.37-1.39,3.33,3.33,0,0,0-1.31,4.4Z"/><path class="a" d="M593.76,297.15a3.47,3.47,0,0,0,4.64,2,3.4,3.4,0,0,0,1.84-4.21,3.31,3.31,0,0,0-4-2.18,3.43,3.43,0,0,0-2.48,4.39Z"/><path class="a" d="M198.65,593.29a3.12,3.12,0,0,0,2.1-4,3.3,3.3,0,0,0-4.07-2.12,3.37,3.37,0,0,0-2.05,4.08,3.08,3.08,0,0,0,4.02,2.04Z"/><path class="a" d="M201,70.42a3.26,3.26,0,0,0,2.2-4,3.407,3.407,0,1,0-2.2,4Z"/><path class="a" d="M68.07,570.87A3.67,3.67,0,0,0,63.8,569a3.53,3.53,0,0,0-1.8,4.79,3.37,3.37,0,0,0,4.38,1.32A3.3,3.3,0,0,0,68.07,570.87Z"/><path class="a" d="M70.91,594.56a2.527,2.527,0,1,0-.02,0Z"/><path class="a" d="M455.57,434.15a3.45,3.45,0,0,0,2-4.14,3.26,3.26,0,0,0-4.21-1.71,3,3,0,0,0-1.77,3.62,3.16,3.16,0,0,0,3.98,2.23Z"/><path class="a" d="M347.59,128.86a3.2,3.2,0,0,0,4.39,1.2,3.16,3.16,0,0,0,1.29-4.33,3.44,3.44,0,0,0-4.43-1.33,3.49,3.49,0,0,0-1.25,4.46Z"/><path class="a" d="M57.72,152.46a3.51,3.51,0,0,0,4.14,2,3.27,3.27,0,0,0,1.92-4.1,3,3,0,0,0-4-1.92,3.24,3.24,0,0,0-2.06,4.02Z"/><path class="a" d="M47.1,60.78a2.88,2.88,0,1,0-1.8-5.47A3.17,3.17,0,0,0,43.46,59a3.13,3.13,0,0,0,3.64,1.78Z"/><path class="a" d="M112.7,29.92a3.3,3.3,0,1,0-1.81,4.18,3.25,3.25,0,0,0,1.81-4.18Z"/><path class="a" d="M459.09,155.9a3.13,3.13,0,0,0,4.37,1.15,2.88,2.88,0,0,0,1.31-3.78,3.31,3.31,0,0,0-4.19-1.73,3.46,3.46,0,0,0-1.49,4.36Z"/><path class="a" d="M533.19,447.58a2.86,2.86,0,0,0,3.62,1.68,3.06,3.06,0,0,0,2-4,3.25,3.25,0,0,0-4.3-1.48,3.11,3.11,0,0,0-1.32,3.8Z"/><path class="a" d="M575.41,429.41a3.19,3.19,0,0,0,4.15,1.79,2.92,2.92,0,0,0,1.87-3.55,3.18,3.18,0,0,0-3.89-2.32,3.44,3.44,0,0,0-2.13,4.08Z"/><path class="a" d="M603.16,318.36a3.05,3.05,0,0,0,4.27,1.35,2.92,2.92,0,0,0-2.28-5.35,3.06,3.06,0,0,0-1.99,4Z"/><path class="a" d="M231,82.25a3.27,3.27,0,0,0,1.89-4.14,3.16,3.16,0,0,0-3.71-1.59,2.94,2.94,0,0,0-1.85,4A3.2,3.2,0,0,0,231,82.25Z"/><path class="a" d="M580.33,256.89a3.11,3.11,0,0,0,1.75-3.71,2.93,2.93,0,0,0-4.09-2,3.062,3.062,0,0,0,2.34,5.66Z"/><path class="a" d="M429.16,143.52a3,3,0,0,0,3.61,1.86,2.91,2.91,0,0,0,1.72-3.66,2.84,2.84,0,0,0-3.59-1.83,2.81,2.81,0,0,0-1.74,3.63Z"/><path class="a" d="M159.67,31.57A3,3,0,0,0,158,35.24a2.933,2.933,0,1,0,1.67-3.67Z"/><path class="a" d="M69.56,523.54a3.11,3.11,0,0,0,1.36-3.81,2.92,2.92,0,0,0-3.71-1.56,3,3,0,0,0-1.54,4.18,3.14,3.14,0,0,0,3.89,1.19Z"/><path class="a" d="M32.78,85.6A2.842,2.842,0,1,0,36.545,87,2.842,2.842,0,0,0,32.78,85.6Z"/><path class="a" d="M489.37,168a2.82,2.82,0,1,0,1.1-3.86,3,3,0,0,0-1.1,3.86Z"/><path class="a" d="M102.66,484.63a2.7,2.7,0,1,0-2.5-4.78A2.58,2.58,0,0,0,99,483.12a2.67,2.67,0,0,0,3.66,1.51Z"/><path class="a" d="M53.32,552a2.81,2.81,0,1,0,1.8-3.52,2.72,2.72,0,0,0-1.8,3.52Z"/><path class="a" d="M131,199.05a2.8,2.8,0,1,0-3.67-1.38A2.8,2.8,0,0,0,131,199.05Z"/><path class="a" d="M128.44,23.34a2.91,2.91,0,0,0,3.92,1,2.91,2.91,0,0,0,.78-3.47,2.7,2.7,0,0,0-3.29-1.26,2.83,2.83,0,0,0-1.41,3.73Z"/><path class="a" d="M250.91,539.74a2.83,2.83,0,0,0-1.36,3.71,2.86,2.86,0,1,0,1.36-3.71Z"/><path class="a" d="M80.29,615.12a2.58,2.58,0,0,0,3.6,1.52,2.63,2.63,0,0,0,1.61-3.09,2.75,2.75,0,0,0-3.45-1.94,2.64,2.64,0,0,0-1.76,3.51Z"/><path class="a" d="M114,628.94a2.79,2.79,0,0,0,1.69-3.55,2.7,2.7,0,0,0-3.55-1.63,2.73,2.73,0,0,0-1.7,3.52,2.79,2.79,0,0,0,3.56,1.66Z"/><path class="a" d="M188.21,47.11A2.84,2.84,0,1,0,190,43.55,2.91,2.91,0,0,0,188.21,47.11Z"/><path class="a" d="M216.38,582.27a2.74,2.74,0,0,0,3.62,1.51,2.64,2.64,0,0,0,1.31-3.67,2.59,2.59,0,0,0-3.15-1.32,2.67,2.67,0,0,0-1.78,3.48Z"/><path class="a" d="M347.38,474.11a8.66,8.66,0,0,0-.48,3c.19,1.23,1.91,1.63,3.16,1a2.28,2.28,0,0,0,1.1-3.19,2.74,2.74,0,0,0-3.78-.81Z"/><path class="a" d="M258.1,92.89a7.43,7.43,0,0,0,2.88.48c1.16-.23,1.64-2.12,1.11-3.17a2.48,2.48,0,0,0-3.24-1C257.63,89.74,257.17,91.16,258.1,92.89Z"/><path class="a" d="M180,423.68l-5,2.7c.6,2.43,2.11,2.45,3.54,1.85C180.32,427.48,181.05,426.07,180,423.68Z"/><path class="a" d="M67.6,173.12a2.39,2.39,0,0,0,3.17,1.1,2.45,2.45,0,0,0,.89-3.28,2.27,2.27,0,0,0-2.77-.88,2.19,2.19,0,0,0-1.29,3.06Z"/><path class="a" d="M100.74,186.79a2.6,2.6,0,1,0-1.67-4.93,2.83,2.83,0,0,0-1.71,3,2.77,2.77,0,0,0,3.38,1.93Z"/><path class="a" d="M569.89,230.41a2.59,2.59,0,0,0-1.94,3.24,2.17,2.17,0,0,0,3,1.41c1.33-.52,2.19-2,1.44-2.94a8.859,8.859,0,0,0-2.5-1.71Z"/><path class="a" d="M325.27,485.31a2.52,2.52,0,0,0,3.25,1.93,2.2,2.2,0,0,0,1.46-3c-.52-1.25-2.07-2.15-3-1.44a8.421,8.421,0,0,0-1.71,2.51Z"/><path class="a" d="M282.89,503.28c.6,1.92,1.89,2.55,3.17,2a2.46,2.46,0,0,0,1.57-3c-.41-1.14-2-2.08-3.06-1.41C283.71,501.45,283.29,502.68,282.89,503.28Z"/><path class="a" d="M317.85,115.75a2.52,2.52,0,0,0,3.25,1.93,2.19,2.19,0,0,0,1.45-3c-.53-1.26-2.06-2.15-3-1.44a8.31,8.31,0,0,0-1.7,2.51Z"/><path class="a" d="M487.24,443.15A2.64,2.64,0,0,0,484,441c-1.18.39-2,2.12-1.29,3.1.55.71,1.94,1.55,2.51,1.31C486.17,445,486.73,443.78,487.24,443.15Z"/><path class="a" d="M609,390.34c1.51.39,2.5,1,3.34.79,1.19-.23,1.49-1.42,1.21-2.55-.23-.95-1.82-1.71-2.6-1.11S609.86,389,609,390.34Z"/><path class="a" d="M90,636.7a7.1,7.1,0,0,0,2.41.65c1.2-.07,2.15-2,1.4-2.88a3.69,3.69,0,0,0-2.55-1.17C90,633.31,89.29,635,90,636.7Z"/><path class="a" d="M308.07,496.49c.13-1.46.47-2.45.25-3.28-.34-1.24-1.54-1.36-2.6-1a2,2,0,0,0-.83,3.14C305.53,495.9,306.61,496,308.07,496.49Z"/><path class="a" d="M600.48,421.94c.39-1.41.94-2.35.82-3.19a2,2,0,0,0-3-1.1,1.8,1.8,0,0,0-.68,2.68C598.13,421,599.19,421.26,600.48,421.94Z"/><path class="a" d="M41.57,582.29c1.47.38,2.43.9,3.32.78,1.08-.14,1.58-2.3.83-3.22s-1.84-1.36-2.76-.53C42.33,579.91,42.15,581,41.57,582.29Z"/><path class="a" d="M79.9,488.21c-.63,1.43-1.29,2.28-1.33,3.16a2.221,2.221,0,0,0,2.88,1.65c.96-.58,1.66-1.58,1-2.66C82,489.61,81.07,489.15,79.9,488.21Z"/><path class="a" d="M98,10.75c1.42.47,2.35,1.1,3.16,1a1.7,1.7,0,0,0,1.24-2.41A1.76,1.76,0,0,0,100,8C99.28,8.39,98.91,9.49,98,10.75Z"/><path class="a" d="M169.05,231.72c1.78-.64,2.58-2.19,1.94-3.22a2.21,2.21,0,0,0-2.72-1.06c-1.34.43-2.14,1.92-1.34,3a6,6,0,0,0,2.12,1.28Z"/><path class="a" d="M162.12,630.86c1.48.14,2.49.49,3.34.25a1.81,1.81,0,0,0,1.06-2.57,2,2,0,0,0-3.15-.81C162.78,628.36,162.66,629.44,162.12,630.86Z"/><path class="a" d="M20.79,115.41a13.53,13.53,0,0,0-1.1,3.18c-.05,1,1.33,1.65,2.38,1.34s1.94-1.64,1.4-2.39a13.82,13.82,0,0,0-2.68-2.13Z"/><path class="a" d="M431.92,437.75c-.16,1.5-.62,2.59-.29,3.34.47,1.06,1.69,1.1,2.78.65a1.67,1.67,0,0,0,.64-2.64C434.4,438.5,433.35,438.33,431.92,437.75Z"/><path class="a" d="M617.42,336.89c-1.4-.36-2.37-.9-3.22-.76a1.9,1.9,0,0,0-1.16,3,1.76,1.76,0,0,0,2.69.63C616.42,339.19,616.71,338.14,617.42,336.89Z"/><path class="a" d="M76.81,20.11c1.53.28,2.52.77,3.31.54a1.67,1.67,0,0,0,.95-2.54c-.52-1.07-1.57-1.61-2.55-.94C77.83,17.64,77.57,18.74,76.81,20.11Z"/><path class="a" d="M149.79,13.74a2.16,2.16,0,0,0,3.11.91,1.71,1.71,0,0,0,.21-2.72c-.55-.42-1.8-.71-2.18-.39a5.81,5.81,0,0,0-1.14,2.2Z"/><path class="a" d="M219.45,59.27a6.31,6.31,0,0,0,2.37.61,1.77,1.77,0,0,0,1-2.55,3.29,3.29,0,0,0-2.15-.92C219.61,56.4,219,57.67,219.45,59.27Z"/><path class="a" d="M141.9,640.19a6.55,6.55,0,0,0,2.66-.34,1.68,1.68,0,0,0,.23-2.75,1.85,1.85,0,0,0-2.82-.2C141,637.74,141.12,638.74,141.9,640.19Z"/><path class="a" d="M184.36,622.18a7.159,7.159,0,0,0,2.46-.44c.86-.44.72-2.25-.23-2.72a2.91,2.91,0,0,0-2.28,0C183.28,619.59,183.21,621,184.36,622.18Z"/><path class="a" d="M371.28,469.62c.14-1.61.46-2.61.23-3.46a1.61,1.61,0,0,0-2.65-.44c-.47.53-.9,1.77-.61,2.15C368.77,468.56,369.83,468.84,371.28,469.62Z"/><path class="a" d="M50.35,603.06c1.49.51,2.42,1.15,3.26,1A1.71,1.71,0,0,0,55,601.67a1.74,1.74,0,0,0-2.48-1.28C51.71,600.77,51.29,601.82,50.35,603.06Z"/><path class="a" d="M204.77,612.73c1.23.09,2.2.47,2.67.13a2.56,2.56,0,0,0,.79-2.1c-.13-1-2-1.37-2.56-.6a9.839,9.839,0,0,0-.9,2.57Z"/><path class="a" d="M287.51,104.32c1.58.38,2.55.89,3.38.72.49-.1,1-1.3,1-2a1.62,1.62,0,0,0-2.29-1.44C288.9,102,288.48,103,287.51,104.32Z"/><path class="a" d="M241,573.87a5.08,5.08,0,0,0,.45-2.28,2.234,2.234,0,0,0-1.93-1c-1.19.11-1.6,1.13-1.44,2.29C238.17,573.83,239.42,574.42,241,573.87Z"/><path class="a" d="M513.05,455.75c.64,1.38,2,1.82,2.89,1.07a2.67,2.67,0,0,0,.76-2.1c-.15-1.06-1.79-1.82-2.44-1.19a7.442,7.442,0,0,0-1.21,2.22Z"/><path class="a" d="M29.86,136.65c-.56,1.38-1.25,2.29-1.17,3.11.11,1.18,1.24,1.62,2.37,1.32a1.75,1.75,0,0,0,1.4-2.37C32.13,138,31.06,137.56,29.86,136.65Z"/><path class="a" d="M60,623c.33,1.48,2,2.39,2.65,1.8a2.73,2.73,0,0,0,1-2.12,2.18,2.18,0,0,0-1.78-1.25C61,621.68,60.44,622.59,60,623Z"/><path class="a" d="M120.19,648c.87,1.34,2.42,1.61,3,.75a2.4,2.4,0,0,0,.2-2.18c-.33-.51-1.72-1-2-.71a6.071,6.071,0,0,0-1.2,2.14Z"/><path class="a" d="M23.11,67.62c.86,1.33,2.41,1.6,3,.74a2.4,2.4,0,0,0,.19-2.18c-.33-.51-1.72-1-2-.71A6.13,6.13,0,0,0,23.11,67.62Z"/><path class="a" d="M44.58,531.33c1.45.29,2.43.76,3.28.59a1.72,1.72,0,0,0,1.13-2.5,1.75,1.75,0,0,0-2.6-.92C45.68,529,45.36,530.05,44.58,531.33Z"/><path class="a" d="M179.34,25.83c1.41.49,2.36,1.15,3.17,1a1.79,1.79,0,0,0,1.23-2.45,1.78,1.78,0,0,0-2.45-1.27C180.57,23.44,180.2,24.56,179.34,25.83Z"/><path class="a" d="M68.59,645c1.47.34,2.38.84,2.84.57s.69-1.29.74-2a1.92,1.92,0,0,0-1.5-.6C70.06,643.21,69.63,643.92,68.59,645Z"/><path class="a" d="M32.87,561.22c1.46.07,2.44.4,2.91,0s.5-1.39.72-2.13c-.74-.17-1.62-.66-2.2-.42S33.56,559.94,32.87,561.22Z"/><path class="a" d="M37.42,160.66c1.15.63,1.88,1.35,2.41,1.22a2,2,0,0,0,1.08-1.73,2.07,2.07,0,0,0-1.61-1.23C38.78,158.94,38.28,159.82,37.42,160.66Z"/><path class="a" d="M11.28,98.4c1.1,0,2.1.09,2.15-.08a4.06,4.06,0,0,0,.07-2.13c0-.17-1.37-.34-1.56-.09a7.08,7.08,0,0,0-.66,2.3Z"/><path class="a" d="M314.14,516c.83.14,1.56.48,1.91.25a1.6,1.6,0,0,0,.46-1.54,1.63,1.63,0,0,0-1.54-.47C314.58,514.4,314.47,515.2,314.14,516Z"/><path class="a" d="M99.7,653.71c.06,2.21-.11,3,.17,3.6a1.65,1.65,0,0,0,1.56.41c.93-.4,1-1.28.4-2.06a22.378,22.378,0,0,0-2.13-1.95Z"/><path class="a" d="M56.62,29.77c1.36-.42,2.19-.48,2.7-.91a1.73,1.73,0,0,0,0-1.61,7.11,7.11,0,0,0-2.21-.43C57,27.58,56.85,28.33,56.62,29.77Z"/><path class="a" d="M273.86,534.92a6.9,6.9,0,0,0,.62-2.3c0-.29-1-.74-1.43-.67a1.179,1.179,0,0,0-1,1.78C272.32,534.16,273,534.35,273.86,534.92Z"/><path class="a" d="M59,498.61l-1.06,1.62c.64.39,1.32,1.14,1.89,1.07a1.16,1.16,0,0,0,.77-1.89C60.32,499,59.62,498.9,59,498.61Z"/><path class="a" d="M137.17,218.18c1.11.33,1.68.71,2.15.6.86-.19,1.5-.86,1-1.78a1.68,1.68,0,0,0-1.45-.65C138.26,216.62,137.9,217.32,137.17,218.18Z"/><path class="a" d="M403.24,131.41c-.39-.35-.54-.59-.7-.61-.78-.08-1.56-.1-2.34-.15.05.53,0,1.48.17,1.51a8.2,8.2,0,0,0,2.27,0C402.77,132.18,402.88,131.9,403.24,131.41Z"/><path class="a" d="M172.34,650.39l1,.8a4.44,4.44,0,0,0,.79-1.25c0-.18-.52-.52-.8-.78Z"/><path class="a" d="M109.23,206.75l.93-1.59-1.92-.91c-.16.54-.55,1.14-.42,1.58S108.66,206.4,109.23,206.75Z"/><path class="a" d="M129.84,668.25l1,1,1.06-1.14c-.29-.26-.64-.77-.85-.71A4.12,4.12,0,0,0,129.84,668.25Z"/><path class="a" d="M109.29,677.91a8.729,8.729,0,0,0,1-.38s-.08-.34-.13-.52a8.184,8.184,0,0,0-1,.36S109.25,677.72,109.29,677.91Z"/><path class="a" d="M336,504.9c-.12.87-.42,1.56-.19,1.86a1.52,1.52,0,0,0,1.46.31,1.47,1.47,0,0,0,.33-1.4C337.42,505.33,336.72,505.23,336,504.9Z"/><path class="a" d="M47.3,181.25c.44.4.91.91,1,.86a4,4,0,0,0,1-1.09c0-.05-.57-.71-.72-.65A6.21,6.21,0,0,0,47.3,181.25Z"/><path class="a" d="M210.09,38.12c1.16,0,1.81.23,2.27,0a1.52,1.52,0,0,0,.7-1.27,1.41,1.41,0,0,0-1.23-.7C211.43,36.26,211.14,36.89,210.09,38.12Z"/><path class="a" d="M172.62,3.21c-.19.33-.6.89-.53,1a8.33,8.33,0,0,0,1.33.89,7.889,7.889,0,0,0,.26-1.58C173.68,3.39,173,3.3,172.62,3.21Z"/><path class="a" d="M35.77,37.36a5.3,5.3,0,0,0,1.67.76,1.16,1.16,0,0,0,.83-1.78,1.78,1.78,0,0,0-1.51-.47C36.36,36,36.16,36.74,35.77,37.36Z"/><path class="a" d="M120.06,1.32c.66.44,1.1.94,1.6,1,.75.12,1.44-1.08,1-1.72a1.66,1.66,0,0,0-1.39-.6C120.82.12,120.53.77,120.06,1.32Z"/><path class="a" d="M78,193.78l1,.31.3-1.47a2.173,2.173,0,0,0-1.16.13C77.86,192.95,78,193.42,78,193.78Z"/><path class="a" d="M227.19,602.91l1.1.24.15-1.43c-.36,0-.84-.05-1.06.15S227.24,602.55,227.19,602.91Z"/><path class="a" d="M32.55,610.82l-1-.26c-.08.47-.17.94-.25,1.41.36,0,.84.08,1-.11A3.05,3.05,0,0,0,32.55,610.82Z"/><path class="a" d="M250,69.31c.12.83.19,1.37.27,1.92a7.849,7.849,0,0,0,1.56-.32c.11,0,.12-.86-.05-1A8,8,0,0,0,250,69.31Z"/><path class="a" d="M88,214.94a2.152,2.152,0,0,1,.14-.54,7.113,7.113,0,0,0-1-.05,3.15,3.15,0,0,0-.08.53Z"/><path class="a" d="M0,126.78l.86.69c.08-.18.27-.46.21-.53a4.73,4.73,0,0,0-.75-.65Z"/><path class="a" d="M391.13,456.89a5.39,5.39,0,0,0-1.07.11c-.1,0-.14.34-.2.52a6.49,6.49,0,0,0,1.08-.1C391,457.39,391.07,457.08,391.13,456.89Z"/><path class="a" d="M565.23,457.36c.06.12.12.35.2.36a2,2,0,0,0,.58-.1l-.34-.64Z"/><path class="a" d="M40.15,632.41l.4.39.24-.84c-.17,0-.44-.15-.5-.09A2.06,2.06,0,0,0,40.15,632.41Z"/><path class="a" d="M294.43,524.88l.09-.56-.78-.07c.05.19,0,.44.16.56S294.25,524.86,294.43,524.88Z"/><path class="a" d="M151.57,659.81l1,.31c.1-.33.37-.88.27-1a4.119,4.119,0,0,0-1.21-.51C151.6,659,151.59,659.35,151.57,659.81Z"/><path class="a" d="M3.29,75.82l-.22.51a5.92,5.92,0,0,0,1,0c.1,0,.15-.32.22-.48Z"/><path class="a" d="M261.29,564.19c.17-.31.51-.65.45-.9s-.47-.49-.73-.73c-.21.27-.65.64-.58.8C260.56,563.69,261,563.91,261.29,564.19Z"/><path class="a" d="M49,653.26c.15.12.29.3.45.31s.27-.18.41-.28l-.69-.52A4.748,4.748,0,0,0,49,653.26Z"/><path class="a" d="M58,202a5.1,5.1,0,0,0-1,.09c-.1,0-.13.33-.19.5a5.8,5.8,0,0,0,1-.09C57.93,202.48,58,202.18,58,202Z"/><path class="a" d="M194,641.92c.16,0,.43,0,.46-.11a1.33,1.33,0,0,0,0-.56l-.75.16Z"/><path class="a" d="M239,326h.43l-.47-.51A2.071,2.071,0,0,1,239,326Z"/></g></svg>