<svg xmlns="http://www.w3.org/2000/svg" width="628.03" height="766" viewBox="0 0 628.03 766"><defs><style>.a{fill:#1a1a1a;}</style></defs><path class="a" d="M320.42,377.8a52.436,52.436,0,0,1,4.78-5.07,46.826,46.826,0,0,1,5.56-3.41,47.629,47.629,0,0,1-4.33-2.83,12.26,12.26,0,0,1-4.24-13A13.21,13.21,0,0,1,334,344.27c4.74-.17,9.93,3.49,11.74,8.29a12.18,12.18,0,0,1-3.72,13.75,50.219,50.219,0,0,1-5.42,3.32c11.94,5.73,13.05,19.61-.42,26.09,11.88,8.14,11.84,16.81-.58,25.85,1.18.88,2.25,1.65,3.28,2.46,6.28,4.94,5.74,13.94,1,18.6s-14.19,4.67-18.6-1.42c-.71-1-1.35-2-2.29-3.42-.86.85-1.64,1.63-2.43,2.38-1.9,1.82-3.82,3.63-6,5.66l7.44,9c1.67.17,1.48-1.94,2.56-2.7,1.75-1.24,3.35-2.72,5.19-3.81,3.18-1.89,6.34-1.59,9.59.25,4.66,2.64,7.14,6.42,6.87,11.79A11.94,11.94,0,0,1,333.84,471c-4.73,1.58-9.54.16-13-4-1-1.24-1.84-2.67-3-4.37a53.207,53.207,0,0,1-4.17,5.17,41.911,41.911,0,0,1-4.68,3.53l8.48,10.44c1.11.09.77-1.64,1.46-2.41s1.12-1.58,1.78-2.28a11.8,11.8,0,1,1-.18,16c-1.37-1.62-2.23-3.68-3.53-5.89-1.36,1.95-2.46,4.08-4.06,5.71a49.123,49.123,0,0,1-5.89,4.42c.16,1.67,1.93,1.69,2.87,2.49,7.24,6.14,6.94,15.44-.81,20.87-1,.68-2.09,1.17-3.11,1.74-.44,2.14,1.52,2.2,2.53,3a12,12,0,0,1,5.05,10.66,11.73,11.73,0,0,1-8.23,10.82c-4.87,1.68-9.1.38-12.57-3.19-1.46-1.51-2.4-3.51-3.58-5.28-4.9,6.28-4.9,6.28-11.08,9.06a41.6,41.6,0,0,1,4.73,3.11c3.71,3.23,5.75,7.29,4.43,12.26-1.43,5.4-5.12,8.66-10.66,9.62-4.54.79-9.55-1.92-12.17-6.26-4.09-6.75-.88-12.46,3.54-16a45.5,45.5,0,0,1,5.37-3.11c-4.94-1.65-7.86-5-10.26-9.61-2.41,4.49-5.49,7.44-10.08,8.82a57.348,57.348,0,0,1,5.42,4.23A12,12,0,0,1,261,564c-2.11,4.71-7.26,8.15-12,8s-9.7-4-11.43-8.79A12,12,0,0,1,241,550a49.2,49.2,0,0,1,5.39-3.62c-5.84-4-5.84-4-9.45-10.6a40.721,40.721,0,0,1-3.38,4.74c-3.43,3.61-7.65,5.1-12.51,3.46s-7.68-4.9-8.27-10A11.82,11.82,0,0,1,219,521.8c5.43-3,11.39-1.72,15.24,3.39A43.006,43.006,0,0,1,237,530l8-9.51a55.767,55.767,0,0,1-3.9-4.05,59.74,59.74,0,0,1-3.31-5c-3.9,6.11-9,9.27-16.07,7.1a11.69,11.69,0,0,1-8.57-10.65c-.62-6.3,2.89-10.46,8.71-13.43-3.61-3.34-7.52-6.25-8.4-11.85-1.41,2.19-2.18,3.69-3.22,5a11.75,11.75,0,0,1-13.78,3.37,11.9,11.9,0,0,1-6.75-11.83,11.68,11.68,0,0,1,10.63-10.27,11,11,0,0,1,10.09,4.6,43.291,43.291,0,0,1,2.94,5.39c1.92-4.55,4.74-8.09,9.22-10.19a62.141,62.141,0,0,1-5-4.46,47.683,47.683,0,0,1-3.44-4.94,48.54,48.54,0,0,1-4.28,4.65,12,12,0,1,1-13.6-19.71,11.42,11.42,0,0,1,14.51,2,43.718,43.718,0,0,1,3.42,4.56l8.44-8.38-7.47-8.08c-1.68.09-2,2.11-3,3.18a12.62,12.62,0,0,1-18.62-1.05c-4.36-5.71-3.12-13.49,3-17.82,1.3-.92,2.77-1.6,4.75-2.72-6.53-3.51-10.49-8.07-8.77-15.32a11.3,11.3,0,0,1,9.45-9c7-1.24,11.42,2.51,14.56,9.09a29.655,29.655,0,0,0,2.36-2.94c4.82-7.95,17.22-7.83,21.74.49.46.84,1,1.66,1.7,2.88a44.847,44.847,0,0,1,4.62-5.23c1.79-1.5,4-2.51,6.47-4-1.49-1-2.84-1.87-4.06-2.87a12,12,0,0,1-3.55-14.33A11.75,11.75,0,0,1,268,378.55a11,11,0,0,1-4.42,10.18,40.075,40.075,0,0,1-4.84,2.88c0,2.17,2.05,1.74,3,2.64,1.21,1.17,2.6,2.16,3.73,3.39a30.887,30.887,0,0,1,2.42,3.46l9.43-8.31c-6.94-6.6-8.69-10.44-6.83-15.77,1.76-5,5.45-8.12,10.73-8.46,6.64-.43,10.67,3.53,13.29,10.11,1.16-1.72,1.81-2.87,2.65-3.87a23.06,23.06,0,0,1,3.54-3.58,10.14,10.14,0,0,1,3.89-1.82,15.731,15.731,0,0,1,5-.2,10.63,10.63,0,0,1,4.08,1.31,17.71,17.71,0,0,1,3.9,3.17,33.7,33.7,0,0,1,2.85,4.12Zm-25.64,6.46c-2.59,2.63-4.73,4.84-6.92,7-.75.75-1.62,1.37-2.26,1.9l8.66,7.95a48,48,0,0,1,3.67-3.8c1.39-1.18,3-2.12,4.66-3.3a44.515,44.515,0,0,1-4.37-4.2,56.263,56.263,0,0,1-3.44-5.55Zm-71,32.29c-1.94-2.26-3.87-4.37-5.63-6.6-.68-.87-.69-2.35-2.17-2.18-1.45,1.76-2.84,3.4-4.2,5.08s-4.16,1.28-5,3.72c1.36.88,2.63,1.57,3.75,2.44.94.74,1.66,1.75,2.57,2.53s.86,2.8,2.38,2.84Zm95.62-13.67,9.12-7.47-8.48-8.4-8.27,7.82a36.839,36.839,0,0,1,4,3.22,58.316,58.316,0,0,1,3.67,4.83ZM281.75,522.27l4.37,4.23c1.41,1.38,1.62,3.74,3.44,5,1.11-1.6,1.74-3,2.78-3.93,1.89-1.72,4-3.17,5.88-4.6l-8.34-8.33Zm30.36-102.16q3.3,4,7,8.63a54.742,54.742,0,0,1,4-4.31,48.4,48.4,0,0,1,4.4-3.16l-8.2-8.39Zm-73.65,82.45,7-7c-2.42-2.61-4.78-5.18-7-7.62l-7.57,6.46ZM264,513.72c-1.19,1.38-2.22,2.74-3.41,3.92s-2.75,2.39-4,3.45l7,8.41,7.79-7.93Zm26.26-9.31,8.86-7.43c-.83-.61-2-1.39-3.07-2.27-.92-.76-1.71-1.67-2.61-2.46s-1.06-2.67-2.77-2.66c-2.61,2.47-5.14,4.84-7.46,7,2.53,2.88,4.92,5.51,7.01,7.82ZM241.63,424.6c1.18-1.26,2.26-2.54,3.47-3.68s2.8-2.42,3.93-3.39l-6.84-8.42-7.83,8Zm29.53,70.46-5.41-5.59-7.52,6.6,5.68,6.37Zm3-76.77-6.45-7.82a43.285,43.285,0,0,1-3.17,3.79c-1.17,1.17-2.71,2.35-4.08,3.52l1.86-1.26,4.34,7.42Zm17.56,45.85-6.38,5.93,6.26,7.85,7.56-6.64Zm-58.31-21.31,6.2,6.35,6.6-5.19-5.42-7.73Zm-1.33,25.92,7.3,7.53,6.56-6.6-6.62-7ZM286,444.45l6.1,6.74,7.32-6-6.72-6.6Zm8.31-31.1-7.15,6.38,5.23,5.29,7.29-5.61Zm-21,30.63-6.46-6.66c-1.25,1.32-2.19,2.39-3.21,3.37s-2.32,2-2.72,2.37l5.82,6.93Zm-1.07,25.68-5.31-5.29-7.4,5.67,5.63,6.18Z"/><path class="a" d="M260.46,585.53A12.07,12.07,0,1,1,249,572.875,12.07,12.07,0,0,1,260.46,585.53Z"/><path class="a" d="M372.81,333.12a11.94,11.94,0,1,1-5.421-10.851,11.94,11.94,0,0,1,5.421,10.851Z"/><path class="a" d="M360.67,346.16a11.64,11.64,0,0,1,11,12.65,11.83,11.83,0,0,1-12.19,10.84,12.15,12.15,0,0,1-11.54-12.41C348.08,350.85,354.12,345.78,360.67,346.16Z"/><path class="a" d="M274.72,574.21a11.65,11.65,0,0,1,11.07,11.91,11.49,11.49,0,0,1-12.2,11.42,11.83,11.83,0,0,1-11.25-11.83C262.41,579.36,268.27,573.92,274.72,574.21Z"/><path class="a" d="M362.19,295.19a11.3,11.3,0,0,1,11.18,11.65,11.49,11.49,0,0,1-12.17,11.44,11.86,11.86,0,0,1-11-12.08,11.63,11.63,0,0,1,11.99-11.01Z"/><path class="a" d="M235.38,558.83c-.53,5.18-4.79,11.17-12.15,10.81a11.34,11.34,0,0,1-11-12.45,11.69,11.69,0,0,1,12.31-10.62C230.57,547.06,235.72,552.87,235.38,558.83Z"/><path class="a" d="M301.36,549.57A11.91,11.91,0,0,1,312.12,562,11.59,11.59,0,0,1,289,560.33a11.8,11.8,0,0,1,12.36-10.76Z"/><path class="a" d="M231,367.26a11.51,11.51,0,0,1,11.16,11.83,11.72,11.72,0,0,1-12,11.09,11.53,11.53,0,0,1-11.07-11.93A11.32,11.32,0,0,1,231,367.26Z"/><path class="a" d="M320.25,356.55A11.75,11.75,0,0,1,308,367.41c-5.83-.22-10.79-6-10.65-11.82a11.49,11.49,0,1,1,22.95,1Z"/><path class="a" d="M370.32,383.69A11.18,11.18,0,0,1,358.82,395c-6.32-.19-11.32-4.33-11.37-11.52a11.44,11.44,0,0,1,22.87.21Z"/><path class="a" d="M335.82,320.09a11.33,11.33,0,0,1,10.61,12.21,11.19,11.19,0,0,1-12.32,10.4A11.06,11.06,0,0,1,323.89,331a11.24,11.24,0,0,1,11.93-10.91Z"/><path class="a" d="M328.5,499.55a11.43,11.43,0,0,1-.13,22.84A11.31,11.31,0,0,1,317,510.93a11.43,11.43,0,0,1,11.5-11.38Z"/><path class="a" d="M258.83,610.76a11.32,11.32,0,1,1-10.811-11.718A11.27,11.27,0,0,1,258.83,610.76Z"/><path class="a" d="M216.28,377.93a10.92,10.92,0,0,1-11.19,10.82,10.81,10.81,0,0,1-11-11,11.1,11.1,0,1,1,22.2.14Z"/><path class="a" d="M222.8,572.81a11.16,11.16,0,1,1-9.985,5.364,11.16,11.16,0,0,1,9.985-5.364Z"/><path class="a" d="M178.32,413.63a11.139,11.139,0,1,1,.52-22.272,10.87,10.87,0,0,1,10.65,11.372,11,11,0,0,1-11.17,10.9Z"/><path class="a" d="M358.34,398.41A10.91,10.91,0,0,1,369,409.74a11.15,11.15,0,0,1-11.4,10.68A11,11,0,0,1,347,409a10.72,10.72,0,0,1,11.34-10.59Z"/><path class="a" d="M386.92,318.57a10.78,10.78,0,0,1-10.19-11.64,10.94,10.94,0,0,1,11.68-10.22,11.19,11.19,0,0,1,10.29,11.71,11,11,0,0,1-11.78,10.15Z"/><path class="a" d="M211.24,506.47a10.93,10.93,0,0,1-11.93,10.06,10.62,10.62,0,0,1-9.94-11.23,11.05,11.05,0,0,1,11.48-10.64A11.31,11.31,0,0,1,211.24,506.47Z"/><path class="a" d="M188.26,428.06A10.62,10.62,0,0,1,177,438.62a10.88,10.88,0,0,1-10.52-10.68,11.24,11.24,0,0,1,11-11.1,11,11,0,0,1,10.78,11.22Z"/><path class="a" d="M363.37,270a11.23,11.23,0,0,1,10.42,11.63,10.82,10.82,0,0,1-11.74,10.09,10.57,10.57,0,0,1-10-11.05A11,11,0,0,1,363.37,270Z"/><path class="a" d="M399.66,282.14a11,11,0,0,1-11.41,10.6A10.57,10.57,0,0,1,377.78,282a11.06,11.06,0,0,1,10.92-11.16,11.37,11.37,0,0,1,10.96,11.3Z"/><path class="a" d="M284.11,611.88a10.981,10.981,0,1,1-10.51-11.46,11.06,11.06,0,0,1,10.51,11.46Z"/><path class="a" d="M190,378.16a10.76,10.76,0,0,1-21.36-2.57c.68-5.72,6.07-10.19,11.65-9.65A10.92,10.92,0,0,1,190,378.16Z"/><path class="a" d="M367.82,435.21a10.78,10.78,0,0,1-11,10.18,10.58,10.58,0,0,1-10.61-11.17,10.85,10.85,0,0,1,10.88-10.34,11.1,11.1,0,0,1,10.73,11.33Z"/><path class="a" d="M337.93,536.63a10.77,10.77,0,0,1-10.71,10.43,10.94,10.94,0,0,1-10.63-11.28,11.09,11.09,0,0,1,11.13-10.12A10.9,10.9,0,0,1,337.93,536.63Z"/><path class="a" d="M257.09,636.58a10.86,10.86,0,0,1-10.95,10.2,11,11,0,0,1-10.39-10.85,10.8,10.8,0,0,1,11.39-10.44,10.69,10.69,0,0,1,9.95,11.09Z"/><path class="a" d="M366.64,460.58a10.92,10.92,0,0,1-10.74,10.54,10.65,10.65,0,1,1,.19-21.3,11,11,0,0,1,10.55,10.76Z"/><path class="a" d="M397.27,333.7a10.59,10.59,0,1,1-10.5-10.68,10.59,10.59,0,0,1,10.5,10.68Z"/><path class="a" d="M232.24,609.68a10.56,10.56,0,1,1-5.052-9.458,10.56,10.56,0,0,1,5.052,9.458Z"/><path class="a" d="M390,245.67a10.51,10.51,0,1,1-10.87,10.15A10.29,10.29,0,0,1,390,245.67Z"/><path class="a" d="M300.18,576.46a10.45,10.45,0,1,1-11.06,9.83,10.28,10.28,0,0,1,11.06-9.83Z"/><path class="a" d="M188.8,531.17a10.43,10.43,0,1,1,10.49,10.77,10.72,10.72,0,0,1-10.49-10.77Z"/><path class="a" d="M176.69,443.25a10.37,10.37,0,1,1-10.352,10.15,10.37,10.37,0,0,1,10.352-10.15Z"/><path class="a" d="M413.83,293.14A10.17,10.17,0,0,1,404,282.71a9.85,9.85,0,0,1,10.28-9.89,10.24,10.24,0,0,1,10,10.31,10.49,10.49,0,0,1-10.45,10.01Z"/><path class="a" d="M230.88,635.38a10.06,10.06,0,0,1-10.45,9.7,9.83,9.83,0,0,1-9.78-10.3A10.21,10.21,0,0,1,221,624.9,10.45,10.45,0,0,1,230.88,635.38Z"/><path class="a" d="M283.57,344.83a9.82,9.82,0,0,1,9.48,10.61,10.12,10.12,0,0,1-10.59,9.65,10.48,10.48,0,0,1-9.63-10.74,10.22,10.22,0,0,1,10.74-9.52Z"/><path class="a" d="M373.88,255.8a9.9,9.9,0,0,1-10.66,9.48,10.27,10.27,0,0,1-9.56-10.73A10.4,10.4,0,0,1,364.47,245a10,10,0,0,1,9.41,10.8Z"/><path class="a" d="M414.46,267.59a9.9,9.9,0,0,1-9.56-10.47,10.36,10.36,0,0,1,10.32-9.92,10.68,10.68,0,0,1,10,11A10.31,10.31,0,0,1,414.46,267.59Z"/><path class="a" d="M354.94,496.27a10.21,10.21,0,0,1-10.17-10.11A10.54,10.54,0,0,1,355,476a10.21,10.21,0,0,1,10,10.27,9.8,9.8,0,0,1-10.06,10Z"/><path class="a" d="M391.28,220.82a9.87,9.87,0,0,1,9.33,10.67,10,10,0,0,1-10.72,9.35,10.24,10.24,0,0,1-9.43-10.74,10.08,10.08,0,0,1,10.82-9.28Z"/><path class="a" d="M384.58,369a10.45,10.45,0,0,1-9-11.26,10.15,10.15,0,0,1,11.21-8.94,10,10,0,0,1,9,11.11A10.31,10.31,0,0,1,384.58,369Z"/><path class="a" d="M384.84,374.79a9.79,9.79,0,1,1-8.78,4.682,9.79,9.79,0,0,1,8.78-4.682Z"/><path class="a" d="M416.35,221.92a9.852,9.852,0,1,1-10.21,9.48A9.852,9.852,0,0,1,416.35,221.92Z"/><path class="a" d="M267,354.32a9.68,9.68,0,1,1-2.42-7.01A9.74,9.74,0,0,1,267,354.32Z"/><path class="a" d="M384.08,400.62a9.731,9.731,0,1,1-10.265,9.165,9.731,9.731,0,0,1,10.265-9.165Z"/><path class="a" d="M153.47,385.42a9.71,9.71,0,0,1-9.69-10.26,9.89,9.89,0,1,1,19.75,1.09A9.74,9.74,0,0,1,153.47,385.42Z"/><path class="a" d="M198.16,567a9.82,9.82,0,1,1,9.9-10,9.64,9.64,0,0,1-9.9,10Z"/><path class="a" d="M232.25,343.16a10,10,0,0,1,9,10.28A9.76,9.76,0,1,1,221.8,352,10,10,0,0,1,232.25,343.16Z"/><path class="a" d="M412.42,318.23a9.62,9.62,0,1,1,10.2-9,9.37,9.37,0,0,1-10.2,9Z"/><path class="a" d="M382.44,445.33a9.67,9.67,0,0,1-9.4-9.94A9.89,9.89,0,0,1,383,426a10,10,0,0,1,9.43,10,9.75,9.75,0,0,1-9.99,9.33Z"/><path class="a" d="M281.91,637.37a9.7,9.7,0,1,1-5.777-9.142,9.63,9.63,0,0,1,5.777,9.142Z"/><path class="a" d="M185,479.66a9.51,9.51,0,0,1-9.87,9.36,9.69,9.69,0,0,1-9.33-10,9.5,9.5,0,0,1,9.93-9.28,9.37,9.37,0,0,1,9.27,9.92Z"/><path class="a" d="M364.88,220.25a9.58,9.58,0,0,1,9.54,9.75,9.45,9.45,0,0,1-9.23,9.27,9.514,9.514,0,1,1-.31-19.02Z"/><path class="a" d="M162.3,401.55a9.73,9.73,0,0,1-9.72,9.57,9.92,9.92,0,0,1-9.64-9.71,9.66,9.66,0,0,1,9.77-9.47,9.51,9.51,0,0,1,9.59,9.61Z"/><path class="a" d="M215.69,352.36a9.41,9.41,0,0,1-10.16,9,9.22,9.22,0,0,1-8.84-9.52,9.62,9.62,0,0,1,9.73-9.54A9.82,9.82,0,0,1,215.69,352.36Z"/><path class="a" d="M316.83,561.67a9.36,9.36,0,0,1,10.3-8.84,9.18,9.18,0,0,1,8.54,9.8,9.51,9.51,0,0,1-9.49,9,9.71,9.71,0,0,1-9.35-9.96Z"/><path class="a" d="M255,661.87a9.6,9.6,0,0,1-9.7,9.61,9.76,9.76,0,0,1-9.34-10,9.63,9.63,0,0,1,9.4-9.19,9.46,9.46,0,0,1,9.64,9.58Z"/><path class="a" d="M416.51,215.34a9.35,9.35,0,0,1-9-9.44,9.76,9.76,0,0,1,9.93-9.44,9.58,9.58,0,0,1,8.91,10.33,9.18,9.18,0,0,1-9.84,8.55Z"/><path class="a" d="M441.55,242.12a9.28,9.28,0,0,1-9.16-9.22,9.4,9.4,0,0,1,9.55-9.59,9.63,9.63,0,0,1,9.24,10,9.51,9.51,0,0,1-9.63,8.81Z"/><path class="a" d="M391.39,214.3a9,9,0,0,1-9.09-9.14,9.34,9.34,0,0,1,9.51-9.61,9.69,9.69,0,0,1,9.22,10A9.35,9.35,0,0,1,391.39,214.3Z"/><path class="a" d="M381.92,452a9.4,9.4,0,0,1-.31,18.8,9.18,9.18,0,0,1-9.14-9.17,9.28,9.28,0,0,1,9.45-9.63Z"/><path class="a" d="M189.69,351.51a9.1,9.1,0,0,1-9.53,8.68,9.33,9.33,0,0,1-9.19-9.84,9.76,9.76,0,0,1,9.63-8.87,9.56,9.56,0,0,1,9.09,10.03Z"/><path class="a" d="M206.73,583.44a9.54,9.54,0,0,1-10.24,8.91,9.35,9.35,0,0,1-8.54-9.8,9.21,9.21,0,0,1,10.15-8.84A9.38,9.38,0,0,1,206.73,583.44Z"/><path class="a" d="M307.8,612.32a9.18,9.18,0,0,1-9.08,9.29,9.49,9.49,0,0,1-9.49-9.73,9.62,9.62,0,0,1,9.57-9,9.28,9.28,0,0,1,9,9.44Z"/><path class="a" d="M353.73,521.44a9.48,9.48,0,0,1-9.07-9.39,9.25,9.25,0,0,1,9.68-9.39,9.46,9.46,0,0,1,9.15,9.28A9.64,9.64,0,0,1,353.73,521.44Z"/><path class="a" d="M220.2,651.59a9.06,9.06,0,0,1,8.77,9.59,9.2,9.2,0,0,1-9.41,9,9.52,9.52,0,0,1-9.25-10.05,9.35,9.35,0,0,1,9.89-8.54Z"/><path class="a" d="M441.35,249.28a9.41,9.41,0,0,1,8.75,9.65,9.76,9.76,0,0,1-9.59,8.95,9.5,9.5,0,0,1-9-10.16,9.2,9.2,0,0,1,9.84-8.44Z"/><path class="a" d="M443.35,197.82a9.41,9.41,0,0,1,8.61,9.8,9.22,9.22,0,0,1-9.85,8.45,9.08,9.08,0,0,1-8.56-9.7,9.29,9.29,0,0,1,9.8-8.55Z"/><path class="a" d="M412.76,325.29a9.2,9.2,0,1,1-8.944,4.992,9.22,9.22,0,0,1,8.944-4.992Z"/><path class="a" d="M174.83,495.7a9,9,0,1,1-9.51,8.88,9.15,9.15,0,0,1,9.51-8.88Z"/><path class="a" d="M163.69,350a8.92,8.92,0,1,1-2.648-6.54A9,9,0,0,1,163.69,350Z"/><path class="a" d="M205.37,609a9.08,9.08,0,1,1-8.311-9.55A9.08,9.08,0,0,1,205.37,609Z"/><path class="a" d="M151.92,418a8.95,8.95,0,1,1-9.12,8.34,8.67,8.67,0,0,1,9.12-8.34Z"/><path class="a" d="M439.81,275.18a8.59,8.59,0,0,1,8.74,8.61,8.92,8.92,0,0,1-9.23,9,9.11,9.11,0,0,1-8.44-9.09,8.8,8.8,0,0,1,8.93-8.52Z"/><path class="a" d="M402.33,359.13a8.58,8.58,0,0,1,9.26-8,8.82,8.82,0,0,1,8.38,9,9.1,9.1,0,0,1-9.73,8.49,8.92,8.92,0,0,1-7.91-9.49Z"/><path class="a" d="M389.42,487.5a8.44,8.44,0,0,1-9,8.32,8.65,8.65,0,0,1-8.44-8.94,9,9,0,0,1,9.07-8.49A8.82,8.82,0,0,1,389.42,487.5Z"/><path class="a" d="M418.37,171.48a9,9,0,0,1,8.45,9,8.84,8.84,0,0,1-9.58,8.48,8.58,8.58,0,0,1-8-9.26A8.7,8.7,0,0,1,418.37,171.48Z"/><path class="a" d="M401.39,385.43a8.7,8.7,0,0,1,8.84-8.67,9,9,0,0,1,8.72,8.93,9.18,9.18,0,0,1-9,8.7,8.81,8.81,0,0,1-8.56-8.96Z"/><path class="a" d="M374.5,204.47a8.81,8.81,0,0,1-9.11,8.4,9.1,9.1,0,0,1-8.41-9.22,8.78,8.78,0,0,1,9.23-8.27,8.49,8.49,0,0,1,8.29,9.09Z"/><path class="a" d="M399.44,436.23a8.5,8.5,0,0,1,9.19-8.2,8.77,8.77,0,0,1,8.33,9.16,9.16,9.16,0,0,1-9.3,8.33A8.83,8.83,0,0,1,399.44,436.23Z"/><path class="a" d="M408.81,420a8.59,8.59,0,0,1-8.47-8.87,9,9,0,0,1,8.75-8.74c4.76-.06,9.17,4.6,8.89,9.39A8.86,8.86,0,0,1,408.81,420Z"/><path class="a" d="M401.12,179.65a8.54,8.54,0,0,1-9.12,8.2,8.77,8.77,0,0,1-8.1-8.6,8.88,8.88,0,0,1,8.86-8.63,8.66,8.66,0,0,1,8.36,9.03Z"/><path class="a" d="M477,208.45a8.7,8.7,0,0,1-8.61,8.14,9,9,0,0,1-8.48-9.07,8.62,8.62,0,0,1,9.41-8A8.46,8.46,0,0,1,477,208.45Z"/><path class="a" d="M444.24,172.52a8.64,8.64,0,0,1,8,9.26,8.5,8.5,0,0,1-9.13,8.1,8.8,8.8,0,0,1-8.18-9.2,9,9,0,0,1,9.31-8.16Z"/><path class="a" d="M173,539.05a8.4,8.4,0,0,1-7.93-9.28,8.26,8.26,0,0,1,9.38-7.71,8.56,8.56,0,0,1,7.73,8.81A8.73,8.73,0,0,1,173,539.05Z"/><path class="a" d="M203.47,634.56a8.42,8.42,0,0,1-9.34,7.94,8.55,8.55,0,0,1-7.77-8.86,8.81,8.81,0,0,1,8.69-8.09,8.63,8.63,0,0,1,8.42,9.01Z"/><path class="a" d="M137.61,349.31a8.47,8.47,0,0,1-8.34,8.2,8.56,8.56,0,0,1-8.43-8.86,8.391,8.391,0,1,1,16.77.66Z"/><path class="a" d="M415.51,463.08a8.38,8.38,0,1,1-7.55-8.94,8.23,8.23,0,0,1,7.55,8.94Z"/><path class="a" d="M469.74,173.85a8.38,8.38,0,1,1-8.63,8.11,8.63,8.63,0,0,1,8.63-8.11Z"/><path class="a" d="M467.21,242a8.27,8.27,0,1,1,8.68-7.8,8.27,8.27,0,0,1-8.68,7.8Z"/><path class="a" d="M151,444.34a8.27,8.27,0,1,1-8.72,7.77,8.39,8.39,0,0,1,8.72-7.77Z"/><path class="a" d="M128.88,366.44a8.32,8.32,0,1,1-8.93,7.49,8.13,8.13,0,0,1,8.93-7.49Z"/><path class="a" d="M218.66,694.5a8.006,8.006,0,1,1,0,.031Z"/><path class="a" d="M279.42,663.48a8.274,8.274,0,1,1-7.53-8.97,8.37,8.37,0,0,1,7.53,8.97Z"/><path class="a" d="M310.3,322.35a8.154,8.154,0,1,1-8.83,7.61A8.28,8.28,0,0,1,310.3,322.35Z"/><path class="a" d="M361.25,537.68a8.07,8.07,0,0,1-8.51,7.81,7.9,7.9,0,0,1-7.82-8.44,8,8,0,0,1,8.46-7.84,8.15,8.15,0,0,1,7.87,8.47Z"/><path class="a" d="M244.61,679.07a8,8,0,0,1,8,8.45,7.88,7.88,0,0,1-7.89,7.8,8,8,0,0,1-8.4-8.05,8.13,8.13,0,0,1,8.29-8.2Z"/><path class="a" d="M172.73,548.14a7.91,7.91,0,0,1,7.88,8.53,8.12,8.12,0,0,1-8.71,7.76,8.25,8.25,0,0,1-7.57-8.22,8.06,8.06,0,0,1,8.4-8.07Z"/><path class="a" d="M444.69,163.84a7.82,7.82,0,0,1-8-7.64,8,8,0,0,1,8-8.4,8.16,8.16,0,0,1,8.05,8.41,8.06,8.06,0,0,1-8.05,7.63Z"/><path class="a" d="M438.82,317.59a7.84,7.84,0,0,1-7.95-7.57,8,8,0,0,1,7.91-8.39,8.16,8.16,0,0,1,8,8.34A8.07,8.07,0,0,1,438.82,317.59Z"/><path class="a" d="M358.94,177.9a7.72,7.72,0,0,1,8.11-7.47,8,8,0,0,1,7.77,7.93,8.09,8.09,0,0,1-8.59,7.88,7.88,7.88,0,0,1-7.29-8.34Z"/><path class="a" d="M426.91,155a7.84,7.84,0,0,1-7.77,7.85,8.06,8.06,0,0,1-8.29-8.14,8.16,8.16,0,0,1,8.57-7.89A8,8,0,0,1,426.91,155Z"/><path class="a" d="M458.71,259.29a7.62,7.62,0,0,1,7.83-7.63,7.94,7.94,0,0,1,7.9,8.4,8.31,8.31,0,0,1-8.31,7.4,8,8,0,0,1-7.42-8.17Z"/><path class="a" d="M171.9,574.21a7.68,7.68,0,0,1,7.48,8,7.86,7.86,0,1,1-7.48-7.99Z"/><path class="a" d="M157.45,478.62a7.89,7.89,0,0,1-8,7.65,8.17,8.17,0,0,1-7.6-8.18,7.83,7.83,0,0,1,8.13-7.51,7.58,7.58,0,0,1,7.47,8.04Z"/><path class="a" d="M433.62,445.37a7.65,7.65,0,0,1-7.52-8,7.91,7.91,0,0,1,8-7.57,8.16,8.16,0,0,1,7.6,8.11,7.87,7.87,0,0,1-8.08,7.46Z"/><path class="a" d="M338.63,297.29c5.34,3.44,7,6.42,6.14,10.17a9,9,0,0,1-7.5,6.93c-3.88.61-6.63-1.2-9.56-6.55Z"/><path class="a" d="M413.86,488.2A7.88,7.88,0,0,1,406,496a8.1,8.1,0,0,1-7.56-8.13A7.9,7.9,0,0,1,406,480.5,7.81,7.81,0,0,1,413.86,488.2Z"/><path class="a" d="M135.15,400.55a8.22,8.22,0,0,1-7.92,7.82,8,8,0,0,1-7.76-7.92,7.79,7.79,0,0,1,7.85-7.72A7.93,7.93,0,0,1,135.15,400.55Z"/><path class="a" d="M462.73,156.29A7.87,7.87,0,0,1,471,149a8.08,8.08,0,0,1,7.25,8.43,7.89,7.89,0,0,1-8.35,7.28,7.73,7.73,0,0,1-7.17-8.42Z"/><path class="a" d="M432.76,471.14a7.731,7.731,0,0,1,.61-15.45,8.14,8.14,0,0,1,7.23,7.69A8,8,0,0,1,432.76,471.14Z"/><path class="a" d="M186.21,659.22a7.54,7.54,0,0,1,8.25-7.13,7.9,7.9,0,0,1,7.45,8.08,8,8,0,0,1-8.76,7.52,7.72,7.72,0,0,1-6.94-8.47Z"/><path class="a" d="M385.85,153.71a7.86,7.86,0,0,1,7.88-7.69,8,8,0,0,1,7.6,8,7.88,7.88,0,0,1-8,7.64,7.72,7.72,0,0,1-7.48-7.95Z"/><path class="a" d="M170.58,615a7.63,7.63,0,1,1,7.59-7.98A7.83,7.83,0,0,1,170.58,615Z"/><path class="a" d="M502.77,183.37a7.33,7.33,0,0,1-8.07,7.34,7.519,7.519,0,1,1,1.05-15,7.33,7.33,0,0,1,7.02,7.662Z"/><path class="a" d="M380.16,505.39a7.6,7.6,0,1,1-8,7.35,7.43,7.43,0,0,1,8-7.35Z"/><path class="a" d="M163.24,324.35a7.62,7.62,0,1,1-7.64-7.75,7.36,7.36,0,0,1,7.64,7.75Z"/><path class="a" d="M181.12,332.7a7.52,7.52,0,1,1,7.9-6.89A7.52,7.52,0,0,1,181.12,332.7Z"/><path class="a" d="M486.77,208.8a7.3,7.3,0,0,1,7.3-7.33,7.53,7.53,0,1,1-7.3,7.33Z"/><path class="a" d="M141.38,503.73a7.11,7.11,0,0,1,7.23-7.34,7.29,7.29,0,0,1,7.56,7.77,7.5,7.5,0,0,1-7.63,7.06,7.32,7.32,0,0,1-7.16-7.49Z"/><path class="a" d="M129.78,330.54a7.47,7.47,0,0,1-7-7.6,7.55,7.55,0,0,1,8.28-7.05,7.39,7.39,0,0,1,6.58,8,7.3,7.3,0,0,1-7.86,6.65Z"/><path class="a" d="M206.31,333.81a7.39,7.39,0,0,1-6.66-7.91,7.87,7.87,0,0,1,7.89-6.87,7.62,7.62,0,0,1,6.92,8.44,7.3,7.3,0,0,1-8.15,6.34Z"/><path class="a" d="M324.92,595.16a7.15,7.15,0,0,1-6.87-7.7,7.23,7.23,0,0,1,7.71-6.9,7.54,7.54,0,0,1,7,7.74,7.45,7.45,0,0,1-7.84,6.86Z"/><path class="a" d="M489,157.25a7.23,7.23,0,0,1,7.84-6.73,7.38,7.38,0,0,1,6.74,7.9,7.55,7.55,0,0,1-7.91,6.8,7.43,7.43,0,0,1-6.67-7.97Z"/><path class="a" d="M420.74,122a7.2,7.2,0,0,1,6.79,7.77,7.57,7.57,0,0,1-7.33,6.65,7.29,7.29,0,0,1-7.08-7.56,7,7,0,0,1,7.62-6.86Z"/><path class="a" d="M471.78,124a7,7,0,0,1,6.75,7.65,7.33,7.33,0,0,1-7.14,6.69,7.53,7.53,0,0,1-7.2-7.44,7.19,7.19,0,0,1,7.59-6.9Z"/><path class="a" d="M445.71,122.91a7,7,0,0,1,7.17,7.28,7.35,7.35,0,0,1-7.3,7.29,7.69,7.69,0,0,1-7.29-7.43,7.3,7.3,0,0,1,7.42-7.14Z"/><path class="a" d="M444.93,335.33a6.93,6.93,0,0,1-7.3,7.19,7.24,7.24,0,0,1-7.14-7.49,7.65,7.65,0,0,1,7.08-7,7.23,7.23,0,0,1,7.36,7.3Z"/><path class="a" d="M232.28,334.52a6.94,6.94,0,0,1-6.89-6.89,7.3,7.3,0,0,1,7.37-7.3,7.47,7.47,0,0,1,6.93,7.77,7.12,7.12,0,0,1-7.41,6.42Z"/><path class="a" d="M148.61,522.43a7.21,7.21,0,0,1,6.34,8.11,7.42,7.42,0,0,1-7.67,6.17,7.21,7.21,0,0,1-6.67-7.86,7.06,7.06,0,0,1,8-6.42Z"/><path class="a" d="M200.1,685.49a7.08,7.08,0,0,1-7,6.86,7.28,7.28,0,0,1-7.3-7.35,7.08,7.08,0,0,1,7-6.79,7,7,0,0,1,7.3,7.28Z"/><path class="a" d="M96.54,347.33a6.86,6.86,0,0,1,7.28-6.35,7,7,0,0,1,6.71,7.69,7.3,7.3,0,0,1-7.34,6.47,7.13,7.13,0,0,1-6.65-7.81Z"/><path class="a" d="M133.27,426.21a7.11,7.11,0,0,1-7,6.84,7.34,7.34,0,0,1-7.1-7.5,7.11,7.11,0,0,1,7.77-6.68,6.85,6.85,0,0,1,6.33,7.34Z"/><path class="a" d="M169.19,640.14a6.82,6.82,0,0,1-6.65-7A7.12,7.12,0,0,1,170,626a7.36,7.36,0,0,1,6.74,7.18,7.06,7.06,0,0,1-7.55,6.96Z"/><path class="a" d="M434.3,419.27a7.09,7.09,0,0,1-6.61-7.19,7.47,7.47,0,0,1,7.69-7,7.17,7.17,0,0,1,6.43,8.07,6.75,6.75,0,0,1-7.51,6.12Z"/><path class="a" d="M224.85,712.05a7,7,0,0,1-7,6.87,6.92,6.92,0,0,1-7.16-6.63A7.11,7.11,0,0,1,218,705a7.28,7.28,0,0,1,6.85,7.05Z"/><path class="a" d="M146.59,562.22a6.94,6.94,0,0,1-6.9-6.81,7.19,7.19,0,0,1,7.27-7.26,7.38,7.38,0,0,1,6.95,7.64,7.14,7.14,0,0,1-7.32,6.43Z"/><path class="a" d="M152.81,581.19a7.34,7.34,0,0,1-7,6.82,7,7,0,0,1,.38-14,7.45,7.45,0,0,1,6.62,7.18Z"/><path class="a" d="M493.74,227.79a7.07,7.07,0,0,1,6.66,7.07,7.15,7.15,0,0,1-7.64,6.83,7,7,0,0,1-6.59-7.11,6.9,6.9,0,0,1,7.57-6.79Z"/><path class="a" d="M465,291.92a7.41,7.41,0,0,1-6.57-7.36,7.2,7.2,0,0,1,7.93-6.62,7.06,7.06,0,0,1,6.13,7.62,7.23,7.23,0,0,1-7.49,6.36Z"/><path class="a" d="M401.46,128.44a7.06,7.06,0,0,1-7.24,6.62,6.93,6.93,0,1,1,.62-13.84A7.07,7.07,0,0,1,401.46,128.44Z"/><path class="a" d="M368.31,145.94a6.78,6.78,0,0,1,6.44,7.31,6.87,6.87,0,0,1-7.14,6.68,7.009,7.009,0,1,1,.7-14Z"/><path class="a" d="M504.05,132.35a6.881,6.881,0,1,1-6.585-7.165A6.881,6.881,0,0,1,504.05,132.35Z"/><path class="a" d="M520.67,191a6.72,6.72,0,0,1-6.67-6.91,6.61,6.61,0,0,1,6.21-6.63,6.84,6.84,0,0,1,7.11,6.51,6.92,6.92,0,0,1-6.65,7.03Z"/><path class="a" d="M521.48,152.17a6.68,6.68,0,0,1,6.77,6.87,6.58,6.58,0,0,1-6.54,6.33,6.36,6.36,0,0,1-6.68-6.1,6.49,6.49,0,0,1,6.45-7.1Z"/><path class="a" d="M264.9,328.44a6.61,6.61,0,0,1-6.75,6.83,6.77,6.77,0,0,1-6.63-7,6.57,6.57,0,0,1,6.44-6.4,6.44,6.44,0,0,1,6.94,6.57Z"/><path class="a" d="M431.47,496a6.65,6.65,0,0,1-6.26-7.39,6.51,6.51,0,0,1,6.79-6.15,6.67,6.67,0,0,1,6.69,7,6.75,6.75,0,0,1-7.22,6.54Z"/><path class="a" d="M102.62,367a6.59,6.59,0,0,1,6.57,7,6.46,6.46,0,0,1-6.48,6.36,6.56,6.56,0,0,1-7-6.63,6.66,6.66,0,0,1,6.91-6.73Z"/><path class="a" d="M151.53,607a6.67,6.67,0,1,1-5.948-7.25A6.7,6.7,0,0,1,151.53,607Z"/><path class="a" d="M442.39,387a6.59,6.59,0,0,1-6.85,6,6.37,6.37,0,0,1-6.11-7.35,6.46,6.46,0,0,1,7.1-5.65,6.71,6.71,0,0,1,5.86,7Z"/><path class="a" d="M290.62,329.58a6.79,6.79,0,0,1-7,6.55,6.59,6.59,0,0,1-6.11-6.67,6.3,6.3,0,0,1,6.24-6.44,6.47,6.47,0,0,1,6.87,6.56Z"/><path class="a" d="M405.06,520.6a6.91,6.91,0,0,1-6.53-6.37,6.69,6.69,0,0,1,6.69-6.87,6.52,6.52,0,0,1,6.46,6.32,6.63,6.63,0,0,1-6.62,6.92Z"/><path class="a" d="M175.07,658.91a6.54,6.54,0,0,1-6.34,6.58,6.76,6.76,0,0,1-6.74-7,6.64,6.64,0,0,1,6.76-6.18A6.47,6.47,0,0,1,175.07,658.91Z"/><path class="a" d="M443.45,361.4a6.57,6.57,0,0,1-7.62,5.85,6.37,6.37,0,0,1-5.53-7.16,6.74,6.74,0,0,1,6.84-6.07,6.91,6.91,0,0,1,6.31,7.38Z"/><path class="a" d="M478.84,105.72a6.46,6.46,0,0,1-6.79,6,6.15,6.15,0,0,1-5.92-6.71,6.08,6.08,0,0,1,6.68-5.93,6.32,6.32,0,0,1,6.03,6.64Z"/><path class="a" d="M526.1,209.91a6.4,6.4,0,0,1-6.44,6.33,6.19,6.19,0,0,1-6.41-6.29,6.51,6.51,0,0,1,6.36-6.48,6.81,6.81,0,0,1,6.49,6.44Z"/><path class="a" d="M249.78,713.57a6.45,6.45,0,0,1-7,5.7,6.73,6.73,0,0,1-5.6-6.53,6.45,6.45,0,0,1,6.78-6,6.29,6.29,0,0,1,5.82,6.83Z"/><path class="a" d="M104.4,315.82a6.37,6.37,0,0,1,6.54,6.2,6.53,6.53,0,0,1-6.76,6.78,6.79,6.79,0,0,1-6.26-6.65A6.54,6.54,0,0,1,104.4,315.82Z"/><path class="a" d="M446.62,98a6.48,6.48,0,0,1,6.56,6.34,6.63,6.63,0,0,1-6.46,6.49,6.43,6.43,0,0,1-6.49-6.4A6.27,6.27,0,0,1,446.62,98Z"/><path class="a" d="M358.36,563.37a6.64,6.64,0,0,1-6.19,6,6.41,6.41,0,0,1-6.36-6.52,6.32,6.32,0,0,1,6.13-6,6.43,6.43,0,0,1,6.42,6.52Z"/><path class="a" d="M150.1,632.65a6.44,6.44,0,0,1-6.79,6,6.77,6.77,0,0,1-5.9-6.93,6.37,6.37,0,0,1,6.87-5.83,6.22,6.22,0,0,1,5.82,6.76Z"/><path class="a" d="M427.49,103.68a6.1,6.1,0,0,1-6.73,5.93,6.27,6.27,0,0,1-5.83-6.19,6.17,6.17,0,0,1,6.44-6.27,6,6,0,0,1,6.12,6.53Z"/><path class="a" d="M131.26,452.18a6.46,6.46,0,0,1-7.06,5.76,6.3,6.3,0,0,1-5.42-7.26,6.4,6.4,0,0,1,6.57-5.48A6.66,6.66,0,0,1,131.26,452.18Z"/><path class="a" d="M465,464.87a6.45,6.45,0,0,1-7,5.88,6.28,6.28,0,0,1-5.54-7.17,6.39,6.39,0,0,1,6.48-5.59A6.67,6.67,0,0,1,465,464.87Z"/><path class="a" d="M528.89,133.58a6.33,6.33,0,0,1-7,5.62,6.16,6.16,0,0,1-5.52-7,6.43,6.43,0,0,1,6.57-5.42,6.58,6.58,0,0,1,5.95,6.8Z"/><path class="a" d="M385,538.93a6.35,6.35,0,0,1-7,5.71,6.28,6.28,0,0,1-5.36-7.21,6.35,6.35,0,0,1,6.51-5.43,6.46,6.46,0,0,1,5.85,6.93Z"/><path class="a" d="M102,393.36a6.14,6.14,0,1,1-6.55,5.7,6.14,6.14,0,0,1,6.55-5.7Z"/><path class="a" d="M276.45,688.52a6.66,6.66,0,0,1-6.15,5.9,6.21,6.21,0,1,1,.6-12.38,6.59,6.59,0,0,1,5.55,6.48Z"/><path class="a" d="M463.77,490.39a6.129,6.129,0,1,1-5.906-6.346,6.128,6.128,0,0,1,5.906,6.346Z"/><path class="a" d="M498.35,260.88a6.16,6.16,0,1,1-1.6-4.586A6.13,6.13,0,0,1,498.35,260.88Z"/><path class="a" d="M368.71,133.24a6.26,6.26,0,0,1-6.08-5.94,6.14,6.14,0,0,1,12.28.11,6.24,6.24,0,0,1-6.2,5.83Z"/><path class="a" d="M162.63,298.89a6.21,6.21,0,0,1-5.92,6.06,6.13,6.13,0,1,1,5.92-6.06Z"/><path class="a" d="M191.89,704.91a6,6,0,0,1,6,5.79,5.77,5.77,0,0,1-5.46,6.25,6,6,0,0,1-6.46-6A6.22,6.22,0,0,1,191.89,704.91Z"/><path class="a" d="M498.6,100.3a6.03,6.03,0,1,1-6.605,5.395A6.03,6.03,0,0,1,498.6,100.3Z"/><path class="a" d="M143.28,652a5.9,5.9,0,0,1,5.5,6.34,5.84,5.84,0,0,1-6.37,5.45,5.69,5.69,0,0,1-5.45-6.32,5.79,5.79,0,0,1,6.32-5.47Z"/><path class="a" d="M346.18,203.3a6.21,6.21,0,0,1-6.18,5.81c-3.15,0-5.63-3.12-5.62-7.11,0-2.79,2.81-5.05,6-4.87A6.05,6.05,0,0,1,346.18,203.3Z"/><path class="a" d="M131.56,291.89a6,6,0,0,1,5.55,6.32,6.17,6.17,0,0,1-6.29,5.61,6,6,0,1,1,.74-11.93Z"/><path class="a" d="M173.56,684.16a6.24,6.24,0,0,1-6,6.05,6,6,0,0,1-5.76-5.43,5.75,5.75,0,0,1,5.5-6.34,6.06,6.06,0,0,1,6.26,5.72Z"/><path class="a" d="M436.57,515.46a5.6,5.6,0,0,1-6.41,5.18,5.86,5.86,0,0,1-5.1-5.91,6,6,0,0,1,6.18-5.61,5.72,5.72,0,0,1,5.33,6.34Z"/><path class="a" d="M401.34,102.79a5.65,5.65,0,0,1-6.26,5.42A5.8,5.8,0,0,1,389.6,102a5.88,5.88,0,0,1,6.31-5.46,5.76,5.76,0,0,1,5.43,6.25Z"/><path class="a" d="M125.63,580.45a5.67,5.67,0,0,1-5.88,5.21,5.86,5.86,0,0,1-5.43-5.74,6,6,0,0,1,6.32-5.61,5.87,5.87,0,0,1,4.99,6.14Z"/><path class="a" d="M551.94,185.25a5.7,5.7,0,0,1-5.5,5.56,5.86,5.86,0,0,1-5.74-6.09,6,6,0,0,1,5.91-5.22A5.79,5.79,0,0,1,551.94,185.25Z"/><path class="a" d="M124.73,605.65a5.65,5.65,0,0,1-6.28,5.46,5.92,5.92,0,0,1-5.19-5.92,5.8,5.8,0,0,1,6.37-5.4A5.54,5.54,0,0,1,124.73,605.65Z"/><path class="a" d="M547.82,154.18A5.54,5.54,0,0,1,553,160a5.64,5.64,0,0,1-6.19,5.54,5.9,5.9,0,0,1-5.26-5.83,5.77,5.77,0,0,1,6.27-5.53Z"/><path class="a" d="M346.85,177.66a5.86,5.86,0,0,1-6.48,5.33,5.55,5.55,0,0,1-4.91-6.06,5.72,5.72,0,0,1,5.64-5.42A6,6,0,0,1,346.85,177.66Z"/><path class="a" d="M523.93,101.56a5.78,5.78,0,0,1,5.15,6.48,5.52,5.52,0,0,1-6,4.91,5.82,5.82,0,0,1-5.25-6.42,6.05,6.05,0,0,1,6.1-4.97Z"/><path class="a" d="M123.76,482.92a5.77,5.77,0,0,1-5.56-5.42,6,6,0,0,1,6-5.85,5.78,5.78,0,0,1,5.45,6.25A5.52,5.52,0,0,1,123.76,482.92Z"/><path class="a" d="M470.18,310.76a5.59,5.59,0,0,1-5.58,5.5,5.89,5.89,0,0,1-5.8-6.1,5.79,5.79,0,0,1,6-5.08,5.49,5.49,0,0,1,5.38,5.68Z"/><path class="a" d="M188.14,300a6,6,0,0,1-6.34,5.48,5.61,5.61,0,0,1-5.06-5.91,5.43,5.43,0,0,1,5.48-5.45,5.82,5.82,0,0,1,5.92,5.88Z"/><path class="a" d="M78.06,341.48a5.71,5.71,0,0,1,5.34,5.66,6,6,0,0,1-5.6,5.5,5.7,5.7,0,0,1-5.62-6.11,5.59,5.59,0,0,1,5.88-5.05Z"/><path class="a" d="M553.82,134.52a5.65,5.65,0,0,1-6,5,5.94,5.94,0,0,1-5.09-6,5.7,5.7,0,0,1,6-5,5.56,5.56,0,0,1,5.09,6Z"/><path class="a" d="M123.69,631.68a5.52,5.52,0,0,1-6,5,5.69,5.69,0,0,1-5.35-5.74,6,6,0,0,1,6.44-5.47,5.82,5.82,0,0,1,4.91,6.21Z"/><path class="a" d="M294.29,644.59c-3.15-.49-4.08-2.56-4.49-4.66a9.851,9.851,0,0,1,.4-4.87,8.53,8.53,0,0,1,2.55-3.38,6.35,6.35,0,0,1,3.21-1.44,24.186,24.186,0,0,1,4.78.45C298.42,635.7,296.33,640.2,294.29,644.59Z"/><path class="a" d="M524.14,236.19a5.41,5.41,0,0,1-5.82,5.1,5.58,5.58,0,1,1,.95-11.11,5.33,5.33,0,0,1,4.87,6.01Z"/><path class="a" d="M117.52,651.48a5.45,5.45,0,1,1-1.23,10.83,5.87,5.87,0,0,1-4.63-5.65,5.77,5.77,0,0,1,5.86-5.18Z"/><path class="a" d="M78.65,315.91a5.35,5.35,0,1,1-5.27,5,5.66,5.66,0,0,1,5.27-5Z"/><path class="a" d="M473.81,74.55a5.45,5.45,0,0,1,5.09,5.82,5.447,5.447,0,1,1-5.05-5.82Z"/><path class="a" d="M453.11,78.92a5.31,5.31,0,0,1-5.44,5.52A5.49,5.49,0,0,1,442.08,79a5.38,5.38,0,0,1,5.5-5.47,5.25,5.25,0,0,1,5.53,5.39Z"/><path class="a" d="M105.23,302.1a5.15,5.15,0,0,1-5.08-5.64,5.371,5.371,0,1,1,5.08,5.641Z"/><path class="a" d="M427.69,78.09a5.42,5.42,0,1,1-1.626-3.852,5.43,5.43,0,0,1,1.626,3.852Z"/><path class="a" d="M147.31,683.8a5.54,5.54,0,0,1-6.16,4.77,5.33,5.33,0,1,1,6.16-4.77Z"/><path class="a" d="M456.81,510.68a5.27,5.27,0,1,1-.25,10.53,5.43,5.43,0,0,1-5.07-5.76,5.37,5.37,0,0,1,5.32-4.77Z"/><path class="a" d="M120.55,559.55a5.43,5.43,0,0,1-4.88-5.36,5.32,5.32,0,0,1,5.81-5.09,5.39,5.39,0,0,1,4.9,5.3,5.49,5.49,0,0,1-5.83,5.15Z"/><path class="a" d="M488.27,491a5.18,5.18,0,0,1-5.27,5.47,5.32,5.32,0,0,1-5.27-5.52,5.13,5.13,0,0,1,5-5,5,5,0,0,1,5.54,5.05Z"/><path class="a" d="M105.71,425.13a5,5,0,0,1-5.1,5,5.15,5.15,0,0,1-5.31-5.49,5.51,5.51,0,0,1,5.14-5.06,5.33,5.33,0,0,1,5.27,5.55Z"/><path class="a" d="M504.5,81a5.37,5.37,0,0,1-10.73-.25,5.48,5.48,0,0,1,5.12-5.11A5.41,5.41,0,0,1,504.5,81Z"/><path class="a" d="M76.92,378a5.41,5.41,0,0,1-5.55-5.4,5.52,5.52,0,0,1,5.21-5,5.22,5.22,0,1,1,.34,10.4Z"/><path class="a" d="M128.27,503.07a5.32,5.32,0,0,1-5.25,4.81,5.21,5.21,0,0,1-5.24-5.52,5.5,5.5,0,0,1,5.22-4.91A5.59,5.59,0,0,1,128.27,503.07Z"/><path class="a" d="M127.15,528.6a5.31,5.31,0,0,1-5.22,4.94,4.92,4.92,0,0,1-4.9-5.14,5,5,0,0,1,5.09-5,5.34,5.34,0,0,1,5.03,5.2Z"/><path class="a" d="M409.24,539.61a5,5,0,0,1-5.18,4.79,5.12,5.12,0,0,1-5-5,5.22,5.22,0,0,1,5.61-5.15,5,5,0,0,1,4.57,5.36Z"/><path class="a" d="M342.49,146.81a5.092,5.092,0,0,1-.58,10.16,5.1,5.1,0,0,1-5-5.71A5.24,5.24,0,0,1,342.49,146.81Z"/><path class="a" d="M374.84,101.74a5.25,5.25,0,0,1-5.38,4.71,5.08,5.08,0,0,1-4.66-5.36,4.91,4.91,0,0,1,5.31-4.65,5.11,5.11,0,0,1,4.73,5.3Z"/><path class="a" d="M167,705.11a4.8,4.8,0,0,1,4.53,5.37,5.15,5.15,0,0,1-5.41,4.63,5.32,5.32,0,0,1-4.6-5.5,5.07,5.07,0,0,1,5.48-4.5Z"/><path class="a" d="M550.53,211.36a5.14,5.14,0,0,1-5.41,4.55,4.82,4.82,0,0,1-4.77-5.13,5.19,5.19,0,0,1,5.69-5A5.53,5.53,0,0,1,550.53,211.36Z"/><path class="a" d="M213.14,300.82a5.2,5.2,0,0,1-5.06,4.94,5,5,0,0,1-4.91-5,5.07,5.07,0,0,1,5-5A5.3,5.3,0,0,1,213.14,300.82Z"/><path class="a" d="M549.27,113.24a4.9,4.9,0,0,1-4.81-5.2,4.65,4.65,0,0,1,4.58-4.61,5,5,0,0,1,5.29,4.76,5.16,5.16,0,0,1-5.06,5.05Z"/><path class="a" d="M221.7,738.11a5.11,5.11,0,0,1-5.32,4.71,5.38,5.38,0,0,1-4.71-5.42,5.13,5.13,0,0,1,5.42-4.6,4.83,4.83,0,0,1,4.61,5.31Z"/><path class="a" d="M397,72a5.14,5.14,0,0,1,4.38,5.57,5,5,0,0,1-5.64,4.24,4.84,4.84,0,0,1-4-5.13A5,5,0,0,1,397,72Z"/><path class="a" d="M121,682.48a5,5,0,0,1-5.27,4.71,4.8,4.8,0,0,1-4.43-4.73,4.94,4.94,0,0,1,4.81-5.12A5.17,5.17,0,0,1,121,682.48Z"/><path class="a" d="M524.56,86.82a5,5,0,0,1-4.92-5.08,5.17,5.17,0,0,1,5.24-4.81,5.36,5.36,0,0,1,4.6,4.77,5.11,5.11,0,0,1-4.92,5.12Z"/><path class="a" d="M491.28,290.57a4.67,4.67,0,0,1-4.74-5.07,4.84,4.84,0,0,1,4.74-4.43,4.78,4.78,0,0,1,4.68,5.16,4.46,4.46,0,0,1-4.68,4.34Z"/><path class="a" d="M486.87,517.26a4.78,4.78,0,1,1-4.1-5.03,4.62,4.62,0,0,1,4.1,5.03Z"/><path class="a" d="M145.4,709.56a4.591,4.591,0,1,1-3.97-5.18,4.64,4.64,0,0,1,3.97,5.18Z"/><path class="a" d="M80.31,398.94a4.57,4.57,0,0,1-5,4.1,4.44,4.44,0,0,1-4-5,4.54,4.54,0,0,1,4.93-4.13,4.68,4.68,0,0,1,4.07,5.03Z"/><path class="a" d="M97.36,630.18a4.67,4.67,0,0,1-9.33.32,4.85,4.85,0,0,1,4.84-5A5,5,0,0,1,97.36,630.18Z"/><path class="a" d="M572.94,156.12a4.82,4.82,0,0,1,4.69,4.51,4.526,4.526,0,1,1-4.69-4.51Z"/><path class="a" d="M92,651.46a4.68,4.68,0,0,1,4.24,4.8,4.61,4.61,0,0,1-4.89,4.11,4.48,4.48,0,0,1-4.21-4.78A4.56,4.56,0,0,1,92,651.46Z"/><path class="a" d="M448.9,48.76a4.54,4.54,0,0,1,4.26,4.77,4.66,4.66,0,0,1-4.86,4.22,4.77,4.77,0,0,1-4.3-4.83A4.55,4.55,0,0,1,448.9,48.76Z"/><path class="a" d="M434.34,540.78a4.6,4.6,0,0,1-5,4,5,5,0,0,1-3.9-4.54,4.84,4.84,0,0,1,4.8-4.41,4.6,4.6,0,0,1,4.1,4.95Z"/><path class="a" d="M195.5,736.78a4.3,4.3,0,0,1-4.54,4.45,4.5,4.5,0,1,1,.08-9,4.32,4.32,0,0,1,4.46,4.55Z"/><path class="a" d="M474.63,49.74a4.34,4.34,0,0,1,4.19,4.77,4.39,4.39,0,0,1-4.75,4.24,4.53,4.53,0,0,1-4.23-4.81,4.41,4.41,0,0,1,4.79-4.2Z"/><path class="a" d="M578.56,135a4.57,4.57,0,0,1-4.59,4.54,4.43,4.43,0,0,1-4.28-4.77,4.24,4.24,0,0,1,4.16-4.12,4.44,4.44,0,0,1,4.71,4.35Z"/><path class="a" d="M576.45,186.19a4.39,4.39,0,0,1-4.72,4.24,4.18,4.18,0,0,1-3.86-4.31,4.4,4.4,0,0,1,3.94-4.31A4.52,4.52,0,0,1,576.45,186.19Z"/><path class="a" d="M512.27,517.93a4.454,4.454,0,1,1-4.61-4.51,4.46,4.46,0,0,1,4.61,4.51Z"/><path class="a" d="M79.42,300.45a4.65,4.65,0,0,1-4.16-4.87A4.56,4.56,0,0,1,80,291.33a4.66,4.66,0,0,1,4.21,4.84,4.76,4.76,0,0,1-4.79,4.28Z"/><path class="a" d="M93.84,600.17A4.38,4.38,0,0,1,98.05,605a4.66,4.66,0,0,1-4.52,3.82,4.31,4.31,0,0,1-4.1-4.84A4.19,4.19,0,0,1,93.84,600.17Z"/><path class="a" d="M504.51,55.17a4.6,4.6,0,0,1-4.7,4.41,4.35,4.35,0,0,1-4-4.33,4.13,4.13,0,0,1,3.9-4.33,4.38,4.38,0,0,1,4.8,4.25Z"/><path class="a" d="M517.57,265.66a4.37,4.37,0,0,1-4.36-3.94,4.74,4.74,0,0,1,4.45-4.69,4.38,4.38,0,0,1,4.21,4.77,4.05,4.05,0,0,1-4.3,3.86Z"/><path class="a" d="M422.92,56.55A4.39,4.39,0,0,1,419,52.11a4.06,4.06,0,0,1,4.17-4.06,4.28,4.28,0,0,1,4.31,4.7A4.64,4.64,0,0,1,422.92,56.55Z"/><path class="a" d="M47.77,345.8A4.22,4.22,0,0,1,52,341.92a4.06,4.06,0,0,1,4.12,4,4.33,4.33,0,0,1-4.56,4.31A4.51,4.51,0,0,1,47.77,345.8Z"/><path class="a" d="M550.28,78.75a4.15,4.15,0,0,1,4.22,4,4.35,4.35,0,0,1-3.91,4.41A4.45,4.45,0,0,1,546,82.7,4.22,4.22,0,0,1,550.28,78.75Z"/><path class="a" d="M119.22,708a4,4,0,0,1-4,4.13,4.23,4.23,0,0,1-4.29-4,4.38,4.38,0,0,1,4.12-4.22,4.22,4.22,0,0,1,4.17,4.09Z"/><path class="a" d="M463.64,332.34a4.12,4.12,0,0,1,4,4.15,3.9,3.9,0,0,1-4.16,3.87,4.06,4.06,0,0,1-4-4.07,4.27,4.27,0,0,1,4.16-3.95Z"/><path class="a" d="M103.85,450.81a4.3,4.3,0,0,1-4.25,4,4.12,4.12,0,0,1-4.18-4.7,4,4,0,0,1,4.5-3.61,4.19,4.19,0,0,1,3.93,4.31Z"/><path class="a" d="M132.6,268a4,4,0,0,1,3.62,4.51,4.14,4.14,0,0,1-4.45,3.75,4.44,4.44,0,0,1-3.74-4.57A4.27,4.27,0,0,1,132.6,268Z"/><path class="a" d="M343.06,130.37a4.07,4.07,0,0,1-4.09-4.16,4,4,0,0,1,4-4.16,4.26,4.26,0,0,1,4.21,4.1A4.44,4.44,0,0,1,343.06,130.37Z"/><path class="a" d="M459.81,541.32a4.07,4.07,0,0,1-4.14,4.06,4.015,4.015,0,1,1,4.14-4.07Z"/><path class="a" d="M53.33,316.16A4.33,4.33,0,0,1,57,320.61a4.23,4.23,0,0,1-4.39,3.73,4.34,4.34,0,0,1-3.74-4.43A4.46,4.46,0,0,1,53.33,316.16Z"/><path class="a" d="M94.85,681.43a4,4,0,1,1-1.157-2.874A4,4,0,0,1,94.85,681.43Z"/><path class="a" d="M157.47,269.06a4.25,4.25,0,0,1,4.17,4.06,4.35,4.35,0,0,1-3.58,3.92,4.22,4.22,0,0,1-4.49-3.7A4.14,4.14,0,0,1,157.47,269.06Z"/><path class="a" d="M575.08,105.12a4.45,4.45,0,0,1,4.1,4.17,4.31,4.31,0,0,1-4.14,4.08,4.13,4.13,0,0,1,0-8.25Z"/><path class="a" d="M548.41,237.12a4,4,0,0,1-4.67,3.45,4.21,4.21,0,0,1-3.5-4,4.14,4.14,0,0,1,4.4-3.83,3.91,3.91,0,0,1,3.77,4.38Z"/><path class="a" d="M525.57,52.17a3.9,3.9,0,0,1,3.83,4.18,3.866,3.866,0,0,1-7.73-.07,3.9,3.9,0,0,1,3.9-4.11Z"/><path class="a" d="M377.85,560.32a3.84,3.84,0,0,1-.07,7.68,4,4,0,0,1-3.9-4.26,3.9,3.9,0,0,1,3.97-3.42Z"/><path class="a" d="M165.27,739.7a4.11,4.11,0,0,1-3.44-4.62,4.18,4.18,0,0,1,4.14-3.22,3.94,3.94,0,0,1-.7,7.84Z"/><path class="a" d="M50.71,375.41a3.71,3.71,0,0,1-3.47-3.78A3.81,3.81,0,0,1,51,368.07a3.75,3.75,0,0,1,3.79,4.19,3.68,3.68,0,0,1-4.08,3.15Z"/><path class="a" d="M237.19,302.23a3.64,3.64,0,0,1-4,3.19,3.9,3.9,0,0,1-3.53-3.79,4,4,0,0,1,4.48-3.55,3.81,3.81,0,0,1,3.05,4.15Z"/><path class="a" d="M106,275a3.93,3.93,0,1,1,4.31-3.51A3.93,3.93,0,0,1,106,275Z"/><path class="a" d="M484.93,542.44a3.72,3.72,0,0,1-3.67,3.63,3.8,3.8,0,1,1,3.67-3.63Z"/><path class="a" d="M95,575.5a3.51,3.51,0,0,1,3.19,3.93,3.67,3.67,0,0,1-3.93,3.23,3.8,3.8,0,0,1-3.26-4A3.7,3.7,0,0,1,95,575.5Z"/><path class="a" d="M374.55,76a3.67,3.67,0,0,1-3.6,3.74A3.57,3.57,0,0,1,367,76.37a3.72,3.72,0,0,1,3.9-4.15A3.77,3.77,0,0,1,374.55,76Z"/><path class="a" d="M507.09,539.56a3.78,3.78,0,0,1,3.49,3.75,3.68,3.68,0,0,1-4.29,3.56,3.5,3.5,0,0,1-3.07-4,3.61,3.61,0,0,1,3.87-3.31Z"/><path class="a" d="M459,434.83a17,17,0,0,1,3,7.87c-4.25.8-5.9.26-6.71-2.09S455.44,436.47,459,434.83Z"/><path class="a" d="M242.72,742.39a3.88,3.88,0,0,1-3.87-3.44,3.73,3.73,0,0,1,3.46-3.81,3.631,3.631,0,0,1,.41,7.25Z"/><path class="a" d="M93.18,707.22a3.67,3.67,0,0,1-3.77,3.41,3.81,3.81,0,0,1-3.19-4,3.55,3.55,0,0,1,3.43-3,3.42,3.42,0,0,1,3.53,3.59Z"/><path class="a" d="M536.17,544.34a3.76,3.76,0,0,1-3.81,3.42,3.36,3.36,0,0,1-3.16-3.23,3.49,3.49,0,0,1,3.32-3.82A3.77,3.77,0,0,1,536.17,544.34Z"/><path class="a" d="M571.16,208.21a3.81,3.81,0,0,1,3.47,3.73,3.4,3.4,0,0,1-3.61,3.45,3.67,3.67,0,0,1-3.57-3.57,4.09,4.09,0,0,1,3.71-3.61Z"/><path class="a" d="M69.36,655.06a3.52,3.52,0,0,1-3.72,3.41,3.67,3.67,0,0,1-3.25-4,3.6,3.6,0,0,1,3.43-3,3.32,3.32,0,0,1,3.54,3.59Z"/><path class="a" d="M143.29,734.76a3.47,3.47,0,0,1-3.56,3.55,3.67,3.67,0,0,1-3.41-3.8,3.5,3.5,0,0,1,3.3-3.11,3.27,3.27,0,0,1,3.67,3.36Z"/><path class="a" d="M401.17,51.38a3.71,3.71,0,0,1-3.83,3.36,3.45,3.45,0,0,1-3.4-3.71,3.85,3.85,0,0,1,3.75-3.5,4.09,4.09,0,0,1,3.48,3.85Z"/><path class="a" d="M551.06,53.74a3.53,3.53,0,0,1,3.62,3.54,3.35,3.35,0,0,1-3.19,3.15A3.14,3.14,0,0,1,548,57.7a3.44,3.44,0,0,1,3.06-3.96Z"/><path class="a" d="M74.76,420.33A3.64,3.64,0,0,1,78.2,424a3.19,3.19,0,0,1-3.07,3.22,3.41,3.41,0,0,1-3.87-3.18A3.8,3.8,0,0,1,74.76,420.33Z"/><path class="a" d="M83.9,270.45a3.12,3.12,0,0,1-3.37,2.91,3.19,3.19,0,0,1-3.09-3.22,3.25,3.25,0,0,1,3.77-3.24,3.16,3.16,0,0,1,2.69,3.55Z"/><path class="a" d="M536.93,518.64a3.31,3.31,0,0,1-3.47,3.55,3.18,3.18,0,0,1-3.18-3.08,3.1,3.1,0,0,1,2.71-3.48,3.33,3.33,0,0,1,3.94,3.01Z"/><path class="a" d="M475,31.82a3.32,3.32,0,0,1-3-3.4,3.23,3.23,0,0,1,3.78-3.28,3.37,3.37,0,1,1-.8,6.68Z"/><path class="a" d="M453.07,27.64a3.47,3.47,0,0,1-4,3.05,3.26,3.26,0,0,1,.35-6.5,3.49,3.49,0,0,1,3.65,3.45Z"/><path class="a" d="M67.36,625.88a3.24,3.24,0,0,1,2.87,3.42,3.47,3.47,0,0,1-3.77,3.29,3.7,3.7,0,0,1-2.95-3.5,3.45,3.45,0,0,1,3.85-3.21Z"/><path class="a" d="M601.77,161.73a3.58,3.58,0,0,1-3.11,3.29,3.4,3.4,0,0,1-3.42-2.89,3.52,3.52,0,0,1,3.38-3.72,3.83,3.83,0,0,1,3.15,3.32Z"/><path class="a" d="M579.35,84a3.4,3.4,0,0,1-3.07,3.33,3.56,3.56,0,0,1-3.69-3.51,3.65,3.65,0,0,1,3.87-3.34A3.55,3.55,0,0,1,579.35,84Z"/><path class="a" d="M50.66,294.47A3.48,3.48,0,0,1,54,291.38a3.68,3.68,0,0,1,3.33,3.9,3.52,3.52,0,0,1-4.16,3,3.41,3.41,0,0,1-2.51-3.81Z"/><path class="a" d="M101.78,476.76A3.23,3.23,0,1,1,99,473.2a3.31,3.31,0,0,1,2.78,3.56Z"/><path class="a" d="M183.76,270.9a3.29,3.29,0,0,1,2.85,3.43,3.283,3.283,0,1,1-6.51-.84,3.37,3.37,0,0,1,3.66-2.59Z"/><path class="a" d="M64.82,677a3.38,3.38,0,0,1,.65,6.7,3.42,3.42,0,0,1-3.8-3.35A3.59,3.59,0,0,1,64.82,677Z"/><path class="a" d="M602.74,135.92a3.27,3.27,0,1,1-3.39-3.08,3.37,3.37,0,0,1,3.39,3.08Z"/><path class="a" d="M508.74,569.84a3.06,3.06,0,0,1-5.94-1.39,3.24,3.24,0,0,1,3.72-2.45A3.18,3.18,0,0,1,508.74,569.84Z"/><path class="a" d="M501,26.3a3.08,3.08,0,0,1,3.31,3,3,3,0,0,1-3,3.25A3.129,3.129,0,1,1,501,26.3Z"/><path class="a" d="M347.08,100.66a3.07,3.07,0,0,1-3.48,2.64,3,3,0,0,1-2.55-3.52,3.06,3.06,0,0,1,6,.88Z"/><path class="a" d="M117.12,734a3.03,3.03,0,0,1-6.06-.11,3,3,0,0,1,3.11-3.14,2.9,2.9,0,0,1,2.95,3.25Z"/><path class="a" d="M494.06,311.79c-1.58,1.16-2.54,2.31-3.73,2.63-1.6.45-3.09-1.5-2.82-3.28.24-1.48,1.74-2.79,3.08-2.25C491.73,309.36,492.59,310.52,494.06,311.79Z"/><path class="a" d="M403.43,561.3c1.15,1.59,2.27,2.57,2.61,3.76.43,1.58-1.52,3-3.34,2.74-1.53-.23-2.77-1.7-2.19-3.08C401,563.58,402.16,562.74,403.43,561.3Z"/><path class="a" d="M505.65,489.79c1.84.83,3.13,1.33,4.34,2s2.06,1.68,1,2.78a4.28,4.28,0,0,1-3.15.89,3.06,3.06,0,0,1-2-1.75C505.43,492.7,505.68,491.5,505.65,489.79Z"/><path class="a" d="M52.86,397.4c-.31,2.07-1.71,3-3.24,2.81a2.69,2.69,0,0,1-2.45-2.94c.21-1.68,2.2-3.3,3.51-2.53C51.73,395.36,52.34,396.72,52.86,397.4Z"/><path class="a" d="M483,567.34a3,3,0,0,1-2.7,3.45,2.84,2.84,0,0,1-3-2.44c-.12-1.71,1.6-3.74,3-3.22C481.45,565.56,482.33,566.77,483,567.34Z"/><path class="a" d="M603.72,110.35a2.93,2.93,0,0,1-2.8,2.69,2.66,2.66,0,0,1-2.89-2.53,2.79,2.79,0,0,1,3.09-3.08A3,3,0,0,1,603.72,110.35Z"/><path class="a" d="M534.43,569.77c-.23,2.11-1.62,3.14-3.14,3a2.68,2.68,0,0,1-2.55-2.87c.15-1.7,2.13-3.42,3.45-2.69C533.26,567.76,533.9,569.12,534.43,569.77Z"/><path class="a" d="M27.71,322a2.55,2.55,0,0,1-2.77-2.64,2.73,2.73,0,0,1,2.59-2.87,2.76,2.76,0,1,1,.18,5.51Z"/><path class="a" d="M428,26.68c-1.6,1.13-2.56,2.19-3.72,2.52-1.44.4-2.73-1-2.8-2.54-.07-1.87,1.51-3.55,3.12-2.95C425.68,24.13,426.5,25.36,428,26.68Z"/><path class="a" d="M529.25,30.78a2.62,2.62,0,0,1-3,2.39,2.91,2.91,0,0,1-2.67-2.82,3,3,0,0,1,3.46-2.78,2.88,2.88,0,0,1,2.21,3.21Z"/><path class="a" d="M68.6,606c-2.12.07-3.32-1.09-3.33-2.55a2.46,2.46,0,0,1,2.62-2.59c1.52,0,3,1.25,2.65,2.53A8.539,8.539,0,0,1,68.6,606Z"/><path class="a" d="M600.14,187.41a2.5,2.5,0,0,1-2.62,2.74,2.76,2.76,0,0,1-2.86-2.63,3.06,3.06,0,0,1,2.73-2.85,2.79,2.79,0,0,1,2.75,2.74Z"/><path class="a" d="M580.59,57.83c-1.56,1.29-2.42,2.4-3.55,2.83s-2.65-1.24-2.59-2.66,1-2.47,2.15-2.35S578.83,56.81,580.59,57.83Z"/><path class="a" d="M66.64,705.35c.13,2.06-1.06,3.26-2.6,3.31a2.51,2.51,0,0,1-2.71-2.53c0-1.45,1.31-3,2.56-2.67a9.492,9.492,0,0,1,2.75,1.89Z"/><path class="a" d="M462.59,365.33c-1.18-1.66-2.27-2.61-2.56-3.76s1.44-2.57,2.89-2.34,2.41,1.12,2.15,2.33S463.74,363.66,462.59,365.33Z"/><path class="a" d="M29.16,346a9,9,0,0,1-2.85,1.68c-1.3.25-2.38-1.39-2.28-2.9a2.43,2.43,0,0,1,2.88-2.3A2.81,2.81,0,0,1,29.16,346Z"/><path class="a" d="M87.91,730.22a2.82,2.82,0,0,1,3.35,2.6,2.58,2.58,0,0,1-2.68,2.61,2.14,2.14,0,0,1-2.25-2.22C86.47,732.06,87.47,731,87.91,730.22Z"/><path class="a" d="M457.29,566.31c.11,2.17-1,3.32-2.52,3.31A2.66,2.66,0,0,1,452,567.1c0-1.35,1.29-2.93,2.62-2.62C455.72,564.74,456.63,565.83,457.29,566.31Z"/><path class="a" d="M39.78,657c-.84-1.44-1.69-2.31-1.81-3.27-.17-1.37,1.68-2.54,2.94-2s2,1.52,1.54,2.72C42.09,655.38,41,656,39.78,657Z"/><path class="a" d="M533.77,596c-1.48.94-2.36,1.91-3.31,2-1.3.11-2.1-1-2.08-2.36,0-1.19,1.37-2.46,2.43-2.05S532.46,594.88,533.77,596Z"/><path class="a" d="M54.84,266.67a2.46,2.46,0,0,1,2.55,2.68,2.12,2.12,0,0,1-2.31,2.1,4,4,0,0,1-2.52-1.95C52,268.36,53.41,266.75,54.84,266.67Z"/><path class="a" d="M555.42,31.62c-1.49.93-2.36,1.9-3.31,2-1.3.1-2.1-1-2.09-2.37,0-1.19,1.37-2.45,2.43-2.05S554.1,30.5,555.42,31.62Z"/><path class="a" d="M186.7,762.57c1.34-1.14,2.05-2.11,3-2.46,1.32-.48,2.77.89,2.82,2.35a2.16,2.16,0,0,1-2.07,2.38C189.33,764.74,188.32,763.61,186.7,762.57Z"/><path class="a" d="M543.47,265.59c-1.07-1.25-2.05-2-2.4-2.9-.48-1.3,1.12-2.74,2.63-2.52,1.34.2,2.35,1.11,2.08,2.39C545.58,263.5,544.53,264.26,543.47,265.59Z"/><path class="a" d="M559.47,571.05a2.37,2.37,0,0,1-2.89,2.38,2.22,2.22,0,0,1-2.06-2.47,2.42,2.42,0,0,1,2.15-2.47,2.53,2.53,0,0,1,2.8,2.56Z"/><path class="a" d="M560.59,546.19a9.079,9.079,0,0,1-2.9,1.59c-1.42.24-2.42-1.24-2.3-2.83a2.44,2.44,0,0,1,2.88-2.28C559.79,542.87,560.85,544.13,560.59,546.19Z"/><path class="a" d="M98.29,553.16c-.35,2-1.92,3-3.34,2.58a2.28,2.28,0,0,1-1.82-2.59c.1-1.51,1.54-2.89,2.78-2.32C97,551.32,97.69,552.54,98.29,553.16Z"/><path class="a" d="M431.43,566.16a2.3,2.3,0,0,1-2.72,2.4,2.35,2.35,0,0,1-2.29-2.19,2.56,2.56,0,0,1,2.43-2.81,2.48,2.48,0,0,1,2.58,2.6Z"/><path class="a" d="M97.77,504.8c-1.1-1.35-2.12-2.07-2.34-3a1.972,1.972,0,0,1,2-2.36,1.9,1.9,0,0,1,2.22,2.11C99.57,502.51,98.66,503.36,97.77,504.8Z"/><path class="a" d="M516.8,283.6c1,1.37,1.91,2.16,2.13,3.12a2.19,2.19,0,0,1-2.67,2.42c-1.33-.32-2.17-1.33-1.78-2.6C514.76,285.6,515.75,284.88,516.8,283.6Z"/><path class="a" d="M25.3,372.85c-.43-.47-1.5-1.11-1.7-2a1.78,1.78,0,0,1,2-2.12,2.87,2.87,0,0,1,1.86,1.57C28,371.47,27.08,372.66,25.3,372.85Z"/><path class="a" d="M96.59,524.65a12.371,12.371,0,0,1,1.92,2.62,1.806,1.806,0,0,1-2,2.24c-.75-.23-1.9-1.2-1.83-1.71C94.81,526.87,95.69,526,96.59,524.65Z"/><path class="a" d="M41.13,680.66a7.8,7.8,0,0,1-2.67.65c-1.16-.08-1.78-1.66-1.3-2.74A2.15,2.15,0,0,1,40,677.28C41.17,677.62,41.81,679.07,41.13,680.66Z"/><path class="a" d="M374.8,50.42c-1.45.91-2.3,1.85-3.21,1.91a1.91,1.91,0,0,1-2-2.31c.12-1.36,1-2.3,2.3-2C372.79,48.21,373.49,49.29,374.8,50.42Z"/><path class="a" d="M604.84,85.09c-1.57.86-2.47,1.7-3.4,1.74-.59,0-1.51-1-1.78-1.79a1.91,1.91,0,0,1,2.05-2.27C602.64,83,603.39,84,604.84,85.09Z"/><path class="a" d="M28.68,290.94c.91,1.33,1.87,2.14,2,3A1.9,1.9,0,0,1,28.45,296c-1.26-.08-2.34-1-2.07-2.22C26.57,292.92,27.63,292.2,28.68,290.94Z"/><path class="a" d="M573.16,238.18c-1.55.74-2.5,1.56-3.44,1.54a1.9,1.9,0,0,1-1.83-2.43,2,2,0,0,1,2.56-1.73C571.33,235.87,571.94,237,573.16,238.18Z"/><path class="a" d="M164.8,758.37c.89,1.43,1.77,2.27,1.91,3.22a1.881,1.881,0,0,1-2.21,2.08c-1.21-.09-2.4-.89-2-2.29C162.76,760.44,163.73,759.71,164.8,758.37Z"/><path class="a" d="M73.79,446.6c1,1.49,1.87,2.3,2,3.21.07.56-.93,1.55-1.65,1.84-1.07.44-2.63-.75-2.39-1.83S72.79,448.1,73.79,446.6Z"/><path class="a" d="M504.78,597.58A11.924,11.924,0,0,1,502.9,595a1.85,1.85,0,0,1,2.14-2.14c.76.26,1.91,1.3,1.81,1.75C506.64,595.52,505.72,596.31,504.78,597.58Z"/><path class="a" d="M558.09,597.05a6.811,6.811,0,0,1-1.56,1.6c-1,.53-2.7-.53-2.58-1.62a3.18,3.18,0,0,1,1.44-2.1C556.48,594.32,557.85,595.27,558.09,597.05Z"/><path class="a" d="M212,275.06c-1.24.88-1.86,1.59-2.62,1.8-1.26.36-2.58-.79-2.22-1.9.24-.77,1.2-1.92,1.68-1.85C209.77,273.24,210.59,274.13,212,275.06Z"/><path class="a" d="M266.47,716.25c-1.12-3.13-.27-4.65,2.11-5.7C269.28,713.15,269.27,713.15,266.47,716.25Z"/><path class="a" d="M141.53,761.51c-1.51.42-2.32.88-3.08.8a1.61,1.61,0,0,1-1.34-2.51c.47-.62,1.73-1.39,2.13-1.17C140.05,759.07,140.51,760.15,141.53,761.51Z"/><path class="a" d="M215.76,766c-.95-1.1-1.83-1.67-1.94-2.36a1.84,1.84,0,0,1,2-2.18c.62,0,1.74,1.1,1.69,1.6C217.4,763.93,216.57,764.72,215.76,766Z"/><path class="a" d="M398.47,28.24a11.349,11.349,0,0,1-1.82-2.49,1.69,1.69,0,0,1,1.91-2.13c.73.22,1.88,1.16,1.8,1.61C400.2,26.14,399.35,26.93,398.47,28.24Z"/><path class="a" d="M599.13,212.7c-1,.88-1.61,1.76-2.24,1.8a2.74,2.74,0,0,1-2.1-1.09c-.56-.88.66-2.56,1.71-2.35C597.26,211.22,597.91,211.91,599.13,212.7Z"/><path class="a" d="M132.91,243.84c1,1.09,1.92,1.63,2.1,2.35a1.45,1.45,0,0,1-1.64,1.8,2.66,2.66,0,0,1-1.89-1.54C131.34,245.88,132.2,245.06,132.91,243.84Z"/><path class="a" d="M582.85,574.47c-.83-1-1.6-1.52-1.85-2.25a1.49,1.49,0,0,1,1.31-2c1.18-.26,2.63.78,2.33,1.79a10.168,10.168,0,0,1-1.79,2.46Z"/><path class="a" d="M504.63,3.76c-1.2.84-2,1.82-2.58,1.72a2.57,2.57,0,0,1-1.68-1.87C500.37,3,501.5,2,502.21,2S503.52,2.89,504.63,3.76Z"/><path class="a" d="M478.92,2.39c-1.13,1-1.69,1.89-2.44,2.1-1.06.29-1.81-.52-1.85-1.62s.26-2.08,1.52-1.93C476.93,1,477.64,1.69,478.92,2.39Z"/><path class="a" d="M110,245.78c-1.3.65-2,1.27-2.78,1.34-1.16.11-2.24-1.57-1.57-2.39a2.85,2.85,0,0,1,2.21-1C108.5,243.84,109,244.78,110,245.78Z"/><path class="a" d="M43.66,628.05c-1,.91-1.52,1.68-2.25,2-1,.44-2.34-.85-2-2a2.58,2.58,0,0,1,1.78-1.56C41.89,626.44,42.59,627.31,43.66,628.05Z"/><path class="a" d="M347.58,74.14c-1.23,1.08-1.9,2.08-2.45,2s-1.35-1-1.78-1.67c-.1-.17.77-1.32,1.24-1.35C345.31,73.08,346.07,73.59,347.58,74.14Z"/><path class="a" d="M453.11,1.2c-1.2,1.05-1.85,2.05-2.41,2s-1.35-1-1.75-1.66c-.11-.19.73-1.33,1.17-1.36C450.86.14,451.63.65,453.11,1.2Z"/><path class="a" d="M626,162.81c-.53.59-1.25,1.58-1.4,1.51a10.3,10.3,0,0,1-1.94-1.64l2-1.59C625.06,161.64,625.47,162.18,626,162.81Z"/><path class="a" d="M482.76,593.83c-2.62.85-3.39,1.31-4.11,1.24a1.8,1.8,0,0,1-1.06-1.44c.08-1.12,1-1.52,2-1.23a29.183,29.183,0,0,1,3.17,1.43Z"/><path class="a" d="M581.71,599.67a7.819,7.819,0,0,1-1.45-2.14c-.07-.3.78-1.12,1.29-1.2a1.32,1.32,0,0,1,1.67,1.54C583.15,598.39,582.47,598.81,581.71,599.67Z"/><path class="a" d="M65.64,732.21c-1.57.59-2.3,1.1-3,1.06-.44,0-1.29-1.09-1.2-1.26.38-.69,1-1.59,1.65-1.68S64.31,731.18,65.64,732.21Z"/><path class="a" d="M583.4,544.6c.65.49,1.6,1,1.54,1.19a10.357,10.357,0,0,1-1.33,2c-.46-.47-1.21-.89-1.3-1.42S582.92,545.3,583.4,544.6Z"/><path class="a" d="M29.73,269.92c-.62-.59-1.23-.93-1.48-1.45-.37-.8.65-1.85,1.55-1.53a1.89,1.89,0,0,1,1.13,1.33C30.92,268.76,30.25,269.25,29.73,269.92Z"/><path class="a" d="M555.56,620.94c.35.82.92,1.53.75,1.92a1.84,1.84,0,0,1-1.56.92,1.9,1.9,0,0,1-1-1.57C553.85,621.79,554.75,621.48,555.56,620.94Z"/><path class="a" d="M261,303.71c-.54.65-.78,1.22-1.08,1.25a3.22,3.22,0,0,1-2-.27c-.48-.34-.6-1.18-.88-1.8.59-.24,1.28-.8,1.75-.66a9.59,9.59,0,0,1,2.21,1.48Z"/><path class="a" d="M604.6,59.38c-.88.52-1.52,1.19-2,1.08s-.78-1-1.16-1.5c.52-.36,1.06-1,1.56-1S603.93,58.74,604.6,59.38Z"/><path class="a" d="M38.09,702.8c.81,1,1.46,1.48,1.53,2,.12,1-.3,2-1.51,1.72-.53-.09-1.34-.87-1.31-1.27C36.86,704.56,37.47,703.9,38.09,702.8Z"/><path class="a" d="M626,108.5c.91,1.88,1.44,2.48,1.33,2.92a1.62,1.62,0,0,1-1.34.91,1.74,1.74,0,0,1-1-1.34A8.924,8.924,0,0,1,626,108.5Z"/><path class="a" d="M57.08,243.79a5.92,5.92,0,0,1-1.64.5c-.19,0-.63-.95-.55-1a8.88,8.88,0,0,1,1.55-1Z"/><path class="a" d="M4.51,318.17c-1.81.84-2.42,1.37-2.86,1.27a1.64,1.64,0,0,1-.91-1.36,1.74,1.74,0,0,1,1.36-.94C2.68,317.12,3.27,317.6,4.51,318.17Z"/><path class="a" d="M82.15,242.08a15.1,15.1,0,0,1,.94,2.13,1.31,1.31,0,0,1-1.73,1.45,1.9,1.9,0,0,1-1-1.48C80.44,243.71,81.12,243.27,82.15,242.08Z"/><path class="a" d="M158.25,248.93c-.38-.82-.91-1.43-.78-1.84a1.818,1.818,0,0,1,1.34-.93,1.73,1.73,0,0,1,1,1.38C159.74,248,159,248.31,158.25,248.93Z"/><path class="a" d="M454.84,593.4a6,6,0,0,1-1.73.21c-.2,0-.48-1-.42-1.08a10.361,10.361,0,0,1,1.65-.67C454.48,592.28,454.61,592.7,454.84,593.4Z"/><path class="a" d="M71.55,577.91c-1.81.85-2.41,1.38-2.86,1.27a1.64,1.64,0,0,1-.9-1.35,1.73,1.73,0,0,1,1.35-1A10.79,10.79,0,0,1,71.55,577.91Z"/><path class="a" d="M.38,342.94l1.49.64A10.479,10.479,0,0,1,1,345.07c-.06.07-1-.31-1-.51a6,6,0,0,1,.38-1.62Z"/><path class="a" d="M623.4,137c.69-.56,1.15-1.23,1.63-1.24a2,2,0,0,1,1.5,1c.39.83-.69,2-1.51,1.69A10.1,10.1,0,0,1,623.4,137Z"/><path class="a" d="M343.56,225.75a17.492,17.492,0,0,1,.61,2.31c0,.2-.49.5-.8.69-.05,0-.42-.22-.43-.37-.09-.82-.12-1.66-.17-2.49Z"/><path class="a" d="M580.68,32.24c-1.81.84-2.41,1.37-2.86,1.26a1.6,1.6,0,0,1-.9-1.35,1.72,1.72,0,0,1,1.35-.95C578.85,31.19,579.44,31.67,580.68,32.24Z"/><path class="a" d="M113.51,757.91c.39.74,1,1.31.89,1.78a2,2,0,0,1-1.22,1.28,1.351,1.351,0,0,1-1.42-1.79C112,758.68,112.76,758.43,113.51,757.91Z"/><path class="a" d="M530,620c.36.81.88,1.42.75,1.82s-.88.69-1.36,1c-.34-.49-1-1-.94-1.48S529.24,620.57,530,620Z"/><path class="a" d="M529.16,4.68c-.75.52-1.31,1.22-1.77,1.15s-1.28-.92-1.22-1.31a1.93,1.93,0,0,1,1.35-1.31C528,3.18,528.46,4,529.16,4.68Z"/><path class="a" d="M580.54,624.51l-.74-1.12,1.53-.76c.1.43.39.92.26,1.25S580.91,624.31,580.54,624.51Z"/><path class="a" d="M87.85,757.62l.88.88-1.49,1.12c-.15-.44-.46-.92-.39-1.32S87.49,757.84,87.85,757.62Z"/><path class="a" d="M504.94,620.16c-.29.62-.47,1-.64,1.38a6.726,6.726,0,0,1-1.34-.91c-.1-.1.3-.94.44-.93a6.261,6.261,0,0,1,1.54.46Z"/><path class="a" d="M607.91,598.11a9,9,0,0,1,.22,1.15c0,.06-.35.15-.55.22a7.265,7.265,0,0,1-.25-1.1C607.33,598.31,607.71,598.2,607.91,598.11Z"/><path class="a" d="M50.47,422.81l-.86,1.26-1.55-1.87c.4-.14.88-.51,1.19-.4a5.05,5.05,0,0,1,1.22,1.01Z"/><path class="a" d="M426.37,1.22a6.85,6.85,0,0,1-1.72.28c-.16,0-.28-.67-.42-1a6,6,0,0,1,1.53-.5C425.92,0,426.11.67,426.37,1.22Z"/><path class="a" d="M624.35,188.05a6.09,6.09,0,0,1-.61,1.26,9.644,9.644,0,0,1-1.6-.59c.21-.35.37-1,.62-1A4.91,4.91,0,0,1,624.35,188.05Z"/><path class="a" d="M37.63,730.25a7.926,7.926,0,0,1,.23,1.16c0,.05-.36.14-.55.21a6.88,6.88,0,0,1-.25-1.09C37.05,730.45,37.43,730.35,37.63,730.25Z"/><path class="a" d="M529.53,647.15a6.219,6.219,0,0,1-1.08.3c-.09,0-.21-.33-.32-.51a9.705,9.705,0,0,1,1.13-.34C529.32,646.6,529.44,647,529.53,647.15Z"/><path class="a" d="M626.24,85.62c.42-.19.83-.51,1.21-.48.21,0,.39.59.58.91-.37.15-.76.47-1.09.42S626.47,85.92,626.24,85.62Z"/><path class="a" d="M3.77,292.75c-.26.29-.48.77-.75.8s-.72-.3-1.07-.48c.21-.31.42-.88.64-.87C3,292.2,3.35,292.53,3.77,292.75Z"/><path class="a" d="M554.21,6c-.35.22-.72.63-1,.6s-.69-.49-1-.75c.38-.22.77-.61,1.14-.59S553.9,5.77,554.21,6Z"/><path class="a" d="M14.72,652.26a7.646,7.646,0,0,1,.39,1.17c0,.1-.31.26-.48.4a6.63,6.63,0,0,1-.36-1.12C14.26,652.58,14.56,652.41,14.72,652.26Z"/><path class="a" d="M607.16,624a1.028,1.028,0,0,1-.1.58c-.1.11-.4.07-.6.1a5.558,5.558,0,0,1,.14-.91Z"/><path class="a" d="M609.33,573.14a5.125,5.125,0,0,1-1.05.39c-.1,0-.27-.29-.42-.45a8.728,8.728,0,0,1,1.12-.45C609.05,572.61,609.21,573,609.33,573.14Z"/><path class="a" d="M43.14,602.5c-.35.22-.72.63-1,.6s-.69-.49-1-.75c.38-.22.76-.61,1.13-.6S42.83,602.23,43.14,602.5Z"/></svg>