<svg xmlns="http://www.w3.org/2000/svg" width="830.274" height="785.225" viewBox="0 0 830.274 785.225"><defs><style>.a{fill:#1a1a1a;}</style></defs><g transform="translate(-0.031 -0.037)"><path class="a" d="M306.15,287a46.586,46.586,0,0,1-1-5.72,50,50,0,0,1,.33-5.85A48.056,48.056,0,0,1,299,276a40.138,40.138,0,0,1-5.92-1.1,48.856,48.856,0,0,1,1,5,11.31,11.31,0,0,1-6.73,11.79A11.75,11.75,0,0,1,272.5,275a11.1,11.1,0,0,1,10.23-5.57,36.86,36.86,0,0,1,5.5.94c-.77-3.91-2.05-7.79-.5-11.92a65.195,65.195,0,0,1-7.52.24,11.64,11.64,0,0,1-7.26-3.38,11.13,11.13,0,0,1-3.42-6.61,65.412,65.412,0,0,1-.1-7.41c-14.56,1.74-19.3-7.09-16.8-18-14,2.87-21-6.33-16.7-18.7-7.85,2.61-12.33,1.82-16.18-2.84a11.48,11.48,0,0,1-.68-13.6c3.43-5.33,8.56-6.16,14.76-4.67-.1-1.05-.19-1.9-.26-2.74-.24-2.67-.48-5.35-.74-8.34a42.681,42.681,0,0,1-5.36.15,54.063,54.063,0,0,1-6-1.22c.35,1.57.77,3,.94,4.35a11,11,0,0,1-6.53,11.86,11.32,11.32,0,0,1-14-16.82,10.71,10.71,0,0,1,9.43-4.83,37.258,37.258,0,0,1,5.46.88c-1.18-3.93-2.09-7.86-.83-12.21-4.37.81-8.39.81-12.13-1.18-1.19,1.18.08,1.83.18,2.62s.43,1.49.54,2.26a11.22,11.22,0,1,1-22-.93,11,11,0,0,1,11.64-8.51,45.765,45.765,0,0,1,5.47,1.11c-1.63-4.19-2.61-8.3-1.09-12.67-.72-.19-1.29-.54-1.73-.42a13.27,13.27,0,0,1-11.09-1.71c-1.24,1.36,0,2.2.36,3.18,1.49,4.14,1.13,8-1.76,11.48a11.09,11.09,0,0,1-14.68,2.46,11.23,11.23,0,0,1-4.42-13.76A11.1,11.1,0,0,1,178,131.7c1.47.3,2.88.88,5,1.54-.67-1.64-1.24-2.75-1.59-3.92a18.64,18.64,0,0,1-.8-4,12.61,12.61,0,0,1,.35-3.45c.28-1.3.74-2.57,1.21-4.11a46.126,46.126,0,0,1-5.18,1.49A11.51,11.51,0,0,1,165,113.69a11.75,11.75,0,0,1,.72-13.18c2.57-3.73,7.86-5.41,12.49-4.17a11.64,11.64,0,0,1,8.59,12.3,43.307,43.307,0,0,1-1.22,5.41c4.29-1.17,8.54-2.51,13.43,0-1.85-7.06-1.75-13.08,4.7-16.93a11.43,11.43,0,0,1,13.64.78c4.93,3.79,5.52,9,3.65,15.18a46.2,46.2,0,0,1,6.36-.92,48.822,48.822,0,0,1,6.56.83c.53-1.35-.45-2.49-.65-3.69-.92-5.41,1.13-9.52,5.53-12.51a11.59,11.59,0,0,1,13.15.48,11.36,11.36,0,0,1,4.78,11.19,42.106,42.106,0,0,1-1.4,5.44c1.3-.47,2.41-.93,3.56-1.27,9.38-2.71,17.42,4.45,15.76,14-.2,1.14-.58,2.25-1,3.73,1.24-.25,2.31-.43,3.35-.7,9.79-2.53,17.69,5.86,15.2,15.19l-.73,2.8c9-1.56,13.55-.43,16.52,3.91a12.75,12.75,0,0,1,.11,14.28c-2.49,3.91-7.47,5.32-15.39,4.24a44.708,44.708,0,0,1,.92,5.68,48.88,48.88,0,0,1-.5,6.06,41,41,0,0,1,6.07-.56,49,49,0,0,1,6.44,1.21,42.221,42.221,0,0,1-1.21-4.59,11.65,11.65,0,0,1,6.42-12.55A11.78,11.78,0,0,1,326,182.14c-2.48,4-6.25,5.7-10.87,5.43a39.189,39.189,0,0,1-5.29-1.08,39.788,39.788,0,0,1,1.3,6.23,45.071,45.071,0,0,1-.63,6.68c1.41-.25,2.81-.63,4.22-.74,4.74-.36,8.86.9,11.57,5.1a11.927,11.927,0,0,1-.17,14.18c-2.37,3.46-5.89,4.94-10,4.95-1.5,0-3-.27-4.83-.45a50.6,50.6,0,0,1,.64,5.85,43.364,43.364,0,0,1-.71,5.54,47.413,47.413,0,0,1,6-.65,39.781,39.781,0,0,1,5.57.82c1-1,0-1.88-.06-2.77a20.611,20.611,0,0,1-.36-4c.85-7.3,4.12-10.87,12.4-10.89,6.5,0,11.5,6,11,12.53a11.8,11.8,0,0,1-12.75,10.87c-1.48-.12-2.94-.51-4.75-.83a43.053,43.053,0,0,1,1.06,6.44,41,41,0,0,1-.81,6.16c9.87-1.2,13.39-.09,16.44,5,2.84,4.72,2.25,9.29-.5,13.73-2.46,4-7.53,5.19-15.62,3.86-.26,1.37.77,2.45.84,3.67a39.716,39.716,0,0,1,.17,4.62,36.449,36.449,0,0,1-.8,4.35c1.76-.35,3.17-.74,4.6-.9,5.41-.61,9.46,1.66,12.24,6.18a12.4,12.4,0,0,1-1.14,13.71c-2.81,3.38-6.64,4.61-10.95,4.19a40.715,40.715,0,0,1-4.87-1.09,17,17,0,0,1,.33,12.8c2.39-.39,4.39-1.05,6.36-.95a19.22,19.22,0,0,1,6.13,1.47,8.7,8.7,0,0,1,4.81,4.86A17.65,17.65,0,0,1,348,333.1c0,2.07-.73,4.15-1.19,6.44,1.39-.38,2.81-.88,4.28-1.14,5.05-.91,9.24.64,12.29,4.79a12,12,0,0,1-12.22,18.62c-1.32-.25-2.59-.74-4.29-1.23.5,2.38,1.29,4.56,1.32,6.75s-.67,4.55-1.1,7.1c.83-.2,1.83-.43,2.82-.68a18.087,18.087,0,0,1,2.25-.57c8.16-1,14.41,4.47,13.9,13.06a38.1,38.1,0,0,1-1,5c1.23-.24,2.3-.42,3.35-.67,10.3-2.41,17.51,6.91,14.59,15.6-.25.72-.47,1.46-.65,2.2,0,.12.18.31.29.46,8.79-2.28,13.64-1,16.84,4.33,2.69,4.52,2.22,11.08-1,14.76s-10.43,4.49-15.17,1.84c-5.25-2.93-6.69-8-4.74-16.76-8.52,1.7-11.71,1.35-15.15-2-4.28-4.11-4.55-9.14-2.64-14.88-1.9-.2-3.21.9-4.64.91a21.551,21.551,0,0,1-4.62-.16,12.56,12.56,0,0,1-4.25-1.78,11.9,11.9,0,0,1-3.24-3.28,12.47,12.47,0,0,1-1.72-4.28,14.841,14.841,0,0,1-.07-4.61,41.909,41.909,0,0,1,1.27-5c-6.39,3-12,2.72-16.54-2.48a11.75,11.75,0,0,1-1-13.65c4.12-6.51,10.16-6.92,17.31-4.41a46.647,46.647,0,0,1-1.37-4.74,14.411,14.411,0,0,1-.16-4,39.755,39.755,0,0,1,1-4.58c-1-.86-1.68.26-2.48.37s-1.87.56-2.83.65a16.109,16.109,0,0,1-3.47,0,21.347,21.347,0,0,1-2.79-.76c-.9-.24-1.8-.46-2.9-.74,3,7.52,1.91,13.61-2.67,16.59a12.13,12.13,0,0,1-15.09-1,11.88,11.88,0,0,1-2-14.46c3.33-5.46,9-6.86,16.81-3.88-1.47-4.56-2.88-8.93-.45-13.83l-3.67.69c-9.74,1.84-16.85-5.12-15.24-14.92.15-.93.41-1.84.65-2.88-1.54-.88-2.68.28-3.89.47-4.81.72-9-.56-11.95-4.38a11.94,11.94,0,0,1-1.55-12.65,11.73,11.73,0,0,1,11.65-7.05A44.06,44.06,0,0,1,306.15,287Zm17.77,5a36.472,36.472,0,0,1-4,.79,26.408,26.408,0,0,1-4.62.06,32.76,32.76,0,0,1-4-.86,43.585,43.585,0,0,1,.92,4.34,20.3,20.3,0,0,1,0,4,34.168,34.168,0,0,1-.76,3.81,44.453,44.453,0,0,1,6.66-1,40.358,40.358,0,0,1,6.28,1c-1.54-5.86-1.54-5.86-.48-12.14ZM251.1,129.34c-.82-6-.82-6,.83-12.13a45.1,45.1,0,0,1-4.46,1.28,15.77,15.77,0,0,1-4,.16c-1.41-.12-2.8-.52-4.86-.93,2.09,4.2,1.71,8.11,1.38,11.56Zm72.75,140.3a56.009,56.009,0,0,1-1.05-7,47.7,47.7,0,0,1,.81-6.54c-4.18,2.33-8,2-12.08,1,.37,1.7.73,2.95.89,4.23s0,2.3.08,3.46-1.15,2.49.16,4a14.85,14.85,0,0,1,11.19.85ZM275.59,153.11c.2,3.8.39,7.46.58,11.11a41.568,41.568,0,0,1,5.33-.49,51.751,51.751,0,0,1,5.83.88,28.481,28.481,0,0,1-.93-4.12c-.11-1.51.17-3,.14-4.57,0-1.19,1.64-2.31.26-3.54a41.823,41.823,0,0,1-5.69,1.14,36.821,36.821,0,0,1-5.52-.41Zm-60-34.14-10.9.26c.18,3.59.36,7.16.54,10.76,1.8-.24,3.5-.61,5.22-.67a41.581,41.581,0,0,1,4.75.32c.17-3.74.3-7.15.42-10.64Zm23.61,82.68c4.06-2.22,8.22-2.26,12.49-1.67a50.455,50.455,0,0,1-.87-5,50.919,50.919,0,0,1,.07-5.34c-1.93.1-3.63.31-5.32.23-1.86-.1-3.7-.48-5.66-.75,1.09,6,1.09,6-.68,12.53Zm30.22-66.79a38.585,38.585,0,0,1-4.15,1.19,35.537,35.537,0,0,1-4,.21c-1.2.06-2.42-1.11-3.72-.11a47.353,47.353,0,0,1,.78,5.21,45.818,45.818,0,0,1-.35,5.1l11.41.09c-1.91-3.98-.81-7.73.06-11.69Zm25.21,115.9,10.39.14c-.07-3.47-.14-7.14-.2-10.39l-10.39.34c.1,3.39.17,6.78.23,9.91ZM258.28,206.7a37.751,37.751,0,0,1,.51,5,46.708,46.708,0,0,1-.64,5.37l11.35-.58a48.933,48.933,0,0,1-.73-4.91A43.56,43.56,0,0,1,269,207Zm46.45,9.19a44.721,44.721,0,0,1-.54-5.26,52.147,52.147,0,0,1,.61-5.43,55.174,55.174,0,0,1-5.48.91,42.939,42.939,0,0,1-5-.2c.08,3.53.15,6.74.21,9.82ZM287.2,233.51c-.21-1.52-.56-3.22-.64-4.94a47.458,47.458,0,0,1,.25-5c-1.55.22-2.68.46-3.83.52s-2.31-.1-3.46-.08-2-1-2.89-.26c.1,3.5.18,6.74.26,9.75Zm-.2-45.17c-1.75.26-3.43.64-5.13.75a43.688,43.688,0,0,1-5-.08l1.62.31c-.3,3-.61,6.07-.92,9.26,1.05-.09,2.53-.31,4-.32,1.66,0,3.31.2,5.2.32a42.826,42.826,0,0,1-.4-4.9A38.549,38.549,0,0,1,287,188.34Zm-54.15-42.53a39.223,39.223,0,0,1-.23-4.18,43.692,43.692,0,0,1,.5-4.78l-9.88.35c.12,3.21.24,6.37.3,8Zm27.1,35.29c1.35-.1,2.88-.14,4.39-.33s2.91,1,4.27-.15c-.1-1.64-.21-3.16-.29-4.69s.66-2.88.29-4.29l-8.61.46c0,2.9-.06,5.75-.08,9Zm-17.61-17.32c.87-.07,2.39-.16,3.91-.3s2.94.64,4.24,0c0-3.28.06-6.14.1-9.12l-8.17.42c-.05,3.09-.08,5.78-.11,9Z"/><path class="a" d="M642.81,602c-11.3,3.89-21.5-4.43-17-17.56-1-.79-1.64.28-2.44.39s-1.49.45-2.25.57a11.9,11.9,0,1,1,9.8-10.64,40.662,40.662,0,0,1-1.36,5.44,28.776,28.776,0,0,0,3-.8c9-3.45,18.36,5,16.09,14.16-.22.87-.37,1.76-.57,2.72,8.56-1.07,11.71-.54,14.93,2.83,3.86,4,4.6,8.82,2.69,13.9,1.39,1.65,2.63.26,3.8.07,5.07-.85,9.21.65,12.35,4.68a12.55,12.55,0,0,1,0,15.18c-2.72,3.74-8.88,5.39-13.71,3.91-6.52-2-8.62-8.14-8.33-12.51a41.551,41.551,0,0,1,.77-4.55c-.86-1-1.75-.27-2.63-.09a18.8,18.8,0,0,1-2.86.49c-7.77.27-13.32-5.2-13.07-13a47.912,47.912,0,0,1,.79-5.19Z"/><path class="a" d="M573.4,531.55c-5.88,2.88-10.85,3.2-15.4-.79-5.18-4.55-5-10.11-2.5-16.11-8.64,3.05-14,1.82-17.66-3.89a12,12,0,0,1,16.47-16.45c5.61,3.65,6.88,9,4,16.94,13.8-5.07,22.69,4.38,18.22,17.42,8.79-2.5,14-1.18,17.28,4.36,2.54,4.32,1.74,11.47-1.65,14.69-3.59,3.42-10.51,4.13-14.7,1.5C572,545.76,570.64,540.59,573.4,531.55Z"/><path class="a" d="M415.69,428.27a12,12,0,1,1-16.638.024A12,12,0,0,1,415.69,428.27Z"/><path class="a" d="M433.35,462.18a11.76,11.76,0,0,1-16.67.38c-4.62-4.23-4.82-12.19-.58-16.8s12.65-4.88,17.23-.28A11.91,11.91,0,0,1,433.35,462.18Z"/><path class="a" d="M609.65,547.91c5,4.75,4.32,12.44.37,16.77-4.39,4.79-12.45,4.61-17.17-.2a11.8,11.8,0,1,1,16.8-16.571Z"/><path class="a" d="M682,650.88a11.67,11.67,0,1,1,8.453,3.19A11.68,11.68,0,0,1,682,650.88Z"/><path class="a" d="M503.86,479.58a12,12,0,0,1,0,16.74,11.75,11.75,0,0,1-16.66-.06,11.53,11.53,0,0,1,0-16.59,11.8,11.8,0,0,1,16.66-.09Z"/><path class="a" d="M344.74,323.69c-4.41-4.25-4.46-12.49-.11-16.91a11.94,11.94,0,0,1,16.76.06,11.78,11.78,0,0,1,.2,16.3C357.23,327.75,349.24,328,344.74,323.69Z"/><path class="a" d="M450.81,479.35a11.35,11.35,0,0,1-16.13.23c-5.11-5.12-4.91-12.06-.25-16.6,5.44-5.31,12.37-4.12,16.57.26a11.34,11.34,0,0,1-.19,16.11Z"/><path class="a" d="M469.54,478.82a11.551,11.551,0,0,1,16.4-16.27c4.24,4.32,5.19,10.84.15,16.19a11.2,11.2,0,0,1-16.55.08Z"/><path class="a" d="M363.25,375.46c-4.47-4.42-4.73-11.86-.23-16.17,4.94-4.73,11.4-4.63,16.24-.33s4.77,11.93.08,16.56a11.22,11.22,0,0,1-16.09-.06Z"/><path class="a" d="M360.54,271.83a11.29,11.29,0,0,1,.27,16.11c-5.12,5.16-11.19,4.51-16.26.75-4.74-3.52-4.56-12.18-.12-16.67a11.35,11.35,0,0,1,16.11-.19Z"/><path class="a" d="M538.53,495.29a11.85,11.85,0,0,1-16.32.06A11.43,11.43,0,0,1,538.15,479,11.89,11.89,0,0,1,538.53,495.29Z"/><path class="a" d="M341.44,184.91a11.35,11.35,0,1,1-8.092-3.264A11.25,11.25,0,0,1,341.44,184.91Z"/><path class="a" d="M184.07,82.42a11.266,11.266,0,1,1,.14,15.72,11.24,11.24,0,0,1-.14-15.72Z"/><path class="a" d="M521.13,512.92a11.369,11.369,0,1,1-.224-16.077,11.367,11.367,0,0,1,.224,16.077Z"/><path class="a" d="M664.6,668.06a11.44,11.44,0,1,1,8.117,3.373,11.44,11.44,0,0,1-8.117-3.373Z"/><path class="a" d="M149.91,117.59a11.19,11.19,0,1,1-3.32,8.114A11.27,11.27,0,0,1,149.91,117.59Z"/><path class="a" d="M662.86,650.75A11.22,11.22,0,1,1,663,635.1a11,11,0,0,1-.14,15.65Z"/><path class="a" d="M219.32,97.6a11.24,11.24,0,1,1,15.68.11A11.1,11.1,0,0,1,219.32,97.6Z"/><path class="a" d="M344,237.37a11.2,11.2,0,0,1,15.71-.18,11.38,11.38,0,0,1-.17,16.17A11.1,11.1,0,0,1,343.9,253a10.92,10.92,0,0,1,.1-15.63Z"/><path class="a" d="M289.89,115.81a10.9,10.9,0,0,1,15.61-.13,11.07,11.07,0,0,1,.38,15.65,11.28,11.28,0,0,1-16.14.15,11.12,11.12,0,0,1,.15-15.67Z"/><path class="a" d="M644.88,617.74a11.07,11.07,0,0,1,.2,15.69,11.3,11.3,0,0,1-15.76.17,11.11,11.11,0,0,1-.07-15.71,10.92,10.92,0,0,1,15.63-.15Z"/><path class="a" d="M467.77,445.65a11,11,0,0,1,.13,15.6,11.31,11.31,0,0,1-15.68.3,11.11,11.11,0,0,1,0-16,10.88,10.88,0,0,1,15.55.1Z"/><path class="a" d="M396.49,376.43a11,11,0,0,1,.45,15.67,11.32,11.32,0,0,1-15.76.41,11.12,11.12,0,0,1-.31-15.71,10.87,10.87,0,0,1,15.62-.37Z"/><path class="a" d="M287.51,98.29a11.1,11.1,0,0,1,.69,15.7,11.43,11.43,0,0,1-15.79.59,11.14,11.14,0,0,1-.52-15.71,10.87,10.87,0,0,1,15.62-.58Z"/><path class="a" d="M363.17,340.44c-4.56-4.73-4.51-11.33-.36-15.66a10.87,10.87,0,0,1,15.6-.46,11.15,11.15,0,0,1,.52,15.69A11.38,11.38,0,0,1,363.17,340.44Z"/><path class="a" d="M308.7,340.94a11,11,0,0,1-15.64.23,11.16,11.16,0,0,1-.44-15.27,11.32,11.32,0,0,1,15.73-.65A11.13,11.13,0,0,1,308.7,340.94Z"/><path class="a" d="M698.28,669.7a11.09,11.09,0,0,1,0,15.66,11.39,11.39,0,0,1-15.74-.15,11,11,0,0,1,.24-15.64,10.8,10.8,0,0,1,15.5.13Z"/><path class="a" d="M272.4,255.79a11.1,11.1,0,1,1-11.015-3.142A11.1,11.1,0,0,1,272.4,255.79Z"/><path class="a" d="M611.07,546.47a11,11,0,0,1-.46-15.67,11.33,11.33,0,0,1,15.79-.16,11,11,0,0,1,.25,15.28,10.71,10.71,0,0,1-15.58.55Z"/><path class="a" d="M611.91,616.4a11,11,0,0,1,.1-15.67,10.89,10.89,0,0,1,15.2.07,11,11,0,0,1,0,15.65A11.22,11.22,0,0,1,611.91,616.4Z"/><path class="a" d="M323.5,148.34a11.09,11.09,0,0,1-15.7.39,11.31,11.31,0,0,1-.31-15.35,11,11,0,0,1,15.25-.65,10.88,10.88,0,0,1,.76,15.61Z"/><path class="a" d="M593.37,529.2a10.94,10.94,0,0,1-.5-15.59,11.25,11.25,0,0,1,15.69-.19,11.09,11.09,0,0,1,.35,15.23,10.82,10.82,0,0,1-15.54.55Z"/><path class="a" d="M164.94,82.7A10.8,10.8,0,1,1,154.16,80,10.79,10.79,0,0,1,164.94,82.7Z"/><path class="a" d="M148.17,116.06a11,11,0,1,1,0-15.2A11,11,0,0,1,148.17,116.06Z"/><path class="a" d="M414.07,393.83a10.8,10.8,0,1,1-15.19.28,10.92,10.92,0,0,1,15.19-.28Z"/><path class="a" d="M468.23,496a10.82,10.82,0,1,1-.17-15.21,11,11,0,0,1,.17,15.21Z"/><path class="a" d="M644.21,563.15a10.78,10.78,0,1,1-.37-15.17,10.66,10.66,0,0,1,.37,15.17Z"/><path class="a" d="M364.47,444.71a10.7,10.7,0,1,1,15.21.2A10.85,10.85,0,0,1,364.47,444.71Z"/><path class="a" d="M362.26,427.33a10.81,10.81,0,1,1-.61-15.2,10.81,10.81,0,0,1,.61,15.2Z"/><path class="a" d="M270,96.45a10.64,10.64,0,0,1-15.11.43,10.53,10.53,0,0,1-.35-15.08A10.65,10.65,0,1,1,270,96.45Z"/><path class="a" d="M343.88,218a10.76,10.76,0,1,1,15.12-.41A10.76,10.76,0,0,1,343.88,218Z"/><path class="a" d="M449.48,428.3a10.68,10.68,0,0,1,.47,15.1,10.52,10.52,0,0,1-15.06.61,10.64,10.64,0,0,1-.53-15.1,10.78,10.78,0,0,1,15.12-.61Z"/><path class="a" d="M594.38,598.76a10.51,10.51,0,0,1,0-15.06,10.8,10.8,0,0,1,14.74-.17,10.65,10.65,0,0,1,.23,15.1,10.34,10.34,0,0,1-14.97.13Z"/><path class="a" d="M362.87,304.93a10.58,10.58,0,0,1,0-15.09,10.33,10.33,0,0,1,15,.17,10.49,10.49,0,0,1,.09,14.65,10.69,10.69,0,0,1-15.09.27Z"/><path class="a" d="M523.25,529.7a10.54,10.54,0,0,1,.16-15.1,10.79,10.79,0,0,1,14.76-.07,10.67,10.67,0,0,1,.14,15.14,10.39,10.39,0,0,1-15.06.03Z"/><path class="a" d="M431.76,411.23a10.79,10.79,0,0,1,.52,14.77,10.45,10.45,0,0,1-15.09.51,10.28,10.28,0,0,1-.57-14.62,10.62,10.62,0,0,1,15.14-.66Z"/><path class="a" d="M397.55,447.34a10.48,10.48,0,0,1-.26,14.65,10.72,10.72,0,0,1-15.14-.32,10.56,10.56,0,0,1,.39-14.67,10.31,10.31,0,0,1,15.01.34Z"/><path class="a" d="M590.5,496.66a10.28,10.28,0,0,1,.09,14.61,10.55,10.55,0,0,1-15.1.16,10.82,10.82,0,0,1-.09-14.77,10.55,10.55,0,0,1,15.1,0Z"/><path class="a" d="M326.17,165.74a10.23,10.23,0,0,1-.69-14.54,10.59,10.59,0,0,1,15.07-.77,10.74,10.74,0,0,1,.24,15.13,10.42,10.42,0,0,1-14.62.18Z"/><path class="a" d="M715.47,686.91a10.62,10.62,0,0,1,.54,14.7,10.27,10.27,0,0,1-15,.65,10.56,10.56,0,0,1-.73-14.68,10.89,10.89,0,0,1,15.19-.67Z"/><path class="a" d="M344.35,395.65a10.24,10.24,0,0,1-.12,14.58,10.52,10.52,0,0,1-15.07,0c-3.84-4.08-3.86-10.9.13-14.73a10.4,10.4,0,0,1,15.06.15Z"/><path class="a" d="M715.28,666.81a10.36,10.36,0,0,1-14.58.62,10.5,10.5,0,1,1,14.58-.62Z"/><path class="a" d="M661.47,580.3a10.47,10.47,0,0,1-14.64.33,10.73,10.73,0,0,1-.41-14.73,10.44,10.44,0,0,1,15.05-.16,10.18,10.18,0,0,1,0,14.56Z"/><path class="a" d="M576.61,581.17a10.22,10.22,0,0,1,.19-14.53,10.48,10.48,0,0,1,14.62,0,10.66,10.66,0,0,1-.24,15.08,10.4,10.4,0,0,1-14.57-.55Z"/><path class="a" d="M519.9,462.62a10.65,10.65,0,0,1,.5,14.65,10.53,10.53,0,0,1-14.61.67,10.414,10.414,0,1,1,14.11-15.32Z"/><path class="a" d="M396,342.29a10.38,10.38,0,0,1-.24,14.62,10.25,10.25,0,0,1-14.59-.06,10.38,10.38,0,0,1,.15-14.64,10.54,10.54,0,0,1,14.68.08Z"/><path class="a" d="M254.79,253.87a10.35,10.35,0,0,1-14.6.36,10.21,10.21,0,0,1-.52-14.55,10.39,10.39,0,0,1,14.63-.48,10.59,10.59,0,0,1,.49,14.67Z"/><path class="a" d="M555.77,532.2a10.28,10.28,0,1,1-7.368-2.934A10.22,10.22,0,0,1,555.77,532.2Z"/><path class="a" d="M202.2,79.55a10.21,10.21,0,1,1,14.55,0,10.1,10.1,0,0,1-14.55,0Z"/><path class="a" d="M559,563.91a10.21,10.21,0,1,1,14.52.08,10.07,10.07,0,0,1-14.52-.08Z"/><path class="a" d="M326.53,392.57a10.214,10.214,0,1,1-.515-14.435,10.214,10.214,0,0,1,.515,14.435Z"/><path class="a" d="M376.68,269.76a10.19,10.19,0,1,1,3.11-7.217,10.14,10.14,0,0,1-3.11,7.217Z"/><path class="a" d="M290.21,323.28a10.16,10.16,0,1,1-.1-14.46,10,10,0,0,1,.1,14.46Z"/><path class="a" d="M181.86,80.16a10.14,10.14,0,1,1,2.947-7.337,10.09,10.09,0,0,1-2.947,7.337Z"/><path class="a" d="M648.59,685.18a10,10,0,1,1,14.08-.3A10,10,0,0,1,648.59,685.18Z"/><path class="a" d="M644.57,667.73a9.76,9.76,0,0,1-14-.16,9.993,9.993,0,1,1,14,.16Z"/><path class="a" d="M415.05,478.58a10,10,0,0,1-14.05.51,9.85,9.85,0,0,1-.83-14,10.12,10.12,0,0,1,14.48-.68A10.35,10.35,0,0,1,415.05,478.58Z"/><path class="a" d="M251.29,64.73a9.7,9.7,0,0,1,.31,14,10,10,0,0,1-14,.37,10.12,10.12,0,0,1-.32-14.1,9.87,9.87,0,0,1,14.01-.27Z"/><path class="a" d="M343.91,182.4a10.22,10.22,0,0,1-.29-14.12,10,10,0,0,1,14-.19,9.65,9.65,0,0,1,.29,13.95,9.92,9.92,0,0,1-14,.36Z"/><path class="a" d="M679.9,687.86a9.9,9.9,0,1,1-13.62,14.37,9.66,9.66,0,0,1-.43-13.61,9.8,9.8,0,0,1,14.05-.76Z"/><path class="a" d="M485.16,512.48a9.68,9.68,0,0,1-13.58.47,9.828,9.828,0,1,1,13.58-.47Z"/><path class="a" d="M115.47,98a9.83,9.83,0,0,1,.38-14,9.64,9.64,0,0,1,14,.53,9.91,9.91,0,0,1-.23,13.65A10.07,10.07,0,0,1,115.47,98Z"/><path class="a" d="M665,597.09a9.64,9.64,0,0,1-.55-13.53,9.87,9.87,0,0,1,14-.53,10,10,0,0,1,.12,14.06,9.78,9.78,0,0,1-13.57,0Z"/><path class="a" d="M376.08,234.41a10,10,0,0,1-14.07-.2,9.82,9.82,0,0,1,.19-13.61,9.93,9.93,0,0,1,13.64-.29,10.06,10.06,0,0,1,.24,14.1Z"/><path class="a" d="M626.82,650.34a10,10,0,0,1-14.06-.26,9.83,9.83,0,0,1,.24-13.6,9.94,9.94,0,0,1,13.64-.23A10.06,10.06,0,0,1,626.82,650.34Z"/><path class="a" d="M413,373.54A9.71,9.71,0,1,1,413,360a9.71,9.71,0,0,1,0,13.54Z"/><path class="a" d="M236.49,236.09a9.77,9.77,0,0,1-13.65.44,9.65,9.65,0,1,1,13.65-.44Z"/><path class="a" d="M308.06,375.2a9.629,9.629,0,1,1-.144-13.617,9.627,9.627,0,0,1,.144,13.617Z"/><path class="a" d="M733,718.46a9.66,9.66,0,1,1-.716-13.428A9.66,9.66,0,0,1,733,718.46Z"/><path class="a" d="M558.74,493.75a9.58,9.58,0,1,1,13.51-.48,9.47,9.47,0,0,1-13.51.48Z"/><path class="a" d="M258.6,305.78a9.63,9.63,0,1,1,13.52-.4A9.63,9.63,0,0,1,258.6,305.78Z"/><path class="a" d="M321.81,112.53a678.653,678.653,0,1,0,0,.04Z"/><path class="a" d="M146.58,79.92a9.37,9.37,0,0,1-13.47.17A9.51,9.51,0,0,1,132.8,67a9.33,9.33,0,0,1,13.46-.5,9.22,9.22,0,0,1,.32,13.42Z"/><path class="a" d="M394.77,321.12a9.38,9.38,0,0,1-13.1.43,9.53,9.53,0,0,1-.35-13.56,9.3,9.3,0,0,1,13.49.09,9.15,9.15,0,0,1-.04,13.04Z"/><path class="a" d="M595.6,633a9.48,9.48,0,1,1,12.971-.391A9.48,9.48,0,0,1,595.6,633Z"/><path class="a" d="M697.71,719a9.305,9.305,0,1,1-.03-13.14,9.44,9.44,0,0,1,.03,13.14Z"/><path class="a" d="M488.51,459.77a9.35,9.35,0,0,1-.32-13.44,9.45,9.45,0,0,1,13.05-.43,9.57,9.57,0,0,1,.74,13.49,9.46,9.46,0,0,1-13.47.38Z"/><path class="a" d="M303.75,81.92a9.3,9.3,0,1,1-13.09.08,9.47,9.47,0,0,1,13.09-.08Z"/><path class="a" d="M431.78,482.39a9.194,9.194,0,1,1-12.96.22,9.2,9.2,0,0,1,12.96-.22Z"/><path class="a" d="M339.33,129.64a9.34,9.34,0,0,1-13.06,0,9.11,9.11,0,0,1,.06-13,9.21,9.21,0,0,1,13-.12A9.41,9.41,0,0,1,339.33,129.64Z"/><path class="a" d="M417.37,390.38a9.23,9.23,0,0,1,12.89-13.19,9.33,9.33,0,0,1,.18,13.1,9.21,9.21,0,0,1-13.07.09Z"/><path class="a" d="M470.25,441.7a9.2,9.2,0,1,1,12.55,1.13,9.2,9.2,0,0,1-12.55-1.13Z"/><path class="a" d="M277.05,357.64a9.21,9.21,0,1,1,6.565,2.582,9.15,9.15,0,0,1-6.565-2.582Z"/><path class="a" d="M591.13,615.37a9.11,9.11,0,1,1-.52-12.99,9,9,0,0,1,.52,12.99Z"/><path class="a" d="M362.13,198.72a9,9,0,1,1,13,.07,9.12,9.12,0,0,1-13-.07Z"/><path class="a" d="M489.71,529.32a8.92,8.92,0,1,1,12.51-.17,8.92,8.92,0,0,1-12.51.17Z"/><path class="a" d="M254,287.82a9,9,0,1,1-.25-12.57A9,9,0,0,1,254,287.82Z"/><path class="a" d="M731.71,683.24a8.887,8.887,0,1,1,.24-12.56A9,9,0,0,1,731.71,683.24Z"/><path class="a" d="M218.08,218.49a8.93,8.93,0,1,1-12.58-12.66A8.73,8.73,0,0,1,218,206a8.85,8.85,0,0,1,.08,12.49Z"/><path class="a" d="M198.49,61.33A8.9,8.9,0,1,1,198,48.84a8.75,8.75,0,0,1,.49,12.49Z"/><path class="a" d="M465.57,411.83a9,9,0,1,1-12.62.37,9.24,9.24,0,0,1,12.62-.37Z"/><path class="a" d="M448,407.44a9,9,0,1,1,0-12.57A9.15,9.15,0,0,1,448,407.44Z"/><path class="a" d="M232.81,60.92a8.94,8.94,0,0,1-12.52-.3,8.8,8.8,0,0,1,.58-12.47,8.58,8.58,0,0,1,12,.32,8.74,8.74,0,0,1-.06,12.45Z"/><path class="a" d="M695.42,613.62a8.51,8.51,0,0,1-12.34-.42,8.66,8.66,0,0,1,.09-12,9,9,0,0,1,12.5,0A8.8,8.8,0,0,1,695.42,613.62Z"/><path class="a" d="M273.39,77.63a8.94,8.94,0,0,1-.11-12.5,8.79,8.79,0,0,1,12.45.2,8.45,8.45,0,0,1,.06,11.94,8.66,8.66,0,0,1-12.4.36Z"/><path class="a" d="M573.13,597.69a8.57,8.57,0,0,1-12.37.38,8.83,8.83,0,0,1-.19-12.46,9,9,0,0,1,12.08-.32,8.69,8.69,0,0,1,.48,12.4Z"/><path class="a" d="M381.29,273.43c3.5-3.29,9.53-3.09,12.61.43a8.76,8.76,0,0,1-.53,12.1,8.41,8.41,0,0,1-12.4-.45,8.68,8.68,0,0,1,.32-12.08Z"/><path class="a" d="M343.47,443.72a8.85,8.85,0,0,1-12.56.12,8.66,8.66,0,0,1-.11-12.09,8.52,8.52,0,0,1,12-.52,8.71,8.71,0,0,1,.67,12.49Z"/><path class="a" d="M356.9,146.18a8.55,8.55,0,0,1-12.43.42,8.85,8.85,0,0,1-.39-12.11,8.72,8.72,0,0,1,12.47-.28,8.39,8.39,0,0,1,.35,11.97Z"/><path class="a" d="M714.64,735.82a8.6,8.6,0,1,1,2.022-9.388A8.67,8.67,0,0,1,714.64,735.82Z"/><path class="a" d="M553.67,463.29a8.67,8.67,0,0,1-.25,12.44,8.37,8.37,0,0,1-11.94-.16,8.59,8.59,0,0,1-.33-12,8.9,8.9,0,0,1,12.52-.28Z"/><path class="a" d="M543.22,580.82a8.76,8.76,0,0,1-.46-12.1,8.85,8.85,0,0,1,12.12-.45,8.75,8.75,0,0,1,.4,12.09,8.65,8.65,0,0,1-12.06.46Z"/><path class="a" d="M150.85,49.77a8.59,8.59,0,0,1,12.06-.19,8.74,8.74,0,0,1-.14,12.52,8.5,8.5,0,0,1-12-.36,8.35,8.35,0,0,1,.08-11.97Z"/><path class="a" d="M128.81,119.84a8.67,8.67,0,0,1,.72,12,8.82,8.82,0,0,1-12.45.48,8.71,8.71,0,0,1-.23-12,8.57,8.57,0,0,1,11.96-.48Z"/><path class="a" d="M313.59,426.82a8.56,8.56,0,1,1,11.918-.182A8.56,8.56,0,0,1,313.59,426.82Z"/><path class="a" d="M360.62,448.66a8.48,8.48,0,0,1,.7,12,8.525,8.525,0,1,1-.7-12Z"/><path class="a" d="M632.25,689.54a6,6,0,1,1-.02,0Z"/><path class="a" d="M271.68,327.74a8.69,8.69,0,0,1,.24,12.08,8.58,8.58,0,0,1-12.05.11,8.49,8.49,0,1,1,11.81-12.19Z"/><path class="a" d="M507.47,546.11a8.588,8.588,0,1,1,12.1-.1,8.59,8.59,0,0,1-12.1.1Z"/><path class="a" d="M537.13,563.33a8.41,8.41,0,1,1,.09-12,8.62,8.62,0,0,1-.09,12Z"/><path class="a" d="M626.36,684.43a8.5,8.5,0,1,1,0-11.94,8.5,8.5,0,0,1,0,11.94Z"/><path class="a" d="M111.4,103a8.45,8.45,0,1,1-12-.07,8.36,8.36,0,0,1,12,.07Z"/><path class="a" d="M199.71,201a8.41,8.41,0,1,1,2.622-5.956A8.39,8.39,0,0,1,199.71,201Z"/><path class="a" d="M661.54,706.79a8.13,8.13,0,0,1,.38,11.88,8.23,8.23,0,0,1-11.91.22,8.37,8.37,0,0,1-.37-11.52,8.22,8.22,0,0,1,11.9-.58Z"/><path class="a" d="M235.91,270.37a8.33,8.33,0,1,1-.15-12,8.47,8.47,0,0,1,.15,12Z"/><path class="a" d="M378.45,466.34a8.3,8.3,0,0,1-.11,11.91,8.134,8.134,0,1,1,.11-11.91Z"/><path class="a" d="M295.84,409.12a8.17,8.17,0,0,1,0-11.52,8.171,8.171,0,1,1,.08,11.51Z"/><path class="a" d="M146.42,149.14a8.24,8.24,0,0,1-11.5,0,8.36,8.36,0,0,1-.1-11.93,8.62,8.62,0,0,1,11.6,0A8.49,8.49,0,0,1,146.42,149.14Z"/><path class="a" d="M110.66,68.06a8.3,8.3,0,0,1-.22,11.87A8.19,8.19,0,0,1,99,79.64a8,8,0,0,1,.24-11.79A8.14,8.14,0,0,1,110.66,68.06Z"/><path class="a" d="M392.9,250.51a8.62,8.62,0,0,1-12,.06,8.43,8.43,0,0,1,0-11.52,8.28,8.28,0,0,1,11.48-.48,8.49,8.49,0,0,1,.52,11.94Z"/><path class="a" d="M524.34,458.53a8.23,8.23,0,0,1-.58-11.43,8,8,0,0,1,11.77-.65,8.12,8.12,0,0,1,.69,11.4,8.37,8.37,0,0,1-11.88.68Z"/><path class="a" d="M182.09,183.32a8.05,8.05,0,0,1-11.44.22,7.89,7.89,0,0,1-.36-11.39,8.2,8.2,0,0,1,11.5-.37A8.36,8.36,0,0,1,182.09,183.32Z"/><path class="a" d="M448.72,500.37a8.19,8.19,0,0,1,.41,11.49,8.39,8.39,0,0,1-11.56.34,8.14,8.14,0,0,1-.25-11.48,7.87,7.87,0,0,1,11.4-.35Z"/><path class="a" d="M608.25,655.37a7.88,7.88,0,0,1,.11,11.4,8.15,8.15,0,0,1-11.48.23,8.39,8.39,0,0,1-.12-11.57,8.18,8.18,0,0,1,11.49-.06Z"/><path class="a" d="M737.92,734.64a7.77,7.77,0,0,1,0-11.36,8.07,8.07,0,0,1,11-.27,8.22,8.22,0,0,1,.37,11.5,8,8,0,0,1-11.37.13Z"/><path class="a" d="M278.26,391.71a8.1,8.1,0,0,1,.31-11.45,8.21,8.21,0,0,1,11.07.05,8.33,8.33,0,0,1,.11,11.52A8.21,8.21,0,0,1,278.26,391.71Z"/><path class="a" d="M152.73,166.09a7.79,7.79,0,0,1,.15-11.4,8.12,8.12,0,0,1,11.08-.16,8.31,8.31,0,0,1,.25,11.57,8.07,8.07,0,0,1-11.48-.01Z"/><path class="a" d="M253.73,322.12a8.12,8.12,0,0,1-11.51,0,8.26,8.26,0,0,1,0-11.14,8.13,8.13,0,0,1,11.08-.34,8,8,0,0,1,.43,11.48Z"/><path class="a" d="M362.67,163.26a8,8,0,1,1,11.06-.17,8.14,8.14,0,0,1-11.06.17Z"/><path class="a" d="M411.3,337.55a7.93,7.93,0,1,1,2.361-7.767,7.923,7.923,0,0,1-2.361,7.767Z"/><path class="a" d="M679.24,735.74a7.88,7.88,0,1,1,2.208-7.69A7.88,7.88,0,0,1,679.24,735.74Z"/><path class="a" d="M267.13,59.66a8.014,8.014,0,1,1,.34-11,7.87,7.87,0,0,1-.34,11Z"/><path class="a" d="M217.7,241.83a7.66,7.66,0,1,1-5.446-2.373,7.73,7.73,0,0,1,5.446,2.373Z"/><path class="a" d="M391.85,215.15a7.8,7.8,0,0,1-10.91.09,7.64,7.64,0,0,1,0-10.87,7.47,7.47,0,0,1,10.81-.08,7.6,7.6,0,0,1,.1,10.86Z"/><path class="a" d="M579.79,649.73a7.6,7.6,0,0,1-.3-10.89,7.75,7.75,0,0,1,10.93-.44,7.89,7.89,0,0,1,.29,11,7.7,7.7,0,0,1-10.92.33Z"/><path class="a" d="M127.74,61.27a7.55,7.55,0,0,1-10.92.34,7.71,7.71,0,0,1-.66-10.55,8.05,8.05,0,0,1,11-.79,7.85,7.85,0,0,1,.58,11Z"/><path class="a" d="M517.85,440.29a7.47,7.47,0,0,1-10.88.41,7.62,7.62,0,0,1-.63-10.51,7.91,7.91,0,0,1,11-.85,7.72,7.72,0,0,1,.51,10.95Z"/><path class="a" d="M92.92,86.32a7.45,7.45,0,0,1-.18,10.82,7.63,7.63,0,0,1-10.47.07,7.9,7.9,0,0,1-.24-11,7.66,7.66,0,0,1,10.89.11Z"/><path class="a" d="M395.77,484.18a7.66,7.66,0,0,1,.21,10.53,7.78,7.78,0,0,1-11,.14,7.53,7.53,0,0,1,.31-10.91,7.43,7.43,0,0,1,10.48.24Z"/><path class="a" d="M605.53,491.76a7.47,7.47,0,0,1-10.43.22,7.33,7.33,0,0,1-.34-10.79,7.63,7.63,0,0,1,10.48-.36A7.79,7.79,0,0,1,605.53,491.76Z"/><path class="a" d="M577,474.39a7.24,7.24,0,0,1,0-10.34,7.53,7.53,0,0,1,10.84-.15,7.82,7.82,0,0,1,0,10.52,7.5,7.5,0,0,1-10.84-.03Z"/><path class="a" d="M261,374.26a7.71,7.71,0,0,1,.09-10.91,7.56,7.56,0,0,1,10.44.18,7.4,7.4,0,0,1-.08,10.8,7.57,7.57,0,0,1-10.45-.07Z"/><path class="a" d="M623,509a7.28,7.28,0,0,1-10.4-.24,7.43,7.43,0,0,1,.09-10.44,7.58,7.58,0,0,1,10.5.22A7.47,7.47,0,0,1,623,509Z"/><path class="a" d="M235.59,304.38a7.19,7.19,0,0,1-10.31.39,7.35,7.35,0,0,1-.64-10.35,7.52,7.52,0,0,1,10.83-.42,7.36,7.36,0,0,1,.12,10.38Z"/><path class="a" d="M214.05,32.14a7.28,7.28,0,1,1-10.39.6A7.48,7.48,0,0,1,214.05,32.14Z"/><path class="a" d="M179.34,43a7.3,7.3,0,1,1-.253-10.288A7.24,7.24,0,0,1,179.34,43Z"/><path class="a" d="M199.46,235.25a7.28,7.28,0,1,1,.14-10.42A7.52,7.52,0,0,1,199.46,235.25Z"/><path class="a" d="M748.23,689.08a7.12,7.12,0,1,1-6.965-1.958,7.12,7.12,0,0,1,6.965,1.958Z"/><path class="a" d="M569.69,457a7.16,7.16,0,1,1-10.21-10,7.146,7.146,0,1,1,10.21,10Z"/><path class="a" d="M572,632.25a7.18,7.18,0,1,1,.52-10.34,7,7,0,0,1-.52,10.34Z"/><path class="a" d="M712,619.41a7,7,0,0,1,.22,10.28,7.15,7.15,0,0,1-9.91.21,7.06,7.06,0,0,1-.16-10.29,6.91,6.91,0,0,1,9.85-.2Z"/><path class="a" d="M243.59,356.6a7.11,7.11,0,0,1-.27-9.88,7.21,7.21,0,0,1,10.31,0,7,7,0,0,1-.23,9.84,6.88,6.88,0,0,1-9.81.04Z"/><path class="a" d="M731.24,741.7a7.31,7.31,0,0,1,.19,10,7.41,7.41,0,0,1-10.4-.07,7.16,7.16,0,0,1,.3-9.92,7,7,0,0,1,9.91-.01Z"/><path class="a" d="M630.82,515.87a6.85,6.85,0,0,1,9.81.23,7,7,0,0,1,0,9.85,7.18,7.18,0,0,1-10.32-.2A7.08,7.08,0,0,1,630.82,515.87Z"/><path class="a" d="M455.85,518.75a6.8,6.8,0,0,1,9.84-.32,7,7,0,0,1,.39,9.88,7.19,7.19,0,0,1-10,.35,7,7,0,0,1-.23-9.91Z"/><path class="a" d="M686.43,742.62a6.8,6.8,0,0,1,9.85-.16,7,7,0,0,1,.24,9.91,7.31,7.31,0,0,1-10,.17A7.06,7.06,0,0,1,686.43,742.62Z"/><path class="a" d="M217.5,277.41a6.92,6.92,0,0,1,0,9.86,7.23,7.23,0,0,1-9.53.17,7,7,0,0,1-.32-9.89,6.8,6.8,0,0,1,9.85-.14Z"/><path class="a" d="M499.12,412.91a6.69,6.69,0,0,1,.19,9.78,6.92,6.92,0,0,1-9.84.11,7.18,7.18,0,0,1-.19-9.51,6.88,6.88,0,0,1,9.84-.38Z"/><path class="a" d="M337,92.91a6.88,6.88,0,0,1-9.47.28,7.09,7.09,0,0,1-.12-10,6.82,6.82,0,0,1,9.45-.14,6.68,6.68,0,0,1,.14,9.86Z"/><path class="a" d="M307,443.23a6.771,6.771,0,0,1-9.46-9.69,6.85,6.85,0,0,1,9.43-.11,6.76,6.76,0,0,1,.03,9.8Z"/><path class="a" d="M324.84,460a6.58,6.58,0,0,1-9.29.69,6.71,6.71,0,0,1-.74-9.75,6.87,6.87,0,0,1,9.83-.31,6.72,6.72,0,0,1,.2,9.37Z"/><path class="a" d="M554.31,604.8a6.9,6.9,0,0,1,.16,9.48,7,7,0,0,1-9.51.3,6.89,6.89,0,0,1-.1-9.9,6.82,6.82,0,0,1,9.45.12Z"/><path class="a" d="M354.62,100.4a6.68,6.68,0,0,1,.42,9.38,6.63,6.63,0,1,1-.42-9.38Z"/><path class="a" d="M390.62,169.91a6.743,6.743,0,1,1-9.535-.165,6.743,6.743,0,0,1,9.535.165Z"/><path class="a" d="M616.21,718.22a6.7,6.7,0,1,1,9.46-.13A6.92,6.92,0,0,1,616.21,718.22Z"/><path class="a" d="M172.06,217.53a6.65,6.65,0,1,1,9.39,0,6.74,6.74,0,0,1-9.39,0Z"/><path class="a" d="M658.31,542.77a6.69,6.69,0,1,1-.36-9.43,6.8,6.8,0,0,1,.36,9.43Z"/><path class="a" d="M409.62,292.08a6.644,6.644,0,0,1-8.92,9.85,6.73,6.73,0,0,1-.49-9.39A6.84,6.84,0,0,1,409.62,292.08Z"/><path class="a" d="M134.55,43.28a6.623,6.623,0,1,1,9.36-.13,6.71,6.71,0,0,1-9.36.13Z"/><path class="a" d="M428,353.69a6.62,6.62,0,1,1,.3-9.43A6.71,6.71,0,0,1,428,353.69Z"/><path class="a" d="M235.57,338.88a6.88,6.88,0,0,1-9.45.21,6.61,6.61,0,1,1,9.45-.21Z"/><path class="a" d="M289,416.32a6.62,6.62,0,1,1-6.546-1.653A6.62,6.62,0,0,1,289,416.32Z"/><path class="a" d="M342,468a6.26,6.26,0,0,1,.31,9.23,6.53,6.53,0,0,1-9.31.15,6.66,6.66,0,0,1-.26-8.93A6.42,6.42,0,0,1,342,468Z"/><path class="a" d="M607.88,700.51a6.55,6.55,0,0,1-9.3.41,6.65,6.65,0,0,1-.08-9.35,6.56,6.56,0,0,1,8.91-.32,6.42,6.42,0,0,1,.47,9.26Z"/><path class="a" d="M239.54,32.17a6.4,6.4,0,0,1,9.25.3,6.52,6.52,0,0,1-.13,8.89,6.66,6.66,0,0,1-9.34.11,6.54,6.54,0,0,1,.22-9.3Z"/><path class="a" d="M163.6,199.75a6.28,6.28,0,0,1-8.81.64,6.52,6.52,0,0,1-.69-9.29,6.59,6.59,0,0,1,9.33-.2A6.35,6.35,0,0,1,163.6,199.75Z"/><path class="a" d="M634,726.3a6.32,6.32,0,0,1,8.85-.47,6.59,6.59,0,0,1,.51,9.35,6.74,6.74,0,0,1-9.39,0A6.47,6.47,0,0,1,634,726.3Z"/><path class="a" d="M271.22,408.45a6.47,6.47,0,0,1-8.89.17,6.7,6.7,0,0,1-.12-9.36,6.46,6.46,0,0,1,9.29.38,6.19,6.19,0,0,1-.28,8.81Z"/><path class="a" d="M551.46,439.46a6.15,6.15,0,0,1-8.82,0,6.47,6.47,0,0,1-.13-9.31,6.9,6.9,0,0,1,9,0,6.51,6.51,0,0,1-.05,9.31Z"/><path class="a" d="M310.15,75.45a6.13,6.13,0,0,1-.41-8.8,6.5,6.5,0,0,1,9.3-.51,6.8,6.8,0,0,1,0,9.39,6.45,6.45,0,0,1-8.89-.08Z"/><path class="a" d="M403.47,502.46a6.2,6.2,0,0,1,8.84-.47,6.38,6.38,0,0,1,.37,9.3,6.55,6.55,0,0,1-8.95.07,6.37,6.37,0,0,1-.26-8.9Z"/><path class="a" d="M612.71,464.44a6.43,6.43,0,0,1,8.86-.56,6.57,6.57,0,0,1,.33,9.33,6.5,6.5,0,0,1-8.9.08A6.32,6.32,0,0,1,612.71,464.44Z"/><path class="a" d="M199.22,269.63a6.17,6.17,0,0,1-8.79-.27,6.36,6.36,0,0,1-.05-8.84,6.58,6.58,0,0,1,9.31.26A6.41,6.41,0,0,1,199.22,269.63Z"/><path class="a" d="M527.32,596.62a6.32,6.32,0,0,1,.06-8.87,6.58,6.58,0,0,1,8.94.17,6.33,6.33,0,0,1-.18,8.89,6.15,6.15,0,0,1-8.82-.19Z"/><path class="a" d="M145.65,182.56a6.36,6.36,0,0,1-8.89.19,6.49,6.49,0,0,1-.2-8.93,6.63,6.63,0,0,1,9-.18A6.46,6.46,0,0,1,145.65,182.56Z"/><path class="a" d="M128,165.2a6.49,6.49,0,0,1-8.85.39,6.272,6.272,0,0,1,8.45-9.27,6.61,6.61,0,0,1,.4,8.88Z"/><path class="a" d="M595,447.33a6.29,6.29,0,0,1,8.82-.6,6.3,6.3,0,0,1-8.39,9.4,6.19,6.19,0,0,1-.43-8.8Z"/><path class="a" d="M639.41,481.39a6.23,6.23,0,0,1-8.32,9.27,6.37,6.37,0,0,1-.59-8.86,6.52,6.52,0,0,1,8.91-.41Z"/><path class="a" d="M482.7,545a6.161,6.161,0,0,1-8.65-8.77,6.22,6.22,0,0,1,8.88-.06,6.13,6.13,0,0,1-.23,8.83Z"/><path class="a" d="M253.34,391a6.13,6.13,0,1,1-.2-8.85,6.3,6.3,0,0,1,.2,8.85Z"/><path class="a" d="M101.57,148.37a6.161,6.161,0,0,1,8.48-8.94,6.161,6.161,0,1,1-8.48,8.94Z"/><path class="a" d="M217.34,313a6,6,0,1,1-8.382-.117A6,6,0,0,1,217.34,313Z"/><path class="a" d="M589.66,674.68a6.14,6.14,0,1,1-6.774-1.331A6.15,6.15,0,0,1,589.66,674.68Z"/><path class="a" d="M675.16,551a6.085,6.085,0,1,1-8.39.2,6.12,6.12,0,0,1,8.39-.2Z"/><path class="a" d="M481.2,404.68a6.05,6.05,0,1,1-.29-8.36,6.05,6.05,0,0,1,.29,8.36Z"/><path class="a" d="M518.24,571a5.88,5.88,0,0,1,0,8.29,6.06,6.06,0,0,1-8.34.18,6.2,6.2,0,0,1,0-8.79,6,6,0,0,1,8.34.32Z"/><path class="a" d="M363.67,118.44a5.65,5.65,0,0,1,8.22,0,5.78,5.78,0,0,1,.28,8.25,6,6,0,0,1-8.72.06,5.89,5.89,0,0,1,.22-8.31Z"/><path class="a" d="M400.38,258a5.82,5.82,0,0,1,8.3-.29,6,6,0,0,1,.27,8.35,6.08,6.08,0,0,1-8.38.28A5.93,5.93,0,0,1,400.38,258Z"/><path class="a" d="M351.35,494.16a5.62,5.62,0,0,1-.15-8.25,6,6,0,0,1,8.34-.22,6.11,6.11,0,0,1,.1,8.38,5.76,5.76,0,0,1-8.29.09Z"/><path class="a" d="M500.42,553.75a5.61,5.61,0,0,1-.12,8.24,5.87,5.87,0,0,1-8.31-.06,6,6,0,0,1,.13-8.36,5.8,5.8,0,0,1,8.3.18Z"/><path class="a" d="M652.43,752.22a5.867,5.867,0,1,1,7.97-8.61,5.876,5.876,0,1,1-8,8.61Z"/><path class="a" d="M445.29,370.4a6.17,6.17,0,0,1-8.36-.1,5.91,5.91,0,0,1,.17-8.29,5.65,5.65,0,0,1,8.21.11,5.87,5.87,0,0,1-.02,8.28Z"/><path class="a" d="M300.8,57.77a6.05,6.05,0,0,1-8.33-.21,5.91,5.91,0,0,1,.49-8.28,5.61,5.61,0,0,1,7.8.25,5.77,5.77,0,0,1,.04,8.24Z"/><path class="a" d="M83.13,52.4a5.74,5.74,0,0,1,8.3.33,5.841,5.841,0,0,1-8.51,8,5.66,5.66,0,0,1,.21-8.33Z"/><path class="a" d="M92,122.47a5.65,5.65,0,0,1,.13,8.27,5.85,5.85,0,0,1-7.91.34,6,6,0,0,1-.52-8.36,5.79,5.79,0,0,1,8.3-.25Z"/><path class="a" d="M656.79,507.59a5.94,5.94,0,0,1-8.34-.58,5.82,5.82,0,0,1,.8-8.3,5.71,5.71,0,0,1,7.86.56,5.81,5.81,0,0,1-.32,8.32Z"/><path class="a" d="M65.63,78.33A5.58,5.58,0,0,1,66,70.09a5.87,5.87,0,0,1,7.91,0A6.24,6.24,0,0,1,74,78.53a5.87,5.87,0,0,1-8.37-.2Z"/><path class="a" d="M181.37,251.57a5.77,5.77,0,0,1-8.23.41,6.06,6.06,0,0,1-.11-8.31,5.8,5.8,0,0,1,7.82-.25,5.53,5.53,0,0,1,.52,8.15Z"/><path class="a" d="M462.94,379.43a5.81,5.81,0,0,1,.23,7.86,6,6,0,0,1-8.33.17,5.87,5.87,0,0,1-.12-7.88,5.63,5.63,0,0,1,8.22-.15Z"/><path class="a" d="M199.38,295.94a6,6,0,0,1,.24,7.93,5.9,5.9,0,0,1-7.91.44,5.74,5.74,0,0,1-.23-8.28,5.83,5.83,0,0,1,7.9-.09Z"/><path class="a" d="M227.53,373.58a5.66,5.66,0,0,1-.35-8.2,5.8,5.8,0,0,1,7.85-.29,5.65,5.65,0,0,1,.23,8.2,5.43,5.43,0,0,1-7.73.29Z"/><path class="a" d="M585.89,438.2a5.65,5.65,0,0,1-7.85,0,5.55,5.55,0,1,1,7.81-7.87,5.64,5.64,0,0,1,.04,7.87Z"/><path class="a" d="M571.7,665.67a5.523,5.523,0,1,1,.02-7.84,5.63,5.63,0,0,1-.02,7.84Z"/><path class="a" d="M712.9,768.23a5.42,5.42,0,0,1-7.74.25,5.54,5.54,0,1,1,7.74-.25Z"/><path class="a" d="M692.73,568.74a5.52,5.52,0,0,1-8,7.6,5.41,5.41,0,0,1,.27-7.74A5.47,5.47,0,0,1,692.73,568.74Z"/><path class="a" d="M408,230.84a5.43,5.43,0,1,1,1.631-3.88A5.47,5.47,0,0,1,408,230.84Z"/><path class="a" d="M764.56,714.88a5.36,5.36,0,0,1-7.77,0,5.54,5.54,0,0,1,.11-7.4,5.43,5.43,0,0,1,7.79,0,5.27,5.27,0,0,1-.13,7.4Z"/><path class="a" d="M667.11,524.47a5.41,5.41,0,0,1-.44-7.76,5.48,5.48,0,0,1,8.17,7.29,5.39,5.39,0,0,1-7.73.47Z"/><path class="a" d="M765,742.42a5.35,5.35,0,0,1,0,7.75,5.488,5.488,0,1,1,0-7.75Z"/><path class="a" d="M728.87,638.19a5.74,5.74,0,0,1-.13,7.46,5.28,5.28,0,0,1-7.75-.41,5.08,5.08,0,0,1,.5-7.28,5.42,5.42,0,0,1,7.38.23Z"/><path class="a" d="M195.1,24.16a5.62,5.62,0,0,1-7.43-.06,5.32,5.32,0,0,1,.32-7.76,5.08,5.08,0,0,1,7.28.47,5.28,5.28,0,0,1-.17,7.35Z"/><path class="a" d="M163.4,234.06a5.26,5.26,0,0,1-7.32.42,5.05,5.05,0,0,1-.73-7.25,5.34,5.34,0,0,1,7.74-.6A5.69,5.69,0,0,1,163.4,234.06Z"/><path class="a" d="M209.61,355.75a5.3,5.3,0,0,1,.22-7.32,5.08,5.08,0,0,1,7.66.39,5.21,5.21,0,0,1-.5,7.29A5.52,5.52,0,0,1,209.61,355.75Z"/><path class="a" d="M66.83,113.3a5.33,5.33,0,0,1-.62-7.32,5.41,5.41,0,0,1,7.76-.37,5.23,5.23,0,0,1,.14,7.31,5.16,5.16,0,0,1-7.28.38Z"/><path class="a" d="M638.46,454.33a5.41,5.41,0,0,1-7.35.35,5.25,5.25,0,0,1-.46-6.89,5,5,0,0,1,7.21-.72,5.14,5.14,0,0,1,.6,7.26Z"/><path class="a" d="M282,459.74a5.17,5.17,0,0,1-.69-6.83,5,5,0,0,1,7.21-.72,5.14,5.14,0,0,1,.37,7.27,5.28,5.28,0,0,1-6.89.28Z"/><path class="a" d="M532.73,421.31a5.1,5.1,0,0,1-7.2-7.21,5.3,5.3,0,0,1,7.31-.06,5.17,5.17,0,0,1-.11,7.27Z"/><path class="a" d="M107.91,35.24a5.17,5.17,0,0,1-.14,7.3,5,5,0,0,1-6.8,0,5.08,5.08,0,0,1-.39-7.25A5.32,5.32,0,0,1,107.91,35.24Z"/><path class="a" d="M655.78,464.54a5.1,5.1,0,0,1,.07,7.25,5,5,0,1,1-.07-7.25Z"/><path class="a" d="M159.78,17a5.054,5.054,0,1,1-7.24.69,5.09,5.09,0,0,1,7.24-.69Z"/><path class="a" d="M181.08,286.49a5,5,0,1,1,1.58-3.558A5,5,0,0,1,181.08,286.49Z"/><path class="a" d="M127.4,199.45a5,5,0,1,1-.06-6.83,5,5,0,0,1,.06,6.83Z"/><path class="a" d="M677.66,761.92a4.767,4.767,0,1,1-6.72-.35,4.83,4.83,0,0,1,6.72.35Z"/><path class="a" d="M138,216.61a4.94,4.94,0,1,1,6.75.43,4.82,4.82,0,0,1-6.75-.43Z"/><path class="a" d="M691.7,541.3a5.14,5.14,0,0,1-6.8-.15,5.22,5.22,0,0,1,0-6.83,5.13,5.13,0,0,1,7.21.2,5,5,0,0,1-.41,6.78Z"/><path class="a" d="M253.24,418a4.94,4.94,0,0,1-.05,6.76,4.81,4.81,0,0,1-7.12-.2,4.66,4.66,0,0,1,.44-6.68,4.85,4.85,0,0,1,6.73.12Z"/><path class="a" d="M270.79,435a4.91,4.91,0,1,1-3.741-1.226A4.9,4.9,0,0,1,270.79,435Z"/><path class="a" d="M92,158.24a5.276,5.276,0,1,1-6.81-.17,5,5,0,0,1,6.81.17Z"/><path class="a" d="M109.86,182a5,5,0,0,1-6.83.53,4.86,4.86,0,1,1,6.83-.53Z"/><path class="a" d="M230,22.87a4.62,4.62,0,0,1-6.66.45,4.79,4.79,0,0,1-.56-6.7,4.87,4.87,0,0,1,6.73-.44,4.72,4.72,0,0,1,.49,6.69Z"/><path class="a" d="M710,593.22a4.89,4.89,0,1,1-.119-6.687A4.879,4.879,0,0,1,710,593.22Z"/><path class="a" d="M407.1,188.73a4.72,4.72,0,0,1-.26,6.7,4.64,4.64,0,0,1-6.68-.31,4.8,4.8,0,0,1,.2-6.71,4.89,4.89,0,0,1,6.74.32Z"/><path class="a" d="M199.14,338.26a4.77,4.77,0,0,1-6.7.09,4.63,4.63,0,0,1-.27-6.66,4.88,4.88,0,0,1,7.12-.18,5,5,0,0,1-.15,6.75Z"/><path class="a" d="M620.11,437.15a4.64,4.64,0,0,1-6.67-.12,4.905,4.905,0,1,1,6.67.12Z"/><path class="a" d="M282.57,39.55a5,5,0,0,1-6.75.35,4.78,4.78,0,0,1-.34-6.69,4.55,4.55,0,0,1,6.62-.35,4.79,4.79,0,0,1,.47,6.69Z"/><path class="a" d="M74.27,147.54a4.73,4.73,0,0,1-6.67.43,4.86,4.86,0,0,1-.36-6.71,4.63,4.63,0,0,1,6.64-.33,4.5,4.5,0,0,1,.39,6.61Z"/><path class="a" d="M388.92,142.92a4.84,4.84,0,0,1-6.79.36,4.71,4.71,0,0,1-.31-6.76,4.58,4.58,0,0,1,6.72-.36,4.71,4.71,0,0,1,.38,6.76Z"/><path class="a" d="M429.34,527.25a4.72,4.72,0,0,1-6.71,0,4.52,4.52,0,0,1-.22-6.24,4.67,4.67,0,0,1,6.67-.5A4.83,4.83,0,0,1,429.34,527.25Z"/><path class="a" d="M673.39,488.85a4.71,4.71,0,0,1-6.67-.37,4.42,4.42,0,0,1,.09-6.2,4.73,4.73,0,0,1,6.69-.18,4.93,4.93,0,0,1-.11,6.75Z"/><path class="a" d="M306,469.43a4.87,4.87,0,0,1,.2,6.81,4.53,4.53,0,0,1-6.29.41,4.81,4.81,0,0,1-.77-6.76,5.15,5.15,0,0,1,6.86-.46Z"/><path class="a" d="M546.93,648a4.68,4.68,0,0,1-.26-6.69,4.75,4.75,0,0,1,6.71,0,4.63,4.63,0,0,1,.2,6.27,4.56,4.56,0,0,1-6.65.42Z"/><path class="a" d="M235.49,407.32a4.66,4.66,0,0,1-6.67.19,4.39,4.39,0,0,1-.47-6.19,4.83,4.83,0,0,1,6.69-.76A5.1,5.1,0,0,1,235.49,407.32Z"/><path class="a" d="M747.42,767.14a4.77,4.77,0,0,1-6.29.42,4.52,4.52,0,0,1-.49-6.63,4.45,4.45,0,0,1,6.21-.46,4.68,4.68,0,0,1,.57,6.67Z"/><path class="a" d="M376.35,510.47a4.39,4.39,0,0,1-6.22.11,4.54,4.54,0,0,1-.23-6.66,4.86,4.86,0,0,1,6.34-.15,4.65,4.65,0,0,1,.11,6.7Z"/><path class="a" d="M163,268.66a4.48,4.48,0,0,1-6.21.11,4.59,4.59,0,0,1,.21-6.65,4.73,4.73,0,0,1,6.28.3A4.61,4.61,0,0,1,163,268.66Z"/><path class="a" d="M175,320.75a4.363,4.363,0,1,1,6.42-5.91,4.65,4.65,0,0,1-.18,6.26A4.51,4.51,0,0,1,175,320.75Z"/><path class="a" d="M211.37,390.23a4.351,4.351,0,1,1,6.135-.465A4.35,4.35,0,0,1,211.37,390.23Z"/><path class="a" d="M56.1,130.17a4.31,4.31,0,1,1-.22-6.091,4.309,4.309,0,0,1,.22,6.091Z"/><path class="a" d="M721.42,610.19a4.43,4.43,0,0,1-.58-5.8,4.58,4.58,0,0,1,6.27-.56,4.49,4.49,0,0,1,.13,6.27,4.31,4.31,0,0,1-5.82.09Z"/><path class="a" d="M691,499.9a4.32,4.32,0,1,1-3.087-1.392A4.32,4.32,0,0,1,691,499.9Z"/><path class="a" d="M426.07,311.39a4.41,4.41,0,0,1-.52,6.19,4.2,4.2,0,0,1-5.72-.46,4.1,4.1,0,0,1,.5-6.11A4.29,4.29,0,0,1,426.07,311.39Z"/><path class="a" d="M708.88,557.85a4.1,4.1,0,0,1-6.11-.42,4,4,0,0,1,.34-5.68,4.06,4.06,0,0,1,5.71,0,4.19,4.19,0,0,1,.06,6.1Z"/><path class="a" d="M567,420a3.92,3.92,0,0,1-5.69-.17,4.2,4.2,0,0,1,.16-5.76,4.26,4.26,0,0,1,5.78.22A4,4,0,0,1,567,420Z"/><path class="a" d="M740,662a3.88,3.88,0,0,1-.16-5.68,4.28,4.28,0,0,1,5.77-.21,4.35,4.35,0,0,1,.11,5.8A4.07,4.07,0,0,1,740,662Z"/><path class="a" d="M49.6,95a4.16,4.16,0,0,1-.07-5.72,4.21,4.21,0,0,1,6.13.21,4,4,0,0,1-.4,5.67A3.94,3.94,0,0,1,49.6,95Z"/><path class="a" d="M323.46,487.55a3.86,3.86,0,0,1-.18,5.67,4.14,4.14,0,0,1-5.75-.15,4.3,4.3,0,0,1,.22-5.78A4.07,4.07,0,0,1,323.46,487.55Z"/><path class="a" d="M199.15,366.76a4.15,4.15,0,0,1,.28,5.73,4.37,4.37,0,0,1-5.79.22,4.17,4.17,0,0,1-.16-5.74,3.88,3.88,0,0,1,5.67-.21Z"/><path class="a" d="M606.55,733.73a4,4,0,0,1-5.68.39,4.28,4.28,0,0,1-.09-5.76,4.05,4.05,0,0,1,5.28-.23,3.72,3.72,0,0,1,.49,5.6Z"/><path class="a" d="M163.24,303.19a4.05,4.05,0,0,1-5.72,0,4.3,4.3,0,0,1,0-5.35,4.15,4.15,0,0,1,5.3-.32,3.87,3.87,0,0,1,.42,5.67Z"/><path class="a" d="M139.22,251a4,4,0,0,1,.22-5.64,3.84,3.84,0,0,1,5.6.17,4.22,4.22,0,0,1-.1,5.68,4.28,4.28,0,0,1-5.72-.21Z"/><path class="a" d="M118.8,24.1a4,4,0,0,1-.14-5.67,4.22,4.22,0,0,1,5.31,0,4,4,0,0,1,0,5.67,3.79,3.79,0,0,1-5.17,0Z"/><path class="a" d="M74,182.21a3.83,3.83,0,0,1-5.58-.37A3.758,3.758,0,0,1,74.17,177a3.87,3.87,0,0,1-.17,5.21Z"/><path class="a" d="M649.48,436a3.7,3.7,0,1,1,5-5.4,3.82,3.82,0,0,1,.16,5.22,3.73,3.73,0,0,1-5.16.18Z"/><path class="a" d="M91.24,193.68a3.674,3.674,0,1,1-5.17.24,3.76,3.76,0,0,1,5.17-.24Z"/><path class="a" d="M672.33,447.94a3.74,3.74,0,0,1,0,5.13,3.66,3.66,0,0,1-5.5-.39,3.7,3.7,0,0,1,.38-5.1A3.8,3.8,0,0,1,672.33,447.94Z"/><path class="a" d="M588.55,716.66a4,4,0,0,1-5.3,0,4.13,4.13,0,0,1-.26-5.3,3.83,3.83,0,1,1,5.56,5.26Z"/><path class="a" d="M601.82,413.79a3.74,3.74,0,0,1,0,5.19,3.88,3.88,0,0,1-5.63-.12,3.8,3.8,0,0,1,.48-5.2,3.68,3.68,0,0,1,5.15.13Z"/><path class="a" d="M624,745.69a3.7,3.7,0,0,1,.18,5.18,3.8,3.8,0,0,1-5.18.53,3.87,3.87,0,0,1-.19-5.62A3.74,3.74,0,0,1,624,745.69Z"/><path class="a" d="M708.25,517.25a4,4,0,0,1,.13,5.27,3.731,3.731,0,1,1-5.4-5.15,4,4,0,0,1,5.27-.12Z"/><path class="a" d="M109.42,216.21A3.728,3.728,0,1,1,109,211,3.73,3.73,0,0,1,109.42,216.21Z"/><path class="a" d="M726.44,569.47a4,4,0,0,1-.14,5.28,3.73,3.73,0,1,1,.14-5.28Z"/><path class="a" d="M181.27,355a3.64,3.64,0,0,1-5.16,0,3.55,3.55,0,0,1,0-5.13,3.65,3.65,0,0,1,5.16-.08A3.82,3.82,0,0,1,181.27,355Z"/><path class="a" d="M690,470a3.53,3.53,0,0,1-5.09,0,3.35,3.35,0,0,1,0-4.64,3.54,3.54,0,0,1,4.66-.46A3.63,3.63,0,0,1,690,470Z"/><path class="a" d="M529.94,630.15a3.59,3.59,0,0,1-.56-5.09,3.65,3.65,0,0,1,5.08-.71,3.6,3.6,0,0,1,.57,5.48,3.54,3.54,0,0,1-5.09.32Z"/><path class="a" d="M127.21,233.37a3.67,3.67,0,1,1-.46-5.17,3.6,3.6,0,0,1,.46,5.17Z"/><path class="a" d="M56,164.9a3.58,3.58,0,0,1-5.13-.16,3.53,3.53,0,0,1-.08-5.12A3.71,3.71,0,1,1,56,164.9Z"/><path class="a" d="M744.75,626.61a3.65,3.65,0,0,1-5.1.54,3.69,3.69,0,0,1-.48-5.12,3.52,3.52,0,0,1,5.07-.48,3.47,3.47,0,0,1,.51,5.06Z"/><path class="a" d="M38.16,142.47a3.61,3.61,0,0,1,.17,4.71,3.53,3.53,0,0,1-5.1,0,3.38,3.38,0,0,1,.25-4.66,3.45,3.45,0,0,1,4.68-.05Z"/><path class="a" d="M780.85,726a3.63,3.63,0,0,1,.26,4.69,3.52,3.52,0,0,1-5.07.06,3.37,3.37,0,0,1,.16-4.64,3.41,3.41,0,0,1,4.65-.11Z"/><path class="a" d="M636.57,418.16a3.37,3.37,0,0,1-4.63.31,3.51,3.51,0,0,1-.1-5.07,3.63,3.63,0,0,1,4.69.1,3.44,3.44,0,0,1,.04,4.66Z"/><path class="a" d="M762.62,673.88a3.47,3.47,0,0,1,.51,4.62,3.6,3.6,0,0,1-5.07.27,3.31,3.31,0,0,1,0-4.59,3.17,3.17,0,0,1,4.56-.3Z"/><path class="a" d="M258.74,21.32A3.54,3.54,0,0,1,259,16.6a3.41,3.41,0,0,1,4.69.26,3.19,3.19,0,0,1-.29,4.63,3.3,3.3,0,0,1-4.66-.17Z"/><path class="a" d="M163.63,337.45a3.27,3.27,0,0,1-4.65.26,3.16,3.16,0,0,1-.56-4.19,3.35,3.35,0,0,1,4.64-.75A3.41,3.41,0,0,1,163.63,337.45Z"/><path class="a" d="M405.51,159.14a3.37,3.37,0,0,1-4.71.08,3.52,3.52,0,0,1,.11-4.74,3.48,3.48,0,0,1,4.29,0,3.27,3.27,0,0,1,.31,4.66Z"/><path class="a" d="M145.11,285.4a3.12,3.12,0,0,1-4.62.33,3.3,3.3,0,0,1-.38-4.66,3.54,3.54,0,0,1,4.73-.33,3.25,3.25,0,0,1,.27,4.66Z"/><path class="a" d="M515.19,399.42a16.688,16.688,0,0,1-1.58,3.38c-.94,1.17-2.33,1.12-3.64.56a3.21,3.21,0,0,1-1.81-3.27,2.19,2.19,0,0,1,2.6-2.28C512,398.13,513.23,398.69,515.19,399.42Z"/><path class="a" d="M234.59,441.68a3.32,3.32,0,0,1-4.62-.54,3.27,3.27,0,0,1,.16-4.22,3.21,3.21,0,0,1,4.62.15,3.15,3.15,0,0,1-.16,4.61Z"/><path class="a" d="M516.52,612.36a3.06,3.06,0,1,1-4-4.59,3.32,3.32,0,0,1,4.21,0,3.23,3.23,0,0,1-.21,4.59Z"/><path class="a" d="M689.53,784.54a3.178,3.178,0,0,1,4.38-4.6,3.18,3.18,0,0,1-4.38,4.59Z"/><path class="a" d="M216.73,419.56a3.13,3.13,0,1,1-4.391.56,3.129,3.129,0,0,1,4.391-.56Z"/><path class="a" d="M252.51,454.44a3.23,3.23,0,0,1,0,4.19,3.162,3.162,0,1,1,0-4.19Z"/><path class="a" d="M570.32,698.93a3,3,0,0,1-4.57-.14,3.09,3.09,0,0,1,.34-4.57,3.14,3.14,0,0,1,4.19.12,3.1,3.1,0,0,1,.04,4.59Z"/><path class="a" d="M743.73,587.23a3,3,0,1,1-4.58-.05,3.15,3.15,0,0,1,4.58.05Z"/><path class="a" d="M761.74,639.14a3.11,3.11,0,0,1,.25,4.55,3.05,3.05,0,0,1-4.76-3.79,3.11,3.11,0,0,1,4.51-.76Z"/><path class="a" d="M37.5,112a3.088,3.088,0,1,1-4.5-4.23,3.12,3.12,0,0,1,4.17-.37,3.06,3.06,0,0,1,.33,4.6Z"/><path class="a" d="M707.08,482.65A3.019,3.019,0,1,1,703,487.1a3.12,3.12,0,0,1,0-4.1,3,3,0,0,1,4.08-.35Z"/><path class="a" d="M127.25,267.91a3.26,3.26,0,0,1-4.11.61,3.11,3.11,0,0,1-.44-4.52,2.89,2.89,0,0,1,4.07-.16A2.94,2.94,0,0,1,127.25,267.91Z"/><path class="a" d="M641.17,763.47a2.889,2.889,0,1,1-4.08.07,2.93,2.93,0,0,1,4.08-.07Z"/><path class="a" d="M725.53,539a3.06,3.06,0,0,1-4.51.16,3.055,3.055,0,1,1,4.51-.16Z"/><path class="a" d="M199,402.44a3.03,3.03,0,0,1-4.07,4.49,2.89,2.89,0,0,1-.39-4.05,3,3,0,0,1,4.46-.44Z"/><path class="a" d="M369.44,89.57a2.83,2.83,0,0,1-4.09.19,2.93,2.93,0,0,1-.31-4.11,2.75,2.75,0,0,1,4.06-.2A3,3,0,0,1,369.44,89.57Z"/><path class="a" d="M69.47,216a2.82,2.82,0,0,1,.6-4.06,2.7,2.7,0,0,1,3.61.55,2.91,2.91,0,0,1-.07,3.68A3,3,0,0,1,69.47,216Z"/><path class="a" d="M56.09,195.27a2.8,2.8,0,1,1-4.09-.02,2.8,2.8,0,0,1,4.09.02Z"/><path class="a" d="M266.08,475.72a2.81,2.81,0,0,1-.24-3.66,2.89,2.89,0,0,1,4.09-.36,2.78,2.78,0,0,1-3.85,4Z"/><path class="a" d="M145.34,320.05a2.818,2.818,0,1,1-3.84-4.11,2.83,2.83,0,0,1,3.65.07,2.75,2.75,0,0,1,.19,4.04Z"/><path class="a" d="M181,389.64a2.86,2.86,0,0,1-4.09-.49,2.82,2.82,0,0,1,.25-3.68,2.9,2.9,0,0,1,4.13,0,3,3,0,0,1-.29,4.17Z"/><path class="a" d="M171.49,5a3.1,3.1,0,0,1,.29-4.15,2.81,2.81,0,0,1,4.06.51A2.68,2.68,0,0,1,175.61,5a3,3,0,0,1-4.12,0Z"/><path class="a" d="M38.35,182a3.11,3.11,0,0,1-4.18-.07,2.88,2.88,0,0,1,.34-4.09,2.62,2.62,0,0,1,3.63.06,3,3,0,0,1,.21,4.1Z"/><path class="a" d="M724.84,783.73a2.92,2.92,0,0,1-.09-4.09,3.13,3.13,0,0,1,4.17.2,2.88,2.88,0,0,1-.47,4.08,2.6,2.6,0,0,1-3.61-.19Z"/><path class="a" d="M340.32,505.61a2.61,2.61,0,0,1,.17,3.61,2.92,2.92,0,0,1-4.08.42,2.815,2.815,0,1,1,3.91-4.03Z"/><path class="a" d="M109.21,250.4a2.82,2.82,0,0,1-4,.37,3,3,0,0,1-.21-3.7,2.78,2.78,0,0,1,4-.26,2.57,2.57,0,0,1,.21,3.59Z"/><path class="a" d="M91.45,233.18a2.87,2.87,0,0,1-4,.28,3.07,3.07,0,0,1-.19-3.67,2.78,2.78,0,0,1,3.54-.52,2.64,2.64,0,0,1,.65,3.91Z"/><path class="a" d="M779.24,660.8a2.62,2.62,0,0,1-3.48-3.9,2.69,2.69,0,0,1,3.65.27,2.57,2.57,0,0,1-.17,3.63Z"/><path class="a" d="M780.11,691.72a2.83,2.83,0,0,1-.15,3.63,2.64,2.64,0,0,1-4-.25,2.78,2.78,0,0,1,.07-3.62,3,3,0,0,1,4.08.24Z"/><path class="a" d="M761.2,608.49a2.83,2.83,0,0,1-4.06-.2,2.74,2.74,0,0,1,.24-3.62,2.88,2.88,0,0,1,3.64-.26,2.93,2.93,0,0,1,.18,4.08Z"/><path class="a" d="M743,555.93a2.6,2.6,0,1,1-.25-3.57A2.73,2.73,0,0,1,743,555.93Z"/><path class="a" d="M446.32,543a7.05,7.05,0,0,1-5.27-2.81c1.58-2.07,2.63-2.58,4.12-1.78C447,539.36,447.24,540.94,446.32,543Z"/><path class="a" d="M163.3,371.85a2.59,2.59,0,0,1-3.61.28,2.62,2.62,0,0,1-.15-3.61,2.74,2.74,0,0,1,3.62-.3A2.7,2.7,0,0,1,163.3,371.85Z"/><path class="a" d="M724.76,503.76a2.418,2.418,0,1,1-.39-3.46,2.35,2.35,0,0,1,.39,3.46Z"/><path class="a" d="M210.39,4.25a2.36,2.36,0,0,1-3.56-.13A2.41,2.41,0,0,1,206.7,1a2.38,2.38,0,0,1,3.58-.28,2.36,2.36,0,0,1,.11,3.53Z"/><path class="a" d="M688.53,434.52a2.54,2.54,0,0,1-3.52-.31,2.61,2.61,0,0,1,.45-3.53,2.69,2.69,0,0,1,3.11.32A2.49,2.49,0,0,1,688.53,434.52Z"/><path class="a" d="M53.18,54.29c.56,1.3,1.3,2.27,1.26,3.21a2.75,2.75,0,0,1-1.67,1.94,3.18,3.18,0,0,1-2.57-.66c-.81-.73-.42-1.81.37-2.52A28.714,28.714,0,0,1,53.18,54.29Z"/><path class="a" d="M670.72,413.67a2.39,2.39,0,0,1-3,3.69,2.52,2.52,0,0,1-.46-3.5A2.46,2.46,0,0,1,670.72,413.67Z"/><path class="a" d="M145.51,351.73a2.15,2.15,0,0,1-.1,3,2.43,2.43,0,0,1-3.45-.36,2.5,2.5,0,0,1,.56-3A2.16,2.16,0,0,1,145.51,351.73Z"/><path class="a" d="M19.24,129.64a7.44,7.44,0,0,1-2.65-.39,1.89,1.89,0,0,1-.28-2.94,2.18,2.18,0,0,1,3.43-.1,2.56,2.56,0,0,1-.5,3.43Z"/><path class="a" d="M20.35,164.18a2.34,2.34,0,1,1-3.58-3,2.66,2.66,0,0,1,3.16-.57,2.57,2.57,0,0,1,.42,3.57Z"/><path class="a" d="M550.45,682l-1.82-4c2.71-.83,3.58-.72,4.13.39S552.85,680.59,550.45,682Z"/><path class="a" d="M779.15,625.72c-1.53-.07-2.68.18-3.53-.23-1.14-.55-1.09-2.58-.13-3.42a2.1,2.1,0,0,1,3,.24C779,623.11,778.9,624.25,779.15,625.72Z"/><path class="a" d="M760.47,572.93a2.37,2.37,0,0,1-3.43-.28,1.93,1.93,0,0,1,.25-2.58c.83-.81,2.54-.85,3,.13A8,8,0,0,1,760.47,572.93Z"/><path class="a" d="M126.63,298.77a2.36,2.36,0,0,1,.59,3.44,2,2,0,0,1-3,.22c-.94-.91-1.2-2.45-.25-3A7.85,7.85,0,0,1,126.63,298.77Z"/><path class="a" d="M702.57,452c.19-1.52.09-2.63.51-3.5a1.91,1.91,0,0,1,2.94-.28c1.11.94,1.26,2.79.08,3.37C705.24,452,704.1,451.85,702.57,452Z"/><path class="a" d="M614.4,400.33c.26-1.33.2-2.34.65-3a1.89,1.89,0,1,1,2.41,2.88C616.76,400.55,615.73,400.3,614.4,400.33Z"/><path class="a" d="M796.71,677.14a2.18,2.18,0,0,1-3,.31,2.06,2.06,0,0,1,0-3,1.88,1.88,0,0,1,2.55-.28,2.09,2.09,0,0,1,.45,2.97Z"/><path class="a" d="M653.25,399.93c-1.34-.14-2.34,0-3-.38a1.76,1.76,0,0,1-.39-2.55,1.845,1.845,0,0,1,2.95-.12A11.073,11.073,0,0,1,653.25,399.93Z"/><path class="a" d="M724.29,469c-1.35-.16-2.35,0-3-.42a1.76,1.76,0,0,1-.36-2.55,1.918,1.918,0,0,1,3-.08A14.043,14.043,0,0,1,724.29,469Z"/><path class="a" d="M655.41,784.29a1.88,1.88,0,0,1,.28-2.91,2,2,0,0,1,2.56,0,2.05,2.05,0,0,1,.1,3,1.94,1.94,0,0,1-2.94-.09Z"/><path class="a" d="M287.18,492c-1.26,1-2.64.76-3.29-.31a1.78,1.78,0,0,1,.4-2.5,1.91,1.91,0,0,1,2.9.61,5.23,5.23,0,0,1-.01,2.2Z"/><path class="a" d="M351.09,72.4c-1.17,1.06-2.32,1.15-3.17.2-.66-.73-.91-1.83-1.6-3.34C348.89,69.78,350.37,70.53,351.09,72.4Z"/><path class="a" d="M140.63,4.67c-1.15,1.3-3,1.35-3.72.23a2.27,2.27,0,0,1-.07-2c.69-1.07,2.83-1.32,3.4-.42a5.52,5.52,0,0,1,.39,2.19Z"/><path class="a" d="M56,230c0,1.36.23,2.32-.12,3a1.55,1.55,0,0,1-2.4.31,1.47,1.47,0,0,1-.22-2.38C53.75,230.34,54.71,230.32,56,230Z"/><path class="a" d="M35.43,216.75a11,11,0,0,1,.2-3,1.58,1.58,0,0,1,2.44-.33c.76.72,1.13,1.72.28,2.46C37.77,216.35,36.77,216.36,35.43,216.75Z"/><path class="a" d="M742.3,520.9a8.09,8.09,0,0,1-2.92-.15c-1-.48-.91-1.57-.45-2.43s2.42-1.27,2.9-.41C742.22,518.6,742.11,519.57,742.3,520.9Z"/><path class="a" d="M128,337.35c-1.39-.05-2.36.18-3-.18a1.7,1.7,0,0,1,2.1-2.68C127.63,335,127.65,336,128,337.35Z"/><path class="a" d="M109.2,285.09a7,7,0,0,1-2.35.1c-1-.29-1.21-2.25-.44-2.91a1.84,1.84,0,0,1,2.56,0C109.79,282.92,109.89,283.78,109.2,285.09Z"/><path class="a" d="M88.14,268c.4-1.42.44-2.36.91-3a1.51,1.51,0,0,1,2.37.52c.21.61.14,1.77-.23,2C90.55,267.89,89.57,267.77,88.14,268Z"/><path class="a" d="M36.72,76.4c-1.34,0-2.29.2-2.94-.14-.94-.5-1-1.49-.26-2.35s1.63-1.18,2.37-.34C36.38,74.13,36.37,75.11,36.72,76.4Z"/><path class="a" d="M777.89,586.84c0,1.47.25,2.48-.13,3.06a1.47,1.47,0,0,1-2.39.13,2.06,2.06,0,0,1-.21-1.93C775.62,587.55,776.56,587.41,777.89,586.84Z"/><path class="a" d="M20.87,199.39c-1.42-.38-2.39-.39-3-.87a1.48,1.48,0,0,1,.49-2.37,2.288,2.288,0,0,1,2,.25C20.74,197,20.65,198,20.87,199.39Z"/><path class="a" d="M796.31,643c-1.31-.36-2.3-.37-2.85-.86a1.51,1.51,0,0,1,.17-2.45,1.57,1.57,0,0,1,2.46.29C796.46,640.6,796.24,641.58,796.31,643Z"/><path class="a" d="M796.83,709.29a1.83,1.83,0,0,1-.33,2.82,1.29,1.29,0,0,1-1.92-.56c-.24-.59-.26-1.83,0-2a6,6,0,0,1,2.25-.26Z"/><path class="a" d="M160.13,406.5a8.469,8.469,0,0,1,.72-2.45c.59-.79,2.14-.65,2.39.19.2.64.2,1.86-.14,2.05C162.45,406.64,161.5,406.44,160.13,406.5Z"/><path class="a" d="M181.44,420.63c-.36,1.49-.38,2.46-.85,3.09-.22.3-1.55.2-2-.18a1.845,1.845,0,0,1-.21-1.93C179,421.11,180,421.05,181.44,420.63Z"/><path class="a" d="M74.13,250.41c-1.38,0-2.34.14-3-.21-.34-.18-.36-1.41-.15-2a1.47,1.47,0,0,1,2.41-.23A9.46,9.46,0,0,1,74.13,250.41Z"/><path class="a" d="M198.33,441.15a4.471,4.471,0,0,1-1.75-.2c-.93-.49-1.11-2-.32-2.4a3,3,0,0,1,2.12-.19C199.23,438.62,199.3,440.07,198.33,441.15Z"/><path class="a" d="M796.17,607.44c-1.39-.05-2.34.12-3-.22-.31-.14-.36-1.4-.14-2a1.43,1.43,0,0,1,2.39-.29,10.183,10.183,0,0,1,.75,2.51Z"/><path class="a" d="M420.85,277.37a3.79,3.79,0,0,1,.42,4.19C418.94,279.63,418.94,279.63,420.85,277.37Z"/><path class="a" d="M813.85,659.38c-1,0-1.9.22-2.29-.11a2.17,2.17,0,0,1-.45-1.86,1.44,1.44,0,0,1,2.27-.37A7.55,7.55,0,0,1,813.85,659.38Z"/><path class="a" d="M759.62,535.15c-.14,1.07,0,2-.38,2.32a1.414,1.414,0,0,1-2-2C757.54,535.12,758.52,535.28,759.62,535.15Z"/><path class="a" d="M741.49,486.23a9.429,9.429,0,0,1-2.37-1,1.09,1.09,0,0,1,.2-1.88,2.08,2.08,0,0,1,1.93.26C741.61,484,741.41,484.93,741.49,486.23Z"/><path class="a" d="M109.23,320.43a7.91,7.91,0,0,1-2.14-1.13,1.33,1.33,0,0,1,.91-2.08,2.14,2.14,0,0,1,1.67.92C109.89,318.6,109.47,319.37,109.23,320.43Z"/><path class="a" d="M813.37,624.94c-1.18-.34-2.15-.34-2.4-.77s.07-1.34.14-2c.69.09,1.58,0,2,.34S813.27,623.74,813.37,624.94Z"/><path class="a" d="M214,458.18c0-.94-.15-1.8.08-1.92a2.52,2.52,0,0,1,2-.32,1.12,1.12,0,0,1,.14,1.91C215.73,458.2,214.9,458.07,214,458.18Z"/><path class="a" d="M2,146.59c-.92-.13-1.77-.08-1.85-.3a3,3,0,0,1,.05-1.83,2.033,2.033,0,0,1,1.38,0A6.37,6.37,0,0,1,2,146.59Z"/><path class="a" d="M145.34,389.64c-1.1-.4-2-.47-2.2-.88s.07-1.25.14-1.9c.66.08,1.55-.07,1.92.3S145.3,388.39,145.34,389.64Z"/><path class="a" d="M723.06,433a5.371,5.371,0,0,1-1.69.21c-.67-.16-.8-1.43-.16-1.8a1.6,1.6,0,0,1,1.43,0C723,431.65,722.91,432.32,723.06,433Z"/><path class="a" d="M810.88,589.45a5.1,5.1,0,0,1-.42-1.68,1.09,1.09,0,0,1,1.8-.32,1.65,1.65,0,0,1,.12,1.46C812.2,589.22,811.51,589.24,810.88,589.45Z"/><path class="a" d="M109.82,352.79c0,.65.11,1.34-.15,1.6a1.63,1.63,0,0,1-1.45.19,1.06,1.06,0,0,1-.07-1.83,4.54,4.54,0,0,1,1.67.04Z"/><path class="a" d="M705.31,416.09c-.92-.1-1.81,0-1.88-.23a3.141,3.141,0,0,1,.05-1.87c0-.15,1.28-.21,1.43,0a6.1,6.1,0,0,1,.4,2.1Z"/><path class="a" d="M758.53,502.67a5.32,5.32,0,0,1-1.7-.45c-.57-.43-.27-1.72.42-1.78a1.76,1.76,0,0,1,1.35.62C758.82,501.37,758.58,502,758.53,502.67Z"/><path class="a" d="M685.35,398.85a6.558,6.558,0,0,1,.17-2.09,1.8,1.8,0,0,1,1.43-.1,3.23,3.23,0,0,1,.25,1.87C687.18,398.69,686.25,398.71,685.35,398.85Z"/><path class="a" d="M36.15,250.74a6.2,6.2,0,0,1,.32-2.09c.14-.23,1.37-.21,1.43-.05a3.18,3.18,0,0,1,.11,1.88C38,250.67,37.05,250.63,36.15,250.74Z"/><path class="a" d="M56.19,268c-.92-.1-1.81,0-1.88-.23a3.14,3.14,0,0,1,0-1.87c0-.15,1.28-.21,1.43,0a6.21,6.21,0,0,1,.45,2.1Z"/><path class="a" d="M74,283.28a5.1,5.1,0,0,1-.44,1.68c-.43.57-1.7.26-1.76-.42a1.71,1.71,0,0,1,.6-1.35C72.67,283,73.28,283.22,74,283.28Z"/><path class="a" d="M91.62,300.44a5.1,5.1,0,0,1-.29,1.65c-.39.61-1.69.44-1.81-.22a1.72,1.72,0,0,1,.42-1.41C90.26,300.22,90.92,300.42,91.62,300.44Z"/><path class="a" d="M128,372.53c-1-.38-1.67-.44-2-.8a1.45,1.45,0,0,1-.18-1.37,1.39,1.39,0,0,1,1.34-.21C127.47,370.36,127.49,371,128,372.53Z"/><path class="a" d="M73.73,318.29c.19.53.3.84.4,1.15a5.758,5.758,0,0,1-1.35.22c-.09,0-.33-.8-.21-.9a3.771,3.771,0,0,1,1.16-.47Z"/><path class="a" d="M54.73,302.33c.16-.45.31-.89.47-1.32.31.12.86.19.89.35a4.31,4.31,0,0,1-.18,1.26Z"/><path class="a" d="M71.53,39.84l-2.18,1.95-.59-.56,1.85-2.18Z"/><path class="a" d="M814.27,694.89c-1.07-.43-1.71-.51-2-.88a1.45,1.45,0,0,1-.19-1.37,1.35,1.35,0,0,1,1.33-.22C813.7,692.63,813.73,693.29,814.27,694.89Z"/><path class="a" d="M794.6,572.14c-.73-.23-1.4-.24-1.59-.55s.06-.94.11-1.42c.5.07,1.17,0,1.44.25S794.6,571.35,794.6,572.14Z"/><path class="a" d="M777.74,555.17c-1.59-.48-2.26-.49-2.47-.8a1.34,1.34,0,0,1,.19-1.34,1.43,1.43,0,0,1,1.36.16C777.19,553.51,777.29,554.13,777.74,555.17Z"/><path class="a" d="M.62,181.3c0-.79-.1-1.44.14-1.67s.93-.22,1.42-.31c0,.5.3,1.11.1,1.46S1.41,181.07.62,181.3Z"/><path class="a" d="M793.59,535.11l.53,1.15a7.476,7.476,0,0,1-1.3.39c-.07,0-.4-.68-.3-.8a4.589,4.589,0,0,1,1.07-.74Z"/><path class="a" d="M810.26,553.77c.13-.46.25-.92.38-1.37.32.12.89.19.92.36a3.861,3.861,0,0,1-.2,1.27Z"/><path class="a" d="M758.16,467l-1,.38-.36-1c.33-.11.75-.4,1-.29S758,466.67,758.16,467Z"/><path class="a" d="M91.49,336.89l-1,.07c.12-.47.23-.94.35-1.41.31.16.76.24.91.5S91.58,336.65,91.49,336.89Z"/><path class="a" d="M37.07,285c.08-.33.16-.66.23-1l1.24.39c-.16.28-.25.72-.48.81S37.41,285.09,37.07,285Z"/><path class="a" d="M20.44,232.85l-1,.38-.35-1c.33-.11.75-.39,1-.28S20.31,232.51,20.44,232.85Z"/><path class="a" d="M830,605l-.12,1-1.35-.24c.16-.32.25-.76.52-.93S829.63,605,830,605Z"/><path class="a" d="M830,641l-.94-.19c.12-.4.25-.8.38-1.2.28.14.75.22.81.42S830.09,640.71,830,641Z"/><path class="a" d="M775.94,519.35h-1l.39-1.32c.31.14.76.2.9.44S776,519,775.94,519.35Z"/><path class="a" d="M497.42,590.65a6.5,6.5,0,0,1,1.24.78c.2.21.2.64.45,1.59l-2-2C497.19,590.91,497.31,590.78,497.42,590.65Z"/><path class="a" d="M392.28,522.94a6.861,6.861,0,0,1-1-.37c-.06,0,0-.35,0-.54a5.936,5.936,0,0,1,.94.37C392.33,522.45,392.27,522.75,392.28,522.94Z"/><path class="a" d="M740.06,450c-.29-.12-.69-.16-.85-.38s0-.55.09-.84a2.49,2.49,0,0,1,.92.39C740.33,449.28,740.13,449.7,740.06,450Z"/><path class="a" d="M330.18,54.94l-.25-.45a4.56,4.56,0,0,1,.74,0s0,.33,0,.5Z"/><path class="a" d="M829.48,674.88h.81a6.761,6.761,0,0,1,0,.9s-.45.08-.48,0A4.194,4.194,0,0,1,829.48,674.88Z"/></g></svg>