<svg xmlns="http://www.w3.org/2000/svg" width="822.927" height="514.715" viewBox="0 0 822.927 514.715"><defs><style>.a{fill:#1a1a1a; opacity: 0.2;}</style></defs><g transform="translate(0.007 0.006)"><path class="a" d="M416,204.16c-4.83-2.88-8.08-6.63-9-12.73-1.86,1.91-3.16,3.46-4.66,4.77-4.42,3.84-10.24,4.73-14.89,2.25-5.47-2.93-8-7.7-8-13.79,0-3.1,1.72-5.7,3.83-7.72,6.51-6.22,14.9-7.07,21.21,1.63,1.37,1.9,2.09,4.27,3.15,6.51,9.41-12.19,22.26-10.9,27.82,5.06,1.53-1.62,2.8-3.19,4.28-4.51,5.34-4.74,12.17-5,17.55-.72a13.6,13.6,0,0,1-1.34,22.4,54.61,54.61,0,0,1-6.43,2.79c1.24,1,2.27,1.9,3.32,2.75a13.61,13.61,0,0,1-4.25,23.33c-1.4.49-2.85.86-5,1.5a61.406,61.406,0,0,1,5.31,4.5,13.27,13.27,0,1,1-14.88-2.92,57.59,57.59,0,0,1,5.88-1.95,51.264,51.264,0,0,1-4.46-3.65,20.519,20.519,0,0,1-3.4-4.38,34.671,34.671,0,0,1-1.92-5.2c-2.4-.73-2.35,1.64-3.22,2.66a13.49,13.49,0,1,1-17.8-19.66A59.443,59.443,0,0,1,416,204.16ZM435,196c-6.11,6.42-6.11,6.42-13.62,9.43a36.427,36.427,0,0,1,4.19,3.47,22.748,22.748,0,0,1,3.08,4.59,59.365,59.365,0,0,1,2.26,5.57c3.05-5.82,7.14-8.79,14-9.81C439,206.12,436.13,202.16,435,196Z"/><path class="a" d="M412.64,157.51c6.32-7.82,12.11-10.13,18-7.47,6.07,2.77,10.26,9.94,9,15.44s-7,10.37-12.56,10.82c-7.38.59-11.84-3-15.47-12.76-1.48,1.59-2.73,3.12-4.18,4.43a13.64,13.64,0,0,1-15.6,2.17c-4.58-2.25-8.54-8.85-7.7-13.9a14.22,14.22,0,0,1,8-10.39,13,13,0,0,1,17.34,4.72,60.131,60.131,0,0,1,3.17,6.94Z"/><path class="a" d="M471.76,242.67a52,52,0,0,1,5.51,4.5,13.17,13.17,0,0,1-3.14,20.6A13.38,13.38,0,0,1,456,263c-4.41-7.77-1.42-14.56,5.12-18.51,1.93-1.17,4.29-1.63,7.09-2.64-6.87-4.48-11.71-9.89-9-17.92a13.69,13.69,0,0,1,26.64,3.57C486.22,234.49,482.13,239,471.76,242.67Z"/><path class="a" d="M355.47,152.25C349.56,161,344,163.42,337,160.81a13.33,13.33,0,0,1,3.15-25.6c7.48-1,11.94,2.55,16.32,13.37a22.19,22.19,0,0,1,2.92-3.74c2-1.67,4.09-3.56,6.47-4.45,6.81-2.54,14,1.08,16.75,8a13.5,13.5,0,0,1-24.43,11.37C357.13,157.69,356.59,155.35,355.47,152.25Z"/><path class="a" d="M497.72,247.92c7,1.17,12.5,8.24,11.2,15.13a13.59,13.59,0,0,1-16,11c-7.08-1.46-12-8.42-10.68-15.4a13.62,13.62,0,0,1,15.48-10.73Z"/><path class="a" d="M479.16,187.17c6.92,1.08,12.08,8.13,11.11,15.16s-8.78,13-15.57,11.89c-6.23-1.05-12.64-10.3-11.33-16.32C464.78,191.46,472.61,186.14,479.16,187.17Z"/><path class="a" d="M416.16,132.51A13.47,13.47,0,0,1,400.63,143a13.05,13.05,0,0,1-11-15.11,13.2,13.2,0,0,1,15.94-10.8C412.64,118.56,417.52,125.58,416.16,132.51Z"/><path class="a" d="M513.54,235.23c-1.78,7.17-8,12-15.45,10.64-7.19-1.29-12.24-8.17-11-15.2.95-5.27,6.63-12.16,15.44-10.7C508.93,221,514.37,226.93,513.54,235.23Z"/><path class="a" d="M378.3,183.67A13.45,13.45,0,0,1,363,194.45a13.27,13.27,0,0,1-10.81-15.23c1.17-7.36,8.94-13.21,15.72-11.27C375.62,170.17,379.52,176.74,378.3,183.67Z"/><path class="a" d="M456.3,154.53a13.17,13.17,0,1,1-9.914,1.984A13.3,13.3,0,0,1,456.3,154.53Z"/><path class="a" d="M386,226.53a13.1,13.1,0,0,1-10.46-15.39,13.38,13.38,0,0,1,15.61-10.28c6.79,1.37,12.14,9.15,10.71,15.54C400.36,223.19,393,227.87,386,226.53Z"/><path class="a" d="M387.86,127.77a13.25,13.25,0,1,1-10.2-15.51,13,13,0,0,1,10.2,15.51Z"/><path class="a" d="M359.73,122.47a13.13,13.13,0,1,1-10.81-15.06,12.82,12.82,0,0,1,10.81,15.06Z"/><path class="a" d="M312,156.61a13.41,13.41,0,0,1-10.78-15.31,13.24,13.24,0,0,1,15.45-10.51c7,1.28,12.37,8.57,10.92,15.28C326.44,151.52,320.61,158.13,312,156.61Z"/><path class="a" d="M487.4,301.77c-7-2-11.35-9.54-9.37-16.18,2.08-7,9.63-11.19,16.3-9.07a13,13,0,0,1,8.76,16.37C501,299.53,493.83,303.59,487.4,301.77Z"/><path class="a" d="M510.49,263.14A13,13,0,1,1,512.366,273a13,13,0,0,1-1.876-9.865Z"/><path class="a" d="M427.61,147.37a13,13,0,0,1,5.48-25.4,12.79,12.79,0,0,1,10.16,15.49C441.75,144.71,435,149,427.61,147.37Z"/><path class="a" d="M413.87,233.94a12.65,12.65,0,0,1,10,15.55,12.89,12.89,0,0,1-15.1,9.83,13.13,13.13,0,0,1-10.24-14.9,12.81,12.81,0,0,1,15.34-10.48Z"/><path class="a" d="M335.06,189.34a13.24,13.24,0,0,1-10.76-14.57,13,13,0,1,1,10.76,14.57Z"/><path class="a" d="M530.91,297.13c-1.74,6.63-8.95,11-15.47,9.38a13,13,0,1,1,15.47-9.38Z"/><path class="a" d="M316.9,128.24a12.88,12.88,0,0,1,4.59-25.34c6.7,1.23,11.82,8,10.6,14.63a13,13,0,0,1-15.19,10.71Z"/><path class="a" d="M475.53,286.32A13.39,13.39,0,0,1,460.21,297,13,13,0,0,1,450,282.22a12.73,12.73,0,0,1,14.33-10.76,13.19,13.19,0,0,1,11.2,14.86Z"/><path class="a" d="M284.28,151.6a12.87,12.87,0,0,1-10.64-14.54,12.53,12.53,0,0,1,14.23-10.86A12.79,12.79,0,0,1,299,141.05,13.18,13.18,0,0,1,284.28,151.6Z"/><path class="a" d="M479.54,185.16a12.83,12.83,0,0,1-10.24-14.81A12.5,12.5,0,0,1,484.56,160a12.82,12.82,0,0,1,10,15,13.27,13.27,0,0,1-15.02,10.16Z"/><path class="a" d="M540.69,239.56a12.92,12.92,0,0,1-14.33,10.79,12.68,12.68,0,0,1-11-14.08A12.82,12.82,0,0,1,530,225.06a13.07,13.07,0,0,1,10.69,14.5Z"/><path class="a" d="M507,192.7a12.54,12.54,0,0,1,10.64,14.4c-1.16,7.85-7.84,12-15,10.88-6.71-1-11.53-8.26-10.38-14.88A13,13,0,0,1,507,192.7Z"/><path class="a" d="M456.54,152.05a12.66,12.66,0,0,1-10.37-14.57A12.83,12.83,0,0,1,460.72,127a13.07,13.07,0,0,1,10.46,14.65,12.9,12.9,0,0,1-14.64,10.4Z"/><path class="a" d="M373.08,210.7a12.93,12.93,0,0,1-14.37,10.78A12.7,12.7,0,0,1,348,207.17a12.9,12.9,0,0,1,14.29-10.89C368.86,197.15,374,204,373.08,210.7Z"/><path class="a" d="M311.37,159.2a12.81,12.81,0,0,1,10.85,14.39,13,13,0,0,1-14.54,10.7,12.68,12.68,0,1,1,3.69-25.09Z"/><path class="a" d="M377.91,109.47a12.44,12.44,0,0,1-10.66-14.33,12.68,12.68,0,0,1,14.62-10.41,12.83,12.83,0,0,1,10.37,14,12.57,12.57,0,0,1-14.33,10.74Z"/><path class="a" d="M422.15,277.19a12.53,12.53,0,1,1,9.965,14.579,12.46,12.46,0,0,1-9.965-14.579Z"/><path class="a" d="M294,169a12.76,12.76,0,0,1-14.84,10.24A12.53,12.53,0,1,1,294,169Z"/><path class="a" d="M544,311a12.61,12.61,0,1,1,9.563-1.938A12.55,12.55,0,0,1,544,311Z"/><path class="a" d="M563.54,272.47a12.46,12.46,0,1,1-4.566-11.807A12.46,12.46,0,0,1,563.54,272.47Z"/><path class="a" d="M511.17,334.05a12.411,12.411,0,1,1,14.545-9.825A12.411,12.411,0,0,1,511.17,334.05Z"/><path class="a" d="M364,94.24a12.46,12.46,0,1,1-2.415-9.425A12.45,12.45,0,0,1,364,94.24Z"/><path class="a" d="M265.71,164a12.46,12.46,0,1,1-10.79-14.12A12.31,12.31,0,0,1,265.71,164Z"/><path class="a" d="M395.85,243.59a12.31,12.31,0,1,1-9.94-14,12.31,12.31,0,0,1,9.94,14Z"/><path class="a" d="M409.37,90.09a12.35,12.35,0,1,1-13.93,10.12A12.18,12.18,0,0,1,409.37,90.09Z"/><path class="a" d="M498.1,319a12.35,12.35,0,1,1-10-14.05,12.35,12.35,0,0,1,10,14.05Z"/><path class="a" d="M292.9,98.59a12.342,12.342,0,1,1-3.24,24.47c-6.65-.68-11.83-7.57-10.74-14.29A12.64,12.64,0,0,1,292.9,98.59Z"/><path class="a" d="M539.29,338.81a12.29,12.29,0,0,1-9.82-14.18,12.14,12.14,0,0,1,14.76-9.87,11.94,11.94,0,0,1,9.31,14.4A12.18,12.18,0,0,1,539.29,338.81Z"/><path class="a" d="M544.61,212.33a11.89,11.89,0,0,1-14.17,9.56,12.17,12.17,0,0,1-9.73-14.15,12.36,12.36,0,0,1,14.3-9.61,12.06,12.06,0,0,1,9.6,14.2Z"/><path class="a" d="M469.69,314.41a12.15,12.15,0,0,1-14,9.91,12.29,12.29,0,0,1-9.85-14.11,12,12,0,0,1,14.06-9.77,11.83,11.83,0,0,1,9.79,13.97Z"/><path class="a" d="M418.65,276.46a12.17,12.17,0,0,1-13.91,10.07,12.094,12.094,0,1,1,3.66-23.91,12.35,12.35,0,0,1,10.25,13.84Z"/><path class="a" d="M572.25,315.36a12.147,12.147,0,1,1,14.21-9.68,12,12,0,0,1-14.21,9.68Z"/><path class="a" d="M521.92,179A12.05,12.05,0,0,1,508,189.1a11.81,11.81,0,0,1-10-13.22,12.21,12.21,0,0,1,13.54-10.75A12.41,12.41,0,0,1,521.92,179Z"/><path class="a" d="M571.38,319.68a12,12,0,0,1,10.2,13.8,12.29,12.29,0,0,1-14.09,10A12.1,12.1,0,0,1,557.74,330a11.77,11.77,0,0,1,13.64-10.32Z"/><path class="a" d="M447.72,109.07a12.111,12.111,0,1,1-10.07-13.86,12.08,12.08,0,0,1,10.07,13.86Z"/><path class="a" d="M325.61,75.77a11.77,11.77,0,0,1,10.14,13.65,12.1,12.1,0,0,1-13.87,10A12.37,12.37,0,0,1,312,86.08a12,12,0,0,1,13.61-10.31Z"/><path class="a" d="M553.62,254.36a12.26,12.26,0,0,1-9.38-14.43,12.07,12.07,0,0,1,14.58-9,11.75,11.75,0,0,1,9,13.83,12,12,0,0,1-14.2,9.6Z"/><path class="a" d="M330.42,216a11.94,11.94,0,0,1-9.71-14.07A11.66,11.66,0,0,1,334,192.28,12.15,12.15,0,0,1,344.4,206a12.32,12.32,0,0,1-13.98,10Z"/><path class="a" d="M260.46,122.06a12.5,12.5,0,0,1,9.67,14.33,12.07,12.07,0,0,1-14.44,9.27A11.61,11.61,0,0,1,246.47,132a12.12,12.12,0,0,1,13.99-9.94Z"/><path class="a" d="M591.12,277.13a11.89,11.89,0,0,1-13.14,10,11.68,11.68,0,0,1-10.43-13.42,12,12,0,0,1,13.07-10.14C587.05,264.16,592,270.6,591.12,277.13Z"/><path class="a" d="M475,141.64A12,12,0,0,1,489.77,133a11.71,11.71,0,0,1,8.48,14.17,11.84,11.84,0,0,1-14.7,8.76A12.12,12.12,0,0,1,475,141.64Z"/><path class="a" d="M251,178.11a11.887,11.887,0,0,1-4.57,23.33,11.76,11.76,0,0,1-9.25-14.37A11.58,11.58,0,0,1,251,178.11Z"/><path class="a" d="M232.26,187.44a12,12,0,0,1-13.95,9,11.71,11.71,0,1,1,5-22.87,11.87,11.87,0,0,1,8.95,13.87Z"/><path class="a" d="M236.68,159.9c-1.55,6.21-8.22,10.27-14.18,8.65-6.2-1.69-10.08-8.34-8.38-14.34,1.66-5.84,7.94-9.68,13.69-8.36C234,147.27,238.18,153.86,236.68,159.9Z"/><path class="a" d="M418.57,304.47a11.57,11.57,0,1,1,1.086,8.889,11.61,11.61,0,0,1-1.086-8.889Z"/><path class="a" d="M595.28,347.8a11.58,11.58,0,1,1,13.4-9.358,11.67,11.67,0,0,1-13.4,9.358Z"/><path class="a" d="M538.87,343a11.56,11.56,0,1,1-13.56,9.31A11.56,11.56,0,0,1,538.87,343Z"/><path class="a" d="M288.11,196.2a11.27,11.27,0,0,1-13.23,9.63,11.12,11.12,0,0,1-9.56-12.55,11.25,11.25,0,0,1,12.86-10.13,11.38,11.38,0,0,1,9.93,13.05Z"/><path class="a" d="M506.77,360.91a11.46,11.46,0,1,1,8.724-1.943,11.54,11.54,0,0,1-8.724,1.943Z"/><path class="a" d="M613.55,309.84a11.53,11.53,0,1,1-9.76-13.25,11.71,11.71,0,0,1,9.76,13.25Z"/><path class="a" d="M353.38,248.23a11.34,11.34,0,0,1-8.76-13.88,11,11,0,0,1,13.31-8.46,11.25,11.25,0,0,1,8.85,13.79,11.56,11.56,0,0,1-13.4,8.55Z"/><path class="a" d="M306.59,188a11.48,11.48,0,1,1-13.38,9.68A11.63,11.63,0,0,1,306.59,188Z"/><path class="a" d="M562.67,370.44a11.7,11.7,0,0,1-9.12-13.67,11.56,11.56,0,1,1,9.12,13.67Z"/><path class="a" d="M465.48,100.54a11.58,11.58,0,1,1-13.33,9.5,11.58,11.58,0,0,1,13.33-9.5Z"/><path class="a" d="M482.91,333.58A11.32,11.32,0,0,1,492.36,347a11.53,11.53,0,0,1-13.07,9.09,11.69,11.69,0,0,1-9.5-13.53,11.51,11.51,0,0,1,13.12-8.98Z"/><path class="a" d="M213.47,224.18a11.68,11.68,0,0,1-9.06-13.12,11.49,11.49,0,0,1,13.65-9.2,11.33,11.33,0,0,1,8.85,13.81,11.51,11.51,0,0,1-13.44,8.51Z"/><path class="a" d="M581.63,361.62a11,11,0,0,1,13.22-8.57,11.15,11.15,0,0,1,8.71,13.2A11.52,11.52,0,0,1,590.23,375,11.34,11.34,0,0,1,581.63,361.62Z"/><path class="a" d="M382.91,80.67A11.33,11.33,0,0,1,373.38,68a10.94,10.94,0,0,1,12.56-9.52A11.17,11.17,0,0,1,395.6,71,11.53,11.53,0,0,1,382.91,80.67Z"/><path class="a" d="M548.53,184.11A11.46,11.46,0,0,1,535.28,193a11.28,11.28,0,0,1-8.5-13.41,10.93,10.93,0,0,1,12.66-8.4,11.18,11.18,0,0,1,9.09,12.92Z"/><path class="a" d="M596.08,278a11,11,0,0,1,13.07-8.6,11.21,11.21,0,0,1,8.73,13,11.46,11.46,0,0,1-13.17,8.72A11.27,11.27,0,0,1,596.08,278Z"/><path class="a" d="M357.88,53.77a11,11,0,0,1,9.38,12.59,11.22,11.22,0,0,1-12.82,9.23,11.44,11.44,0,0,1-9.11-12.27,11.19,11.19,0,0,1,12.55-9.55Z"/><path class="a" d="M199.2,209.92a11.47,11.47,0,0,1-12.75,9.37,11.28,11.28,0,0,1-9.27-12.75,10.94,10.94,0,0,1,12.63-9.25,11.19,11.19,0,0,1,9.39,12.63Z"/><path class="a" d="M594.86,249.76a10.93,10.93,0,0,1-13.22,8.45,11.31,11.31,0,0,1-8.49-13.32,11.43,11.43,0,0,1,13.37-8.49,11.1,11.1,0,0,1,8.34,13.36Z"/><path class="a" d="M464,342.12a11.34,11.34,0,0,1-13.24,8.75,11.1,11.1,0,0,1-8.31-13.43A10.76,10.76,0,0,1,455,329.12a11,11,0,0,1,9,13Z"/><path class="a" d="M623.64,351.93a10.7,10.7,0,0,1-9.16-12.59A11.21,11.21,0,0,1,627.11,330a11.5,11.5,0,0,1,9.28,12.82,11.09,11.09,0,0,1-12.75,9.11Z"/><path class="a" d="M377.15,280.89A11,11,0,0,1,368,268.14a10.85,10.85,0,0,1,12.66-9.22A11.32,11.32,0,0,1,390,271.63a11.44,11.44,0,0,1-12.85,9.26Z"/><path class="a" d="M264.83,95a11.118,11.118,0,0,1-3.19,22,11.115,11.115,0,1,1,3.19-22Z"/><path class="a" d="M293.88,93.43a10.83,10.83,0,0,1-8.72-13,11.08,11.08,0,0,1,12.44-8.64,11.31,11.31,0,0,1,9.26,12.77,11.09,11.09,0,0,1-12.98,8.87Z"/><path class="a" d="M562.46,204a11.128,11.128,0,1,1-12.56,9.28A10.81,10.81,0,0,1,562.46,204Z"/><path class="a" d="M401.76,72.09a10.8,10.8,0,0,1,13.13-8.54,11,11,0,0,1,8.51,12.56,11.37,11.37,0,0,1-12.95,9.15,11.16,11.16,0,0,1-8.69-13.17Z"/><path class="a" d="M191.44,191a11.021,11.021,0,0,1,3.05-21.83c5.87.76,10.37,7,9.32,12.86A11.27,11.27,0,0,1,191.44,191Z"/><path class="a" d="M412.57,304a11,11,0,1,1-3.3-11.258A10.95,10.95,0,0,1,412.57,304Z"/><path class="a" d="M640.84,315.19a10.73,10.73,0,0,1-13.23,8.36,10.6,10.6,0,0,1-8.08-12.7c1.24-6.2,6.89-9.78,13.18-8.35A10.68,10.68,0,0,1,640.84,315.19Z"/><path class="a" d="M525.33,151.12a10.76,10.76,0,1,1-9-12.78,11,11,0,0,1,9,12.78Z"/><path class="a" d="M181,246.64a10.65,10.65,0,1,1,12.8-7.91,10.65,10.65,0,0,1-12.8,7.91Z"/><path class="a" d="M631.06,370.37a10.54,10.54,0,0,1-12.16,8.94,10.67,10.67,0,0,1-8.85-12.26,10.87,10.87,0,0,1,12.22-9A10.7,10.7,0,0,1,631.06,370.37Z"/><path class="a" d="M241,131a10.54,10.54,0,0,1-12.23,8.84,10.67,10.67,0,0,1-8.74-12.34,10.83,10.83,0,0,1,12.29-8.89A10.69,10.69,0,0,1,241,131Z"/><path class="a" d="M241.28,228.05a10.59,10.59,0,0,1-7.77-12.88,10.83,10.83,0,0,1,12.94-7.82c5.54,1.46,9.24,7.59,7.83,13a10.8,10.8,0,0,1-13,7.7Z"/><path class="a" d="M212.84,230.65a10.61,10.61,0,0,1,8.48,12.41,10.44,10.44,0,0,1-12.57,8.15,10.21,10.21,0,0,1-8.09-11.86,10.37,10.37,0,0,1,12.18-8.7Z"/><path class="a" d="M489.94,127a10.51,10.51,0,0,1-8.85-12.18,10.69,10.69,0,0,1,11.81-8.48,10.39,10.39,0,0,1,8.73,12.23A10.25,10.25,0,0,1,489.94,127Z"/><path class="a" d="M655.27,335.74a10.36,10.36,0,0,1,8.49,11.66,10.72,10.72,0,0,1-12.24,8.83,10.5,10.5,0,0,1-8.23-12.57,10.14,10.14,0,0,1,11.98-7.92Z"/><path class="a" d="M438.38,89.28a10.2,10.2,0,0,1-8-12.58,10.65,10.65,0,0,1,12-8.09,10.84,10.84,0,0,1,8.52,12.47,10.36,10.36,0,0,1-12.52,8.2Z"/><path class="a" d="M533.83,372.12a10.39,10.39,0,0,1,8.28,12.47,10.26,10.26,0,0,1-11.92,8A10.51,10.51,0,0,1,521.66,381a10.64,10.64,0,0,1,12.17-8.88Z"/><path class="a" d="M558.21,397.35a10.28,10.28,0,0,1-8.28-11.81,10.44,10.44,0,0,1,11.63-8.6,10.66,10.66,0,0,1,8.68,12.34A10.53,10.53,0,0,1,558.21,397.35Z"/><path class="a" d="M338.87,61.57A10,10,0,0,1,327.42,70a10.25,10.25,0,0,1-9-11.85,10.69,10.69,0,0,1,12.36-8.48,10.47,10.47,0,0,1,8.09,11.9Z"/><path class="a" d="M153.45,241.56a10.11,10.11,0,0,1-8.24-11.74,10.26,10.26,0,0,1,11.5-8.65,10.56,10.56,0,0,1,8.69,12.28,10.45,10.45,0,0,1-11.95,8.11Z"/><path class="a" d="M645.06,286.85A10,10,0,0,1,633.29,295a10.24,10.24,0,0,1-8.56-11.55,10.6,10.6,0,0,1,12.34-8.63,10.41,10.41,0,0,1,7.99,12.03Z"/><path class="a" d="M514,379.47a10.1,10.1,0,0,1-11.74,8.25,10.333,10.333,0,1,1,3.87-20.3A10.27,10.27,0,0,1,514,379.47Z"/><path class="a" d="M435,337a9.91,9.91,0,0,1-11.72,8.14,10.22,10.22,0,0,1-8.51-11.58,10.55,10.55,0,0,1,12.35-8.6A10.24,10.24,0,0,1,435,337Z"/><path class="a" d="M150.12,201.49a10.19,10.19,0,0,1,11.68-8.27,10.4,10.4,0,0,1,8.29,12.45A10.14,10.14,0,0,1,158,213.3a9.88,9.88,0,0,1-7.88-11.81Z"/><path class="a" d="M325.64,242.12a9.88,9.88,0,0,1-8-11.75A10.21,10.21,0,0,1,329.22,222a10.47,10.47,0,0,1,8.45,12.4,10.18,10.18,0,0,1-12.03,7.72Z"/><path class="a" d="M656.34,327.89A10.32,10.32,0,0,1,648.2,316a10.48,10.48,0,0,1,11.91-8.24,10.74,10.74,0,0,1,8.21,12A10.51,10.51,0,0,1,656.34,327.89Z"/><path class="a" d="M207.62,154.18A10.08,10.08,0,0,1,196,162.55a10.23,10.23,0,0,1-8.27-11.76,10.34,10.34,0,0,1,11.7-8.41A10.23,10.23,0,0,1,207.62,154.18Z"/><path class="a" d="M647.33,383.48a11.67,11.67,0,1,1,.04,0Z"/><path class="a" d="M597.54,393.71a10.07,10.07,0,1,1-1.648-7.61,10,10,0,0,1,1.648,7.61Z"/><path class="a" d="M466.11,371.06a10.09,10.09,0,1,1,8.22,11.646A10.14,10.14,0,0,1,466.11,371.06Z"/><path class="a" d="M613.75,242.29a10,10,0,1,1-11.86,7.8,9.8,9.8,0,0,1,11.86-7.8Z"/><path class="a" d="M598.65,221.45a10.31,10.31,0,0,1-11.18,8.15c-5.28-.69-9.41-6.38-8.45-11.66a10,10,0,1,1,19.63,3.51Z"/><path class="a" d="M169,261.54a9.87,9.87,0,1,1,6.82,11.8,9.58,9.58,0,0,1-6.82-11.8Z"/><path class="a" d="M160,261.29a9.5,9.5,0,0,1-11.47,7.27,9.61,9.61,0,0,1-7.58-11.31,9.76,9.76,0,0,1,12-7.62A9.63,9.63,0,0,1,160,261.29Z"/><path class="a" d="M679.14,360a9.31,9.31,0,0,1-7.45-11.28A9.74,9.74,0,0,1,683,341.1a10,10,0,0,1,7.52,11.48A9.59,9.59,0,0,1,679.14,360Z"/><path class="a" d="M174.27,177.25A9.44,9.44,0,0,1,163,184.72a9.63,9.63,0,0,1-7.54-11.35,9.79,9.79,0,0,1,11.42-7.51,9.58,9.58,0,0,1,7.39,11.39Z"/><path class="a" d="M262.51,220.7a9.38,9.38,0,0,1,11.3-7.44,9.54,9.54,0,0,1,7.57,11.29A9.89,9.89,0,0,1,270,232.12,9.67,9.67,0,0,1,262.51,220.7Z"/><path class="a" d="M458.86,81.93a9.37,9.37,0,0,1,11.28-7.37,9.54,9.54,0,0,1,7.49,11.27,9.93,9.93,0,0,1-11.39,7.5,9.66,9.66,0,0,1-7.38-11.4Z"/><path class="a" d="M606.39,395.52a9.29,9.29,0,0,1,10.7-8.16,9.73,9.73,0,0,1,8.28,10.76,9.87,9.87,0,0,1-10.88,8.19,9.44,9.44,0,0,1-8.1-10.79Z"/><path class="a" d="M556.27,185a9.3,9.3,0,0,1,11.24-7.48,9.62,9.62,0,0,1,7.63,11.25,10.07,10.07,0,0,1-11.41,7.62A9.67,9.67,0,0,1,556.27,185Z"/><path class="a" d="M533.12,152.68a9.58,9.58,0,0,1,10.94-8,9.82,9.82,0,0,1,7.65,10.56,9.61,9.61,0,0,1-11,8,9.49,9.49,0,0,1-7.59-10.56Z"/><path class="a" d="M136.42,228.37a9.24,9.24,0,0,1-11.17,7.49,9.56,9.56,0,0,1-7.48-10.61,9.44,9.44,0,0,1,11-7.88,9.12,9.12,0,0,1,7.65,11Z"/><path class="a" d="M664.31,280.5a9.2,9.2,0,0,1,7.89,11,9.48,9.48,0,0,1-10.48,7.77,9.75,9.75,0,0,1-8-11.14,9.41,9.41,0,0,1,10.59-7.63Z"/><path class="a" d="M277.15,79.24a9.26,9.26,0,0,1-10.22,7.91,9.45,9.45,0,0,1-8.46-10.6,9.75,9.75,0,0,1,11.13-7.89A9.46,9.46,0,0,1,277.15,79.24Z"/><path class="a" d="M290.71,225.84a9.22,9.22,0,0,1,11-7.67,9.44,9.44,0,0,1,7.5,11.26,9.85,9.85,0,0,1-10.73,7.46,9.52,9.52,0,0,1-7.77-11.05Z"/><path class="a" d="M446.79,377.26a9.35,9.35,0,1,1,8.914-3.239A9.35,9.35,0,0,1,446.79,377.26Z"/><path class="a" d="M677.9,369.19a9.25,9.25,0,1,1-10.69,7.3,9.4,9.4,0,0,1,10.69-7.3Z"/><path class="a" d="M695.53,324.23a9.27,9.27,0,1,1-1.741-7.12,9.28,9.28,0,0,1,1.741,7.12Z"/><path class="a" d="M141,200.28a9.12,9.12,0,1,1-7-10.76A9.12,9.12,0,0,1,141,200.28Z"/><path class="a" d="M197.08,267.29a10.971,10.971,0,1,0,0-.03Z"/><path class="a" d="M226.36,99.72a9.14,9.14,0,1,1,7.3,10.65A9.35,9.35,0,0,1,226.36,99.72Z"/><path class="a" d="M349.23,273.87a9,9,0,1,1,10.64-7.21,9.11,9.11,0,0,1-10.64,7.21Z"/><path class="a" d="M113.49,252.75a9.12,9.12,0,1,1,7.23,10.66A9.29,9.29,0,0,1,113.49,252.75Z"/><path class="a" d="M638.3,266.32a9.11,9.11,0,0,1-7.55-10.4,9,9,0,0,1,10.37-7.53,8.79,8.79,0,0,1,7.51,10.34,9,9,0,0,1-10.33,7.59Z"/><path class="a" d="M387.85,50.38a9.44,9.44,0,0,1-7.55-10.55A9.3,9.3,0,0,1,391,32.55a9.09,9.09,0,0,1,7.15,10,9.2,9.2,0,0,1-10.3,7.83Z"/><path class="a" d="M299,63.87a9.18,9.18,0,0,1-7.26-10.72c1.09-4.78,6.34-8.12,11-7a9.36,9.36,0,0,1,6.88,10.36A9,9,0,0,1,299,63.87Z"/><path class="a" d="M237.52,254.47a8.57,8.57,0,0,1-7.14-9.78,8.73,8.73,0,0,1,10.2-7.58,9.09,9.09,0,0,1,7.29,9.86,8.93,8.93,0,0,1-10.35,7.5Z"/><path class="a" d="M518.1,130.26a8.65,8.65,0,0,1-7.36-9.71,8.833,8.833,0,1,1,7.36,9.71Z"/><path class="a" d="M642.11,410.24a8.63,8.63,0,0,1-7-10,8.81,8.81,0,0,1,10.45-7.36,9.06,9.06,0,0,1,7,10.07,8.88,8.88,0,0,1-10.45,7.29Z"/><path class="a" d="M375.76,289a8.53,8.53,0,0,1,6.95,10,8.7,8.7,0,0,1-9.85,7.22,8.94,8.94,0,0,1-7.36-10.53A8.8,8.8,0,0,1,375.76,289Z"/><path class="a" d="M418.46,37.64a8.56,8.56,0,0,1,7.5,9.59,8.75,8.75,0,0,1-10.25,7.66,9,9,0,0,1-7.12-10,8.76,8.76,0,0,1,9.87-7.25Z"/><path class="a" d="M144.14,295.71a8.4,8.4,0,0,1-7.1-9.77,8.94,8.94,0,0,1,10.29-7.6,9.45,9.45,0,0,1,7.23,10,8.88,8.88,0,0,1-10.42,7.37Z"/><path class="a" d="M182.31,293.3a8.35,8.35,0,0,1-9.75,7.23,8.77,8.77,0,0,1-7.63-9.58,9.24,9.24,0,0,1,10.37-7.74,8.86,8.86,0,0,1,7.01,10.09Z"/><path class="a" d="M528.87,402a8.56,8.56,0,0,1,6.86,10,8.88,8.88,0,0,1-9.87,7.19,9.06,9.06,0,0,1-7.24-10.59A8.77,8.77,0,0,1,528.87,402Z"/><path class="a" d="M211,126.17a8.29,8.29,0,0,1-10,6.76,8.76,8.76,0,0,1-7.17-9.89,9.179,9.179,0,0,1,10.69-7.25A8.83,8.83,0,0,1,211,126.17Z"/><path class="a" d="M710.72,347a8.6,8.6,0,0,1,6.88,10.09,8.9,8.9,0,0,1-10.16,7,9.13,9.13,0,0,1-6.92-10.25A8.77,8.77,0,0,1,710.72,347Z"/><path class="a" d="M715.75,318.92a8.82,8.82,0,0,1,6.57,10.31,8.73,8.73,0,0,1-10.23,6.62,8.92,8.92,0,0,1-6.65-10.28C706.46,321.13,711.4,317.94,715.75,318.92Z"/><path class="a" d="M557.43,407a8.7,8.7,0,0,1,6.15,10.44c-1.27,4.46-6.23,7.35-10.52,6.13A8.569,8.569,0,1,1,557.43,407Z"/><path class="a" d="M690,303.08a8.27,8.27,0,0,1-7.37-9.6,8.65,8.65,0,0,1,9.62-7.51,8.94,8.94,0,0,1,7.47,9.77,8.58,8.58,0,0,1-9.72,7.34Z"/><path class="a" d="M107.89,223.19a8.464,8.464,0,1,1-6.8-9.85,8.47,8.47,0,0,1,6.8,9.85Z"/><path class="a" d="M352.73,35.13a8.29,8.29,0,0,1,9.76-7,8.72,8.72,0,0,1,7.41,9.61,8.84,8.84,0,0,1-10.37,7.41,8.52,8.52,0,0,1-6.8-10.02Z"/><path class="a" d="M624.76,226.21a8.51,8.51,0,0,1-10.25,6.6,8.6,8.6,0,0,1-6.4-9.75,8.74,8.74,0,0,1,10-7.11,8.62,8.62,0,0,1,6.65,10.26Z"/><path class="a" d="M507.39,407.45a8.57,8.57,0,0,1-10.3,6.55,8.7,8.7,0,0,1-6.33-9.82,8.48,8.48,0,1,1,16.63,3.27Z"/><path class="a" d="M395.34,338.6a8.27,8.27,0,0,1-6.62-10.12,8.43,8.43,0,0,1,9.51-6.62,8.52,8.52,0,0,1,7.11,9.9,8.32,8.32,0,0,1-10,6.84Z"/><path class="a" d="M116.56,290.65a7.387,7.387,0,1,0,0-.04Z"/><path class="a" d="M138.45,162.35a8.5,8.5,0,0,1,6.8,9.4,8.41,8.41,0,0,1-10,6.88,8.31,8.31,0,0,1-6.76-9.36,8.41,8.41,0,0,1,9.96-6.92Z"/><path class="a" d="M161.46,145.79A8.38,8.38,0,1,1,168,155.676a8.379,8.379,0,0,1-6.535-9.886Z"/><path class="a" d="M93.64,257.65a7.91,7.91,0,0,1-7-8.92,8.27,8.27,0,1,1,7,8.92Z"/><path class="a" d="M105.89,185.89a8,8,0,0,1,6.56,9.28,8.3,8.3,0,0,1-9.2,6.8,8.11,8.11,0,0,1-6.8-9.83,7.78,7.78,0,0,1,9.44-6.25Z"/><path class="a" d="M574.9,418.79a8.29,8.29,0,0,1,9.06-7,8.47,8.47,0,0,1,7,9.81,8.09,8.09,0,0,1-9.43,6.4,7.88,7.88,0,0,1-6.63-9.21Z"/><path class="a" d="M666.47,270.12a8.31,8.31,0,0,1-6.89-9.16,8.71,8.71,0,0,1,9.91-6.95,8.48,8.48,0,0,1,6.34,9.59,8.1,8.1,0,0,1-9.36,6.52Z"/><path class="a" d="M497.68,80.87a8.06,8.06,0,0,1,6.57,9.28,8.44,8.44,0,0,1-9.43,6.53,8.05,8.05,0,0,1-6.4-9.4,7.7,7.7,0,0,1,9.26-6.41Z"/><path class="a" d="M469.56,408.53a7.88,7.88,0,0,1-6.33-9.49,8.4,8.4,0,0,1,9-6.27,8.12,8.12,0,0,1,6.68,9.34,7.64,7.64,0,0,1-9.35,6.42Z"/><path class="a" d="M203,289a7.71,7.71,0,0,1,6.07,9.59,8,8,0,0,1-9,6.17,8.41,8.41,0,0,1-6.68-9.44A8.09,8.09,0,0,1,203,289Z"/><path class="a" d="M453.09,52.2A7.73,7.73,0,0,1,444,58.85a8.11,8.11,0,0,1-6.48-9.4,8.29,8.29,0,0,1,8.85-6.34,7.82,7.82,0,0,1,6.72,9.09Z"/><path class="a" d="M421.83,355.55A7.87,7.87,0,0,1,428,365a8.11,8.11,0,0,1-9,6,7.89,7.89,0,0,1-6.53-9.25,7.71,7.71,0,0,1,9.36-6.2Z"/><path class="a" d="M601.25,193a7.87,7.87,0,0,1-8.62,6.49,8.15,8.15,0,0,1-6.69-9.25,7.86,7.86,0,0,1,9.49-6.2,7.56,7.56,0,0,1,5.82,8.96Z"/><path class="a" d="M325.93,30.74a7.79,7.79,0,0,1,9.14-6.65,8.09,8.09,0,0,1,6.2,8.85,7.94,7.94,0,0,1-9.23,6.6A7.68,7.68,0,0,1,325.93,30.74Z"/><path class="a" d="M720.08,291.63a8,8,0,0,1,6.51,9.29c-.84,4.14-5.53,7.22-9.56,6.29a7.93,7.93,0,0,1-6-8.95,7.57,7.57,0,0,1,9.05-6.63Z"/><path class="a" d="M696.7,381.57a7.58,7.58,0,0,1,9.44-6.08,8,8,0,0,1,6.13,8.87A8.38,8.38,0,0,1,703,391a7.94,7.94,0,0,1-6.3-9.43Z"/><path class="a" d="M670,413.7a7.5,7.5,0,1,1,7.3-2.284A7.5,7.5,0,0,1,670,413.7Z"/><path class="a" d="M139.34,322.46a7.52,7.52,0,0,1-6-8.85,7.63,7.63,0,0,1,9-5.72,7.54,7.54,0,0,1,5.9,8.88,7.44,7.44,0,0,1-8.9,5.69Z"/><path class="a" d="M97.69,278.7a8.16,8.16,0,0,1-8.63,6.58,8,8,0,0,1-6.78-8.42,7.79,7.79,0,0,1,9-6.86A8,8,0,0,1,97.69,278.7Z"/><path class="a" d="M618.34,426a7.526,7.526,0,1,1-6.21-8.64,7.38,7.38,0,0,1,6.21,8.64Z"/><path class="a" d="M116.51,166.81a7.63,7.63,0,0,1-8.58,6.33,7.48,7.48,0,0,1,2.1-14.8,7.59,7.59,0,0,1,6.48,8.47Z"/><path class="a" d="M694.92,274.36a7.62,7.62,0,0,1-6.47-8.51,7.35,7.35,0,0,1,7.91-6.2,7.46,7.46,0,0,1,6.95,8.06,7.71,7.71,0,0,1-8.39,6.65Z"/><path class="a" d="M111.29,317.43a7,7,0,0,1-5.59-8.22,7.19,7.19,0,0,1,8.69-6,7.45,7.45,0,0,1,5.67,8.3,7.27,7.27,0,0,1-8.77,5.92Z"/><path class="a" d="M743,324.9a7.38,7.38,0,1,1-2.37,14.56,7.08,7.08,0,0,1-6-8A7.16,7.16,0,0,1,743,324.9Z"/><path class="a" d="M643.7,236.43a7.29,7.29,0,0,1-6.37-8.43,7.43,7.43,0,0,1,8.06-6,7.2,7.2,0,0,1,6.28,8.47,7,7,0,0,1-7.97,5.96Z"/><path class="a" d="M170.55,312.86a7.41,7.41,0,0,1,5.63,8.4,7.3,7.3,0,0,1-8.92,5.84,7.45,7.45,0,0,1-5.7-8.37,7.57,7.57,0,0,1,8.99-5.87Z"/><path class="a" d="M70.26,224.2a7.18,7.18,0,0,1-6-8,7.31,7.31,0,0,1,8.57-6.32,7.53,7.53,0,0,1,6.11,8.11,7.39,7.39,0,0,1-8.68,6.21Z"/><path class="a" d="M143.23,135.59a7.14,7.14,0,0,1,5.46,8.46,7.53,7.53,0,0,1-8.59,5.46,7.22,7.22,0,0,1-5.35-8.58,6.92,6.92,0,0,1,8.48-5.34Z"/><path class="a" d="M744.32,361.55a7.59,7.59,0,0,1-8.2,6,7.32,7.32,0,0,1-5.93-8.83,6.93,6.93,0,0,1,8.4-5.39,7.18,7.18,0,0,1,5.73,8.22Z"/><path class="a" d="M753.89,305.06a7.06,7.06,0,0,1-7.94,6,6.84,6.84,0,0,1-6.13-7.78,7.17,7.17,0,0,1,7.88-6.19,7.49,7.49,0,0,1,6.19,7.97Z"/><path class="a" d="M65.39,251.79a7,7,0,0,1-5.61-8.22,6.82,6.82,0,0,1,8-5.87,7.23,7.23,0,0,1,6.1,8.61,7.57,7.57,0,0,1-8.49,5.48Z"/><path class="a" d="M247,74.6a7.12,7.12,0,0,1-8.44,5.34,7.43,7.43,0,0,1-5.3-7.86,7.16,7.16,0,0,1,8.19-5.72A7,7,0,0,1,247,74.6Z"/><path class="a" d="M279.4,51.77a6.78,6.78,0,0,1-8.48,5.15A6.64,6.64,0,0,1,266,48.34a6.86,6.86,0,0,1,7.94-5,7.07,7.07,0,0,1,5.46,8.43Z"/><path class="a" d="M724.33,264.9a7,7,0,0,1,5.94,8,7.13,7.13,0,0,1-7.61,5.6,6.87,6.87,0,1,1,1.67-13.63Z"/><path class="a" d="M577.39,160.08a7.15,7.15,0,0,1-8.28,5.73,7.43,7.43,0,0,1-5.76-8.34,7.2,7.2,0,0,1,8.35-5.62,7,7,0,0,1,5.69,8.23Z"/><path class="a" d="M83.3,190.47a7,7,0,0,1-8.42,5.33,6.77,6.77,0,0,1-5.38-8.3,7.09,7.09,0,0,1,8.34-5.5A7.49,7.49,0,0,1,83.3,190.47Z"/><path class="a" d="M450.17,397.18a6.841,6.841,0,1,1-13.49-2.28,7.18,7.18,0,0,1,7.51-5.61,7,7,0,0,1,5.98,7.89Z"/><path class="a" d="M235.75,266.78a6.87,6.87,0,1,1-8.139,5.055,6.87,6.87,0,0,1,8.139-5.055Z"/><path class="a" d="M529.18,439a6.792,6.792,0,1,1-5.73-7.43A6.86,6.86,0,0,1,529.18,439Z"/><path class="a" d="M91.58,307.05a6.78,6.78,0,0,1-7.84,5.08,6.61,6.61,0,0,1-4.91-7.89,6.47,6.47,0,0,1,7.76-5.05,6.66,6.66,0,0,1,4.99,7.86Z"/><path class="a" d="M557,444.26a6.82,6.82,0,0,1-7.67,5.24,6.89,6.89,0,0,1-5.39-8.26,6.76,6.76,0,0,1,8-4.68A6.54,6.54,0,0,1,557,444.26Z"/><path class="a" d="M273.53,252.14a6.8,6.8,0,0,1-7.76,5.11,6.7,6.7,0,0,1-5-8.45,6.61,6.61,0,0,1,8-4.64A6.77,6.77,0,0,1,273.53,252.14Z"/><path class="a" d="M329,262a6.6,6.6,0,0,1-8,4.61,6.74,6.74,0,0,1-4.5-8.18,6.64,6.64,0,0,1,8.11-4.56A6.47,6.47,0,0,1,329,262Z"/><path class="a" d="M181,120.4a6.64,6.64,0,1,1-13.13-1.9,6.46,6.46,0,0,1,7.5-5.4,6.38,6.38,0,0,1,5.63,7.3Z"/><path class="a" d="M197.39,318.33A6.5,6.5,0,0,1,203,325.8a6.73,6.73,0,0,1-7.65,5.42,7,7,0,0,1-5.29-7.09A6.73,6.73,0,0,1,197.39,318.33Z"/><path class="a" d="M60.72,279.23a6.68,6.68,0,0,1-5.24-7.62,6.38,6.38,0,0,1,7.59-5.16,6.2,6.2,0,0,1,5.18,7.5,6.52,6.52,0,0,1-7.53,5.28Z"/><path class="a" d="M208.46,89.94a6.5,6.5,0,0,1,5.37,7.54,6.39,6.39,0,0,1-7.56,5.31,6.28,6.28,0,0,1-5.33-7.5,6.39,6.39,0,0,1,7.52-5.35Z"/><path class="a" d="M640.27,423.11a6.91,6.91,0,0,1,5.12,7.77,6.38,6.38,0,0,1-7.63,5.07,6.62,6.62,0,0,1-5.23-7.6A7.1,7.1,0,0,1,640.27,423.11Z"/><path class="a" d="M87.36,161.77a6.29,6.29,0,0,1-6.69,5.49,6.365,6.365,0,1,1,6.69-5.49Z"/><path class="a" d="M553.56,127.05a6.65,6.65,0,0,1-7.34,5.63A6.41,6.41,0,0,1,547.65,120a6.59,6.59,0,0,1,5.91,7.05Z"/><path class="a" d="M479.34,57a6.391,6.391,0,1,1-5.26-7.57A6.55,6.55,0,0,1,479.34,57Z"/><path class="a" d="M493,439.48a6.43,6.43,0,0,1-4.53-8,6.15,6.15,0,0,1,7.41-4.23,6.37,6.37,0,0,1,4.8,7.1,6.66,6.66,0,0,1-7.68,5.13Z"/><path class="a" d="M584.37,448.86c-.65,3.35-4.57,5.86-7.77,5a6.46,6.46,0,0,1-4.57-7.31,6.15,6.15,0,0,1,7.67-4.87,6.36,6.36,0,0,1,4.67,7.18Z"/><path class="a" d="M114.72,131.52a6.65,6.65,0,0,1,5.53,6.7,6.26,6.26,0,0,1-6.52,5.58,6.11,6.11,0,0,1-5.83-7,6.31,6.31,0,0,1,6.82-5.28Z"/><path class="a" d="M304.48,33.09A6.18,6.18,0,1,1,306.9,21a6.64,6.64,0,0,1,4.65,7.25,6.44,6.44,0,0,1-7.07,4.84Z"/><path class="a" d="M678.71,235.09a6.19,6.19,0,0,1-6.75,5.28,6.54,6.54,0,0,1-5.65-7.3,6.37,6.37,0,0,1,7.66-5,6,6,0,0,1,4.74,7.02Z"/><path class="a" d="M757.51,277.66a5.85,5.85,0,0,1-6.93,4.86,6.06,6.06,0,0,1-5.18-6.77,6.48,6.48,0,0,1,7.5-5.32,6.22,6.22,0,0,1,4.61,7.23Z"/><path class="a" d="M622.3,190.49a6,6,0,1,1-6.92,5.09,6.17,6.17,0,0,1,6.92-5.09Z"/><path class="a" d="M134.88,348.79a6.42,6.42,0,0,1-4.7-7.18,6.55,6.55,0,0,1,7.19-4.73,6.084,6.084,0,0,1-2.49,11.91Z"/><path class="a" d="M774.19,314.85a5.92,5.92,0,1,1,1.74-11.711,6.29,6.29,0,0,1,4.88,6.331,6.15,6.15,0,0,1-6.62,5.38Z"/><path class="a" d="M42.73,218a5.49,5.49,0,0,1-5-6.08,5.63,5.63,0,0,1,6.51-5.42,5.75,5.75,0,0,1,5,6.9,5.67,5.67,0,0,1-6.51,4.6Z"/><path class="a" d="M107.36,343.83a5.93,5.93,0,0,1-5-6.1,5.78,5.78,0,0,1,6.42-5.43,5.809,5.809,0,0,1-1.42,11.53Z"/><path class="a" d="M775.87,338.29a6,6,0,1,1-4.8-7,6,6,0,0,1,4.8,7Z"/><path class="a" d="M706.35,239.89a5.89,5.89,0,0,1-6.46,4.56,5.47,5.47,0,0,1-4.8-6.15,5.58,5.58,0,0,1,6.76-5A6,6,0,0,1,706.35,239.89Z"/><path class="a" d="M39.62,234.29a5.76,5.76,0,0,1,4.73,6.31,5.83,5.83,0,0,1-6.92,4.86,5.71,5.71,0,0,1-4.21-6.65A5.59,5.59,0,0,1,39.62,234.29Z"/><path class="a" d="M49,178.5a5.93,5.93,0,0,1,4.86,6.18,5.48,5.48,0,0,1-5.93,5,5.33,5.33,0,0,1-5.17-6.41A5.87,5.87,0,0,1,49,178.5Z"/><path class="a" d="M169.68,348.88a5.87,5.87,0,0,1-6.56,4.48c-3.12-.6-5.46-4.34-4.56-7.29a6.09,6.09,0,0,1,7-3.93,5.72,5.72,0,0,1,4.12,6.74Z"/><path class="a" d="M293.83,260.87a5.68,5.68,0,0,1-4.27-6.52,5.8,5.8,0,0,1,7.22-4.28,5.57,5.57,0,0,1,3.69,6.85,5.37,5.37,0,0,1-6.64,3.95Z"/><path class="a" d="M151.77,116.31a5.45,5.45,0,0,1-6.83,3.65,5.16,5.16,0,0,1-3.74-6.68,5.59,5.59,0,0,1,6.75-3.8,5.78,5.78,0,0,1,3.82,6.83Z"/><path class="a" d="M733.66,382.51a5.83,5.83,0,0,1,4.17,6.64,5.49,5.49,0,0,1-6.61,4,5.23,5.23,0,0,1-4.12-6.47,5.67,5.67,0,0,1,6.56-4.17Z"/><path class="a" d="M607.53,447a5.68,5.68,0,0,1,4,6.76,5.27,5.27,0,0,1-6.65,3.93,5.45,5.45,0,0,1-4.08-6.61,5.81,5.81,0,0,1,6.73-4.08Z"/><path class="a" d="M524.88,87.9a5.84,5.84,0,0,1,5,6.12,5.47,5.47,0,0,1-6.08,4.85,5.26,5.26,0,0,1-4.93-5.94A5.71,5.71,0,0,1,524.88,87.9Z"/><path class="a" d="M62.24,302.45a5.35,5.35,0,1,1-10-3.67,5.41,5.41,0,0,1,6.41-3.24,5.61,5.61,0,0,1,3.59,6.91Z"/><path class="a" d="M729.29,238.31a5.66,5.66,0,0,1,4.16,6.69,5.55,5.55,0,0,1-6.13,3.94,5.73,5.73,0,0,1-4.36-5.88,5.79,5.79,0,0,1,6.33-4.75Z"/><path class="a" d="M698.26,416.3a5.67,5.67,0,0,1-4-6c.47-2.76,3.87-5,6.51-4.26a5.295,5.295,0,1,1-2.54,10.28Z"/><path class="a" d="M784.76,282.47a5.65,5.65,0,0,1-5.91,4.21,5.47,5.47,0,0,1-4.34-6.46,5.08,5.08,0,0,1,5.83-4.11,5.29,5.29,0,0,1,4.42,6.36Z"/><path class="a" d="M394.71,8.12a5.18,5.18,0,0,1,4.46,6.25,5.19,5.19,0,0,1-10.3-1.26,5.24,5.24,0,0,1,5.84-4.99Z"/><path class="a" d="M228.43,306.65a5,5,0,0,1-4.15-5.73,5.29,5.29,0,0,1,6.2-4.6,5.42,5.42,0,0,1,4.21,5.85,5.22,5.22,0,0,1-6.26,4.48Z"/><path class="a" d="M90.92,134a5.1,5.1,0,0,1-10-1.83,5.093,5.093,0,1,1,10,1.83Z"/><path class="a" d="M757.46,243.51a5.09,5.09,0,1,1-6.08,3.86,5.43,5.43,0,0,1,6.08-3.86Z"/><path class="a" d="M38.91,268.49a5.08,5.08,0,1,1-4.543-5.313,5.073,5.073,0,0,1,4.543,5.313Z"/><path class="a" d="M79.53,338.09a4.914,4.914,0,0,1,1.81-9.66,4.85,4.85,0,0,1,4,5.76,4.78,4.78,0,0,1-5.81,3.9Z"/><path class="a" d="M467.22,423.67a4.73,4.73,0,0,1,3.91,5.74,4.88,4.88,0,0,1-5.74,4,5,5,0,0,1-3.95-5.82,4.83,4.83,0,0,1,5.78-3.92Z"/><path class="a" d="M426.89,19.33a4.89,4.89,0,0,1-6.25,3.27,4.47,4.47,0,0,1-3-5.61A4.79,4.79,0,0,1,423,13.36a5.27,5.27,0,0,1,3.89,5.97Z"/><path class="a" d="M54.26,151.37a4.94,4.94,0,0,1,3.52,6.13,4.87,4.87,0,0,1-5.53,3.4,5,5,0,0,1-4-5.81,5.07,5.07,0,0,1,6.01-3.72Z"/><path class="a" d="M367.11,3.65a5.08,5.08,0,0,1,3.58,6.1,4.68,4.68,0,0,1-5.37,3.51,4.78,4.78,0,0,1-4.11-5.66,5.2,5.2,0,0,1,5.9-3.95Z"/><path class="a" d="M119.85,105.57a4.68,4.68,0,0,1,3.57,5.41,5,5,0,0,1-5.36,3.79,4.88,4.88,0,0,1-3.8-6,4.55,4.55,0,0,1,5.59-3.2Z"/><path class="a" d="M671.29,435.63a4.75,4.75,0,0,1-5.62,3.24,4.45,4.45,0,0,1-3.57-5.32c.51-2.64,3.62-4.57,6-3.71a5.18,5.18,0,0,1,3.19,5.79Z"/><path class="a" d="M192.58,348.12a4.75,4.75,0,0,1,3.7,5.28,4.37,4.37,0,0,1-5,4,4.71,4.71,0,0,1-4.16-5.63,5.08,5.08,0,0,1,5.46-3.65Z"/><path class="a" d="M764.7,369.75a4.71,4.71,0,0,1-4.22-5.58,5.2,5.2,0,0,1,5.24-3.93,4.92,4.92,0,0,1,4.13,5.71,4.5,4.5,0,0,1-5.15,3.8Z"/><path class="a" d="M396.66,359.42a4.874,4.874,0,1,1-3.3-5.46,4.55,4.55,0,0,1,3.3,5.46Z"/><path class="a" d="M602.7,164.4a4.39,4.39,0,0,1-5.23,3.5,4.48,4.48,0,0,1-3.08-5.51,4.67,4.67,0,0,1,4.77-3.23,4.59,4.59,0,0,1,3.54,5.24Z"/><path class="a" d="M179.77,87.14a4.67,4.67,0,0,1,3.88,5.09,4.441,4.441,0,1,1-3.88-5.09Z"/><path class="a" d="M788.56,254.76a4.42,4.42,0,0,1-8.42-2.59,4.52,4.52,0,0,1,5.56-3,4.36,4.36,0,0,1,2.86,5.59Z"/><path class="a" d="M573,479.94a4.24,4.24,0,1,1,4.78-3.62,4.26,4.26,0,0,1-4.78,3.62Z"/><path class="a" d="M638.42,458.37a4.34,4.34,0,1,1-.473-3.377A4.37,4.37,0,0,1,638.42,458.37Z"/><path class="a" d="M650.48,197a4.34,4.34,0,0,1,3,5.52,4.55,4.55,0,0,1-4.83,3.07,4.48,4.48,0,0,1-3.44-5.29,4.31,4.31,0,0,1,5.27-3.3Z"/><path class="a" d="M550,471.63a4.24,4.24,0,0,1-5.21,3.58,4.33,4.33,0,1,1,5.21-3.58Z"/><path class="a" d="M347.41,296.83a13.47,13.47,0,0,1-5.41-6c1-2.25,2.62-3.19,4.59-2.8a6.14,6.14,0,0,1,3.22,2C351.79,292.36,351.09,294.25,347.41,296.83Z"/><path class="a" d="M414.42,395.31a4.53,4.53,0,0,1-3.21-4.79,4.26,4.26,0,0,1,5.44-3.11,4,4,0,0,1,2.68,5A4.24,4.24,0,0,1,414.42,395.31Z"/><path class="a" d="M504.94,61.66a4.15,4.15,0,0,1-4.9,3,4.25,4.25,0,0,1-3-5,4.07,4.07,0,0,1,7.88,2Z"/><path class="a" d="M370,329.8c-1.92-2.11-3.65-4.32-4-7.3,4.23-1.91,6.08-1.66,7.45.92S374,327.81,370,329.8Z"/><path class="a" d="M16.45,203.72a3.9,3.9,0,0,1,2.42,5.11,3.9,3.9,0,1,1-2.42-5.11Z"/><path class="a" d="M806.31,314.16a3.72,3.72,0,0,1-4.46,3.32,4,4,0,0,1-3.27-3.84,4.11,4.11,0,0,1,4.2-3.82,3.9,3.9,0,0,1,3.53,4.34Z"/><path class="a" d="M228.4,330.65a3.91,3.91,0,0,1-5,2.61,3.84,3.84,0,0,1-2.52-4.35,3.94,3.94,0,0,1,4.66-3.15,4.07,4.07,0,0,1,2.86,4.89Z"/><path class="a" d="M811,286.35a4,4,0,0,1-4.39,3.55,4.3,4.3,0,0,1-3.15-4.06,3.89,3.89,0,0,1,4.43-3.43,3.75,3.75,0,0,1,3.11,3.94Z"/><path class="a" d="M605.12,481.42a3.79,3.79,0,0,1-4.84,2.82,4.06,4.06,0,0,1-2.82-4.23,4.21,4.21,0,0,1,4.62-3.36A4,4,0,0,1,605.12,481.42Z"/><path class="a" d="M521.47,467a3.88,3.88,0,0,1-4.69,3.07,4.09,4.09,0,0,1-3.12-4.72,4.16,4.16,0,0,1,4.77-3.09,4,4,0,0,1,3.04,4.74Z"/><path class="a" d="M342.17,4.21a4.07,4.07,0,0,1-4.43,3.51A4.29,4.29,0,0,1,334.49,3a3.89,3.89,0,0,1,4-3,3.7,3.7,0,0,1,3.68,4.21Z"/><path class="a" d="M32.88,296.64a4.05,4.05,0,0,1-4.84,3,3.88,3.88,0,0,1-2.7-4.3,4.08,4.08,0,0,1,4-3.17A4.16,4.16,0,0,1,32.88,296.64Z"/><path class="a" d="M135.16,371.65a3.89,3.89,0,0,1-4.75,2.89,3.5,3.5,0,0,1-2.85-4A4,4,0,0,1,131.9,367,4.29,4.29,0,0,1,135.16,371.65Z"/><path class="a" d="M61.64,128.78a4.07,4.07,0,0,1-4.81,2.87,4,4,0,0,1-2.57-4.27A3.68,3.68,0,0,1,59,124.57,4,4,0,0,1,61.64,128.78Z"/><path class="a" d="M56.06,329.18A3.71,3.71,0,0,1,51.31,332a3.45,3.45,0,0,1-2.53-4.17,3.41,3.41,0,0,1,3.9-2.92,3.65,3.65,0,0,1,3.38,4.27Z"/><path class="a" d="M94.19,106.26a3.48,3.48,0,0,1-4.3,2.48,3.43,3.43,0,0,1-2.74-4.14,3.62,3.62,0,1,1,7,1.66Z"/><path class="a" d="M764.8,221.26a3.84,3.84,0,0,1-4.21,2.69,3.64,3.64,0,0,1-3-3.94,3.72,3.72,0,0,1,4.61-3A3.87,3.87,0,0,1,764.8,221.26Z"/><path class="a" d="M102.53,369.59a3.61,3.61,0,0,1-2.9-4,3.67,3.67,0,1,1,7.19,1.48A3.8,3.8,0,0,1,102.53,369.59Z"/><path class="a" d="M736.75,216.22a3.6,3.6,0,0,1-4,2.92,3.64,3.64,0,0,1-3.15-4.51,3.68,3.68,0,0,1,7.17,1.59Z"/><path class="a" d="M212.67,64.86a3.476,3.476,0,1,1-3.94,2.94A3.476,3.476,0,0,1,212.67,64.86Z"/><path class="a" d="M678.15,202.74a3.423,3.423,0,1,1-4.09,2.59,3.423,3.423,0,0,1,4.09-2.59Z"/><path class="a" d="M154.67,87.16a3.49,3.49,0,0,1-4,2.87,3.74,3.74,0,0,1-2.92-3.33,3.508,3.508,0,1,1,7,.46Z"/><path class="a" d="M20.77,176.16a3.31,3.31,0,1,1-1.47,6.43A3.25,3.25,0,0,1,16.93,179a3.31,3.31,0,0,1,3.84-2.84Z"/><path class="a" d="M14.05,236a3.51,3.51,0,0,1-4.3,2.31,3.46,3.46,0,0,1-2.5-4.17,3.53,3.53,0,0,1,4.3-2.32,3.44,3.44,0,0,1,2.5,4.18Z"/><path class="a" d="M449.35,20c.87.39,1.59.74,2.32,1,1.33.58,2.49,1.61,1.92,3a5.24,5.24,0,0,1-2.83,2.45,2.93,2.93,0,0,1-3.8-2,5.92,5.92,0,0,1,.41-3.67C447.54,20.35,448.72,20.24,449.35,20Z"/><path class="a" d="M280.66,23.07a3.3,3.3,0,0,1-4.31,2.28,3.392,3.392,0,1,1,4.31-2.28Z"/><path class="a" d="M792.35,225.87a3.19,3.19,0,0,1-4.14,2.54,3.265,3.265,0,1,1,1.99-6.22,3,3,0,0,1,2.15,3.68Z"/><path class="a" d="M247,42.69a6,6,0,0,1,1.34,1.53,3.31,3.31,0,0,1-1.14,4.17,3.67,3.67,0,0,1-4.94-.46,2.13,2.13,0,0,1-.58-1.42C241.85,44.49,244.84,42.26,247,42.69Z"/><path class="a" d="M158.72,379.09a3.29,3.29,0,0,1-2.59-4.15,3.344,3.344,0,1,1,2.59,4.15Z"/><path class="a" d="M707.06,208c.39.86,1.43,2.14,1.44,3.42a3,3,0,0,1-4,2.67,3.22,3.22,0,0,1-2.31-3.66C702.43,208.46,704.32,207.28,707.06,208Z"/><path class="a" d="M801,342.23a3.63,3.63,0,0,1-4,2.75,3.44,3.44,0,0,1-2.41-3.55,3.24,3.24,0,0,1,3.18-2.76A3.41,3.41,0,0,1,801,342.23Z"/><path class="a" d="M76.45,358.52c.52.8,1.67,1.88,1.94,3.16s-1.92,3-3.27,2.41a4.85,4.85,0,0,1-2.33-2.7C72.34,359.94,74.13,358.39,76.45,358.52Z"/><path class="a" d="M662.16,458.78c1.1,1.63,2.07,2.55,2.37,3.65.38,1.38-1.61,3.2-3,2.66-1-.4-2.45-1.85-2.3-2.53C659.5,461.37,660.82,460.4,662.16,458.78Z"/><path class="a" d="M25.75,147.7c1.09,1.63,2.06,2.55,2.36,3.64.38,1.38-1.61,3.21-3,2.67-1-.4-2.46-1.85-2.31-2.53C23.08,150.28,24.41,149.31,25.75,147.7Z"/><path class="a" d="M122.79,84.8A2.92,2.92,0,0,1,120.9,81a2.86,2.86,0,0,1,3.1-1.89,3.12,3.12,0,0,1,2.44,3.49,3,3,0,0,1-3.65,2.2Z"/><path class="a" d="M628.35,488.16c-.46-.77-1.55-1.87-1.79-3.13-.28-1.47,1.47-2.64,3.16-2.5a2.69,2.69,0,0,1,2.57,3.14C632,487.43,630.75,488.48,628.35,488.16Z"/><path class="a" d="M813.5,255.48c.36.79,1.34,2,1.38,3.27,0,1.52-1.86,2.48-3.47,2.13a2.76,2.76,0,0,1-2.12-3.5C809.62,255.73,811.1,254.84,813.5,255.48Z"/><path class="a" d="M491,458.94a8,8,0,0,1,1.42,2.79c.18,1.47-1.92,2.64-3.54,2.18a2.64,2.64,0,0,1-2.07-3C486.91,459.32,488.64,458.29,491,458.94Z"/><path class="a" d="M6.13,260.28c1.91.89,2.48,2,2.13,3.42a2.58,2.58,0,0,1-2.94,2c-1.41-.09-2.7-2.49-1.85-3.65a9.07,9.07,0,0,1,2.66-1.77Z"/><path class="a" d="M766.84,189.63c.63,1.28,1.31,2.11,1.42,3,.15,1.18-1.61,2.27-2.83,2s-2.18-2.1-1.4-3.15C764.57,190.73,765.61,190.39,766.84,189.63Z"/><path class="a" d="M188.69,382.13a8,8,0,0,1-3.06-.11c-.44-.18-.71-2-.34-2.6a2.92,2.92,0,0,1,2.49-1C189.06,378.61,189.65,380.5,188.69,382.13Z"/><path class="a" d="M436.33,421.88c2.37-1.37,3.86-1.3,4.7.35a3.26,3.26,0,0,1-.16,2.73c-.75,1.15-1.8.47-2.51-.32S437.22,423.1,436.33,421.88Z"/><path class="a" d="M819.67,230.47c-1.3.67-2.15,1.48-2.86,1.36a3.08,3.08,0,0,1-1.95-1.76c-.37-1,1.43-2.56,2.44-2.06C818.08,228.4,818.6,229.32,819.67,230.47Z"/><path class="a" d="M62.63,103.1c-.91-1.15-1.73-1.78-1.94-2.56-.31-1.13,1.45-2.66,2.4-2.11a3.32,3.32,0,0,1,1.54,2.27C64.66,101.34,63.59,102,62.63,103.1Z"/><path class="a" d="M571.24,503.77c-1.33.93-2.13,1.92-2.77,1.82a2.55,2.55,0,0,1-1.66-1.91c0-.61,1.12-1.61,1.84-1.7S570,502.87,571.24,503.77Z"/><path class="a" d="M21.37,323.07c1.58-.65,2.59-1.46,3.28-1.24s1.2,1.41,1.78,2.18c-.82.54-1.66,1.51-2.45,1.47S22.62,324.28,21.37,323.07Z"/><path class="a" d="M659.35,490.63c-1.18.61-1.83,1.23-2.45,1.21-1.39,0-1.64-1.23-1.28-2.25.2-.56,1.36-1.34,1.63-1.19a10.211,10.211,0,0,1,2.1,2.23Z"/><path class="a" d="M596.48,511.27c-.86-1.45-1.82-2.39-1.65-3s1.41-1.18,2.27-1.36c.31-.07,1.32,1.1,1.22,1.54C598.15,509.25,597.4,509.94,596.48,511.27Z"/><path class="a" d="M794.11,200c-1-1.52-1.69-2.23-1.81-3-.07-.45,1-1.58,1.29-1.49a3.61,3.61,0,0,1,2.27,1.53C796.06,197.52,795.05,198.5,794.11,200Z"/><path class="a" d="M218.34,359.27a5.44,5.44,0,0,1-.37-.67c-.58-1.42-.16-2.58,1.24-3,.51-.16,1.84.5,1.87.85a2.44,2.44,0,0,1-2,2.8,3.779,3.779,0,0,1-.74.02Z"/><path class="a" d="M49.35,356.59c-.84.63-1.42,1.38-1.87,1.31s-.92-.89-1.37-1.38c.48-.42.94-1.15,1.45-1.18S48.56,356,49.35,356.59Z"/><path class="a" d="M4.18,291.86c-1.58.31-2.38.7-3,.51A2.222,2.222,0,0,1,0,290.81c-.09-.25.73-1.14.9-1.07a21.763,21.763,0,0,1,3.28,2.12Z"/><path class="a" d="M95.81,75.26c.51.81,1.19,1.41,1.13,1.93a2.15,2.15,0,0,1-1.28,1.49,1.456,1.456,0,0,1-1.63-1.89C94.34,76.24,95,75.9,95.81,75.26Z"/><path class="a" d="M739.86,188.08c-1,.33-1.71.81-2.2.64s-.63-1-.93-1.56c.56-.29,1.19-.9,1.66-.8S739.21,187.27,739.86,188.08Z"/><path class="a" d="M626.44,513.69c-.9.46-1.62,1.14-2.11,1s-1.26-1.2-1.14-1.62a2.14,2.14,0,0,1,1.67-1.23C625.35,511.88,625.77,512.86,626.44,513.69Z"/><path class="a" d="M822.92,201.6l-.81,1.4a5.84,5.84,0,0,1-1.44-1c-.11-.13.47-1.15.62-1.12a6.75,6.75,0,0,1,1.63.72Z"/><path class="a" d="M156.44,59.62l-1.25-.55c.25-.29.62-.87.74-.82a4.31,4.31,0,0,1,1.06.83Z"/><path class="a" d="M799.15,170.09l-1.11-.8c.21-.13.48-.4.62-.34a6.566,6.566,0,0,1,1.08.69Z"/><path class="a" d="M183.79,64.65l-1-.91c.42-.14.87-.45,1.25-.37s.62.55.93.84Z"/></g></svg>