<svg xmlns="http://www.w3.org/2000/svg" width="828.36" height="732.947" viewBox="0 0 828.36 732.947"><defs><style>.a{fill:#1a1a1a;}</style></defs><g transform="translate(0 -0.01)"><path class="a" d="M329.73,562.21a39,39,0,0,1-3.73,5,35.71,35.71,0,0,1-4.91,3.51c6.17,5.92,7.58,9.16,5.9,13.7a9.55,9.55,0,0,1-8.81,6.76c-5.09.38-8.06-1.86-11.23-8.57a15.649,15.649,0,0,0-1.5,1.85c-5.05,8.62-13.46,9.26-19.53,1.44-.46-.58-.84-1.23-1.6-2.34-2.38,3.92-5.37,6.32-9.61,7.26a47.284,47.284,0,0,1,4.5,2.91,10.1,10.1,0,0,1,2.73,12.35,10.23,10.23,0,0,1-11.45,5.48,10.42,10.42,0,0,1-8.25-9.7,10.05,10.05,0,0,1,4.41-8.51,35.181,35.181,0,0,1,4.5-2.39,45.812,45.812,0,0,1-4.87-3.11,38.892,38.892,0,0,1-3.67-3.88l-7.71,6.55a41.852,41.852,0,0,1,3.22,2.82,10.59,10.59,0,1,1-15.66,14.22,41.888,41.888,0,0,1-2.67-4,37.065,37.065,0,0,1-3.88,4.46,43.141,43.141,0,0,1-5.32,3.36c0,1.31,1.44,1,2.07,1.59s1.68,1.23,2.39,2a10.26,10.26,0,1,1-14.29-.49,37,37,0,0,1,5-3.07c-3.16-2.06-6.48-4.05-8.17-8.31a49.518,49.518,0,0,1-4,4.27,50.148,50.148,0,0,1-4.84,3.22,43.25,43.25,0,0,1,3.91,2.94,10.45,10.45,0,1,1-13.48-.64,39.869,39.869,0,0,1,3.94-2.41,50.714,50.714,0,0,1-4.77-3.9,39.725,39.725,0,0,1-3.38-4.7c-3.42,5.46-7.83,8.36-14.2,6.13a10.25,10.25,0,0,1-6.76-9.58c.13-5.69,3.41-9.12,9.12-10.92-4.78-2.58-8.67-5.5-8.59-11.3s3.39-9.11,8.94-11.17c-4.1-2.51-7.39-5.32-7.64-10.18A10.17,10.17,0,0,1,179,547c5-5,11.11-3.95,17.42,3.07l6.47-6.52-5.77-6.92c-.65.74-1.24,1.45-1.88,2.12a12.654,12.654,0,0,1-1.78,1.73,10.19,10.19,0,0,1-11.16.9,9.64,9.64,0,0,1-5.55-9.08,10,10,0,0,1,6-9.42,10.41,10.41,0,0,1,11.54,1.9,43.729,43.729,0,0,1,3.14,3.78L204,522l-6-7.24c-1-.47-1,.8-1.57,1.26s-1.09,1.25-1.71,1.8a10.264,10.264,0,1,1-9.76-17.5,9.47,9.47,0,0,1,9.8,2.25,32.134,32.134,0,0,1,3.16,3.88c2.44-2.32,4.92-4.67,7.4-7-4.71-5.61-5.63-7.48-5.31-11.12a10.34,10.34,0,0,1,4-7.47c5.85-4.6,11.81-2.66,17.72,5.74,8.25-11.85,18.19-8,22.22,2.05,2.77-5.3,6.37-9.14,12.73-8a9.88,9.88,0,0,1,8.22,7.6c1.57,5.94-1.64,9.84-6.59,13.07,1.48,1.28,2.76,2.22,3.83,3.36a47.588,47.588,0,0,1,3,3.79L273,502c0-1.66-2.12-1.78-3.16-2.9-3.51-3.79-4.21-8.35-1.58-12.54a9.7,9.7,0,0,1,10.11-4.67,9.24,9.24,0,0,1,7.9,6.21A9.55,9.55,0,0,1,284,499a39.181,39.181,0,0,1-4.15,3.1l7.4,7.14,8.35-6.43c-.94-.71-2.26-1.56-3.42-2.59a9.945,9.945,0,1,1,12.71.31,47.323,47.323,0,0,1-4.15,2.63,48.166,48.166,0,0,1,5.13,3.79,30.842,30.842,0,0,1,3.17,4.34c8.82-10,17.21-9.08,22.08,2.6,1.1-1.6,2-3.1,3.06-4.41a10.37,10.37,0,0,1,11.27-3.23c4,1.38,7.44,5.88,7.29,10a10.41,10.41,0,0,1-4.2,8,40.705,40.705,0,0,1-4.14,2.47c0,1.85,1.65,1.71,2.55,2.34,3.48,2.46,5.71,5.87,5.27,10-.48,4.57-3.32,7.75-7.87,9.55s-7.65-.19-10.66-2.83c-1.37-1.18-2.2-3-3.47-4.76a41.261,41.261,0,0,1-3.27,4.11,46.366,46.366,0,0,1-4.38,3.39,47,47,0,0,1,4.52,4.34,33.528,33.528,0,0,1,2.74,4.79,42.765,42.765,0,0,1,3.49-4.58,10.19,10.19,0,1,1,5.33,17.36A9.9,9.9,0,0,1,332,566.1C331.2,564.94,330.57,563.67,329.73,562.21Zm.45-27.31c1.68-2,2.69-3.63,4.08-4.8a46.555,46.555,0,0,1,5.58-3.5c-4.6-1.83-7.15-4.9-8.87-9.89-1.27,5.2-4.71,7.41-8.29,10A14.27,14.27,0,0,1,330.18,534.9Zm-23.11,28.88L300.32,570a36.141,36.141,0,0,1,3.74,3.88,47.1,47.1,0,0,1,2.9,5.22,32.633,32.633,0,0,1,3.3-4.93,33.01,33.01,0,0,1,4.46-3.42Zm-120,24.2c4,.77,6,4.28,8.14,7.07l7.15-7.1c-1.12-1-2.36-2-3.61-3.1s-1.55-2.8-2.56-3.28Zm122.1-56.3c.89-.86,1.84-1.92,2.92-2.81s2.52-1.79,3.66-2.58l-7.12-7.65-5.36,5.65c2.06,2.53,3.97,4.91,5.94,7.39Zm-71.84-31,5.86,6.21,6.83-5.55c-2.31-2.94-4.47-5.7-6.39-8.13ZM240.25,584c-2.38,2.08-4.45,3.88-6.52,5.7,1.29,1.3,2.44,2.46,3.6,3.6s1.15,3,2.37,3.67L247,590ZM211,588.58a38.662,38.662,0,0,1,3.51,3.16c1.07,1.16,1.93,2.48,2.94,3.8l6.43-6.46L217.8,583Zm10-82.72,6.49-5.72c-1.12-1.21-2.29-2.31-3.26-3.57s-1.69-2.64-2.56-4l-6.79,7.34Zm86.5,48.57c2.59-2.27,5-4.36,7.2-6.34l-6.31-6-6.24,6.16ZM201.74,566.21l-5.66-6.67L189,565.12l7.57,6.62Zm82.92,9.56,6.51-6.27-5.64-5.42-5.77,5.69C281.21,571.56,282.86,573.57,284.66,575.77Zm2.29-57.4-6.17,6.09,5.64,5.38,6-5.17Zm-22.1,10.32,5.76-4.72-5.74-6.17-5.3,5.48Zm-1.7,34.93-5.06,4.88,4.8,6.19,5.6-5.79ZM220.68,517l-6.33,5.5,4.65,4.33,5.95-4.87Zm65,25.15-4.84,4.8L286.3,553c.86-1.14,1.61-2.11,2.32-3.11s2.33-.95,2.25-2.64Zm-67.54,30.18,5.31-5.63c-2.16-1.37-3-3.67-5.37-4.5l-4.67,4.43Zm19.74-49.72c1.81,1.78,2.93,3.51,4.88,4.56l5-4.2-5-5.38Zm7.68,45.66a21.509,21.509,0,0,0-4.41-4.76l-4.86,4.23,4.38,5.16Zm18-17.64,5.16-4.44c-1.65-1.57-3.2-3.06-4.81-4.58-1.67,1.73-3.07,3.17-4.72,4.89Zm-44.39-1.23,4.33-4.38-4.61-5.2L213.86,544Zm18.2-3.57c1.34,1.54,2.51,2.87,3.89,4.44,1.79-1.8,3.17-3.17,4.74-4.74l-4.28-3.94Z"/><path class="a" d="M362.6,549.07a10,10,0,1,1,7.351-2.662,10.09,10.09,0,0,1-7.351,2.662Z"/><path class="a" d="M363.5,527a10,10,0,0,1-9.72-10.61,10.18,10.18,0,0,1,10.76-9.66A10.32,10.32,0,0,1,374,517.12,10,10,0,0,1,363.5,527Z"/><path class="a" d="M183.33,630.5a10.13,10.13,0,0,1-9.64-10.25,9.93,9.93,0,0,1,10.56-9.86,10.62,10.62,0,0,1,9.92,10.17C194.21,625.73,188.76,630.73,183.33,630.5Z"/><path class="a" d="M294.19,612.41a9.84,9.84,0,0,1-9.61-10.06,10.08,10.08,0,0,1,10.51-9.89,10.32,10.32,0,0,1,9.37,10.47A10,10,0,0,1,294.19,612.41Z"/><path class="a" d="M162.79,587.46a10.24,10.24,0,0,1,9.72,10.11,10.12,10.12,0,0,1-10,9.79,9.83,9.83,0,0,1-9.9-10.38A9.94,9.94,0,0,1,162.79,587.46Z"/><path class="a" d="M199.48,488.92a43.4,43.4,0,0,1-2.3,4.9,10,10,0,1,1,.6-9.78,43.818,43.818,0,0,1,1.7,4.88Z"/><path class="a" d="M361.6,571.13a10,10,0,0,1-9.32-10.39A9.76,9.76,0,0,1,363,551.3a9.94,9.94,0,0,1,9.09,10.56A10.26,10.26,0,0,1,361.6,571.13Z"/><path class="a" d="M259.74,623.25a10.25,10.25,0,0,1-10.16,9.67,9.91,9.91,0,0,1-9.68-10,9.69,9.69,0,0,1,10.33-9.87A10,10,0,0,1,259.74,623.25Z"/><path class="a" d="M160.92,629.37a10,10,0,0,1-9-10.71,9.79,9.79,0,0,1,10.78-8.84,10,10,0,0,1,8.81,10.28,10.12,10.12,0,0,1-10.59,9.27Z"/><path class="a" d="M349.28,582.67a9.58,9.58,0,0,1-10.35,9.15,9.73,9.73,0,0,1-9.24-10.34,10.07,10.07,0,0,1,10.43-9.3,9.87,9.87,0,0,1,9.16,10.49Z"/><path class="a" d="M395,540.21a9.93,9.93,0,0,1-10.18,9.52,9.71,9.71,0,0,1-9.42-10.19A9.86,9.86,0,0,1,385.45,530,10.07,10.07,0,0,1,395,540.21Z"/><path class="a" d="M183.33,632.78a9.73,9.73,0,1,1-10.16,9.43,9.52,9.52,0,0,1,10.16-9.43Z"/><path class="a" d="M352.5,494.49a9.582,9.582,0,1,1-9.385-9.775,9.582,9.582,0,0,1,9.385,9.775Z"/><path class="a" d="M330.45,493.54c-.05,5.25-4.74,10-9.87,10-4.92,0-9.61-5.17-9.43-10.4a9.652,9.652,0,1,1,19.3.39Z"/><path class="a" d="M236.52,644.25a9.64,9.64,0,1,1-2.946-6.954A9.72,9.72,0,0,1,236.52,644.25Z"/><path class="a" d="M173,575.91a9.84,9.84,0,0,1-10.08,9,9.53,9.53,0,1,1,1.13-19C169.6,566.25,172.91,570.68,173,575.91Z"/><path class="a" d="M407.66,531.18a9.57,9.57,0,1,1-10,9.12A9.57,9.57,0,0,1,407.66,531.18Z"/><path class="a" d="M214.23,643.51a9.48,9.48,0,0,1-9.72,9.2,9.29,9.29,0,0,1-9.27-9.58,9.41,9.41,0,0,1,9.65-9.25,9.6,9.6,0,0,1,9.34,9.63Z"/><path class="a" d="M281.32,624.18a9.41,9.41,0,0,1-9.9,9,9.25,9.25,0,0,1-9-9.88,9.56,9.56,0,0,1,9.85-9.13,9.67,9.67,0,0,1,9.05,10.01Z"/><path class="a" d="M385.87,527.36a9.53,9.53,0,1,1,8.852-5.853,9.53,9.53,0,0,1-8.852,5.853Z"/><path class="a" d="M242.91,468.37a9.426,9.426,0,1,1-8.98-9.832,9.35,9.35,0,0,1,8.98,9.832Z"/><path class="a" d="M384,571.25a9.3,9.3,0,0,1-9.08-9.76,9.64,9.64,0,0,1,10-9,9.45,9.45,0,0,1,8.69,9.58,9.13,9.13,0,0,1-9.61,9.18Z"/><path class="a" d="M417.36,519.06a9.56,9.56,0,0,1-10,8.85,9.35,9.35,0,0,1-8.48-9.7,9.15,9.15,0,0,1,9.95-8.75A9.31,9.31,0,0,1,417.36,519.06Z"/><path class="a" d="M325.84,603.56a9.27,9.27,0,0,1-9.78,9.1,9.5,9.5,0,0,1-8.84-9.52,9.32,9.32,0,0,1,9.87-9A9.1,9.1,0,0,1,325.84,603.56Z"/><path class="a" d="M248.32,654.17a9.44,9.44,0,0,1-8.62-9.57,9.55,9.55,0,0,1,9.45-8.79,9.19,9.19,0,1,1-.83,18.361Z"/><path class="a" d="M173.32,553.81a8.93,8.93,0,0,1-9.13,8.88,9.16,9.16,0,0,1-9.29-9.44,9.45,9.45,0,0,1,9.86-9,9.23,9.23,0,0,1,8.56,9.56Z"/><path class="a" d="M373.8,495.67a8.91,8.91,0,0,1-9.5,8.57,9.06,9.06,0,0,1-8.83-9.34,9.37,9.37,0,0,1,9.92-9A9.2,9.2,0,0,1,373.8,495.67Z"/><path class="a" d="M439.27,519.53a9.25,9.25,0,0,1-9,9.15,9.247,9.247,0,1,1,9.02-9.15Z"/><path class="a" d="M220.47,467.71a9,9,0,1,1-8.44-9.58,8.86,8.86,0,0,1,8.44,9.58Z"/><path class="a" d="M370.24,583.06a8.89,8.89,0,0,1-17.77,0,8.889,8.889,0,1,1,17.77,0Z"/><path class="a" d="M302.54,624.93a8.94,8.94,0,0,1-9.37,8.6,8.79,8.79,0,0,1-8.39-8.93,8.65,8.65,0,0,1,9-8.85,8.75,8.75,0,0,1,8.76,9.18Z"/><path class="a" d="M139.76,609.88a8.61,8.61,0,0,1,8.58,9.36,8.81,8.81,0,0,1-9.05,8.37,9,9,0,0,1-8.63-9.45A8.73,8.73,0,0,1,139.76,609.88Z"/><path class="a" d="M264.59,469.19a8.93,8.93,0,0,1-9.61,8.4,8.82,8.82,0,0,1,.74-17.61,9,9,0,0,1,8.87,9.21Z"/><path class="a" d="M405.19,571.71a8.859,8.859,0,1,1,10.1-7.84,9.09,9.09,0,0,1-10.1,7.84Z"/><path class="a" d="M442.15,541.52a9,9,0,1,1,7.62,9.65,9,9,0,0,1-7.62-9.65Z"/><path class="a" d="M169.68,642a8.864,8.864,0,1,1-8.46-9.25,8.864,8.864,0,0,1,8.46,9.25Z"/><path class="a" d="M149.22,597a8.62,8.62,0,0,1-9.4,8.43,8.73,8.73,0,0,1-8.35-8.93,8.83,8.83,0,0,1,9.16-8.77,8.68,8.68,0,0,1,8.59,9.27Z"/><path class="a" d="M395.74,496.26a9.07,9.07,0,0,1-9.5,8.61,8.92,8.92,0,0,1-8.31-9.12,8.72,8.72,0,0,1,8.81-8.54,8.91,8.91,0,0,1,9,9.05Z"/><path class="a" d="M429,550.31a8.77,8.77,0,0,1-8.54-8.86,8.89,8.89,0,0,1,9.4-8.66A8.68,8.68,0,0,1,438,542a8.57,8.57,0,0,1-9,8.31Z"/><path class="a" d="M437.23,563.75a8.78,8.78,0,0,1-9.15,8.79,9,9,0,0,1-8.46-8.91,8.7,8.7,0,0,1,8.591-8.7,8.58,8.58,0,0,1,9.019,8.82Z"/><path class="a" d="M408.28,505.66a9,9,0,0,1-8.24-9.25,8.79,8.79,0,0,1,9.74-8.26,8.6,8.6,0,0,1,7.82,9.44,8.79,8.79,0,0,1-9.32,8.07Z"/><path class="a" d="M278.34,461a8.61,8.61,0,0,1,8,9.31,8.49,8.49,0,0,1-9.21,8.06,8.81,8.81,0,0,1-8.13-9.26,8.91,8.91,0,0,1,9.34-8.11Z"/><path class="a" d="M212.47,665.56a8.61,8.61,0,0,1-9.08,8.2,8.8,8.8,0,0,1-8.25-9.11,8.9,8.9,0,0,1,9.15-8.24,8.75,8.75,0,0,1,8.18,9.15Z"/><path class="a" d="M308.25,471.12a8.83,8.83,0,0,1-9.32,8,8.64,8.64,0,0,1-8-9.27,8.73,8.73,0,0,1,9.25-8.07A8.92,8.92,0,0,1,308.25,471.12Z"/><path class="a" d="M189.92,457.64a8.76,8.76,0,0,1,8.28,9.06,8.6,8.6,0,0,1-8.49,8.18,8.48,8.48,0,0,1-8.54-8.69,8.64,8.64,0,0,1,8.75-8.55Z"/><path class="a" d="M383.27,592.34a8.34,8.34,0,0,1-8.42-8.75,8.78,8.78,0,0,1,8.76-8.58,9,9,0,0,1,8.54,8.92,8.66,8.66,0,0,1-8.88,8.41Z"/><path class="a" d="M165.57,517.8a8.42,8.42,0,0,1-8.25-8.92,8.66,8.66,0,0,1,9.16-8.12,8.81,8.81,0,0,1,8,8.71,8.6,8.6,0,0,1-8.91,8.33Z"/><path class="a" d="M149.76,575a8.44,8.44,0,0,1-9.2,7.9,8.62,8.62,0,0,1-7.93-8.65,8.74,8.74,0,0,1,9-8.31,8.59,8.59,0,0,1,8.13,9.06Z"/><path class="a" d="M414,585a8.3,8.3,0,0,1-9,8.16,8.53,8.53,0,0,1-8.13-8.54,8.79,8.79,0,0,1,8.81-8.6A8.6,8.6,0,0,1,414,585Z"/><path class="a" d="M279.51,646a8.44,8.44,0,0,1-8.83,8.4,8.64,8.64,0,0,1-8.31-9,8.54,8.54,0,0,1,8.61-8,8.31,8.31,0,0,1,8.53,8.6Z"/><path class="a" d="M164.51,539.91a8.5,8.5,0,1,1,9-8.27A8.67,8.67,0,0,1,164.51,539.91Z"/><path class="a" d="M347,604.49a8.35,8.35,0,1,1-7.89-8.8,8.51,8.51,0,0,1,7.89,8.8Z"/><path class="a" d="M139.22,632.5a8.3,8.3,0,1,1-8.95,7.6,8.39,8.39,0,0,1,8.95-7.6Z"/><path class="a" d="M151.56,663a8.41,8.41,0,1,1,7.82,8.81A8.6,8.6,0,0,1,151.56,663Z"/><path class="a" d="M465.75,520a8.39,8.39,0,1,1,6.88,9.43,8.3,8.3,0,0,1-6.88-9.43Z"/><path class="a" d="M360.61,596.76a8.29,8.29,0,0,1,8.09,8.42,8.38,8.38,0,0,1-8.39,8.15,8.29,8.29,0,1,1,.3-16.57Z"/><path class="a" d="M452.25,512.08a8.08,8.08,0,0,1,7.92,8.55,8.18,8.18,0,0,1-8.54,8,8.31,8.31,0,0,1-8-8.61,8.17,8.17,0,0,1,8.62-7.94Z"/><path class="a" d="M431,505.79a8,8,0,0,1-8.14-8.33,8.32,8.32,0,0,1,8.52-8.06,8.55,8.55,0,0,1,7.91,8.15,8.21,8.21,0,0,1-8.29,8.24Z"/><path class="a" d="M487.23,543.66a8,8,0,0,1,8.71-7.68,8.32,8.32,0,0,1,7.61,8.29,8.41,8.41,0,0,1-8.53,8,8.13,8.13,0,0,1-7.79-8.61Z"/><path class="a" d="M226,657.81a8,8,0,0,1,8,8.37,8.17,8.17,0,0,1-7.86,8,8.43,8.43,0,0,1-8.47-8.12,8.33,8.33,0,0,1,8.33-8.25Z"/><path class="a" d="M190.18,664.31a8.22,8.22,0,0,1-8.31,8.23,8.38,8.38,0,0,1-8-8.59,8.25,8.25,0,0,1,8.06-7.87,8.09,8.09,0,0,1,8.25,8.23Z"/><path class="a" d="M239.86,666.27a8.25,8.25,0,0,1,8.88-7.63,8.11,8.11,0,0,1,7.4,9,8.29,8.29,0,0,1-8.49,7.42,8.42,8.42,0,0,1-7.79-8.79Z"/><path class="a" d="M323.81,626a7.91,7.91,0,0,1-8.8,7.5,8,8,0,0,1-7.45-8.3,8.43,8.43,0,0,1,8.57-8,8.26,8.26,0,0,1,7.68,8.8Z"/><path class="a" d="M480.59,565.71a8.15,8.15,0,0,1-8.58,7.81,8,8,0,0,1-7.79-8.55,8.3,8.3,0,0,1,8.52-7.93,8.47,8.47,0,0,1,7.85,8.67Z"/><path class="a" d="M174.76,487.54a7.9,7.9,0,0,1-7.78,8,8.12,8.12,0,0,1-8.47-8.07,8.42,8.42,0,0,1,8.51-8.16A8.21,8.21,0,0,1,174.76,487.54Z"/><path class="a" d="M329.69,471.92a8.16,8.16,0,0,1-8.31,7.6,8.31,8.31,0,0,1-7.88-8.73,8.2,8.2,0,0,1,8.38-7.54,8,8,0,0,1,7.81,8.67Z"/><path class="a" d="M481.34,543.44a8.24,8.24,0,0,1-8.6,7.92,8.08,8.08,0,0,1-7.57-8.26,7.91,7.91,0,0,1,7.91-7.85,8.09,8.09,0,0,1,8.26,8.19Z"/><path class="a" d="M458.26,564.74a7.78,7.78,0,0,1-7.94,7.72,8,8,0,0,1-8.16-8.2,8.34,8.34,0,0,1,8.64-7.86,8.16,8.16,0,0,1,7.46,8.34Z"/><path class="a" d="M516.79,553a8.21,8.21,0,0,1-7.77-8.67,8.08,8.08,0,0,1,8.36-7.38,7.92,7.92,0,0,1,7.71,8.59A8.07,8.07,0,0,1,516.79,553Z"/><path class="a" d="M125.72,618.14a7.8,7.8,0,0,1-8.12,7.63,8,8,0,0,1-7.93-7.91,8.29,8.29,0,0,1,8.52-8.08A8.13,8.13,0,0,1,125.72,618.14Z"/><path class="a" d="M119,587.79a7.88,7.88,0,0,1,7.56,8.12,8.05,8.05,0,0,1-8.48,7.9,8.22,8.22,0,0,1-7.63-8.2,8,8,0,0,1,8.55-7.82Z"/><path class="a" d="M504.16,522.14a8.21,8.21,0,0,1-8,7.92,8,8,0,0,1-7.92-7.87,7.77,7.77,0,0,1,8.18-8.11A8,8,0,0,1,504.16,522.14Z"/><path class="a" d="M452.48,506.37a8,8,0,0,1-7.7-8,8.15,8.15,0,0,1,8.62-7.78,8,8,0,0,1,7.31,8.41,7.8,7.8,0,0,1-8.23,7.37Z"/><path class="a" d="M390.5,606.14a7.77,7.77,0,1,1-2.047-5.639,7.84,7.84,0,0,1,2.047,5.639Z"/><path class="a" d="M343.68,480a7.84,7.84,0,0,1-7.84-7.9,7.871,7.871,0,1,1,7.86,7.9Z"/><path class="a" d="M395.51,474.29a7.74,7.74,0,1,1-2.012-5.654A7.8,7.8,0,0,1,395.51,474.29Z"/><path class="a" d="M504.82,501.1a7.8,7.8,0,0,1-8.72,6.9,7.67,7.67,0,0,1-6.87-8.68,7.77,7.77,0,0,1,8.66-7,7.87,7.87,0,0,1,6.93,8.78Z"/><path class="a" d="M124.71,640.47a8,8,0,0,1-8.48,7.31,7.86,7.86,0,1,1,8.48-7.31Z"/><path class="a" d="M517.38,530.58a7.774,7.774,0,1,1,8.465-7.015,7.78,7.78,0,0,1-8.465,7.015Z"/><path class="a" d="M474.49,507a7.85,7.85,0,0,1-7.29-7.86,7.63,7.63,0,0,1,8.37-7.29,7.44,7.44,0,0,1,6.92,8.06,7.73,7.73,0,0,1-8,7.09Z"/><path class="a" d="M502.14,566.56a7.71,7.71,0,1,1-7.5-8.06,7.59,7.59,0,0,1,7.5,8.06Z"/><path class="a" d="M516.25,574.75a7.84,7.84,0,0,1-7.75-8,7.762,7.762,0,1,1,15.51.64,7.86,7.86,0,0,1-7.76,7.36Z"/><path class="a" d="M373.31,473.39a7.79,7.79,0,1,1-7.56-8.12,7.6,7.6,0,0,1,7.56,8.12Z"/><path class="a" d="M493.14,595.6a7.59,7.59,0,0,1-7.12-8.41,7.78,7.78,0,0,1,8.08-6.91,7.65,7.65,0,0,1,7.06,8.49,7.42,7.42,0,0,1-8.02,6.83Z"/><path class="a" d="M137.92,655a7.57,7.57,0,1,1-7.68,7.35A7.57,7.57,0,0,1,137.92,655Z"/><path class="a" d="M142.32,545.17a7.36,7.36,0,0,1,7.29,7.66,7.54,7.54,0,0,1-8.14,7.49,7.67,7.67,0,0,1-7-8,7.48,7.48,0,0,1,7.85-7.15Z"/><path class="a" d="M435.13,586a7.33,7.33,0,0,1-7.88,7,7.51,7.51,0,0,1-7.21-7.73,7.79,7.79,0,0,1,8.27-7.4,7.65,7.65,0,0,1,6.82,8.13Z"/><path class="a" d="M511.37,500.92a7.26,7.26,0,0,1,7.58-7.3,7.51,7.51,0,0,1,7.41,7.59,7.8,7.8,0,0,1-7.71,7.4,7.51,7.51,0,0,1-7.28-7.69Z"/><path class="a" d="M449.4,593.7a7.26,7.26,0,0,1-7.42-7.47,7.65,7.65,0,0,1,7.52-7.53,7.94,7.94,0,0,1,7.5,7.64A7.48,7.48,0,0,1,449.4,593.7Z"/><path class="a" d="M293.15,639.26a7.53,7.53,0,0,1,7.16,7.81,7.68,7.68,0,0,1-7.87,7.17,7.51,7.51,0,0,1-7.1-7.88,7.35,7.35,0,0,1,7.81-7.1Z"/><path class="a" d="M256.36,454a7.12,7.12,0,0,1-7.19-7.65,7.46,7.46,0,0,1,7.81-7.16,7.77,7.77,0,0,1,7,7.48,7.38,7.38,0,0,1-7.62,7.33Z"/><path class="a" d="M112.21,572.58a7.38,7.38,0,0,1,7.83-6.35,7.61,7.61,0,0,1,6.79,8.15,7.31,7.31,0,0,1-8.27,6.5,7.13,7.13,0,0,1-6.35-8.3Z"/><path class="a" d="M277.42,668.37a7.31,7.31,0,0,1-8.16,6.63,7.52,7.52,0,0,1-6.51-7.77,7.62,7.62,0,0,1,8-7,7.42,7.42,0,0,1,6.67,8.14Z"/><path class="a" d="M219.64,445.4a7.22,7.22,0,0,1-7.9,6.89,7.38,7.38,0,0,1-6.91-7.37,7.72,7.72,0,0,1,7.7-7.34,7.47,7.47,0,0,1,7.11,7.82Z"/><path class="a" d="M225.16,680.79a7.4,7.4,0,0,1,7.31,7.64,7.68,7.68,0,0,1-7.41,7,7.42,7.42,0,0,1-7.24-7.72A7.25,7.25,0,0,1,225.16,680.79Z"/><path class="a" d="M545.57,568.17a7.3,7.3,0,0,1-7.8,7.06,7.46,7.46,0,0,1-6.7-7.61,7.24,7.24,0,0,1,7.86-7A7.15,7.15,0,0,1,545.57,568.17Z"/><path class="a" d="M234.14,453a7.166,7.166,0,1,1,.86-14.3,7.39,7.39,0,0,1,6.71,7.6,7.27,7.27,0,0,1-7.57,6.7Z"/><path class="a" d="M547.23,523.93a7.2,7.2,0,1,1-6.955-7.445,7.2,7.2,0,0,1,6.955,7.445Z"/><path class="a" d="M416.83,474.87a7.06,7.06,0,1,1-6.93-7.35,7.21,7.21,0,0,1,6.93,7.35Z"/><path class="a" d="M411.75,607.15a7.06,7.06,0,1,1-6.62-7.64A7.18,7.18,0,0,1,411.75,607.15Z"/><path class="a" d="M515.38,596a7.13,7.13,0,1,1,7.12-6.945A7.13,7.13,0,0,1,515.38,596Z"/><path class="a" d="M174.17,686a7.16,7.16,0,0,1,7.4-6.76,7.16,7.16,0,1,1-7.4,6.76Z"/><path class="a" d="M344.89,626.5a7.05,7.05,0,0,1-7.25,6.89,7.053,7.053,0,1,1,7.21-6.89Z"/><path class="a" d="M471.46,594.24a7,7,0,0,1-6.94-7.14,6.82,6.82,0,0,1,7.09-7,6.91,6.91,0,0,1,7,7.09,7.07,7.07,0,0,1-7.15,7.05Z"/><path class="a" d="M546.21,546.35a7.032,7.032,0,1,1-6.48-7.65,7.15,7.15,0,0,1,6.48,7.65Z"/><path class="a" d="M271.65,447.18a6.74,6.74,0,0,1,7.52-6.54,6.88,6.88,0,0,1,6.45,7,6.991,6.991,0,1,1-13.97-.46Z"/><path class="a" d="M95.11,623.76a6.92,6.92,0,0,1-6.41-7,7.28,7.28,0,0,1,7.45-6.69,7,7,0,0,1,6.24,7.74,6.58,6.58,0,0,1-7.28,5.95Z"/><path class="a" d="M174.33,465.74a6.87,6.87,0,0,1-6.79,6.61,7.15,7.15,0,0,1-6.93-7.19,7,7,0,0,1,7.52-6.5,6.64,6.64,0,0,1,6.2,7.08Z"/><path class="a" d="M143.22,523.79a7,7,0,0,1,6.64,6.8,7.14,7.14,0,0,1-7.22,6.91,6.89,6.89,0,0,1-6.49-7.49A6.67,6.67,0,0,1,143.22,523.79Z"/><path class="a" d="M366.3,627.56a6.38,6.38,0,0,1-7,6.24,6.76,6.76,0,0,1-6.53-6.83,7.08,7.08,0,0,1,7.43-6.67,6.82,6.82,0,0,1,6.1,7.26Z"/><path class="a" d="M427.15,600.77a7,7,0,0,1,6.58,6.86,7.14,7.14,0,0,1-7.28,6.84,6.89,6.89,0,0,1-6.43-7.55A6.67,6.67,0,0,1,427.15,600.77Z"/><path class="a" d="M540.92,508.48a6.58,6.58,0,0,1-6.69-6.56,6.69,6.69,0,0,1,6.63-6.69,6.88,6.88,0,0,1,6.76,6.64,6.73,6.73,0,0,1-6.7,6.61Z"/><path class="a" d="M381.39,634.56a6.75,6.75,0,0,1-6.37-6.93,6.91,6.91,0,0,1,7.05-6.32,6.71,6.71,0,0,1,6.31,7,6.6,6.6,0,0,1-6.99,6.25Z"/><path class="a" d="M136.63,691.28a6.41,6.41,0,0,1-6.22-7,6.66,6.66,0,0,1,7-6.33,6.82,6.82,0,0,1,6.29,7.11,6.56,6.56,0,0,1-7.07,6.22Z"/><path class="a" d="M259.57,365.24a6.88,6.88,0,0,1-6.32-7.07,7,7,0,0,1,7.23-6.16,6.631,6.631,0,1,1-.91,13.23Z"/><path class="a" d="M202.57,693.84a6.43,6.43,0,0,1-6.21-7.08,6.79,6.79,0,0,1,7.11-6.34,7,7,0,0,1,6.29,7.24,6.66,6.66,0,0,1-7.19,6.18Z"/><path class="a" d="M425.27,474.76a6.41,6.41,0,0,1,7.4-5.73,6.55,6.55,0,0,1,5.81,7.36,6.64,6.64,0,0,1-7.45,5.76,6.48,6.48,0,0,1-5.76-7.39Z"/><path class="a" d="M103.1,595a6.43,6.43,0,0,1-6.72,6.51,6.611,6.611,0,1,1,.22-13.22,6.39,6.39,0,0,1,6.5,6.71Z"/><path class="a" d="M116.23,655.23a6.51,6.51,0,1,1-5.926,2.917A6.52,6.52,0,0,1,116.23,655.23Z"/><path class="a" d="M165.63,685.89a6.54,6.54,0,1,1-6.038-6.5,6.54,6.54,0,0,1,6.038,6.5Z"/><path class="a" d="M561.25,553.09a6.46,6.46,0,1,1,6.51-6.11,6.23,6.23,0,0,1-6.51,6.11Z"/><path class="a" d="M514.37,617.4a6.48,6.48,0,1,1,5.929-3.087,6.47,6.47,0,0,1-5.929,3.087Z"/><path class="a" d="M493.09,603.71a6.38,6.38,0,1,1-6.74,6.37,6.31,6.31,0,0,1,6.74-6.37Z"/><path class="a" d="M247.15,682.53a6.45,6.45,0,0,1,6.57,6.65,6.62,6.62,0,0,1-6.45,6.19,6.55,6.55,0,0,1-6.57-6.69,6.48,6.48,0,0,1,6.45-6.15Z"/><path class="a" d="M294.06,448.46a6.47,6.47,0,0,1,6.12-6.55,6.55,6.55,0,0,1,6.61,6.71,6.32,6.32,0,0,1-6.46,6.16,6.25,6.25,0,0,1-6.27-6.32Z"/><path class="a" d="M453.51,482.78a6.45,6.45,0,0,1-6.37-6.82,6.52,6.52,0,0,1,13,.89,6.43,6.43,0,0,1-6.63,5.93Z"/><path class="a" d="M470.35,615.61a6.44,6.44,0,0,1-6.2-6.39,6.519,6.519,0,1,1,6.2,6.39Z"/><path class="a" d="M563.4,496.44a6.09,6.09,0,0,1,5.91,6.59,6.3,6.3,0,0,1-6.45,6.14,6.44,6.44,0,0,1-6.25-7,6.26,6.26,0,0,1,6.79-5.73Z"/><path class="a" d="M448.22,614.7a7.415,7.415,0,1,1,.01,0Z"/><path class="a" d="M565.9,591.08a6.335,6.335,0,0,1-12.64-.85,6.56,6.56,0,0,1,7.08-6.12A6.47,6.47,0,0,1,565.9,591.08Z"/><path class="a" d="M568.39,524.91a6.07,6.07,0,0,1-6.65,5.83,6.17,6.17,0,0,1-5.9-6.63,6.54,6.54,0,0,1,6.71-6A6.39,6.39,0,0,1,568.39,524.91Z"/><path class="a" d="M583.88,531.6A6.06,6.06,0,0,1,578,525a6.36,6.36,0,0,1,6.64-6,6.56,6.56,0,0,1,5.92,6.77,6.23,6.23,0,0,1-6.68,5.83Z"/><path class="a" d="M144.64,480.56a6,6,0,0,1,6.12,6.37,6.24,6.24,0,0,1-6.54,6,6.49,6.49,0,0,1-5.89-6.16,6.18,6.18,0,0,1,6.31-6.21Z"/><path class="a" d="M263.63,425.41a6.5,6.5,0,0,1-7.05,5.47,6.24,6.24,0,0,1-5.38-7,6.12,6.12,0,0,1,6.95-5.42,6.33,6.33,0,0,1,5.48,6.95Z"/><path class="a" d="M582.87,563.49a6.17,6.17,0,0,1,5.9,6.57,6.49,6.49,0,0,1-6.19,5.77,6.26,6.26,0,0,1-6.15-6.38,6,6,0,0,1,6.44-5.96Z"/><path class="a" d="M259,386.89a6.07,6.07,0,0,1-6.21-6.23,6.43,6.43,0,0,1,6.28-6.32,6.7,6.7,0,0,1,6.28,6.39,6.24,6.24,0,0,1-6.35,6.16Z"/><path class="a" d="M537.07,595.78a6.17,6.17,0,0,1-5.8-6.72,6.62,6.62,0,0,1,6.36-5.69,6.27,6.27,0,0,1,6,6.57,6,6,0,0,1-6.56,5.84Z"/><path class="a" d="M120.35,545.7a6.29,6.29,0,0,1,6.22,6.39,6.55,6.55,0,0,1-6.64,6.06,6.24,6.24,0,0,1-5.78-6.17,6,6,0,0,1,6.2-6.28Z"/><path class="a" d="M236.43,386a6,6,0,0,1-5.64-6.79,6.34,6.34,0,0,1,6.36-5.62,6.52,6.52,0,0,1,6,6.65,6.17,6.17,0,0,1-6.72,5.76Z"/><path class="a" d="M566.57,568.73a6.27,6.27,0,0,1-6.42,6.2,6.47,6.47,0,0,1-5.88-6.17,6.21,6.21,0,0,1,5.85-6.1,6.05,6.05,0,0,1,6.45,6.07Z"/><path class="a" d="M504,478.33a6.11,6.11,0,0,1-6.53,5.93,6.32,6.32,0,0,1-5.83-6.08,6.41,6.41,0,0,1,6.3-6.29,6.2,6.2,0,0,1,6.06,6.44Z"/><path class="a" d="M611.28,548.45a6,6,0,0,1-6.4,6,6.29,6.29,0,0,1-5.9-6.62,6.43,6.43,0,0,1,6.2-5.75,6.09,6.09,0,0,1,6.1,6.37Z"/><path class="a" d="M235.58,417.63a6.21,6.21,0,0,1,5.91,6.63,6.39,6.39,0,0,1-6.87,5.74,6.26,6.26,0,0,1-5.55-6.39,6.05,6.05,0,0,1,6.51-5.98Z"/><path class="a" d="M513.56,478.6a6.08,6.08,0,0,1,6.58-5.85,6.42,6.42,0,0,1,5.73,6.22,6.29,6.29,0,0,1-6.41,6.13,6,6,0,0,1-5.9-6.5Z"/><path class="a" d="M258.54,396.68a6.32,6.32,0,0,1,5.71,6.8,6.21,6.21,0,0,1-6.41,5.44,6,6,0,0,1-5.62-6.76,6.09,6.09,0,0,1,6.32-5.48Z"/><path class="a" d="M481.82,477.21a6,6,0,0,1-6.21,6.22,6.32,6.32,0,0,1-6.1-6.45,6.43,6.43,0,0,1,6-5.93,6.09,6.09,0,0,1,6.31,6.16Z"/><path class="a" d="M627.81,533.08a6.14,6.14,0,0,1-5.87-6.06,6.44,6.44,0,0,1,6.54-6.14,6.27,6.27,0,0,1,5.75,6.82,5.94,5.94,0,0,1-6.42,5.38Z"/><path class="a" d="M322.05,455.28a5.85,5.85,0,0,1-5.59-6.19,6.1,6.1,0,0,1,6.5-6,6.37,6.37,0,0,1,5.7,6.3,6.14,6.14,0,0,1-6.61,5.89Z"/><path class="a" d="M536.52,617.86a6.111,6.111,0,1,1,6.09-5.79,6,6,0,0,1-6.09,5.79Z"/><path class="a" d="M238.09,351.85a6,6,0,0,1,5.79,6.08,6.11,6.11,0,0,1-6.72,5.77,5.943,5.943,0,0,1,.93-11.85Z"/><path class="a" d="M94.94,633.13a5.993,5.993,0,1,1-.25,11.98,6,6,0,0,1-5.94-6.44A5.93,5.93,0,0,1,94.94,633.13Z"/><path class="a" d="M158,713.5a5.89,5.89,0,1,1,5.5-2.684A5.88,5.88,0,0,1,158,713.5Z"/><path class="a" d="M190.23,450.18a5.83,5.83,0,0,1-5.74-6,6.12,6.12,0,0,1,6.3-6.15,6.29,6.29,0,0,1,5.78,6.7A6,6,0,0,1,190.23,450.18Z"/><path class="a" d="M266.6,337.33a5.92,5.92,0,1,1-5.23-6.52A6,6,0,0,1,266.6,337.33Z"/><path class="a" d="M404.12,622.85a5.91,5.91,0,1,1-5.642,3.4,5.87,5.87,0,0,1,5.642-3.4Z"/><path class="a" d="M315.88,641.64a6,6,0,1,1-6.92,4.92A6,6,0,0,1,315.88,641.64Z"/><path class="a" d="M634.88,505.38a6,6,0,0,1-6.16,5.69,5.91,5.91,0,0,1-5.6-5.62,6.06,6.06,0,0,1,5.83-6.06,6.13,6.13,0,0,1,5.93,5.99Z"/><path class="a" d="M626.73,565.37a5.9,5.9,0,1,1-6.21,5.62A6.08,6.08,0,0,1,626.73,565.37Z"/><path class="a" d="M149.69,508.57a5.859,5.859,0,1,0-.01,0Z"/><path class="a" d="M97.47,567.07a5.8,5.8,0,0,1,5.75,6,5.89,5.89,0,0,1-11.77-.3,5.81,5.81,0,0,1,6.02-5.7Z"/><path class="a" d="M589.2,547.54a6,6,0,0,1-6,5.78,5.84,5.84,0,0,1,.1-11.67,6,6,0,0,1,5.9,5.89Z"/><path class="a" d="M291.61,674.27a6.14,6.14,0,0,1-5.43-6.41,6,6,0,0,1,6.08-5.1,5.75,5.75,0,0,1,5.36,6.37,5.89,5.89,0,0,1-6.01,5.14Z"/><path class="a" d="M547.45,480.06a5.86,5.86,0,0,1-6.28,5.48,5.69,5.69,0,0,1-5.06-6,5.59,5.59,0,0,1,6.21-5.44,5.77,5.77,0,0,1,5.13,5.96Z"/><path class="a" d="M246.86,705.15a5.88,5.88,0,1,1-6.39,5.34,5.69,5.69,0,0,1,6.39-5.34Z"/><path class="a" d="M285.18,426a5.62,5.62,0,0,1-6.38,5.14,5.715,5.715,0,1,1,6.38-5.14Z"/><path class="a" d="M625.49,598.82a5.77,5.77,0,0,1-5.56-5.57,5.52,5.52,0,0,1,5.84-5.8,5.69,5.69,0,0,1,5.63,5.46A6,6,0,0,1,625.49,598.82Z"/><path class="a" d="M606.79,510.16a5.62,5.62,0,0,1-5.59-6,5.82,5.82,0,0,1,6.11-5.56,6,6,0,0,1,5.34,5.76,5.73,5.73,0,0,1-5.86,5.8Z"/><path class="a" d="M287.61,359.85a5.64,5.64,0,0,1-5.86,5.19,5.46,5.46,0,0,1-5.28-6.28,5.57,5.57,0,0,1,6.07-4.9A5.76,5.76,0,0,1,287.61,359.85Z"/><path class="a" d="M611.74,526.48a5.84,5.84,0,0,1-6.23,5.42,5.66,5.66,0,0,1-5.06-5.9,5.42,5.42,0,0,1,6.15-5.33A5.61,5.61,0,0,1,611.74,526.48Z"/><path class="a" d="M584.81,509.15a5.65,5.65,0,0,1-5.45-5.53,6,6,0,0,1,6-5.78,5.75,5.75,0,0,1,5.32,6.28,5.39,5.39,0,0,1-5.87,5.03Z"/><path class="a" d="M603.56,598a5.66,5.66,0,0,1-5.67-5.39,5.44,5.44,0,0,1,5.61-6,5.6,5.6,0,0,1,5.73,5.3,5.82,5.82,0,0,1-5.67,6.09Z"/><path class="a" d="M394,452a5.63,5.63,0,0,1-5.57,5.49,5.81,5.81,0,0,1-5.61-6.12,5.57,5.57,0,0,1,5.93-5.07A5.37,5.37,0,0,1,394,452Z"/><path class="a" d="M342.6,648.66a5.7,5.7,0,0,1-5.72,5.29,5.48,5.48,0,0,1-5.41-5.53,5.57,5.57,0,0,1,6-5.61,5.81,5.81,0,0,1,5.13,5.85Z"/><path class="a" d="M269.37,695.27a5.38,5.38,0,0,1-5.61-5.34,5.71,5.71,0,0,1,5.83-5.88,6,6,0,0,1,5.37,5.8,5.55,5.55,0,0,1-5.59,5.42Z"/><path class="a" d="M366.52,445.37a5.4,5.4,0,0,1,5.45,5.44,5.69,5.69,0,0,1-5.78,5.83,6,6,0,0,1-5.52-6.16,5.64,5.64,0,0,1,5.85-5.11Z"/><path class="a" d="M286.68,382.07a5.86,5.86,0,0,1-6,5.05,5.59,5.59,0,0,1-5-6,5.37,5.37,0,0,1,5.95-4.95,5.56,5.56,0,0,1,5.05,5.9Z"/><path class="a" d="M79.14,616.55a5.48,5.48,0,0,1-6,5,5.3,5.3,0,0,1-5.09-5.86,5.61,5.61,0,0,1,5.89-5.2A6,6,0,0,1,79.14,616.55Z"/><path class="a" d="M633,549.41a5.93,5.93,0,0,1-5.73,5.41,5.54,5.54,0,0,1-5.44-6.16,5.4,5.4,0,0,1,5.9-5,5.74,5.74,0,0,1,5.27,5.75Z"/><path class="a" d="M241.48,402.08a5.29,5.29,0,0,1-5.51,5.37,5.58,5.58,0,0,1-5.44-5.57,5.46,5.46,0,0,1,5.62-5.32,5.23,5.23,0,0,1,5.33,5.52Z"/><path class="a" d="M99.42,660.85A5.42,5.42,0,0,1,94,666.46,5.75,5.75,0,0,1,88.34,661a5.61,5.61,0,0,1,5.53-5.56,5.33,5.33,0,0,1,5.55,5.41Z"/><path class="a" d="M141.71,706.81a5.66,5.66,0,0,1-5.56,5.49,5.43,5.43,0,0,1-5.41-5.55,5.54,5.54,0,0,1,5.47-5.53,5.77,5.77,0,0,1,5.5,5.59Z"/><path class="a" d="M202.23,714.83a5.39,5.39,0,0,1-5.49-5.46,5.51,5.51,0,0,1,5.38-5.62,5.7,5.7,0,0,1,5.57,5.51,5.63,5.63,0,0,1-5.46,5.57Z"/><path class="a" d="M344.58,455.49a5.55,5.55,0,0,1-5.34-5.1,5.41,5.41,0,0,1,5.37-5.64,5.54,5.54,0,0,1,5.4,5.67,5.77,5.77,0,0,1-5.43,5.07Z"/><path class="a" d="M609.84,571a5.46,5.46,0,0,1-6.05,4.75,5.29,5.29,0,0,1-4.85-5.91,5.52,5.52,0,0,1,6-4.86,5.74,5.74,0,0,1,4.9,6.02Z"/><path class="a" d="M115.52,678.36a5.55,5.55,0,0,1,5.12,5.79,5.33,5.33,0,0,1-5.74,5.07,5.49,5.49,0,0,1-5.2-5.69,5.79,5.79,0,0,1,5.82-5.17Z"/><path class="a" d="M269.41,248.78a5.45,5.45,0,0,1-5.07,5.24,5.3,5.3,0,1,1-.5-10.59,5.4,5.4,0,0,1,5.57,5.35Z"/><path class="a" d="M239.88,308.52a5.24,5.24,0,0,1,4.86,5.94,5.36,5.36,0,0,1-5.41,4.87,5.52,5.52,0,0,1-5.24-5.72,5.35,5.35,0,0,1,5.79-5.09Z"/><path class="a" d="M650.2,533.36a5.53,5.53,0,0,1-5.32-5.64,5.38,5.38,0,0,1,5.11-5.18,5.25,5.25,0,0,1,5.58,5.27,5.38,5.38,0,0,1-5.37,5.55Z"/><path class="a" d="M74.34,599.36a5.3,5.3,0,0,1-.18-10.6,5.3,5.3,0,1,1,.18,10.6Z"/><path class="a" d="M243.91,336.1a5.14,5.14,0,0,1-5.6,5.17,5.3,5.3,0,1,1,5.6-5.17Z"/><path class="a" d="M218.31,423.36a5.22,5.22,0,1,1-5-5.79,5.32,5.32,0,0,1,5,5.79Z"/><path class="a" d="M247.18,248.21a5.19,5.19,0,0,1-5.37,4.88,5.1,5.1,0,0,1-5-5.25,5.25,5.25,0,0,1,5.66-5.2A5.31,5.31,0,0,1,247.18,248.21Z"/><path class="a" d="M216,351.64a5.29,5.29,0,1,1-5.48,4.81,5.29,5.29,0,0,1,5.48-4.81Z"/><path class="a" d="M653,594a5.22,5.22,0,1,1-4.82-5.37A5.22,5.22,0,0,1,653,594Z"/><path class="a" d="M492.44,626.91a5.26,5.26,0,1,1-5.177,2.822,5.23,5.23,0,0,1,5.177-2.822Z"/><path class="a" d="M587,591.58a5.22,5.22,0,1,1-4.7-5.49,5.29,5.29,0,0,1,4.7,5.49Z"/><path class="a" d="M519,633.2a5.3,5.3,0,1,1-1.594-3.852A5.32,5.32,0,0,1,519,633.2Z"/><path class="a" d="M280.21,398.47a5.2,5.2,0,1,1-5.24,5,5.26,5.26,0,0,1,5.24-5Z"/><path class="a" d="M176.26,240.06a5.3,5.3,0,1,1-5.347,5.045,5.3,5.3,0,0,1,5.347-5.045Z"/><path class="a" d="M77.72,638.54a5.12,5.12,0,0,1-5.31,4.87A5.143,5.143,0,0,1,73,633.14a5,5,0,0,1,4.72,5.4Z"/><path class="a" d="M181.94,223.57a5.26,5.26,0,0,1-5.41,4.84,5.15,5.15,0,0,1-4.72-5.47,5,5,0,0,1,5.36-4.8,5.16,5.16,0,0,1,4.77,5.43Z"/><path class="a" d="M656.31,506.24a5.21,5.21,0,1,1-4.949-5.273A5.21,5.21,0,0,1,656.31,506.24Z"/><path class="a" d="M214.2,395.94a5.19,5.19,0,1,1-4.71,2.457A5.19,5.19,0,0,1,214.2,395.94Z"/><path class="a" d="M215,373.85a5.19,5.19,0,0,1,4.86,5.31,4.85,4.85,0,0,1-5.2,4.87,5,5,0,0,1-4.92-5.21,5.28,5.28,0,0,1,5.26-4.97Z"/><path class="a" d="M265,221.47a5.171,5.171,0,1,1-.19,10.34,5.42,5.42,0,0,1-5-5.27A5.28,5.28,0,0,1,265,221.47Z"/><path class="a" d="M242.54,230.87a5,5,0,0,1-4.66-5.54,4.91,4.91,0,0,1,5-4.59,5.16,5.16,0,0,1,5.08,5.2A5.25,5.25,0,0,1,242.54,230.87Z"/><path class="a" d="M220,252.06a5.09,5.09,0,0,1-5.18-5,5.32,5.32,0,0,1,5-5.22,5.15,5.15,0,0,1,5.1,5.08,4.86,4.86,0,0,1-4.92,5.14Z"/><path class="a" d="M625.19,610a5,5,0,0,1,4.69,5.41,4.91,4.91,0,0,1-5.25,4.84,5,5,0,0,1-5-5.71,5.11,5.11,0,0,1,5.56-4.54Z"/><path class="a" d="M648.67,577.29a5.06,5.06,0,0,1-5.18-5,4.89,4.89,0,0,1,5-5.19,5.06,5.06,0,0,1,5.24,5A5.19,5.19,0,0,1,648.67,577.29Z"/><path class="a" d="M196.47,422.37a5.46,5.46,0,0,1-5.54,4.8,5.12,5.12,0,0,1-4.55-5.66,5,5,0,0,1,5.1-4.49,5.38,5.38,0,0,1,4.99,5.35Z"/><path class="a" d="M197.23,273.28a4.85,4.85,0,0,1-4.94-5.19,5,5,0,0,1,4.73-4.83,5.22,5.22,0,0,1,5.34,4.93,5.09,5.09,0,0,1-5.13,5.09Z"/><path class="a" d="M221.56,335.52a4.88,4.88,0,0,1-5.46,4.66,5,5,0,0,1-4.72-5.46,5.06,5.06,0,0,1,5.51-4.69,5,5,0,0,1,4.67,5.49Z"/><path class="a" d="M158.85,244.4a4.78,4.78,0,0,1-5,5,5,5,0,0,1-5-4.59,5.28,5.28,0,0,1,4.82-5.48,5.12,5.12,0,0,1,5.18,5.07Z"/><path class="a" d="M168.89,438.23a5.28,5.28,0,0,1,4.54,5.71,5,5,0,0,1-5.81,4.29,4.79,4.79,0,0,1-4.18-5.24,5.11,5.11,0,0,1,5.45-4.76Z"/><path class="a" d="M410.34,457.66a5.23,5.23,0,0,1-4.91-5.31,5.52,5.52,0,0,1,5.39-4.92,5.42,5.42,0,0,1,4.86,5.41,5.05,5.05,0,0,1-5.34,4.82Z"/><path class="a" d="M306.26,426.42a5.16,5.16,0,0,1-5.27,4.89,5,5,0,0,1-4.67-5.4,4.82,4.82,0,0,1,4.87-4.53A5.06,5.06,0,0,1,306.26,426.42Z"/><path class="a" d="M154.77,227.42a5.15,5.15,0,0,1-5.05-5.11,5,5,0,0,1,4.66-4.82,4.85,4.85,0,0,1,5.28,4.74,5,5,0,0,1-4.89,5.19Z"/><path class="a" d="M585.88,613.88a4.837,4.837,0,1,1-4.73-5.39,5.11,5.11,0,0,1,4.73,5.39Z"/><path class="a" d="M649.73,545a5.13,5.13,0,0,1,4.68,5.44,4.867,4.867,0,1,1-4.68-5.44Z"/><path class="a" d="M241.66,265a5.14,5.14,0,0,1,4.46,5.63,5.05,5.05,0,0,1-5.77,4.24,4.85,4.85,0,0,1-4.12-5.25,5,5,0,0,1,5.43-4.62Z"/><path class="a" d="M646.79,620.88a4.9,4.9,0,0,1-4.76-4.67,5,5,0,0,1,5-5.13,5.13,5.13,0,0,1,4.8,5.33,5,5,0,0,1-5.04,4.47Z"/><path class="a" d="M559.24,607.71a5,5,0,0,1,4.32,5.68,4.9,4.9,0,0,1-5.27,4.09,5,5,0,0,1-4.43-5A5.17,5.17,0,0,1,559.24,607.71Z"/><path class="a" d="M452.69,630.83a5.22,5.22,0,0,1-5.55,4.63,5,5,0,0,1-4.24-5.25,4.69,4.69,0,0,1,5.47-4.51A4.9,4.9,0,0,1,452.69,630.83Z"/><path class="a" d="M430.82,629.74a5,5,0,0,1-5.25,4.91,5.23,5.23,0,0,1-4.61-5,5,5,0,0,1,4.69-4.82,4.79,4.79,0,0,1,5.17,4.91Z"/><path class="a" d="M268.21,271.1a5,5,0,0,1-5.52,4.62,4.77,4.77,0,0,1-4.26-5.17,4.91,4.91,0,0,1,4.81-4.69A5.13,5.13,0,0,1,268.21,271.1Z"/><path class="a" d="M145.39,469.62c-2.51,0-4.69-1.89-4.66-4,.07-3.89,1.79-6.15,4.66-6.11a5,5,0,0,1,5.08,5.06,4.87,4.87,0,0,1-5.08,5.05Z"/><path class="a" d="M602.91,609.35a4.92,4.92,0,0,1,4.58,4.92,4.74,4.74,0,0,1-5.12,4.94,5,5,0,0,1-4.68-4.86A5.15,5.15,0,0,1,602.91,609.35Z"/><path class="a" d="M203,246.56a4.84,4.84,0,0,1-5.09,4.4,4.61,4.61,0,0,1-4.54-5.44,4.87,4.87,0,0,1,5.26-4.19A5.2,5.2,0,0,1,203,246.56Z"/><path class="a" d="M223,291.05a4.8,4.8,0,0,1-4.79,4.72,5.06,5.06,0,0,1-5-5.25,5,5,0,0,1,5.17-4.35,4.72,4.72,0,0,1,4.62,4.88Z"/><path class="a" d="M185.34,708.69a5.16,5.16,0,0,1-5.46,4.72,4.87,4.87,0,0,1-4.34-5.1,4.67,4.67,0,0,1,4.72-4.68,5,5,0,0,1,5.08,5.06Z"/><path class="a" d="M568.54,480.63a4.88,4.88,0,0,1-4.7,4.75,4.75,4.75,0,0,1,0-9.49,4.91,4.91,0,0,1,4.7,4.74Z"/><path class="a" d="M261.79,309.9a4.92,4.92,0,0,1,4.55,4.89,4.7,4.7,0,0,1-5.29,4.64,4.58,4.58,0,0,1-4.19-5.08,4.75,4.75,0,0,1,4.93-4.45Z"/><path class="a" d="M273.23,711.93a4.72,4.72,0,0,1-4.69,4.78,5,5,0,0,1-5-5.21,4.91,4.91,0,0,1,5.11-4.4,4.56,4.56,0,0,1,4.58,4.83Z"/><path class="a" d="M229.12,710.41a4.92,4.92,0,0,1-5,4.46,4.7,4.7,0,1,1,.48-9.38,4.85,4.85,0,0,1,4.52,4.92Z"/><path class="a" d="M285.74,254.23a4.54,4.54,0,0,1-4.21-5.09,4.681,4.681,0,1,1,9.32.88,4.57,4.57,0,0,1-5.11,4.21Z"/><path class="a" d="M629.75,487.85a4.686,4.686,0,1,1,4.74-4.74,4.85,4.85,0,0,1-4.74,4.74Z"/><path class="a" d="M586.37,476.92a4.77,4.77,0,0,1,4.07,5.32,4.592,4.592,0,0,1-9.06-1.5,5,5,0,0,1,4.99-3.82Z"/><path class="a" d="M157.64,266.83a4.85,4.85,0,0,1-5.12,4.36,4.62,4.62,0,0,1,1.06-9.17,4.89,4.89,0,0,1,4.06,4.81Z"/><path class="a" d="M175.08,262.76a5,5,0,0,1,4.72,4.8,4.67,4.67,0,1,1-4.72-4.8Z"/><path class="a" d="M225.53,225.14a4.73,4.73,0,0,1-4.85,4.51,4.9,4.9,0,0,1-4.8-4.63,4.83,4.83,0,0,1,5.21-4.77A4.68,4.68,0,0,1,225.53,225.14Z"/><path class="a" d="M358.54,653.86a4.64,4.64,0,1,1,4.285-2.043,4.64,4.64,0,0,1-4.285,2.043Z"/><path class="a" d="M282.45,342.44a4.79,4.79,0,0,1-4.28-5.13,4.66,4.66,0,1,1,9.291.73,4.79,4.79,0,0,1-5.011,4.4Z"/><path class="a" d="M291.71,227.7a4.5,4.5,0,0,1-4.9,4.4,4.64,4.64,0,1,1,.45-9.26,4.51,4.51,0,0,1,4.45,4.86Z"/><path class="a" d="M470,626.62a4.67,4.67,0,0,1,4.45,4.93,4.77,4.77,0,0,1-4.84,4.6,4.88,4.88,0,0,1-4.47-5,4.67,4.67,0,0,1,4.86-4.53Z"/><path class="a" d="M267.22,292.72a4.74,4.74,0,0,1-4.75,4.6,4.691,4.691,0,1,1,4.75-4.6Z"/><path class="a" d="M203.52,224.39a4.6,4.6,0,1,1-4.45-4.89,4.48,4.48,0,0,1,4.45,4.89Z"/><path class="a" d="M219,264.64a4.57,4.57,0,1,1-3.24,1.493A4.53,4.53,0,0,1,219,264.64Z"/><path class="a" d="M125.69,530.14a4.6,4.6,0,1,1-1.887-4.313A4.6,4.6,0,0,1,125.69,530.14Z"/><path class="a" d="M198.46,356a4.6,4.6,0,1,1-4.85-4.46,4.42,4.42,0,0,1,4.85,4.46Z"/><path class="a" d="M318.55,669.5a4.67,4.67,0,1,1-1.247-3.353,4.67,4.67,0,0,1,1.247,3.353Z"/><path class="a" d="M407.87,652.47a63.794,63.794,0,0,1-8.93,1.25c-2-2.61-1.29-4.65.39-6.47a4.83,4.83,0,0,1,5.69-1.09C407.58,647.41,408.56,649.39,407.87,652.47Z"/><path class="a" d="M675.66,551.29a4.7,4.7,0,0,1-4.57,4.11,4.57,4.57,0,0,1-4.27-5,4.5,4.5,0,0,1,4.52-4.09,4.57,4.57,0,0,1,4.32,4.98Z"/><path class="a" d="M540.33,634.28a4.518,4.518,0,0,1-9-.81,4.62,4.62,0,0,1,4.56-4.19,4.7,4.7,0,0,1,4.44,5Z"/><path class="a" d="M270.29,204.66a4.55,4.55,0,0,1-4.84,4.48,4.61,4.61,0,0,1-4.24-4.47,4.68,4.68,0,0,1,4.56-4.8,4.59,4.59,0,0,1,4.52,4.79Z"/><path class="a" d="M612.25,482.24a4.5,4.5,0,0,1-9,.18,4.61,4.61,0,0,1,4.7-4.7A4.69,4.69,0,0,1,612.25,482.24Z"/><path class="a" d="M285.68,267.09a4.61,4.61,0,1,1-4.76,4A4.66,4.66,0,0,1,285.68,267.09Z"/><path class="a" d="M174.73,284.81a4.431,4.431,0,1,1-4.845,3.975A4.431,4.431,0,0,1,174.73,284.81Z"/><path class="a" d="M240.43,296.17a4.58,4.58,0,0,1-4.68-4.58,4.68,4.68,0,0,1,4.41-4.27,4.49,4.49,0,0,1,4.63,4.61,4.42,4.42,0,0,1-4.36,4.24Z"/><path class="a" d="M197.42,378.38a4.44,4.44,0,0,1-4.42,4.31,4.55,4.55,0,0,1-4.41-5,4.33,4.33,0,0,1,4.75-3.9,4.2,4.2,0,0,1,4.08,4.59Z"/><path class="a" d="M669.16,599.18a4.48,4.48,0,0,1-4-4.63,4.19,4.19,0,0,1,5-4.06,4.31,4.31,0,0,1,3.7,4.8,4.6,4.6,0,0,1-4.7,3.89Z"/><path class="a" d="M200,312.52a4.47,4.47,0,0,1-4.55,4.18,4.58,4.58,0,0,1-4.27-5.1,4.35,4.35,0,0,1,4.87-3.75,4.21,4.21,0,0,1,3.95,4.67Z"/><path class="a" d="M176.94,333.36a4.46,4.46,0,0,1-4.11,4.53,4.71,4.71,0,0,1-4.69-4.64,4.6,4.6,0,0,1,4.5-4.19,4.37,4.37,0,0,1,4.3,4.3Z"/><path class="a" d="M199,334.63a4.34,4.34,0,0,1-4.62,4,4.46,4.46,0,0,1-4-4.67,4.38,4.38,0,0,1,4.67-4,4.22,4.22,0,0,1,3.95,4.67Z"/><path class="a" d="M199.33,206.36a4.38,4.38,0,0,1-4-4.68,4.78,4.78,0,0,1,4.58-4.25,4.61,4.61,0,0,1,4.24,5.13,4.26,4.26,0,0,1-4.82,3.8Z"/><path class="a" d="M55.83,615.77a4.31,4.31,0,0,1-4.7,3.83,4.16,4.16,0,0,1-4-4.5,4.49,4.49,0,0,1,5-4.21A4.59,4.59,0,0,1,55.83,615.77Z"/><path class="a" d="M98.25,555.3a4.39,4.39,0,0,1-4.53-4.08,4.73,4.73,0,0,1,4.64-4.69,4.61,4.61,0,0,1,4.15,4.5,4.19,4.19,0,0,1-4.26,4.27Z"/><path class="a" d="M244.07,199.22A4.48,4.48,0,0,1,248,203.9a4.19,4.19,0,0,1-5.06,4,4.34,4.34,0,0,1-3.67-4.82,4.73,4.73,0,0,1,4.8-3.86Z"/><path class="a" d="M292.31,205.33a4.29,4.29,0,0,1-4.24,4.34,4.17,4.17,0,0,1-4.51-4,4.51,4.51,0,0,1,4.49-4.79A4.71,4.71,0,0,1,292.31,205.33Z"/><path class="a" d="M385.17,650.32a4.27,4.27,0,0,1-4.55,4.06,4.46,4.46,0,0,1-4.12-4.56,4.56,4.56,0,0,1,4.62-4.1,4.34,4.34,0,0,1,4.05,4.6Z"/><path class="a" d="M171.84,350.92a4.27,4.27,0,0,1,4.12,4.4,4.15,4.15,0,0,1-4.29,4.18,4.45,4.45,0,0,1-4.23-4.35,4.56,4.56,0,0,1,4.4-4.23Z"/><path class="a" d="M307.17,382.53a4.41,4.41,0,0,1-4.38,4.27,4.71,4.71,0,0,1-4.29-4.47,4.51,4.51,0,0,1,4.5-4.18,4.11,4.11,0,0,1,4.17,4.38Z"/><path class="a" d="M272.54,138.82A4.09,4.09,0,0,1,268,142.7a4.35,4.35,0,0,1-4-4.5,4.67,4.67,0,0,1,4.62-4A4.46,4.46,0,0,1,272.54,138.82Z"/><path class="a" d="M676.41,528.68a4.55,4.55,0,0,1-4.26,4.46,4.42,4.42,0,0,1-4.38-4.28A4.11,4.11,0,0,1,672,524.5,4.32,4.32,0,0,1,676.41,528.68Z"/><path class="a" d="M677.2,506.85a4.25,4.25,0,0,1-4.22,4.28,4.07,4.07,0,0,1-4.33-4.1,4.41,4.41,0,0,1,4.16-4.4A4.55,4.55,0,0,1,677.2,506.85Z"/><path class="a" d="M221.68,313.25a4.54,4.54,0,0,1-4.66,4.09,4.27,4.27,0,0,1-3.8-4.8,4,4,0,0,1,4.19-3.71,4.38,4.38,0,0,1,4.27,4.42Z"/><path class="a" d="M432.57,449.28a4.34,4.34,0,0,1,4.44,4.23,4.6,4.6,0,0,1-4.47,4.29,4.33,4.33,0,0,1-4-4,4,4,0,0,1,4.03-4.52Z"/><path class="a" d="M131.93,248a4.6,4.6,0,0,1-4.16-4.47,4.4,4.4,0,0,1,4.46-4.09,4.21,4.21,0,0,1,4.11,4.38A4.53,4.53,0,0,1,131.93,248Z"/><path class="a" d="M520.55,461a4.44,4.44,0,0,1-4.26-4.39,4.37,4.37,0,0,1,4.11-3.89,4.16,4.16,0,0,1,4.2,3.72,4.25,4.25,0,0,1-4.05,4.56Z"/><path class="a" d="M290.71,694.81a4.44,4.44,0,0,1-4-4.62,4.72,4.72,0,0,1,4.73-4,4.36,4.36,0,0,1,3.87,4.73,4.06,4.06,0,0,1-4.6,3.89Z"/><path class="a" d="M159.87,200.69a4.27,4.27,0,0,1-4.83,3.74,3.94,3.94,0,0,1-3.63-4.25,4.4,4.4,0,0,1,4.45-4.21,4.59,4.59,0,0,1,4.01,4.72Z"/><path class="a" d="M652.14,479.86a4,4,0,0,1,4,4.55,4.12,4.12,0,0,1-4.1,3.84,4.41,4.41,0,0,1-4.37-4.3A4.29,4.29,0,0,1,652.14,479.86Z"/><path class="a" d="M181.94,201.11a4.09,4.09,0,0,1-4.26,4.26,4.36,4.36,0,0,1-4.38-4.25,4.73,4.73,0,0,1,4.36-4.4,4.48,4.48,0,0,1,4.28,4.39Z"/><path class="a" d="M133.17,217.3a4.37,4.37,0,0,1,3.94,4.65,4.25,4.25,0,0,1-4.11,3.83,4.46,4.46,0,0,1-4.33-4.31,4.56,4.56,0,0,1,4.5-4.17Z"/><path class="a" d="M349.56,428.22a4.38,4.38,0,0,1-4,3.88,4.29,4.29,0,0,1-4.17-4.33,4.111,4.111,0,0,1,8.21.45Z"/><path class="a" d="M498.37,460.25a4.23,4.23,0,0,1-3.76-4.72,3.94,3.94,0,0,1,4.12-3.68,4.27,4.27,0,0,1,4.18,4.35,4.5,4.5,0,0,1-4.54,4.05Z"/><path class="a" d="M283.76,311.5a4.3,4.3,0,0,1,4,4.48,4.5,4.5,0,0,1-4.21,3.69,4.28,4.28,0,0,1-4-3.9,4.16,4.16,0,0,1,4.21-4.27Z"/><path class="a" d="M200.45,290.13a4.034,4.034,0,0,1-8.06-.38A4.43,4.43,0,0,1,196.6,286a4.35,4.35,0,0,1,3.85,4.13Z"/><path class="a" d="M294.5,139.77a4.18,4.18,0,0,1-4.32,3.61,4.019,4.019,0,1,1,.78-8A4.16,4.16,0,0,1,294.5,139.77Z"/><path class="a" d="M672.75,617a4.09,4.09,0,0,1-4.12,3.77,3.939,3.939,0,1,1,4.12-3.77Z"/><path class="a" d="M273.23,116.77a4.16,4.16,0,0,1-3.81,4,4.31,4.31,0,0,1-4.4-4.09,4.38,4.38,0,0,1,3.86-4,4.17,4.17,0,0,1,4.35,4.09Z"/><path class="a" d="M184.25,135.48a3.82,3.82,0,0,1-4,3.72,4,4,0,0,1-4.08-4.37,4.18,4.18,0,0,1,4.1-3.81,4.13,4.13,0,0,1,3.98,4.46Z"/><path class="a" d="M312.75,229.07a4.19,4.19,0,0,1-4.53,3.32,4.14,4.14,0,0,1-3.22-5.14,4.19,4.19,0,0,1,4.13-3,4.14,4.14,0,0,1,3.62,4.82Z"/><path class="a" d="M79.2,571.92A4.07,4.07,0,0,1,75.41,576a4.16,4.16,0,0,1-4.14-3.759,4,4,0,1,1,7.93-.351Z"/><path class="a" d="M308.07,246.36a3.964,3.964,0,1,1-4.1,3.85A4,4,0,0,1,308.07,246.36Z"/><path class="a" d="M174.92,377.48a4,4,0,1,1-1.847-3.834A4,4,0,0,1,174.92,377.48Z"/><path class="a" d="M178.32,183.31a4,4,0,0,1,.43-7.95,4.06,4.06,0,0,1,3.72,4.19A4,4,0,0,1,178.32,183.31Z"/><path class="a" d="M245.57,155.77a4,4,0,1,1-4.08,3.68,4.1,4.1,0,0,1,4.08-3.68Z"/><path class="a" d="M291.64,113.63a4.13,4.13,0,0,1,3.52,4.32,3.94,3.94,0,1,1-7.841-.78,4.21,4.21,0,0,1,4.321-3.54Z"/><path class="a" d="M266.32,186.72a4.32,4.32,0,0,1-3.74-4.16,4.26,4.26,0,0,1,4-3.85,4,4,0,0,1-.3,8Z"/><path class="a" d="M670.47,569.14a3.91,3.91,0,0,1,3.79,4,4,4,0,0,1-4.06,3.76,4.1,4.1,0,0,1-3.8-4A3.93,3.93,0,0,1,670.47,569.14Z"/><path class="a" d="M601.73,640.34a4.11,4.11,0,0,1-3.85-4,3.931,3.931,0,0,1,7.86.16A4.06,4.06,0,0,1,601.73,640.34Z"/><path class="a" d="M302.18,408.52a4,4,0,1,1,3.895-4.105A4,4,0,0,1,302.18,408.52Z"/><path class="a" d="M494.85,654.44a3.85,3.85,0,0,1-4.05,3.71,4,4,0,0,1-3.52-4.26A3.89,3.89,0,0,1,491,650.5a3.82,3.82,0,0,1,3.85,3.94Z"/><path class="a" d="M161.9,134.57a3.78,3.78,0,0,1-4,3.62,3.9,3.9,0,0,1-3.61-4.11,3.77,3.77,0,0,1,4.09-3.56,3.66,3.66,0,0,1,3.52,4.05Z"/><path class="a" d="M177.35,311.36a3.83,3.83,0,0,1-3.91,3.82,3.72,3.72,0,0,1-3.8-3.9,3.88,3.88,0,0,1,3.87-3.89A4.07,4.07,0,0,1,177.35,311.36Z"/><path class="a" d="M222.42,184.88a3.86,3.86,0,0,1-3.89-3.85,4.06,4.06,0,0,1,3.85-3.95,3.93,3.93,0,0,1,3.85,3.9,3.76,3.76,0,0,1-3.81,3.9Z"/><path class="a" d="M173.93,399.89a3.8,3.8,0,0,1-4.28,3.34A3.69,3.69,0,0,1,166.3,399a3.73,3.73,0,0,1,4.25-3.35,3.82,3.82,0,0,1,3.38,4.24Z"/><path class="a" d="M246.11,141.52a3.77,3.77,0,0,1-3.62-4.08A3.58,3.58,0,0,1,246,134a3.77,3.77,0,0,1,4,3.71A3.91,3.91,0,0,1,246.11,141.52Z"/><path class="a" d="M554.12,634.29a3.82,3.82,0,0,1,4.4-3.24,3.58,3.58,0,0,1,3.13,3.87,3.79,3.79,0,0,1-4,3.64A4,4,0,0,1,554.12,634.29Z"/><path class="a" d="M458.35,454.48a3.82,3.82,0,0,1-4.19,3.55,3.72,3.72,0,0,1-3.47-3.64,4.08,4.08,0,0,1,3.86-4,4.19,4.19,0,0,1,3.8,4.09Z"/><path class="a" d="M480.36,455.36a3.69,3.69,0,0,1-4.17,3.5,3.88,3.88,0,0,1-3.49-3.66,4.18,4.18,0,0,1,3.95-3.95,4,4,0,0,1,3.71,4.11Z"/><path class="a" d="M184.92,113.72a3.87,3.87,0,0,1-4.24,3.47,3.76,3.76,0,0,1-3.41-4.25,3.9,3.9,0,0,1,4.19-3.52,4,4,0,0,1,3.46,4.3Z"/><path class="a" d="M150.37,336.34a3.73,3.73,0,0,1-3.66-4,3.85,3.85,0,0,1,4.22-3.49,3.68,3.68,0,0,1,3.31,3.75,3.59,3.59,0,0,1-3.87,3.74Z"/><path class="a" d="M225.29,203.23a3.81,3.81,0,0,1-4.25,3.42,4,4,0,0,1-3.24-4.48,3.76,3.76,0,0,1,4-3,3.58,3.58,0,0,1,3.49,4.06Z"/><path class="a" d="M267.32,156.92a4,4,0,0,1,4,3.87,4.09,4.09,0,0,1-3.64,3.58,3.79,3.79,0,0,1-3.88-3.86A3.68,3.68,0,0,1,267.32,156.92Z"/><path class="a" d="M130.84,269.5a3.78,3.78,0,0,1,.55-7.54,4,4,0,0,1,3.73,4.08,3.89,3.89,0,0,1-4.28,3.46Z"/><path class="a" d="M224.19,133.25a3.49,3.49,0,0,1,3.54,3.54,3.89,3.89,0,0,1-3.42,3.77,3.94,3.94,0,0,1-3.89-4,3.59,3.59,0,0,1,3.77-3.31Z"/><path class="a" d="M155.87,288.76a3.82,3.82,0,0,1-3.73,3.4,3.89,3.89,0,0,1-3.7-4.11,3.82,3.82,0,0,1,4.4-3.31,3.67,3.67,0,0,1,3.03,4.02Z"/><path class="a" d="M157.58,152.73a3.65,3.65,0,0,1,3.37,3.71,3.73,3.73,0,0,1-4,3.7,3.93,3.93,0,0,1-3.42-3.75,3.77,3.77,0,0,1,4.05-3.66Z"/><path class="a" d="M33.42,614.34a3.94,3.94,0,0,1-3.92,3.91,3.74,3.74,0,0,1-3.52-3.6,3.56,3.56,0,0,1,3.23-3.81,3.73,3.73,0,0,1,4.21,3.5Z"/><path class="a" d="M92.85,686.71a3.78,3.78,0,0,1-3.35-3.81,3.5,3.5,0,0,1,3.59-3.49,3.68,3.68,0,0,1,3.7,4,4,4,0,0,1-3.94,3.3Z"/><path class="a" d="M313.36,206.49a3.93,3.93,0,0,1-3.78,3.43,3.83,3.83,0,0,1-3.5-4.27,3.56,3.56,0,0,1,4-3,3.64,3.64,0,0,1,3.28,3.84Z"/><path class="a" d="M624,633.69a3.49,3.49,0,0,1,3.59,3.49A3.9,3.9,0,0,1,624.2,641a4,4,0,0,1-3.93-3.94A3.59,3.59,0,0,1,624,633.69Z"/><path class="a" d="M56.05,593.59a3.74,3.74,0,0,1-4.33,3.33,3.94,3.94,0,0,1-3.31-3.81,4,4,0,0,1,4.1-3.72,3.83,3.83,0,0,1,3.54,4.2Z"/><path class="a" d="M246.82,119.59a3.59,3.59,0,0,1-3.47-4.14A3.9,3.9,0,0,1,247,112a4.05,4.05,0,0,1,3.84,4,3.7,3.7,0,0,1-4.02,3.59Z"/><path class="a" d="M151.7,306.62a4,4,0,0,1,3.38,4.34,3.65,3.65,0,0,1-3.78,3.25,3.71,3.71,0,0,1-3.74-3.94,4,4,0,0,1,4.14-3.65Z"/><path class="a" d="M649.64,638.39a3.87,3.87,0,0,1-3.72,3.35,3.76,3.76,0,0,1-3.43-4.19,3.55,3.55,0,0,1,4-2.94,3.64,3.64,0,0,1,3.15,3.78Z"/><path class="a" d="M159.09,108.81a3.8,3.8,0,0,1,3.46,3.68,3.44,3.44,0,0,1-3.46,3.58,3.6,3.6,0,0,1-3.81-3.88,3.9,3.9,0,0,1,3.81-3.38Z"/><path class="a" d="M134.09,195.84a3.8,3.8,0,0,1,3.5,3.61,4,4,0,0,1-4.05,3.78,3.85,3.85,0,0,1-3.38-4.32A3.59,3.59,0,0,1,134.09,195.84Z"/><path class="a" d="M206.85,114.39a3.65,3.65,0,0,1-3.71,3.35,3.4,3.4,0,0,1-3.55-3.45,3.68,3.68,0,0,1,3.94-3.76,3.93,3.93,0,0,1,3.32,3.86Z"/><path class="a" d="M692.52,570.28a3.48,3.48,0,0,1,3.5,3.45,3.86,3.86,0,0,1-3.36,3.72,3.91,3.91,0,0,1-3.83-3.88,3.6,3.6,0,0,1,3.69-3.29Z"/><path class="a" d="M288.94,179.88a3.7,3.7,0,0,1,3.33,3.75,3.39,3.39,0,0,1-3.5,3.5,3.62,3.62,0,0,1-3.71-4A3.92,3.92,0,0,1,288.94,179.88Z"/><path class="a" d="M122.2,504a3.94,3.94,0,0,1,3.46,3.71,3.68,3.68,0,0,1-4.15,3.52,3.43,3.43,0,0,1-3.06-3.9A3.7,3.7,0,0,1,122.2,504Z"/><path class="a" d="M205.91,136.09a3.81,3.81,0,0,1-3.66,3.52,3.51,3.51,0,0,1-3.41-3.67,3.36,3.36,0,0,1,3.56-3.46A3.63,3.63,0,0,1,205.91,136.09Z"/><path class="a" d="M185.57,91.55a3.74,3.74,0,0,1-3.78,3.34,3.63,3.63,0,0,1-3.47-4.21,3.55,3.55,0,0,1,4-3,3.59,3.59,0,0,1,3.25,3.87Z"/><path class="a" d="M139.91,133.55a3.79,3.79,0,0,1-3.65,3.53,3.53,3.53,0,0,1-3.42-3.66A3.37,3.37,0,0,1,136.4,130a3.62,3.62,0,0,1,3.51,3.55Z"/><path class="a" d="M50.85,633.87a3.4,3.4,0,0,1,3.28,3.69,3.52,3.52,0,0,1-3.54,3.49A3.82,3.82,0,0,1,46.9,637,3.76,3.76,0,0,1,50.85,633.87Z"/><path class="a" d="M201.52,161.72a3.49,3.49,0,0,1-3.59-3.42,3.41,3.41,0,0,1,3.23-3.75,3.68,3.68,0,0,1,4,3.69,3.74,3.74,0,0,1-3.64,3.48Z"/><path class="a" d="M118.07,705.93a3.82,3.82,0,0,1-3.5,3.64,3.53,3.53,0,0,1-3.74-3.25,3.44,3.44,0,0,1,3.68-3.91,3.66,3.66,0,0,1,3.56,3.52Z"/><path class="a" d="M179.33,153.69a3.605,3.605,0,1,1-.25,7.2,3.66,3.66,0,0,1-3.36-3.72,3.49,3.49,0,0,1,3.61-3.48Z"/><path class="a" d="M288.07,293.38a3.64,3.64,0,0,1-3.32,3.74,3.82,3.82,0,0,1-3.92-3.84,3.62,3.62,0,0,1,3.69-3.35,3.41,3.41,0,0,1,3.55,3.45Z"/><path class="a" d="M159.91,178.45a3.41,3.41,0,0,1-3.42,3.49,3.59,3.59,0,0,1-3.63-3.35,3.68,3.68,0,0,1,3.48-3.55,3.55,3.55,0,0,1,3.57,3.41Z"/><path class="a" d="M289.83,157.93a3.41,3.41,0,0,1,3.28,3.7,3.53,3.53,0,0,1-3.54,3.49,3.82,3.82,0,0,1-3.69-4.07,3.77,3.77,0,0,1,3.95-3.12Z"/><path class="a" d="M327,427.5a3.75,3.75,0,0,1-3.82,3.27,3.56,3.56,0,0,1-3.34-4.24,3.44,3.44,0,0,1,4-2.89A3.59,3.59,0,0,1,327,427.5Z"/><path class="a" d="M152.31,376.76a3.38,3.38,0,0,1-3.75,3.14,3.49,3.49,0,0,1-3.26-3.66,3.64,3.64,0,0,1,3.78-3.21,3.58,3.58,0,0,1,3.23,3.73Z"/><path class="a" d="M307.46,360.4a3.76,3.76,0,0,1-3.6,3.54,3.64,3.64,0,0,1-3.69-4,3.54,3.54,0,0,1,3.85-3.17,3.62,3.62,0,0,1,3.44,3.63Z"/><path class="a" d="M244.32,185.3a3.35,3.35,0,0,1-3.28-3.61,3.51,3.51,0,0,1,3.69-3.26,3.64,3.64,0,0,1,3.32,3.68,3.49,3.49,0,0,1-3.73,3.19Z"/><path class="a" d="M697.63,529.53a3.4,3.4,0,0,1-3.42,3.49,3.58,3.58,0,0,1-3.62-3.35,3.68,3.68,0,0,1,3.48-3.54,3.53,3.53,0,0,1,3.56,3.4Z"/><path class="a" d="M153.25,354.81a3.6,3.6,0,0,1-3.84,3.21A3.73,3.73,0,0,1,146,353.7a3.81,3.81,0,0,1,4.17-2.86,3.55,3.55,0,0,1,3.08,3.97Z"/><path class="a" d="M324.48,401.68a3.86,3.86,0,0,1,3.38,3.8A3.77,3.77,0,0,1,323.6,409a3.67,3.67,0,0,1,.88-7.28Z"/><path class="a" d="M192.06,403.92a3.49,3.49,0,0,1-3.43-3.62,3.68,3.68,0,0,1,3.4-3.71,3.87,3.87,0,0,1,3.84,4A3.83,3.83,0,0,1,192.06,403.92Z"/><path class="a" d="M516.47,655a3.58,3.58,0,0,1-3.4,3.67,3.5,3.5,0,0,1-.36-7,3.58,3.58,0,0,1,3.76,3.33Z"/><path class="a" d="M315.68,140.12a3.46,3.46,0,0,1-6.9.47,3.59,3.59,0,0,1,3.19-3.81,3.69,3.69,0,0,1,3.71,3.34Z"/><path class="a" d="M468.55,656.93a3.49,3.49,0,1,1,3.88-3.05,3.49,3.49,0,0,1-3.88,3.05Z"/><path class="a" d="M273.59,94.52a3.55,3.55,0,0,1-3.46,3.61,3.29,3.29,0,0,1-3.6-3.36,3.34,3.34,0,0,1,3.37-3.61,3.57,3.57,0,0,1,3.69,3.36Z"/><path class="a" d="M248.31,90.43a3.43,3.43,0,0,1,3.07,3.91,3.56,3.56,0,0,1-4.18,2.77,3.46,3.46,0,0,1-2.79-3.58,3.41,3.41,0,0,1,3.9-3.1Z"/><path class="a" d="M70.8,685.43a3.44,3.44,0,0,1-3.14-3.21,3.37,3.37,0,1,1,3.14,3.21Z"/><path class="a" d="M673.61,488.32a3.52,3.52,0,0,1-3.17-3.75,3.313,3.313,0,0,1,6.62.26,3.52,3.52,0,0,1-3.45,3.49Z"/><path class="a" d="M75.29,659.92a3.58,3.58,0,0,1-3.45,3.59,3.65,3.65,0,0,1-3.42-3.63,3.82,3.82,0,0,1,3.16-3.3A3.7,3.7,0,0,1,75.29,659.92Z"/><path class="a" d="M49.59,655.75a3.41,3.41,0,0,1,3.5,3.42,3.53,3.53,0,0,1-3.44,3.5,3.6,3.6,0,0,1-3.21-3.13,3.56,3.56,0,0,1,3.15-3.79Z"/><path class="a" d="M32.3,637a3.62,3.62,0,0,1-4.09,2.92,3.53,3.53,0,0,1-2.91-3.51,3.45,3.45,0,0,1,3.8-3.22A3.4,3.4,0,0,1,32.3,637Z"/><path class="a" d="M546,457.67a3.27,3.27,0,0,1-3.55,3.43,3.43,3.43,0,1,1,3.55-3.43Z"/><path class="a" d="M314.77,162.75a3.445,3.445,0,1,1-3.12-3.73,3.3,3.3,0,0,1,3.12,3.73Z"/><path class="a" d="M163.22,90.68a3.38,3.38,0,0,1-3.86,3,3.3,3.3,0,0,1,.57-6.57,3.34,3.34,0,0,1,3.29,3.57Z"/><path class="a" d="M713.42,599.79a3.41,3.41,0,0,1-3.09-3.77,3.48,3.48,0,0,1,4-2.86,3.63,3.63,0,0,1,2.86,3.44A3.57,3.57,0,0,1,713.42,599.79Z"/><path class="a" d="M694.05,617.65A3.59,3.59,0,0,1,691,621a3.54,3.54,0,0,1-3.43-2.93,3.35,3.35,0,0,1,3.33-3.6A3.48,3.48,0,0,1,694.05,617.65Z"/><path class="a" d="M172.48,421.94a3.29,3.29,0,0,1-4.25,2.36,3.23,3.23,0,0,1-2.25-3.79,3.33,3.33,0,0,1,6.5,1.43Z"/><path class="a" d="M307.3,269.28a3.34,3.34,0,0,1,3,3.27,3.39,3.39,0,0,1-3.1,3.24,3.47,3.47,0,0,1-3.38-3.61A3.52,3.52,0,0,1,307.3,269.28Z"/><path class="a" d="M307.8,338.89a3.26,3.26,0,1,1-6.42-1,3.6,3.6,0,0,1,3.73-2.55A3.4,3.4,0,0,1,307.8,338.89Z"/><path class="a" d="M131.85,331.73A3.17,3.17,0,0,1,128.9,335a3.27,3.27,0,0,1-3.38-3.51,3.4,3.4,0,0,1,3.3-3A3.17,3.17,0,0,1,131.85,331.73Z"/><path class="a" d="M367.09,432a3.22,3.22,0,1,1,3.44-2.77,3.22,3.22,0,0,1-3.44,2.77Z"/><path class="a" d="M313,121.66a3.41,3.41,0,0,1-3.21-3.1,3.25,3.25,0,1,1,6.49.07,3.37,3.37,0,0,1-3.28,3.03Z"/><path class="a" d="M295.43,95.72a3.26,3.26,0,0,1-3.87,3,3.19,3.19,0,0,1-2.76-3.48,3.324,3.324,0,0,1,6.63.49Z"/><path class="a" d="M225.18,111.93a3.31,3.31,0,0,1,3,3.21,3.46,3.46,0,0,1-3.79,3.12,3.36,3.36,0,0,1-2.67-3.57,3.13,3.13,0,0,1,3.46-2.76Z"/><path class="a" d="M667.39,642.05a3.06,3.06,0,0,1-2.71-3.43,3.39,3.39,0,0,1,3.3-3,3.47,3.47,0,0,1,3,3.88,3.19,3.19,0,0,1-3.59,2.55Z"/><path class="a" d="M203.67,180.09a3.12,3.12,0,0,1-2.93,3.26,3.27,3.27,0,0,1-3.24-3,3.06,3.06,0,0,1,3-3.19,3,3,0,0,1,3.17,2.93Z"/><path class="a" d="M534.8,652.82a3.16,3.16,0,1,1-2.94,3.2A3.16,3.16,0,0,1,534.8,652.82Z"/><path class="a" d="M130,290.73a3.18,3.18,0,0,1-2.9-3.39,3.22,3.22,0,0,1,3.92-2.95,3.14,3.14,0,0,1,2.51,3.68,3,3,0,0,1-3.53,2.66Z"/><path class="a" d="M137.74,177.45a3.19,3.19,0,0,1-2.73,3.42,3.25,3.25,0,0,1-3.6-3.21,3.14,3.14,0,0,1,3.09-3.09,3,3,0,0,1,3.24,2.88Z"/><path class="a" d="M137.15,115a3.171,3.171,0,1,1,3.23-3.1,3.27,3.27,0,0,1-3.23,3.1Z"/><path class="a" d="M334,229.52a3,3,0,0,1-3.35,2.76,3.17,3.17,0,0,1-3-3.22,3.21,3.21,0,0,1,3.72-3,3.07,3.07,0,0,1,2.63,3.46Z"/><path class="a" d="M352.89,232.89a3,3,0,0,1-2.7-2.88,3.13,3.13,0,0,1,2.69-2.89,3.09,3.09,0,0,1,3,3.18,3.23,3.23,0,0,1-2.99,2.59Z"/><path class="a" d="M735.94,594.39a2.9,2.9,0,0,1,2.78,2.74,3.13,3.13,0,0,1-3.05,3.16,3.25,3.25,0,0,1-2.79-3.44A3.08,3.08,0,0,1,735.94,594.39Z"/><path class="a" d="M691.44,598.74a3.2,3.2,0,0,1-2.86-3.33,2.94,2.94,0,0,1,3.27-2.83,3.21,3.21,0,0,1,2.94,3.24A3.43,3.43,0,0,1,691.44,598.74Z"/><path class="a" d="M109.9,239.81a2.89,2.89,0,0,1,3.13,3,3.2,3.2,0,0,1-3,3.19,3.37,3.37,0,0,1-3.19-3.08A3.1,3.1,0,0,1,109.9,239.81Z"/><path class="a" d="M371.1,407.4a3.17,3.17,0,0,1-3.41,2.75,3.41,3.41,0,0,1-2.79-3.46,3.2,3.2,0,0,1,3.49-2.7,3,3,0,0,1,2.71,3.41Z"/><path class="a" d="M583.25,635.6a3.18,3.18,0,0,1-3.14,3.1,3.3,3.3,0,0,1-3.33-2.91,3.24,3.24,0,1,1,6.47-.19Z"/><path class="a" d="M605.7,459.84a2.91,2.91,0,0,1,3-2.52,3,3,0,0,1,2.84,3.3,3.34,3.34,0,0,1-3,2.61A3.13,3.13,0,0,1,605.7,459.84Z"/><path class="a" d="M130.81,353.68a3,3,0,0,1-2.76,2.81,3.15,3.15,0,0,1-3.18-3.07,3.24,3.24,0,0,1,3.44-2.82A3.18,3.18,0,0,1,130.81,353.68Z"/><path class="a" d="M389.58,426.56a3.08,3.08,0,0,1,2.8,3.36,3,3,0,0,1-3.33,2.82,3.15,3.15,0,0,1-2.85-3.34A3.22,3.22,0,0,1,389.58,426.56Z"/><path class="a" d="M741.25,531.11a3.11,3.11,0,0,1-3,3.18,3.33,3.33,0,0,1-2.84-2.81,3,3,0,0,1,3.06-3.09,2.91,2.91,0,0,1,2.78,2.72Z"/><path class="a" d="M316.78,96.73a2.86,2.86,0,0,1-3.49,2.52,3.044,3.044,0,1,1,3.49-2.52Z"/><path class="a" d="M222.86,92.7a3,3,0,1,1,.752,2.219A3,3,0,0,1,222.86,92.7Z"/><path class="a" d="M207,92.4a3,3,0,0,1-3.44,2.67,3.16,3.16,0,0,1-2.6-3A3.26,3.26,0,0,1,204.14,89,3.1,3.1,0,0,1,207,92.4Z"/><path class="a" d="M141,90a2.94,2.94,0,0,1-3.54,2.51,3.18,3.18,0,0,1-2.49-3.08,3.26,3.26,0,0,1,3.35-2.91A3,3,0,0,1,141,90Z"/><path class="a" d="M378.85,209.06a3.15,3.15,0,0,1-3.39,2.8,3.28,3.28,0,0,1-3.06-3.21,3.47,3.47,0,0,1,3.77-3.17,3.42,3.42,0,0,1,2.68,3.58Z"/><path class="a" d="M357,207.88a3.09,3.09,0,0,1-3.21,3,2.87,2.87,0,0,1-2.83-2.66,3,3,0,0,1,2.82-3.34,3.31,3.31,0,0,1,3.22,3Z"/><path class="a" d="M135.13,158.56a3,3,0,0,1-2.67-3.48,3.13,3.13,0,0,1,3.64-2.5,3.09,3.09,0,0,1,2.37,3.16,3,3,0,0,1-3.34,2.82Z"/><path class="a" d="M111,217.67a3,3,0,0,1,2.71,3.4,2.87,2.87,0,0,1-2.84,2.65,3.16,3.16,0,0,1-3.14-3.07A3.27,3.27,0,0,1,111,217.67Z"/><path class="a" d="M328,383.45a3.16,3.16,0,0,1-3.32,2.86A3.22,3.22,0,0,1,322,382.8a3.1,3.1,0,0,1,3-2.51,3,3,0,0,1,3,3.16Z"/><path class="a" d="M715.85,549.67a2.8,2.8,0,0,1,2.38,3.52,3,3,0,0,1-3,2.37,3.14,3.14,0,0,1-2.82-3.33,3,3,0,0,1,3.44-2.56Z"/><path class="a" d="M720,509a2.7,2.7,0,0,1-2.81,2.59,3,3,0,0,1-3.14-3,3.32,3.32,0,0,1,3.23-3A3.08,3.08,0,0,1,720,509Z"/><path class="a" d="M694.75,504.89a3.06,3.06,0,0,1,3.17,3,2.88,2.88,0,0,1-2.69,2.75,2.71,2.71,0,0,1-3.06-2.28,3,3,0,0,1,2.58-3.47Z"/><path class="a" d="M421.52,651.61c0-2.6,1.51-3.53,3.45-3.68A4.56,4.56,0,0,1,427.7,649c.53.39.68,1.28,1.14,2.24C426.2,652.63,423.94,652.21,421.52,651.61Z"/><path class="a" d="M132.4,309.55a3,3,0,0,1-2.58,2.93,2.83,2.83,0,1,1-.2-5.65A2.9,2.9,0,0,1,132.4,309.55Z"/><path class="a" d="M332.92,251.53a3.16,3.16,0,0,1-3,2.61,3.27,3.27,0,0,1-2.76-2.87,2.92,2.92,0,0,1,3.32-2.79A2.85,2.85,0,0,1,332.92,251.53Z"/><path class="a" d="M716.35,527.56a2.75,2.75,0,0,1,2.72,2.7,3,3,0,0,1-3,3.17,3.12,3.12,0,0,1-2.75-3.4A2.94,2.94,0,0,1,716.35,527.56Z"/><path class="a" d="M310.36,187.4a3.09,3.09,0,0,1-2.71-3.42,2.91,2.91,0,0,1,3-2.45,2.78,2.78,0,0,1,2.66,3.34A3,3,0,0,1,310.36,187.4Z"/><path class="a" d="M332.7,188.11a3.1,3.1,0,0,1-2.94-2.63,2.93,2.93,0,0,1,3.07-3,2.9,2.9,0,0,1,2.64,2.88,3.07,3.07,0,0,1-2.77,2.75Z"/><path class="a" d="M737.84,619.77a2.967,2.967,0,1,1-2.21-3.12,2.7,2.7,0,0,1,2.21,3.12Z"/><path class="a" d="M567.46,458.51a2.92,2.92,0,0,1-2.62,2.86,2.82,2.82,0,0,1-2.89-3.12,2.73,2.73,0,0,1,2.87-2.54A2.83,2.83,0,0,1,567.46,458.51Z"/><path class="a" d="M800.29,646.78a2.87,2.87,0,0,1-3-2.41,2.94,2.94,0,0,1,3-3.15A3,3,0,0,1,803,644a2.78,2.78,0,0,1-2.71,2.78Z"/><path class="a" d="M226.07,158.94a2.93,2.93,0,0,1-2.67,2.85,2.78,2.78,0,0,1-2.87-2.55,3,3,0,0,1,2.88-3.21,3.16,3.16,0,0,1,2.66,2.91Z"/><path class="a" d="M148.89,442.78a2.63,2.63,0,1,1-2.29-3,2.74,2.74,0,0,1,2.29,3Z"/><path class="a" d="M273.6,72.33a2.78,2.78,0,0,1-2.51,2.88,2.73,2.73,0,0,1-3-2.4A2.68,2.68,0,0,1,270.62,70a2.77,2.77,0,0,1,2.98,2.33Z"/><path class="a" d="M349.73,384a2.64,2.64,0,0,1-2.69,2.67,2.539,2.539,0,1,1,2.69-2.67Z"/><path class="a" d="M334.27,143.76a2.66,2.66,0,1,1,2.71-2.61A2.66,2.66,0,0,1,334.27,143.76Z"/><path class="a" d="M633.27,461.36a2.64,2.64,0,1,1-.962-2.569A2.634,2.634,0,0,1,633.27,461.36Z"/><path class="a" d="M55.74,571a2.63,2.63,0,0,1-2.69,2.66,2.58,2.58,0,0,1-2.53-2.21,2.79,2.79,0,0,1,2.37-3A2.76,2.76,0,0,1,55.74,571Z"/><path class="a" d="M220.27,732.32a2.84,2.84,0,0,1,2.57-3.44,5.23,5.23,0,0,1,3.14,1.21c.82.57.38,2.19-.54,2.51C223.94,733.12,223.89,733.11,220.27,732.32Z"/><path class="a" d="M240.35,729.65c2.84-3.94,3-4,8.39-2.7C246.29,729.41,243.29,729.25,240.35,729.65Z"/><path class="a" d="M175.86,729.83c3-3.82,4.67-4.07,6.6-1.47a2,2,0,0,1,.26,1.69,1.72,1.72,0,0,1-1.4.84C179.72,730.7,178.14,730.3,175.86,729.83Z"/><path class="a" d="M414.09,430.63a3,3,0,0,1-2.92,2.55,2.84,2.84,0,0,1-2.36-3,2.71,2.71,0,0,1,2.55-2.23A2.85,2.85,0,0,1,414.09,430.63Z"/><path class="a" d="M308.88,294.12a2.57,2.57,0,1,1-5.12.09,3,3,0,0,1,2.22-2.53,2.79,2.79,0,0,1,2.9,2.44Z"/><path class="a" d="M109.14,267.58a2.67,2.67,0,1,1,2.448-1.283,2.67,2.67,0,0,1-2.448,1.283Z"/><path class="a" d="M331.88,204.54a2.57,2.57,0,1,1-.47,5.1,2.53,2.53,0,0,1-2.19-2.49,2.56,2.56,0,0,1,2.66-2.61Z"/><path class="a" d="M739.3,575.47a2.77,2.77,0,0,1-2.72,2.66,2.74,2.74,0,0,1-2.51-2.84,2.54,2.54,0,0,1,2.38-2.27,2.63,2.63,0,0,1,2.85,2.45Z"/><path class="a" d="M715.57,618.88a2.71,2.71,0,1,1-2.35-3,2.62,2.62,0,0,1,2.35,3Z"/><path class="a" d="M559.62,656.93a2.57,2.57,0,1,1-5.1-.47,2.54,2.54,0,0,1,2.48-2.2,2.62,2.62,0,0,1,2.62,2.67Z"/><path class="a" d="M94.88,705.22A2.84,2.84,0,0,1,92,707.73a2.68,2.68,0,0,1-2.23-3,2.64,2.64,0,0,1,2.46-2.2A2.77,2.77,0,0,1,94.88,705.22Z"/><path class="a" d="M185,.57a2.63,2.63,0,1,1,.22,5.25,2.56,2.56,0,0,1-2.54-2.21A2.61,2.61,0,0,1,185,.57Z"/><path class="a" d="M655.39,462a2.59,2.59,0,0,1-2.88,2.4,2.38,2.38,0,0,1-2.22-2.38,2.63,2.63,0,0,1,2.51-2.79,2.73,2.73,0,0,1,2.59,2.77Z"/><path class="a" d="M693.23,554.18a2.47,2.47,0,0,1-2.47-2.86,2.52,2.52,0,0,1,2.58-2.15,2.46,2.46,0,0,1,2.43,2.88,2.36,2.36,0,0,1-2.54,2.13Z"/><path class="a" d="M149.48,421.27c-.61.39-1.48,1.36-2.49,1.52-1.47.23-2.65-1.51-2.28-3a2.63,2.63,0,0,1,2.84-1.86C148.73,418.13,149.72,419.46,149.48,421.27Z"/><path class="a" d="M111.5,201.27a2.62,2.62,0,1,1,1.962-.683,2.62,2.62,0,0,1-1.962.683Z"/><path class="a" d="M693.27,485.78a2.52,2.52,0,0,1,2.76-2.6,2.38,2.38,0,0,1,2.28,2.42,2.47,2.47,0,0,1-2.1,2.61,2.59,2.59,0,0,1-2.94-2.43Z"/><path class="a" d="M185.38,69.11a2.61,2.61,0,0,1-2.71,2.7,2.53,2.53,0,0,1-2.48-2.87,2.48,2.48,0,0,1,2.35-2.37,2.6,2.6,0,0,1,2.84,2.54Z"/><path class="a" d="M160.92,71c-2.07-.3-3.12-1.78-2.81-3.21a2.62,2.62,0,0,1,2.8-1.9c1.51.12,2.74,1.68,2.09,3.05C162.56,69.83,161.46,70.45,160.92,71Z"/><path class="a" d="M251.37,71.42c-.32,2.1-1.8,3.17-3.2,2.84a2.71,2.71,0,0,1-1.89-2.83,2.29,2.29,0,0,1,3-2.09C250.25,69.77,250.86,70.88,251.37,71.42Z"/><path class="a" d="M760,597.62c0,1.91-1,2.87-2.37,2.85a2.44,2.44,0,0,1-2.47-2.22c0-1.48,1.45-3.06,2.72-2.57C758.82,596.05,759.49,597.14,760,597.62Z"/><path class="a" d="M712.73,643.09a2.62,2.62,0,0,1-3.09-2.13,2.39,2.39,0,0,1,2-2.68c1.55-.21,3.18,1,2.81,2.4A7.572,7.572,0,0,1,712.73,643.09Z"/><path class="a" d="M739.81,507.18c.45.51,1.51,1.24,1.81,2.21.42,1.3-1.25,2.71-2.7,2.58a2.46,2.46,0,0,1-2.09-2.58C736.86,508.07,737.89,507.1,739.81,507.18Z"/><path class="a" d="M344,405.37a7.781,7.781,0,0,1,2.52-1.46c1.16-.23,2.11,1.2,2,2.54a2.16,2.16,0,0,1-2.51,2.06,2.57,2.57,0,0,1-2.01-3.14Z"/><path class="a" d="M376.38,189.28a2.22,2.22,0,0,1-2.25-2.35,2.43,2.43,0,1,1,4.83.28,2.38,2.38,0,0,1-2.58,2.07Z"/><path class="a" d="M116.67,133.24a7.49,7.49,0,0,1-2.3,1.8c-1.35.44-2.64-1.1-2.53-2.69a2.28,2.28,0,0,1,2.54-2.08C115.79,130.39,116.73,131.36,116.67,133.24Z"/><path class="a" d="M589.24,459.62a2.38,2.38,0,0,1-2.55,2.1,2.23,2.23,0,0,1-2.28-2.33,2.43,2.43,0,1,1,4.83.23Z"/><path class="a" d="M307.78,315.75c.12,1.8-.9,2.84-2.25,2.9a2.2,2.2,0,0,1-2.38-2.2c0-1.27,1.15-2.66,2.23-2.35a8.11,8.11,0,0,1,2.4,1.65Z"/><path class="a" d="M115,107.69c1,1.34,2,2.11,2.34,3.09s-.87,2.24-2.23,2.28-2.63-1-2.29-2.18C113.12,109.89,114,109.08,115,107.69Z"/><path class="a" d="M739.84,552.75a2.57,2.57,0,0,1-2.25,3,2.17,2.17,0,0,1-2.33-2.27c0-1.34,1-2.68,2.19-2.35a8.4,8.4,0,0,1,2.39,1.62Z"/><path class="a" d="M226.47,73.33a2.45,2.45,0,1,1,.62-4.84A2.32,2.32,0,0,1,229,71.17a2.49,2.49,0,0,1-2.53,2.16Z"/><path class="a" d="M150.34,397.88c.08,1.94-.85,3-2.12,3.15a2.7,2.7,0,0,1-2.72-2c-.24-1.44,1.05-3.08,2.5-2.77C149,396.43,149.77,397.45,150.34,397.88Z"/><path class="a" d="M295.29,73.63a2.37,2.37,0,0,1-2.45,2.23,2.7,2.7,0,0,1-2.39-3A2.73,2.73,0,0,1,293.3,71a2.28,2.28,0,0,1,1.99,2.63Z"/><path class="a" d="M102.16,529.43c-1.44.8-2.36,1.67-3.39,1.8-1.47.2-2.48-1.53-2-3,.35-1.24,1.82-2.25,2.84-1.65S101.08,528.17,102.16,529.43Z"/><path class="a" d="M331.4,273.48a2.17,2.17,0,0,1-2.42,2.11,2.06,2.06,0,0,1-1.87-2,2.24,2.24,0,0,1,2.1-2.47,2.28,2.28,0,0,1,2.19,2.36Z"/><path class="a" d="M762.35,532.27a2.12,2.12,0,0,1-2.5,2,2.19,2.19,0,0,1-2-2,2.29,2.29,0,0,1,2.26-2.34,2.25,2.25,0,0,1,2.24,2.34Z"/><path class="a" d="M338.28,670.47a2.17,2.17,0,0,1-2.58,1.92,2.253,2.253,0,1,1,2.58-1.92Z"/><path class="a" d="M742.21,487.25a2.25,2.25,0,0,1-2.17,2.38,2,2,0,0,1-2.1-1.79,2.18,2.18,0,1,1,4.27-.59Z"/><path class="a" d="M392.31,407.22c.1,1.83-1,2.93-2.2,2.9a2,2,0,0,1-2.05-1.85c-.26-1.22.79-2.82,1.86-2.59a7.36,7.36,0,0,1,2.39,1.54Z"/><path class="a" d="M110.57,287.59a8,8,0,0,1-2.56,1.33c-1.19.19-2.11-1.18-2-2.49a2.21,2.21,0,0,1,2.58-1.93C110,284.69,110.85,285.76,110.57,287.59Z"/><path class="a" d="M314.3,77.23c-.78-1.55-1.63-2.51-1.67-3.51s.95-1.72,2.14-1.7,2.6,1.32,2.15,2.35S315.49,76,314.3,77.23Z"/><path class="a" d="M354.44,251.71c-.09,1.93-1.14,2.77-2.5,2.6a2.27,2.27,0,0,1-2.08-2.45c.17-1.21,1.49-2.46,2.51-2a7.831,7.831,0,0,1,2.07,1.85Z"/><path class="a" d="M162.39,726.94a18.1,18.1,0,0,1-7.87-1.71C158.09,722.87,158.6,723,162.39,726.94Z"/><path class="a" d="M714.5,572.37a2.38,2.38,0,0,1,2.44,2.23,2.57,2.57,0,0,1-2.31,2.43,2.45,2.45,0,0,1-2.38-2.3,2.22,2.22,0,0,1,2.25-2.36Z"/><path class="a" d="M112.33,174.61a2.43,2.43,0,0,1,2.44,2.18,2.2,2.2,0,0,1-2.36,2.17,2.09,2.09,0,0,1-2.1-1.8,2.38,2.38,0,0,1,2.02-2.55Z"/><path class="a" d="M89.75,264.45c-1.34.72-2.12,1.41-3,1.53s-1.87-1.26-1.63-2.18c.3-1.11,1.12-1.95,2.22-1.6C88.15,262.46,88.71,263.42,89.75,264.45Z"/><path class="a" d="M76.42,548.06c1.2.21,2.26,1.71,1.63,2.67a3.28,3.28,0,0,1-2.31,1.38,1.87,1.87,0,0,1-1.79-2,2.19,2.19,0,0,1,2.47-2.05Z"/><path class="a" d="M249.74,46.93c.8,1.27,1.54,2,1.71,2.84s-1.1,2-2,1.78-2-.95-1.74-2.09C247.86,48.67,248.78,48.05,249.74,46.93Z"/><path class="a" d="M758.93,619.51c.13,1.83-.94,3-2.2,3a2.27,2.27,0,0,1-2.19-1.82c-.34-1.06.82-2.8,1.92-2.61a7,7,0,0,1,2.47,1.43Z"/><path class="a" d="M138,69.63A8.23,8.23,0,0,1,136.79,67c-.13-1.15,1.47-2,2.66-1.66A2.07,2.07,0,0,1,141,67.59a2.4,2.4,0,0,1-3,2.04Z"/><path class="a" d="M720.74,486.92c-1.43.75-2.37,1.6-3.33,1.62-.52,0-1.37-1.37-1.5-2.21a2,2,0,0,1,2.5-1.84,13.11,13.11,0,0,1,2.33,2.43Z"/><path class="a" d="M358.57,142.38a7.151,7.151,0,0,1-2.24,1.68c-1.1.32-2.2-1.11-2.07-2.38a2,2,0,0,1,1.9-2C357.45,139.55,358.56,140.53,358.57,142.38Z"/><path class="a" d="M756.47,554.35a12.493,12.493,0,0,1,2.53-2.2,2,2,0,0,1,2.33,2c-.2.83-1.18,2.12-1.69,2.07C758.69,556.16,757.82,555.23,756.47,554.35Z"/><path class="a" d="M106.26,333.13a7.149,7.149,0,0,1-1.66-1.74c-.5-1,.71-2.76,1.79-2.55a3.72,3.72,0,0,1,2.22,1.65C109.18,331.46,108,332.92,106.26,333.13Z"/><path class="a" d="M29.93,594.8c-.39-.43-1.4-1.06-1.5-1.8A3.16,3.16,0,0,1,31,590.07a2.08,2.08,0,0,1,2,2C33.23,593.54,32,594.75,29.93,594.8Z"/><path class="a" d="M87.93,244.68c-.91-1.08-1.74-1.7-2-2.51-.41-1.11,1-2.34,2.27-2.14s2,1,1.77,2.07C89.76,242.91,88.85,243.55,87.93,244.68Z"/><path class="a" d="M118.15,88.92a2.36,2.36,0,0,1-2.75,1.85,2.08,2.08,0,0,1,.39-4.13,2.25,2.25,0,0,1,2.36,2.28Z"/><path class="a" d="M208.31,47.92c-1,.88-1.65,1.77-2.45,2-1.15.34-1.89-.6-2.17-1.66s1.07-2.78,2.09-2.44C206.59,46.09,207.21,47,208.31,47.92Z"/><path class="a" d="M357.2,122.25a2.07,2.07,0,0,1-2.1-2.32,2.19,2.19,0,0,1,2.5-2,2.08,2.08,0,0,1,1.78,2.07,2,2,0,0,1-2.18,2.25Z"/><path class="a" d="M337.31,119.44a2.06,2.06,0,0,1-2.46,2,1.92,1.92,0,0,1-1.84-2,2.12,2.12,0,0,1,2.14-2.33,2.18,2.18,0,0,1,2.16,2.33Z"/><path class="a" d="M357.78,164.26a2.19,2.19,0,0,1-2.47,2,2.25,2.25,0,1,1,.49-4.46,2.07,2.07,0,0,1,1.98,2.46Z"/><path class="a" d="M205,67.23c.8,1.17,1.6,1.86,1.77,2.68C207,71,206.18,71.82,205,72a1.89,1.89,0,0,1-2.1-2.27C203.19,68.93,204.05,68.32,205,67.23Z"/><path class="a" d="M65.49,238.49c1,1,1.94,1.57,2.25,2.34.45,1.13-.78,2.46-2,2.35s-2-.77-1.81-1.94C64,240.42,64.77,239.7,65.49,238.49Z"/><path class="a" d="M116.11,154.83c-1.15.79-1.86,1.59-2.7,1.77a1.74,1.74,0,0,1-2.11-1.67,1.87,1.87,0,0,1,2.26-2.11C114.38,153.07,115,153.93,116.11,154.83Z"/><path class="a" d="M127.12,373c.8,1.11,1.61,1.79,1.79,2.6a1.66,1.66,0,0,1-1.67,2,1.81,1.81,0,0,1-2.13-2.19C125.34,374.7,126.22,374.1,127.12,373Z"/><path class="a" d="M736.74,641.39c-1,.91-1.64,1.79-2.44,2.06-1.16.39-2.32-.93-2.17-2.23a1.79,1.79,0,0,1,2-1.77C735,639.59,735.62,640.5,736.74,641.39Z"/><path class="a" d="M674.65,464.89c-1.61-.41-2.11-1.18-2-2.33a1.89,1.89,0,0,1,2-1.8c1.19-.05,2.35,1.5,1.8,2.54C676.09,464,675.15,464.48,674.65,464.89Z"/><path class="a" d="M187,25.7c-1.33.63-2.15,1.33-2.95,1.32a1.63,1.63,0,0,1-1.58-2.09,1.69,1.69,0,0,1,2.2-1.48C185.46,23.72,186,24.64,187,25.7Z"/><path class="a" d="M274.78,28.76c-.88.68-1.4,1.34-2.06,1.53a1.75,1.75,0,0,1-2-1.75c.05-1,1.26-2,2.16-1.57C273.51,27.24,274,28,274.78,28.76Z"/><path class="a" d="M644.91,657.63c1,1.06,1.89,1.64,2.1,2.41.29,1.09-.52,1.9-1.67,2s-2.13-.51-2.06-1.65C643.34,659.6,644.15,658.86,644.91,657.63Z"/><path class="a" d="M623,656.75c.93,1.13,1.83,1.75,2,2.53.23,1.09-.63,1.86-1.78,1.93a1.69,1.69,0,0,1-2-1.76C621.3,658.68,622.16,658,623,656.75Z"/><path class="a" d="M601.18,661.15c-1-1.13-1.89-1.75-2.07-2.53a1.66,1.66,0,0,1,1.75-2c1.19-.05,2.14.62,2,1.79C602.79,659.18,602,659.91,601.18,661.15Z"/><path class="a" d="M580.76,658.8a6.24,6.24,0,0,1-2.26.57,1.68,1.68,0,0,1-1.15-2.35,1.89,1.89,0,0,1,2.46-1.12C580.77,656.18,581.32,657.41,580.76,658.8Z"/><path class="a" d="M209.94,3.86c-1.12.89-1.75,1.77-2.51,1.92a1.64,1.64,0,0,1-2-1.74,1.7,1.7,0,0,1,1.79-1.95C208,2.16,208.73,3,209.94,3.86Z"/><path class="a" d="M763.67,510.36c-1.19.8-1.87,1.61-2.67,1.73a1.64,1.64,0,0,1-1.89-1.83c.06-1.06.71-2.1,1.9-1.85C761.82,508.59,762.48,509.45,763.67,510.36Z"/><path class="a" d="M756.15,639.61a13.31,13.31,0,0,1,1.69,2.85c.22.89-1,1.77-2,1.68s-2.08-1.13-1.72-2A12,12,0,0,1,756.15,639.61Z"/><path class="a" d="M690.15,637.08a12.9,12.9,0,0,1,1.69,2.85c.23.89-1,1.76-2,1.68s-2.08-1.13-1.72-2a12.618,12.618,0,0,1,2.03-2.53Z"/><path class="a" d="M68.2,220.18a7.229,7.229,0,0,1-2.35.44c-.92-.12-1.43-1.82-.75-2.53a2.89,2.89,0,0,1,2.07-.77C68.26,217.42,68.81,218.7,68.2,220.18Z"/><path class="a" d="M91.44,220c-1.23.77-2,1.52-2.77,1.65a1.81,1.81,0,1,1,.18-3.6C89.65,218.27,90.29,219.1,91.44,220Z"/><path class="a" d="M335.31,163.55c-.48.37-1.14,1.2-1.92,1.35-.49.09-1.4-.74-1.7-1.36-.46-.94.38-2,1.49-2.19S335.19,161.89,335.31,163.55Z"/><path class="a" d="M338.62,97.27c-1.19.81-1.89,1.57-2.74,1.79s-2-1-1.9-2a1.846,1.846,0,0,1,2.06-1.81C336.84,95.43,337.49,96.35,338.62,97.27Z"/><path class="a" d="M67.56,263.29c-1.16.86-1.84,1.74-2.62,1.85-1.06.14-1.83-.72-1.83-1.9A1.71,1.71,0,0,1,65,261.36C65.74,261.46,66.4,262.38,67.56,263.29Z"/><path class="a" d="M295.6,51.86a5.43,5.43,0,0,1-2.09,1.06c-.45,0-1.21-1-1.37-1.65-.22-.9.49-1.52,1.41-1.66C294.67,49.44,295.63,50.25,295.6,51.86Z"/><path class="a" d="M271.53,48.09c.87.94,1.58,1.41,1.84,2.06.37.89-.79,2.29-1.69,2-.69-.19-1.75-1-1.71-1.41C270.06,50,270.82,49.23,271.53,48.09Z"/><path class="a" d="M412.64,406.54a9.171,9.171,0,0,1,1.4,2.17c.23.9-1,1.92-2,1.79a1.73,1.73,0,0,1-1.4-2.28C411,407.61,411.77,407.25,412.64,406.54Z"/><path class="a" d="M779.83,596.77c.65.87,1.3,1.39,1.47,2a1.68,1.68,0,0,1-1.68,2c-1-.08-2-1.25-1.59-2.12C778.3,598,779,597.6,779.83,596.77Z"/><path class="a" d="M781.19,620.81c-1.1.91-1.7,1.72-2.44,1.89-.41.09-1.27-.8-1.56-1.42-.38-.83.7-2,1.7-1.82C779.53,619.57,780.09,620.14,781.19,620.81Z"/><path class="a" d="M109.64,308.91c-.85.72-1.34,1.39-2,1.62-.83.3-2-.85-2-1.74a1.76,1.76,0,0,1,2.15-1.53C108.41,307.49,108.86,308.19,109.64,308.91Z"/><path class="a" d="M140.8,25.8c-.85-.89-1.54-1.32-1.8-1.94-.38-.87.76-2.21,1.63-1.9a2.5,2.5,0,0,1,1.42,1.6C142.12,24.11,141.41,24.77,140.8,25.8Z"/><path class="a" d="M760.25,576.15a1.88,1.88,0,0,1-2.42,1.7,1.32,1.32,0,0,1-.92-1.87c.3-.61,1.26-1.49,1.57-1.37a6,6,0,0,1,1.77,1.54Z"/><path class="a" d="M43.26,260.25c.64.82,1.28,1.32,1.46,1.94a1.65,1.65,0,0,1-1.67,1.94c-.94-.07-1.94-1.25-1.56-2.06C41.77,261.45,42.47,261,43.26,260.25Z"/><path class="a" d="M782.7,530.67a9.27,9.27,0,0,1,1.19,2.43c.11,1-1.2,2-2,1.55-.61-.35-1.49-1.31-1.35-1.68C780.8,532.22,781.67,531.69,782.7,530.67Z"/><path class="a" d="M378.32,140.07c.72,1.42,1.37,2.19,1.4,3,0,.43-1,1.27-1.58,1.24s-1.63-.94-1.57-1.32C376.71,142.17,377.43,141.46,378.32,140.07Z"/><path class="a" d="M67.59,194.29c.76,1.39,1.43,2.16,1.51,3,0,.38-1.08,1.24-1.65,1.22s-1.6-1-1.53-1.36C66,196.33,66.76,195.61,67.59,194.29Z"/><path class="a" d="M91,198.85a6.12,6.12,0,0,1-2.36.26c-.33-.08-.6-1.35-.51-2a1.3,1.3,0,0,1,1.81-1A1.94,1.94,0,0,1,91,198.85Z"/><path class="a" d="M536.68,678.06c-1.32.65-2.12,1.32-2.91,1.33-.45,0-1.18-1.06-1.28-1.72a1.49,1.49,0,0,1,2.07-1.49C535.2,676.44,535.67,677.13,536.68,678.06Z"/><path class="a" d="M324.33,359.32l2.87,4.12c-3.08.12-3.61-.09-4-1.93C323.11,361,323.8,360.31,324.33,359.32Z"/><path class="a" d="M46.33,240.1c-1.1.9-1.71,1.71-2.47,1.9-.39.09-1.26-.86-1.54-1.5-.38-.87.71-2.05,1.73-1.84a9.46,9.46,0,0,1,2.28,1.44Z"/><path class="a" d="M457.47,432.58c-1,.56-1.7,1.27-2.24,1.17a2.47,2.47,0,0,1-1.5-1.54c-.27-.88,1.13-2,2-1.55A10.609,10.609,0,0,1,457.47,432.58Z"/><path class="a" d="M360.28,97.92c-.85.73-1.33,1.41-2,1.62-.85.29-1.52-.26-1.74-1.16s.71-2.27,1.59-2C358.83,96.56,359.36,97.22,360.28,97.92Z"/><path class="a" d="M185.77,47.1c-.86.71-1.35,1.37-2,1.58-.89.29-2-.77-2-1.68a1.67,1.67,0,0,1,2.09-1.49C184.51,45.71,185,46.39,185.77,47.1Z"/><path class="a" d="M163.29,46.49a5.67,5.67,0,0,1-1.87,1.35c-.36.1-1.23-.81-1.47-1.42A1.32,1.32,0,0,1,161,44.65a1.89,1.89,0,0,1,2.29,1.84Z"/><path class="a" d="M669.14,661.4c-1,.57-1.71,1.28-2.27,1.19a2.35,2.35,0,0,1-1.45-1.54,1.47,1.47,0,0,1,1.94-1.54C668,659.83,668.36,660.54,669.14,661.4Z"/><path class="a" d="M164.16,24.25c-.3,1.49-1.59,2.28-2.43,1.71a2.32,2.32,0,0,1-.93-1.88c.13-.57,1.2-1.47,1.56-1.35A5.792,5.792,0,0,1,164.16,24.25Z"/><path class="a" d="M91.6,151.61A9.24,9.24,0,0,1,92.84,154c.13.94-1.35,1.9-2.1,1.35a2.38,2.38,0,0,1-.84-1.87C90,152.92,90.77,152.47,91.6,151.61Z"/><path class="a" d="M44.83,215.7a10.4,10.4,0,0,1,1.62,2.24c.31,1-.69,2.21-1.66,1.92-.65-.2-1.63-1-1.58-1.44C43.3,217.63,44.06,216.91,44.83,215.7Z"/><path class="a" d="M379.41,165.24c-1,.54-1.65,1.25-2.15,1.14a2.5,2.5,0,0,1-1.46-1.55c-.26-.87,1.16-2,1.95-1.53C378.32,163.62,378.67,164.34,379.41,165.24Z"/><path class="a" d="M782.76,512.73c-.29-.33-1.14-.89-1.11-1.41a2.24,2.24,0,0,1,1.34-1.61c.84-.26,1.53.39,1.57,1.36S784.28,512.65,782.76,512.73Z"/><path class="a" d="M499.75,436.15c-.8-.91-1.58-1.4-1.61-1.94a2.46,2.46,0,0,1,1-1.85c.74-.52,2.15.52,2,1.5A10.275,10.275,0,0,1,499.75,436.15Z"/><path class="a" d="M72.25,131.37a9.63,9.63,0,0,1-2.61.83c-.39,0-1.1-1-1-1.12.35-.59.92-1.38,1.46-1.43S71.15,130.44,72.25,131.37Z"/><path class="a" d="M337.39,73.08a8.29,8.29,0,0,1,.75,2.51c0,.34-1.05,1-1.28.84-.59-.31-1.32-1-1.34-1.51S336.42,74,337.39,73.08Z"/><path class="a" d="M782.1,577c-.19,1.55-1,1.91-1.79,1.59-.56-.23-.86-1.1-1.27-1.69.6-.41,1.23-1.19,1.8-1.15S781.82,576.7,782.1,577Z"/><path class="a" d="M433.08,433.74a9.72,9.72,0,0,1-1.21-2.46c-.13-1,1.18-2,2-1.56.62.34,1.51,1.32,1.38,1.67C435,432.16,434.12,432.7,433.08,433.74Z"/><path class="a" d="M87.57,307.71c-1,.88-1.45,1.63-2.09,1.8-.91.25-1.56-.44-1.6-1.38s.23-1.79,1.31-1.66a9.241,9.241,0,0,1,2.38,1.24Z"/><path class="a" d="M250.41,25.31A10.16,10.16,0,0,1,252,27.55c.31,1-.69,2.21-1.65,1.92-.65-.2-1.64-1-1.59-1.45C248.88,27.23,249.64,26.52,250.41,25.31Z"/><path class="a" d="M356.92,186.09c-.92.73-1.42,1.39-2.08,1.59a1.47,1.47,0,0,1-1.61-1.85,2.23,2.23,0,0,1,1.65-1.19C355.46,184.65,356,185.41,356.92,186.09Z"/><path class="a" d="M228,29.18c-.59-1.05-1.26-1.7-1.18-2.26a2.3,2.3,0,0,1,1.36-1.56,1.46,1.46,0,0,1,1.6,1.86C229.58,27.83,228.89,28.28,228,29.18Z"/><path class="a" d="M45.51,193.81c.81,1,1.48,1.53,1.62,2.15.2.83-.24,1.76-1.26,1.57a2.29,2.29,0,0,1-1.61-1.31C44.15,195.67,44.86,195,45.51,193.81Z"/><path class="a" d="M70.48,174.7c-1,.9-1.59,1.76-2.07,1.72s-1.16-.83-1.5-1.42c-.1-.17.62-1.15,1-1.17C68.55,173.79,69.2,174.23,70.48,174.7Z"/><path class="a" d="M203.63,731.45c-1.37.51-2,1-2.68.95-1.08,0-1.25-1-1-1.8a1.69,1.69,0,0,1,1.39-.86C202,729.91,202.49,730.55,203.63,731.45Z"/><path class="a" d="M66.24,284.67c-1,.89-1.57,1.77-2,1.72s-1.18-.85-1.51-1.46c-.1-.19.66-1.2,1-1.21C64.36,283.69,65,284.17,66.24,284.67Z"/><path class="a" d="M479.55,433.14a8.791,8.791,0,0,1-2.33,1.3c-.33.05-1.2-.85-1.12-1.11.2-.65.75-1.58,1.25-1.64S478.53,432.43,479.55,433.14Z"/><path class="a" d="M521.72,437c-.92-1.05-1.8-1.63-1.75-2.11s.86-1.18,1.47-1.55c.15-.09,1.16.67,1.18,1.08C522.67,435,522.2,435.67,521.72,437Z"/><path class="a" d="M70.5,111.18a8.37,8.37,0,0,1-1-2.44c0-.35.95-1.08,1.18-1,.62.28,1.47.88,1.51,1.4S71.37,110.21,70.5,111.18Z"/><path class="a" d="M763.25,487.66c.12,1.58-.7,1.94-1.49,1.95-.46,0-1.38-.76-1.33-.94.21-.66.62-1.54,1.17-1.72S762.82,487.46,763.25,487.66Z"/><path class="a" d="M208.68,26.5c-1.2.49-1.86,1-2.5.94-.39,0-1.14-1-1-1.22.31-.63.92-1.47,1.49-1.52S207.68,25.58,208.68,26.5Z"/><path class="a" d="M296.76,29.14c-1,.89-1.57,1.77-2,1.72s-1.18-.85-1.51-1.47c-.1-.19.66-1.19,1.05-1.21a8.31,8.31,0,0,1,2.46.96Z"/><path class="a" d="M141.23,45.92a5.27,5.27,0,0,1-1.92.55c-.36,0-.94-.82-.91-1.24.07-1,.83-1.29,1.75-1.06.58.15,1.13.42,1.7.63Z"/><path class="a" d="M73.8,87.37a8.13,8.13,0,0,1-2.46,1c-.36,0-1.12-1-1-1.2.29-.64.91-1.51,1.44-1.54S72.83,86.49,73.8,87.37Z"/><path class="a" d="M22.55,220.36a22.34,22.34,0,0,1-1.06-2.7c-.19-.95.28-1.67,1.24-1.66.41,0,1.16.67,1.16,1C23.89,217.66,23.43,218.29,22.55,220.36Z"/><path class="a" d="M366.25,387.16l4.71,1.78C368.47,390,366.86,389.72,366.25,387.16Z"/><path class="a" d="M373,232.3c-.21-.75-.63-1.41-.45-1.81a4.89,4.89,0,0,1,1.51-1.7c.17-.13,1,.24,1,.33a5.51,5.51,0,0,1-.48,2.16C374.38,231.71,373.69,231.9,373,232.3Z"/><path class="a" d="M691.19,661.79c-1.38.76-1.92,1.3-2.3,1.2s-.68-.79-1-1.23c.46-.32.89-.87,1.36-.89S690.24,661.32,691.19,661.79Z"/><path class="a" d="M95.21,87.67c-.56.62-.92,1.33-1.28,1.33a1.61,1.61,0,0,1-1.22-1c-.08-.31.52-1.06.93-1.16S94.54,87.3,95.21,87.67Z"/><path class="a" d="M733.29,665.11c-.46-.53-1.08-.92-1.12-1.36s.55-.86.86-1.3c.51.44,1,.87,1.55,1.3Z"/><path class="a" d="M719,466.29c-.72-.82-1.26-1.16-1.38-1.62-.24-.9.18-1.65,1.18-1.57.45,0,1.21.66,1.19,1A7.389,7.389,0,0,1,719,466.29Z"/><path class="a" d="M756.47,664.22c-.55.62-.91,1.33-1.28,1.33a1.64,1.64,0,0,1-1.22-1c-.08-.31.53-1.06.94-1.16S755.81,663.85,756.47,664.22Z"/><path class="a" d="M599.51,703.93c-.61-.54-1.28-.86-1.35-1.28a1.47,1.47,0,0,1,.89-1.19,1.53,1.53,0,0,1,1.3.81C600.44,702.68,599.9,703.23,599.51,703.93Z"/><path class="a" d="M50.37,681.24c-.61.56-1,1.22-1.43,1.22s-.83-.66-1.25-1c.36-.41.68-1.07,1.09-1.13S49.68,680.81,50.37,681.24Z"/><path class="a" d="M380.75,121.37a7.779,7.779,0,0,1-2.2.79c-.25,0-.75-1-.72-1.46a1.17,1.17,0,0,1,1.71-1C380,119.82,380.18,120.52,380.75,121.37Z"/><path class="a" d="M92.85,108c.69.87,1.24,1.26,1.3,1.72.11.82-.25,1.67-1.29,1.48-.45-.09-1.15-.75-1.12-1.1C91.79,109.51,92.32,108.94,92.85,108Z"/><path class="a" d="M543.45,437.09l-1.28-1.31,1.46-1.36c.34.43,1,.87.94,1.29S543.92,436.55,543.45,437.09Z"/><path class="a" d="M23.64,239.51c-.84.6-1.26,1.15-1.72,1.17a1.17,1.17,0,0,1-1.26-1.56c.11-.43.88-1.08,1.17-1C22.42,238.29,22.88,238.89,23.64,239.51Z"/><path class="a" d="M94.44,43.89l.73-1.13a5.59,5.59,0,0,1,1.17.9c.09.11-.4.92-.49.89a6.64,6.64,0,0,1-1.41-.66Z"/><path class="a" d="M252.34,5.45l-.74,1.12a5.64,5.64,0,0,1-1.15-.88c-.08-.09.37-.85.49-.83a6.65,6.65,0,0,1,1.4.59Z"/><path class="a" d="M164.18,1.93c-.27.54-.43.88-.59,1.22a8.73,8.73,0,0,1-1.3-.74s.27-.81.43-.81a5.17,5.17,0,0,1,1.46.33Z"/><path class="a" d="M782.91,555c-.62.52-1,1.08-1.38,1.09s-1.08-.54-1.09-.87a1.42,1.42,0,0,1,.88-1.12C781.7,554,782.18,554.51,782.91,555Z"/><path class="a" d="M93.59,132c-.64.45-1,.92-1.5,1-.74.14-1.58-1-1.15-1.6a1.85,1.85,0,0,1,1.46-.68C92.79,130.75,93.1,131.42,93.59,132Z"/><path class="a" d="M48.37,132.51c-.76-1.65-1.2-2.17-1.11-2.55a1.38,1.38,0,0,1,1.16-.75,1.45,1.45,0,0,1,.82,1.14C49.26,130.86,48.86,131.38,48.37,132.51Z"/><path class="a" d="M29.49,658.66a5.68,5.68,0,0,1-1.59.83c-.77.1-1.49-1-1-1.61a1.79,1.79,0,0,1,1.47-.6C28.75,657.37,29,658.05,29.49,658.66Z"/><path class="a" d="M579.91,679.51c-.59.48-1,1-1.4,1.06a1.72,1.72,0,0,1-1.3-.82c-.34-.7.57-1.68,1.3-1.42C579,678.5,579.31,679,579.91,679.51Z"/><path class="a" d="M621.91,682.15a5.459,5.459,0,0,1-.51-1.41c0-.14.85-.55.92-.47a6.328,6.328,0,0,1,.81,1.3Z"/><path class="a" d="M433.32,409.8c.32-.5.52-.82.73-1.13a5.27,5.27,0,0,1,1.17.9c.09.11-.4.92-.49.89A7.169,7.169,0,0,1,433.32,409.8Z"/><path class="a" d="M27.13,129l-.7,1.2a9.57,9.57,0,0,1-1.2-1s.4-.77.56-.75a5.3,5.3,0,0,1,1.34.55Z"/><path class="a" d="M784.23,487.6a5.559,5.559,0,0,1,.89,1.58c.1.68-1.18,1.46-1.68,1a1.83,1.83,0,0,1-.58-1.5C782.94,488.32,783.63,488.06,784.23,487.6Z"/><path class="a" d="M778.3,644.73c-.6-.47-1.28-.75-1.36-1.15a1.84,1.84,0,0,1,.61-1.49c.54-.43,1.75.34,1.66,1.06A5.585,5.585,0,0,1,778.3,644.73Z"/><path class="a" d="M24,193.06c.35,1.1.7,1.64.63,2.12s-.58.81-.9,1.21c-.4-.34-1-.62-1.12-1S23,194.55,24,193.06Z"/><path class="a" d="M118.26,66.36c-.46.62-.7,1.23-1.13,1.48a1.11,1.11,0,0,1-1.49-1.23,1.6,1.6,0,0,1,1-1C117.12,65.51,117.61,66,118.26,66.36Z"/><path class="a" d="M696.57,462c.5.62,1,1,1,1.37s-.52.78-.81,1.17c-.41-.31-1.07-.57-1.13-.94S696.12,462.77,696.57,462Z"/><path class="a" d="M742.43,465.58c-.75.31-1.32.77-1.75.66a1.07,1.07,0,0,1,.5-2.08C741.62,464.27,741.92,465,742.43,465.58Z"/><path class="a" d="M761.22,465.85c.75-.4,1.25-.91,1.62-.82a1.42,1.42,0,0,1,.76,1.2c0,.31-.74.8-1.11.77S761.78,466.39,761.22,465.85Z"/><path class="a" d="M448.44,652.59c-.79.23-1.31.56-1.7.45s-.51-.7-.76-1.08c.32-.19.72-.59.93-.51A6.859,6.859,0,0,1,448.44,652.59Z"/><path class="a" d="M317.1,52c-.62.51-1,1.08-1.38,1.08s-1.08-.55-1.09-.87a1.43,1.43,0,0,1,.89-1.12C315.9,51,316.37,51.55,317.1,52Z"/><path class="a" d="M118.62,44.14c-.25.51-.46,1.13-.55,1.12a3.46,3.46,0,0,1-1.34-.6c-.07,0,.28-.95.42-.95a6.23,6.23,0,0,1,1.47.43Z"/><path class="a" d="M644.21,681.49c.17.16.45.38.43.41a6.442,6.442,0,0,1-.61.77c-.12-.12-.39-.32-.36-.37a6.007,6.007,0,0,1,.54-.81Z"/><path class="a" d="M828.17,490.25a7.881,7.881,0,0,1,.19,1s-.31.12-.47.18a6.113,6.113,0,0,1-.22-.94C827.67,490.41,828,490.32,828.17,490.25Z"/><path class="a" d="M141.47.65l.76.76-1.28,1c-.13-.39-.4-.79-.34-1.14S141.17.84,141.47.65Z"/><path class="a" d="M1.4,216.73l-.86.51L0,216c.34-.08.77-.32,1-.2S1.28,216.41,1.4,216.73Z"/><path class="a" d="M25.33,173.93a5.68,5.68,0,0,1-1.45.12c-.15,0-.22-.57-.33-.87l1.4-.46C25.06,173.06,25.16,173.4,25.33,173.93Z"/><path class="a" d="M610.18,438.31l-.8.56c-.21-.4-.43-.8-.64-1.21.35-.11.76-.37,1-.27S610.05,438,610.18,438.31Z"/><path class="a" d="M47.55,174.15c-.31.41-.6.92-.7.89a3.12,3.12,0,0,1-1.15-.74,1.88,1.88,0,0,1,.5-.83,7.431,7.431,0,0,1,1.35.68Z"/><path class="a" d="M501,412.46l-.44.34c-.17-.28-.36-.56-.5-.85,0,0,.29-.22.45-.33A5.223,5.223,0,0,1,501,412.46Z"/><path class="a" d="M69.93,153.22l-.81.56-.63-1.21c.34-.11.75-.37,1-.27S69.79,152.9,69.93,153.22Z"/><path class="a" d="M50.94,42l.29-.52a7.271,7.271,0,0,1,.68.79s-.22.28-.34.42Z"/><path class="a" d="M802.12,600.58l-1-.34.67-1.28c.28.23.73.41.81.7S802.28,600.27,802.12,600.58Z"/><path class="a" d="M802.39,578.93l-.54-1,1.3-.61c.08.35.33.79.21,1A2.894,2.894,0,0,1,802.39,578.93Z"/><path class="a" d="M785.8,466.83c-.32.42-.6.93-.7.89a3.13,3.13,0,0,1-1.16-.73c-.06-.07.42-.86.51-.83A7.359,7.359,0,0,1,785.8,466.83Z"/><path class="a" d="M72.62,64.1l.74.75-1.18.94c-.16-.37-.48-.76-.43-1.1S72.31,64.3,72.62,64.1Z"/><path class="a" d="M556.48,679.32a3.31,3.31,0,0,1-.48-.26c.11-.31.26-.61.4-.92.15.08.43.2.42.24A8.845,8.845,0,0,1,556.48,679.32Z"/><path class="a" d="M49,107l1,1.52c-.29.18-.57.49-.86.5s-.64-.26-1-.41Z"/><path class="a" d="M1.64,193.56l.66.82c-.41.27-.82.54-1.22.82-.15-.38-.47-.79-.4-1.11S1.3,193.73,1.64,193.56Z"/><path class="a" d="M599.2,680.57c.28-.52.44-.84.61-1.16a4.3,4.3,0,0,1,1.1.85c.1.15-.26.62-.41,1Z"/><path class="a" d="M566.38,436.47c-.3.19-.62.54-.9.51s-.59-.41-.88-.64c.33-.19.65-.52,1-.51S566.11,436.24,566.38,436.47Z"/><path class="a" d="M632.25,439a6.08,6.08,0,0,1-1,.26c-.11,0-.24-.27-.36-.42a9.315,9.315,0,0,1,1-.3C632,438.51,632.15,438.82,632.25,439Z"/><path class="a" d="M653.71,440.19l-.84-.51c.14-.12.34-.38.41-.35a6.321,6.321,0,0,1,.89.53Z"/><path class="a" d="M719.16,442.71l-.29-.49a5.6,5.6,0,0,1,1-.27c.1,0,.22.28.34.43Z"/><path class="a" d="M522,413.66a4.618,4.618,0,0,1-.32-1c0-.11.24-.26.37-.39a5.312,5.312,0,0,1,.35,1C522.46,413.4,522.18,413.54,522,413.66Z"/><path class="a" d="M478.43,410.64a5.994,5.994,0,0,1,.3,1,.549.549,0,0,1-.42.3c-.14-.02-.37-.29-.35-.38a6.643,6.643,0,0,1,.47-.92Z"/><path class="a" d="M456.46,410.83l-.46.32a5.925,5.925,0,0,1-.26-1c0-.11.26-.24.41-.36C456.25,410.15,456.36,410.49,456.46,410.83Z"/><path class="a" d="M119.63.49l-.47.32c-.11-.25-.22-.51-.34-.76.19,0,.41-.09.55,0S119.55.33,119.63.49Z"/><path class="a" d="M26.42,107.54c.14-.12.3-.37.4-.34a4.78,4.78,0,0,1,.86.4,5.179,5.179,0,0,1-.9.34C26.69,108,26.55,107.69,26.42,107.54Z"/><path class="a" d="M776.87,665.9l-.45-.86c.33-.12.68-.38,1-.33s.35.5.52.77Z"/><path class="a" d="M317.22,30.47c-.36.17-.71.44-1,.42s-.33-.5-.5-.78c.32-.14.66-.41.95-.37S317,30.21,317.22,30.47Z"/><path class="a" d="M666.62,683.22l-.45.32a4.927,4.927,0,0,1-.27-1c0-.11.26-.24.4-.36C666.41,682.55,666.51,682.89,666.62,683.22Z"/><path class="a" d="M47.19,151.52l1,.52c-.21.25-.39.67-.62.7s-.61-.27-.92-.42Z"/><path class="a" d="M621.94,703.26l-.49.17-.09-.8c.18,0,.43,0,.53.11S621.93,703.08,621.94,703.26Z"/><path class="a" d="M642.93,703.67l.49-.18.06.83c-.18,0-.42,0-.52-.13S642.93,703.85,642.93,703.67Z"/><path class="a" d="M119.23,22.88a2.88,2.88,0,0,1-1,.42c-.17,0-.33-.51-.49-.78.31-.14.65-.41.94-.37S119,22.62,119.23,22.88Z"/><path class="a" d="M94.89,66l-.49-.23.6-.6c.11.15.32.32.3.45S95,65.85,94.89,66Z"/><path class="a" d="M359.46,76l-.44.35a8.182,8.182,0,0,1-.44-.95,3.829,3.829,0,0,1,.46-.26Z"/><path class="a" d="M805.11,512.46c-.15-.11-.43-.27-.41-.34a5.483,5.483,0,0,1,.38-.86,6.066,6.066,0,0,1,.43.84C805.53,512.18,805.25,512.34,805.11,512.46Z"/><path class="a" d="M4.53,128.51l-.45.34c-.14-.31-.3-.63-.41-.95,0,0,.31-.17.48-.26C4.27,127.93,4.4,128.22,4.53,128.51Z"/><path class="a" d="M49.81,86.81l-.77-.7c.3-.18.62-.54.9-.51s.57.42.86.66Z"/><path class="a" d="M800.91,621.29a6.608,6.608,0,0,1,.33,1c0,.09-.26.23-.41.34a4.841,4.841,0,0,1-.3-1C800.51,621.57,800.77,621.42,800.91,621.29Z"/><path class="a" d="M97.05,21.89a4.22,4.22,0,0,1-1,.26c-.11,0-.24-.26-.35-.41a6.25,6.25,0,0,1,1-.3C96.83,21.43,97,21.73,97.05,21.89Z"/><path class="a" d="M711,662.08l1,.51c-.21.25-.39.68-.62.7s-.61-.26-.92-.42A9.228,9.228,0,0,1,711,662.08Z"/><path class="a" d="M73.88,43.16l-.4.4a5,5,0,0,1-.35-1c0-.1.24-.26.36-.39C73.63,42.54,73.76,42.86,73.88,43.16Z"/><path class="a" d="M621.26,725.37a4.829,4.829,0,0,1-1,.27c-.1,0-.23-.27-.35-.42a6.361,6.361,0,0,1,1-.3C621,724.91,621.16,725.21,621.26,725.37Z"/><path class="a" d="M26,151.35a4.83,4.83,0,0,1-1,.27c-.1,0-.23-.27-.35-.42a6.36,6.36,0,0,1,1-.3C25.77,150.89,25.89,151.19,26,151.35Z"/><path class="a" d="M28.19,84.87l.37.44a5.53,5.53,0,0,1-.93.35c-.11,0-.27-.23-.41-.36Z"/><path class="a" d="M51,63.65v.48l-.87-.28c.12-.14.24-.36.39-.39S50.81,63.58,51,63.65Z"/></g></svg>