<svg xmlns="http://www.w3.org/2000/svg" viewBox="0 0 1933.45 1973.8"><defs><style>.cls-1{isolation:isolate;}.cls-2{fill:#1d1d1b;}.cls-3{fill:#fff;}.cls-10,.cls-4{fill:#e93c85;}.cls-5{fill:#bc115c;}.cls-6{fill:#f29aba;}.cls-7{fill:#00b0d9;}.cls-8{fill:#008fb8;}.cls-9{fill:#98d0ea;}.cls-10,.cls-13,.cls-17{stroke:#1d1d1b;stroke-linecap:round;stroke-linejoin:round;stroke-width:9.98px;}.cls-11{fill:#fee600;}.cls-12{fill:#3e6398;}.cls-13{fill:none;}.cls-14,.cls-17{fill:#f7a927;}.cls-15{fill:#ee7028;}.cls-16{fill:#fccd87;}.cls-18{mix-blend-mode:multiply;}.cls-19{fill:#c3bdbb;}</style></defs><g class="cls-1"><g id="Capa_1" data-name="Capa 1"><path class="cls-2" d="M286.76,1701.3s396.89-329.55,437.92,7.62c0,0,188.93-278,472-49.19,0,0-24.11-447.19,545.83-152,0,0-506.48-349.19,157.92-609.19,0,0-557.89-49.26-288.7-312.36,0,0-406.08,148-225-396.82,0,0-275.06,579.81-532.63,164,0,0,38,429.24-332.63,256.39,0,0,207.58,468.47-417.19,306.78,0,0,620.65,250.38,112.08,435.78C216.4,1352.31,571.63,1352.79,286.76,1701.3Z"/><path class="cls-3" d="M348.9,1738.19a8.93,8.93,0,0,1-7.27-14.1c81.9-115.12,109-201.56,80.4-256.91-32.78-63.55-132.8-68.49-162.67-68.49-7,0-11.2.25-11.25.25a5,5,0,0,1-.55,0,8.93,8.93,0,0,1-3.55-17.12c123.83-53.63,185.13-110.39,182.21-168.71C419.64,1081.88,97.1,977.54,93.84,976.5a8.93,8.93,0,0,1,2.71-17.43,9.15,9.15,0,0,1,1.63.15c71.73,13.24,135.66,19.95,190,19.95h.06c113.53,0,188-28.79,221.35-85.56,57.45-97.8-25.45-248.85-26.29-250.36a8.93,8.93,0,0,1,10.94-12.71c53.6,20.16,101.06,30.38,141.07,30.38h0c51.24,0,91.26-16.8,119-49.9,69.52-83.11,41.84-242.92,41.55-244.53a8.93,8.93,0,0,1,15.92-6.95c65.8,87.33,133,131.61,199.71,131.61,180.58,0,307-322.12,308.27-325.38a8.93,8.93,0,0,1,17,5.36c-40.68,164.64-37,279.11,10.81,340.22C1373.84,545,1413.66,562,1465.88,562c62,0,119.66-24.58,120.23-24.83a8.93,8.93,0,0,1,10.18,14.17c-53.58,59.52-71.86,110.25-54.34,150.78,49.73,115.07,363.32,123.32,366.48,123.39a8.92,8.92,0,0,1,3.53,17c-202.81,93.55-308.16,197.06-313.14,307.66-7.27,161.33,205.21,285.51,207.35,286.74a8.93,8.93,0,0,1-7.92,16c-123.09-52-227-78.4-309-78.4-74.36,0-130.83,21.66-167.84,64.37-64.37,74.29-48.84,188.35-48.68,189.5a8.92,8.92,0,0,1-4.09,8.84,9,9,0,0,1-9.75-.18c-72.2-48.93-142.44-73.74-208.76-73.74-161.67,0-249.89,148.24-250.77,149.73a8.91,8.91,0,0,1-7.7,4.44,9.57,9.57,0,0,1-1.41-.11,8.93,8.93,0,0,1-7.32-6.95c-19.11-89-62.71-134.18-129.6-134.18-127.33,0-296.62,158-298.31,159.55A8.9,8.9,0,0,1,348.9,1738.19Z"/><path class="cls-2" d="M1328.06,169c-83.26,337,34.58,401.93,137.82,401.93,64.76,0,123.77-25.56,123.77-25.56-248.89,276.52,318.58,289.07,318.58,289.07-648.13,299-106.51,610.24-106.51,610.24-134.88-57-236.28-79.1-312.47-79.1-263.32,0-225.35,264.06-225.35,264.06-81.26-55.07-152.67-75.27-213.77-75.27-168.67,0-258.48,154.16-258.48,154.16-22.61-105.41-76.06-141.24-138.32-141.24-132.34,0-304.43,162-304.43,162,228.92-321.75-29.68-339.5-89.54-339.5-7.43,0-11.8.28-11.8.28,497.31-215.43-151-422-151-422,75.6,14,138.83,20.09,191.67,20.09,397.8,0,202.86-349.19,202.86-349.19,57.72,21.71,105.2,31,144.24,31,224.16,0,169.3-304.94,169.3-304.94,74.08,98.31,143.85,135.16,206.84,135.16,188.79,0,316.6-331.08,316.6-331.08m0-17.85a17.86,17.86,0,0,0-16.65,11.41c-1.24,3.2-125.62,319.67-300,319.67-63.76,0-128.55-43.08-192.59-128a17.85,17.85,0,0,0-31.82,13.9c.27,1.56,27.18,157.44-39.65,237.26C721.48,636.3,683.77,652,635.32,652c-39,0-85.37-10-138-29.81a17.85,17.85,0,0,0-21.87,25.41c.81,1.46,81.23,148.22,26.36,241.55C470.21,943,398.34,970.24,288.22,970.24c-53.82,0-117.22-6.66-188.42-19.8a18.22,18.22,0,0,0-3.26-.3A17.85,17.85,0,0,0,91.13,985c89,28.39,321,124.77,326.17,228.58,2.68,53.45-58.47,108.8-176.84,160.08a17.85,17.85,0,0,0,7.09,34.23c.38,0,.75,0,1.13,0,0,0,4-.24,10.68-.24,28.6,0,124.27,4.59,154.73,63.65,26.53,51.42-1,137-79.73,247.65a17.86,17.86,0,0,0,26.78,23.36c1.66-1.58,168.52-157.14,292.19-157.14,63,0,102.51,41.59,120.87,127.13a17.84,17.84,0,0,0,32.88,5.24c.2-.34,22.06-37.24,63.26-73.46,54.2-47.66,114.7-71.83,179.79-71.83,64.51,0,133.06,24.29,203.75,72.2a17.85,17.85,0,0,0,27.69-17.32c-.15-1.09-14.91-111.61,46.73-182.55,35.24-40.56,89.39-61.12,161-61.12,80.75,0,183.54,26.14,305.53,77.69a17.85,17.85,0,0,0,15.84-31.92c-2.09-1.2-209.94-122.8-202.89-278.65,4.85-107,108.47-207.88,308-299.9a17.86,17.86,0,0,0-7.09-34.07c-86.37-1.93-319.13-26.91-358.48-118-16-37,1.75-84.57,52.78-141.26A17.86,17.86,0,0,0,1582.55,529c-.54.24-56.6,24.1-116.67,24.1-49.34,0-86.79-15.89-111.32-47.22-46.07-58.84-49.16-170.74-9.17-332.58a17.83,17.83,0,0,0-17.33-22.13Z"/><path class="cls-4" d="M715.93,1537.17a5.09,5.09,0,0,1-1.84-.35,5,5,0,0,1-2.89-3L504.43,918.09a5,5,0,0,1,2.69-6.14L1473,480.85a4.94,4.94,0,0,1,2-.43,5.12,5.12,0,0,1,2.06.44,5,5,0,0,1,2.71,3.06l171.35,550a5,5,0,0,1-2.42,5.88L718.28,1536.58A5,5,0,0,1,715.93,1537.17Z"/><path class="cls-2" d="M1475.07,485.41l171.35,550L715.93,1532.18,509.16,916.5l965.91-431.09m0-10a9.8,9.8,0,0,0-4.07.87L505.09,907.39a10,10,0,0,0-5.39,12.29l206.77,615.68a10,10,0,0,0,5.78,6.09,9.75,9.75,0,0,0,3.68.71,9.9,9.9,0,0,0,4.7-1.18l930.49-496.81a10,10,0,0,0,4.83-11.77l-171.35-550a10,10,0,0,0-9.53-7Z"/><path class="cls-5" d="M1364.66,546.51c34.17,42.59,64.19,90.42,86.33,140.29,44.39,100,64.87,220.68,18.47,323.77-31.32,69.63-87.88,114.59-157.66,142.83-38.53,15.6-78.45,27.14-117.47,41.38a634.14,634.14,0,0,0-115.11,55.64c-69.73,42.9-135.34,93.65-201,142.51-45.88,34.15-89.54,71.35-122,117.72l890.16-475.28-171.35-550-117.55,52.46C1359.94,540.73,1362.34,543.61,1364.66,546.51Z"/><path class="cls-6" d="M650.57,1289.29c-8.54-45.72-15.86-91.63-23.26-137.54-6.49-40.21-12.53-81.65-4.27-122.11,14.07-68.89,62.6-118,116.74-159.06,60.89-46.24,121.4-93.33,183-138.69L509.16,916.5,669,1392.28C662.8,1358,657,1323.56,650.57,1289.29Z"/><path class="cls-7" d="M715.93,1537.17a5,5,0,0,1-.94-.09L558,1506.9a4.94,4.94,0,0,1-3.77-3.28L353.64,918.82a5,5,0,0,1,4.7-6.61l150.82-.7a5,5,0,0,1,4.72,3.4l206.78,615.68a5,5,0,0,1-4.73,6.58Z"/><path class="cls-2" d="M509.16,916.5l206.77,615.68-157-30.18L358.36,917.2l150.8-.7m0-10h-.05l-150.8.7a10,10,0,0,0-9.39,13.22l200.56,584.8a10,10,0,0,0,7.55,6.56l157,30.18a10,10,0,0,0,11.34-13L518.61,913.32a10,10,0,0,0-9.45-6.8Z"/><path class="cls-8" d="M538.09,1059.43c20.1,70.47,42.94,140.81,68.12,209.63,13.12,35.87,27.51,71.22,39.18,107.63,7.74,24.18,22.84,57.35,14,83.25-10.84,31.56-41.52,43.21-74.22,47.1l130.81,25.14L509.16,916.5l-8.63,0a14.31,14.31,0,0,1-4.42,2c-2.87.79-6.08,1.54-9.48,2.3C512.81,962.5,524.62,1012.18,538.09,1059.43Z"/><path class="cls-9" d="M504.54,1331.08c-16.75-59.53-36.84-118.12-56.39-176.79-10.59-31.79-20.82-63.46-28.85-96-6.64-26.93-15-54.59-17.89-82.26-2.07-20,2.21-40.82,17.5-55,1.58-1.47,3.21-2.81,4.86-4.1l-65.41.3,154.88,451.62C511,1356,508,1343.39,504.54,1331.08Z"/><polygon class="cls-10" points="527.37 1295.17 596.93 1294.85 557.28 1176.8 486.88 1177.13 527.37 1295.17"/><polygon class="cls-10" points="587.15 1469.49 660.3 1483.55 613.95 1345.56 544.75 1345.88 587.15 1469.49"/><polygon class="cls-10" points="482.41 953.88 410.44 954.21 432.06 1017.27 503.59 1016.94 482.41 953.88"/><polygon class="cls-10" points="511.19 1039.56 439.82 1039.89 447.98 1063.69 519.18 1063.37 511.19 1039.56"/><polygon class="cls-10" points="477.49 1149.75 548.08 1149.42 537.13 1116.81 466.31 1117.13 477.49 1149.75"/><polygon class="cls-10" points="519.18 1063.37 447.98 1063.69 457.14 1090.41 528.16 1090.08 519.18 1063.37"/><polygon class="cls-10" points="457.14 1090.41 466.31 1117.13 537.13 1116.81 528.16 1090.08 457.14 1090.41"/><path class="cls-7" d="M358.36,922.19a5,5,0,0,1-2.14-9.5l880.86-418.88a4.87,4.87,0,0,1,1.87-.47l236.12-12.92a5,5,0,0,1,2,9.54L511.19,921.06a5,5,0,0,1-2,.43Z"/><path class="cls-2" d="M1475.07,485.41h0m0,0L509.16,916.5l-150.8.7,880.86-418.88,235.85-12.91m0-10h-.18l-.45,0-235.76,12.9a10.08,10.08,0,0,0-3.74.95L354.07,908.19a10,10,0,0,0,4.29,19h.05l150.79-.7a9.92,9.92,0,0,0,4-.87l965.68-431a10,10,0,0,0-3.76-19.19Z"/><path class="cls-7" d="M358.36,922.19a5,5,0,0,1-2.14-9.5l880.86-418.88a4.87,4.87,0,0,1,1.87-.47l236.12-12.92a5,5,0,0,1,2,9.54L511.19,921.06a5,5,0,0,1-2,.43Z"/><path class="cls-2" d="M1475.07,485.41h0m0,0L509.16,916.5l-150.8.7,880.86-418.88,235.85-12.91m0-10h-.18l-.45,0-235.76,12.9a10.08,10.08,0,0,0-3.74.95L354.07,908.19a10,10,0,0,0,4.29,19h.05l150.79-.7a9.92,9.92,0,0,0,4-.87l965.68-431a10,10,0,0,0-3.76-19.19Z"/><path class="cls-9" d="M530.22,858.32c56.39-21.76,107.53-51.21,160.07-80.82,63.86-36,129.7-67.35,192.2-105.89,7.18-4.43,14.49-9.07,21.72-14L358.36,917.2l98.07-.45C458.34,885,505.49,867.85,530.22,858.32Z"/><path class="cls-8" d="M1176.24,611.21c-31.51,14.06-64.33,23.78-96.72,35.44-86,31-173,70.56-247.38,125.7l642.93-286.94-210,11.49c.33,1.14.63,2.3.86,3.52,3.62,19.9-2.2,39.87-13.6,56.37C1235,582,1203.51,599,1176.24,611.21Z"/><path class="cls-11" d="M613.53,1050.79a5,5,0,0,1-2.08-.46,5,5,0,0,1-2.71-3.15L577.46,939a5,5,0,0,1,2.76-5.94l850.55-379.3a5,5,0,0,1,6.82,3.17l28.65,99.1a5,5,0,0,1-2.72,5.92L615.61,1050.33A5,5,0,0,1,613.53,1050.79Z"/><path class="cls-2" d="M1432.8,558.31l28.65,99.11L613.53,1045.79,582.25,937.62,1432.8,558.31m0-10a9.92,9.92,0,0,0-4.07.86L578.19,928.5a10,10,0,0,0-5.53,11.89L604,1048.57a10,10,0,0,0,13.73,6.3l847.93-388.38a10,10,0,0,0,5.42-11.85l-28.65-99.1a9.94,9.94,0,0,0-9.58-7.2Z"/><path class="cls-7" d="M1207.84,592.7a5.24,5.24,0,0,1-1.42-.2L1157.55,578a5,5,0,0,1-3.35-3.35l-60.94-202.13a5,5,0,0,1,4.45-6.42l79.1-5.06a5,5,0,0,1,4.72,3.37L1251.79,569a5,5,0,0,1-2.73,6.2l-39.23,17.06A5.06,5.06,0,0,1,1207.84,592.7Z"/><path class="cls-2" d="M1176.81,366.07l70.26,204.58-39.23,17.06L1159,573.25,1098,371.12l78.78-5.05m0-10-.64,0-78.79,5.05a10,10,0,0,0-8.91,12.84l60.94,202.13a10,10,0,0,0,6.72,6.69L1205,597.28a10,10,0,0,0,6.81-.42l39.23-17.06a10,10,0,0,0,5.46-12.39l-70.26-204.58a10,10,0,0,0-9.43-6.74Z"/><path class="cls-7" d="M622.29,857a4.85,4.85,0,0,1-1-.1l-66.86-13.7a5,5,0,0,1-3.79-3.46l-62-208a5,5,0,0,1,.77-4.4,5,5,0,0,1,4-2l54.37-.25a5,5,0,0,1,4.73,3.41L627,850.45a5,5,0,0,1-4.73,6.57Z"/><path class="cls-2" d="M547.76,630.13,622.29,852l-66.86-13.69-62-208,54.35-.25m0-10h0l-54.35.25a10,10,0,0,0-9.51,12.82l62,208a10,10,0,0,0,7.56,6.92l66.87,13.7a9.62,9.62,0,0,0,2,.2,10,10,0,0,0,9.46-13.15L557.22,627a10,10,0,0,0-9.46-6.8Z"/><path class="cls-7" d="M493.41,635.37a5,5,0,0,1-2-9.57l604.62-259.26a5,5,0,0,1,1.65-.4l79.11-5.06a5,5,0,0,1,1.92,9.59l-629,264.06a4.87,4.87,0,0,1-1.91.39Z"/><path class="cls-2" d="M1176.81,366.07h0m0,0-629,264.06-54.35.25L1098,371.12l78.78-5.05m0-10h-.32l-.41,0-78.7,5a9.85,9.85,0,0,0-3.29.79L489.48,621.21a10,10,0,0,0,3.93,19.15h0l54.35-.25a10,10,0,0,0,3.81-.77l628.82-264a10,10,0,0,0-3.48-19.28Z"/><path class="cls-4" d="M622.29,857a5,5,0,0,1-4.73-3.4L543,631.72a5,5,0,0,1,2.79-6.18l629.05-264.07a5,5,0,0,1,6.65,3L1251.79,569a5,5,0,0,1-2.73,6.2l-39.23,17.06a5.05,5.05,0,0,1-3.94,0,5,5,0,0,1-2.72-2.85L1137,412.81,591.8,648.38l64.32,187.87a5,5,0,0,1-2.54,6.09l-29.1,14.18A5.08,5.08,0,0,1,622.29,857Z"/><path class="cls-2" d="M1176.81,366.07l70.26,204.58-39.23,17.06-68.06-181.55L585.59,645.63l65.8,192.23L622.29,852,557,657.49l-9.19-27.36,629.05-264.06m0-10a10,10,0,0,0-3.86.78L543.9,620.93a10,10,0,0,0-5.6,12.38l9.19,27.36,65.34,194.54a10,10,0,0,0,9.46,6.8,9.85,9.85,0,0,0,4.37-1l29.1-14.17a10,10,0,0,0,5.08-12.21L598,651.13l536.09-231.66,64.38,171.74a10,10,0,0,0,5.46,5.69,9.88,9.88,0,0,0,3.89.79,10,10,0,0,0,4-.83l39.23-17.06a10,10,0,0,0,5.46-12.39l-70.26-204.58a10,10,0,0,0-5.36-5.87,10.14,10.14,0,0,0-4.08-.87Z"/><path class="cls-7" d="M827.79,1413.9c-70,0-139.42-64.21-165-152.68-30.17-104.34,8.87-207.61,87-230.21l2.76-.8c13.2-3.85,33.13-9.64,47.48-9.64a44.23,44.23,0,0,1,5,.27c60.88,7,115,67.73,141.21,158.4,20,69,23.91,159.7-24.83,207.36-11,10.77-30.52,15.28-47.74,19.27-5.25,1.21-10.21,2.36-14.46,3.58A113.14,113.14,0,0,1,827.79,1413.9Z"/><path class="cls-2" d="M800.06,1025.55a39.06,39.06,0,0,1,4.45.24c62.5,7.23,113.06,72.08,137,154.84C964,1258.37,960.67,1341.28,918,1383c-13.25,13-42.2,16.45-60.11,21.62a107.83,107.83,0,0,1-30.08,4.25c-66.93,0-134.61-60.56-160.21-149.08-29.45-101.86,8-202.16,83.63-224,12.81-3.7,34.21-10.25,48.85-10.25m0-10h0c-15.06,0-35.41,5.92-48.88,9.84l-2.74.79c-80.81,23.37-121.38,129.42-90.44,236.4,12.77,44.17,36.72,84.05,67.43,112.3s67.18,44,102.36,44a118.08,118.08,0,0,0,32.85-4.64c4.12-1.19,9-2.32,14.2-3.52,17.86-4.14,38.1-8.82,50.11-20.56,50.3-49.2,46.49-141.93,26.14-212.31-26.79-92.64-82.52-154.7-145.43-162a49.31,49.31,0,0,0-5.6-.3Z"/><path class="cls-7" d="M860.82,1404.34c-70,0-139.41-64.2-165-152.67-30.17-104.34,8.88-207.62,87-230.22a113.37,113.37,0,0,1,31.46-4.43c70,0,139.42,64.2,165,152.67,30.17,104.34-8.88,207.61-87,230.22A113.39,113.39,0,0,1,860.82,1404.34Z"/><path class="cls-2" d="M814.32,1022c66.94,0,134.62,60.56,160.22,149.07,29.45,101.86-8,202.17-83.63,224a107.9,107.9,0,0,1-30.09,4.25c-66.93,0-134.61-60.56-160.21-149.07-29.45-101.86,8-202.16,83.63-224a108.2,108.2,0,0,1,30.08-4.25m0-10v0h0a118.45,118.45,0,0,0-32.85,4.63c-80.8,23.37-121.38,129.41-90.44,236.4,12.77,44.16,36.72,84,67.43,112.3s67.18,44,102.36,44a118.52,118.52,0,0,0,32.86-4.63c80.8-23.37,121.37-129.41,90.44-236.4-12.77-44.16-36.72-84-67.43-112.29s-67.18-44-102.36-44Z"/><path class="cls-2" d="M857,1373.39c-58.9,0-117.23-53.93-138.71-128.22-12.2-42.2-11.45-85.47,2.13-121.84,13.77-36.89,39.05-62.31,71.18-71.61a95.26,95.26,0,0,1,26.53-3.74c58.89,0,117.23,53.92,138.71,128.21,25.35,87.65-7.54,174.44-73.31,193.45A95.27,95.27,0,0,1,857,1373.39Z"/><path class="cls-2" d="M818.14,1053c56,0,112.52,50.63,133.92,124.61,24.62,85.15-6.68,169-69.91,187.28A90.44,90.44,0,0,1,857,1368.4c-56,0-112.53-50.62-133.92-124.61-24.62-85.15,6.68-169,69.91-187.28a90.44,90.44,0,0,1,25.14-3.55m0-10h0a100.22,100.22,0,0,0-27.91,3.94c-33.69,9.74-60.14,36.25-74.48,74.66-14,37.36-14.74,81.74-2.24,125C736,1324.17,795,1378.38,857,1378.38a100.23,100.23,0,0,0,27.91-4c68.42-19.78,102.83-109.33,76.72-199.63C939.2,1097.19,880.19,1043,818.14,1043Z"/><path class="cls-4" d="M838.84,1273.43c-22.72,0-44.29-19.72-52.45-48-9.51-32.89,3.18-65.56,28.28-72.82A37.1,37.1,0,0,1,825,1151.2c22.73,0,44.3,19.72,52.46,48,9.51,32.89-3.18,65.56-28.28,72.83A37.53,37.53,0,0,1,838.84,1273.43Z"/><path class="cls-2" d="M825,1156.18c19.92,0,40,18,47.66,44.36,8.77,30.3-2.37,60.14-24.87,66.64a31.88,31.88,0,0,1-8.95,1.26c-19.91,0-40.05-18-47.66-44.34-8.76-30.3,2.38-60.15,24.87-66.65a31.89,31.89,0,0,1,9-1.27m0-10h0a42,42,0,0,0-11.71,1.65c-27.75,8-42,43.47-31.7,79,8.78,30.35,32.32,51.55,57.25,51.55a42.11,42.11,0,0,0,11.72-1.65c27.75-8,42-43.47,31.69-79-8.78-30.36-32.32-51.56-57.25-51.56Z"/><path class="cls-5" d="M816.05,1157.45c-.81.24-1.6.52-2.39.83,30.61,28.27,38.7,73.63,19.41,109.62a32.6,32.6,0,0,0,14.72-.72c22.5-6.5,33.64-36.34,24.87-66.64S838.56,1150.94,816.05,1157.45Z"/><path class="cls-2" d="M818.68,1166.51l1.36-.31a17.59,17.59,0,0,1,4-.63,24.49,24.49,0,0,1,6.39.32,30,30,0,0,1,8,2.4,38.87,38.87,0,0,1,8.6,5.06,47.51,47.51,0,0,1,8,7.74,55.17,55.17,0,0,1,6.61,9.91,63.05,63.05,0,0,1,4.66,11.55c.44,1.92,1,3.56,1.31,5.72a51.42,51.42,0,0,1,.83,6.19,55.58,55.58,0,0,1-.3,11.92,47.69,47.69,0,0,1-2.66,10.83,39,39,0,0,1-4.57,8.88,30,30,0,0,1-5.52,6.31,23.55,23.55,0,0,1-5.22,3.66,28.94,28.94,0,0,1-5,2.06l1.05-.93a26.35,26.35,0,0,0,2.76-2.7,31.15,31.15,0,0,0,3.55-4.6,21.55,21.55,0,0,0,1.74-3.05,28.13,28.13,0,0,0,1.62-3.49,51.8,51.8,0,0,0,3.51-17.71,61.83,61.83,0,0,0-.57-10.18c-.19-1.75-.54-3.4-.85-5s-.91-3.63-1.33-5.43a72.77,72.77,0,0,0-3.65-9.7,60.8,60.8,0,0,0-4.94-8.92,51.58,51.58,0,0,0-12.42-13.1,36.61,36.61,0,0,0-6.34-3.73,30.12,30.12,0,0,0-5.44-2,24.85,24.85,0,0,0-3.8-.81Z"/><path class="cls-11" d="M946.68,1026.23c-15.9,0-30.86-13.32-36.37-32.38-6.47-22.39,2.71-44.79,20.47-49.92l16.93-4.9a13.52,13.52,0,0,1,3.79-.55c12.73,0,17.61,17.08,22.32,33.6l.91,3.15c2.3,7.95,4.81,17.08,5.53,24.92,1.29,14.09-4.22,18.71-9.06,20.1l-16.93,4.91A27.34,27.34,0,0,1,946.68,1026.23Z"/><path class="cls-2" d="M951.5,943.46c9.64,0,14.13,18.26,18.44,33.16,4.36,15.09,9.94,35.94-.13,38.84l-16.93,4.9a21.91,21.91,0,0,1-6.2.88c-13.31,0-26.63-11.65-31.57-28.77-5.72-19.79,1.91-39.37,17-43.75l16.94-4.9a8.63,8.63,0,0,1,2.4-.36m0-10h0a19,19,0,0,0-5.18.74l-16.92,4.9C909,945,898.28,970.2,905.52,995.24c6.12,21.19,23.05,36,41.16,36a32.3,32.3,0,0,0,9-1.27l12.87-3.72,4.07-1.18c5.44-1.57,14.32-7,12.63-25.35-.76-8.28-3.34-17.68-5.7-25.86l-.9-3.13c-5-17.44-10.62-37.22-27.12-37.22Z"/><path class="cls-11" d="M963.62,1021.33c-15.9,0-30.85-13.31-36.37-32.37-6.48-22.39,2.7-44.8,20.46-49.93a27.33,27.33,0,0,1,7.58-1.07c15.91,0,30.86,13.31,36.38,32.37,3.07,10.62,2.76,21.57-.85,30.85-3.8,9.75-10.77,16.52-19.62,19.07A27.33,27.33,0,0,1,963.62,1021.33Z"/><path class="cls-2" d="M955.29,943c13.31,0,26.63,11.65,31.59,28.76,5.71,19.79-1.92,39.38-17.07,43.75a22.2,22.2,0,0,1-6.19.88c-13.31,0-26.63-11.66-31.58-28.77-5.72-19.78,1.92-39.37,17.06-43.75a22.24,22.24,0,0,1,6.19-.87m0-10a32.34,32.34,0,0,0-9,1.26c-20.39,5.91-31.1,31.08-23.87,56.11,6.14,21.18,23.06,36,41.17,36a32.35,32.35,0,0,0,9-1.27c10.22-2.95,18.56-11,22.87-22.06,4-10.29,4.37-22.38,1-34-6.13-21.19-23.05-36-41.17-36Z"/><path class="cls-11" d="M1220.75,908.16c-15.9,0-30.86-13.31-36.37-32.37-6.47-22.39,2.7-44.79,20.46-49.93l17-4.9a13.77,13.77,0,0,1,3.78-.55c12.73,0,17.61,17.09,22.33,33.61l.9,3.14c4.67,16.18,11.72,40.62-3.53,45l-17,4.9A27.2,27.2,0,0,1,1220.75,908.16Z"/><path class="cls-2" d="M1225.57,825.4c9.64,0,14.13,18.26,18.44,33.15,4.35,15.1,9.94,35.94-.13,38.85l-16.94,4.9a22.24,22.24,0,0,1-6.19.87c-13.3,0-26.63-11.65-31.58-28.76-5.72-19.79,1.92-39.37,17.06-43.76l16.94-4.89a8.63,8.63,0,0,1,2.4-.36m0-10h0a18.85,18.85,0,0,0-5.17.75l-3.61,1-13.32,3.86c-20.42,5.9-31.13,31.07-23.88,56.11,6.13,21.18,23.05,36,41.16,36a32.28,32.28,0,0,0,9-1.27l17-4.9c20-5.79,11.83-34.21,6.94-51.19l-.9-3.14c-5-17.45-10.63-37.23-27.13-37.23Z"/><path class="cls-11" d="M1237.68,903.26c-15.9,0-30.86-13.31-36.37-32.37-3.07-10.61-2.76-21.57.85-30.85,3.8-9.74,10.77-16.52,19.63-19.08a27.2,27.2,0,0,1,7.57-1.07c15.91,0,30.86,13.32,36.37,32.38,3.07,10.61,2.77,21.57-.84,30.85-3.8,9.74-10.77,16.52-19.62,19.07A27.34,27.34,0,0,1,1237.68,903.26Z"/><path class="cls-2" d="M1229.36,824.88c13.3,0,26.62,11.66,31.57,28.77,5.73,19.78-1.91,39.37-17,43.75a22.26,22.26,0,0,1-6.2.87c-13.3,0-26.63-11.65-31.57-28.76-5.73-19.79,1.91-39.37,17.06-43.75a21.89,21.89,0,0,1,6.19-.88m0-10h0a31.86,31.86,0,0,0-9,1.27c-10.23,2.94-18.57,11-22.88,22.05-4,10.29-4.37,22.39-1,34,6.12,21.18,23,36,41.16,36a32.24,32.24,0,0,0,9-1.27c10.23-3,18.56-11,22.89-22.05,4-10.3,4.35-22.39,1-34-6.12-21.18-23-36-41.15-36Z"/><path class="cls-7" d="M1449.65,1090.43c-54,0-110.43-59.59-134.17-141.69-27-93.32-1.93-182.82,55.83-199.53l2-.59c9-2.61,22.53-6.56,33.16-6.56a33.63,33.63,0,0,1,6.29.55c45.82,8.87,88.82,64.64,112.22,145.54,17.79,61.53,24.58,141.53-9.74,181.56-8.08,9.44-22.71,12.65-35.62,15.47-3.82.83-7.42,1.62-10.46,2.5A70.47,70.47,0,0,1,1449.65,1090.43Z"/><path class="cls-2" d="M1406.5,747.05a28,28,0,0,1,5.34.46c46.71,9,87,68.24,108.37,142,20.06,69.31,21.17,142.06-8.73,176.92-9.26,10.82-30.61,12.65-43.68,16.43a65.06,65.06,0,0,1-18.15,2.55c-50.82,0-105.94-57-129.37-138.08C1294,856.54,1317.49,770,1372.7,754c8.78-2.54,23.08-7,33.8-7m0-10h0c-11.34,0-25.31,4.07-34.55,6.76l-2,.59c-30.18,8.73-52.78,35.57-63.62,75.58-10.38,38.26-8.82,84.47,4.38,130.12,24.35,84.19,82.78,145.3,139,145.3a75.36,75.36,0,0,0,20.92-3c2.88-.83,6.41-1.6,10.15-2.42,13-2.84,29.17-6.39,38.34-17.09,35.61-41.54,28.9-123.42,10.74-186.19-23.92-82.71-68.39-139.82-116.06-149.06a38.7,38.7,0,0,0-7.24-.64Z"/><path class="cls-7" d="M1473.77,1083.45c-54,0-110.43-59.59-134.17-141.68-27-93.32-1.94-182.83,55.83-199.53a69.9,69.9,0,0,1,19.52-2.75c54,0,110.44,59.59,134.17,141.69,27,93.31,2,182.82-55.81,199.52A70.09,70.09,0,0,1,1473.77,1083.45Z"/><path class="cls-2" d="M1415,744.48c50.83,0,106,57,129.38,138.09,26.26,90.82,2.79,177.38-52.41,193.34a65.06,65.06,0,0,1-18.15,2.55c-50.83,0-105.94-57-129.37-138.08-26.26-90.82-2.8-177.38,52.41-193.35a65,65,0,0,1,18.14-2.55m0-10h0a74.92,74.92,0,0,0-20.91,3c-30.18,8.72-52.77,35.56-63.61,75.57-10.38,38.26-8.82,84.48,4.38,130.13,24.34,84.19,82.78,145.29,139,145.29a75.36,75.36,0,0,0,20.92-2.94c30.17-8.73,52.77-35.57,63.61-75.58,10.38-38.26,8.82-84.47-4.39-130.13-24.34-84.18-82.78-145.29-139-145.29Z"/><path class="cls-2" d="M1468.94,1056.05c-45.49,0-93-50.06-112.94-119-22.67-78.43-1.49-153.71,47.23-167.8a59.72,59.72,0,0,1,16.55-2.33c45.49,0,93,50.06,113,119,22.67,78.44,1.49,153.72-47.23,167.8A59.37,59.37,0,0,1,1468.94,1056.05Z"/><path class="cls-2" d="M1419.79,771.88c42.48,0,88.54,47.68,108.14,115.43,22,75.91,2.33,148.28-43.82,161.62a54.28,54.28,0,0,1-15.17,2.13c-42.48,0-88.55-47.68-108.14-115.42-22-75.92-2.34-148.28,43.82-161.62a54.61,54.61,0,0,1,15.17-2.14m0-10v0h0a64.73,64.73,0,0,0-17.94,2.52c-25.79,7.46-45.08,30.3-54.3,64.32-8.75,32.27-7.45,71.21,3.67,109.66,20.55,71.05,70.06,122.63,117.73,122.63a64.86,64.86,0,0,0,18-2.52c25.79-7.47,45.08-30.31,54.3-64.32,8.75-32.27,7.44-71.22-3.67-109.66-20.56-71.06-70.07-122.63-117.73-122.63Z"/><path class="cls-4" d="M1449,967.33c-17.59,0-35.79-18.79-43.28-44.68-8.7-30.11-.36-58.1,19-63.69a24.2,24.2,0,0,1,6.78-1c17.6,0,35.81,18.79,43.29,44.68,8.71,30.12.35,58.1-19,63.7A24.51,24.51,0,0,1,1449,967.33Z"/><path class="cls-2" d="M1431.48,863c15.13,0,31.53,17,38.5,41.08,7.81,27,.83,52.77-15.6,57.52a19.45,19.45,0,0,1-5.4.75c-15.12,0-31.52-17-38.48-41.07-7.81-27-.84-52.77,15.59-57.52a19,19,0,0,1,5.39-.76m0-10h0a29.51,29.51,0,0,0-8.16,1.15c-22,6.38-31.89,37.07-22.41,69.88,8.22,28.43,28,48.28,48.07,48.28a29.53,29.53,0,0,0,8.17-1.15c22-6.37,31.89-37.07,22.41-69.87-8.22-28.43-28-48.29-48.08-48.29Z"/><path class="cls-5" d="M1426.09,863.75a19.19,19.19,0,0,0-4.08,1.78c14.24,18.88,26,39.45,30,63.22a100.84,100.84,0,0,1-.14,33.35,18.56,18.56,0,0,0,2.55-.51c16.43-4.75,23.41-30.5,15.6-57.52S1442.52,859,1426.09,863.75Z"/><path class="cls-2" d="M1426.43,871.56l1.18-.25a12.39,12.39,0,0,1,3.46-.38,24.85,24.85,0,0,1,12.18,3.69,44.2,44.2,0,0,1,13.1,12.35,59.69,59.69,0,0,1,5.16,8.73,67.91,67.91,0,0,1,3.74,9.73c.46,1.9.83,3.16,1.2,5s.67,3.55.84,5.25a58.51,58.51,0,0,1,.3,10.13,44.23,44.23,0,0,1-4.48,17.44,24.83,24.83,0,0,1-8.33,9.61,13.1,13.1,0,0,1-3.14,1.54l-1.13.42.83-.87a18.82,18.82,0,0,0,2.09-2.54,27,27,0,0,0,2.38-4.28,39,39,0,0,0,1.94-5.91,56.69,56.69,0,0,0,1-7.26,74.33,74.33,0,0,0,0-8.19,76.86,76.86,0,0,0-1.09-8.7c-.21-1.51-.61-2.89-.88-4.32s-.85-3.25-1.17-4.53a86.38,86.38,0,0,0-6.7-16.52,74.56,74.56,0,0,0-4.39-6.91,55.73,55.73,0,0,0-4.75-5.59,40,40,0,0,0-4.8-4,26.85,26.85,0,0,0-4.29-2.34,16.44,16.44,0,0,0-3.13-1Z"/><path class="cls-11" d="M1048.67,1268.78a5.05,5.05,0,0,1-1.84-.35,5,5,0,0,1-2.89-3l-71.6-213.17a5,5,0,0,1,2.7-6.14L1264.3,916.52a5,5,0,0,1,4.1,0,5,5,0,0,1,2.71,3.06l60.5,194.19a5,5,0,0,1-2.41,5.89L1051,1268.2A5.1,5.1,0,0,1,1048.67,1268.78Z"/><path class="cls-2" d="M1266.35,921.07l60.5,194.18-278.18,148.54-71.6-213.17,289.28-129.55m0-10a10,10,0,0,0-4.08.87L973,1041.52a10,10,0,0,0-5.39,12.28l71.6,213.16a10,10,0,0,0,14.16,5.63l278.18-148.53a10,10,0,0,0,4.83-11.77L1275.87,918.1a10,10,0,0,0-9.52-7Z"/><path class="cls-12" d="M1299.72,1134.73a5,5,0,0,1-4.76-3.5L1243,964.59,987.18,1079.18a5,5,0,0,1-6.77-3l-8.07-24a5,5,0,0,1,2.7-6.14L1264.3,916.52a5,5,0,0,1,4.1,0,5,5,0,0,1,2.71,3.06l60.5,194.19a5,5,0,0,1-2.41,5.89l-27.13,14.48A4.88,4.88,0,0,1,1299.72,1134.73Z"/><path class="cls-2" d="M1266.35,921.07l60.5,194.18-27.13,14.5-53.59-172-261,116.89-8.07-24,289.28-129.55m0-10a10,10,0,0,0-4.08.87L973,1041.52a10,10,0,0,0-5.39,12.28l8.07,24a10,10,0,0,0,5.45,6,10.15,10.15,0,0,0,4,.84,9.78,9.78,0,0,0,4.07-.88L1240,971.44l50.25,161.27a10,10,0,0,0,5.73,6.27,10.19,10.19,0,0,0,3.79.74,10,10,0,0,0,4.7-1.17l27.13-14.49a10,10,0,0,0,4.83-11.77L1275.87,918.1a10,10,0,0,0-9.52-7Z"/><line class="cls-13" x1="1243.46" y1="963.83" x2="1266.35" y2="921.07"/><path class="cls-12" d="M1068.51,1235.23a5,5,0,0,1-1.81-.33,5,5,0,0,1-2.9-3l-10.26-29.16a5,5,0,0,1,2.41-6.09l201.28-104.15a5.07,5.07,0,0,1,2.3-.56,4.83,4.83,0,0,1,1.93.39,5,5,0,0,1,2.84,3.12l8.38,26.86a5,5,0,0,1-2.42,5.89l-199.4,106.44A5,5,0,0,1,1068.51,1235.23Z"/><path class="cls-2" d="M1259.53,1096.94l8.38,26.87-199.4,106.44-10.26-29.16,201.28-104.15m0-10a9.84,9.84,0,0,0-4.58,1.12l-201.29,104.15a10,10,0,0,0-4.83,12.18l10.27,29.15a10,10,0,0,0,14.11,5.49l199.4-106.44a10,10,0,0,0,4.83-11.77l-8.39-26.87a10,10,0,0,0-9.52-7Z"/><path class="cls-12" d="M1030.36,1126.91a5.16,5.16,0,0,1-2-.39,5,5,0,0,1-2.74-2.93l-9.47-26.87a5,5,0,0,1,2.67-6.22l209-93.39a5,5,0,0,1,2-.43,4.88,4.88,0,0,1,2.05.44,5,5,0,0,1,2.72,3.07l8.4,26.94a5,5,0,0,1-2.72,6l-207.91,93.3A4.94,4.94,0,0,1,1030.36,1126.91Z"/><path class="cls-2" d="M1229.85,1001.67l8.4,27-207.89,93.3-9.47-26.87,209-93.39m0-10a9.93,9.93,0,0,0-4.07.87l-209,93.39a10,10,0,0,0-5.34,12.43l9.46,26.86a9.94,9.94,0,0,0,5.48,5.85,9.82,9.82,0,0,0,3.94.81,10,10,0,0,0,4.08-.87l207.9-93.3a10,10,0,0,0,5.44-12.08l-8.4-27a10,10,0,0,0-9.53-7Z"/><path class="cls-2" d="M1058.25,1206.08a5.05,5.05,0,0,1-1.84-.35,5,5,0,0,1-2.87-3l-27.89-79.16a5,5,0,0,1,2.66-6.21l207.9-93.31a5,5,0,0,1,6.81,3.07l21.28,68.32a5,5,0,0,1-2.48,5.91l-201.28,104.15A5,5,0,0,1,1058.25,1206.08Z"/><path class="cls-2" d="M1238.25,1028.63l21.28,68.31-201.28,104.15-27.89-79.16,207.89-93.3m0-10a10,10,0,0,0-4.08.87l-207.9,93.3a10,10,0,0,0-5.33,12.42l27.89,79.17a10,10,0,0,0,9.42,6.66,9.87,9.87,0,0,0,4.58-1.12l201.29-104.15a10,10,0,0,0,4.93-11.83l-21.27-68.32a10,10,0,0,0-5.42-6.13,10.15,10.15,0,0,0-4.11-.87Z"/><path class="cls-14" d="M819.65,926.43a4.88,4.88,0,0,1-2-.41,5,5,0,0,1-2.75-3l-17.58-52a5,5,0,0,1,2.7-6.15l53-23.64a5,5,0,0,1,2-.43,5.16,5.16,0,0,1,2,.41,5,5,0,0,1,2.72,3l17.39,51.49a5,5,0,0,1-2.65,6.13L821.73,926A5,5,0,0,1,819.65,926.43Z"/><path class="cls-2" d="M855.08,845.75l17.39,51.5-52.82,24.2-17.58-52.06,53-23.64m0-10a9.91,9.91,0,0,0-4.06.86l-53,23.65a10,10,0,0,0-5.39,12.3l17.58,52a10,10,0,0,0,13.61,5.88l52.82-24.2a10,10,0,0,0,5.31-12.27l-17.39-51.49a10,10,0,0,0-5.45-5.95,10.14,10.14,0,0,0-4-.83Z"/><path class="cls-14" d="M1402,659.7a5.05,5.05,0,0,1-2-.41,5,5,0,0,1-2.74-3l-15.52-45.92a5,5,0,0,1,2.7-6.16l28.85-12.86a5,5,0,0,1,6.82,3.16l13.45,46.53a5,5,0,0,1-2.71,5.92l-26.79,12.28A5,5,0,0,1,1402,659.7Z"/><path class="cls-2" d="M1415.33,595.91l13.45,46.53L1402,654.71l-15.51-45.93,28.85-12.87m0-10a9.92,9.92,0,0,0-4.06.87l-28.86,12.86A10,10,0,0,0,1377,612l15.51,45.93a10,10,0,0,0,13.6,5.88l26.8-12.27a10,10,0,0,0,5.42-11.84l-13.45-46.53a10,10,0,0,0-9.58-7.21Z"/><path class="cls-14" d="M897.11,891a5.05,5.05,0,0,1-2-.41,5,5,0,0,1-2.75-3l-17.3-51.24a5,5,0,0,1,2.69-6.14L1142.84,712a5,5,0,0,1,6.76,3L1166,763.38a5,5,0,0,1-2.65,6.14l-264.13,121A5,5,0,0,1,897.11,891Z"/><path class="cls-2" d="M1144.88,716.52,1161.24,765,897.11,886,879.8,834.73l265.08-118.21m0-10a10,10,0,0,0-4.07.87L875.74,825.62a10,10,0,0,0-5.39,12.3l17.31,51.24A10,10,0,0,0,901.27,895l264.13-121a10,10,0,0,0,5.3-12.26l-16.37-48.47a10,10,0,0,0-9.45-6.78Z"/><path class="cls-15" d="M1123,773.16c-15.84,18-41.07,25.55-62.94,33.45-28,10.09-55.5,19.91-80.89,35.67-8.79,5.46-17.9,11-25.76,17.91L1161.24,765l-16.36-48.46-16.52,7.37C1133.91,740.79,1136.26,758.09,1123,773.16Z"/><path class="cls-16" d="M910,837.46c14.26-15.34,33.37-23.71,50.95-34.48,7.35-4.5,14.55-9.21,21.65-14.07L879.8,834.73l14.75,43.64C895.05,863.4,899.41,848.8,910,837.46Z"/><path class="cls-14" d="M1324.53,695.18a5,5,0,0,1-4.73-3.4L1304,645a5,5,0,0,1,2.7-6.15l53-23.64a5,5,0,0,1,6.75,3l15.6,46.2a5,5,0,0,1-2.65,6.13l-52.82,24.19A5,5,0,0,1,1324.53,695.18Z"/><path class="cls-2" d="M1361.76,619.8,1377.35,666l-52.82,24.2-15.78-46.74,53-23.65m0-10a9.85,9.85,0,0,0-4.06.87l-53,23.64a10,10,0,0,0-5.38,12.31l15.78,46.74a10,10,0,0,0,5.49,6,10.05,10.05,0,0,0,8.11-.09l52.83-24.2a10,10,0,0,0,5.29-12.26l-15.59-46.19a10,10,0,0,0-9.45-6.79Z"/><path class="cls-14" d="M1184.42,759.36a5.05,5.05,0,0,1-2-.41,5,5,0,0,1-2.75-3l-16.29-48.21a5,5,0,0,1,2.69-6.16l53-23.64a5,5,0,0,1,6.75,3l16.1,47.66a5,5,0,0,1-2.65,6.14l-52.82,24.19A5,5,0,0,1,1184.42,759.36Z"/><path class="cls-2" d="M1221.14,682.51l16.1,47.66-52.82,24.2-16.3-48.22,53-23.64m0-10a10.12,10.12,0,0,0-4.07.86l-53,23.65a10,10,0,0,0-5.38,12.3L1175,757.56a10,10,0,0,0,13.61,5.88l52.82-24.2a10,10,0,0,0,5.3-12.26l-16.1-47.67a10,10,0,0,0-9.45-6.78Z"/><path class="cls-14" d="M1261.87,723.88a5,5,0,0,1-4.73-3.4l-16-47.4a5,5,0,0,1,2.7-6.15l39.62-17.68a5,5,0,0,1,6.76,3l15.87,47a5,5,0,0,1-2.65,6.13L1264,723.43A5,5,0,0,1,1261.87,723.88Z"/><path class="cls-2" d="M1285.5,653.81l15.86,47-39.49,18.09-16-47.41,39.63-17.67m0-10a9.93,9.93,0,0,0-4.07.87l-39.63,17.67a10,10,0,0,0-5.39,12.31l16,47.4a10,10,0,0,0,9.46,6.79A9.91,9.91,0,0,0,1266,728l39.49-18.09a10,10,0,0,0,5.29-12.26l-15.86-47a10,10,0,0,0-9.45-6.79Z"/><polygon class="cls-17" points="778.82 879.77 754.1 890.78 769.6 944.37 796.48 932.05 778.82 879.77"/><polygon class="cls-17" points="675.51 925.84 691.25 980.25 710.84 971.28 695.16 917.07 675.51 925.84"/><polygon class="cls-17" points="655.86 934.59 671.66 989.23 691.25 980.25 675.51 925.84 655.86 934.59"/><polygon class="cls-17" points="614.99 952.82 630.91 1007.89 652.08 998.2 636.22 943.36 614.99 952.82"/><polygon class="cls-17" points="636.22 943.36 652.08 998.2 671.66 989.23 655.86 934.59 636.22 943.36"/><polygon class="cls-17" points="695.16 917.07 710.84 971.28 730.42 962.31 714.81 908.31 695.16 917.07"/><polygon class="cls-17" points="734.45 899.55 750.01 953.34 769.6 944.37 754.1 890.78 734.45 899.55"/><polygon class="cls-17" points="714.81 908.31 730.42 962.31 750.01 953.34 734.45 899.55 714.81 908.31"/><line class="cls-4" x1="578.27" y1="1107.2" x2="670.27" y2="1061.12"/><path class="cls-2" d="M576,1102.74l94.24-41.62-89.77,50.54a5,5,0,1,1-4.9-8.7Z"/><path class="cls-2" d="M1026.6,987.91s9.45-5.95,24.17-13.66c7.34-3.91,16-8.25,25.33-12.73,4.69-2.18,9.48-4.59,14.46-6.78l15-6.75,15.17-6.44c5-2.17,10-4,14.8-6,9.64-3.82,18.71-7.2,26.56-9.92,15.66-5.54,26.46-8.42,26.46-8.42s-9.45,5.95-24.17,13.67c-7.33,3.9-16,8.26-25.33,12.72-4.69,2.19-9.48,4.6-14.46,6.78l-15,6.75-15.18,6.43c-5,2.16-10,4-14.8,6-9.64,3.82-18.71,7.2-26.56,9.93C1037.39,985,1026.6,987.91,1026.6,987.91Z"/><path class="cls-2" d="M1000.57,919.19s9.46-6,24.17-13.66c7.34-3.91,16-8.26,25.33-12.73,4.7-2.19,9.49-4.59,14.47-6.78l15-6.75,15.18-6.44c5-2.18,10-4,14.8-6,9.63-3.83,18.7-7.2,26.56-9.92,15.66-5.55,26.45-8.43,26.45-8.43s-9.45,6-24.16,13.68c-7.34,3.9-16,8.26-25.34,12.72-4.69,2.19-9.48,4.6-14.46,6.78l-15,6.75-15.17,6.43c-5,2.16-10,4-14.81,6-9.63,3.81-18.7,7.19-26.56,9.92C1011.36,916.3,1000.57,919.19,1000.57,919.19Z"/><line class="cls-4" x1="1044.06" y1="1312.62" x2="1361.66" y2="1140.21"/><path class="cls-2" d="M1044.06,1312.62s4.75-3.08,13.19-8.26,20.46-12.61,35.08-21.19,31.69-18.54,50.13-29c9.24-5.16,18.72-10.63,28.49-15.94l29.53-16.24,29.7-15.93c9.78-5.3,19.53-10.26,28.9-15.2,18.77-9.8,36.4-18.76,51.59-26.27s28-13.52,36.88-17.87,14.11-6.55,14.11-6.55-4.75,3.08-13.18,8.26-20.45,12.62-35.07,21.2-31.7,18.54-50.14,28.95c-9.24,5.16-18.72,10.64-28.49,16l-29.54,16.23-29.7,15.92c-9.78,5.29-19.53,10.26-28.9,15.2-18.78,9.79-36.4,18.75-51.59,26.26s-28,13.54-36.88,17.87S1044.06,1312.62,1044.06,1312.62Z"/><path class="cls-2" d="M793.35,1047.21c-.08,0,1.5-.53,4-1.21s6.1-1.62,10.44-2.46,9.41-1.62,14.87-2.2c2.73-.24,5.56-.45,8.44-.59s5.79-.23,8.71-.06,5.83.16,8.68.49a80.93,80.93,0,0,1,8.33,1.06,61.72,61.72,0,0,1,7.68,1.54,59,59,0,0,1,6.75,1.84l5.6,1.86,4.16,1.79,3.61,1.57-3.76-1.16-4.29-1.33-5.7-1.22a59.85,59.85,0,0,0-6.78-1.08,62.44,62.44,0,0,0-7.61-.67,73.07,73.07,0,0,0-8.14-.14c-2.76,0-5.57.21-8.38.44s-5.57.66-8.31,1-5.39.92-8,1.44c-5.13,1.11-9.86,2.33-13.83,3.61s-7.24,2.45-9.46,3.35-3.32,1.42-3.4,1.44a5,5,0,1,1-3.65-9.28Z"/><path class="cls-2" d="M887.45,1372.91c.07,0-1.5.52-4,1.2s-6.11,1.62-10.44,2.46-9.42,1.62-14.88,2.2c-2.73.25-5.56.45-8.43.59s-5.79.23-8.72.05-5.82-.15-8.68-.49a73.72,73.72,0,0,1-8.33-1.06,106.72,106.72,0,0,1-14.43-3.37l-5.59-1.85-4.17-1.81-3.61-1.56,3.76,1.16,4.3,1.33,5.7,1.22a59.73,59.73,0,0,0,6.77,1.07,60.81,60.81,0,0,0,7.61.68,73.19,73.19,0,0,0,8.14.13c2.77,0,5.58-.21,8.38-.43s5.58-.66,8.31-1,5.4-.92,8-1.43c5.12-1.12,9.85-2.33,13.83-3.62s7.24-2.45,9.45-3.34,3.32-1.43,3.4-1.45a5,5,0,0,1,3.66,9.29Z"/><path class="cls-2" d="M1398.88,766.33c-.09,0,1.28-.47,3.35-1a84.8,84.8,0,0,1,8.65-1.91,93.29,93.29,0,0,1,26.34-.84,77.36,77.36,0,0,1,13.69,2.69,54.29,54.29,0,0,1,6,2,39.88,39.88,0,0,1,5.24,2.21,57.09,57.09,0,0,1,7.44,4l2.74,1.64s-1.07-.45-2.93-1.26a56.44,56.44,0,0,0-7.82-2.92,36,36,0,0,0-5.34-1.45,54.09,54.09,0,0,0-6-1.15,73.83,73.83,0,0,0-13.24-.78,86.23,86.23,0,0,0-24.16,4,75.29,75.29,0,0,0-7.46,2.74c-1.77.75-2.51,1.17-2.61,1.21a5,5,0,1,1-3.89-9.19Z"/><path class="cls-2" d="M1491.3,1056.15c.09,0-1.31.48-3.44,1.06s-5.2,1.35-8.9,2a100.05,100.05,0,0,1-27.15,1.14,87.32,87.32,0,0,1-14.18-2.52,54.57,54.57,0,0,1-6.29-1.94,38.2,38.2,0,0,1-5.45-2.17,57.76,57.76,0,0,1-7.79-4l-2.86-1.63,3,1.25a58.8,58.8,0,0,0,8.13,2.87,37.47,37.47,0,0,0,5.55,1.4,53.47,53.47,0,0,0,6.27,1.08,64.11,64.11,0,0,0,6.76.59,59.83,59.83,0,0,0,7,0c2.33,0,4.65-.28,6.93-.49s4.49-.66,6.63-1c2.12-.48,4.18-.81,6.1-1.36s3.72-1,5.36-1.51a80.69,80.69,0,0,0,7.75-2.83c1.83-.77,2.63-1.22,2.72-1.25a5,5,0,0,1,3.85,9.21Z"/><path class="cls-2" d="M704,805s6.64-3.44,18.36-9.25S750.78,781.66,771,772s43.85-20.84,69.28-32.57l39.25-18,40.64-18.31,40.77-18c13.43-6,26.76-11.61,39.6-17.19,25.72-11.09,49.81-21.24,70.54-29.77s38.1-15.39,50.21-20.32,19.15-7.47,19.15-7.47-6.64,3.44-18.36,9.25-28.44,14.14-48.68,23.77-43.84,20.84-69.28,32.56c-12.73,5.82-25.83,12-39.25,18l-40.64,18.3-40.78,18-39.6,17.18c-25.72,11.08-49.81,21.24-70.53,29.77s-38.1,15.39-50.21,20.33S704,805,704,805Z"/><path class="cls-2" d="M403,915.51l102.87-44-98.54,53a5,5,0,1,1-4.73-8.79Z"/><path class="cls-2" d="M467.41,915.29l94.1-40.49L471.8,924.25A5,5,0,1,1,467,915.5,4.39,4.39,0,0,1,467.41,915.29Z"/><path class="cls-2" d="M1426.9,488.54l-102.87,44,98.54-53a5,5,0,1,1,4.73,8.8Z"/><path class="cls-2" d="M1328.23,493.82l-81.4,34.27,77-43.24a5,5,0,0,1,4.89,8.72Z"/><g class="cls-18"><path class="cls-19" d="M1147.23,377.5a12.18,12.18,0,0,0,23.39-6.77,11.88,11.88,0,0,0-2.13-4.12l-20,1.27A12.08,12.08,0,0,0,1147.23,377.5Z"/><path class="cls-19" d="M1110.55,376.1a11.53,11.53,0,1,0,14.29,7.87A11.52,11.52,0,0,0,1110.55,376.1Z"/><path class="cls-19" d="M1071.62,410.7a10.89,10.89,0,1,0-13.5-7.44A10.91,10.91,0,0,0,1071.62,410.7Z"/><path class="cls-19" d="M1013.56,416.14a10.25,10.25,0,1,0,9.91-13.05l-7.5,3.21A10.25,10.25,0,0,0,1013.56,416.14Z"/><path class="cls-19" d="M980.92,435.59a9.61,9.61,0,0,0,6.56-11.9,9.48,9.48,0,0,0-2.48-4.1l-16.33,7A9.91,9.91,0,0,0,969,429,9.62,9.62,0,0,0,980.92,435.59Z"/><path class="cls-19" d="M935.57,448a8.94,8.94,0,0,0,6.33-10L926,444.89A9,9,0,0,0,935.57,448Z"/><path class="cls-19" d="M893.08,459l-3.9,1.68a7.34,7.34,0,0,0,1-.2A8.11,8.11,0,0,0,893.08,459Z"/><path class="cls-19" d="M1166,398.62a12.18,12.18,0,1,0,15.08,8.32A12.18,12.18,0,0,0,1166,398.62Z"/><path class="cls-19" d="M1121,412.31a11.5,11.5,0,0,0-8,8.54l3.28,10.84a11.51,11.51,0,1,0,4.72-19.38Z"/><path class="cls-19" d="M1076,426a10.88,10.88,0,0,0-7.83,11.1l18.73-8.09A10.84,10.84,0,0,0,1076,426Z"/><path class="cls-19" d="M1043.73,446.66a10.25,10.25,0,1,0-18.12,8.83l18.29-7.91C1043.84,447.28,1043.82,447,1043.73,446.66Z"/><path class="cls-19" d="M998,459.9a9.61,9.61,0,1,0-10.66,12.15l9.28-4A9.57,9.57,0,0,0,998,459.9Z"/><path class="cls-19" d="M952.16,473.14A9,9,0,1,0,946,484.25,9,9,0,0,0,952.16,473.14Z"/><path class="cls-19" d="M906.38,486.38a8.33,8.33,0,1,0-5.68,10.31A8.33,8.33,0,0,0,906.38,486.38Z"/><path class="cls-19" d="M860.6,499.61a7.69,7.69,0,1,0-5.26,9.53A7.7,7.7,0,0,0,860.6,499.61Z"/><path class="cls-19" d="M806.08,508a7,7,0,1,0,8.73,4.82A7,7,0,0,0,806.08,508Z"/><path class="cls-19" d="M764.65,534a6.41,6.41,0,1,0-7.94-4.38A6.41,6.41,0,0,0,764.65,534Z"/><path class="cls-19" d="M719.3,546.47a5.77,5.77,0,1,0-7.14-3.93A5.77,5.77,0,0,0,719.3,546.47Z"/><path class="cls-19" d="M674,558.92a5.13,5.13,0,0,0,3.5-6.35,5.27,5.27,0,0,0-.39-1l-9.37,4A5.12,5.12,0,0,0,674,558.92Z"/><path class="cls-19" d="M1176.48,434.84a12.17,12.17,0,1,0,15.07,8.31A12.16,12.16,0,0,0,1176.48,434.84Z"/><path class="cls-19" d="M1131.49,448.51a11.47,11.47,0,0,0-7.8,7.69l3.7,12.3a11.53,11.53,0,1,0,4.1-20Z"/><path class="cls-19" d="M816.55,544.25a7,7,0,0,0-4.23,3.41l7.95-3.44A6.92,6.92,0,0,0,816.55,544.25Z"/><path class="cls-19" d="M771.56,557.93a6.41,6.41,0,0,0-4.38,7.93,8.31,8.31,0,0,0,.45,1.11l11.71-5.06A6.38,6.38,0,0,0,771.56,557.93Z"/><path class="cls-19" d="M729.77,582.68a5.77,5.77,0,1,0-7.14-3.94A5.77,5.77,0,0,0,729.77,582.68Z"/><path class="cls-19" d="M687.93,588.78a5.13,5.13,0,1,0-3.51,6.34A5.13,5.13,0,0,0,687.93,588.78Z"/><path class="cls-19" d="M642.14,602a4.49,4.49,0,1,0-3.06,5.55A4.48,4.48,0,0,0,642.14,602Z"/><path class="cls-19" d="M596.36,615.26a3.85,3.85,0,1,0-2.63,4.76A3.86,3.86,0,0,0,596.36,615.26Z"/><path class="cls-19" d="M546.6,626.31a3.2,3.2,0,1,0,4,2.19A3.21,3.21,0,0,0,546.6,626.31Z"/><path class="cls-19" d="M501.61,640a2.57,2.57,0,1,0,3.18,1.75A2.57,2.57,0,0,0,501.61,640Z"/><path class="cls-19" d="M1187,471a12.17,12.17,0,1,0,15.08,8.32A12.17,12.17,0,0,0,1187,471Z"/><path class="cls-19" d="M1142,484.72a11.44,11.44,0,0,0-7.55,7l4,13.33a11.51,11.51,0,1,0,3.53-20.37Z"/><path class="cls-19" d="M557.07,662.52a3.2,3.2,0,1,0,4,2.18A3.2,3.2,0,0,0,557.07,662.52Z"/><path class="cls-19" d="M513.51,681.12a2.57,2.57,0,1,0-3.17-1.75A2.56,2.56,0,0,0,513.51,681.12Z"/><path class="cls-19" d="M1341.7,492.71l-9.48.52a12.54,12.54,0,0,0,9.48-.52Z"/><path class="cls-19" d="M1294.88,505.75a13.44,13.44,0,0,0,9.55-11l-26.29,1.43c0,.13,0,.25.07.38A13.47,13.47,0,0,0,1294.88,505.75Z"/><path class="cls-19" d="M1249.53,518.19a12.72,12.72,0,0,0,6-20.76l-16.33.89-4.88,2.32a12.75,12.75,0,0,0,15.19,17.55Z"/><path class="cls-19" d="M1197.42,507.25a12.17,12.17,0,1,0,15.08,8.31A12.16,12.16,0,0,0,1197.42,507.25Z"/><path class="cls-19" d="M1152.43,520.93a11.38,11.38,0,0,0-7.29,6.43l4.14,13.73-.41.2a11.52,11.52,0,1,0,3.56-20.36Z"/><path class="cls-19" d="M567.54,698.72a3.21,3.21,0,1,0,4,2.19A3.21,3.21,0,0,0,567.54,698.72Z"/><path class="cls-19" d="M524,717.32a2.56,2.56,0,1,0-3.18-1.75A2.56,2.56,0,0,0,524,717.32Z"/><path class="cls-19" d="M1477.1,491.93l-2-6.52-6,.33A16,16,0,0,0,1477.1,491.93Z"/><path class="cls-19" d="M1441.39,504.62a15.33,15.33,0,0,0,10.7-17.95l-30.25,1.65a15.33,15.33,0,0,0,19.55,16.3Z"/><path class="cls-19" d="M1377.8,507a14.74,14.74,0,1,0,20.38-17.38l-13.88.76A14.68,14.68,0,0,0,1377.8,507Z"/><path class="cls-19" d="M1342.87,502.43a14.09,14.09,0,1,0,17.45,9.62A14.1,14.1,0,0,0,1342.87,502.43Z"/><path class="cls-19" d="M1297.87,516.11a13.46,13.46,0,1,0,16.66,9.18A13.44,13.44,0,0,0,1297.87,516.11Z"/><path class="cls-19" d="M1252.89,529.78a12.81,12.81,0,1,0,15.86,8.75A12.82,12.82,0,0,0,1252.89,529.78Z"/><path class="cls-19" d="M1207.89,543.45a12.18,12.18,0,1,0,15.07,8.32A12.17,12.17,0,0,0,1207.89,543.45Z"/><path class="cls-19" d="M1162.9,557.13a11.53,11.53,0,1,0,14.28,7.88A11.55,11.55,0,0,0,1162.9,557.13Z"/><path class="cls-19" d="M1117.91,570.81a10.89,10.89,0,1,0,13.48,7.44A10.88,10.88,0,0,0,1117.91,570.81Z"/><path class="cls-19" d="M1072.91,584.48a10.26,10.26,0,1,0,12.7,7A10.26,10.26,0,0,0,1072.91,584.48Z"/><path class="cls-19" d="M1021.36,610.06a9.61,9.61,0,1,0,8.63-12.24l-6.38,3A9.57,9.57,0,0,0,1021.36,610.06Z"/><path class="cls-19" d="M987.92,629.07a8.86,8.86,0,0,0,4.92-13.59l-16,7.6A9,9,0,0,0,987.92,629.07Z"/><path class="cls-19" d="M942.57,641.52a8.26,8.26,0,0,0,5.27-4.64l-9.77,4.65A8.29,8.29,0,0,0,942.57,641.52Z"/><path class="cls-19" d="M578,734.93a3.21,3.21,0,1,0,4,2.19A3.2,3.2,0,0,0,578,734.93Z"/><path class="cls-19" d="M534.45,753.53a2.56,2.56,0,1,0-3.18-1.75A2.57,2.57,0,0,0,534.45,753.53Z"/><path class="cls-19" d="M1488.46,528.41l-8-25.69a16,16,0,0,0,8,25.69Z"/><path class="cls-19" d="M1443.32,511.28a15.38,15.38,0,1,0,19,10.5A15.38,15.38,0,0,0,1443.32,511.28Z"/><path class="cls-19" d="M1398.33,525A14.73,14.73,0,1,0,1416.58,535,14.73,14.73,0,0,0,1398.33,525Z"/><path class="cls-19" d="M1353.34,538.63a14.1,14.1,0,1,0,17.45,9.63A14.11,14.11,0,0,0,1353.34,538.63Z"/><path class="cls-19" d="M1308.34,552.31A13.46,13.46,0,1,0,1325,561.5,13.46,13.46,0,0,0,1308.34,552.31Z"/><path class="cls-19" d="M1263.36,566a12.82,12.82,0,1,0,15.86,8.76A12.83,12.83,0,0,0,1263.36,566Z"/><path class="cls-19" d="M1218.36,579.66a12.17,12.17,0,1,0,15.08,8.32A12.18,12.18,0,0,0,1218.36,579.66Z"/><path class="cls-19" d="M1173.37,593.34a11.53,11.53,0,1,0,14.28,7.88A11.54,11.54,0,0,0,1173.37,593.34Z"/><path class="cls-19" d="M1128.38,607a10.89,10.89,0,1,0,13.49,7.44A10.88,10.88,0,0,0,1128.38,607Z"/><path class="cls-19" d="M1083.38,620.7a10.25,10.25,0,1,0,12.7,7A10.24,10.24,0,0,0,1083.38,620.7Z"/><path class="cls-19" d="M1038.39,634.37a9.61,9.61,0,1,0,11.91,6.57A9.62,9.62,0,0,0,1038.39,634.37Z"/><path class="cls-19" d="M993.41,648.05a9,9,0,1,0,11.1,6.13A9,9,0,0,0,993.41,648.05Z"/><path class="cls-19" d="M948.41,661.73a8.33,8.33,0,1,0,10.32,5.68A8.32,8.32,0,0,0,948.41,661.73Z"/><path class="cls-19" d="M903.42,675.4a7.69,7.69,0,1,0,9.52,5.25A7.69,7.69,0,0,0,903.42,675.4Z"/><path class="cls-19" d="M858.43,689.08a7,7,0,1,0,8.73,4.81A7,7,0,0,0,858.43,689.08Z"/><path class="cls-19" d="M813.44,702.76a6.4,6.4,0,1,0,7.93,4.37A6.39,6.39,0,0,0,813.44,702.76Z"/><path class="cls-19" d="M771.65,727.51a5.76,5.76,0,0,0,3.94-7.14,5.66,5.66,0,0,0-.58-1.3L764.68,724A5.73,5.73,0,0,0,771.65,727.51Z"/><path class="cls-19" d="M588.48,771.14a3.21,3.21,0,1,0,4,2.19A3.21,3.21,0,0,0,588.48,771.14Z"/><path class="cls-19" d="M544.92,789.74a2.56,2.56,0,1,0-3.17-1.75A2.55,2.55,0,0,0,544.92,789.74Z"/><path class="cls-19" d="M1499.82,564.85l-8.28-26.58a16,16,0,0,0,8.28,26.58Z"/><path class="cls-19" d="M1453.79,547.49a15.38,15.38,0,1,0,19,10.5A15.37,15.37,0,0,0,1453.79,547.49Z"/><path class="cls-19" d="M1408.8,561.16a14.74,14.74,0,1,0,18.25,10.07A14.76,14.76,0,0,0,1408.8,561.16Z"/><path class="cls-19" d="M1363.81,574.84a14.09,14.09,0,1,0,17.45,9.62A14.1,14.1,0,0,0,1363.81,574.84Z"/><path class="cls-19" d="M1318.81,588.52a13.46,13.46,0,1,0,16.66,9.19A13.45,13.45,0,0,0,1318.81,588.52Z"/><path class="cls-19" d="M1273.82,602.19A12.81,12.81,0,1,0,1289.7,611,12.82,12.82,0,0,0,1273.82,602.19Z"/><path class="cls-19" d="M1228.83,615.87a12.17,12.17,0,1,0,15.08,8.31A12.17,12.17,0,0,0,1228.83,615.87Z"/><path class="cls-19" d="M1183.84,629.55a11.53,11.53,0,1,0,14.28,7.88A11.53,11.53,0,0,0,1183.84,629.55Z"/><path class="cls-19" d="M1138.85,643.23a10.89,10.89,0,1,0,13.49,7.43A10.88,10.88,0,0,0,1138.85,643.23Z"/><path class="cls-19" d="M1093.85,656.9a10.26,10.26,0,1,0,12.7,7A10.25,10.25,0,0,0,1093.85,656.9Z"/><path class="cls-19" d="M1048.86,670.58a9.61,9.61,0,1,0,11.91,6.56A9.62,9.62,0,0,0,1048.86,670.58Z"/><path class="cls-19" d="M1003.88,684.25a9,9,0,1,0,11.1,6.13A9,9,0,0,0,1003.88,684.25Z"/><path class="cls-19" d="M958.89,697.93a8.33,8.33,0,1,0,10.31,5.69A8.32,8.32,0,0,0,958.89,697.93Z"/><path class="cls-19" d="M913.89,711.61a7.69,7.69,0,1,0,9.52,5.25A7.69,7.69,0,0,0,913.89,711.61Z"/><path class="cls-19" d="M868.9,725.29a7,7,0,1,0,8.73,4.81A7,7,0,0,0,868.9,725.29Z"/><path class="cls-19" d="M823.91,739a6.41,6.41,0,1,0,7.94,4.38A6.41,6.41,0,0,0,823.91,739Z"/><path class="cls-19" d="M778.92,752.64a5.77,5.77,0,1,0,7.14,3.94A5.77,5.77,0,0,0,778.92,752.64Z"/><path class="cls-19" d="M733.93,766.32a5.12,5.12,0,1,0,6.35,3.5A5.11,5.11,0,0,0,733.93,766.32Z"/><path class="cls-19" d="M688.93,780a4.49,4.49,0,1,0,5.56,3.06A4.5,4.5,0,0,0,688.93,780Z"/><path class="cls-19" d="M644,793.67a3.84,3.84,0,1,0,4.76,2.62A3.85,3.85,0,0,0,644,793.67Z"/><path class="cls-19" d="M599,807.35a3.2,3.2,0,1,0,4,2.19A3.18,3.18,0,0,0,599,807.35Z"/><path class="cls-19" d="M555.39,826a2.57,2.57,0,1,0-3.18-1.75A2.57,2.57,0,0,0,555.39,826Z"/><path class="cls-19" d="M1511.15,601.2l-8.53-27.36a16,16,0,0,0,8.53,27.36Z"/><path class="cls-19" d="M1464.25,583.7a15.38,15.38,0,1,0,19,10.49A15.35,15.35,0,0,0,1464.25,583.7Z"/><path class="cls-19" d="M1419.27,597.37a14.73,14.73,0,1,0,18.25,10.06A14.74,14.74,0,0,0,1419.27,597.37Z"/><path class="cls-19" d="M1374.28,611.05a14.09,14.09,0,1,0,17.45,9.62A14.1,14.1,0,0,0,1374.28,611.05Z"/><path class="cls-19" d="M1329.28,624.72a13.46,13.46,0,1,0,16.66,9.19A13.48,13.48,0,0,0,1329.28,624.72Z"/><path class="cls-19" d="M1284.3,638.4a12.81,12.81,0,1,0,15.86,8.75A12.81,12.81,0,0,0,1284.3,638.4Z"/><path class="cls-19" d="M1239.3,652.07a12.18,12.18,0,1,0,15.08,8.32A12.18,12.18,0,0,0,1239.3,652.07Z"/><path class="cls-19" d="M1194.31,665.75a11.53,11.53,0,1,0,14.28,7.88A11.55,11.55,0,0,0,1194.31,665.75Z"/><path class="cls-19" d="M1149.32,679.43a10.89,10.89,0,1,0,13.48,7.44A10.88,10.88,0,0,0,1149.32,679.43Z"/><path class="cls-19" d="M1104.32,693.11a10.25,10.25,0,1,0,12.7,7A10.24,10.24,0,0,0,1104.32,693.11Z"/><path class="cls-19" d="M1059.33,706.79a9.61,9.61,0,1,0,11.91,6.55A9.6,9.6,0,0,0,1059.33,706.79Z"/><path class="cls-19" d="M1014.34,720.46a9,9,0,1,0,11.11,6.13A9,9,0,0,0,1014.34,720.46Z"/><path class="cls-19" d="M969.36,734.13a8.33,8.33,0,1,0,10.31,5.69A8.33,8.33,0,0,0,969.36,734.13Z"/><path class="cls-19" d="M924.36,747.81a7.69,7.69,0,1,0,9.52,5.25A7.7,7.7,0,0,0,924.36,747.81Z"/><path class="cls-19" d="M879.37,761.49a7,7,0,1,0,8.73,4.81A7.06,7.06,0,0,0,879.37,761.49Z"/><path class="cls-19" d="M834.38,775.16a6.41,6.41,0,1,0,7.93,4.38A6.42,6.42,0,0,0,834.38,775.16Z"/><path class="cls-19" d="M789.39,788.84a5.77,5.77,0,1,0,7.14,3.95A5.77,5.77,0,0,0,789.39,788.84Z"/><path class="cls-19" d="M744.39,802.52a5.13,5.13,0,1,0,6.35,3.5A5.14,5.14,0,0,0,744.39,802.52Z"/><path class="cls-19" d="M699.41,816.2a4.49,4.49,0,1,0,5.55,3.06A4.48,4.48,0,0,0,699.41,816.2Z"/><path class="cls-19" d="M654.41,829.88a3.84,3.84,0,1,0,4.77,2.62A3.82,3.82,0,0,0,654.41,829.88Z"/><path class="cls-19" d="M609.42,843.55a3.21,3.21,0,1,0,4,2.19A3.21,3.21,0,0,0,609.42,843.55Z"/><path class="cls-19" d="M565.86,862.15a2.56,2.56,0,1,0-3.18-1.75A2.57,2.57,0,0,0,565.86,862.15Z"/><path class="cls-19" d="M519.44,870.91a1.91,1.91,0,0,0-1.31,2.38,1.92,1.92,0,1,0,3.69-1.07A1.91,1.91,0,0,0,519.44,870.91Z"/><path class="cls-19" d="M475.16,887a1.29,1.29,0,0,0,.88-1.59,1.29,1.29,0,1,0-.88,1.59Z"/><path class="cls-19" d="M429.81,899.49a.63.63,0,0,0,.44-.79.64.64,0,1,0-.44.79Z"/><path class="cls-19" d="M1522.48,637.54l-8.75-28.06a16,16,0,0,0,8.75,28.06Z"/><path class="cls-19" d="M1474.73,619.9a15.38,15.38,0,1,0,19,10.5A15.38,15.38,0,0,0,1474.73,619.9Z"/><path class="cls-19" d="M1429.74,633.58A14.73,14.73,0,1,0,1448,643.64,14.74,14.74,0,0,0,1429.74,633.58Z"/><path class="cls-19" d="M1384.74,647.25a14.1,14.1,0,1,0,17.46,9.63A14.1,14.1,0,0,0,1384.74,647.25Z"/><path class="cls-19" d="M1339.75,660.93a13.46,13.46,0,1,0,16.66,9.19A13.47,13.47,0,0,0,1339.75,660.93Z"/><path class="cls-19" d="M1294.77,674.61a12.81,12.81,0,1,0,15.86,8.75A12.82,12.82,0,0,0,1294.77,674.61Z"/><path class="cls-19" d="M1249.77,688.29a12.17,12.17,0,1,0,15.08,8.31A12.16,12.16,0,0,0,1249.77,688.29Z"/><path class="cls-19" d="M1204.78,702a11.53,11.53,0,1,0,14.28,7.88A11.53,11.53,0,0,0,1204.78,702Z"/><path class="cls-19" d="M1159.79,715.64a10.89,10.89,0,1,0,13.49,7.44A10.88,10.88,0,0,0,1159.79,715.64Z"/><path class="cls-19" d="M1114.79,729.32a10.25,10.25,0,1,0,12.7,7A10.25,10.25,0,0,0,1114.79,729.32Z"/><path class="cls-19" d="M1069.8,743a9.61,9.61,0,1,0,11.91,6.56A9.61,9.61,0,0,0,1069.8,743Z"/><path class="cls-19" d="M1024.82,756.67a9,9,0,1,0,11.1,6.12A9,9,0,0,0,1024.82,756.67Z"/><path class="cls-19" d="M979.82,770.34A8.33,8.33,0,1,0,990.14,776,8.33,8.33,0,0,0,979.82,770.34Z"/><path class="cls-19" d="M934.83,784a7.69,7.69,0,1,0,9.52,5.25A7.69,7.69,0,0,0,934.83,784Z"/><path class="cls-19" d="M889.84,797.7a7,7,0,1,0,8.73,4.81A7.06,7.06,0,0,0,889.84,797.7Z"/><path class="cls-19" d="M844.85,811.38a6.41,6.41,0,1,0,7.93,4.37A6.39,6.39,0,0,0,844.85,811.38Z"/><path class="cls-19" d="M799.86,825.05A5.77,5.77,0,1,0,807,829,5.77,5.77,0,0,0,799.86,825.05Z"/><path class="cls-19" d="M754.86,838.73a5.13,5.13,0,1,0,6.35,3.5A5.14,5.14,0,0,0,754.86,838.73Z"/><path class="cls-19" d="M709.87,852.41a4.48,4.48,0,1,0,5.56,3.06A4.49,4.49,0,0,0,709.87,852.41Z"/><path class="cls-19" d="M664.89,866.08a3.85,3.85,0,1,0,4.75,2.63A3.84,3.84,0,0,0,664.89,866.08Z"/><path class="cls-19" d="M619.89,879.76a3.2,3.2,0,1,0,4,2.19A3.21,3.21,0,0,0,619.89,879.76Z"/><path class="cls-19" d="M576.33,898.36a2.56,2.56,0,1,0-3.18-1.75A2.55,2.55,0,0,0,576.33,898.36Z"/><path class="cls-19" d="M531,910.8a1.9,1.9,0,0,0,1.31-2.37A1.92,1.92,0,1,0,531,910.8Z"/><path class="cls-19" d="M485.63,923.25a1.28,1.28,0,1,0-1.59-.87A1.28,1.28,0,0,0,485.63,923.25Z"/><path class="cls-19" d="M440.29,935.7a.65.65,0,1,0-.8-.44A.64.64,0,0,0,440.29,935.7Z"/><path class="cls-19" d="M1533.77,673.8l-8.93-28.64a16,16,0,0,0,8.93,28.64Z"/><path class="cls-19" d="M1485.2,656.11a15.37,15.37,0,1,0,19,10.5A15.37,15.37,0,0,0,1485.2,656.11Z"/><path class="cls-19" d="M1440.21,669.78a14.74,14.74,0,1,0,18.25,10.07A14.75,14.75,0,0,0,1440.21,669.78Z"/><path class="cls-19" d="M1395.21,683.46a14.1,14.1,0,1,0,17.46,9.63A14.09,14.09,0,0,0,1395.21,683.46Z"/><path class="cls-19" d="M1350.22,697.14a13.46,13.46,0,1,0,16.66,9.18A13.47,13.47,0,0,0,1350.22,697.14Z"/><path class="cls-19" d="M1305.23,710.82a12.81,12.81,0,1,0,15.88,8.74A12.8,12.8,0,0,0,1305.23,710.82Z"/><path class="cls-19" d="M1260.24,724.49a12.17,12.17,0,1,0,15.08,8.31A12.17,12.17,0,0,0,1260.24,724.49Z"/><path class="cls-19" d="M1215.25,738.17a11.53,11.53,0,1,0,14.29,7.87A11.53,11.53,0,0,0,1215.25,738.17Z"/><path class="cls-19" d="M1170.26,751.84a10.89,10.89,0,1,0,13.49,7.44A10.9,10.9,0,0,0,1170.26,751.84Z"/><path class="cls-19" d="M1125.26,765.52a10.25,10.25,0,1,0,12.7,7A10.25,10.25,0,0,0,1125.26,765.52Z"/><path class="cls-19" d="M1080.27,779.2a9.61,9.61,0,1,0,11.91,6.56A9.61,9.61,0,0,0,1080.27,779.2Z"/><path class="cls-19" d="M1035.29,792.88a9,9,0,1,0,11.1,6.12A9,9,0,0,0,1035.29,792.88Z"/><path class="cls-19" d="M990.3,806.55a8.33,8.33,0,1,0,10.31,5.69A8.33,8.33,0,0,0,990.3,806.55Z"/><path class="cls-19" d="M945.3,820.23a7.69,7.69,0,1,0,9.52,5.25A7.69,7.69,0,0,0,945.3,820.23Z"/><path class="cls-19" d="M900.31,833.91a7,7,0,1,0,8.73,4.81A7,7,0,0,0,900.31,833.91Z"/><path class="cls-19" d="M855.32,847.58a6.41,6.41,0,1,0,7.93,4.38A6.41,6.41,0,0,0,855.32,847.58Z"/><path class="cls-19" d="M810.33,861.26a5.77,5.77,0,1,0,7.14,3.94A5.76,5.76,0,0,0,810.33,861.26Z"/><path class="cls-19" d="M765.33,874.94a5.12,5.12,0,1,0,6.35,3.5A5.12,5.12,0,0,0,765.33,874.94Z"/><path class="cls-19" d="M720.34,888.61a4.49,4.49,0,1,0,5.56,3.07A4.49,4.49,0,0,0,720.34,888.61Z"/><path class="cls-19" d="M675.36,902.29a3.84,3.84,0,1,0,4.76,2.62A3.85,3.85,0,0,0,675.36,902.29Z"/><path class="cls-19" d="M630.36,916a3.2,3.2,0,1,0,4,2.18A3.18,3.18,0,0,0,630.36,916Z"/><path class="cls-19" d="M586.8,934.57a2.57,2.57,0,1,0-3.18-1.75A2.57,2.57,0,0,0,586.8,934.57Z"/><path class="cls-19" d="M541.45,947a1.92,1.92,0,1,0-1.07-3.69,1.92,1.92,0,0,0,1.07,3.69Z"/><path class="cls-19" d="M496.1,959.46a1.29,1.29,0,1,0-1.58-.88A1.29,1.29,0,0,0,496.1,959.46Z"/><path class="cls-19" d="M450.75,971.9a.64.64,0,1,0-.35-1.23.64.64,0,0,0-.44.79A.63.63,0,0,0,450.75,971.9Z"/><path class="cls-19" d="M1545.05,710,1536,680.88a16,16,0,0,0,9.08,29.16Z"/><path class="cls-19" d="M1495.66,692.31a15.38,15.38,0,1,0,19,10.5A15.38,15.38,0,0,0,1495.66,692.31Z"/><path class="cls-19" d="M1450.67,706a14.74,14.74,0,1,0,18.26,10.06A14.74,14.74,0,0,0,1450.67,706Z"/><path class="cls-19" d="M1405.68,719.67a14.09,14.09,0,1,0,17.46,9.62A14.1,14.1,0,0,0,1405.68,719.67Z"/><path class="cls-19" d="M1360.68,733.34a13.46,13.46,0,1,0,16.67,9.2A13.49,13.49,0,0,0,1360.68,733.34Z"/><path class="cls-19" d="M1315.71,747a12.81,12.81,0,1,0,15.86,8.75A12.8,12.8,0,0,0,1315.71,747Z"/><path class="cls-19" d="M1270.71,760.7a12.18,12.18,0,1,0,15.07,8.31A12.17,12.17,0,0,0,1270.71,760.7Z"/><path class="cls-19" d="M1225.71,774.38a11.53,11.53,0,1,0,14.29,7.87A11.53,11.53,0,0,0,1225.71,774.38Z"/><path class="cls-19" d="M1180.73,788.05a10.89,10.89,0,1,0,13.48,7.44A10.88,10.88,0,0,0,1180.73,788.05Z"/><path class="cls-19" d="M1135.73,801.73a10.25,10.25,0,1,0,12.7,7A10.25,10.25,0,0,0,1135.73,801.73Z"/><path class="cls-19" d="M1090.74,815.4a9.61,9.61,0,1,0,11.91,6.57A9.62,9.62,0,0,0,1090.74,815.4Z"/><path class="cls-19" d="M1045.75,829.08a9,9,0,1,0,11.11,6.13A9,9,0,0,0,1045.75,829.08Z"/><path class="cls-19" d="M1000.77,842.76a8.33,8.33,0,1,0,10.31,5.69A8.33,8.33,0,0,0,1000.77,842.76Z"/><path class="cls-19" d="M955.77,856.43a7.69,7.69,0,1,0,9.52,5.26A7.7,7.7,0,0,0,955.77,856.43Z"/><path class="cls-19" d="M910.78,870.11a7,7,0,1,0,8.72,4.82A7.05,7.05,0,0,0,910.78,870.11Z"/><path class="cls-19" d="M865.79,883.79a6.41,6.41,0,1,0,7.93,4.37A6.41,6.41,0,0,0,865.79,883.79Z"/><path class="cls-19" d="M820.8,897.46a5.77,5.77,0,1,0,7.13,3.94A5.77,5.77,0,0,0,820.8,897.46Z"/><path class="cls-19" d="M775.8,911.14a5.13,5.13,0,1,0,6.35,3.5A5.14,5.14,0,0,0,775.8,911.14Z"/><path class="cls-19" d="M730.82,924.82a4.48,4.48,0,1,0,5.55,3.06A4.49,4.49,0,0,0,730.82,924.82Z"/><path class="cls-19" d="M685.82,938.5a3.84,3.84,0,1,0,4.77,2.62A3.84,3.84,0,0,0,685.82,938.5Z"/><path class="cls-19" d="M640.83,952.18a3.2,3.2,0,1,0,4,2.18A3.19,3.19,0,0,0,640.83,952.18Z"/><path class="cls-19" d="M597.27,970.77a2.56,2.56,0,1,0-3.18-1.75A2.57,2.57,0,0,0,597.27,970.77Z"/><path class="cls-19" d="M551.92,983.22a1.93,1.93,0,1,0-2.38-1.31A1.92,1.92,0,0,0,551.92,983.22Z"/><path class="cls-19" d="M506.57,995.66a1.28,1.28,0,1,0-1.59-.87A1.28,1.28,0,0,0,506.57,995.66Z"/><path class="cls-19" d="M461.22,1008.11a.64.64,0,0,0,.44-.79.63.63,0,0,0-.79-.44.64.64,0,0,0,.35,1.23Z"/><path class="cls-19" d="M1556.33,746.22l-9.21-29.58a16,16,0,0,0,9.21,29.58Z"/><path class="cls-19" d="M1506.14,728.52a15.38,15.38,0,1,0,19,10.5A15.37,15.37,0,0,0,1506.14,728.52Z"/><path class="cls-19" d="M1461.15,742.2a14.73,14.73,0,1,0,18.25,10.06A14.74,14.74,0,0,0,1461.15,742.2Z"/><path class="cls-19" d="M1416.15,755.88a14.09,14.09,0,1,0,17.46,9.62A14.09,14.09,0,0,0,1416.15,755.88Z"/><path class="cls-19" d="M1371.16,769.55a13.46,13.46,0,1,0,16.66,9.19A13.46,13.46,0,0,0,1371.16,769.55Z"/><path class="cls-19" d="M1326.18,783.23A12.81,12.81,0,1,0,1342,792,12.81,12.81,0,0,0,1326.18,783.23Z"/><path class="cls-19" d="M1281.18,796.91a12.17,12.17,0,1,0,15.07,8.3A12.16,12.16,0,0,0,1281.18,796.91Z"/><path class="cls-19" d="M1236.19,810.58a11.53,11.53,0,1,0,14.28,7.88A11.53,11.53,0,0,0,1236.19,810.58Z"/><path class="cls-19" d="M1191.2,824.26a10.89,10.89,0,1,0,13.49,7.44A10.89,10.89,0,0,0,1191.2,824.26Z"/><path class="cls-19" d="M1146.2,837.93a10.25,10.25,0,1,0,12.7,7A10.26,10.26,0,0,0,1146.2,837.93Z"/><path class="cls-19" d="M1101.21,851.61a9.61,9.61,0,1,0,11.91,6.56A9.61,9.61,0,0,0,1101.21,851.61Z"/><path class="cls-19" d="M1056.23,865.29a9,9,0,1,0,11.1,6.12A9,9,0,0,0,1056.23,865.29Z"/><path class="cls-19" d="M1011.23,879a8.33,8.33,0,1,0,10.32,5.69A8.33,8.33,0,0,0,1011.23,879Z"/><path class="cls-19" d="M966.24,892.64a7.69,7.69,0,1,0,9.52,5.25A7.69,7.69,0,0,0,966.24,892.64Z"/><path class="cls-19" d="M921.25,906.32a7,7,0,1,0,8.73,4.81A7.06,7.06,0,0,0,921.25,906.32Z"/><path class="cls-19" d="M876.25,920a6.4,6.4,0,1,0,7.94,4.37A6.39,6.39,0,0,0,876.25,920Z"/><path class="cls-19" d="M831.27,933.67a5.77,5.77,0,1,0,7.14,3.94A5.77,5.77,0,0,0,831.27,933.67Z"/><path class="cls-19" d="M786.27,947.35a5.13,5.13,0,1,0,6.35,3.5A5.13,5.13,0,0,0,786.27,947.35Z"/><path class="cls-19" d="M741.29,961a4.48,4.48,0,1,0,5.55,3.07A4.5,4.5,0,0,0,741.29,961Z"/><path class="cls-19" d="M696.29,974.71a3.84,3.84,0,1,0,4.76,2.62A3.83,3.83,0,0,0,696.29,974.71Z"/><path class="cls-19" d="M651.3,988.38a3.21,3.21,0,1,0,4,2.19A3.21,3.21,0,0,0,651.3,988.38Z"/><path class="cls-19" d="M607.73,1007a2.56,2.56,0,1,0-3.17-1.75A2.55,2.55,0,0,0,607.73,1007Z"/><path class="cls-19" d="M562.39,1019.43a1.93,1.93,0,1,0-2.38-1.32A1.93,1.93,0,0,0,562.39,1019.43Z"/><path class="cls-19" d="M517,1031.88a1.28,1.28,0,0,0,.87-1.59,1.27,1.27,0,0,0-1.58-.88,1.29,1.29,0,0,0,.71,2.47Z"/><path class="cls-19" d="M471.7,1044.32a.64.64,0,0,0,.43-.8.64.64,0,0,0-1.23.36A.65.65,0,0,0,471.7,1044.32Z"/><path class="cls-19" d="M1567.59,782.38l-9.32-29.93a16,16,0,0,0,9.32,29.93Z"/><path class="cls-19" d="M1516.6,764.73a15.37,15.37,0,1,0,19.05,10.5A15.38,15.38,0,0,0,1516.6,764.73Z"/><path class="cls-19" d="M1471.61,778.41a14.74,14.74,0,1,0,18.26,10.06A14.74,14.74,0,0,0,1471.61,778.41Z"/><path class="cls-19" d="M1426.62,792.09a14.09,14.09,0,1,0,17.46,9.62A14.08,14.08,0,0,0,1426.62,792.09Z"/><path class="cls-19" d="M1381.62,805.76a13.46,13.46,0,1,0,16.67,9.19A13.47,13.47,0,0,0,1381.62,805.76Z"/><path class="cls-19" d="M1336.64,819.44a12.81,12.81,0,1,0,15.87,8.75A12.81,12.81,0,0,0,1336.64,819.44Z"/><path class="cls-19" d="M1291.65,833.11a12.17,12.17,0,1,0,15.07,8.32A12.17,12.17,0,0,0,1291.65,833.11Z"/><path class="cls-19" d="M1246.66,846.79a11.53,11.53,0,1,0,14.29,7.88A11.54,11.54,0,0,0,1246.66,846.79Z"/><path class="cls-19" d="M1201.67,860.47a10.89,10.89,0,1,0,13.49,7.44A10.89,10.89,0,0,0,1201.67,860.47Z"/><path class="cls-19" d="M1156.67,874.15a10.25,10.25,0,1,0,12.7,7A10.24,10.24,0,0,0,1156.67,874.15Z"/><path class="cls-19" d="M1111.68,887.82a9.61,9.61,0,1,0,11.91,6.57A9.61,9.61,0,0,0,1111.68,887.82Z"/><path class="cls-19" d="M1066.7,901.5a9,9,0,1,0,11.1,6.12A9,9,0,0,0,1066.7,901.5Z"/><path class="cls-19" d="M1021.7,915.17a8.33,8.33,0,1,0,10.32,5.69A8.32,8.32,0,0,0,1021.7,915.17Z"/><path class="cls-19" d="M976.71,928.85a7.69,7.69,0,1,0,9.52,5.25A7.7,7.7,0,0,0,976.71,928.85Z"/><path class="cls-19" d="M931.72,942.53a7,7,0,1,0,8.73,4.81A7,7,0,0,0,931.72,942.53Z"/><path class="cls-19" d="M886.73,956.2a6.41,6.41,0,1,0,7.93,4.38A6.42,6.42,0,0,0,886.73,956.2Z"/><path class="cls-19" d="M841.74,969.88a5.77,5.77,0,1,0,7.14,3.94A5.76,5.76,0,0,0,841.74,969.88Z"/><path class="cls-19" d="M796.74,983.56a5.13,5.13,0,1,0,6.35,3.5A5.11,5.11,0,0,0,796.74,983.56Z"/><path class="cls-19" d="M751.75,997.23a4.49,4.49,0,1,0,5.56,3.07A4.5,4.5,0,0,0,751.75,997.23Z"/><path class="cls-19" d="M706.76,1010.91a3.85,3.85,0,1,0,4.77,2.63A3.85,3.85,0,0,0,706.76,1010.91Z"/><path class="cls-19" d="M661.77,1024.59a3.21,3.21,0,1,0,4,2.19A3.19,3.19,0,0,0,661.77,1024.59Z"/><path class="cls-19" d="M618.2,1043.19a2.56,2.56,0,1,0-3.17-1.75A2.58,2.58,0,0,0,618.2,1043.19Z"/><path class="cls-19" d="M572.86,1055.64a1.93,1.93,0,1,0-2.38-1.32A1.93,1.93,0,0,0,572.86,1055.64Z"/><path class="cls-19" d="M527.51,1068.08a1.29,1.29,0,0,0,.88-1.59,1.29,1.29,0,1,0-.88,1.59Z"/><path class="cls-19" d="M482.16,1080.53a.64.64,0,1,0-.79-.44A.64.64,0,0,0,482.16,1080.53Z"/><path class="cls-19" d="M1578.85,818.48l-9.41-30.19a16,16,0,0,0,9.41,30.19Z"/><path class="cls-19" d="M1527.07,800.94a15.37,15.37,0,1,0,19,10.5A15.36,15.36,0,0,0,1527.07,800.94Z"/><path class="cls-19" d="M1482.08,814.61a14.74,14.74,0,1,0,18.26,10.07A14.75,14.75,0,0,0,1482.08,814.61Z"/><path class="cls-19" d="M1437.09,828.29a14.1,14.1,0,1,0,17.46,9.62A14.11,14.11,0,0,0,1437.09,828.29Z"/><path class="cls-19" d="M1392.09,842a13.46,13.46,0,1,0,16.67,9.2A13.47,13.47,0,0,0,1392.09,842Z"/><path class="cls-19" d="M1347.12,855.64a12.81,12.81,0,1,0,15.86,8.75A12.83,12.83,0,0,0,1347.12,855.64Z"/><path class="cls-19" d="M1302.12,869.32a12.17,12.17,0,1,0,15.07,8.32A12.18,12.18,0,0,0,1302.12,869.32Z"/><path class="cls-19" d="M1257.13,883a11.53,11.53,0,1,0,14.28,7.87A11.53,11.53,0,0,0,1257.13,883Z"/><path class="cls-19" d="M1212.14,896.68a10.89,10.89,0,1,0,13.48,7.43A10.89,10.89,0,0,0,1212.14,896.68Z"/><path class="cls-19" d="M1167.14,910.35a10.25,10.25,0,1,0,12.7,7A10.26,10.26,0,0,0,1167.14,910.35Z"/><path class="cls-19" d="M1122.15,924a9.61,9.61,0,1,0,11.9,6.56A9.61,9.61,0,0,0,1122.15,924Z"/><path class="cls-19" d="M1077.16,937.71a9,9,0,1,0,11.11,6.12A9,9,0,0,0,1077.16,937.71Z"/><path class="cls-19" d="M1032.17,951.38a8.33,8.33,0,1,0,10.32,5.69A8.33,8.33,0,0,0,1032.17,951.38Z"/><path class="cls-19" d="M987.18,965.06a7.69,7.69,0,1,0,9.52,5.24A7.69,7.69,0,0,0,987.18,965.06Z"/><path class="cls-19" d="M942.19,978.73a7,7,0,1,0,8.73,4.81A7.06,7.06,0,0,0,942.19,978.73Z"/><path class="cls-19" d="M897.2,992.41a6.41,6.41,0,1,0,7.93,4.38A6.42,6.42,0,0,0,897.2,992.41Z"/><path class="cls-19" d="M852.21,1006.09a5.77,5.77,0,1,0,7.14,3.93A5.76,5.76,0,0,0,852.21,1006.09Z"/><path class="cls-19" d="M807.21,1019.77a5.12,5.12,0,1,0,6.35,3.5A5.13,5.13,0,0,0,807.21,1019.77Z"/><path class="cls-19" d="M762.23,1033.45a4.48,4.48,0,1,0,5.55,3A4.48,4.48,0,0,0,762.23,1033.45Z"/><path class="cls-19" d="M717.23,1047.12a3.84,3.84,0,1,0,4.77,2.63A3.85,3.85,0,0,0,717.23,1047.12Z"/><path class="cls-19" d="M672.24,1060.8a3.2,3.2,0,1,0,4,2.18A3.2,3.2,0,0,0,672.24,1060.8Z"/><path class="cls-19" d="M628.67,1079.4a2.57,2.57,0,1,0-3.17-1.76A2.57,2.57,0,0,0,628.67,1079.4Z"/><path class="cls-19" d="M583.33,1091.84a1.92,1.92,0,1,0-2.38-1.31A1.92,1.92,0,0,0,583.33,1091.84Z"/><path class="cls-19" d="M538,1104.29a1.29,1.29,0,0,0,.88-1.59,1.29,1.29,0,0,0-2.47.71A1.29,1.29,0,0,0,538,1104.29Z"/><path class="cls-19" d="M492.63,1116.73a.63.63,0,0,0,.44-.79.64.64,0,0,0-1.23.35A.63.63,0,0,0,492.63,1116.73Z"/><path class="cls-19" d="M1590.09,854.56l-9.47-30.39a16,16,0,0,0,9.47,30.39Z"/><path class="cls-19" d="M1537.54,837.14a15.38,15.38,0,1,0,19,10.5A15.38,15.38,0,0,0,1537.54,837.14Z"/><path class="cls-19" d="M1492.55,850.82a14.74,14.74,0,1,0,18.26,10.06A14.74,14.74,0,0,0,1492.55,850.82Z"/><path class="cls-19" d="M1447.56,864.5a14.09,14.09,0,1,0,17.46,9.62A14.09,14.09,0,0,0,1447.56,864.5Z"/><path class="cls-19" d="M1402.57,878.17a13.45,13.45,0,1,0,16.66,9.19A13.48,13.48,0,0,0,1402.57,878.17Z"/><path class="cls-19" d="M1357.59,891.85a12.81,12.81,0,1,0,15.86,8.75A12.81,12.81,0,0,0,1357.59,891.85Z"/><path class="cls-19" d="M1312.59,905.53a12.17,12.17,0,1,0,15.07,8.31A12.16,12.16,0,0,0,1312.59,905.53Z"/><path class="cls-19" d="M1267.59,919.2a11.53,11.53,0,1,0,14.29,7.88A11.54,11.54,0,0,0,1267.59,919.2Z"/><path class="cls-19" d="M1222.61,932.88a10.89,10.89,0,1,0,13.49,7.44A10.89,10.89,0,0,0,1222.61,932.88Z"/><path class="cls-19" d="M1177.61,946.56a10.25,10.25,0,1,0,12.7,7A10.25,10.25,0,0,0,1177.61,946.56Z"/><path class="cls-19" d="M1132.62,960.23a9.61,9.61,0,1,0,11.91,6.57A9.62,9.62,0,0,0,1132.62,960.23Z"/><path class="cls-19" d="M1087.63,973.91a9,9,0,1,0,11.11,6.13A9,9,0,0,0,1087.63,973.91Z"/><path class="cls-19" d="M1042.64,987.59a8.33,8.33,0,1,0,10.32,5.68A8.31,8.31,0,0,0,1042.64,987.59Z"/><path class="cls-19" d="M997.65,1001.26a7.69,7.69,0,1,0,9.52,5.26A7.7,7.7,0,0,0,997.65,1001.26Z"/><path class="cls-19" d="M952.66,1014.94a7,7,0,1,0,8.73,4.81A7,7,0,0,0,952.66,1014.94Z"/><path class="cls-19" d="M907.66,1028.62a6.41,6.41,0,1,0,7.94,4.37A6.41,6.41,0,0,0,907.66,1028.62Z"/><path class="cls-19" d="M862.68,1042.3a5.76,5.76,0,1,0,7.14,3.93A5.76,5.76,0,0,0,862.68,1042.3Z"/><path class="cls-19" d="M817.68,1056a5.13,5.13,0,1,0,6.35,3.51A5.11,5.11,0,0,0,817.68,1056Z"/><path class="cls-19" d="M772.7,1069.65a4.48,4.48,0,1,0,5.55,3.06A4.48,4.48,0,0,0,772.7,1069.65Z"/><path class="cls-19" d="M727.7,1083.32a3.85,3.85,0,1,0,4.76,2.63A3.86,3.86,0,0,0,727.7,1083.32Z"/><path class="cls-19" d="M682.71,1097a3.2,3.2,0,1,0,4,2.19A3.21,3.21,0,0,0,682.71,1097Z"/><path class="cls-19" d="M639.14,1115.6a2.56,2.56,0,1,0-3.17-1.75A2.55,2.55,0,0,0,639.14,1115.6Z"/><path class="cls-19" d="M593.8,1128.05a1.93,1.93,0,0,0-1.07-3.7,1.93,1.93,0,1,0,1.07,3.7Z"/><path class="cls-19" d="M548.45,1140.49a1.27,1.27,0,0,0,.87-1.59,1.28,1.28,0,1,0-.87,1.59Z"/><path class="cls-19" d="M503.11,1152.94a.64.64,0,0,0,.43-.79.64.64,0,1,0-1.23.35A.64.64,0,0,0,503.11,1152.94Z"/><path class="cls-19" d="M1601.31,890.59l-9.5-30.5a16,16,0,0,0,9.5,30.5Z"/><path class="cls-19" d="M1548,873.35a15.37,15.37,0,1,0,19,10.5A15.37,15.37,0,0,0,1548,873.35Z"/><path class="cls-19" d="M1503,887a14.74,14.74,0,1,0,18.26,10.06A14.73,14.73,0,0,0,1503,887Z"/><path class="cls-19" d="M1458,900.7a14.1,14.1,0,1,0,17.45,9.63A14.09,14.09,0,0,0,1458,900.7Z"/><path class="cls-19" d="M1413,914.38a13.46,13.46,0,1,0,16.66,9.19A13.47,13.47,0,0,0,1413,914.38Z"/><path class="cls-19" d="M1368.05,928.05a12.82,12.82,0,1,0,15.87,8.75A12.84,12.84,0,0,0,1368.05,928.05Z"/><path class="cls-19" d="M1323.06,941.73a12.17,12.17,0,1,0,15.07,8.32A12.17,12.17,0,0,0,1323.06,941.73Z"/><path class="cls-19" d="M1278.06,955.41a11.53,11.53,0,1,0,14.3,7.88A11.53,11.53,0,0,0,1278.06,955.41Z"/><path class="cls-19" d="M1233.07,969.09a10.89,10.89,0,1,0,13.5,7.44A10.89,10.89,0,0,0,1233.07,969.09Z"/><path class="cls-19" d="M1188.08,982.77a10.25,10.25,0,1,0,12.7,7A10.24,10.24,0,0,0,1188.08,982.77Z"/><path class="cls-19" d="M1143.09,996.44A9.61,9.61,0,1,0,1155,1003,9.61,9.61,0,0,0,1143.09,996.44Z"/><path class="cls-19" d="M1098.1,1010.11a9,9,0,1,0,11.11,6.13A9,9,0,0,0,1098.1,1010.11Z"/><path class="cls-19" d="M1053.11,1023.79a8.33,8.33,0,1,0,10.32,5.69A8.32,8.32,0,0,0,1053.11,1023.79Z"/><path class="cls-19" d="M1008.11,1037.47a7.69,7.69,0,1,0,9.53,5.25A7.7,7.7,0,0,0,1008.11,1037.47Z"/><path class="cls-19" d="M963.13,1051.14a7.05,7.05,0,1,0,8.73,4.82A7.05,7.05,0,0,0,963.13,1051.14Z"/><path class="cls-19" d="M918.14,1064.82a6.41,6.41,0,1,0,7.93,4.38A6.41,6.41,0,0,0,918.14,1064.82Z"/><path class="cls-19" d="M873.15,1078.5a5.77,5.77,0,1,0,7.14,3.94A5.76,5.76,0,0,0,873.15,1078.5Z"/><path class="cls-19" d="M828.15,1092.18a5.13,5.13,0,1,0,6.35,3.5A5.11,5.11,0,0,0,828.15,1092.18Z"/><path class="cls-19" d="M783.16,1105.85a4.49,4.49,0,1,0,5.56,3.07A4.49,4.49,0,0,0,783.16,1105.85Z"/><path class="cls-19" d="M738.17,1119.53a3.84,3.84,0,1,0,4.76,2.62A3.85,3.85,0,0,0,738.17,1119.53Z"/><path class="cls-19" d="M693.18,1133.21a3.2,3.2,0,1,0,4,2.18A3.19,3.19,0,0,0,693.18,1133.21Z"/><path class="cls-19" d="M649.61,1151.81a2.57,2.57,0,1,0-3.17-1.76A2.58,2.58,0,0,0,649.61,1151.81Z"/><path class="cls-19" d="M604.26,1164.25a1.92,1.92,0,1,0-2.37-1.31A1.9,1.9,0,0,0,604.26,1164.25Z"/><path class="cls-19" d="M558.92,1176.7a1.28,1.28,0,1,0-1.59-.88A1.27,1.27,0,0,0,558.92,1176.7Z"/><path class="cls-19" d="M513.57,1189.14a.63.63,0,0,0,.44-.78.64.64,0,1,0-1.23.35A.62.62,0,0,0,513.57,1189.14Z"/><path class="cls-19" d="M1592.54,915.72a16,16,0,0,0,19.83,10.94l.16,0L1603,896A16,16,0,0,0,1592.54,915.72Z"/><path class="cls-19" d="M1558.48,909.56a15.37,15.37,0,1,0,19,10.49A15.36,15.36,0,0,0,1558.48,909.56Z"/><path class="cls-19" d="M1513.49,923.23a14.74,14.74,0,1,0,18.26,10.07A14.74,14.74,0,0,0,1513.49,923.23Z"/><path class="cls-19" d="M1468.5,936.91a14.1,14.1,0,1,0,17.46,9.63A14.1,14.1,0,0,0,1468.5,936.91Z"/><path class="cls-19" d="M1423.5,950.59a13.46,13.46,0,1,0,16.67,9.19A13.46,13.46,0,0,0,1423.5,950.59Z"/><path class="cls-19" d="M1378.53,964.27a12.81,12.81,0,1,0,15.86,8.75A12.8,12.8,0,0,0,1378.53,964.27Z"/><path class="cls-19" d="M1333.53,977.94a12.17,12.17,0,1,0,15.07,8.31A12.18,12.18,0,0,0,1333.53,977.94Z"/><path class="cls-19" d="M1288.54,991.62a11.53,11.53,0,1,0,14.28,7.88A11.53,11.53,0,0,0,1288.54,991.62Z"/><path class="cls-19" d="M1243.55,1005.3a10.89,10.89,0,1,0,13.49,7.43A10.88,10.88,0,0,0,1243.55,1005.3Z"/><path class="cls-19" d="M1198.55,1019a10.25,10.25,0,1,0,12.7,7A10.25,10.25,0,0,0,1198.55,1019Z"/><path class="cls-19" d="M1153.56,1032.65a9.61,9.61,0,1,0,11.9,6.56A9.61,9.61,0,0,0,1153.56,1032.65Z"/><path class="cls-19" d="M1108.57,1046.32a9,9,0,1,0,11.11,6.13A9,9,0,0,0,1108.57,1046.32Z"/><path class="cls-19" d="M1063.58,1060a8.33,8.33,0,1,0,10.32,5.69A8.33,8.33,0,0,0,1063.58,1060Z"/><path class="cls-19" d="M1018.58,1073.68a7.69,7.69,0,1,0,9.53,5.25A7.7,7.7,0,0,0,1018.58,1073.68Z"/><path class="cls-19" d="M973.6,1087.36a7,7,0,1,0,8.72,4.81A7,7,0,0,0,973.6,1087.36Z"/><path class="cls-19" d="M928.61,1101a6.41,6.41,0,1,0,7.93,4.38A6.42,6.42,0,0,0,928.61,1101Z"/><path class="cls-19" d="M883.62,1114.71a5.77,5.77,0,1,0,7.13,3.93A5.76,5.76,0,0,0,883.62,1114.71Z"/><path class="cls-19" d="M838.62,1128.39a5.13,5.13,0,1,0,6.35,3.49A5.14,5.14,0,0,0,838.62,1128.39Z"/><path class="cls-19" d="M793.64,1142.06a4.48,4.48,0,1,0,5.55,3.07A4.49,4.49,0,0,0,793.64,1142.06Z"/><path class="cls-19" d="M748.64,1155.74a3.85,3.85,0,1,0,4.76,2.62A3.85,3.85,0,0,0,748.64,1155.74Z"/><path class="cls-19" d="M703.65,1169.42a3.2,3.2,0,1,0,4,2.18A3.2,3.2,0,0,0,703.65,1169.42Z"/><path class="cls-19" d="M660.08,1188a2.57,2.57,0,1,0-3.17-1.75A2.56,2.56,0,0,0,660.08,1188Z"/><path class="cls-19" d="M614.74,1200.46a1.92,1.92,0,1,0-2.38-1.31A1.91,1.91,0,0,0,614.74,1200.46Z"/><path class="cls-19" d="M569.39,1212.91a1.29,1.29,0,0,0,.88-1.59,1.29,1.29,0,1,0-.88,1.59Z"/><path class="cls-19" d="M524,1225.36a.64.64,0,0,0-.35-1.24.63.63,0,0,0-.44.79A.64.64,0,0,0,524,1225.36Z"/><path class="cls-19" d="M1613.94,932.09a16,16,0,1,0,8.9,30.77c.3-.09.59-.2.89-.31L1614.22,932Z"/><path class="cls-19" d="M1569,945.77a15.37,15.37,0,1,0,19,10.5A15.35,15.35,0,0,0,1569,945.77Z"/><path class="cls-19" d="M1524,959.44a14.74,14.74,0,1,0,18.26,10.06A14.73,14.73,0,0,0,1524,959.44Z"/><path class="cls-19" d="M1479,973.12a14.09,14.09,0,1,0,17.46,9.63A14.1,14.1,0,0,0,1479,973.12Z"/><path class="cls-19" d="M1434,986.8a13.45,13.45,0,1,0,16.66,9.18A13.46,13.46,0,0,0,1434,986.8Z"/><path class="cls-19" d="M1389,1000.47a12.81,12.81,0,1,0,15.86,8.75A12.82,12.82,0,0,0,1389,1000.47Z"/><path class="cls-19" d="M1344,1014.14a12.18,12.18,0,1,0,15.07,8.32A12.18,12.18,0,0,0,1344,1014.14Z"/><path class="cls-19" d="M1299,1027.82a11.53,11.53,0,1,0,14.29,7.88A11.54,11.54,0,0,0,1299,1027.82Z"/><path class="cls-19" d="M1254,1041.5a10.89,10.89,0,1,0,13.48,7.44A10.89,10.89,0,0,0,1254,1041.5Z"/><path class="cls-19" d="M1209,1055.18a10.25,10.25,0,1,0,12.69,7A10.25,10.25,0,0,0,1209,1055.18Z"/><path class="cls-19" d="M1164,1068.86a9.61,9.61,0,1,0,11.91,6.56A9.61,9.61,0,0,0,1164,1068.86Z"/><path class="cls-19" d="M1119,1082.53a9,9,0,1,0,11.11,6.13A9,9,0,0,0,1119,1082.53Z"/><path class="cls-19" d="M1074.05,1096.21a8.33,8.33,0,1,0,10.32,5.68A8.32,8.32,0,0,0,1074.05,1096.21Z"/><path class="cls-19" d="M1029.05,1109.89a7.69,7.69,0,1,0,9.53,5.24A7.69,7.69,0,0,0,1029.05,1109.89Z"/><path class="cls-19" d="M984.07,1123.56a7,7,0,1,0,8.73,4.81A7.06,7.06,0,0,0,984.07,1123.56Z"/><path class="cls-19" d="M939.07,1137.24a6.41,6.41,0,1,0,7.94,4.37A6.41,6.41,0,0,0,939.07,1137.24Z"/><path class="cls-19" d="M894.08,1150.91a5.77,5.77,0,1,0,7.15,3.94A5.79,5.79,0,0,0,894.08,1150.91Z"/><path class="cls-19" d="M849.09,1164.59a5.13,5.13,0,1,0,6.35,3.5A5.11,5.11,0,0,0,849.09,1164.59Z"/><path class="cls-19" d="M804.1,1178.27a4.48,4.48,0,1,0,5.56,3.06A4.49,4.49,0,0,0,804.1,1178.27Z"/><path class="cls-19" d="M759.11,1192a3.84,3.84,0,1,0,4.76,2.62A3.84,3.84,0,0,0,759.11,1192Z"/><path class="cls-19" d="M714.12,1205.63a3.2,3.2,0,1,0,4,2.18A3.19,3.19,0,0,0,714.12,1205.63Z"/><path class="cls-19" d="M670.55,1224.22a2.56,2.56,0,1,0-3.17-1.74A2.55,2.55,0,0,0,670.55,1224.22Z"/><path class="cls-19" d="M625.2,1236.67a1.92,1.92,0,0,0-1.06-3.7,2,2,0,0,0-1.32,2.39A1.93,1.93,0,0,0,625.2,1236.67Z"/><path class="cls-19" d="M579.86,1249.11a1.28,1.28,0,0,0-.71-2.46,1.28,1.28,0,1,0,.71,2.46Z"/><path class="cls-19" d="M534.51,1261.56a.64.64,0,1,0-.36-1.23.64.64,0,1,0,.36,1.23Z"/><path class="cls-19" d="M1624.41,968.29a16,16,0,0,0,8.9,30.78c.56-.16,1.1-.36,1.62-.56l-9.49-30.46Z"/><path class="cls-19" d="M1579.42,982a15.37,15.37,0,1,0,19,10.49A15.35,15.35,0,0,0,1579.42,982Z"/><path class="cls-19" d="M1534.43,995.64a14.74,14.74,0,1,0,18.26,10.07A14.75,14.75,0,0,0,1534.43,995.64Z"/><path class="cls-19" d="M1489.45,1009.32a14.1,14.1,0,1,0,17.45,9.63A14.09,14.09,0,0,0,1489.45,1009.32Z"/><path class="cls-19" d="M1444.45,1023a13.46,13.46,0,1,0,16.66,9.19A13.45,13.45,0,0,0,1444.45,1023Z"/><path class="cls-19" d="M1399.46,1036.68a12.81,12.81,0,1,0,15.87,8.75A12.82,12.82,0,0,0,1399.46,1036.68Z"/><path class="cls-19" d="M1354.47,1050.36a12.17,12.17,0,1,0,15.07,8.31A12.16,12.16,0,0,0,1354.47,1050.36Z"/><path class="cls-19" d="M1309.47,1064a11.53,11.53,0,1,0,14.28,7.87A11.54,11.54,0,0,0,1309.47,1064Z"/><path class="cls-19" d="M1264.48,1077.71a10.89,10.89,0,1,0,13.5,7.43A10.9,10.9,0,0,0,1264.48,1077.71Z"/><path class="cls-19" d="M1219.49,1091.38a10.26,10.26,0,1,0,12.69,7A10.26,10.26,0,0,0,1219.49,1091.38Z"/><path class="cls-19" d="M1174.5,1105.06a9.61,9.61,0,1,0,11.91,6.57A9.61,9.61,0,0,0,1174.5,1105.06Z"/><path class="cls-19" d="M1129.51,1118.74a9,9,0,1,0,11.11,6.12A9,9,0,0,0,1129.51,1118.74Z"/><path class="cls-19" d="M1084.52,1132.41a8.33,8.33,0,1,0,10.32,5.69A8.32,8.32,0,0,0,1084.52,1132.41Z"/><path class="cls-19" d="M1039.52,1146.09a7.69,7.69,0,1,0,9.53,5.25A7.69,7.69,0,0,0,1039.52,1146.09Z"/><path class="cls-19" d="M994.54,1159.77a7,7,0,1,0,8.73,4.81A7,7,0,0,0,994.54,1159.77Z"/><path class="cls-19" d="M949.55,1173.45a6.4,6.4,0,1,0,7.93,4.37A6.4,6.4,0,0,0,949.55,1173.45Z"/><path class="cls-19" d="M904.55,1187.13a5.76,5.76,0,1,0,7.15,3.93A5.75,5.75,0,0,0,904.55,1187.13Z"/><path class="cls-19" d="M859.56,1200.8a5.12,5.12,0,1,0,6.35,3.5A5.12,5.12,0,0,0,859.56,1200.8Z"/><path class="cls-19" d="M814.57,1214.48a4.48,4.48,0,1,0,5.56,3.06A4.48,4.48,0,0,0,814.57,1214.48Z"/><path class="cls-19" d="M769.58,1228.15a3.85,3.85,0,1,0,4.76,2.63A3.84,3.84,0,0,0,769.58,1228.15Z"/><path class="cls-19" d="M724.59,1241.83a3.2,3.2,0,1,0,4,2.19A3.2,3.2,0,0,0,724.59,1241.83Z"/><path class="cls-19" d="M681,1260.43a2.56,2.56,0,1,0-3.17-1.75A2.56,2.56,0,0,0,681,1260.43Z"/><path class="cls-19" d="M635.67,1272.88a1.92,1.92,0,1,0-2.37-1.32A1.92,1.92,0,0,0,635.67,1272.88Z"/><path class="cls-19" d="M590.32,1285.32a1.28,1.28,0,1,0-1.58-.87A1.27,1.27,0,0,0,590.32,1285.32Z"/><path class="cls-19" d="M545,1297.77a.64.64,0,1,0-.36-1.23.63.63,0,0,0-.43.79A.64.64,0,0,0,545,1297.77Z"/><path class="cls-19" d="M1623.94,1024.34a16,16,0,0,0,19.84,10.94,15.42,15.42,0,0,0,2.33-.9l-9.43-30.28a16.6,16.6,0,0,0-1.8.4A16,16,0,0,0,1623.94,1024.34Z"/><path class="cls-19" d="M1589.89,1018.18a15.37,15.37,0,1,0,19,10.5A15.37,15.37,0,0,0,1589.89,1018.18Z"/><path class="cls-19" d="M1544.9,1031.85a14.74,14.74,0,1,0,18.26,10.07A14.75,14.75,0,0,0,1544.9,1031.85Z"/><path class="cls-19" d="M1499.91,1045.53a14.09,14.09,0,1,0,17.46,9.63A14.11,14.11,0,0,0,1499.91,1045.53Z"/><path class="cls-19" d="M1454.91,1059.21a13.46,13.46,0,1,0,16.67,9.18A13.47,13.47,0,0,0,1454.91,1059.21Z"/><path class="cls-19" d="M1409.93,1072.88a12.82,12.82,0,1,0,15.87,8.75A12.82,12.82,0,0,0,1409.93,1072.88Z"/><path class="cls-19" d="M1364.94,1086.56a12.17,12.17,0,1,0,15.07,8.32A12.18,12.18,0,0,0,1364.94,1086.56Z"/><path class="cls-19" d="M1319.94,1100.24a11.53,11.53,0,1,0,14.29,7.87A11.54,11.54,0,0,0,1319.94,1100.24Z"/><path class="cls-19" d="M1275,1113.91a10.9,10.9,0,1,0,13.48,7.45A10.9,10.9,0,0,0,1275,1113.91Z"/><path class="cls-19" d="M1230,1127.6a10.25,10.25,0,1,0,12.69,7A10.23,10.23,0,0,0,1230,1127.6Z"/><path class="cls-19" d="M1185,1141.27a9.61,9.61,0,1,0,11.91,6.57A9.61,9.61,0,0,0,1185,1141.27Z"/><path class="cls-19" d="M1140,1155a9,9,0,1,0,11.11,6.12A9,9,0,0,0,1140,1155Z"/><path class="cls-19" d="M1095,1168.62a8.33,8.33,0,1,0,10.32,5.69A8.33,8.33,0,0,0,1095,1168.62Z"/><path class="cls-19" d="M1050,1182.3a7.69,7.69,0,1,0,9.53,5.25A7.68,7.68,0,0,0,1050,1182.3Z"/><path class="cls-19" d="M1005,1196a7,7,0,1,0,8.73,4.81A7,7,0,0,0,1005,1196Z"/><path class="cls-19" d="M960,1209.65A6.41,6.41,0,1,0,968,1214,6.42,6.42,0,0,0,960,1209.65Z"/><path class="cls-19" d="M915,1223.33a5.77,5.77,0,1,0,7.14,3.94A5.76,5.76,0,0,0,915,1223.33Z"/><path class="cls-19" d="M870,1237a5.13,5.13,0,1,0,6.34,3.5A5.12,5.12,0,0,0,870,1237Z"/><path class="cls-19" d="M825,1250.68a4.49,4.49,0,1,0,5.55,3.06A4.49,4.49,0,0,0,825,1250.68Z"/><path class="cls-19" d="M780.05,1264.36a3.84,3.84,0,1,0,4.76,2.62A3.84,3.84,0,0,0,780.05,1264.36Z"/><path class="cls-19" d="M735.06,1278a3.2,3.2,0,1,0,4,2.18A3.2,3.2,0,0,0,735.06,1278Z"/><path class="cls-19" d="M691.49,1296.64a2.57,2.57,0,1,0-3.17-1.76A2.56,2.56,0,0,0,691.49,1296.64Z"/><path class="cls-19" d="M646.14,1309.08a1.92,1.92,0,1,0-2.37-1.31A1.9,1.9,0,0,0,646.14,1309.08Z"/><path class="cls-19" d="M600.79,1321.53a1.28,1.28,0,1,0-1.58-.88A1.28,1.28,0,0,0,600.79,1321.53Z"/><path class="cls-19" d="M555.45,1334a.64.64,0,0,0,.44-.79.63.63,0,0,0-.8-.43.64.64,0,0,0,.36,1.22Z"/><path class="cls-19" d="M1589.74,1065.63l20.28-10.82a15.2,15.2,0,0,0-20.28,10.82Z"/><path class="cls-19" d="M1555.37,1068.06a14.74,14.74,0,0,0-10.06,18.25,15.82,15.82,0,0,0,1,2.51l26-13.86A14.73,14.73,0,0,0,1555.37,1068.06Z"/><path class="cls-19" d="M1510.38,1081.74a14.06,14.06,0,0,0-.9,26.74l18.44-9.84a14,14,0,0,0-.08-7.28A14.1,14.1,0,0,0,1510.38,1081.74Z"/><path class="cls-19" d="M1472.86,1121.27a13.45,13.45,0,1,0-16.66-9.19A13.46,13.46,0,0,0,1472.86,1121.27Z"/><path class="cls-19" d="M1427.52,1133.71a12.81,12.81,0,1,0-15.88-8.75A12.81,12.81,0,0,0,1427.52,1133.71Z"/><path class="cls-19" d="M1375.41,1122.77a12.17,12.17,0,1,0,15.07,8.32A12.17,12.17,0,0,0,1375.41,1122.77Z"/><path class="cls-19" d="M1330.41,1136.45a11.53,11.53,0,1,0,14.29,7.87A11.53,11.53,0,0,0,1330.41,1136.45Z"/><path class="cls-19" d="M1285.43,1150.13a10.89,10.89,0,1,0,13.48,7.43A10.88,10.88,0,0,0,1285.43,1150.13Z"/><path class="cls-19" d="M1240.43,1163.8a10.25,10.25,0,1,0,12.69,7A10.25,10.25,0,0,0,1240.43,1163.8Z"/><path class="cls-19" d="M1195.44,1177.48a9.61,9.61,0,1,0,11.91,6.56A9.61,9.61,0,0,0,1195.44,1177.48Z"/><path class="cls-19" d="M1150.45,1191.15a9,9,0,1,0,11.11,6.13A9,9,0,0,0,1150.45,1191.15Z"/><path class="cls-19" d="M1105.46,1204.83a8.33,8.33,0,1,0,10.32,5.69A8.32,8.32,0,0,0,1105.46,1204.83Z"/><path class="cls-19" d="M1060.46,1218.5a7.69,7.69,0,1,0,9.53,5.26A7.7,7.7,0,0,0,1060.46,1218.5Z"/><path class="cls-19" d="M1015.48,1232.18a7,7,0,1,0,8.72,4.82A7,7,0,0,0,1015.48,1232.18Z"/><path class="cls-19" d="M970.48,1245.86a6.41,6.41,0,1,0,7.94,4.37A6.41,6.41,0,0,0,970.48,1245.86Z"/><path class="cls-19" d="M925.49,1259.54a5.77,5.77,0,1,0,7.15,3.94A5.78,5.78,0,0,0,925.49,1259.54Z"/><path class="cls-19" d="M880.5,1273.21a5.13,5.13,0,1,0,6.35,3.5A5.13,5.13,0,0,0,880.5,1273.21Z"/><path class="cls-19" d="M835.51,1286.89a4.49,4.49,0,1,0,5.56,3.06A4.48,4.48,0,0,0,835.51,1286.89Z"/><path class="cls-19" d="M790.52,1300.57a3.84,3.84,0,1,0,4.76,2.62A3.85,3.85,0,0,0,790.52,1300.57Z"/><path class="cls-19" d="M745.53,1314.25a3.2,3.2,0,1,0,4,2.18A3.18,3.18,0,0,0,745.53,1314.25Z"/><path class="cls-19" d="M702,1332.85a2.57,2.57,0,1,0-3.17-1.76A2.57,2.57,0,0,0,702,1332.85Z"/><path class="cls-19" d="M656.61,1345.29a1.92,1.92,0,1,0-2.38-1.31A1.92,1.92,0,0,0,656.61,1345.29Z"/><path class="cls-19" d="M611.27,1357.74a1.28,1.28,0,0,0-.71-2.46,1.26,1.26,0,0,0-.88,1.58A1.29,1.29,0,0,0,611.27,1357.74Z"/><path class="cls-19" d="M565.92,1370.19a.65.65,0,1,0-.8-.44A.65.65,0,0,0,565.92,1370.19Z"/><path class="cls-19" d="M1421.88,1155.25l17.56-9.37a12.67,12.67,0,0,0-17.56,9.37Z"/><path class="cls-19" d="M1385.88,1159a12.16,12.16,0,0,0-8.31,15.07,11.91,11.91,0,0,0,1.93,3.83l21.16-11.3A12.11,12.11,0,0,0,1385.88,1159Z"/><path class="cls-19" d="M1355.17,1180.53a11.53,11.53,0,1,0-7.87,14.28,12.56,12.56,0,0,0,2-.8l.31-.17A11.53,11.53,0,0,0,1355.17,1180.53Z"/><path class="cls-19" d="M1295.89,1186.33a10.89,10.89,0,1,0,13.49,7.44A10.9,10.9,0,0,0,1295.89,1186.33Z"/><path class="cls-19" d="M1250.9,1200a10.25,10.25,0,1,0,12.69,7A10.24,10.24,0,0,0,1250.9,1200Z"/><path class="cls-19" d="M1205.91,1213.69a9.61,9.61,0,1,0,11.91,6.56A9.61,9.61,0,0,0,1205.91,1213.69Z"/><path class="cls-19" d="M1160.92,1227.36a9,9,0,1,0,11.11,6.12A9,9,0,0,0,1160.92,1227.36Z"/><path class="cls-19" d="M1115.93,1241a8.33,8.33,0,1,0,10.32,5.69A8.31,8.31,0,0,0,1115.93,1241Z"/><path class="cls-19" d="M1070.93,1254.72a7.69,7.69,0,1,0,9.53,5.24A7.69,7.69,0,0,0,1070.93,1254.72Z"/><path class="cls-19" d="M1026,1268.39a7,7,0,1,0,8.72,4.81A7,7,0,0,0,1026,1268.39Z"/><path class="cls-19" d="M981,1282.07a6.41,6.41,0,1,0,7.93,4.38A6.41,6.41,0,0,0,981,1282.07Z"/><path class="cls-19" d="M936,1295.75a5.76,5.76,0,1,0,7.15,3.94A5.76,5.76,0,0,0,936,1295.75Z"/><path class="cls-19" d="M891,1309.42a5.13,5.13,0,1,0,6.35,3.5A5.13,5.13,0,0,0,891,1309.42Z"/><path class="cls-19" d="M846,1323.1a4.48,4.48,0,1,0,5.56,3.06A4.48,4.48,0,0,0,846,1323.1Z"/><path class="cls-19" d="M801,1336.78a3.84,3.84,0,1,0,4.76,2.62A3.84,3.84,0,0,0,801,1336.78Z"/><path class="cls-19" d="M756,1350.45a3.21,3.21,0,1,0,4,2.19A3.19,3.19,0,0,0,756,1350.45Z"/><path class="cls-19" d="M712.43,1369.05a2.56,2.56,0,1,0-3.17-1.75A2.55,2.55,0,0,0,712.43,1369.05Z"/><path class="cls-19" d="M667.08,1381.5a1.92,1.92,0,1,0-2.37-1.31A1.91,1.91,0,0,0,667.08,1381.5Z"/><path class="cls-19" d="M621.74,1394a1.28,1.28,0,1,0-.72-2.46,1.27,1.27,0,0,0-.87,1.58A1.29,1.29,0,0,0,621.74,1394Z"/><path class="cls-19" d="M576.39,1406.39a.64.64,0,1,0-.79-.43A.64.64,0,0,0,576.39,1406.39Z"/><path class="cls-19" d="M1254,1244.87l14.83-7.92a10.21,10.21,0,0,0-14.83,7.92Z"/><path class="cls-19" d="M1216.38,1249.89a9.58,9.58,0,0,0-3.21,16.8l15.46-8.26a10.66,10.66,0,0,0-.34-2A9.63,9.63,0,0,0,1216.38,1249.89Z"/><path class="cls-19" d="M1171.39,1263.57a9,9,0,1,0,11.11,6.13A9,9,0,0,0,1171.39,1263.57Z"/><path class="cls-19" d="M1126.4,1277.25a8.33,8.33,0,1,0,10.31,5.68A8.31,8.31,0,0,0,1126.4,1277.25Z"/><path class="cls-19" d="M1081.4,1290.92a7.69,7.69,0,1,0,9.53,5.25A7.69,7.69,0,0,0,1081.4,1290.92Z"/><path class="cls-19" d="M1036.41,1304.6a7,7,0,1,0,8.73,4.81A7,7,0,0,0,1036.41,1304.6Z"/><path class="cls-19" d="M991.43,1318.27a6.41,6.41,0,1,0,7.93,4.38A6.42,6.42,0,0,0,991.43,1318.27Z"/><path class="cls-19" d="M946.43,1332a5.77,5.77,0,1,0,7.14,3.94A5.76,5.76,0,0,0,946.43,1332Z"/><path class="cls-19" d="M901.45,1345.63a5.13,5.13,0,1,0,6.34,3.5A5.12,5.12,0,0,0,901.45,1345.63Z"/><path class="cls-19" d="M856.45,1359.3a4.49,4.49,0,1,0,5.55,3.07A4.49,4.49,0,0,0,856.45,1359.3Z"/><path class="cls-19" d="M811.46,1373a3.85,3.85,0,1,0,4.76,2.63A3.85,3.85,0,0,0,811.46,1373Z"/><path class="cls-19" d="M766.47,1386.66a3.2,3.2,0,1,0,4,2.19A3.21,3.21,0,0,0,766.47,1386.66Z"/><path class="cls-19" d="M722.9,1405.26a2.56,2.56,0,1,0-3.17-1.75A2.56,2.56,0,0,0,722.9,1405.26Z"/><path class="cls-19" d="M677.55,1417.7a1.92,1.92,0,1,0-2.37-1.31A1.91,1.91,0,0,0,677.55,1417.7Z"/><path class="cls-19" d="M632.2,1430.15a1.28,1.28,0,1,0-1.58-.88A1.27,1.27,0,0,0,632.2,1430.15Z"/><path class="cls-19" d="M586.86,1442.59a.64.64,0,1,0-.79-.43A.63.63,0,0,0,586.86,1442.59Z"/><path class="cls-19" d="M1091.88,1327.13a7.66,7.66,0,0,0-5.52,7.26l11.82-6.3A7.62,7.62,0,0,0,1091.88,1327.13Z"/><path class="cls-19" d="M1055.61,1345.62a7,7,0,1,0-7.06,9l6.3-3.37A7,7,0,0,0,1055.61,1345.62Z"/><path class="cls-19" d="M1001.89,1354.48a6.41,6.41,0,1,0,7.94,4.38A6.41,6.41,0,0,0,1001.89,1354.48Z"/><path class="cls-19" d="M956.9,1368.16a5.77,5.77,0,1,0,7.15,3.94A5.78,5.78,0,0,0,956.9,1368.16Z"/><path class="cls-19" d="M911.91,1381.84a5.12,5.12,0,1,0,6.35,3.5A5.11,5.11,0,0,0,911.91,1381.84Z"/><path class="cls-19" d="M866.92,1395.51a4.49,4.49,0,1,0,5.56,3.06A4.49,4.49,0,0,0,866.92,1395.51Z"/><path class="cls-19" d="M821.93,1409.19a3.85,3.85,0,1,0,4.76,2.62A3.85,3.85,0,0,0,821.93,1409.19Z"/><path class="cls-19" d="M776.94,1422.87a3.2,3.2,0,1,0,4,2.18A3.2,3.2,0,0,0,776.94,1422.87Z"/><path class="cls-19" d="M733.37,1441.46a2.56,2.56,0,1,0-3.17-1.75A2.55,2.55,0,0,0,733.37,1441.46Z"/><path class="cls-19" d="M688,1453.91a1.92,1.92,0,1,0-2.38-1.31A1.92,1.92,0,0,0,688,1453.91Z"/><path class="cls-19" d="M642.68,1466.36a1.29,1.29,0,1,0-1.59-.88A1.29,1.29,0,0,0,642.68,1466.36Z"/><path class="cls-19" d="M597.33,1478.8a.64.64,0,0,0-.36-1.23.64.64,0,0,0-.43.8A.63.63,0,0,0,597.33,1478.8Z"/><path class="cls-19" d="M922.38,1418a5.11,5.11,0,0,0-3.59,5.83l8.57-4.57A5.12,5.12,0,0,0,922.38,1418Z"/><path class="cls-19" d="M877.39,1431.72a4.48,4.48,0,1,0,5.56,3.06A4.48,4.48,0,0,0,877.39,1431.72Z"/><path class="cls-19" d="M832.4,1445.39a3.85,3.85,0,1,0,4.76,2.63A3.85,3.85,0,0,0,832.4,1445.39Z"/><path class="cls-19" d="M789.19,1465.23a3.21,3.21,0,1,0-4-2.19A3.21,3.21,0,0,0,789.19,1465.23Z"/><path class="cls-19" d="M743.84,1477.68a2.57,2.57,0,1,0-3.17-1.75A2.56,2.56,0,0,0,743.84,1477.68Z"/><path class="cls-19" d="M698.49,1490.12a1.92,1.92,0,1,0-2.37-1.32A1.91,1.91,0,0,0,698.49,1490.12Z"/><path class="cls-19" d="M653.14,1502.57a1.28,1.28,0,1,0-.71-2.46,1.27,1.27,0,0,0-.87,1.58A1.28,1.28,0,0,0,653.14,1502.57Z"/><path class="cls-19" d="M756.06,1510.71a2.56,2.56,0,1,0-4.92,1.42,2.4,2.4,0,0,0,.54,1l4.39-2.34S756.07,1510.73,756.06,1510.71Z"/><path class="cls-19" d="M709,1526.32a1.91,1.91,0,0,0,1.31-2.37,1.91,1.91,0,1,0-3.68,1.06A1.9,1.9,0,0,0,709,1526.32Z"/></g><polygon class="cls-2" points="1095.76 1960.54 992.36 1602.83 1024.39 1973.8 1095.76 1960.54"/><polygon class="cls-2" points="78.65 665.68 430.33 788.03 109.07 599.77 78.65 665.68"/><polygon class="cls-2" points="1894.93 448.63 1600.07 676.01 1933.44 510.15 1894.93 448.63"/><polygon class="cls-2" points="1596.63 1647.63 1671.59 1776.52 1725.79 1740.73 1621.58 1600.86 1603.34 1576.38 1586.57 1597.53 1531.94 1666.44 1431.79 1515.42 1520.68 1692.77 1527.1 1705.59 1539.64 1695.13 1596.63 1647.63"/><polygon class="cls-2" points="157.17 1215.37 13.02 1177.24 0 1240.87 172.6 1266.09 202.8 1270.5 199.7 1243.69 189.6 1156.33 367.21 1192.3 178.95 1129.75 165.35 1125.23 163.87 1141.48 157.17 1215.37"/><polygon class="cls-2" points="919.52 152.78 939.41 5 874.66 0 871.11 174.39 870.5 204.91 896.71 198.5 982.14 177.61 968.55 358.31 1007.19 163.73 1009.97 149.67 993.66 150.23 919.52 152.78"/></g></g></svg>