<?xml version="1.0" encoding="UTF-8"?><svg id="a" xmlns="http://www.w3.org/2000/svg" xmlns:xlink="http://www.w3.org/1999/xlink" viewBox="0 0 615.63 392.83"><defs><style>.c{fill:#c8322d;}.d{fill:#fff;}.e{fill:#f5cd8c;}.f{fill:#c01c2a;}.g{fill:#f9ba6a;}.h{fill:#60beb0;}.i{fill:#bb1a1d;}.j{clip-path:url(#b);}.k{fill:#f3f3f5;}.l{fill:#face92;}.m{fill:#2a4661;}.n{fill:#211f1c;}.o{fill:#43b7ac;}.p{fill:#cc2f33;}.q{fill:#56bdba;}.r{fill:#29415b;}</style><clipPath id="b"><rect class="n" x="7.81" y="10.09" width="600" height="339.31"/></clipPath></defs><rect class="n" x="7.81" y="10.09" width="600" height="339.31"/><g class="j"><g><path class="p" d="M189.9,10.09s25.96,27.06,35.83,57.77c9.87,30.71,61.79,85.92,61.79,85.92,0,0,48.26,24.45,7.68,29.05-40.58,4.59-69.1-25.39-69.1-25.39L50.59,10.09H189.9Z"/><path class="f" d="M259,167.49s-9.87-17.82,23.86-3.02c33.73,14.81,9.05,12.34,9.05,12.34,0,0-17,6.03-32.91-9.32Z"/><path class="f" d="M220.88,153.06l-12.88-28.35s-35.65-55.39-48.81-69.1c-13.16-13.71-31.81-45.52-31.81-45.52H50.59L220.88,153.06Z"/><path class="g" d="M61.2,10.09l20.48,10.24s12.8,5.85-1.83,12.07l39.12,20.84s32.54,20.84,45.7,36.56,50.82,43.88,50.82,43.88c0,0,25.23,19.38-2.56,16.09l-60.69-27.79s-29.25-12.07-57.77-20.48c-28.52-8.41-39.49-12.8-39.49-12.8,0,0-30.71-14.99-47.17-35.83V10.09H61.2Z"/><path class="l" d="M28.47,9.36s4.57,22.12,17.18,34.37c12.61,12.25,27.42,20.11,29.62,27.24s0,12.8,0,12.8c0,0-9.14,9.51-30.16-10.24C24.08,53.78,6.72,44.09,6.72,44.09L7.81,10.09l20.66-.73Z"/><path class="l" d="M182.59,95.64s21.21-4.75,29.25,13.16c0,0,3.66,8.04-7.31,6.58,0,0-13.53,.37-21.94-19.74Z"/><path class="q" d="M26.1,216.3s4.39-9.14,30.35-2.92,48.63,11.33,48.63,11.33c0,0,32.54,10.97,7.31,16.09,0,0-103.11,4.75-86.29-24.5Z"/><path class="q" d="M7.81,246.65s12.43-8.04,41.32-1.46c28.88,6.58,90.31-.56,90.31-.56,0,0,39.85-3.09,83.73-33.44,0,0,18.65-4.39,14.99,12.07,0,0-76.42,65.45-178.06,70.57H7.81v-47.17Z"/><path class="m" d="M7.81,302.96s25.59-6.58,73.86-5.48c48.26,1.1,103.11-26.33,103.11-26.33,0,0,21.94-9.51,49.73-33.64,0,0,14.26,1.46,0,21.57,0,0-10.6,9.14-9.51,21.21,0,0-2.19,11.33-17.55,14.63l-128.7,55.21-70.93,1.46v-48.63Z"/><path class="m" d="M244.74,256.89s-4.39-6.95,10.24-19.38c0,0,13.89-14.63,15.72-1.46,0,0-12.43,24.86-25.96,20.84Z"/><path class="d" d="M183.22,350.39l54.11-32.18,62.16-44.61s-5.12-20.11,24.13-47.53c29.25-27.42,23.4-38.39,23.4-38.39,0,0,9.51-7.31,10.24,6.58l-7.18,44.61-119.71,104.57-9.24,6.95h-37.91Z"/><path class="c" d="M215.13,351.95l19.74-16.09,4.39-19.01,58.5-48.26,43.88-32.54,7.68-9.87,4.39-11.7s8.41-4.75,7.31,7.31l-14.26,24.86s18.65-2.93-2.93,25.96l-17.18,19.38,1.1,6.58-32.54,53.38h-80.07Z"/><path class="m" d="M460.46,257.25s-8.78-20.48,20.11-9.51c0,0,72.39,18.28,47.17,54.84l-19.38,8.04-47.9-53.38Z"/><path class="c" d="M442.55,349.39s-12.43-32.54,8.78-38.03c21.21-5.48,35.47,0,35.47,0,0,0-13.53-31.08-37.66-43.88-24.13-12.8-6.22-18.28-6.22-18.28,0,0,10.6-4.02,26.69,12.43l43.51,34,47.17,26.69s47.53,16.09,47.53,27.06h-165.27Z"/><path class="g" d="M388.07,181.2s9.87,8.41,65.08-4.75c55.21-13.16,99.82-26.33,99.82-26.33l57.77-9.87v50.82h-58.14s-125.05,35.47-172.21-1.83c0,0-7.3-10.68,7.68-8.04Z"/><path class="d" d="M528.84,58.35s23.03,2.56,6.95,21.94c-16.09,19.38-59.23,26.33-59.23,26.33,0,0-31.44,1.46-89.21,37.66,0,0-13.89,9.51-13.89,14.99,0,0-20.48,12.8-15.36-8.78,0,0,35.83-25.96,48.99-53.02,13.16-27.06,24.13-61.43,28.88-87.39h176.97V29.1s-80.07,9.87-84.09,29.25Z"/><path class="h" d="M333.23,86.56s16.09-52.71,69.1-76.47h-65.08l-26.69,76.47s-6.22,23.34,6.95,20.05c13.16-3.29,15.72-20.05,15.72-20.05Z"/><path class="f" d="M344.19,45.92s25.96-6.95,38.76,8.04c0,0,23.03,25.23-9.14,55.58,0,0-15.05-.37-6.24-19.01,8.8-18.65-10.3-26.33-10.3-26.33,0,0-26.6,.37-13.07-18.28Z"/><path class="h" d="M314.94,7.89l-8.41,38.76s-21.21,42.41-36.2,1.46c0,0-12.8-20.48-6.58-38.03l51.19-2.19Z"/><path class="f" d="M229.75,16.67s13.16,0,12.8,17.18c0,0-2.19,16.82-17.18,0,0,0-6.95-15.72,4.39-17.18Z"/><g><path class="r" d="M7.81,332.69l75.69-35.19h.04c-.62-.02-1.25,0-1.88-.02-48.26-1.1-73.86,5.48-73.86,5.48v29.73Z"/><path class="r" d="M233.31,238.52c-27.21,23.36-48.53,32.62-48.53,32.62,0,0-12.99,6.49-31.86,13.02l12.12,7.09,69.84-50.17-1.56-2.56Z"/></g><path class="o" d="M235.9,212.86c-4.44-3.6-12.73-1.67-12.73-1.67-43.88,30.35-83.73,33.44-83.73,33.44,0,0-61.43,7.14-90.31,.56-28.88-6.58-41.32,1.46-41.32,1.46v27.13c27.55,.11,154.05-2.65,228.09-60.92Z"/><polygon class="i" points="238.93 351.95 313.81 262.57 304.33 263.72 297.76 268.59 239.26 316.85 234.87 335.86 215.13 351.95 238.93 351.95"/><path class="i" d="M528.84,330.38c-20.11-33.27-59.96-56.6-59.96-56.6,13.89,9.95,45.34,73.42,45.34,73.42l.65,2.19h25.46l-11.49-19.01Z"/><path class="e" d="M552.97,150.12s-27.68,8.17-66.42,18.07l-.13,.1s89.21,12.91,106.76-24.01c.18-.39,.32-.73,.49-1.11l-40.71,6.96Z"/><path class="k" d="M435.97,10.09c-4.36,23.81-13.97,54.63-25.69,80.46-1.22,7.44-2.1,12.78-2.1,12.78,0,0,46.04-43.12,66.84-93.24h-39.05Z"/></g></g></svg>