<svg xmlns="http://www.w3.org/2000/svg" width="859.699" height="857.338" viewBox="0 0 859.699 857.338"><defs><style>.a{opacity:0.07;}</style></defs><path class="a" d="M35.253,362.951c115.091-79.888,284.2-79.888,374.146,35.232-107.939-100.728-273.444-79.14-379.539,16.086C10.913,430.573,0,439.337,0,439.337L2.272,384.93S14.336,376.565,35.253,362.951Zm268.882,10.132C200.717,358.62,99.974,423.371,37.287,506.037c-14.68,19.965-23.858,28.92-23.858,28.92l16.591,51.864s8.5-8.776,20.417-30.6c63.937-125.637,215.05-208.388,351.85-151.559C402.279,404.657,364.064,383.274,304.134,373.083ZM293.6,418.3C186.324,437.763,125.159,542.106,89.486,638.541c-7.748,22.686-13.961,33.426-13.961,33.426l33.432,42.983s6.647-9.366,10.57-33.576C135.969,538.509,247.5,408.982,398.5,412.96c-.006.012-44.248-6.512-104.9,5.349Zm6.083,45.3c-88.177,56.92-124.155,175.655-114.909,281.151.828,24.011-3.776,34.5-3.776,34.5l46.183,28.849s3.247-11-.358-34.686C193.52,635.652,251.09,462.951,397.878,421.879c0,.023-44.615,9.219-98.192,41.729Zm21.433,39.571c-62.83,89.31-55.643,208.042-11.723,306.7,8.409,22.349,7.554,33.79,7.554,33.79l53.291,11.189s-.675-11.488-11.944-32.763C279.868,704.014,272.672,520.517,400.42,430.3c0,.012-39.466,23.8-79.3,72.88Zm33.57,29.184c-35.232,106.9,18.729,218.438,92.728,295.441,16.11,18.459,19.351,29.545,19.351,29.545l53.887-7.836s-4.789-10.57-23.658-26.941C380.614,736.4,315.846,567.291,405.755,437.214c0,.012-29.624,35.5-51.063,95.15Zm41.3,15.8c6.215,112.7,85.373,206.251,185.849,249.63,23.1,11.63,30.3,20.846,30.3,20.846l47.91-25.907s-9.536-7.569-34.231-16.227c-140.854-43.667-255.99-184.008-212.616-334.648C413.195,441.844,396.783,484.883,395.987,548.151Zm44.178,1.089c41.2,104.419,149.149,165.59,255.493,176.768,25.945,3.326,39.636,6.23,39.636,6.23l36.051-40.81s-15.288.32-41.571.255c-147.681,1.55-295.2-92-307.957-248,.012,0-1.383,45.719,18.347,105.558Zm42.278-13.406c42.1,53.059,114.061,85.438,182.422,89.04,61.166,3.6,161.909,21.588,172.7-61.166-140.32,71.958-341.806,35.981-406.9-121.145-.009,0,13.72,43.344,51.768,93.256Zm35.869-26.424c106.976,65.106,240.1,36.324,333.647-39.234,14.386-10.8,3.6-32.384,7.2-50.373C751.208,531.325,549.722,563.712,438.688,438.638c0,0,27.369,36.224,79.615,70.758Zm25.4-36.826c49.19,8.385,99.563,4.789,146.336-16.8,68.362-32.384,187.094-97.146,140.32-183.5C772.8,419.8,589.308,509.751,445.039,432.384c-.009-.015,37.98,25,98.667,40.182Zm11.612-43.341C679.249,412.59,769.2,304.651,783.588,189.516c0-14.386-17.989-32.381-28.773-46.773-7.2,154.727-140.323,305.828-305.852,281.665C448.955,424.407,493.224,435.312,555.326,429.243Zm-4.137-44.8c110.068-58.206,153.259-191.333,128.06-306.468-3.6-10.793-28.773-21.585-46.773-28.773,53.969,147.516-21.588,334.61-182.537,366.413C449.939,415.608,495.212,411.084,551.19,384.445Zm-19.9-40.64C567.7,308.245,582.1,257.875,585.7,207.5c7.2-75.558,0-201.486-97.143-205.085C585.7,121.151,589.3,319.04,447.693,407,447.693,407,488.427,387.628,531.292,343.805Zm-33.447-31.122c44.68-115.972-9.3-241.9-110.035-310.265-10.793-7.193-35.978,3.6-53.97,7.2C470.564,81.577,546.113,268.67,442.373,399.727c0,0,31.1-31.75,55.473-87.044ZM454.98,295.212C452.564,175.129,359.017,77.986,251.078,45.6c-17.992-3.6-39.58,10.8-53.97,21.588C344.625,95.966,481.348,236.307,434.63,394.815c.012-.009,17.49-40.029,20.361-99.613Zm-46.823-1.442c-23.943-64.677-77.913-111.445-139.078-133.039s-147.528-64.762-183.5,10.8C233.1,146.339,416.595,229.093,425.517,392.9c0,0,1.574-43.021-17.349-99.14Zm-44.815,14.9c-83.482-90.361-220.2-90.361-327.17-52.731l-19,51.753s13.779-7.129,37.032-16.85c124.924-54.563,294.029-29.378,362.009,103.412-.012.009-14.568-40.288-52.86-85.593Z"/></svg>