<svg xmlns="http://www.w3.org/2000/svg" width="302.229" height="330.999" viewBox="0 0 302.229 330.999"><defs><style>.a{fill:#d61643;}.b{fill:#f51b4e;}.c{fill:#ffd9d9;}.d{fill:#ffabab;}.e{fill:#f0be90;}.f{fill:#dea979;}.g{fill:#e3a172;}.h{fill:#0171b9;}.i{fill:#fed004;}.j{fill:#a6b4b5;opacity:0.38;}.k{fill:#db1a61;}.l{fill:#e91e78;}.m{fill:#ff3881;}.n{fill:#8fcbe6;}.o{fill:#ffd60a;}.p{fill:#456482;}.q{fill:#304f6e;}.r,.s{fill:#89b9c7;}.s{opacity:0.5;}</style></defs><path d="M524.627,635.535a.849.849,0,0,0-1.185.182,5.755,5.755,0,0,1-.773.849c-.1-.2-.232-.437-.4-.721a13.591,13.591,0,0,0-2.638-3.1,21.188,21.188,0,0,0-2.244-1.709,15.138,15.138,0,0,0-2.861-1.578,5.4,5.4,0,0,0-1.825-.374,5.307,5.307,0,0,0-1.917.35,9.882,9.882,0,0,0-1.738.869,2.206,2.206,0,0,1-1.5.431,5.024,5.024,0,0,1-1.593-.7,5.279,5.279,0,0,0-1.9-.68,4.228,4.228,0,0,0-1.014,0,6.711,6.711,0,0,0-.932.188,11.489,11.489,0,0,0-1.68.611,21.845,21.845,0,0,0-2.847,1.547,27.652,27.652,0,0,0-2.285,1.63,17.379,17.379,0,0,0-2.91,2.838,4.284,4.284,0,0,0-.7,1.184l-.174-.142a2.2,2.2,0,0,1-.562-.765,1.334,1.334,0,0,1-.1-.408,1.473,1.473,0,0,1,0-.2.161.161,0,0,1,.017-.093.6.6,0,0,0,.023-.116h0a.868.868,0,0,0-.055-.475.892.892,0,1,0-1.656.663,1.213,1.213,0,0,1,.058.168c.023.075.046.127.069.191a2.575,2.575,0,0,0,.159.353,3.306,3.306,0,0,0,.408.617,4.494,4.494,0,0,0,1.019.869,7.8,7.8,0,0,0,.814.455c.072.31.191.747.342,1.3l.579,2.14c.235.834.5,1.79.869,2.838a16.721,16.721,0,0,0,1.535,3.339,10.691,10.691,0,0,0,2.948,3.139,14.319,14.319,0,0,0,4.283,1.981,18.12,18.12,0,0,0,4.978.712,17.115,17.115,0,0,0,5.007-.692,13.292,13.292,0,0,0,4.234-2.114,10.334,10.334,0,0,0,2.826-3.241,9.18,9.18,0,0,0,.434-.9c.125-.29.235-.579.345-.869.22-.556.423-1.095.611-1.61.756-2.059,1.286-3.745,1.622-4.923.18-.62.29-1.1.362-1.416a13.216,13.216,0,0,0,1.949-1.263l.017-.015a.949.949,0,0,0,.159-.162A.849.849,0,0,0,524.627,635.535Zm-31.972.869a22.588,22.588,0,0,1,3.032-2.549c.681-.487,1.448-1,2.294-1.5a22.644,22.644,0,0,1,2.78-1.419,11.489,11.489,0,0,1,1.567-.539,4.181,4.181,0,0,1,1.6-.145,4.383,4.383,0,0,1,1.572.579c.269.148.55.313.869.464a3.529,3.529,0,0,0,1.043.365,2.658,2.658,0,0,0,1.158-.1,4.037,4.037,0,0,0,.959-.463,9.562,9.562,0,0,1,1.575-.808,4.4,4.4,0,0,1,1.59-.313,4.652,4.652,0,0,1,1.538.29,15.281,15.281,0,0,1,2.74,1.425,23.4,23.4,0,0,1,2.239,1.561,16.751,16.751,0,0,1,2.766,2.809l.513.678a7.3,7.3,0,0,1-.579.455,8.431,8.431,0,0,1-.927.579,10.568,10.568,0,0,1-3.1,1.129,7.922,7.922,0,0,1-2.181.159,6.584,6.584,0,0,1-1.074-.162,11.049,11.049,0,0,1-1.072-.29c-.715-.217-1.425-.481-2.152-.727a19.748,19.748,0,0,0-2.27-.655,7.37,7.37,0,0,0-2.511-.093,11.629,11.629,0,0,0-2.352.594c-.738.252-1.448.53-2.143.759a7.1,7.1,0,0,1-1.017.229q-.539.084-1.095.13a20.47,20.47,0,0,1-2.236.058,17.961,17.961,0,0,1-2.233-.194,13.008,13.008,0,0,1-2.166-.5,5.636,5.636,0,0,1-1.622-.793c.133-.142.405-.513.886-1Zm29.154,2.989-2.027,4.741-.686,1.561-.376.817c-.122.263-.264.524-.417.785a9.494,9.494,0,0,1-2.606,2.8,14.431,14.431,0,0,1-8.456,2.456,17.709,17.709,0,0,1-4.613-.634,13.6,13.6,0,0,1-3.927-1.738,9.788,9.788,0,0,1-2.7-2.711,17.081,17.081,0,0,1-1.567-3.061c-.408-.993-.741-1.917-1.045-2.728s-.579-1.515-.814-2.079c-.159-.368-.29-.681-.423-.932.322.139.646.261.97.371a21.314,21.314,0,0,0,4.616.869,23.5,23.5,0,0,0,2.349.1h.275c.041.058.084.122.139.188a7.552,7.552,0,0,0,1.37,1.312,10.961,10.961,0,0,0,2.465,1.4,10.549,10.549,0,0,0,3.426.773,8.691,8.691,0,0,0,3.516-.527,7.86,7.86,0,0,0,2.465-1.5,14.217,14.217,0,0,0,1.3-1.323,3.557,3.557,0,0,0,.29-.368c.116,0,.232.017.348.02a14.241,14.241,0,0,0,4.677-.811,16.806,16.806,0,0,0,1.94-.805C522.156,638.631,522,638.976,521.809,639.393Z" transform="translate(-356.61 -463.442)"/><path d="M482.4,643.276c.122.038.452-.895,1.193-1.8a3.366,3.366,0,0,1,1.112-.924c.333-.156.579-.18.579-.246s-.258-.148-.686-.043a2.69,2.69,0,0,0-1.344.935,4.38,4.38,0,0,0-.776,1.4C482.355,643,482.346,643.259,482.4,643.276Z" transform="translate(-351.815 -471.354)"/><path d="M617.024,648.025c.058,0,.09-.348-.017-.869a7.768,7.768,0,0,0-.707-1.969,4.921,4.921,0,0,0-1.292-1.674,1.576,1.576,0,0,0-.579-.29c-.153-.035-.246-.014-.249,0a3.513,3.513,0,0,1,.64.516,6.738,6.738,0,0,1,1.106,1.639,15.661,15.661,0,0,1,.8,1.851C616.873,647.715,616.952,648.027,617.024,648.025Z" transform="translate(-445.453 -473.476)"/><path class="a" d="M528.988,639.042a10.078,10.078,0,0,1-6.052,2.357c-5.086.211-6.082-1.694-9.027-1.807-2.606-.1-3.3,1.26-5.827,1.552-2.711.313-7.512.29-9.812-1.4a26.512,26.512,0,0,1,6.872-5.433,13.593,13.593,0,0,1,4.24-1.7c1.6-.269,2.586.747,3.991,1.225,1.448.5,2.476-.42,3.713-1.011a5.26,5.26,0,0,1,5.085.4A21.45,21.45,0,0,1,529,639.042C528.863,639.149,528.973,639.025,528.988,639.042Z" transform="translate(-363.111 -465.756)"/><path class="a" d="M529.712,661.14c-2.383,4.813-3.354,10.654-8.827,12.994a16.477,16.477,0,0,1-14.161-.808c-4.428-2.569-5.062-7.654-7.153-11.874,2.5,1.069,7.116,1.448,9.817,1.329a6.036,6.036,0,0,0,5.546,3.1c2.954.154,3.574-.377,5.462-2.563.6-.689,3.84-.579,4.749-.712a16.056,16.056,0,0,0,4.567-1.462C529.581,661.406,529.077,661.453,529.712,661.14Z" transform="translate(-364.034 -486.217)"/><path class="b" d="M528.986,638.871c-.11.127-.226.246-.345.362-.061.052-.127.1-.191.145a9.544,9.544,0,0,1-.924.579c-.321.177-.652.342-.99.487a10.942,10.942,0,0,1-1.2.429,2.12,2.12,0,0,1-1.859-1.109,3,3,0,0,1-2.8.206c.232-.33,1.112-1.665,1.326-1.981-.967.562-2.606,1.975-3.765,1.709a18.808,18.808,0,0,0,.675-1.842c-.991.744-3.319,1.793-2.378-1.263-1.344,2.166-2.114,2.786-2.606-.539-.487,2.007-2,3.374-2.5,1.361-.434.594-.935,1.312-1.4,1.914a4.912,4.912,0,0,1-1.318-2.114c-.235,1.124-.405,2.7-1.978,1.022a17.38,17.38,0,0,1,.081,1.94,2.969,2.969,0,0,1-2.433-1.7,6.833,6.833,0,0,1,.217,2.632c-.223.032-.651-.049-.993-.043-.5-.029-1-.081-1.489-.156a12.841,12.841,0,0,1-2.163-.5,5.623,5.623,0,0,1-1.625-.793c.133-.151.405-.518.889-1.014a22.87,22.87,0,0,1,3.026-2.551c.681-.487,1.448-.993,2.3-1.494a22.643,22.643,0,0,1,2.78-1.419,11.106,11.106,0,0,1,1.567-.536,4.242,4.242,0,0,1,1.6-.151,4.479,4.479,0,0,1,1.575.579c.267.148.547.313.869.461a3.45,3.45,0,0,0,1.025.368,2.658,2.658,0,0,0,1.158-.1,4.055,4.055,0,0,0,.961-.463,9.389,9.389,0,0,1,1.57-.808,4.557,4.557,0,0,1,1.593-.316,4.761,4.761,0,0,1,1.541.289,15.2,15.2,0,0,1,2.74,1.425,23.323,23.323,0,0,1,2.236,1.561,16.591,16.591,0,0,1,2.763,2.809C528.7,638.492,528.856,638.7,528.986,638.871Z" transform="translate(-363.147 -465.637)"/><path class="c" d="M571.267,638.639a.921.921,0,0,1-.869.362,2.384,2.384,0,0,1-1.135-.405,2.894,2.894,0,0,1-.892-.889,1.448,1.448,0,0,1-.24-1.037.886.886,0,0,1,.756-.678,1.973,1.973,0,0,1,1.4.336,2.572,2.572,0,0,1,1,1.193A1.213,1.213,0,0,1,571.267,638.639Z" transform="translate(-412.729 -468.339)"/><path class="d" d="M584.319,643.779c-.6.417-1.494-.093-1.228-.771.038-.686.7-.191,1.132.264A.632.632,0,0,1,584.319,643.779Z" transform="translate(-423.334 -473.096)"/><path class="b" d="M529.712,661.14c-.13.266-.29.611-.472,1.028l-2.027,4.744-.686,1.555-.376.82c-.122.263-.263.524-.417.785a9.557,9.557,0,0,1-2.606,2.8,14.414,14.414,0,0,1-8.456,2.453,17.531,17.531,0,0,1-4.61-.631,13.5,13.5,0,0,1-3.93-1.737,9.752,9.752,0,0,1-2.7-2.711,17.083,17.083,0,0,1-1.573-3.061c-.408-.99-.741-1.917-1.045-2.731s-.579-1.509-.814-2.077c-.156-.368-.29-.68-.423-.932.321.139.646.261.97.371a21.315,21.315,0,0,0,4.616.869c.655.055,1.309.093,1.969.1.791.49-.208,1.57-.782,2.647.611.119,1.245-.681,1.871-.093s0,1.651.026,2.34c.1,1.8.715-.232,1.263-.657.869-.686,1.358.258,1.6,1.158.261.982-.078,2.137.255,3.073,1.517-.481.779-2.638,1.856-3.414,1.24-.892,1.474,2.027,1.842,2.8a.347.347,0,0,0,.122.023c.275-.5.536-3.09,1.158-3.186s1.7,2.731,1.949,3.307c.13-.947.3-3.371,1.4-3.837,1.277-.542,1.738,1.462,2.931,1.448-.318-.7-1.738-2.053-1.158-2.864s2.3.055,3.081,0c-.333-.814-2.184-1.8-1.738-2.766.1,0,.2.015.29.017a14.167,14.167,0,0,0,4.694-.834A15.828,15.828,0,0,0,529.712,661.14Z" transform="translate(-364.034 -486.217)"/><path class="c" d="M524.59,689.605c0,.24-.316.478-.869.53a3.5,3.5,0,0,1-2.027-.55,4.528,4.528,0,0,1-1.41-1.312c-.272-.414-.368-.753-.229-.956s.516-.2.99-.038a8.654,8.654,0,0,1,1.555.791c.544.33,1,.6,1.358.84S524.59,689.359,524.59,689.605Z" transform="translate(-378.542 -504.703)"/><path class="c" d="M516.932,683.084l-.041.038-.029.029c-.319.243-.579,0-.822-.179a.291.291,0,0,1-.046-.055c-.154-.214-.191-.559.151-.631l.061-.015s.828.177.753.768C516.958,683.061,516.943,683.061,516.932,683.084Z" transform="translate(-375.621 -501.228)"/><path d="M88.372,447.976c1.992,20.061,3.238,40.211,6.2,60.162a.093.093,0,0,0-.11.07H341.112c2.772-18.613,4.054-37.4,5.821-56.127.75-7.952,1.833-15.89,2.317-23.866.388-6.25.33-12.78-1.772-18.749a20.51,20.51,0,0,0-11.761-12.285,181.767,181.767,0,0,0-25.847-8.132c-7.634-1.888-18.207-3.739-25.861-5.638-6.42-1.593-12.986-2.78-19.151-5.253-6.629-2.659-11.584-7.176-13.66-14.121-2.3-7.663-1.8-16.417-.869-24.266.017-.145-.133-.2-.246-.153a53.964,53.964,0,0,0,7.753-12.873c2.795-6.528,4.3-13.536,5.52-20.5q1.738-9.942,3.113-19.962a198.7,198.7,0,0,0,2.126-37.086c-.156-3.087-.423-6.195-.84-9.282a47.467,47.467,0,0,1-5.094-2.8c-1.8-1.124-3.571-2.317-5.387-3.409-.825-.5-1.654-.993-2.517-1.425-.041-.023-.09-.043-.139-.067-.29-.11-.6-.217-.9-.319-4.741-1.564-9.664-2.317-14.529-3.362-3.944-.849-7.877-1.691-11.853-2.334a8.815,8.815,0,0,1-1.958,1.561,9.073,9.073,0,0,1-6.328.959,21.5,21.5,0,0,0-3.2.032c-5.248.964-10.208,3.087-15.465,4.054-2.43.446-4.883.834-7.278,1.448l-.188.049a25.9,25.9,0,0,1-7.373,6.42c-1.1.675-2.233,1.315-3.336,2-.46.29-.927.579-1.373.869q-.321.214-.634.443c1.717-1.329,1.6-1.234-.353.269l-.565.472-1.341,1.158c-.869.773-1.764,1.541-2.687,2.265a27.221,27.221,0,0,1-8.526,4.868,206.312,206.312,0,0,0,1.772,29.91c.956,7.8,2.2,15.592,3.475,23.35a94.336,94.336,0,0,0,5.32,20.562,47.99,47.99,0,0,0,8.126,13.191c.869,7.428,1.2,15.378-.579,22.687a20.975,20.975,0,0,1-11.7,14.35c-5.841,2.9-12.433,4.153-18.737,5.627-7.443,1.738-17.738,3.69-25.175,5.465a216.291,216.291,0,0,0-25.757,7.59A31.3,31.3,0,0,0,94.2,400.6a19.481,19.481,0,0,0-5.109,6.777c-2.644,5.554-2.951,11.981-2.777,18.007C86.53,432.949,87.642,440.472,88.372,447.976Z" transform="translate(-70.429 -177.236)"/><path class="e" d="M466.96,198.477c.71-10.443-26.643-26.771-31.535-27.723-33.62-6.554-71.343-.608-67.636,42.493-.046,1.685-.015,1.685,0,3.371.127,16.611,2.638,33.162,5.465,49.5,1.234,7.139,2.763,14.327,5.83,20.938a46.308,46.308,0,0,0,5.743,9.415,75.075,75.075,0,0,0,7.912,7.947c4.454,4.156,8.213,9.062,13.44,12.34a23.534,23.534,0,0,0,20.993,2.1c5.343-2.094,9.232-6.137,12.708-10.55a41.009,41.009,0,0,1,3.788-4.5,60.5,60.5,0,0,0,7.767-8.563c8.847-12.375,10.715-27.573,13.049-42.189A245.5,245.5,0,0,0,468,216.916,126.482,126.482,0,0,0,466.96,198.477Z" transform="translate(-270.238 -136.25)"/><path class="f" d="M382.33,332.076a18.639,18.639,0,0,0,3.878-1.326A31.893,31.893,0,0,1,382.33,332.076Z" transform="translate(-280.747 -251.508)"/><path class="e" d="M93.3,729.447c1.816,19.114,3.084,38.305,5.928,57.306h29.334l-1.877-10.032c-.446-2.378-.663-4.819-1.106-7.182a.628.628,0,0,1,.432-.7c3.652-7.7,8.065-15.265,14.228-21.239,6.7-6.5,15.407-10.452,24.358-12.858,5.835-1.57,12.123-1.092,17.973.142a68.462,68.462,0,0,1,19.4,7.3,56.17,56.17,0,0,1,8.109,5.453,39.415,39.415,0,0,1,3.559,3.252,39.347,39.347,0,0,0,3.33,3.475c2.74,2.245,6.7,3.722,9.994,1.668,2.395-1.494,3.765-4.2,5.841-6.1a63.094,63.094,0,0,1,15.8-10.09c6.134-2.9,12.774-5.34,19.563-6.041a55.611,55.611,0,0,1,20.851,2.184A50.955,50.955,0,0,1,308.2,746.2c4.486,3.878,8.758,8.688,10.408,14.5a80.949,80.949,0,0,1,2.606,18.937c.09,2.36.116,4.735.058,7.107h18.879c2.989-19.982,4.22-40.147,6.209-60.237.744-7.509,1.839-15.033,2.056-22.589.177-6.209-.107-13-3.215-18.534-3.881-6.95-11.248-9.227-18.378-11.607-8.242-2.751-16.672-4.8-25.126-6.788-7.156-1.685-14.26-3.562-21.43-5.247-6.163-1.448-12.641-3-18-6.542a21.494,21.494,0,0,1-9.447-14.865c-1.193-7.263-.675-14.807.405-22.047a50.928,50.928,0,0,1-4.344,4.674c-3.455,3.273-5.986,7.31-9.36,10.657a24.383,24.383,0,0,1-15.189,7.4,25.119,25.119,0,0,1-18.456-5.838c-4.535-3.678-8.4-8.138-12.742-12.03a49.786,49.786,0,0,1-3.979-4c1.031,7.188,1.59,14.862.122,22.01a21.594,21.594,0,0,1-10.95,15.042c-5.659,3.128-12.047,4.555-18.291,6-7.3,1.694-14.544,3.629-21.839,5.352-8.575,2.027-20.026,4.188-28.335,7.159-3.765,1.347-7.8,2.589-10.982,5.1a18.5,18.5,0,0,0-5.476,7.118c-2.606,5.919-2.7,12.67-2.357,19.018C91.473,713.8,92.557,721.619,93.3,729.447Z" transform="translate(-73.718 -455.777)"/><path class="f" d="M524.056,1035.33c-3.154,0,.924,10.761-6.056,12.861a21.3,21.3,0,0,0,2.383,2.438c2.74,2.245,6.7,3.721,9.994,1.668a14.665,14.665,0,0,0,3.426-3.371C524.056,1044.241,530.363,1035.33,524.056,1035.33Z" transform="translate(-377.127 -752.042)"/><path class="f" d="M93.329,827.88c1.816,19.114,3.084,38.306,5.928,57.306h29.334l-1.877-10.032c-.446-2.378-.663-4.819-1.106-7.182a.628.628,0,0,1,.432-.7c2.8-5.908,10.374-18.824,18.317-24.723,1.448-21.4-1.489-22.421.321-30.284a151,151,0,0,1,6.229-20c1.738-4.379,17.819-30.524,22.664-35.412-2.3.614-11.2,3.247-13.5,3.765-7.3,1.694-14.544,3.629-21.839,5.352-8.575,2.027-20.026,4.188-28.334,7.159-3.765,1.347-7.8,2.589-10.982,5.1a18.493,18.493,0,0,0-5.476,7.118c-2.606,5.92-2.7,12.67-2.357,19.018C91.5,812.233,92.585,820.052,93.329,827.88Z" transform="translate(-73.747 -554.21)"/><path class="f" d="M431.166,632.96c11.042,8.039,22.07,14.506,35.769,17.86,15.83,3.076,26.194,14.344,32.458,23.119,4.083,6.128,10.3,15,13.44,27.8.217.9,17.767,7.747,10.217,32.69a62.776,62.776,0,0,1,7,1.61,50.958,50.958,0,0,1,19.172,10.223c4.486,3.878,8.758,8.688,10.408,14.5a80.949,80.949,0,0,1,2.606,18.937c.09,2.36.116,4.735.058,7.107h18.879c2.989-19.982,4.219-40.147,6.209-60.237.744-7.509,1.839-15.033,2.056-22.589.177-6.209-.107-13-3.214-18.534-3.881-6.95-11.248-9.227-18.378-11.607-8.242-2.751-16.672-4.8-25.126-6.788-7.156-1.685-14.26-3.562-21.43-5.248-6.163-1.448-12.641-3-18-6.542A21.494,21.494,0,0,1,493.85,640.4c-1.193-7.263-.675-14.807.405-22.047a50.953,50.953,0,0,1-4.344,4.674c-3.455,3.272-5.986,7.309-9.36,10.657a24.524,24.524,0,0,1-15.2,7.379,25.118,25.118,0,0,1-18.456-5.838c-4.535-3.678-8.4-8.138-12.742-12.03a49.807,49.807,0,0,1-3.979-4A83.635,83.635,0,0,1,431.166,632.96Z" transform="translate(-314.733 -455.819)"/><path class="g" d="M537.1,978.484h0C537.009,978.475,537.026,978.475,537.1,978.484Z" transform="translate(-390.651 -711.654)"/><path class="h" d="M214.77,1055.522c1.271,5.575,2.334,11.2,3.371,16.823H407.554v-.29a98.044,98.044,0,0,0-1.355-20.11q-.113-.626-.235-1.242a31.046,31.046,0,0,0-2.027-7.043c-.246-.536-.524-1.06-.825-1.575a33.671,33.671,0,0,0-4.634-5.894l-.339-.356-.165-.174a47.514,47.514,0,0,0-19.114-12.01,63.486,63.486,0,0,0-8.978-2.317,49.855,49.855,0,0,0-12.685-.745,49.29,49.29,0,0,0-11.72,2.5l-.626.211c-.133.043-.263.09-.391.136a77.666,77.666,0,0,0-7.24,2.986c-5.792,2.7-11.769,5.992-16.348,10.527-1.648,1.63-2.847,3.8-4.718,5.187a7.049,7.049,0,0,1-1.083.666,9.119,9.119,0,0,1-8.21-.1c-3.035-1.529-4.874-4.17-7.269-6.452a48.6,48.6,0,0,0-7.918-6.082,67.7,67.7,0,0,0-19.641-8.274c-6.151-1.491-12.945-2.346-19.157-.7a75.789,75.789,0,0,0-12.4,4.5c-12.317,5.76-20.119,17.066-25.928,28.978a.577.577,0,0,1,.038.119C214.657,1055.088,214.709,1055.258,214.77,1055.522Z" transform="translate(-161.556 -741.368)"/><rect transform="translate(147.421 152.898)"/><path d="M580.384,696.243c2.111-1.448,3.64-3.823,5-5.951a53.82,53.82,0,0,0,4.136-8.2c1.124-2.685,2.1-5.43,3.058-8.175.909-2.607,1.978-5.178,2.685-7.819a.067.067,0,0,0-.122-.055,48.275,48.275,0,0,0-2.9,7.24c-.982,2.734-1.955,5.473-3.052,8.167a59,59,0,0,1-3.855,7.848c-1.471,2.482-3.417,4.489-5.109,6.794a.113.113,0,0,0,.159.151Z" transform="translate(-421.321 -489.673)"/><path d="M469.805,697.787a.139.139,0,0,0,.217-.162c-1.882-3.377-4.225-6.447-5.995-9.91a93.6,93.6,0,0,1-4.364-10.55c0-.023-.041,0-.035,0a66.443,66.443,0,0,0,3.426,9.45C464.784,690.5,466.886,694.683,469.805,697.787Z" transform="translate(-335.66 -497.594)"/><path d="M542.592,820.376a.171.171,0,0,0-.29-.11,14.115,14.115,0,0,1-1.523,2,2.5,2.5,0,0,1-2.467.043,9.222,9.222,0,0,1-3.186-2.771c-.133-.162-.411.072-.29.24.938,1.448,2.537,3.273,4.344,3.536A3.065,3.065,0,0,0,542.592,820.376Z" transform="translate(-389.066 -598.703)"/><path d="M341.167,796.736a26.478,26.478,0,0,1,7.84,1.4,29.868,29.868,0,0,1,7.721,4.431c.151.11.321-.136.206-.266-7.24-8.08-19.421-6.73-28.96-4.978-5.239.961-10.446,2.172-15.772,2.569-3,.223-6.064.064-9.07,0a69.052,69.052,0,0,1-10.646-1.046c-.42-.075-.634.669-.2.768,5.769,1.289,12,1.216,17.883,1.066a93.587,93.587,0,0,0,15.2-2.129C330.573,797.55,335.841,796.573,341.167,796.736Z" transform="translate(-216.61 -582.016)"/><path d="M648.234,798.846a82.9,82.9,0,0,1-19.693,1.04c-5.32-.345-10.553-1.6-15.78-2.569-9.557-1.781-21.72-3.055-28.977,4.99-.119.133.026.371.188.252a32.3,32.3,0,0,1,6.922-4.135,25.309,25.309,0,0,1,7.779-1.654c5.279-.359,10.6.631,15.763,1.607a110.058,110.058,0,0,0,15.256,2.271c2.992.142,6.03.037,9.024-.035a50.093,50.093,0,0,0,9.618-.99C648.807,799.518,648.746,798.753,648.234,798.846Z" transform="translate(-423.829 -582.013)"/><path d="M592.249,970.633a19.347,19.347,0,0,0-5.638,1.092q-2.876.8-5.676,1.83a49.664,49.664,0,0,0-9.771,4.857A33.961,33.961,0,0,0,557.6,995.023c-.023.061.072.113.1.049a37.449,37.449,0,0,1,5.856-9.38,35.874,35.874,0,0,1,8.81-7.008,56.158,56.158,0,0,1,9.647-4.344c1.738-.623,3.513-1.158,5.294-1.656a26.685,26.685,0,0,0,5.007-1.555C592.536,971.026,592.556,970.641,592.249,970.633Z" transform="translate(-405.257 -706.079)"/><path d="M428.6,977.6a51.9,51.9,0,0,0-7.475-3.652c-1.755-.707-3.559-1.286-5.366-1.83-2.2-.663-4.576-1.5-6.9-1.448-.29,0-.29.388-.075.5a22.313,22.313,0,0,0,4.57,1.448q2.685.724,5.311,1.633a57.832,57.832,0,0,1,9.783,4.3A34.9,34.9,0,0,1,443.4,995.107c.029.061.13.038.107-.032A34.787,34.787,0,0,0,428.6,977.6Z" transform="translate(-299.434 -706.108)"/><path d="M325.246,1030.714a2.027,2.027,0,0,0,1.231-3.663q-1.607.513-3.2,1.106a2.027,2.027,0,0,0,1.969,2.557Z" transform="translate(-238.746 -746.16)"/><path d="M361.547,1025.61a2.027,2.027,0,1,0,2.027,2.027A2.027,2.027,0,0,0,361.547,1025.61Z" transform="translate(-264.543 -745.137)"/><path d="M397.817,1025.61a2.027,2.027,0,1,0,2.027,2.027A2.027,2.027,0,0,0,397.817,1025.61Z" transform="translate(-290.309 -745.137)"/><path d="M434.069,1033.747a2.027,2.027,0,0,0,1.767-1.025q-1.865-.756-3.765-1.4a1.879,1.879,0,0,0-.041.385A2.042,2.042,0,0,0,434.069,1033.747Z" transform="translate(-316.054 -749.193)"/><path d="M652.278,1033.541a2.027,2.027,0,0,0,2.027-2.027,1.892,1.892,0,0,0-.061-.483q-1.912.669-3.765,1.448A2.027,2.027,0,0,0,652.278,1033.541Z" transform="translate(-471.241 -748.987)"/><path d="M688.027,1025.61a2.027,2.027,0,1,0,2.027,2.027A2.027,2.027,0,0,0,688.027,1025.61Z" transform="translate(-496.474 -745.137)"/><path d="M724.267,1025.61a2.027,2.027,0,1,0,2.027,2.027A2.027,2.027,0,0,0,724.267,1025.61Z" transform="translate(-522.219 -745.137)"/><path d="M758.46,1028.118a2.027,2.027,0,1,0,3.689-1.193c-.825-.235-1.659-.455-2.5-.655A2.027,2.027,0,0,0,758.46,1028.118Z" transform="translate(-547.95 -745.606)"/><path d="M796.84,1037.67a2.026,2.026,0,0,0,1.251.579C797.677,1038.055,797.26,1037.856,796.84,1037.67Z" transform="translate(-575.215 -753.704)"/><path d="M270.877,1061.89a2.027,2.027,0,1,0,2.027,2.027A2.027,2.027,0,0,0,270.877,1061.89Z" transform="translate(-200.131 -770.91)"/><path d="M307.147,1061.89a2.027,2.027,0,1,0,2.027,2.027A2.027,2.027,0,0,0,307.147,1061.89Z" transform="translate(-225.897 -770.91)"/><path d="M343.417,1061.89a2.027,2.027,0,1,0,2.027,2.027A2.027,2.027,0,0,0,343.417,1061.89Z" transform="translate(-251.663 -770.91)"/><path d="M379.687,1061.89a2.027,2.027,0,1,0,2.027,2.027A2.027,2.027,0,0,0,379.687,1061.89Z" transform="translate(-277.43 -770.91)"/><path d="M415.957,1061.89a2.027,2.027,0,1,0,2.027,2.027A2.027,2.027,0,0,0,415.957,1061.89Z" transform="translate(-303.196 -770.91)"/><path d="M452.227,1061.89a2.027,2.027,0,1,0,2.027,2.027A2.027,2.027,0,0,0,452.227,1061.89Z" transform="translate(-328.962 -770.91)"/><path d="M486.43,1064a2.039,2.039,0,0,0,4.078,0v-.139q-1.158-.97-2.386-1.865A2.027,2.027,0,0,0,486.43,1064Z" transform="translate(-354.7 -770.988)"/><path d="M597.288,1066a2.039,2.039,0,1,0,0-4.078,1.967,1.967,0,0,0-.371.035c-.478.327-.944.663-1.41,1.008a2.042,2.042,0,0,0,1.781,3.035Z" transform="translate(-432.005 -770.931)"/><path d="M633.587,1061.89a2.027,2.027,0,1,0,2.027,2.027A2.027,2.027,0,0,0,633.587,1061.89Z" transform="translate(-457.8 -770.91)"/><path d="M669.857,1061.89a2.027,2.027,0,1,0,2.027,2.027A2.027,2.027,0,0,0,669.857,1061.89Z" transform="translate(-483.566 -770.91)"/><path d="M706.127,1061.89a2.027,2.027,0,1,0,2.027,2.027A2.027,2.027,0,0,0,706.127,1061.89Z" transform="translate(-509.332 -770.91)"/><path d="M742.4,1061.89a2.027,2.027,0,1,0,2.027,2.027A2.027,2.027,0,0,0,742.4,1061.89Z" transform="translate(-535.099 -770.91)"/><path d="M778.667,1061.89a2.027,2.027,0,1,0,2.027,2.027A2.027,2.027,0,0,0,778.667,1061.89Z" transform="translate(-560.865 -770.91)"/><path d="M814.937,1061.89a2.027,2.027,0,1,0,2.027,2.027A2.027,2.027,0,0,0,814.937,1061.89Z" transform="translate(-586.631 -770.91)"/><path d="M252.737,1098.16a2.027,2.027,0,1,0,2.027,2.027A2.027,2.027,0,0,0,252.737,1098.16Z" transform="translate(-187.244 -796.676)"/><path d="M289.027,1098.16a2.027,2.027,0,1,0,2.027,2.027A2.027,2.027,0,0,0,289.027,1098.16Z" transform="translate(-213.025 -796.676)"/><path d="M325.277,1098.16a2.027,2.027,0,1,0,2.027,2.027A2.027,2.027,0,0,0,325.277,1098.16Z" transform="translate(-238.777 -796.676)"/><path d="M361.547,1098.16a2.027,2.027,0,1,0,2.027,2.027A2.027,2.027,0,0,0,361.547,1098.16Z" transform="translate(-264.543 -796.676)"/><path d="M397.817,1098.16a2.027,2.027,0,1,0,2.027,2.027A2.027,2.027,0,0,0,397.817,1098.16Z" transform="translate(-290.309 -796.676)"/><path d="M434.1,1098.16a2.027,2.027,0,1,0,2.027,2.027A2.027,2.027,0,0,0,434.1,1098.16Z" transform="translate(-316.083 -796.676)"/><path d="M470.367,1098.16a2.027,2.027,0,1,0,2.027,2.027A2.027,2.027,0,0,0,470.367,1098.16Z" transform="translate(-341.849 -796.676)"/><path d="M506.637,1098.16a2.027,2.027,0,1,0,2.027,2.027A2.027,2.027,0,0,0,506.637,1098.16Z" transform="translate(-367.615 -796.676)"/><path d="M542.817,1104.07a2.029,2.029,0,0,0,1.555-3.33,8.98,8.98,0,0,1-3.125,0,2.027,2.027,0,0,0,1.558,3.354Z" transform="translate(-393.291 -798.509)"/><path d="M579.177,1098.16a2.027,2.027,0,1,0,2.027,2.027A2.027,2.027,0,0,0,579.177,1098.16Z" transform="translate(-419.147 -796.676)"/><path d="M615.447,1098.16a2.027,2.027,0,1,0,2.027,2.027A2.027,2.027,0,0,0,615.447,1098.16Z" transform="translate(-444.914 -796.676)"/><path d="M651.717,1098.16a2.027,2.027,0,1,0,2.027,2.027A2.027,2.027,0,0,0,651.717,1098.16Z" transform="translate(-470.68 -796.676)"/><path d="M688.027,1098.16a2.027,2.027,0,1,0,2.027,2.027A2.027,2.027,0,0,0,688.027,1098.16Z" transform="translate(-496.474 -796.676)"/><path d="M724.267,1098.16a2.027,2.027,0,1,0,2.027,2.027A2.027,2.027,0,0,0,724.267,1098.16Z" transform="translate(-522.219 -796.676)"/><path d="M760.537,1098.16a2.027,2.027,0,1,0,2.027,2.027A2.027,2.027,0,0,0,760.537,1098.16Z" transform="translate(-547.985 -796.676)"/><path d="M796.807,1098.16a2.027,2.027,0,1,0,2.027,2.027A2.027,2.027,0,0,0,796.807,1098.16Z" transform="translate(-573.752 -796.676)"/><path d="M833.077,1098.16a2.027,2.027,0,1,0,2.027,2.027,2.027,2.027,0,0,0-2.027-2.027Z" transform="translate(-599.518 -796.676)"/><path d="M868.783,1104.278a20.759,20.759,0,0,0-1.121-3.148,2.032,2.032,0,0,0,1.121,3.148Z" transform="translate(-625.255 -798.786)"/><path d="M234.607,1134.43a2.027,2.027,0,1,0,2.027,2.027,2.027,2.027,0,0,0-2.027-2.027Z" transform="translate(-174.365 -822.443)"/><path d="M270.877,1134.43a2.027,2.027,0,1,0,2.027,2.027,2.027,2.027,0,0,0-2.027-2.027Z" transform="translate(-200.131 -822.443)"/><path d="M307.147,1134.43a2.027,2.027,0,1,0,2.027,2.027,2.027,2.027,0,0,0-2.027-2.027Z" transform="translate(-225.897 -822.443)"/><path d="M343.417,1134.43a2.027,2.027,0,1,0,2.027,2.027,2.027,2.027,0,0,0-2.027-2.027Z" transform="translate(-251.663 -822.443)"/><path d="M379.687,1134.43a2.027,2.027,0,1,0,2.027,2.027,2.027,2.027,0,0,0-2.027-2.027Z" transform="translate(-277.43 -822.443)"/><path d="M415.957,1134.43a2.027,2.027,0,1,0,2.027,2.027,2.027,2.027,0,0,0-2.027-2.027Z" transform="translate(-303.196 -822.443)"/><path d="M452.227,1134.43a2.027,2.027,0,1,0,2.027,2.027,2.027,2.027,0,0,0-2.027-2.027Z" transform="translate(-328.962 -822.443)"/><path d="M488.5,1134.43a2.027,2.027,0,1,0,2.027,2.027,2.027,2.027,0,0,0-2.027-2.027Z" transform="translate(-354.728 -822.443)"/><path d="M524.767,1134.43a2.027,2.027,0,1,0,2.027,2.027,2.027,2.027,0,0,0-2.027-2.027Z" transform="translate(-380.495 -822.443)"/><path d="M561.027,1134.43a2.027,2.027,0,1,0,2.027,2.027,2.027,2.027,0,0,0-2.027-2.027Z" transform="translate(-406.254 -822.443)"/><path d="M597.317,1134.43a2.027,2.027,0,1,0,2.027,2.027,2.027,2.027,0,0,0-2.027-2.027Z" transform="translate(-432.034 -822.443)"/><path d="M633.587,1134.43a2.027,2.027,0,1,0,2.027,2.027,2.027,2.027,0,0,0-2.027-2.027Z" transform="translate(-457.8 -822.443)"/><path d="M669.857,1134.43a2.027,2.027,0,1,0,2.027,2.027,2.027,2.027,0,0,0-2.027-2.027Z" transform="translate(-483.566 -822.443)"/><path d="M706.127,1134.43a2.027,2.027,0,1,0,2.027,2.027,2.027,2.027,0,0,0-2.027-2.027Z" transform="translate(-509.332 -822.443)"/><path d="M742.4,1134.43a2.027,2.027,0,1,0,2.027,2.027,2.027,2.027,0,0,0-2.027-2.027Z" transform="translate(-535.099 -822.443)"/><path d="M778.667,1134.43a2.027,2.027,0,1,0,2.027,2.027,2.027,2.027,0,0,0-2.027-2.027Z" transform="translate(-560.865 -822.443)"/><path d="M814.937,1134.43a2.027,2.027,0,1,0,2.027,2.027,2.027,2.027,0,0,0-2.027-2.027Z" transform="translate(-586.631 -822.443)"/><path d="M851.207,1134.43a2.027,2.027,0,1,0,2.027,2.027,2.027,2.027,0,0,0-2.027-2.027Z" transform="translate(-612.397 -822.443)"/><path d="M223.472,1172.767a2.027,2.027,0,0,0-2.027-2.027h-.014q.388,1.967.762,3.933A2.027,2.027,0,0,0,223.472,1172.767Z" transform="translate(-166.444 -848.237)"/><path d="M252.737,1170.7a2.027,2.027,0,1,0,2.027,2.027A2.027,2.027,0,0,0,252.737,1170.7Z" transform="translate(-187.244 -848.209)"/><path d="M289.027,1170.7a2.027,2.027,0,1,0,2.027,2.027A2.027,2.027,0,0,0,289.027,1170.7Z" transform="translate(-213.025 -848.209)"/><path d="M325.277,1170.7a2.027,2.027,0,1,0,2.027,2.027A2.027,2.027,0,0,0,325.277,1170.7Z" transform="translate(-238.777 -848.209)"/><path d="M361.547,1170.7a2.027,2.027,0,1,0,2.027,2.027A2.027,2.027,0,0,0,361.547,1170.7Z" transform="translate(-264.543 -848.209)"/><path d="M397.817,1170.7a2.027,2.027,0,1,0,2.027,2.027A2.027,2.027,0,0,0,397.817,1170.7Z" transform="translate(-290.309 -848.209)"/><path d="M434.1,1170.7a2.027,2.027,0,1,0,2.027,2.027A2.027,2.027,0,0,0,434.1,1170.7Z" transform="translate(-316.083 -848.209)"/><path d="M470.367,1170.7a2.027,2.027,0,1,0,2.027,2.027A2.027,2.027,0,0,0,470.367,1170.7Z" transform="translate(-341.849 -848.209)"/><path d="M506.637,1170.7a2.027,2.027,0,1,0,2.027,2.027A2.027,2.027,0,0,0,506.637,1170.7Z" transform="translate(-367.615 -848.209)"/><path d="M542.907,1170.7a2.027,2.027,0,1,0,2.027,2.027A2.027,2.027,0,0,0,542.907,1170.7Z" transform="translate(-393.381 -848.209)"/><path d="M579.177,1170.7a2.027,2.027,0,1,0,2.027,2.027A2.027,2.027,0,0,0,579.177,1170.7Z" transform="translate(-419.147 -848.209)"/><path d="M615.447,1170.7a2.027,2.027,0,1,0,2.027,2.027A2.027,2.027,0,0,0,615.447,1170.7Z" transform="translate(-444.914 -848.209)"/><path d="M651.717,1170.7a2.027,2.027,0,1,0,2.027,2.027A2.027,2.027,0,0,0,651.717,1170.7Z" transform="translate(-470.68 -848.209)"/><path d="M688.027,1170.7a2.027,2.027,0,1,0,2.027,2.027A2.027,2.027,0,0,0,688.027,1170.7Z" transform="translate(-496.474 -848.209)"/><path d="M724.267,1170.7a2.027,2.027,0,1,0,2.027,2.027A2.027,2.027,0,0,0,724.267,1170.7Z" transform="translate(-522.219 -848.209)"/><path d="M760.537,1170.7a2.027,2.027,0,1,0,2.027,2.027A2.027,2.027,0,0,0,760.537,1170.7Z" transform="translate(-547.985 -848.209)"/><path d="M796.807,1170.7a2.027,2.027,0,1,0,2.027,2.027A2.027,2.027,0,0,0,796.807,1170.7Z" transform="translate(-573.752 -848.209)"/><path d="M833.077,1170.7a2.027,2.027,0,1,0,2.027,2.027,2.027,2.027,0,0,0-2.027-2.027Z" transform="translate(-599.518 -848.209)"/><path d="M869.384,1170.7a2.027,2.027,0,1,0,1.958,2.606c0-.411-.017-.82-.029-1.228A2.027,2.027,0,0,0,869.384,1170.7Z" transform="translate(-625.321 -848.209)"/><path class="f" d="M509.193,574.422c-3.325-.038-6.661.075-9.971.162a21.44,21.44,0,0,0-9.632,2.317,2.919,2.919,0,0,1,.385.623c.545,1.115,1.144,2.829,1.961,4.941a28.844,28.844,0,0,0,1.538,3.388,12.743,12.743,0,0,0,2.566,3.351,8.764,8.764,0,0,0,1.845,1.277A12.459,12.459,0,0,0,500,591.3a17.687,17.687,0,0,0,4.634.707,15.055,15.055,0,0,0,4.634-.579,10.424,10.424,0,0,0,2.1-.869,7.821,7.821,0,0,0,1.8-1.373,14.765,14.765,0,0,0,2.421-3.475c.617-1.179,1.106-2.317,1.535-3.365.849-2.091,1.5-3.782,2.071-4.877.046-.1.093-.18.139-.258C515.9,576.484,512.587,575.2,509.193,574.422Z" transform="translate(-356.945 -424.608)"/><path d="M533.211,642.5c.075.1-.165.142-.348.07a30.6,30.6,0,0,0-2.9-1.242,6.749,6.749,0,0,0-3.339-.026,6.372,6.372,0,0,0-3.1,1.738c-.11.1-.579-.043-.5-.151a5.755,5.755,0,0,1,4.344-2.2C529.632,640.521,532.368,641.416,533.211,642.5Z" transform="translate(-380.688 -471.671)"/><path class="f" d="M436.19,416.51a20.413,20.413,0,0,0-13.713-1.448c-3.947.8-7.865,1.57-11.766,2.239l-.2-.081c-.026.041-.046.084-.072.127-11.874,2.027-23.579,3.035-35.239.805.964,7.6,2.192,15.169,3.5,22.7.605,3.5,1.283,7.014,2.178,10.466a61.285,61.285,0,0,0,3.652,10.472,46.3,46.3,0,0,0,5.743,9.415,42.6,42.6,0,0,0,3.548,3.866c-.127-.579-3.765-6.832-3.985-7.275-2.916-5.818-2.659-8.222,2.3-13.458,3.455-3.443,5.5-3.889,7.53-8.193.487-.356,1.859-.7,4.868-2.317,1.723-.938,7.35-3.458,7.715-5.743s3.333-6.716,3.84-8.978c.944-4.2.756-4.133,2.395-7.278,2.317-2.476,6.661-1.8,9.267.8.385.382.741.782,1.083,1.193.822,1.662.851,2.268,1.607,5.5.507,2.166,3.032,6.586,3.84,8.639.782,1.992,5.751,3.765,7.608,5.294,3.113,2.58,7.069,7.034,10.594,10.573,3.878,3.9,2.476,10.09-1.127,22.551a55.3,55.3,0,0,0,5.543-6.4,66.959,66.959,0,0,0,8.523-18.6,183.4,183.4,0,0,0,4.121-21.013C457.843,427.656,447.018,421.491,436.19,416.51Z" transform="translate(-275.682 -310.984)"/><path d="M568.543,476.648c-.365,1.37-1.917,1.81-2.78,2.731a.165.165,0,0,0,.055.29c1.019.29,2.027-.869,2.7-1.567a3.569,3.569,0,0,0,.817-2.9,8.628,8.628,0,0,0-1.294-3.223c-.979-1.738-1.4-3.779-2.523-5.433-.041-.061-.171-.046-.139.043a65.809,65.809,0,0,0,2.685,6.806A4.753,4.753,0,0,1,568.543,476.648Z" transform="translate(-410.781 -347.954)"/><path d="M506.288,479.646a.165.165,0,0,0,.1-.269c-.8-.938-2-1.306-2.656-2.433-.631-1.08-.122-2.508.319-3.542.959-2.253,1.906-4.486,2.7-6.823a.078.078,0,0,0-.136-.067,25.336,25.336,0,0,0-2.126,4.634c-.64,1.549-1.561,2.737-1.738,4.425a3.545,3.545,0,0,0,1.132,2.818C504.475,479.02,505.393,479.872,506.288,479.646Z" transform="translate(-366.284 -347.935)"/><path d="M547.867,502.648c1-.33,2.653-.869,3.2-1.659.246-.347-.217-.993-.579-1.208a2.03,2.03,0,0,0-1.422-.093,3.993,3.993,0,0,0-1.856,1.187c-.712.669-1.344,1.416-1.975,2.131C545.1,503.2,546.61,503.06,547.867,502.648Z" transform="translate(-396.47 -371.464)"/><path d="M513.611,500.989c.553.779,2.2,1.329,3.206,1.659,1.266.411,2.772.536,2.606.359-.628-.715-1.263-1.463-1.972-2.132a4.009,4.009,0,0,0-1.856-1.187,2.036,2.036,0,0,0-1.425.093C513.831,500.01,513.365,500.642,513.611,500.989Z" transform="translate(-373.96 -371.464)"/><path class="i" d="M652.219,1042.653l-.1-.047c-8.954-4.477-19.076-7.049-28.9-9.421q-3.293-.825-6.528-1.384c-16.823-2.9-32.89-.29-51.63,10.976l.11-.13c1.011-1.2,3.322-4.026,4.3-5,4.613-4.567,10.643-7.886,16.472-10.608a79.949,79.949,0,0,1,7.53-3.09c.127-.046.258-.093.391-.136l.625-.211a49.725,49.725,0,0,1,11.584-2.441,50.48,50.48,0,0,1,12.818.756,64.966,64.966,0,0,1,9,2.34,47.952,47.952,0,0,1,19.253,12.1l.339.356A35.292,35.292,0,0,1,652.219,1042.653Z" transform="translate(-410.566 -741.89)"/><path class="i" d="M308.95,1041.6c-1.877-1.5-3.356-3.394-5.14-5.094a49.3,49.3,0,0,0-8.036-6.168,68.649,68.649,0,0,0-19.939-8.4c-6.244-1.515-13.139-2.383-19.447-.71a77.062,77.062,0,0,0-12.586,4.567c-10.97,5.129-18.41,14.593-24.051,25C245.545,1018.486,281.487,1026.667,308.95,1041.6Z" transform="translate(-165.25 -741.375)"/><path d="M308.95,1060.283a21.952,21.952,0,0,0-3.336-2c-2.2-1.193-5.427-2.838-9.557-4.581a97.6,97.6,0,0,0-14.932-4.973,71.612,71.612,0,0,0-19.18-2.076,56.287,56.287,0,0,0-9.948,1.231,52.082,52.082,0,0,0-8.914,2.8,53.271,53.271,0,0,0-13.464,8.2,59.763,59.763,0,0,0-7.53,7.478,19.277,19.277,0,0,0-2.337,3.107c.055.041.959-1,2.656-2.826a70.551,70.551,0,0,1,7.7-7.159,54.781,54.781,0,0,1,13.362-7.857,52.2,52.2,0,0,1,8.755-2.687,56.42,56.42,0,0,1,9.762-1.2,72.392,72.392,0,0,1,18.908,1.964,104.889,104.889,0,0,1,14.871,4.706c4.138,1.639,7.405,3.185,9.658,4.243S308.913,1060.341,308.95,1060.283Z" transform="translate(-165.251 -760.062)"/><path d="M650.665,1065.278a18.615,18.615,0,0,0-3.1-1.738c-2.044-1.031-5.05-2.473-8.891-4.005a101.2,101.2,0,0,0-13.88-4.454,83.354,83.354,0,0,0-17.828-2.351,74.576,74.576,0,0,0-17.906,1.8,77.438,77.438,0,0,0-13.857,4.544,79.419,79.419,0,0,0-8.688,4.41,16.97,16.97,0,0,0-2.951,1.952,30.86,30.86,0,0,0,3.186-1.59c2.027-1.051,4.987-2.531,8.781-4.075A82.553,82.553,0,0,1,589.3,1055.5a76.612,76.612,0,0,1,17.634-1.682,86.394,86.394,0,0,1,17.585,2.233,111.609,111.609,0,0,1,13.828,4.182c3.852,1.433,6.9,2.757,9,3.675A26.74,26.74,0,0,0,650.665,1065.278Z" transform="translate(-409.497 -764.391)"/><path class="j" d="M807.915,1085.69h15.514v-.29a96.114,96.114,0,0,0-1.59-21.352,24.187,24.187,0,0,0-7.979-15.042,46.941,46.941,0,0,0-13.9-9.916C809.146,1056.964,810.363,1073.816,807.915,1085.69Z" transform="translate(-577.432 -754.713)"/><path class="j" d="M495.852,1095.6h4.984c-1.738-11.723,2.053-26.238,8.72-36.307-.319.29-.637.579-.944.9-1.946,1.926-3.267,4.6-5.792,5.853a9.11,9.11,0,0,1-8.21-.1c-3.035-1.526-4.871-4.164-7.269-6.449a48.721,48.721,0,0,0-7.918-6.082c-.206-.127-.414-.252-.623-.377C479.4,1054.094,496.422,1075.583,495.852,1095.6Z" transform="translate(-349.28 -764.623)"/><path class="j" d="M214.806,1078.486c1.271,5.575,2.334,11.2,3.371,16.823h9.537c-2.189-10.553-2.4-25.212,6.1-42.678-8.572,6.226-14.538,15.418-19.215,25a.476.476,0,0,1,.035.119C214.693,1078.051,214.742,1078.222,214.806,1078.486Z" transform="translate(-161.592 -764.332)"/><path class="j" d="M690.93,1059.818c14.306-8.8,16.956-32.479,17.376-35.879a.294.294,0,0,0,0-.07,63.463,63.463,0,0,1,8.978,2.317A47.515,47.515,0,0,1,736.4,1038.2l.165.174.339.356a35.436,35.436,0,0,1,4.718,5.94l-.1-.047c.29.516.579,1.04.825,1.576a31.326,31.326,0,0,1,2.027,7.043C744.465,1053.647,712.795,1075.037,690.93,1059.818Z" transform="translate(-499.977 -743.901)"/><path d="M341.02,242.645c-8.865,12.537-23.1,2.317-30.153-7,5.071-2.656,11.457-4.054,14.138-8.361,8.818-14.124,1.584-28.862-11.989-26.519,4.4,6.163-4.741,19.942-13.869,8.158-5.972-7.706-8.578-18.844-9.137-28.447-.869-14.77-1.914-28.575-10.278-52.615-4.839-13.9-50.356-110.561-127.983-52.151-23.962-4.761-40.318,23.133-47.4,50.034-9.091,34.509-13.1,52.357-33.127,61.436-9,4.078-23.7,7.388-24.735-5.566-11.674,30.527,9.3,39.473,28.036,38.859-5.528,12.615-11.294,26.458-25.331,23.55C53.362,253.9,59.47,261.244,66.351,264.5a58.347,58.347,0,0,0,1.622,20.153c1.946,7.544,24.573,35.5,49.777,43.252-7.738-14.263-5.129-34.955,1.6-49.724,4.2,5.665,11.294,10.217,18.662,10.229,0,0-9.557-18.135,4.373-30.3,14.836-7.24,15.019-25.9,12.517-38.459-8.167-10.284-8.3-14.312-11.483-27.049-2.832-12.027-4.634-22.45-3.212-34.833,1.051-7.075,3.721-14.031,6.554-20.75,1.758-3.22,11.077-24.439,13.322-37.6,1.738,11.355,6.716,25.259,15.184,23.956,0,0-9.762-4.251-8.352-18.786l.345.411c4.118,12.971,18.309,28.442,36.553,26.991,0,0-14.373-4.833-21.3-15.688,17.034,9.311,38.769,16.322,45.878,39.142,7.935,25.485-12.3,49.478-10.072,80.911.869,12.212,3.412,21.653,8.688,30.234,21.254,41.821-6.89,39.444-6.89,39.444,5.853,9.742,23.6,10.3,31.036,5.109.579-.376,1.141-.785,1.694-1.213,4.492,21.72,1,48.105-22.612,57.147,51.975,36.2,101.5-35.543,92.093-90.575C338.659,274.684,344.538,257.844,341.02,242.645Z" transform="translate(-39.772 -57.126)"/><path d="M453.727,349.184a27.643,27.643,0,0,0-5.644-8.911,26.146,26.146,0,0,0-8.488-5.966,25.036,25.036,0,0,0-20.072-.035,26.218,26.218,0,0,0-8.537,5.951c-.411.429-.8.869-1.184,1.335h-.017c-1.306.258-2.4,1.129-3.649,1.552a44.369,44.369,0,0,1-4.978,1.358,4.835,4.835,0,0,0-.269-1.008,4.906,4.906,0,0,0-2.569-2.731,4.585,4.585,0,0,0-3.681-.026A4.967,4.967,0,0,0,392,343.438a4.783,4.783,0,0,0-.29,1.022,37.19,37.19,0,0,1-4.208-.707,12.232,12.232,0,0,1-2.392-.944,26.516,26.516,0,0,0-2.172-2.586,26.174,26.174,0,0,0-8.535-5.951,25.036,25.036,0,0,0-20.072.035,26.143,26.143,0,0,0-8.488,5.966,27.591,27.591,0,0,0-5.644,8.911,28.4,28.4,0,0,0,.084,20.921,27.257,27.257,0,0,0,5.673,8.818,25.638,25.638,0,0,0,8.433,5.835,25,25,0,0,0,9.907,1.99,25.6,25.6,0,0,0,9.87-2.062h0a27.076,27.076,0,0,0,8.508-5.708,26.463,26.463,0,0,0,6.866-11.677c1.738-3.252,3.377-7.176,7.327-7.318,2.76-.1,4.613,1.827,5.9,4.193.605,1.118,1.08,2.546,1.738,3.724.246.793.521,1.573.837,2.337a26.811,26.811,0,0,0,5.853,8.74,27.117,27.117,0,0,0,8.511,5.708h0a25.6,25.6,0,0,0,9.87,2.062,25,25,0,0,0,9.907-1.99,25.638,25.638,0,0,0,8.448-5.835,27.3,27.3,0,0,0,5.673-8.818,28.436,28.436,0,0,0,.084-20.921Z" transform="translate(-249.432 -252.531)"/><path d="M510.83,544.863a.892.892,0,0,0-1.242.191,6.221,6.221,0,0,1-.814.895c-.1-.211-.24-.463-.42-.759a14.14,14.14,0,0,0-2.769-3.258,22.156,22.156,0,0,0-2.357-1.8,15.944,15.944,0,0,0-3-1.657,5.706,5.706,0,0,0-1.914-.391,5.472,5.472,0,0,0-2.027.368,10.327,10.327,0,0,0-1.824.915,2.318,2.318,0,0,1-1.578.455,5.314,5.314,0,0,1-1.671-.73,5.528,5.528,0,0,0-2-.715,4.337,4.337,0,0,0-1.063,0,7.8,7.8,0,0,0-.979.2,12.512,12.512,0,0,0-1.764.643,23.126,23.126,0,0,0-2.989,1.625,28.344,28.344,0,0,0-2.4,1.711,17.965,17.965,0,0,0-3.052,2.98,4.443,4.443,0,0,0-.73,1.242,2.546,2.546,0,0,1-.776-.953,1.449,1.449,0,0,1-.1-.426,1.226,1.226,0,0,1,0-.208.4.4,0,0,1,.017-.1.743.743,0,0,0,.023-.125h0a.938.938,0,1,0-1.8.2,1.586,1.586,0,0,1,.061.174c.02.078.046.136.07.2a3.034,3.034,0,0,0,.168.371,3.392,3.392,0,0,0,.432.646,4.654,4.654,0,0,0,1.069.924,7.864,7.864,0,0,0,.854.478c.078.327.2.785.359,1.37l.617,2.244c.246.869.527,1.88.906,2.983a17.573,17.573,0,0,0,1.616,3.5,11.179,11.179,0,0,0,3.093,3.3,15,15,0,0,0,4.5,2.079,19.11,19.11,0,0,0,5.227.75,17.987,17.987,0,0,0,5.242-.738,14.049,14.049,0,0,0,4.466-2.224,10.89,10.89,0,0,0,2.971-3.417,9.453,9.453,0,0,0,.458-.947c.13-.313.246-.6.362-.9.232-.579.443-1.158.643-1.691.791-2.16,1.349-3.933,1.7-5.169.185-.649.313-1.159.376-1.486a13.94,13.94,0,0,0,2.047-1.326h.017a.939.939,0,0,0,.168-.171.892.892,0,0,0-.194-1.263Zm-33.568.924a23.9,23.9,0,0,1,3.186-2.676c.715-.513,1.52-1.048,2.407-1.573a24.165,24.165,0,0,1,2.922-1.489,11.987,11.987,0,0,1,1.645-.579,4.412,4.412,0,0,1,1.683-.153,4.665,4.665,0,0,1,1.651.628c.29.156.579.33.9.487a3.7,3.7,0,0,0,1.106.359,2.775,2.775,0,0,0,1.208-.107,4.226,4.226,0,0,0,1.008-.487,9.813,9.813,0,0,1,1.654-.848,4.648,4.648,0,0,1,1.671-.33,4.813,4.813,0,0,1,1.613.3,16.035,16.035,0,0,1,2.876,1.494,24.238,24.238,0,0,1,2.349,1.639,17.629,17.629,0,0,1,2.9,2.948q.327.426.539.713c-.194.168-.391.327-.6.478a9.145,9.145,0,0,1-.97.614,11.294,11.294,0,0,1-3.255,1.2,8.476,8.476,0,0,1-2.288.168,7.261,7.261,0,0,1-1.127-.171c-.376-.081-.753-.185-1.126-.289-.75-.229-1.5-.5-2.259-.765a20.3,20.3,0,0,0-2.381-.686,7.748,7.748,0,0,0-2.638-.1,12.315,12.315,0,0,0-2.467.626c-.776.264-1.523.556-2.253.793a7.285,7.285,0,0,1-1.066.24c-.376.061-.762.1-1.158.136a21.114,21.114,0,0,1-2.346.064,19.221,19.221,0,0,1-2.346-.206,13.342,13.342,0,0,1-2.273-.527,5.874,5.874,0,0,1-1.706-.831C476.471,546.693,476.758,546.305,477.262,545.787Zm30.614,3.128-2.123,4.978-.724,1.636-.391.869a8.753,8.753,0,0,1-.44.825,9.941,9.941,0,0,1-2.728,2.925,15.066,15.066,0,0,1-8.876,2.578,18.406,18.406,0,0,1-4.842-.663,14.289,14.289,0,0,1-4.127-1.813,10.283,10.283,0,0,1-2.838-2.847,17.85,17.85,0,0,1-1.665-3.215c-.429-1.04-.779-2.013-1.1-2.864s-.605-1.587-.854-2.181c-.168-.388-.316-.715-.446-.979.339.145.68.272,1.022.388a22.484,22.484,0,0,0,4.845.915c.817.067,1.636.11,2.465.1h.29c.04.064.09.128.145.2a7.944,7.944,0,0,0,1.448,1.378,11.51,11.51,0,0,0,2.589,1.468,11.057,11.057,0,0,0,3.591.8,9.107,9.107,0,0,0,3.69-.553,8.209,8.209,0,0,0,2.586-1.578,14.6,14.6,0,0,0,1.367-1.39,3.489,3.489,0,0,0,.29-.385c.125,0,.243.017.368.02a15.032,15.032,0,0,0,4.909-.851,17.47,17.47,0,0,0,2.027-.846C508.235,548.115,508.07,548.489,507.876,548.915Z" transform="translate(-345.538 -398.802)"/><path d="M466.538,552.99c.127.041.475-.938,1.254-1.885a3.566,3.566,0,0,1,1.158-.967c.353-.165.611-.191.614-.258s-.272-.156-.718-.046a2.8,2.8,0,0,0-1.413.979,4.612,4.612,0,0,0-.817,1.477C466.491,552.7,466.48,552.975,466.538,552.99Z" transform="translate(-340.545 -407.108)"/><path d="M607.8,557.95c.061,0,.093-.365-.02-.921a7.988,7.988,0,0,0-.741-2.068,5.131,5.131,0,0,0-1.355-1.758,1.667,1.667,0,0,0-.623-.31c-.162-.035-.258,0-.261.015a3.574,3.574,0,0,1,.672.542,7.064,7.064,0,0,1,1.158,1.72,16.176,16.176,0,0,1,.837,1.946C607.655,557.625,607.736,557.953,607.8,557.95Z" transform="translate(-438.79 -409.308)"/><path class="k" d="M515.443,548.544a10.579,10.579,0,0,1-6.354,2.476c-5.34.22-6.371-1.778-9.479-1.9-2.725-.1-3.475,1.32-6.116,1.628-2.847.33-7.886.321-10.3-1.474a27.8,27.8,0,0,1,7.205-5.7,14.3,14.3,0,0,1,4.451-1.784c1.674-.29,2.716.785,4.191,1.286,1.535.524,2.606-.44,3.9-1.06a5.527,5.527,0,0,1,5.34.42,22.532,22.532,0,0,1,7.168,6.108C515.313,548.657,515.428,548.527,515.443,548.544Z" transform="translate(-352.398 -401.229)"/><path class="k" d="M516.215,571.74c-2.5,5.054-3.524,11.187-9.267,13.643a17.289,17.289,0,0,1-14.865-.849c-4.648-2.7-5.317-8.036-7.512-12.453,2.621,1.121,7.469,1.532,10.31,1.4a6.333,6.333,0,0,0,5.821,3.249c3.1.159,3.765-.4,5.737-2.693.626-.721,4.028-.6,4.981-.747a16.774,16.774,0,0,0,4.8-1.535C516.076,572.021,515.549,572.067,516.215,571.74Z" transform="translate(-353.379 -422.708)"/><path class="l" d="M515.4,548.265a5,5,0,0,1-.359.38c-.067.055-.136.1-.2.153a9.624,9.624,0,0,1-.97.614,10.429,10.429,0,0,1-1.04.51,11.467,11.467,0,0,1-1.26.452,2.213,2.213,0,0,1-1.949-1.158,3.148,3.148,0,0,1-2.945.217c.243-.345,1.158-1.738,1.393-2.079-1.016.579-2.74,2.076-3.965,1.792a18.873,18.873,0,0,0,.71-1.932c-1.043.779-3.475,1.882-2.5-1.326-1.41,2.276-2.215,2.925-2.737-.579-.513,2.105-2.105,3.542-2.627,1.428-.458.623-.985,1.378-1.477,2.01a5.12,5.12,0,0,1-1.381-2.218c-.249,1.179-.426,2.835-2.076,1.072a18.44,18.44,0,0,1,.084,2.027,3.119,3.119,0,0,1-2.554-1.787,7.181,7.181,0,0,1,.229,2.766c-.235.032-.686-.052-1.043-.046-.524-.032-1.046-.084-1.564-.162a13.572,13.572,0,0,1-2.273-.527,6.035,6.035,0,0,1-1.706-.834c.142-.156.429-.545.935-1.063a23.888,23.888,0,0,1,3.186-2.679c.715-.513,1.52-1.045,2.409-1.57a24.117,24.117,0,0,1,2.919-1.489,11.592,11.592,0,0,1,1.645-.579,4.43,4.43,0,0,1,1.685-.156,4.7,4.7,0,0,1,1.651.62c.29.154.579.327.9.484a3.7,3.7,0,0,0,1.106.359,2.774,2.774,0,0,0,1.208-.107,4.174,4.174,0,0,0,1.008-.486,9.913,9.913,0,0,1,1.651-.849,4.678,4.678,0,0,1,1.674-.33,4.828,4.828,0,0,1,1.616.3,16.144,16.144,0,0,1,2.876,1.494,24.188,24.188,0,0,1,2.346,1.639,17.474,17.474,0,0,1,2.9,2.948C515.1,547.865,515.281,548.086,515.4,548.265Z" transform="translate(-352.398 -401.005)"/><path class="c" d="M559.909,548.13a.976.976,0,0,1-.9.379,2.543,2.543,0,0,1-1.193-.426,3.061,3.061,0,0,1-.935-.935,1.5,1.5,0,0,1-.252-1.086.932.932,0,0,1,.794-.712,2.065,2.065,0,0,1,1.474.353,2.671,2.671,0,0,1,1.045,1.251,1.272,1.272,0,0,1-.032,1.176Z" transform="translate(-404.556 -403.946)"/><path class="d" d="M573.543,553.517c-.634.437-1.57-.1-1.289-.808.041-.721.736-.2,1.187.29A.666.666,0,0,1,573.543,553.517Z" transform="translate(-415.633 -408.935)"/><path class="l" d="M516.2,571.74c-.139.289-.3.643-.5,1.08l-2.126,4.978-.721,1.636-.394.869c-.13.289-.29.55-.44.822a9.943,9.943,0,0,1-2.728,2.928,15.072,15.072,0,0,1-8.876,2.578,18.406,18.406,0,0,1-4.842-.663,14.255,14.255,0,0,1-4.127-1.813,10.249,10.249,0,0,1-2.838-2.847,17.758,17.758,0,0,1-1.665-3.215c-.429-1.04-.779-2.01-1.1-2.864s-.6-1.587-.854-2.181c-.165-.388-.316-.715-.446-.979.339.145.681.272,1.019.388a22.545,22.545,0,0,0,4.848.915c.686.055,1.373.1,2.068.1.828.513-.22,1.648-.822,2.78.643.122,1.309-.715,1.964-.1s0,1.737.029,2.456c.1,1.891.75-.243,1.323-.689.93-.721,1.428.269,1.68,1.222.29,1.031-.081,2.244.266,3.226,1.593-.507.82-2.771,1.949-3.585,1.3-.938,1.547,2.134,1.935,2.939a.391.391,0,0,0,.127.023c.29-.518.562-3.244,1.208-3.356s1.784,2.867,2.045,3.475c.139-1,.321-3.539,1.474-4.028,1.338-.579,1.813,1.532,3.076,1.5-.333-.736-1.813-2.155-1.219-3.006s2.415.058,3.238,0c-.353-.852-2.294-1.894-1.822-2.9.1,0,.208.014.316.017a14.877,14.877,0,0,0,4.909-.869A16.97,16.97,0,0,0,516.2,571.74Z" transform="translate(-353.364 -422.708)"/><path class="c" d="M510.789,601.6c0,.252-.33.5-.927.556a3.665,3.665,0,0,1-2.117-.579,4.8,4.8,0,0,1-1.491-1.387c-.29-.434-.388-.791-.24-1s.542-.211,1.04-.041a9.216,9.216,0,0,1,1.648.837c.579.35,1.048.634,1.428.869S510.789,601.334,510.789,601.6Z" transform="translate(-368.563 -442.09)"/><path class="c" d="M502.78,594.781l-.043.043-.032.029c-.333.255-.605,0-.869-.188a.437.437,0,0,1-.046-.058c-.162-.223-.2-.579.159-.663l.061-.014s.869.185.793.805A.1.1,0,0,1,502.78,594.781Z" transform="translate(-365.527 -438.472)"/><path d="M91.772,564.875c2.111-15.638,1.836-31.659,1.685-47.376-.191-20.066.29-40.04,2.855-59.967a239.143,239.143,0,0,1,4.738-25.424c1.564-6.73,12.858-22.189,15.52-26.278a49.466,49.466,0,0,0,5.575-10.961c1.546-4.532,7.278-8.317,6.371-7.845-1.532.8,9.412-5.983,11.219-7.185,3.747-2.493,8.688-3.692,12.719-5.633a.947.947,0,0,0,.107-.067,6.88,6.88,0,0,0,2.146-.941,34.647,34.647,0,0,0,3.658-2.027c.339-.217,3.881-2.456,2.3-3.157a2.968,2.968,0,0,0-.941-.223c-2.14-2.876-5.5-3.391-9.03-3.061-1.839.174-8.65,2.9-10.579,3.7-1.011.414-3.886,1.7-5.806,2.253-2.931.843-6.447,2.071-8.207,2.557a21.366,21.366,0,0,1-7.011.869,4.3,4.3,0,0,1-2.8-2.412c-.133-.229-.258-.458-.376-.675-.515-1.431-.107-3.678.035-4.77a44.563,44.563,0,0,1,1.306-6.056c.964-3.475,1.862-7,2.606-10.539a53.891,53.891,0,0,1,2.76-10.31c1.242-2.916,3.1-5.415,4.576-8.2,1.549-2.931,2.606-6.082,4.211-9,1.4-2.548,7.414-8.642,3.333-11.413a.248.248,0,0,0-.075-.032,4.9,4.9,0,0,0,.652-3.133.214.214,0,0,0-.275-.151c-1.211.478-1.972,1.8-2.928,2.682-.017-.382-.038-.762-.064-1.135a3,3,0,0,0,1.184-2.2c-.127-1.448-2.178-.579-2.9-.258-2.273,1.016-3.765,2.829-5.5,4.526a4.342,4.342,0,0,0-.353-1.109,4.115,4.115,0,0,0,.895-3.38.391.391,0,0,0-.336-.275c-1.738-.029-4.228,2.491-5.734,4.222-1.225,1.416-3.49,3.29-3.655,5.291a.264.264,0,0,0-.029.125c-2.572,2.656-5.059,5.479-7.724,8.025-2.36,2.259-4.81,4.086-6.189,7.142a20.652,20.652,0,0,0-1.19,4.57c-.391,2.027-.906,4.037-1.37,6.053C98.4,345,97.332,349.331,94.963,352a24.084,24.084,0,0,0-1.158-2.189c-1.106-1.833.237-4.88.617-6.919a24.432,24.432,0,0,0,.4-5.8,21.948,21.948,0,0,0-.455-3.162,5,5,0,0,1,.489-2.12,21.884,21.884,0,0,0,.258-8.514c-.29-2.027-.869-4.55-2.725-5.7a2.375,2.375,0,0,0-1.654-.235h-.017c.046-.681.084-1.358.1-2.027a.229.229,0,0,0-.194-.243c-3.907-.388-3.475,10.313-3.365,10.35a.1.1,0,0,0-.029.041c-1.158,2.45-1.422,5.384-2.027,8.01-.041.18-.087.356-.133.533a.359.359,0,0,0-.119.449c-1.045,3.855-2.783,7.567-3.455,11.488-.657,3.837.895,7.79,1.874,11.431a16.434,16.434,0,0,1,.385,6.061c-.174,2-.359,4.054.5,5.931h0c-3.223,5.546-3.536,13-4.083,19.114-.472,5.253.148,10.631-.649,15.841-.62,4.054-4.387,6.7-5.943,10.359a19.139,19.139,0,0,0-.988,5.934,37.181,37.181,0,0,1-1.845,8.022q-2.514,8.132-4.972,16.284c-3.186,10.565-6.168,21.2-9.641,31.682-6.881,20.756-15.25,41.013-21.068,62.116-1.7,6.168-3.226,12.2-3.449,18.6-.09,2.508-.058,5.019.058,7.53Z" transform="translate(-31.561 -233.898)"/><path class="e" d="M36.342,573.1H93.611c1.833-13.759,1.72-27.871,1.59-41.624-.1-10.452,1.034-50.492,2.079-60a185.345,185.345,0,0,1,4.9-28.242,47.042,47.042,0,0,1,4.828-12.493c2.276-3.733,5.135-7.069,7.382-10.819,2.63-4.385,5.6-8.616,8.062-13.09,2.282-4.135,4.017-8.723,7.454-12.105a18.073,18.073,0,0,1,5.161-3.073,36.061,36.061,0,0,0,5.688-3.678c.264-.194.527-.379.8-.562a4.055,4.055,0,0,1-.237-2.215h.014c.139.637.513,1.26.71,1.9.2-.13.4-.258.6-.382a.673.673,0,0,0-.041-.154c-.061-.232-.162-.446-.217-.681a3.3,3.3,0,0,1-.043-1.054c0-.041.072-.067.09-.02a6.2,6.2,0,0,0,.44.849,3.429,3.429,0,0,0,.229.348,1.528,1.528,0,0,0,.313.255c3.6-2.071,7.64-2.67,11.419-4.469-.376-1.712,1.6-3.733,3.006-4.425a23.353,23.353,0,0,1,3.889-1.312c-2.78-2.844-7.9-2.224-11.454-.849-1.908.736-7.449,3.154-8.506,3.458l-.194.049c.014.049.029.1.041.151.09.382.142.985-.264,1.219s-.626-.269-.741-.553a2.917,2.917,0,0,1-.122-.579h-.058a6.861,6.861,0,0,1,.223.869,2,2,0,0,1-.064.785.084.084,0,0,1-.142.055,2.192,2.192,0,0,1-.481-1.158c-.032-.127-.061-.266-.1-.4l-.119.038a1.306,1.306,0,0,1-.156.892.542.542,0,0,1-.869.035.909.909,0,0,1-.156-.388,17.486,17.486,0,0,1-3.713,1.24c-1.271.333-2.027.785-3.3,1.138-2.389.666-4.787,1.428-7.217,1.929a27.212,27.212,0,0,0-3.414.927,14.583,14.583,0,0,0-3.811,2.415.348.348,0,0,1-.579-.376c.127-.321,1.019-3.4,1.124-4.147s.747-10.043,1.158-11.848c.579-2.479,1.3-4.923,1.929-7.393.935-3.7,1.486-7.5,2.453-11.184a31.971,31.971,0,0,1,3.571-8.52,71.6,71.6,0,0,0,4.894-8.807,43.4,43.4,0,0,1,4.463-8.039c1.341-1.877,3.788-5.546,1.6-7.573-.246.472-.5.9-.7,1.251-.388.681-1.3,2.9-2.43,2.4-.038.072-.075.145-.119.217-1.187,1.943-2.575,3.745-3.727,5.714-1.332,2.27-2.517,4.634-3.9,6.875-1.263,2.045-2.743,3.921-4.147,5.867-1.625,2.256-3.038,4.133-3.409,6.974a67.324,67.324,0,0,1-1.494,7.414c-1.086,4.385-3.232,9.644-1.961,14.176.156.553-.626.924-.869.362-1.714-3.9.324-8.862,1.3-12.742a77.777,77.777,0,0,0,1.813-8.146c.29-2.027.5-4.254,1.764-5.951a115.844,115.844,0,0,0,8.749-13.238,41.141,41.141,0,0,1,4.1-6.27,7.952,7.952,0,0,0,2.047-3.417,21.28,21.28,0,0,0,.235-3.377c-.62.53-1.286.979-1.712,1.292-1.35.99-3.044,2.395-4.776,2.606a.3.3,0,0,1-.09,0c.171,1.908.13,4.115-.944,5.757-3.287,5.01-7.359,10.081-12.317,13.571a56.088,56.088,0,0,1-2.818,14.457c-1.561,4.185-3.1,8.109-2.58,12.676a.452.452,0,0,1-.869.229c-.715-1.587-.324-3.93-.046-5.589a29.893,29.893,0,0,1,1.906-6.082,47.993,47.993,0,0,0,3.33-14.946c-.1.055-.209.1-.307.168-.6.374-1.234-.443-.64-.846,4.851-3.061,8.4-7.37,11.833-11.874,1.7-2.224,2.789-4.054,2.638-6.933a26.94,26.94,0,0,0-.258-3.278,26.231,26.231,0,0,1-2.661,2.667,22.645,22.645,0,0,1-3.1,2.9,2.625,2.625,0,0,1-1.448.518,1.426,1.426,0,0,1-.29-.049c-.817.9-1.668,1.767-2.528,2.621a.9.9,0,0,1,.376.692.29.29,0,0,1-.258.269.481.481,0,0,1-.185-.035c-.223-.043-.313-.246-.463-.4l-.579.579a2.223,2.223,0,0,1,.237.229,2.789,2.789,0,0,1,.869,1.48.206.206,0,0,1-.29.223,2.514,2.514,0,0,1-.909-.683c-.139-.148-.258-.31-.391-.463-.046-.052-.093-.107-.136-.162-1.257,1.289-2.383,2.708-3.707,3.921a39.847,39.847,0,0,0-4.217,4.2,8.6,8.6,0,0,0,.73,1.529,9.731,9.731,0,0,0,1.158,1.158c.07.069,0,.165-.087.171-1.179.11-1.877-1.364-2.085-2.47-.177.235-.345.481-.5.73a5.5,5.5,0,0,1,.484.446,1.448,1.448,0,0,1,.452.75.2.2,0,0,1-.229.22,1.2,1.2,0,0,1-.744-.533c-.1-.113-.2-.232-.29-.353a10.963,10.963,0,0,0-.643,1.324.058.058,0,0,1,.049,0c.191.081.414,0,.608.1s.353.2.539.29c.42.2,1.025.243,1.332.608a.162.162,0,0,1-.049.246c-.446.261-1.019-.029-1.448-.237a3.1,3.1,0,0,1-.736-.411c-.125-.124-.2-.345-.327-.446a.084.084,0,0,1-.02-.035,11.507,11.507,0,0,0-.579,1.94c-.4,1.958-.82,3.887-1.28,5.833a61.391,61.391,0,0,1-1.549,6.554c-.814,2.273-1.7,5.111-3.707,6.638a21.848,21.848,0,0,1,.869,2.572c1.182,4.327,1.338,8.891,2.844,13.139.895,2.522,2.294,4.752,3.385,7.182a51.071,51.071,0,0,1,2.392,6.371,33.347,33.347,0,0,1,1.283,13.174c-.579,5.172-1.978,10.24-3.055,15.323-.133.623-1.132.542-.982-.1,2.25-9.623,5.085-19.444,1.671-29.171-1.7-4.839-4.819-9-6.334-13.9-1.182-3.834-1.381-7.889-2.467-11.743a21.659,21.659,0,0,0-1.254-3.475c-.443-.93-1.112-1.79-1.581-2.7a1.668,1.668,0,0,1-2.259-.869.087.087,0,0,1,.139-.1,1.347,1.347,0,0,0,1.769.075,2.209,2.209,0,0,1-.637-.156,2.418,2.418,0,0,1-1.158-.73.29.29,0,0,1,.165-.388c.663-.145,1.2.376,1.856.33.139-.53.33-1.063.405-1.407.237-1.069.481-2.137.689-3.212a22.971,22.971,0,0,0,.55-6.015c-.078-1.069-.379-2.1-.429-3.116a1.6,1.6,0,0,1-1.106,0,1.819,1.819,0,0,1-1-.869c-.043-.078.069-.182.142-.127a2.01,2.01,0,0,0,1.092.356h.052a5.844,5.844,0,0,1-.388-.666.29.29,0,0,1,.374-.4,1.59,1.59,0,0,1,.776.988h.069a3.722,3.722,0,0,1,.2-.921,19.391,19.391,0,0,0,.8-8.786c-.235-1.908-.837-6-3.548-5.737a.342.342,0,0,1-.078,0c-.081.973-.188,1.943-.321,2.9-.226,1.619-.542,4.4-2.505,4.877a.223.223,0,0,1-.29-.246h-.032a.118.118,0,0,1,0,.032c-.307,2.661-1.158,5.421-1.738,8.045-.026.113-.058.22-.084.33.429.061.869.29.889.709a.2.2,0,0,1-.145.18.9.9,0,0,1-.672-.041c-.087-.029-.177-.052-.266-.075-.915,3.475-2.378,6.78-3.162,10.263a12.742,12.742,0,0,0-.29,3.252,4.318,4.318,0,0,1,1.158.043,2.108,2.108,0,0,0,1.593-.515.391.391,0,1,1,.515.579,3.186,3.186,0,0,1-3.244.411c.214,3.006,1.289,5.914,2.027,8.885a15.407,15.407,0,0,1,.359,5.242A13.73,13.73,0,0,0,88,376.708c.1-.127.214-.255.324-.374a.391.391,0,0,1,.1-.379,2.335,2.335,0,0,1,.631-.544l.02-.026a.232.232,0,0,1,.243-.087,3.9,3.9,0,0,1,.738-.13.487.487,0,0,1,.211.941,4.825,4.825,0,0,0-2.1,1.6.321.321,0,0,1-.058.052c-.125.226-.243.452-.356.683.145-.142.29-.29.437-.411.515-.455,1.636-1.39,2.369-1.158a.133.133,0,0,1,.07.2c-.24.4-.683.481-1.066.733a8.351,8.351,0,0,0-1.228.985c-.51.5-.921,1.092-1.422,1.593a44.208,44.208,0,0,0-2.047,9.58c-.753,5.836-.382,22.227-1.158,24.326-.611,1.662-1.532,2.661-3.133,4.417a12.557,12.557,0,0,0-3.087,6.522c-.353,2.186-.29,4.781-.7,6.95-.475,2.54-4.023,12.189-4.8,14.8q-2.441,8.132-4.836,16.273c-3.081,10.466-6.18,20.9-9.765,31.2-3.559,10.408-7.393,20.706-10.941,31.1a303.573,303.573,0,0,0-9.151,31.141,58.083,58.083,0,0,0-1.019,14.448Q36.3,572.119,36.342,573.1Z" transform="translate(-34.868 -242.124)"/><path class="f" d="M210.085,478.386c.782-6.334-2.714-7.692-6.5-18.436.408,2.372,1.21,4.7,1.81,7.072a15.407,15.407,0,0,1,.359,5.242,13.73,13.73,0,0,0,.238,5.618c.1-.127.214-.255.324-.374a.391.391,0,0,1,.1-.379,2.336,2.336,0,0,1,.631-.544l.02-.026a.232.232,0,0,1,.243-.087,3.9,3.9,0,0,1,.738-.13.487.487,0,0,1,.211.941,4.825,4.825,0,0,0-2.1,1.6.326.326,0,0,1-.058.052c-.125.226-.243.452-.356.683.145-.142.29-.29.437-.411.515-.455,1.636-1.39,2.369-1.158a.133.133,0,0,1,.07.2c-.24.4-.683.481-1.066.733a8.354,8.354,0,0,0-1.228.985c-.51.5-.921,1.092-1.422,1.593a44.2,44.2,0,0,0-2.047,9.58c-.408,3.168-.487,9.447-.6,14.862,1.318-3.186,1.5-9.267,2.719-12.54C207.56,487.364,209.538,483.26,210.085,478.386Z" transform="translate(-152.826 -343.292)"/><path class="f" d="M316.367,342.377a1.428,1.428,0,0,1-.29-.049c-.817.9-1.668,1.767-2.528,2.621a.9.9,0,0,1,.376.692.289.289,0,0,1-.258.269.481.481,0,0,1-.185-.035c-.223-.043-.313-.246-.463-.4l-.579.579a2.216,2.216,0,0,1,.237.229,3.738,3.738,0,0,1,.681.906,35.577,35.577,0,0,0,3.7-4.941A1.669,1.669,0,0,1,316.367,342.377Z" transform="translate(-231.097 -259.678)"/><path class="f" d="M50.866,782.795c8.781-19.195,13.394-38.7,20.084-58.58,1.344-3.475,2.337-7.318,3.681-10.805,1.668-5.227,2.644-10.446,4.66-15.679,1.135-3.556-.29-6.635-1.685-9.71-.026.139-.058.29-.081.417-.353,2.186-.29,4.781-.7,6.95-.475,2.54-4.023,12.189-4.8,14.8q-2.441,8.132-4.836,16.273c-3.081,10.466-6.18,20.9-9.765,31.2-3.6,10.391-7.437,20.689-10.985,31.08a303.563,303.563,0,0,0-9.151,31.141,58.082,58.082,0,0,0-1.019,14.448c0,.2.017.4.023.6a30.746,30.746,0,0,1,1.908-11c2.007-5.925,1.578-12.514,4.283-18.1.339-.7-.374-2.077-.035-2.777C45.482,796.053,47.828,789.429,50.866,782.795Z" transform="translate(-34.868 -505.313)"/><path class="f" d="M225,836.5h2.731c1.833-13.759,1.72-27.871,1.59-41.624-.1-10.452,1.034-50.492,2.079-60a185.341,185.341,0,0,1,4.9-28.242,47.043,47.043,0,0,1,4.828-12.493c1.109-1.822,2.357-3.548,3.606-5.271-3.272,2.027-6.913,2.717-10.275-.559-1.694,3.145-6.919,1.822-8.28,3.921-1.367,1.755,2.134,4.138,2.508,6.218,1.486,7.617-1.546,14.943-2.149,22.241-2.169,20.507-.174,40.958-.953,61.448-.125,17.7,1.833,35.042-.368,53.113C225.156,835.664,225.078,836.079,225,836.5Z" transform="translate(-168.98 -505.519)"/><path class="f" d="M315.077,376.054c-2.78-2.844-7.9-2.224-11.454-.849-1.908.736-7.449,3.154-8.506,3.458l-.194.049c.014.049.029.1.041.151.09.382.142.985-.264,1.219s-.625-.269-.741-.553a2.916,2.916,0,0,1-.122-.579h-.058a6.865,6.865,0,0,1,.223.869,2,2,0,0,1-.064.785.084.084,0,0,1-.142.055,2.191,2.191,0,0,1-.481-1.158c-.032-.127-.061-.266-.1-.4l-.119.038a1.307,1.307,0,0,1-.156.892.542.542,0,0,1-.869.035.91.91,0,0,1-.156-.388,17.481,17.481,0,0,1-3.713,1.24c-1.271.333-2.027.785-3.3,1.138-2.389.666-4.787,1.428-7.217,1.929a27.226,27.226,0,0,0-3.414.927,14.579,14.579,0,0,0-3.811,2.415.348.348,0,0,1-.579-.376c.127-.322,1.019-3.4,1.124-4.147s.747-10.043,1.158-11.848c.579-2.479,1.3-4.923,1.929-7.393.935-3.7,1.486-7.5,2.453-11.184a31.971,31.971,0,0,1,3.571-8.52,71.358,71.358,0,0,0,4.894-8.8,43.4,43.4,0,0,1,4.463-8.039c1.341-1.877,3.788-5.546,1.6-7.573-.246.472-.5.9-.7,1.251-.388.681-1.3,2.9-2.43,2.4-.038.072-.075.145-.119.217-1.187,1.943-2.575,3.745-3.727,5.714-1.332,2.27-2.517,4.634-3.9,6.875-1.263,2.045-2.743,3.921-4.147,5.867-1.625,2.256-3.038,4.133-3.409,6.974a67.346,67.346,0,0,1-1.494,7.414c-1.086,4.385-3.232,9.644-1.961,14.176.156.553-.626.924-.869.362-1.714-3.9.324-8.862,1.3-12.742a77.771,77.771,0,0,0,1.813-8.146c.29-2.027.5-4.254,1.764-5.951a115.835,115.835,0,0,0,8.749-13.238,41.131,41.131,0,0,1,4.1-6.27,7.953,7.953,0,0,0,2.047-3.417,21.284,21.284,0,0,0,.235-3.377c-.62.53-1.286.979-1.712,1.292-1.35.99-3.044,2.395-4.776,2.606a.3.3,0,0,1-.09,0c.171,1.908.13,4.115-.944,5.757-3.287,5.01-7.359,10.081-12.317,13.571a56.089,56.089,0,0,1-2.818,14.457c-1.561,4.185-3.1,8.109-2.58,12.676a.452.452,0,0,1-.869.229c-.715-1.587-.324-3.93-.046-5.589a29.891,29.891,0,0,1,1.906-6.082,47.992,47.992,0,0,0,3.33-14.946c-.1.055-.208.1-.307.168-.6.374-1.234-.443-.64-.846,4.851-3.061,8.4-7.37,11.833-11.874,1.7-2.224,2.789-4.054,2.638-6.933a26.929,26.929,0,0,0-.258-3.278,26.233,26.233,0,0,1-2.661,2.667,22.645,22.645,0,0,1-3.1,2.9,4.632,4.632,0,0,1-.741.388,35.575,35.575,0,0,1-3.692,4.935,2.084,2.084,0,0,1,.185.579.206.206,0,0,1-.29.223,1.939,1.939,0,0,1-.4-.226c-2.268,2.548-3.7,4.66-5.917,7.466-.339.7-.643,2.606-.979,3.307a27.4,27.4,0,0,1-2.433,3.322c-2.653,4.243-2.412,10.79-6.122,13.643a8.548,8.548,0,0,1-2.444,3.348,21.854,21.854,0,0,1,.869,2.572c1.182,4.327,1.338,8.891,2.844,13.139.895,2.522,2.294,4.752,3.385,7.182a51.051,51.051,0,0,1,2.392,6.371,34.219,34.219,0,0,1,1.462,10.321,25.552,25.552,0,0,1,10.09-10.953c10.6-6.082,18.737-5.016,28.381-11.04,2.317-1.486,6.018-.988,8.711-.9a5.66,5.66,0,0,1,.967-.625A23.368,23.368,0,0,1,315.077,376.054Z" transform="translate(-188.218 -242.124)"/><path class="l" d="M379.671,313.472c.194-.188.944-.7.93-.912a3.15,3.15,0,0,1-.249,1.124,16.454,16.454,0,0,1-1.237,2.745,8.15,8.15,0,0,1-.935,1.367c-.177.206-.767.721-.741.738h0a9.847,9.847,0,0,0,.394-3.325A16.323,16.323,0,0,0,379.671,313.472Z" transform="translate(-277.271 -238.586)"/><path class="l" d="M358.25,310.084c.3-.2,2.957-1.888,3.3-1.341.376.6-2.1,2.606-3.1,3.359-1.182.883-2.687,2.129-4.162,2.441a.271.271,0,0,0-.067.029c0-.1-.026-.8-.041-.935A40.765,40.765,0,0,1,358.25,310.084Z" transform="translate(-260.757 -235.798)"/><path class="l" d="M328.812,314.213a34.72,34.72,0,0,1,2.575-2.606c.322-.29,1.992-1.448,1.958-.869a3.392,3.392,0,0,1-.683,1.546,23.321,23.321,0,0,1-4.309,4.37,30.655,30.655,0,0,1-2.273,2.192.776.776,0,0,1-.7.142C325.849,317.21,327.63,315.47,328.812,314.213Z" transform="translate(-240.29 -237.178)"/><path class="l" d="M225.422,344.224a27.524,27.524,0,0,1,.692-3.128c.133-.452.64-1.8,1.245-2.05.869-.362.391,2.606.22,4.017-.188,1.544-.579,5.146-2.372,5.746A11.587,11.587,0,0,1,225.422,344.224Z" transform="translate(-169.011 -257.38)"/><path d="M302.621,561.606a7.625,7.625,0,0,0-.964,1.822,9.635,9.635,0,0,0-.909,3.84.1.1,0,0,0,.2.026c.44-1.106.869-2.21,1.306-3.328a11.423,11.423,0,0,1,.785-1.659c.2-.336.579-.553.753-.869.032-.058,0-.1.026-.151C303.965,560.593,302.659,561.566,302.621,561.606Z" transform="translate(-222.791 -415.105)"/><path d="M248.327,663.017a4.032,4.032,0,0,1-2.317-2.123.075.075,0,0,0-.081-.038c-1.268.162.869,2.114,1.074,2.288.964.788,2.838,2.433,4.176,1.871a.214.214,0,0,0,.1-.345A11.715,11.715,0,0,0,248.327,663.017Z" transform="translate(-183.564 -486.015)"/><path d="M244.968,678.184c-.194-.373-.455-1.538-.97-1.6a.156.156,0,0,0-.171.072c-.356.524.385,1.642.623,2.131.35.718.869,1.628,1.738,1.738a.159.159,0,0,0,.162-.252A11.244,11.244,0,0,1,244.968,678.184Z" transform="translate(-182.287 -497.183)"/><path d="M252.2,678.225a3.513,3.513,0,0,0-.272-.579c-.168-.255-.379-.652-.675-.77a.353.353,0,0,0-.478.246,1.473,1.473,0,0,0,.391,1.1,1.737,1.737,0,0,0,1.077.683c.136.015.2-.151.162-.255S252.256,678.364,252.2,678.225Z" transform="translate(-187.276 -497.377)"/><path d="M208.5,439.965c-.087-.055-.174.061-.119.136a1.715,1.715,0,0,0,1.546.811.1.1,0,0,0,.041-.185C209.519,440.4,208.963,440.254,208.5,439.965Z" transform="translate(-157.159 -329.085)"/><path d="M206.705,446.252c-.069.017-.1.139-.014.159.423.09,1.08.411,1.448,0a.151.151,0,0,0,.014-.211C207.809,445.8,207.108,446.159,206.705,446.252Z" transform="translate(-155.936 -333.394)"/><path d="M215.868,510.67a1.425,1.425,0,0,0-.429,0,2.027,2.027,0,0,0-.51.246,3.214,3.214,0,0,0-.93.756.174.174,0,0,0,.148.269,1.841,1.841,0,0,0,.84-.289c.165-.1.33-.2.5-.29a1.64,1.64,0,0,0,.458-.458C216.007,510.806,216.007,510.679,215.868,510.67Z" transform="translate(-161.145 -379.312)"/><path d="M179.96,712.031c-.133-.116-.339.069-.214.2a4.881,4.881,0,0,0,1.943,1.431.084.084,0,0,0,.075-.148A21.545,21.545,0,0,1,179.96,712.031Z" transform="translate(-136.804 -522.344)"/><path d="M181.641,703.825c.1.081.22-.058.211-.153-.061-.66-.628-1.179-.741-1.845-.035-.185-.29-.119-.313.046A2.346,2.346,0,0,0,181.641,703.825Z" transform="translate(-137.576 -515.042)"/><path d="M268.921,573.4c.072.069.214-.02.159-.113a8.957,8.957,0,0,0-4.167-3.666c-.075-.032-.142.093-.07.136A22.247,22.247,0,0,1,268.921,573.4Z" transform="translate(-197.263 -421.196)"/><path d="M265.18,582.52c-.032,0-.064.041-.032.061a11.19,11.19,0,0,1,4.428,6.215.1.1,0,1,0,.2-.049,8,8,0,0,0-4.6-6.226Z" transform="translate(-197.492 -430.366)"/><path d="M267.825,604.014c.689-2.786-.707-8.2-3.915-8.96a.122.122,0,0,0-.1.211c2.557,2.027,3.55,5.566,3.713,8.714a.156.156,0,0,0,.307.035Z" transform="translate(-196.517 -439.268)"/><path class="l" d="M455.645,523.768a14.468,14.468,0,0,1-2.5,1.416c-.814.394-1.642.762-2.47,1.126a9.8,9.8,0,0,1-1.654.7c-.243.035-.408-.1-.452-.417.342-2.027,3.675-3.278,6.05-3.765a5.851,5.851,0,0,1,1.6-.229C457.243,522.546,455.935,523.554,455.645,523.768Z" transform="translate(-327.804 -387.8)"/><path d="M595.34,361.046a35.165,35.165,0,0,0,3.736,2.108,6.973,6.973,0,0,0,2.2.982.713.713,0,0,0,.11.069c4.13,2.027,9.189,3.29,13.015,5.876,1.845,1.245,13.032,8.291,11.465,7.46-.93-.492,4.923,3.435,6.481,8.109a50.966,50.966,0,0,0,5.641,11.294c2.7,4.217,14.19,20.168,15.737,27.089a243.633,243.633,0,0,1,4.677,26.133c2.5,20.478,2.835,40.981,2.49,61.581-.249,14.877-.611,30.011.944,44.888H724.1c0-1.176,0-2.354-.02-3.53-.182-6.571-1.706-12.78-3.406-19.114-5.815-21.72-14.26-42.571-21.17-63.918-3.475-10.785-6.467-21.72-9.664-32.6q-2.467-8.384-4.984-16.751a37.939,37.939,0,0,1-1.833-8.248,19.583,19.583,0,0,0-.973-6.1c-1.567-3.765-5.415-6.507-6.021-10.678-.779-5.355-.1-10.872-.55-16.264-.516-6.273-.782-13.927-4.055-19.644h0c.895-1.92.718-4.026.556-6.082a17.178,17.178,0,0,1,.437-6.221c1.034-3.73,2.656-7.776,2.01-11.72-.663-4.028-2.418-7.854-3.475-11.819a.368.368,0,0,0-.119-.463c-.043-.182-.09-.362-.133-.544-.614-2.7-.849-5.717-2.027-8.242a.217.217,0,0,0-.032-.041c.1-.038.634-11.019-3.38-10.649a.237.237,0,0,0-.2.249c0,.686.043,1.381.087,2.079h-.02a2.43,2.43,0,0,0-1.7.226c-1.911,1.158-2.528,3.765-2.838,5.83a22.434,22.434,0,0,0,.2,8.743,5.193,5.193,0,0,1,.484,2.178,22.692,22.692,0,0,0-.49,3.243,25.131,25.131,0,0,0,.382,5.966c.374,2.094,1.738,5.233.579,7.107a24.671,24.671,0,0,0-1.216,2.239c-2.412-2.751-3.475-7.2-4.231-10.6-.458-2.074-.973-4.136-1.358-6.224a21.12,21.12,0,0,0-1.19-4.7c-1.393-3.148-3.9-5.042-6.3-7.373-2.717-2.635-5.25-5.552-7.869-8.3a.385.385,0,0,0-.029-.13c-.156-2.053-2.464-3.994-3.715-5.456-1.532-1.79-4.055-4.393-5.856-4.376a.408.408,0,0,0-.348.29,4.216,4.216,0,0,0,.924,3.475,4.348,4.348,0,0,0-.371,1.135c-1.778-1.755-3.3-3.626-5.621-4.686-.747-.339-2.844-1.254-2.983.24a3.061,3.061,0,0,0,1.2,2.268c-.029.385-.055.776-.072,1.158-.976-.915-1.738-2.276-2.989-2.774a.217.217,0,0,0-.29.151,5.029,5.029,0,0,0,.643,3.223.245.245,0,0,0-.075.032c-4.211,2.815,1.911,9.114,3.336,11.74,1.625,2.994,2.69,6.244,4.257,9.267,1.489,2.87,3.383,5.45,4.634,8.453a53.962,53.962,0,0,1,2.757,10.6c.73,3.632,1.622,7.254,2.586,10.84a45.134,45.134,0,0,1,1.295,6.224c.139,1.124.541,3.435,0,4.9-.125.223-.255.455-.391.689a4.44,4.44,0,0,1-2.9,2.456,21.923,21.923,0,0,1-7.191-.95c-1.8-.516-5.407-1.8-8.4-2.688a61.964,61.964,0,0,1-5.943-2.357c-1.94-.866-8.891-3.724-10.788-3.924-3.611-.365-7.075.139-9.293,3.076a2.94,2.94,0,0,0-.964.223C591.376,358.5,595,360.823,595.34,361.046Z" transform="translate(-430.112 -225.648)"/><path class="e" d="M609.162,371.856c3.866,1.874,8.013,2.519,11.688,4.668a1.466,1.466,0,0,0,.324-.258,3.647,3.647,0,0,0,.237-.356,6.339,6.339,0,0,0,.458-.869c.017-.046.09-.023.093.023a3.475,3.475,0,0,1-.052,1.08c-.058.238-.165.461-.229.7-.017.055-.029.107-.043.156.208.127.411.261.617.4.206-.655.579-1.295.741-1.946h.014a4.153,4.153,0,0,1-.261,2.273c.275.188.547.382.814.579a37.554,37.554,0,0,0,5.812,3.814,18.939,18.939,0,0,1,5.274,3.186c3.507,3.5,5.25,8.222,7.564,12.485,2.5,4.61,5.5,8.978,8.178,13.5,2.282,3.866,5.193,7.31,7.5,11.158a48.633,48.633,0,0,1,4.865,12.864,189.782,189.782,0,0,1,4.822,29.041c1,9.745,1.871,50.877,1.691,61.607-.211,12.864-.411,26.035.9,38.971h59.368a54.386,54.386,0,0,0-1-12.664,311.655,311.655,0,0,0-9.163-32.036c-3.568-10.692-7.419-21.292-11.048-31.966-3.6-10.605-6.71-21.335-9.794-32.1q-2.4-8.375-4.845-16.739c-.785-2.682-4.344-12.615-4.825-15.224-.4-2.236-.316-4.9-.66-7.144a12.867,12.867,0,0,0-3.122-6.719c-1.63-1.813-2.572-2.847-3.186-4.555-.779-2.175-.29-19-1.008-24.993a45.531,45.531,0,0,0-2.027-9.846c-.51-.518-.927-1.132-1.448-1.645a8.336,8.336,0,0,0-1.254-1.022c-.388-.261-.843-.345-1.086-.759a.136.136,0,0,1,.072-.2c.753-.243,1.9.727,2.421,1.2.151.133.29.29.449.426-.116-.237-.237-.472-.362-.7a.52.52,0,0,1-.058-.055,4.924,4.924,0,0,0-2.146-1.662.5.5,0,0,1,.226-.964,4.02,4.02,0,0,1,.759.139.226.226,0,0,1,.246.09l.02.026a2.44,2.44,0,0,1,.646.579.394.394,0,0,1,.093.391c.116.125.226.255.333.388a14.209,14.209,0,0,0,.29-5.769,15.816,15.816,0,0,1,.405-5.375c.8-3.047,1.92-6.024,2.161-9.108a3.252,3.252,0,0,1-3.325-.446.4.4,0,1,1,.53-.579,2.166,2.166,0,0,0,1.633.539,5.04,5.04,0,0,1,1.2-.035,13.028,13.028,0,0,0-.272-3.339c-.779-3.582-2.253-6.994-3.186-10.559-.09.023-.182.046-.272.075a.933.933,0,0,1-.689.038.214.214,0,0,1-.151-.188c.026-.434.481-.66.918-.718-.026-.116-.058-.229-.081-.342a81.885,81.885,0,0,1-1.738-8.274.088.088,0,0,1,0-.029h-.035a.229.229,0,0,1-.29.249c-2.01-.5-2.317-3.359-2.537-5.025-.13-.97-.232-1.966-.307-2.965a.786.786,0,0,1-.084,0c-2.777-.29-3.426,3.907-3.681,5.862a19.964,19.964,0,0,0,.753,9.024,3.938,3.938,0,0,1,.2.95h.07a1.417,1.417,0,0,1,.243-.516,1.448,1.448,0,0,1,.562-.492c.246-.13.5.177.379.408a5.367,5.367,0,0,1-.405.681h.058a2.064,2.064,0,0,0,1.121-.356c.075-.058.191.052.145.13a1.868,1.868,0,0,1-1.028.883,1.644,1.644,0,0,1-1.135-.017c-.061,1.043-.376,2.1-.463,3.186a23.579,23.579,0,0,0,.518,6.18c.208,1.106.452,2.2.683,3.3.075.356.269.9.408,1.448.672.052,1.228-.481,1.909-.324a.29.29,0,0,1,.165.4,2.436,2.436,0,0,1-1.2.738,2.183,2.183,0,0,1-.654.156,1.381,1.381,0,0,0,1.819-.064.087.087,0,0,1,.139.1,1.709,1.709,0,0,1-2.317.869c-.492.93-1.184,1.807-1.645,2.757a22.138,22.138,0,0,0-1.292,3.545c-1.159,3.947-1.382,8.109-2.624,12.036-1.587,5.022-4.822,9.267-6.6,14.225-3.579,9.959-.741,20.064,1.5,29.956.151.663-.869.739-1.008.1-1.071-5.213-2.476-10.426-3.026-15.751a34.21,34.21,0,0,1,1.416-13.513,52.544,52.544,0,0,1,2.5-6.533c1.141-2.485,2.606-4.764,3.53-7.347,1.576-4.344,1.772-9.033,3.015-13.466a22.833,22.833,0,0,1,.918-2.633c-2.05-1.584-2.936-4.5-3.765-6.84a63.084,63.084,0,0,1-1.544-6.742c-.458-2-.869-3.985-1.268-6a11.79,11.79,0,0,0-.579-1.992.108.108,0,0,1-.02.035c-.136.1-.209.327-.342.452a3.1,3.1,0,0,1-.756.42c-.432.211-1.019.5-1.477.235a.168.168,0,0,1-.046-.255c.316-.374.938-.414,1.373-.614.188-.087.371-.188.553-.29s.429-.015.626-.1a.058.058,0,0,1,.049,0,11.344,11.344,0,0,0-.649-1.364c-.1.122-.191.243-.289.359-.22.243-.42.507-.77.541a.2.2,0,0,1-.229-.229,1.448,1.448,0,0,1,.469-.765,5.4,5.4,0,0,1,.484-.481c-.162-.255-.333-.507-.513-.753-.223,1.138-.95,2.644-2.158,2.522-.081,0-.159-.1-.09-.177a9.775,9.775,0,0,0,1.19-1.158,8.685,8.685,0,0,0,.759-1.567,40.958,40.958,0,0,0-4.3-4.344c-1.347-1.257-2.5-2.722-3.765-4.054-.046.058-.093.113-.142.168-.136.153-.264.319-.406.469a2.558,2.558,0,0,1-.938.7.208.208,0,0,1-.29-.229,2.858,2.858,0,0,1,.9-1.515,2.667,2.667,0,0,1,.246-.232l-.6-.6c-.156.156-.252.362-.481.408a.5.5,0,0,1-.188.032.29.29,0,0,1-.266-.29.932.932,0,0,1,.394-.707c-.869-.883-1.738-1.775-2.575-2.708a2.31,2.31,0,0,1-.29.049,2.708,2.708,0,0,1-1.471-.544,25.08,25.08,0,0,1-3.165-3,27.749,27.749,0,0,1-2.711-2.76,28.136,28.136,0,0,0-.29,3.362c-.177,2.965.927,4.842,2.656,7.136,3.51,4.663,7.1,9.114,12.062,12.291.605.417-.052,1.251-.663.869-.1-.067-.211-.119-.319-.177a49.417,49.417,0,0,0,3.316,15.349,30.9,30.9,0,0,1,1.908,6.27c.275,1.706.657,4.115-.087,5.737a.463.463,0,0,1-.869-.24c.579-4.677-.988-8.723-2.557-13.032a57.523,57.523,0,0,1-2.786-14.862c-5.065-3.62-9.206-8.856-12.543-14.022-1.092-1.691-1.118-3.959-.927-5.916a.209.209,0,0,1-.1,0c-1.775-.226-3.5-1.683-4.88-2.708-.434-.324-1.115-.791-1.738-1.338a22.055,22.055,0,0,0,.217,3.475,8.184,8.184,0,0,0,2.076,3.525,41.922,41.922,0,0,1,4.167,6.481,116.3,116.3,0,0,0,8.885,13.655c1.292,1.752,1.489,4.054,1.766,6.122a80.319,80.319,0,0,0,1.8,8.378c.973,3.979,3.029,9.085,1.24,13.078-.258.579-1.057.188-.892-.379,1.341-4.634-.822-10.058-1.909-14.567a68.977,68.977,0,0,1-1.477-7.619c-.362-2.922-1.8-4.86-3.449-7.185-1.425-2.007-2.931-3.947-4.214-6.053-1.4-2.317-2.607-4.747-3.953-7.089-1.159-2.027-2.58-3.889-3.785-5.893-.044-.072-.081-.148-.122-.22-1.158.5-2.079-1.775-2.473-2.476-.2-.359-.458-.805-.709-1.292-2.259,2.065.226,5.85,1.587,7.787a44.668,44.668,0,0,1,4.521,8.285,77.182,77.182,0,0,0,4.946,9.085,32.635,32.635,0,0,1,3.6,8.772c.967,3.791,1.5,7.692,2.438,11.5.623,2.537,1.349,5.054,1.926,7.6.417,1.851,1,11.361,1.109,12.163s1,3.936,1.124,4.263a.359.359,0,0,1-.6.385,15.043,15.043,0,0,0-3.9-2.511,29,29,0,0,0-3.5-.976C638,373.8,635.548,373,633.1,372.3c-1.3-.371-2.082-.843-3.385-1.193a17.811,17.811,0,0,1-3.8-1.3.92.92,0,0,1-.162.4.556.556,0,0,1-.886-.041,1.347,1.347,0,0,1-.154-.918l-.122-.038c-.046.136-.078.29-.11.411a2.243,2.243,0,0,1-.5,1.182c-.052.058-.136,0-.148-.058a2.108,2.108,0,0,1-.061-.805,7.635,7.635,0,0,1,.237-.869l-.061-.014a2.9,2.9,0,0,1-.127.579c-.119.29-.368.793-.765.559s-.356-.869-.261-1.254a.584.584,0,0,1,.041-.151l-.2-.055c-1.083-.319-6.751-2.841-8.688-3.611-3.64-1.448-8.891-2.114-11.766.785a24.007,24.007,0,0,1,3.982,1.376C607.549,368.013,609.562,370.1,609.162,371.856Z" transform="translate(-436.928 -233.947)"/><path class="f" d="M848.43,472.406c-.759-6.507,2.838-7.874,6.806-18.876-.437,2.43-1.28,4.816-1.914,7.24a15.816,15.816,0,0,0-.405,5.375,14.01,14.01,0,0,1-.29,5.769c-.107-.133-.217-.263-.333-.388a.394.394,0,0,0-.093-.391,2.443,2.443,0,0,0-.646-.579l-.02-.026a.226.226,0,0,0-.246-.09,4.026,4.026,0,0,0-.759-.139.5.5,0,0,0-.226.964,4.923,4.923,0,0,1,2.146,1.662.531.531,0,0,0,.058.055c.125.232.246.466.362.7-.148-.148-.29-.29-.449-.426-.524-.469-1.668-1.448-2.421-1.2a.136.136,0,0,0-.072.2c.243.414.7.5,1.086.759a8.336,8.336,0,0,1,1.254,1.022c.521.513.938,1.127,1.448,1.645a44.209,44.209,0,0,1,2.027,9.846c.394,3.255.428,9.7.5,15.262-2.137-3.5-1.868-8.717-3.1-12.082C851.708,482.809,849.027,478.12,848.43,472.406Z" transform="translate(-611.792 -338.731)"/><path class="f" d="M748.982,331.977a2.287,2.287,0,0,0,.29-.049c.828.932,1.7,1.824,2.575,2.708a.933.933,0,0,0-.394.707.29.29,0,0,0,.266.29.5.5,0,0,0,.188-.032c.229-.046.324-.252.481-.408l.6.6a2.623,2.623,0,0,0-.246.232,4.019,4.019,0,0,0-.7.927,37.074,37.074,0,0,1-3.765-5.1A1.808,1.808,0,0,0,748.982,331.977Z" transform="translate(-540.711 -252.29)"/><path class="f" d="M896.4,714.05c1.352,3.591,2.346,7.53,3.7,11.121,6.722,20.449,11.312,40.495,20.185,60.269,3.07,6.832,5.43,13.652,8.494,20.851.342.718-.4,2.129-.058,2.85,2.737,5.754,2.247,12.516,4.263,18.615a28.322,28.322,0,0,1,1.772,8.529h.2a54.383,54.383,0,0,0-1-12.664,311.688,311.688,0,0,0-9.163-32.035c-3.568-10.692-7.42-21.292-11.048-31.966-3.6-10.605-6.71-21.335-9.794-32.1q-2.4-8.375-4.845-16.739c-.785-2.682-4.344-12.615-4.825-15.224-.4-2.236-.316-4.9-.66-7.144-.023-.145-.055-.29-.081-.429-1.448,3.145-2.942,6.3-1.8,9.953C893.76,703.3,894.722,708.661,896.4,714.05Z" transform="translate(-642.338 -505.285)"/><path class="f" d="M790.457,706.347a189.2,189.2,0,0,1,4.822,29.024c1,9.745,1.871,50.877,1.691,61.607-.211,12.864-.411,26.035.9,38.971h2.754c-1.674-17.666.269-34.662.275-52.015-.652-21.04,1.547-42.021-.53-63.086-.562-7.495-3.62-15.039-2.027-22.847.4-2.131,4.011-4.555,2.621-6.371-1.384-2.166-6.753-.848-8.474-4.089-3.475,3.339-7.205,2.606-10.55.5,1.268,1.781,2.537,3.562,3.66,5.436A49.081,49.081,0,0,1,790.457,706.347Z" transform="translate(-564.63 -504.972)"/><path class="f" d="M602,365.949c2.876-2.9,8.126-2.221,11.766-.785,1.952.77,7.619,3.293,8.688,3.611l.2.055c-.014.049-.029.1-.041.151-.1.394-.153,1.011.261,1.254s.646-.272.764-.559a2.894,2.894,0,0,0,.127-.579l.061.014a7.63,7.63,0,0,0-.237.869,2.106,2.106,0,0,0,.061.805.087.087,0,0,0,.148.058,2.245,2.245,0,0,0,.5-1.182c.032-.133.064-.275.11-.411l.122.038a1.346,1.346,0,0,0,.153.918.556.556,0,0,0,.886.041.92.92,0,0,0,.162-.4,17.8,17.8,0,0,0,3.8,1.3c1.3.35,2.088.823,3.385,1.193,2.447.7,4.9,1.5,7.394,2.027a29,29,0,0,1,3.5.976,15.047,15.047,0,0,1,3.9,2.511.359.359,0,0,0,.6-.385c-.127-.327-1.022-3.5-1.124-4.263s-.692-10.318-1.109-12.163c-.579-2.551-1.3-5.068-1.926-7.6-.935-3.808-1.471-7.709-2.438-11.5a32.635,32.635,0,0,0-3.6-8.772,77.175,77.175,0,0,1-4.946-9.085,44.67,44.67,0,0,0-4.518-8.277c-1.361-1.937-3.846-5.722-1.587-7.787.252.487.507.933.71,1.292.394.7,1.315,2.974,2.473,2.476.041.072.078.148.122.22,1.2,2,2.607,3.866,3.785,5.893,1.35,2.343,2.548,4.778,3.953,7.089,1.283,2.105,2.789,4.054,4.214,6.053,1.654,2.317,3.087,4.263,3.449,7.185a68.943,68.943,0,0,0,1.477,7.619c1.086,4.509,3.249,9.925,1.908,14.567-.165.579.634.953.892.379,1.79-3.994-.266-9.1-1.24-13.078a80.3,80.3,0,0,1-1.8-8.378c-.29-2.076-.475-4.37-1.767-6.122a117.825,117.825,0,0,1-8.885-13.655,41.911,41.911,0,0,0-4.167-6.481,8.184,8.184,0,0,1-2.076-3.524,22.049,22.049,0,0,1-.217-3.475c.634.547,1.315,1.014,1.738,1.338,1.375,1.025,3.1,2.482,4.88,2.708a.209.209,0,0,0,.1,0c-.191,1.958-.165,4.225.927,5.917,3.336,5.166,7.477,10.4,12.542,14.022a57.535,57.535,0,0,0,2.786,14.862c1.57,4.306,3.122,8.352,2.557,13.032a.463.463,0,0,0,.869.24c.744-1.622.362-4.031.087-5.737a30.9,30.9,0,0,0-1.909-6.27,49.417,49.417,0,0,1-3.316-15.349c.107.058.214.11.318.177.611.388,1.268-.446.663-.869-4.958-3.186-8.552-7.628-12.062-12.291-1.737-2.294-2.832-4.17-2.656-7.136a26.969,26.969,0,0,1,.29-3.362,27.769,27.769,0,0,0,2.711,2.76,24.153,24.153,0,0,0,3.165,3,5.154,5.154,0,0,0,.759.405,37.071,37.071,0,0,0,3.765,5.1,2.1,2.1,0,0,0-.194.579.208.208,0,0,0,.29.229,2.194,2.194,0,0,0,.408-.226c2.317,2.63,3.765,4.807,6.018,7.706.342.718.64,2.682.982,3.4a27.531,27.531,0,0,0,2.47,3.426c2.719,4.387,2.43,11.121,6.218,14.063a8.71,8.71,0,0,0,2.485,3.455,22.82,22.82,0,0,0-.918,2.632c-1.242,4.434-1.448,9.117-3.015,13.466-.936,2.583-2.389,4.862-3.53,7.347a52.543,52.543,0,0,0-2.5,6.533,35.044,35.044,0,0,0-1.578,10.582,26.226,26.226,0,0,0-10.278-11.315c-10.834-6.328-19.206-5.288-29.053-11.543-2.36-1.541-6.169-1.057-8.934-.987a5.915,5.915,0,0,0-.99-.652A24,24,0,0,0,602,365.949Z" transform="translate(-436.801 -233.983)"/><path class="l" d="M689.753,303.63a10.158,10.158,0,0,0,.379,3.417h0c.023-.017-.579-.55-.756-.765a8.106,8.106,0,0,1-.953-1.408,17.2,17.2,0,0,1-1.251-2.826,3.206,3.206,0,0,1-.243-1.158c-.017.217.747.75.944.944A16.928,16.928,0,0,0,689.753,303.63Z" transform="translate(-497.134 -230.296)"/><path class="l" d="M703.347,302.112c-.017.136-.041.851-.052.959a.229.229,0,0,0-.067-.029c-1.509-.333-3.047-1.622-4.254-2.537-1.019-.77-3.545-2.864-3.154-3.475.362-.562,3.073,1.193,3.383,1.4A42.957,42.957,0,0,1,703.347,302.112Z" transform="translate(-503.422 -227.475)"/><path class="l" d="M731.478,307.715a.785.785,0,0,1-.712-.151,31.116,31.116,0,0,1-2.317-2.268,24.007,24.007,0,0,1-4.39-4.518,3.616,3.616,0,0,1-.689-1.593c-.029-.562,1.674.631,2,.924.947.837,1.767,1.778,2.627,2.7C729.2,304.124,731.026,305.925,731.478,307.715Z" transform="translate(-523.021 -228.98)"/><path class="l" d="M847.014,339.239c-1.848-.628-2.213-4.33-2.4-5.917-.165-1.448-.628-4.5.255-4.121.623.263,1.135,1.648,1.266,2.114a28.354,28.354,0,0,1,.689,3.217A11.968,11.968,0,0,1,847.014,339.239Z" transform="translate(-608.966 -250.386)"/><path d="M765.35,557.123a7.889,7.889,0,0,1,.979,1.88,9.887,9.887,0,0,1,.9,3.947.1.1,0,0,1-.2.026c-.443-1.141-.886-2.276-1.318-3.426a11.309,11.309,0,0,0-.794-1.709c-.2-.348-.579-.579-.765-.906-.032-.061,0-.1-.023-.156C763.98,556.066,765.315,557.077,765.35,557.123Z" transform="translate(-551.97 -411.899)"/><path d="M813.355,661.672a4.072,4.072,0,0,0,2.384-2.163.075.075,0,0,1,.084-.035c1.3.174-.9,2.16-1.118,2.34-1,.8-2.934,2.473-4.3,1.888-.133-.055-.235-.232-.107-.353A12.357,12.357,0,0,1,813.355,661.672Z" transform="translate(-584.733 -485.032)"/><path d="M824.716,677.27c.2-.382.478-1.575,1-1.639a.165.165,0,0,1,.177.075c.362.539-.408,1.683-.654,2.184-.365.736-.906,1.662-1.8,1.781a.162.162,0,0,1-.162-.258A11.594,11.594,0,0,0,824.716,677.27Z" transform="translate(-593.972 -496.509)"/><path d="M819.809,677.225a3.361,3.361,0,0,1,.29-.6c.174-.264.391-.669.695-.788a.365.365,0,0,1,.492.258,1.538,1.538,0,0,1-.408,1.121,1.792,1.792,0,0,1-1.112.7c-.142.014-.206-.156-.165-.264S819.745,677.37,819.809,677.225Z" transform="translate(-591.376 -496.638)"/><path d="M866.466,432.969c.09-.052.177.067.122.142a1.763,1.763,0,0,1-1.593.822.11.11,0,0,1-.04-.194C865.415,433.42,865.986,433.258,866.466,432.969Z" transform="translate(-623.573 -324.115)"/><path d="M868.491,439.458c.072.017.1.142,0,.159-.437.093-1.112.414-1.486,0a.159.159,0,0,1,0-.217C867.364,438.986,868.077,439.356,868.491,439.458Z" transform="translate(-625.03 -328.557)"/><path d="M857.463,505.487a1.4,1.4,0,0,1,.44,0,2.1,2.1,0,0,1,.518.255,3.266,3.266,0,0,1,.95.782.177.177,0,0,1-.15.275,1.879,1.879,0,0,1-.869-.29c-.168-.1-.339-.206-.51-.307a1.644,1.644,0,0,1-.466-.472C857.312,505.624,857.335,505.5,857.463,505.487Z" transform="translate(-618.195 -375.63)"/><path d="M892.616,712.492c.139-.116.348.075.22.211a5.021,5.021,0,0,1-2.007,1.448.087.087,0,0,1-.075-.154A21.132,21.132,0,0,0,892.616,712.492Z" transform="translate(-641.906 -522.673)"/><path d="M893.543,704.065c-.1.084-.223-.058-.214-.159.067-.675.652-1.2.776-1.885.035-.191.29-.119.319.049a2.4,2.4,0,0,1-.88,2Z" transform="translate(-643.76 -515.178)"/><path d="M796.743,569.547c-.075.072-.223-.02-.165-.116a9.211,9.211,0,0,1,4.306-3.733c.078-.032.145.1.07.142A22.726,22.726,0,0,0,796.743,569.547Z" transform="translate(-575.019 -418.412)"/><path d="M799.569,578.92c.035,0,.067.041.032.061a11.508,11.508,0,0,0-4.59,6.348.108.108,0,0,1-.209-.052A8.213,8.213,0,0,1,799.569,578.92Z" transform="translate(-573.765 -427.808)"/><path d="M797.715,600.913c-.686-2.864.785-8.419,4.086-9.169a.125.125,0,0,1,.1.217c-2.641,2.062-3.684,5.688-3.875,8.917a.159.159,0,0,1-.316.035Z" transform="translate(-575.719 -436.917)"/><path class="m" d="M595.464,515.872a5.928,5.928,0,0,1,1.636.243c2.433.521,5.847,1.83,6.183,3.913-.046.324-.217.461-.466.423a9.817,9.817,0,0,1-1.694-.736c-.846-.379-1.694-.762-2.528-1.158a14.733,14.733,0,0,1-2.554-1.474C595.754,516.848,594.419,515.8,595.464,515.872Z" transform="translate(-431.878 -383.017)"/><path d="M317.858,340.148a29.143,29.143,0,0,1,47.494-9.5,28.637,28.637,0,0,1,2.415,2.745,13.8,13.8,0,0,0,2.656,1,42.668,42.668,0,0,0,4.674.75,5.052,5.052,0,0,1,.319-1.083,5.334,5.334,0,0,1,9.87.026,5.1,5.1,0,0,1,.29,1.069,51.381,51.381,0,0,0,5.531-1.448c1.393-.446,2.606-1.373,4.054-1.645h.02c.426-.484.869-.959,1.318-1.416a29.093,29.093,0,0,1,47.494,9.5A28.8,28.8,0,0,1,417.2,379.959a29.539,29.539,0,0,1-10.967-2.187h0a30.261,30.261,0,0,1-9.458-6.05,28.34,28.34,0,0,1-6.5-9.267c-.35-.811-.658-1.636-.93-2.476-.744-1.251-1.271-2.763-1.943-3.947-1.428-2.511-3.475-4.553-6.554-4.445-4.387.151-6.226,4.306-8.141,7.756a27.5,27.5,0,0,1-1.124,3.113,28.34,28.34,0,0,1-6.5,9.267,30.26,30.26,0,0,1-9.458,6.05h0a29.539,29.539,0,0,1-10.967,2.187,28.827,28.827,0,0,1-26.791-39.8Z" transform="translate(-233.405 -245.369)"/><path class="n" d="M532.412,357.764a4.5,4.5,0,0,0-5.891-2.38,4.439,4.439,0,0,0-2.386,2.424,4.648,4.648,0,0,0-.04,3.409,4.921,4.921,0,0,0,.869,1.546,4.017,4.017,0,0,0,1.448,1.095h0A4.431,4.431,0,0,0,530,363.8a4.654,4.654,0,0,0,2.453-2.551A4.587,4.587,0,0,0,532.412,357.764Z" transform="translate(-381.241 -268.754)"/><path class="o" d="M579.531,375.24a26.353,26.353,0,0,0,8.908,6.177,26.985,26.985,0,0,0,10.675,2.111,27.732,27.732,0,0,0,10.628-2.23,28.093,28.093,0,0,0,8.954-6.082,27.509,27.509,0,1,0-46.947-19.531,28,28,0,0,0,2.027,10.489A28.405,28.405,0,0,0,579.531,375.24Z" transform="translate(-415.311 -249.729)"/><path class="p" d="M511.559,376.868c2.592-.055,4.593,1.6,6,3.623A27.069,27.069,0,0,1,519,382.842a29.425,29.425,0,0,1-.579-5.653A28.863,28.863,0,0,1,520.632,366a29.2,29.2,0,0,1,4.512-7.475,28.5,28.5,0,0,1-9.024,3.258,5.229,5.229,0,0,1-.423,2.2,5.164,5.164,0,0,1-2.855,2.766,5.419,5.419,0,0,1-3.927-.046h0a6.083,6.083,0,0,1-1.738-1.031,4.924,4.924,0,0,1-1.251-1.639,5.117,5.117,0,0,1-.42-2.624,14.635,14.635,0,0,1-6.186-.652A29.382,29.382,0,0,1,502.158,366a28.861,28.861,0,0,1,2.2,11.2,29.36,29.36,0,0,1-.475,5.036C505.694,379.384,508.049,376.94,511.559,376.868Z" transform="translate(-363.857 -271.243)"/><path class="q" d="M504.22,374.27c4.344,3.562,6.791,8.723,8.094,14.379a11.863,11.863,0,0,0-4.955,4.758,29.371,29.371,0,0,0,.475-5.025,28.87,28.87,0,0,0-3.614-14.1Z" transform="translate(-367.338 -282.425)"/><path class="q" d="M559.8,377.236a28.862,28.862,0,0,0-2.207,11.2,29.43,29.43,0,0,0,.579,5.653,27.025,27.025,0,0,0-1.448-2.352,10.111,10.111,0,0,0-2.25-2.378,38.54,38.54,0,0,1,6.71-15.016A28.869,28.869,0,0,0,559.8,377.236Z" transform="translate(-403.035 -282.475)"/><path class="o" d="M322.649,366.205a27.668,27.668,0,0,0,5.928,9.015,28.091,28.091,0,0,0,8.954,6.082,27.733,27.733,0,0,0,10.628,2.23,27,27,0,0,0,10.675-2.111,26.323,26.323,0,0,0,8.905-6.177,28.381,28.381,0,0,0,5.763-9.079,28.053,28.053,0,0,0,2.027-10.489,27.455,27.455,0,1,0-52.869,10.53Z" transform="translate(-236.914 -249.733)"/><path d="M338.362,345.546a24.374,24.374,0,1,1,34.508,34.433,24.071,24.071,0,0,1-7.891,5.211c-.4.165-.808.316-1.219.458v.023a.151.151,0,1,1-.258.156c-.017-.026-.035-.055-.055-.081a24.327,24.327,0,0,1-7.738,1.237,24.741,24.741,0,0,1-9.218-1.83h0a24.957,24.957,0,0,1-7.935-5.12,23.729,23.729,0,0,1-5.418-7.819,23.982,23.982,0,0,1-1.937-9.348,24.4,24.4,0,0,1,7.168-17.327Z" transform="translate(-244.424 -256.933)"/><path d="M588.685,345.546a24.374,24.374,0,1,1,34.508,34.433,24.072,24.072,0,0,1-7.891,5.211,24.325,24.325,0,0,1-9.267,1.793,24.741,24.741,0,0,1-9.235-1.839h0a24.959,24.959,0,0,1-7.935-5.12,23.751,23.751,0,0,1-5.421-7.819,24.1,24.1,0,0,1-.081-18.728A24.4,24.4,0,0,1,588.685,345.546Z" transform="translate(-422.244 -256.933)"/><path d="M533.9,366.544a2.586,2.586,0,0,1-1.712-.049h0a3.144,3.144,0,0,1-.791-.405,2,2,0,0,1-.626-.7,2.28,2.28,0,0,1-.046-1.891,2.5,2.5,0,0,1,1.361-1.329,2.418,2.418,0,0,1,1.88.029,2.392,2.392,0,0,1,1.289,1.332,2.364,2.364,0,0,1-.055,1.816A2.282,2.282,0,0,1,533.9,366.544Z" transform="translate(-386.034 -273.703)"/><path class="o" d="M536.839,365.969a1.651,1.651,0,0,0-.9-.851,1.607,1.607,0,0,0-1.211.032,1.541,1.541,0,0,0-.822.869,1.818,1.818,0,0,0-.043,1.2,2.161,2.161,0,0,0,.249.611,1.293,1.293,0,0,0,.521.466h0a1.564,1.564,0,0,0,1.381-.052,1.738,1.738,0,0,0,.886-.985A1.686,1.686,0,0,0,536.839,365.969Z" transform="translate(-388.338 -275.85)"/><path class="h" d="M585.169,364.878a23.168,23.168,0,0,0,1.862,8.978,22.237,22.237,0,0,0,1.19,2.38c.1.174.2.348.29.516s.208.339.316.507a23.261,23.261,0,0,0,3.4,4.1q.785.753,1.639,1.431c.159.127.319.252.484.374s.33.246.5.365a23.688,23.688,0,0,0,5.007,2.751h0a23.887,23.887,0,0,0,8.876,1.767,23.387,23.387,0,0,0,7.437-1.19l.052.081a.146.146,0,0,0,.249-.151v-.023c.394-.139.785-.29,1.158-.44a23,23,0,0,0,5.088-2.867l.478-.365c.174-.139.345-.275.516-.417.518-.432,1.019-.883,1.5-1.358a23.326,23.326,0,0,0,5.094-7.547,23.861,23.861,0,0,0,.886-2.508,23.367,23.367,0,0,0,.869-5.074c.032-.452.046-.9.046-1.352a23.367,23.367,0,0,0-3.828-12.91c-.119-.18-.24-.359-.365-.536s-.24-.339-.365-.51a23.5,23.5,0,0,0-37.28-.643c-.125.159-.249.321-.371.484s-.246.333-.368.5a23.433,23.433,0,0,0-3.86,8.815c-.041.194-.078.391-.116.579s-.067.394-.1.594A22.476,22.476,0,0,0,585.169,364.878Z" transform="translate(-424.844 -259.052)"/><path class="l" d="M632.778,363.987c4.665,9.221,9.629,21.213,6.559,32.183a.44.44,0,0,0,.119.443.521.521,0,0,0,.469.119c3.255-.727,5-.626,7.486.432a.551.551,0,0,0,.429,0h.023a.548.548,0,0,0,.29-.333,77.216,77.216,0,0,1,4.9-13.076,61.475,61.475,0,0,1,3.907,13.171.356.356,0,0,0,.035.107,23.336,23.336,0,0,0,4.709-31.723,22.545,22.545,0,0,0-3.742,10.625c-.327-.611-.686-1.24-1.043-1.856a25.051,25.051,0,0,1-1.978-3.907.472.472,0,0,0-.345-.29.6.6,0,0,0-.336.035.686.686,0,0,0-.148.087,25.346,25.346,0,0,0-3.443,3.765c-.6.756-1.179,1.486-1.793,2.158a52.762,52.762,0,0,0-5.685-14.752.518.518,0,0,0-.594-.194,90.1,90.1,0,0,1-9.421,2.3.686.686,0,0,0-.11.032.58.58,0,0,0-.272.237A.463.463,0,0,0,632.778,363.987Z" transform="translate(-458.633 -272.965)"/><path d="M630.822,362.874c4.616,9.125,9.539,20.981,6.516,31.752a1.048,1.048,0,0,0,.29,1.037,1.141,1.141,0,0,0,1.014.269,15.511,15.511,0,0,1,3.362-.437,9,9,0,0,1,3.765.851,1.176,1.176,0,0,0,.892,0h.029a1.158,1.158,0,0,0,.629-.715A79.689,79.689,0,0,1,651.6,383.85a60.619,60.619,0,0,1,3.365,11.816.971.971,0,0,0,.142.365l.478-.365c.174-.139.345-.275.515-.417a61.486,61.486,0,0,0-3.9-13.09.6.6,0,0,0-.533-.368.579.579,0,0,0-.55.333,76.049,76.049,0,0,0-4.923,13.116,10.309,10.309,0,0,0-4.173-.924,16.221,16.221,0,0,0-3.455.44c2.986-11.06-1.937-23.032-6.606-32.273a87.247,87.247,0,0,0,9.363-2.27,52.836,52.836,0,0,1,5.566,14.5.579.579,0,0,0,.429.437.6.6,0,0,0,.579-.174c.617-.681,1.187-1.4,1.787-2.155l.029-.038a24.8,24.8,0,0,1,3.3-3.632,26.957,26.957,0,0,0,1.969,3.863c.33.579.707,1.225,1.031,1.836a.6.6,0,0,0,1.121-.206,22.229,22.229,0,0,1,3.516-10.162c-.119-.18-.24-.359-.365-.536s-.24-.339-.365-.51a21.881,21.881,0,0,0-3.716,9.3l-.188-.324a24.779,24.779,0,0,1-1.929-3.8,1.051,1.051,0,0,0-.791-.686,1.192,1.192,0,0,0-.68.069,1.092,1.092,0,0,0-.29.18,25.6,25.6,0,0,0-3.527,3.858l-.035.043c-.339.423-.666.837-.993,1.234a51.885,51.885,0,0,0-5.479-13.805,1.109,1.109,0,0,0-1.277-.449,91.043,91.043,0,0,1-9.363,2.282,1.076,1.076,0,0,0-.223.067,1.138,1.138,0,0,0-.559.5A1.042,1.042,0,0,0,630.822,362.874Z" transform="translate(-457.207 -271.582)"/><path class="l" d="M589.45,399.736c.1.171.208.339.316.507a23.27,23.27,0,0,0,3.4,4.1q.785.753,1.639,1.431c.159.127.318.252.484.374,4.4-3.6,6.916-9.846,6.342-16.443a19.974,19.974,0,0,0-6.58-13.391,15.533,15.533,0,0,0-4.237-2.606c-.125.165-.246.333-.368.5a23.43,23.43,0,0,0-3.86,8.815c-.041.194-.078.391-.116.579a6.841,6.841,0,0,1,3.918,1.68,9.189,9.189,0,0,1,3.02,6.174A8.54,8.54,0,0,1,589.45,399.736Z" transform="translate(-425.768 -282.027)"/><path d="M588.869,398.006c.1.174.2.348.29.516s.208.339.316.507a9.156,9.156,0,0,0,4.237-8.844,9.809,9.809,0,0,0-3.238-6.565,7.573,7.573,0,0,0-4.179-1.819c-.041.194-.078.391-.116.579s-.067.394-.1.594a6.3,6.3,0,0,1,3.614,1.546,8.6,8.6,0,0,1,2.829,5.763A7.9,7.9,0,0,1,588.869,398.006Zm0,0c.1.174.2.348.29.516s.208.339.316.507a9.156,9.156,0,0,0,4.237-8.844,9.809,9.809,0,0,0-3.238-6.565,7.573,7.573,0,0,0-4.179-1.819c-.041.194-.078.391-.116.579s-.067.394-.1.594a6.3,6.3,0,0,1,3.614,1.546,8.6,8.6,0,0,1,2.829,5.763A7.9,7.9,0,0,1,588.869,398.006Zm0,0c.1.174.2.348.29.516s.208.339.316.507a9.156,9.156,0,0,0,4.237-8.844,9.809,9.809,0,0,0-3.238-6.565,7.573,7.573,0,0,0-4.179-1.819c-.041.194-.078.391-.116.579s-.067.394-.1.594a6.3,6.3,0,0,1,3.614,1.546,8.6,8.6,0,0,1,2.829,5.763A7.9,7.9,0,0,1,588.869,398.006Zm0,0c.1.174.2.348.29.516s.208.339.316.507a9.156,9.156,0,0,0,4.237-8.844,9.809,9.809,0,0,0-3.238-6.565,7.573,7.573,0,0,0-4.179-1.819c-.041.194-.078.391-.116.579s-.067.394-.1.594a6.3,6.3,0,0,1,3.614,1.546,8.6,8.6,0,0,1,2.829,5.763A7.9,7.9,0,0,1,588.869,398.006Zm0,0c.1.174.2.348.29.516s.208.339.316.507a9.156,9.156,0,0,0,4.237-8.844,9.809,9.809,0,0,0-3.238-6.565,7.573,7.573,0,0,0-4.179-1.819c-.041.194-.078.391-.116.579s-.067.394-.1.594a6.3,6.3,0,0,1,3.614,1.546,8.6,8.6,0,0,1,2.829,5.763A7.9,7.9,0,0,1,588.869,398.006Zm11.874-9.458c.579,6.458-1.909,12.551-6.229,16.015.159.127.319.252.484.374s.33.246.5.365c4.48-3.742,7.029-10.116,6.441-16.858a20.562,20.562,0,0,0-6.785-13.8,16.161,16.161,0,0,0-4.24-2.647c-.125.159-.249.322-.371.484s-.246.333-.368.5a14.933,14.933,0,0,1,4.216,2.569,19.373,19.373,0,0,1,6.371,12.994Zm-11.874,9.458c.1.174.2.348.29.516s.208.339.316.507a9.156,9.156,0,0,0,4.237-8.844,9.809,9.809,0,0,0-3.238-6.565,7.573,7.573,0,0,0-4.179-1.819c-.041.194-.078.391-.116.579s-.067.394-.1.594a6.3,6.3,0,0,1,3.614,1.546,8.6,8.6,0,0,1,2.829,5.763A7.9,7.9,0,0,1,588.869,398.006Zm0,0c.1.174.2.348.29.516s.208.339.316.507a9.156,9.156,0,0,0,4.237-8.844,9.809,9.809,0,0,0-3.238-6.565,7.573,7.573,0,0,0-4.179-1.819c-.041.194-.078.391-.116.579s-.067.394-.1.594a6.3,6.3,0,0,1,3.614,1.546,8.6,8.6,0,0,1,2.829,5.763A7.9,7.9,0,0,1,588.869,398.006Z" transform="translate(-425.491 -280.813)"/><path class="h" d="M381.413,364.839a23.114,23.114,0,0,1-1.862,8.978,21.224,21.224,0,0,1-1.19,2.381c-.1.174-.2.347-.3.515s-.209.339-.316.507a23.266,23.266,0,0,1-3.4,4.1c-.524.5-1.069.979-1.639,1.431-.159.128-.319.252-.484.374s-.327.246-.5.365a23.687,23.687,0,0,1-5.007,2.751h0a23.885,23.885,0,0,1-8.873,1.767,23.407,23.407,0,0,1-7.44-1.19l-.052.081a.146.146,0,0,1-.249-.151l.014-.023c-.394-.139-.785-.29-1.173-.44a22.952,22.952,0,0,1-5.091-2.867l-.478-.365c-.171-.139-.345-.275-.516-.417-.518-.431-1.019-.883-1.5-1.358a23.316,23.316,0,0,1-5.082-7.559,22.6,22.6,0,0,1-.886-2.508,23.374,23.374,0,0,1-.886-5.074c-.032-.452-.046-.9-.046-1.352a23.368,23.368,0,0,1,3.846-12.91c.119-.18.243-.359.365-.536s.24-.339.368-.51a23.1,23.1,0,0,1,2.25-2.63,23.521,23.521,0,0,1,33.237-.026,22.784,22.784,0,0,1,1.793,2.024c.127.159.249.321.371.484s.249.333.368.5a23.432,23.432,0,0,1,3.86,8.815c.041.194.081.391.116.579s.07.394.1.594A22.475,22.475,0,0,1,381.413,364.839Z" transform="translate(-246.74 -259.012)"/><path class="l" d="M367.583,364c-4.665,9.221-9.629,21.213-6.559,32.183a.446.446,0,0,1-.116.443.527.527,0,0,1-.472.119c-3.241-.724-5-.625-7.486.434a.55.55,0,0,1-.429,0h-.02a.533.533,0,0,1-.29-.333,77.488,77.488,0,0,0-4.9-13.076,61.312,61.312,0,0,0-3.9,13.171.29.29,0,0,1-.038.107,23.336,23.336,0,0,1-4.706-31.726,22.582,22.582,0,0,1,3.744,10.625c.324-.611.686-1.239,1.04-1.856a25.048,25.048,0,0,0,1.978-3.907.472.472,0,0,1,.348-.29.579.579,0,0,1,.333.035.7.7,0,0,1,.151.087,25.482,25.482,0,0,1,3.44,3.765c.6.756,1.179,1.486,1.8,2.158a52.669,52.669,0,0,1,5.682-14.752.519.519,0,0,1,.579-.194,90.087,90.087,0,0,0,9.421,2.3.605.605,0,0,1,.11.032.559.559,0,0,1,.272.237A.455.455,0,0,1,367.583,364Z" transform="translate(-246.731 -272.974)"/><path d="M377.55,361.806a1.129,1.129,0,0,0-.782-.562,90.981,90.981,0,0,1-9.36-2.282,1.112,1.112,0,0,0-1.28.449,51.826,51.826,0,0,0-5.479,13.805c-.327-.4-.655-.811-.993-1.234l-.035-.043a25.051,25.051,0,0,0-3.527-3.857,1.049,1.049,0,0,0-.29-.18,1.193,1.193,0,0,0-.681-.07,1.046,1.046,0,0,0-.788.686,23.569,23.569,0,0,1-1.932,3.8c-.061.107-.122.214-.188.324a21.729,21.729,0,0,0-3.713-9.3c-.127.171-.249.339-.368.51s-.246.356-.365.536a22.269,22.269,0,0,1,3.519,10.162.6.6,0,0,0,1.118.206c.324-.611.7-1.26,1.034-1.836a27.222,27.222,0,0,0,1.966-3.863,24.628,24.628,0,0,1,3.3,3.632l.029.038c.6.756,1.158,1.474,1.787,2.155a.6.6,0,0,0,.579.174.579.579,0,0,0,.429-.437,52.934,52.934,0,0,1,5.569-14.5,87.219,87.219,0,0,0,9.36,2.271c-4.668,9.241-9.592,21.213-6.606,32.273a16.177,16.177,0,0,0-3.452-.44,10.324,10.324,0,0,0-4.176.918,76.534,76.534,0,0,0-4.923-13.116.579.579,0,0,0-.553-.333.6.6,0,0,0-.53.368,61.5,61.5,0,0,0-3.907,13.09c.171.142.345.29.515.417l.478.365a1.027,1.027,0,0,0,.145-.365,60.221,60.221,0,0,1,3.365-11.81A80.174,80.174,0,0,1,361.1,395.53a1.158,1.158,0,0,0,.628.715h.032a1.175,1.175,0,0,0,.892,0,8.977,8.977,0,0,1,3.765-.851,15.549,15.549,0,0,1,3.374.452,1.138,1.138,0,0,0,1.011-.269,1.043,1.043,0,0,0,.29-1.037c-3.018-10.77,1.9-22.626,6.516-31.752a1.052,1.052,0,0,0-.055-.982Z" transform="translate(-256.196 -271.511)"/><path class="l" d="M450.96,391.46A9.18,9.18,0,0,1,454,385.291a6.823,6.823,0,0,1,3.9-1.686c-.035-.194-.075-.391-.116-.579a23.433,23.433,0,0,0-3.86-8.815c-.119-.168-.24-.336-.368-.5a15.579,15.579,0,0,0-4.237,2.606,19.962,19.962,0,0,0-6.58,13.391c-.579,6.606,1.943,12.841,6.342,16.443.165-.122.324-.246.484-.374a21.543,21.543,0,0,0,1.639-1.431,23.26,23.26,0,0,0,3.4-4.1c.107-.168.214-.336.316-.507A8.54,8.54,0,0,1,450.96,391.46Z" transform="translate(-323.603 -282.027)"/><path d="M450.1,390.288a8.587,8.587,0,0,1,2.832-5.763,6.282,6.282,0,0,1,3.611-1.546c-.029-.2-.064-.4-.1-.594s-.075-.391-.116-.579a7.556,7.556,0,0,0-4.176,1.819,9.8,9.8,0,0,0-3.241,6.565,9.17,9.17,0,0,0,4.237,8.844c.107-.168.214-.336.316-.507s.206-.342.3-.515A7.948,7.948,0,0,1,450.1,390.288Zm0,0a8.587,8.587,0,0,1,2.832-5.763,6.282,6.282,0,0,1,3.611-1.546c-.029-.2-.064-.4-.1-.594s-.075-.391-.116-.579a7.556,7.556,0,0,0-4.176,1.819,9.8,9.8,0,0,0-3.241,6.565,9.17,9.17,0,0,0,4.237,8.844c.107-.168.214-.336.316-.507s.206-.342.3-.515A7.948,7.948,0,0,1,450.1,390.288Zm0,0a8.587,8.587,0,0,1,2.832-5.763,6.282,6.282,0,0,1,3.611-1.546c-.029-.2-.064-.4-.1-.594s-.075-.391-.116-.579a7.556,7.556,0,0,0-4.176,1.819,9.8,9.8,0,0,0-3.241,6.565,9.17,9.17,0,0,0,4.237,8.844c.107-.168.214-.336.316-.507s.206-.342.3-.515A7.948,7.948,0,0,1,450.1,390.288Zm0,0a8.587,8.587,0,0,1,2.832-5.763,6.282,6.282,0,0,1,3.611-1.546c-.029-.2-.064-.4-.1-.594s-.075-.391-.116-.579a7.556,7.556,0,0,0-4.176,1.819,9.8,9.8,0,0,0-3.241,6.565,9.17,9.17,0,0,0,4.237,8.844c.107-.168.214-.336.316-.507s.206-.342.3-.515A7.948,7.948,0,0,1,450.1,390.288Zm0,0a8.587,8.587,0,0,1,2.832-5.763,6.282,6.282,0,0,1,3.611-1.546c-.029-.2-.064-.4-.1-.594s-.075-.391-.116-.579a7.556,7.556,0,0,0-4.176,1.819,9.8,9.8,0,0,0-3.241,6.565,9.17,9.17,0,0,0,4.237,8.844c.107-.168.214-.336.316-.507s.206-.342.3-.515A7.948,7.948,0,0,1,450.1,390.288Zm-1.848-14.735a14.973,14.973,0,0,1,4.217-2.569c-.119-.168-.24-.336-.368-.5s-.243-.324-.371-.484a16.148,16.148,0,0,0-4.251,2.647,20.577,20.577,0,0,0-6.788,13.8c-.579,6.742,1.964,13.116,6.441,16.858.168-.119.33-.238.5-.365s.324-.246.484-.374c-4.321-3.475-6.794-9.557-6.229-16.015A19.386,19.386,0,0,1,448.251,375.553Zm1.848,14.735a8.587,8.587,0,0,1,2.832-5.763,6.282,6.282,0,0,1,3.611-1.546c-.029-.2-.064-.4-.1-.594s-.075-.391-.116-.579a7.556,7.556,0,0,0-4.176,1.819,9.8,9.8,0,0,0-3.241,6.565,9.17,9.17,0,0,0,4.237,8.844c.107-.168.214-.336.316-.507s.206-.342.3-.515A7.948,7.948,0,0,1,450.1,390.288Zm0,0a8.587,8.587,0,0,1,2.832-5.763,6.282,6.282,0,0,1,3.611-1.546c-.029-.2-.064-.4-.1-.594s-.075-.391-.116-.579a7.556,7.556,0,0,0-4.176,1.819,9.8,9.8,0,0,0-3.241,6.565,9.17,9.17,0,0,0,4.237,8.844c.107-.168.214-.336.316-.507s.206-.342.3-.515A7.948,7.948,0,0,1,450.1,390.288Z" transform="translate(-322.148 -280.813)"/><path class="r" d="M336.11,438.308C336.11,438.288,336.177,438.638,336.11,438.308Z" transform="translate(-247.913 -327.917)"/><path class="s" d="M351.3,342.547a23.739,23.739,0,0,1,30.637,19.612q.075.634.113,1.26a46.211,46.211,0,0,0-11.6-5.772,50.821,50.821,0,0,0-24.164-.29,43.207,43.207,0,0,0-10.869,4.188A23.63,23.63,0,0,1,351.3,342.547Z" transform="translate(-247.415 -259.083)"/><path class="s" d="M601.217,342.547c14.051-4.55,29.221,5.109,30.941,19.612q.075.634.113,1.26a46.917,46.917,0,0,0-11.717-5.772,51.823,51.823,0,0,0-24.4-.29,43.975,43.975,0,0,0-10.979,4.188A23.715,23.715,0,0,1,601.217,342.547Z" transform="translate(-424.845 -259.083)"/></svg>