<svg xmlns="http://www.w3.org/2000/svg" width="330.117" height="281.603"><path d="M286.2 29.483a.173.173 0 0 0 0-.072.132.132 0 0 1 0 .072ZM275.8 35.884c-30.478-19.137-70.961-29.68-114-29.68s-83.517 10.508-114 29.68C17 55.231 0 81.084 0 108.684c0 51.9 60.852 95.438 141.828 101.708-.758 11.676-2.157 20.69-3.976 25.687-7.812 21.484-26.759 40.76-26.945 40.959l-4.524 4.565 5.911-1.168c.28 0 32.939-15.47 46.639-42.932a267.927 267.927 0 0 0 10.8-26.422c86.278-2.663 153.767-47.486 153.767-102.363.067-27.637-16.9-53.534-47.7-72.834Z"/><path d="M286.2 29.483a.173.173 0 0 0 0-.072.132.132 0 0 1 0 .072Z"/><path d="M161.758 1.66C73.238 1.66 1.47 46.785 1.47 102.43c0 51.795 62.149 94.45 142.112 100.126-.479 8.367-1.611 21.135-4.226 28.308-8.055 22.235-27.421 41.754-27.421 41.754.479-.094 32.417-15.775 45.526-42.129a269.834 269.834 0 0 0 11.139-27.418C253.931 200.8 322 156.6 322 102.43c.034-55.645-71.723-100.77-160.242-100.77Z" transform="translate(6.598 .042)" style="fill:#fff"/><path d="M282.314 29.68C251.871 10.508 211.39 0 168.358 0s-83.519 10.508-114 29.68c-30.8 19.347-47.8 45.197-47.8 72.799 0 51.9 60.85 95.438 141.825 101.708-.758 11.676-2.157 20.69-3.976 25.687-7.812 21.484-26.758 40.76-26.945 40.959l-4.536 4.565 5.923-1.168c.28 0 32.938-15.482 46.637-42.932a265.363 265.363 0 0 0 10.808-26.422c86.373-2.7 153.822-47.521 153.822-102.4.001-27.599-16.963-53.437-47.802-72.796Zm.665 140.788c-28.484 18.6-66.762 29.447-107.791 30.532h-1.1l-.42 1.168a271.1 271.1 0 0 1-11.01 27.132c-8.5 16.977-25.056 29.4-35.421 35.927 6.424-7.846 15.355-20.293 20.3-33.86 2.623-7.239 3.813-19.7 4.349-28.874l.1-1.95-1.679-.117C111.737 197.7 76.176 186.172 50.141 168s-40.2-41.379-40.2-65.537C9.939 48.1 81.058 3.876 168.358 3.876s158.416 44.24 158.416 98.6c-.003 25.375-15.557 49.509-43.796 67.992Z"/></svg>