<svg id="a" xmlns="http://www.w3.org/2000/svg" viewBox="0 0 842.63 592.34"><defs><style>.b{fill:#0071a6}.c{fill:#7bb4d8}.d{fill:#00addd}.e{fill:#0092c7}</style></defs><path class="e" d="M425.1 206.65c-1.1 2.45 0 5.33 2.45 6.43a4.864 4.864 0 1 0 3.98-8.88c-2.46-1.1-5.33 0-6.43 2.45Z"/><path class="c" d="M462.45 225.32c-1.46 3.27 0 7.11 3.27 8.58 3.27 1.46 7.11 0 8.57-3.27 1.47-3.27 0-7.11-3.27-8.58-3.27-1.46-7.11 0-8.58 3.27Z"/><path class="b" d="M445.11 213.9c-1.22 2.73 0 5.93 2.72 7.15 2.73 1.22 5.93 0 7.15-2.72 1.22-2.72 0-5.92-2.73-7.15a5.41 5.41 0 0 0-7.15 2.73Z"/><path class="d" d="M479.24 243.33c-1.22 2.72 0 5.93 2.73 7.14 2.73 1.22 5.93 0 7.15-2.72a5.41 5.41 0 0 0-2.73-7.15c-2.72-1.22-5.92 0-7.15 2.73Z"/><path class="e" d="M489.54 263.37c-1.22 2.73 0 5.93 2.72 7.15 2.73 1.22 5.93 0 7.15-2.72a5.41 5.41 0 0 0-2.73-7.15c-2.73-1.22-5.93 0-7.15 2.72Z"/><path class="b" d="M363.26 217.55c-.98 2.18 0 4.74 2.18 5.72 2.18.97 4.74 0 5.72-2.18.98-2.18 0-4.74-2.18-5.72-2.18-.97-4.74 0-5.72 2.18ZM492.41 308.65c-1.22 2.73 0 5.92 2.73 7.15a5.41 5.41 0 0 0 7.15-2.73c1.22-2.72 0-5.93-2.73-7.15a5.41 5.41 0 0 0-7.15 2.73Z"/><path class="c" d="M381.8 208.13c-1.22 2.73 0 5.93 2.72 7.15a5.41 5.41 0 0 0 7.15-2.73 5.414 5.414 0 0 0-9.88-4.43Z"/><path class="d" d="M496.5 288.3c-.61 1.36 0 2.96 1.36 3.57 1.36.61 2.96 0 3.58-1.36.61-1.36 0-2.96-1.37-3.57-1.36-.61-2.96 0-3.57 1.36ZM400.61 203.63c-1.83 4.09 0 8.89 4.08 10.72 4.09 1.83 8.89 0 10.72-4.09s0-8.89-4.08-10.72c-4.09-1.83-8.89 0-10.72 4.09Z"/><path class="c" d="M323.33 275.06c3.37 1.93 7.67.77 9.6-2.6 1.93-3.37.77-7.67-2.6-9.6a7.036 7.036 0 0 0-9.6 2.6c-1.93 3.37-.77 7.67 2.6 9.6Z"/><path class="e" d="M348.59 234.6c1.3.74 2.95.3 3.69-1a2.7 2.7 0 0 0-1-3.69 2.7 2.7 0 0 0-3.69 1 2.7 2.7 0 0 0 1 3.69ZM333.35 254.47c2.85 1.63 6.48.65 8.12-2.2 1.64-2.85.65-6.49-2.2-8.12a5.943 5.943 0 0 0-8.12 2.2 5.943 5.943 0 0 0 2.2 8.12Z"/><path class="b" d="M318.93 288.33c-1.22 2.73 0 5.93 2.72 7.15a5.41 5.41 0 0 0 7.15-2.73 5.41 5.41 0 0 0-2.73-7.15c-2.73-1.22-5.93 0-7.15 2.72Z"/><path class="d" d="M323.76 311.44a2.164 2.164 0 1 0 3.95 1.77 2.164 2.164 0 0 0-3.95-1.77Z"/><path class="c" d="M348.04 352.67c.74-2.11-.37-4.43-2.49-5.17-2.12-.74-4.43.37-5.17 2.49-.74 2.12.37 4.43 2.49 5.17 2.11.74 4.43-.37 5.17-2.49Z"/><path class="b" d="M337.68 335c.99-2.82-.49-5.91-3.31-6.89-2.82-.99-5.9.5-6.89 3.31a5.42 5.42 0 0 0 3.31 6.9c2.82.99 5.91-.49 6.89-3.32Z"/><path class="e" d="M468.7 368.58c1.39-3.94-.69-8.27-4.64-9.66-3.95-1.38-8.27.7-9.65 4.64-1.38 3.95.69 8.27 4.64 9.65 3.95 1.38 8.27-.69 9.65-4.64Z"/><path class="b" d="M479.97 346.84c-2.71-1.27-5.92-.09-7.19 2.61-1.26 2.71-.09 5.93 2.61 7.19 2.71 1.26 5.92.09 7.19-2.62 1.26-2.7.09-5.92-2.61-7.19Z"/><path class="c" d="M491.43 330.17c-1.89-.88-4.15-.07-5.03 1.83-.89 1.9-.07 4.15 1.83 5.04 1.9.88 4.15.07 5.03-1.83.89-1.9.07-4.15-1.83-5.03Z"/><path class="e" d="M414.93 182.69c-1.22 2.73 0 5.92 2.72 7.15a5.41 5.41 0 0 0 7.15-2.73c1.22-2.72 0-5.93-2.72-7.15-2.73-1.22-5.93 0-7.15 2.72Z"/><path class="b" d="M439.11 187.09c-1.22 2.73 0 5.92 2.72 7.14 2.73 1.22 5.93 0 7.15-2.72 1.22-2.72 0-5.92-2.73-7.15a5.41 5.41 0 0 0-7.15 2.73ZM349.92 196.02a8.113 8.113 0 0 0 14.81 6.63c1.83-4.09 0-8.89-4.09-10.73-4.09-1.83-8.89 0-10.72 4.09Z"/><path class="e" d="M371.92 188.15c-1.22 2.73 0 5.93 2.72 7.15 2.73 1.22 5.93 0 7.15-2.72a5.41 5.41 0 0 0-2.73-7.15c-2.73-1.22-5.93 0-7.15 2.72Z"/><path class="c" d="M396.15 183.44a2.164 2.164 0 1 0 3.95 1.77 2.164 2.164 0 0 0-3.95-1.77Z"/><path class="e" d="M337.36 216.97c2.59 1.48 5.9.59 7.39-2 1.49-2.59.59-5.9-2-7.38a5.404 5.404 0 0 0-7.38 2 5.402 5.402 0 0 0 2 7.38ZM518.33 259.82a7.028 7.028 0 0 0-7.6 6.41c-.32 3.87 2.54 7.27 6.41 7.6 3.87.33 7.27-2.53 7.6-6.41.33-3.87-2.54-7.27-6.41-7.61Z"/><path class="b" d="M522.01 285.72c-2.98-.26-5.59 1.95-5.85 4.93-.25 2.98 1.95 5.6 4.93 5.85 2.97.25 5.59-1.95 5.85-4.93a5.419 5.419 0 0 0-4.93-5.85ZM483.94 207.16a5.418 5.418 0 0 0-5.85 4.93 5.412 5.412 0 0 0 4.93 5.85c2.98.25 5.6-1.96 5.85-4.93a5.42 5.42 0 0 0-4.94-5.85Z"/><path class="c" d="M499.18 218.86c-5.05-.43-9.51 3.32-9.94 8.38-.44 5.06 3.32 9.51 8.38 9.94 5.06.43 9.51-3.32 9.94-8.38.43-5.06-3.32-9.51-8.38-9.94Z"/><path class="d" d="M511.43 242.34a3.774 3.774 0 0 0-4.09 3.45 3.78 3.78 0 0 0 3.45 4.09c2.08.18 3.91-1.37 4.09-3.45a3.795 3.795 0 0 0-3.45-4.1Z"/><path class="e" d="M458.12 199.11c-.76 4.11 1.94 8.07 6.05 8.84 4.11.77 8.07-1.94 8.84-6.05.77-4.11-1.94-8.07-6.05-8.83a7.577 7.577 0 0 0-8.84 6.05Z"/><path class="b" d="M521.59 333.22a5.41 5.41 0 1 0-10.42 2.92 5.406 5.406 0 0 0 6.67 3.75c2.87-.81 4.56-3.79 3.75-6.67Z"/><path class="c" d="M514.93 351.88a8.11 8.11 0 0 0-10-5.62 8.109 8.109 0 0 0-5.63 10c1.21 4.32 5.69 6.83 10 5.63a8.109 8.109 0 0 0 5.63-10Z"/><path class="d" d="M499.83 370.86a5.408 5.408 0 0 0-6.66-3.75c-2.88.81-4.56 3.79-3.75 6.66.8 2.88 3.79 4.56 6.67 3.75a5.41 5.41 0 0 0 3.75-6.67Z"/><path class="e" d="M520.73 309.96a3.786 3.786 0 1 0 1.3 7.46 3.786 3.786 0 0 0-1.3-7.46Z"/><path class="b" d="M334.54 373.64a5.407 5.407 0 0 0 1.34-7.53c-1.71-2.45-5.08-3.06-7.53-1.35a5.407 5.407 0 1 0 6.19 8.87Z"/><path class="e" d="M302.1 314.55c2.05.39 4.03-.96 4.43-3.01.39-2.05-.96-4.04-3.01-4.43-2.05-.39-4.04.95-4.43 3.01-.39 2.05.96 4.04 3.01 4.43Z"/><path class="b" d="M300.5 291.59c2.94.56 5.77-1.36 6.33-4.3a5.405 5.405 0 0 0-4.3-6.33c-2.93-.56-5.76 1.37-6.33 4.3-.56 2.93 1.37 5.77 4.3 6.32Z"/><path class="c" d="M316.41 359.92c4.69.9 9.22-2.19 10.12-6.88.9-4.69-2.18-9.22-6.87-10.12-4.69-.89-9.23 2.19-10.12 6.88-.9 4.7 2.18 9.24 6.88 10.13Z"/><path class="d" d="M306.25 337.42a5.41 5.41 0 0 0 6.33-4.3 5.405 5.405 0 0 0-4.3-6.33c-2.93-.56-5.76 1.37-6.33 4.3a5.413 5.413 0 0 0 4.3 6.33Z"/><path class="b" d="M311.29 243.11c.31 2.07 2.23 3.5 4.3 3.19a3.79 3.79 0 0 0 3.19-4.3 3.783 3.783 0 0 0-4.3-3.19c-2.07.31-3.5 2.24-3.19 4.3Z"/><path class="c" d="M321.31 225.27a5.406 5.406 0 0 0 6.14 4.55c2.96-.44 5-3.19 4.55-6.14-.44-2.95-3.19-5-6.14-4.55-2.96.44-5 3.19-4.56 6.14Z"/><path class="e" d="M307.74 268.76a6.006 6.006 0 0 0 5.71-6.29c-.16-3.31-2.97-5.87-6.28-5.71-3.31.16-5.87 2.97-5.71 6.28a6.011 6.011 0 0 0 6.28 5.72ZM392.67 160.15a5.411 5.411 0 1 0 10.43 2.89 5.411 5.411 0 1 0-10.43-2.89Z"/><path class="b" d="M413.59 159.85c-1.36 4.89 1.51 9.96 6.4 11.31 4.9 1.36 9.96-1.51 11.32-6.4 1.36-4.89-1.52-9.96-6.41-11.32a9.208 9.208 0 0 0-11.32 6.41ZM333.81 181.27c-.81 1.93.1 4.15 2.02 4.96 1.93.81 4.15-.1 4.96-2.02.81-1.93-.1-4.15-2.02-4.96a3.79 3.79 0 0 0-4.96 2.03Z"/><path class="c" d="M351.62 171.21c-1.16 2.75.14 5.92 2.89 7.08 2.75 1.16 5.92-.14 7.08-2.89a5.418 5.418 0 0 0-2.89-7.08c-2.75-1.16-5.93.13-7.08 2.89Z"/><path class="d" d="M369.53 162.42c-1.04 3.74 1.16 7.61 4.9 8.65a7.026 7.026 0 0 0 8.65-4.9c1.04-3.74-1.16-7.61-4.9-8.65a7.021 7.021 0 0 0-8.65 4.9Z"/><path class="e" d="M315.55 202.15c2.63 1.42 5.91.45 7.34-2.17 1.43-2.63.45-5.91-2.17-7.34a5.401 5.401 0 0 0-7.33 2.17c-1.43 2.62-.45 5.91 2.17 7.33ZM514.14 207.14a5.407 5.407 0 1 0 4.02 10.04 5.412 5.412 0 0 0 3.02-7.03 5.418 5.418 0 0 0-7.04-3.01Z"/><path class="b" d="M528.46 227.12a5.407 5.407 0 0 0-3.01 7.03 5.403 5.403 0 0 0 7.03 3.02 5.41 5.41 0 0 0 3.01-7.03 5.41 5.41 0 0 0-7.03-3.01ZM465.11 169.47a2.702 2.702 0 0 0-1.98 3.27 2.702 2.702 0 0 0 3.27 1.98 2.702 2.702 0 0 0 1.98-3.27 2.707 2.707 0 0 0-3.28-1.98Z"/><path class="c" d="M483.55 176.72c-2.9.71-4.67 3.64-3.96 6.54s3.64 4.68 6.54 3.96c2.9-.71 4.67-3.64 3.96-6.54a5.399 5.399 0 0 0-6.54-3.96Z"/><path class="d" d="M501 188.21c-3.77.93-6.08 4.74-5.15 8.51.93 3.77 4.74 6.08 8.51 5.15 3.77-.92 6.07-4.73 5.15-8.5-.93-3.77-4.73-6.08-8.5-5.15Z"/><path class="e" d="M439.57 167.19a5.414 5.414 0 0 0 6.12 4.59 5.407 5.407 0 0 0 4.59-6.12 5.407 5.407 0 0 0-6.12-4.59 5.417 5.417 0 0 0-4.6 6.11ZM540.21 334.1a3.242 3.242 0 0 0-4.57.45c-1.14 1.38-.93 3.43.45 4.57 1.38 1.14 3.43.94 4.57-.45 1.14-1.39.94-3.43-.45-4.57Z"/><path class="b" d="M530.98 354.6c-2.31-1.9-5.72-1.57-7.61.74a5.408 5.408 0 0 0 .74 7.61 5.413 5.413 0 0 0 7.62-.75c1.89-2.31 1.56-5.72-.75-7.61ZM547.33 268.94a5.425 5.425 0 0 0-7.65-.23 5.425 5.425 0 0 0-.23 7.65 5.407 5.407 0 0 0 7.65.23 5.416 5.416 0 0 0 .23-7.65Z"/><path class="c" d="M549.69 288.94c-2.87-3.04-7.66-3.19-10.7-.32a7.56 7.56 0 0 0-.32 10.7c2.87 3.04 7.66 3.19 10.7.32a7.56 7.56 0 0 0 .32-10.7Z"/><path class="d" d="M547.86 311.6a5.409 5.409 0 0 0-7.61.74 5.4 5.4 0 0 0 .75 7.61 5.4 5.4 0 0 0 7.61-.75 5.4 5.4 0 0 0-.75-7.61Z"/><path class="e" d="M535.43 248.3c-1.89 1.46-2.25 4.18-.79 6.07a4.321 4.321 0 0 0 6.07.79 4.33 4.33 0 0 0 .79-6.07 4.33 4.33 0 0 0-6.07-.79Z"/><path class="b" d="M506.37 395.34c.52-2.93-1.44-5.75-4.38-6.27a5.417 5.417 0 0 0-6.28 4.38 5.41 5.41 0 0 0 4.38 6.27 5.41 5.41 0 0 0 6.27-4.38Z"/><path class="e" d="M515.25 375.57c-1.15-.33-2.35.34-2.67 1.49-.33 1.15.34 2.35 1.49 2.67a2.16 2.16 0 0 0 2.67-1.49 2.16 2.16 0 0 0-1.49-2.67ZM319.56 394.35a3.787 3.787 0 1 0-5.02-1.86c.87 1.9 3.12 2.74 5.02 1.86Z"/><path class="b" d="M304.94 376.58a5.399 5.399 0 0 0 2.66-7.17 5.399 5.399 0 0 0-7.17-2.66c-2.71 1.24-3.9 4.46-2.66 7.17a5.419 5.419 0 0 0 7.17 2.66Z"/><path class="e" d="M279.7 267.4c3.56 1.9 7.97.55 9.88-3 1.89-3.56.54-7.99-3.01-9.88-3.56-1.89-7.98-.56-9.88 3-1.9 3.56-.55 7.99 3.01 9.88Z"/><path class="b" d="M287.01 243.56c2.63 1.41 5.91.41 7.31-2.23 1.41-2.64.41-5.91-2.23-7.32-2.63-1.4-5.92-.41-7.32 2.23a5.414 5.414 0 0 0 2.23 7.32ZM277.81 338.37c3.38 2.45 8.12 1.71 10.58-1.67a7.577 7.577 0 0 0-1.66-10.58 7.589 7.589 0 0 0-10.59 1.67c-2.45 3.38-1.71 8.12 1.67 10.58Z"/><path class="c" d="M274.34 315.66a5.404 5.404 0 0 0 7.55-1.19 5.414 5.414 0 0 0-1.18-7.56 5.403 5.403 0 0 0-7.55 1.19 5.407 5.407 0 0 0 1.19 7.56Z"/><path class="d" d="M273.47 292.72c1.93 1.41 4.64.98 6.04-.95 1.41-1.93.98-4.64-.95-6.05a4.319 4.319 0 0 0-6.04.95 4.319 4.319 0 0 0 .95 6.04Z"/><path class="e" d="M295.39 355.42a5.41 5.41 0 1 0-8.07-7.21c-1.99 2.23-1.8 5.65.43 7.63a5.419 5.419 0 0 0 7.64-.42Z"/><path class="c" d="M296.84 220.63c2.49 3.36 7.24 4.06 10.59 1.57a7.569 7.569 0 0 0 1.57-10.59c-2.49-3.36-7.24-4.06-10.59-1.57a7.569 7.569 0 0 0-1.57 10.59Z"/><path class="e" d="M421.82 135.46a3.247 3.247 0 1 0 5.76 3 3.247 3.247 0 0 0-5.76-3Z"/><path class="b" d="M357.59 146.2c-.55 1.06-.14 2.37.92 2.92 1.06.55 2.37.14 2.92-.92.55-1.06.14-2.37-.92-2.92a2.167 2.167 0 0 0-2.92.92Z"/><path class="c" d="M373.53 136.26c-1.72 3.31-.44 7.4 2.88 9.12 3.31 1.72 7.39.44 9.12-2.88 1.72-3.31.43-7.39-2.88-9.12a6.757 6.757 0 0 0-9.12 2.87Z"/><path class="d" d="M396.16 134.74a5.402 5.402 0 0 0 2.3 7.29c2.65 1.38 5.92.35 7.3-2.3s.35-5.91-2.3-7.29a5.414 5.414 0 0 0-7.3 2.3Z"/><path class="e" d="M482.18 150.39a5.418 5.418 0 0 0-.68 7.62 5.408 5.408 0 0 0 7.62.67 5.418 5.418 0 0 0 .68-7.62c-1.92-2.29-5.33-2.6-7.62-.68Z"/><path class="b" d="M502.7 165.75a4.308 4.308 0 0 0-.54 6.09 4.317 4.317 0 0 0 6.09.54c1.83-1.53 2.07-4.26.54-6.1a4.327 4.327 0 0 0-6.09-.54Z"/><path class="e" d="M443.42 135.23c-2.29 1.92-2.6 5.33-.68 7.62a5.408 5.408 0 0 0 7.62.68 5.408 5.408 0 0 0 .67-7.62c-1.92-2.29-5.33-2.6-7.62-.68Z"/><path class="c" d="M460.92 140.51a7.835 7.835 0 0 0-.98 11.04 7.826 7.826 0 0 0 11.04.98 7.847 7.847 0 0 0 .98-11.05 7.846 7.846 0 0 0-11.05-.98Z"/><path class="e" d="M561.32 233.25a5.416 5.416 0 0 0-5.56 5.26 5.416 5.416 0 0 0 5.26 5.56c2.98.08 5.47-2.27 5.55-5.26.09-2.99-2.27-5.47-5.25-5.56Z"/><path class="b" d="M523.63 179.08a5.416 5.416 0 0 0-5.56 5.26 5.416 5.416 0 0 0 5.26 5.56 5.41 5.41 0 0 0 5.56-5.26 5.416 5.416 0 0 0-5.26-5.56Z"/><path class="c" d="M539.41 193.67a5.407 5.407 0 0 0-5.55 5.26 5.416 5.416 0 0 0 5.26 5.56c2.98.08 5.47-2.27 5.55-5.26a5.403 5.403 0 0 0-5.26-5.56Z"/><path class="d" d="M550.78 209.32c-4.48-.13-8.21 3.41-8.34 7.88a8.127 8.127 0 0 0 7.89 8.34c4.48.13 8.21-3.41 8.34-7.88a8.127 8.127 0 0 0-7.89-8.34Z"/><path class="e" d="M574.2 296.23c-2.73-1.22-5.93 0-7.15 2.72-1.22 2.73 0 5.92 2.72 7.15 2.72 1.22 5.92 0 7.15-2.72 1.22-2.72 0-5.92-2.72-7.15Z"/><path class="b" d="M571.34 316.96c-4.63-2.09-10.07-.01-12.15 4.62s-.01 10.08 4.62 12.15c4.63 2.08 10.07 0 12.15-4.62 2.08-4.63 0-10.08-4.63-12.15Z"/><path class="e" d="M570.01 256.72c-1.63-.73-3.55 0-4.29 1.63-.74 1.63 0 3.56 1.63 4.29s3.56 0 4.29-1.63c.73-1.64 0-3.56-1.63-4.29Z"/><path class="c" d="M572.8 275.01c-2.72-1.22-5.92 0-7.15 2.72-1.22 2.73 0 5.93 2.72 7.15 2.72 1.22 5.92 0 7.15-2.72 1.23-2.73 0-5.93-2.72-7.15Z"/><path class="e" d="M531.72 402.05a5.412 5.412 0 0 0-7.1-2.85c-2.75 1.18-4.03 4.35-2.85 7.1 1.17 2.75 4.35 4.03 7.09 2.85a5.413 5.413 0 0 0 2.86-7.1Z"/><path class="b" d="M565.19 345.17a5.4 5.4 0 0 0-7.1-2.85 5.417 5.417 0 0 0-2.85 7.1c1.18 2.75 4.36 4.03 7.1 2.86a5.412 5.412 0 0 0 2.85-7.1Z"/><path class="c" d="M558.53 365.6a5.4 5.4 0 0 0-7.1-2.85c-2.75 1.17-4.02 4.35-2.85 7.1a5.417 5.417 0 0 0 7.1 2.85 5.4 5.4 0 0 0 2.85-7.1Z"/><path class="d" d="M543.59 384.8a2.163 2.163 0 0 0-2.84-1.14c-1.1.47-1.61 1.74-1.14 2.84.47 1.1 1.74 1.61 2.84 1.14 1.1-.47 1.61-1.74 1.14-2.84Z"/><path class="e" d="M519.18 419.7c-.05-4.63-3.83-8.35-8.46-8.3-4.63.04-8.35 3.83-8.31 8.46.05 4.62 3.83 8.34 8.46 8.3 4.63-.05 8.36-3.83 8.31-8.46Z"/><path class="c" d="M498.58 429.93a5.412 5.412 0 0 0-5.45-5.36 5.407 5.407 0 0 0-5.36 5.46c.02 2.98 2.47 5.38 5.45 5.36a5.399 5.399 0 0 0 5.36-5.45Z"/><path class="b" d="M292.9 399.84a5.403 5.403 0 0 0 2.44-7.25 5.41 5.41 0 0 0-9.69 4.82 5.41 5.41 0 0 0 7.25 2.43Z"/><path class="e" d="M342.45 441.42a4.329 4.329 0 0 0 1.95-5.8 4.32 4.32 0 0 0-5.8-1.95 4.335 4.335 0 0 0-1.95 5.8 4.329 4.329 0 0 0 5.8 1.95Z"/><path class="c" d="M326.07 430.99c2.68-1.33 3.76-4.58 2.44-7.25a5.406 5.406 0 0 0-7.25-2.44 5.42 5.42 0 0 0-2.44 7.25 5.406 5.406 0 0 0 7.25 2.44Z"/><path class="e" d="M254.19 318.65a5.41 5.41 0 0 0 6.75-3.59 5.41 5.41 0 0 0-3.59-6.75c-2.86-.87-5.88.73-6.75 3.59-.87 2.86.73 5.88 3.59 6.75Z"/><path class="b" d="M276.9 378.31c1.43.44 2.94-.37 3.38-1.8a2.71 2.71 0 0 0-1.79-3.38 2.71 2.71 0 0 0-3.38 1.79c-.44 1.43.37 2.94 1.8 3.38Z"/><path class="c" d="M264.78 362.63a5.41 5.41 0 0 0 6.75-3.59c.87-2.86-.73-5.88-3.59-6.76-2.85-.87-5.88.74-6.75 3.59-.87 2.86.73 5.89 3.59 6.76Z"/><path class="d" d="M258.46 342.98c3.43 1.05 7.05-.89 8.1-4.31a6.496 6.496 0 0 0-4.3-8.11 6.496 6.496 0 0 0-8.11 4.3 6.494 6.494 0 0 0 4.31 8.11Z"/><path class="e" d="M259.33 253.23c1.61 1.33 4 1.1 5.33-.51s1.1-4-.5-5.33c-1.61-1.33-4-1.11-5.33.51s-1.11 4 .5 5.33Z"/><path class="b" d="M265.97 232.22c3.1 2.58 7.71 2.14 10.28-.97 2.57-3.11 2.14-7.71-.97-10.28-3.1-2.57-7.71-2.13-10.28.97a7.308 7.308 0 0 0 .97 10.28Z"/><path class="e" d="M251.01 294.97a4.868 4.868 0 0 0 6.85-.65 4.868 4.868 0 0 0-.65-6.85 4.868 4.868 0 0 0-6.85.65 4.868 4.868 0 0 0 .65 6.85Z"/><path class="c" d="M251.8 275.19a7.308 7.308 0 0 0 10.28-.97 7.308 7.308 0 0 0-.97-10.28 7.308 7.308 0 0 0-10.28.97c-2.57 3.11-2.14 7.71.97 10.28Z"/><path class="e" d="M330.85 157.59a5.413 5.413 0 0 0 6.18 4.51 5.413 5.413 0 0 0 4.51-6.18 5.398 5.398 0 0 0-6.18-4.5 5.413 5.413 0 0 0-4.51 6.18Z"/><path class="b" d="M278.5 206.99a3.244 3.244 0 0 0 3.71 2.7 3.259 3.259 0 0 0 2.71-3.71 3.259 3.259 0 0 0-3.71-2.71 3.259 3.259 0 0 0-2.71 3.71Z"/><path class="c" d="M291.89 188.22a5.413 5.413 0 0 0 6.18 4.51 5.413 5.413 0 0 0 4.51-6.18 5.413 5.413 0 0 0-6.18-4.51 5.405 5.405 0 0 0-4.51 6.18Z"/><path class="d" d="M305.33 173.29c.78 5.01 5.49 8.45 10.5 7.67 5.02-.79 8.45-5.5 7.66-10.51-.78-5.01-5.49-8.45-10.5-7.66-5.02.79-8.45 5.49-7.66 10.51Z"/><path class="e" d="M235.7 234.86a7.14 7.14 0 0 0 10.05-.96 7.147 7.147 0 0 0-.95-10.05c-3.04-2.51-7.54-2.09-10.05.95-2.51 3.04-2.09 7.54.95 10.05Z"/><path class="b" d="M243.78 214a5.402 5.402 0 0 0 7.62-.72 5.399 5.399 0 0 0-.72-7.61 5.408 5.408 0 0 0-7.61.72c-1.9 2.3-1.58 5.71.72 7.61Z"/><path class="c" d="M229.61 256.97c2.3 1.91 5.71 1.58 7.62-.72 1.91-2.3 1.58-5.71-.72-7.62a5.408 5.408 0 0 0-7.61.72 5.42 5.42 0 0 0 .72 7.62Z"/><path class="e" d="M307.45 140.83a5.413 5.413 0 0 0 6.18 4.51 5.413 5.413 0 0 0 4.51-6.18 5.398 5.398 0 0 0-6.18-4.5 5.413 5.413 0 0 0-4.51 6.18Z"/><path class="b" d="M251.36 190.82a7.04 7.04 0 0 0 8.04 5.86c3.84-.6 6.46-4.19 5.86-8.03-.6-3.84-4.2-6.46-8.04-5.87-3.84.61-6.46 4.2-5.86 8.04Z"/><path class="c" d="M268.49 171.46a5.413 5.413 0 0 0 6.18 4.51 5.413 5.413 0 0 0 4.51-6.18 5.413 5.413 0 0 0-6.18-4.51 5.405 5.405 0 0 0-4.51 6.18Z"/><path class="d" d="M288.34 155.52a2.704 2.704 0 0 0 3.09 2.25 2.694 2.694 0 0 0 2.25-3.09 2.704 2.704 0 0 0-3.09-2.25 2.69 2.69 0 0 0-2.25 3.09Z"/><path class="e" d="M353.37 118.08c-.1 2.98 2.24 5.49 5.22 5.59 2.98.1 5.49-2.24 5.59-5.22.1-2.98-2.24-5.49-5.22-5.59a5.409 5.409 0 0 0-5.59 5.22Z"/><path class="b" d="M376.91 111.69c-.04 1.05.78 1.92 1.83 1.96 1.05.04 1.92-.78 1.96-1.83.04-1.04-.78-1.92-1.83-1.96-1.04-.03-1.92.78-1.96 1.83Z"/><path class="c" d="M326.39 126.44c-.19 5.38 4.02 9.87 9.4 10.06 5.38.18 9.88-4.03 10.06-9.4.18-5.37-4.03-9.88-9.39-10.06-5.38-.18-9.88 4.03-10.06 9.4Z"/><path class="e" d="M471.99 118.97a2.983 2.983 0 0 0 .11 4.21 2.983 2.983 0 0 0 4.21-.11 2.97 2.97 0 0 0-.11-4.2 2.983 2.983 0 0 0-4.21.11Z"/><path class="b" d="M397.56 104.53a5.416 5.416 0 0 0 .21 7.65 5.425 5.425 0 0 0 7.65-.2 5.415 5.415 0 0 0-.2-7.65 5.416 5.416 0 0 0-7.65.21Z"/><path class="c" d="M420.01 103.11c-3.19 3.36-3.04 8.66.32 11.85a8.387 8.387 0 0 0 11.85-.32c3.18-3.36 3.05-8.67-.32-11.85-3.36-3.19-8.67-3.05-11.85.32Z"/><path class="d" d="M444.96 109.28c-2.06 2.17-1.96 5.59.2 7.65 2.17 2.05 5.6 1.96 7.65-.21a5.403 5.403 0 0 0-.2-7.64 5.407 5.407 0 0 0-7.65.2Z"/><path class="e" d="M512.71 135.46c-4.36 3.03-5.44 9.03-2.41 13.4 3.04 4.37 9.03 5.44 13.4 2.42 4.36-3.04 5.45-9.03 2.42-13.4a9.63 9.63 0 0 0-13.41-2.41Z"/><path class="b" d="M533.24 152.47a5.4 5.4 0 0 0-1.36 7.53c1.71 2.45 5.08 3.06 7.53 1.35a5.417 5.417 0 0 0 1.36-7.53c-1.71-2.45-5.08-3.06-7.53-1.36Z"/><path class="c" d="M495.68 127.26a5.417 5.417 0 0 0-1.36 7.53 5.417 5.417 0 0 0 7.53 1.36 5.417 5.417 0 0 0 1.36-7.53c-1.7-2.46-5.07-3.06-7.53-1.36Z"/><path class="e" d="M586.25 236.18a2.7 2.7 0 0 0-3 2.37c-.17 1.48.89 2.83 2.37 3 1.48.17 2.83-.89 3-2.37.18-1.48-.88-2.83-2.37-3Z"/><path class="b" d="M553.15 169.24a3.782 3.782 0 0 0-4.2 3.32 3.782 3.782 0 0 0 3.32 4.2c2.08.24 3.96-1.24 4.21-3.32a3.797 3.797 0 0 0-3.32-4.21Z"/><path class="c" d="M567.84 185.32c-4.3-.51-8.2 2.57-8.7 6.87a7.84 7.84 0 0 0 6.87 8.71c4.3.51 8.2-2.57 8.71-6.87.51-4.31-2.57-8.2-6.87-8.71Z"/><path class="d" d="M577.87 208.46a5.406 5.406 0 1 0-1.26 10.74c2.96.35 5.65-1.77 6-4.74a5.41 5.41 0 0 0-4.74-6.01Z"/><path class="e" d="M597.24 280.24c-4.84-1.53-10.01 1.15-11.54 5.99-1.53 4.84 1.16 10 6 11.54 4.84 1.53 10-1.15 11.54-5.99 1.53-4.84-1.15-10.01-6-11.54Z"/><path class="b" d="M596.98 304.89c-2.85-.91-5.89.67-6.79 3.52-.9 2.85.67 5.89 3.52 6.79 2.85.9 5.89-.68 6.79-3.52.9-2.85-.68-5.89-3.52-6.79Z"/><path class="c" d="M594.01 259.74c-2.85-.9-5.89.67-6.79 3.52-.91 2.85.68 5.89 3.52 6.79 2.85.9 5.89-.68 6.79-3.52.9-2.85-.68-5.89-3.52-6.79Z"/><path class="e" d="M565.39 396.6a5.4 5.4 0 0 0-7.42-1.86 5.418 5.418 0 0 0-1.86 7.42c1.53 2.56 4.86 3.39 7.42 1.86a5.407 5.407 0 0 0 1.86-7.42Z"/><path class="b" d="M597.25 330.06c-1.53-2.56-4.86-3.39-7.42-1.86a5.418 5.418 0 0 0-1.87 7.42c1.54 2.56 4.86 3.4 7.42 1.86 2.56-1.54 3.4-4.86 1.86-7.42Z"/><path class="c" d="M589.09 354.15a4.331 4.331 0 0 0-5.94-1.49 4.32 4.32 0 0 0-1.49 5.93c1.23 2.05 3.89 2.72 5.93 1.49a4.32 4.32 0 0 0 1.49-5.93Z"/><path class="d" d="M579.91 374.42a5.416 5.416 0 0 0-7.42-1.87c-2.56 1.54-3.4 4.86-1.86 7.42a5.407 5.407 0 0 0 7.41 1.87c2.56-1.54 3.4-4.86 1.86-7.42Z"/><path class="e" d="M529.13 437.88a5.406 5.406 0 0 0-6.58-3.9c-2.9.74-4.64 3.69-3.9 6.58a5.399 5.399 0 0 0 6.57 3.9c2.9-.74 4.64-3.68 3.91-6.58Z"/><path class="d" d="M553.57 419.71c-1.32-5.21-6.63-8.35-11.84-7.03-5.21 1.34-8.36 6.64-7.03 11.85 1.33 5.2 6.63 8.35 11.83 7.02 5.22-1.33 8.37-6.63 7.04-11.84Z"/><path class="e" d="M321.11 455.56a5.406 5.406 0 1 0-6.98-8.26 5.405 5.405 0 0 0-.64 7.62 5.417 5.417 0 0 0 7.63.64Z"/><path class="b" d="M301.79 443.85c1.6-1.35 1.8-3.74.45-5.33a3.789 3.789 0 0 0-5.34-.45 3.777 3.777 0 0 0-.45 5.33c1.35 1.6 3.74 1.8 5.33.45Z"/><path class="e" d="M242.17 366.22c1.2.03 2.18-.92 2.21-2.12.03-1.19-.92-2.18-2.11-2.21-1.19-.03-2.19.92-2.21 2.11-.03 1.19.92 2.19 2.11 2.21Z"/><path class="b" d="M281.4 431.9c2.98.07 5.46-2.3 5.53-5.29a5.407 5.407 0 1 0-10.81-.24 5.415 5.415 0 0 0 5.29 5.53Z"/><path class="c" d="M265.3 415.13a7.31 7.31 0 0 0 7.47-7.13c.09-4.04-3.1-7.38-7.13-7.47-4.03-.09-7.38 3.1-7.47 7.13-.1 4.03 3.1 7.38 7.13 7.47Z"/><path class="d" d="M253.12 393.58c2.98.07 5.46-2.3 5.53-5.28.07-2.99-2.3-5.47-5.29-5.53a5.4 5.4 0 0 0-5.53 5.28 5.415 5.415 0 0 0 5.28 5.54Z"/><path class="e" d="M233.53 344.88a5.42 5.42 0 0 0 6.05-4.69 5.397 5.397 0 0 0-4.69-6.04 5.412 5.412 0 0 0-6.05 4.68 5.414 5.414 0 0 0 4.69 6.05Z"/><path class="b" d="M228.65 326.22c4 .52 7.66-2.32 8.16-6.32.51-4-2.32-7.66-6.33-8.16-4-.51-7.65 2.32-8.16 6.32-.51 3.99 2.32 7.66 6.32 8.16ZM224.11 299.63c1.97 2.24 5.39 2.47 7.63.5a5.402 5.402 0 0 0 .5-7.63 5.414 5.414 0 0 0-7.64-.5 5.422 5.422 0 0 0-.5 7.64Z"/><path class="c" d="M227.24 275.9a4.325 4.325 0 0 0 6.11.4c1.8-1.58 1.98-4.31.4-6.1a4.324 4.324 0 0 0-6.11-.4 4.313 4.313 0 0 0-.4 6.1Z"/><path class="b" d="M252.53 436.53c1.5-.98 1.92-3 .93-4.5a3.243 3.243 0 1 0-.93 4.49Z"/><path class="e" d="M205.94 352.52a5.4 5.4 0 0 0 6.12-4.59c.43-2.96-1.63-5.69-4.58-6.12a5.4 5.4 0 0 0-6.12 4.59 5.398 5.398 0 0 0 4.58 6.12Z"/><path class="b" d="M236.62 419.88c2.96.42 5.7-1.63 6.12-4.59.42-2.96-1.63-5.7-4.58-6.12-2.96-.42-5.71 1.63-6.13 4.59a5.407 5.407 0 0 0 4.59 6.12Z"/><path class="c" d="M223.62 399.92a6.57 6.57 0 0 0 7.46-5.59 6.593 6.593 0 0 0-5.59-7.47 6.61 6.61 0 0 0-7.48 5.59 6.589 6.589 0 0 0 5.6 7.47Z"/><path class="d" d="M213.23 383.12c5.91.85 11.39-3.26 12.24-9.17.85-5.92-3.25-11.4-9.17-12.25-5.91-.85-11.4 3.26-12.25 9.17-.85 5.92 3.25 11.4 9.17 12.25Z"/><path class="e" d="M197.17 303.42a6.983 6.983 0 0 0 8.87-4.33c1.25-3.64-.69-7.61-4.33-8.87-3.64-1.26-7.61.68-8.87 4.32a6.99 6.99 0 0 0 4.33 8.88Z"/><path class="b" d="M197.32 280.88c2.82.98 5.9-.52 6.88-3.35.98-2.82-.53-5.9-3.35-6.88-2.82-.97-5.9.53-6.87 3.35-.98 2.82.53 5.9 3.35 6.87Z"/><path class="c" d="M200.22 323.02a2.162 2.162 0 1 0 1.41-4.09 2.162 2.162 0 1 0-1.41 4.09Z"/><path class="b" d="M199.81 254.52a2.968 2.968 0 0 0 4.05 1.12 2.98 2.98 0 0 0 1.13-4.05 2.992 2.992 0 0 0-4.06-1.13 2.98 2.98 0 0 0-1.13 4.06Z"/><path class="c" d="M205.51 232.37a5.41 5.41 0 1 0 9.42-5.322 5.41 5.41 0 0 0-9.42 5.322Z"/><path class="d" d="M213.66 210.3c1.84 3.25 5.96 4.4 9.21 2.57 3.25-1.84 4.4-5.97 2.56-9.22a6.743 6.743 0 0 0-9.2-2.56 6.778 6.778 0 0 0-2.57 9.22Z"/><path class="b" d="M494.99 489.47a1.625 1.625 0 0 0-3.13.87 1.625 1.625 0 0 0 3.13-.87ZM329.32 492.27c.9-1.19.66-2.89-.54-3.79-1.19-.9-2.89-.65-3.79.54-.9 1.2-.65 2.89.54 3.79 1.19.9 2.89.65 3.79-.54Z"/><path class="d" d="M269.02 455.39a5.41 5.41 0 0 0 4.21-6.38 5.413 5.413 0 0 0-6.39-4.21c-2.93.6-4.81 3.46-4.21 6.38.6 2.93 3.46 4.81 6.39 4.21Z"/><path class="b" d="M606.73 384.6a5.406 5.406 0 0 0-7.52 1.42c-1.68 2.47-1.05 5.84 1.42 7.52a5.401 5.401 0 0 0 7.51-1.42 5.415 5.415 0 0 0-1.42-7.52Z"/><path class="e" d="M547.05 461.05c-.95-3.74-4.74-6-8.48-5.05-3.74.94-5.99 4.74-5.05 8.47.94 3.74 4.74 6 8.47 5.05 3.74-.94 6-4.74 5.06-8.47Z"/><path class="b" d="M600.04 406.46c-1.27-5.04-6.4-8.09-11.43-6.81-5.04 1.28-8.09 6.4-6.83 11.42 1.29 5.05 6.41 8.11 11.45 6.83 5.03-1.29 8.1-6.4 6.82-11.44Z"/><path class="c" d="M579.4 427.88a3.244 3.244 0 0 0-6.29 1.59 3.259 3.259 0 0 0 3.94 2.36c1.74-.44 2.8-2.21 2.35-3.94Z"/><path class="d" d="M565.82 444.38a5.414 5.414 0 0 0-6.57-3.92c-2.9.73-4.66 3.67-3.92 6.57a5.4 5.4 0 0 0 6.57 3.91c2.9-.73 4.65-3.67 3.92-6.57Z"/><path class="c" d="M523.67 477.76c-.17-2.98-2.73-5.25-5.71-5.09a5.4 5.4 0 0 0-5.08 5.72 5.412 5.412 0 0 0 5.71 5.09 5.406 5.406 0 0 0 5.08-5.72Z"/><path class="b" d="M559.08 137.96a6.764 6.764 0 0 0-1.19 9.49 6.762 6.762 0 0 0 9.49 1.18c2.95-2.28 3.48-6.54 1.2-9.48-2.3-2.95-6.54-3.49-9.49-1.19Z"/><path class="e" d="M614.62 215.96c-5.67-.36-10.55 3.94-10.91 9.61-.37 5.66 3.94 10.54 9.59 10.9 5.67.37 10.55-3.93 10.91-9.6.36-5.66-3.93-10.55-9.59-10.91Z"/><path class="b" d="M578.42 156.09a5.406 5.406 0 1 0-.69 10.79c2.99.18 5.56-2.08 5.75-5.06a5.412 5.412 0 0 0-5.05-5.74Z"/><path class="c" d="M592.66 179.38c-1.19-.08-2.22.83-2.29 2.02-.08 1.19.83 2.22 2.02 2.3 1.19.08 2.22-.83 2.3-2.02.08-1.19-.83-2.22-2.02-2.3Z"/><path class="d" d="M604.28 196.28a5.42 5.42 0 0 0-5.75 5.05c-.19 2.98 2.07 5.56 5.05 5.74 2.98.19 5.55-2.07 5.74-5.05a5.415 5.415 0 0 0-5.05-5.75Z"/><path class="e" d="M625.64 274c-1.01-.26-2.04.35-2.31 1.36-.26 1.01.35 2.04 1.36 2.31 1.01.26 2.04-.35 2.31-1.36a1.9 1.9 0 0 0-1.36-2.31Z"/><path class="b" d="M628.53 291.55a5.4 5.4 0 0 0-6.59 3.88c-.75 2.89.99 5.84 3.88 6.59 2.89.74 5.84-.99 6.59-3.88.75-2.89-.99-5.84-3.88-6.59Z"/><path class="c" d="M623.14 246.63a5.408 5.408 0 0 0-2.71 10.47c2.89.75 5.84-.99 6.59-3.88.74-2.89-.99-5.85-3.89-6.59Z"/><path class="b" d="M629.25 317.28a4.337 4.337 0 0 0-6.01-1.17 4.325 4.325 0 1 0 4.84 7.17 4.339 4.339 0 0 0 1.17-6.01Z"/><path class="c" d="M624.19 340.56a5.409 5.409 0 0 0-7.51-1.46 5.397 5.397 0 0 0-1.46 7.5 5.416 5.416 0 0 0 7.51 1.46 5.408 5.408 0 0 0 1.47-7.5Z"/><path class="d" d="M618.29 362.88c-2.27-3.36-6.85-4.25-10.21-2-3.37 2.27-4.26 6.85-1.99 10.22a7.342 7.342 0 0 0 10.2 1.99 7.354 7.354 0 0 0 1.99-10.21Z"/><path class="b" d="M454.84 84.01a5.4 5.4 0 0 0 3.16 6.97c2.8 1.05 5.92-.36 6.96-3.16 1.06-2.79-.36-5.91-3.15-6.97a5.41 5.41 0 0 0-6.97 3.16Z"/><path class="e" d="M543.97 125.28a5.398 5.398 0 0 0-2.25 7.31 5.415 5.415 0 0 0 7.31 2.25 5.404 5.404 0 0 0 2.25-7.31 5.404 5.404 0 0 0-7.31-2.25Z"/><path class="b" d="M478.39 86.72c-3.83 2.02-5.29 6.77-3.27 10.6a7.85 7.85 0 0 0 10.6 3.27c3.83-2.04 5.29-6.79 3.27-10.61-2.04-3.83-6.78-5.29-10.61-3.26Z"/><path class="c" d="M502.34 98.41c-2.65 1.39-3.65 4.67-2.25 7.31 1.39 2.65 4.66 3.65 7.3 2.26a5.419 5.419 0 0 0 2.26-7.31 5.398 5.398 0 0 0-7.31-2.25Z"/><path class="d" d="M523.61 111.52c-1.58.84-2.19 2.8-1.35 4.38.84 1.59 2.8 2.19 4.39 1.35a3.25 3.25 0 0 0 1.35-4.39 3.233 3.233 0 0 0-4.38-1.35Z"/><path class="b" d="M227.31 187.6a5.407 5.407 0 1 0 6.72-8.47 5.395 5.395 0 0 0-7.59.87 5.407 5.407 0 0 0 .87 7.6Z"/><path class="e" d="M293.92 115.4c.52 2.95 3.33 4.9 6.27 4.38a5.41 5.41 0 0 0 4.38-6.27c-.51-2.94-3.32-4.9-6.27-4.38a5.4 5.4 0 0 0-4.38 6.26Z"/><path class="b" d="M240.84 165.35a4.057 4.057 0 0 0 7.99-1.41c-.4-2.21-2.5-3.68-4.7-3.29-2.21.4-3.68 2.5-3.29 4.7Z"/><path class="c" d="M255.58 146.8c.51 2.94 3.32 4.9 6.26 4.38 2.95-.52 4.9-3.32 4.38-6.26a5.417 5.417 0 0 0-6.27-4.39 5.395 5.395 0 0 0-4.38 6.27Z"/><path class="d" d="M267.12 131.89c1.04 5.88 6.66 9.8 12.54 8.77 5.88-1.04 9.82-6.65 8.77-12.54-1.03-5.88-6.65-9.81-12.54-8.77-5.89 1.03-9.81 6.65-8.77 12.54Z"/><path class="e" d="M339.38 91.76a5.4 5.4 0 0 0 5.33 5.48c2.98.04 5.44-2.35 5.48-5.34.05-2.98-2.34-5.44-5.33-5.48a5.423 5.423 0 0 0-5.49 5.34Z"/><path class="b" d="M354.68 84.78c-.09 5.53 4.33 10.07 9.86 10.15 5.53.09 10.06-4.34 10.15-9.86.08-5.53-4.34-10.06-9.86-10.15-5.53-.08-10.07 4.34-10.15 9.86Z"/><path class="c" d="M320.15 100.76c-.02 1.2.94 2.18 2.13 2.2 1.2.02 2.18-.94 2.19-2.13.02-1.19-.94-2.18-2.13-2.19-1.19-.02-2.18.94-2.19 2.13Z"/><path class="b" d="M385.04 77.76a5.408 5.408 0 0 0 .36 7.64 5.416 5.416 0 0 0 7.64-.35 5.42 5.42 0 0 0-.36-7.65 5.408 5.408 0 0 0-7.64.36Z"/><path class="c" d="M409.07 77.8a3.782 3.782 0 0 0 .25 5.35 3.782 3.782 0 0 0 5.35-.25 3.783 3.783 0 0 0-.25-5.35 3.783 3.783 0 0 0-5.35.25Z"/><path class="d" d="M430.63 77.58c-2.91 3.2-2.68 8.16.51 11.08 3.21 2.92 8.18 2.68 11.09-.52a7.83 7.83 0 0 0-.51-11.07c-3.2-2.92-8.16-2.69-11.09.51Z"/><path class="b" d="M354.96 60.75a5.41 5.41 0 0 0 5.64 5.17c2.98-.13 5.3-2.66 5.16-5.64a5.408 5.408 0 0 0-5.64-5.16c-2.99.14-5.3 2.66-5.16 5.64Z"/><path class="e" d="M454.22 54.75a5.413 5.413 0 0 0 .8 7.61c2.32 1.88 5.73 1.51 7.61-.81a5.393 5.393 0 0 0-.81-7.6 5.4 5.4 0 0 0-7.6.8Z"/><path class="b" d="M376.19 51.15a8.385 8.385 0 0 0 1.25 11.79c3.6 2.91 8.88 2.35 11.79-1.24 2.91-3.61 2.35-8.89-1.25-11.8-3.61-2.9-8.89-2.35-11.79 1.26Z"/><path class="c" d="M404.18 49.97a5.393 5.393 0 0 0 .81 7.6 5.4 5.4 0 0 0 7.6-.8 5.414 5.414 0 0 0-.8-7.61 5.405 5.405 0 0 0-7.61.81Z"/><path class="d" d="M429.74 54.34c-.75.93-.61 2.29.32 3.04.93.75 2.29.61 3.04-.32.75-.93.61-2.29-.32-3.04a2.16 2.16 0 0 0-3.04.32Z"/><path class="c" d="M477.25 58.74a10.273 10.273 0 0 0-1.22 14.48c3.67 4.34 10.15 4.88 14.48 1.21 4.33-3.66 4.88-10.15 1.22-14.48s-10.15-4.88-14.48-1.22Z"/><path class="b" d="M175.88 250.68c3.46.95 7.03-1.08 7.98-4.55.94-3.46-1.1-7.03-4.55-7.97-3.45-.95-7.02 1.09-7.97 4.54a6.482 6.482 0 0 0 4.54 7.97Z"/><path class="e" d="M209.88 157.32a9.471 9.471 0 0 0 13.11 2.74c4.38-2.86 5.59-8.73 2.73-13.1-2.85-4.38-8.72-5.6-13.1-2.73-4.37 2.86-5.6 8.72-2.74 13.1Z"/><path class="b" d="M178.72 224.6c1.63 2.5 4.99 3.2 7.49 1.56 2.5-1.64 3.2-4.99 1.57-7.49-1.64-2.5-5-3.2-7.49-1.57a5.407 5.407 0 0 0-1.56 7.49Z"/><path class="c" d="M187.68 199.97a3.507 3.507 0 0 0 4.86 1.02 3.507 3.507 0 0 0 1.02-4.86 3.528 3.528 0 0 0-4.87-1.02 3.51 3.51 0 0 0-1.01 4.87Z"/><path class="d" d="M195.37 179.79c1.64 2.5 4.99 3.19 7.49 1.57 2.5-1.64 3.2-4.99 1.56-7.49a5.405 5.405 0 0 0-7.49-1.56c-2.5 1.63-3.2 4.99-1.57 7.49Z"/><path class="e" d="M248.27 114.44a2.704 2.704 0 0 0 5-2.06 2.7 2.7 0 0 0-3.53-1.47 2.704 2.704 0 0 0-1.47 3.53Z"/><path class="b" d="M267.43 99.12a5.398 5.398 0 0 0 7.06 2.95 5.405 5.405 0 0 0 2.94-7.06 5.421 5.421 0 0 0-7.06-2.95 5.408 5.408 0 0 0-2.94 7.06Z"/><path class="c" d="M228.63 132.55a5.41 5.41 0 0 0 7.06 2.95 5.4 5.4 0 0 0 2.94-7.06 5.421 5.421 0 0 0-7.06-2.95 5.408 5.408 0 0 0-2.94 7.06Z"/><path class="b" d="M282.06 81.19c-1.84 5.3.97 11.1 6.27 12.94 5.31 1.84 11.1-.96 12.95-6.26 1.84-5.31-.97-11.11-6.27-12.95-5.31-1.84-11.1.96-12.94 6.27Z"/><path class="c" d="M309.25 73.19c-.98 2.83.51 5.91 3.33 6.89a5.404 5.404 0 1 0 3.55-10.21c-2.82-.98-5.9.51-6.88 3.33Z"/><path class="d" d="M335.54 66.23c-.39 1.13.21 2.36 1.33 2.75 1.13.39 2.37-.21 2.76-1.34.39-1.13-.2-2.36-1.33-2.75-1.13-.39-2.36.2-2.76 1.33Z"/><path class="b" d="M655.05 288.3a5.407 5.407 0 0 0-6.24 4.42c-.5 2.95 1.48 5.74 4.42 6.23 2.95.5 5.73-1.48 6.24-4.42.5-2.95-1.48-5.74-4.43-6.24Z"/><path class="e" d="M636.54 386.59a5.415 5.415 0 0 0-7.61-.82 5.404 5.404 0 0 0-.82 7.6 5.405 5.405 0 0 0 7.61.82c2.33-1.87 2.7-5.28.82-7.6Z"/><path class="b" d="M659.65 311.33c-2.77-3.44-7.81-3.99-11.25-1.21a8.016 8.016 0 0 0-1.22 11.26c2.79 3.44 7.83 3.99 11.27 1.22 3.44-2.78 3.99-7.82 1.21-11.26Z"/><path class="c" d="M653.28 338.28a5.394 5.394 0 0 0-7.6-.82 5.393 5.393 0 0 0-.82 7.6c1.87 2.33 5.29 2.69 7.61.82 2.33-1.88 2.7-5.28.82-7.61Z"/><path class="d" d="M643.81 362.07a3.25 3.25 0 0 0-4.56-.49 3.234 3.234 0 0 0-.49 4.56 3.233 3.233 0 0 0 4.56.49c1.4-1.12 1.62-3.17.49-4.56Z"/><path class="c" d="M628.81 409.23a9.74 9.74 0 0 0-13.17-4.03c-4.75 2.53-6.55 8.43-4.03 13.17 2.53 4.75 8.42 6.55 13.17 4.04 4.74-2.53 6.55-8.42 4.03-13.17Z"/><path class="b" d="M511.47 75.34c-.44.85-.11 1.89.73 2.33.85.44 1.9.11 2.33-.74.44-.85.11-1.89-.73-2.33a1.73 1.73 0 0 0-2.33.73Z"/><path class="e" d="M593.16 130.89a4.319 4.319 0 0 0-2.49 5.59 4.335 4.335 0 0 0 5.59 2.49 4.323 4.323 0 0 0 2.49-5.59 4.323 4.323 0 0 0-5.59-2.49Z"/><path class="b" d="M531.23 79.05c-4.1 1.57-6.14 6.17-4.57 10.27a7.953 7.953 0 0 0 10.27 4.58c4.11-1.58 6.15-6.19 4.58-10.28-1.59-4.1-6.18-6.15-10.28-4.57Z"/><path class="c" d="M552.8 95.74c-2.79 1.06-4.19 4.2-3.11 6.98 1.07 2.8 4.2 4.18 6.98 3.11a5.414 5.414 0 0 0 3.12-6.99c-1.07-2.79-4.21-4.19-6.99-3.11Z"/><path class="d" d="M571.7 111.07c-3.21 1.23-4.8 4.83-3.58 8.04a6.215 6.215 0 0 0 8.03 3.58 6.223 6.223 0 0 0 3.58-8.04 6.223 6.223 0 0 0-8.04-3.58Z"/><path class="e" d="M620.49 165.22c-6.53 1.17-10.86 7.41-9.7 13.94 1.18 6.52 7.42 10.86 13.95 9.69 6.51-1.15 10.86-7.4 9.69-13.93-1.18-6.53-7.42-10.87-13.95-9.7Z"/><path class="b" d="M633.74 198.8a1.62 1.62 0 1 0 .571 3.19 1.62 1.62 0 0 0-.571-3.19Z"/><path class="c" d="M606.9 150.93a5.41 5.41 0 0 0 1.91 10.65c2.94-.53 4.9-3.34 4.37-6.27a5.41 5.41 0 0 0-6.28-4.37Z"/><path class="b" d="M644.6 218.5c-2.55-1.55-5.88-.75-7.43 1.8a5.421 5.421 0 0 0 1.8 7.44c2.55 1.55 5.88.74 7.44-1.81 1.55-2.56.75-5.88-1.8-7.43Z"/><path class="c" d="M652.06 239.59a8.548 8.548 0 0 0-11.75 2.85 8.536 8.536 0 0 0 2.85 11.74c4.02 2.46 9.29 1.18 11.74-2.85 2.46-4.02 1.18-9.29-2.84-11.74Z"/><path class="d" d="M654.92 266.32a4.344 4.344 0 0 0-5.95 1.44 4.334 4.334 0 0 0 1.45 5.95c2.04 1.24 4.7.6 5.94-1.44 1.25-2.04.6-4.7-1.44-5.95Z"/><path class="e" d="M276.11 496.11a3.235 3.235 0 0 0 1.38-4.37 3.25 3.25 0 0 0-4.37-1.39 3.247 3.247 0 0 0-1.38 4.38 3.235 3.235 0 0 0 4.37 1.38Z"/><path class="c" d="M256.2 480.5c2.87-.85 4.49-3.86 3.64-6.73-.85-2.87-3.87-4.49-6.73-3.64-2.86.85-4.49 3.87-3.64 6.73a5.42 5.42 0 0 0 6.73 3.64Z"/><path class="b" d="M609.92 430.75a5.405 5.405 0 0 0-7.61.81c-1.87 2.33-1.51 5.74.81 7.6a5.4 5.4 0 0 0 7.6-.81 5.392 5.392 0 0 0-.81-7.6ZM597.56 452.67a5.397 5.397 0 0 0-6.23-4.43c-2.95.5-4.93 3.3-4.43 6.24.51 2.95 3.3 4.93 6.24 4.44a5.412 5.412 0 0 0 4.43-6.24Z"/><path class="c" d="M580.28 471.52a4.31 4.31 0 0 0-4.98-3.54c-2.36.4-3.95 2.63-3.55 4.99.4 2.35 2.63 3.94 4.99 3.55 2.36-.4 3.95-2.63 3.54-4.99Z"/><path class="d" d="M564.36 487.07c-.5-2.94-3.29-4.92-6.23-4.44-2.95.5-4.93 3.29-4.43 6.24.5 2.94 3.29 4.93 6.24 4.43s4.93-3.29 4.43-6.24Z"/><path class="e" d="M494.86 525.88a7.844 7.844 0 0 0-7.68-8.01c-4.32-.09-7.91 3.35-8.01 7.68-.1 4.32 3.34 7.91 7.67 8.01 4.33.08 7.92-3.35 8.01-7.68Z"/><path class="c" d="M514.97 517.05c.06-2.99-2.3-5.46-5.29-5.53a5.407 5.407 0 0 0-5.52 5.29c-.07 2.99 2.31 5.46 5.29 5.53a5.4 5.4 0 0 0 5.52-5.29Z"/><path class="b" d="M193.99 392.48a1.623 1.623 0 1 0-.788-3.149 1.623 1.623 0 0 0 .788 3.149Z"/><path class="e" d="M165.69 303.76c5.37 2.78 11.94.68 14.72-4.69 2.78-5.36.67-11.95-4.68-14.72-5.36-2.78-11.95-.68-14.72 4.68-2.77 5.36-.68 11.95 4.68 14.72Z"/><path class="b" d="M181.76 373.37c2.65 1.37 5.92.33 7.29-2.32 1.37-2.66.33-5.92-2.32-7.29-2.66-1.37-5.93-.33-7.3 2.32a5.412 5.412 0 0 0 2.32 7.29Z"/><path class="c" d="M172.31 351.33c4.03 2.1 9 .51 11.08-3.53 2.09-4.03.51-8.99-3.52-11.07-4.03-2.09-9-.51-11.08 3.51-2.09 4.04-.51 9 3.52 11.08Z"/><path class="d" d="M171.25 325.8c2.65 1.37 5.91.33 7.29-2.32 1.37-2.65.33-5.92-2.32-7.29a5.415 5.415 0 0 0-7.29 2.32 5.404 5.404 0 0 0 2.32 7.29Z"/><path class="c" d="M170.5 271.67a5.418 5.418 0 0 0 7.6-.9 5.41 5.41 0 0 0-.91-7.6 5.418 5.418 0 0 0-7.6.9 5.41 5.41 0 0 0 .91 7.6Z"/><path class="b" d="M234.06 462.12c2.96.39 5.68-1.69 6.07-4.66a5.407 5.407 0 0 0-4.65-6.07c-2.96-.38-5.68 1.7-6.07 4.66a5.417 5.417 0 0 0 4.65 6.08Z"/><path class="c" d="M217.36 443.22c4.3.57 8.24-2.45 8.81-6.75.57-4.3-2.45-8.23-6.74-8.8-4.29-.57-8.23 2.45-8.8 6.75-.58 4.29 2.45 8.24 6.74 8.8Z"/><path class="d" d="M203.77 418.56c2.96.39 5.68-1.69 6.07-4.64a5.412 5.412 0 0 0-4.66-6.08c-2.96-.39-5.68 1.69-6.07 4.64-.39 2.97 1.69 5.69 4.65 6.08Z"/><path class="b" d="M177.26 423.28a5.406 5.406 0 0 0 3.41-6.85 5.393 5.393 0 0 0-6.85-3.4 5.416 5.416 0 0 0-3.41 6.84c.96 2.83 4.02 4.36 6.85 3.41Z"/><path class="e" d="M144.1 329.52a5.403 5.403 0 0 0 7.09-2.87c1.17-2.75-.12-5.92-2.87-7.09s-5.92.12-7.09 2.87a5.415 5.415 0 0 0 2.87 7.09Z"/><path class="b" d="M162.8 404.02c3.44 1.46 7.41-.16 8.86-3.59a6.783 6.783 0 0 0-3.59-8.87c-3.45-1.45-7.42.16-8.87 3.59a6.776 6.776 0 0 0 3.6 8.87Z"/><path class="c" d="M156.46 379.74a5.403 5.403 0 0 0 7.09-2.87 5.392 5.392 0 0 0-2.87-7.08 5.403 5.403 0 0 0-7.09 2.87c-1.16 2.76.12 5.93 2.87 7.09Z"/><path class="d" d="M147.92 359.15c4.4 1.86 9.48-.2 11.35-4.6 1.86-4.41-.2-9.48-4.6-11.34-4.39-1.87-9.48.2-11.34 4.59-1.87 4.41.2 9.48 4.6 11.34Z"/><path class="c" d="M145.78 300a2.704 2.704 0 1 0-.74-3.75c-.83 1.24-.5 2.92.75 3.75Z"/><path class="b" d="M238.3 496.81a5.398 5.398 0 0 0 .88-7.6c-1.85-2.35-5.25-2.73-7.6-.88a5.428 5.428 0 0 0-.89 7.6c1.86 2.34 5.26 2.74 7.6.88ZM217.44 480.24c1.49.08 2.77-1.06 2.85-2.55a2.712 2.712 0 0 0-2.55-2.85 2.706 2.706 0 0 0-2.85 2.55 2.706 2.706 0 0 0 2.55 2.85Z"/><path class="c" d="M201.83 463.78c2.99.16 5.54-2.12 5.7-5.11a5.397 5.397 0 0 0-5.1-5.69c-2.98-.17-5.53 2.12-5.7 5.1a5.405 5.405 0 0 0 5.1 5.7Z"/><path class="d" d="M187.74 443.12c2.68.14 4.98-1.91 5.13-4.59a4.862 4.862 0 0 0-4.6-5.13 4.873 4.873 0 0 0-5.13 4.59 4.868 4.868 0 0 0 4.6 5.13Z"/><path class="b" d="M638.95 439.28a6.584 6.584 0 0 0-9.33.27c-2.5 2.65-2.38 6.83.28 9.32 2.65 2.5 6.83 2.38 9.32-.27 2.5-2.65 2.38-6.83-.27-9.32ZM626.19 461.24a5.415 5.415 0 0 0-5.88-4.9c-2.97.28-5.17 2.91-4.9 5.88.28 2.98 2.91 5.17 5.88 4.9 2.98-.28 5.17-2.9 4.9-5.88Z"/><path class="c" d="M609.57 480.08a3.788 3.788 0 0 0-4.11-3.43 3.788 3.788 0 0 0-3.43 4.11 3.788 3.788 0 0 0 4.11 3.43 3.78 3.78 0 0 0 3.43-4.11Z"/><path class="d" d="M592.52 496.48a5.419 5.419 0 0 0-5.87-4.9c-2.98.27-5.17 2.9-4.9 5.87.27 2.97 2.9 5.17 5.88 4.9 2.98-.27 5.17-2.9 4.9-5.88Z"/><path class="c" d="M548.2 527.54a5.41 5.41 0 0 0-4.85-5.92c-2.98-.3-5.62 1.88-5.92 4.85a5.423 5.423 0 0 0 4.85 5.92c2.97.3 5.62-1.88 5.92-4.85Z"/><path class="e" d="M679.66 326.1c-2.74-1.19-5.92.07-7.12 2.8-1.19 2.74.07 5.92 2.81 7.12 2.73 1.19 5.92-.07 7.12-2.8a5.415 5.415 0 0 0-2.81-7.12Z"/><path class="b" d="M677.24 348.96c-4.93-2.16-10.67.11-12.81 5.04-2.15 4.93.11 10.67 5.04 12.81 4.93 2.14 10.66-.12 12.82-5.04 2.14-4.93-.12-10.67-5.04-12.81ZM673.17 377.99c-1.26-2.7-4.48-3.88-7.18-2.62a5.411 5.411 0 1 0 7.19 2.62Z"/><path class="c" d="M662.57 401.11a4.328 4.328 0 0 0-5.75-2.1 4.32 4.32 0 0 0-2.09 5.75 4.33 4.33 0 0 0 5.75 2.09c2.17-1 3.1-3.58 2.1-5.74Z"/><path class="d" d="M652.47 422.59a5.415 5.415 0 0 0-7.18-2.63c-2.71 1.26-3.89 4.49-2.62 7.19 1.26 2.7 4.48 3.88 7.18 2.62a5.402 5.402 0 0 0 2.62-7.19Z"/><path class="b" d="M655.75 174.41a6.747 6.747 0 0 0-4.62 8.37c1.04 3.59 4.79 5.66 8.37 4.61 3.58-1.03 5.65-4.79 4.62-8.37a6.754 6.754 0 0 0-8.37-4.61Z"/><path class="e" d="M685.3 270.78a5.414 5.414 0 0 0-7.21 2.57c-1.28 2.7-.12 5.92 2.57 7.2 2.7 1.28 5.93.13 7.21-2.57 1.28-2.7.13-5.92-2.57-7.2Z"/><path class="b" d="M668.25 198.74a3.245 3.245 0 0 0-4.32 1.54c-.76 1.62-.07 3.56 1.54 4.32 1.63.76 3.56.07 4.33-1.54.76-1.62.08-3.56-1.54-4.32Z"/><path class="c" d="M674.79 220.6a5.391 5.391 0 0 0-7.2 2.57 5.403 5.403 0 0 0 2.57 7.2c2.7 1.28 5.93.13 7.21-2.57a5.41 5.41 0 0 0-2.57-7.21Z"/><path class="d" d="M682.61 241.27c-4.18-1.98-9.18-.19-11.17 3.99-1.98 4.18-.2 9.18 3.99 11.17 4.18 1.98 9.19.2 11.17-3.99 1.99-4.19.2-9.18-3.98-11.17Z"/><path class="c" d="M682.38 300.21a2.711 2.711 0 0 0-3.78.58c-.88 1.21-.62 2.9.59 3.78 1.2.88 2.9.62 3.78-.58.88-1.21.62-2.9-.59-3.78Z"/><path class="e" d="M577.25 82.46a5.418 5.418 0 0 0-1.2 7.56c1.75 2.41 5.14 2.95 7.56 1.2a5.413 5.413 0 0 0 1.2-7.55 5.418 5.418 0 0 0-7.56-1.2Z"/><path class="b" d="M595.9 96.43c-4.22 3.04-5.16 8.93-2.1 13.14 3.04 4.21 8.93 5.14 13.14 2.09 4.21-3.06 5.14-8.94 2.1-13.15-3.05-4.2-8.94-5.14-13.14-2.09ZM618.65 114.41a5.416 5.416 0 0 0-5.91 4.86 5.41 5.41 0 1 0 5.91-4.86Z"/><path class="c" d="M633.12 135.82a3.782 3.782 0 1 0-.74 7.53c2.08.2 3.93-1.32 4.13-3.4a3.775 3.775 0 0 0-3.4-4.13Z"/><path class="d" d="M646.55 154.9c-2.97-.29-5.61 1.89-5.91 4.85-.29 2.98 1.89 5.63 4.86 5.91 2.97.29 5.62-1.88 5.91-4.85a5.409 5.409 0 0 0-4.86-5.91Z"/><path class="b" d="M436.71 25.47c-.77 2.89.95 5.85 3.84 6.62 2.89.77 5.85-.95 6.61-3.84.77-2.88-.96-5.85-3.83-6.62-2.89-.76-5.85.95-6.62 3.84Z"/><path class="e" d="M533.21 49.48a5.412 5.412 0 0 0-1.51 7.5c1.65 2.49 5.01 3.16 7.5 1.51 2.49-1.65 3.16-5.01 1.51-7.5a5.402 5.402 0 0 0-7.5-1.51Z"/><path class="b" d="M462.4 26.5a3.797 3.797 0 0 0-1.06 5.25 3.797 3.797 0 0 0 5.25 1.06 3.798 3.798 0 0 0 1.06-5.25 3.797 3.797 0 0 0-5.25-1.06Z"/><path class="c" d="M486.91 29.93a5.402 5.402 0 0 0-1.51 7.5 5.39 5.39 0 0 0 7.49 1.51 5.413 5.413 0 0 0 1.52-7.5c-1.66-2.49-5.02-3.17-7.5-1.51Z"/><path class="d" d="M504.54 33.55c-5.52 3.67-7.02 11.12-3.36 16.65 3.67 5.52 11.13 7.02 16.65 3.35 5.52-3.66 7.02-11.12 3.36-16.64-3.68-5.53-11.13-7.02-16.65-3.35Z"/><path class="c" d="M557.14 67.66c-1.1.46-1.62 1.73-1.16 2.83.46 1.1 1.73 1.62 2.83 1.16 1.1-.46 1.62-1.73 1.16-2.83a2.165 2.165 0 0 0-2.83-1.16Z"/><path class="e" d="M316.15 44.98a5.406 5.406 0 0 0 5.86 4.92c2.97-.26 5.17-2.88 4.92-5.86-.25-2.97-2.88-5.17-5.85-4.92a5.421 5.421 0 0 0-4.93 5.86Z"/><path class="b" d="M344.95 35.59a2.163 2.163 0 1 0 4.31-.371 2.163 2.163 0 0 0-4.31.371ZM364.86 25.98a5.412 5.412 0 1 0 8.691 6.45 5.412 5.412 0 0 0-8.691-6.45Z"/><path class="c" d="M385.47 20.75c-3.39 4.56-2.43 11 2.12 14.38 4.56 3.39 10.99 2.43 14.37-2.12 3.38-4.55 2.43-10.99-2.13-14.38-4.55-3.39-10.99-2.43-14.37 2.12Z"/><path class="d" d="M411.55 21.18c-2.75 3.72-1.98 8.96 1.72 11.72 3.72 2.77 8.98 1.99 11.74-1.73a8.379 8.379 0 0 0-1.72-11.72 8.395 8.395 0 0 0-11.74 1.73Z"/><path class="b" d="M195.79 134.3c2.07 2.16 5.49 2.22 7.65.15 2.16-2.07 2.22-5.5.15-7.65a5.403 5.403 0 0 0-7.64-.16 5.415 5.415 0 0 0-.15 7.65Z"/><path class="e" d="M266.38 64.26c.12 2.99 2.64 5.3 5.63 5.18a5.4 5.4 0 0 0 5.18-5.62 5.404 5.404 0 0 0-5.63-5.18c-2.98.12-5.3 2.64-5.18 5.62Z"/><path class="b" d="M211.08 112.83a2.704 2.704 0 0 0 2.81 2.59 2.704 2.704 0 0 0 2.59-2.81c-.07-1.49-1.33-2.66-2.82-2.59a2.713 2.713 0 0 0-2.59 2.82Z"/><path class="c" d="M225.65 93.71a5.394 5.394 0 0 0 5.62 5.18 5.4 5.4 0 0 0 5.18-5.62 5.41 5.41 0 0 0-5.62-5.19 5.397 5.397 0 0 0-5.18 5.63Z"/><path class="d" d="M240.7 80.4c.21 5.07 4.49 9.01 9.57 8.81 5.07-.21 9.01-4.5 8.81-9.57-.2-5.07-4.49-9.02-9.56-8.8-5.08.21-9.02 4.49-8.81 9.56Z"/><path class="c" d="M285.78 51.96a10.819 10.819 0 0 0 9.1 12.3c5.92.89 11.42-3.2 12.29-9.11.88-5.91-3.2-11.41-9.1-12.3-5.91-.88-11.42 3.2-12.3 9.11Z"/><path class="e" d="M148.06 251.28c4.77 2.36 10.54.4 12.9-4.37 2.34-4.76.39-10.54-4.38-12.9-4.75-2.36-10.53-.4-12.9 4.36-2.35 4.77-.4 10.54 4.37 12.91Z"/><path class="b" d="M155.39 220.91c2.68 1.33 5.92.23 7.25-2.45s.23-5.92-2.45-7.25a5.416 5.416 0 0 0-7.25 2.45 5.424 5.424 0 0 0 2.45 7.25ZM161.96 194.77a2.161 2.161 0 0 0 2.82 1.19 2.165 2.165 0 1 0-2.82-1.19Z"/><path class="c" d="M169.68 173.83c1.13 2.77 4.29 4.1 7.05 2.97a5.404 5.404 0 0 0 2.97-7.05c-1.12-2.76-4.28-4.09-7.05-2.97a5.393 5.393 0 0 0-2.97 7.04Z"/><path class="d" d="M179.32 153.48a8.128 8.128 0 0 0 10.57 4.46 8.114 8.114 0 0 0 4.46-10.58c-1.69-4.15-6.42-6.15-10.56-4.46a8.119 8.119 0 0 0-4.46 10.58Z"/><path class="e" d="M144.29 275.19a5.403 5.403 0 0 0 7.09-2.87c1.17-2.75-.13-5.92-2.87-7.09-2.75-1.17-5.92.12-7.09 2.87a5.415 5.415 0 0 0 2.87 7.09ZM270.56 30.21a5.406 5.406 0 0 0 6.5 4.03c2.9-.68 4.71-3.59 4.03-6.5a5.413 5.413 0 0 0-6.5-4.03 5.42 5.42 0 0 0-4.03 6.51Z"/><path class="b" d="M319.79 7.59a5.42 5.42 0 0 0 2.2 7.33c2.63 1.42 5.91.44 7.33-2.19 1.41-2.63.43-5.92-2.2-7.33a5.42 5.42 0 0 0-7.33 2.2ZM613.85 73.71a3.236 3.236 0 0 0-.68 4.54 3.253 3.253 0 0 0 4.54.68c1.44-1.06 1.74-3.1.68-4.54a3.244 3.244 0 0 0-4.54-.68ZM632.52 87.63a5.411 5.411 0 0 0-5.86 4.91 5.421 5.421 0 0 0 4.92 5.87c2.98.25 5.61-1.94 5.86-4.92s-1.94-5.6-4.92-5.86Z"/><path class="c" d="M647.44 101.29c-5.65-.51-10.65 3.68-11.13 9.33-.51 5.66 3.68 10.64 9.33 11.14s10.65-3.69 11.14-9.33c.5-5.66-3.69-10.65-9.34-11.13Z"/><path class="d" d="M659.82 123.68a5.411 5.411 0 0 0-5.86 4.91c-.27 2.98 1.93 5.6 4.91 5.87a5.42 5.42 0 0 0 5.86-4.92c.26-2.98-1.94-5.6-4.91-5.86Z"/><path class="e" d="M506.2 10.76a5.41 5.41 0 0 0 1.5 7.5 5.42 5.42 0 0 0 7.5-1.5c1.66-2.48.98-5.84-1.5-7.5a5.408 5.408 0 0 0-7.5 1.5Z"/><path class="b" d="M534.98 22.59c-.67.99-.4 2.34.6 3 .99.66 2.34.39 3-.6.66-.99.39-2.34-.6-3a2.17 2.17 0 0 0-3 .6Z"/><path class="c" d="M484.63 5.22a2.704 2.704 0 1 0 4.5 3c.83-1.24.5-2.92-.75-3.75-1.24-.83-2.92-.5-3.75.75ZM575.59 37.62c-5.78 1.53-9.23 7.45-7.7 13.22 1.52 5.78 7.44 9.22 13.2 7.7 5.78-1.52 9.23-7.44 7.71-13.21-1.52-5.78-7.44-9.23-13.21-7.71Z"/><path class="d" d="M595.95 55.36c-2.88.76-4.61 3.72-3.85 6.6.77 2.9 3.73 4.62 6.62 3.86a5.397 5.397 0 0 0 3.85-6.6 5.4 5.4 0 0 0-6.61-3.85Z"/><path class="b" d="M645.32 59.49c-2.98-.14-5.52 2.17-5.65 5.15a5.432 5.432 0 0 0 5.16 5.66c2.98.13 5.51-2.17 5.65-5.16.13-2.99-2.17-5.52-5.16-5.65Z"/><path class="d" d="M676.61 99.53c-1.19-.05-2.21.87-2.26 2.06-.06 1.2.87 2.21 2.06 2.26a2.16 2.16 0 0 0 2.26-2.06 2.16 2.16 0 0 0-2.06-2.26Z"/><path class="e" d="M561.54 1.05a5.404 5.404 0 0 0-1.16 7.56 5.414 5.414 0 0 0 7.56 1.16 5.393 5.393 0 0 0 1.15-7.56 5.404 5.404 0 0 0-7.56-1.16Z"/><path class="b" d="M712.86 283.74a5.404 5.404 0 0 0-6.21 4.48 5.401 5.401 0 0 0 4.48 6.2c2.94.48 5.72-1.53 6.2-4.47.47-2.95-1.53-5.73-4.47-6.2ZM721.89 303.81c-4.73-5.77-13.25-6.62-19.03-1.89-5.77 4.74-6.62 13.26-1.91 19.04 4.77 5.77 13.28 6.63 19.05 1.89 5.76-4.75 6.62-13.26 1.88-19.04Z"/><path class="c" d="M712.5 332.26c-1.88-2.32-5.3-2.65-7.61-.76a5.393 5.393 0 0 0-.76 7.61c1.89 2.31 5.31 2.65 7.61.76 2.32-1.9 2.66-5.31.76-7.61Z"/><path class="d" d="M707.23 355.05c-1.13-1.39-3.18-1.59-4.57-.46a3.252 3.252 0 0 0-.46 4.57 3.252 3.252 0 0 0 4.57.46 3.242 3.242 0 0 0 .45-4.57Z"/><path class="e" d="M683.93 163.18a5.419 5.419 0 0 0-4.32 6.32c.55 2.93 3.38 4.86 6.32 4.31 2.93-.54 4.86-3.38 4.32-6.31a5.416 5.416 0 0 0-6.32-4.32Z"/><path class="b" d="M693.37 190.55a5.401 5.401 0 0 0-4.32 6.31 5.407 5.407 0 0 0 6.31 4.32 5.407 5.407 0 1 0-1.99-10.63Z"/><path class="c" d="M671.2 145.58c-1.47.27-2.43 1.69-2.16 3.16.27 1.47 1.69 2.43 3.16 2.16 1.47-.27 2.43-1.69 2.16-3.16a2.705 2.705 0 0 0-3.16-2.16Z"/><path class="b" d="M706.5 209.75a9.628 9.628 0 0 0-9.88 16.53c4.57 2.72 10.48 1.24 13.21-3.33 2.72-4.57 1.24-10.48-3.33-13.21Z"/><path class="c" d="M708.81 237.93c-2.57-1.53-5.89-.7-7.42 1.87-1.54 2.56-.7 5.88 1.86 7.42 2.56 1.53 5.88.7 7.42-1.86s.7-5.88-1.86-7.42Z"/><path class="d" d="M712.02 262.1a3.248 3.248 0 0 0-4.45 1.11 3.254 3.254 0 0 0 1.12 4.46c1.54.92 3.53.42 4.45-1.12.92-1.54.42-3.53-1.12-4.45Z"/><path class="e" d="M738.64 246.42a5.416 5.416 0 0 0-6.01 4.73c-.35 2.96 1.77 5.65 4.74 6.01 2.96.36 5.65-1.76 6.01-4.73a5.41 5.41 0 0 0-4.74-6.01Z"/><path class="b" d="M740.55 275.87c-1.19-.14-2.26.7-2.4 1.89-.14 1.19.7 2.26 1.89 2.4 1.19.14 2.26-.71 2.41-1.89a2.17 2.17 0 0 0-1.89-2.41ZM744.44 296.82a5.41 5.41 0 1 0-8.08 7.2 5.41 5.41 0 1 0 8.08-7.2Z"/><path class="c" d="M743.47 319.81a5.41 5.41 0 0 0-7.64-.44 5.39 5.39 0 0 0-.44 7.63c1.98 2.23 5.4 2.43 7.64.44 2.23-1.98 2.43-5.4.45-7.63Z"/><path class="d" d="M743.43 339.56c-3.57-4.01-9.72-4.37-13.73-.81-4.03 3.59-4.38 9.75-.8 13.76 3.57 4.02 9.72 4.38 13.73.8 4.02-3.58 4.38-9.73.8-13.75Z"/><path class="e" d="M728.71 198.3c-2.95-.49-5.73 1.51-6.22 4.46a5.41 5.41 0 0 0 4.45 6.22c2.95.49 5.73-1.51 6.22-4.46.49-2.95-1.51-5.73-4.46-6.22Z"/><path class="b" d="M702.91 131.89c-3.68-.61-7.16 1.89-7.77 5.57-.6 3.68 1.89 7.16 5.56 7.77 3.7.6 7.18-1.9 7.78-5.57.6-3.69-1.89-7.17-5.58-7.77Z"/><path class="c" d="M711.98 153.06a5.395 5.395 0 0 0-6.21 4.46 5.395 5.395 0 0 0 4.45 6.21c2.95.49 5.74-1.51 6.22-4.45.48-2.96-1.51-5.74-4.46-6.22ZM735.53 218.9c-4.21-1.55-8.86.6-10.42 4.81a8.11 8.11 0 0 0 4.81 10.42c4.2 1.55 8.87-.61 10.42-4.8 1.54-4.2-.61-8.87-4.81-10.42Z"/><path class="b" d="M628.04 502.22c-2.08-3.11-6.28-3.93-9.39-1.84a6.748 6.748 0 0 0-1.83 9.38c2.08 3.1 6.28 3.92 9.38 1.84a6.76 6.76 0 0 0 1.84-9.38ZM607.17 521.79a2.164 2.164 0 1 0-4.29-.57c-.15 1.19.68 2.27 1.86 2.43 1.19.16 2.27-.68 2.43-1.86Z"/><path class="c" d="M591.24 535.86c.41-2.96-1.69-5.68-4.64-6.07-2.96-.4-5.69 1.68-6.08 4.64-.39 2.96 1.69 5.69 4.65 6.08 2.96.39 5.69-1.69 6.07-4.65Z"/><path class="e" d="M692.82 399.46c-2.41-1.77-5.79-1.24-7.56 1.16-1.77 2.41-1.24 5.79 1.16 7.56 2.4 1.76 5.79 1.24 7.56-1.16 1.76-2.41 1.24-5.8-1.17-7.56Z"/><path class="b" d="M684.36 421.36c-4.45-3.28-10.71-2.32-13.99 2.14-3.28 4.45-2.3 10.71 2.14 13.99 4.46 3.26 10.72 2.3 13.99-2.15 3.27-4.45 2.31-10.72-2.15-13.99Z"/><path class="c" d="M700.93 375.97a5.417 5.417 0 0 0-7.57 1.16 5.412 5.412 0 0 0 1.16 7.56 5.404 5.404 0 0 0 7.56-1.16 5.413 5.413 0 0 0-1.16-7.56Z"/><path class="b" d="M672.47 448.67a5.4 5.4 0 0 0-6.43-4.14 5.4 5.4 0 0 0-4.14 6.43 5.417 5.417 0 0 0 6.43 4.14 5.417 5.417 0 0 0 4.14-6.43Z"/><path class="c" d="M654.42 469.4a2.166 2.166 0 0 0-2.57-1.66c-1.17.25-1.91 1.4-1.66 2.57s1.4 1.91 2.57 1.66a2.166 2.166 0 0 0 1.66-2.57Z"/><path class="d" d="M644.25 487.12c-.63-2.91-3.51-4.77-6.42-4.14a5.42 5.42 0 0 0-4.15 6.44c.63 2.92 3.5 4.78 6.42 4.14 2.92-.63 4.77-3.51 4.15-6.43Z"/><path class="e" d="M670.76 497.54c-1.77-2.41-5.16-2.92-7.57-1.15-2.4 1.77-2.91 5.15-1.15 7.57 1.76 2.4 5.15 2.92 7.56 1.15 2.41-1.77 2.92-5.15 1.16-7.57Z"/><path class="b" d="M637.92 536.26a5.408 5.408 0 0 0-4.9-5.88 5.414 5.414 0 0 0-5.88 4.9 5.421 5.421 0 0 0 4.9 5.88c2.98.26 5.61-1.93 5.88-4.9Z"/><path class="e" d="M700.05 455.17a5.399 5.399 0 0 0-7.5-1.49 5.412 5.412 0 0 0-1.5 7.5 5.4 5.4 0 0 0 7.5 1.49 5.408 5.408 0 0 0 1.49-7.5ZM735.57 365.68a5.411 5.411 0 0 0-7.56-1.15 5.422 5.422 0 0 0-1.15 7.57c1.76 2.4 5.16 2.92 7.56 1.16a5.407 5.407 0 0 0 1.15-7.57Z"/><path class="c" d="M194.18 499.57c2.99.03 5.42-2.39 5.43-5.37.02-2.99-2.39-5.43-5.37-5.44-2.99-.01-5.43 2.4-5.44 5.38a5.407 5.407 0 0 0 5.39 5.43Z"/><path class="d" d="M179.94 488.56c5.97.02 10.84-4.79 10.86-10.77.04-5.97-4.78-10.85-10.76-10.87-5.97-.02-10.83 4.81-10.87 10.77-.02 5.98 4.79 10.84 10.77 10.87Z"/><path class="b" d="M116.31 324.1c2.98.28 5.61-1.91 5.89-4.88a5.4 5.4 0 0 0-4.89-5.88c-2.97-.28-5.6 1.91-5.89 4.88a5.415 5.415 0 0 0 4.88 5.89Z"/><path class="d" d="M117.51 252.2a2.702 2.702 0 1 0 3.94-3.699 2.702 2.702 0 0 0-3.94 3.699Z"/><path class="e" d="M154.05 445.31c4.48-1.16 7.17-5.73 6.01-10.22-1.16-4.47-5.73-7.16-10.22-6-4.47 1.14-7.17 5.72-6.02 10.21a8.395 8.395 0 0 0 10.23 6.02Z"/><path class="b" d="M142.04 415.76c2.9-.75 4.64-3.69 3.89-6.59-.74-2.89-3.7-4.63-6.59-3.88-2.89.75-4.63 3.7-3.89 6.59.75 2.89 3.7 4.63 6.59 3.89Z"/><path class="c" d="M167.87 461.75a5.412 5.412 0 0 0 3.88-6.59c-.75-2.89-3.7-4.63-6.59-3.87a5.408 5.408 0 0 0 2.71 10.47ZM123.43 369.53c2.66 1.36 5.92.3 7.28-2.36 1.36-2.66.3-5.92-2.36-7.27a5.413 5.413 0 0 0-7.28 2.36 5.413 5.413 0 0 0 2.36 7.28Z"/><path class="e" d="M93.1 363.07c2.98.15 5.52-2.14 5.68-5.13a5.411 5.411 0 0 0-5.14-5.67c-2.97-.16-5.52 2.14-5.67 5.12a5.406 5.406 0 0 0 5.13 5.68Z"/><path class="b" d="M89.21 333.81a2.16 2.16 0 0 0 2.27-2.05c.06-1.19-.86-2.21-2.05-2.27-1.19-.06-2.21.86-2.27 2.05-.06 1.19.86 2.21 2.05 2.27ZM83.92 313.17c2.14 2.09 5.56 2.06 7.65-.07a5.414 5.414 0 0 0-.07-7.65c-2.14-2.09-5.56-2.06-7.65.07-2.09 2.14-2.06 5.56.07 7.65Z"/><path class="c" d="M83.33 290.17a5.414 5.414 0 0 0 7.65-.07c2.1-2.13 2.06-5.56-.07-7.65a5.414 5.414 0 0 0-7.65.07 5.414 5.414 0 0 0 .07 7.65Z"/><path class="d" d="M82.99 269.49c3.3 3.24 8.6 3.19 11.85-.1 3.25-3.31 3.2-8.63-.12-11.86-3.3-3.24-8.61-3.2-11.84.1a8.378 8.378 0 0 0 .11 11.86Z"/><path class="e" d="M106.25 410.41c2.98.29 5.61-1.89 5.9-4.87a5.4 5.4 0 0 0-4.86-5.9 5.396 5.396 0 0 0-5.9 4.87 5.406 5.406 0 0 0 4.86 5.9Z"/><path class="c" d="M126 454.42a5.4 5.4 0 0 0 5.9-4.86 5.395 5.395 0 0 0-4.86-5.9 5.41 5.41 0 0 0-5.91 4.86 5.418 5.418 0 0 0 4.87 5.91ZM99.43 385.64c1.72.5 3.52-.48 4.03-2.2.51-1.72-.48-3.53-2.2-4.03-1.72-.5-3.52.48-4.03 2.2-.5 1.72.48 3.53 2.2 4.03Z"/><path class="b" d="M186.24 101.59a5.404 5.404 0 0 0 7.59.97 5.41 5.41 0 0 0-6.63-8.55c-2.36 1.83-2.79 5.23-.96 7.58ZM137.93 180.99c2.52 1.61 5.86.86 7.46-1.67 1.61-2.52.85-5.86-1.67-7.47-2.52-1.6-5.86-.85-7.47 1.67a5.418 5.418 0 0 0 1.67 7.47Z"/><path class="c" d="M121.99 231.27c2.53 1.61 5.86.86 7.47-1.66 1.6-2.52.85-5.87-1.67-7.46-2.52-1.6-5.86-.85-7.47 1.67a5.397 5.397 0 0 0 1.67 7.46ZM158.97 135.82a5.414 5.414 0 0 0 6.7 3.7c2.87-.83 4.53-3.83 3.7-6.69a5.403 5.403 0 0 0-6.69-3.7 5.422 5.422 0 0 0-3.7 6.7Z"/><path class="e" d="M146.72 107.35c1.93 2.28 5.34 2.56 7.63.64a5.435 5.435 0 0 0 .64-7.63c-1.92-2.27-5.33-2.56-7.62-.63-2.29 1.93-2.57 5.34-.65 7.63Z"/><path class="b" d="M157.99 89.75c3.63 4.33 10.08 4.87 14.4 1.23 4.32-3.63 4.85-10.1 1.21-14.41-3.65-4.3-10.08-4.85-14.39-1.22-4.32 3.64-4.87 10.09-1.22 14.4ZM177.15 65.24a5.415 5.415 0 0 0 5.28 5.54c2.98.06 5.46-2.3 5.54-5.29.06-2.99-2.3-5.46-5.28-5.54-2.99-.06-5.47 2.3-5.54 5.28Z"/><path class="c" d="M191.35 49.75c-.1 4.34 3.33 7.94 7.65 8.03 4.34.11 7.92-3.32 8.03-7.65.1-4.32-3.33-7.92-7.66-8.03-4.33-.11-7.92 3.32-8.02 7.65Z"/><path class="e" d="M117.53 152.19a5.391 5.391 0 0 0 7.58.98 5.414 5.414 0 0 0 .99-7.59 5.403 5.403 0 0 0-7.59-.98 5.392 5.392 0 0 0-.98 7.58Z"/><path class="b" d="M93.6 220.52c.91 1.18 2.61 1.4 3.79.49 1.18-.91 1.4-2.61.49-3.8a2.717 2.717 0 0 0-3.8-.49c-1.18.92-1.4 2.61-.49 3.8Z"/><path class="c" d="M98.38 198.66a5.392 5.392 0 0 0 7.58.98 5.402 5.402 0 0 0 .99-7.58 5.423 5.423 0 0 0-7.59-.99 5.415 5.415 0 0 0-.99 7.59ZM134.05 125.79a3.238 3.238 0 0 0 4.36 1.44c1.6-.81 2.24-2.76 1.44-4.36-.8-1.6-2.76-2.24-4.36-1.44-1.6.81-2.24 2.76-1.44 4.36Z"/><path class="e" d="M88.12 243.87a5.406 5.406 0 0 0 7.62.64 5.417 5.417 0 0 0 .64-7.63 5.405 5.405 0 0 0-7.62-.64 5.418 5.418 0 0 0-.64 7.63ZM150.27 491.91c2.98.28 5.61-1.89 5.9-4.87a5.4 5.4 0 0 0-4.86-5.9 5.396 5.396 0 0 0-5.9 4.87c-.29 2.97 1.89 5.61 4.87 5.9ZM235.35 58.39c1.93 2.28 5.34 2.56 7.63.64a5.435 5.435 0 0 0 .64-7.63c-1.92-2.27-5.33-2.56-7.62-.63-2.29 1.93-2.57 5.34-.65 7.63Z"/><path class="b" d="M140.34 69.17a2.158 2.158 0 0 0 2.2 2.12 2.18 2.18 0 0 0 2.13-2.2 2.172 2.172 0 0 0-2.2-2.13 2.158 2.158 0 0 0-2.12 2.2Z"/><path class="c" d="M153.97 52.87a5.4 5.4 0 0 0 5.5 5.31 5.406 5.406 0 0 0 5.31-5.5c-.05-2.98-2.52-5.37-5.5-5.31-2.99.06-5.37 2.52-5.31 5.51Z"/><path class="b" d="M82.39 178.47c1.06.56 2.37.15 2.92-.91.56-1.06.15-2.36-.91-2.92a2.166 2.166 0 0 0-2.92.91c-.56 1.06-.15 2.37.91 2.92ZM87.77 155.07a5.413 5.413 0 0 0 10.12-3.85 5.424 5.424 0 0 0-6.99-3.13 5.416 5.416 0 0 0-3.13 6.98Z"/><path class="c" d="M95.73 134.44c1.85 4.86 7.29 7.31 12.15 5.45 4.86-1.85 7.3-7.28 5.45-12.13-1.85-4.86-7.28-7.3-12.14-5.45-4.86 1.84-7.3 7.28-5.45 12.13Z"/><path class="d" d="M109.9 112.83a5.419 5.419 0 0 0 6.97 3.14c2.8-1.07 4.2-4.2 3.14-6.99a5.402 5.402 0 0 0-6.97-3.13 5.414 5.414 0 0 0-3.14 6.98Z"/><path class="e" d="M78.32 110.86c3.76 3.77 9.85 3.77 13.62.02 3.75-3.75 3.76-9.85 0-13.62-3.74-3.76-9.85-3.77-13.62-.02-3.76 3.76-3.77 9.86-.02 13.63Z"/><path class="b" d="M107.99 64.73c.18 2.98 2.74 5.26 5.72 5.08 2.98-.18 5.26-2.74 5.08-5.72a5.405 5.405 0 0 0-5.72-5.08c-2.98.18-5.26 2.74-5.08 5.72Z"/><path class="c" d="M114.12 43.9c.44 7.31 6.71 12.88 14.02 12.44 7.31-.43 12.88-6.71 12.44-14-.44-7.3-6.7-12.87-14.01-12.44-7.31.42-12.88 6.7-12.45 14Z"/><path class="e" d="M61.75 153.04c.71.77 1.9.83 2.67.12.77-.7.83-1.9.12-2.67-.7-.77-1.9-.83-2.67-.12-.77.7-.83 1.9-.12 2.67Z"/><path class="c" d="M69.01 129.99a5.41 5.41 0 0 0 7.44 1.79 5.398 5.398 0 0 0 1.78-7.44c-1.56-2.55-4.89-3.34-7.44-1.79a5.41 5.41 0 0 0-1.79 7.44Z"/><path class="d" d="M31.56 233.09c4.08 5.22 11.63 6.15 16.85 2.08 5.23-4.09 6.17-11.63 2.08-16.86-4.08-5.22-11.63-6.15-16.86-2.08-5.23 4.09-6.15 11.63-2.07 16.86Z"/><path class="c" d="M43.53 204.94a5.422 5.422 0 0 0 7.59-.98 5.392 5.392 0 0 0-.99-7.58 5.392 5.392 0 0 0-7.58.98 5.422 5.422 0 0 0 .98 7.59Z"/><path class="d" d="M62.33 257.09a5.41 5.41 0 0 0 7.62.7 5.41 5.41 0 0 0 .71-7.62 5.41 5.41 0 0 0-7.62-.7 5.41 5.41 0 0 0-.7 7.62Z"/><path class="e" d="M74.55 206.81a5.408 5.408 0 1 0 6.33-8.77 5.408 5.408 0 0 0-6.33 8.77Z"/><path class="b" d="M59.49 332.04a7.31 7.31 0 0 0 10.33-.1 7.318 7.318 0 0 0-.09-10.33c-2.89-2.82-7.51-2.78-10.33.1-2.82 2.88-2.79 7.5.1 10.33Z"/><path class="c" d="M61.4 307.18a5.393 5.393 0 0 0 7.64-.07 5.393 5.393 0 0 0-.07-7.64 5.414 5.414 0 0 0-7.65.07 5.405 5.405 0 0 0 .07 7.65Z"/><path class="b" d="M99.31 450.05a5.398 5.398 0 0 0 3.61-6.74c-.86-2.86-3.89-4.47-6.75-3.61a5.41 5.41 0 0 0-3.61 6.74c.87 2.86 3.89 4.48 6.74 3.61ZM84.14 430.13c4.72 2.16 10.31.1 12.48-4.62 2.17-4.73.1-10.31-4.62-12.49-4.73-2.16-10.32-.09-12.49 4.63-2.16 4.72-.1 10.31 4.63 12.48ZM43.01 371.52c2.99.04 5.43-2.36 5.46-5.35.04-2.99-2.37-5.43-5.36-5.46-2.98-.03-5.42 2.36-5.46 5.35-.03 2.98 2.37 5.44 5.35 5.46ZM38.73 345.86a2.704 2.704 0 1 0 3.63-4.01c-1.11-1-2.82-.91-3.82.2s-.92 2.82.19 3.82Z"/><path class="c" d="M31.95 322.9c2.22 2 5.64 1.83 7.64-.39a5.408 5.408 0 0 0-.38-7.64 5.41 5.41 0 0 0-7.64.39 5.4 5.4 0 0 0 .38 7.64Z"/><path class="d" d="M30.04 303.06c3.88 3.5 9.85 3.2 13.36-.66 3.51-3.89 3.21-9.88-.67-13.37-3.87-3.51-9.86-3.21-13.36.66a9.46 9.46 0 0 0 .67 13.37Z"/><path class="b" d="M34.72 251.89a5.418 5.418 0 0 0 7.62.68c2.28-1.92 2.59-5.33.68-7.62a5.43 5.43 0 0 0-7.63-.68 5.408 5.408 0 0 0-.67 7.62Z"/><path class="d" d="M101.27 514.98c2.96.39 5.68-1.69 6.07-4.65.39-2.96-1.69-5.69-4.65-6.08a5.415 5.415 0 0 0-6.07 4.66 5.408 5.408 0 0 0 4.66 6.07Z"/><path class="c" d="M126.45 495.54c2.96-.45 4.98-3.2 4.54-6.16a5.402 5.402 0 0 0-6.16-4.53 5.424 5.424 0 0 0-4.54 6.16 5.416 5.416 0 0 0 6.16 4.54Z"/><path class="d" d="M154.78 536.85a5.412 5.412 0 0 0 5.35-5.46 5.416 5.416 0 0 0-5.47-5.36c-2.98.03-5.38 2.49-5.35 5.47a5.408 5.408 0 0 0 5.47 5.35ZM147.73 568.41c2.98-.16 5.27-2.7 5.12-5.67a5.393 5.393 0 0 0-5.69-5.12c-2.98.15-5.28 2.7-5.12 5.67a5.397 5.397 0 0 0 5.68 5.12Z"/><path class="b" d="M115 533.02c2.98.26 5.6-1.94 5.86-4.92a5.432 5.432 0 0 0-4.92-5.86c-2.98-.25-5.61 1.95-5.86 4.92-.25 2.98 1.95 5.6 4.92 5.85Z"/><path class="e" d="M128.68 551.5c3.73.15 6.88-2.75 7.04-6.48.15-3.72-2.75-6.87-6.49-7.04-3.72-.16-6.87 2.75-7.03 6.48a6.77 6.77 0 0 0 6.48 7.04Z"/><path class="b" d="M704.77 496.83a5.392 5.392 0 0 0-7.63-.49 5.41 5.41 0 0 0-.49 7.63c1.97 2.25 5.39 2.46 7.63.5 2.24-1.98 2.46-5.4.49-7.64Z"/><path class="d" d="M664.63 555.9c.02-6.62-5.35-12.02-11.97-12.04-6.64-.02-12.04 5.34-12.06 11.96-.01 6.63 5.35 12.02 11.97 12.05 6.64.02 12.02-5.34 12.06-11.97Z"/><path class="b" d="M750.38 410.99a5.398 5.398 0 0 0-7.35 2.12c-1.45 2.61-.49 5.9 2.13 7.34a5.406 5.406 0 0 0 5.22-9.47ZM741.93 437.47a4.33 4.33 0 0 0-5.53-2.62c-2.25.8-3.42 3.28-2.63 5.53a4.34 4.34 0 0 0 5.54 2.62 4.33 4.33 0 0 0 2.62-5.53Z"/><path class="d" d="M716.87 479.97a2.165 2.165 0 0 0-2.76-1.31c-1.13.4-1.71 1.64-1.31 2.77a2.161 2.161 0 0 0 4.07-1.45Z"/><path class="e" d="M748.41 484.43a5.406 5.406 0 0 0-7.65-.17c-2.15 2.06-2.23 5.48-.17 7.65 2.06 2.16 5.48 2.23 7.65.17a5.415 5.415 0 0 0 .17-7.65Z"/><path class="b" d="M735.64 504.08c-3.19-3.36-8.5-3.48-11.85-.27-3.35 3.19-3.46 8.5-.27 11.85 3.2 3.34 8.5 3.46 11.85.27 3.35-3.2 3.47-8.51.26-11.85ZM720.82 527.01c-.12-2.99-2.63-5.32-5.61-5.2a5.422 5.422 0 0 0-5.2 5.61c.12 2.99 2.63 5.32 5.61 5.2a5.415 5.415 0 0 0 5.2-5.61Z"/><path class="c" d="M703.44 548.11a2.437 2.437 0 0 0-4.87.18 2.434 2.434 0 0 0 2.52 2.34 2.434 2.434 0 0 0 2.34-2.52Z"/><path class="d" d="M689.49 563.38c-.12-2.98-2.62-5.31-5.6-5.2a5.402 5.402 0 0 0-5.2 5.61c.11 2.99 2.62 5.32 5.6 5.2a5.403 5.403 0 0 0 5.2-5.61Z"/><path class="e" d="M771.57 437.38a5.423 5.423 0 0 0-7.64-.52 5.412 5.412 0 0 0-.52 7.63 5.412 5.412 0 0 0 7.63.52 5.412 5.412 0 0 0 .52-7.63Z"/><path class="c" d="M764.21 460.81c-2.49-4.25-7.95-5.69-12.21-3.21-4.27 2.49-5.69 7.96-3.21 12.21a8.93 8.93 0 0 0 12.21 3.21c4.25-2.48 5.69-7.95 3.21-12.21Z"/><path class="e" d="M667.19 581.9a1.622 1.622 0 1 0-1.71 1.53c.9.05 1.66-.63 1.71-1.53Z"/><path class="d" d="M795.5 364.25a5.418 5.418 0 0 0-7.57-1.1 5.412 5.412 0 0 0 6.47 8.68 5.4 5.4 0 0 0 1.09-7.57Z"/><path class="e" d="M780.37 414.26a4.884 4.884 0 0 0-6.85.74 4.877 4.877 0 0 0 .75 6.85 4.873 4.873 0 0 0 6.84-.74 4.863 4.863 0 0 0-.75-6.84Z"/><path class="c" d="M788.23 388.18a5.424 5.424 0 0 0-7.61.82c-1.87 2.33-1.5 5.74.83 7.6a5.403 5.403 0 0 0 7.6-.82 5.424 5.424 0 0 0-.82-7.61Z"/><path class="d" d="M768.42 337.34a2.703 2.703 0 0 0-3.8-.43 2.703 2.703 0 0 0-.43 3.8 2.703 2.703 0 0 0 3.8.43c1.17-.93 1.36-2.63.43-3.8Z"/><path class="c" d="M764 359.8a5.417 5.417 0 0 0-7.58 1.05 5.404 5.404 0 0 0 1.06 7.57 5.417 5.417 0 0 0 7.58-1.05 5.408 5.408 0 0 0-1.06-7.58Z"/><path class="b" d="M765.19 237.47a4 4 0 1 0-.57 7.98 4 4 0 1 0 .57-7.98Z"/><path class="c" d="M774.15 284.98c-2.92-3-7.72-3.04-10.71-.11-2.99 2.92-3.04 7.71-.12 10.7 2.92 2.99 7.73 3.04 10.71.12 2.99-2.93 3.05-7.73.12-10.71Z"/><path class="b" d="M738.02 144.45a3.772 3.772 0 0 0-2.62 4.67 3.784 3.784 0 0 0 4.67 2.62 3.774 3.774 0 0 0 2.62-4.66 3.777 3.777 0 0 0-4.67-2.62Z"/><path class="c" d="M758.08 189.03a7.358 7.358 0 0 0-9.83 3.42c-1.77 3.66-.24 8.06 3.41 9.82 3.66 1.77 8.06.25 9.83-3.41 1.78-3.65.25-8.05-3.41-9.82Z"/><path class="d" d="M763.5 212.64c-2.69-1.3-5.92-.17-7.23 2.5-1.3 2.7-.17 5.93 2.52 7.23 2.69 1.3 5.92.18 7.22-2.51 1.3-2.69.18-5.92-2.51-7.23Z"/><path class="e" d="M787.69 196.61a5.41 5.41 0 0 0-5.57 5.25c-.09 2.98 2.26 5.47 5.25 5.57 2.98.1 5.47-2.26 5.57-5.24a5.41 5.41 0 0 0-5.25-5.57Z"/><path class="b" d="M797.9 246.31a5.416 5.416 0 0 0-7.65.23 5.407 5.407 0 0 0 .23 7.65 5.416 5.416 0 0 0 7.65-.23 5.425 5.425 0 0 0-.23-7.65Z"/><path class="c" d="M801.8 271.96a4.598 4.598 0 0 0-6.5.2 4.607 4.607 0 0 0 .19 6.5 4.598 4.598 0 0 0 6.5-.2c1.74-1.84 1.65-4.76-.2-6.5Z"/><path class="d" d="M801.09 294.2a5.422 5.422 0 0 0-7.64.22c-2.05 2.18-1.95 5.61.23 7.65a5.395 5.395 0 0 0 7.64-.23 5.408 5.408 0 0 0-.23-7.65Z"/><path class="e" d="M771.19 146.84a5.403 5.403 0 0 0-5.8 4.99c-.23 2.98 2.01 5.57 4.99 5.8 2.98.23 5.57-2.01 5.8-4.99a5.415 5.415 0 0 0-4.98-5.8Z"/><path class="b" d="M798.15 342.31a5.415 5.415 0 0 0-7.61-.83c-2.32 1.87-2.7 5.28-.83 7.61 1.88 2.33 5.29 2.7 7.61.83 2.32-1.87 2.7-5.28.83-7.61Z"/><path class="e" d="M804.68 317.33c-3.76-4.25-10.25-4.66-14.52-.91-4.24 3.75-4.65 10.23-.91 14.51 3.73 4.25 10.23 4.65 14.51.91 4.26-3.76 4.67-10.24.92-14.51Z"/><path class="d" d="M736.94 77.93a5.41 5.41 0 0 0-6.16 4.53 5.414 5.414 0 0 0 4.53 6.17c2.95.45 5.71-1.58 6.17-4.53a5.419 5.419 0 0 0-4.53-6.17Z"/><path class="c" d="M748.56 100.08a5.42 5.42 0 0 0-4.85 5.93c.3 2.97 2.95 5.14 5.92 4.83a5.397 5.397 0 0 0 4.84-5.92 5.423 5.423 0 0 0-5.92-4.85Z"/><path class="d" d="M699.09 75.07a5.409 5.409 0 1 0 4.72 6.02 5.419 5.419 0 0 0-4.72-6.03Z"/><path class="e" d="M724.71 120.02a5.407 5.407 0 0 0-4.65 6.07c.39 2.96 3.11 5.04 6.07 4.66a5.41 5.41 0 0 0 4.65-6.07 5.415 5.415 0 0 0-6.07-4.66Z"/><path class="b" d="M780.66 97.96a4.58 4.58 0 0 0-3.35 5.57 4.585 4.585 0 0 0 5.57 3.35 4.601 4.601 0 0 0 3.35-5.57c-.62-2.46-3.11-3.97-5.57-3.35ZM796.77 120.19a5.419 5.419 0 0 0-7.3 2.29 5.421 5.421 0 0 0 2.29 7.3c2.66 1.37 5.92.35 7.3-2.3s.35-5.92-2.3-7.3Z"/><path class="d" d="M811.42 165.83a5.421 5.421 0 0 0-7.3 2.29c-1.38 2.65-.36 5.92 2.29 7.3 2.64 1.38 5.92.35 7.3-2.29 1.38-2.65.36-5.92-2.29-7.3Z"/><path class="b" d="M725.19 17.21a5.4 5.4 0 0 0-1.49 7.5 5.4 5.4 0 0 0 7.5 1.49c2.48-1.66 3.14-5.02 1.49-7.5a5.4 5.4 0 0 0-7.5-1.49Z"/><path class="c" d="M758.74 56.64c-2.96-.4-5.69 1.67-6.09 4.63-.4 2.96 1.67 5.69 4.62 6.09 2.96.4 5.69-1.67 6.09-4.63a5.401 5.401 0 0 0-4.62-6.09Z"/><path class="d" d="M771.48 75.46a5.416 5.416 0 0 0-6.09 4.62 5.398 5.398 0 0 0 4.63 6.09c2.96.4 5.68-1.66 6.09-4.62.4-2.96-1.67-5.69-4.63-6.09Z"/><path class="b" d="M813.37 99.48a2.434 2.434 0 0 0-3.24 1.17 2.434 2.434 0 0 0 1.17 3.24c1.22.57 2.67.05 3.24-1.17.57-1.22.05-2.67-1.17-3.24Z"/><path class="c" d="M826.66 119.23a5.413 5.413 0 0 0-7.2 2.59c-1.27 2.7-.11 5.93 2.59 7.19 2.7 1.27 5.92.11 7.19-2.59 1.28-2.7.12-5.92-2.59-7.19Z"/><path class="d" d="M832.79 140.79c-3-1.41-6.57-.12-7.98 2.87-1.41 3.01-.12 6.59 2.88 7.99 3 1.41 6.58.13 7.98-2.87 1.41-3 .13-6.57-2.88-7.99Z"/><path class="e" d="M758.88 12.63a3.239 3.239 0 0 0-2.38 3.93c.42 1.74 2.18 2.8 3.92 2.38a3.247 3.247 0 0 0 2.38-3.93 3.24 3.24 0 0 0-3.92-2.38Z"/><path class="c" d="M775.97 31.34a5.412 5.412 0 1 0 .55 10.81c2.98-.15 5.28-2.7 5.13-5.68-.16-2.98-2.7-5.28-5.68-5.13Z"/><path class="e" d="M839.15 168.95a2.43 2.43 0 0 0-3.33.86 2.432 2.432 0 1 0 3.33-.86ZM706.8 1.41c-1.62.77-2.3 2.71-1.52 4.33.77 1.61 2.71 2.3 4.33 1.52 1.61-.77 2.3-2.71 1.53-4.33a3.237 3.237 0 0 0-4.33-1.52Z"/><path class="b" d="M621.14 1.23a5.417 5.417 0 0 0-4.52 6.17 5.432 5.432 0 0 0 6.17 4.53c2.95-.46 4.98-3.23 4.52-6.18a5.417 5.417 0 0 0-6.17-4.52Z"/><path class="c" d="M640.44 18.45c-2.3.36-3.88 2.51-3.53 4.81a4.216 4.216 0 0 0 4.81 3.53c2.3-.36 3.88-2.51 3.53-4.81a4.223 4.223 0 0 0-4.81-3.53Z"/><path class="d" d="M657.83 31.7a5.413 5.413 0 0 0-4.52 6.16c.45 2.96 3.22 4.98 6.18 4.52a5.402 5.402 0 0 0 4.52-6.16c-.46-2.95-3.22-4.98-6.17-4.53Z"/><path class="b" d="M718.78 62.16a2.7 2.7 0 0 0 .35 3.81c1.14.96 2.85.8 3.81-.35.95-1.15.8-2.85-.35-3.81a2.7 2.7 0 0 0-3.81.35Z"/><path class="c" d="M669.42 3.17c-2.98.18-5.26 2.74-5.08 5.72a5.39 5.39 0 0 0 5.71 5.08 5.4 5.4 0 0 0 5.08-5.72 5.397 5.397 0 0 0-5.71-5.08Z"/><path class="d" d="M685.48 14.54c-4.92.29-8.67 4.52-8.39 9.42a8.922 8.922 0 0 0 9.44 8.39c4.92-.29 8.67-4.5 8.38-9.42-.29-4.92-4.51-8.68-9.43-8.39Z"/><path class="c" d="M703.01 38.3a5.41 5.41 0 0 0-4.66 6.07 5.393 5.393 0 0 0 6.07 4.65 5.4 5.4 0 0 0 4.66-6.06 5.41 5.41 0 0 0-6.07-4.66Z"/><path class="b" d="M810.75 189.12a5.393 5.393 0 0 0 1.42 7.51 5.406 5.406 0 0 0 7.52-1.42 5.41 5.41 0 0 0-1.42-7.51c-2.47-1.68-5.84-1.05-7.51 1.42ZM822.2 374.66a5.406 5.406 0 1 0-4.69 9.74c2.69 1.3 5.92.16 7.22-2.52 1.29-2.69.16-5.92-2.53-7.22ZM818.31 403.52a3.514 3.514 0 1 0-1.88 4.6c1.79-.76 2.64-2.82 1.88-4.61Z"/><path class="c" d="M810.43 424.24a5.406 5.406 0 0 0-7.08-2.89c-2.76 1.15-4.05 4.32-2.9 7.08 1.16 2.75 4.33 4.05 7.08 2.9 2.76-1.16 4.06-4.33 2.89-7.08Z"/><path class="b" d="M829.47 282.91c-1.19-.12-2.25.74-2.37 1.93-.13 1.19.74 2.25 1.93 2.37 1.19.12 2.25-.74 2.37-1.93.12-1.19-.74-2.25-1.93-2.37ZM834.07 304.78a5.406 5.406 0 0 0-7.64-.32 5.407 5.407 0 0 0-.33 7.64 5.419 5.419 0 0 0 7.65.32 5.415 5.415 0 0 0 .32-7.64Z"/><path class="c" d="M831.37 329.6c-2.02-2.2-5.45-2.35-7.64-.32-2.2 2.02-2.35 5.44-.33 7.63a5.407 5.407 0 0 0 7.64.33c2.2-2.01 2.35-5.43.33-7.63Z"/><path class="d" d="M830.75 350.75c-2.83-3.08-7.62-3.28-10.69-.46-3.1 2.83-3.29 7.63-.46 10.71 2.83 3.07 7.61 3.29 10.69.46a7.584 7.584 0 0 0 .46-10.71Z"/><path class="c" d="M839.33 419.72a2.167 2.167 0 0 0-2.88-1.04 2.164 2.164 0 1 0 1.84 3.92 2.156 2.156 0 0 0 1.04-2.87Z"/><path class="d" d="M834.08 441.89a5.417 5.417 0 0 0-7.19-2.6 5.412 5.412 0 0 0 4.59 9.8 5.409 5.409 0 0 0 2.6-7.2Z"/><path class="b" d="M817.66 483.55c-1.09-3.57-4.89-5.57-8.45-4.46-3.56 1.11-5.56 4.9-4.47 8.46 1.12 3.57 4.9 5.57 8.47 4.46 3.56-1.11 5.57-4.89 4.45-8.46Z"/><path class="e" d="M825.72 463.12a5.418 5.418 0 0 0-6.93-3.26c-2.8 1.01-4.26 4.11-3.26 6.93 1 2.8 4.11 4.26 6.92 3.25a5.41 5.41 0 0 0 3.26-6.92ZM828.58 254.62a5.402 5.402 0 0 0-6.56 3.93c-.73 2.89 1.03 5.83 3.93 6.56 2.89.73 5.83-1.03 6.57-3.93.72-2.9-1.04-5.84-3.93-6.56Z"/><path class="c" d="M825.37 228.76c-2.9-.73-5.83 1.03-6.57 3.93a5.397 5.397 0 0 0 3.93 6.56c2.9.73 5.84-1.02 6.56-3.92.73-2.9-1.02-5.84-3.92-6.57Z"/><path class="b" d="M785.07 467.56a5.399 5.399 0 0 0-3.7 6.69c.82 2.88 3.82 4.53 6.69 3.71a5.403 5.403 0 0 0 3.7-6.69 5.417 5.417 0 0 0-6.69-3.71ZM736.35 552.5a3.243 3.243 0 0 0-4.59-.15c-1.31 1.22-1.37 3.28-.15 4.59a3.243 3.243 0 1 0 4.73-4.44ZM724.71 572.78a5.42 5.42 0 0 0-5.56-5.25 5.41 5.41 0 0 0-5.26 5.56 5.424 5.424 0 0 0 5.57 5.26 5.42 5.42 0 0 0 5.25-5.56Z"/><path class="c" d="M703.44 589.84a2.427 2.427 0 0 0-2.5-2.36c-1.34.04-2.4 1.16-2.36 2.5.04 1.34 1.16 2.4 2.5 2.36 1.34-.04 2.4-1.15 2.36-2.5Z"/><path class="e" d="M749.11 583.04a2.434 2.434 0 0 0-3.2-1.28 2.426 2.426 0 0 0-1.28 3.19 2.434 2.434 0 0 0 4.48-1.91ZM767.81 562.3a5.407 5.407 0 0 0-7.49-1.56c-2.5 1.63-3.2 4.98-1.56 7.49 1.63 2.49 4.98 3.19 7.49 1.56 2.5-1.64 3.2-4.99 1.56-7.49Z"/><path class="c" d="M780.57 542.09a5.428 5.428 0 0 0-7.5-1.57 5.395 5.395 0 0 0-1.56 7.48c1.63 2.5 4.98 3.2 7.48 1.57 2.5-1.64 3.2-4.99 1.57-7.49Z"/><path class="e" d="M753.44 531.29a5.405 5.405 0 0 0-7.53-1.33 5.405 5.405 0 0 0-1.33 7.53 5.407 5.407 0 1 0 8.86-6.2Z"/><path class="c" d="M771.51 507.18c-3.08-4.42-9.14-5.49-13.56-2.42-4.41 3.09-5.48 9.16-2.4 13.56 3.07 4.41 9.15 5.49 13.55 2.41 4.42-3.08 5.5-9.15 2.41-13.55Z"/><path class="d" d="M779.42 491.98a5.405 5.405 0 0 0-6.86-3.38c-2.83.96-4.35 4.04-3.39 6.86.96 2.83 4.04 4.34 6.87 3.38s4.34-4.03 3.38-6.87Z"/><path class="c" d="M806.14 502.59a5.417 5.417 0 0 0-7.5-1.56 5.395 5.395 0 0 0-1.56 7.48c1.63 2.5 4.98 3.2 7.49 1.57 2.5-1.64 3.2-4.99 1.57-7.49Z"/><path class="b" d="M22.76 405.24c1.38.9 3.22.51 4.12-.87.9-1.38.51-3.22-.86-4.12-1.38-.9-3.22-.51-4.12.87-.9 1.38-.51 3.22.87 4.12Z"/><path class="c" d="M17.92 382.56c2.5 1.63 5.86.93 7.49-1.57 1.64-2.5.93-5.85-1.57-7.48-2.5-1.63-5.86-.93-7.49 1.57a5.396 5.396 0 0 0 1.57 7.48Z"/><path class="d" d="M12.4 363.27c4.25 2.77 9.95 1.57 12.72-2.65 2.78-4.27 1.58-9.97-2.68-12.74a9.184 9.184 0 0 0-12.72 2.66 9.19 9.19 0 0 0 2.67 12.73ZM23.18 498.91c3.87 1.1 7.92-1.14 9.03-5.01a7.298 7.298 0 0 0-5.01-9.03c-3.87-1.11-7.92 1.14-9.03 5a7.309 7.309 0 0 0 5.01 9.04Z"/><path class="b" d="M125.24 580.91c2.01-1.3 2.57-3.99 1.27-5.99-1.31-2-3.99-2.57-5.99-1.26-2 1.3-2.56 3.98-1.27 5.98 1.31 2 3.99 2.57 5.99 1.26ZM102.88 565.41c2.96.43 5.7-1.61 6.14-4.56.43-2.95-1.6-5.7-4.56-6.14a5.425 5.425 0 0 0-6.15 4.57c-.43 2.95 1.61 5.71 4.57 6.14Z"/><path class="c" d="M89.03 549.29c4.73.7 9.12-2.57 9.82-7.3.7-4.73-2.56-9.12-7.29-9.82-4.73-.7-9.13 2.57-9.83 7.29-.7 4.75 2.57 9.14 7.3 9.83Z"/><path class="d" d="M74.07 527.1c2.95.44 5.7-1.61 6.14-4.56a5.41 5.41 0 0 0-4.56-6.15c-2.95-.43-5.71 1.61-6.14 4.56a5.41 5.41 0 0 0 4.56 6.15Z"/><path class="b" d="M93.98 590.42c1.34.14 2.54-.83 2.68-2.16.14-1.34-.83-2.54-2.16-2.68-1.34-.14-2.54.83-2.68 2.17-.14 1.34.83 2.54 2.16 2.68Z"/><path class="c" d="M74.96 576.12c2.97.31 5.64-1.84 5.95-4.81.32-2.97-1.84-5.63-4.8-5.95-2.96-.31-5.63 1.84-5.94 4.81a5.403 5.403 0 0 0 4.8 5.95Z"/><path class="b" d="M35.39 517.08c2.9.73 5.83-1.04 6.56-3.94.71-2.9-1.04-5.84-3.94-6.56-2.91-.71-5.84 1.05-6.56 3.95-.72 2.9 1.04 5.84 3.94 6.56Z"/><path class="e" d="M46.27 536.15a5.41 5.41 0 0 0 6.37-4.24 5.428 5.428 0 0 0-4.24-6.37c-2.92-.6-5.77 1.3-6.37 4.23a5.41 5.41 0 0 0 4.24 6.37Z"/><path class="b" d="M66.72 73.98c4.59 4.41 11.88 4.26 16.29-.34 4.41-4.59 4.24-11.88-.35-16.29-4.59-4.4-11.88-4.24-16.28.34-4.41 4.6-4.25 11.9.35 16.29Z"/><path class="d" d="M117.85 11.82c.25 2.97 2.86 5.19 5.83 4.95 2.99-.25 5.2-2.87 4.95-5.84a5.411 5.411 0 0 0-5.83-4.95c-2.98.24-5.19 2.85-4.95 5.84ZM20.43 101.74c1.11 2.77 4.27 4.11 7.03 3a5.402 5.402 0 0 0 3.01-7.03c-1.11-2.77-4.26-4.11-7.03-3.01-2.78 1.11-4.12 4.26-3.01 7.04Z"/><path class="e" d="M45.64 58.09a5.404 5.404 0 0 0 7.56 1.16 5.422 5.422 0 0 0 1.16-7.56c-1.76-2.4-5.15-2.92-7.56-1.16-2.4 1.77-2.92 5.16-1.16 7.56Z"/><path class="d" d="M35.34 137.19a5.421 5.421 0 0 0 7.12 2.79c2.74-1.2 3.99-4.39 2.79-7.12-1.19-2.74-4.39-3.98-7.12-2.79a5.401 5.401 0 0 0-2.79 7.12Z"/><path class="c" d="M45.9 114.54a3.787 3.787 0 0 0 5.32.65 3.777 3.777 0 0 0 .65-5.31 3.775 3.775 0 0 0-5.31-.65 3.788 3.788 0 0 0-.65 5.32Z"/><path class="b" d="M14.31 234.49c1.56.54 3.25-.28 3.79-1.84a2.973 2.973 0 1 0-3.78 1.84ZM14.12 207.11a5.41 5.41 0 0 0 9.42-5.32c-1.48-2.6-4.77-3.52-7.37-2.05-2.6 1.48-3.52 4.77-2.05 7.37Z"/><path class="c" d="M19.87 187.39a5.398 5.398 0 0 0 7.36 2.05c2.6-1.47 3.52-4.77 2.06-7.36-1.47-2.6-4.77-3.52-7.36-2.06a5.405 5.405 0 0 0-2.06 7.37Z"/><path class="d" d="M19.54 166.15c3.6 6.36 11.67 8.62 18.04 5.03 6.39-3.6 8.65-11.68 5.06-18.05-3.6-6.37-11.7-8.62-18.06-5.04-6.38 3.61-8.63 11.68-5.04 18.07Z"/><path class="b" d="M8.43 305.32a3.787 3.787 0 0 0 5.34-.4 3.786 3.786 0 0 0-.39-5.34 3.798 3.798 0 0 0-5.35.4 3.787 3.787 0 0 0 .4 5.34Z"/><path class="c" d="M7.17 281.59c2.27 1.95 5.69 1.7 7.63-.56a5.413 5.413 0 0 0-.56-7.63 5.413 5.413 0 0 0-7.63.56 5.413 5.413 0 0 0 .56 7.63Z"/><path class="e" d="M4.94 143.01a2.154 2.154 0 0 0 2.9.97 2.162 2.162 0 1 0-2.9-.97Z"/><path class="b" d="M7.28 71.85c.66 2.3 3.05 3.63 5.35 2.97 2.3-.65 3.63-3.05 2.98-5.35a4.327 4.327 0 0 0-8.32 2.38Z"/><path class="c" d="M18.29 50.46c.82 2.87 3.82 4.53 6.69 3.72a5.4 5.4 0 0 0 3.72-6.68 5.414 5.414 0 0 0-6.69-3.72c-2.87.82-4.54 3.81-3.72 6.68Z"/><path class="b" d="M39.18 568.62a5.403 5.403 0 0 0 2.24-7.31 5.406 5.406 0 0 0-7.31-2.24 5.406 5.406 0 0 0-2.24 7.31 5.415 5.415 0 0 0 7.32 2.24Z"/><path class="c" d="M8.74 527.24c2.91.7 5.83-1.09 6.53-3.99.7-2.91-1.09-5.83-3.99-6.52-2.9-.7-5.83 1.09-6.53 3.99-.7 2.9 1.09 5.82 3.99 6.52Z"/><path class="e" d="M2.46 570.62a2.15 2.15 0 0 0 1.84-2.44 2.157 2.157 0 0 0-2.44-1.84 2.155 2.155 0 0 0-1.84 2.44 2.163 2.163 0 0 0 2.44 1.84ZM17.93 591.86a3.24 3.24 0 0 0 2.08-4.09c-.55-1.7-2.39-2.63-4.09-2.08-1.7.55-2.63 2.39-2.08 4.09.56 1.7 2.39 2.63 4.09 2.08ZM54.83 588.99a2.98 2.98 0 0 0 1.79-3.81 2.98 2.98 0 0 0-3.81-1.79 2.969 2.969 0 0 0-1.79 3.8 2.98 2.98 0 0 0 3.81 1.79Z"/><path class="d" d="M792.16 584.51c-.62-2.92-3.5-4.78-6.42-4.16-2.93.63-4.79 3.5-4.16 6.42.63 2.92 3.5 4.78 6.42 4.16 2.92-.63 4.78-3.5 4.16-6.42Z"/><path class="b" d="M840.22 503.18a5.401 5.401 0 0 0-7.5 1.5c-1.66 2.48-.98 5.84 1.5 7.5 2.49 1.66 5.85.98 7.5-1.5 1.66-2.49.99-5.85-1.5-7.5ZM831.03 528.26c-.85-3.21-4.14-5.11-7.35-4.27-3.2.85-5.11 4.13-4.27 7.34.86 3.21 4.15 5.12 7.35 4.27a5.999 5.999 0 0 0 4.27-7.34Z"/><path class="c" d="M818.27 549.63c-.77-2.89-3.73-4.62-6.62-3.85a5.412 5.412 0 0 0-3.85 6.61c.76 2.89 3.72 4.61 6.62 3.85 2.88-.76 4.6-3.73 3.84-6.61Z"/><path class="e" d="M833.71 576.53a5.417 5.417 0 0 0-7.62-.81 5.423 5.423 0 0 0-.81 7.61c1.87 2.32 5.28 2.68 7.62.81a5.424 5.424 0 0 0 .81-7.61Z"/><path class="b" d="M819.79 47.64a5.992 5.992 0 0 0-3.1 7.9c1.32 3.04 4.86 4.42 7.91 3.1 3.03-1.32 4.42-4.86 3.1-7.9-1.32-3.04-4.87-4.43-7.91-3.1ZM836.38 74.8c-1.42-.46-2.94.32-3.41 1.74-.46 1.42.32 2.94 1.74 3.41a2.71 2.71 0 0 0 3.41-1.74 2.71 2.71 0 0 0-1.74-3.41Z"/><path class="c" d="M828.22 6.14a2.166 2.166 0 0 0 1.02 4.21 2.154 2.154 0 0 0 1.59-2.61 2.161 2.161 0 0 0-2.61-1.59Z"/><path class="e" d="M806.59 26.02a5.4 5.4 0 0 0-3.77 6.65 5.4 5.4 0 0 0 6.65 3.77c2.88-.78 4.57-3.77 3.78-6.65a5.425 5.425 0 0 0-6.66-3.78Z"/><path class="c" d="M789.54 2.57c-4.18 1.15-6.62 5.46-5.48 9.65 1.14 4.18 5.47 6.62 9.64 5.47 4.18-1.14 6.63-5.46 5.49-9.63-1.15-4.18-5.47-6.64-9.65-5.48Z"/><path class="e" d="M427.86 249.41a2.65 2.65 0 0 0 .57 3.7c1.18.86 2.83.61 3.7-.56a2.65 2.65 0 0 0-.56-3.7 2.658 2.658 0 0 0-3.7.56Z"/><path class="c" d="M444.27 262.66a5.11 5.11 0 0 0 1.09 7.14 5.121 5.121 0 0 0 7.15-1.09 5.102 5.102 0 0 0-1.09-7.14c-2.27-1.67-5.47-1.18-7.15 1.09Z"/><path class="b" d="M437.65 255.55c-.96 1.31-.68 3.14.63 4.1a2.94 2.94 0 1 0-.63-4.11Z"/><path class="d" d="M452.4 275.09a2.94 2.94 0 1 0 4.739 3.48 2.94 2.94 0 0 0-4.739-3.48Z"/><path class="e" d="M455.57 286.9c-.96 1.31-.68 3.15.62 4.11 1.31.96 3.15.68 4.11-.63.96-1.31.68-3.15-.62-4.11a2.94 2.94 0 0 0-4.11.63Z"/><path class="b" d="M393.79 248.11c-.77 1.04-.54 2.52.5 3.28 1.05.77 2.52.54 3.29-.5.77-1.05.54-2.52-.5-3.29a2.359 2.359 0 0 0-3.29.5ZM451.9 311.27a2.941 2.941 0 0 0 4.74 3.48c.96-1.3.68-3.14-.63-4.1a2.94 2.94 0 0 0-4.11.63Z"/><path class="c" d="M404.71 245.23a2.94 2.94 0 1 0 4.74 3.48c.96-1.31.68-3.15-.63-4.1a2.926 2.926 0 0 0-4.1.63Z"/><path class="d" d="M455.87 300.54c-.69.95-.49 2.28.46 2.97.95.7 2.28.49 2.98-.45.69-.95.49-2.28-.46-2.98-.95-.7-2.28-.49-2.98.46ZM413.61 243.83a6.388 6.388 0 1 0 10.29 7.569 6.388 6.388 0 0 0-10.29-7.569Z"/><path class="c" d="M366 274.06a3.813 3.813 0 0 0 5.39-.28 3.813 3.813 0 0 0-.28-5.39 3.813 3.813 0 0 0-5.39.28 3.813 3.813 0 0 0 .28 5.39Z"/><path class="e" d="M382.18 257.55a4.267 4.267 0 0 0 6.02-.31 4.258 4.258 0 0 0-.31-6.02c-1.75-1.57-4.44-1.44-6.01.31a4.267 4.267 0 0 0 .31 6.02ZM373.68 264.28a3.227 3.227 0 0 0 4.56-.24 3.219 3.219 0 0 0-.24-4.56 3.228 3.228 0 0 0-4.56.24 3.219 3.219 0 0 0 .24 4.56Z"/><path class="b" d="M361.08 279.82c-1.39 1.9-.99 4.56.91 5.96 1.9 1.39 4.56.98 5.96-.91a4.26 4.26 0 0 0-.91-5.95 4.252 4.252 0 0 0-5.95.91Z"/><path class="d" d="M361.63 293.11c-.56.76-.39 1.82.36 2.38.76.56 1.83.39 2.38-.36.56-.76.39-1.82-.36-2.38-.76-.56-1.82-.39-2.38.37Z"/><path class="b" d="M388.83 337.05c1.6-2.6.78-6.01-1.83-7.61a5.526 5.526 0 0 0-7.61 1.83c-1.6 2.6-.78 6.02 1.83 7.62a5.54 5.54 0 0 0 7.62-1.83Z"/><path class="c" d="M370.22 318.09c.64-1.04.31-2.39-.73-3.03a2.208 2.208 0 0 0-3.03.73c-.64 1.04-.31 2.39.73 3.03 1.04.63 2.39.31 3.03-.73Z"/><path class="b" d="M366.75 307.52a2.94 2.94 0 0 0-.97-4.04 2.95 2.95 0 0 0-4.04.97 2.94 2.94 0 0 0 .97 4.04c1.38.85 3.19.41 4.04-.97Z"/><path class="c" d="M451.28 319.47a5.96 5.96 0 0 0-8.35 1.14c-2 2.62-1.49 6.37 1.14 8.36a5.974 5.974 0 0 0 8.36-1.14 5.965 5.965 0 0 0-1.15-8.36Z"/><path class="e" d="M426.74 229.22a3.259 3.259 0 0 0 .7 4.55c1.45 1.06 3.49.75 4.55-.7 1.06-1.45.75-3.48-.7-4.55a3.248 3.248 0 0 0-4.55.69Z"/><path class="b" d="M438.36 233.37a5.79 5.79 0 0 0 1.24 8.1 5.79 5.79 0 0 0 8.1-1.24 5.798 5.798 0 0 0-1.24-8.1c-2.58-1.89-6.21-1.34-8.1 1.24ZM386.81 228.8a4.897 4.897 0 0 0 1.04 6.83c2.17 1.59 5.23 1.13 6.82-1.04a4.888 4.888 0 0 0-1.04-6.83 4.897 4.897 0 0 0-6.83 1.04Z"/><path class="e" d="M400.75 226.96a3.248 3.248 0 0 0 .7 4.55c1.45 1.06 3.48.75 4.55-.7 1.06-1.45.75-3.49-.69-4.55a3.247 3.247 0 0 0-4.55.69Z"/><path class="c" d="M415.6 227.28c-.43.58-.3 1.39.28 1.82.58.43 1.39.3 1.82-.28.43-.58.3-1.39-.28-1.82-.58-.43-1.39-.3-1.82.28Z"/><path class="e" d="M376.76 239.53a3.258 3.258 0 1 0 4.36-4.842 3.258 3.258 0 0 0-4.36 4.842ZM477.75 287.71c-2.23-.69-4.6.57-5.29 2.8-.68 2.23.57 4.6 2.81 5.29 2.24.69 4.6-.57 5.29-2.8.68-2.23-.57-4.6-2.81-5.29Z"/><path class="b" d="M476.63 303.41c-1.72-.53-3.54.44-4.06 2.16a3.258 3.258 0 1 0 6.23 1.91c.53-1.72-.44-3.54-2.16-4.07ZM464.22 252.37c-1.72-.53-3.54.44-4.06 2.16a3.258 3.258 0 1 0 4.07-2.16Z"/><path class="c" d="M471.69 261.19c-2.92-.9-6.01.75-6.91 3.67-.9 2.92.74 6.02 3.66 6.91 2.92.9 6.02-.75 6.91-3.67a5.52 5.52 0 0 0-3.67-6.91Z"/><path class="d" d="M475.92 276.56c-1.2-.37-2.48.31-2.85 1.51-.37 1.2.31 2.48 1.51 2.85 1.2.37 2.48-.31 2.84-1.51.37-1.2-.31-2.48-1.51-2.85Z"/><path class="e" d="M450.06 244.36c-.97 2.32.12 4.99 2.44 5.97a4.554 4.554 0 0 0 3.52-8.4c-2.32-.97-4.99.12-5.97 2.43ZM441.02 356.42a3.253 3.253 0 0 0-3.44-3.05 3.256 3.256 0 1 0 3.45 3.05Z"/><path class="b" d="M426.25 360.86a2.6 2.6 0 0 0-2.76-2.44 2.59 2.59 0 0 0-2.44 2.75 2.606 2.606 0 0 0 2.76 2.44c1.43-.09 2.53-1.32 2.44-2.75ZM470.35 331.3a3.256 3.256 0 1 0-6.5.4 3.256 3.256 0 0 0 6.5-.4Z"/><path class="c" d="M464.06 341.43a4.887 4.887 0 0 0-5.17-4.58 4.887 4.887 0 0 0-4.58 5.17 4.887 4.887 0 0 0 5.17 4.58 4.881 4.881 0 0 0 4.58-5.17Z"/><path class="e" d="M472.87 315.73a4.056 4.056 0 0 0-4.21 3.89 4.049 4.049 0 0 0 3.89 4.21c2.24.09 4.12-1.65 4.21-3.89a4.049 4.049 0 0 0-3.89-4.21ZM364.26 343.8a3.895 3.895 0 0 0 2.09-5.11 3.904 3.904 0 0 0-5.11-2.09 3.908 3.908 0 0 0-2.1 5.11 3.895 3.895 0 0 0 5.11 2.09Z"/><path class="b" d="M355.2 331.32c1.66-.69 2.44-2.6 1.75-4.26-.7-1.66-2.6-2.44-4.26-1.75-1.65.69-2.44 2.6-1.75 4.26.7 1.66 2.6 2.44 4.26 1.75Z"/><path class="d" d="M372.56 350.6c.66-.28.98-1.04.7-1.71-.28-.66-1.04-.98-1.7-.7a1.31 1.31 0 0 0-.7 1.7c.28.66 1.04.98 1.7.7Z"/><path class="e" d="M342.93 294.08c2.06.87 4.44-.09 5.32-2.15.87-2.06-.09-4.45-2.15-5.32-2.06-.87-4.44.09-5.31 2.15-.88 2.07.08 4.44 2.15 5.32Z"/><path class="b" d="M345.6 278.74a3.254 3.254 0 1 0 2.54-5.99c-1.65-.7-3.56.07-4.27 1.72-.7 1.66.07 3.57 1.73 4.27Z"/><path class="c" d="M346.29 320.95c2.65 1.12 5.7-.11 6.82-2.76 1.13-2.65-.11-5.7-2.76-6.83a5.217 5.217 0 0 0-6.83 2.76c-1.12 2.65.11 5.71 2.76 6.83Z"/><path class="d" d="M343.17 306.42c1.65.7 3.56-.07 4.27-1.72.7-1.66-.07-3.57-1.73-4.27-1.65-.7-3.56.07-4.27 1.72-.7 1.66.07 3.57 1.73 4.27Z"/><path class="b" d="M357.54 251.55a2.859 2.859 0 0 0 2.66 3.03 2.852 2.852 0 0 0 .37-5.69 2.859 2.859 0 0 0-3.03 2.66Z"/><path class="c" d="M366.27 242.37a3.256 3.256 0 0 0 3.04 3.46c1.79.12 3.34-1.24 3.46-3.03a3.255 3.255 0 0 0-3.03-3.46 3.25 3.25 0 0 0-3.46 3.04Z"/><path class="e" d="M352.76 266.23c1.97.33 3.83-1 4.16-2.97.33-1.97-1-3.83-2.97-4.16-1.97-.33-3.83 1-4.16 2.97-.33 1.97 1 3.83 2.97 4.16Z"/></svg>