<svg xmlns="http://www.w3.org/2000/svg" width="668.238" height="669.512"><path d="M215.987 429.427c-.893-9.355 4.213-14.068 10.712-17.853 1.821-1.107 1.821-2.285 0-3.571a15.818 15.818 0 0 1-8.891-11.926c0-.643-.821-1.214-1.25-1.785-.714.571-1.75 1.035-2.107 1.785a17.5 17.5 0 0 1-19.32 11.712c-13.175-1.714-20.174-15.818-15.1-25.815a17.067 17.067 0 0 1 10.069-9.89c4-1.178.643-2.285 0-2.785-1.821-1.607-4-2.785-5.856-4.356-10.712-9.1-7.141-26.351 6.463-31.528a16.353 16.353 0 0 1 18.5 3.571c2.821 2.964 6.213 5.534 6.927 10 0 .393.607.714.928 1.071a4.678 4.678 0 0 0 .714-1.392c1-7.355 5.856-11.283 12.211-13.925a13.313 13.313 0 0 0 1.428-.714c-.357-.321-.678-.821-1.107-.964a18.817 18.817 0 0 1-11.857-10.43c-.321-.678-1.071-2.678-2.535 0a24.78 24.78 0 0 1-7.141 8.105 19.567 19.567 0 0 1-16.032 1.821c-4.392-.964-7.355-4.963-10.1-8.391a15.46 15.46 0 0 1-2.642-9.212c-.536-9.1 4.249-14.282 11.6-18.21a17.5 17.5 0 0 1 19.138 2.642 18.067 18.067 0 0 1 6.07 7.748c2.035-2.5 3.856-5.106 6.106-7.391a83.3 83.3 0 0 1 6.713-5.5 63.058 63.058 0 0 1-6.5-4.892 10.712 10.712 0 0 1-3.571-7.927 2.142 2.142 0 0 0-1.464-1.464c-.607 0-1.714.571-1.821 1.107a16.139 16.139 0 0 1-10.033 10.712c-8.534 3.928-17.389.357-22.816-7.677-4.963-7.355-3.571-13.889.321-20.352a19.067 19.067 0 0 1 22.459-6.5 25.173 25.173 0 0 1 11.6 13.6l1 1.892a5.783 5.783 0 0 0 .678-1.428 16.032 16.032 0 0 1 13.961-13.889 5.855 5.855 0 0 0 1.393-.75c-.357-.321-.678-.786-1.143-.928a21.423 21.423 0 0 1-13-11.676 19.245 19.245 0 0 1 2.5-18.567c4-4.356 8.105-8 14.889-7.605a19.781 19.781 0 0 1 19 14.925c.214.75.5 1.5.75 2.249a9.176 9.176 0 0 0 .928-2 16.71 16.71 0 0 1 13.6-13.211 8.211 8.211 0 0 0 1.5-.5c-.393-.607-.643-1.393-1.214-1.785a20.708 20.708 0 0 0-4.106-2.428 15.71 15.71 0 0 1-9.6-16.389 17.853 17.853 0 0 1 9.712-15.639 17.281 17.281 0 0 1 20.354 1.326 16.782 16.782 0 0 1 7.141 17.317 16.46 16.46 0 0 1-8.5 13 61.522 61.522 0 0 0-5.57 3.142 5.714 5.714 0 0 0-1.071 1.178 4.213 4.213 0 0 0 1.392.786 14.961 14.961 0 0 1 12.318 9.391 1.75 1.75 0 0 0 3.285 0 14.889 14.889 0 0 1 12.64-9.391c.5 0 .928-.536 1.392-.821a13 13 0 0 0-1.214-1.214c-3-2.428-6.177-4.677-8.926-7.141-5.213-5-4.606-16.5-1.035-21.423a19.817 19.817 0 0 1 21.426-8.424 19.21 19.21 0 0 1 12.211 10.319 13.1 13.1 0 0 0 1.357 2c.714.821 1.035 1.785 2.178 0a35.313 35.313 0 0 1 7.141-8.248c4.677-3.856 10.712-2.964 16.032-2.285s12.211 10.712 12.961 16.639c1.143 8.784-3.571 14.5-9.783 18.924-1.964 1.393-2.714 1.5-.678 2.642 5.534 3.071 9.89 6.82 10.39 13.6 0 .357.643.643 1 .964.214-.5.428-.964.678-1.428a25 25 0 0 1 3.035-5.606c2.892-3.249 5.856-6.713 10.962-6.534.428 0 .893-.5 1.357-.786a5.787 5.787 0 0 0-1.107-1.178 29.922 29.922 0 0 0-4.142-2.428 16.46 16.46 0 0 1-9.962-17.1 18.781 18.781 0 0 1 26.318-16.213 17.853 17.853 0 0 1 11.069 17.424c-.286 6.534-2.5 12.783-9.6 15.568a20.281 20.281 0 0 0-4.142 2.428 6.46 6.46 0 0 0-1.178 1.785 8.212 8.212 0 0 0 1.5.5 15.853 15.853 0 0 1 11.926 8.926c1.571 2.821 1.643 2.714 3.856 0 1.107-1.321 2.535-2.357 3.571-3.571 5.142-6.427 12.318-6.07 19.138-5.034 5.891.893 12.283 10.712 12.854 16.639 1 10.712-5.177 16.21-13.282 20.745a15.108 15.108 0 0 1-2.214.893 18.532 18.532 0 0 0 2.214.821 16.246 16.246 0 0 1 13.211 13.747 12.694 12.694 0 0 0 .607 1.464c.429-.25.964-.393 1.214-.75.857-1.357 1.714-2.714 2.428-4.142a16.782 16.782 0 0 1 17.853-10.1 18.353 18.353 0 0 1 14.282 9.1 17.853 17.853 0 0 1-.464 20.424c-3.142 5.284-13.925 10.962-22.387 6.391a17.853 17.853 0 0 1-10.1-10.712c-.357-1.143-1.75-1.964-2.642-2.892a21.889 21.889 0 0 1-.75 3.106 17.389 17.389 0 0 1-8.641 10.39c-2.357 1.071-2.357 2.642-.464 3.356 4.82 1.892 6.82 6 9.141 10.033.357.643.607 1.321.928 2a6.068 6.068 0 0 1 .821-2.214 47.489 47.489 0 0 1 7.748-7.855 18.888 18.888 0 0 1 14.568-1.607 21.674 21.674 0 0 1 13.318 15.282 19.709 19.709 0 0 1-10.712 19.852c-2.178 1.25-2.071 2.107-.321 3.571a57.127 57.127 0 0 1 8.212 7.141 18.817 18.817 0 0 1-.928 21.423c-4.106 4.213-8.069 7.82-14.854 7.784a18.353 18.353 0 0 1-17.6-11.247c-.607-1.178-1.143-2.357-1.75-3.571 0-.25-.5-.643-.607-.571s-1 .5-1.035.786c-.714 7.891-5.784 11.89-12.6 14.282-.393 0-.678.678-1 1a12.93 12.93 0 0 0 1.428.678 20.638 20.638 0 0 1 11.747 10.712c.393.75 1 1.964 2.178 0a43.3 43.3 0 0 1 6.284-7.57c4.856-4.606 15.246-4.427 20.138-1.25a20.138 20.138 0 0 1 9.391 21.709 21.923 21.923 0 0 1-16.317 14.282 19.245 19.245 0 0 1-19.388-10.248c-1.964-3.57-2.642-.571-2.892 0a16.96 16.96 0 0 1-8.784 9.069c-1.571.643-2.571 2-.357 3.571 1.607 1.143 2.785 2.892 4.285 4.178 5.641 4.856 5.641 14.889 2.607 20.6a18.781 18.781 0 0 1-25.279 8.534 42.274 42.274 0 0 1-8.248-6.963c-2.249-2.285-3.106-2.642-4.106-.464a15.032 15.032 0 0 1-12.425 9.319 2.035 2.035 0 0 0-1.214 1.678c0 .571.857 1.607 1.285 1.607 5.534 0 7.141 5.284 10.712 7.712 0 5.034 2.749 9.426.786 15.139-4.285 12.318-15.853 15.461-27.208 11.5-2.607-3.571-7.748-5.034-7.891-10.426a2.142 2.142 0 0 0-1.428-1.5c-.607 0-1.75.571-1.857 1.071-.786 3.571-4.106 5.249-6.391 7.605-4.5 4.677-16.782 4.606-22.066-.214a19.46 19.46 0 0 1-8.069-17.246 13.39 13.39 0 0 1 3.571-8.891 27.387 27.387 0 0 1 6.891-6.177c2.535-1.143 1.357-1.928.286-2.464a22.459 22.459 0 0 1-10.212-10.212c-.464-.928-1.035-1.785-2.107 0a23.388 23.388 0 0 1-5.82 7.141 31.384 31.384 0 0 1-7.5 3.178c2.178 1.607 4.32 3.249 6.57 4.82 6.927 4.856 7.927 12 6.713 19.424a21.1 21.1 0 0 1-15.532 14.282 20.459 20.459 0 0 1-18.424-7.5 19.46 19.46 0 0 1-1.845-20.061 20 20 0 0 1 13.211-10.283 11.708 11.708 0 0 0 2.071-.893 4.213 4.213 0 0 0-1.393-.786c-7.355-.893-11.319-5.784-13.961-12.1-.214-.5-.464-.964-.678-1.464-.357.321-.893.571-1 .964a18.388 18.388 0 0 1-12.64 12.64c-2.035.678-.286 1.928.321 2.142a16.353 16.353 0 0 1 8.819 9.1c4.285 8.426.286 18.1-7.927 23.53-7.5 4.927-14.282 3.178-20.352-.928a17.1 17.1 0 0 1-7.57-16.389 17.567 17.567 0 0 1 11.1-15.639c2.357-.857 3.178-1.178.893-2.535-5.392-3.142-10-6.713-10.426-13.568 0-.393-.643-.714-.964-1.071-.393.428-.857.786-1.178 1.214a155.164 155.164 0 0 0-3.571 5.356c-4.82 6.784-11.783 7.962-19.352 7.141-5.034-.678-8.069-4.642-11.14-8.141a10.248 10.248 0 0 1-3.207-10.211Zm.821-74.518c-.286.393-.786.786-.857 1.25a17.853 17.853 0 0 1-7.141 9.855 73.208 73.208 0 0 1-6.5 4.856 53.56 53.56 0 0 1 7.141 4.285 16.175 16.175 0 0 1 3.071 4.642c1.178 2.071 2.249 4.213 3.356 6.284.25.464.571.893.857 1.321.286-.428.786-.857.821-1.357.75-7.427 5.784-11.176 11.926-14.068a9.32 9.32 0 0 0 1.535-1.107l-1.464-.571c-6.177-2.821-11.212-6.57-12-14.032.006-.465-.459-.894-.744-1.358Zm54.2-21.423-2.035-.928c-6.141-2.856-11.211-6.606-11.961-14.068 0-.5-.536-.928-.821-1.357a6.675 6.675 0 0 0-.857 1.357 19.459 19.459 0 0 1-11.925 12.358l-1.5.536a8.783 8.783 0 0 0 1.5 1.143c6.141 2.856 11.212 6.605 11.961 14.1 0 .464.536.893.821 1.357a6.9 6.9 0 0 0 .821-1.357 19.567 19.567 0 0 1 11.961-12.354Zm62.485 24.994c-.357.321-.893.571-1 .964a18.1 18.1 0 0 1-12.6 12.568c-.393 0-.678.678-1 1 .5.25.964.5 1.428.678a19.567 19.567 0 0 1 12.14 12.176 10.719 10.719 0 0 0 .714 1.428c.321-.357.857-.643.964-1.035a18.174 18.174 0 0 1 12.6-12.568c.393 0 .643-.643.964-1-.464-.214-.928-.5-1.392-.678a19.5 19.5 0 0 1-12.14-12.176 12.009 12.009 0 0 0-.678-1.357Zm15.889-101.939c-.25-.357-.464-.964-.786-1.035a18.21 18.21 0 0 1-12.745-12.458 4.855 4.855 0 0 0-.857-1.25 7.636 7.636 0 0 0-.821 1.357 20.1 20.1 0 0 1-13.461 12.89c5.749 3.285 11.64 6.391 13.5 13.532 0 .464.571.857.857 1.25a6.536 6.536 0 0 0 .821-1.357 19.281 19.281 0 0 1 12-12.318Zm37.812 195.274c-.357-.321-.714-.928-1.107-.928-7.57-.536-11.14-5.891-14.282-11.819-.321-.607-.678-1.178-1.035-1.75a9.712 9.712 0 0 1-.714 2.249 31.064 31.064 0 0 1-7.141 9c-2.928 2.357-2.928 3.571-.25 6.034a24.5 24.5 0 0 1 6.748 8.284c0 .536 2.214.857 2.214.821 2.5-6.5 8-9.176 14.068-11.176a7.64 7.64 0 0 0 1.5-.714Zm63.628-127.967c-.536.357-1.535.607-1.785 1.178a14.711 14.711 0 0 1-12.39 9.283c-.464 0-.893.571-1.357.857.464.286.857.75 1.357.821a13.425 13.425 0 0 1 8.641 5.891 68.8 68.8 0 0 1 4.927 9.212 19.745 19.745 0 0 1 6.034-9.462c1.964-1.464 4.07-2.714 5.891-4.356a3.107 3.107 0 0 0-.179-2.714 17 17 0 0 1-9.569-9.569c-.179-.5-.857-.678-1.571-1.143Zm-103.117-106.8c-.286-.321-.536-.821-.928-1a22.28 22.28 0 0 1-10.14-10.283c-.893-1.571-1.178-2-2.749.464-3.035 4.677-7.141 9.355-13.532 9.819a4.035 4.035 0 0 0-1.428.678 10.888 10.888 0 0 0 1.785 1c1 .357 2.107.428 3.071.786a20.138 20.138 0 0 1 10.39 10.89l.964 1.928a13.427 13.427 0 0 1 .75-2.214c2.5-4.249 4.892-8.534 10-10.283.71-.248 1.21-.962 1.817-1.785Zm-51.844 91.337c.214-.536.393-1.035.607-1.5a17.424 17.424 0 0 1 9.533-10.712c1.393-.536 1.285-2.357-.464-3.142a15.1 15.1 0 0 1-9.176-11.569 6.569 6.569 0 0 0-.964-1.857 10.714 10.714 0 0 0-.714 1.428 19.388 19.388 0 0 1-12.211 12.14 10.464 10.464 0 0 0-1.393.75c.357.321.678.786 1.107.928a18.138 18.138 0 0 1 12.533 12.711c.178.359.749.537 1.142.823Zm89.978 103.8a11.677 11.677 0 0 1-2.321-.786 19 19 0 0 1-10.033-9.069c-.786-1.964-2.214-1.928-3.392.357a15.1 15.1 0 0 1-12 8.748 5.675 5.675 0 0 0-1.428.643c.286.357.5.928.857 1.035a18.067 18.067 0 0 1 12.675 12.568c0 .393.643.678.964 1a12.852 12.852 0 0 0 .714-1.392 19.531 19.531 0 0 1 12.211-12.176 12.57 12.57 0 0 0 1.752-.932Zm-13.283-102.051c.357-.321.893-.536 1-.928a18.067 18.067 0 0 1 12.6-12.783c.393 0 .643-.643 1-1l-1.425-.675c-4.5-2.071-8.855-4.142-10.712-9.462-.464-1.393-2.464-1.393-3.214.25a14.818 14.818 0 0 1-12.461 9.248c-.428 0-.821.571-1.25.857a6.033 6.033 0 0 0 1.392.786 19.352 19.352 0 0 1 12.283 12.1c.287.608.537 1.108.787 1.607Zm-67.376 101.4c-.357-.536-.607-1.535-1.178-1.785a14.818 14.818 0 0 1-9.283-12.39c0-.5-.536-.928-.821-1.357a6.675 6.675 0 0 0-.857 1.357 20.209 20.209 0 0 1-13.461 12.961c5.749 3.285 11.676 6.356 13.5 13.568 0 .428.607.75.928 1.143.25-.464.536-.928.75-1.393 2.071-4.463 3.963-9.069 9.426-10.712.353.04.567-.709.996-1.388Zm-9.712-92.549a13.777 13.777 0 0 0-.714 1.464 21.424 21.424 0 0 1-11.354 12.1 16.791 16.791 0 0 1-2.249.786c.643.321 1.321.607 1.964.964a19.067 19.067 0 0 1 10.033 9.1c.786 1.928 2.214 1.892 3.356-.393a15.282 15.282 0 0 1 12.033-8.748 5.677 5.677 0 0 0 1.428-.643c-.286-.357-.5-.893-.857-1.035a17.853 17.853 0 0 1-12.747-12.568c-.001-.38-.536-.701-.893-1.023Zm131.074 15.963a13.036 13.036 0 0 0-1.464-.643 21.423 21.423 0 0 1-12.068-11.457 20.236 20.236 0 0 1-.821-2.214 18.058 18.058 0 0 1-.893 2.071 37.88 37.88 0 0 1-2.749 4.856 22.423 22.423 0 0 1-10.712 7.141c3.571 2.5 8 4.106 10.712 7.891.607.821.571 2.249 1.321 2.821s2.571.464 2.714 0a15.175 15.175 0 0 1 13.068-9.748c.321.282.607-.359.892-.718Zm-3.178-38.99c-.5-.321-1.107-.75-1.714-1.071a16.532 16.532 0 0 1-8.641-11.283 7.712 7.712 0 0 0-.714-2.285c-.321.607-.714 1.214-1 1.857a21.423 21.423 0 0 1-11.783 11.711 12.142 12.142 0 0 0-1.714 1.035l1.428.678a19.317 19.317 0 0 1 12.07 12.248 10.717 10.717 0 0 0 .786 1.393 5 5 0 0 0 .893-1.25 17.282 17.282 0 0 1 9.89-11.212c.286-.07.286-.963.5-1.82Zm-50.38 53.558.607-1.5a21.1 21.1 0 0 1 11.5-12 23.646 23.646 0 0 1 2.214-.857c-.75-.286-1.5-.536-2.214-.893a32.773 32.773 0 0 1-3.571-1.714c-4.463-2.749-6.32-7.57-9.141-11.6a18.317 18.317 0 0 1-9.426 11.64c-.25 0-.714 0-.714.25 0 .964-.357 2.642 0 2.821a14.889 14.889 0 0 1 9.676 13.033c.034.322.677.536 1.069.822Zm-118.613 77.232c.321-.393.928-.75.928-1.107a12.5 12.5 0 0 1 3.249-8.105c2.678-3.571 6.927-4.713 10.247-7.141a22.923 22.923 0 0 1-10.712-7.32c-.607-.786-.571-2.214-1.285-2.785s-2.642-.536-2.749-.25a17.139 17.139 0 0 1-11.247 9.712c-1.785.643-.786 1 .393 1.75 5.177 3.249 9.783 7.141 10.5 13.854-.003.464.426.929.676 1.392Zm174.1-168.78-1.928-.821a22.994 22.994 0 0 1-11.818-10.712c-.893-2.071-1.75-.607-2.107 0a22.03 22.03 0 0 1-10.212 10.176c-.607.321-2.285 1.285-.286 2.178a14.818 14.818 0 0 1 9.248 12.64c0 .286.928.428 1.428.643 2.571-7.141 6.57-12.426 14.782-13.1a10.984 10.984 0 0 0 .893-1.003Zm-159.425-3.356a11.1 11.1 0 0 1-1.25-1.035 39.276 39.276 0 0 1-7.141-5.713 31.029 31.029 0 0 1-3.142-7.57c-1.821 2.357-3.571 4.892-5.5 7.141a15.389 15.389 0 0 1-9.212 6.356c-.393 0-.75.571-1.107.893a5.854 5.854 0 0 0 1.393.75 14.961 14.961 0 0 1 12.318 9.391c0 .5 2.642.678 2.678.536a18.959 18.959 0 0 1 9.712-9.569 7.569 7.569 0 0 0 1.251-1.18Zm141.572 143.287c-.214 0-.536 0-.607.214a12.909 12.909 0 0 1-.464 1.5c-2.142 4.142-4.178 8.319-9 10.14a29.885 29.885 0 0 0-4.57 2.678c1.678.786 3.321 1.642 5 2.392a20.173 20.173 0 0 1 8.141 8.962c.428.714 1.214 2.178 2.178 0a19.1 19.1 0 0 1 9.069-9.141c1.928-1 1.892-2.249-.357-3.571a15.211 15.211 0 0 1-8.784-12 5.106 5.106 0 0 0-.606-1.174Zm14.282-23.494a35.316 35.316 0 0 0-5-2.357c-4.392-1.464-5.213-6.57-9-8.605-2.571 3.571-4.856 7.712-9.6 9.212-.214 0-.428.357-.607.571s-2.178 1.285 0 2.214a14.675 14.675 0 0 1 9.176 12.318c0 .5.536.928.821 1.357a5.107 5.107 0 0 0 .821-1.321 18.353 18.353 0 0 1 12.675-12.39 6.15 6.15 0 0 1 .714-1Zm-77.017 37.883a9.217 9.217 0 0 0-1.321-.857 18.281 18.281 0 0 1-12.426-12.64c0-.357-.678-.607-1.035-.893l-.643 1.428a28.912 28.912 0 0 0-1.678 3.57c-1.428 4.428-6.57 5.249-8.605 9 3.571 2.571 7.712 4.892 9.212 9.6 0 .25.357.428.607.607s1.285 2.178 2.178 0a14.675 14.675 0 0 1 12.354-9.141c.465.076.893-.388 1.357-.674Zm26.529-170.494c-.286.464-.571.893-.821 1.357-1.143 2.071-2.142 4.213-3.392 6.248-2.357 3.571-6.784 4.642-10.069 7.141a22.351 22.351 0 0 1 10.712 7.141c.643.821.607 2.214 1.285 2.821a4.178 4.178 0 0 0 2.714.464 18.888 18.888 0 0 1 9.6-9.5c.714-.428 2.071-1.178 0-2.107a14.461 14.461 0 0 1-9.176-12.5c-.034-.279-.567-.672-.852-1.065Zm-77.766 3.571c-.5 0-1.357 0-1.428.464a18.459 18.459 0 0 1-9.569 9.319c-.893.5-1.964 1.25 0 2.071a15.6 15.6 0 0 1 8.962 10.712c.286.928.643 1.857.964 2.749.393-.964.75-1.928 1.214-2.892a15.246 15.246 0 0 1 1.821-3.571 23.494 23.494 0 0 1 11.14-7.82c-3.928-2.535-8.427-4.356-11.212-8.391-.428-.607-.321-1.571-.678-2.249s-.714-.357-1.214-.571Zm38.169 35.991c-.214.25-.536.393-.607.643a16.853 16.853 0 0 1-10.069 11.849c-.214 0 0 2.035 0 2.142a18.674 18.674 0 0 1 9.5 9.569c.393.678 1.178 2.107 2.107 0a14.568 14.568 0 0 1 12.533-9.141c.464 0 .857-.571 1.285-.857a6.536 6.536 0 0 0-1.357-.821 18.281 18.281 0 0 1-12.354-12.6 6.511 6.511 0 0 0-1.038-.784Zm-63.841 12.6c-.893-.321-1.607-.536-2.214-.821a23.316 23.316 0 0 1-10-8.105c-1.714-2.428-1.678-2.392-3.571 0a15.923 15.923 0 0 1-2.714 3.071c-1.678 1.321-3.571 2.285-5.177 3.571-.428.393-5.106 1.892 0 3.178a10 10 0 0 1 4.785 4.57 70.16 70.16 0 0 1 4.249 8.712 29.458 29.458 0 0 1 5.32-8.891 28.245 28.245 0 0 1 7.462-4.535Zm73.482 40.24v-.786a21.673 21.673 0 0 1-10.1-10.1c-.857-1.357-1.535-1-1.892.607a7.677 7.677 0 0 1-1.678 2.678 18.281 18.281 0 0 1-11.711 6.57c3.963 2.535 8.5 4.32 11.247 8.391a33.6 33.6 0 0 1 2.214 5.035c.214.464.536.893.786 1.357a4.107 4.107 0 0 0 .893-1.214 16.639 16.639 0 0 1 9.712-11.033c.279-.001.35-1.001.529-1.501Zm-76.981 36.812a8.462 8.462 0 0 1-2.214-.75 17.532 17.532 0 0 1-8.177-11.569 9.392 9.392 0 0 0-.857-2.071 14.961 14.961 0 0 1-.857 2.214c-1.035 1.821-2.178 3.571-3.321 5.392-2.428 3.571-6.82 4.642-10.1 7.141a22.351 22.351 0 0 1 10.712 7.141c.643.821.643 2.071 1.25 2.857s2.714 1.428 3.285-.214a14.782 14.782 0 0 1 8.462-8.248 19.47 19.47 0 0 0 1.817-1.889Zm116.543 1.714a7.643 7.643 0 0 1-2.214-.75 17.5 17.5 0 0 1-8.248-11.569 7.14 7.14 0 0 0-.893-2.071 11.746 11.746 0 0 1-.821 2.214 59.275 59.275 0 0 1-3.356 5.392 20.6 20.6 0 0 1-10 6.57c3.249 2.464 7.57 3.571 9.926 7.141.714 1.071 1.035 2.428 1.857 3.571s2.678 1.428 3.249-.214a15 15 0 0 1 8.462-8.248 12.745 12.745 0 0 0 2.037-2.032Zm-75.767 0c-.214-.25-.393-.536-.643-.607a17.1 17.1 0 0 1-11.855-10.067 3.178 3.178 0 0 0-2.142 0 18.6 18.6 0 0 1-9.533 9.5c-.714.429-2.142 1.214 0 2.142a14.639 14.639 0 0 1 9.141 12.39c0 .464.536.857.857 1.285a10.715 10.715 0 0 0 .821-1.357 18.246 18.246 0 0 1 12.675-12.354c.214-.071.428-.643.678-1Z"/><path d="M240.161 214.3c-10.926 0-17.389-6.356-17.389-17.139s6.427-17.178 17.317-17.138a15.71 15.71 0 0 1 17 16.71c-.007 10.998-6.324 17.567-16.928 17.567ZM450.716 200.375c0 10.712-6.356 17.389-17.1 17.389s-17.21-6.427-17.174-17.317a15.746 15.746 0 0 1 16.674-16.96c11.03-.037 17.564 6.247 17.6 16.888ZM488.42 240.151c0 11.033-6.891 17.1-18.21 17.032-9.855 0-16.1-7.141-16.067-17.6s6.641-16.567 17.853-16.782a15.746 15.746 0 0 1 11.747 4.677 14.282 14.282 0 0 1 4.677 12.676ZM428.793 488.554c-10.962 0-17.5-6.32-17.5-17s6.32-17.281 17.21-17.281 17.031 6.391 17.067 16.532c.037 11.287-6.208 17.714-16.777 17.749ZM234.586 450.85c10.712 0 17.317 6.32 17.317 17.139s-6.463 17.139-17.389 17.139a15.782 15.782 0 0 1-16.71-16.746c-.21-10.998 6.11-17.532 16.782-17.532ZM311.749 490.268c10.712 0 17.281 6.32 17.281 17.174s-6.5 17.1-17.424 17.1a15.782 15.782 0 0 1-16.853-16.782c-.035-10.958 6.321-17.492 16.996-17.492ZM524.412 356.872c0 10.712-6.606 16.71-17.853 16.924a15.6 15.6 0 0 1-11.783-4.606 16.317 16.317 0 0 1-4.892-13.354 15.889 15.889 0 0 1 17.318-16.385c10.89 0 17.245 6.5 17.21 17.421ZM217.809 235.081c0 10.712-6.57 17-17.567 16.96s-16.6-6.677-16.782-17.853a15.282 15.282 0 0 1 4.642-11.751 15.853 15.853 0 0 1 12.565-4.852c10.608.286 17.142 6.606 17.142 17.496ZM197.278 411.431c10.712 0 16.96 6.57 16.924 17.531s-6.641 16.6-17.853 16.817a15.425 15.425 0 0 1-11.747-4.677 15.639 15.639 0 0 1-4.749-12.568c.251-10.713 6.499-17.139 17.425-17.103ZM484.993 433.89c0 10.712-6.57 17-17.567 16.96s-16.6-6.677-16.782-17.853a15.175 15.175 0 0 1 4.677-11.747 15.746 15.746 0 0 1 12.533-4.856c10.783.357 17.139 6.605 17.139 17.496ZM349.919 526.26c-10.926 0-17.424-6.356-17.424-17.1s6.391-17.21 17.281-17.174a15.71 15.71 0 0 1 17 16.639c-.001 11.03-6.145 17.599-16.857 17.635ZM508.416 300.386c5.749-1.964 9.64 1.535 12.783 4.5a17.067 17.067 0 0 1 0 24.637 17.853 17.853 0 0 1-12.39 5.07 16.032 16.032 0 0 1-12.211-5.5 15.5 15.5 0 0 1-5-11.569 16.889 16.889 0 0 1 5.034-12.39c3.25-2.784 6.535-7.318 11.784-4.748ZM176.497 349.982a16.924 16.924 0 0 1-17.853 16.777 16.389 16.389 0 0 1-16.46-17.853c.821-9.6 5.856-15.853 17.1-16.317a16.782 16.782 0 0 1 17.21 17.389ZM142.221 311.169c1.25-8.819 6.248-16.746 18.21-16.139a16.032 16.032 0 0 1 15.96 17.424 16.567 16.567 0 0 1-17.674 16.643 16.853 16.853 0 0 1-16.5-17.924ZM356.631 142.353a16.96 16.96 0 0 1 16.924 17.531 16.674 16.674 0 0 1-17.854 16.639 16.5 16.5 0 0 1-16.5-17.032 16.889 16.889 0 0 1 17.43-17.138ZM334.173 159.706a16.924 16.924 0 0 1-17.567 16.853 17.1 17.1 0 0 1 .428-34.17 16.924 16.924 0 0 1 17.139 17.317ZM289.617 507.085a18.924 18.924 0 0 1-16.532 17.353 17.15 17.15 0 0 1-1.218-34.277 18.71 18.71 0 0 1 17.75 16.925ZM507.023 411.43a17.139 17.139 0 1 1 17.281-16.6 18.71 18.71 0 0 1-17.281 16.6ZM526.126 279.57a17.139 17.139 0 1 1-17.014-17.264 17.139 17.139 0 0 1 17.014 17.264ZM413.011 160.92a18.888 18.888 0 0 1-16.46 17.424 18.71 18.71 0 0 1-17.853-16.888 18.888 18.888 0 0 1 16.46-17.389 18.674 18.674 0 0 1 17.853 16.853ZM389.445 491.983a18.674 18.674 0 0 1 16.71 17.853c0 8.034-9.248 16.425-17.567 16.317a18.71 18.71 0 0 1-16.71-17.853c.178-8.034 9.212-16.424 17.567-16.317ZM157.538 406.289c-8.391 0-17.424-9.533-17.031-17.853a19.21 19.21 0 0 1 17.241-16.567c8.391 0 17.424 9.5 17.032 17.853a19.281 19.281 0 0 1-17.242 16.567ZM178.212 272.715c0 8.391-9.533 17.424-17.674 17.032s-16.746-9.391-16.6-17.281 9.533-17.424 17.674-17a19.245 19.245 0 0 1 16.6 17.249ZM279.294 140.64a19.245 19.245 0 0 1 17.067 16.53c.357 8.177-8.748 17.567-17.1 17.6a19.245 19.245 0 0 1-17.182-16.67c-.281-8.069 8.86-17.424 17.215-17.46ZM484.992 471.381c0 7.141-9.248 16.853-16.6 17.281s-17.531-9.6-17.853-17.032 9.248-16.817 16.567-17.246 17.745 9.463 17.886 16.997ZM195.421 485.233c-4.427-2.535-10.14-2.357-12.783-7.141a81.769 81.769 0 0 1-4.427-10.959c2.714-3.571 2.071-9.248 6.534-11.747 3.571-1.892 7.5-4.82 10.712-4.285 4.392.75 9.89 1.821 12.533 6.463a81.763 81.763 0 0 1 4.428 10.962c-2.749 3.571-2.107 9.248-6.534 11.747a86.664 86.664 0 0 1-10.463 4.96ZM471.317 217.871c-4.427-2.571-10.14-2.357-12.783-7.141a83.268 83.268 0 0 1-4.392-10.712c2.714-3.571 2.071-9.283 6.534-11.783 3.571-1.892 7.5-4.82 10.712-4.285 4.392.75 9.89 1.821 12.533 6.463a86.794 86.794 0 0 1 4.432 10.962c-2.749 3.571-2.107 9.248-6.534 11.747a107.061 107.061 0 0 1-10.502 4.749ZM443.861 510.657c0 10.712-4.749 15.746-15.282 15.782s-15.568-4.963-15.568-15.5 4.963-15.318 14.853-15.353c10.998-.247 15.961 4.359 15.997 15.071ZM522.698 433.997c0 10.426-5 15.175-15.925 15.139-10.247 0-15-5.142-14.925-16.139 0-9.783 5.249-14.746 15.5-14.711s15.386 4.963 15.35 15.711ZM200.777 180.058c10.46 0 15.175 4.963 15.14 15.925 0 10.247-5.142 14.961-16.139 14.925-9.783 0-14.711-5.284-14.711-15.5s4.963-15.386 15.71-15.35ZM232.591 522.477c-4.927 2.5-8.284-1.571-10.926-3.892a15.889 15.889 0 0 1-4.356-11.819 14.568 14.568 0 0 1 4.677-10.712 15.675 15.675 0 0 1 11.926-4.213 16.1 16.1 0 0 1 10.712 4.784 16.424 16.424 0 0 1 4.07 11.14 14.782 14.782 0 0 1-4.356 11.033c-2.642 2.57-6.641 5.926-11.747 3.679ZM418.474 160.742c-2.5-4.892 1.571-8.248 3.892-10.89a16.032 16.032 0 0 1 11.854-4.356 14.532 14.532 0 0 1 10.712 4.642 15.889 15.889 0 0 1 4.213 11.961 15.211 15.211 0 0 1-15.96 14.889 14.711 14.711 0 0 1-11.033-4.392c-2.607-2.784-5.892-6.746-3.678-11.854ZM525.804 240.508c2.5 4.927-1.571 8.248-3.892 10.926a16.139 16.139 0 0 1-11.854 4.32 14.282 14.282 0 0 1-10.712-4.642 15.889 15.889 0 0 1-4.392-11.819 15.2 15.2 0 0 1 15.965-14.781 14.568 14.568 0 0 1 11 4.07c2.957 2.821 6.1 6.82 3.885 11.926ZM172.855 429.105c1.821 5.035-2.214 7.391-4.82 10.712s-6.748 3.892-11.033 4.463c-5.284.643-7.427-2.892-10.712-5.427-3.856-2.964-3.892-6.748-4.32-11.069-.536-5.284 3.106-7.355 5.534-10.712s6.284-3.749 10.319-4.106A12.925 12.925 0 0 1 168.535 418c3.428 3.143 5.637 6.32 4.32 11.105ZM160.965 248.613a15.425 15.425 0 1 1 .643-30.742 15.925 15.925 0 0 1 14.889 15.317 15.782 15.782 0 0 1-15.532 15.425ZM255.335 157.957a15.43 15.43 0 1 1-30.85-.786 15.96 15.96 0 0 1 15.427-14.782 15.746 15.746 0 0 1 15.423 15.568ZM365.058 546.362c-.321 9-7.962 16.532-15.96 15.71a15.282 15.282 0 0 1-9.033-27.208 43.1 43.1 0 0 1 9.6-3.57 18.317 18.317 0 0 1 11.461 5.356 28.564 28.564 0 0 1 3.932 9.712ZM294.718 546.362c1.178-3.035 1.321-7.141 4.642-10.176a16.139 16.139 0 0 1 10.712-4.57 15.853 15.853 0 0 1 15.532 14.746 16.067 16.067 0 0 1-14.961 15.889 16.282 16.282 0 0 1-15.925-15.889ZM546.084 372.012c-3.035-1.143-7.141-1.285-10.14-4.606a16.211 16.211 0 0 1-4.606-10.712 15.818 15.818 0 0 1 14.746-15.353 16.032 16.032 0 0 1 16.032 15.032 16.21 16.21 0 0 1-16.032 15.639ZM562.438 318.989c-1.714 3.928-1.964 8.319-5.677 11.426a16.853 16.853 0 0 1-10.355 3.571 15.6 15.6 0 0 1-15.139-15.782 16.1 16.1 0 0 1 15.282-14.64 24.387 24.387 0 0 1 10.712 4.642c3.677 2.749 3.641 6.958 5.177 10.783ZM121.654 325.737c-6.82 0-15.6-8.891-15.425-15.639s9.141-15.532 15.818-15.211 14.853 8.748 15.03 15.175-8.532 15.675-15.423 15.675ZM318.713 104.648c6.855 0 15.6 8.748 15.46 15.568s-8.426 14.925-14.961 15.282-15.71-8.284-15.71-15.175 8.355-15.639 15.211-15.675ZM135.365 349.695c0 6.855-8.891 15.639-15.639 15.461s-15.532-9.176-15.211-15.853 8.784-14.818 15.211-15 15.639 8.538 15.639 15.392ZM356.846 137.212c-6.713.286-15.675-8.355-15.818-15.282 0-6.32 8-15 14.6-15.568s15.71 7.962 16.246 14.818-8.137 15.711-15.028 16.032ZM404.477 548.433a21.031 21.031 0 0 1-10.926 13.818c-1.75.571-3.571 1.857-5.249 1.535a15.39 15.39 0 0 1-7.141-3.571 17.032 17.032 0 0 1-6.141-7.641 11.676 11.676 0 0 1 2.892-12.818c2.321-2.214 3.856-5.927 8.141-5.034 3.571-3.571 7.141-.464 9.248.893a14.746 14.746 0 0 1 8.069 10.962c.107.821.857 1.464 1.107 1.856ZM157.788 481.7a20.638 20.638 0 0 1-13.818-10.712c-.607-1.928-1.785-4.428-1.071-5.82 1.321-2.571.571-6.106 3.963-7.82 2.606-1.321 3.963-4 7.391-4.963a11.033 11.033 0 0 1 11.354 2.5c2.5 2.285 6.57 4 5.749 8.641 3.571 3.571.571 7.141-.857 9.283a14.711 14.711 0 0 1-10.962 8.034c-.714-.072-1.357.642-1.749.857ZM547.192 411.252c-2.357-.678-5.392-.643-6.784-2.107-2.928-3.106-8.069-4.892-7.427-10.5-4.106-3 .393-5.856.464-8.784s8.819-8.427 12.14-8.962c1.071 0 2.321.821 3.571 1.214 7.141 2.392 9.033 4.285 11.319 11.247 3.571 2.071 0 4.178 0 6.248 0 4.535-3.928 6-6.356 8.427a22.353 22.353 0 0 1-6.927 3.213ZM563.688 279.892c-2.5 1.428-.964 5-3.249 7.5a22.887 22.887 0 0 1-11.569 7.141c-2.321.5-5.534-1.5-7.927-3.035a20.531 20.531 0 0 1-7.962-12c2.142-2.214 1.214-5.57 3.392-8.034a21.959 21.959 0 0 1 11.533-7.141c2.321-.536 5.57 1.464 7.962 3a18.888 18.888 0 0 1 7.82 12.569ZM465.962 495.517a23.816 23.816 0 0 1 11.852 7.14c2.392 2.642 1.857 6.106 3.749 8.712a33.564 33.564 0 0 1-7.462 11.533c-2.5 2.178-5.856 1.178-8.034 3.571a26.708 26.708 0 0 1-11.6-7.141c-2.392-2.678-1.857-6.141-3.571-8.748 2-4.142 3.571-8.641 7.57-11.39ZM273.116 562.215c-2.571-.786-5.534-.786-6.963-2.285-2.928-3.071-8.034-4.892-7.391-10.712-4.142-2.964 1.5-5.784 0-8.748a24.994 24.994 0 0 1 12.5-8.926c1.035-.25 2.321.821 3.571 1.25 7.141 2.392 9 4.249 11.283 11.247 4.213 2.357.25 4.892-.179 7.141-.824 4.642-8.822 10.747-12.821 11.033ZM520.841 473.559c-2.535 1.428-.964 5-3.249 7.5a23.031 23.031 0 0 1-11.569 7.141c-2.321.535-5.534-1.535-7.927-3.035a20.459 20.459 0 0 1-7.962-12.033c2.178-2.178 1.25-5.534 3.392-8a22.066 22.066 0 0 1 11.569-7.141c2.321-.536 5.534 1.464 7.927 3.035a18.674 18.674 0 0 1 7.819 12.533ZM194.921 490.376a18.817 18.817 0 0 1 12.533 7.855c1.535 2.357 3.571 5.606 3.035 7.927a21.959 21.959 0 0 1-7.141 11.533c-2.464 2.178-5.856 1.214-8.034 3.571a20.71 20.71 0 0 1-12-7.962c-1.535-2.392-3.571-5.641-3.035-7.927a22.816 22.816 0 0 1 7.141-11.569c2.467-2.428 6.037-1 7.501-3.428ZM473.745 147.602c3.856-1.285 6.284 1.321 9.283 3.571 3.856 3 3.392 6.641 3.785 10.712a12.854 12.854 0 0 1-4 9.569c-3.071 3.963-6.82 3.142-10.712 3.571a11.5 11.5 0 0 1-9.5-4.213 11.961 11.961 0 0 1-3.57-9.783 12.533 12.533 0 0 1 3.57-9.712 11.247 11.247 0 0 1 11.14-3.713ZM135.008 272.179a10.1 10.1 0 0 1-3.216 10.248 12.5 12.5 0 0 1-10.39 4 13.068 13.068 0 0 1-9.676-3.82c-3.571-3.106-3.571-6.606-3.785-10.712a11.462 11.462 0 0 1 4.035-9.569 11.711 11.711 0 0 1 9.716-3.57 11.747 11.747 0 0 1 9.748 3.571c2.675 3.14 5.639 5.746 3.568 9.852ZM395.122 135.356c-3.856 1.285-6.284-1.285-9.283-3.571-3.856-3-3.571-6.641-3.785-10.712a12.854 12.854 0 0 1 4-9.6c3.071-3.963 6.82-3.142 10.712-3.571a11.426 11.426 0 0 1 9.462 4.213 11.854 11.854 0 0 1 3.571 9.783 12.6 12.6 0 0 1-3.57 9.748 11.354 11.354 0 0 1-11.1 3.713ZM106.59 389.258c-1.535-4.606 1.071-7.141 3.571-10.033 3-3.82 6.641-3.571 10.712-3.749a12.783 12.783 0 0 1 9.569 4c4 3.071 3.142 6.784 3.571 10.712a11.426 11.426 0 0 1-4.178 9.5 12.068 12.068 0 0 1-9.819 3.571 11.5 11.5 0 0 1-9.676-3.785c-3.218-3.432-5.539-6.289-3.75-10.216ZM292.79 120.787c1.321 3.892-1.285 6.32-3.571 9.319-3 3.82-6.641 3.392-10.712 3.571a12.6 12.6 0 0 1-9.569-4c-4-3.071-3.142-6.784-3.571-10.712a11.533 11.533 0 0 1 4.213-9.5 11.925 11.925 0 0 1 9.819-3.571 12.461 12.461 0 0 1 9.712 3.571 11.212 11.212 0 0 1 3.679 11.322ZM161.68 181.915c3.892-1.285 6.391 1.178 9.391 3.571 3.749 3 3.571 6.57 3.82 10.712a12.818 12.818 0 0 1-3.963 9.6c-3.071 3.892-6.748 3.249-10.712 3.571a11.39 11.39 0 0 1-9.5-4.142 12 12 0 0 1-3.571-9.783 12.5 12.5 0 0 1 3.571-9.748 11.1 11.1 0 0 1 10.962-3.785ZM524.233 200.233a10.712 10.712 0 0 1-3.785 10.712 12.5 12.5 0 0 1-9.854 3.356 12.675 12.675 0 0 1-9.783-3.571 12.961 12.961 0 0 1-4.07-10.426 12.14 12.14 0 0 1 3.785-9.712 11.961 11.961 0 0 1 9.64-3.928 12.5 12.5 0 0 1 10.5 3.928c2.603 3.142 4.71 5.856 3.567 9.641ZM214.238 158.493c1.321 3.892-1.285 6.32-3.571 9.319-3 3.82-6.641 3.571-10.712 3.749a12.6 12.6 0 0 1-9.569-4c-4-3.071-3.142-6.784-3.571-10.712a11.533 11.533 0 0 1 4.213-9.5 11.926 11.926 0 0 1 9.821-3.564 12.461 12.461 0 0 1 9.712 3.571 11.212 11.212 0 0 1 3.678 11.14ZM548.62 226.338a13.711 13.711 0 1 1-13.925 13.711 13 13 0 0 1 13.925-13.711ZM440.432 548.54a13.713 13.713 0 1 1-13.5-13.925 13.713 13.713 0 0 1 13.5 13.925ZM558.689 435.424a13.713 13.713 0 1 1-13.5-13.925 13.713 13.713 0 0 1 13.5 13.925ZM246.766 545.398a13.711 13.711 0 1 1-13.639-14 13.068 13.068 0 0 1 13.639 14ZM118.155 441.173a34.17 34.17 0 0 1-10-5.106 14.282 14.282 0 0 1-3.392-9.5 13.033 13.033 0 0 1 3.785-9.248c2.749-2 6.106-5.07 10.14-4.07a19.781 19.781 0 0 1 9.319 4.07 21.1 21.1 0 0 1 3.82 9.391c.964 3.785-2.035 6.927-3.749 9.426s-6.354 3.355-9.923 5.037ZM435.148 135.962c-3.571-1.535-7.677-2.107-9.391-4.535s-5.07-6.07-4.07-10.14c.821-3.285 1.714-7.5 4.106-9.176s6.248-4.927 10.176-3.928c3.285.821 7.5 1.821 9.141 4.249a15.21 15.21 0 0 1 3.928 9.426 17.1 17.1 0 0 1-4.57 10c-2 2.283-6.106 2.783-9.32 4.104ZM121.404 246.899c-6 0-13.782-8.355-13.5-14.282s8.534-13.64 14.282-13.247a17.246 17.246 0 0 1 13.1 13.711c.396 6.213-8.776 14.425-13.882 13.818ZM240.232 104.648c6.034.214 13.711 8.427 13.39 14.282s-8.677 13.569-14.39 13.247-13.031-8.391-12.961-13.818c0-6.141 8.07-13.961 13.961-13.711ZM491.848 510.657c1.857-3.571 2-8.105 6.07-10.212 2.535-1.321 5.677-3.571 7.855-3.106 3.571 1 8.177 1.821 10.247 5.927 1.285 2.571 3.571 5.856 2.892 7.891a19.853 19.853 0 0 1-4.606 9.248c-2.678 2.428-6.248 1.785-8.641 4.07-2.678-2.249-6.463-1.785-9.283-4.535s-2.249-6.57-4.534-9.283ZM522.697 163.634a9.1 9.1 0 0 1-3.571 9 6.784 6.784 0 0 1-5.927 2.285c-3.571-.643-8.034 1.75-10.962-2.428-1.107-1.535-3.178-2.892-3.571-4.5a20.138 20.138 0 0 1 0-10.926c1.535-2.928 4.106-7.141 9.141-6.177a15.389 15.389 0 0 0 4.249 0 8 8 0 0 1 7.391 2.964 7.855 7.855 0 0 1 2.892 7.391 4.807 4.807 0 0 1 .358 2.391ZM545.085 461.133q11.926 0 11.89 12.1t-12.1 11.89c-7.962 0-11.926-4.106-11.89-12.14s4.067-11.886 12.1-11.85ZM598.107 318.989q0 11.926-12.1 11.89c-7.962 0-11.926-4.106-11.89-12.14s4.07-11.89 12.1-11.854 11.926 4.07 11.89 12.104ZM349.562 598.238c-8.034 0-11.961-3.963-11.961-12.033s3.963-11.961 12-11.961 12 3.928 12 12-3.969 11.994-12.039 11.994ZM466.247 562.251q-12.033 0-12.1-11.89t11.89-12.1q12.068 0 12.1 11.854t-11.89 12.136ZM174.962 156.921a11.319 11.319 0 0 1-12.854 11.247 12.152 12.152 0 0 1 1.714-24.244 11.354 11.354 0 0 1 11.14 13ZM167.821 505.693c0 8.034-3.963 12-12.033 12s-11.961-3.966-11.961-12.036 3.963-11.961 12-11.961 11.994 3.928 11.994 11.997ZM123.653 181.915c4.285-1.357 5.891 2.321 8.534 4.285a9.819 9.819 0 0 1 3.5 8.105c.428 4.285-2.892 5.749-4.713 8.427s-5.07 2.749-8.212 3.142c-4.285.5-5.749-2.928-8.319-4.892a9.319 9.319 0 0 1-3.071-7.355c-.5-4.249 2.357-6 4.463-8.534a7.141 7.141 0 0 1 7.818-3.178ZM130.009 466.275c1.464 4.32-2 6.07-4.07 8.641a10 10 0 0 1-8.105 3.606c-4.142.179-5.856-2.607-8.462-4.606a10.14 10.14 0 0 1-3.356-8.141c-.393-3.892 2.107-5.57 4.213-7.748a10.14 10.14 0 0 1 7.891-3.928 11.1 11.1 0 0 1 8.569 4.392c2.32 2.178 4.712 4.213 3.32 7.784ZM94.232 349.303a13.175 13.175 0 0 1-12.426 12.532c-4.142.25-5.82-2.642-8.462-4.606s-2.928-4.927-3.249-8.141c-.428-4.249 2.785-5.82 4.785-8.355a9.248 9.248 0 0 1 7.248-3.178c4.249-.536 6.106 2.107 8.569 4.392s4.606 4.463 3.535 7.356ZM399.299 585.317a13 13 0 0 1-11.783 13 7.82 7.82 0 0 1-7.391-2.928c-1.928-2.607-5.5-3.963-4.927-8.319.428-3.071 0-6.07 3.071-8.212s4.142-5.177 8.391-4.749c3.213.321 6.034.321 8.141 3.249s5.748 4.138 4.498 7.959ZM550.834 190.377c4.427-1.071 5.749 3 8.426 4.749 3.321 2.107 2.5 5.249 2.928 8.248.607 4.356-3.214 5.606-5.034 8.248s-4.606 2.5-7.462 2.821c-4.142.464-5.82-2.642-8.462-4.606a9.819 9.819 0 0 1-3.249-8.141c-.428-4.249 2.928-5.713 4.749-8.391a7.748 7.748 0 0 1 8.105-2.928ZM93.946 310.169c1.75 4.32-1.678 6.141-3.892 8.605a10.033 10.033 0 0 1-7.962 3.571 9.676 9.676 0 0 1-7.855-3.963c-2.107-2.178-4.535-3.888-4.178-7.788a9.962 9.962 0 0 1 3.571-8.1c2.571-2 4.285-4.785 8.462-4.57a9.962 9.962 0 0 1 8.034 3.57c1.888 2.748 5.713 4.391 3.82 8.675ZM202.387 130.071c-4.642 1.357-6.356-2.071-8.926-4.106a9.962 9.962 0 0 1-3.574-8.103c-.357-4.249 2.821-5.784 4.713-8.427s5-2.892 8.177-3.214c4.249-.428 5.784 2.821 8.319 4.82a9.462 9.462 0 0 1 3.142 7.355c.536 4.249-2.214 6.106-4.463 8.534s-4.106 4.819-7.388 3.141ZM311.072 598.207a12.925 12.925 0 0 1-12.961-11.747 7.748 7.748 0 0 1 2.928-7.391c2.571-1.928 3.963-5.534 8.284-4.927 3.071.393 6.106 0 8.248 3.071s5.177 4.142 4.749 8.391c-.321 3.213-.321 6.034-3.285 8.141s-4.143 5.747-7.963 4.462ZM205.348 544.965c1.75 4.32-1.678 6.141-3.892 8.605a10.033 10.033 0 0 1-7.962 3.571 9.676 9.676 0 0 1-7.819-3.642c-2.107-2.178-4.535-3.892-4.178-7.784a9.962 9.962 0 0 1 3.571-8.105c2.571-2 4.285-4.785 8.462-4.57a9.962 9.962 0 0 1 8.034 3.571c1.963 2.609 5.533 4.073 3.784 8.354ZM318.57 70.621c4.642-1.357 6.356 2.107 8.926 4.106a9.962 9.962 0 0 1 3.571 8.105c.357 4.249-2.821 5.784-4.713 8.427s-5 2.892-8.177 3.213c-4.249.464-5.784-2.821-8.319-4.82a9.462 9.462 0 0 1-3.285-7.462c-.536-4.249 2.214-6.07 4.463-8.534s4.249-4.678 7.534-3.035ZM358.45 70.514c4.285-1.357 5.891 2.321 8.534 4.285a9.819 9.819 0 0 1 3.321 8.105c.428 4.285-2.892 5.749-4.713 8.427s-5.07 2.749-8.212 3.142c-4.285.5-5.749-2.928-8.319-4.892a9.319 9.319 0 0 1-3.071-7.391c-.5-4.249 2.357-6 4.463-8.534a7.141 7.141 0 0 1 7.997-3.142ZM598.108 357.872a13.175 13.175 0 0 1-12.425 12.533c-4.142.25-5.82-2.642-8.462-4.606a9.819 9.819 0 0 1-3.249-8.141c-.428-4.285 2.785-5.82 4.785-8.391a9.5 9.5 0 0 1 7.136-3.142c4.249-.536 6.106 2.142 8.569 4.392s4.717 4.356 3.646 7.355ZM473.424 135.498a13.247 13.247 0 0 1-12.568-12.426c-.25-4.178 2.642-5.856 4.606-8.462s4.963-2.928 8.177-3.249c4.249-.428 5.784 2.785 8.355 4.785a9.5 9.5 0 0 1 3.181 7.317c.5 4.249-2.142 6.106-4.392 8.569s-4.359 4.537-7.359 3.466ZM291.326 80.797a13.318 13.318 0 0 1-12.352 11.85c-5.927-.286-12.283-6.855-11.569-12.568a12.925 12.925 0 0 1 11.853-11.422 13.282 13.282 0 0 1 12.068 12.14ZM585.575 267.466A13.247 13.247 0 0 1 598 279.249a13.639 13.639 0 0 1-11.14 12.211 13.425 13.425 0 0 1-12.854-11.354 13.247 13.247 0 0 1 11.569-12.64ZM80.522 375.439a12 12 0 1 1-12.211 11.783 12 12 0 0 1 12.211-11.783ZM270.542 596.528a12 12 0 1 1 12.43-11.569 12 12 0 0 1-12.43 11.569ZM395.801 94.365a13.318 13.318 0 0 1-11.926-12.176 12 12 0 0 1 23.958 0A13.354 13.354 0 0 1 395.8 94.365ZM82.128 258.896a13.247 13.247 0 0 1 12.1 12.033 12.818 12.818 0 0 1-11.39 11.854c-5.713.75-12.318-5.606-12.568-11.533a13.282 13.282 0 0 1 11.858-12.354ZM583.969 384.009a13.247 13.247 0 0 1 12.421 11.783 13.639 13.639 0 0 1-11.14 12.211 13.425 13.425 0 0 1-12.85-11.354 13.247 13.247 0 0 1 11.569-12.64ZM232.805 574.248a10.283 10.283 0 1 1-10.033 10.533 9.676 9.676 0 0 1 10.033-10.533ZM437.008 587.959a10.283 10.283 0 1 1-10.283-10.283 9.641 9.641 0 0 1 10.283 10.283ZM94.236 233.189a9.641 9.641 0 0 1-10.287 10.283 10.283 10.283 0 0 1 0-20.566 9.64 9.64 0 0 1 10.287 10.283ZM587.86 231.474a10.283 10.283 0 1 1-10.319 10.248 9.64 9.64 0 0 1 10.319-10.248ZM543.657 502.265a10.283 10.283 0 1 1-10.712 9.89 9.676 9.676 0 0 1 10.712-9.89ZM251.907 80.654a10.283 10.283 0 1 1-10.283-10.283 10.283 10.283 0 0 1 10.283 10.283ZM90.804 426.856a9.641 9.641 0 0 1-10.283 10.283 10.283 10.283 0 0 1 0-20.566 9.64 9.64 0 0 1 10.283 10.283ZM445.578 84.082a10.283 10.283 0 1 1-10.287-10.283 10.283 10.283 0 0 1 10.287 10.283ZM594.68 435.389a10.283 10.283 0 1 1-10.319-10.247 9.64 9.64 0 0 1 10.319 10.247ZM503.453 539.97a10.283 10.283 0 1 1-9.89 10.712 9.712 9.712 0 0 1 9.89-10.712ZM122.975 166.348a10.247 10.247 0 1 1 7.354-2.785 10.248 10.248 0 0 1-7.354 2.785ZM162.68 128.607a10.283 10.283 0 1 1 10.39-10.176 10.712 10.712 0 0 1-10.39 10.176ZM118.333 514.227a10.283 10.283 0 1 1 10.212-10.39 10.712 10.712 0 0 1-10.212 10.39ZM560.581 162.881a10.712 10.712 0 0 1-10.283 10.283 10.283 10.283 0 1 1 10.283-10.283ZM166.215 543.363a10.283 10.283 0 1 1-10.284-10.248 10.712 10.712 0 0 1 10.284 10.248ZM522.701 123.501a10.283 10.283 0 1 1-10.287-10.283 10.712 10.712 0 0 1 10.287 10.283ZM592.966 474.947c-.214 3.571-7.141 10.462-10.712 10.14s-10.39-7.641-9.926-10.712 7.141-9.641 10.212-9.712 10.604 6.931 10.426 10.284ZM464.177 577.604c3.892.393 10.712 6.891 10.355 10.033a14.282 14.282 0 0 1-3.928 6.855c-4.178 4.427-8.069 4.463-12.283 0-5.749-5.891-4.749-8.391.214-13.5a25.57 25.57 0 0 1 5.642-3.392ZM87.377 464.632c0 6.07-2.392 8.462-8.426 8.5s-8.676-2.285-8.712-8.248c0-6.641 2.249-8.962 8.855-8.891 5.962.034 8.283 2.426 8.283 8.639ZM474.638 92.652c-6.07 0-8.5-2.392-8.5-8.462s2.285-8.641 8.212-8.676c6.641 0 8.962 2.249 8.926 8.855-.033 5.962-2.461 8.283-8.638 8.283ZM194.029 591.387c-6.32 0-8.891-2.214-8.962-7.962 0-6.641 1.964-9.069 7.748-9.176 6.927 0 9.355 2.035 9.391 8.355s-2.25 8.711-8.177 8.783ZM596.287 202.267c0 6.177-2.321 8.569-8.319 8.641-6.606 0-8.891-2.285-8.819-8.962 0-5.927 2.5-8.212 8.748-8.177s8.39 2.428 8.39 8.498ZM634.099 318.846a8.605 8.605 0 1 1-17.174-.393 8.891 8.891 0 0 1 8.784-8.141 8.5 8.5 0 0 1 8.391 8.534ZM210.668 78.905a8.605 8.605 0 1 1-17.067-.286 8.891 8.891 0 0 1 8.784-8.141 8.5 8.5 0 0 1 8.284 8.427ZM84.235 202.339a8.926 8.926 0 0 1-8.855-8.069 8.784 8.784 0 0 1 7.855-9.069 8.5 8.5 0 0 1 9.283 8.462 8.605 8.605 0 0 1-8.283 8.676ZM632.384 358.622a8.605 8.605 0 1 1-8.034-9.141 8.6 8.6 0 0 1 8.034 9.141ZM310.643 615.381a8.605 8.605 0 1 1-8.623 8.033 8.605 8.605 0 0 1 8.623-8.033ZM356.453 625.378a8.926 8.926 0 0 1-8.069 8.855 8.819 8.819 0 0 1-9.069-7.855 8.584 8.584 0 1 1 17.139-1ZM358.167 34.38a10.319 10.319 0 0 1 8.569 8.534 8.57 8.57 0 1 1-17.139 0 10.319 10.319 0 0 1 8.569-8.534ZM51.383 310.277a10.355 10.355 0 0 1-8.534 8.605 10.355 10.355 0 0 1-8.566-8.57 10.319 10.319 0 0 1 8.569-8.569 10.319 10.319 0 0 1 8.531 8.534ZM625.529 289.746a10.319 10.319 0 0 1-8.569-8.569 8.57 8.57 0 1 1 17.139 0 10.355 10.355 0 0 1-8.57 8.569ZM632.385 397.58a8.569 8.569 0 1 1-8.676-8.426 10.212 10.212 0 0 1 8.676 8.426ZM327.318 42.914a10.355 10.355 0 0 1-8.569 8.569 10.355 10.355 0 0 1-8.569-8.569 10.319 10.319 0 0 1 8.568-8.534 10.319 10.319 0 0 1 8.569 8.534ZM42.852 339.448a8.569 8.569 0 1 1-8.569 8.569 8.569 8.569 0 0 1 8.569-8.569ZM387.196 617.095a10.212 10.212 0 0 1 8.676 8.427 8.569 8.569 0 1 1-8.676-8.426ZM406.155 44.413c.214 2.714-5.32 8.569-8.319 8.819s-8.641-5.356-8.641-8.355 5.32-8.569 8.319-8.784 8.391 5.32 8.641 8.32ZM551.834 550.361c0 2.856-6.034 8.569-8.712 8.462s-8.569-6.034-8.427-8.712 6.034-8.569 8.676-8.427 8.605 6.035 8.463 8.677ZM51.386 387.293c0 2.678-5.57 8.534-8.462 8.712s-8.534-5.606-8.676-8.462 5.57-8.534 8.426-8.676 8.569 5.57 8.712 8.426ZM281.043 34.38a13.425 13.425 0 0 1 8.569 8.534 13.532 13.532 0 0 1-8.569 8.605 13.461 13.461 0 0 1-8.569-8.569 13.461 13.461 0 0 1 8.569-8.57ZM44.281 279.463c-3-.25-8.534-6.106-8.319-8.819s6.106-8.534 8.819-8.319 8.534 6.07 8.319 8.784-6.106 8.532-8.819 8.354ZM270.51 632.52c-3-.25-8.534-6.106-8.319-8.819s6.106-8.534 8.819-8.319 8.534 6.07 8.319 8.784-6.106 8.532-8.819 8.354ZM550.476 132.177c-6.606 0-7.141-.428-7.141-6.284 0-6.463.643-7.141 6.07-7.5s8.034.857 7.712 6.784-.607 7-6.641 7ZM123.368 543.148a7.141 7.141 0 0 1-6.427 7.141 7.006 7.006 0 1 1 6.57-7.141ZM40.852 418.287a7.141 7.141 0 0 1 7.141 6.391 6.82 6.82 0 0 1-7.141 7.141 6.856 6.856 0 0 1 0-13.711ZM589.539 512.517a7.141 7.141 0 0 1-6.641 6.891 6.906 6.906 0 1 1 6.57-6.748ZM589.324 157.783a7.141 7.141 0 0 1 6.962 6.534 7.006 7.006 0 1 1-7.141-6.57ZM628.958 435.179a7.141 7.141 0 0 1-6.427 7.141 7.006 7.006 0 1 1 6.57-7.141ZM79.2 510.835a7.141 7.141 0 0 1-7.141-6.248 6.868 6.868 0 0 1 13.711-.821 7.141 7.141 0 0 1-6.57 7.07ZM161.073 582.674a7.141 7.141 0 0 1-6.5 7.141 7.006 7.006 0 1 1 6.57-7.141ZM435.04 37.808a7.141 7.141 0 0 1 7.141 6.391 7.013 7.013 0 1 1-7.141-6.391ZM632.385 241.579a7.141 7.141 0 0 1-6.463 7.141 7.006 7.006 0 1 1 6.57-7.141ZM510.594 589.209a7.141 7.141 0 0 1-6.248 7.141 6.855 6.855 0 1 1 6.248-7.141ZM231.627 629.092a7.141 7.141 0 0 1-7.141-6.356 7.015 7.015 0 1 1 7.141 6.356ZM124.974 109.79a7.141 7.141 0 0 1 7.141 6.5 7.006 7.006 0 1 1-7.141-6.57ZM512.164 78.94a7.141 7.141 0 0 1 7.141 6.391 7.013 7.013 0 1 1-7.141-6.391ZM432.043 625.449a7.141 7.141 0 0 1-6.463 7.141 7.006 7.006 0 1 1 6.57-7.141ZM44.32 224.619a12.175 12.175 0 0 1 7.141 6.391 11.961 11.961 0 0 1-6.213 7.141c-2.142.321-7.712-4.606-7.427-6.855a7.391 7.391 0 0 1 1.785-4.249 18.674 18.674 0 0 1 4.714-2.428ZM241.414 34.38a12.176 12.176 0 0 1 7.137 6.39 11.961 11.961 0 0 1-6.213 7.141c-2.142.321-7.712-4.606-7.427-6.855a7.391 7.391 0 0 1 1.785-4.249 18.674 18.674 0 0 1 4.718-2.427ZM85.699 147.495a13.14 13.14 0 0 1 6.82 6.57c0 2.357-4.927 7.141-7.141 7.141s-6.82-5.356-6.391-7.141a11.14 11.14 0 0 1 2.5-4.82 12.282 12.282 0 0 1 4.213-1.75ZM164.251 72.085a12.175 12.175 0 0 1 7.141 6.53 11.961 11.961 0 0 1-6.253 7.145c-2.142.321-7.712-4.606-7.427-6.855a7.391 7.391 0 0 1 1.785-4.249 18.675 18.675 0 0 1 4.749-2.571ZM622.316 479.986c-3.571 0-5.213-1.321-5.356-4.713s1.214-5.356 4.5-5.57c4.106-.286 5.784 1.214 5.784 5.142s-1.429 5.034-4.928 5.141ZM464.427 632.52c-3.571 0-5.07-1.428-5.142-4.927 0-4.106 1.428-5.57 5.57-5.356 3.571 0 4.785 1.714 4.713 5.356s-1.571 4.927-5.141 4.927ZM52.279 194.091c-2.428 1.892-4.392 4.57-6.141 4.463s-3.571-2.821-4.927-4.785c-.714-1.143 4.5-5.856 5.534-5.07a69.191 69.191 0 0 1 5.534 5.392ZM203.848 47.304c-2-2.357-4.785-4.178-4.713-5.963s2.856-3.571 4.427-5.249c1.857 1.785 4.57 3.356 5.142 5.5.321 1.322-2.821 3.428-4.856 5.712ZM480.744 44.27a65.448 65.448 0 0 1-5.5 5.463c-1 .786-6.248-3.856-5.57-5.034 1.214-2 3.106-4.713 4.892-4.856s3.893 2.571 6.178 4.427ZM47.208 464.525a51.492 51.492 0 0 1-5.927 5.07c-1.214.714-6.034-4.356-5.249-5.392 1.464-1.821 3.571-4.428 5.284-4.463s3.571 2.75 5.892 4.785ZM199.67 621.843a65.464 65.464 0 0 1-5.5 5.463c-1 .785-6.248-3.856-5.57-5.035 1.214-2 3.106-4.713 4.892-4.856s3.714 2.572 6.178 4.428ZM627.561 210.087a58.659 58.659 0 0 1-5.391-5.606c-.786-1.035 4.035-6.177 5.106-5.463 1.964 1.285 4.642 3.178 4.749 4.963s-2.564 3.678-4.464 6.106ZM663.235 324.023c-3.57 0-3.321 0-3.57-3.856 0-2.892 1.178-3.178 3.57-3.071 3.571 0 3.571 0 3.571 3.892-.215 3.035-.215 3.035-3.571 3.035ZM351.311 663.868c.536 2.785-1.071 3.071-3.571 2.964-3.571-.179-3.356 0-3.571-3.856 0-2.856 1.107-3.213 3.571-3.106 3.64.178 3.64.071 3.571 3.998ZM362.452 4.887a23.636 23.636 0 0 1-3.749 3.571c-1.214.714-4.427-2.035-3.856-3.356s2-3.071 3.213-3.178 2.571 1.713 4.392 2.963ZM324.925 3.638c-1.857 1.357-3.178 3.035-4.392 2.928s-2.749-1.647-3.392-2.928 2.535-4.106 3.785-3.571a21.421 21.421 0 0 1 4 3.571ZM665.162 285.711a21.175 21.175 0 0 1-3.57-4c-.643-1.285 2.214-4.32 3.57-3.571s2.964 2.107 3.071 3.321-1.714 2.216-3.071 4.25ZM120.797 582.46a23.632 23.632 0 0 1-3.571 3.571c-1.214.714-4.427-2.035-3.856-3.356s2-3.071 3.213-3.178 2.358 1.677 4.214 2.963ZM7.718 348.268c-1.856 1.357-3.177 3.032-4.391 2.932s-2.643-1.79-3.25-3.111 2.535-4.106 3.785-3.571a21.423 21.423 0 0 1 3.856 3.749ZM543.192 585.174c1.5 1.821 3.571 3.356 3.285 4.106-.536 1.5-2.321 2.571-3.571 3.82-1.035-1.214-2.821-2.357-2.856-3.571s1.679-2.463 3.142-4.355ZM667.698 358.194c-1.785 1.535-3.356 3.571-4.106 3.285-1.5-.5-2.535-2.285-3.785-3.571 1.178-1.035 2.357-2.821 3.571-2.856s2.463 1.713 4.32 3.142ZM4.966 313.026c-1.426-1.893-3.14-3.178-3.068-4.357s1.892-2.357 2.928-3.571c1.25 1.25 3 2.321 3.571 3.856.177.822-1.893 2.322-3.431 4.072ZM78.557 539.007a21.173 21.173 0 0 1 3.571 4c.643 1.285-2.214 4.32-3.571 3.571s-2.964-2.107-3.035-3.321 1.714-2.39 3.035-4.25ZM586.967 551.611a23.635 23.635 0 0 1-3.57 3.571c-1.214.714-4.428-2.035-3.856-3.356s2-3.071 3.213-3.178 2.357 1.677 4.213 2.963ZM667.702 397.363a23.635 23.635 0 0 1-3.571 3.571c-1.214.714-4.427-2.035-3.856-3.356s2-3.071 3.214-3.178 2.173 1.678 4.213 2.963ZM593.93 125.037a23.172 23.172 0 0 1-4 3.571c-1.285.643-4.32-2.214-3.571-3.571s2.107-2.964 3.321-3.035 2.358 1.606 4.25 3.035ZM551.62 81.404a21.171 21.171 0 0 1 3.571 4c.643 1.285-2.214 4.32-3.571 3.571s-2.964-2.107-3.035-3.321 1.678-2.393 3.035-4.25ZM129.366 78.619a23.637 23.637 0 0 1-3.571 3.571c-1.214.714-4.427-2.035-3.856-3.356s2-3.071 3.213-3.178 2.358 1.642 4.214 2.963ZM270.331 657.406a21.956 21.956 0 0 1 3.785 3.571c.714 1.143-2 4.427-3.321 3.892s-3.106-1.928-3.249-3.106 1.536-2.5 2.785-4.357ZM308.679 667.761a21.174 21.174 0 0 1-3.571-4c-.643-1.285 2.214-4.32 3.571-3.571s2.964 2.107 3.071 3.321-1.714 2.358-3.071 4.25ZM85.949 112.289c1.321 1.892 3.035 3.214 2.928 4.392s-1.785 2.642-3.142 3.249-4.106-2.5-3.571-3.571a23.209 23.209 0 0 1 3.785-4.07ZM385.624 669.514c-1.428-1.892-3.142-3.178-3.071-4.356s1.892-2.357 2.928-3.571c1.25 1.25 3 2.321 3.571 3.856.143.818-2.071 2.318-3.428 4.071ZM513.772 48.983a9.641 9.641 0 0 1-1.25-3.035c0-.428 1.357-1.321 1.535-1.214a4.535 4.535 0 0 1 1.678 2.071c.108.286-.853.964-1.963 2.178ZM39.639 501.337c.786 1.357 1.571 2.249 1.357 2.571a8.891 8.891 0 0 1-2 1.785c-.428-.571-1.321-1.25-1.214-1.678a18.637 18.637 0 0 1 1.857-2.678ZM6.004 425.392c-1.357.75-2.214 1.535-2.535 1.357a7.641 7.641 0 0 1-1.785-2.036c.571-.428 1.25-1.321 1.678-1.214a15.677 15.677 0 0 1 2.642 1.893ZM7.718 231.189c-1.214.928-1.857 1.714-2.642 1.892s-1.107-.928-1.5-1.217a7.641 7.641 0 0 1 1.785-2.035c.143-.175 1 .61 2.357 1.36ZM667.698 243.079c-1.178 1.143-1.892 2.107-2.178 2a5.07 5.07 0 0 1-2.071-1.714s.821-1.535 1.25-1.535a11.642 11.642 0 0 1 3 1.25ZM5.361 266.537c.786 1.357 1.571 2.249 1.357 2.571a8.891 8.891 0 0 1-2 1.785c-.428-.571-1.142-1.25-1.142-1.678s.893-1.357 1.785-2.678ZM45.887 156.957a9.641 9.641 0 0 1-1.25-3.035c0-.428 1.357-1.321 1.535-1.214a4.535 4.535 0 0 1 1.678 2.071c.108.286-.856 1-1.963 2.178ZM245.944 2.067c-1.357.75-2.214 1.535-2.535 1.357a7.641 7.641 0 0 1-1.785-2.036c.571-.428 1.178-1.321 1.678-1.321s1.428 1.071 2.642 2ZM154.467 624.914c-.893-1.214-1.678-1.857-1.857-2.678s.786-1.107 1.214-1.642a7.463 7.463 0 0 1 2 1.785c.214.215-.569 1.107-1.357 2.535ZM439.611 5.602a9.5 9.5 0 0 1-3 1.25c-.428 0-1.357-1.393-1.25-1.535a5.071 5.071 0 0 1 2.072-1.715c.286.036 1 .893 2.178 2ZM506.453 626.985c-1.178 1.143-1.892 2.107-2.178 2a5.071 5.071 0 0 1-2.071-1.714s.821-1.535 1.25-1.535a11.641 11.641 0 0 1 3 1.25ZM661.164 439.745a9.641 9.641 0 0 1-1.25-3.035c0-.428 1.357-1.321 1.535-1.214a4.535 4.535 0 0 1 1.678 2.071c.108.286-.856 1-1.963 2.178ZM230.984 659.013c1.107 1.214 2.071 1.892 1.964 2.178a4.534 4.534 0 0 1-1.678 2.071s-1.535-.786-1.535-1.214a9.64 9.64 0 0 1 1.25-3.035ZM164.251 36.879c1.107 1.214 2.071 1.892 1.964 2.178a4.535 4.535 0 0 1-1.678 2.071s-1.535-.786-1.535-1.214a9.64 9.64 0 0 1 1.249-3.035ZM621.745 511.62c1.107 1.214 2.071 1.892 1.964 2.178a4.535 4.535 0 0 1-1.678 2.071c-.178 0-1.535-.785-1.535-1.214a9.643 9.643 0 0 1 1.25-3.035ZM626.886 167.24a9.638 9.638 0 0 1-1.25-3.035c0-.428 1.357-1.321 1.535-1.214a4.534 4.534 0 0 1 1.678 2.071c.108.286-.856.964-1.963 2.178ZM427.614 665.444a9.5 9.5 0 0 1-3 1.25c-.428 0-1.357-1.392-1.25-1.535a5.07 5.07 0 0 1 2.071-1.714c.287-.112 1.001.745 2.179 1.999Z"/></svg>