<svg xmlns="http://www.w3.org/2000/svg" width="734.425" height="735.32"><path d="M622.024 175.243a26.6 26.6 0 0 1-2.178 6.855 13.1 13.1 0 0 1-5.177 3.821c-1.143.536-3.106 0-2.714 2 0 .607 1.464 1.25 2.321 1.464a7.534 7.534 0 0 1 6.177 5.82 13.607 13.607 0 0 0 1.678 3.571c0 .25 1.642 0 1.642 0 .464-5.142 4.57-6.356 8.319-8.355 1.892-1 2.714-1.071 4.249.286s5.391 1.035 6.641 4.713c.786 2.321 3.892 4.535 2.714 7.141-1.678 3.571-2.928 8.248-7.712 9.176-4.142.857-.786 1.892-.25 2.785s.928.5 1.393.75c9.033 4.749 9.462 15.211 0 20.566a12.317 12.317 0 0 0-2.607 1.857c-.214 0 .179 1.5.321 1.5 4.784 0 6.927 2.642 7.5 7.141a2.142 2.142 0 0 0 1.5 1.428c.607 0 1.785-.75 1.785-1.107-.536-7.141 6.391-6.356 9.926-9.1 3.249 1.821 7.748 1.285 9.819 5.177a12.068 12.068 0 0 1-2.142 15.746 10.5 10.5 0 0 1-3.57 1.357l-1.5.536a7.387 7.387 0 0 0 1.143 1.75 13 13 0 0 0 2.071 1.178c8.819 5.713 9.034 14.782.429 20.531-.893.571-1.964.857-2.821 1.464s-1.821 1.642.25 1.964c5.32.857 4.856 6.141 6.748 9.426.893 1.5-.321 4.749-1.464 6.713a12.568 12.568 0 0 1-4.892 4.356c-1.821 1-5.213 2.321-5.891 1.607-2.285-2.392-6.391-.643-7.891-4.035-1.071-2.428-3.571-4.963-3.178-7.141a12.782 12.782 0 0 1 4.106-9.355c1.535-1.071 3.178-1.964 4.713-3.071.964-.678 1.785-1.535-.25-2a5.142 5.142 0 0 1-2.142-1c-8-7.462-5.5-13.747.928-19.424.75-.643 2-.714 2.856-1.285s.786-1.178 1.143-1.785a8.035 8.035 0 0 0-1.5-.464 6.5 6.5 0 0 1-6.784-6.963c0-.536-.893-1.071-1.357-1.642-.678.678-1.964 1.393-1.892 1.928.464 3.285-2.142 4.677-4 6.034a11.819 11.819 0 0 1-6.676 2.172 12.64 12.64 0 0 1-6.534-2.571c-1.678-1.178-4.106-2.5-3.571-5.32.5-2.071-3.571-3.178-.893-5.856 1.393-1.393 1.464-3.963 2.571-5.713a6.177 6.177 0 0 1 5.713-2.856c2 0 .393-1.5-.25-2a46.626 46.626 0 0 1-5.284-3.571 10.212 10.212 0 0 1 0-15.71 22.494 22.494 0 0 1 4.106-2.5c1.964-1.214 1.714-2.285-.393-3.571a11 11 0 0 1-5.82-6.855 1.607 1.607 0 1 0-3.214 0c-1.214 5.142-6.07 5.142-9.462 6.713a9.212 9.212 0 0 1-7.355-1.857 12.14 12.14 0 0 1 .464-19.888c1.285-.893 4.677 1.428 4.142-2.249-.357-2.321-3.214-.393-4.178-1.393-1.678-1.75-4.32-2.785-4.463-5.891 0-.821-1.5-1.607-2.285-2.428a12 12 0 0 1-1 2.821 16.818 16.818 0 0 1-3.928 5.142c-1.892 1.25-5.106 2.749-6.606 2-3.57-1.857-8.676-1.5-10.176-7.141a16.425 16.425 0 0 1 .286-9.748 6.891 6.891 0 0 1 7.462-5.32c1.285 0 1.535-2.785 0-3.249-3.82-1.285-6.356-3.321-5.963-7.712-4.035-3 1.5-5.856 0-8.819 2.107-1.642 3.356-4.785 6.855-4.142 3.749-3.571 6.963 0 10.14 1.107 3.963 1.107 3.571 5.891 4.892 8.962.714 1.607-.75 4.713-2.035 6.606a16.389 16.389 0 0 1-5.177 3.856c-.857.571-2.035.571-2.928 1.107s-.928 1.178-1.357 1.75c.5.214 1.035.678 1.464.571 3.571-.678 4.749 2.571 6.748 4.356 1 .893-1.214 3.571 1.285 3.749.714 0 1.5-2.607 2.428-3.892a14.068 14.068 0 0 1 15.71-4.213c5.073 1.677 4.466 6.64 6.822 9.639ZM323.598 656.09a18.851 18.851 0 0 1-2 5.891c-1.357 1.857-2.749 4.463-6 3.963-.607 0-1.321.678-1.964 1.035.536.786.928 2.035 1.642 2.249a9.712 9.712 0 0 1 7.141 7.605c0 .464 1.321 1.035 1.964.964a1.9 1.9 0 0 0 1.321-1.571c-.643-3.249 1.857-4.749 3.571-6.106a10.426 10.426 0 0 1 13.247 0c1.964 1.357 4.249 2.964 3.57 6.141 0 .607.75 1.393 1.25 2a12.9 12.9 0 0 0 1.178 1.25c.321-.428.928-.821.893-1.214-.571-7.141 6.177-6.713 10.069-8.784 1.5-.786 4.713.786 6.606 2.071a13.1 13.1 0 0 1 3.82 5.177c.536 1.107-.179 2.964 2.035 2.785s1.178-2.071 1.5-3.249c1.5-5.106 6.391-5.606 10.283-6.784a9.319 9.319 0 0 1 6.57 2.25c1.892 1.357 4.427 2.856 3.785 6.106 0 .464.821 1.143 1.285 1.678.678-.607 1.892-1.178 2-1.857a6.605 6.605 0 0 1 7.141-6.748 2.178 2.178 0 0 0 1.535-1.393 2.357 2.357 0 0 0-1-1.928c-2.607-1.071-5.463-1.571-6.427-4.927-.607-2.25-2.964-5-2.285-6.356 1.714-3.285 2.571-7.641 6.927-9 1.928-.607 4.785-2.214 5.677-1.464 2.5 2.035 7.391.857 7.891 5.713a6.177 6.177 0 0 0 1.821 3.571c.464.428 2.714 0 2.714-.25 0-5.106 2.535-7.82 7.748-7.82 2.678-4.463 5.284.5 8.034.286 1.535 0 3.821 2.321 4.856 4.142s2.357 5.32 1.464 6.713c-1.642 2.5-.714 6.284-3.963 7.82a26.528 26.528 0 0 1-7.141 3.142 10.5 10.5 0 0 1-6.713-2.035c-1.857-1.357-4.427-2.749-4.106-5.963 0-.643-1.107-1.393-1.75-2.107-.5.5-1.357.928-1.535 1.535a9.891 9.891 0 0 1-7.427 7.141 2.214 2.214 0 0 0-1.071 1.857c0 .535 1 1.5 1.428 1.428 3.142-.5 4.82 1.75 6.177 3.571a12.426 12.426 0 0 1 2.392 6.641 12.14 12.14 0 0 1-2.321 6.641c-1.357 1.892-2.856 4.463-6.07 3.571-2.964 3.321-6.141.464-8.784-.214a6.248 6.248 0 0 1-5-6.855c0-.428-.964-1.357-1.535-1.393s-1.75.786-1.75 1.143c.536 7.141-6.177 6.784-10.069 8.819-1.5.786-4.785-.714-6.605-2.035s-4.427-2.749-4.07-6c0-.607-1.143-1.321-1.785-2.035-.5.821-1.5 1.642-1.464 2.392.286 2.892-2 4.106-3.571 5.284a12.319 12.319 0 0 1-6.605 2.464 11.854 11.854 0 0 1-6.641-2.321c-1.607-1.178-3.928-2.357-3.82-5.213a6.392 6.392 0 0 0-1.143-2.892 2.749 2.749 0 0 0-1.214-1.178s-.964.607-.964.893c.536 6.641-5.249 7.141-9.176 8.569a9.891 9.891 0 0 1-7.391-1.642c-1.857-1.178-4.392-2.678-4.142-5.891 0-.678-1.071-1.428-1.678-2.178a13.313 13.313 0 0 0-1.607 2.285c-1.642 4.392-5.927 5.57-9.319 7.82-.393.286-1.357.393-1.607 0-2.357-2.678-7.355-1.714-8.462-6.32-.5-2.285-3.321-5-2.642-6.356 1.678-3.571 3.106-7.927 7.5-9.533a4.986 4.986 0 0 1 1.642 0 4.142 4.142 0 0 0 .785-2.214c0-.357-.643-1.071-1-1.071-4.82 0-7.141-2.642-7.534-7.141a4.321 4.321 0 0 0-.678-1.428 5.317 5.317 0 0 0-1.178.964c-.571.893-1 1.857-1.535 2.785a12.175 12.175 0 0 1-20.316.536c-.714-.928 0-3.106-2.178-2.607-.643.179-.928 1.607-1.535 2.357a18.137 18.137 0 0 1-2.928 3.035 10 10 0 0 1-10.462 2.5 13 13 0 0 1-8.784-10.712 11.461 11.461 0 0 1 6.248-10.712 8.855 8.855 0 0 1 10.712-.25 12.461 12.461 0 0 1 5.463 5.713c.714 1.928 2.535 1.892 3.213-.25a11.533 11.533 0 0 1 20.709-.286 7.82 7.82 0 0 0 1.785 2.678c.214.214 1.535 0 1.535-.25 0-5.213 2.964-7.141 7.855-7.748s11.033.928 12.747 4.963a43.992 43.992 0 0 1 1.214 6.141ZM692.186 346.983a24.173 24.173 0 0 1-2.071 6.5 13.1 13.1 0 0 1-5.177 3.82c-1.143.536-3 0-2.785 2s2.071 1.178 3.249 1.535c5.106 1.464 5.57 6.356 6.784 10.247a9.319 9.319 0 0 1-2.285 6.57c-1.321 1.928-2.821 4.427-6.07 3.82-.464 0-1.143.821-1.714 1.25.607.714 1.321 2.035 1.857 1.964 3.214-.393 4.677 2.035 6.034 3.928a12.033 12.033 0 0 1 2.214 6.677 12.533 12.533 0 0 1-2.5 6.57c-1.178 1.678-2.428 3.892-5.32 3.571a6.419 6.419 0 0 0-2.821 1.357c-.893.571-.75.786-1.143 1.178.464.25 1 .821 1.393.75 3.106-.607 4.82 1.571 6.177 3.571a11.783 11.783 0 0 1 2.464 6.57 15.353 15.353 0 0 1-2.749 7.141 5.5 5.5 0 0 1-6.32 3.178c-2.678 4.463-5.463 0-7.962-.286a5.927 5.927 0 0 1-5.106-6.641 2.107 2.107 0 0 0-1.357-1.535 2.249 2.249 0 0 0-1.928 1 9.5 9.5 0 0 1-7.891 7.641c-.321 0-.786.928-.678 1.321s.714 1.892 1.071 1.857c7.141-.5 7.141 6 8.855 10 .786 1.714-1.107 5.07-2.5 7.141s-2.5 3.892-5.356 3.571a6.4 6.4 0 0 0-2.107.857 12.5 12.5 0 0 0 1.857 1.785 26.827 26.827 0 0 1 3.571 1.892 11.283 11.283 0 0 1 4.82 10.712 14.282 14.282 0 0 1-9.5 10.319c-3.285 1.25-9.641-1.857-12.211-5.5a10.069 10.069 0 0 1 .571-13.354 44.486 44.486 0 0 1 6.463-4.892 7.792 7.792 0 0 0 .928-1.214c-.5-.214-1-.714-1.428-.643-3.142.571-4.784-1.714-6.141-3.571a12.211 12.211 0 0 1-2.392-6.606 12.354 12.354 0 0 1 2.321-6.641c1.357-1.892 2.821-4.392 6.106-3.785a2.195 2.195 0 0 0 1.571-1.285 2.321 2.321 0 0 0-.928-2c-2.071-.928-4.677-1-5.784-3.571s-3.571-5.713-3-7.82a13.14 13.14 0 0 1 7.534-9.355c1.678-.607 4.249-1.892 5-1.25 2.5 2.142 7.141 1.357 7.855 5.749a6.891 6.891 0 0 0 1.464 2.821 2.749 2.749 0 0 0 1.821 1.143 2.03 2.03 0 0 0 1.5-1.428 6.57 6.57 0 0 1 6.641-7.141 4.606 4.606 0 0 0 2.142-1.035 8.566 8.566 0 0 0 1.321-1.785c-.5 0-1.035-.643-1.464-.536-3.249.678-4.749-1.857-6.106-3.785a10.426 10.426 0 0 1 0-13.211c1.178-1.678 2.392-3.928 5.249-3.571.786 0 1.607-.928 2.428-1.428-.678-.643-1.428-1.892-2-1.821-3.249.393-4.642-2.178-6-4.035a11.569 11.569 0 0 1-2.107-6.677 12.569 12.569 0 0 1 2.714-6.391c1.178-1.678 2.5-3.856 5.356-3.571.643 0 1.428-1.107 2.142-1.714-.75-.536-1.464-1.393-2.285-1.571a7.141 7.141 0 0 1-6.356-6.534c0-.786-1.178-1.393-1.785-2.107-.536.5-1.071 1-1.571 1.535-1.714 1.714-.75 5.249-4.57 5.784-2.535.321-3.785 3.571-7.784 2.142-5.392-2.035-7.427-6.213-9.89-10.39-.607-1.071 3.571-8.5 5.106-9.319s2.964-1.178 4.356-1.892a1.5 1.5 0 0 0 .714-1.321c0-.714-.714-1.892-1.071-1.857-7.141.5-6.927-6.034-8.891-10-.786-1.535.678-4.713 1.928-6.641a12.283 12.283 0 0 1 5.142-3.928 10.712 10.712 0 0 1 9.676 0 7.141 7.141 0 0 1 5.356 7.5 1.585 1.585 0 0 0 1.071 1c.357 0 2.071-.357 2.142-.786a9.5 9.5 0 0 1 5.427-7.141c4.927-2.428 5.284-2.285 9.426-.643a13 13 0 0 1 7.141 9.712c.75 3.071-2.107 6.713-4.963 9.069a26.21 26.21 0 0 1-4.285 2 1.535 1.535 0 0 0-.607 1.392c.214.678.928 1.785 1.178 1.714 3.178-.714 4.927 1.5 6.248 3.571a30.138 30.138 0 0 1 2.571 6.784Zm-24.494-22.495a8.753 8.753 0 0 0-1 2.178 6.5 6.5 0 0 1-6.891 6.784c-.607 0-1.143.857-1.714 1.285.607.714 1.107 1.75 1.857 2.035a10.462 10.462 0 0 1 6.784 6.891c.25.75 1.393 1.178 2.142 1.714.393-.607 1.107-1.178 1.178-1.821a6.5 6.5 0 0 1 6.891-6.784 2.107 2.107 0 0 0 1.607-1.321c0-.607-.428-1.892-.893-1.964a8.891 8.891 0 0 1-7.641-7.784c-.071-.459-1.285-.781-2.32-1.209ZM454.393 76.303a15.782 15.782 0 0 1-7.141 10.426 9.855 9.855 0 0 1-11.319-.5c-1.928-1.214-2.785-3.928-4.427-5.749a2.785 2.785 0 0 0-2.749 0c-.75.536-.643 2.035-1.321 2.785-7.641 8.319-13.925 5.463-19.424-.714-.643-.75-.643-2.071-1.285-2.856s-1.535-2.964-2.464 0a9.39 9.39 0 0 1-2.964 3.892 10.14 10.14 0 0 1-14.568 0 13.64 13.64 0 0 1-2.892-3.928c-1.071-2.321-2.142-2.142-3.571-.321a24.066 24.066 0 0 1-2.678 3.963 10.1 10.1 0 0 1-15.175 0 21.425 21.425 0 0 1-2.714-4c-1.178-1.75-2.142-1.678-3.571.25v.861c-6.141 8.534-14.282 8.319-20.566-.536-1.714-2.5-1.714-2.5-3.571 0a20.635 20.635 0 0 1-2.5 3.249 10.247 10.247 0 0 1-15.282-.286c-1.285-1.321-1.892-3.249-3.106-4.677s-1.214-3.214-2.856.286c-3.356 7.141-14.032 7.677-19 1.785a10.962 10.962 0 0 1 5.57-17.639 12.068 12.068 0 0 1 13.247 3.892c.75 1.071 1.143 2.428 1.857 3.571s1.607 1.928 2-.214v-.857c6.034-8.605 14.282-8.427 20.566.428 1.75 2.535 1.75 2.5 3.571 0a23.137 23.137 0 0 1 3.071-3.856 10.033 10.033 0 0 1 13.925-.428 13.925 13.925 0 0 1 3.571 4.5c1.178 2.285 2.178 2.142 3.571.321a26.032 26.032 0 0 1 2.678-4 10.14 10.14 0 0 1 15.175 0 21.423 21.423 0 0 1 2.714 4c1.214 1.75 2.142 1.714 3.571-.25.286-.428 0-1.143.5-1.5 5.57-6.5 13.39-8.855 20.1 1.214a18.925 18.925 0 0 0 1.178 2.035c1 1.214 1.143 1.642 2.428-.393 5.927-9.391 14-9.034 20.352.5 1.357 2.035 2.214 2.071 3.571 0a14.282 14.282 0 0 1 4.035-5.106 9.962 9.962 0 0 1 11.319-.536 15.853 15.853 0 0 1 6.574 10.388ZM74.981 276.897a24.421 24.421 0 0 1 6.715 2.321c1.642 1.178 4.606 2.535 3.571 5.106s3.571 3.106 1.393 6.034-2.074 7.141-6.394 8.889c-2.571 1-2.357 1.5 0 3.321a21.852 21.852 0 0 1 3.82 3.142 9.962 9.962 0 0 1 .25 13.925 57.336 57.336 0 0 1-5.213 3.785 2.856 2.856 0 0 0 0 2.749c.571.714 2.071.643 2.821 1.321 8.319 7.605 5.427 13.925-.714 19.388-.75.643-2.071.643-2.856 1.285s-3 1.464 0 2.5a10.712 10.712 0 0 1 4.463 3.571 10.14 10.14 0 0 1 0 13.354 22.958 22.958 0 0 1-3.571 3.571c-2.571 2-2.571 1.892-.464 3.571a21.71 21.71 0 0 1 3.784 3.217 10.1 10.1 0 0 1 0 13.961 20.781 20.781 0 0 1-3.571 3.356c-2.357 1.75-2.357 1.678 0 3.571a21.14 21.14 0 0 1 3.142 2.785 10.176 10.176 0 0 1-.25 15.175 20.03 20.03 0 0 1-3.178 2.571c-2.535 1.821-2.535 1.857-.286 3.571a16.925 16.925 0 0 1 3.856 3c2.285 3.035 4.32 6.32 2.464 10.426a12.961 12.961 0 0 1-10.712 8.748 11.461 11.461 0 0 1-10.712-6.248 8.855 8.855 0 0 1-.243-10.716 12.461 12.461 0 0 1 5.713-5.463c1.928-.75 1.75-2.071-.179-3.321h-.821c-8.569-6.106-8.391-14.282.428-20.566 2.571-1.75 2.535-1.714 0-3.571a21.422 21.422 0 0 1-3.856-3.035 10.212 10.212 0 0 1 0-14.568 26.387 26.387 0 0 1 3.071-2.928 21.131 21.131 0 0 1 2.428-1.5c-.678-.643-1.285-1.321-2-1.928a34.332 34.332 0 0 1-3.178-2.642 10.283 10.283 0 0 1 .5-15.782c1.321-1.25 3.213-1.928 4.677-3.071s1.964-1.214-.536-2.749c-8.855-5.534-8.391-14.282.5-20.352 2.464-1.678 2.428-1.642 0-3.571a21.924 21.924 0 0 1-3.856-3.106 10 10 0 0 1-.357-13.925 23 23 0 0 1 4.5-3.571c1.928-1.392 2.142-2.5.25-3.392a12.818 12.818 0 0 1-5.963-7.141c-2.142-4.392.5-7.141 1.5-10.247 1.602-3.75 6.458-2.857 9.064-4.821ZM284.179 97.19c-1.821 2.214-.75 6.891-4.392 8.534-3.071 1.393-5.606 3.571-10.14 1.821s-7.141-2.678-7.462-7.141a5.107 5.107 0 0 0-.607-1.464 6.035 6.035 0 0 0-1.214.821 33.136 33.136 0 0 1-3.571 5.284c-5.784 5.356-10.426 5.5-16.353 0a35.025 35.025 0 0 1-3.571-5.284c-.25-.357-.786-.536-1.178-.786a4.107 4.107 0 0 0-.607 1.428 6.57 6.57 0 0 1-6.784 7.141c-.678 0-1.214 1.321-1.821 2.035.571.428 1.25 1.321 1.75 1.214 3.214-.571 4.749 1.928 6.07 3.82a12.14 12.14 0 0 1 2.285 6.677 12.283 12.283 0 0 1-2.464 6.57c-1.178 1.678-2.464 4.285-5.249 3.571-2.214-.607-3.178 3.571-5.927 1-1.393-1.357-3.963-1.464-5.713-2.571a5.177 5.177 0 0 1-3-6c0-.321-.571-.821-.893-1.214a12.528 12.528 0 0 0-1.178 1.214c-1.928 2.607-2.928 5.891-6.248 7.355a46.739 46.739 0 0 0-5.034 2.856c1.678.75 3.856 1.071 4.963 2.321 1.857 2.071 2.856 4.892 4.57 7.141s-1.143 3.285-1.428 5.106c-.785 4.892-5.463 5.677-9.033 7.855a2.5 2.5 0 0 1-2.249 0c-3.392-2.214-8.105-3.106-9.141-7.891-.893-4.106-2.178-.678-2.749 0s-1.071 2.464-1.928 3.571a11.1 11.1 0 0 1-10.712 4.749 13.318 13.318 0 0 1-10.14-9.6 10.712 10.712 0 0 1 4.785-11.64c3.142-2.142 6.82-5 11.033-1.285 1.393 1.214 3.356 1.821 4.677 3.106a56.771 56.771 0 0 1 4.392 5.32c.821-1.928 1.5-3.928 2.5-5.784.286-.536 1.5-.428 2.178-.821 1.535-.928 3.82-1.678 4.32-3.071 1.107-2.964-2.571-1.785-3.785-3.214-2.749-3.285-5.5-6.57-4.5-10.962a13.425 13.425 0 0 1 9.748-10 10.926 10.926 0 0 1 10.926 4.392 52.808 52.808 0 0 1 3.071 4.677c.25.393.786.571 1.178.857a3.571 3.571 0 0 0 .643-1.428 6.57 6.57 0 0 1 6.748-7.141c.678 0 1.25-1.285 1.857-1.964-.571-.464-1.214-1.393-1.714-1.285-3.249.607-4.749-1.892-6.106-3.82a11.926 11.926 0 0 1-2.285-6.641 13.032 13.032 0 0 1 2.392-6.606c1.393-1.928 3.035-4.249 6.177-3.571 2.928-3.571 6.141-.286 8.784.321a6.248 6.248 0 0 1 4.785 6.963c0 .393.571.857.857 1.285a12.886 12.886 0 0 0 1.178-1.25 13.1 13.1 0 0 0 1.357-2c4.677-9 15.211-9.533 20.566 0a15.279 15.279 0 0 0 1.857 2.642c.214.214 1.5-.25 1.5-.357-.536-6.677 5.392-6.784 9.212-8.676 2.856-1.393 10.069 2.714 11.39 6.034a43.423 43.423 0 0 1 1.427 5.786ZM155.89 555.936a23.387 23.387 0 0 1-2.285 6.677c-1.357 1.892-2.785 4.5-6.034 3.892a5.155 5.155 0 0 0-1.5.464c.357.607.536 1.464 1.071 1.75a13.64 13.64 0 0 1 7.784 7.82c.214.714 1.178 1.214 1.785 1.821a11.462 11.462 0 0 1 1-2.749 16.816 16.816 0 0 1 3.928-5.142c1.892-1.285 5.106-2.785 6.606-2.035 3.571 1.857 8.676 1.5 10.176 7.141a16.425 16.425 0 0 1-.286 9.748 6.713 6.713 0 0 1-7.462 5.284c-.393 0-.857.678-1.25 1.071s-.821.786-1.214 1.214c.536.357 1.143 1.107 1.607 1.035 3.249-.536 4.713 2 6.034 3.892a11.425 11.425 0 0 1 2.214 6.677 12.568 12.568 0 0 1-2.535 6.57 9.926 9.926 0 0 1-5.249 3.571 14.282 14.282 0 0 1-11.069-1.321c-3.785-1.75-3.571-6-4.713-9.141-.643-1.714.857-4.749 2.214-6.534s2.321-4 5.177-3.856a6.535 6.535 0 0 0 2.928-1.143 5.428 5.428 0 0 0 1.214-1.178c-.571-.357-1.214-1.071-1.714-1-2.428.464-3.571-1.25-4.927-2.642-2.642-2.821-4.106-2.785-7.141.428a9.962 9.962 0 0 1-11.069 3.571 12.961 12.961 0 0 1-8.964-10.718 11.247 11.247 0 0 1 6.713-11.247 11.711 11.711 0 0 0 2.642-1.857c.214-.179 0-1.5-.321-1.5-4.785 0-6.927-2.642-7.5-7.141a2.142 2.142 0 0 0-1.5-1.428c-.607 0-1.785.75-1.785 1.107.536 7.141-6.141 6.82-10.069 8.855-1.5.786-4.606-.857-6.641-2a8.962 8.962 0 0 1-3.82-4.32c-2.964-8.462-.357-14.6 9.426-17.281a9.176 9.176 0 0 1 6.784 1.857c1.821 1.321 4.5 2.607 4.32 5.82 0 .786.928 1.642 1.428 2.428.643-.643 1.892-1.393 1.821-1.964-.393-3.249 2.178-4.642 4.035-6a11.64 11.64 0 0 1 6.713-2.142 13.46 13.46 0 0 1 6.534 2.606c1.678 1.214 3.571 2.5 3.571 5.391-.32 1.149.787 2.47 1.323 3.649ZM541.794 634.524a13.425 13.425 0 0 1-8.319 11.283 9.462 9.462 0 0 1-11.711-2.285c-4.213-3.963-4.213-3.963-8.355 0-6.034 5.749-14.853 2.678-18.388-5.034-2.035-4.463.464-7.141 1.357-10.283 1.143-3.963 6.177-2.821 8.855-5.142 3.571 2 8.462 1.964 10.712 6.534 1.178 2.392 1.428 2.214 3.392-.321a20.886 20.886 0 0 1 4.106-4.213 41.994 41.994 0 0 1 5.891-3.106c-1.964-.786-4.535-1.071-5.713-2.5-1.928-2.428-4.57-6.034-3.928-8.319.928-3.249 1.464-7.891 6.177-9.248 2.214-.643 4.82-3 6.356-2.392 3.571 1.5 8.212 3.106 9.212 7.605.821 3.785 1.821 1.571 2.714.464s1.857-3.321 3.106-4.642a9.712 9.712 0 0 1 11-3.356 12.89 12.89 0 0 1 8.926 10.712c.536 5.106-2.5 8.5-6.713 11.247a9.462 9.462 0 0 1-11.89-.964 34.13 34.13 0 0 1-4.927-6.391c-.607-.786-1.143-2-2.142 0a11.248 11.248 0 0 1-7.141 7.32c-1.857.964-2 2.571 0 3.321 4.781 1.676 5.995 5.711 7.423 9.71ZM603.422 550.083a23.386 23.386 0 0 1-2.357-.75 11.068 11.068 0 0 1-6.034-5.606c-.821-1.821-2.357-4.677-1.643-5.677 2.071-2.785 1.821-7.748 6.356-8.284 2.428-.286 3.571-4.249 6.356-2.214s7.141 2.142 8.319 6.463a8.427 8.427 0 0 0 .786 2.25c.893 1.607 2.214 1.571 3.285.286s1.75-3.571 3.106-4.642a9.712 9.712 0 0 1 10.39-2.571 12.711 12.711 0 0 1 8.748 10.712 12.069 12.069 0 0 1-6.784 11.14c-4.535 2.928-8.248 1.321-11.89-1.071a15.031 15.031 0 0 1-5.213-8.034 4.856 4.856 0 0 0-.857-1.25c-.286.464-.571.893-.821 1.357-2.392 4.392-2.392 4.392-7.141 7.141q-2.678 1.535.214 3.571a26.388 26.388 0 0 1 2.714 1.678 11 11 0 0 1 4.249 10.926 14 14 0 0 1-10.1 9.641c-3.285 1.035-9.89-2.357-11.961-5.963a10.283 10.283 0 0 1 0-12.1 14.283 14.283 0 0 1 8.605-5.891 7.355 7.355 0 0 0 1.673-1.112ZM97.976 446.498a49.416 49.416 0 0 1 8.177 4.785 15.389 15.389 0 0 1 3.285 6.248c.286.75-.428 1.928-.785 2.856-1.5 4-3.142 7.677-8.177 8.534-1.642.25-1.464 2.035-.25 3.249h.821c8.962 4.856 9.319 15.282 0 20.566-2.5 1.464-2.428 1.642 0 3.571a19.681 19.681 0 0 1 2.607 1.928 10.212 10.212 0 0 1 3.82 11 13.1 13.1 0 0 1-10.39 9.248 10.712 10.712 0 0 1-10.712-5.07c-2.214-3.178-4.356-6.57-1.393-11.14a21.173 21.173 0 0 1 5.57-5.963 16.993 16.993 0 0 0 2-1.928c-.821-.5-1.642-.928-2.428-1.5a16.747 16.747 0 0 1-1.857-1.714c-6.57-6.284-5.534-14.282 2.535-18.817 1.607-.928 3.321-1.607 5-2.392a18.281 18.281 0 0 0-4.5-2.678c-3.928-1.071-3.035-5.213-5.034-7.534-.643-.75.536-3.321 1.178-4.927a10.712 10.712 0 0 1 2.785-4.642 45.2 45.2 0 0 1 7.748-3.678ZM148.357 180.779c-1.393-.857-2.035-1.214-2.606-1.642-1.5-1.143-3.571-2.071-4.392-3.571-2.036-3.572-3.79-6.536-1.072-11.177a12.176 12.176 0 0 1 10.712-7.32c5.284 0 8.534 3.571 10.962 8.212s0 8.034-2.464 11a27.957 27.957 0 0 1-7.391 4.642 14.566 14.566 0 0 0-1.178.893 4.213 4.213 0 0 0 1.392.786 9.89 9.89 0 0 1 6.749 5.817c1 1.678 2.142 4.392 1.428 5.677-1.678 3-2.035 7.141-6.32 8.391-2 .571-4.749 2.821-5.677 2.178-3.071-2.107-7.819-2.285-9-6.855a7.426 7.426 0 0 0-.678-2.285c-1.035-1.357-3.071-1.428-3.213 0a6.606 6.606 0 0 1-3.963 5.106c-3.356 1.892-6.605 3.82-11.176 1a11.5 11.5 0 0 1 1.179-21.71c4.642-2.214 7.962 0 11.033 2.642a28.208 28.208 0 0 1 4.427 6.677l1.035 1.75a10.463 10.463 0 0 0 .678-1.428 9.819 9.819 0 0 1 6.647-6.964 18.314 18.314 0 0 0 2.887-1.819ZM101.046 251.439a16.21 16.21 0 0 1-10.712-7.962 9.712 9.712 0 0 1 1.429-11.138c1.25-1.928 3.892-2.856 5.784-4.356 1.357-1.071 2.892-1.892-.571-2.714-4.392-1.071-5.677-5.713-7.784-9.212-.321-.5 0-1.607.357-2.249a36.849 36.849 0 0 0 2.821-4.82c1.464-4.285 6.07-3.571 8.712-5.856 2.464 2.535 7.462 1.321 8.569 6a14.568 14.568 0 0 0 2.357 4.142 17.532 17.532 0 0 0 1.821 1.821c.286-.678.928-1.464.821-2.071a4.642 4.642 0 0 1 2.857-4.785 17.21 17.21 0 0 1 7.141-3.178 12.14 12.14 0 0 1 6.713 2.071 11.318 11.318 0 0 1 3.82 4.356c.928 1.857 2.321 5.035 1.571 5.891-2.142 2.392-.536 6.356-3.892 7.927a30.778 30.778 0 0 1-7.143 3.352 10.069 10.069 0 0 1-6.782-1.819c-1.821-1.357-4.5-2.606-4.32-5.856a5.213 5.213 0 0 0-1.285-2.821c-.536-.75-1.393-2.214-2.071 0a9.748 9.748 0 0 1-7.142 7.14c-2.214.571-.964 1.464 0 2.071a36.6 36.6 0 0 1 4.106 2.466 11.426 11.426 0 0 1-1.106 19.457 26.992 26.992 0 0 1-6.07 2.142ZM455.959 76.16c2.357-2 1.393-5.427 3.571-7.962s6.141-1.035 7.962-3.892a36.67 36.67 0 0 1 7.391 2.785c2 1.25 4.249 3.071 3.57 6.177 4.035 2.964 0 5.963-.357 8.855a6.07 6.07 0 0 1-6.248 4.57c-.893 0-1.928.893-2.714 1.607a2.356 2.356 0 0 0 0 1.642 9.283 9.283 0 0 1 7.784 7.748 1.678 1.678 0 0 0 3.178 0 8.391 8.391 0 0 1 7.855-6.07c4.428-.643 10.5.536 12.354 4.142a14.282 14.282 0 0 1 .393 12.068c-1.678 4.392-6.463 4.749-10.1 6.07a9.141 9.141 0 0 1-6.57-2.178c-1.607-1.214-4.07-2.321-3.856-5.177a4.177 4.177 0 0 0-.536-2.357 9.533 9.533 0 0 0-1.785-1.821 5.213 5.213 0 0 0-1.035 1.678c-.857 5.142-5.749 5.606-9.069 7.891a2.856 2.856 0 0 1-2.285.25 17.853 17.853 0 0 1-10.717-10.711c-.286-.786.393-1.928.643-2.892a14.032 14.032 0 0 1 9.462-9.533c.571-.25.893-1.178 1.321-1.785-.5-.179-1.035-.643-1.464-.536-3.249.678-4.749-1.857-6.07-3.785a26.28 26.28 0 0 1-2.678-6.784ZM494.021 658.446a15.818 15.818 0 0 1-8.891 11.783c-4.285 2.071-7.141 0-10.462-1.964a12.248 12.248 0 0 1-3.321-3.571c-1.75-2.321-1.642-2.321-3.571 0-2.928 3.892-6.534 7.141-11.676 6.213a12.89 12.89 0 0 1-9.89-8.569 8.855 8.855 0 0 1 .214-7.141 12.425 12.425 0 0 1 10.212-8.141 11.14 11.14 0 0 1 11.176 6.677c1.5 2.535 1.607 2.428 3.57 0a13.533 13.533 0 0 1 3.571-4.356c3.571-1.75 6.57-3.571 11.212-.964s5.892 6.677 7.856 10.033ZM238.156 666.333c-1.892-3.106-5.463-1.75-8-3.892s-1.75-5.641-3.571-8.105c-.857-1.143.536-4.785 1.857-6.606s2.678-4.428 5.891-4.213c.928 0 1.928-.786 2.821-1.357s.75-.786 1.143-1.178c-.464-.286-1-.821-1.393-.75-3.106.607-4.82-1.571-6.177-3.571a11.783 11.783 0 0 1-2.464-6.57 15.71 15.71 0 0 1 2.749-7.141 5.57 5.57 0 0 1 6.32-3.213c3-4.285 5.856 1.678 8.819 0 1.607 2.178 4.963 3.249 4.178 6.855 3.571 2.928.393 6.106-.25 8.784a6.32 6.32 0 0 1-6.891 4.927c-.607 0-1.357.821-1.964 1.321a11.117 11.117 0 0 0-1.143 1.214c.464.25 1 .821 1.393.75 3.106-.607 4.82 1.571 6.177 3.571a11.783 11.783 0 0 1 2.464 6.57 15.354 15.354 0 0 1-2.749 7.32 5.927 5.927 0 0 1-6.356 3.321c-.784-.246-1.783 1.111-2.854 1.963ZM119.934 496.307a8.676 8.676 0 0 1 9.141 4.677c2.535 4.785.75 9-.607 13.354 0 .25-.357.428-.571.607-3.571 3.106-3.571 3.856 0 7.141a11.069 11.069 0 0 1 3.856 11.069 14.282 14.282 0 0 1-11.357 9.284 12.39 12.39 0 0 1-10.712-6.5 10.069 10.069 0 0 1 0-11.39 10.462 10.462 0 0 1 1.714-1.857c3.785-4.035 3.214-3.571.214-8.569a13.033 13.033 0 0 1-.821-13.247 8.784 8.784 0 0 1 9.141-4.57ZM202.236 629.811a13.318 13.318 0 0 1 12.283-11.926 12 12 0 0 1 0 23.994 13.318 13.318 0 0 1-12.283-12.068ZM527.869 101.618a13.211 13.211 0 0 1-11.783 12.39 13.532 13.532 0 0 1-12.211-11.14 12.033 12.033 0 1 1 23.994-1.25ZM579.642 599.032a13.247 13.247 0 0 1-12.354-11.819 13.639 13.639 0 0 1 11.212-12.176 13.461 13.461 0 0 1 12.783 11.426 13.247 13.247 0 0 1-11.64 12.568ZM550.15 125.93a12 12 0 1 1-12.283-11.711 12 12 0 0 1 12.283 11.711ZM652.767 480.776a12 12 0 1 1-11.569 12.426 12 12 0 0 1 11.569-12.426ZM99.546 277.147c-2.714-2.5-7.141-1.214-8.748-4.642-1.285-2.607-3.571-5.784-3.035-7.927.857-2.785.75-6.784 4.142-8.462 2.606-1.285 5.392-2.178 8.069-3.285 1.821 2.856 5.641 1.071 7.927 3.892s1.071 6 3.571 8.069c-2.321 2.357-1.25 6.141-4.035 8.676s-6.177.753-7.891 3.679ZM84.158 458.316c-1.178 2.571-2.249 5.284-3.571 7.855-1.75 3.392-5.713 3.035-8.569 4.035-1.892.643-4.785-1.642-7.141-2.606-3.82-1.5-3.249-5.677-4.427-8.462-.821-1.928 1.642-5.284 2.714-8 1.535-3.571 5.713-3 8.534-4.249 1.821-.857 5.284 1.607 7.891 2.892 3.284 1.68 2.07 6 4.569 8.535ZM629.201 502.877c2.5 2.535 6.855 1.285 8.534 4.713 1.25 2.571 3.571 6.034 2.892 7.891-1.25 2.785-.5 7.141-4.285 8.5-2.678 1.071-6.07 3.571-8 2.749-2.785-1.214-6.927-.643-8.427-4.463-.964-2.428-3.285-5.356-2.606-7.141.964-2.857.643-6.784 4.035-8.534 2.573-1.43 5.251-2.537 7.857-3.715ZM179.777 606.031c2.464-2.607 1-6.963 4.463-8.676 2.606-1.285 5.713-3.571 7.891-3.106 2.821.75 6.82.714 8.5 4.106 1.285 2.607 2.214 5.356 3.321 8.034-2.856 1.821-1 5.677-3.82 7.962s-5.927 1.214-8.034 3.571c-2.249-2.107-5.534-1.321-8.069-3.356s-1.431-6.5-4.252-8.535ZM576.143 126.181c-2.892 1.714-1.357 5.284-3.571 7.784s-6.32 1.714-8.712 4.035c-2.071-2.392-5.5-1.428-8.034-3.571s-1.035-6.141-3.892-7.962c1.071-2.678 2-5.463 3.249-8.034 1.678-3.571 5.677-3.321 8.5-4.178 2.142-.643 5.32 1.785 7.891 3.071 3.281 1.823 2.07 6.108 4.569 8.855ZM562.004 163.886c-2.535-2.428-6.855-1.214-8.534-4.606-1.285-2.606-3.571-5.891-2.964-7.927 1-2.821.75-6.855 4.249-8.462 2.642-1.214 5.391-2.107 8.105-3.178 2.107 2.749 6.855.821 8.319 4.749.928 2.464 3.356 5.427 2.642 7.141-1.107 2.856-.536 6.855-3.963 8.605-2.604 1.396-5.284 2.502-7.854 3.678ZM569.002 562.184c0-6.427 3.249-9.355 10.069-9.426s10.247 2.964 10.5 9.034a16.03 16.03 0 0 1 0 5.07 8.069 8.069 0 0 1-5.534 5.891 22.674 22.674 0 0 1-9.676-.286c-4.18-1.178-5.501-4.284-5.359-10.283ZM504.732 669.301c-6.463 0-9.391-3.249-9.426-10.069s2.964-10.247 9.033-10.462a16.071 16.071 0 0 1 5.07 0 8.1 8.1 0 0 1 5.891 5.534 22.531 22.531 0 0 1-.286 9.641c-1.069 4.18-4.428 5.498-10.282 5.356ZM272.397 62.592c7.141 0 10.319 2.928 10.39 9.962s-2.821 10.5-9.748 10.712c-7.82 0-10.462-2.749-10.926-10.355a9.212 9.212 0 0 1 10.284-10.319ZM97.869 444.784c-7.141 0-10.355-2.856-10.462-9.855 0-7.784 2.428-10.712 9.676-10.712 7.819 0 10.712 2.785 10.712 10.319s-2.785 10.213-9.926 10.248Z"/><path d="M524.441 126.005c0 7.141-2.964 10.247-10.033 10.283-7.962 0-10.712-2.642-10.533-10.712 0-7.141 3.213-9.926 10.462-9.89s10.104 3.107 10.104 10.319ZM644.412 273.219c0 7.141-2.892 10.39-9.89 10.462-7.748 0-10.712-2.392-10.712-9.641 0-7.82 2.785-10.926 10.319-10.926s10.247 2.999 10.283 10.105ZM394.188 656.982c0 7.141-2.856 10.426-9.819 10.5-7.712 0-10.712-2.5-10.712-9.6 0-7.855 2.785-10.926 10.247-10.962s10.212 3.1 10.284 10.062ZM349.628 657.517c0-7.141 2.892-10.39 9.89-10.5 7.748 0 10.712 2.428 10.712 9.676 0 7.82-2.785 10.926-10.319 10.89s-10.247-2.96-10.283-10.066ZM629.344 480.775c7.141 0 9.64 3.214 10.033 10.426a9.533 9.533 0 0 1-11.176 10.247c-6.784-.571-9.6-3.571-9.5-10.926.11-6.926 3.288-9.818 10.643-9.747ZM335.631 645.306a9.212 9.212 0 0 1 10.712 9.855c-.357 7.641-2.642 10.712-9.712 10.712-7.855 0-10.962-2.749-10.962-10.247s2.821-10.248 9.962-10.32ZM185.097 168.459c0 7.784-2.428 10.712-9.676 10.712s-10.39-2.714-11-9.426a9.533 9.533 0 0 1 10.215-11.213c7.248.322 10.354 2.928 10.461 9.927ZM491.878 635.559c0 7.141-3.178 9.641-10.426 10.033a9.533 9.533 0 0 1-10.247-11.14c.571-6.784 3.57-9.64 10.962-9.533 6.998-.071 9.783 3.106 9.711 10.64ZM666.692 370.695c0 7.784-2.428 10.712-9.676 10.712s-10.39-2.714-11-9.426a9.533 9.533 0 0 1 10.212-11.212c7.249.322 10.393 2.928 10.464 9.926ZM565.574 586.822c0 7.141-2.892 10.426-9.855 10.5-7.712 0-10.712-2.464-10.712-9.6 0-7.855 2.785-10.962 10.283-10.962s10.213 2.991 10.284 10.062ZM689.116 445.141c0 7.141-3.178 9.64-10.426 10.033a9.533 9.533 0 0 1-10.247-11.14c.571-6.784 3.57-9.64 10.962-9.533 6.747.143 9.711 3.285 9.711 10.64ZM296.677 108.87c-7.141 0-10.355-2.856-10.462-9.855 0-7.784 2.428-10.712 9.676-10.712 7.819 0 10.712 2.785 10.712 10.319s-2.785 10.209-9.926 10.248ZM98.547 299.105c-6.462-.143-9.283-3.249-9.283-9.89s2.964-10.247 9.033-10.462a16.067 16.067 0 0 1 5.07 0 8.105 8.105 0 0 1 5.897 5.534 22.53 22.53 0 0 1-.286 9.64c-1.214 4-4.432 5.321-10.431 5.178ZM85.693 263.114c0 7.141-2.964 10.247-10.033 10.283-7.962 0-10.712-2.642-10.712-10.712 0-7.141 3.213-9.926 10.462-9.89s10.283 3.107 10.283 10.319ZM664.979 395.082c0 7.141-2.964 10.248-10.069 10.283-7.927 0-10.712-2.678-10.5-10.712 0-7.141 3.214-9.926 10.5-9.89s10.069 3.14 10.069 10.319ZM190.417 640.169c-7.141 0-10.355-2.856-10.462-9.855 0-7.784 2.428-10.712 9.676-10.712 7.819 0 10.712 2.785 10.712 10.319s-2.788 10.209-9.926 10.248ZM663.265 517.731c0 6.463-3.249 9.391-10.069 9.426s-10.247-2.928-10.5-9a16.031 16.031 0 0 1 0-5.07 8.069 8.069 0 0 1 5.534-5.891 22.494 22.494 0 0 1 9.64.286c4.216.93 5.537 4.179 5.395 10.249ZM431.786 671.015c7.141 0 10.319 2.928 10.39 9.962s-2.821 10.5-9.748 10.712c-7.82 0-10.462-2.749-10.926-10.355a9.212 9.212 0 0 1 10.283-10.319ZM452.459 99.976c0 7.784-2.392 10.712-9.676 10.712s-10.39-2.714-11-9.462a9.5 9.5 0 0 1 10.212-11.176c7.248.251 10.393 2.785 10.464 9.926ZM640.984 467.065a10.283 10.283 0 1 1-10.283-10.283 9.64 9.64 0 0 1 10.283 10.283ZM589.568 612.779a10.283 10.283 0 1 1-10.283-10.319 9.64 9.64 0 0 1 10.283 10.319ZM107.974 360.805a9.64 9.64 0 0 1-10.247 10.283 10.283 10.283 0 0 1 0-20.566 9.64 9.64 0 0 1 10.247 10.283ZM505.981 621.275a10.283 10.283 0 1 1 9.89-10.712 9.712 9.712 0 0 1-9.89 10.712ZM491.878 610.922a10.283 10.283 0 1 1-10.39-10.176 9.641 9.641 0 0 1 10.39 10.176ZM610.099 235.656a10.283 10.283 0 1 1 10.319-10.247 9.64 9.64 0 0 1-10.319 10.247ZM143.857 521.908a10.283 10.283 0 1 1-10.176 10.426 9.676 9.676 0 0 1 10.176-10.426ZM668.406 225.802a10.283 10.283 0 1 1-9.89-10.712 9.712 9.712 0 0 1 9.89 10.712ZM124.966 251.117a10.283 10.283 0 1 1 10.286-10.283 10.283 10.283 0 0 1-10.286 10.283ZM620.417 249.546a10.283 10.283 0 1 1-10.176-10.319 9.64 9.64 0 0 1 10.176 10.319ZM274.218 629.918a10.283 10.283 0 1 1-10.283-10.319 9.64 9.64 0 0 1 10.283 10.319ZM298.212 631.239a10.283 10.283 0 1 1-10.712-9.926 9.676 9.676 0 0 1 10.712 9.926ZM380.477 50.595a10.283 10.283 0 1 1-10.283-10.283 10.283 10.283 0 0 1 10.283 10.283ZM404.471 50.595a10.283 10.283 0 1 1-10.286-10.283 10.283 10.283 0 0 1 10.286 10.283ZM311.53 621.277a10.283 10.283 0 1 1-9.89 10.712 9.748 9.748 0 0 1 9.89-10.712ZM335.917 641.879a10.283 10.283 0 1 1 10.426-10.248 9.64 9.64 0 0 1-10.426 10.248ZM132.111 458.887a9.712 9.712 0 0 1-10.712 9.89 10.291 10.291 0 0 1 .786-20.566 9.712 9.712 0 0 1 9.926 10.676ZM106.26 530.124a9.676 9.676 0 0 1-9.89 10.712 10.291 10.291 0 0 1-.786-20.566 9.748 9.748 0 0 1 10.676 9.854ZM417.933 90.013a9.712 9.712 0 0 1 10.533 9.965 10.286 10.286 0 1 1-20.566.464 9.712 9.712 0 0 1 10.033-10.426ZM239.834 595.604a10.283 10.283 0 1 1-10.176 10.426 9.676 9.676 0 0 1 10.176-10.426ZM216.054 616.171a10.283 10.283 0 1 1 10.176-10.39 9.64 9.64 0 0 1-10.176 10.39ZM410.006 623.026a10.283 10.283 0 1 1-10.712 9.926 9.712 9.712 0 0 1 10.712-9.926ZM443.89 633.56a10.283 10.283 0 1 1-10.033-10.529 9.676 9.676 0 0 1 10.033 10.533ZM467.737 633.095a10.283 10.283 0 1 1-10.533-10.069 9.676 9.676 0 0 1 10.533 10.069ZM491.878 66.02a9.64 9.64 0 0 1 10.283 10.283 10.283 10.283 0 1 1-20.566 0 9.676 9.676 0 0 1 10.283-10.283ZM615.276 515.053a10.283 10.283 0 1 1-10.283-10.283 9.64 9.64 0 0 1 10.283 10.283ZM553.435 624.848a10.283 10.283 0 1 1-10.283 10.319 9.64 9.64 0 0 1 10.283-10.319ZM613.563 589.142a10.283 10.283 0 1 1-10.033-10.712 9.676 9.676 0 0 1 10.033 10.712ZM224.515 653.876a10.283 10.283 0 1 1-10.286-10.283 9.64 9.64 0 0 1 10.286 10.283ZM296.355 679.584a10.283 10.283 0 1 1-10.319-10.283 9.641 9.641 0 0 1 10.319 10.283ZM466.17 683.048a10.283 10.283 0 1 1-10.247-10.319 9.641 9.641 0 0 1 10.247 10.319ZM330.775 98.833a10.286 10.286 0 1 1-10.048-10.515 10.286 10.286 0 0 1 10.051 10.515ZM346.593 88.3a9.712 9.712 0 0 1 9.89 10.712 10.29 10.29 0 1 1-20.566-.75 9.748 9.748 0 0 1 10.676-9.962ZM369.944 108.866a9.676 9.676 0 0 1-10.033-10.5 10.286 10.286 0 1 1 20.566.464 9.676 9.676 0 0 1-10.533 10.033ZM531.333 576.751a10.283 10.283 0 1 1-10.319 10.283 9.641 9.641 0 0 1 10.319-10.283ZM395.26 90.049c3.249-.964 4.642 1.964 6.855 3.571 2.892 2.035 2 4.892 2.428 7.57.571 3.571-2.035 4.892-3.571 7.141-2.071 2.856-4.927 1.964-7.605 2.428-3.571.571-4.856-2.035-7.141-3.571-2.892-2.035-2-4.892-2.428-7.57-.571-3.571 1.714-5.106 3.571-7.141 2.713-2.571 2.713-2.535 7.891-2.428ZM539.759 112.294a9.64 9.64 0 0 1-10.176-10.39 10.284 10.284 0 1 1 20.566.25 9.64 9.64 0 0 1-10.39 10.14ZM185.097 120.863a10.283 10.283 0 1 1-10.283-10.283 10.283 10.283 0 0 1 10.283 10.283ZM258.793 120.899a10.283 10.283 0 1 1-10.286-10.283 10.283 10.283 0 0 1 10.286 10.283ZM272.54 132.861a9.64 9.64 0 0 1-10.319-10.248 10.283 10.283 0 1 1 20.566 0 9.64 9.64 0 0 1-10.247 10.248ZM467.242 114.043c3.249-.964 4.642 1.964 6.855 3.571 2.892 2.035 2 4.892 2.428 7.57.571 3.571-2.035 4.892-3.571 7.141-2.071 2.856-4.927 1.964-7.605 2.428-3.571.571-4.856-2.035-7.141-3.571-2.892-2.035-2-4.892-2.428-7.57-.571-3.571 1.714-5.106 3.571-7.141 2.715-2.571 2.715-2.535 7.891-2.428ZM490.059 115.722a9.676 9.676 0 0 1 10.39 10.176 10.284 10.284 0 1 1-20.566.25 9.676 9.676 0 0 1 10.176-10.426ZM191.56 590.463a10.283 10.283 0 1 1 10.712-9.89 9.676 9.676 0 0 1-10.712 9.89ZM151.927 132.86c3.214-.928 4.606 2 6.82 3.571 2.892 2.035 2 4.892 2.428 7.57.571 3.571-2.035 4.892-3.571 7.141-2.071 2.856-4.927 1.964-7.605 2.428-3.571.571-4.856-2.035-7.141-3.571-2.892-2.035-2-4.892-2.428-7.57-.571-3.571 2.035-4.892 3.571-7.141 2.141-2.928 4.927-2.321 7.926-2.428ZM222.909 134.574a10.283 10.283 0 1 1-10.391 10.176 9.676 9.676 0 0 1 10.391-10.176ZM628.987 575.039a10.283 10.283 0 1 1 10.283-10.247 9.64 9.64 0 0 1-10.283 10.247ZM565.575 563.434a10.283 10.283 0 1 1-9.89-10.712 9.712 9.712 0 0 1 9.89 10.712ZM514.155 160.286a10.283 10.283 0 1 1 10.283-10.319 9.64 9.64 0 0 1-10.283 10.319ZM548.432 150.249a10.283 10.283 0 1 1-10.033-10.533 9.676 9.676 0 0 1 10.033 10.533ZM137.109 167.138a9.64 9.64 0 0 1-10.283 10.283 10.283 10.283 0 0 1 0-20.566 9.64 9.64 0 0 1 10.283 10.283ZM178.242 556.581a10.283 10.283 0 1 1-9.89-10.712 9.712 9.712 0 0 1 9.89 10.712ZM209.091 168.638a10.283 10.283 0 1 1-10.712-10.069 9.676 9.676 0 0 1 10.712 10.069ZM678.582 479.061a10.283 10.283 0 1 1 10.39-10.14 9.64 9.64 0 0 1-10.39 10.14ZM591.282 539.154a10.283 10.283 0 1 1-10.283-10.283 9.64 9.64 0 0 1 10.283 10.283ZM154.248 508.34a10.283 10.283 0 1 1-10.176-10.426 9.64 9.64 0 0 1 10.176 10.426ZM632.45 355.664a10.283 10.283 0 1 1 10.247-10.283 9.641 9.641 0 0 1-10.247 10.283ZM97.654 419.076a10.283 10.283 0 1 1 10.283-10.283 10.283 10.283 0 0 1-10.283 10.283ZM109.687 336.811a9.641 9.641 0 0 1-10.283 10.283 10.283 10.283 0 0 1 0-20.566 9.64 9.64 0 0 1 10.283 10.283ZM572.43 175.85a10.283 10.283 0 1 1-10.176-10.426 9.641 9.641 0 0 1 10.176 10.426ZM120.078 492.737a10.284 10.284 0 1 1 10.176-10.39 10.284 10.284 0 0 1-10.176 10.39ZM185.097 193.239a10.283 10.283 0 1 1-9.89-10.712 9.712 9.712 0 0 1 9.89 10.712ZM73.089 472.206c3.213-.928 4.606 2 6.82 3.571 2.892 2.035 2 4.892 2.428 7.57.571 3.571-2.035 4.892-3.571 7.141-2.071 2.856-4.927 1.964-7.605 2.428-3.571.571-4.856-2.035-7.141-3.571-2.892-2.035-2-4.892-2.428-7.57-.571-3.571 2.035-4.892 3.571-7.141 2.142-2.928 4.927-2.321 7.926-2.428ZM642.698 321.779a10.283 10.283 0 1 1-9.891-10.712 9.712 9.712 0 0 1 9.891 10.712ZM135.395 264.83a9.641 9.641 0 0 1-10.429 10.281 10.283 10.283 0 0 1 0-20.566 9.641 9.641 0 0 1 10.429 10.285ZM630.701 429.359a10.283 10.283 0 1 1 10.283-10.283 9.641 9.641 0 0 1-10.283 10.283ZM100.511 302.533c3.213-.928 4.606 2 6.82 3.571 2.892 2.035 2 4.892 2.428 7.57.571 3.571-2.035 4.892-3.571 7.141-2.071 2.856-4.927 1.964-7.605 2.428-3.571.571-4.856-2.035-7.141-3.571-2.892-2.035-2-4.892-2.428-7.57-.571-3.571 2.035-4.892 3.571-7.141 2.141-2.928 4.927-2.321 7.926-2.428ZM692.4 299.355a10.283 10.283 0 1 1-10.033-10.712 9.676 9.676 0 0 1 10.033 10.712ZM59.985 385.049a9.676 9.676 0 0 1-10.712 10.033 10.286 10.286 0 0 1 .5-20.566 9.712 9.712 0 0 1 10.212 10.533ZM596.281 199.951a10.283 10.283 0 1 1-10.176-10.426 9.64 9.64 0 0 1 10.176 10.426ZM632.415 307.674a10.283 10.283 0 1 1 10.283-10.283 9.641 9.641 0 0 1-10.283 10.283ZM149.498 227.123a10.283 10.283 0 1 1 9.891-10.711 9.712 9.712 0 0 1-9.89 10.712ZM640.984 442.963a10.283 10.283 0 1 1-10.39-10.176 9.64 9.64 0 0 1 10.39 10.176ZM97.726 374.516a10.283 10.283 0 1 1-10.283 10.283 10.283 10.283 0 0 1 10.283-10.283ZM123.398 299.105a10.283 10.283 0 1 1 10.283-10.283 10.283 10.283 0 0 1-10.283 10.283ZM59.985 360.84a9.64 9.64 0 0 1-10.319 10.247 10.283 10.283 0 0 1 0-20.566 9.64 9.64 0 0 1 10.319 10.319ZM594.71 491.058a10.283 10.283 0 1 1 10.283 10.283 9.64 9.64 0 0 1-10.283-10.283ZM430.179 52.308a10.283 10.283 0 1 1-10.286-10.283 10.283 10.283 0 0 1 10.283 10.283ZM642.698 371.337a10.283 10.283 0 1 1-10.176-10.426 10.712 10.712 0 0 1 10.176 10.426ZM178.242 532.338a10.283 10.283 0 1 1-10.176-10.43 10.712 10.712 0 0 1 10.176 10.43ZM467.742 609.565a10.319 10.319 0 0 1-10.533 9.962 10.206 10.206 0 1 1 10.533-9.962ZM423.324 609.315a10.283 10.283 0 1 1 10.283 10.283 10.712 10.712 0 0 1-10.283-10.283ZM529.691 648.734a10.283 10.283 0 1 1-10.39 10.176 10.712 10.712 0 0 1 10.39-10.176ZM322.313 40.312a10.712 10.712 0 0 1 10.176 10.426 10.284 10.284 0 1 1-20.566-.25 10.712 10.712 0 0 1 10.39-10.176ZM356.483 50.734a10.284 10.284 0 1 1-10.158-10.4 10.284 10.284 0 0 1 10.158 10.4ZM288.036 617.885a10.283 10.283 0 1 1 10.176-10.39 10.712 10.712 0 0 1-10.176 10.39ZM616.99 442.749a9.961 9.961 0 1 1-10.5-9.676 10.283 10.283 0 0 1 10.5 9.676ZM258.793 72.875a10.283 10.283 0 1 1-10.286-10.283 10.283 10.283 0 0 1 10.286 10.283ZM630.452 405.365a10.224 10.224 0 1 1 10.426-10.033 10.14 10.14 0 0 1-10.426 10.033ZM142.358 593.891a10.283 10.283 0 1 1-10.248 10.176 10.712 10.712 0 0 1 10.248-10.176ZM262.471 669.3a10.283 10.283 0 0 1 9.926 10.712 10.186 10.186 0 1 1-9.926-10.712ZM581.356 525.336a10.212 10.212 0 1 1 7.121-3.279 10.176 10.176 0 0 1-7.121 3.279ZM541.58 562.934a10.283 10.283 0 1 1-10.386-10.176 10.712 10.712 0 0 1 10.386 10.176ZM200.522 107.117a10.283 10.283 0 1 1 10.14-10.212 10.712 10.712 0 0 1-10.14 10.212ZM548.436 175.493a9.977 9.977 0 1 1-10.533-9.962 10.283 10.283 0 0 1 10.533 9.962ZM274.218 605.92a10.283 10.283 0 1 1-10.283-10.28 10.712 10.712 0 0 1 10.283 10.28ZM178.241 508.197a10.283 10.283 0 1 1-10.426-10.247 10.712 10.712 0 0 1 10.426 10.247ZM596.281 247.582a10.283 10.283 0 1 1-10.39-10.176 10.712 10.712 0 0 1 10.39 10.176ZM608.528 287.108a10.283 10.283 0 1 1-10.39 10.176 10.712 10.712 0 0 1 10.39-10.176ZM145.576 492.737a10.283 10.283 0 1 1 10.39-10.14 10.712 10.712 0 0 1-10.39 10.14ZM615.276 466.85a9.977 9.977 0 1 1-10.533-9.962 10.283 10.283 0 0 1 10.533 9.962ZM272.611 136.288a10.283 10.283 0 1 1-10.39 10.1 10.712 10.712 0 0 1 10.39-10.1ZM500.447 150.391a10.248 10.248 0 1 1-2.8-7.366 10.212 10.212 0 0 1 2.8 7.366ZM233.085 169.101a10.064 10.064 0 1 1-10.212-10.426 10.176 10.176 0 0 1 10.212 10.426ZM111.401 191.167a10.283 10.283 0 1 1-10.283-10.283 10.712 10.712 0 0 1 10.283 10.283ZM258.793 145.25a10.247 10.247 0 1 1-2.8-7.366 10.248 10.248 0 0 1 2.8 7.366ZM545.008 539.151a10.283 10.283 0 1 1 10.283 10.283 10.712 10.712 0 0 1-10.283-10.283ZM608.418 263.114a10.712 10.712 0 0 1 10.283 10.319 10.283 10.283 0 1 1-10.283-10.319ZM561.789 209.984a10.176 10.176 0 1 1 7.351-2.776 10.211 10.211 0 0 1-7.351 2.776ZM209.091 192.807a10.283 10.283 0 1 1-10.283-10.28 10.712 10.712 0 0 1 10.283 10.28ZM202.236 555.829a10.24 10.24 0 1 1-10.64-9.641 10.176 10.176 0 0 1 10.64 9.641ZM587.854 117.436a10.283 10.283 0 0 1 0 20.566 10.712 10.712 0 0 1-10.283-10.247 10.712 10.712 0 0 1 10.283-10.319ZM162.817 216.84a10.283 10.283 0 1 1 10.283 10.283 10.712 10.712 0 0 1-10.283-10.283ZM596.281 223.842a10.283 10.283 0 1 1-10.176-10.43 10.712 10.712 0 0 1 10.176 10.43ZM442.176 134.578a10.283 10.283 0 1 1 10.283-10.247 10.712 10.712 0 0 1-10.283 10.247ZM49.702 347.09a10.283 10.283 0 1 1 0-20.531 10.283 10.283 0 1 1 0 20.531ZM133.681 360.84a10.283 10.283 0 1 1-10.283-10.283 10.712 10.712 0 0 1 10.283 10.283ZM428.465 123.934a10.043 10.043 0 1 1-10.712-9.676 10.247 10.247 0 0 1 10.712 9.676ZM692.4 274.935a10.223 10.223 0 1 1-10.426-10 10.283 10.283 0 0 1 10.426 10ZM121.684 400.224a10.283 10.283 0 1 1-10.283 10.39 10.712 10.712 0 0 1 10.283-10.39ZM404.471 124.292a10.283 10.283 0 1 1-10.286-10.248 10.712 10.712 0 0 1 10.283 10.247ZM87.407 239.227a10.283 10.283 0 1 1-10.176-10.426 10.712 10.712 0 0 1 10.176 10.426ZM49.594 419.076a10.284 10.284 0 1 1 10.391-10.177 10.284 10.284 0 0 1-10.39 10.176ZM138.823 240.981a10.283 10.283 0 1 1 10.39 10.14 10.712 10.712 0 0 1-10.39-10.14ZM121.791 396.796a10.283 10.283 0 1 1 10.319-10.39 10.712 10.712 0 0 1-10.319 10.39ZM159.389 265.22a10.248 10.248 0 1 1-2.8-7.366 10.212 10.212 0 0 1 2.8 7.366ZM123.505 323.104a10.283 10.283 0 1 1 10.176-10.39 10.712 10.712 0 0 1-10.176 10.39ZM524.441 173.993a10.283 10.283 0 1 1-10.286-10.247 10.712 10.712 0 0 1 10.286 10.247ZM359.908 641.878a10.283 10.283 0 1 1 10.283-10.283 10.712 10.712 0 0 1-10.283 10.283ZM383.798 643.593a10.283 10.283 0 1 1 10.39-10.14 10.712 10.712 0 0 1-10.39 10.14ZM61.699 311.495a10.247 10.247 0 0 1-10.712 9.819 10.212 10.212 0 0 1 .714-20.388 10.247 10.247 0 0 1 10 10.569ZM132.111 434.502a10.283 10.283 0 1 1-10.284-10.248 10.712 10.712 0 0 1 10.283 10.248ZM358.197 124.291a10.283 10.283 0 1 1 10.28 10.287 10.712 10.712 0 0 1-10.28-10.287ZM133.682 336.811a10.283 10.283 0 1 1-10.284-10.248 10.712 10.712 0 0 1 10.284 10.248ZM622.132 151.713a10.283 10.283 0 1 1-10.284-10.248 10.712 10.712 0 0 1 10.283 10.248ZM226.23 582a10.283 10.283 0 1 1-10.176-10.426A10.712 10.712 0 0 1 226.23 582ZM344.486 112.294a10.712 10.712 0 0 1 10.283 10.319 10.283 10.283 0 1 1-10.283-10.319ZM320.6 112.294a10.283 10.283 0 1 1-10.391 10.176 10.712 10.712 0 0 1 10.391-10.176ZM296.352 112.294a10.283 10.283 0 0 1 0 20.566 10.712 10.712 0 0 1-10.28-10.247 10.712 10.712 0 0 1 10.28-10.319ZM240.191 571.61a10.283 10.283 0 0 1 9.926 10.39 10.179 10.179 0 1 1-9.926-10.39ZM517.729 587.071a10.283 10.283 0 1 1-10.283-10.283 10.712 10.712 0 0 1 10.283 10.283ZM312.28 597.319c3.82.179 10.176 7.141 9.926 10.712s-7.355 10.069-11.069 9.712a15.282 15.282 0 0 1-9.5-10.39c.074-3.75 6.823-10.177 10.643-10.034ZM526.155 78.017c0 3.892-6.641 10.39-10.5 10.283s-10.245-6.891-10.069-10.711a15.532 15.532 0 0 1 10.072-9.748 14.282 14.282 0 0 1 10.497 10.176ZM145.071 469.029a16.605 16.605 0 0 1-3.285-1.642 38.527 38.527 0 0 1-3.571-3.571c-3.892-4.07-3.892-6.534 0-10.712a34.636 34.636 0 0 1 3.571-3.571 7.355 7.355 0 0 1 3.571-1.357c4.356-.25 10.962 6.784 10.5 11.069a4.535 4.535 0 0 1-.643 2.285 83.669 83.669 0 0 1-6.677 6.641c-.61.715-1.967.572-3.466.858ZM166.602 638.451c-3.82.179-10.712-6.248-10.712-10.1s6.463-10.462 10.355-10.462a15.5 15.5 0 0 1 10.212 9.712c.321 3.781-5.999 10.708-9.855 10.85ZM128.789 580.787a17.852 17.852 0 0 1-1.642 3.321 34.7 34.7 0 0 1-3.571 3.571c-4.035 3.892-6.534 3.892-10.712 0a24.78 24.78 0 0 1-3.571-3.571 7.141 7.141 0 0 1-1.357-3.57c-.286-3.82 6.356-10.712 10.212-10.462a5.355 5.355 0 0 1 3.106.643 68.592 68.592 0 0 1 6.641 6.641c.644.57.644 1.963.894 3.427ZM572.43 224.052c0 3.856-7.141 10.212-10.712 9.926s-10.069-7.32-9.712-11.033a15.46 15.46 0 0 1 10.426-9.533c3.714.071 10.14 6.855 9.998 10.64ZM618.954 321.992a17.853 17.853 0 0 1-1.642 3.321 34.71 34.71 0 0 1-3.57 3.571c-4.035 3.892-6.534 3.892-10.712 0a24.775 24.775 0 0 1-3.57-3.571 7.141 7.141 0 0 1-1.357-3.571c-.287-4.358 6.783-10.925 11.068-10.458a4 4 0 0 1 2.285.643 89.643 89.643 0 0 1 6.641 6.641c.714.568.571 1.961.857 3.424ZM466.17 160.283c-3.856 0-10.39-6.641-10.283-10.462s6.927-10.283 10.712-10.1a15.425 15.425 0 0 1 9.855 10.248c.106 3.565-6.428 10.314-10.284 10.314ZM663.336 541.403a10.712 10.712 0 0 1-1.642 3.571c-7.141 7.855-9.033 9.462-17.174.321a6 6 0 0 1 0-8.748c1.357-1.464 2.964-2.714 4.178-4.285a4.784 4.784 0 0 1 4.5-1.643 15.354 15.354 0 0 1 10.138 10.784ZM216.232 547.616c3.82 0 10.212 7.141 10 10.712a15.425 15.425 0 0 1-10.14 9.748 14 14 0 0 1-10.429-10.355 14.282 14.282 0 0 1 10.569-10.105ZM58.271 432.573c.25 3.392-6.748 10.5-10.283 10.5s-9.748-6.213-10.283-9.64 6.106-10.5 9.855-10.926 10.426 6.353 10.711 10.066ZM157.675 312.924c0 3.571-7.141 10.5-10.712 10.176s-10.426-7.5-10-10.712a16.46 16.46 0 0 1 10.14-9.783c3.538-.255 10.679 6.855 10.572 10.319ZM616.99 418.862c.25 3.571-6.748 10.5-10.283 10.5s-9.748-6.213-10.283-9.641 6.106-10.5 9.855-10.926 10.426 6.354 10.711 10.067ZM618.668 345.202a26.173 26.173 0 0 1-2.142 4.856 9.176 9.176 0 0 1-15.96.321 7.32 7.32 0 0 1 0-9.962 9.212 9.212 0 0 1 16 .321 30.5 30.5 0 0 1 2.107 4.463ZM541.581 539.154c-.214 3.571-7.32 10.5-10.712 10.14s-10.39-7.605-9.926-10.712a16.425 16.425 0 0 1 10.212-9.748c3.534-.141 10.64 6.964 10.426 10.32ZM95.833 544.188c3.392 0 10.533 6.891 10.426 10.355a16.353 16.353 0 0 1-9.855 10.212c-3.249.464-10.462-6.141-10.712-9.926s6.428-10.391 10.141-10.641ZM507.018 552.722c3.892.393 10.712 6.891 10.355 10.033a14.283 14.283 0 0 1-3.928 6.82c-4.142 4.463-8.069 4.5-12.283 0-5.749-5.891-4.749-8.391.214-13.5a25.572 25.572 0 0 1 5.642-3.356ZM274.503 582a41.81 41.81 0 0 1-4.392 6.427c-4.177 4.392-7.927 4.32-12.318 0s-5.034-8.177-.964-12.354c5.784-5.927 8.534-5.606 14.1 0A30.172 30.172 0 0 1 274.5 582ZM483.167 575.038c3.571-.179 10.712 6.891 10.426 10.355a16.353 16.353 0 0 1-9.712 10.212c-3.249.464-10.462-6.141-10.712-9.926s6.284-10.393 9.998-10.641ZM361.768 597.318c3.571.25 10.462 7.355 10.14 10.712s-7.605 10.39-10.712 9.926a16.353 16.353 0 0 1-9.712-10.212c-.249-3.534 6.892-10.604 10.284-10.426ZM409.435 599.104a25.674 25.674 0 0 1 4.82 2.107 9.212 9.212 0 0 1 .357 16 7.427 7.427 0 0 1-10 0 9.212 9.212 0 0 1 .321-16 29.317 29.317 0 0 1 4.5-2.107ZM192.131 542.439a26.742 26.742 0 0 1-4.82-2.107 9.212 9.212 0 0 1-.357-16 7.427 7.427 0 0 1 10 0 9.212 9.212 0 0 1-.321 16 29.316 29.316 0 0 1-4.502 2.107ZM443.926 62.627a35.2 35.2 0 0 1-5.356-2.821c-5.784-4.5-5.784-10.069-.214-14.782a7.5 7.5 0 0 1 10.712-.5 9.176 9.176 0 0 1-.428 16 34.527 34.527 0 0 1-4.714 2.103ZM557.219 504.769c3.571.286 10.426 7.427 10.069 10.712s-7.748 10.355-10.926 9.855-9.641-7.141-9.641-10.283 7.142-10.498 10.498-10.284ZM616.99 394.868c.25 3.571-6.748 10.5-10.283 10.5s-9.748-6.213-10.283-9.641 6.106-10.5 9.855-10.926 10.426 6.354 10.711 10.067ZM346.343 606.995c-.357 4.07-6.748 10.712-10 10.712a11.282 11.282 0 0 1-5.677-2.678c-5.749-4.463-5.749-10-.286-14.711a7.141 7.141 0 0 1 11.1.179 40.742 40.742 0 0 1 4.856 6.5ZM296.356 136.252c3.892.393 10.712 6.891 10.355 10.033a14.532 14.532 0 0 1-3.928 6.855c-4.178 4.428-8.069 4.463-12.283 0-5.749-5.891-4.713-8.391.214-13.5a25.565 25.565 0 0 1 5.641-3.392ZM330.775 146.64c0 3.571-7.141 10.712-10.712 10.212s-10.39-7.5-10-10.712a16.425 16.425 0 0 1 10.14-9.819c3.538-.212 10.679 6.858 10.572 10.319ZM441.962 138.002c3.356-.214 10.5 6.748 10.5 10.283s-6.144 9.784-9.714 10.284-10.5-6.07-10.926-9.855 6.427-10.426 10.14-10.712ZM257.079 170.673c0 3.571-7.141 10.5-10.712 10.176s-10.426-7.5-10-10.712a16.46 16.46 0 0 1 10.14-9.783c3.431-.25 10.572 6.855 10.572 10.319ZM489.986 163.781a25.67 25.67 0 0 1 4.82 2.107 9.212 9.212 0 0 1 .357 16 7.427 7.427 0 0 1-10 0 9.212 9.212 0 0 1 .321-16 29.314 29.314 0 0 1 4.5-2.107ZM635.771 185.99c-3.571 0-10.5-7.141-10.212-10.712s7.534-10.39 10.712-10a16.389 16.389 0 0 1 10 10.283c-.003 3.395-7.144 10.536-10.5 10.429ZM61.699 506.412c0-3.571 7.141-10.5 10.712-10.212s10.39 7.534 10 10.712a16.389 16.389 0 0 1-10.14 9.783c-3.538.286-10.679-6.82-10.572-10.283ZM233.157 192.811c-.393 3.856-6.891 10.712-10.033 10.319a14.282 14.282 0 0 1-6.855-3.892c-4.463-4.178-4.463-8.105 0-12.318 5.891-5.713 8.391-4.713 13.532.25a26.065 26.065 0 0 1 3.356 5.641ZM668.405 492.737c0-3.571 7.141-10.5 10.712-10.212s10.39 7.534 10 10.712a16.389 16.389 0 0 1-10.14 9.783c-3.537.429-10.678-6.712-10.572-10.283ZM548.435 199.523c.25 3.356-6.748 10.462-10.283 10.462s-9.748-6.213-10.283-9.641 6.106-10.5 9.855-10.926 10.426 6.356 10.711 10.105ZM209.091 217.054c-.286 3.749-7.427 10.462-10.712 10.069s-10.355-7.712-9.855-10.712 7.142-9.676 10.283-9.676 10.534 6.963 10.284 10.319ZM591.282 491.13c0 3.571-7.141 10.533-10.712 10.212s-10.39-7.5-10-10.712a16.424 16.424 0 0 1 10.14-9.819c3.538-.214 10.679 6.856 10.572 10.319ZM173.635 251.189c-4.106-.321-10.89-6.713-10.712-9.962a11.747 11.747 0 0 1 2.714-5.57c4.463-5.784 10.069-5.82 14.782-.25a7.355 7.355 0 0 1-.179 10.962 44.418 44.418 0 0 1-6.605 4.82ZM179.956 484.203c0 3.571-7.141 10.533-10.5 10.283s-10.426-7.391-10.069-10.712a16.46 16.46 0 0 1 10.069-9.89c3.359-.178 10.5 6.784 10.5 10.319ZM385.62 599.104a25.674 25.674 0 0 1 4.82 2.107 9.212 9.212 0 0 1 .357 16 7.427 7.427 0 0 1-10 0 9.212 9.212 0 0 1 .321-16 29.315 29.315 0 0 1 4.502-2.107ZM594.71 273.471c0 3.571-7.141 10.712-10.712 10.212s-10.39-7.5-10-10.712a16.46 16.46 0 0 1 10.14-9.783c3.538-.252 10.679 6.817 10.572 10.283ZM149.32 299.107c-3.356.25-10.5-6.713-10.5-10.247s6.248-9.783 9.64-10.319 10.5 6.106 10.926 9.855-6.352 10.459-10.066 10.711ZM606.635 359.091c3.571 0 10.712 7.141 10.355 10.426a16.21 16.21 0 0 1-9.783 10.14c-3.249.428-10.462-6.248-10.712-10s6.535-10.459 10.14-10.566ZM481.667 693.295c-3.571 0-10.712-7.141-10.355-10.426a16.389 16.389 0 0 1 9.783-10.14c3.249-.393 10.462 6.284 10.712 10s-6.534 10.459-10.14 10.566ZM155.958 434.609c0 3.571-7.141 10.5-10.712 10.176s-10.426-7.5-10-10.712a16.46 16.46 0 0 1 10.14-9.783c3.541-.25 10.682 6.855 10.572 10.319ZM154.248 410.614c0 6.177-2.321 8.569-8.319 8.605-6.57 0-8.891-2.285-8.819-8.926 0-5.927 2.5-8.212 8.748-8.212s8.39 2.32 8.39 8.533ZM178.242 458.495c0 6.141-2.321 8.534-8.319 8.569-6.606 0-8.891-2.285-8.819-8.962 0-5.927 2.5-8.177 8.748-8.177s8.39 2.465 8.39 8.57ZM85.693 214.84c0 6.32-2.178 8.784-8.069 8.855s-8.962-2.142-9.069-7.855c0-6.891 2.035-9.248 8.5-9.283s8.638 2.32 8.638 8.283ZM557.005 499.628c-6.034 0-8.391-2.428-8.391-8.534s2.249-8.676 9.176-8.605c5.784 0 8.034 2.642 7.962 9s-2.677 8.174-8.747 8.139ZM658.332 192.81c6.034 0 8.355 2.464 8.355 8.605s-2.285 8.641-9.212 8.534c-5.749 0-8-2.642-7.927-9s2.505-8.139 8.784-8.139ZM712.967 394.904c0 6.248-2.249 8.712-8.177 8.748s-8.891-2.178-8.962-7.927c0-6.927 2-9.212 8.605-9.212s8.498 2.392 8.534 8.391ZM181.669 265.043c0 6.034-2.428 8.355-8.569 8.355s-8.676-2.249-8.569-9.176c0-5.749 2.642-8 8.962-7.962s8.212 2.534 8.176 8.783ZM514.158 206.557c-6.07 0-8.462-2.357-8.5-8.427s2.285-8.641 8.212-8.712c6.641 0 8.962 2.285 8.926 8.891-.104 5.959-2.532 8.283-8.638 8.248ZM681.974 240.834c6.284 0 8.712 2.249 8.784 8.141s-2.178 8.926-7.927 9c-6.927 0-9.212-2-9.212-8.534s2.285-8.571 8.355-8.607ZM584.177 288.822c6.284 0 8.748 2.214 8.819 8.105s-2.178 8.962-7.891 9.034c-6.927 0-9.248-2.035-9.248-8.5s2.32-8.568 8.32-8.639ZM611.85 612.35c0 6.356-2.178 8.891-7.962 8.962-6.606 0-9.069-1.928-9.176-7.712 0-6.963 2.035-9.391 8.391-9.426s8.674 2.249 8.747 8.176ZM216.125 540.761c-6.248 0-8.676-2.249-8.748-8.177 0-6.641 2.249-9 8.819-8.962 6 0 8.319 2.464 8.319 8.641s-2.356 8.498-8.39 8.498ZM368.23 139.716c6.32 0 8.748 2.214 8.819 8.141s-2.178 8.926-7.891 9c-6.927 0-9.248-2-9.248-8.534s2.322-8.537 8.32-8.607ZM305.067 170.815c0 6-2.428 8.319-8.569 8.319s-8.676-2.285-8.569-9.212c0-5.713 2.642-8 9-7.927s8.174 2.536 8.138 8.82ZM279.36 171.387c0 5.749-2.607 7.82-9.212 7.712-5.749 0-8-2.642-7.927-9s2.642-8.319 9.64-8.141c5.428.217 7.606 2.966 7.499 9.429ZM589.569 466.85c0 6.284-2.214 8.748-8.141 8.784s-8.926-2.178-9-7.891c0-6.927 2.035-9.248 8.569-9.248s8.536 2.357 8.572 8.355ZM299.069 40.312c5.713 0 7.82 2.607 7.712 9.248 0 5.713-2.642 8-9 7.891s-8.319-2.642-8.141-9.6c.146-5.432 2.931-7.646 9.429-7.539ZM704.683 355.663c-6.32 0-8.784-2.178-8.855-8.069s2.178-8.962 7.855-9.069c6.891 0 9.283 2.071 9.283 8.5s-2.427 8.602-8.283 8.638ZM418.539 139.716c5.927 0 8.248 2.5 8.212 8.712s-2.428 8.569-9.355 8.427c-5.891 0-7.891-2.428-7.784-9.1.072-5.825 2.572-8.074 8.927-8.039ZM240.119 566.469c-6.248 0-8.676-2.214-8.748-8.141s2.178-8.891 7.962-9c6.927 0 9.176 2.035 9.176 8.605s-2.356 8.536-8.39 8.536ZM712.967 371.089c0 6.141-2.321 8.534-8.355 8.569-6.57 0-8.855-2.285-8.784-8.962 0-5.927 2.5-8.177 8.784-8.177s8.355 2.464 8.355 8.57ZM344.772 155.141c-6.32 0-8.784-2.178-8.855-8.069s2.178-8.962 7.855-9.069c6.891 0 9.283 2.071 9.283 8.5s-2.284 8.602-8.283 8.638ZM233.085 72.768c0 6.213-2.285 8.641-8.212 8.676-6.641 0-8.962-2.249-8.926-8.855 0-5.963 2.464-8.284 8.641-8.284s8.461 2.391 8.497 8.463ZM466.171 585.286c0 6.177-2.321 8.569-8.319 8.605-6.57 0-8.891-2.285-8.819-8.926 0-5.927 2.5-8.212 8.748-8.212s8.39 2.463 8.39 8.533ZM433.896 593.891c-6.32 0-8.784-2.178-8.855-8.069s2.178-8.962 7.855-9.069c6.891 0 9.283 2.071 9.283 8.5s-2.288 8.602-8.283 8.638ZM409.435 593.891c-6.034 0-8.391-2.428-8.391-8.534s2.249-8.676 9.176-8.605c5.784 0 8.034 2.642 7.962 9s-2.499 8.174-8.747 8.139ZM563.61 93.441c6.32 0 8.748 2.214 8.819 8.141s-2.178 8.926-7.891 9c-6.927 0-9.248-2-9.248-8.534s2.322-8.536 8.32-8.607ZM313.637 575.038c6.141 0 8.534 2.357 8.569 8.355 0 6.57-2.285 8.891-8.962 8.784-5.927 0-8.212-2.5-8.177-8.748s2.428-8.391 8.57-8.391ZM287.072 590.463c-5.713 0-7.819-2.571-7.712-9.212 0-5.713 2.642-8 9-7.927s8.319 2.678 8.141 9.641c-.145 5.427-2.93 7.641-9.429 7.498ZM193.667 499.628c6.141 0 8.534 2.357 8.569 8.355 0 6.57-2.285 8.891-8.962 8.784-5.927 0-8.212-2.5-8.177-8.748s2.428-8.391 8.57-8.391ZM591.283 417.184c0 6.248-2.25 8.712-8.177 8.748s-8.891-2.178-8.962-7.927c0-6.927 2-9.212 8.605-9.212s8.495 2.392 8.534 8.391ZM491.878 562.184c0 5.749-2.607 7.82-9.212 7.712-5.749 0-8-2.642-7.927-9s2.642-8.319 9.64-8.141c5.428.185 7.606 2.931 7.499 9.429ZM155.962 386.334c0 6.248-2.249 8.712-8.177 8.748s-8.891-2.178-8.962-7.927c0-6.927 2-9.212 8.605-9.212s8.498 2.392 8.534 8.391ZM392.475 704.899c0 6.356-2.178 8.891-7.962 8.962-6.605 0-9.069-1.928-9.176-7.712 0-7.141 2.035-9.391 8.391-9.426s8.675 2.249 8.747 8.176ZM584.177 312.816c6.284 0 8.748 2.214 8.819 8.105s-2.178 8.962-7.891 9.034c-6.927 0-9.248-2.035-9.248-8.5s2.32-8.568 8.32-8.639ZM368.48 706.149c0 5.749-2.607 7.82-9.212 7.712-5.749 0-8-2.642-7.927-9s2.642-8.319 9.64-8.141c5.428.181 7.606 3.109 7.499 9.429ZM172.886 282.074c6.284 0 8.712 2.249 8.784 8.141s-2.178 8.926-7.927 9c-6.927 0-9.212-2-9.212-8.534s2.357-8.607 8.355-8.607ZM591.282 443.428c0 5.963-2.5 8.248-8.712 8.212s-8.569-2.392-8.427-9.319c0-5.891 2.428-7.891 9.141-7.82 5.855.109 8.069 2.609 7.998 8.927ZM560.576 239.227c6.034 0 8.355 2.464 8.355 8.605s-2.285 8.641-9.212 8.534c-5.749 0-8-2.642-7.927-9s2.571-8.139 8.784-8.139ZM246.368 185.99c6.356 0 8.891 2.214 8.962 8 0 6.641-1.928 9.033-7.748 9.141-6.927 0-9.355-2.035-9.391-8.391s2.29-8.679 8.177-8.75ZM246.796 677.62c0 6.32-2.214 8.748-8.105 8.819s-8.926-2.178-9.033-7.855c0-6.927 2.035-9.283 8.534-9.283s8.568 2.321 8.604 8.319ZM59.986 286.894c0 6.284-2.214 8.748-8.105 8.784s-9.034-2.178-9.034-7.891c0-6.927 2.035-9.248 8.534-9.248s8.566 2.357 8.605 8.355ZM466.17 182.563c-6.141 0-8.534-2.321-8.569-8.319 0-6.606 2.285-8.891 9-8.819 5.891 0 8.177 2.535 8.141 8.784s-2.43 8.354-8.572 8.354ZM401.044 148.5c0 6.034-2.428 8.355-8.569 8.355s-8.676-2.249-8.569-9.176c0-5.749 2.642-8 8.962-7.962s8.215 2.534 8.176 8.783ZM536.367 232.265c-6.07 0-8.462-2.357-8.5-8.427s2.285-8.641 8.212-8.712c6.641 0 8.962 2.285 8.926 8.891-.033 5.959-2.282 8.283-8.638 8.248ZM155.962 338.31c0 6.284-2.214 8.712-8.105 8.784s-8.926-2.178-9.033-7.891c0-6.927 2.035-9.248 8.534-9.248s8.568 2.357 8.604 8.355ZM155.961 362.733c0 6.034-2.428 8.355-8.569 8.355s-8.676-2.249-8.569-9.176c0-5.749 2.642-8 8.962-7.962s8.212 2.534 8.176 8.783ZM205.664 240.441c0 6.356-2.178 8.891-7.962 8.962-6.641 0-9.069-1.928-9.176-7.748 0-6.927 2.035-9.355 8.391-9.391s8.675 2.25 8.747 8.177ZM127.147 151.713a8.605 8.605 0 0 1-1.036-17.14 8.586 8.586 0 0 1 1.036 17.14ZM591.282 393.082a8.891 8.891 0 0 1-8.069 8.855 8.748 8.748 0 0 1-9.069-7.855 8.584 8.584 0 0 1 17.139-1ZM346.343 583.322a8.891 8.891 0 0 1-8.069 8.855 8.748 8.748 0 0 1-9.069-7.855 8.584 8.584 0 0 1 17.139-1ZM361.374 575.038a8.748 8.748 0 0 1 8.784 8.141 8.141 8.141 0 0 1-7.891 8.962 8.355 8.355 0 0 1-9.212-8.5 8.534 8.534 0 0 1 8.319-8.605ZM488.272 206.557a8.5 8.5 0 0 1-8.391-8.534 8.355 8.355 0 0 1 9.283-8.534 8.105 8.105 0 0 1 7.927 8.893 8.605 8.605 0 0 1-8.819 8.175ZM169.532 425.932a8.712 8.712 0 0 1 8.712 8.248 8.855 8.855 0 0 1-8 8.891 8.577 8.577 0 0 1-.712-17.139ZM394.189 583.714a8.575 8.575 0 1 1-17.139-.607 8.926 8.926 0 0 1 8.855-8.069 8.641 8.641 0 0 1 8.284 8.676ZM565.574 465.351a8.572 8.572 0 1 1-17.139-.393 8.819 8.819 0 0 1 8.784-8.177 8.5 8.5 0 0 1 8.355 8.57ZM541.58 512.982a8.212 8.212 0 0 1-7.962 8.891 8.543 8.543 0 0 1-.786-17.067 8.712 8.712 0 0 1 8.748 8.176ZM627.487 597.319a8.641 8.641 0 0 1-8.748-8.141 8.141 8.141 0 0 1 7.927-8.926 8.355 8.355 0 0 1 9.176 8.534 8.462 8.462 0 0 1-8.355 8.533ZM467.742 60.878a8.575 8.575 0 0 1 .607-17.139 8.855 8.855 0 0 1 8.07 8.891 8.569 8.569 0 0 1-8.677 8.248ZM584.176 336.81a8.748 8.748 0 0 1 8.784 8.141 8.141 8.141 0 0 1-7.891 8.962 8.355 8.355 0 0 1-9.212-8.5 8.534 8.534 0 0 1 8.319-8.603ZM241.441 525.336a8.712 8.712 0 0 1 8.748 8.141 8.141 8.141 0 0 1-7.891 8.962 8.355 8.355 0 0 1-9.212-8.5 8.5 8.5 0 0 1 8.355-8.6ZM545.008 248.047a8.641 8.641 0 0 1-8.712 8.212 8.5 8.5 0 0 1-8.427-9.319 8.819 8.819 0 0 1 9.141-7.712 8.926 8.926 0 0 1 7.998 8.819ZM711.252 420.576a8.748 8.748 0 0 1-8.141 8.784 8.141 8.141 0 0 1-8.926-7.927 8.355 8.355 0 0 1 8.5-9.212 8.5 8.5 0 0 1 8.569 8.355ZM171.743 305.961a8.712 8.712 0 0 1 8.213 8.71 8.534 8.534 0 0 1-9.355 8.462 8.819 8.819 0 0 1-7.784-9.141 8.926 8.926 0 0 1 8.926-8.034ZM515.872 537.583a8.5 8.5 0 0 1-8.605 8.319 8.284 8.284 0 0 1-8.462-9.212 8.141 8.141 0 0 1 8.962-7.891 8.784 8.784 0 0 1 8.105 8.784ZM560.789 263.114a8.712 8.712 0 0 1 8.208 8.71 8.534 8.534 0 0 1-9.355 8.462 8.819 8.819 0 0 1-7.784-9.141 8.926 8.926 0 0 1 8.931-8.031ZM56.558 456.388a8.105 8.105 0 0 1-7.962 8.891 7.927 7.927 0 0 1-9.1-7.641 8.284 8.284 0 0 1 8.281-9.391 8.748 8.748 0 0 1 8.781 8.141ZM578.893 628.168a8.176 8.176 0 0 1 8.891 8 8 8 0 0 1-7.677 9.1 8.355 8.355 0 0 1-9.391-8.319 8.748 8.748 0 0 1 8.176-8.784ZM190.096 645.307a8.712 8.712 0 0 1 8.712 8.105 8.855 8.855 0 0 1-8 8.891 8.577 8.577 0 0 1-.714-17.139ZM222.41 209.985a8.177 8.177 0 0 1 8.891 8 8 8 0 0 1-7.677 9.1 8.355 8.355 0 0 1-9.391-8.317 8.748 8.748 0 0 1 8.177-8.783ZM342.772 705.078a8.748 8.748 0 0 1-8.141 8.784 8.141 8.141 0 0 1-8.926-7.927 8.355 8.355 0 0 1 8.5-9.212 8.5 8.5 0 0 1 8.569 8.355ZM407.899 713.862a8.572 8.572 0 0 1 .428-17.139 8.819 8.819 0 0 1 8.141 8.784 8.5 8.5 0 0 1-8.569 8.355ZM591.283 369.481a8.575 8.575 0 0 1-17.139-.607 8.926 8.926 0 0 1 8.855-8.069 8.641 8.641 0 0 1 8.284 8.676ZM449.029 174.101a8.575 8.575 0 1 1-17.139-.607 8.891 8.891 0 0 1 8.891-8.069 8.641 8.641 0 0 1 8.248 8.676ZM329.061 170.387a8.712 8.712 0 0 1-8.141 8.748 8.141 8.141 0 0 1-8.926-7.748 8.319 8.319 0 0 1 8.5-9.212 8.534 8.534 0 0 1 8.567 8.212ZM272.506 558.256a8.641 8.641 0 0 1-8.712 8.212 8.5 8.5 0 0 1-8.426-9.462 8.819 8.819 0 0 1 9.141-7.82 8.926 8.926 0 0 1 7.997 9.07ZM467.742 561.22a8.641 8.641 0 0 1-8.248 8.676 8.855 8.855 0 0 1-8.891-8 8.576 8.576 0 1 1 17.139-.678ZM193.595 492.737a8.574 8.574 0 0 1 .571-17.139 8.962 8.962 0 0 1 8.069 8.891 8.534 8.534 0 0 1-8.641 8.248ZM569.003 295.713a8.569 8.569 0 1 1-8.569-8.569 8.569 8.569 0 0 1 8.569 8.569ZM557.005 449.89a10.212 10.212 0 0 1-8.676-8.427 8.569 8.569 0 1 1 8.676 8.427ZM179.955 362.662a10.212 10.212 0 0 1-8.569 8.427 8.57 8.57 0 0 1 .214-17.139 10.355 10.355 0 0 1 8.355 8.712ZM521.014 223.695a8.569 8.569 0 1 1-8.569-8.569 8.569 8.569 0 0 1 8.569 8.569ZM377.049 172.172a8.57 8.57 0 1 1-8.694-8.444 8.57 8.57 0 0 1 8.694 8.444ZM455.887 197.987a8.569 8.569 0 1 1 8.569 8.569 8.569 8.569 0 0 1-8.569-8.569ZM676.869 525.336a8.569 8.569 0 1 1 8.676-8.427 10.319 10.319 0 0 1-8.676 8.427ZM313.636 551.044a8.569 8.569 0 1 1-8.569 8.57 8.569 8.569 0 0 1 8.569-8.569ZM51.416 271.684a10.319 10.319 0 0 1-8.569-8.57 10.355 10.355 0 0 1 8.569-8.569 10.355 10.355 0 0 1 8.57 8.61 10.319 10.319 0 0 1-8.57 8.529ZM226.231 508.34a10.212 10.212 0 0 1-8.676 8.427 8.57 8.57 0 1 1 .214-17.139 10.355 10.355 0 0 1 8.462 8.712ZM416.468 180.849a10.283 10.283 0 0 1-8.569-8.534 8.57 8.57 0 1 1 17.139 0 10.319 10.319 0 0 1-8.57 8.534ZM491.88 537.374a8.569 8.569 0 1 1-8.569-8.605 10.319 10.319 0 0 1 8.569 8.605ZM344.486 163.71a10.319 10.319 0 0 1 8.569 8.569 8.57 8.57 0 0 1-17.139 0 10.355 10.355 0 0 1 8.569-8.569ZM170.993 329.955a10.39 10.39 0 0 1 8.962 8.212 10.283 10.283 0 0 1-8.177 8.926 8.579 8.579 0 0 1-.786-17.139ZM229.658 242.334a10.14 10.14 0 0 1-8.284 8.784 10.247 10.247 0 0 1-8.855-8.319 10.248 10.248 0 0 1 8.319-8.819 10.319 10.319 0 0 1 8.819 8.355ZM159.389 119.042a10.319 10.319 0 0 1-8.462 8.676 10.212 10.212 0 0 1-8.676-8.427 10.355 10.355 0 0 1 8.459-8.604 10.319 10.319 0 0 1 8.679 8.355ZM205.664 266.578a10.319 10.319 0 0 1-8.569 8.534 10.319 10.319 0 0 1-8.57-8.57 10.355 10.355 0 0 1 8.569-8.569 10.355 10.355 0 0 1 8.569 8.605ZM262.221 194.559a10.355 10.355 0 0 1 8.569-8.569 10.355 10.355 0 0 1 8.57 8.61 10.319 10.319 0 0 1-8.569 8.534 10.319 10.319 0 0 1-8.57-8.575ZM401.043 172.172a8.57 8.57 0 1 1-8.694-8.444 8.57 8.57 0 0 1 8.694 8.444ZM193.666 468.779a8.569 8.569 0 1 1 8.569-8.569 8.569 8.569 0 0 1-8.569 8.569ZM282.788 48.881a10.319 10.319 0 0 1-8.569 8.569 10.319 10.319 0 0 1-8.57-8.528 10.355 10.355 0 0 1 8.569-8.605 10.355 10.355 0 0 1 8.57 8.564ZM289.753 566.468a10.212 10.212 0 0 1-8.676-8.427 10.355 10.355 0 0 1 8.462-8.712 8.57 8.57 0 0 1 .214 17.139ZM541.58 489.166a8.569 8.569 0 1 1-8.676-8.462 10.319 10.319 0 0 1 8.676 8.462ZM515.872 513.731a8.569 8.569 0 1 1-8.176-8.962 10.319 10.319 0 0 1 8.176 8.962ZM255.366 218.696a10.212 10.212 0 0 1-8.676 8.426 10.319 10.319 0 0 1-8.462-8.676 10.319 10.319 0 0 1 8.679-8.462 10.355 10.355 0 0 1 8.462 8.712ZM179.956 386.905a10.319 10.319 0 0 1-8.962 8.177 10.283 10.283 0 0 1-8.177-8.926 10.39 10.39 0 0 1 8.962-8.212 10.355 10.355 0 0 1 8.177 8.962ZM178.242 410.614a10.247 10.247 0 0 1-8.819 8.319 10.176 10.176 0 0 1-8.319-8.784 10.319 10.319 0 0 1 8.819-8.355 10.247 10.247 0 0 1 8.319 8.819ZM704.29 314.53a8.569 8.569 0 1 1-8.462 8.71 10.319 10.319 0 0 1 8.462-8.71ZM505.197 674.442a10.39 10.39 0 0 1 8.962 8.212 8.569 8.569 0 1 1-8.962-8.212ZM318.779 703.578a10.319 10.319 0 0 1-8.569 8.569 8.57 8.57 0 0 1 0-17.139 10.354 10.354 0 0 1 8.569 8.569ZM442.177 561.327a8.569 8.569 0 1 1-8.569-8.569 10.319 10.319 0 0 1 8.569 8.569ZM560.575 312.816a10.355 10.355 0 0 1 8.569 8.569 8.57 8.57 0 1 1-17.139 0 10.355 10.355 0 0 1 8.569-8.569ZM241.761 501.342c2.856 0 8.605 6.034 8.462 8.712s-6.034 8.569-8.676 8.427-8.605-6-8.462-8.676 6.141-8.574 8.676-8.463ZM100.868 175.708c-3-.214-8.534-6.07-8.319-8.784s6.106-8.534 8.819-8.355 8.534 6.106 8.319 8.819-6.141 8.534-8.819 8.32ZM541.581 465.386a13.354 13.354 0 0 1-8.569 8.534 13.461 13.461 0 0 1-8.569-8.569 13.461 13.461 0 0 1 8.569-8.569 13.6 13.6 0 0 1 8.569 8.605ZM229.657 266.685c0 2.856-6.034 8.569-8.712 8.427s-8.569-6-8.426-8.676 6.034-8.569 8.712-8.462 8.566 6.033 8.426 8.711ZM71.625 539.154c-3-.286-8.462-6.248-8.212-8.926s6.284-8.462 8.926-8.212 8.5 6.284 8.212 8.962-6.284 8.355-8.926 8.176ZM567.288 345.63c-.214 3-6.106 8.534-8.819 8.319s-8.534-6.07-8.319-8.784 6.106-8.534 8.819-8.355 8.533 5.968 8.319 8.82ZM265.399 542.475c-3-.214-8.534-6.07-8.319-8.784s6.106-8.534 8.819-8.355 8.534 6.106 8.319 8.819-6.106 8.57-8.819 8.32ZM467.741 537.473c0 2.857-6.034 8.569-8.712 8.427s-8.569-6-8.426-8.676 6.034-8.569 8.712-8.462 8.712 6.036 8.426 8.711ZM652.981 556.185a13.6 13.6 0 0 1 8.569 8.605 13.354 13.354 0 0 1-8.569 8.534 13.461 13.461 0 0 1-8.569-8.569 13.461 13.461 0 0 1 8.569-8.569ZM545.008 271.823c0 2.856-6.034 8.569-8.676 8.427s-8.605-6-8.462-8.676 6.034-8.569 8.676-8.462 8.605 6.036 8.462 8.711ZM394.188 559.256c.286 2.678-5.213 8.641-8.212 8.926s-8.641-5.213-8.926-8.177 5.213-8.641 8.212-8.962 8.641 5.249 8.926 8.213ZM226.229 483.846c.25 2.678-5.213 8.641-8.212 8.926s-8.641-5.213-8.926-8.177 5.213-8.641 8.212-8.962 8.641 5.249 8.926 8.213ZM370.194 559.256c.25 2.678-5.213 8.641-8.212 8.926s-8.641-5.213-8.926-8.177 5.213-8.641 8.212-8.962 8.641 5.249 8.926 8.213ZM337.63 551.044a13.461 13.461 0 0 1 8.571 8.57 13.461 13.461 0 0 1-8.569 8.569 13.354 13.354 0 0 1-8.569-8.534 13.6 13.6 0 0 1 8.567-8.605ZM711.252 444.927c0 2.856-6.034 8.569-8.676 8.427s-8.605-6-8.462-8.676 6.034-8.569 8.676-8.462 8.605 6.033 8.462 8.711ZM194.023 427.646c3 .321 8.5 6.284 8.212 8.962s-6.284 8.462-8.926 8.177-8.462-6.248-8.212-8.926 6.284-8.463 8.926-8.213ZM497.019 221.625c.25 2.678-5.213 8.641-8.212 8.926s-8.641-5.213-8.926-8.177 5.213-8.641 8.212-8.962 8.641 5.249 8.926 8.213ZM512.694 239.227c3 .25 8.534 6.106 8.319 8.819s-6.106 8.534-8.819 8.319-8.534-6.07-8.319-8.784 6.106-8.639 8.819-8.354ZM279.359 218.197c.286 2.678-5.213 8.641-8.212 8.926s-8.641-5.213-8.926-8.177 5.213-8.641 8.212-8.962 8.64 5.249 8.926 8.213ZM449.031 198.13c0 2.856-6.034 8.569-8.712 8.427s-8.569-6-8.426-8.676 6.034-8.569 8.712-8.462 8.569 6.033 8.426 8.711ZM553.827 652.162c3 .25 8.534 6.106 8.319 8.819s-6.106 8.534-8.819 8.319-8.534-6.07-8.319-8.784 6.106-8.533 8.819-8.354ZM567.288 417.755c-.286 2.964-6.284 8.462-8.926 8.177s-8.462-6.248-8.212-8.926 6.284-8.462 8.926-8.212 8.641 6.283 8.212 8.961ZM205.664 314.423c0 2.678-5.606 8.569-8.462 8.676s-8.534-5.57-8.679-8.43 5.606-8.569 8.462-8.712 8.538 5.612 8.679 8.466ZM567.288 369.517c0 2.856-6.034 8.569-8.676 8.427s-8.605-6-8.462-8.676 6.034-8.569 8.676-8.462 8.605 6.033 8.462 8.711ZM205.664 290.429c0 2.678-5.606 8.569-8.462 8.676s-8.534-5.57-8.676-8.427 5.605-8.604 8.461-8.604 8.536 5.5 8.677 8.355ZM567.288 393.511c0 2.856-6.034 8.569-8.676 8.427s-8.605-6-8.462-8.676 6.034-8.569 8.676-8.462 8.605 6.033 8.462 8.711ZM310.209 194.702c0-2.678 5.57-8.534 8.427-8.712s8.569 5.606 8.712 8.462-5.57 8.534-8.426 8.676-8.57-5.569-8.713-8.426ZM295.141 203.129c-2.642.286-8.641-5.213-8.926-8.177s5.213-8.641 8.212-8.962 8.641 5.249 8.926 8.212-5.213 8.642-8.212 8.927ZM539.617 69.447c2.714-.179 8.605 5.356 8.819 8.355s-5.32 8.569-8.319 8.784-8.6-5.32-8.819-8.319 5.319-8.573 8.319-8.82ZM409.506 552.758c2.642 0 8.534 5.606 8.676 8.462s-5.606 8.569-8.462 8.676-8.534-5.57-8.676-8.427 5.606-8.568 8.462-8.711ZM167.816 95.298c0-2.678 5.57-8.534 8.426-8.712s8.574 5.606 8.713 8.462-5.427 8.5-8.284 8.676-8.569-5.569-8.855-8.426ZM432.036 698.437c3 .25 8.534 6.106 8.319 8.819s-6.106 8.534-8.819 8.319-8.534-6.07-8.319-8.784 6.213-8.533 8.819-8.354ZM290.071 527.05c5.891 0 6.463.714 6.427 7.141s-.817 6.784-7.717 6.645c-5.32 0-6.106-1.035-6-7.5.078-5.786.756-6.358 7.29-6.286ZM392.046 203.129c-5.891 0-6.463-.678-6.427-7.141s.821-6.748 7.712-6.641c5.32 0 6.106 1.071 6 7.534-.072 5.784-.751 6.32-7.285 6.248ZM706.397 292.25c6.356 0 6.57.286 6.57 6.927s-.714 6.891-7.57 6.784c-5.57 0-6.213-.821-6.141-7.141.071-6.034.571-6.606 7.141-6.57ZM536.367 288.822c6.641 0 6.891.214 6.927 6.606s-.464 7.141-6.356 7.141c-6.855 0-7.391-.393-7.355-7.141.036-5.896.714-6.57 6.784-6.606ZM483.737 506.484c5.891 0 6.463.714 6.427 7.141s-.821 6.748-7.712 6.606c-5.32 0-6.106-1.071-6-7.5.073-5.712.755-6.319 7.285-6.247ZM409.613 195.845c0-5.891.678-6.463 7.141-6.427s6.748.821 6.641 7.748c0 5.284-1.071 6.07-7.5 5.963-5.782-.071-6.354-.714-6.282-7.284ZM515.873 489.17c0 6.606-.393 7.141-6.284 7.141-6.463 0-7.141-.607-7.5-6.034s.893-8.034 6.784-7.748 6.928.425 7 6.641ZM253.509 242.19c0 6.606-.393 7.141-6.284 7.141-6.463 0-7.141-.607-7.5-6.034s.893-8.034 6.784-7.748c6.571.393 7 .607 7 6.641ZM286.5 696.723c6.356 0 6.57.286 6.57 6.927s-.714 6.891-7.427 6.891c-5.57 0-6.213-.821-6.141-7.32-.072-5.998.5-6.529 6.998-6.498ZM47.56 487.628c-5.891 0-6.463-.678-6.427-7.141s.821-6.748 7.712-6.641c5.32 0 6.106 1.071 6 7.5-.072 5.821-.751 6.357-7.285 6.282ZM202.235 410.935c0 5.927-.678 6.5-7.141 6.427s-6.748-.786-6.641-7.712c0-5.284 1.071-6.07 7.5-6 5.782.108 6.354.748 6.282 7.285ZM498.733 52.773c0 5.891-.678 6.463-7.141 6.391s-6.748-.786-6.641-7.712c0-5.284 1.071-6.07 7.5-6 5.782.108 6.354.751 6.282 7.321ZM194.952 345.38c-5.891 0-6.463-.678-6.427-7.141s.714-6.677 7.855-6.57c5.32 0 6.106 1.071 6 7.5-.215 5.747-.894 6.282-7.428 6.211ZM344.914 189.418c5.891 0 6.463.714 6.427 7.141s-.821 6.784-7.712 6.641c-5.32 0-6.106-1.035-6-7.462.073-5.821.751-6.499 7.285-6.32ZM594.71 103.332a7.141 7.141 0 0 1-6.248 7.141 6.972 6.972 0 1 1 6.248-7.248ZM618.704 127.54a7.141 7.141 0 0 1-6.427 7.141 7.006 7.006 0 1 1 6.57-7.141ZM642.699 151.498a7.141 7.141 0 0 1-6.427 7.141 7.006 7.006 0 1 1 6.57-7.141ZM77.16 197.987a7.141 7.141 0 0 1-6.891-6.606 6.915 6.915 0 1 1 6.784 6.57ZM368.266 189.418a7.141 7.141 0 0 1 7.141 6.427 7.006 7.006 0 1 1-7.141-6.57ZM294.392 211.698a7.141 7.141 0 0 1 7.141 6.284 6.927 6.927 0 0 1-6.891 7.426 6.858 6.858 0 0 1-.357-13.711ZM447.318 221.982a7.141 7.141 0 0 1-6.641 6.855 6.906 6.906 0 1 1 6.57-6.748ZM464.493 228.837a7.141 7.141 0 0 1-6.891-6.606 6.915 6.915 0 1 1 6.784 6.57ZM689.115 225.195a6.927 6.927 0 0 1-6.391 7.141 6.748 6.748 0 0 1-7.141-7.141 6.856 6.856 0 1 1 13.711 0ZM58.272 238.977a7.141 7.141 0 0 1-6.463 7.141 7.006 7.006 0 1 1 6.57-7.141ZM277.646 242.155a6.857 6.857 0 0 1-13.711.286 6.858 6.858 0 1 1 13.711-.393ZM488.058 239.227a7.141 7.141 0 0 1 7.141 6.284 6.927 6.927 0 0 1-6.891 7.427 6.858 6.858 0 0 1-.357-13.711ZM245.118 273.397a7.141 7.141 0 0 1-6.891-6.605 6.915 6.915 0 1 1 6.784 6.57ZM512.194 264.828a7.141 7.141 0 0 1 7.141 6.427 6.748 6.748 0 0 1-7.141 7.141 6.856 6.856 0 0 1 0-13.711ZM227.943 290.787a6.864 6.864 0 1 1-6.57-7.141 7.141 7.141 0 0 1 6.57 7.141ZM149.106 628.025a7.141 7.141 0 0 1-6.463 7.141 7.006 7.006 0 1 1 6.57-7.141ZM541.58 369.374a7.141 7.141 0 0 1-6.641 6.855 6.906 6.906 0 1 1 6.57-6.748ZM519.3 295.504a7.141 7.141 0 0 1-6.427 7.141 7.006 7.006 0 1 1 6.57-7.141ZM221.374 321.35a6.855 6.855 0 1 1 6.463-7.141 7.141 7.141 0 0 1-6.463 7.141ZM543.294 319.922a6.864 6.864 0 1 1-6.57-7.141 7.141 7.141 0 0 1 6.57 7.141ZM541.58 343.666a7.141 7.141 0 0 1-6.641 6.855 6.906 6.906 0 1 1 6.57-6.748ZM25.529 365.946a6.859 6.859 0 0 1-.071-13.711 6.891 6.891 0 0 1 7.141 7.141 7.141 7.141 0 0 1-7.07 6.57ZM202.235 362.159a6.857 6.857 0 1 1-13.711.25 6.857 6.857 0 1 1 13.711-.321ZM318.707 227.123a6.86 6.86 0 1 1 6.855-6.57 7.141 7.141 0 0 1-6.855 6.57ZM32.564 384.585a7.141 7.141 0 0 1-6.427 7.141 6.855 6.855 0 0 1-7.141-7.141 7.141 7.141 0 0 1 6.855-6.677 7.141 7.141 0 0 1 6.713 6.677ZM94.048 571.611a7.141 7.141 0 0 1 7.141 6.427 6.82 6.82 0 0 1-7.141 7.141 6.856 6.856 0 1 1 0-13.711ZM202.235 386.727a6.864 6.864 0 1 1-6.57-7.141 7.141 7.141 0 0 1 6.57 7.141ZM541.58 392.975a6.857 6.857 0 0 1-13.711.286 6.858 6.858 0 0 1 13.711-.393ZM219.553 419.076a7.141 7.141 0 0 1-7.141-6.463 7.006 7.006 0 1 1 7.141 6.57ZM534.975 410.614a6.859 6.859 0 0 1-.071 13.711 6.82 6.82 0 0 1-7.141-7.141 7.141 7.141 0 0 1 7.212-6.57ZM224.515 436.215a7.141 7.141 0 0 1-6.713 6.855 6.915 6.915 0 1 1 6.57-6.784ZM539.866 441.464a6.86 6.86 0 1 1-6.57-6.891 7.141 7.141 0 0 1 6.57 6.891ZM224.516 460.316a6.93 6.93 0 1 1-13.858.286 6.856 6.856 0 0 1 7.146-7.146 7.141 7.141 0 0 1 6.712 6.86ZM515.872 465.35a7.141 7.141 0 0 1-6.606 6.856 6.915 6.915 0 1 1 6.57-6.784ZM709.539 468.564a7.141 7.141 0 0 1-6.427 7.141 7.006 7.006 0 1 1 6.57-7.141ZM241.868 491.057a7.141 7.141 0 0 1-7.141-6.427 7.006 7.006 0 1 1 7.141 6.57ZM490.164 489.345a7.141 7.141 0 0 1-6.606 6.856 6.906 6.906 0 1 1 6.57-6.748ZM265.434 503.056a7.141 7.141 0 0 1 7.141 6.427 7.006 7.006 0 1 1-7.141-6.57ZM296.356 509.768a7.141 7.141 0 0 1-6.463 7.141 7.006 7.006 0 1 1 6.57-7.141ZM459.529 520.195a7.141 7.141 0 0 1-7.141-6.427 7.006 7.006 0 1 1 7.141 6.57ZM221.089 677.585a7.141 7.141 0 0 1-6.356 7.141 7.015 7.015 0 1 1 6.356-7.141ZM313.994 527.05a6.857 6.857 0 0 1-.286 13.711 6.927 6.927 0 0 1-6.927-7.391 7.141 7.141 0 0 1 7.213-6.32ZM337.416 528.764a7.141 7.141 0 0 1 7.141 6.427 7.006 7.006 0 1 1-7.141-6.57ZM354.77 535.834a7.141 7.141 0 0 1 6.427-7.141 7.006 7.006 0 1 1-6.57 7.141ZM392.474 535.226a6.857 6.857 0 0 1-13.711.286 6.858 6.858 0 1 1 13.711-.393ZM411.076 528.764a7.141 7.141 0 0 1 7.141 6.427 6.748 6.748 0 0 1-7.141 7.141 6.856 6.856 0 1 1 0-13.711ZM346.343 19.745a7.141 7.141 0 0 1 6.891 6.641 6.784 6.784 0 0 1-7.141 7.141 7.141 7.141 0 0 1-6.891-7.105 7.141 7.141 0 0 1 7.141-6.677ZM370.23 33.456a7.141 7.141 0 0 1-6.891-6.606 6.855 6.855 0 0 1 7.141-7.141 7.141 7.141 0 0 1 6.463 7.141 7.141 7.141 0 0 1-6.713 6.606ZM402.758 26.422a7.141 7.141 0 0 1-6.427 7.141 6.82 6.82 0 0 1-7.141-7.141 6.856 6.856 0 1 1 13.711 0ZM250.581 42.026a6.857 6.857 0 0 1-.284 13.711 6.927 6.927 0 0 1-6.927-7.391 7.141 7.141 0 0 1 7.211-6.32ZM124.969 604.281a6.86 6.86 0 1 1-6.57-6.891 7.141 7.141 0 0 1 6.57 6.891ZM435.249 544.188a6.86 6.86 0 1 1 6.855-6.57 7.141 7.141 0 0 1-6.855 6.57ZM200.343 78.017a7.141 7.141 0 0 1-6.677-6.82 7.141 7.141 0 0 1 6.606-6.93 6.891 6.891 0 0 1 7.141 7.141 7.141 7.141 0 0 1-7.07 6.609ZM455.923 713.861a7.141 7.141 0 0 1-6.891-6.606 6.915 6.915 0 1 1 6.784 6.57ZM342.343 213.412a11.89 11.89 0 0 1 7.141 6.248c.321 2.107-4.642 7.712-6.855 7.391a7.391 7.391 0 0 1-4.249-1.785 11.211 11.211 0 0 1-2.535-4.82c-.214-1.714 4.606-6.82 6.498-7.034ZM375.338 220.442a19.423 19.423 0 0 1-2.571 4.82 7.891 7.891 0 0 1-4.249 1.785c-2.178.321-7.141-5.249-6.891-7.355a12.069 12.069 0 0 1 7.141-6.284 12.711 12.711 0 0 1 6.57 7.034ZM226.23 362.558a12.961 12.961 0 0 1-6.605 6.82c-2.321 0-7.141-4.892-7.141-7.141s5.32-6.855 7.141-6.391a11.354 11.354 0 0 1 4.82 2.5 12.1 12.1 0 0 1 1.785 4.213ZM399.33 219.982a11.961 11.961 0 0 1-6.32 7.141c-1.75.25-7.141-4.142-7.391-6.106s4.249-7.5 6.748-7.605a12.426 12.426 0 0 1 6.963 6.57ZM683.83 540.689a12.782 12.782 0 0 1-1.928 4.392 10.033 10.033 0 0 1-4.82 2.464c-2.142.464-7.141-5.106-6.962-7.141a12.247 12.247 0 0 1 7.141-6.356 12.925 12.925 0 0 1 6.569 6.641ZM219.375 395.082a12.747 12.747 0 0 1-4.249-1.821 10.283 10.283 0 0 1-2.5-4.82c-.5-2.214 4.892-7.141 7.141-7.141s6.82 5.32 6.356 7.141a11.212 11.212 0 0 1-2.535 4.82 11.817 11.817 0 0 1-4.213 1.821ZM423.324 221.696a11.961 11.961 0 0 1-6.32 7.141c-1.75.25-7.141-4.142-7.391-6.106s4.249-7.5 6.748-7.605a12.425 12.425 0 0 1 6.963 6.57ZM314.208 516.766a11.926 11.926 0 0 1-7.141-6.248c-.286-2.107 4.713-7.677 6.891-7.355a7.606 7.606 0 0 1 4.249 1.785 11.533 11.533 0 0 1 2.5 4.82c.142 1.678-4.821 6.856-6.499 6.998ZM219.767 345.379a11.926 11.926 0 0 1-7.141-6.249c-.286-2.107 4.713-7.677 6.891-7.355a7.606 7.606 0 0 1 4.25 1.786 11.534 11.534 0 0 1 2.5 4.82c.319 1.678-4.644 6.856-6.5 6.998ZM25.529 341.952a19.175 19.175 0 0 1-4.785-2.571 7.534 7.534 0 0 1-1.82-4.248c-.321-2.142 5.284-7.141 7.391-6.891a12.033 12.033 0 0 1 6.248 7.141c-.178 1.963-5.249 6.677-7.034 6.569ZM442.177 511.661a12.961 12.961 0 0 1-6.605 6.82c-2.321 0-7.141-4.892-7.141-7.141s5.32-6.855 7.141-6.391a11.355 11.355 0 0 1 4.82 2.5 12.1 12.1 0 0 1 1.785 4.213ZM258.793 486.238a12.14 12.14 0 0 1 6.32-7.141 12.461 12.461 0 0 1 7.391 6.141c.393 2.285-4.249 7.5-6.748 7.57a12.247 12.247 0 0 1-6.963-6.57ZM25.565 401.973a12.247 12.247 0 0 1 7.141 6.5 11.961 11.961 0 0 1-6.289 7.14c-2.107.286-7.677-4.749-7.355-6.891a7.713 7.713 0 0 1 1.857-4.249 17.461 17.461 0 0 1 4.642-2.5ZM166.245 660.731a12.746 12.746 0 0 1-4.249-1.821 10.284 10.284 0 0 1-2.5-4.82c-.5-2.214 4.892-7.141 7.141-7.141s6.82 5.32 6.356 7.141a11.211 11.211 0 0 1-2.535 4.82 11.819 11.819 0 0 1-4.213 1.821ZM295.176 249.404a11.926 11.926 0 0 1-7.141-6.247c-.393-2.107 4.749-7.5 6.784-7.5a7.6 7.6 0 0 1 4.249 1.785 11.533 11.533 0 0 1 2.5 4.82c.428 1.822-4.535 6.995-6.392 7.142ZM529.833 676.156a13.033 13.033 0 0 1 6.606 6.927c0 2.321-5.392 7.141-7.534 6.784a12 12 0 0 1-6.177-7.32 12.247 12.247 0 0 1 7.105-6.391ZM457.601 246.368a12.14 12.14 0 0 1 6.32-7.141 12.461 12.461 0 0 1 7.391 6.034c.393 2.285-4.249 7.5-6.748 7.57a12.247 12.247 0 0 1-6.962-6.463ZM495.306 271.362a11.961 11.961 0 0 1-6.141 7.141c-1.75.25-7.141-4.142-7.391-6.106s4.249-7.5 6.748-7.605a12.425 12.425 0 0 1 6.784 6.57ZM515.872 440.999a11.854 11.854 0 0 1-6.248 7.141c-2.107.321-7.712-4.713-7.391-6.855a7.534 7.534 0 0 1 1.821-4.249 11.354 11.354 0 0 1 4.82-2.5c1.714-.392 6.82 4.642 6.998 6.463ZM241.904 453.461a13.032 13.032 0 0 1 6.605 6.927c0 2.321-5.392 7.141-7.534 6.784a12 12 0 0 1-6.177-7.32 12.247 12.247 0 0 1 7.106-6.391ZM706.468 268.256a12.354 12.354 0 0 1 6.5 7.141c0 2.535-5.32 7.141-7.605 6.713a12.283 12.283 0 0 1-6.106-7.391 11.962 11.962 0 0 1 7.213-6.463ZM251.938 290.179a11.854 11.854 0 0 1-6.248 7.141c-2.107.321-7.712-4.713-7.391-6.855a7.534 7.534 0 0 1 1.821-4.249 11.355 11.355 0 0 1 4.82-2.5c1.678-.392 6.82 4.607 6.998 6.463ZM666.693 177.24a12.211 12.211 0 0 1-6.427 7.141 11.711 11.711 0 0 1-7.141-6.213c-.321-2.107 4.642-7.712 6.855-7.391a7.391 7.391 0 0 1 4.249 1.785 19.817 19.817 0 0 1 2.464 4.678ZM262.578 696.723c1.892.179 6.855 5.249 6.427 7.141a11.677 11.677 0 0 1-2.464 4.82 7.677 7.677 0 0 1-4.249 1.821c-2.142.357-7.141-5.213-6.927-7.141a11.961 11.961 0 0 1 7.213-6.641ZM419.218 33.67a59.172 59.172 0 0 0-4.5-4.463c-2.428-1.964-1.857-3.571 0-5.356 5.927-5.57 4-5.606 10.176 0 2.285 2.142 2 3.571 0 5.392-1.321 1.071-2.392 2.428-3.571 3.571-.427.463-1.034.499-2.105.856ZM509.731 326.421c-1.714-1.821-3.821-4-5.82-6.284-.214-.25 0-1.107.25-1.535a5.427 5.427 0 0 1 1.178-1.214c4.927-5.463 7.927-5.177 11.926 1.107a4.32 4.32 0 0 1 .321.714c.393 1.499-5.677 7.64-7.855 7.212ZM276.11 265.9c-.357 1.035-.393 1.642-.714 2a43.557 43.557 0 0 1-4.856 4.746c-.607.5-1.892.321-2.821.214s-.821-.75-1.214-1.178c-5.856-6.034-5.856-4.213-.214-10.14 1.928-2.035 3.571-2.571 5.392 0 1.392 1.537 3.249 3.004 4.427 4.358ZM102.617 138.002c3.571 0 5.213 1.321 5.356 4.713s-1.214 5.356-4.5 5.57c-4.106.286-5.784-1.214-5.784-5.106s1.429-5.07 4.928-5.177ZM445.604 245.976c0 3.571-1.428 5.07-4.927 5.142-4.106 0-5.534-1.393-5.356-5.534 0-3.571 1.714-4.82 5.356-4.749s4.927 1.57 4.927 5.141ZM53.129 506.412c0 3.571-1.357 5.106-4.856 5.213-4.178 0-5.57-1.285-5.427-5.5 0-3.571 1.678-4.82 5.284-4.785s4.964 1.537 4.999 5.072ZM126.683 124.291c-3.571 0-4.963-1.5-5-5.07s1.607-5.427 5.713-5.213c3.321.214 4.713 1.892 4.57 5.5s-1.677 4.858-5.283 4.783ZM238.227 388.441c0-3.571 1.285-5.177 4.713-5.356s5.356 1.25 5.57 4.535c.286 4.106-1.214 5.749-5.142 5.749s-5.07-1.394-5.141-4.928ZM608.421 636.738c0 3.571-1.428 5.07-4.927 5.142-4.106 0-5.534-1.393-5.356-5.534 0-3.571 1.714-4.82 5.356-4.749s4.927 1.57 4.927 5.141ZM337.559 504.77c3.571 0 5.106 1.393 5.213 4.856 0 4.178-1.321 5.606-5.5 5.427-3.571 0-4.856-1.678-4.785-5.284s1.502-4.963 5.072-4.999ZM627.484 617.885c-3.571 0-5.213-1.285-5.356-4.713s1.214-5.32 4.5-5.57c4.106-.25 5.784 1.25 5.784 5.142s-1.428 4.963-4.928 5.141ZM268.933 295.678c-3.571 0-4.963-1.5-5-5.07s1.607-5.427 5.713-5.213c3.321.214 4.713 1.892 4.57 5.5s-1.677 4.858-5.283 4.783ZM656.409 588.892c0 3.571-1.5 5-5.07 5s-5.463-1.607-5.213-5.713c.214-3.321 1.857-4.677 5.5-4.57s4.854 1.712 4.783 5.283ZM569.002 78.017c0 3.571-1.428 5.07-4.927 5.142-4.106 0-5.534-1.393-5.356-5.534 0-3.571 1.714-4.82 5.356-4.749s4.927 1.57 4.927 5.141ZM363.124 506.483c3.571 0 5.213 1.321 5.356 4.713s-1.214 5.356-4.5 5.57c-4.106.286-5.784-1.214-5.784-5.106s1.429-5.07 4.928-5.177ZM392.475 511.446c0 3.571-1.285 5.177-4.713 5.32s-5.356-1.214-5.57-4.5c-.286-4.106 1.214-5.784 5.142-5.784s5.069 1.429 5.141 4.964ZM411.541 516.766c-3.571 0-5.213-1.285-5.356-4.713s1.214-5.32 4.5-5.57c4.106-.25 5.784 1.25 5.784 5.142s-1.429 5.07-4.928 5.141ZM23.571 427.645c3.571 0 5.356 1.25 5.57 4.535s-1.143 5.5-4.285 5.749c-4.035.357-5.927-1.178-6-4.927s1.282-5.178 4.715-5.357ZM347.914 244.19c0 3.571-1.357 5.106-4.856 5.213-4.178 0-5.57-1.285-5.427-5.5.143-3.426 1.571-4.676 5.142-4.676s5.106 1.428 5.141 4.963ZM515.872 59.164c-3.571 0-5.07-1.393-5.142-4.927s1.428-5.534 5.57-5.356c3.571.179 4.784 1.75 4.713 5.356s-1.57 4.927-5.141 4.927ZM250.224 314.209c0 3.571-1.25 5.32-4.57 5.5s-5.463-1.147-5.713-4.358c-.321-4 1.214-5.856 5-5.927s4.997 1.214 5.283 4.785ZM469.598 269.612c0 3.571-1.25 5.32-4.57 5.5s-5.463-1.143-5.713-4.356c-.321-4 1.214-5.856 5-5.927s5.14 1.356 5.283 4.783ZM486.951 300.82c-3.571 0-5.213-1.285-5.356-4.713s1.214-5.32 4.5-5.57c4.106-.25 5.784 1.214 5.784 5.177s-1.429 5.033-4.928 5.106ZM395.902 243.869c.179 3.571-1.214 5.32-4.5 5.534s-5.5-1.107-5.784-4.285c-.357-4.035 1.178-5.891 4.927-6s5.215 1.328 5.357 4.751ZM443.747 33.456c-3.571 0-4.963-1.5-5-5.07s1.607-5.427 5.713-5.213c3.321.214 4.713 1.892 4.57 5.5s-1.677 4.855-5.283 4.783ZM299.925 267.792c0 3.571-1.214 5.32-4.5 5.534s-5.5-1.107-5.784-4.285c-.357-4.035 1.178-5.891 4.927-6s5.357 1.394 5.357 4.751ZM248.51 436c0 3.571-1.285 5.213-4.713 5.356s-5.356-1.214-5.57-4.463c-.286-4.106 1.214-5.82 5.142-5.82s5.069 1.428 5.141 4.927ZM490.165 465.351c0 3.571-1.428 5.07-4.927 5.142-4.106 0-5.534-1.392-5.356-5.534 0-3.571 1.714-4.82 5.356-4.749s4.927 1.57 4.927 5.141ZM322.064 30.028c-3.571 0-4.963-1.5-5-5.07s1.607-5.427 5.713-5.213c3.321.214 4.713 1.892 4.57 5.5s-1.678 4.858-5.283 4.783ZM248.51 411.867c0 3.571-1.25 5.32-4.57 5.5s-5.463-1.148-5.713-4.361c-.321-4 1.214-5.856 5-5.927s5.14 1.357 5.283 4.788ZM484.594 436.215c3.571 0 5.356 1.25 5.57 4.535s-1.143 5.5-4.285 5.749c-4.035.357-5.927-1.178-6-4.927s1.287-5.178 4.715-5.357ZM514.159 417.363c0 3.571-1.428 5.07-4.927 5.142-4.106 0-5.534-1.393-5.356-5.57 0-3.571 1.714-4.785 5.356-4.713s4.927 1.57 4.927 5.141ZM515.872 343.595c0 3.571-1.357 5.106-4.856 5.213-4.178 0-5.57-1.285-5.427-5.5 0-3.571 1.678-4.82 5.284-4.785s4.964 1.537 4.999 5.072ZM27.633 316.244c-3.571 0-5.213-1.285-5.356-4.713s1.214-5.32 4.5-5.57c4.106-.25 5.784 1.214 5.784 5.177s-1.428 5.034-4.928 5.106ZM265.434 455.067c3.571 0 5.213 1.321 5.356 4.713s-1.214 5.356-4.5 5.57c-4.106.286-5.784-1.214-5.784-5.142s1.429-5.034 4.928-5.141ZM421.61 245.797c0 3.571-1.285 5.177-4.713 5.32s-5.356-1.214-5.57-4.5c-.286-4.106 1.214-5.784 5.142-5.784s5.069 1.429 5.141 4.964ZM510.588 362.519c3.571 0 5.213 1.321 5.356 4.713s-1.214 5.356-4.5 5.57c-4.106.286-5.784-1.214-5.784-5.142s1.358-5.034 4.928-5.141ZM318.564 239.227c3.571 0 5.213 1.321 5.356 4.713s-1.214 5.356-4.5 5.57c-4.106.286-5.784-1.214-5.784-5.106s1.429-5.177 4.928-5.177ZM70.268 559.613c-3.571 0-5.07-1.393-5.142-4.927s1.428-5.534 5.57-5.356c3.571.179 4.785 1.75 4.713 5.356s-1.57 4.927-5.141 4.927ZM294.784 485.846c0 3.571-1.357 5.106-4.856 5.213-4.178 0-5.57-1.285-5.427-5.5 0-3.571 1.678-4.82 5.284-4.785s4.964 1.537 4.999 5.072ZM510.586 398.51c-3.571 0-5.07-1.393-5.142-4.892 0-4.106 1.428-5.57 5.57-5.392 3.571 0 4.785 1.75 4.713 5.356s-1.569 4.928-5.141 4.928ZM435.606 492.737c-3.571 0-5.284-1.214-5.5-4.57s1.178-5.427 4.356-5.713c4.035-.321 5.856 1.25 5.927 5s-1.212 5.283-4.783 5.283ZM245.011 335.097c3.571 0 5.106 1.393 5.213 4.856 0 4.178-1.321 5.606-5.5 5.427-3.571 0-4.856-1.678-4.785-5.284s1.5-4.963 5.072-4.999ZM459.672 494.487c-3.571 0-5.284-1.214-5.5-4.57s1.178-5.427 4.356-5.713c4.035-.321 5.856 1.25 5.927 5s-1.355 5.175-4.783 5.283ZM702.54 497.914c-3.571 0-4.963-1.5-5-5.07s1.607-5.427 5.713-5.213c3.321.214 4.713 1.892 4.57 5.5s-1.677 4.855-5.283 4.783ZM485.023 706.97c0 3.571-1.285 5.213-4.713 5.356s-5.356-1.214-5.57-4.463c-.286-4.106 1.214-5.82 5.142-5.82s5.073 1.357 5.141 4.927ZM486.987 337.632c1.928 2.392 4.642 4.32 4.535 6.07s-2.749 3.571-4.677 5c-1.107.75-5.927-4.356-5.177-5.427a61.734 61.734 0 0 1 5.319-5.643ZM491.057 416.005c-2.428 1.892-4.392 4.57-6.141 4.463s-3.571-2.821-4.927-4.785c-.714-1.143 4.5-5.856 5.534-5.106a77.093 77.093 0 0 1 5.534 5.427ZM734.426 372.694c-2.214 2.071-4.356 5.249-5.606 4.927-2.142-.536-3.749-3.285-5.57-5.106 1.75-1.607 3.571-4.427 5.249-4.5s3.463 2.716 5.927 4.679ZM487.058 325.742a58.657 58.657 0 0 1-5.392-5.606c-.75-1.035 4.035-6.213 5.142-5.463 1.928 1.25 4.606 3.178 4.713 4.963s-2.571 3.678-4.463 6.106ZM268.827 310.21a53.554 53.554 0 0 1 5.32 5.677c.75 1.071-4.07 6.141-5.177 5.392-1.928-1.285-4.606-3.214-4.677-5.035s2.605-3.642 4.534-6.034ZM444.819 270.077c-2.357 1.964-4.178 4.749-5.927 4.713s-3.571-2.856-5.284-4.463c1.821-1.821 3.571-4.57 5.534-5.142 1.249-.321 3.606 2.821 5.677 4.892ZM367.159 250.296a65.444 65.444 0 0 1-5.463-5.463c-.786-1.035 3.856-6.284 5.034-5.57 1.964 1.178 4.713 3.106 4.82 4.856s-2.534 3.749-4.391 6.177ZM52.737 209.127c2.142 2.071 5.07 3.571 5.177 5.427s-2.357 3.963-4.035 5.677c-.821.857-6.32-3.571-5.749-4.82a36.1 36.1 0 0 1 4.606-6.284ZM467.063 463.851c-2.357 1.928-4.213 4.677-6 4.606s-3.571-2.749-5.07-4.642c-.786-1.107 4.249-5.963 5.356-5.213a48.844 48.844 0 0 1 5.714 5.249ZM156.854 95.048c-2.214 2.071-4.356 5.249-5.606 4.927-2.142-.536-3.571-3.285-5.57-5.106 1.75-1.607 3.571-4.427 5.249-4.5s3.606 2.716 5.927 4.679ZM27.243 293.178c-1.964-2.357-4.677-4.249-4.606-6s2.714-3.749 4.606-5.106c1.107-.75 6 4.249 5.249 5.392a55.705 55.705 0 0 1-5.249 5.714ZM706.433 257.08a58.668 58.668 0 0 1-5.391-5.606c-.75-1.035 4.035-6.213 5.142-5.463 1.928 1.25 4.606 3.178 4.713 4.963s-2.572 3.784-4.464 6.106ZM321.349 486.131c-2.357 1.928-4.213 4.677-6 4.606s-3.571-2.749-5.07-4.642c-.786-1.107 4.249-5.963 5.356-5.213a48.844 48.844 0 0 1 5.713 5.249ZM345.379 485.596c-2.107 2.107-3.571 5.07-5.427 5.177s-3.963-2.392-5.677-4.035c-.893-.857 3.571-6.356 4.82-5.784a35.99 35.99 0 0 1 6.284 4.642ZM577.429 654.697c2.071 2.214 5.249 4.356 4.927 5.606-.536 2.178-3.249 3.571-5.07 5.57-1.607-1.714-4.463-3.571-4.5-5.213s2.681-3.678 4.643-5.963ZM463.099 287.965c1.857 2.392 4.57 4.356 4.427 6.106s-2.821 3.571-4.785 4.927c-1.143.714-5.856-4.5-5.07-5.5a55.474 55.474 0 0 1 5.427-5.534ZM411.577 481.597c1.928 2.392 4.642 4.32 4.535 6.07s-2.749 3.571-4.677 5c-1.107.75-5.927-4.356-5.177-5.427a61.746 61.746 0 0 1 5.32-5.641ZM189.989 671.836a53.558 53.558 0 0 1 5.32 5.677c.75 1.071-4.07 6.141-5.177 5.391-1.928-1.285-4.606-3.214-4.677-5.034s2.606-3.642 4.534-6.034ZM224.48 42.847a48.6 48.6 0 0 1 5.07 5.891c.714 1.214-4.32 6.034-5.356 5.249-1.821-1.464-4.427-3.571-4.463-5.249s2.75-3.606 4.749-5.891ZM689.901 201.522c-2.357 1.964-4.178 4.749-5.927 4.713s-3.571-2.856-5.284-4.463c1.821-1.821 3.392-4.57 5.534-5.142 1.32-.25 3.427 2.82 5.677 4.892ZM243.19 370.302c-1.964-2.357-4.677-4.249-4.606-6s2.714-3.571 4.606-5.106c1.107-.75 6 4.249 5.249 5.392a55.706 55.706 0 0 1-5.249 5.713ZM267.791 430.181c1.928 2.392 4.642 4.32 4.535 6.07s-2.749 3.571-4.677 5c-1.107.75-5.927-4.356-5.177-5.427a61.738 61.738 0 0 1 5.32-5.642ZM298.534 30.957a58.665 58.665 0 0 1-5.392-5.606c-.75-1.035 4.035-6.213 5.142-5.463 1.928 1.25 4.606 3.178 4.713 4.963s-2.571 3.714-4.463 6.106ZM244.332 703.4a46.408 46.408 0 0 1-5.927 5.106c-1.178.714-6.034-4.356-5.213-5.356 1.428-1.857 3.571-4.463 5.213-4.5s3.57 2.893 5.927 4.75ZM324.919 268.22a46.412 46.412 0 0 1-5.927 5.106c-1.178.714-6.034-4.32-5.213-5.356 1.428-1.857 3.571-4.463 5.213-4.5s3.535 2.751 5.927 4.75ZM297.465 461.923a48.669 48.669 0 0 1-5.927 5.07c-1.214.714-6.034-4.356-5.213-5.392 1.428-1.821 3.571-4.428 5.249-4.463s3.568 2.75 5.891 4.785ZM358.59 735.32a65.437 65.437 0 0 1-5.463-5.463c-.786-1.035 3.856-6.284 5.034-5.57 1.964 1.178 4.713 3.106 4.82 4.856s-2.356 3.746-4.391 6.177ZM382.049 723.252a53.555 53.555 0 0 1 5.32 5.677c.75 1.071-4.07 6.141-5.177 5.391-1.928-1.285-4.606-3.214-4.677-5.035s2.498-3.641 4.534-6.033ZM468.42 31.742c-3.963 0-3.82 0-4-3.571 0-2.357.214-3.571 3.071-3.571 3.82 0 3.571 0 3.856 3.571-.035 2.54-.035 4.14-2.927 3.571ZM731.962 397.332c.536 2.785-1.071 3.071-3.571 2.964-3.571 0-3.321 0-3.571-3.856 0-2.856 1.107-3.214 3.571-3.106 3.571.177 3.571.07 3.571 3.998ZM266.506 415.652c-3.571.5-2.535-2.107-2.535-3.856 0-3.142 0-2.964 4.249-3.071 3.571 0 2.535 2.214 2.535 3.963.035 3.139-.143 3.211-4.249 2.964ZM484.166 395.082c-3.571.5-2.535-2.107-2.535-3.856 0-3.142 0-2.964 4.249-3.071 3.571 0 2.535 2.214 2.535 3.963.035 3.142-.143 3.214-4.249 2.964ZM635.843 131.142c-3.571 0-3.321 0-3.571-3.82 0-2.892 1.178-3.178 3.571-3.071 3.571.179 3.571 0 3.571 3.892-.287 3.039-.287 3.039-3.571 2.999ZM540.402 50.63c2.749-.571 3.035 1.035 2.928 3.571 0 3.571 0 3.321-3.856 3.571-2.856 0-3.178-1.107-3.071-3.571.179-3.678.036-3.678 3.999-3.571ZM415.611 266.577c3.571-.5 2.535 2.107 2.535 3.856 0 3.142 0 2.964-4.249 3.071-3.571 0-2.535-2.214-2.535-3.963-.035-3.142.143-3.213 4.249-2.964ZM27.422 456.639c0 3.571 0 3.571-3.82 3.571-2.856 0-3.178-1.107-3.071-3.571 0-3.571 0-3.321 3.856-3.571 2.82.11 3.427 1.321 3.035 3.571ZM464.456 439.179c0 3.928 0 3.82-3.571 4-2.357 0-3.571-.25-3.571-3.106.214-3.785 0-3.571 3.571-3.856 2.5-.145 4.107.141 3.571 2.962ZM269.61 336.847c2.785-.571 3.035 1.107 2.928 3.571 0 3.571 0 3.321-3.856 3.571-2.892 0-3.178-1.143-3.071-3.571.145-3.678.038-3.678 3.999-3.571ZM293.927 288.858c3.571-.5 2.535 2.107 2.535 3.856 0 3.142 0 2.964-4.249 3.071-3.571 0-2.535-2.214-2.535-3.963-.035-3.142.143-3.213 4.249-2.964ZM363.873 484.235c2.749-.571 3.035 1.035 2.928 3.392 0 3.571 0 3.321-3.856 3.571-2.856 0-3.178-1.107-3.071-3.571.18-3.492.037-3.492 3.999-3.392ZM390.76 487.131c0 3.928 0 3.821-3.571 4-2.357 0-3.571-.25-3.571-3.106.214-3.785 0-3.571 3.571-3.856 2.5-.109 4.107.177 3.571 2.962ZM436.177 460.244c3.571-.5 2.535 2.107 2.535 3.856 0 3.142 0 2.964-4.249 3.071-3.571 0-2.535-2.214-2.535-3.963.108-3.142.108-3.213 4.249-2.964ZM490.164 367.768c0 3.571 0 3.321-3.82 3.571-2.892 0-3.178-1.143-3.071-3.571 0-3.571 0-3.571 3.892-3.571 2.999 0 2.999 0 2.999 3.571ZM176.671 74.589c-3.571 0-3.571 0-3.571-3.785 0-2.856 1.107-3.213 3.571-3.106 3.571.179 3.356 0 3.571 3.856-.072 2.856-1.322 3.428-3.571 3.035ZM731.962 346.951c0 3.571 0 3.571-3.82 3.571-2.856 0-3.178-1.107-3.071-3.571.179-3.571 0-3.321 3.856-3.571 2.677.107 3.285 1.321 3.035 3.571ZM80.551 167.031c0 3.571 0 3.571-3.82 3.571-2.892.179-3.178-1.143-3.071-3.571 0-3.571 0-3.321 3.892-3.571 2.856.071 3.356 1.357 2.999 3.571ZM728.927 417.398c2.785-.571 3.035 1.107 2.928 3.392 0 3.571 0 3.321-3.856 3.571-2.892 0-3.178-1.143-3.071-3.571.143-3.499-.107-3.499 3.999-3.392ZM507.303 706.506c0 3.928 0 3.82-3.571 4-2.357 0-3.571-.25-3.571-3.106.214-3.785 0-3.571 3.571-3.856 2.5-.145 4.107.177 3.571 2.962ZM118.792 624.847c2.749-.571 3.035 1.035 2.928 3.571 0 3.571 0 3.321-3.856 3.571-2.856 0-3.178-1.107-3.071-3.571.179-3.571.038-3.571 3.999-3.571ZM346.343 268.149c0 3.571 0 3.571-3.82 3.571-2.892 0-3.178-1.143-3.071-3.571 0-3.571 0-3.321 3.856-3.571 2.75.071 3.25 1.357 3.035 3.571ZM335.061 725.894c3.571-.5 2.535 2.107 2.535 3.856 0 3.142 0 2.964-4.249 3.071-3.571 0-2.535-2.214-2.535-3.963-.036-3.142.142-3.213 4.249-2.964ZM408.434 725.894c2.749-.571 3.035 1.035 2.928 3.392 0 3.571 0 3.321-3.856 3.571-2.856 0-3.178-1.107-3.071-3.571.179-3.499.036-3.499 3.999-3.392ZM315.279 457.46c1.5 1.821 3.571 3.356 3.285 4.106-.536 1.5-2.321 2.571-3.571 3.785-1.035-1.178-2.785-2.321-2.856-3.571s1.678-2.428 3.142-4.32ZM664.122 153.106a22.248 22.248 0 0 1-3.749 3.571c-1.214.714-4.427-2.035-3.856-3.356s2-3.071 3.213-3.178 2.535 1.677 4.392 2.963ZM616.169 104.011c-1.857 1.357-3.178 3.035-4.356 2.928s-2.678-1.785-3.285-3.106 2.535-4.106 3.785-3.571a21.421 21.421 0 0 1 3.856 3.749ZM267.291 383.763c1.5 1.821 3.571 3.356 3.285 4.106-.536 1.5-2.321 2.571-3.571 3.785-1.035-1.178-2.785-2.321-2.856-3.571s1.678-2.463 3.142-4.32ZM411.544 468.028a21.177 21.177 0 0 1-3.57-4c-.643-1.285 2.214-4.32 3.57-3.571s2.964 2.107 3.035 3.321-1.681 2.393-3.035 4.25ZM703.041 521.051a22.673 22.673 0 0 1-3.57-3.749c-.714-1.178 2.071-4.392 3.392-3.821s3.071 2 3.178 3.178-1.715 2.536-3 4.392ZM491.664 23.958a21.171 21.171 0 0 1 3.571 4c.643 1.285-2.214 4.32-3.571 3.571s-2.964-2.107-3.071-3.321 1.714-2.393 3.071-4.25ZM278.502 25.175c-1.857 1.357-3.178 3.035-4.356 2.928s-2.785-1.788-3.254-3.109 2.54-4.106 3.79-3.57a21.423 21.423 0 0 1 3.82 3.751ZM50.702 530.621c-1.857 1.428-3.142 3.142-4.356 3.071s-2.321-1.857-3.571-2.928c1.25-1.214 2.357-3 3.856-3.571.821-.143 2.357 1.928 4.071 3.428ZM730.034 318.636c1.5 1.821 3.571 3.356 3.285 4.106-.536 1.5-2.321 2.571-3.571 3.785-1.035-1.178-2.785-2.321-2.856-3.571s1.678-2.428 3.142-4.32ZM557.862 684.404a22.246 22.246 0 0 1-3.749 3.571c-1.214.714-4.427-2.035-3.856-3.356s2-3.071 3.213-3.178 2.535 1.678 4.392 2.963ZM467.134 319.494a24.992 24.992 0 0 1-4 3.571c-1.285.643-4.32-2.214-3.571-3.571s2.107-2.964 3.321-3.035 2.358 1.642 4.25 3.035ZM292.785 312.031a21.96 21.96 0 0 1 3.788 3.571c.714 1.143-2 4.427-3.321 3.892s-3.106-1.928-3.249-3.106 1.389-2.5 2.782-4.357ZM271.897 364.196a21.671 21.671 0 0 1-4.356 3.356c-1.357.536-4.213-2.5-3.571-3.571s2.285-2.785 3.571-2.821 2.464 1.608 4.356 3.036ZM461.029 420.183a21.424 21.424 0 0 1-3.321-4.356c-.536-1.357 2.5-4.213 3.571-3.571s2.821 2.321 2.856 3.571-1.607 2.464-3.106 4.356ZM676.761 560.577a21.173 21.173 0 0 1 3.571 4c.643 1.285-2.214 4.32-3.571 3.57s-2.964-2.107-3.071-3.321 1.717-2.571 3.071-4.249ZM439.177 298.249a22.675 22.675 0 0 1-3.571-3.571c-.714-1.178 2.071-4.392 3.571-3.82s3.071 2 3.178 3.178-1.964 2.32-3.178 4.213ZM321.349 291.858a22.889 22.889 0 0 1-3.57 3.751c-1.178.75-4.463-1.964-3.928-3.285s1.964-3.142 3.142-3.249 2.464 1.534 4.356 2.783ZM23.994 485.31a21.425 21.425 0 0 1-3.321-4.356c-.536-1.357 2.5-4.213 3.571-3.571s2.821 2.321 2.856 3.571-1.607 2.463-3.106 4.356ZM291.213 442.392c-1.428-1.892-3.142-3.178-3.071-4.356s1.892-2.357 2.928-3.571c1.25 1.285 3 2.357 3.571 3.856.178.857-1.857 2.321-3.428 4.071ZM31.885 263.043c-1.785 1.535-3.356 3.571-4.106 3.285-1.5-.5-2.535-2.285-3.785-3.571 1.178-1 2.357-2.785 3.571-2.821s2.463 1.679 4.32 3.107ZM726.677 449.318a21.425 21.425 0 0 1-3.32-4.356c-.536-1.357 2.5-4.213 3.57-3.571s2.821 2.321 2.856 3.571-1.607 2.464-3.106 4.356ZM395.295 269.974a21.674 21.674 0 0 1-4.356 3.356c-1.393.536-4.213-2.5-3.571-3.571s2.285-2.785 3.571-2.821 2.464 1.567 4.356 3.036ZM142.107 656.626c-1.428-1.892-3.142-3.178-3.071-4.356s1.892-2.357 2.928-3.571c1.25 1.285 3 2.357 3.571 3.856.178.857-1.892 2.321-3.428 4.071ZM314.422 728.894a22.883 22.883 0 0 1-3.57 3.751c-1.178.75-4.463-1.964-3.928-3.285s1.964-3.142 3.142-3.249 2.535 1.534 4.356 2.783ZM367.123 272.541a22.671 22.671 0 0 1-3.571-3.571c-.714-1.178 2.071-4.392 3.571-3.82s3.071 2 3.178 3.178-1.892 2.356-3.178 4.213ZM98.654 603.996a24.994 24.994 0 0 1-4 3.571c-1.285.643-4.32-2.214-3.571-3.571s2.107-2.964 3.321-3.035 2.358 1.642 4.25 3.035ZM436.285 730.822a25 25 0 0 1-4 3.571c-1.285.643-4.32-2.214-3.571-3.571s2.107-2.964 3.321-3.035 2.358 1.642 4.25 3.035ZM70.554 575.859c.75 1.357 1.535 2.25 1.357 2.535a8.213 8.213 0 0 1-2.036 1.785c-.428-.536-1.321-1.214-1.214-1.643a15.465 15.465 0 0 1 1.893-2.677ZM729.748 301.748a9.641 9.641 0 0 1-1.25-3.035c0-.428 1.357-1.357 1.535-1.214a4.535 4.535 0 0 1 1.678 2.071c.25.357-.856.964-1.963 2.178ZM601.851 658.125c.75 1.357 1.535 2.249 1.357 2.535a8.21 8.21 0 0 1-2.035 1.785c-.428-.536-1.321-1.214-1.214-1.642a15.459 15.459 0 0 1 1.892-2.678ZM341.951 462.315a11.639 11.639 0 0 1-3 1.25c-.428 0-1.357-1.393-1.25-1.535a5.284 5.284 0 0 1 2.071-1.714c.287-.107 1.001.857 2.179 1.999ZM365.945 461.678c-1.214.928-1.857 1.678-2.642 1.892s-1.107-.786-1.678-1.214a7.641 7.641 0 0 1 1.785-2.035c.322-.183 1.179.602 2.535 1.357ZM293.963 411.864c-1.178 1.143-1.892 2.107-2.178 2a5.284 5.284 0 0 1-2.071-1.714s.821-1.536 1.25-1.536a10.461 10.461 0 0 1 3 1.25ZM441.355 317.78c-1.178 1.143-1.892 2.107-2.178 2a5.284 5.284 0 0 1-2.071-1.714s.821-1.535 1.25-1.535a10.462 10.462 0 0 1 2.999 1.249ZM342.416 289.644c1.107 1.178 2.071 1.892 1.964 2.178a4.535 4.535 0 0 1-1.678 2.071s-1.535-.785-1.535-1.214a9.641 9.641 0 0 1 1.249-3.035ZM386.976 461.03c1.107 1.178 2.071 1.892 1.964 2.178a4.535 4.535 0 0 1-1.678 2.071s-1.535-.786-1.535-1.214a9.641 9.641 0 0 1 1.25-3.035ZM703.575 540.511c-1.214.928-1.857 1.678-2.642 1.892s-1.107-.786-1.678-1.214a7.64 7.64 0 0 1 1.785-2.035 14.269 14.269 0 0 1 2.535 1.357ZM4.32 383.371c-1.357.75-2.214 1.535-2.535 1.357A7.641 7.641 0 0 1 0 382.692c.571-.428 1.25-1.321 1.678-1.214a15.677 15.677 0 0 1 2.642 1.893ZM626.917 639.38a9.64 9.64 0 0 1-1.25-3.035c0-.428 1.357-1.357 1.535-1.214a4.535 4.535 0 0 1 1.678 2.071c.108.285-.856.964-1.963 2.178ZM165.888 680.513a9.643 9.643 0 0 1-1.25-3.035c0-.428 1.357-1.357 1.535-1.214a4.534 4.534 0 0 1 1.642 2.142 16.316 16.316 0 0 1-1.927 2.107ZM729.284 468.422c-1.178 1.107-1.892 2.107-2.178 2a5.286 5.286 0 0 1-2.071-1.714s.821-1.535 1.25-1.535a10.462 10.462 0 0 1 3 1.25ZM460.601 389.191c1.107 1.178 2.071 1.892 1.964 2.178a4.535 4.535 0 0 1-1.678 2.071s-1.535-.786-1.535-1.214a9.642 9.642 0 0 1 1.249-3.035ZM465.349 367.946c-1.357.75-2.214 1.535-2.535 1.357a7.642 7.642 0 0 1-1.785-2.035c.571-.428 1.25-1.321 1.678-1.214a14.327 14.327 0 0 1 2.642 1.892ZM55.736 191.524a11.64 11.64 0 0 1-3 1.25c-.428 0-1.357-1.393-1.25-1.535a5.284 5.284 0 0 1 2.075-1.714c.283-.107 1 .857 2.175 1.999ZM348.2 0c.75 1.357 1.535 2.249 1.357 2.535a8.212 8.212 0 0 1-2.036 1.785c-.428-.535-1.178-1.214-1.178-1.642S347.271 1.214 348.2 0ZM371.551 0c1.107 1.178 2.071 1.892 1.964 2.178a4.534 4.534 0 0 1-1.678 2.071s-1.535-.786-1.535-1.214A9.641 9.641 0 0 1 371.551 0ZM398.508 2.999a11.639 11.639 0 0 1-3 1.25c-.428 0-1.357-1.393-1.25-1.535A5.285 5.285 0 0 1 396.333 1c.283-.107 1 .857 2.175 1.999ZM295.677 339.882c-1.178 1.143-1.892 2.107-2.178 2a5.285 5.285 0 0 1-2.071-1.714s.821-1.535 1.25-1.535a10.462 10.462 0 0 1 3 1.25ZM463.028 341.06c.75 1.357 1.535 2.249 1.357 2.535a8.212 8.212 0 0 1-2.035 1.785c-.428-.536-1.321-1.214-1.214-1.642a15.465 15.465 0 0 1 1.892-2.678ZM683.474 180.064a9.641 9.641 0 0 1-1.25-3.035c0-.428 1.357-1.357 1.535-1.214a4.535 4.535 0 0 1 1.678 2.071c.108.285-.856.964-1.963 2.178ZM415.04 296.606c-.928-1.214-1.714-1.892-1.892-2.678s.786-1.107 1.214-1.678a10 10 0 0 1 2.035 1.785c.178.322-.607 1.214-1.357 2.571ZM27.708 236.514c.75 1.357 1.535 2.249 1.357 2.535a8.212 8.212 0 0 1-2.036 1.785c-.428-.536-1.321-1.214-1.214-1.642a15.465 15.465 0 0 1 1.893-2.678ZM252.83 24.53c-1.178 1.107-1.892 2.107-2.178 2a5.284 5.284 0 0 1-2.071-1.536s.821-1.535 1.25-1.535a10.462 10.462 0 0 1 3 1.071ZM200.807 49.988c-.928-1.214-1.714-1.892-1.892-2.678s.786-1.107 1.214-1.678a9.14 9.14 0 0 1 2.035 1.82c.178.108-.607 1-1.357 2.536ZM315.636 440.571c-.928-1.214-1.714-1.892-1.892-2.678s.786-1.107 1.214-1.678a9.141 9.141 0 0 1 2.035 1.821c.178.286-.607 1.143-1.357 2.535ZM590.461 77.66c-1.178 1.143-1.892 2.107-2.178 2a5.285 5.285 0 0 1-2.071-1.714s.82-1.536 1.25-1.536a10.462 10.462 0 0 1 3 1.25ZM129.432 94.799c-1.178 1.107-1.892 2.107-2.178 2a5.285 5.285 0 0 1-2.071-1.714s.821-1.535 1.25-1.535a10.461 10.461 0 0 1 3 1.25ZM651.553 615.385c-.928-1.214-1.714-1.892-1.892-2.678s.786-1.107 1.214-1.678a9.138 9.138 0 0 1 2.035 1.821c.178.286-.607 1.285-1.357 2.535ZM439.641 439.392c-1.214.928-1.857 1.678-2.642 1.892s-1.107-.786-1.678-1.214a7.641 7.641 0 0 1 1.785-2.035c.322-.178 1.179.607 2.535 1.357ZM102.475 116.543c1.107 1.178 2.071 1.892 1.964 2.178a4.535 4.535 0 0 1-1.678 2.071c-.179 0-1.535-.786-1.535-1.214a9.64 9.64 0 0 1 1.249-3.035ZM4.32 358.734c-1.178 1.107-1.892 2.107-2.178 2a5.284 5.284 0 0 1-2.071-1.715s.821-1.535 1.25-1.535a10.462 10.462 0 0 1 3 1.25ZM455.53 733.643a9.641 9.641 0 0 1-1.25-3.035c0-.428 1.357-1.357 1.535-1.214a4.535 4.535 0 0 1 1.678 2.071c.108.285-.856.964-1.963 2.178Z"/></svg>