<svg xmlns="http://www.w3.org/2000/svg" width="675.168" height="675.439"><path d="M352.1 608.562c-2.678-1.535-7.141-1-9.426-4.427s-6.427-4.392-7.141-9.069c-.321-2.571-2.714-5.391-1.357-7.748 1.714-3 1.571-7.141 5.142-9.069 3.035-1.678 4.32-5.213 8.676-6 7.141-1.285 11.283-1.25 15.925 3.749 2.535 2.714 7.141 4.392 6.177 9.391a1.757 1.757 0 0 0 1.285.786c.393-.071 1.964-.643 1.964-.964-.179-6.213 5.356-8.5 8.891-11.569a15.818 15.818 0 0 1 10.212-2c6.177.214 9.069 4.677 13.068 7.927 2.428 2 1.964 4.356 2.249 6.82.25 1.857 3.321 3.571.214 5.534.893 6.855-4.856 9.533-8.462 13.568-1.107 1.25-9.141 1.857-11.033 1.892-5.784 0-8.926-3.571-12.39-7.32-1.571-1.643-3.285-3.071-2.749-5.749a2.5 2.5 0 0 0-1.714-1.143 2.214 2.214 0 0 0-1.571 1.357 20.745 20.745 0 0 1-17.96 14.034ZM608.322 362.658c-1.428 2.607-1.071 6.713-4.32 9.391s-5.463 7.141-10.712 7.391c-1.178 0-2.321 1.5-3.57 2.285a21.96 21.96 0 0 1 4.07.607 10.462 10.462 0 0 1 3.571 1.857c1.75 1.5 3.285 3.178 4.892 4.82 2.642 2.749 2.856 8.569 3 12.89.25 7.391-5.891 9.748-9.355 14.282a78.551 78.551 0 0 1-10.462.714c-7.141.857-10-5.427-14.068-9.283-1.071-1 0-4.07-.893-5.5s-2.428-3.106 0-4.856c-.75-6.748 4.927-9.5 8.462-13.64 1.821-2.142 4.178-.928 6.32-1.321a1.571 1.571 0 0 0 .928-1.178c0-.75-.321-1.892-.857-2.142-8.605-4.07-11.14-6.855-13.782-13.747a11.212 11.212 0 0 1 .857-8.462 18.353 18.353 0 0 1 23.744-12.14 23.815 23.815 0 0 1 12.175 18.032ZM416.655 85.547a16.175 16.175 0 0 1-10.926 16.746 17.853 17.853 0 0 1-23.6-11.783v-1.679c0-.393-1.107-1.25-1.714-1.25s-1.647.966-1.572 1.286c1 4.392-2.749 6.284-4.535 9.283-2.856 4.856-8.248 3.892-11.961 6.463-3.106-2.249-7.605-.464-10.426-3.571-1.535-1.714-3.249-3.213-4.82-4.856-2.642-2.749-2.714-8.391-2.892-12.89-.357-7.462 5.927-9.676 9.319-14.282a85.23 85.23 0 0 1 10.426-.678c6.891-.928 9.426 5.07 13.6 8.462 1.892 1.571.857 3.571 1.25 5.463 0 .678.821 1.178 1.285 1.75.678-.607 1.607-1.071 2.035-1.821.75-1.393 1.143-2.964 1.785-4.392 3.571-8.141 10.319-9.855 18.353-9.212a15.925 15.925 0 0 1 13.389 10.5 23.5 23.5 0 0 1 1 6.463ZM165.967 178.31c-9.462-1.178-18.424-9.355-18.46-18.853s10.176-19.316 19.281-18.638a19.924 19.924 0 0 1 17.853 19.067 20.888 20.888 0 0 1-18.674 18.424ZM495.207 126.823a20.888 20.888 0 0 1-18.567 18.745 19.924 19.924 0 0 1-18.924-18.174 19.888 19.888 0 0 1 18.78-19.138c9.534.214 17.6 9.069 18.711 18.567ZM294.685 588.781c1.857-9.819 10.712-18.424 19.5-17.853a19.924 19.924 0 0 1 17.853 19.067c-.5 9.962-10.712 19.245-19.709 18.246a21.066 21.066 0 0 1-17.644-19.46ZM567.189 476.738c-1.178 9.462-9.355 18.388-18.852 18.46s-19.317-10.176-18.638-19.281a19.924 19.924 0 0 1 19.067-18.031 20.888 20.888 0 0 1 18.423 18.852ZM126.548 178.31a20.959 20.959 0 0 1 18.853 18.46 19.924 19.924 0 0 1-17.853 19.067c-9.1.678-19.317-8.891-19.281-18.674s8.819-17.639 18.281-18.853ZM553.693 186.879c9.462 1.214 18.424 9.391 18.46 18.853s-10.176 19.352-19.281 18.674c-9.89-.75-18.46-10.14-18.031-19.067a20.959 20.959 0 0 1 18.852-18.46ZM589.041 341.127c-9.391-1.214-18.388-9.462-18.353-18.924s10.176-19.281 19.352-18.567c9.962.786 18.46 10.247 17.853 19.138a20.923 20.923 0 0 1-18.852 18.353ZM224.42 122.038c-1.214 9.426-9.462 18.424-18.924 18.388s-19.284-10.176-18.57-19.352c.821-9.962 10.283-18.46 19.138-17.853a20.923 20.923 0 0 1 18.356 18.817ZM121.299 488.52c-9.391-1.214-18.424-9.462-18.353-18.924s10.176-19.281 19.352-18.567c9.962.821 18.46 10.283 17.853 19.138a20.923 20.923 0 0 1-18.852 18.353ZM178.142 509.408c-1.214 9.391-9.462 18.388-18.924 18.353s-19.281-10.212-18.567-19.352c.821-9.962 10.283-18.46 19.138-17.853a20.923 20.923 0 0 1 18.353 18.852ZM470.356 534.794c9.855 1.857 18.424 10.712 17.853 19.5a19.924 19.924 0 0 1-19.067 18.031c-9.962-.5-19.245-10.712-18.245-19.71a21.031 21.031 0 0 1 19.459-17.821ZM513.774 185.165c-9.391-1.214-18.424-9.462-18.353-18.924s10.176-19.281 19.352-18.567c9.962.821 18.46 10.283 17.853 19.138a20.923 20.923 0 0 1-18.853 18.353ZM196.928 529.653a20.959 20.959 0 0 1 18.745 18.6 19.959 19.959 0 0 1-18.174 18.924 19.924 19.924 0 0 1-19.071-18.778c0-9.566 9-17.603 18.5-18.746ZM103.91 352.482a22.53 22.53 0 0 1-1.321 8.105 71.7 71.7 0 0 1-8.177 8.641c-2.321 2.5-6.391-.678-8.319 2.749-2.535-.821-5.57-1.071-7.677-2.035-3.571-1.535-5.749-5.284-8.784-7.855s.643-6.391-2.892-8.248c1.035-2.785 1.035-6.141 2.214-8.462a29.706 29.706 0 0 1 8.248-8.534c2.285-1.857 6.034 0 8.319-2.571 2.357 1.821 5.677.857 7.712 2a28.172 28.172 0 0 1 8.462 8.355 24.245 24.245 0 0 1 2.214 7.855ZM527.234 514.835c-2.392 2.464-.607 7.141-4.106 10.712a33.348 33.348 0 0 1-14.068 7.712c-2.428-2.107-6.07-.75-8.355-2.428a34.955 34.955 0 0 1-8.391-8.462 27.315 27.315 0 0 1-2.249-8.462c3.57-1.892.286-5.963 2.749-8.284a43.7 43.7 0 0 1 8.712-8.034 22.21 22.21 0 0 1 7.712-1.785 13.854 13.854 0 0 1 8.212 2.535 33.028 33.028 0 0 1 8.391 8.427 21.96 21.96 0 0 1 1.392 8.069ZM273.798 606.277c-1.75-.321-4.106-.643-6.427-1.25a6.248 6.248 0 0 1-2.678-1.75 60.391 60.391 0 0 1-7.141-7.141c-1.535-2.107.607-5.642-2.214-7.641 1.035-2.5 1-5.677 2.035-7.677a37.027 37.027 0 0 1 8.534-9.462c2.035-1.821 5.749.786 7.57-2.321 2.785 1.178 6.177 1 8.462 2.249a28.958 28.958 0 0 1 8.534 8.284c1.785 2.285.214 5.963 2.5 8.319-2.892 2.821-.857 7.141-4.035 10.426a23.53 23.53 0 0 1-15.14 7.964ZM103.911 314.527a25.958 25.958 0 0 1-7.141 13.39c-3.392 3.571-8 1.785-11.069 4.642-2.428-2.142-6.07-.75-8.355-2.464a36.992 36.992 0 0 1-8.391-8.462 27.244 27.244 0 0 1-2.178-8.5c3.571-1.857.25-5.963 2.821-8.248a44.453 44.453 0 0 1 8.855-8 20.888 20.888 0 0 1 7.712-1.785 14.284 14.284 0 0 1 8.182 2.573 33.17 33.17 0 0 1 8.389 8.461 22.173 22.173 0 0 1 1.178 8.391ZM590.148 301.173a21.743 21.743 0 0 1-8.248-1.178 71.412 71.412 0 0 1-8.676-8.141c-2.464-2.321.678-6.391-2.749-8.319.857-2.535 1.107-5.57 2.035-7.677 1.535-3.571 5.32-5.749 7.855-8.784s6.427.643 8.248-2.892c2.821 1.035 6.177 1.035 8.5 2.214a29.708 29.708 0 0 1 8.534 8.248c1.857 2.285 0 6.034 2.535 8.319-1.785 2.357-.821 5.677-2 7.712a28.065 28.065 0 0 1-8.319 8.462 24.244 24.244 0 0 1-7.712 2.035ZM321.25 104.078a25.958 25.958 0 0 1-13.39-7.141c-3.571-3.392-1.821-8-4.677-11.069 2.178-2.428.786-6.07 2.5-8.355a36.313 36.313 0 0 1 8.426-8.424 27.279 27.279 0 0 1 8.462-2.178c1.892 3.571 6 .25 8.284 2.821a45.6 45.6 0 0 1 8.248 8.891 20.889 20.889 0 0 1 1.785 7.712 14.284 14.284 0 0 1-2.572 8.178 33.171 33.171 0 0 1-8.461 8.389 22.03 22.03 0 0 1-8.605 1.178ZM430.081 574.213c10.712 0 17.174 6.427 17.139 17.317s-6.534 17-17.531 16.96a15.71 15.71 0 0 1-16.746-16.889c-.001-10.888 6.355-17.388 17.138-17.388ZM591.361 228.012c10.712 0 17 6.57 16.96 17.531s-6.641 16.639-17.853 16.853a15.425 15.425 0 0 1-11.783-4.677 15.746 15.746 0 0 1-4.856-12.533c.432-10.814 6.642-17.174 17.532-17.174ZM587.791 455.957c-10.712 0-17.174-6.427-17.174-17.317s6.606-17 17.567-16.96a15.746 15.746 0 0 1 16.71 16.924c.036 10.926-6.317 17.353-17.103 17.353ZM236.199 565.643c-10.712 0-16.96-6.57-16.924-17.567s6.677-16.746 17.853-16.71c10.14 0 16.46 6.677 16.46 17.174s-6.463 17.139-17.389 17.103ZM299.827 83.905c0 10.926-6.32 17.281-17.174 17.281s-17.1-6.463-17.1-17.389a15.782 15.782 0 0 1 16.778-16.888c10.962 0 17.496 6.32 17.496 16.996ZM84.951 291.39a13.854 13.854 0 0 1-11.89-4.677 16.21 16.21 0 0 1-4.642-13.5c.25-9.819 7.141-16.1 17.6-16.068s16.6 6.677 16.817 17.853a15.818 15.818 0 0 1-4.677 11.783 14.711 14.711 0 0 1-13.211 4.606ZM104.446 430.03c0-10.712 6.606-16.96 17.6-16.924s16.746 6.677 16.674 17.853c0 10.14-6.641 16.46-17.139 16.46s-17.135-6.494-17.135-17.389ZM568.903 243.187c0 10.926-6.32 17.389-17.067 17.389s-17.206-6.358-17.206-17.282a15.782 15.782 0 0 1 16.674-17c11.026-.031 17.599 6.253 17.599 16.893ZM142.151 236.188c0 11-6.284 17.531-16.96 17.531s-17.1-6.32-17.389-17.139a15.639 15.639 0 0 1 4.856-12.533 15.389 15.389 0 0 1 11.747-4.677c11.176.215 17.746 6.285 17.746 16.818ZM439.078 142.319c-10.926 0-17.424-6.32-17.424-17.067s6.391-17.21 17.317-17.21a15.746 15.746 0 0 1 16.963 16.674c-.11 11.033-6.394 17.603-16.856 17.603ZM243.198 138.891c-10.712 0-17.067-6.5-17.067-17.424s6.606-16.889 17.853-16.853a15.71 15.71 0 0 1 16.567 17.031c0 10.89-6.463 17.281-17.353 17.246ZM84.272 407.968c-10.962 0-17.5-6.284-17.531-16.96s6.356-17.1 17.174-17.389a15.639 15.639 0 0 1 12.39 4.927 15.389 15.389 0 0 1 4.677 11.747c-.071 11.034-6.141 17.675-16.71 17.675ZM219.345 587.282a13.675 13.675 0 0 1 4.677-11.89 16.175 16.175 0 0 1 13.461-4.642c9.855.25 16.1 7.141 16.067 17.6s-6.641 16.6-17.853 16.817a15.782 15.782 0 0 1-11.747-4.677 14.6 14.6 0 0 1-4.605-13.208ZM565.193 439.242c2.357 5.249-2 8.427-4.427 11.569a15.818 15.818 0 0 1-13.068 5.32 16.1 16.1 0 0 1-11.533-5.07 16.675 16.675 0 0 1-5.213-13.211 16.139 16.139 0 0 1 5.241-11.422 17.853 17.853 0 0 1 12.39-5.106 16.282 16.282 0 0 1 12.247 5.463c2.963 3.178 6.463 7.141 4.363 12.457ZM438.328 104.614a17.148 17.148 0 1 1 17.692-16.585 17.148 17.148 0 0 1-17.692 16.585ZM227.844 83.831a16.96 16.96 0 0 1 17.6-16.853 16.5 16.5 0 0 1 16.57 17.853 16.353 16.353 0 0 1-17.031 16.426 16.924 16.924 0 0 1-17.139-17.426ZM101.019 430.249a17.032 17.032 0 0 1-17.317 17.139 16.817 16.817 0 0 1-16.889-17.531 16.532 16.532 0 0 1 16.849-16.68 16.889 16.889 0 0 1 17.353 17.067ZM447.219 551.576a17.139 17.139 0 1 1-17.854-16.712 16.853 16.853 0 0 1 17.853 16.71ZM104.447 236.545a17.032 17.032 0 0 1-17.282 17.032 16.817 16.817 0 0 1-16.924-17.5 16.5 16.5 0 0 1 16.817-16.71 16.853 16.853 0 0 1 17.389 17.178ZM507.596 570.786a17.139 17.139 0 1 1 16.71-17.853 16.853 16.853 0 0 1-16.71 17.853ZM547.479 498.8c8.819 1.25 16.746 6.248 16.139 18.21a16.1 16.1 0 0 1-17.424 16 16.567 16.567 0 0 1-16.639-17.853 16.889 16.889 0 0 1 17.924-16.357ZM570.617 166.706a17.143 17.143 0 1 1-16.746-17.531 17.143 17.143 0 0 1 16.746 17.531ZM159.718 529.653a18.674 18.674 0 0 1 16.71 17.853c0 8-9.212 16.389-17.531 16.282a18.674 18.674 0 0 1-16.746-17.856c.179-8 9.248-16.386 17.567-16.279ZM138.724 507.086a18.781 18.781 0 0 1-16.389 17.46 18.638 18.638 0 0 1-17.853-16.817 18.888 18.888 0 0 1 16.389-17.46 18.638 18.638 0 0 1 17.853 16.817ZM476.676 181.738c-7.784.321-16.924-8.248-17.46-16.389s8.355-17.531 16.817-17.853c7.819-.286 16.96 8.284 17.46 16.389s-8.32 17.531-16.817 17.853ZM140.437 392.543c0 8.391-9.319 17.531-17.531 17.139a19.245 19.245 0 0 1-16.746-17.105c0-8.391 9.355-17.531 17.567-17.174a19.245 19.245 0 0 1 16.71 17.139ZM147.293 198.591c.321-8.462 9.748-17.353 17.853-16.853s16.674 9.641 16.389 17.46c-.286 8.462-9.712 17.353-17.853 16.817s-16.674-9.605-16.389-17.424ZM142.151 276c0 8.391-9.355 17.531-17.531 17.139A19.245 19.245 0 0 1 107.874 276c0-8.355 9.355-17.5 17.567-17.139A19.281 19.281 0 0 1 142.151 276ZM183.284 121.752c0 8.391-9.319 17.531-17.531 17.139a19.245 19.245 0 0 1-16.746-17.1c0-8.391 9.355-17.531 17.567-17.174a19.245 19.245 0 0 1 16.71 17.135ZM282.652 140.605c-8.391 0-17.46-9.426-17.1-17.6a19.281 19.281 0 0 1 17.207-16.677c8.355 0 17.46 9.462 17.067 17.639a19.174 19.174 0 0 1-17.174 16.638ZM398.98 142.319c-8.426-.25-17.353-9.676-16.889-17.853s9.569-16.71 17.424-16.46c8.426.286 17.353 9.712 16.853 17.853s-9.429 16.713-17.388 16.46ZM515.737 144.035c-8.355 0-17.46-9.391-17.1-17.6a19.281 19.281 0 0 1 17.172-16.68c8.391 0 17.5 9.426 17.1 17.6a19.174 19.174 0 0 1-17.172 16.68ZM109.588 159.172c.321-8.462 9.748-17.353 17.853-16.853s16.674 9.645 16.389 17.46c-.286 8.462-9.712 17.353-17.853 16.817s-16.675-9.605-16.389-17.424ZM186.712 160.743c.321-8.462 9.748-17.353 17.853-16.853s16.71 9.711 16.422 17.605c-.286 8.462-9.748 17.353-17.853 16.817s-16.708-9.607-16.422-17.569ZM513.806 186.88c7.141-.214 16.889 9.141 17.389 16.46s-9.426 17.567-16.853 17.853-16.889-9.1-17.424-16.46 9.465-17.603 16.888-17.853ZM551.836 299.995c-4.428-2.535-10.14-2.357-12.783-7.141a86.792 86.792 0 0 1-4.427-10.712c2.749-3.571 2.107-9.283 6.57-11.747 3.571-1.892 7.5-4.82 10.712-4.285 4.392.75 9.89 1.821 12.5 6.463a77.3 77.3 0 0 1 4.428 10.962c-2.714 3.571-2.071 9.248-6.534 11.747a84.334 84.334 0 0 1-10.466 4.713ZM293.079 550.22c-2.392 4.5-2.428 10.14-7.141 12.783a82.118 82.118 0 0 1-11 4.356c-3.571-2.749-9.248-2.107-11.711-6.57-1.892-3.571-4.785-7.5-4.249-10.712.678-4.392 1.892-9.855 6.5-12.5a81.625 81.625 0 0 1 10.962-4.392c3.571 2.785 9.248 2.142 11.747 6.606 2.071 3.323 3.392 7.072 4.892 10.429ZM198.708 491.876c3.321 1.464 7.141 2.785 10.5 4.677 4.5 2.5 3.856 8.141 6.641 11.711a75.662 75.662 0 0 1-4.32 11c-2.607 4.642-8.105 5.82-12.5 6.57-3.285.571-7.355-2.321-10.712-4.213-4.463-2.428-3.856-8.105-6.641-11.711a82.124 82.124 0 0 1 4.356-11c2.5-4.574 8.178-4.574 12.676-7.034ZM567.368 399.542a105.834 105.834 0 0 1-5 10.712c-2.642 4.213-8.069 3.856-11.819 6.391-3.821-1.75-8.177-2.142-11.6-5a17.853 17.853 0 0 1-5.606-12.1c-.393-3.392 2.428-7.391 4.428-10.712 2.607-4.213 8.069-3.856 11.818-6.427 3.821 1.785 8.141 2.214 11.569 5.035s3.746 8.066 6.21 12.101Z"/><path d="M392.448 534.544c3.82 2.785 8.569 2.535 11.711 5.927a15.853 15.853 0 0 1-.607 23.53c-3.356 3.035-7.819 3.178-11.569 5.07-3.571-2.535-8.212-2.249-11.354-5.641a17.389 17.389 0 0 1-4.927-11.461 14.818 14.818 0 0 1 5.641-11.961 96.788 96.788 0 0 1 11.105-5.464ZM178.428 469.668c-1.571 3.571-2.928 7.141-4.892 10.712-2.5 4.428-8.105 3.785-11.747 6.5a42.847 42.847 0 0 1-11.747-4.791 18.174 18.174 0 0 1-5.749-12.069c-.536-3.285 2.392-7.355 4.32-10.712 2.464-4.463 8.105-3.785 11.747-6.534a42.846 42.846 0 0 1 11.64 4.927c4 2.969 3.678 7.968 6.428 11.967ZM468.642 529.653c-10 0-14.639-5.284-14.568-16.5 0-9.64 5.32-14.282 15.853-14.282s15.068 5.07 15 16.068c-.04 10.001-5.217 14.786-16.285 14.714ZM524.343 476.451c0 10.712-4.963 15.532-15.568 15.5s-15.282-4.927-15.282-15.782c0-10.1 4.963-15.032 15.139-15.068 10.747-.003 15.711 4.853 15.711 15.35ZM337.532 123.823c0 10.462-4.963 15.139-15.96 15.068-10.212 0-14.925-5.177-14.889-16.21 0-9.712 5.32-14.639 15.568-14.639s15.316 4.959 15.281 15.781ZM467.319 606.455c-4.927 2.5-8.248-1.571-10.926-3.892a16.068 16.068 0 0 1-4.32-11.818 14.639 14.639 0 0 1 4.642-10.926 15.746 15.746 0 0 1 11.961-4.178 16.246 16.246 0 0 1 10.712 4.785 16.425 16.425 0 0 1 4.07 11.14 14.711 14.711 0 0 1-4.392 11.033c-2.64 2.785-6.639 6.108-11.747 3.856ZM108.227 352.66c-2.5-4.892 1.571-8.248 3.892-10.712a15.924 15.924 0 0 1 11.819-4.356 14.282 14.282 0 0 1 10.712 4.642 15.71 15.71 0 0 1 4.5 11.783 16.246 16.246 0 0 1-4.785 10.712 16.6 16.6 0 0 1-11.14 4.07 14.711 14.711 0 0 1-11.033-4.392c-2.889-2.642-6.21-6.605-3.965-11.747ZM586.541 463.169c4.892-2.5 8.248 1.571 10.712 3.892a15.889 15.889 0 0 1 4.356 11.819 14.532 14.532 0 0 1-4.642 10.89 15.746 15.746 0 0 1-11.961 4.213 16.246 16.246 0 0 1-10.712-4.785 16.425 16.425 0 0 1-4.07-11.14 14.675 14.675 0 0 1 4.392-11.033c2.82-2.785 6.783-6.106 11.925-3.856ZM374.986 125.037c2.035 5.106-1.464 8.926-4.178 11.711a15.782 15.782 0 0 1-11.1 4.142 15.567 15.567 0 0 1-11.1-4.32 16.924 16.924 0 0 1-4.543-11.533 15.318 15.318 0 0 1 15.5-15.425 16.425 16.425 0 0 1 11.14 4c2.67 2.677 6.388 6.355 4.281 11.425ZM140.187 313.812c2.107 5.142-1.607 8.784-4.285 11.676a16.5 16.5 0 0 1-11.033 4 15.389 15.389 0 0 1-11.176-4.5 16.889 16.889 0 0 1-4.427-11.819 13.711 13.711 0 0 1 4.606-10.926 14.639 14.639 0 0 1 11-4.285 15.925 15.925 0 0 1 11.1 4.106c2.753 2.822 6.253 6.642 4.215 11.748ZM196.888 601.635a15.429 15.429 0 0 1 .678-30.85 15.925 15.925 0 0 1 14.854 15.358 15.746 15.746 0 0 1-15.532 15.492ZM565.475 360.087a15.428 15.428 0 1 1-30.85-.607 15.429 15.429 0 0 1 30.85.607ZM337.531 549.36c0-7.141 8.641-15.353 16.532-14.782 6.284.464 15.246 9.176 14.5 16.1a16.389 16.389 0 0 1-16.246 14.961 15.889 15.889 0 0 1-14.786-16.279ZM328.962 549.934a15.746 15.746 0 0 1-15.46 15.6 16 16 0 0 1-15.389-14.818 15.43 15.43 0 0 1 30.849-.785ZM591.218 221.157a15.425 15.425 0 1 1 15.389-15.639 15.782 15.782 0 0 1-15.389 15.639ZM82.376 452.529a15.43 15.43 0 1 1-15.835 15.014 15.43 15.43 0 0 1 15.835-15.014ZM477.997 102.9a15.428 15.428 0 1 1 15.728-15.122 15.428 15.428 0 0 1-15.728 15.122ZM565.475 322.097a15.746 15.746 0 0 1-15.46 15.6 16 16 0 0 1-15.389-14.816 15.43 15.43 0 1 1 30.849-.785ZM312.609 642.768c-3.142-1.393-7.5-1.642-10.712-5.356a16.46 16.46 0 0 1-3.57-10.355 15.568 15.568 0 0 1 15.782-15.139 16.139 16.139 0 0 1 14.889 15.318 21.423 21.423 0 0 1-4.677 10.712 21.1 21.1 0 0 1-11.712 4.82ZM102.768 196.77c-.321 9-7.962 16.532-15.96 15.71a15.282 15.282 0 0 1-9-27.208 42.454 42.454 0 0 1 9.6-3.571 18.21 18.21 0 0 1 11.426 5.356 27.208 27.208 0 0 1 3.934 9.713ZM205.028 97.794a21.673 21.673 0 0 1-10.176-4.57 15.5 15.5 0 0 1-4.57-11.033 15.853 15.853 0 0 1 3.963-10.247 15.6 15.6 0 0 1 10.712-5c7.962-1 15.675 6.534 16.032 14.854a16.21 16.21 0 0 1-15.96 16ZM642.956 361.873c-1.75 3.928-2 8.284-5.713 11.39a16.5 16.5 0 0 1-10.39 3.571 15.568 15.568 0 0 1-15.1-15.782 16.21 16.21 0 0 1 15.314-14.64 24.708 24.708 0 0 1 10.712 4.677c3.709 2.714 3.641 6.963 5.177 10.784ZM629.209 306.85c6.963.286 15.5 9.319 15.1 15.96s-9.64 15.389-16.139 14.889-14.782-9.176-14.711-15.5c.111-6.887 9.074-15.599 15.75-15.349ZM366.667 629.307c0 6.891-9.176 15.532-15.853 15.175s-15.425-9.533-15-16.068 9.1-14.782 15.46-14.782 15.608 8.926 15.393 15.675ZM61.635 351.267c-.286 4.677-6.677 12-10.712 14a11.176 11.176 0 0 1-10.39-.464 16.639 16.639 0 0 1-8.069-9.176 12 12 0 0 1 3.571-13.461c2.178-1.964 3.571-5.356 7.534-4.463 3.356-3.571 7.141-.571 9.248.857a14.639 14.639 0 0 1 7.784 11c-.001.667.789 1.315 1.034 1.707ZM164.145 251.9c-1.428-2.535-5-1-7.5-3.285a22.887 22.887 0 0 1-7.141-11.569c-.532-2.285 1.541-5.534 3.041-7.927a20.78 20.78 0 0 1 12.03-7.962c2.178 2.214 5.534 1.25 8.034 3.571a22.138 22.138 0 0 1 7.136 11.532c.536 2.321-1.464 5.57-3.035 7.927a18.745 18.745 0 0 1-12.565 7.713ZM174.571 432.105a10.176 10.176 0 0 1-3.285 9.64 12.854 12.854 0 0 1-10.462 4.071 13.211 13.211 0 0 1-9.712-3.571 13.033 13.033 0 0 1-3.892-10.5 13.175 13.175 0 0 1 13.6-13.425 12.64 12.64 0 0 1 10.462 3.892 10.212 10.212 0 0 1 3.289 9.893ZM642.242 284.606c1.535 4.606-1.035 7.141-3.571 10.033-3 3.82-6.641 3.571-10.712 3.571a12.854 12.854 0 0 1-9.6-4c-3.963-3.071-3.142-6.784-3.57-10.712a11.461 11.461 0 0 1 4.213-9.5 12 12 0 0 1 9.783-3.571 11.5 11.5 0 0 1 9.676 3.785c3.246 3.467 5.566 6.287 3.781 10.394ZM256.623 161.207c1.535 4.606-1.071 7.141-3.571 10.033-3 3.82-6.641 3.571-10.712 3.749a12.854 12.854 0 0 1-9.6-4c-3.963-3.071-3.142-6.784-3.571-10.712a11.462 11.462 0 0 1 4.213-9.5 12 12 0 0 1 9.783-3.571 11.5 11.5 0 0 1 9.676 3.785c3.282 3.289 5.567 6.181 3.782 10.216ZM361.561 33.024c4.606-1.535 7.141 1.035 10.033 3.392 3.82 3 3.571 6.641 3.749 10.712a12.854 12.854 0 0 1-4.106 9.462c-3.071 3.963-6.784 3.142-10.712 3.571a11.461 11.461 0 0 1-9.5-4.213 12.033 12.033 0 0 1-3.571-9.819 11.569 11.569 0 0 1 3.785-9.676c3.395-2.929 6.252-5.212 10.322-3.429ZM627.924 387.544c3.892-1.285 6.284 1.285 9.319 3.571 3.82 3 3.392 6.641 3.749 10.712a12.854 12.854 0 0 1-4 9.6c-3.071 3.963-6.784 3.142-10.712 3.571a11.461 11.461 0 0 1-9.5-4.213 12 12 0 0 1-3.571-9.783 12.64 12.64 0 0 1 3.749-9.748 11.247 11.247 0 0 1 10.962-3.713ZM46.925 299.994c3.892-1.285 6.284 1.285 9.319 3.571 3.82 3 3.571 6.641 3.571 10.712a12.747 12.747 0 0 1-4 9.569c-3.071 4-6.784 3.178-10.712 3.571a11.461 11.461 0 0 1-9.5-4.213 12 12 0 0 1-3.571-9.783 12.568 12.568 0 0 1 3.749-9.712 11.212 11.212 0 0 1 11.14-3.713ZM335.532 45.271a11.462 11.462 0 0 1-3.571 11.212 12.354 12.354 0 0 1-9.747 3.568 12 12 0 0 1-9.783-3.571 11.5 11.5 0 0 1-4.142-9.529c.393-3.856-.25-7.57 3.571-10.712a12.818 12.818 0 0 1 9.6-3.963c3.928.357 7.605 0 10.5 3.856 2.358 3.212 5.393 5.533 3.572 9.139ZM236.45 524.368a10.176 10.176 0 0 1-9.783-3.321 12.64 12.64 0 0 1-4.07-10.39 13.14 13.14 0 0 1 14.282-13.6 13.176 13.176 0 0 1 13.39 13.6 12.747 12.747 0 0 1-4 10.39 10.212 10.212 0 0 1-9.819 3.32ZM436.971 178.167a10.176 10.176 0 0 1-9.783-3.321 12.64 12.64 0 0 1-4.07-10.533 13.14 13.14 0 0 1 14.282-13.6 13.175 13.175 0 0 1 13.39 13.6 12.747 12.747 0 0 1-4.07 10.712 10.212 10.212 0 0 1-9.749 3.142ZM391.268 642.518a10.462 10.462 0 0 1-10.283-3.178 12.568 12.568 0 0 1-4.144-10.428 13.14 13.14 0 0 1 14.282-13.675 13.175 13.175 0 0 1 13.5 13.532 12.461 12.461 0 0 1-4.035 10.462c-3.107 2.573-5.747 4.608-9.32 3.287ZM431.651 500.517a13.711 13.711 0 1 1-13.568 14.068 13.068 13.068 0 0 1 13.568-14.068ZM217.705 199.09a13.711 13.711 0 1 1-13.711-13.925 12.961 12.961 0 0 1 13.711 13.925ZM45.318 404.541a13.726 13.726 0 0 1 1.285-27.422c8.105 0 13.1 5.927 13.39 14.282.25 6.427-6.891 14.497-14.675 13.14ZM547.051 567.354a12.961 12.961 0 0 1-14.282-13.5 13.639 13.639 0 0 1 12.85-14.025 14.282 14.282 0 0 1 14.675 13.211c-.139 8.426-5.138 14.214-13.243 14.314ZM414.655 48.341a13.72 13.72 0 1 1-13.208-14.21 13.72 13.72 0 0 1 13.208 14.21ZM527.77 243.437a13.711 13.711 0 1 1-13.925-13.711 13.068 13.068 0 0 1 13.925 13.711ZM524.342 436.747a13.461 13.461 0 0 1-13.532 14.282 14.282 14.282 0 0 1-13.961-13.068c0-8.462 5.249-14.282 13.211-14.5a13.033 13.033 0 0 1 14.282 13.282ZM298.113 45.95a12.961 12.961 0 0 1-13.5 14.282 13.6 13.6 0 0 1-14.029-12.818 14.282 14.282 0 0 1 13.211-14.711c8.426.143 14.21 5.142 14.318 13.247ZM274.047 613.632a13.711 13.711 0 1 1-13.5 14 13.068 13.068 0 0 1 13.5-14ZM61.6 274.286a13.068 13.068 0 0 1-13.925 13.71 13.711 13.711 0 0 1 0-27.422A13.1 13.1 0 0 1 61.6 274.286ZM212.955 471.377a32.135 32.135 0 0 1-4.677 9.89 20.673 20.673 0 0 1-9.355 3.892c-3.785 1-6.784-2.107-9.462-3.571s-3.571-5.784-4.356-9.034c-1.107-4.035 1.857-7.5 3.82-10.247a16.889 16.889 0 0 1 9.176-4.213c4.035-1 7.391 2.035 10.212 4s3.036 5.717 4.642 9.283ZM488.351 204.268c-.179 6-8.319 13.782-14.282 13.461s-13.673-8.534-13.283-14.283a17.246 17.246 0 0 1 14-13.14c5.924-.106 14.279 8.891 13.565 13.962ZM133.582 547.113c-.214 6.034-8.391 13.747-14.282 13.39s-13.639-8.641-13.211-14.282 8.355-13.068 13.818-13 13.93 8.036 13.675 13.892ZM553.335 142.324c-6 0-13.782-8.319-13.5-14.282s8.569-13.675 14.282-13.282a17.317 17.317 0 0 1 13.1 13.854c.115 6.028-8.847 14.276-13.882 13.71ZM639.028 438.924c-1.892 3.571-2 8.105-6.07 10.212-2.571 1.321-5.677 3.571-7.855 3.106-3.571-1-8.177-1.857-10.247-5.927-1.285-2.571-3.571-5.82-2.892-7.927a17.853 17.853 0 0 1 5.284-9.783c2.535-2 5.927-1.035 7.962-3.571 2.714 2.214 6.463 1.785 9.319 4.535s2.357 6.713 4.499 9.355ZM485.066 474.947c-2.321 3.571-2.249 8.319-6.356 10.355-2.571 1.285-5.677 3.571-7.927 2.964a14 14 0 0 1-10.283-6.177c-1.321-2.535-3.392-5.677-2.821-7.962a14.6 14.6 0 0 1 6.391-9.89c2.285-1.25 5.142-3.214 7.141-2.678 3.749.964 8.177 1.75 10.283 5.82a69.854 69.854 0 0 1 3.572 7.568ZM442.113 629.126c-1.75 3.285-2.249 7.141-5.356 9.783s-6.07 2-8.676 3.856c-3.356-2.107-8.069-2.071-10.14-6.213-1.285-2.571-3.571-5.856-2.928-7.855a19.853 19.853 0 0 1 4.606-9.248c2.678-2.428 6.248-1.857 8.641-4.106 2.714 2.214 6.427 1.821 9.283 4.5s2.249 6.643 4.57 9.283ZM294.685 161.564c0 8.355-3.571 11.64-12.354 11.6s-11.64-3.566-11.64-12.35 3.571-11.64 12.39-11.64 11.64 3.571 11.604 12.39ZM128.833 108.041c8.355 0 11.64 3.571 11.6 12.39s-3.53 11.747-12.35 11.747-11.64-3.571-11.64-12.354 3.571-11.783 12.39-11.783ZM587.541 527.975c-4.677 0-7.677.179-10.712-2.749a10.89 10.89 0 0 1-2.928-9.141 11.283 11.283 0 0 1 2.749-9.212 10.89 10.89 0 0 1 9.141-2.928 11.318 11.318 0 0 1 9.212 2.749 11.033 11.033 0 0 1 2.928 9.141 11.283 11.283 0 0 1-2.749 9.212 9.426 9.426 0 0 1-7.641 2.928ZM527.77 89.582c.821 6.713-5.677 11.961-12.354 11.819a12.211 12.211 0 0 1 .75-24.387 11.533 11.533 0 0 1 11.6 12.568ZM161.147 380.546c7.962 0 11.89 4.106 11.854 12.14s-4.07 11.89-12.1 11.854-11.926-4.07-11.89-12.1 4.102-11.929 12.136-11.894ZM169.573 586.103q0 12.068-11.854 12.1t-12.14-11.85q0-12.1 11.89-12.14t12.104 11.89ZM507.454 581.069c7.927 0 11.819 4.178 11.747 12.247s-4.142 11.819-12.247 11.747-11.818-4.142-11.747-12.247 4.179-11.819 12.247-11.747ZM246.697 625.629c0 8.069-3.928 12-11.961 12s-12.033-3.93-12.033-11.964 3.963-12.033 12-12.033 11.994 4.142 11.994 11.997ZM411.228 164.314c0 8.105-3.82 12.176-11.747 12.247s-12.176-3.82-12.247-11.747 3.856-12.176 11.747-12.247 12.172 3.889 12.247 11.747ZM592.79 180.024q-11.961 0-11.89-12.1t12.14-11.89q11.89 0 11.854 12.14t-12.104 11.85ZM640.885 245.044c0 8.034-3.892 12.068-11.854 12.1s-12.1-3.892-12.14-11.854 3.928-12.1 11.89-12.14 12.068 3.932 12.104 11.894ZM176.428 276.143c0 7.962-4.07 11.89-12.1 11.854s-11.926-4.07-11.89-12.1 4.106-11.926 12.14-11.89 11.886 4.102 11.85 12.136ZM512.381 271.073c4.32-1.428 6.07 2 8.641 4.106a9.783 9.783 0 0 1 3.571 8.034c.214 4.142-2.607 5.856-4.606 8.462a9.89 9.89 0 0 1-8.105 3.356c-3.928.393-5.57-2.107-7.784-4.213a10.212 10.212 0 0 1-3.928-7.891 11.176 11.176 0 0 1 4.428-8.534c2.32-2.284 4.213-4.714 7.783-3.32ZM511.167 409.467a7.141 7.141 0 0 1-8.212-3.106c-2.142-2.535-4.963-4.285-4.463-8.534a9.069 9.069 0 0 1 3.071-7.355c2.571-1.964 4-5.392 8.319-4.892 3.106.393 6.034 0 8.177 3.142s5.177 4.142 4.749 8.427c-.321 3.214-.428 6.034-3.356 8.105s-4 5.999-8.285 4.213ZM391.269 500.553a12.961 12.961 0 0 1 13.175 11.747 7.748 7.748 0 0 1-2.928 7.391c-2.571 1.964-3.963 5.534-8.284 4.927-3.071-.393-6.07 0-8.212-3.071s-5.177-4.142-4.749-8.391c.286-3.213.25-6.07 3.285-8.141s3.999-5.962 7.713-4.462ZM56.315 428.713c1.25 4.285-2.214 6-4.213 8.605a10.033 10.033 0 0 1-8.105 3.571c-4.249.357-5.784-2.785-8.426-4.677s-2.892-5.034-3.213-8.177c-.428-4.249 2.821-5.784 4.82-8.355a9.712 9.712 0 0 1 7.355-3.142c4.249-.536 6.034 2.285 8.534 4.463s4.391 4.249 3.248 7.712ZM275.583 498.981a7.141 7.141 0 0 1 7.962 3.178c2.142 2.535 4.963 4.285 4.463 8.534a9.248 9.248 0 0 1-3.071 7.355c-2.571 1.928-4.035 5.392-8.319 4.892-3.106-.393-6.07 0-8.212-3.142s-5.142-4.142-4.713-8.426a9.641 9.641 0 0 1 3.356-8.105c2.607-1.965 4.213-5.642 8.534-4.286ZM450.682 48.485c1.071 3-1.071 5.177-3.571 7.355s-4.356 4.927-8.569 4.392a9.319 9.319 0 0 1-7.141-3.178c-2-2.535-5.213-4.106-4.785-8.355a9.6 9.6 0 0 1 3.249-8.141c2.607-1.964 4.285-4.856 8.462-4.606a13.247 13.247 0 0 1 12.354 12.533ZM82.313 519.227c-3.571 1.143-5.713-.75-7.855-3.249s-5-4.285-4.463-8.534a9.676 9.676 0 0 1 3.142-7.355c2.571-2 4.106-5.249 8.355-4.82 3.142.321 6.034.179 8.177 3.214s5.034 4.178 4.677 8.427a10.033 10.033 0 0 1-3.392 8.105c-2.611 2.036-4.325 5.462-8.641 4.212ZM256.98 44.843a12.005 12.005 0 1 1-23.994-.857 13.5 13.5 0 0 1 12-11.319 13.318 13.318 0 0 1 11.994 12.176ZM162.646 365.122a12 12 0 0 1 .571-23.994 13.461 13.461 0 0 1 11.64 11.854 13.282 13.282 0 0 1-12.211 12.14ZM162.432 327.416a12 12 0 1 1 1-23.851 13.461 13.461 0 0 1 11.425 11.926 13.211 13.211 0 0 1-12.425 11.925ZM332.39 163.099a12 12 0 1 1-11.569-12.425 12 12 0 0 1 11.569 12.425ZM35.892 234.654a13.282 13.282 0 0 1 12.426-11.783 13.282 13.282 0 0 1 11.568 12.64 13.461 13.461 0 0 1-12 11.354 13.354 13.354 0 0 1-12-12.211ZM179.856 81.905a13.211 13.211 0 0 1-11.783 12.425 13.6 13.6 0 0 1-12.211-11.14 13.425 13.425 0 0 1 11.354-12.854 13.282 13.282 0 0 1 12.64 11.569ZM89.165 145.747a13.247 13.247 0 0 1 11.782 12.426 13.247 13.247 0 0 1-12.64 11.569 13.461 13.461 0 0 1-11.319-12 13.39 13.39 0 0 1 12.176-12ZM371.809 163.1a12.005 12.005 0 1 1-23.994-.857 13.5 13.5 0 0 1 12-11.319 13.318 13.318 0 0 1 12 12.176ZM512.667 308.6a30.564 30.564 0 0 1 8.105 4.642 11.247 11.247 0 0 1 3.285 7.82 13.925 13.925 0 0 1-4.57 7.927 12.14 12.14 0 0 1-7.819 3.321 12.64 12.64 0 0 1-7.57-4 12.033 12.033 0 0 1-3.571-7.784 14.282 14.282 0 0 1 4.178-8.355 24.78 24.78 0 0 1 7.962-3.571ZM363.24 512.228a9.141 9.141 0 0 1-9.783 10.712c-7.57-.321-10.712-2.714-10.712-9.676 0-7.855 2.749-10.962 10.212-11s10.212 2.93 10.283 9.964ZM520.953 361.087c.928 3.214-2 4.642-3.571 6.855-2.035 2.856-4.892 1.964-7.57 2.428-3.571.571-4.892-2.035-7.141-3.571-2.856-2.035-1.964-4.892-2.428-7.57-.571-3.571 2.035-4.892 3.571-7.141 2.035-2.856 4.892-1.964 7.57-2.428 3.571-.571 4.892 2.035 7.141 3.571 2.928 2.071 2.318 4.892 2.428 7.856ZM325.535 511.05a10.283 10.283 0 1 1-10.033-10.712 9.676 9.676 0 0 1 10.033 10.712ZM484.924 243.437a10.283 10.283 0 1 1-10.14-10.248 10.712 10.712 0 0 1 10.14 10.247ZM457.502 630.771a10.283 10.283 0 1 1 10.283 10.283 10.712 10.712 0 0 1-10.283-10.283ZM248.411 471.774a10.212 10.212 0 1 1-2.773-7.364 10.212 10.212 0 0 1 2.774 7.364ZM635.744 478.126a10.284 10.284 0 1 1-10.408-10.158 10.284 10.284 0 0 1 10.408 10.158ZM210.563 431.606a10.232 10.232 0 1 1-10.64-9.64 10.247 10.247 0 0 1 10.64 9.64ZM214.134 238.438a10.284 10.284 0 1 1-10.158-10.408 10.284 10.284 0 0 1 10.158 10.408ZM426.652 204.018a10.283 10.283 0 1 1 10.28 10.283 10.712 10.712 0 0 1-10.28-10.283ZM253.41 200.483a10.284 10.284 0 1 1-10.407-10.158 10.284 10.284 0 0 1 10.407 10.158ZM197.174 635.877a26.747 26.747 0 0 1-4.82-2.107 9.212 9.212 0 0 1-.321-16 7.391 7.391 0 0 1 9.962 0 9.212 9.212 0 0 1-.321 16 29.321 29.321 0 0 1-4.5 2.107ZM481.495 437.175c0 3.571-7.141 10.712-10.712 10.212s-10.39-7.5-10-10.712a16.46 16.46 0 0 1 10.14-9.783c3.539-.25 10.68 6.855 10.572 10.283ZM442.148 474.31c-.357 4.07-6.713 10.712-9.962 10.712a11.14 11.14 0 0 1-5.677-2.678c-5.82-4.463-5.82-10.033-.25-14.746a7.141 7.141 0 0 1 11.14 0 44.629 44.629 0 0 1 4.749 6.713ZM630.602 217.872c-3.571 0-10.533-7.141-10.283-10.5s7.427-10.426 10.712-10.069a16.318 16.318 0 0 1 9.855 9.855c.249 3.573-6.714 10.714-10.284 10.714ZM49.353 188.593c6.32 0 8.748 2.214 8.819 8.105s-2.178 8.962-7.891 9.034c-6.891 0-9.248-2.035-9.248-8.5s2.322-8.568 8.32-8.639ZM206.993 36.059c6.32 0 8.855 2.214 8.926 8 0 6.641-1.928 9.034-7.748 9.141-6.927 0-9.355-2.035-9.391-8.391s2.214-8.679 8.213-8.75ZM477.997 56.626c-6.07 0-8.462-2.357-8.5-8.427s2.285-8.641 8.248-8.712c6.641 0 8.962 2.249 8.891 8.855-.034 5.999-2.426 8.319-8.639 8.284ZM53.03 468.311c0 5.963-2.464 8.248-8.676 8.212s-8.569-2.392-8.462-9.319c0-5.891 2.464-7.891 9.141-7.82 5.819.107 8.069 2.607 7.997 8.927ZM666.736 370.263c-2.678 0-8.569-5.57-8.712-8.427s5.606-8.569 8.462-8.712a13.247 13.247 0 0 1 8.676 8.462c.14 2.678-5.57 8.57-8.426 8.677ZM555.192 592.958c0 2.678-5.57 8.569-8.426 8.676s-8.569-5.57-8.712-8.427 5.606-8.569 8.462-8.712a13.247 13.247 0 0 1 8.676 8.463ZM594.612 555.36a13.425 13.425 0 0 1-8.534 8.569 13.461 13.461 0 0 1-8.6-8.534 13.532 13.532 0 0 1 8.569-8.605 13.461 13.461 0 0 1 8.565 8.57ZM666.379 332.558c-3-.214-8.534-6.07-8.355-8.784s6.106-8.534 8.819-8.355 8.534 6.106 8.319 8.819-6.069 8.534-8.783 8.32ZM311.467 658.193c2.678-.25 8.641 5.213 8.926 8.212s-5.213 8.641-8.177 8.926-8.641-5.213-8.962-8.177 5.214-8.64 8.213-8.961ZM359.812 666.905c0 2.856-6.034 8.569-8.676 8.427s-8.463-6.035-8.463-8.677 6.034-8.569 8.712-8.462 8.569 5.999 8.427 8.712ZM81.738 553.504c-5.891 0-6.463-.678-6.427-7.141s.821-6.748 7.712-6.641c5.32 0 6.106 1.071 6 7.5-.072 5.961-.715 6.497-7.285 6.282ZM119.443 593.065c-5.891 0-6.463-.678-6.427-7.141s.821-6.748 7.712-6.641c5.32 0 6.106 1.071 6 7.5-.072 5.997-.715 6.354-7.285 6.282ZM593.325 121.753c5.927 0 6.5.714 6.427 7.141s-.786 6.784-7.712 6.641c-5.284 0-6.07-1.071-6-7.5.108-5.782.751-6.354 7.285-6.282ZM287.826 200.195a6.855 6.855 0 1 1-7.141-6.463 7.141 7.141 0 0 1 7.141 6.463ZM95.877 120.395a7.141 7.141 0 0 1-6.963 6.5 7.141 7.141 0 0 1-6.891-6.75 6.857 6.857 0 1 1 13.711.25ZM554.835 82.19a7.141 7.141 0 0 1 7.141 6.284 6.927 6.927 0 0 1-6.891 7.427 6.857 6.857 0 0 1-.322-13.711ZM275.832 464.526a7.141 7.141 0 0 1 6.855 6.641 6.784 6.784 0 0 1-7.141 7.141 6.9 6.9 0 0 1 .286-13.782ZM128.726 89.332a6.855 6.855 0 1 1 6.855-6.855 6.855 6.855 0 0 1-6.855 6.855ZM666.235 394.257a7.141 7.141 0 0 1 7.141 6.284 6.927 6.927 0 0 1-6.891 7.427 6.857 6.857 0 0 1-.321-13.711ZM207.278 392.334a7.141 7.141 0 0 1-6.391 7.141 7.006 7.006 0 1 1 6.57-7.141ZM361.311 1.782a7.141 7.141 0 0 1 7.141 6.427 6.82 6.82 0 0 1-7.141 7.141 7.141 7.141 0 0 1-6.677-6.82 7.141 7.141 0 0 1 6.677-6.748ZM324.07.068a7.141 7.141 0 0 1 6.605 6.891 7.141 7.141 0 0 1-6.641 6.82 6.855 6.855 0 0 1-7.14-7.141 7.141 7.141 0 0 1 7.176-6.57ZM208.992 276.357a6.954 6.954 0 0 1-13.889-.25 6.857 6.857 0 1 1 13.711.25ZM15.326 311.813a7.141 7.141 0 0 1-6.463 7.141 6.82 6.82 0 0 1-7.141-7.141 7.141 7.141 0 0 1 6.891-6.641 7.141 7.141 0 0 1 6.713 6.641ZM13.612 351.232a7.141 7.141 0 0 1-6.463 7.141 6.82 6.82 0 0 1-7.141-7.141 7.141 7.141 0 0 1 6.891-6.641 7.141 7.141 0 0 1 6.713 6.641ZM474.462 287.997a6.857 6.857 0 0 1-.179-13.711 6.855 6.855 0 0 1 7.141 7.141 7.141 7.141 0 0 1-6.962 6.57ZM675.163 284.926a6.954 6.954 0 0 1-13.89-.25 6.857 6.857 0 1 1 13.711.25ZM280.974 664.656a6.855 6.855 0 1 1-7.141-6.463 7.141 7.141 0 0 1 7.141 6.463ZM404.372 202.304a7.141 7.141 0 0 1-6.605 6.855 6.906 6.906 0 1 1 6.57-6.748ZM389.091 675.331a7.141 7.141 0 0 1-7.146-6.462 7.006 7.006 0 1 1 7.141 6.57ZM401.159 15.496a12.247 12.247 0 0 1-7.141-6.43 11.962 11.962 0 0 1 6.248-7.141c2.107-.286 7.712 4.642 7.391 6.855a7.5 7.5 0 0 1-1.785 4.285 18.568 18.568 0 0 1-4.713 2.428ZM399.23 474.666a12.14 12.14 0 0 1-6.5 7.141c-1.857.179-6.927-4.285-7.141-6.284s4.785-7.677 6.927-7.355a7.962 7.962 0 0 1 4.249 1.857 17.853 17.853 0 0 1 2.465 4.641ZM471.213 390.829a13.211 13.211 0 0 1 6.82 6.605c0 2.357-4.892 7.141-7.141 7.141s-6.855-5.32-6.391-7.141a11.355 11.355 0 0 1 2.5-4.82 13.531 13.531 0 0 1 4.213-1.785ZM13.612 388.941a12.069 12.069 0 0 1-6.427 7.141 11.89 11.89 0 0 1-7.141-6.213c-.286-2.107 4.642-7.712 6.855-7.427a7.784 7.784 0 0 1 4.285 1.821 18.566 18.566 0 0 1 2.428 4.677ZM514.809 629.521a23.382 23.382 0 0 1-1.678 3.035c-1.143 1.25-2.5 2.357-3.571 3.57-1.678 2.035-3.142 1.857-4.749 0a21.639 21.639 0 0 0-3-3c-2.071-1.678-1.857-3.142 0-4.749a23.814 23.814 0 0 0 3-3c1.678-2.071 3.035-1.75 4.785 0a46.424 46.424 0 0 0 5.213 4.144ZM7.899 265.467c1.071.464 1.678.536 2.035.893a43.555 43.555 0 0 1 4.749 4.856 3.571 3.571 0 0 1 0 2.821c-.286.714-1.143 1.214-1.75 1.821-5.07 5-3.785 4.963-8.926 0-3.035-2.964-3.571-3.249 0-6.534 1.428-1.287 2.714-2.679 3.892-3.857ZM291.186 7.919c-1.785 1.678-3.571 4.785-6.248 5.606s-4.249-3-6.284-4.785c-.644-.531-1.179-2.321-.822-2.745a42.525 42.525 0 0 1 6.035-5.927c1.106-.786 7.605 5.463 7.319 7.851ZM42.748 502.231c3.571 0 5.106 1.357 5.213 4.856 0 4.178-1.285 5.606-5.5 5.427-3.571 0-4.82-1.678-4.785-5.284s1.501-4.963 5.072-4.999ZM625.459 522.798c-3.571 0-5.034-1.393-5.142-4.927 0-4.07 1.428-5.534 5.57-5.356 3.571 0 4.82 1.75 4.713 5.356s-1.533 4.927-5.141 4.927ZM517.844 54.912c-3.571 0-5.284-1.25-5.5-4.57s1.178-5.427 4.356-5.713c4.035-.321 5.891 1.25 5.927 5s-1.427 5.175-4.783 5.283ZM673.448 246.794c0 3.571-1.357 5.106-4.856 5.213-4.142 0-5.57-1.285-5.427-5.5 0-3.571 1.678-4.82 5.284-4.785s4.999 1.537 4.999 5.072ZM241.77 243.437c-3.571 0-5.177-1.285-5.356-4.713s1.25-5.32 4.5-5.57c4.142-.25 5.784 1.214 5.784 5.142s-1.394 5.069-4.928 5.141ZM205.565 354.624c0 3.571-1.285 5.213-4.713 5.356s-5.32-1.214-5.57-4.5c-.25-4.106 1.214-5.784 5.142-5.784s5.069 1.429 5.141 4.928ZM152.435 625.844c0-3.571 1.321-5.177 4.713-5.356s5.356 1.25 5.57 4.5c.286 4.106-1.214 5.784-5.142 5.784s-5.034-1.394-5.141-4.928ZM665.236 445.674c-3.571 0-5.284-1.25-5.5-4.57s1.178-5.427 4.356-5.713c4.035-.321 5.891 1.25 5.927 5s-1.32 5.175-4.783 5.283ZM363.24 202.447c0 3.571-1.5 5-5.07 5s-5.463-1.607-5.213-5.713c.214-3.321 1.892-4.713 5.5-4.57s4.854 1.676 4.783 5.283ZM325.535 200.376c0 3.571-1.285 5.213-4.713 5.356s-5.32-1.214-5.57-4.5c-.25-4.106 1.214-5.784 5.142-5.784s5.069 1.429 5.141 4.928ZM635.741 167.884c0 3.571-1.285 5.213-4.713 5.356s-5.32-1.214-5.57-4.5c-.25-4.106 1.214-5.784 5.142-5.784s5.072 1.358 5.141 4.928ZM54.745 157.529c0 3.571-1.285 5.213-4.713 5.356s-5.32-1.214-5.57-4.5c-.25-4.106 1.214-5.784 5.142-5.784s5.069 1.429 5.141 4.928ZM234.485 659.907c3.571 0 5.213 1.321 5.356 4.713s-1.214 5.356-4.5 5.57c-4.106.286-5.784-1.214-5.784-5.142s1.429-5.034 4.928-5.141ZM207.275 315.205c0 3.571-1.285 5.213-4.713 5.356s-5.32-1.214-5.57-4.5c-.25-4.106 1.214-5.784 5.142-5.784s5.072 1.429 5.141 4.928ZM428.723 673.618c-3.571 0-5.284-1.25-5.5-4.57s1.178-5.427 4.356-5.713c4.035-.321 5.891 1.25 5.927 5s-1.32 5.175-4.783 5.283ZM354.565 467.061c2.035 2.214 5.213 4.356 4.927 5.606-.571 2.178-3.285 3.571-5.106 5.57-1.607-1.714-4.427-3.571-4.5-5.213s2.714-3.606 4.679-5.963ZM244.233 432.105a48.738 48.738 0 0 1-5.891 5.106c-1.214.714-6.07-4.356-5.249-5.356 1.428-1.857 3.571-4.463 5.249-4.5s3.574 2.572 5.891 4.75ZM321.25 473.095a51.555 51.555 0 0 1-5.963 5.07c-1.178.714-6.034-4.356-5.213-5.392 1.464-1.821 3.571-4.428 5.249-4.463s3.714 2.75 5.927 4.785ZM6.685 434.604c-2-2.321-4.749-4.142-4.713-6.07s2.856-3.571 4.463-5.284c1.821 1.821 4.57 3.571 5.142 5.534.321 1.393-2.821 3.571-4.892 5.82ZM173.93 43.2c-2.392 1.892-4.32 4.606-6.07 4.535s-3.571-2.785-5-4.713c-.75-1.107 4.356-5.927 5.392-5.142a53.557 53.557 0 0 1 5.677 5.32ZM435.507 235.725c1.892 2.428 4.57 4.392 4.463 6.141s-2.856 3.571-4.785 4.927c-1.143.714-5.891-4.5-5.106-5.5a64.517 64.517 0 0 1 5.428-5.568ZM478.997 320.311a57.129 57.129 0 0 1-5.677 5.32c-1.071.786-6.177-4.07-5.392-5.177 1.285-1.928 3.213-4.57 5-4.677s3.676 2.641 6.069 4.534ZM478.961 357.873c-2.071 2.142-3.571 5.106-5.427 5.213s-3.963-2.392-5.677-4.035c-.857-.857 3.571-6.356 4.82-5.784a36.1 36.1 0 0 1 6.284 4.606ZM250.124 5.387c.393 2.249 0 3.571-3.035 3.321-3.785 0-3.571 0-3.856-3.571 0-2.357.25-3.571 3.071-3.571 3.82.358 3.82.144 3.82 3.821ZM435.221 435.39c0 3.571 0 3.321-3.82 3.571-2.892 0-3.178-1.143-3.071-3.571.179-3.571 0-3.571 3.892-3.571 2.999.286 2.999.286 2.999 3.571ZM11.898 234.868c0 3.571 0 3.321-3.82 3.571-2.892 0-3.178-1.143-3.071-3.571.179-3.571 0-3.571 3.892-3.571 2.999.214 2.999.214 2.999 3.571ZM439.506 12.065c-3.571.5-2.5-2.107-2.535-3.856 0-3.142 0-2.964 4.249-3.071 3.571 0 2.535 2.214 2.571 3.963 0 3.142-.143 3.217-4.285 2.964ZM12.826 195.735c-1.357.75-2.249 1.535-2.571 1.357a9.1 9.1 0 0 1-1.785-2.036c.571-.428 1.25-1.321 1.678-1.214a17.012 17.012 0 0 1 2.678 1.893ZM593.183 86.582c.75 1.357 1.535 2.249 1.357 2.535a7.641 7.641 0 0 1-2.035 1.785c-.428-.536-1.321-1.214-1.214-1.642a15.463 15.463 0 0 1 1.892-2.678ZM88.665 83.262a9.641 9.641 0 0 1-1.25-3.035c0-.428 1.393-1.357 1.535-1.214a4.856 4.856 0 0 1 1.714 2.071c.107.285-.892 1.108-1.999 2.178ZM80.738 587.139c-.928-1.25-1.678-1.892-1.892-2.678s.786-1.107 1.214-1.678a9.106 9.106 0 0 1 2.035 1.785c.178.322-.607 1.071-1.357 2.571ZM667.95 204.839c1.107 1.178 2.107 1.892 2 2.178a4.856 4.856 0 0 1-1.714 2.071s-1.535-.786-1.535-1.214a9.64 9.64 0 0 1 1.249-3.035ZM557.838 50.056c-1.357.75-2.249 1.535-2.571 1.357a9.105 9.105 0 0 1-1.785-2.035c.571-.428 1.25-1.321 1.678-1.214a17.012 17.012 0 0 1 2.678 1.892ZM634.962 128.894c-1.357.75-2.249 1.535-2.571 1.357a9.106 9.106 0 0 1-1.785-2.035c.571-.428 1.25-1.321 1.678-1.214a17.012 17.012 0 0 1 2.678 1.892ZM118.443 621.345c.75 1.357 1.535 2.25 1.357 2.535a7.644 7.644 0 0 1-2.035 1.785c-.428-.536-1.321-1.214-1.214-1.643a14.183 14.183 0 0 1 1.892-2.677ZM45.39 544.827c-1.25.928-1.892 1.678-2.678 1.892s-1.107-.786-1.678-1.214a9.1 9.1 0 0 1 1.785-2.035c.322-.178 1.214.607 2.571 1.357ZM547.551 632.771c-1.357.75-2.249 1.535-2.571 1.357a9.1 9.1 0 0 1-1.785-2.035c.571-.428 1.25-1.321 1.678-1.214a24.486 24.486 0 0 1 2.678 1.892ZM665.165 475.63c.75 1.357 1.535 2.249 1.357 2.535a7.642 7.642 0 0 1-2.035 1.785c-.428-.536-1.321-1.214-1.214-1.642a15.459 15.459 0 0 1 1.892-2.678ZM624.032 552.754c.75 1.357 1.535 2.249 1.357 2.535a7.641 7.641 0 0 1-2.035 1.785c-.428-.536-1.321-1.214-1.214-1.642a15.461 15.461 0 0 1 1.892-2.678ZM477.711 7.745c1.107 1.178 2.107 1.892 2 2.178a4.856 4.856 0 0 1-1.715 2.072s-1.535-.786-1.535-1.214a9.641 9.641 0 0 1 1.25-3.035ZM4.686 465.347c1.107 1.178 2.107 1.892 2 2.178a4.856 4.856 0 0 1-1.714 2.071s-1.536-.786-1.536-1.214a9.64 9.64 0 0 1 1.25-3.035ZM197.923 664.691c-1.214 1.107-1.892 2.107-2.178 2a4.856 4.856 0 0 1-2.071-1.714s.786-1.535 1.214-1.535a9.641 9.641 0 0 1 3.035 1.25ZM209.92 4.96c-1.25.928-1.892 1.678-2.678 1.892s-1.107-.785-1.678-1.214a9.105 9.105 0 0 1 1.785-2c.322-.213 1.215.575 2.571 1.322Z"/></svg>