<svg xmlns="http://www.w3.org/2000/svg" width="684.045" height="685.262"><path d="M303.496 400.331c-1.535-4.427 1.642-8.569 3.928-12.176 1.821-2.821 6.106-4.07 9.355-5.963a18.648 18.648 0 0 1 2.107-.893c-.75-.286-1.464-.607-2.214-.821a15.353 15.353 0 0 1-11.747-9.141c0-.321-1.321-5.891-3.785 0a19.352 19.352 0 0 1-11.212 9.426c-.643.25-1.214.678-1.857 1 .786.25 1.75.25 2.249.75 4 3.571 9.569 6.284 9.676 12.89 4.5 3.856.964 8.212-.357 11.319a19.317 19.317 0 0 1-15.925 11.6 17.21 17.21 0 0 1-14.5-6.82 13.961 13.961 0 0 1-4.142-8.034 16.6 16.6 0 0 1-.786-7.141 26.386 26.386 0 0 1 6.177-10.712 19.352 19.352 0 0 1 4.57-3.356c3.285-1.892 3.178-1.642.714-3.571a37.814 37.814 0 0 1-7.962-7.355c-3.321-4.82-3.571-15.675 1.285-20.781 4.07-4.213 8.069-7.784 14.782-8 8.5-.25 13.318 4.32 17.853 10.247.928 1.214 2.178 1.357 2.821 0a15.889 15.889 0 0 1 12.783-10.033c.5 0 .928-.5 1.393-.75a4.463 4.463 0 0 0-1.178-.893 16.746 16.746 0 0 1-11.176-9.89c-.464-1.25-.857-2.535-1.285-3.785l-.536-1.464a4.928 4.928 0 0 0-1.143 1.464 30.028 30.028 0 0 1-7.141 9.855c-4.677 5.213-18.1 4.892-23.494 0a20.316 20.316 0 0 1-7-19.531 20.709 20.709 0 0 1 15.211-14.282c11.069-1.5 17.853 4.213 22.387 13.282a22.55 22.55 0 0 1 .893 2.142c.286-.75.607-1.464.821-2.214a15.353 15.353 0 0 1 9.141-11.783c.286 0 6.248-1.821 0-3.571-2.642-.786-4.82-3.963-6.677-6.463a16.389 16.389 0 0 1-1.5-17.21c5.606-11.569 14.639-15.353 25.672-10.033 11.818 5.641 13.5 15.6 8.926 25.458a26.494 26.494 0 0 1-8.569 8.391c-1.464 1.107-1.25 1.5-.214 2.107a22.459 22.459 0 0 1 10.247 10.176c.357.821 1.143 2.606 2.464 0a14.282 14.282 0 0 1 12.14-8.605c.464 0 .928-.5 1.393-.786a11.929 11.929 0 0 0-1.143-1.178c-2.357-1.857-4.749-3.571-7.141-5.463-6.713-5.034-6-12.354-5.142-19.138.714-5.749 10.712-12.354 16.639-12.89 10.89-.964 16.782 5.07 20.816 14.032.214.5.536.928.786 1.393.321-.393.821-.75.893-1.178 1.393-8.284 7.962-11.354 14.568-14 3.82-1.535 7.605.786 10.712 2.321a21.423 21.423 0 0 1 10.462 14.282c1.143 3.82-1.178 7.427-2.714 10.712-2.642 5.606-8.141 8.141-13.6 10.033a12.64 12.64 0 0 1-10.712-2.535c-4-2.678-8.748-5.463-8.819-11.461 0-.428-.571-.821-.893-1.214-.25.464-.571.893-.786 1.393-3.106 7.141-7.427 12.675-15.675 14a4.82 4.82 0 0 0-1.392.75 7.855 7.855 0 0 0 2.035.893 17.174 17.174 0 0 1 12.6 10.533 24.316 24.316 0 0 1 1.25 4.606c.964-1.678 2-3.285 2.892-5.035a19.388 19.388 0 0 1 25.458-8.462 15.96 15.96 0 0 1 10.462 16.317 15.853 15.853 0 0 1-.928 8.141c-3.856 7.962-3.606 7.962-14.532 11.533a7.929 7.929 0 0 0-1.392.821 5.569 5.569 0 0 0 1.25.857 37.779 37.779 0 0 1 6.106 1.821 15.925 15.925 0 0 1 9.64 15.282 26.352 26.352 0 0 1-.821 9.034c-2.321 6.677-7.141 9.391-13.1 11.6a13.751 13.751 0 0 0-1.357.821c.428.286.821.75 1.285.857a17.567 17.567 0 0 1 10.71 10.081c4.57 8.462-1.143 19.138-6.356 22.459-11.854 7.534-22.637 2.178-27.993-7.641a9.677 9.677 0 0 1-.643-2.321 11.71 11.71 0 0 0-2.392 1.964 12.423 12.423 0 0 0-1.25 2.892c-2.357 6.141-7.855 7.677-13.425 8.462a20.388 20.388 0 0 1-9.819-.964c-8.069-3-9.212-4.749-11.926-14.282 0-.5-.428-.964-.607-1.428-.393.536-1 1.035-1.071 1.642a16.817 16.817 0 0 1-12.533 14.711c-11.565 2.713-25.347-1.679-24.99-19.103Zm38.633-1.035a10.7 10.7 0 0 0 .786-1.393c3.571-10.5 3.571-10.712 12.283-15.1.678-.357 1.571-.321 2.249-.643s.428-.75.5-1.178-.393-.464-.607-.464c-7.82-.678-11.854-5.713-14.282-12.461a7.139 7.139 0 0 0-.893-1.25 10.964 10.964 0 0 0-.821 1.393 17.174 17.174 0 0 1-13.711 12.283 6.645 6.645 0 0 0-1.464.607 7.427 7.427 0 0 0 1.607 1.071 20.781 20.781 0 0 1 13.247 12.6 19.673 19.673 0 0 1 .357 3.285c-.214.464.286.821.607 1.25Zm39.272-71.876c-.321.357-.893.714-.928 1.071a14.853 14.853 0 0 1-9.141 12.6c-1.892.928-1.821 2.249.25 3.356a16.71 16.71 0 0 1 8.784 11.176l.607 2.321c.786-.643 2.178-1.178 2.321-1.928 1.178-6.463 6.427-8.748 11.426-11.212.893-.464 2.178 0 3.285-.357.393 0 .75-.607 1.107-.928a10.459 10.459 0 0 0-1.393-.75c-10.14-3.213-10.14-3.213-14.532-11.747l-1.107-2.107a5.089 5.089 0 0 0-.643-1.5Zm-.353 39.566c-.214.536-.393 1.035-.607 1.5-2.821 6.213-6.57 11.247-14.068 12.033-.464 0-.893.536-1.357.821a14.277 14.277 0 0 0 1.357.857c5.249 2.392 11.212 3.928 12.426 11 .179.928 1.464 1.642 2.249 2.464a21.777 21.777 0 0 0 1.785-3.035 14.818 14.818 0 0 1 9.962-8.748 2.285 2.285 0 0 0 1.25-1.678 2.142 2.142 0 0 0-1.25-1.642 10.962 10.962 0 0 1-8.962-9.212 16.355 16.355 0 0 0-1.714-3.57c-.071-.321-.643-.536-1.035-.786Zm-28.029-23.923c0-.5 0-1.393-.393-1.464a18.424 18.424 0 0 1-9.5-9.533c-.428-.75-1.214-2.107-2.107 0a15.068 15.068 0 0 1-11.569 9.069 9.286 9.286 0 0 0-2.035.893 11.39 11.39 0 0 1 2.178.821 48.733 48.733 0 0 1 5.392 3.356 20.924 20.924 0 0 1 6.605 10c2.464-3.285 3.571-7.57 7.141-9.926 1.107-.714 2.357-1.143 3.571-1.857a5.393 5.393 0 0 0 .75-1.357Z"/><path d="M283.68 301.105a25.815 25.815 0 0 1-13.354-7.138c-3.571-3.356-1.821-8-4.677-11.033 2.178-2.428.75-6.07 2.464-8.355a36.456 36.456 0 0 1 8.5-8.391 26.35 26.35 0 0 1 8.462-2.178c1.892 3.571 6 .25 8.284 2.785a45.383 45.383 0 0 1 7.962 8.712 21.067 21.067 0 0 1 1.821 7.712 14.46 14.46 0 0 1-2.607 8.212 33.6 33.6 0 0 1-8.427 8.5 23.1 23.1 0 0 1-8.428 1.174ZM377.05 440.535a17 17 0 0 1-17.424 17.032 16.71 16.71 0 0 1-16.782-17.6 16.425 16.425 0 0 1 16.924-16.567 16.853 16.853 0 0 1 17.281 17.139ZM457.601 323.742a16.889 16.889 0 0 1-17.174 17.246 16.425 16.425 0 0 1-17-16.5 16.6 16.6 0 0 1 16.639-17.674 16.96 16.96 0 0 1 17.531 16.924ZM305.067 438.642a17 17 0 0 1 17.46-17 16.71 16.71 0 0 1 16.674 17.531 16.425 16.425 0 0 1-16.96 16.532 16.853 16.853 0 0 1-17.174-17.063ZM438.753 380.479a17 17 0 0 1-17.1-17.353 16.782 16.782 0 0 1 17.531-16.782 16.5 16.5 0 0 1 16.639 16.853 16.889 16.889 0 0 1-17.07 17.282ZM324.241 227.944a18.638 18.638 0 0 1 16.817 17.853 17.155 17.155 0 1 1-34.277-1.5 18.817 18.817 0 0 1 17.46-16.353ZM363.303 227.944a18.817 18.817 0 0 1 17.174 16.675 17.139 17.139 0 1 1-34.277 0 18.888 18.888 0 0 1 17.103-16.675ZM244.832 303.496a17.14 17.14 0 1 1-16.889 17.39 17.14 17.14 0 0 1 16.889-17.39ZM262.221 360.305a18.674 18.674 0 0 1-17.852 16.746 17.174 17.174 0 0 1 1.642-34.278 18.745 18.745 0 0 1 16.21 17.531ZM424.895 286.145c0-10.712 4.963-15.389 15.71-15.353s15.175 5 15.139 15.925c0 10-5.07 14.925-15.282 14.925s-15.567-4.964-15.567-15.497ZM414.755 440.678c0 10.5-4.963 15.246-15.853 15.211s-15.032-5.07-15-16.068c0-9.819 5.213-14.782 15.425-14.782s15.463 4.999 15.428 15.639ZM298.212 438.893c0 10.712-4.927 15.318-15.782 15.282s-15.1-5-15.068-16q0-14.853 15.353-14.853c10.534.003 15.497 5.143 15.497 15.571ZM423.324 402.545c0-10.5 4.963-15.246 15.853-15.211s15.032 5.07 15 16.068c0 9.819-5.213 14.782-15.425 14.782s-15.464-4.999-15.428-15.639ZM302.032 245.476c1.785 5-2.285 8.355-4.606 11a16.032 16.032 0 0 1-11.783 4.356 14.568 14.568 0 0 1-10.712-4.677 15.817 15.817 0 0 1-4.213-11.929 16.139 16.139 0 0 1 4.82-10.712 11.6 11.6 0 0 1 11.141-3.568c2.107.536 4.784 0 6.427.928a18.567 18.567 0 0 1 7.783 7.672 34.277 34.277 0 0 1 1.143 6.927ZM387.618 246.868c-2.035-5.106 1.428-8.891 4.178-11.711a16.746 16.746 0 0 1 22.173 0 16.924 16.924 0 0 1 4.535 11.783 15.318 15.318 0 0 1-15.5 15.425 16.567 16.567 0 0 1-11.14-4c-2.674-2.678-6.246-6.356-4.246-11.497ZM245.547 384.228c4.927-2.5 8.248 1.571 10.926 3.892a16.174 16.174 0 0 1 4.356 11.783 14.282 14.282 0 0 1-4.677 10.712 15.817 15.817 0 0 1-11.926 4.213 15.211 15.211 0 0 1-14.889-15.96 14.675 14.675 0 0 1 4.356-11c2.749-2.569 6.748-5.815 11.854-3.64ZM262.009 282.574c1.357 4.856-1.285 7.855-4.392 10.962a14.5 14.5 0 0 1-21.745 0 14.282 14.282 0 0 1-4.713-10.962 12.711 12.711 0 0 1 4.497-10.248 13.318 13.318 0 0 1 10.712-5.177 14.461 14.461 0 0 1 10.961 4.642c3 3.142 6.28 5.891 4.68 10.783ZM521.299 78.802a27.493 27.493 0 0 1 9.61 3.93 18.138 18.138 0 0 1 5.356 11.462 44.135 44.135 0 0 1-3.57 9.6 15.1 15.1 0 0 1-11.247 5.749c-7.927.964-15.71-6.534-16.1-14.782a16.21 16.21 0 0 1 15.96-15.96ZM149.427 124.97c-1.535 3.785-1.678 7.855-5.034 10.712a16 16 0 0 1-10.926 4.5 15.353 15.353 0 0 1 0-30.671 16.067 16.067 0 0 1 10.926 4.749c3.32 3.033 3.463 7.139 5.034 10.71ZM109.723 162.281a16.246 16.246 0 0 1-15.889 15.96c-8.284-.356-15.818-8.069-14.854-16.031a15.155 15.155 0 0 1 25.994-10.1 22.1 22.1 0 0 1 4.749 10.176ZM613.598 173.565a26.065 26.065 0 0 1-3.963 9.6 15.568 15.568 0 0 1-11.461 5.213 14.282 14.282 0 0 1-9.64-3.356 16.46 16.46 0 0 1-5.713-11.247 15.675 15.675 0 0 1 14.853-16.1 16.21 16.21 0 0 1 15.925 15.889ZM102.868 512.981a22.1 22.1 0 0 1-4.606 10.176 15.155 15.155 0 0 1-25.994-10.1c-.964-7.962 6.57-15.675 14.853-16.032a16.246 16.246 0 0 1 15.747 15.956ZM188.561 87.871a26.065 26.065 0 0 1-3.963 9.6 15.567 15.567 0 0 1-11.461 5.213 14.282 14.282 0 0 1-9.64-3.356 16.46 16.46 0 0 1-5.713-11.247 15.675 15.675 0 0 1 14.853-16.1 16.21 16.21 0 0 1 15.924 15.89ZM512.445 613.886c-3.749-1.571-7.82-1.678-10.712-5.034a16.068 16.068 0 0 1-4.5-10.926 15.354 15.354 0 1 1 30.707 0 16.246 16.246 0 0 1-4.463 10.926c-3.213 3.32-7.283 3.46-11.032 5.034ZM178.278 591.819a22.1 22.1 0 0 1-4.606 10.176 15.155 15.155 0 0 1-25.994-10.1c-.964-7.962 6.57-15.675 14.853-16.032a16.246 16.246 0 0 1 15.747 15.956ZM52.732 224.516c6.677-.321 15.639 8.319 15.818 15.246 0 6.32-7.962 15-14.6 15.6s-15.781-7.923-16.245-14.814 8.141-15.603 15.027-16.032ZM634.02 265.65c-6.855 0-15.568-9.034-15.318-15.746s9.319-15.5 15.96-15.1 14.782 8.926 14.889 15.318-8.638 15.635-15.531 15.528ZM630.594 459.317c-6.855 0-15.568-9.034-15.318-15.746s9.319-15.5 15.96-15.1 14.782 8.926 14.889 15.318-8.639 15.635-15.531 15.528ZM443.925 68.555c-6.855 0-15.639-8.855-15.46-15.6s9.141-15.568 15.818-15.246 14.853 8.748 15.032 15.175-8.57 15.671-15.39 15.671ZM591.247 505.591c6.855 0 15.6 8.784 15.46 15.6s-8.426 14.889-14.961 15.246-15.675-8.284-15.889-15.175 8.534-15.635 15.39-15.671ZM65.127 433.18c.321 6.677-8.319 15.675-15.211 15.853s-15.032-7.927-15.639-14.568 7.891-15.814 14.778-16.281 15.75 8.141 16.072 14.996ZM240.012 615.278c6.855 0 15.6 9.034 15.353 15.71s-9.248 15.5-15.925 15.139-14.818-8.891-14.925-15.282 8.606-15.638 15.497-15.567ZM249.938 65.127c-6.927-.214-15.568-9.212-15.211-15.853s9.533-15.461 16.067-15 14.786 9.073 14.786 15.428-8.822 15.64-15.642 15.425ZM140.537 551.616c.214 6.713-8.534 15.639-15.389 15.675s-15-8.141-15.46-14.746 8.069-15.746 14.961-16.1 15.673 8.279 15.888 15.171ZM558.505 118.114a33.706 33.706 0 0 1 10.5 4.856 16.639 16.639 0 0 1 4.784 10.5 16.282 16.282 0 0 1-4.5 10.712 17.282 17.282 0 0 1-10.712 4.677 14.889 14.889 0 0 1-9.962-4.07 17.174 17.174 0 0 1-5.07-10.426 16.531 16.531 0 0 1 4.213-10.712c2.606-2.788 6.962-3.717 10.747-5.537ZM433.786 649.841a34.491 34.491 0 0 1-10.712-5.035 17.424 17.424 0 0 1-4.713-10.712 15.1 15.1 0 0 1 4.035-10 17.139 17.139 0 0 1 10.39-5.106 15.639 15.639 0 0 1 15.746 14.6 16.6 16.6 0 0 1-4.32 10.712c-2.393 2.756-6.749 3.684-10.426 5.541ZM66.698 280.11c1.321 3.856-1.285 6.284-3.571 9.283-3 3.856-6.641 3.571-10.712 3.785a12.783 12.783 0 0 1-9.569-3.963c-3.963-3.071-3.142-6.82-3.571-10.712a11.354 11.354 0 0 1 4.178-9.5 12.033 12.033 0 0 1 9.819-3.571 12.568 12.568 0 0 1 9.712 3.571 11.247 11.247 0 0 1 3.714 11.107ZM552.613 545.153c3.892-1.321 6.284 1.285 9.319 3.571 3.82 3 3.356 6.641 3.749 10.712a12.64 12.64 0 0 1-4.035 9.569c-3.035 4-6.784 3.142-10.712 3.571a11.462 11.462 0 0 1-9.5-4.177 12.033 12.033 0 0 1-3.571-9.819 12.426 12.426 0 0 1 3.749-9.712 11.1 11.1 0 0 1 11.001-3.715ZM409.613 634.344a13.711 13.711 0 1 1-13.711-13.925 13 13 0 0 1 13.711 13.925ZM646.269 406.258a13.714 13.714 0 1 1-13.425-14 13.714 13.714 0 0 1 13.425 14ZM647.84 290.5a13.726 13.726 0 1 1-27.422-1.285c0-8.069 5.891-13.1 14.282-13.39 6.391-.214 14.497 6.927 13.14 14.675ZM634.986 226.231a13.726 13.726 0 1 1 1.285-27.422c8.069 0 13.1 5.891 13.39 14.282.179 6.392-6.962 14.497-14.675 13.14ZM65.127 318.708a13.068 13.068 0 0 1-13.854 13.782 13.711 13.711 0 0 1 0-27.422 13.14 13.14 0 0 1 13.854 13.64ZM486.737 636.202a13.032 13.032 0 0 1-14.282 13.354c-7.962 0-13.068-6.034-13.211-14.5a14.282 14.282 0 0 1 13.925-13.065 13.5 13.5 0 0 1 13.568 14.211ZM359.625 491.88a13.711 13.711 0 1 1 14-13.639 13.032 13.032 0 0 1-14 13.639ZM219.374 359.702a13.711 13.711 0 1 1-14.281-13.5 13.1 13.1 0 0 1 14.282 13.5ZM377.05 207.45a13.714 13.714 0 1 1-13.425-14 13.714 13.714 0 0 1 13.425 14ZM289.786 37.705a13.033 13.033 0 0 1 13.711 14.068 13.712 13.712 0 1 1-27.422-.286 13.068 13.068 0 0 1 13.711-13.782ZM243.154 450.747a13.711 13.711 0 1 1 13.925-13.711 13 13 0 0 1-13.925 13.711ZM644.412 483.596a13.711 13.711 0 1 1-13.639-14 13.032 13.032 0 0 1 13.639 14ZM406.185 39.276a13.1 13.1 0 0 1 13.711 13.925 13.711 13.711 0 1 1-27.422 0 13.1 13.1 0 0 1 13.711-13.925ZM478.454 339.203a13.711 13.711 0 1 1 13.5-14.282 13.1 13.1 0 0 1-13.5 14.282ZM450.746 440.678a13.711 13.711 0 1 1-13.711-13.925 13 13 0 0 1 13.711 13.925ZM51.773 382.05a13.033 13.033 0 0 1 13.354 14.286c0 7.962-6.034 13.068-14.5 13.211a14.282 14.282 0 0 1-13.065-13.929 13.5 13.5 0 0 1 14.211-13.568ZM207.091 334.204a13.711 13.711 0 1 1 14-13.64 13.032 13.032 0 0 1-14 13.64ZM440.463 260.651a13.711 13.711 0 1 1 13.711-13.925 13.1 13.1 0 0 1-13.711 13.925ZM478.168 377.051a13.711 13.711 0 1 1 13.71-13.925 13.1 13.1 0 0 1-13.711 13.925ZM293.071 632.417a13.711 13.711 0 1 1-13.922-13.71 13.1 13.1 0 0 1 13.925 13.711ZM202.45 616.992a13.711 13.711 0 1 1-13.925 13.711 13 13 0 0 1 13.925-13.711ZM63.412 472.602a13 13 0 0 1-13.5 14.282 13.675 13.675 0 0 1-14.068-12.854 14.282 14.282 0 0 1 13.215-14.678c8.462.143 14.244 5.177 14.353 13.25ZM334.203 478.455a13.032 13.032 0 0 1-14.282 13.354c-7.962 0-13.068-6.034-13.211-14.5a14.068 14.068 0 0 1 13.925-13.137 13.461 13.461 0 0 1 13.568 14.282ZM366.91 37.705a14.532 14.532 0 0 1 13.568 14.068c0 6.82-7.141 13-14.282 13.532-4.32.321-5.963-3.571-9.462-4.213-.286-3.571-4.463-5.142-3.892-9.641a15.318 15.318 0 0 1 14.068-13.746ZM326.059 219.375a15.282 15.282 0 0 1-14.279-14.283 11.461 11.461 0 0 1 4.427-9.176 13.6 13.6 0 0 1 10.1-4.392c4.249 0 5.891 3.892 9.426 4.356.357 3.571 4 5.356 4 9.641s-4.106 6.641-4.642 10.39c-3.602.036-5.245 5.463-9.032 3.464ZM260.971 243.226c-1.321 3.214-1.785 7.141-4.106 9.319a16.924 16.924 0 0 1-10 4.535 15.353 15.353 0 0 1-9.427-3.93 16.353 16.353 0 0 1-4.249-9.141c-1-4 1.964-7.427 3.928-10.176s5.927-3.285 9.212-4.106c4.035-1 7.355 2.107 10.14 4.07s3.003 6.001 4.502 9.429ZM469.134 53.023c1.5-3.392 2.071-7.605 4.463-9.391s6.141-4.963 10.1-4.106a16.389 16.389 0 0 1 9.248 4.035c1.964 2.749 4.963 6.177 3.963 10.176a16.889 16.889 0 0 1-4.178 9.176 15.853 15.853 0 0 1-9.39 3.963 17.174 17.174 0 0 1-10.033-4.535c-2.352-1.855-2.852-6.069-4.173-9.318ZM327.455 37.241c3.571 1.5 7.605 2.071 9.391 4.463s4.963 6.141 4.106 10.1a16.389 16.389 0 0 1-4.035 9.248c-2.749 1.964-6.177 4.963-10.176 3.963a16.889 16.889 0 0 1-9.176-4.32 15.746 15.746 0 0 1-3.964-9.384 17 17 0 0 1 4.535-10c1.856-2.249 6.07-2.749 9.319-4.07ZM54.844 187.883c3.571 1.714 8.105 2.464 9.89 5.106s4.713 5.677 3.749 9.426-1.607 7.5-3.928 9.319-6.141 4.963-10.1 4.106a19.245 19.245 0 0 1-9.325-4.034 21.031 21.031 0 0 1-3.928-9.391c-.964-3.571 2.035-6.891 3.749-9.426s6.322-3.392 9.893-5.106ZM212.523 64.056c-3.571-1.714-8.105-2.464-9.89-5.106s-4.713-5.641-3.571-9.426 1.607-7.5 3.928-9.319 6.133-4.963 10.101-4.107a19.245 19.245 0 0 1 9.319 4.035 21.423 21.423 0 0 1 3.928 9.391c.964 3.749-2.035 6.891-3.749 9.426s-6.499 3.392-10.066 5.106ZM65.662 356.805a32.386 32.386 0 0 1-4.963 9.748 14.6 14.6 0 0 1-9.5 3.571 13.068 13.068 0 0 1-9.212-3.856c-2-2.714-5.034-6.106-4.035-10.14a16.6 16.6 0 0 1 4.142-9.176 16.638 16.638 0 0 1 9.25-4.179 17.067 17.067 0 0 1 10.033 4.535c2.357 1.713 2.893 6.177 4.285 9.497ZM490.165 403.08c-.25 6.034-8.426 13.711-14.282 13.39s-13.6-8.676-13.175-14.282 8.355-13.033 13.818-12.961c6.069-.036 13.889 7.962 13.639 13.853ZM397.509 493.594c-3.571-1.892-8.105-2-10.212-6.07-1.321-2.571-3.571-5.677-3.071-7.891.964-3.571 1.821-8.141 5.927-10.212 2.571-1.285 5.784-3.571 7.891-2.928a18.531 18.531 0 0 1 9.819 5.284c2 2.571 1.035 5.963 3.571 8-2.214 2.714-1.785 6.463-4.535 9.283s-6.748 2.213-9.39 4.534ZM294.605 476.776c-1.678 2.856-1.964 6.677-5.07 9.5a13.282 13.282 0 0 1-8.641 3.571 14.639 14.639 0 0 1-8.605-3.571 18.96 18.96 0 0 1-4.5-9.5c-.75-2 1.678-5.284 2.964-7.855 2.035-4.142 6.641-4.5 10.247-5.963a7.855 7.855 0 0 1 5.927 1.607 22.565 22.565 0 0 1 5.856 5.891 21.1 21.1 0 0 1 1.821 6.32ZM368.48 634.881a9 9 0 0 1-3.571 8.962 6.677 6.677 0 0 1-5.927 2.285c-3.571-.607-8.034 1.785-10.962-2.392-1.107-1.571-3.178-2.892-3.571-4.535a19.674 19.674 0 0 1 0-10.89c1.571-2.964 4.106-7.141 9.141-6.213a13.069 13.069 0 0 0 4.249 0 8.069 8.069 0 0 1 7.391 2.964 7.891 7.891 0 0 1 2.892 7.391 4.97 4.97 0 0 1 .358 2.428ZM478.453 274.183c4.677 0 7.677-.179 10.712 2.785a10.712 10.712 0 0 1 2.892 9.141 11.354 11.354 0 0 1-2.749 9.212 10.711 10.711 0 0 1-9.141 2.892 11.354 11.354 0 0 1-9.212-2.749 10.712 10.712 0 0 1-2.892-9.141 11.354 11.354 0 0 1 2.749-9.212 9.64 9.64 0 0 1 7.641-2.928ZM646.268 327.741c0 8.319-3.57 11.64-12.39 11.6s-11.64-3.571-11.6-12.39c0-8.319 3.57-11.64 12.39-11.6 8.026.036 11.6 3.535 11.6 12.39ZM368.48 671.729q0 12.068-11.89 12.1t-12.104-11.89q0-12.033 11.89-12.1t12.104 11.89ZM305.067 671.839c0-8.069 3.963-12 12-12s12 3.963 12 12-3.963 12-12 12-12-3.969-12-12ZM207.77 269.078c6.677-.786 11.926 5.713 11.819 12.39a12.218 12.218 0 1 1-24.423-.786 11.569 11.569 0 0 1 12.6-11.6ZM222.802 87.514q0 11.926-12.1 11.89t-11.89-12.1q0-11.961 12.1-11.89t11.89 12.1ZM319.028 644.414q-12.176 0-12.247-11.747t11.747-12.247q12.176 0 12.247 11.747t-11.747 12.247ZM671.833 354.77c6.677-1.035 12.211 5.534 12.211 12a12.211 12.211 0 1 1-24.422 0c-.04-6.68 5.749-13.04 12.211-12ZM632.165 354.77q12.14 0 12.247 11.747t-11.747 12.247q-12.176 0-12.247-11.747t11.747-12.247ZM298.212 205.914q0 11.819-12.247 11.747t-11.747-12.247q0-11.819 12.247-11.747t11.747 12.247ZM414.754 207.092q0 12.176-11.747 12.247t-12.247-11.747q0-12.14 11.747-12.247t12.247 11.747ZM205.413 385.62q12.14 0 12.247 11.747t-11.747 12.247q-12.176 0-12.247-11.747t11.747-12.247ZM671.833 317.065c6.677-1.035 12.211 5.534 12.211 12a12.211 12.211 0 1 1-24.422 0c-.04-6.68 5.749-13.035 12.211-12ZM563.86 597.25a12.961 12.961 0 0 1-11.783 12.961 7.748 7.748 0 0 1-7.391-2.928c-1.928-2.571-5.5-3.963-4.927-8.284.428-3.071 0-6.106 3.071-8.248s4.142-5.177 8.391-4.749c3.213.321 6.034.321 8.141 3.285s5.748 4.139 4.498 7.963ZM591.283 572.253c-4.249 1.607-6.034-1.892-8.534-4.035a8.855 8.855 0 0 1-3.571-8 13.64 13.64 0 0 1 12.533-11.926c3.82-.286 5.606 1.964 7.784 4.07a9.641 9.641 0 0 1 4 7.855 10.033 10.033 0 0 1-3.57 8c-2.608 2.144-4.394 5.643-8.642 4.036ZM104.546 201.809a13.175 13.175 0 0 1-12.426 12.424c-4.142.286-5.82-2.607-8.426-4.57a9.712 9.712 0 0 1-3.285-8.141c-.428-4.285 2.785-5.82 4.785-8.391a9.533 9.533 0 0 1 7.32-3.178c4.249-.5 6.106 2.142 8.569 4.392s4.57 4.464 3.463 7.464ZM378.763 13.354a13.318 13.318 0 0 1-11.854 12.354 13.6 13.6 0 0 1-12.14-11.212 12.011 12.011 0 1 1 23.994-1.143ZM598.138 145.679a13.568 13.568 0 0 1-12.033-12.211 13.39 13.39 0 0 1 12.461-11.783 13.639 13.639 0 0 1 11.6 11.783 13.568 13.568 0 0 1-12.028 12.211ZM13.568 329.062a13.318 13.318 0 0 1-11.854-12.354c.25-6.069 6.855-12.283 12.568-11.569a12.854 12.854 0 0 1 11.39 11.854 13.211 13.211 0 0 1-12.1 12.069ZM483.38 104.546a13.39 13.39 0 0 1-12.068-12.14 13.5 13.5 0 0 1 11.5-11.854 13.282 13.282 0 0 1 12.5 11.711 13.318 13.318 0 0 1-11.932 12.283ZM99.404 472.67a13.318 13.318 0 0 1-11.854 12.354 13.6 13.6 0 0 1-12.14-11.214 13.425 13.425 0 0 1 11.426-12.78 13.283 13.283 0 0 1 12.568 11.64ZM87.585 539.69c2.535 2.5 6.891 1.285 8.569 4.677 1.25 2.607 3.571 6.07 2.892 7.891-1.25 2.821-.5 7.141-4.285 8.534-2.678 1.071-6.07 3.571-8 2.714-2.785-1.214-6.927-.607-8.426-4.427-.964-2.464-3.285-5.356-2.606-7.141.964-2.857.607-6.82 4.035-8.569 2.569-1.429 5.286-2.536 7.821-3.679ZM267.184 670.229c2.464-2.571 1-6.927 4.463-8.641 2.607-1.285 5.713-3.571 7.891-3.106 2.821.75 6.82.714 8.5 4.106 1.285 2.571 2.214 5.356 3.321 8.034-2.856 1.821-1 5.677-3.82 7.962s-5.927 1.214-8.034 3.571c-2.249-2.107-5.534-1.321-8.069-3.392s-1.431-6.463-4.252-8.534ZM24.53 356.056c-2.749 3-1.464 7.141-4.892 9.034-2.571 1.285-5.749 3.571-7.891 3.035-2.821-.857-6.82-.75-8.5-4.142C2 361.376 1.071 358.591 0 355.913c2.856-1.821 1.035-5.641 3.892-7.927s5.963-1.071 8.034-3.571c2.392 2.321 6.106 1.321 8.712 4.035s.178 6.428 3.892 7.606ZM329.168 24.173c-2.571-2.464-6.927-1-8.641-4.463-1.285-2.61-3.57-5.71-3.106-7.891.75-2.821.714-6.82 4.106-8.5 2.571-1.284 5.356-2.212 8.034-3.319 1.821 2.856 5.677 1 7.962 3.82s1.214 5.927 3.571 8.034c-2.107 2.249-1.321 5.534-3.571 8.069s-6.284 1.5-8.355 4.25ZM572.609 94.335c-2.392 2.571-1.178 6.855-4.57 8.569-2.606 1.285-5.82 3.571-7.927 3-2.821-.893-6.784-.821-8.462-4.213-1.285-2.571-2.142-5.356-3.213-8.069 2.749-1.857 1.143-5.641 3.928-7.891s5.963-1.107 8.069-3.571c2.321 2.428 6.748.714 8.5 4.249 1.282 2.855 2.353 5.355 3.675 7.926ZM137.288 591.427c-2.464 2.535-1.214 6.855-4.642 8.534-2.571 1.285-5.891 3.571-7.891 2.964-2.821-1.035-6.855-.75-8.5-4.249-1.214-2.642-2.107-5.391-3.142-8.105 2.714-2.107.821-6.855 4.749-8.319 2.464-.928 5.427-3.356 7.141-2.642 2.856 1.107 6.82.536 8.569 3.963 1.395 2.605 2.537 5.283 3.716 7.854ZM406.185 673.192a24.994 24.994 0 0 1-3.571 7.855 14.568 14.568 0 0 1-8.319 4.213 12 12 0 0 1-7.784-3.392 12.319 12.319 0 0 1-4.035-7.534 12 12 0 0 1 3.281-7.856 14.031 14.031 0 0 1 7.891-4.642 11.532 11.532 0 0 1 7.819 3.285 32.6 32.6 0 0 1 4.713 8.07ZM596.031 198.773a25.387 25.387 0 0 1 7.82 3.571 14.5 14.5 0 0 1 4.285 8.248 11.176 11.176 0 0 1-3.356 7.784 14.282 14.282 0 0 1-8.5 4.142 12 12 0 0 1-7.748-3.571 12.425 12.425 0 0 1-3.928-7.57 12.1 12.1 0 0 1 3.285-7.855 33.1 33.1 0 0 1 8.141-4.749ZM202.521 601.567a9.176 9.176 0 0 1-10.712-9.783c.321-7.534 2.749-10.319 9.64-10.89a9.533 9.533 0 0 1 11.14 10.319c-.392 7.177-2.998 10.287-10.068 10.354ZM242.262 486.738c-3.214.964-4.606-1.964-6.82-3.571-2.892-2.071-2-4.927-2.428-7.605-.571-3.571 2.035-4.856 3.571-7.141 2.071-2.892 4.927-2 7.605-2.428 3.571-.571 4.856 2.035 7.141 3.571 2.892 2.071 2 4.927 2.428 7.605.571 3.571-2.035 4.856-3.571 7.141-2.142 2.963-4.927 2.356-7.926 2.428ZM476.704 452.461a10.283 10.283 0 1 1 10.033-10.712 9.676 9.676 0 0 1-10.033 10.712ZM442.176 198.808a10.283 10.283 0 1 1-10.14 10.283 9.64 9.64 0 0 1 10.14-10.283ZM479.774 238.228a10.283 10.283 0 1 1-10.176 10.39 9.64 9.64 0 0 1 10.176-10.39ZM591.246 493.593a10.283 10.283 0 1 1 10.319-10.246 9.64 9.64 0 0 1-10.319 10.247ZM681.97 405.936a10.283 10.283 0 1 1-10.533-10.033 9.676 9.676 0 0 1 10.533 10.033ZM133.788 77.124a9.64 9.64 0 0 1 10.176 10.39 10.284 10.284 0 1 1-20.566-.212 9.64 9.64 0 0 1 10.39-10.176ZM205.913 426.753a10.283 10.283 0 1 1-10.712 10.033 9.676 9.676 0 0 1 10.712-10.033ZM473.419 586.145a10.283 10.283 0 1 1-10.712 9.891 9.712 9.712 0 0 1 10.712-9.891ZM436.785 490.166a10.283 10.283 0 1 1 10.712-10.033 9.676 9.676 0 0 1-10.712 10.033ZM673.548 279.361a10.283 10.283 0 1 1-10.283 10.283 9.64 9.64 0 0 1 10.283-10.283ZM94.012 135.396a9.676 9.676 0 0 1-10.033-10.712 9.676 9.676 0 0 1 10.533-10.033 9.676 9.676 0 0 1 10.033 10.712 9.676 9.676 0 0 1-10.533 10.033ZM22.28 393.833a10.24 10.24 0 1 1-10.64-9.64 10.212 10.212 0 0 1 10.64 9.64ZM219.374 243.012a10.24 10.24 0 1 1-10.64-9.64 10.212 10.212 0 0 1 10.64 9.64ZM299.926 12.247a10.283 10.283 0 0 1-10.712 9.926 9.855 9.855 0 0 1-9.926-10.426 9.855 9.855 0 0 1 10.604-9.926 10.14 10.14 0 0 1 10.034 10.426ZM405.829 3.571a10.24 10.24 0 1 1-9.64 10.64 10.212 10.212 0 0 1 9.64-10.64ZM258.793 205.661a10.283 10.283 0 1 1-10.286-10.28 10.712 10.712 0 0 1 10.286 10.28ZM23.994 277.718c0 3.571-7.141 10.5-10.712 10.212s-10.426-7.534-9.997-10.712a16.389 16.389 0 0 1 10.283-9.855c3.392-.214 10.533 6.892 10.426 10.355ZM330.846 515.342c-.357 4.106-6.748 10.712-10 10.712a11.89 11.89 0 0 1-5.677-2.678c-5.784-4.463-5.784-10.069-.214-14.782a7.141 7.141 0 0 1 11.1 0 42.349 42.349 0 0 1 4.785 6.748ZM515.872 375.337c-3.571 0-10.533-7.141-10.283-10.5s7.427-10.426 10.712-10.069a16.389 16.389 0 0 1 9.855 10.069c.249 3.359-6.749 10.5-10.284 10.5ZM507.303 325.563c0-3.571 7.141-10.5 10.712-10.212s10.39 7.534 10 10.712a16.389 16.389 0 0 1-10.283 9.855c-3.395.214-10.536-6.893-10.429-10.355ZM512.267 625.597a25.89 25.89 0 0 1 4.82 2.142 9.176 9.176 0 0 1 .357 15.96 7.355 7.355 0 0 1-10 0 9.212 9.212 0 0 1 .321-16 29.312 29.312 0 0 1 4.502-2.102ZM368.551 517.052c-.357 4.106-6.748 10.89-10 10.712a11.89 11.89 0 0 1-5.677-2.678c-5.784-4.463-5.784-10.069-.214-14.782a7.141 7.141 0 0 1 11.1.179 42.348 42.348 0 0 1 4.791 6.569ZM630.991 531.299c-6.32 0-8.784-2.178-8.855-8.069s2.178-8.962 7.855-9.069c6.891 0 9.283 2.035 9.283 8.5s-2.288 8.599-8.283 8.638ZM325.633 176.528c-6.141 0-8.534-2.357-8.569-8.355 0-6.57 2.285-8.855 9-8.784 5.891 0 8.177 2.5 8.141 8.784s-2.43 8.355-8.572 8.355ZM364.981 176.529c-6.07 0-8.462-2.392-8.5-8.427s2.285-8.641 8.212-8.712c6.641 0 8.962 2.249 8.926 8.855-.033 5.999-2.282 8.284-8.638 8.284ZM176.528 320.315c0 6.248-2.249 8.676-8.177 8.748-6.677 0-9-2.249-8.962-8.819 0-6 2.428-8.319 8.605-8.319s8.498 2.284 8.534 8.39ZM644.412 173.065c0 6.177-2.321 8.569-8.319 8.605-6.606 0-8.891-2.285-8.819-8.962 0-5.927 2.5-8.212 8.748-8.177s8.39 2.428 8.39 8.534ZM167.994 366.768c-6.177 0-8.569-2.321-8.605-8.319 0-6.57 2.285-8.891 8.962-8.819 5.927 0 8.212 2.5 8.177 8.748s-2.428 8.39-8.534 8.39ZM132.11 173.101a8.605 8.605 0 0 1-8.712-8.177 8.105 8.105 0 0 1 7.927-8.891 8.319 8.319 0 0 1 9.176 8.534 8.5 8.5 0 0 1-8.391 8.534ZM171.386 631.096a10.354 10.354 0 0 1-8.962 8.034 8.579 8.579 0 0 1 .786-17.139 10.355 10.355 0 0 1 8.177 9.1ZM516.265 411.328a8.569 8.569 0 1 1 8.177-8.962 10.355 10.355 0 0 1-8.177 8.962ZM522.477 63.412a10.247 10.247 0 0 1-8.319-8.818 8.573 8.573 0 1 1 17.139.5 10.248 10.248 0 0 1-8.82 8.318ZM179.956 126.826a10.319 10.319 0 0 1-8.569 8.569 10.319 10.319 0 0 1-8.57-8.569 10.319 10.319 0 0 1 8.569-8.569 10.319 10.319 0 0 1 8.569 8.569ZM406.187 517.73a8.569 8.569 0 1 1-8.569-8.569 10.319 10.319 0 0 1 8.569 8.569ZM281.073 524.444a8.569 8.569 0 1 1 8.569-8.569 8.569 8.569 0 0 1-8.569 8.569ZM517.479 296.356a10.319 10.319 0 0 1-8.462-8.676 8.57 8.57 0 0 1 17.139.214 10.319 10.319 0 0 1-8.677 8.462ZM681.975 251.795c0 2.678-5.57 8.569-8.426 8.712s-8.569-5.57-8.712-8.426 5.57-8.569 8.427-8.712 8.711 5.57 8.711 8.426ZM165.888 389.191c2.642-.25 8.641 5.213 8.926 8.212s-5.213 8.641-8.212 8.926-8.641-5.213-8.926-8.212 5.213-8.926 8.212-8.926ZM178.242 281.324c-.214 3-6.106 8.534-8.819 8.319s-8.534-6.106-8.319-8.819 6.106-8.534 8.819-8.319 8.604 5.999 8.319 8.819ZM413.041 169.53c0 2.678-5.57 8.569-8.426 8.712s-8.569-5.57-8.712-8.427 5.57-8.569 8.426-8.712 8.569 5.571 8.712 8.427ZM433.357 664.98c2.714-.214 8.569 5.32 8.819 8.319s-5.32 8.605-8.319 8.819-8.605-5.32-8.819-8.319 5.319-8.569 8.319-8.819ZM529.583 132.11c-.214 3-6.106 8.534-8.819 8.319s-8.534-6.106-8.319-8.819 6.106-8.534 8.819-8.319 8.533 6.213 8.319 8.819ZM678.69 445.605a13.461 13.461 0 0 1-8.569 8.569 13.461 13.461 0 0 1-8.569-8.569 13.461 13.461 0 0 1 8.569-8.569 13.461 13.461 0 0 1 8.569 8.569ZM48.238 503.877c3 .25 8.534 6.106 8.319 8.819s-6.106 8.534-8.819 8.319-8.462-6.105-8.462-8.818 6.248-8.534 8.962-8.32ZM61.699 163.245c0 5.891-.678 6.463-7.141 6.427s-6.748-.821-6.641-7.712c0-5.32 1.071-6.106 7.5-6 5.782.073 6.354.751 6.282 7.285ZM551.864 170.958c0-5.891.678-6.463 7.141-6.427s6.748.821 6.641 7.712c0 5.32-1.071 6.106-7.5 6-5.782-.072-6.354-.751-6.282-7.285ZM287.929 173.098c-6.82 0-6.82 0-6.855-6.641s.5-7.141 7.141-7.141c5.891 0 6.463.678 6.427 7.141s.11 6.641-6.713 6.641ZM239.512 676.977c-5.891 0-6.463-.678-6.427-7.141s.821-6.748 7.712-6.641c5.32 0 6.106 1.071 6 7.5-.072 5.783-.751 6.349-7.285 6.282ZM479.631 202.237a7.141 7.141 0 0 1 7.141 6.391 6.784 6.784 0 0 1-7.141 7.141 6.856 6.856 0 0 1 0-13.711ZM18.853 433.394a7.141 7.141 0 0 1-6.427 7.139 6.855 6.855 0 0 1-7.141-7.141 7.141 7.141 0 0 1 6.855-6.639 7.141 7.141 0 0 1 6.713 6.641ZM164.785 545.01a6.864 6.864 0 1 1-7.141 6.57 7.141 7.141 0 0 1 7.141-6.57ZM483.309 479.847a7.141 7.141 0 0 1-6.606 6.891 6.915 6.915 0 1 1 6.57-6.784ZM133.681 512.017a7.141 7.141 0 0 1-6.248 7.141 7.141 7.141 0 0 1-7.462-6.855 6.859 6.859 0 1 1 13.711-.428ZM519.3 558.578a7.141 7.141 0 0 1-6.5 7.141 7.006 7.006 0 1 1 6.57-7.141ZM558.719 521.015a7.141 7.141 0 0 1-6.641 6.856 6.9 6.9 0 1 1 6.57-6.713ZM172.885 41.133a7.141 7.141 0 0 1 7.145 6.427 7.006 7.006 0 1 1-7.141-6.57ZM204.307 469.6a6.857 6.857 0 0 1-.286 13.711 6.927 6.927 0 0 1-6.927-7.427 7.141 7.141 0 0 1 7.212-6.284ZM249.938 82.123a11.783 11.783 0 0 1 7.141 6.248c.321 2.107-4.642 7.677-6.855 7.391a7.605 7.605 0 0 1-4.249-1.785 11.39 11.39 0 0 1-2.537-4.713c-.462-1.678 4.465-6.82 6.5-7.141ZM209.198 210.663a13.354 13.354 0 0 1-4.427-1.928 10.14 10.14 0 0 1-2.428-4.82c-.464-2.142 5.142-7.141 7.141-6.963a12.033 12.033 0 0 1 6.32 7.141 12.675 12.675 0 0 1-6.605 6.57ZM452.462 13.889a19.176 19.176 0 0 1-2.571 4.785 7.677 7.677 0 0 1-4.249 1.821c-2.178.321-7.141-5.284-6.891-7.391a12.033 12.033 0 0 1 7.141-6.248 12.6 12.6 0 0 1 6.57 7.034ZM95.976 435.358a13.1 13.1 0 0 1-6.713 6.82c-2.321 0-7.32-4.927-7.141-7.141s5.32-6.82 7.141-6.391a11.355 11.355 0 0 1 4.82 2.5 12.6 12.6 0 0 1 1.893 4.212ZM92.37 234.8a12.176 12.176 0 0 1 7.144 6.427 12 12 0 0 1-6.213 7.141c-2.142.321-7.712-4.606-7.427-6.82a7.5 7.5 0 0 1 1.785-4.285 19.425 19.425 0 0 1 4.711-2.463ZM445.14 100.154a22.173 22.173 0 0 1-3.035-1.714c-1.25-1.107-2.321-2.464-3.571-3.571-2.035-1.678-1.857-3.142 0-4.749a21.639 21.639 0 0 0 3-3c1.642-2.035 3.142-1.857 4.749 0a21.635 21.635 0 0 0 3 3c2.035 1.642 1.714 3.035 0 4.749a55.532 55.532 0 0 0-4.142 5.284ZM174.957 241.799c0 3.571-1.5 4.963-5.07 5s-5.463-1.607-5.213-5.713c.214-3.321 1.857-4.713 5.5-4.57s4.783 1.676 4.783 5.283ZM246.796 592.712c0 3.571-1.285 5.213-4.713 5.356s-5.356-1.214-5.57-4.5c-.286-4.106 1.214-5.784 5.142-5.784s5.069 1.358 5.141 4.928ZM440.463 596.283c0 3.571-1.285 5.213-4.713 5.356s-5.356-1.214-5.57-4.5c-.286-4.106 1.214-5.784 5.142-5.784s5.069 1.358 5.141 4.928ZM596.709 245.083c3.571 0 4.892 1.607 4.856 5.213s-1.821 5.356-5.856 5.07c-3.249-.25-4.606-2-4.427-5.641s1.678-4.749 5.427-4.642ZM248.295 161.103c3.571 0 5.213 1.285 5.356 4.713s-1.214 5.356-4.5 5.57c-4.106.286-5.784-1.214-5.784-5.142s1.429-5.07 4.928-5.141ZM13.569 245.083c-3.571 0-4.963-1.5-5-5.07s1.607-5.463 5.713-5.213c3.321.214 4.713 1.857 4.57 5.5s-1.678 4.854-5.283 4.783ZM171.386 436.679c0 3.571-1.25 5.284-4.57 5.5s-5.463-1.178-5.713-4.356c-.321-4.035 1.214-5.856 5-5.927s5.283 1.356 5.283 4.783ZM447.318 169.601c0 3.571-1.357 5.106-4.856 5.213-4.178 0-5.57-1.321-5.427-5.5 0-3.571 1.678-4.856 5.284-4.785s4.964 1.502 4.999 5.072ZM442.176 518.873c0 3.571-1.214 5.356-4.5 5.57s-5.5-1.143-5.784-4.285c-.357-4.035 1.178-5.927 4.927-6s5.215 1.287 5.357 4.715ZM246.796 515.659c0 3.571-1.285 5.213-4.713 5.356s-5.356-1.214-5.57-4.5c-.286-4.106 1.214-5.784 5.142-5.784s5.069 1.429 5.141 4.928ZM592.997 449.033c-3.57 0-5.07-1.428-5.142-4.927 0-4.106 1.428-5.534 5.57-5.356 3.571 0 4.785 1.714 4.713 5.356s-1.571 4.927-5.141 4.927ZM515.444 437.036c3.571-.179 5.356 1.214 5.57 4.5s-1.143 5.5-4.285 5.784c-4.035.357-5.927-1.178-6-4.927s1.287-5.214 4.715-5.357ZM518.872 243.369c3.57 0 5.356 1.214 5.57 4.5s-1.143 5.5-4.285 5.784c-4.035.357-5.927-1.178-6-4.927s1.287-5.217 4.715-5.357ZM251.866 5.142c3.571 0 5.108 1.36 5.213 4.86 0 4.178-1.321 5.57-5.5 5.427-3.571 0-4.856-1.678-4.785-5.284s1.502-4.967 5.072-5.003ZM331.811 128.54c-1.785 1.5-3.356 3.571-4.106 3.285-1.5-.536-2.535-2.321-3.785-3.571 1.178-1.035 2.357-2.785 3.571-2.856s2.463 1.606 4.32 3.142ZM318.778 559.827a21.425 21.425 0 0 1-3.321-4.356c-.536-1.357 2.5-4.213 3.571-3.571s2.821 2.285 2.856 3.571-1.607 2.464-3.106 4.356ZM362.41 554.864a21.926 21.926 0 0 1-3.571 3.785c-1.178.714-4.463-2-3.928-3.321s1.964-3.106 3.142-3.249 2.572 1.536 4.357 2.785ZM674.512 483.096a23.6 23.6 0 0 1-4 3.571c-1.285.643-4.32-2.214-3.571-3.571s2.107-2.964 3.321-3.071 2.358 1.714 4.25 3.071ZM477.417 673.335a23.6 23.6 0 0 1-4 3.571c-1.285.643-4.32-2.214-3.571-3.571s2.107-3 3.321-3.071 2.358 1.714 4.25 3.071ZM365.409 134.538a24.136 24.136 0 0 1-3.571-3.571c-.714-1.214 2.071-4.427 3.571-3.856s3.071 2 3.178 3.214-1.892 2.357-3.178 4.213ZM554.862 323.135a21.923 21.923 0 0 1 3.785 3.571c.714 1.178-2 4.463-3.321 3.928s-3.106-1.964-3.249-3.142 1.536-2.572 2.785-4.357ZM130.254 323.314a21.423 21.423 0 0 1-3.316-4.356c-.536-1.393 2.5-4.213 3.571-3.571s2.821 2.285 2.856 3.571-1.612 2.392-3.111 4.356ZM555.291 369.588a21.425 21.425 0 0 1-3.321-4.356c-.536-1.357 2.5-4.213 3.571-3.571s2.821 2.285 2.856 3.571-1.607 2.535-3.106 4.356ZM132.824 357.841a24.136 24.136 0 0 1-3.749 3.571c-1.214.714-4.427-2.071-3.856-3.571s2-3.071 3.214-3.178 2.534 1.892 4.391 3.178ZM95.222 279.146a23.6 23.6 0 0 1-4 3.571c-1.285.643-4.32-2.214-3.571-3.571s2.142-2.964 3.321-3.035 2.362 1.679 4.25 3.035ZM589.926 602.424a24.135 24.135 0 0 1-3.57-3.749c-.714-1.214 2.071-4.427 3.392-3.856s3.071 2 3.178 3.214-1.715 2.534-3 4.391ZM283.679 555.008c-1.214.928-1.857 1.714-2.642 1.892s-1.107-.786-1.678-1.214a8.212 8.212 0 0 1 1.785-2.035c.322-.214 1.175.607 2.535 1.357ZM400.222 557.364a9.5 9.5 0 0 1-3 1.25c-.428 0-1.357-1.357-1.25-1.535a4.927 4.927 0 0 1 2.071-1.678c.287-.108 1.001.856 2.179 1.963ZM629.273 557.828c.75 1.357 1.535 2.214 1.357 2.535a8.213 8.213 0 0 1-2.035 1.785c-.428-.571-1.321-1.25-1.214-1.678a21.743 21.743 0 0 1 1.892-2.642ZM559.611 287.644c-1.214.928-1.857 1.714-2.642 1.892s-1.107-.786-1.678-1.214a8.213 8.213 0 0 1 1.785-2.035c.322-.178 1.179.607 2.535 1.357ZM213.411 126.469c-1.178 1.107-1.892 2.071-2.178 1.964a4.927 4.927 0 0 1-2.071-1.678s.821-1.535 1.25-1.535a9.5 9.5 0 0 1 3 1.25ZM407.042 91.192a9.5 9.5 0 0 1-3 1.25c-.428 0-1.357-1.357-1.25-1.535a4.928 4.928 0 0 1 2.071-1.678c.322.035 1.037.856 2.179 1.963ZM93.906 88.305a9.5 9.5 0 0 1-1.25-3c0-.428 1.357-1.357 1.535-1.25a4.927 4.927 0 0 1 1.678 2.071c.108.279-.856.996-1.963 2.179ZM485.915 15.782a9.5 9.5 0 0 1-3 1.25c-.428 0-1.357-1.357-1.25-1.535a4.926 4.926 0 0 1 2.071-1.678c.287-.108 1.001.856 2.179 1.963ZM212.804 12.889c-.928-1.214-1.714-1.857-1.892-2.642s.785-1.107 1.214-1.678a8.212 8.212 0 0 1 2.035 1.785c.071.357-.607 1.179-1.357 2.535ZM85.336 586.964c1.107 1.178 2.071 1.892 1.964 2.178a4.927 4.927 0 0 1-1.678 2.071c-.179 0-1.535-.821-1.535-1.25a9.5 9.5 0 0 1 1.249-2.999ZM131.146 397.903c-1.357.75-2.214 1.535-2.535 1.357a8.212 8.212 0 0 1-1.785-2.035c.571-.428 1.25-1.321 1.678-1.214a15.677 15.677 0 0 1 2.642 1.892ZM279.003 595.604a9.5 9.5 0 0 1-1.25-3c0-.428 1.357-1.357 1.535-1.25a4.927 4.927 0 0 1 1.675 2.075c.111.283-.853 1-1.96 2.175ZM206.556 514.446c-1.357.75-2.214 1.535-2.535 1.357a8.213 8.213 0 0 1-1.785-2.035c.571-.428 1.25-1.321 1.678-1.214a15.677 15.677 0 0 1 2.642 1.892ZM12.889 472.742c-1.214.928-1.857 1.714-2.642 1.892s-1.107-.786-1.678-1.214a8.213 8.213 0 0 1 1.785-2.035c.357-.072 1.179.607 2.535 1.357ZM165.888 472.135c1.107 1.178 2.071 1.892 1.964 2.178a4.927 4.927 0 0 1-1.678 2.071s-1.535-.821-1.535-1.25a9.5 9.5 0 0 1 1.25-3ZM18.031 200.237c-1.214.925-1.86 1.714-2.642 1.893s-1.107-.786-1.678-1.214a8.212 8.212 0 0 1 1.785-2.035c.322-.179 1.175.606 2.535 1.356ZM477.346 519.588c-1.357.75-2.214 1.535-2.535 1.357a8.21 8.21 0 0 1-1.785-2.035c.571-.428 1.25-1.321 1.678-1.214a15.674 15.674 0 0 1 2.642 1.892ZM129.897 283.681a9.5 9.5 0 0 1-1.25-3c0-.428 1.357-1.357 1.535-1.25a4.927 4.927 0 0 1 1.678 2.071c.25.287-.856 1.001-1.963 2.179ZM597.316 288.216c-1.357.75-2.214 1.535-2.535 1.357a8.214 8.214 0 0 1-1.785-2.035c.571-.428 1.25-1.321 1.678-1.214a10.706 10.706 0 0 1 2.642 1.892ZM518.943 206.485c1.107 1.178 2.071 1.892 1.964 2.178a4.927 4.927 0 0 1-1.678 2.071s-1.535-.821-1.535-1.25a9.5 9.5 0 0 1 1.25-3ZM89.264 398.509c-.928-1.214-1.714-1.857-1.892-2.642s.786-1.107 1.214-1.678a8.213 8.213 0 0 1 2.035 1.785c.321.357-.464 1.179-1.357 2.535ZM484.201 170.03a9.5 9.5 0 0 1-3 1.25c-.428 0-1.357-1.357-1.25-1.535a4.928 4.928 0 0 1 2.075-1.675c.283-.254 1 .853 2.175 1.96ZM172.279 203.522c-1.178 1.107-1.892 2.071-2.178 1.964a4.927 4.927 0 0 1-2.071-1.678c0-.179.821-1.535 1.25-1.535a9.5 9.5 0 0 1 3 1.25ZM211.698 165.888c-1.178 1.107-1.892 2.071-2.178 1.964a4.927 4.927 0 0 1-2.071-1.679s.821-1.535 1.25-1.535a9.5 9.5 0 0 1 3 1.25ZM123.041 631.596a9.5 9.5 0 0 1-1.25-3c0-.428 1.357-1.357 1.535-1.25a4.927 4.927 0 0 1 1.678 2.071c-.035.287-.856 1.001-1.963 2.179ZM550.435 634.952c.75 1.357 1.535 2.214 1.357 2.535a8.213 8.213 0 0 1-2.035 1.785c-.428-.571-1.321-1.25-1.214-1.678a15.674 15.674 0 0 1 1.892-2.642ZM50.595 550.509a9.5 9.5 0 0 1-3 1.25c-.428 0-1.357-1.357-1.25-1.535a4.927 4.927 0 0 1 2.071-1.678c.287-.108 1.001.856 2.179 1.963ZM132.11 199.63c.75 1.357 1.535 2.214 1.357 2.535a8.212 8.212 0 0 1-2.036 1.785c-.428-.571-1.321-1.25-1.214-1.678s1.107-1.428 1.893-2.642ZM554.934 407.043a9.5 9.5 0 0 1-1.25-3c0-.428 1.357-1.357 1.535-1.25a4.927 4.927 0 0 1 1.678 2.071c.108.322-.856 1.037-1.963 2.179ZM637.842 136.288c-.928-1.214-1.714-1.857-1.892-2.642s.786-1.107 1.214-1.678a8.211 8.211 0 0 1 2.035 1.785c.178.322-.607 1.179-1.357 2.535ZM407.042 130.611a9.5 9.5 0 0 1-3 1.25c-.428 0-1.357-1.357-1.25-1.535a4.927 4.927 0 0 1 2.071-1.678c.322-.108 1.037.856 2.179 1.963ZM290.535 128.826c-1.357.75-2.214 1.535-2.535 1.357a8.212 8.212 0 0 1-1.785-2.036c.571-.428 1.25-1.321 1.678-1.214a22 22 0 0 1 2.642 1.893ZM203.128 670.479a9.5 9.5 0 0 1-3 1.25c-.428 0-1.357-1.357-1.25-1.535a4.927 4.927 0 0 1 2.071-1.678c.287-.108 1.001.856 2.179 1.963ZM513.802 478.99c1.107 1.178 2.071 1.892 1.964 2.178a4.927 4.927 0 0 1-1.678 2.071s-1.535-.821-1.535-1.25a9.5 9.5 0 0 1 1.249-2.999Z"/></svg>