<svg xmlns="http://www.w3.org/2000/svg" width="714.637" height="715.617"><path d="M348.2 53.243c-1.535 3.356-1.464 7.141-4.392 10.176a54.592 54.592 0 0 1-8.962 6.963c-4.963 3.178-9.462.893-13.854-.607-3.571-1.321-7.641-7.141-9.141-11.354-.25-.786-1.321-1.25-2.035-1.857a8.463 8.463 0 0 0-1.284 1.749 36.7 36.7 0 0 1-5.034 8.534 19.638 19.638 0 0 1-11.533 5 19.852 19.852 0 0 1-17.675-12.534c-4.963-12.354 5.106-23.1 15.925-24.994a16.781 16.781 0 0 1 14.817 6.427c5.713 6.391 5 6.427 10.712 0a10.712 10.712 0 0 1 9.176-5.034c3.285-3.571 6.5-.821 9.748 0a28.564 28.564 0 0 1 8.105 5.82 26.529 26.529 0 0 1 5.427 11.711ZM53.237 301.289c2.964 1.785 6.641 1.357 9.533 3.856a43.775 43.775 0 0 1 7.605 9.533c3.142 5 .857 9.462-.607 13.854-1.25 3.571-7.141 7.677-11.354 9.176-.75.25-1.25 1.321-1.857 2a6.106 6.106 0 0 0 1.75 1.321 41.132 41.132 0 0 1 8.534 5.106 17.853 17.853 0 0 1-7.5 29.243c-12.318 4.963-23.03-4.963-24.994-15.889a16.889 16.889 0 0 1 6.427-14.853c6.356-5.749 6.427-5.035 0-10.712-2.464-2.178-5.82-4.963-5.142-9.391-3.571-3.285-.893-6.5 0-9.748a29.386 29.386 0 0 1 5.5-8.141c3.571-3.141 7.856-3.82 12.105-5.355ZM654.699 329.354a22.6 22.6 0 0 1-12.568 17c-12.425 4.892-22.887-4.927-24.994-15.853-.928-4.713 3.249-12.426 7.141-15.032 2.178-1.428 3.571-4.535 7.141-3.571a3.035 3.035 0 0 0 .928-1.928c0-.536-.928-1.143-1.571-1.393a40.526 40.526 0 0 1-8.641-5.07 24.564 24.564 0 0 1-5.036-11.572 18.71 18.71 0 0 1 6.391-14.282 24.315 24.315 0 0 1 9.748-5.142c3.856-1.392 7.57.821 10.712 2.321a20.28 20.28 0 0 1 10.426 14.282 13.39 13.39 0 0 1-3.142 11.39c-2.821 3.571-5.284 8.141-11.069 8.034-.321 0-1 1.285-.928 1.892a2.285 2.285 0 0 0 1.571 1.393c9.567 2.178 13.138 11.568 13.891 17.531ZM454.101 637.565c-1.964 2-1 6.141-4.142 8.534a69.838 69.838 0 0 1-8.355 6.748 12.211 12.211 0 0 1-8.534 1.571c-3.571-1.178-7.391-1.785-9.748-5.534-1.857-2.964-5.784-4.606-5.427-8.962a1.674 1.674 0 0 0-1.357-.571c-.393.143-1.607.714-1.714 1.25-1.642 8.569-8.284 12.211-15.5 13.854-5.963 1.357-11.354-2.285-15.282-6.713a14.568 14.568 0 0 1-4.142-7.748 15.639 15.639 0 0 1-.75-7.141 24.065 24.065 0 0 1 6.177-10.712 17.853 17.853 0 0 1 6.248-3.571 15.211 15.211 0 0 1 14.282.786c3.785 3.035 8.676 5.57 8.819 11.569 0 .428 1.143 1.214 1.714 1.178a2.214 2.214 0 0 0 1.607-1.321c2.464-6.963 9.283-13.354 15.675-13.854a21.173 21.173 0 0 1 7.855 1.607c6.076 2.177 13.11 12.424 12.574 19.03ZM377.013 634.922a22.637 22.637 0 0 1-11.961 18.067 18.174 18.174 0 0 1-24.03-11.6 11 11 0 0 0-1.535-2.749c-.25-.393-.786-.607-1.178-.893-.214.464-.643.964-.643 1.428 0 5.713-5.427 7.605-8.605 10.89a12.532 12.532 0 0 1-8.069 2.749 12.1 12.1 0 0 1-8.355-2.071c-3.571-3.57-9.569-5.713-9.283-12.283-3.963-5.749-.75-10.5 2.749-14.5 2.392-2.749 4.285-6.534 8.962-7.141 2.571-.321 5.356-2.714 7.784-1.357s7.141 1.571 9.033 5.142c1.607 2.821 5.463 3.892 5.856 7.855 0 1.357 1.678 2.607 2.535 3.892a13.461 13.461 0 0 1 .857-3.928 23.958 23.958 0 0 1 15.46-11.354c3.82-.964 12.783 3.356 15.318 6.927a35.889 35.889 0 0 1 3.356 5.427 36.635 36.635 0 0 1 1.75 5.5ZM634.165 388.697c2.928 1.821 6.641 1.25 9.533 3.82a47.169 47.169 0 0 1 7.677 9.5 13.14 13.14 0 0 1-.678 13.747c-2.357 4.07-5.356 8.748-11.176 9.319a4.356 4.356 0 0 0-2.107 1.035 8.139 8.139 0 0 0-1.285 1.785 12.387 12.387 0 0 0 1.464.571c10.212 3 16.425 15.818 11.961 24.637-1.607 3.178-11.211 11.069-14.853 11.212a17.067 17.067 0 0 1-9.426-1.75 22.887 22.887 0 0 1-11.533-15.282 12.533 12.533 0 0 1 1.857-9.283c3.571-3.571 5.891-9.248 12.176-9.6.643 0 1.321-.928 1.892-1.5a7.147 7.147 0 0 0 .857-1.178c-.5-.214-.964-.5-1.464-.678a38.026 38.026 0 0 1-8.641-4.963 25.888 25.888 0 0 1-5.07-11.569c-.643-6.32 6.106-15.568 12.5-17.853ZM522.514 114.764a50.452 50.452 0 0 1-9.962-4.356 14.282 14.282 0 0 1-6.927-9.89c-.179-1.357 0-3.106-1.964-2.714-.643 0-1.393 1.535-1.428 2.357 0 3.785-3.571 4.856-5.5 7.141s-4 5.177-7.57 4.106c-3.821 3.178-8.141.643-11.283-.393s-6.534-5.284-9.176-8.569c-1.035-1.25 0-4.106-.893-5.534s-2.5-3.106-.179-4.856c-.714-6.748 4.856-9.569 8.5-13.568 1.178-1.285 9.141-1.892 11.069-1.964 5.427 0 8.5 3.321 11.854 6.713 2.071 2.107 3.892 4.035 3.249 7.141a1.964 1.964 0 0 0 .357 1.535c.714.75 1.607 1.321 2.392 2a18.729 18.729 0 0 0 .648-2.32 14.568 14.568 0 0 1 6.713-9.962 21.815 21.815 0 0 1 10.069-4.356 17.853 17.853 0 0 1 9.6 3.285 19.388 19.388 0 0 1 7.819 9.462c4.07 10.283-4.32 20.531-11.854 22.959ZM598.923 193.173a11.567 11.567 0 0 0-2.571-1.178 14.282 14.282 0 0 1-10.712-6.82 20.959 20.959 0 0 1-4.356-10.212 16.425 16.425 0 0 1 3.285-9.6 20.888 20.888 0 0 1 9.5-7.82c10.319-3.892 20.6 4.535 22.923 12 1.535 4.927 1.035 6.748-1.321 12.6a18.709 18.709 0 0 1-10.462 9.64c-1.178.607-2.606.607-3.82 1.143-.571.286-.821 1.178-1.214 1.785a5.568 5.568 0 0 0 1.464.536 14.282 14.282 0 0 1 10.712 6.784 21.066 21.066 0 0 1 4.285 10.1 16.389 16.389 0 0 1-3.285 9.569 20.674 20.674 0 0 1-9.5 7.82c-10.319 3.892-20.6-4.535-22.923-12-1.643-5.249-1.25-7.141 1.678-13.282a16.853 16.853 0 0 1 10.962-9 34.279 34.279 0 0 0 5.355-2.065ZM280.645 653.06a30.207 30.207 0 0 1-13.211-6.213 30.993 30.993 0 0 1-5.213-13.175 19.888 19.888 0 0 1 18.888-18.317 25.672 25.672 0 0 1 13.6 6.07c2 1.392 5.284 11.069 5.213 13.175a18.674 18.674 0 0 1-6 12.747 21 21 0 0 1-13.277 5.713ZM572.465 560.762a30.991 30.991 0 0 1-6.141 13.354c-1.321 1.892-11.069 5.213-13.175 5.213a19.959 19.959 0 0 1-18.353-18.888 26.85 26.85 0 0 1 6.034-13.64c1.285-1.928 11.1-5.249 13.175-5.213a18.46 18.46 0 0 1 12.747 6 20.245 20.245 0 0 1 5.713 13.174ZM368.98 34.283a20.174 20.174 0 0 1 12.354 5.677 18.5 18.5 0 0 1 6 12.711c0 2.142-3.214 11.819-5.213 13.175a25.423 25.423 0 0 1-13.6 6.07 18.674 18.674 0 0 1-12.89-5.57 18.674 18.674 0 0 1-6-12.783 40.956 40.956 0 0 1 5.142-13.247 35.991 35.991 0 0 1 14.207-6.033ZM408.72 73.743c-9.89 0-20.1-10.712-19.674-19.424 0-2 4.285-12.14 5.856-12.925 4.213-2.071 8.069-5.392 13.1-5.356 8.962 0 19.174 10.712 18.745 19.352 0 2.035-4.285 12.14-5.856 12.925-4.209 2.138-8.1 5.138-12.171 5.428ZM541.545 136.115c.357-10.033 11-20.245 19.6-19.5a19.71 19.71 0 0 1 12.675 6.106 18.817 18.817 0 0 1 5.463 12.961c-.321 9.034-10.962 19.245-19.567 18.46a19.852 19.852 0 0 1-12.675-6.07 19 19 0 0 1-5.496-11.957ZM53.844 416.511c-10.069-.357-20.245-11-19.5-19.6a19.71 19.71 0 0 1 6.106-12.675 18.817 18.817 0 0 1 13.1-5.463c9.069.321 19.281 10.962 18.5 19.567a19.852 19.852 0 0 1-6.07 12.675 19 19 0 0 1-12.14 5.5ZM54.094 299.932a20.067 20.067 0 0 1-12.033-5.57 19.638 19.638 0 0 1-6.034-12.711c-.607-8.676 9.6-19.281 18.638-19.424a19.316 19.316 0 0 1 12.961 5.57 19.638 19.638 0 0 1 6.034 12.711c.607 8.712-9.605 19.21-19.566 19.424ZM135.108 107.979a20.923 20.923 0 0 1 18.925 18.353 19.852 19.852 0 0 1-17.852 19.138c-9.176.75-19.281-8.748-19.352-18.567s8.854-17.674 18.279-18.924ZM611.852 522.735c-1 9.462-9.176 18.388-18.638 18.638a18.639 18.639 0 0 1 0-37.277c9.458.215 17.638 9.177 18.638 18.639ZM145.679 553.8c-1.178 9.426-9.391 18.388-18.852 18.424s-19.317-10.176-18.638-19.245a19.888 19.888 0 0 1 19.066-18.032 20.923 20.923 0 0 1 18.424 18.853ZM231.372 89.27c-1.25 9.431-9.498 18.424-18.92 18.353s-19.321-10.177-18.571-19.322c.786-9.962 10.247-18.46 19.138-17.853a20.888 20.888 0 0 1 18.353 18.822ZM634.058 349.635c9.462.928 18.424 9.141 18.71 18.567a18.639 18.639 0 1 1-37.277 0c.214-9.387 9.034-17.424 18.567-18.567ZM93.977 222.809c-9.426-1.25-18.424-9.462-18.353-18.92s10.069-19.321 19.353-18.571c9.926.786 18.424 10.247 17.853 19.138a20.888 20.888 0 0 1-18.853 18.353ZM259.971 633.244a26.244 26.244 0 0 1-7.141 13.39c-3.571 3.57-8.034 1.785-11.069 4.642-2.428-2.142-6.07-.75-8.355-2.464a36.455 36.455 0 0 1-8.462-8.5 26.35 26.35 0 0 1-2.142-8.319c3.571-1.857.25-5.963 2.785-8.284a45.382 45.382 0 0 1 8.712-7.962 21.069 21.069 0 0 1 7.712-1.821 14.461 14.461 0 0 1 8.212 2.607 33.171 33.171 0 0 1 8.391 8.319 22.744 22.744 0 0 1 1.357 8.392ZM514.837 618.177a22.067 22.067 0 0 1-8.141-1.357 74.316 74.316 0 0 1-8.641-8.177c-2.464-2.285.678-6.356-2.749-8.284.857-2.571 1.071-5.57 2.035-7.712 1.535-3.392 5.32-5.713 7.855-8.748s6.427.643 8.248-2.892c2.785 1.035 6.141 1.035 8.5 2.214a30.17 30.17 0 0 1 8.534 8.248c1.857 2.285 0 6 2.535 8.319-1.821 2.357-.821 5.677-2 7.712a27.637 27.637 0 0 1-8.355 8.426 23.029 23.029 0 0 1-7.82 2.25ZM654.159 252.444a25.851 25.851 0 0 1-2.321 8.105 25.636 25.636 0 0 1-8.5 8.248 23.921 23.921 0 0 1-7.748 1.75 13.068 13.068 0 0 1-8.212-2.464 29.922 29.922 0 0 1-8.355-8.462c-1.25-2 0-5.392-2.035-7.677 2.285-2.357.75-6.034 2.5-8.319a29.387 29.387 0 0 1 8.534-8.284c2.321-1.25 5.713-1.071 8.462-2.249 1.857 3.571 5.963.214 8.248 2.856a83.588 83.588 0 0 1 8.069 8.676 20.782 20.782 0 0 1 1.358 7.82ZM107.367 474.894a19.674 19.674 0 0 1-1.393 7.712 33.028 33.028 0 0 1-8.391 8.427 12.14 12.14 0 0 1-8.212 2.5 24.994 24.994 0 0 1-14.282-7.141c-3.356-3.571-3.356-7.927-4.606-11.89a11.176 11.176 0 0 1 2.571-8.069 26.707 26.707 0 0 1 8.5-8.248 24.138 24.138 0 0 1 7.748-1.75 13.318 13.318 0 0 1 8.212 2.464 34.492 34.492 0 0 1 8.426 8.462 19.888 19.888 0 0 1 1.427 7.533ZM203.878 611.928c-3.285-1.464-7.141-2.785-10.462-4.713-5.213-2.928-5.749-8.962-8.319-13.64a95.341 95.341 0 0 1 4.5-10.962c2.892-5.177 8.962-5.784 13.568-8.462 3.892 1.678 8.212 2.071 11.711 4.856 4.57 3.571 5.856 8.926 7.927 13.854-2.107 3.571-2.357 8.069-5.249 11.569-3.571 4.355-8.749 5.141-13.676 7.498ZM164.566 574.044a103.842 103.842 0 0 1 10.712 4.856 18.745 18.745 0 0 1 7.712 13.818c.571 3.285-2.321 7.427-4.213 10.712-2.892 5.213-8.962 5.713-13.6 8.355-4.07-1.857-8.641-2.392-12.318-5.5-4.285-3.571-5-8.784-7.141-13.354 2.107-3.963 2.607-8.534 5.927-12.14s8.601-4.141 12.921-6.747ZM54.558 224.522c10.926 0 17.424 6.356 17.424 17.067s-6.357 17.21-17.281 17.21a15.746 15.746 0 0 1-17-16.639c-.031-11.032 6.253-17.602 16.857-17.638ZM68.555 435.614c0 10.712-6.606 16.71-17.674 16.889a15.568 15.568 0 0 1-11.783-4.57 16.317 16.317 0 0 1-4.892-13.39 15.925 15.925 0 0 1 17.317-16.389c10.712.035 17.067 6.745 17.032 17.46ZM491.878 598.503c0 10.712-6.641 16.674-17.853 16.853a15.6 15.6 0 0 1-11.783-4.606 16.389 16.389 0 0 1-4.856-13.39c.286-10 6.855-16.353 17.353-16.353s17.175 6.534 17.139 17.496ZM95.548 147.398c11 0 17.567 6.284 17.567 16.924s-6.356 17.175-17.139 17.425a15.6 15.6 0 0 1-12.533-4.82 15.175 15.175 0 0 1-4.677-11.747c.214-11.141 6.249-17.746 16.782-17.782ZM150.82 166.216c0 10.712-6.427 17.21-17.317 17.174s-17-6.57-16.96-17.531a15.782 15.782 0 0 1 16.889-16.746c10.926 0 17.388 6.355 17.388 17.103ZM577.572 173.178c0 10.712-6.5 17.1-17.424 17.067s-16.889-6.606-16.853-17.639a15.746 15.746 0 0 1 17-16.639c10.993 0 17.277 6.356 17.277 17.211ZM539.867 133.401c0 10.926-6.32 17.424-17.067 17.424s-17.21-6.356-17.21-17.281a15.746 15.746 0 0 1 16.639-17c11.032-.031 17.602 6.253 17.638 16.857ZM269.076 51.386c0 10.712-6.391 17.21-17.281 17.174s-17.031-6.534-17-17.5a15.782 15.782 0 0 1 16.857-16.777c10.925 0 17.424 6.356 17.424 17.103ZM145.683 514.166c0 10.712-6.5 17.1-17.424 17.067s-16.889-6.606-16.853-17.639a15.746 15.746 0 0 1 17.139-16.567c10.706 0 17.138 6.427 17.138 17.139ZM445.211 37.711c10.962 0 17.531 6.32 17.531 16.96s-6.356 17.139-17.174 17.424a15.782 15.782 0 0 1-12.533-4.892 15.282 15.282 0 0 1-4.642-11.747c.072-11.105 6.249-17.705 16.818-17.745ZM88.442 531.233a13.711 13.711 0 0 1-11.89-4.677 16.139 16.139 0 0 1-4.606-13.461c.25-9.819 7.141-16.1 17.6-16.067s16.6 6.641 16.782 17.853a15.6 15.6 0 0 1-4.677 11.783 14.568 14.568 0 0 1-13.209 4.569ZM610.134 485.031c0 10.712-6.427 17.174-17.353 17.139s-16.96-6.57-16.924-17.567a15.782 15.782 0 0 1 16.853-16.853c10.962-.001 17.424 6.498 17.424 17.281ZM190.238 128.546c0 10.712-6.534 17.032-17.46 17s-16.853-6.289-16.818-17.536a15.71 15.71 0 0 1 17.067-16.6c10.891-.003 17.211 6.424 17.211 17.136ZM166.423 536.446c10.712 0 17 6.57 16.96 17.531s-6.641 16.639-17.853 16.817a15.139 15.139 0 0 1-11.744-4.641 15.639 15.639 0 0 1-4.856-12.533c.356-10.89 6.603-17.174 17.493-17.174ZM174.135 106.194a13.711 13.711 0 0 1-11.89-4.677 16.139 16.139 0 0 1-4.606-13.461c.25-9.819 7.141-16.1 17.6-16.068s16.6 6.641 16.782 17.853a15.6 15.6 0 0 1-4.675 11.787 14.568 14.568 0 0 1-13.211 4.57ZM553.435 505.596a17.067 17.067 0 0 1 17.174 17.317 16.817 16.817 0 0 1-17.531 16.889 16.46 16.46 0 0 1-16.674-16.817 16.853 16.853 0 0 1 17.031-17.389ZM615.276 251.802a16.925 16.925 0 0 1-17.21 17.246 16.424 16.424 0 0 1-16.96-16.532 16.639 16.639 0 0 1 16.674-17.853 17 17 0 0 1 17.5 17.139ZM513.945 577.579a16.924 16.924 0 1 1 12.3-4.891 16.96 16.96 0 0 1-12.3 4.891ZM91.013 419.903a17 17 0 0 1 16.924 17.532 16.674 16.674 0 0 1-17.853 16.674 16.46 16.46 0 0 1-16.46-17.032 16.889 16.889 0 0 1 17.389-17.174ZM269.072 91.698c-1.25 8.784-6.248 16.746-18.21 16.139a16.032 16.032 0 0 1-15.96-17.424 16.567 16.567 0 0 1 17.678-16.639 16.817 16.817 0 0 1 16.492 17.924ZM243.404 611.861a17.032 17.032 0 0 1-17.139-17.317 16.817 16.817 0 0 1 17.5-16.889 16.5 16.5 0 0 1 16.674 16.853 16.889 16.889 0 0 1-17.035 17.353ZM94.012 260.657a16.924 16.924 0 0 1-16.853-17.853 16.567 16.567 0 0 1 17.853-16.6 16.425 16.425 0 0 1 16.46 17.067 16.924 16.924 0 0 1-17.46 17.389ZM428.465 94.304a17.032 17.032 0 0 1 17.353-17.139 16.746 16.746 0 0 1 16.853 17.531 16.5 16.5 0 0 1-16.853 16.639 16.889 16.889 0 0 1-17.353-17.031Z"/><path d="M577.571 445.326a17.139 17.139 0 1 1 16.425 17.424 18.674 18.674 0 0 1-16.425-17.424ZM437.463 615.285c-8.355 0-17.389-8.284-17.567-16.282a18.71 18.71 0 0 1 16.71-17.853c8.355 0 17.389 8.284 17.567 16.317a18.638 18.638 0 0 1-16.71 17.817ZM306.781 91.697c-.643 8.212-9.748 16.639-17.567 16.282-8.534-.393-17.353-9.89-16.71-17.853s9.748-16.639 17.567-16.282c8.534.251 17.353 9.748 16.71 17.853ZM406.257 75.416c8.355 0 17.46 9.462 17.067 17.639a19.21 19.21 0 0 1-17.21 16.641c-8.355 0-17.46-9.462-17.067-17.6a19.245 19.245 0 0 1 17.21-16.675ZM90.656 380.484c7.891 0 16.889 8.427 17.317 16.532s-8.569 17.567-16.96 17.853-16.889-8.427-17.317-16.532 8.426-17.639 16.96-17.853ZM109.69 281.188c0 8.391-9.5 17.424-17.674 17.032a19.245 19.245 0 0 1-16.606-17.247c0-8.355 9.5-17.424 17.674-17.032a19.281 19.281 0 0 1 16.606 17.247ZM475.061 620.425c7.427.321 17.353 10.89 16.817 17.853s-10.533 16.674-17.46 16.389-17.353-10.89-16.817-17.853 10.533-16.674 17.46-16.389ZM615.277 485.602c-.321-6.784 9.034-16.889 16.282-17.567s17.639 9.283 17.853 16.71c.357 6.784-9.033 16.924-16.282 17.567s-17.496-9.391-17.853-16.71ZM204.021 649.851c-4.53-2.432-10.176-2.4-12.818-7.145a81.622 81.622 0 0 1-4.392-10.962c2.749-3.571 2.107-9.283 6.57-11.747 3.571-1.892 7.5-4.784 10.712-4.249 4.427.678 9.89 1.857 12.533 6.463a81.62 81.62 0 0 1 4.392 10.962c-2.749 3.57-2.107 9.248-6.57 11.747-3.357 1.892-7.106 3.248-10.427 4.931ZM611.92 406.193c-2.392 4.535-2.428 10.14-7.141 12.783a82.12 82.12 0 0 1-11 4.356c-3.57-2.892-9.283-2.107-11.711-6.606-1.892-3.571-4.784-7.534-4.249-10.712.75-4.392 1.964-9.855 6.534-12.5a82.118 82.118 0 0 1 11-4.356c3.571 2.892 9.248 2.107 11.747 6.606a73.274 73.274 0 0 1 4.82 10.429ZM414.898 596.289c-2.5 4.035-2.357 9.069-6.284 12.211a46.7 46.7 0 0 1-11.6 4.927c-3.571-2.607-9.283-2.071-11.783-6.5-1.928-3.571-4.82-7.462-4.32-10.712a17.853 17.853 0 0 1 5.713-12.069 45.525 45.525 0 0 1 11.6-4.963c3.57 2.642 9.248 2.107 11.783 6.5 1.963 3.465 3.32 7.285 4.891 10.606ZM298.247 594.896c-1.428 3.214-2.785 6.963-4.713 10.39-2.464 4.463-8.105 3.82-11.711 6.57a82.118 82.118 0 0 1-11-4.392c-4.606-2.642-5.784-8.105-6.5-12.5-.5-3.321 2.392-7.355 4.285-10.712 2.464-4.463 8.105-3.821 11.747-6.57a116.892 116.892 0 0 1 10.962 4.32c2.396 1.183 6.716 9.752 6.93 12.894ZM613.779 289.221c-2.357 4.32-2.464 9.176-6.177 12.461s-7.855 3.178-11.6 5.07c-3.571-2.535-8.177-2.249-11.354-5.641a17.639 17.639 0 0 1-4.892-11.461 17.21 17.21 0 0 1 5.534-12.1c3.356-3 7.82-3.142 11.569-5.07 3.571 2.535 8.676 1.892 11.211 5.784a110.685 110.685 0 0 1 5.709 10.957ZM150.959 203.956c-1.535 3.571-2.928 7.141-4.856 10.712-2.5 4.463-8.141 3.82-11.747 6.534a41.847 41.847 0 0 1-11.64-4.927 17.853 17.853 0 0 1-5.749-12.033c-.568-3.285 2.392-7.356 4.292-10.716 2.5-4.463 8.141-3.82 11.747-6.534a41.847 41.847 0 0 1 11.636 4.934c4 2.89 3.717 8.031 6.317 12.03ZM637.771 198.814c10.5 0 15.246 4.963 15.21 15.853s-5.07 15.032-16.067 15c-9.819 0-14.782-5.213-14.782-15.425s4.999-15.428 15.639-15.428ZM596.638 353.062c10.5 0 15.246 4.963 15.211 15.853s-5.07 15.032-16.067 15c-9.819 0-14.782-5.213-14.782-15.425s4.998-15.428 15.638-15.428ZM219.375 554.942c0 10.712-4.749 15.782-15.282 15.782s-15.568-4.963-15.568-15.496 4.963-15.318 14.853-15.353c10.855-.036 15.961 4.641 15.997 15.067ZM344.486 92.412c0 10.712-4.963 15.568-15.5 15.568s-15.39-4.963-15.35-15.711c0-10.176 4.927-15.1 15.068-15.139 10.854-.036 15.782 4.749 15.782 15.282ZM368.337 77.13c10.712 0 15.568 4.963 15.568 15.5s-4.963 15.389-15.71 15.353c-10.176 0-15.1-4.927-15.139-15.068-.037-10.785 4.748-15.749 15.281-15.785ZM92.834 305.074c10.5 0 15.246 4.963 15.211 15.853s-5.07 15.032-16.067 15c-9.819 0-14.782-5.213-14.782-15.425s4.926-15.428 15.638-15.428ZM227.944 128.545c0 10.712-4.963 15.568-15.5 15.568s-15.386-4.963-15.35-15.71c0-10.176 4.927-15.1 15.068-15.139 10.854-.179 15.782 4.57 15.782 15.281ZM483.238 149.112c-10.712 0-15.389-4.963-15.353-15.71s5-15.175 15.925-15.139c10 0 14.925 5.106 14.925 15.282s-4.964 15.567-15.497 15.567ZM305.068 595.575c0-10.033 5.32-14.675 16.5-14.568 9.676 0 14.282 5.32 14.282 15.853s-5.07 15.068-16.067 15c-10.074-.039-14.787-5.216-14.715-16.285ZM92.834 344.493c10.5 0 15.246 4.963 15.211 15.853 0 10.355-5.07 15.032-16.067 15-9.819 0-14.782-5.213-14.782-15.425s4.926-15.428 15.638-15.428ZM143.965 476.532c0 10.533-4.963 15.389-15.71 15.353s-15.175-5-15.139-15.925c0-9.962 5.07-14.889 15.282-14.925s15.567 4.964 15.567 15.497ZM575.858 212.525c0 10.5-5 15.461-15.639 15.425s-15.251-4.963-15.211-15.85c0-10.1 4.963-14.961 15.211-15s15.639 4.928 15.639 15.425ZM476.525 575.579c-5.106 2.035-8.891-1.428-11.711-4.142a15.853 15.853 0 0 1-4.106-11.14 15.675 15.675 0 0 1 4.285-11.069 17.1 17.1 0 0 1 11.818-4.535 15.246 15.246 0 0 1 15.389 15.5 16.5 16.5 0 0 1-4 11.14c-2.856 2.675-6.534 6.353-11.675 4.246ZM51.059 489.887c-4.82 2.392-8.177-1.571-10.962-3.821a16.425 16.425 0 0 1-4.431-11.783 13.711 13.711 0 0 1 4.57-10.962 15.532 15.532 0 0 1 11.89-4.285 15.96 15.96 0 0 1 10.712 4.677 16.317 16.317 0 0 1 4.32 11.176 15.711 15.711 0 0 1-4.856 11.676 10.39 10.39 0 0 1-11.243 3.322ZM596.888 313.965c4.927-2.5 8.284 1.571 10.926 3.928a15.889 15.889 0 0 1 4.356 11.819 14.568 14.568 0 0 1-4.677 10.712 16.393 16.393 0 0 1-22.637-.607 16.282 16.282 0 0 1-4.07-11.1 14.782 14.782 0 0 1 4.249-10.926c2.748-2.754 6.748-6.039 11.853-3.826ZM374.907 596.288c2.035 5.106-1.428 8.891-4.178 11.711a15.889 15.889 0 0 1-11.1 4.142 15.71 15.71 0 0 1-11.069-4.32 16.782 16.782 0 0 1-4.535-11.783 15.318 15.318 0 0 1 15.5-15.425 16.567 16.567 0 0 1 11.14 4c2.814 2.928 6.492 6.605 4.242 11.675ZM570.394 483.781c2.5 4.927-1.571 8.284-3.892 10.926a16.174 16.174 0 0 1-11.854 4.356 14.532 14.532 0 0 1-10.89-4.642 15.889 15.889 0 0 1-4.213-11.961 15.211 15.211 0 0 1 15.96-14.889 14.675 14.675 0 0 1 11 4.356c2.818 2.749 6.1 6.748 3.889 11.854ZM172.743 182.104c-5.034 1.785-8.355-2.285-11.033-4.606a16.175 16.175 0 0 1-4.356-11.854 14.568 14.568 0 0 1 4.677-10.893 15.817 15.817 0 0 1 11.926-4.213 16.318 16.318 0 0 1 10.713 4.823 11.533 11.533 0 0 1 3.749 11.14c-.536 2.107 0 4.785-.928 6.463a18.674 18.674 0 0 1-7.534 7.712 33.528 33.528 0 0 1-7.213 1.428ZM41.133 202.849c-1.571-4.427 2.357-6.784 5-10.033s6.713-3.963 11-4.5c5.641-.678 7.748 3.571 11.319 5.927 4.178 2.856 2.964 6.784 3.571 10.712.928 5.249-2.928 7.355-5.427 10.712s-6.213 3.82-10.283 4.142a12.211 12.211 0 0 1-10.712-5.07c-4.361-4.927-4.504-4.82-4.468-11.89ZM536.439 172.964a15.782 15.782 0 0 1-15.5 15.568 15.96 15.96 0 0 1-15.353-14.859 15.43 15.43 0 1 1 30.85-.714ZM166.209 500.455a15.425 15.425 0 1 1-15.389 15.675 15.818 15.818 0 0 1 15.389-15.675ZM214.233 35.997a15.818 15.818 0 0 1 15.46 15.6 15.425 15.425 0 1 1-30.85 0 15.675 15.675 0 0 1 15.389-15.6ZM500.448 54.707a15.429 15.429 0 1 1-15.782-15.071 15.429 15.429 0 0 1 15.782 15.068ZM516.123 536.446a15.675 15.675 0 0 1-15.675-15.392 15.96 15.96 0 0 1 14.746-15.458 15.432 15.432 0 0 1 .928 30.85ZM265.648 128.546c0 6.927-8.712 15.6-15.6 15.461s-14.889-8.319-15.246-15 8.284-15.639 15.175-15.889 15.635 8.536 15.671 15.428ZM430.179 132.116c0-6.855 8.855-15.639 15.6-15.461s15.568 9.176 15.246 15.853-8.748 14.818-15.175 15-15.671-8.679-15.671-15.392ZM147.396 243.375c0 6.855-8.891 15.6-15.639 15.425s-15.532-9.176-15.211-16 8.784-14.818 15.211-15 15.639 8.719 15.639 15.575ZM128.54 421.617c6.927 0 15.6 8.748 15.46 15.6s-8.426 14.889-14.961 15.246-15.675-8.284-15.889-15.175 8.499-15.635 15.39-15.671ZM559.219 265.513c-2.357-.678-5.356-.643-6.784-2.142-2.928-3.071-8.034-4.856-7.427-10.5-4.106-2.964.393-5.856.464-8.748s8.819-8.427 12.14-8.962c1.107 0 2.321.786 3.571 1.214 7.141 2.392 9 4.285 11.283 11.212 3.571 2.107 0 4.178 0 6.284 0 4.5-3.928 6-6.356 8.391a22.067 22.067 0 0 1-6.891 3.251ZM227.908 555.406c.357-4.713 6.748-11.926 10.712-13.925a10.926 10.926 0 0 1 10.39.464 16.353 16.353 0 0 1 8.068 9.212 11.676 11.676 0 0 1-2.892 12.818c-2.321 2.178-3.856 5.927-8.141 5.035-3.356 3.571-7.141.5-9.248-.857a14.854 14.854 0 0 1-7.891-11.14c-.07-.57-.748-1.214-.998-1.607ZM437.034 572.081c-4.606 1.535-7.141-1.071-10.033-3.571-3.82-2.964-3.571-6.641-3.785-10.533a12.854 12.854 0 0 1 4-9.6c3.071-3.963 6.82-3.142 10.712-3.571a11.354 11.354 0 0 1 9.5 4.177 12.033 12.033 0 0 1 3.571 9.819 11.319 11.319 0 0 1-3.785 9.676c-3.253 3.067-6.109 5.388-10.18 3.603ZM556.041 432.043c3.856-1.321 6.284 1.285 9.283 3.571 3.856 3 3.392 6.641 3.785 10.712a12.747 12.747 0 0 1-4 9.569c-3.071 4-6.82 3.142-10.712 3.57a11.533 11.533 0 0 1-9.5-4.213 12 12 0 0 1-3.57-9.819 12.568 12.568 0 0 1 3.57-9.712 11.283 11.283 0 0 1 11.144-3.678ZM673.585 355.169c4.606-1.571 7.141 1.035 10.033 3.571 3.82 3 3.356 6.641 3.571 10.712a12.747 12.747 0 0 1-4 9.569c-3.071 4-6.82 3.142-10.712 3.571a11.5 11.5 0 0 1-9.5-4.213 12.033 12.033 0 0 1-3.57-9.819 11.426 11.426 0 0 1 3.785-9.676c3.429-3.215 6.286-5.393 10.393-3.715ZM567.146 599.859a10.212 10.212 0 0 1-3.356 9.748 12.712 12.712 0 0 1-10.426 4.106 13.211 13.211 0 0 1-9.712-3.57 13.068 13.068 0 0 1-3.892-10.712 11.747 11.747 0 0 1 3.928-9.6 11.89 11.89 0 0 1 9.676-3.785 12.568 12.568 0 0 1 10.426 4.07 10.247 10.247 0 0 1 3.356 9.743ZM592.71 548.622a10.712 10.712 0 0 1 10.712 3.785 12.5 12.5 0 0 1 3.57 9.748 12.782 12.782 0 0 1-3.57 9.783 13.032 13.032 0 0 1-10.462 4.07 12.14 12.14 0 0 1-9.676-3.785 11.854 11.854 0 0 1-3.928-9.64 12.5 12.5 0 0 1 3.928-10.5c2.821-2.497 5.427-4.604 9.426-3.461ZM672.798 344.35c-3.856 1.321-6.284-1.285-9.283-3.571-3.856-2.964-3.571-6.641-3.785-10.712a12.676 12.676 0 0 1 4.035-9.569c3.035-3.963 6.784-3.142 10.712-3.571a11.462 11.462 0 0 1 9.426 4.427 12.033 12.033 0 0 1 3.57 9.819 12.533 12.533 0 0 1-3.571 9.712 11.176 11.176 0 0 1-11.1 3.463ZM319.526 659.991c3.856-1.321 6.284 1.285 9.283 3.571 3.856 3 3.571 6.641 3.785 10.712a12.747 12.747 0 0 1-4.106 9.5c-3.071 4-6.82 3.142-10.712 3.57a11.533 11.533 0 0 1-9.5-4.213 12 12 0 0 1-3.571-9.819 12.568 12.568 0 0 1 3.571-9.712 11.283 11.283 0 0 1 11.25-3.609ZM357.447 687.124c-3.856 1.321-6.284-1.285-9.283-3.571-3.856-2.964-3.571-6.641-3.785-10.712a12.783 12.783 0 0 1 4-9.569c3.071-3.963 6.82-3.142 10.712-3.571a11.461 11.461 0 0 1 9.5 4.177 12.033 12.033 0 0 1 3.57 9.819 12.568 12.568 0 0 1-3.57 9.712 11.247 11.247 0 0 1-11.14 3.713ZM599.851 149.108a13.714 13.714 0 0 1 .571-27.422 13 13 0 0 1 13.212 13.572 13.068 13.068 0 0 1-13.783 13.85ZM521.871 197.1a13.726 13.726 0 0 1-1.285 27.422c-8.069 0-13.1-5.891-13.39-14.282-.178-6.391 6.963-14.497 14.675-13.14ZM289.642 143.971a13.1 13.1 0 0 1-13.71-13.925 13.711 13.711 0 1 1 27.422 0 13.1 13.1 0 0 1-13.712 13.925ZM145.678 282.365a13 13 0 0 1-13.568 14 13.639 13.639 0 0 1-14.032-12.857 14.282 14.282 0 0 1 13.175-14.675c8.534.428 14.318 5.463 14.425 13.532ZM497.02 170.964a13 13 0 0 1-13.5 14.282 13.639 13.639 0 0 1-14.032-12.854 14.282 14.282 0 0 1 13.178-14.675c8.462.143 14.247 5.177 14.354 13.247ZM185.097 205.883a13.711 13.711 0 1 1-13.711-13.924 13 13 0 0 1 13.711 13.924ZM143.964 399.337a13.1 13.1 0 0 1-13.925 13.711 13.711 13.711 0 0 1 0-27.422 13.1 13.1 0 0 1 13.925 13.711ZM224.516 168.038a13.711 13.711 0 1 1-13.854-13.784 13.1 13.1 0 0 1 13.854 13.784ZM368.698 29.142a13.1 13.1 0 0 1-13.929-13.711 13.711 13.711 0 0 1 27.279-.428 13 13 0 0 1-13.35 14.139ZM102.836 553.442a13.1 13.1 0 0 1-13.929 13.71 13.711 13.711 0 0 1 0-27.422 13.1 13.1 0 0 1 13.929 13.712ZM575.857 95.625a13.461 13.461 0 0 1-13.568 14.282 14.282 14.282 0 0 1-13.925-13.068c0-8.462 5.249-14.282 13.211-14.5a13.033 13.033 0 0 1 14.282 13.282ZM405.97 145.684a13 13 0 0 1-13.5-14.282 13.713 13.713 0 1 1 27.422.428 13.1 13.1 0 0 1-13.921 13.854ZM140.536 593.075a13.1 13.1 0 0 1-14 13.64 13.711 13.711 0 0 1 0-27.422 13.068 13.068 0 0 1 14 13.782ZM296.355 556.192a15.318 15.318 0 0 1-14.282 14.711 11.39 11.39 0 0 1-9.212-4.427 13.747 13.747 0 0 1-4.392-10.1c0-4.213 3.892-5.891 4.356-9.426 3.571-.357 5.32-4 9.64-4s6.5 3.963 10.247 4.606c.072 3.744 6.821 4.958 3.643 8.636ZM205.199 502.169a15.282 15.282 0 0 1 14.285 14.282 11.355 11.355 0 0 1-4.427 9.176 13.461 13.461 0 0 1-10.1 4.392c-4.213 0-5.891-3.892-9.426-4.356-.357-3.57-4-5.32-4-9.64s3.963-6.5 4.606-10.212c3.813-.214 5.313-5.927 9.062-3.642ZM572.43 289.578a14.282 14.282 0 0 1-13.854 13.925 14.925 14.925 0 0 1-13.568-13.211 13.714 13.714 0 1 1 27.422-.571ZM154.247 476.318a14.639 14.639 0 0 1 14.782-13.569c6.141.179 12.211 7.57 12.818 14.282a11.283 11.283 0 0 1-4.427 9.176 13.461 13.461 0 0 1-10.1 4.392c-4.213 0-5.891-3.892-9.426-4.356-.791-3.855-5.754-5.994-3.647-9.925ZM17.853 332.498c-9.142 0-15.996-6.465-16.032-13.5a15.853 15.853 0 0 1 12.818-14.281c4.785-.821 6.82 3.214 10.533 3.856.464 3.571 4.213 5.213 4.356 9.426a16.353 16.353 0 0 1-4.535 10.5c-1.642 2.355-5.676 3.176-7.14 3.999ZM399.223 544.551c3.249 1.321 7.462 1.821 9.319 4.178a17 17 0 0 1 4.535 10 15.96 15.96 0 0 1-3.963 9.426 17.1 17.1 0 0 1-9.176 4.177c-4 1.036-7.427-2-10.176-3.963a16.388 16.388 0 0 1-4.035-9.248c-.857-3.963 2.071-7.391 4.106-10.1s5.998-2.97 9.39-4.47ZM557.005 420.546c-3.571-1.678-8.105-2.428-9.926-5.07s-4.713-5.641-3.785-9.391a21.673 21.673 0 0 1 3.856-9.426 20.138 20.138 0 0 1 9.319-4.07c4.035-1 7.391 2.071 10.14 4.07a13.176 13.176 0 0 1 3.785 9.248 14.532 14.532 0 0 1-3.57 9.5 34.208 34.208 0 0 1-9.819 5.139ZM295.315 672.159a32.384 32.384 0 0 1-5.106 9.819 14.6 14.6 0 0 1-9.5 3.571 12.926 12.926 0 0 1-9.355-4.106c-2-2.714-5.034-6.106-4.035-10.14a14.068 14.068 0 0 1 13.54-13.244 17.067 17.067 0 0 1 10.033 4.535c2.5 1.785 3 6.065 4.423 9.565ZM673.76 394.195c6 0 13.782 8.319 13.5 14.282s-8.534 13.675-14.282 13.282a17.246 17.246 0 0 1-13.1-13.711c-.185-6.14 8.782-14.424 13.882-13.853ZM143.964 360.132c0 5.963-8.284 13.782-14.282 13.5s-13.71-8.501-13.318-14.287a17.353 17.353 0 0 1 13.854-13c5.999-.281 14.318 8.646 13.746 13.787ZM366.838 118.263c6.57 0 14.282 9.283 13.711 14-.5 6-8.5 13.961-14.282 13.39a16.639 16.639 0 0 1-13.212-13.536c-.428-5.392 8.034-14.285 13.783-13.854ZM529.583 483.638c-.214 6-8.427 13.711-14.282 13.39s-13.6-8.676-13.175-14.282 8.355-13.068 13.818-13c6.033-.069 13.853 8 13.639 13.892ZM14.068 371.915C8.248 372.165 0 364.202 0 358.382s7.141-13.386 12.925-13.886 14.282 7.141 14.5 13.14-7.325 14.029-13.357 14.279ZM342.773 129.867c.286 5.82-7.534 13.961-13.532 14.282-5.392 0-13.39-7.141-13.889-12.89s7.141-14.282 13.1-14.532 14.035 7.07 14.321 13.14ZM344.487 13.574c.464 5.392-8.034 14.068-13.782 13.889a16.782 16.782 0 0 1-13.569-13.175C316.529 8.502 324.277.256 330.419.002s13.96 7.574 14.068 13.572ZM109.687 126.654c.536 5.284-7.891 14.032-13.747 13.925a16.746 16.746 0 0 1-13.6-13.14c-.643-5.784 7.141-14.032 13.247-14.282s13.957 7.534 14.1 13.497ZM490.165 521.305c-.179 6-8.355 13.782-14.282 13.461s-13.675-8.569-13.282-14.282a17.246 17.246 0 0 1 13.747-13.068c6.14-.211 14.46 8.789 13.817 13.889ZM145.678 320.749c0 6-8.355 13.782-14.282 13.461s-13.673-8.57-13.283-14.283a17.246 17.246 0 0 1 14-13.14c5.888-.106 14.279 8.891 13.565 13.962ZM134.966 75.416c5.82-.286 14 7.534 14.282 13.532 0 5.392-7.141 13.39-12.854 13.889s-14.282-7.14-14.567-13.067 7.105-14.068 13.139-14.354ZM395.866 661.559c5.856-.286 14.282 8.605 13.782 13.889a16.746 16.746 0 0 1-13.318 13.675c-5.784.536-13.782-7.427-14.282-13.425-.285-5.106 7.606-14.246 13.818-14.139ZM334.349 557.013c-2.321 3.571-2.285 8.355-6.391 10.39-2.571 1.285-5.641 3.571-7.962 2.928a15 15 0 0 1-10.712-6.748c-1.181-2.283-2.86-5.283-2.253-7.356a15.318 15.318 0 0 1 6.318-9.927c2.285-1.286 5.177-3.249 7.141-2.678 3.571 1 8.141 1.75 10.283 5.82 1.288 2.536 2.466 5.214 3.576 7.571ZM675.151 305.074c-3.571-1.892-8.105-2-10.212-6.07-1.321-2.571-3.571-5.677-3.071-7.855.964-3.571 1.821-8.177 5.927-10.247 2.571-1.285 5.784-3.571 7.891-2.928a18.352 18.352 0 0 1 9.855 5.32c2 2.535 1.035 5.927 3.57 7.962-2.214 2.714-1.785 6.463-4.535 9.283s-6.743 2.25-9.425 4.535ZM359.196 569.01a8.926 8.926 0 0 1-8.962-3.571 6.784 6.784 0 0 1-2.321-5.927c.643-3.571-1.75-8 2.392-10.962 1.535-1.107 2.856-3.214 4.5-3.571a19.816 19.816 0 0 1 10.926 0c2.964 1.535 7.141 4.07 6.213 9.141a14.282 14.282 0 0 0 0 4.249 8.105 8.105 0 0 1-2.928 7.391 7.927 7.927 0 0 1-7.391 2.928 15.927 15.927 0 0 0-2.429.322ZM569.002 366.523c0 8.819-3.249 12.247-11.747 12.247s-12.247-3.249-12.247-11.747 3.249-12.207 11.747-12.247 12.247 3.249 12.247 11.747ZM569.002 329.785a9 9 0 0 1-3.571 8.962 6.784 6.784 0 0 1-5.927 2.321c-3.571-.607-8 1.75-10.962-2.357-1.107-1.571-3.213-2.892-3.571-4.535a19.674 19.674 0 0 1 0-10.712c1.535-3 4.07-7.141 9.1-6.248a13.069 13.069 0 0 0 4.249 0 8.141 8.141 0 0 1 7.391 2.928 7.748 7.748 0 0 1 2.928 7.391c.291.391.363.962.363 2.25ZM407.042 27.427a11.283 11.283 0 0 1-11.247-12.854 12.152 12.152 0 1 1 24.244 1.714 11.354 11.354 0 0 1-13 11.14ZM25.704 395.552a11.533 11.533 0 0 1-11.426 12.568 12.218 12.218 0 0 1-.786-24.423c6.504-.106 13.002 5.14 12.212 11.855ZM303.496 14.288c1.071 3-1.071 5.177-3.571 7.355s-4.32 4.892-8.569 4.392a9.426 9.426 0 0 1-7.141-3.178c-2.142-2.678-5.427-4.249-5-8.569.321-3.214.357-6 3.285-8.177s4.289-4.784 8.428-4.498a13.175 13.175 0 0 1 12.568 12.675ZM27.244 279.224c1.178 3.571-.75 5.713-3.213 7.891s-4.285 4.963-8.569 4.427a9.355 9.355 0 0 1-7.32-3.142c-2-2.535-5.283-4.07-4.821-8.319.321-3.178 0-6.034 3.178-8.177s4.213-5.039 8.46-4.677a9.712 9.712 0 0 1 8.069 3.571c1.966 2.392 5.537 4.141 4.216 8.426ZM525.977 637.529c1.357 3.571-1.035 5.642-3.321 7.891a11.1 11.1 0 0 1-8.5 4.427 10.14 10.14 0 0 1-7.891-3.928c-2.071-2.178-4.606-3.856-4.178-7.748a9.891 9.891 0 0 1 3.321-8.141c2.607-2 4.32-4.784 8.462-4.606a9.89 9.89 0 0 1 8.069 3.57c2.003 2.463 5.467 4.214 4.038 8.535ZM644.412 524.663a12 12 0 1 1-11.569-12.426 12 12 0 0 1 11.569 12.426ZM443.533 159.395a13.318 13.318 0 0 1 12.354 12 13.568 13.568 0 0 1-11.212 12.14 13.425 13.425 0 0 1-12.782-11.429 13.318 13.318 0 0 1 11.64-12.711ZM250.224 179.962a13.568 13.568 0 0 1-12.033-12.14 13.39 13.39 0 0 1 12.461-11.783 13.639 13.639 0 0 1 11.6 11.783 13.568 13.568 0 0 1-12.028 12.14ZM637.557 186.817a13.532 13.532 0 0 1-12.033-12.211 13.39 13.39 0 0 1 12.461-11.783 13.639 13.639 0 0 1 11.6 11.783 13.532 13.532 0 0 1-12.033 12.211ZM171.172 255.375a13.247 13.247 0 0 1-11.783-12.571 13.318 13.318 0 0 1 12.64-11.569 13.532 13.532 0 0 1 11.354 12 13.354 13.354 0 0 1-12.211 12.14ZM521.299 238.233a13.318 13.318 0 0 1 11.64 12.568 13.425 13.425 0 0 1-12.783 11.426 13.568 13.568 0 0 1-11.212-12.14 13.318 13.318 0 0 1 12.355-11.854ZM529.583 444.111a12 12 0 1 1-11.569-12.426 12 12 0 0 1 11.569 12.426ZM179.955 438.328a13.247 13.247 0 0 1-11.783 12.426 13.532 13.532 0 0 1-12.211-11.14 13.39 13.39 0 0 1 11.354-12.855 13.283 13.283 0 0 1 12.64 11.569ZM243.439 529.594a13.354 13.354 0 0 1-12.068-12.143 13.532 13.532 0 0 1 11.426-11.857 12.003 12.003 0 0 1 .574 24ZM438.606 533.019a13.282 13.282 0 0 1-11.854-12.354c.25-5.927 6.855-12.283 12.568-11.533a12.854 12.854 0 0 1 11.39 11.819 13.247 13.247 0 0 1-12.104 12.068ZM164.531 620.426c2.321 2.428 6.284 1.071 8.641 4.142s1.393 5.749 3.356 8.069c-2.107 2.5-1.035 6.713-4.392 8.427a19.066 19.066 0 0 1-8.034 3.106 12.64 12.64 0 0 1-7.641-3.821 10.712 10.712 0 0 1-3.571-7.641 17.139 17.139 0 0 1 3-8.141c2.357-3.07 6.32-1.713 8.641-4.141ZM210.662 193.637a31.493 31.493 0 0 1 8.355 4.392 11.89 11.89 0 0 1 3.568 7.784 12.675 12.675 0 0 1-3.571 7.748 12.533 12.533 0 0 1-7.605 3.856 12.247 12.247 0 0 1-7.891-3.178 14.282 14.282 0 0 1-4.356-8.177 11.14 11.14 0 0 1 3.323-7.783 31.1 31.1 0 0 1 8.177-4.642ZM524.37 66.847c-7.141 0-10.176-2.964-10.212-10.14 0-7.712 2.892-10.212 10.712-10.712a9.5 9.5 0 0 1 9.888 10.711c-.462 7.177-3.176 10.176-10.388 10.141ZM672.227 437.042a10.283 10.283 0 1 1-10.712 9.89 9.712 9.712 0 0 1 10.712-9.89ZM56.557 154.254a10.283 10.283 0 1 1-10.283 10.283 10.283 10.283 0 0 1 10.283-10.283ZM241.761 661.559a10.283 10.283 0 1 1-10.39 10.176 9.676 9.676 0 0 1 10.39-10.176ZM478.453 491.885a10.283 10.283 0 1 1 10.033-10.533 9.676 9.676 0 0 1-10.033 10.533ZM49.702 524.449a10.283 10.283 0 1 1 10.283-10.286 10.283 10.283 0 0 1-10.283 10.283ZM205.66 488.458a10.283 10.283 0 1 1 10.283-10.248 9.641 9.641 0 0 1-10.283 10.248ZM480.524 221.095c-3.213.964-4.642-1.964-6.855-3.571-2.892-2.035-2-4.892-2.428-7.57-.571-3.571 2.035-4.892 3.571-7.141 2.071-2.892 4.927-1.964 7.605-2.428 3.571-.571 4.856 2.035 7.141 3.571 2.892 2.071 2 4.927 2.428 7.605.571 3.571-1.714 5.106-3.571 7.141-2.821 2.679-2.821 2.679-7.891 2.393ZM675.262 243.375a10.283 10.283 0 1 1-10.284 10.323 9.64 9.64 0 0 1 10.283-10.319ZM435.214 664.986a10.283 10.283 0 1 1-10.176 10.39 9.64 9.64 0 0 1 10.176-10.39ZM13.959 424.9a10.283 10.283 0 0 1 9.926 10.712 9.89 9.89 0 0 1-10.426 9.963 9.926 9.926 0 0 1-9.89-10.5 10.176 10.176 0 0 1 10.39-10.175ZM174.956 39.282a10.712 10.712 0 0 1 10.284 10.283 10.283 10.283 0 1 1-20.531 0 10.712 10.712 0 0 1 10.247-10.283ZM416.469 171.392a10.283 10.283 0 1 1-20.531 0 10.266 10.266 0 0 1 20.531 0ZM171.386 272.511a10.283 10.283 0 1 1-10.391 10.18 10.712 10.712 0 0 1 10.391-10.18ZM157.675 399.337a10.283 10.283 0 1 1 10.14 10.283 10.712 10.712 0 0 1-10.14-10.283ZM289.642 178.248a10.283 10.283 0 1 1 10.284-10.426 10.712 10.712 0 0 1-10.284 10.426ZM293.32 518.201a16.606 16.606 0 0 1-1.642 3.285 31.893 31.893 0 0 1-3.571 3.571c-4.035 3.892-6.534 3.892-10.712 0a24.778 24.778 0 0 1-3.571-3.57 7.356 7.356 0 0 1-1.357-3.571c-.286-3.856 6.356-10.712 10.212-10.462a5.07 5.07 0 0 1 3.106.643 65.128 65.128 0 0 1 6.677 6.641c.716.607.573 1.964.858 3.463ZM527.87 404.479c0 3.571-7.141 10.712-10.5 10.283s-10.426-7.427-10.069-10.712a16.5 16.5 0 0 1 10.069-9.855c3.359-.249 10.5 6.749 10.5 10.284ZM399.116 529.591c-3.571-.286-10.426-7.427-10.069-10.712s7.748-10.355 10.926-9.855 9.64 7.141 9.64 10.283-7.141 10.533-10.497 10.284ZM519.336 299.936a32.526 32.526 0 0 1-5.356-2.856c-5.784-4.463-5.784-10.033-.214-14.782a7.534 7.534 0 0 1 10.712-.5 9.176 9.176 0 0 1-.428 16 30.415 30.415 0 0 1-4.713 2.142ZM15.603 250.231c-6.248 0-8.676-2.249-8.748-8.177s2.179-8.855 7.962-8.962c6.927 0 9.176 2 9.176 8.605s-2.359 8.498-8.39 8.534ZM447.71 24c-6.32 0-8.891-2.178-8.962-7.927 0-6.641 1.964-9.1 7.748-9.212 6.927 0 9.355 2.035 9.391 8.391s-2.25 8.676-8.177 8.748ZM327.169 178.248c-6.034 0-8.391-2.428-8.391-8.534s2.285-8.712 9.176-8.605c5.784 0 8.034 2.642 7.962 9s-2.499 8.178-8.747 8.139ZM169.458 313.643c6.284 0 8.712 2.214 8.784 8.141s-2.178 8.926-7.927 9c-6.927 0-9.212-2.035-9.212-8.569s2.357-8.536 8.355-8.572ZM169.458 351.349c6.284 0 8.712 2.214 8.784 8.141s-2.178 8.926-7.927 9c-6.927 0-9.212-2.035-9.212-8.569s2.357-8.536 8.355-8.572ZM262.22 11.753c0 6.32-2.214 8.748-8.105 8.819s-8.926-2.178-9.033-7.896c-.107-6.922 2.035-9.1 8.426-9.1s8.677 2.178 8.712 8.177ZM358.197 169.857c0-6.248 2.249-8.676 8.177-8.748s8.891 2.178 8.962 7.962c0 6.927-2 9.176-8.605 9.176s-8.498-2.359-8.534-8.39ZM517.515 375.343a8.574 8.574 0 0 1 .571-17.139 8.926 8.926 0 0 1 8.069 8.855 8.605 8.605 0 0 1-8.64 8.284ZM322.563 509.025a8.712 8.712 0 0 1 8.212 8.712 8.5 8.5 0 0 1-9.426 8.427 8.748 8.748 0 0 1-7.784-9.141 8.926 8.926 0 0 1 8.998-7.998ZM368.48 519.093a8.783 8.783 0 0 1-8.141 8.784 8.177 8.177 0 0 1-8.926-7.927 8.319 8.319 0 0 1 8.5-9.355 8.5 8.5 0 0 1 8.569 8.5ZM519.05 318.785a8.748 8.748 0 0 1 8.784 8.141 8.141 8.141 0 0 1-7.891 8.962 8.355 8.355 0 0 1-9.355-8.5 8.534 8.534 0 0 1 8.462-8.605ZM452.459 210.954c0 2.856-6.034 8.569-8.676 8.427s-8.605-6.034-8.462-8.676 6.034-8.605 8.712-8.462 8.566 6.033 8.426 8.711ZM250.331 215.954c-2.642 0-8.534-5.606-8.676-8.462s5.606-8.534 8.462-8.676 8.534 5.606 8.676 8.462-5.605 8.533-8.462 8.676ZM210.912 253.516c-2.642 0-8.534-5.606-8.676-8.462s5.606-8.534 8.458-8.679 8.534 5.606 8.676 8.462-5.601 8.679-8.458 8.679ZM207.27 447.326c-2.892 0-8.605-6.034-8.462-8.676s6.034-8.605 8.712-8.462 8.569 6.034 8.426 8.712-6.034 8.568-8.676 8.426ZM481.738 258.8c-2.678 0-8.569-5.57-8.712-8.427s5.57-8.569 8.462-8.712 8.534 5.57 8.676 8.462-5.57 8.534-8.426 8.677ZM253.509 478.46c-.214 3-6.106 8.534-8.819 8.319s-8.534-6.106-8.319-8.819 6.106-8.534 8.819-8.319 8.676 6.066 8.319 8.819ZM471.312 443.469c0-5.891.678-6.463 7.141-6.427s6.784.821 6.641 7.712c0 5.32-1.071 6.106-7.5 6-5.782-.072-6.282-.858-6.282-7.285ZM438.606 488.458c-6.034 0-6.713-.714-6.713-6.784s.5-7.141 7.427-6.927c5.891 0 6.356.607 6.284 7.141s-.571 6.606-6.998 6.57ZM481.595 675.27a7.141 7.141 0 0 1-6.713 6.713 6.906 6.906 0 1 1 6.57-6.748ZM591.067 593.004a7.141 7.141 0 0 1 7.141 6.427 7.006 7.006 0 1 1-7.141-6.57ZM671.941 491.885a12.961 12.961 0 0 1-4.427-1.928 10.14 10.14 0 0 1-2.428-4.82c-.464-2.142 5.142-7.141 7.141-7.141a12.033 12.033 0 0 1 6.32 7.141 12.568 12.568 0 0 1-6.606 6.748ZM675.083 221.097a19.175 19.175 0 0 1-4.784-2.571 7.677 7.677 0 0 1-1.821-4.249c-.321-2.178 5.284-7.141 7.391-6.891a11.925 11.925 0 0 1 6.248 7.141 12.5 12.5 0 0 1-7.034 6.57ZM214.233 282.79c0 3.571-1.428 5.07-4.927 5.142-4.07 0-5.534-1.428-5.356-5.57 0-3.571 1.714-4.785 5.356-4.713s4.927 1.574 4.927 5.141ZM635.842 562.083c0 3.571-1.357 5.106-4.856 5.213-4.177 0-5.57-1.321-5.427-5.5 0-3.571 1.678-4.82 5.284-4.785s4.964 1.537 4.999 5.072ZM486.737 287.721c0 3.571-1.285 5.213-4.713 5.356s-5.356-1.214-5.57-4.5c-.286-4.106 1.214-5.784 5.142-5.784s5.069 1.429 5.141 4.928ZM207.091 394.195c3.571 0 5.213 1.321 5.356 4.713s-1.214 5.356-4.5 5.57c-4.106.286-5.784-1.214-5.784-5.142s1.358-5.07 4.928-5.141ZM92.549 590.932c0 3.571-1.25 5.32-4.57 5.5s-5.463-1.143-5.713-4.356c-.321-4.035 1.214-5.856 5-5.927s5.14 1.356 5.283 4.783ZM409.613 208.669c0 3.571-1.214 5.356-4.5 5.57s-5.5-1.107-5.784-4.285c-.357-4.035 1.178-5.891 4.927-6s5.215 1.323 5.357 4.715ZM293.071 207.098c0 3.571-1.285 5.213-4.713 5.356s-5.356-1.214-5.57-4.5c-.286-4.106 1.214-5.784 5.142-5.784s5.069 1.358 5.141 4.928ZM552.149 634.137c3.571 0 4.892 1.607 4.856 5.213s-1.821 5.392-5.856 5.07c-3.213-.25-4.606-2-4.427-5.641s1.678-4.747 5.427-4.642ZM11.782 469.605c3.571 0 5.213 1.321 5.356 4.713s-1.214 5.356-4.5 5.57c-4.106.286-5.784-1.214-5.784-5.142s1.429-5.07 4.928-5.141ZM287.929 478.175c0 3.571-1.428 5.07-4.927 5.142-4.07 0-5.534-1.428-5.356-5.57 0-3.571 1.714-4.785 5.356-4.713s4.927 1.57 4.927 5.141ZM404.471 481.531c0 3.571-1.357 5.106-4.856 5.213-4.178 0-5.57-1.321-5.427-5.5 0-3.571 1.678-4.82 5.284-4.785s4.964 1.537 4.999 5.072ZM599.637 90.841c3.571 0 5.213 1.285 5.356 4.713s-1.214 5.356-4.5 5.57c-4.106.286-5.784-1.214-5.784-5.142s1.572-5.07 4.928-5.141ZM202.021 666.7c3.571 0 5.213 1.285 5.356 4.713s-1.214 5.356-4.5 5.57c-4.106.286-5.784-1.214-5.784-5.142s1.429-5.07 4.928-5.141ZM485.237 22.286c-3.571 0-5.213-1.285-5.356-4.713s1.214-5.356 4.5-5.57c4.106-.286 5.784 1.214 5.784 5.142s-1.429 5.073-4.928 5.141ZM96.19 93.483a56.414 56.414 0 0 1-5.284-5.713c-.75-1.107 4.142-6.141 5.213-5.392 1.928 1.321 4.57 3.285 4.642 5.07s-2.643 3.643-4.571 6.035ZM23.208 201.993a61.376 61.376 0 0 1-5.677 5.32c-1.071.75-6.177-4.07-5.427-5.177 1.321-1.929 3.249-4.607 5.034-4.679s3.678 2.5 6.07 4.536ZM131.182 630.459a61.38 61.38 0 0 1-5.677 5.32c-1.071.75-6.177-4.07-5.427-5.177 1.321-1.928 3.249-4.606 5.034-4.677s3.682 2.498 6.07 4.534ZM220.302 11.753a61.376 61.376 0 0 1-5.677 5.32c-1.071.75-6.177-4.07-5.427-5.177 1.464-1.928 3.249-4.749 5.034-4.749s3.571 2.678 6.07 4.606ZM484.273 404.443a42.841 42.841 0 0 1-5.927 5.07c-1.214.714-6.034-4.356-5.213-5.356 1.428-1.857 3.571-4.427 5.249-4.463s3.641 2.75 5.891 4.749ZM642.698 135.937c.536 2.821-1.107 3.035-3.571 2.928-3.571 0-3.285 0-3.571-3.856 0-2.892 1.178-3.178 3.571-3.071 3.571.179 3.571.179 3.571 3.999ZM445.604 248.017c0 3.928 0 3.82-3.571 3.963-2.357 0-3.571-.214-3.571-3.071.214-3.785 0-3.571 3.571-3.856 2.5-.107 4.285.179 3.571 2.964ZM251.937 245.267c.393 2.249-.214 3.571-3.035 3.321-3.82-.179-3.571 0-3.856-3.571 0-2.357.214-3.571 3.071-3.571 3.82.358 3.82.144 3.82 3.821ZM330.776 207.099c0 3.571 0 3.571-3.82 3.571-2.856 0-3.178-1.107-3.071-3.571.177-3.571-.001-3.321 3.856-3.571 2.821.214 3.427 1.464 3.035 3.571ZM53.13 551.371c0 3.928 0 3.821-3.571 3.963-2.357 0-3.571-.214-3.571-3.071.214-3.785 0-3.571 3.571-3.856 2.5-.103 4 .179 3.571 2.964ZM210.662 362.488c.5 3.571-2.142 2.535-3.856 2.535-3.142 0-2.964 0-3.071-4.249 0-3.571 2.178-2.535 3.928-2.535 3.32-.035 3.356.143 2.999 4.249ZM368.481 208.955c0 3.571 0 3.571-3.82 3.571-2.856 0-3.178-1.107-3.071-3.571 0-3.571 0-3.321 3.856-3.571 2.82.071 3.427 1.321 3.035 3.571ZM244.226 442.184c-3.571.5-2.535-2.142-2.535-3.856 0-3.142 0-2.964 4.249-3.071 3.571 0 2.535 2.214 2.535 3.928.035 3.177-.143 3.213-4.249 2.999ZM565.574 56.421c0 3.571 0 3.571-3.82 3.571-2.892 0-3.178-1.178-3.071-3.571 0-3.571 0-3.321 3.892-3.571 2.857.071 3.356 1.357 2.999 3.571ZM209.625 318.785c2.785-.536 3.035 1.107 2.928 3.571 0 3.571 0 3.321-3.856 3.571-2.892 0-3.178-1.178-3.071-3.571.145-3.642.038-3.642 3.999-3.571ZM135.68 45.388c1.321 1.857 3.035 3.214 2.928 4.392s-1.785 2.642-3.106 3.249-4.142-2.535-3.575-3.785a23.316 23.316 0 0 1 3.753-3.856ZM484.273 327.14a23.6 23.6 0 0 1-4 3.571c-1.285.643-4.32-2.214-3.571-3.571s2.142-2.964 3.321-3.071 2.358 1.714 4.25 3.071ZM484.201 365.345c-1.857 1.321-3.178 3.035-4.356 2.928s-2.678-1.785-3.285-3.106 2.535-4.106 3.785-3.571a23.317 23.317 0 0 1 3.856 3.749ZM361.482 484.351c-1.428-1.892-3.142-3.178-3.071-4.392s1.892-2.321 2.928-3.571c1.25 1.25 3 2.357 3.571 3.856.179.825-1.892 2.358-3.428 4.107ZM322.135 475.425c1.5 1.785 3.571 3.356 3.285 4.106-.536 1.5-2.321 2.571-3.571 3.785-1.035-1.178-2.785-2.357-2.856-3.571s1.678-2.463 3.142-4.32ZM443.283 442.183a23.106 23.106 0 0 1-4.356 3.356c-1.357.536-4.213-2.535-3.571-3.57s2.285-2.821 3.571-2.856 2.464 1.57 4.356 3.07ZM61.092 124.975a23.1 23.1 0 0 1-4.356 3.356c-1.357.536-4.213-2.535-3.571-3.571s2.285-2.821 3.571-2.856 2.464 1.714 4.356 3.071ZM290.571 247.16a9.963 9.963 0 0 1-3.035 1.25c-.428 0-1.357-1.357-1.25-1.535a4.928 4.928 0 0 1 2.071-1.678c.286-.108.857.856 2.214 1.963ZM713.252 333.388c-.928-1.214-1.714-1.857-1.892-2.642s.786-1.107 1.214-1.678a9.033 9.033 0 0 1 2.035 1.785c.178.322-.495 1.214-1.357 2.535ZM713.252 367.773c.75 1.357 1.535 2.214 1.357 2.535a8.211 8.211 0 0 1-2.035 1.785c-.428-.571-1.321-1.214-1.214-1.678a10.082 10.082 0 0 1 1.892-2.642ZM248.153 282.08c1.107 1.178 2.071 1.892 1.964 2.178a4.535 4.535 0 0 1-1.678 2.071s-1.536-.821-1.536-1.249a9.5 9.5 0 0 1 1.25-3ZM669.763 521.843c1.107 1.178 2.071 1.892 1.964 2.178a4.534 4.534 0 0 1-1.678 2.071s-1.535-.821-1.535-1.25a9.5 9.5 0 0 1 1.25-3ZM167.137 670.414c-1.357.75-2.214 1.535-2.535 1.357a7.641 7.641 0 0 1-1.785-2.036c.571-.428 1.25-1.321 1.678-1.214a15.677 15.677 0 0 1 2.642 1.893ZM512.731 674.377c.75 1.357 1.535 2.214 1.357 2.535a8.21 8.21 0 0 1-2.035 1.785c-.428-.571-1.321-1.214-1.214-1.678a14.328 14.328 0 0 1 1.892-2.642ZM321.349 713.26c-1.357.75-2.214 1.535-2.535 1.357a7.64 7.64 0 0 1-1.785-2.035c.571-.428 1.25-1.321 1.678-1.214a14.328 14.328 0 0 1 2.642 1.892ZM356.126 715.617a9.639 9.639 0 0 1-1.25-3.035c0-.428 1.357-1.357 1.535-1.25a4.927 4.927 0 0 1 1.675 2.074c.111.318-.853 1-1.96 2.211Z"/></svg>