<svg xmlns="http://www.w3.org/2000/svg" width="742.995" height="741.893"><defs><style>.a{fill:rgba(0,0,0,.1)}</style></defs><path class="a" d="M346.735 524.444c-4.927.75-8.569-1.964-12.033-5.427a16 16 0 0 1-5.749-12.247c0-4.82.357-9.355 4.106-12.89s6.213-7.141 11.64-7.141c.464 0 .928-.464 1.393-.714-.357-.321-.714-.893-1.107-.928-8.676-.464-11.569-7.462-15.318-13.5-2.678 6.927-6.534 12.533-14.711 13.5-.464 0-.857.571-1.285.857a12.434 12.434 0 0 1 1.357.821c3.142 2.749 6.248 5.534 9.462 8.248 2.142 1.821 0 4.606 1.321 6.284s2.464 3.071 0 4.82c.714 6.748-4.856 9.6-8.5 13.6-1.178 1.285-9.141 1.857-11.069 1.892-5.463 0-8.141-3.928-11.961-6.57s-1.678-7.534-4.713-10.176a16.925 16.925 0 0 0 1.785-8.569c4.213-3.035 6.141-9 12.354-9.462.464 0 .893-.536 1.357-.821-.464-.286-.893-.75-1.393-.821a18.1 18.1 0 0 1-9.855-7.141c-1.964-2.214-1.821-5.606-3.571-7.962-2 2.571-3.892 5.284-6.07 7.748-9.783 10.926-26.6 6.141-31.492-7.141a17.21 17.21 0 0 1 5-19.781c2.107-1.857 6.177-2.892 6.034-5.677 0-1.785-4.07-3.106-5.856-5.034a19.174 19.174 0 0 1 5.32-30.564c.214 0 .357-.428.607-.571l3.571-1.821a22.422 22.422 0 0 0-3.785-2.392 15.818 15.818 0 0 1-8.962-9.033c-.428-.964-.464-2.071-.821-3.071a12.6 12.6 0 0 0-1-1.785c-.607.607-1.75 1.25-1.75 1.821a10.712 10.712 0 0 1-4.927 8.284c-11 9.748-23.423 4.57-29.957-4.249 0-4.142-3-7.891-1.714-12.14a24.281 24.281 0 0 1 3.178-8.069 17.853 17.853 0 0 1 20.995-7.141c7.141 2.5 8.319 3.571 11.961 11.89.428.964 1.571 1.642 2.357 2.428.286-1 .571-2 .893-3a19.067 19.067 0 0 1 11.961-12.39l1.5-.607a16.065 16.065 0 0 0-1.607-1.107 20.781 20.781 0 0 1-11.1-10.248c-.678-1.535-1.571-2.678-2.749.536a17.638 17.638 0 0 1-6.927 7.141 18.138 18.138 0 0 1-16.6 1.535c-6.284-2.285-13.282-10.712-12.39-17.853a23.887 23.887 0 0 1 4.82-12.675c6.641-8.676 22.244-8.748 28.314 0 .928 1.357 2.571 2.428 2.964 3.892.75 2.964 1.75 1.143 2.428.25a38.916 38.916 0 0 1 3.106-4.642c1.964-1.857 4.392-3.213 6.5-4.927 1.071-.893 2.856-1.25-.357-2.856a18.1 18.1 0 0 1-9.6-16.139 19.531 19.531 0 0 1 14.068-19.6c.893-.25 1.75-.714 2.642-1.035-.821-.821-1.785-2.392-2.428-2.249-4.356.75-6.141-2.714-8.212-5.106a18.46 18.46 0 0 1 0-24.458c4.856-6 13.033-8.962 23.066-4.642a13.461 13.461 0 0 1 8.426 9.676 20.282 20.282 0 0 0 1.714 4.427c0 .393.678.607 1.035.893a3.857 3.857 0 0 0 .607-1.428 14.282 14.282 0 0 1 6.713-10.89 18.353 18.353 0 0 1 11.735-4.358 20.388 20.388 0 0 1 17.6 10c1.464 2.535 1.678 2.464 3.392 0a16.1 16.1 0 0 1 12.1-8.427c.5 0 1.25-1.071 1.25-1.642s-.786-1.607-1.25-1.642c-5.677-.25-8.5-4.677-10.39-8.641a17.853 17.853 0 0 1-1-14.282 19.245 19.245 0 0 1 9.748-11.5 18.21 18.21 0 0 1 17.246.25 12.64 12.64 0 0 1 8.105 10.069 2.035 2.035 0 0 0 1.357 1.535 2.642 2.642 0 0 0 1.964-1c1.357-1.678 2.535-3.571 3.82-5.249 7.141-9.6 24.994-7.57 30.635 5.57a18.567 18.567 0 0 1-2.277 19.174c-1.714 1.892-3.356 4.677-5.5 5.213-3.785.964-2.285 2.357-.571 3.178a16.175 16.175 0 0 1 9.962 13.247c0 .464.536.928.786 1.357a7.575 7.575 0 0 0 .893-1.285c2.642-6.713 6.641-11.854 14.568-12.39a4.856 4.856 0 0 1 6.106-1.571 74.979 74.979 0 0 1 10.712 4.856 8.141 8.141 0 0 1 2.428 2.392c1.642 2 3.249 4.07 4.856 6.106a51.173 51.173 0 0 1 4.285-5.927c8.426-8.641 18.5-8 27.636.286 6.07 5.5 6.106 18.888 1.678 23.423-3.249 3.356-6.213 7.141-11.211 8.177-.393 0-.714.607-1.071.928a5.355 5.355 0 0 0 1.428.714 16.139 16.139 0 0 1 13.925 13.925 5.534 5.534 0 0 0 1.321 2.035c.357.428.786.785 1.214 1.214a6 6 0 0 0 .821-1.357 41.2 41.2 0 0 1 1.785-5.249 16.032 16.032 0 0 1 15.5-9.069 15.246 15.246 0 0 1 15.318 9c4.535 10 2.107 19.959-8.676 24.708a17.46 17.46 0 0 1-23.78-12.283c-.214-.786-.536-1.5-.821-2.249-.786.786-1.892 1.428-2.357 2.392s-.571 3.214-1.357 4.57c-1.357 2.321-3.57 4.213-4.642 6.641s-6.606.964-3.928 4.463c1.357 1.785 4.535 3 6.213 5.142a29.346 29.346 0 0 1 3.57 6.248c.75 1.642.821 1.464 1.821 0a43.2 43.2 0 0 1 7.141-8.212c4.713-3.892 10.712-2.964 16.067-2.285s12.354 10.712 12.925 16.6c.928 8.962-3.356 14.854-10.462 19.1-2.214 1.285-2.178 2.142-.536 3.571s3.571 2.535 5.284 3.82c9.6 7.141 7.57 24.994-5.534 30.635a18.781 18.781 0 0 1-19.21-2.249c-.821-.786-1.571-1.678-2.428-2.428a20.352 20.352 0 0 1-5.463-8.891 48.311 48.311 0 0 1-4.32 8.712 14.282 14.282 0 0 1-9.283 6.463c-.428 0-.786.571-1.178.893a10.7 10.7 0 0 0 1.393.786 19.531 19.531 0 0 1 12.283 12.1c.5 1.285.571 1.214 1.678-.393a26.742 26.742 0 0 1 7.962-8.534c9.284-5.391 16.282-3.106 22.887 4.428a17.317 17.317 0 0 1 3.356 4.606c5.427 13.318-5.713 23.744-16.21 25.458a21.637 21.637 0 0 1-14.568-6.891 19.029 19.029 0 0 1-3.321-4.606c-1-3.142-.786-2.678-1.928 0a17.639 17.639 0 0 1-9.819 10.426c-1.321.5-2.856 1.892-.5 3.571 1.571 1.178 2.749 2.928 4.285 4.178 5.713 4.677 5.57 15.353 2.714 20.6a19.174 19.174 0 0 1-25.279 8.784 20.5 20.5 0 0 1-8.819-8.5c-1.178-2.107-1.642-1.821-2.392-.428a18.1 18.1 0 0 1-14.282 10.712c-.857 0-1.571 1.5-2.321 2.321l2.214.786a23.137 23.137 0 0 1 13.033 14.854 14.782 14.782 0 0 1-5.57 13.854c-2.535 2-3.892 5-7.927 5.82-7.641 1.5-11.6 1.321-16.674-4.106-2.392-2.5-6.177-4.035-5.891-8.748 0-1.892-1.75-.321-2 .286a23.672 23.672 0 0 1-6.748 8.355 18.174 18.174 0 0 1-19.888 2.214c-11.569-6.57-13.1-16.246-8.712-25.815a15.6 15.6 0 0 1 8.855-8.427c2.142-.75.678-1.714 0-2.107a22.1 22.1 0 0 1-10.212-10.212c-.321-.643-1.25-2.249-2.178-.25a14.639 14.639 0 0 1-12.5 9.176c-.393 0-.75.607-1.107.928a9.746 9.746 0 0 0 1.214 1.214c1.785 1.25 3.57 2.392 5.356 3.571 6.784 4.82 8.069 11.819 7.141 19.352-.857 5.677-9.355 14.568-16.21 14.282Zm76.481-36.491a2.571 2.571 0 0 0-.321-.75 1.249 1.249 0 0 0-.678-.464c-7.57-.428-11.176-5.713-14.282-11.64a33.901 33.901 0 0 1-.928-2 12.068 12.068 0 0 1-.821 2.25c-2.5 4.177-4.785 8.462-9.89 10.319-1.5.571-3.571 2.749.607 2.892 3.785 4.249 9.212 7.355 9.355 14.032 0 .428.571.821.857 1.25a7.921 7.921 0 0 0 .821-1.393 19.459 19.459 0 0 1 11.96-12.319 19.957 19.957 0 0 0 3.321-2.178ZM292.034 383.764c.357-.321.893-.571 1-.964a18.281 18.281 0 0 1 12.568-12.64c.393 0 .714-.607 1.071-.928-.5-.25-.928-.536-1.428-.75-6.32-2.607-11.176-6.5-12.211-13.818a5.679 5.679 0 0 0-.643-1.428c-.357.321-.893.536-1 .928a18.281 18.281 0 0 1-12.568 12.64c-.393 0-.714.607-1.071.928.464.25.928.536 1.428.75 6.32 2.607 11.176 6.5 12.211 13.818a5.249 5.249 0 0 0 .643 1.464Zm91.763 24.994a10.717 10.717 0 0 0-1.428-.75 19.46 19.46 0 0 1-12.176-12.1c-.178-.5-.464-.964-.678-1.428-.357.321-.893.536-1 .928a18.21 18.21 0 0 1-12.568 12.64c-.393 0-.714.607-1.071.928a10.713 10.713 0 0 0 1.428.75 19.46 19.46 0 0 1 12.176 12.1c0 .5.464.964.678 1.428.357-.321.893-.536 1-.928a18.21 18.21 0 0 1 12.568-12.636 7.285 7.285 0 0 0 1.071-1.036Zm-12.461-102.154c.214-.428.5-.893.678-1.357a19.424 19.424 0 0 1 12.142-12.176c.464 0 .928-.464 1.392-.678-.321-.357-.571-.893-.964-1a18.174 18.174 0 0 1-12.6-12.568c0-.428-.643-.714-.964-1.035a12.85 12.85 0 0 0-.714 1.393 19.424 19.424 0 0 1-12.14 12.176c-.464.178-.928.464-1.393.678.286.357.571.893.964 1a18.174 18.174 0 0 1 12.6 12.568c0 .392.535.677.999.999Zm-16.78-53.808a7.141 7.141 0 0 0 1.821.821c7.141.607 10.712 6 13.782 11.354a9.78 9.78 0 0 1 .75 2.249 18.607 18.607 0 0 1 1-1.857 58.59 58.59 0 0 1 5.106-7.141 47.278 47.278 0 0 1 5.82-4.32 2.428 2.428 0 0 0 .286-1.714 22.28 22.28 0 0 1-10.712-10.712c-.393-.678-1.25-2.214-2.142 0a12.927 12.927 0 0 1-1.464 2.785 21.888 21.888 0 0 1-12 8.034 3.716 3.716 0 0 0-2.247.501Zm144.177 119.113c-.214-.5-.286-1.285-.607-1.428a18.638 18.638 0 0 1-9.783-9.533c-.893-1.714-2.214-1.678-3.571.643a14.853 14.853 0 0 1-12.1 8.641c-.5 0-.928.464-1.393.714.357.321.714.857 1.107.928a16 16 0 0 1 9.855 7.141 37.958 37.958 0 0 1 3.749 8.177 21.959 21.959 0 0 1 4.856-8.248c2.321-1.892 3.57-5.034 7.141-5.534.389-.144.532-1.001.746-1.501Zm-193.7-81.373a8.351 8.351 0 0 0-1.071-.893 14.854 14.854 0 0 1-9.248-12.318 1.714 1.714 0 0 0-3.285 0c-.893 5.891-4.927 8.712-9.962 10.712a17.068 17.068 0 0 0-3.571 2.678 28.238 28.238 0 0 1 3.928.714 17.854 17.854 0 0 1 3.57 1.678c3.571 2.142 4.749 6.391 8.212 8.569 2.714-2.856 5.427-5.749 8.177-8.534a12.924 12.924 0 0 1 2.035-1.25 15.242 15.242 0 0 0 1.213-1.356Zm103.974 94.87c.214-.536.428-1 .607-1.5a21.1 21.1 0 0 1 11.5-12c.714-.321 1.464-.571 2.214-.857-.75-.286-1.5-.536-2.214-.857a32.777 32.777 0 0 1-3.571-1.714c-4.427-2.785-6.284-7.605-9.141-11.64a18.139 18.139 0 0 1-9.426 11.64c-.25 0-.714 0-.714.25 0 .964-.357 2.678 0 2.821a14.889 14.889 0 0 1 9.676 13.068c.032.289.675.539 1.068.789Zm53.558-14.282c-.25-.393-.464-.964-.786-1.071a18.138 18.138 0 0 1-12.747-12.533c0-.428-.607-.75-.928-1.107a10.462 10.462 0 0 0-.75 1.393 19.388 19.388 0 0 1-12.14 12.211 10.719 10.719 0 0 0-1.428.714l1.857 1a18.6 18.6 0 0 1 10.069 9.034c.786 1.928 2.142 1.785 3.321-.25a16.032 16.032 0 0 1 12.033-8.819 5.572 5.572 0 0 0 1.464-.357Zm-130.826-55.665c-.321.357-.821.678-.928 1.107a19.5 19.5 0 0 1-13.39 13c5.606 3.356 11.5 6.463 13.39 13.568a4.928 4.928 0 0 0 .821 1.357 14.281 14.281 0 0 0 .857-1.357c1.964-4.535 4.035-8.819 9.248-10.712 1.75-.643 1.678-2.178-.643-3.571a14.854 14.854 0 0 1-8.641-12.1 3.358 3.358 0 0 0-.714-1.292Zm14.282 53.558-1.5-.607a21.1 21.1 0 0 1-12.033-11.354c-.321-.714-.571-1.464-.857-2.214-.286.75-.536 1.5-.857 2.214a27.532 27.532 0 0 1-1.75 3.571c-2.749 4.427-7.57 6.284-11.6 9.141a18.138 18.138 0 0 1 11.64 9.426c0 .25 0 .714.25.714.964 0 2.678.357 2.821 0a14.889 14.889 0 0 1 13.068-9.676c.286-.107.536-.75.785-1.143Zm-4.927 78.373c0-.5-.214-1.321-.536-1.464a15 15 0 0 1-9.783-12.961c0-.357-.643-.643-.964-1a13.319 13.319 0 0 0-.714 1.428 21.423 21.423 0 0 1-11.319 12.211 16.591 16.591 0 0 1-2.249.75c.643.321 1.285.678 1.964.964a21.424 21.424 0 0 1 11.676 11.854 9 9 0 0 0 1.071 1.607l.607-1.464a16.531 16.531 0 0 1 9.569-10.5c.286-.107.393-.893.643-1.357ZM448.21 346.38a19.275 19.275 0 0 1 .786-2.321 18.923 18.923 0 0 1 9.1-10.033c1.964-.786 1.892-2.214-.357-3.392a15.139 15.139 0 0 1-8.784-12 4.535 4.535 0 0 0-.607-1.428c-.357.286-.928.5-1.035.857a18.139 18.139 0 0 1-12.6 12.675c-.393 0-.678.643-1 .964a10.708 10.708 0 0 0 1.428.714 19.388 19.388 0 0 1 12.14 12.211 18.2 18.2 0 0 0 .964 1.714Zm-41.025 116.11a13.37 13.37 0 0 0 .678-1.464 19.317 19.317 0 0 1 12.283-12.069 7.925 7.925 0 0 0 1.393-.821 10 10 0 0 0-1.25-.893 16.781 16.781 0 0 1-10.712-9.176c-.75-1.857-2.214-1.821-3.571.5a15.1 15.1 0 0 1-12.068 8.712 4.32 4.32 0 0 0-1.428.678c.321.321.607.857 1 .964a18.067 18.067 0 0 1 12.6 12.675c.214.428.928.678 1.107.964Zm2.071-142.5c-.571.821-1.035 1.393-1.392 2a15.746 15.746 0 0 1-12.068 8.748 4.534 4.534 0 0 0-1.428.607c.286.357.5.928.857 1.035a18.067 18.067 0 0 1 12.675 12.6c0 .393.643.678.964 1a13.316 13.316 0 0 0 .714-1.428 21.423 21.423 0 0 1 11.354-12.14 16.6 16.6 0 0 1 2.249-.75c-.643-.321-1.321-.607-1.964-.964-4.07-2.249-8.284-4.249-9.962-9.141-.179-.5-1.107-.857-1.964-1.5Zm40.633-38.848c-.393.393-.964.75-1.178 1.214a21.71 21.71 0 0 1-10.176 10.212c-.607.321-2.321 1.285-.321 2.178a14.854 14.854 0 0 1 9.141 12.318c0 .464.571.857.857 1.285a4.428 4.428 0 0 0 .786-1.357 13.461 13.461 0 0 1 5.927-8.605 70.625 70.625 0 0 1 9.248-4.82 19.924 19.924 0 0 1-9.462-6.034c-1.321-1.714-2.607-3.571-3.892-5.213ZM305.067 446.32l-1.357-.857a42.31 42.31 0 0 1-6.855-4.07c-1.964-1.714-3.071-5.427-5.07-5.891-2.714-.607-2.749 3.963-5.142 5.32s-4.427 3.106-6.641 4.642h-.857c-1.5.321-1.928.714-.321 1.75a55.486 55.486 0 0 1 5.284 3.856 16.96 16.96 0 0 1 6.034 11.176c2.249-3.571 2.571-8.534 6.677-11.069 2.249-1.393 4.606-2.678 6.891-4Zm152.926 2.035-2.107-1.178a15.746 15.746 0 0 1-8.605-12.211c0-.5-.464-.928-.714-1.393a9.32 9.32 0 0 0-.964 1.107 40.7 40.7 0 0 1-3.963 6.891c-5.749 6.606-5.784 6.463 0 12.783 1.785 2 3.249 4.356 4.856 6.534a51.824 51.824 0 0 1 4.927-6.5c1.464-1.464 2.357-4 5.213-3.892.393.178.785-1.036 1.357-2ZM307.066 329.884c-.893-.357-1.571-.536-2.214-.821a23.815 23.815 0 0 1-10-8.105c-1.714-2.464-1.714-2.428-3.571 0-.643.857-1.393 1.714-2.107 2.5-5.463 5.856-5.284 5.749-.428 12.64a34.922 34.922 0 0 1 3.035 8.034c1.607-2.5 3-5.142 4.82-7.462a15.6 15.6 0 0 1 8.569-5.891 11.568 11.568 0 0 0 1.896-.895Zm64.27 12.89c.25-.571.464-1.071.714-1.535a17.5 17.5 0 0 1 13.282-9.176c-4.713-3.106-10.462-5.106-12.426-11.247a16.64 16.64 0 0 0-1-2.142c-.25-.464-.5-.928-.786-1.393-.286.393-.75.714-.893 1.143a16.853 16.853 0 0 1-9.6 11.069c-.321 0-.25 2.571 0 2.678a15.889 15.889 0 0 1 8.891 8.962c.283.641 1.068 1.034 1.818 1.641Zm75.731 56.486a7.714 7.714 0 0 0-1.285 1.535 14.568 14.568 0 0 1-7.355 7.141c-2.571 1.143-2.357 1.75 0 3.892a19.531 19.531 0 0 1 7.891 13.068c2.678-4.142 4.642-8.855 9.033-11.676a24.609 24.609 0 0 1 3.571-1.75c.714-.321 1.5-.5 2.249-.786l-2-.928c-4.356-2.249-8.6-4.606-10.283-9.712-.321-.464-1.143-.536-1.964-.857Zm-116.364-1.57c-.464.25-1.071.357-1.357.75a20.638 20.638 0 0 1-2.464 4.035c-2.392 2.178-5.07 4.035-7.641 6.034a58.837 58.837 0 0 1 7.534 6.677 21.994 21.994 0 0 1 2.428 6.605c0 .464.428.928.678 1.428.321-.321.893-.536 1-.893a18.281 18.281 0 0 1 12.426-12.64 9.208 9.208 0 0 0 1.321-.857 14.294 14.294 0 0 0-1.357-.857 17.281 17.281 0 0 1-11.212-9.89c0-.286-.964-.321-1.5-.464Zm78.159-3.571c-.286.464-.571.928-.821 1.393-1.143 2.071-2.142 4.213-3.392 6.213-2.357 3.571-6.784 4.677-10.069 7.141a22.173 22.173 0 0 1 10.712 7.141c.643.786.607 2.178 1.285 2.785a4.177 4.177 0 0 0 2.714.464 18.817 18.817 0 0 1 9.6-9.462c.714-.464 2.071-1.214 0-2.142a14.461 14.461 0 0 1-9.1-12.39 5.708 5.708 0 0 1-1.071-1.035Zm12.461-102.154c-.5-.214-1.035-.357-1.5-.607a15.925 15.925 0 0 1-8.569-12.1 4.536 4.536 0 0 0-.643-1.428c-.321.607-.785 1.143-1.035 1.75a21.423 21.423 0 0 1-11.533 11.783c-.714.321-1.428.571-2.178.857a20.345 20.345 0 0 1 2.214.857 38.706 38.706 0 0 1 5.392 3.285c6.106 5.142 6.034 5.142 12.533-.286 1.428-1.178 3.142-2 4.677-3.035a1.555 1.555 0 0 0 .643-1.076ZM303.496 407.044a6.713 6.713 0 0 1-2.214-.75 17.389 17.389 0 0 1-8.248-11.569 6.819 6.819 0 0 0-.893-2.035 11.389 11.389 0 0 1-.821 2.178 48.73 48.73 0 0 1-3.356 5.392 20.923 20.923 0 0 1-10 6.606c3.285 2.464 7.57 3.571 9.926 7.141a35.712 35.712 0 0 0 1.857 3.571c1.035 1.285 2.678 1.393 3.249-.25a15 15 0 0 1 8.462-8.248c.753-.572 1.217-1.358 2.038-2.036Zm65.769 26.779c-.25.464-.571.893-.786 1.393-2.071 4.392-4.035 8.712-9.176 10.712-1.821.678-1.857 2.285.464 3.571a12.818 12.818 0 0 1 7.141 7.5c.75 2.142 1.857 1.75 4.035-.5 3.178-3.321 6.106-7.141 11.461-7.141.464 0 .928-.428 1.393-.678-.321-.321-.607-.857-1-.964a18.317 18.317 0 0 1-12.6-12.5 3.962 3.962 0 0 0-.928-1.535Zm11.212-63.056c0-.536 0-1.428-.321-1.535a18.531 18.531 0 0 1-9.5-9.5c-.393-.643-1.285-2.249-2.178-.286a14.711 14.711 0 0 1-12.318 9.212c-.464 0-.893.5-1.357.786.428.286.786.75 1.25.857a19.781 19.781 0 0 1 12.427 11.789 14.569 14.569 0 0 0 1.036 1.785 7.892 7.892 0 0 1 .714-2.249c2.571-3.571 4.213-8.319 9.319-9.6.393-.25.643-.964.928-1.392Zm-48.417-64.2c.214-.536.428-1.035.607-1.535a19.531 19.531 0 0 1 12.211-11.961 10.458 10.458 0 0 0 1.392-.75c-.357-.321-.678-.785-1.071-.928a16.6 16.6 0 0 1-11.212-9.712c0-.321-2.571-.25-2.678 0a16.282 16.282 0 0 1-8.962 8.926c-.571.286-.928 2.214-.893 2.249a14.282 14.282 0 0 1 9.533 12.925c-.141.323.538.537 1.069.787Z"/><path class="a" d="M250.224 424.896c0 10.926-6.32 17.424-17.067 17.424s-17.21-6.356-17.21-17.282a15.746 15.746 0 0 1 16.639-17c11.032-.173 17.602 6.147 17.638 16.858ZM234.763 291.357c10.712 0 17.174 6.427 17.174 17.317s-6.57 17-17.531 16.96a15.782 15.782 0 0 1-16.6-16.889c-.003-10.925 6.21-17.388 16.957-17.388ZM430.501 217.804c10.712 0 16.71 6.606 16.889 17.674a15.71 15.71 0 0 1-4.57 11.783 16.424 16.424 0 0 1-13.39 4.892 15.925 15.925 0 0 1-16.389-17.317c0-10.855 6.498-17.032 17.46-17.032ZM330.775 232.693c0 10.962-6.284 17.531-16.96 17.531s-17.139-6.356-17.46-17.174a15.639 15.639 0 0 1 4.856-12.533 15.282 15.282 0 0 1 11.747-4.642c11.176.179 17.782 6.249 17.817 16.818ZM443.89 661.445a17 17 0 0 1 17.46-17 16.71 16.71 0 0 1 16.746 17.638 16.425 16.425 0 0 1-16.96 16.532 16.853 16.853 0 0 1-17.246-17.174ZM95.976 423.539a16.96 16.96 0 1 1-4.852-12.237 16.96 16.96 0 0 1 4.852 12.237ZM644.412 316.851a16.96 16.96 0 1 1 4.918 12.268 16.96 16.96 0 0 1-4.915-12.265ZM642.698 200.272a16.853 16.853 0 0 1-17.1 17.317 17.07 17.07 0 0 1-.5-34.135 16.889 16.889 0 0 1 17.6 16.817ZM217.804 114.261a17.15 17.15 0 1 1-17.764-16.517 17.15 17.15 0 0 1 17.764 16.517ZM80.338 323.921a16.96 16.96 0 0 1-16.889-17.567 16.567 16.567 0 0 1 17.853-16.6 16.389 16.389 0 0 1 16.424 17.029 16.889 16.889 0 0 1-17.389 17.139ZM306.746 642.699a17.067 17.067 0 0 1 17.174 17.317 16.853 16.853 0 0 1-17.5 16.889 16.46 16.46 0 0 1-16.71-16.817 16.853 16.853 0 0 1 17.036-17.389ZM316.957 95.976a17 17 0 0 1-17.035-17.424 16.71 16.71 0 0 1 17.853-16.782 16.425 16.425 0 0 1 16.532 16.96 16.853 16.853 0 0 1-17.353 17.246ZM355.09 61.699a16.889 16.889 0 0 1 16.746 17.674 16.353 16.353 0 0 1-17.853 16.46c-9.641-.821-15.889-5.856-16.353-17.1a16.782 16.782 0 0 1 17.46-17.032ZM394.402 61.699a16.96 16.96 0 0 1 16.889 17.568 16.639 16.639 0 0 1-17.853 16.6 16.46 16.46 0 0 1-16.46-17.032 16.924 16.924 0 0 1 17.424-17.139ZM450.745 80.301a16.853 16.853 0 0 1-17.103 17.315 16.353 16.353 0 0 1-17.067-16.386 16.5 16.5 0 0 1 16.567-17.853 16.889 16.889 0 0 1 17.6 16.924ZM488.45 80.731a17 17 0 0 1-17.534 16.924 16.6 16.6 0 0 1-16.636-17.853 16.46 16.46 0 0 1 17.036-16.353 16.889 16.889 0 0 1 17.139 17.281ZM132.11 540.189a17.147 17.147 0 1 1-16.6-17.674 17.147 17.147 0 0 1 16.6 17.674ZM618.847 565.577a16.889 16.889 0 0 1-17.21-17.21 16.389 16.389 0 0 1 16.5-16.96 16.639 16.639 0 0 1 17.674 16.675 17 17 0 0 1-16.96 17.5ZM152.605 562.149a17 17 0 0 1 17.031 17.424 16.71 16.71 0 0 1-17.6 16.781 16.425 16.425 0 0 1-16.567-16.924 16.853 16.853 0 0 1 17.139-17.282ZM675.261 470.885a17.151 17.151 0 1 1-17.781-16.5 17.151 17.151 0 0 1 17.781 16.5ZM661.443 294.785a17 17 0 0 1-17-17.46 16.71 16.71 0 0 1 17.638-16.675 16.424 16.424 0 0 1 16.532 16.96 16.853 16.853 0 0 1-17.174 17.174ZM406.185 661.339a16.96 16.96 0 1 1 4.9 12.288 16.96 16.96 0 0 1-4.9-12.288ZM579.035 603.424a16.96 16.96 0 0 1-16.853-17.6 16.567 16.567 0 0 1 17.853-16.567 16.389 16.389 0 0 1 16.424 17.067 16.889 16.889 0 0 1-17.424 17.1ZM207.377 618.921a16.96 16.96 0 0 1-17.567 16.889 16.567 16.567 0 0 1-16.6-17.853 16.389 16.389 0 0 1 17.064-16.425 16.889 16.889 0 0 1 17.1 17.389ZM548.614 104.546a17 17 0 0 1 16.924 17.531 16.639 16.639 0 0 1-17.853 16.639 16.46 16.46 0 0 1-16.5-17 16.924 16.924 0 0 1 17.429-17.17ZM522.725 625.348a16.96 16.96 0 1 1 4.9 12.288 16.96 16.96 0 0 1-4.9-12.288ZM95.978 346.348a17 17 0 0 1-17.424 16.96 16.71 16.71 0 0 1-16.746-17.639 16.425 16.425 0 0 1 16.96-16.532 16.853 16.853 0 0 1 17.21 17.211ZM178.237 152.891a17.148 17.148 0 1 1-16.567-17.71 17.148 17.148 0 0 1 16.567 17.71ZM250.223 658.125a17.032 17.032 0 0 1 17.317-17.1 16.746 16.746 0 0 1 16.889 17.5 16.5 16.5 0 0 1-16.853 16.665 16.925 16.925 0 0 1-17.353-17.065ZM121.648 173.1a17.067 17.067 0 0 1 17.175 17.32 16.853 16.853 0 0 1-17.425 16.886 16.46 16.46 0 0 1-16.71-16.817 16.853 16.853 0 0 1 16.96-17.389ZM603.422 161.103a17.032 17.032 0 0 1-17.317 17.1 16.746 16.746 0 0 1-16.889-17.5 16.5 16.5 0 0 1 16.853-16.675 16.925 16.925 0 0 1 17.353 17.067ZM676.976 433.822a16.96 16.96 0 1 1-4.9-12.288 16.96 16.96 0 0 1 4.9 12.288ZM277.467 59.985a18.817 18.817 0 0 1 17.317 16.532 18.71 18.71 0 0 1-16.96 17.853 18.817 18.817 0 0 1-17.174-16.639 18.71 18.71 0 0 1 16.817-17.746ZM94.262 461.459a18.638 18.638 0 0 1-17.852 16.713c-8.034 0-16.425-9.212-16.317-17.567a18.638 18.638 0 0 1 17.853-16.71c8.033.177 16.424 9.209 16.316 17.564ZM97.69 267.045a18.817 18.817 0 0 1-16.425 17.46 18.638 18.638 0 0 1-17.852-16.82 18.817 18.817 0 0 1 16.425-17.46 18.638 18.638 0 0 1 17.852 16.82ZM237.834 97.69a18.745 18.745 0 0 1 17.534 16.317 18.674 18.674 0 0 1-16.749 17.853 18.745 18.745 0 0 1-17.531-16.317 18.674 18.674 0 0 1 16.746-17.853ZM659.801 377.051a17.139 17.139 0 1 1-17.106 16.746 18.817 18.817 0 0 1 17.1-16.746ZM678.689 355.021a18.71 18.71 0 0 1-17.853 16.889 18.924 18.924 0 0 1-16.46-17.389 18.71 18.71 0 0 1 17.853-16.889 18.924 18.924 0 0 1 16.46 17.389ZM78.552 401.045a17.142 17.142 0 1 1 17.46-16.817 17.142 17.142 0 0 1-17.46 16.817ZM384.333 644.414a18.674 18.674 0 0 1 16.713 17.853c0 8-9.212 16.389-17.567 16.282a18.674 18.674 0 0 1-16.71-17.853c.177-7.999 9.209-16.389 17.564-16.282ZM346.628 676.977c-8.355 0-17.389-8.284-17.567-16.318a18.638 18.638 0 0 1 16.71-17.853c8.355 0 17.389 8.284 17.567 16.318a18.638 18.638 0 0 1-16.71 17.853ZM132.11 500.307a19.245 19.245 0 0 1-16.71 17.424c-8.177.393-17.567-8.605-17.853-17a19.245 19.245 0 0 1 16.71-17.424c8.177-.389 17.57 8.609 17.853 17ZM137.109 229.908c-.286 8.427-9.676 17.353-17.853 16.889s-16.71-9.569-16.46-17.389c.286-8.427 9.676-17.353 17.853-16.889s16.71 9.568 16.46 17.389ZM510.588 137.109c-8.355 0-17.5-9.355-17.139-17.567a19.21 19.21 0 0 1 17.139-16.71c8.355 0 17.5 9.355 17.139 17.567a19.21 19.21 0 0 1-17.139 16.71ZM247.046 618.777c-2.785 3.785-2.535 8.534-5.927 11.711a15.925 15.925 0 0 1-23.53-.607c-3-3.392-3.142-7.855-5.07-11.6 2.535-3.571 2.249-8.177 5.677-11.354a17.5 17.5 0 0 1 11.461-4.892 14.6 14.6 0 0 1 11.926 5.606 91.727 91.727 0 0 1 5.463 11.136ZM623.845 220.946c4.035 2.5 9.069 2.357 12.176 6.284a45.523 45.523 0 0 1 4.963 11.6c-2.607 3.571-2.071 9.283-6.5 11.783-3.571 1.928-7.462 4.82-10.712 4.32a17.853 17.853 0 0 1-12.034-5.708 45.522 45.522 0 0 1-4.963-11.6c2.606-3.571 2.107-9.248 6.5-11.783a113.9 113.9 0 0 1 10.569-4.892ZM500.662 608.423c10.5 0 15.246 4.963 15.211 15.853 0 10.355-5.07 15.032-16.067 15-9.819 0-14.782-5.213-14.782-15.425s4.998-15.464 15.638-15.428ZM618.561 526.157c-10.712 0-15.318-4.927-15.282-15.782s5-15.1 16-15.068q14.853 0 14.853 15.353c-.003 10.641-5.002 15.497-15.571 15.497ZM673.549 511.587c0 10.033-5.32 14.675-16.5 14.568-9.676 0-14.282-5.32-14.282-15.853s5.07-15.032 16.067-15c10.071.041 14.785 5.254 14.715 16.285ZM515.873 663.481c0 10.5-4.963 15.246-15.853 15.211-10.355 0-15.032-5.07-15-16.068 0-9.819 5.213-14.782 15.425-14.782s15.463 4.999 15.428 15.639ZM229.729 673.267c-5.106 2.035-8.891-1.428-11.711-4.178a16.746 16.746 0 0 1 0-22.173 16.924 16.924 0 0 1 11.783-4.535 15.318 15.318 0 0 1 15.425 15.5 16.567 16.567 0 0 1-4 11.14c-2.678 2.672-6.356 6.346-11.497 4.246ZM663.729 224.731c5-1.75 7.427 2.035 10.712 4.749a14.64 14.64 0 0 1 4.5 11.033c.678 5.641-3.571 7.748-5.927 11.319-2.821 4.178-6.748 3-10.5 3.571-5.249.928-7.391-2.892-10.712-5.392a12.247 12.247 0 0 1-4.177-10.319 13.068 13.068 0 0 1 5-10.712c3.213-3.25 6.319-5.57 11.104-4.249ZM174.957 192.061a15.428 15.428 0 1 1-15.1-15.746 15.428 15.428 0 0 1 15.1 15.746ZM240.262 61.699a15.434 15.434 0 0 1-1.071 30.85 15.925 15.925 0 0 1-14.675-15.53 15.71 15.71 0 0 1 15.746-15.32ZM563.861 159.39a15.425 15.425 0 1 1-15.639-15.425 15.746 15.746 0 0 1 15.639 15.425ZM214.233 155.105c0 7.141-8.641 15.353-16.5 14.782-6.32-.464-15.282-9.176-14.532-16.1a16.425 16.425 0 0 1 16.25-14.964 15.925 15.925 0 0 1 14.782 16.282ZM97.69 229.586a15.425 15.425 0 1 1-15.569-15.353 15.818 15.818 0 0 1 15.569 15.353ZM510.874 95.977a15.818 15.818 0 0 1-15.568-15.493 15.925 15.925 0 0 1 14.853-15.353 15.43 15.43 0 0 1 .714 30.85ZM92.549 500.556a15.428 15.428 0 1 1-30.85-.607 15.889 15.889 0 0 1 15.318-14.925 15.817 15.817 0 0 1 15.532 15.532ZM570.68 198.38a27.492 27.492 0 0 1 3.928-9.6 18.138 18.138 0 0 1 11.461-5.356 44.131 44.131 0 0 1 9.6 3.571 15.1 15.1 0 0 1 5.749 11.247c.964 7.927-6.534 15.71-14.782 16.1a16.21 16.21 0 0 1-15.96-15.96ZM207.699 579.394c-1.714 3.963-1.964 8.319-5.677 11.426a16.424 16.424 0 0 1-10.355 3.749 15.568 15.568 0 0 1-15.139-15.782 16.139 16.139 0 0 1 15.282-14.925 25.209 25.209 0 0 1 10.712 4.642c3.713 2.785 3.642 7.069 5.177 10.89ZM169.994 539.832c-1.571 3.785-1.678 7.855-5.034 10.89a16 16 0 0 1-10.926 4.5 15.353 15.353 0 0 1 0-30.671 16.067 16.067 0 0 1 10.926 4.427c3.32 3.034 3.463 7.141 5.034 10.854ZM579.143 564.148a34.458 34.458 0 0 1-10.5-5.249 14.282 14.282 0 0 1 .428-21.138 17.317 17.317 0 0 1 10.712-4.32 14.961 14.961 0 0 1 9.819 4.427 16.246 16.246 0 0 1 4.677 10.533 14.282 14.282 0 0 1-4.427 10.712 57.127 57.127 0 0 1-10.709 5.035ZM555.47 586.357c-1.785 3.571-2.714 8.069-5.392 10.712a14.282 14.282 0 0 1-21.138-.75 16.21 16.21 0 0 1-4.142-10.712 17.246 17.246 0 0 1 5.177-10.39 14.818 14.818 0 0 1 9.962-4 17.281 17.281 0 0 1 10.712 4.749 34.776 34.776 0 0 1 4.82 10.39ZM464.884 522.591a18.674 18.674 0 0 1-12.533-7.82c-1.571-2.392-3.571-5.641-3.035-7.962a22.031 22.031 0 0 1 7.141-11.533c2.464-2.142 5.784-1.25 8.034-3.57a20.637 20.637 0 0 1 12 7.962c1.5 2.392 3.571 5.641 3 7.962a22.959 22.959 0 0 1-7.141 11.533c-2.467 2.495-6.037.928-7.466 3.428ZM120.399 253.51c1.464 2.749 5.106 1.143 7.57 3.571a33.813 33.813 0 0 1 7.427 11.529c-1.857 2.642-1.393 6.07-3.749 8.748a26.815 26.815 0 0 1-11.64 7.141c-2.142-2.285-5.534-1.214-8.034-3.571a32.135 32.135 0 0 1-7.427-11.5c1.857-2.642 1.393-6.07 3.785-8.748a24.994 24.994 0 0 1 12.068-7.17ZM278.289 132.111c-2.571-.75-5.534-.786-7.141-2.285-2.892-3.071-8.034-4.892-7.391-10.5-4.106-3 1.5-5.82 0-8.748a24.994 24.994 0 0 1 12.5-8.962c1.035-.214 2.321.857 3.57 1.25 7.141 2.392 9 4.249 11.283 11.247 4.213 2.392.25 4.927 0 7.141-.828 4.284-8.822 10.393-12.821 10.857ZM517.229 469.171a10.14 10.14 0 0 1-3.213 10.283 12.6 12.6 0 0 1-10.5 3.963 13.068 13.068 0 0 1-9.676-3.821c-3.571-3.071-3.571-6.606-3.785-10.712a11.461 11.461 0 0 1 4.035-9.569 11.676 11.676 0 0 1 9.712-3.571 11.533 11.533 0 0 1 9.748 3.571c2.786 3.143 5.75 5.75 3.679 9.856ZM397.258 699.293c1.535 4.57-1.071 7.141-3.571 10-3 3.856-6.641 3.392-10.712 3.785a12.782 12.782 0 0 1-9.569-4c-4-3.071-3.142-6.82-3.571-10.712a11.462 11.462 0 0 1 4.177-9.5 12.033 12.033 0 0 1 9.819-3.571 11.426 11.426 0 0 1 9.676 3.785c3.216 3.251 5.537 6.107 3.751 10.213ZM268.326 633.988c-3.856 1.321-6.284-1.285-9.283-3.571-3.856-3-3.571-6.641-3.785-10.712a12.783 12.783 0 0 1 4-9.569c3.071-3.963 6.82-3.142 10.712-3.571a11.354 11.354 0 0 1 9.5 4.178 12.033 12.033 0 0 1 3.571 9.819 12.568 12.568 0 0 1-3.575 9.709 11.247 11.247 0 0 1-11.14 3.717ZM130.111 463.494c1.321 3.856-1.285 6.284-3.571 9.283-3 3.856-6.641 3.571-10.712 3.785a12.782 12.782 0 0 1-9.569-4c-3.963-3.071-3.142-6.82-3.571-10.712a11.39 11.39 0 0 1 4.428-9.462 12 12 0 0 1 9.819-3.571 12.568 12.568 0 0 1 9.712 3.571 11.247 11.247 0 0 1 3.463 11.1ZM685.545 355.734c-1.321-3.856 1.285-6.284 3.571-9.283 3-3.856 6.641-3.571 10.712-3.785a12.783 12.783 0 0 1 9.569 4c3.963 3.071 3.142 6.82 3.57 10.712a11.354 11.354 0 0 1-4.177 9.5 12 12 0 0 1-9.819 3.571 12.568 12.568 0 0 1-9.712-3.571 11.247 11.247 0 0 1-3.714-11.144ZM623.346 291.215c-3.892 1.178-6.427-1.107-9.462-3.571-3.571-3-3.571-6.534-3.856-10.533a12.711 12.711 0 0 1 3.928-9.6c3.071-3.82 6.713-3.285 10.712-3.571a11.39 11.39 0 0 1 9.533 4.142 11.747 11.747 0 0 1 3.571 9.748 12.6 12.6 0 0 1-3.571 9.748 10.926 10.926 0 0 1-10.854 3.642ZM471.311 133.328c-4.57 1.535-7.141-1.071-10-3.571-3.856-3-3.392-6.641-3.785-10.712a12.783 12.783 0 0 1 4-9.569c3.071-3.963 6.82-3.142 10.712-3.571a11.354 11.354 0 0 1 9.5 4.178 12.033 12.033 0 0 1 3.57 9.819 11.426 11.426 0 0 1-3.785 9.676c-3.285 3.211-6.141 5.532-10.212 3.75ZM592.996 625.561a13.711 13.711 0 1 1-13.922-13.711 13.1 13.1 0 0 1 13.925 13.711ZM449.031 622.991a13.726 13.726 0 1 1 27.422 1.285c0 8.07-5.891 13.1-14.282 13.39-6.391.213-14.496-6.928-13.14-14.675ZM483.309 236.228a13.711 13.711 0 1 1-14.282-13.425 13.14 13.14 0 0 1 14.282 13.425ZM521.014 276.147a13.711 13.711 0 1 1-13.711-13.925 13 13 0 0 1 13.711 13.925ZM152.534 632.417a13.711 13.711 0 1 1 13.71-13.925 13.1 13.1 0 0 1-13.71 13.925ZM604.993 587.784a13.714 13.714 0 1 1 13.425 14 13.714 13.714 0 0 1-13.425-14ZM246.797 464.673a13.711 13.711 0 1 1-13.711-13.925 13 13 0 0 1 13.711 13.925ZM128.539 579.358a13.14 13.14 0 0 1-14 13.64 13.711 13.711 0 0 1 0-27.422 13.068 13.068 0 0 1 14 13.782ZM712.967 394.403a13.711 13.711 0 1 1-13.711-13.925 13 13 0 0 1 13.71 13.925ZM639.128 161.032a13.711 13.711 0 1 1-14-13.64 13.068 13.068 0 0 1 14 13.64ZM634.129 471.313a13.711 13.711 0 1 1-14-13.639 13.068 13.068 0 0 1 14 13.639ZM358.197 699.472a13.711 13.711 0 1 1-13.711-13.925 13 13 0 0 1 13.711 13.925ZM271.147 517.73a13.461 13.461 0 0 1-14.283-13.568 14.068 14.068 0 0 1 13.069-13.925c8.462 0 14.282 5.249 14.5 13.211a13.033 13.033 0 0 1-13.282 14.282ZM587.962 135.034c-4.963 2.392-6.534-3.571-10.355-3.892-.179-3.571-4.249-5.284-3.571-9.712a15.389 15.389 0 0 1 14.283-13.456c6.427 0 12.6 7.141 13.5 13.461.607 4.427-3.571 6.141-3.571 9.712-4.002.393-5.536 6.463-10.286 3.887ZM275.61 247.332a32.384 32.384 0 0 1-9.75-5.106 14.6 14.6 0 0 1-3.392-9.5 13 13 0 0 1 3.856-9.212c2.714-2 6.106-5.034 10.14-4.035a14.068 14.068 0 0 1 13.247 13.532 17.067 17.067 0 0 1-4.535 10.033c-1.782 2.36-6.067 2.86-9.566 4.288ZM408.434 40.954a32.885 32.885 0 0 1-4.677 9.89 20.316 20.316 0 0 1-9.391 3.928c-3.57.964-6.784-2.107-9.426-3.749s-3.571-5.784-4.356-9.069c-1.107-4.035 1.857-7.462 3.82-10.247a16.639 16.639 0 0 1 9.176-4.178c4-1 7.391 2 10.176 3.963s3.072 5.963 4.678 9.462ZM236.155 284.502c-6.034-.25-13.711-8.462-13.354-14.282s8.712-13.6 14.5-13.14 13.03 8.391 12.922 13.854c-.107 5.999-8.212 13.818-14.068 13.568ZM174.957 114.436c.286 5.82-7.534 13.961-13.532 14.282-5.392 0-13.39-7.141-13.889-12.89s7.141-14.282 13.1-14.532 13.892 7.07 14.321 13.14ZM41.347 330.777c6 0 13.782 8.319 13.5 14.282s-8.537 13.675-14.281 13.282a17.281 17.281 0 0 1-13.1-13.711c-.187-6.141 8.775-14.46 13.881-13.853ZM117.827 320.493c-6.034-.25-13.711-8.462-13.354-14.282s8.712-13.6 14.5-13.14 13.14 8.391 13.14 14c-.253 5.853-8.358 13.672-14.286 13.422ZM306.674 711.255c-6.034 0-13.854-8.177-13.6-14.032s8.462-13.925 14.282-13.318a16.5 16.5 0 0 1 13.172 13.536c.321 5.673-8.391 14.242-13.854 13.814ZM356.804 25.705c6 .214 13.711 8.427 13.39 14.282s-8.676 13.6-14.461 13.175-12.961-8.352-12.961-13.886 8.141-13.782 14.032-13.571ZM53.13 383.513c.25 5.82-7.57 13.961-13.532 14.282-5.427 0-13.39-7.141-13.889-12.89s7.141-14.282 13.1-14.532 14.035 7.106 14.321 13.14ZM135.395 152.141c.25 5.82-7.57 13.961-13.532 14.282s-13.39-7.141-13.889-12.89 7.141-14.282 13.1-14.532 14.035 7.106 14.321 13.14ZM713.145 433.537c-2.285 3.571-2.214 8.391-6.32 10.462-2.571 1.285-5.677 3.571-7.891 3-3.571-.964-8.141-1.928-10.212-6-1.285-2.535-3.571-5.749-2.856-7.927a18.174 18.174 0 0 1 5.392-9.748c2.535-2.071 5.891-1.071 8-3.571 3.178 1.857 6.927 2.249 9.819 5.213s1.462 6.5 4.068 8.571ZM445.782 118.185c-2.285 3.571-2.214 8.391-6.32 10.462-2.571 1.285-5.677 3.571-7.891 3-3.571-.964-8.141-1.928-10.212-6-1.285-2.535-3.571-5.749-2.856-7.927a18.1 18.1 0 0 1 5.356-9.748c2.571-2.071 5.927-1.071 8.034-3.571 3.178 1.857 6.927 2.249 9.819 5.213s1.428 6.536 4.07 8.571ZM315.279 102.653c3.571 2.285 8.391 2.214 10.462 6.32 1.285 2.571 3.571 5.677 3 7.891-.964 3.571-1.928 8.141-6 10.212-2.535 1.285-5.749 3.571-7.927 2.856a18.1 18.1 0 0 1-9.748-5.356c-2.071-2.571-1.071-5.927-3.571-8.034 1.857-3.178 2.249-6.927 5.213-9.819s6.536-1.428 8.571-4.07ZM435.321 701.079c-1.928 3.571-2 8.105-6.106 10.212-2.535 1.321-5.641 3.571-7.855 3.071-3.571-.964-8.177-1.821-10.212-5.927-1.285-2.571-3.571-5.784-2.928-7.891a18.246 18.246 0 0 1 5.32-9.819c2.535-2 5.927-1 7.962-3.571 2.714 2.214 6.5 1.785 9.283 4.535s2.251 6.715 4.536 9.39ZM128.54 423.575c0 8.5-3.571 11.747-12.247 11.747s-11.747-3.57-11.747-12.247 3.571-11.747 12.247-11.747 11.747 3.428 11.747 12.247ZM712.966 317.528c0 8.355-3.57 11.569-12.461 11.533-8.355 0-11.569-3.571-11.533-12.461 0-8.355 3.57-11.569 12.461-11.533 8.356.037 11.569 3.5 11.533 12.461ZM307.067 608.423q11.854 0 11.747 12.247t-12.247 11.747q-11.818 0-11.747-12.247t12.247-11.747ZM622.274 327.099c-4.392 1.678-6.177-1.821-8.676-3.963a8.855 8.855 0 0 1-3.57-8 13.64 13.64 0 0 1 12.533-11.926c3.82-.286 5.606 1.964 7.784 4.07a9.64 9.64 0 0 1 4 7.855 9.89 9.89 0 0 1-3.571 8c-2.608 2.107-4.327 5.785-8.5 3.964ZM348.056 555.043c-4.392 1.678-6.177-1.821-8.676-3.963a8.855 8.855 0 0 1-3.571-8 13.639 13.639 0 0 1 12.533-11.926c3.82-.286 5.606 1.964 7.784 4.07a9.64 9.64 0 0 1 4 7.855 9.891 9.891 0 0 1-3.57 8c-2.608 2.107-4.327 5.928-8.5 3.964ZM329.061 38.527a12.961 12.961 0 0 1-11.783 12.961 7.748 7.748 0 0 1-7.391-2.928c-1.928-2.571-5.5-3.963-4.927-8.284.428-3.071 0-6.106 3.071-8.248s4.142-5.177 8.391-4.749c3.214.321 6.034.321 8.141 3.285s5.743 4.146 4.498 7.963ZM555.113 392.761c1.357 4.32-2.321 5.891-4.249 8.534a9.819 9.819 0 0 1-8.141 3.321c-4.285.428-5.749-2.857-8.391-4.713s-2.785-5.07-3.142-8.212c-.536-4.285 2.928-5.713 4.892-8.319a9.283 9.283 0 0 1 7.32-3.071c4.249-.5 6 2.357 8.534 4.463a7.141 7.141 0 0 1 3.177 7.997ZM433.464 29.385c4.392-1.678 6.177 1.821 8.676 3.963a8.855 8.855 0 0 1 3.571 8 13.639 13.639 0 0 1-12.533 11.926c-3.856.286-5.606-1.964-7.784-4.07a9.641 9.641 0 0 1-4-7.855 9.89 9.89 0 0 1 3.57-8c2.644-2.107 4.322-5.785 8.5-3.964ZM51.415 422.04c1.071 3-1.071 5.177-3.571 7.355s-4.32 4.892-8.569 4.392a9.533 9.533 0 0 1-7.141-3.178c-2-2.571-5.213-4.106-4.785-8.355.321-3.214.357-6 3.249-8.177s4.32-4.856 8.462-4.57a13.14 13.14 0 0 1 12.354 12.533ZM608.457 431.18c-1.071-4.427 3.035-5.749 4.749-8.462 2.107-3.285 5.249-2.464 8.284-2.892 4.356-.607 5.57 3.214 8.212 5.035s2.535 4.606 2.821 7.462c.464 4.142-2.607 5.82-4.57 8.427s-4.963 2.964-8.177 3.285c-4.249.428-5.713-2.928-8.391-4.749a7.819 7.819 0 0 1-2.928-8.105ZM386.333 533.049c4.427-1.035 5.749 3.035 8.462 4.749 3.285 2.107 2.464 5.249 2.892 8.284.607 4.356-3.214 5.57-5.034 8.212s-4.606 2.535-7.462 2.821c-4.142.464-5.82-2.606-8.426-4.57s-2.964-4.963-3.285-8.177c-.428-4.249 2.928-5.713 4.749-8.391a7.82 7.82 0 0 1 8.104-2.928ZM237.797 142.251a13.175 13.175 0 0 1 12.534 12.426c.286 4.142-2.607 5.82-4.57 8.427s-4.963 2.964-8.177 3.285c-4.249.428-5.784-2.785-8.355-4.785a9.533 9.533 0 0 1-3.178-7.141c-.5-4.249 2.142-6.106 4.392-8.569s4.354-4.714 7.354-3.643ZM435.143 622.277c1.25 4.285-2.178 6.034-4.213 8.605a9.926 9.926 0 0 1-8.105 3.571c-4.249.357-5.784-2.821-8.426-4.713s-2.856-5-3.178-8.177c-.464-4.249 2.821-5.784 4.82-8.319a9.355 9.355 0 0 1 7.141-3.142c4.285-.536 6.07 2.249 8.569 4.427s4.567 4.32 3.392 7.748ZM171.387 229.801c1.25 4.32-2.178 6.034-4.213 8.605a9.926 9.926 0 0 1-8.105 3.571c-4.249.357-5.784-2.821-8.427-4.713s-2.856-5-3.178-8.177c-.464-4.249 2.821-5.784 4.82-8.319a9.39 9.39 0 0 1 7.141-3.14c4.285-.536 6.07 2.285 8.569 4.427s4.392 4.319 3.393 7.746ZM366.765 117.828a13.318 13.318 0 0 1-11.926 12.283 13.461 13.461 0 0 1-12.068-11.14 12.007 12.007 0 1 1 23.994-1ZM551.864 663.481a12 12 0 1 1-11.569-12.426 12 12 0 0 1 11.569 12.426ZM670.12 550.365a12 12 0 1 1-11.569-12.425 12 12 0 0 1 11.569 12.425ZM663.478 188.525a13.282 13.282 0 0 1 11.783 12.426 13.247 13.247 0 0 1-12.64 11.569 13.532 13.532 0 0 1-11.354-12 13.354 13.354 0 0 1 12.211-12ZM521.017 159.318a12 12 0 1 1-12.283-11.711 12 12 0 0 1 12.283 11.711ZM130.253 385.834a13.282 13.282 0 0 1-12.425 11.783 13.247 13.247 0 0 1-11.569-12.64 13.532 13.532 0 0 1 12-11.354 13.354 13.354 0 0 1 11.994 12.211ZM557.005 353.485a12.007 12.007 0 1 1-23.994-1 13.461 13.461 0 0 1 12.068-11.283 13.318 13.318 0 0 1 11.926 12.283ZM394.048 130.254a13.318 13.318 0 0 1-12-12.426c.25-5.927 6.855-12.283 12.568-11.569a12.854 12.854 0 0 1 11.39 11.854 13.211 13.211 0 0 1-11.958 12.141ZM574.141 238.156a12 12 0 1 1 11.711 12.283 12 12 0 0 1-11.711-12.283ZM230.014 569.004a12.011 12.011 0 0 1-1.143 23.994 13.6 13.6 0 0 1-11.211-12.14 13.318 13.318 0 0 1 12.354-11.854ZM41.061 317.066a12 12 0 1 1 12.283-11.712 12 12 0 0 1-12.283 11.712ZM142.25 501.949a13.282 13.282 0 0 1 12.426-11.783 13.282 13.282 0 0 1 11.569 12.64 13.5 13.5 0 0 1-12 11.354 13.354 13.354 0 0 1-12-12.211ZM130.253 345.987a13.39 13.39 0 0 1-12 12.211 13.5 13.5 0 0 1-12-11.354 13.282 13.282 0 0 1 11.575-12.64 13.282 13.282 0 0 1 12.425 11.783ZM358.197 622.134c-2.428 2.321-1.071 6.284-4.142 8.641-2.535 1.964-5.749 1.392-8.069 3.356-2.5-2.107-6.713-1.035-8.426-4.392a19.567 19.567 0 0 1-3.106-8.034 12.64 12.64 0 0 1 3.821-7.57 10.926 10.926 0 0 1 7.64-3.57 17.139 17.139 0 0 1 8.141 3c2.999 2.284 1.713 6.212 4.141 8.569ZM622.31 382.05c2.535 2.5 6.891 1.285 8.569 4.677 1.25 2.607 3.571 6.07 2.892 7.891-1.25 2.821-.5 7.141-4.285 8.534-2.678 1.071-6.07 3.571-8 2.714-2.785-1.214-6.927-.607-8.427-4.427-.964-2.464-3.285-5.356-2.607-7.141.964-2.856.607-6.82 4.035-8.569a85.643 85.643 0 0 1 7.823-3.679ZM502.126 598.175a30.885 30.885 0 0 1-8.391-4.5 11.283 11.283 0 0 1-3.285-7.784 14.282 14.282 0 0 1 4.356-8.177 12.033 12.033 0 0 1 7.855-3.285 12.247 12.247 0 0 1 7.605 3.856 12.5 12.5 0 0 1 3.571 7.712 11.89 11.89 0 0 1-3.571 7.784 32.137 32.137 0 0 1-8.14 4.394ZM397.687 622.134a31.1 31.1 0 0 1-4.463 8.355 11.176 11.176 0 0 1-7.784 3.356 14.5 14.5 0 0 1-8.253-4.284 11.854 11.854 0 0 1-3.285-7.855 12.425 12.425 0 0 1 3.785-7.641 12.747 12.747 0 0 1 7.712-3.571 11.925 11.925 0 0 1 7.819 3.571 32.136 32.136 0 0 1 4.463 8.07ZM622.488 342.773a32.6 32.6 0 0 1 8.069 4.713 11.533 11.533 0 0 1 3.285 7.819 14.032 14.032 0 0 1-4.642 7.891 12.069 12.069 0 0 1-7.855 3.285 12.318 12.318 0 0 1-7.534-4.035 12 12 0 0 1-3.392-7.784 14.568 14.568 0 0 1 4.213-8.319 25 25 0 0 1 7.856-3.57ZM202.235 657.911a24.208 24.208 0 0 1-3.571 7.855 14.283 14.283 0 0 1-8.391 4.07 11.89 11.89 0 0 1-7.746-3.565 12.568 12.568 0 0 1-4-7.57 12.033 12.033 0 0 1 3.285-7.855 14.282 14.282 0 0 1 8.105-4.575 11.247 11.247 0 0 1 7.819 3.285 32.136 32.136 0 0 1 4.5 8.355ZM205.663 385.406c0 7.141-2.892 10.39-9.855 10.5-7.712 0-10.712-2.464-10.712-9.641 0-7.82 2.785-10.926 10.283-10.926s10.213 3.14 10.284 10.067ZM591.282 509.875c0 6.463-3.249 9.391-10.069 9.426s-10.247-2.964-10.5-9.034a16.07 16.07 0 0 1 0-5.07 8.105 8.105 0 0 1 5.534-5.892 22.5 22.5 0 0 1 9.64.286c4.217 1.072 5.538 4.286 5.395 10.284ZM363.338 195.417a10.283 10.283 0 1 1-10.247-10.319 9.64 9.64 0 0 1 10.247 10.319ZM402.757 195.381a10.283 10.283 0 1 1-10.283-10.283 9.641 9.641 0 0 1 10.283 10.283ZM191.56 551.865a10.283 10.283 0 1 1 10.712-9.89 9.712 9.712 0 0 1-10.712 9.89ZM560.575 82.12a10.283 10.283 0 1 1-10.283-10.28 10.283 10.283 0 0 1 10.283 10.28ZM195.38 337.632a10.283 10.283 0 1 1-10.283 10.283 9.641 9.641 0 0 1 10.283-10.283ZM471.312 700.864a10.283 10.283 0 1 1-10.39-10.176 9.641 9.641 0 0 1 10.39 10.176ZM92.548 190.239a9.64 9.64 0 0 1-10.429 10.283 10.283 10.283 0 0 1 0-20.566 9.64 9.64 0 0 1 10.429 10.283ZM209.091 191.989a10.283 10.283 0 1 1-10.247-10.319 9.64 9.64 0 0 1 10.247 10.319ZM85.693 540.118a9.676 9.676 0 0 1-10.533 10.033 10.286 10.286 0 0 1 .5-20.566 9.676 9.676 0 0 1 10.033 10.533ZM697.649 483.311a10.283 10.283 0 1 1 10.176-10.39 9.641 9.641 0 0 1-10.176 10.39ZM711.253 279.467a10.283 10.283 0 1 1-10.176-10.39 9.64 9.64 0 0 1 10.176 10.39ZM277.646 697.187a10.24 10.24 0 1 1-10.64-9.64 10.212 10.212 0 0 1 10.64 9.64ZM200.771 65.127a10.283 10.283 0 0 1 9.926 10.712 10.18 10.18 0 1 1-20.352-.5 10.14 10.14 0 0 1 10.426-10.212ZM546.973 209.092a10.233 10.233 0 1 1 9.926-10.533 10.283 10.283 0 0 1-9.926 10.533ZM551.935 547.367a10.709 10.709 0 0 1-1.643 3.392c-7.141 7.855-9.033 9.462-17.174.357a6.07 6.07 0 0 1 0-8.784c1.357-1.428 2.964-2.714 4.178-4.249a4.713 4.713 0 0 1 4.5-1.642c3.319.103 9.889 6.503 10.139 10.926ZM543.294 419.897c3.571 0 10.712 7.141 10.283 10.5s-7.427 10.426-10.712 10.069a16.389 16.389 0 0 1-9.855-10.069c-.249-3.359 6.749-10.5 10.284-10.5ZM49.702 461.104c0 3.571-7.141 10.5-10.712 10.212s-10.39-7.534-10-10.712a16.389 16.389 0 0 1 10.283-9.855c3.573-.216 10.715 6.89 10.429 10.355ZM435.393 544.76c-.393 3.892-6.891 10.712-10.033 10.355a14.282 14.282 0 0 1-6.855-3.928c-4.463-4.142-4.463-8.069 0-12.283 5.891-5.749 8.391-4.749 13.532.214a26.958 26.958 0 0 1 3.356 5.642ZM464.457 40.276c0-5.713 2.607-7.82 9.212-7.712 5.749 0 8 2.642 7.927 9s-2.642 8.355-9.64 8.141c-5.428-.145-7.606-2.93-7.499-9.429ZM545.222 306.782c6.034 0 8.355 2.428 8.355 8.569s-2.285 8.676-9.212 8.569c-5.749 0-8-2.642-7.927-9s2.5-8.173 8.784-8.138ZM287.929 37.705c0 6.141-2.321 8.534-8.355 8.569-6.57 0-8.855-2.285-8.784-8.962 0-5.927 2.5-8.212 8.748-8.177s8.391 2.428 8.391 8.57ZM317.065 544.153c0 5.713-2.607 7.82-9.212 7.712-5.749 0-8-2.642-7.927-9s2.642-8.319 9.64-8.141c5.428.146 7.606 2.935 7.499 9.429ZM40.882 258.794c6.32 0 8.748 2.214 8.819 8.105s-2.178 8.926-7.891 9.034c-6.927 0-9.248-2.035-9.248-8.534s2.322-8.569 8.32-8.605ZM276.038 145.679a10.319 10.319 0 0 1 8.462 8.676 10.319 10.319 0 0 1-8.676 8.462 10.319 10.319 0 0 1-8.462-8.676 10.319 10.319 0 0 1 8.676-8.462ZM158.068 277.651a10.355 10.355 0 0 1-8.962-8.177 10.355 10.355 0 0 1 8.177-8.823 10.355 10.355 0 0 1 8.963 8.177 10.355 10.355 0 0 1-8.178 8.823ZM440.462 196.702a8.578 8.578 0 1 1-8.962-8.177 8.578 8.578 0 0 1 8.962 8.177ZM154.247 471.314a8.569 8.569 0 1 1 8.569-8.569 8.569 8.569 0 0 1-8.569 8.569ZM479.881 158.069a8.578 8.578 0 1 1-8.177-8.962 8.578 8.578 0 0 1 8.177 8.962ZM197.237 317.066c-2.678 0-8.569-5.57-8.712-8.427s5.57-8.712 8.426-8.712 8.569 5.57 8.712 8.427-5.712 8.573-8.426 8.712ZM202.235 424.896c0 2.678-5.57 8.569-8.426 8.712s-8.569-5.57-8.712-8.427 5.57-8.569 8.426-8.712 8.57 5.571 8.712 8.427ZM322.206 193.595c0 6.641-.214 6.891-6.57 6.927s-7.141-.464-7.141-6.356c0-6.855.428-7.391 7.141-7.355 5.892.036 6.57.714 6.57 6.784ZM583.998 282.788c-5.891 0-6.463-.678-6.427-7.141s.821-6.748 7.712-6.641c5.32 0 6.106 1.071 6 7.5-.073 5.782-.751 6.349-7.285 6.282ZM275.932 580.929c0 6.641-.214 6.891-6.57 6.927s-7.141-.464-7.141-6.356c0-6.855.428-7.391 7.141-7.355 5.891.036 6.57.714 6.57 6.784ZM623.85 625.812a6.864 6.864 0 1 1-6.57-7.141 7.141 7.141 0 0 1 6.57 7.141ZM580.749 464.458a7.141 7.141 0 0 1 7.141 6.391 6.784 6.784 0 0 1-7.141 7.141 6.856 6.856 0 0 1 0-13.711ZM704.397 510.911a6.864 6.864 0 1 1-6.57-7.141 7.141 7.141 0 0 1 6.57 7.141ZM510.588 507.559a6.864 6.864 0 1 1-6.57-7.141 7.141 7.141 0 0 1 6.57 7.141ZM469.598 584.036a6.857 6.857 0 1 1-13.711.25 6.858 6.858 0 1 1 13.711-.357ZM500.305 694.116a7.141 7.141 0 0 1 7.141 6.5 7.006 7.006 0 1 1-7.141-6.57ZM701.076 246.796a13.354 13.354 0 0 1-4.427-1.928 10.141 10.141 0 0 1-2.428-4.82c-.464-2.142 5.142-7.141 7.141-7.141a12.033 12.033 0 0 1 6.32 7.141 12.675 12.675 0 0 1-6.605 6.748ZM234.692 698.543c-1.75 1.678-3.571 4.749-6.213 5.606s-4.285-3.035-6.32-4.785c-.643-.571-1.178-2.357-.821-2.749a42.485 42.485 0 0 1 6.034-5.856c1.143-.856 7.642 5.499 7.32 7.784ZM514.337 237.192a59.015 59.015 0 0 0-4.428 4.5c-2 2.428-3.571 1.857-5.392 0-5.57-5.927-5.606-4 0-10.176 2.107-2.285 3.571-2 5.356 0 1.071 1.321 2.428 2.392 3.571 3.571a3.606 3.606 0 0 1 .893 2.105ZM245.082 37.705c0 3.571-1.428 5.07-4.927 5.142-4.106 0-5.534-1.428-5.356-5.57 0-3.571 1.714-4.785 5.356-4.713s4.927 1.57 4.927 5.141ZM156.318 430.181c-3.571 0-5.284-1.25-5.5-4.57s1.178-5.463 4.356-5.713c4.035-.321 5.856 1.214 5.927 5s-1.355 5.14-4.783 5.283ZM514.158 196.737c0 3.571-1.25 5.284-4.57 5.5s-5.463-1.178-5.713-4.356c-.321-4.035 1.214-5.856 5-5.927s5.283 1.356 5.283 4.783ZM231.228 509.018c-3.571 0-4.963-1.5-5-5.07s1.607-5.463 5.713-5.213c3.321.214 4.713 1.857 4.57 5.5s-1.677 4.854-5.283 4.783ZM113.043 611.851c3.571 0 5.106 1.357 5.213 4.856 0 4.178-1.321 5.57-5.5 5.427-3.571 0-4.856-1.678-4.785-5.284s1.502-4.959 5.072-4.999ZM661.551 587.642c0 3.571-1.285 5.213-4.713 5.356s-5.356-1.214-5.57-4.5c-.286-4.106 1.214-5.784 5.142-5.784s5.069 1.429 5.141 4.928ZM236.513 198.809c-3.571 0-5.07-1.428-5.142-4.927 0-4.106 1.428-5.534 5.57-5.356 3.571 0 4.785 1.714 4.713 5.356s-1.571 4.927-5.141 4.927ZM511.088 47.988c-3.571 0-5.284-1.25-5.5-4.57s1.178-5.463 4.356-5.713c4.035-.321 5.856 1.214 5.927 5s-1.355 5.14-4.783 5.283ZM541.58 236.728c0-3.571 1.285-5.213 4.713-5.356s5.356 1.214 5.57 4.5c.286 4.106-1.214 5.784-5.142 5.784s-5.07-1.429-5.141-4.928ZM47.988 228.23c0 3.571-1.607 4.892-5.213 4.856s-5.356-1.821-5.07-5.856c.25-3.249 2-4.606 5.641-4.428s4.749 1.679 4.642 5.428ZM320.493 155.533c0 3.571-1.214 5.356-4.5 5.57s-5.5-1.143-5.784-4.285c-.357-4.035 1.178-5.927 4.927-6s5.214 1.287 5.357 4.715ZM437.034 157.604c0 3.571-1.357 5.106-4.856 5.213-4.178 0-5.57-1.321-5.427-5.5 0-3.571 1.678-4.856 5.284-4.785s4.964 1.502 4.999 5.072ZM625.558 126.826c-3.571 0-5.07-1.428-5.142-4.927 0-4.106 1.428-5.534 5.57-5.356 3.571 0 4.785 1.714 4.713 5.356s-1.569 4.927-5.141 4.927ZM197.381 226.23c3.571 0 4.892 1.607 4.856 5.213s-1.821 5.356-5.856 5.07c-3.249-.25-4.606-2-4.427-5.641s1.676-4.749 5.427-4.642ZM236.298 226.23c3.571 0 5.213 1.285 5.356 4.713s-1.214 5.356-4.5 5.57c-4.106.286-5.784-1.214-5.784-5.142s1.429-5.07 4.928-5.141ZM582.713 664.981c0 3.571-1.428 5.07-4.927 5.142-4.106 0-5.534-1.428-5.356-5.57 0-3.571 1.714-4.785 5.356-4.713s4.927 1.57 4.927 5.141ZM42.847 500.235c0 3.571-1.285 5.213-4.713 5.356s-5.356-1.214-5.57-4.5c-.286-4.106 1.214-5.784 5.142-5.784s5.141 1.429 5.141 4.928ZM162.817 308.639c0 3.571-1.5 4.963-5.07 5s-5.463-1.607-5.213-5.713c.214-3.321 1.857-4.713 5.5-4.57s4.854 1.676 4.783 5.283ZM431.108 584.5c-2.357 2-4.178 4.785-5.927 4.713s-3.571-2.857-5.284-4.428c1.821-1.857 3.571-4.606 5.534-5.142 1.249-.32 3.427 2.822 5.677 4.857ZM547.614 508.697a54.723 54.723 0 0 1-5.606 5.463c-1 .75-6.177-4.035-5.463-5.142 1.285-1.928 3.178-4.606 4.963-4.713s3.714 2.5 6.106 4.392ZM308.102 576.681c2.142 2.107 5.07 3.571 5.177 5.427s-2.357 3.963-4.035 5.677c-.821.893-6.32-3.571-5.749-4.82a37.5 37.5 0 0 1 4.606-6.284ZM230.979 535.583c2.142 2.107 5.07 3.571 5.177 5.427s-2.357 3.963-4.035 5.677c-.821.893-6.32-3.571-5.749-4.82a37.493 37.493 0 0 1 4.607-6.284ZM502.375 552.758a52.809 52.809 0 0 1-5.284-5.677c-.75-1.107 4.142-6.141 5.213-5.391 1.928 1.321 4.57 3.285 4.642 5.07s-2.642 3.642-4.571 5.998ZM127.719 113.365c-2.357 1.928-4.285 4.642-6.034 4.535s-3.571-2.749-5.034-4.677c-.75-1.107 4.356-5.927 5.427-5.177a61.733 61.733 0 0 1 5.641 5.32ZM156.854 656.089a54.742 54.742 0 0 1-5.606 5.391c-1 .75-6.177-4.035-5.463-5.142 1.285-1.928 3.178-4.606 4.963-4.713s3.714 2.572 6.106 4.464ZM193.702 508.269a42.842 42.842 0 0 1-5.07-5.927c-.714-1.214 4.356-6.034 5.356-5.213 1.857 1.428 4.427 3.571 4.463 5.249s-2.75 3.57-4.749 5.891ZM582.568 425.86c2.071 2.214 5.249 4.356 4.927 5.606-.536 2.142-3.249 3.571-5.07 5.57-1.607-1.75-4.463-3.571-4.5-5.249s2.681-3.606 4.643-5.927ZM81.443 577.18a65.432 65.432 0 0 1-5.5 5.463c-1 .785-6.248-3.856-5.534-5.035 1.178-1.964 3.071-4.713 4.856-4.82s3.715 2.535 6.178 4.392ZM671.013 160.675a65.444 65.444 0 0 1-5.5 5.463c-1 .786-6.248-3.856-5.534-5.034 1.178-1.964 3.071-4.713 4.856-4.82s3.714 2.57 6.178 4.391ZM590.463 315.525c-2.357 1.964-4.213 4.677-6 4.606s-3.749-2.714-5.07-4.606c-.786-1.107 4.249-6 5.356-5.249a55.7 55.7 0 0 1 5.714 5.249ZM549.328 469.956c-2.428 1.857-4.392 4.57-6.141 4.428s-3.571-2.821-4.927-4.785c-.714-1.143 4.5-5.856 5.534-5.07a64.258 64.258 0 0 1 5.534 5.427ZM593.925 82.337c-2.357 2-4.178 4.785-5.927 4.713s-3.571-2.856-5.284-4.427c1.821-1.857 3.57-4.606 5.534-5.142 1.249-.316 3.427 2.821 5.677 4.856ZM164.53 75.268c0 3.571 0 3.571-3.82 3.571-2.892 0-3.178-1.178-3.071-3.571 0-3.571 0-3.321 3.856-3.571 2.75.071 3.392 1.357 3.035 3.571ZM473.026 196.559c0 3.963 0 3.82-3.571 4-2.357 0-3.571-.214-3.571-3.071.214-3.82 0-3.571 3.571-3.856 2.5-.108 4.107.178 3.571 2.927ZM547.578 272.505c3.57-.5 2.535 2.142 2.535 3.856 0 3.178 0 2.964-4.249 3.071-3.571 0-2.535-2.178-2.535-3.928-.035-3.173.143-3.213 4.249-2.999ZM158.532 342.774c3.571-.5 2.535 2.142 2.535 3.856 0 3.178 0 2.964-4.249 3.071-3.571 0-2.535-2.178-2.535-3.928-.035-2.999.143-3.214 4.249-2.999ZM464.992 543.296c2.785-.536 3.035 1.107 2.928 3.571 0 3.571 0 3.321-3.856 3.571-2.892 0-3.178-1.178-3.071-3.571.143-3.642.036-3.642 3.999-3.571ZM156.818 382.05c3.571-.5 2.535 2.142 2.535 3.856 0 3.178 0 2.964-4.249 3.071-3.571 0-2.535-2.178-2.535-3.928-.035-2.999.143-2.999 4.249-2.999ZM395.902 157.819c.393 2.249-.214 3.571-3.035 3.356-3.82 0-3.571 0-3.856-3.571 0-2.357.214-3.571 3.071-3.571 3.82.361 3.82.144 3.82 3.786ZM353.913 159.39c-3.571.5-2.535-2.142-2.535-3.856 0-3.142 0-2.964 4.249-3.071 3.571 0 2.535 2.178 2.535 3.928.035 3.177-.143 3.213-4.249 2.999ZM85.693 151.356c.536 2.785-1.107 3.035-3.571 2.928-3.571 0-3.321 0-3.571-3.856 0-2.892 1.178-3.178 3.571-3.071 3.571.143 3.571.036 3.571 3.999ZM269.61 539.868c2.749-.536 3.035 1.071 2.928 3.571 0 3.571 0 3.321-3.856 3.571-2.856 0-3.178-1.107-3.071-3.571.18-3.645.037-3.645 3.999-3.571ZM275.861 189.239c1.5 1.785 3.571 3.356 3.285 4.106-.536 1.5-2.321 2.535-3.571 3.785-1.035-1.178-2.785-2.357-2.856-3.571s1.678-2.499 3.142-4.32ZM582.642 350.307c1.5 1.785 3.571 3.356 3.285 4.106-.536 1.5-2.321 2.535-3.571 3.785-1.035-1.178-2.785-2.357-2.856-3.571s1.678-2.463 3.142-4.32ZM346.057 587.143c-1.432-1.857-3.142-3.147-3.07-4.356s1.892-2.321 2.928-3.571c1.25 1.25 3 2.357 3.571 3.856.177.824-1.893 2.5-3.429 4.071ZM197.311 273.469a23.6 23.6 0 0 1-3.571-4c-.643-1.285 2.214-4.32 3.571-3.571s3 2.142 3.071 3.321-1.717 2.358-3.071 4.25ZM389.939 583c-1.857 1.321-3.178 3.035-4.356 2.928s-2.678-1.785-3.285-3.106 2.535-4.142 3.785-3.571a23.32 23.32 0 0 1 3.856 3.749ZM742.994 356.77c-1.857 1.321-3.178 3.035-4.356 2.928s-2.678-1.785-3.285-3.106 2.535-4.142 3.785-3.571a23.316 23.316 0 0 1 3.856 3.749ZM193.238 460.245a21.925 21.925 0 0 1 3.785 3.571c.714 1.178-2 4.463-3.321 3.928s-3.106-1.964-3.249-3.142 1.535-2.536 2.785-4.357ZM582.93 396.867a23.6 23.6 0 0 1-3.57-4c-.643-1.285 2.214-4.32 3.57-3.571s3 2.142 3.071 3.321-1.717 2.358-3.071 4.25ZM386.619 738.824c-1.857 1.428-3.178 3.142-4.356 3.071s-2.321-1.892-3.571-2.928c1.25-1.25 2.357-3 3.856-3.571.821-.183 2.357 1.888 4.071 3.428ZM396.33 4.32c-.928-1.214-1.714-1.857-1.892-2.642S395.223.571 395.652 0a8.211 8.211 0 0 1 2.035 1.785c.036.322-.75 1.179-1.357 2.535ZM698.434 550.437c-1.357.75-2.214 1.535-2.535 1.357a8.214 8.214 0 0 1-1.785-2.035c.571-.428 1.25-1.321 1.678-1.214a15.674 15.674 0 0 1 2.642 1.892ZM359.09 1.357c-1.178 1.107-1.892 2.071-2.178 1.964a4.927 4.927 0 0 1-2.071-1.679c0-.179.821-1.535 1.25-1.535a9.5 9.5 0 0 1 3 1.25ZM37.348 535.583c1.107 1.178 2.071 1.892 1.964 2.178a4.928 4.928 0 0 1-1.678 2.071s-1.535-.821-1.535-1.25a9.5 9.5 0 0 1 1.25-3ZM4.32 344.773c-1.357.75-2.214 1.535-2.535 1.357A8.212 8.212 0 0 1 0 344.094c.571-.428 1.25-1.321 1.678-1.214a15.682 15.682 0 0 1 2.642 1.893ZM550.435 45.453c-.928-1.214-1.714-1.857-1.892-2.642s.786-1.107 1.214-1.678a8.213 8.213 0 0 1 2.035 1.785c.178.322-.607 1.179-1.357 2.535ZM2 379.586c.75 1.357 1.535 2.214 1.357 2.535a8.212 8.212 0 0 1-2.036 1.785c-.428-.571-1.321-1.25-1.214-1.678A15.677 15.677 0 0 1 2 379.586ZM702.326 197.916c1.107 1.178 2.071 1.892 1.964 2.178a4.927 4.927 0 0 1-1.678 2.071c-.179 0-1.535-.821-1.535-1.25a9.5 9.5 0 0 1 1.25-3ZM741.281 318.423c-1.178 1.107-1.892 2.071-2.178 1.964a4.928 4.928 0 0 1-2.071-1.678c0-.179.821-1.535 1.25-1.535a9.5 9.5 0 0 1 3 1.25ZM189.882 698.436a9.5 9.5 0 0 1-1.25-3c0-.428 1.357-1.357 1.535-1.25a4.928 4.928 0 0 1 1.678 2.071c.108.287-.856 1.004-1.963 2.179ZM739.572 433.966a9.5 9.5 0 0 1-3 1.25c-.428 0-1.357-1.357-1.25-1.535a4.927 4.927 0 0 1 2.071-1.678c.279.035.996.856 2.179 1.963ZM537.796 705.297a9.5 9.5 0 0 1-1.25-3c0-.428 1.357-1.357 1.535-1.25a4.927 4.927 0 0 1 1.678 2.071c.108.279-.856.996-1.963 2.179ZM304.711 739.574a9.5 9.5 0 0 1-1.25-3c0-.429 1.357-1.357 1.535-1.25a4.928 4.928 0 0 1 1.678 2.071c.108.279-.856.996-1.963 2.179ZM424.216 739.105c-1.357.75-2.214 1.535-2.535 1.357a8.211 8.211 0 0 1-1.785-2.035c.571-.428 1.25-1.321 1.678-1.214a10.031 10.031 0 0 1 2.642 1.892Z"/></svg>