<svg xmlns="http://www.w3.org/2000/svg" width="822.927" height="514.715"><defs><style>.a{fill:#1a1a1a;opacity:.2}</style></defs><path class="a" d="M416.007 204.166c-4.83-2.88-8.08-6.63-9-12.73-1.86 1.91-3.16 3.46-4.66 4.77-4.42 3.84-10.24 4.73-14.89 2.25-5.47-2.93-8-7.7-8-13.79 0-3.1 1.72-5.7 3.83-7.72 6.51-6.22 14.9-7.07 21.21 1.63 1.37 1.9 2.09 4.27 3.15 6.51 9.41-12.19 22.26-10.9 27.82 5.06 1.53-1.62 2.8-3.19 4.28-4.51 5.34-4.74 12.17-5 17.55-.72a13.6 13.6 0 0 1-1.34 22.4 54.61 54.61 0 0 1-6.43 2.79c1.24 1 2.27 1.9 3.32 2.75a13.61 13.61 0 0 1-4.25 23.33c-1.4.49-2.85.86-5 1.5a61.406 61.406 0 0 1 5.31 4.5 13.27 13.27 0 1 1-14.88-2.92 57.59 57.59 0 0 1 5.88-1.95 51.264 51.264 0 0 1-4.46-3.65 20.519 20.519 0 0 1-3.4-4.38 34.671 34.671 0 0 1-1.92-5.2c-2.4-.73-2.35 1.64-3.22 2.66a13.49 13.49 0 1 1-17.8-19.66 59.443 59.443 0 0 1 6.9-2.92Zm19-8.16c-6.11 6.42-6.11 6.42-13.62 9.43a36.427 36.427 0 0 1 4.19 3.47 22.748 22.748 0 0 1 3.08 4.59 59.365 59.365 0 0 1 2.26 5.57c3.05-5.82 7.14-8.79 14-9.81-5.91-3.13-8.78-7.09-9.91-13.25Z"/><path class="a" d="M412.647 157.516c6.32-7.82 12.11-10.13 18-7.47 6.07 2.77 10.26 9.94 9 15.44s-7 10.37-12.56 10.82c-7.38.59-11.84-3-15.47-12.76-1.48 1.59-2.73 3.12-4.18 4.43a13.64 13.64 0 0 1-15.6 2.17c-4.58-2.25-8.54-8.85-7.7-13.9a14.22 14.22 0 0 1 8-10.39 13 13 0 0 1 17.34 4.72 60.131 60.131 0 0 1 3.17 6.94ZM471.767 242.676a52 52 0 0 1 5.51 4.5 13.17 13.17 0 0 1-3.14 20.6 13.38 13.38 0 0 1-18.13-4.77c-4.41-7.77-1.42-14.56 5.12-18.51 1.93-1.17 4.29-1.63 7.09-2.64-6.87-4.48-11.71-9.89-9-17.92a13.69 13.69 0 0 1 26.64 3.57c.37 6.99-3.72 11.5-14.09 15.17ZM355.477 152.256c-5.91 8.75-11.47 11.17-18.47 8.56a13.33 13.33 0 0 1 3.15-25.6c7.48-1 11.94 2.55 16.32 13.37a22.19 22.19 0 0 1 2.92-3.74c2-1.67 4.09-3.56 6.47-4.45 6.81-2.54 14 1.08 16.75 8a13.5 13.5 0 0 1-24.43 11.37c-1.05-2.07-1.59-4.41-2.71-7.51Z"/><path class="a" d="M497.727 247.926c7 1.17 12.5 8.24 11.2 15.13a13.59 13.59 0 0 1-16 11c-7.08-1.46-12-8.42-10.68-15.4a13.62 13.62 0 0 1 15.48-10.73ZM479.167 187.176c6.92 1.08 12.08 8.13 11.11 15.16s-8.78 13-15.57 11.89c-6.23-1.05-12.64-10.3-11.33-16.32 1.41-6.44 9.24-11.76 15.79-10.73ZM416.167 132.516a13.47 13.47 0 0 1-15.53 10.49 13.05 13.05 0 0 1-11-15.11 13.2 13.2 0 0 1 15.94-10.8c7.07 1.47 11.95 8.49 10.59 15.42ZM513.547 235.236c-1.78 7.17-8 12-15.45 10.64-7.19-1.29-12.24-8.17-11-15.2.95-5.27 6.63-12.16 15.44-10.7 6.4 1.03 11.84 6.96 11.01 15.26ZM378.307 183.676a13.45 13.45 0 0 1-15.3 10.78 13.27 13.27 0 0 1-10.81-15.23c1.17-7.36 8.94-13.21 15.72-11.27 7.71 2.22 11.61 8.79 10.39 15.72ZM456.307 154.536a13.17 13.17 0 1 1-9.914 1.984 13.3 13.3 0 0 1 9.914-1.984ZM386.007 226.536a13.1 13.1 0 0 1-10.46-15.39 13.38 13.38 0 0 1 15.61-10.28c6.79 1.37 12.14 9.15 10.71 15.54-1.5 6.79-8.86 11.47-15.86 10.13ZM387.867 127.776a13.25 13.25 0 1 1-10.2-15.51 13 13 0 0 1 10.2 15.51Z"/><path class="a" d="M359.737 122.476a13.13 13.13 0 1 1-10.81-15.06 12.82 12.82 0 0 1 10.81 15.06ZM312.007 156.616a13.41 13.41 0 0 1-10.78-15.31 13.24 13.24 0 0 1 15.45-10.51c7 1.28 12.37 8.57 10.92 15.28-1.15 5.45-6.98 12.06-15.59 10.54ZM487.407 301.776c-7-2-11.35-9.54-9.37-16.18 2.08-7 9.63-11.19 16.3-9.07a13 13 0 0 1 8.76 16.37c-2.09 6.64-9.26 10.7-15.69 8.88ZM510.497 263.146a13 13 0 1 1 1.876 9.86 13 13 0 0 1-1.876-9.865ZM427.617 147.376a13 13 0 0 1 5.48-25.4 12.79 12.79 0 0 1 10.16 15.49c-1.5 7.25-8.25 11.54-15.64 9.91ZM413.877 233.946a12.65 12.65 0 0 1 10 15.55 12.89 12.89 0 0 1-15.1 9.83 13.13 13.13 0 0 1-10.24-14.9 12.81 12.81 0 0 1 15.34-10.48ZM335.067 189.346a13.24 13.24 0 0 1-10.76-14.57 13 13 0 1 1 10.76 14.57ZM530.917 297.136c-1.74 6.63-8.95 11-15.47 9.38a13 13 0 1 1 15.47-9.38Z"/><path class="a" d="M316.907 128.246a12.88 12.88 0 0 1 4.59-25.34c6.7 1.23 11.82 8 10.6 14.63a13 13 0 0 1-15.19 10.71ZM475.537 286.326a13.39 13.39 0 0 1-15.32 10.68 13 13 0 0 1-10.21-14.78 12.73 12.73 0 0 1 14.33-10.76 13.19 13.19 0 0 1 11.2 14.86ZM284.287 151.606a12.87 12.87 0 0 1-10.64-14.54 12.53 12.53 0 0 1 14.23-10.86 12.79 12.79 0 0 1 11.13 14.85 13.18 13.18 0 0 1-14.72 10.55ZM479.547 185.166a12.83 12.83 0 0 1-10.24-14.81 12.5 12.5 0 0 1 15.26-10.35 12.82 12.82 0 0 1 10 15 13.27 13.27 0 0 1-15.02 10.16ZM540.697 239.566a12.92 12.92 0 0 1-14.33 10.79 12.68 12.68 0 0 1-11-14.08 12.82 12.82 0 0 1 14.64-11.21 13.07 13.07 0 0 1 10.69 14.5ZM507.007 192.706a12.54 12.54 0 0 1 10.64 14.4c-1.16 7.85-7.84 12-15 10.88-6.71-1-11.53-8.26-10.38-14.88a13 13 0 0 1 14.74-10.4ZM456.547 152.056a12.66 12.66 0 0 1-10.37-14.57 12.83 12.83 0 0 1 14.55-10.48 13.07 13.07 0 0 1 10.46 14.65 12.9 12.9 0 0 1-14.64 10.4ZM373.087 210.706a12.93 12.93 0 0 1-14.37 10.78 12.7 12.7 0 0 1-10.71-14.31 12.9 12.9 0 0 1 14.29-10.89c6.57.87 11.71 7.72 10.79 14.42ZM311.377 159.206a12.81 12.81 0 0 1 10.85 14.39 13 13 0 0 1-14.54 10.7 12.68 12.68 0 1 1 3.69-25.09ZM377.917 109.476a12.44 12.44 0 0 1-10.66-14.33 12.68 12.68 0 0 1 14.62-10.41 12.83 12.83 0 0 1 10.37 14 12.57 12.57 0 0 1-14.33 10.74ZM422.157 277.196a12.53 12.53 0 1 1 9.965 14.579 12.46 12.46 0 0 1-9.965-14.579ZM294.007 169.006a12.76 12.76 0 0 1-14.84 10.24 12.53 12.53 0 1 1 14.84-10.24ZM544.007 311.006a12.61 12.61 0 1 1 9.563-1.938 12.55 12.55 0 0 1-9.563 1.938ZM563.547 272.476a12.46 12.46 0 1 1-4.566-11.807 12.46 12.46 0 0 1 4.566 11.807ZM511.177 334.056a12.411 12.411 0 1 1 14.545-9.825 12.411 12.411 0 0 1-14.545 9.825ZM364.007 94.246a12.46 12.46 0 1 1-2.415-9.425 12.45 12.45 0 0 1 2.415 9.425ZM265.717 164.006a12.46 12.46 0 1 1-10.79-14.12 12.31 12.31 0 0 1 10.79 14.12ZM395.857 243.596a12.31 12.31 0 1 1-9.94-14 12.31 12.31 0 0 1 9.94 14ZM409.377 90.096a12.35 12.35 0 1 1-13.93 10.12 12.18 12.18 0 0 1 13.93-10.12ZM498.107 319.006a12.35 12.35 0 1 1-10-14.05 12.35 12.35 0 0 1 10 14.05ZM292.907 98.596a12.342 12.342 0 1 1-3.24 24.47c-6.65-.68-11.83-7.57-10.74-14.29a12.64 12.64 0 0 1 13.98-10.18ZM539.297 338.816a12.29 12.29 0 0 1-9.82-14.18 12.14 12.14 0 0 1 14.76-9.87 11.94 11.94 0 0 1 9.31 14.4 12.18 12.18 0 0 1-14.25 9.65ZM544.617 212.336a11.89 11.89 0 0 1-14.17 9.56 12.17 12.17 0 0 1-9.73-14.15 12.36 12.36 0 0 1 14.3-9.61 12.06 12.06 0 0 1 9.6 14.2ZM469.697 314.416a12.15 12.15 0 0 1-14 9.91 12.29 12.29 0 0 1-9.85-14.11 12 12 0 0 1 14.06-9.77 11.83 11.83 0 0 1 9.79 13.97ZM418.657 276.466a12.17 12.17 0 0 1-13.91 10.07 12.094 12.094 0 1 1 3.66-23.91 12.35 12.35 0 0 1 10.25 13.84ZM572.257 315.366a12.147 12.147 0 1 1 14.21-9.68 12 12 0 0 1-14.21 9.68ZM521.927 179.006a12.05 12.05 0 0 1-13.92 10.1 11.81 11.81 0 0 1-10-13.22 12.21 12.21 0 0 1 13.54-10.75 12.41 12.41 0 0 1 10.38 13.87ZM571.387 319.686a12 12 0 0 1 10.2 13.8 12.29 12.29 0 0 1-14.09 10 12.1 12.1 0 0 1-9.75-13.48 11.77 11.77 0 0 1 13.64-10.32ZM447.727 109.076a12.111 12.111 0 1 1-10.07-13.86 12.08 12.08 0 0 1 10.07 13.86ZM325.617 75.776a11.77 11.77 0 0 1 10.14 13.65 12.1 12.1 0 0 1-13.87 10 12.37 12.37 0 0 1-9.88-13.34 12 12 0 0 1 13.61-10.31ZM553.627 254.366a12.26 12.26 0 0 1-9.38-14.43 12.07 12.07 0 0 1 14.58-9 11.75 11.75 0 0 1 9 13.83 12 12 0 0 1-14.2 9.6ZM330.427 216.006a11.94 11.94 0 0 1-9.71-14.07 11.66 11.66 0 0 1 13.29-9.65 12.15 12.15 0 0 1 10.4 13.72 12.32 12.32 0 0 1-13.98 10ZM260.467 122.066a12.5 12.5 0 0 1 9.67 14.33 12.07 12.07 0 0 1-14.44 9.27 11.61 11.61 0 0 1-9.22-13.66 12.12 12.12 0 0 1 13.99-9.94ZM591.127 277.136a11.89 11.89 0 0 1-13.14 10 11.68 11.68 0 0 1-10.43-13.42 12 12 0 0 1 13.07-10.14c6.43.59 11.38 7.03 10.5 13.56ZM475.007 141.646a12 12 0 0 1 14.77-8.64 11.71 11.71 0 0 1 8.48 14.17 11.84 11.84 0 0 1-14.7 8.76 12.12 12.12 0 0 1-8.55-14.29ZM251.007 178.116a11.887 11.887 0 0 1-4.57 23.33 11.76 11.76 0 0 1-9.25-14.37 11.58 11.58 0 0 1 13.82-8.96ZM232.267 187.446a12 12 0 0 1-13.95 9 11.71 11.71 0 1 1 5-22.87 11.87 11.87 0 0 1 8.95 13.87ZM236.687 159.906c-1.55 6.21-8.22 10.27-14.18 8.65-6.2-1.69-10.08-8.34-8.38-14.34 1.66-5.84 7.94-9.68 13.69-8.36 6.19 1.42 10.37 8.01 8.87 14.05ZM418.577 304.476a11.57 11.57 0 1 1 1.086 8.889 11.61 11.61 0 0 1-1.086-8.889ZM595.287 347.806a11.58 11.58 0 1 1 13.4-9.358 11.67 11.67 0 0 1-13.4 9.358ZM538.877 343.006a11.56 11.56 0 1 1-13.56 9.31 11.56 11.56 0 0 1 13.56-9.31ZM288.117 196.206a11.27 11.27 0 0 1-13.23 9.63 11.12 11.12 0 0 1-9.56-12.55 11.25 11.25 0 0 1 12.86-10.13 11.38 11.38 0 0 1 9.93 13.05ZM506.777 360.916a11.46 11.46 0 1 1 8.724-1.943 11.54 11.54 0 0 1-8.724 1.943ZM613.557 309.846a11.53 11.53 0 1 1-9.76-13.25 11.71 11.71 0 0 1 9.76 13.25ZM353.387 248.236a11.34 11.34 0 0 1-8.76-13.88 11 11 0 0 1 13.31-8.46 11.25 11.25 0 0 1 8.85 13.79 11.56 11.56 0 0 1-13.4 8.55ZM306.597 188.006a11.48 11.48 0 1 1-13.38 9.68 11.63 11.63 0 0 1 13.38-9.68ZM562.677 370.446a11.7 11.7 0 0 1-9.12-13.67 11.56 11.56 0 1 1 9.12 13.67ZM465.487 100.546a11.58 11.58 0 1 1-13.33 9.5 11.58 11.58 0 0 1 13.33-9.5ZM482.917 333.586a11.32 11.32 0 0 1 9.45 13.42 11.53 11.53 0 0 1-13.07 9.09 11.69 11.69 0 0 1-9.5-13.53 11.51 11.51 0 0 1 13.12-8.98ZM213.477 224.186a11.68 11.68 0 0 1-9.06-13.12 11.49 11.49 0 0 1 13.65-9.2 11.33 11.33 0 0 1 8.85 13.81 11.51 11.51 0 0 1-13.44 8.51ZM581.637 361.626a11 11 0 0 1 13.22-8.57 11.15 11.15 0 0 1 8.71 13.2 11.52 11.52 0 0 1-13.33 8.75 11.34 11.34 0 0 1-8.6-13.38ZM382.917 80.676a11.33 11.33 0 0 1-9.53-12.67 10.94 10.94 0 0 1 12.56-9.52 11.17 11.17 0 0 1 9.66 12.52 11.53 11.53 0 0 1-12.69 9.67ZM548.537 184.116a11.46 11.46 0 0 1-13.25 8.89 11.28 11.28 0 0 1-8.5-13.41 10.93 10.93 0 0 1 12.66-8.4 11.18 11.18 0 0 1 9.09 12.92ZM596.087 278.006a11 11 0 0 1 13.07-8.6 11.21 11.21 0 0 1 8.73 13 11.46 11.46 0 0 1-13.17 8.72 11.27 11.27 0 0 1-8.63-13.12ZM357.887 53.776a11 11 0 0 1 9.38 12.59 11.22 11.22 0 0 1-12.82 9.23 11.44 11.44 0 0 1-9.11-12.27 11.19 11.19 0 0 1 12.55-9.55ZM199.207 209.926a11.47 11.47 0 0 1-12.75 9.37 11.28 11.28 0 0 1-9.27-12.75 10.94 10.94 0 0 1 12.63-9.25 11.19 11.19 0 0 1 9.39 12.63ZM594.867 249.766a10.93 10.93 0 0 1-13.22 8.45 11.31 11.31 0 0 1-8.49-13.32 11.43 11.43 0 0 1 13.37-8.49 11.1 11.1 0 0 1 8.34 13.36ZM464.007 342.126a11.34 11.34 0 0 1-13.24 8.75 11.1 11.1 0 0 1-8.31-13.43 10.76 10.76 0 0 1 12.55-8.32 11 11 0 0 1 9 13ZM623.647 351.936a10.7 10.7 0 0 1-9.16-12.59 11.21 11.21 0 0 1 12.63-9.34 11.5 11.5 0 0 1 9.28 12.82 11.09 11.09 0 0 1-12.75 9.11ZM377.157 280.896a11 11 0 0 1-9.15-12.75 10.85 10.85 0 0 1 12.66-9.22 11.32 11.32 0 0 1 9.34 12.71 11.44 11.44 0 0 1-12.85 9.26ZM264.837 95.006a11.118 11.118 0 0 1-3.19 22 11.115 11.115 0 1 1 3.19-22ZM293.887 93.436a10.83 10.83 0 0 1-8.72-13 11.08 11.08 0 0 1 12.44-8.64 11.31 11.31 0 0 1 9.26 12.77 11.09 11.09 0 0 1-12.98 8.87ZM562.467 204.006a11.128 11.128 0 1 1-12.56 9.28 10.81 10.81 0 0 1 12.56-9.28ZM401.767 72.096a10.8 10.8 0 0 1 13.13-8.54 11 11 0 0 1 8.51 12.56 11.37 11.37 0 0 1-12.95 9.15 11.16 11.16 0 0 1-8.69-13.17ZM191.447 191.006a11.021 11.021 0 0 1 3.05-21.83c5.87.76 10.37 7 9.32 12.86a11.27 11.27 0 0 1-12.37 8.97ZM412.577 304.006a11 11 0 1 1-3.3-11.258 10.95 10.95 0 0 1 3.3 11.258ZM640.847 315.196a10.73 10.73 0 0 1-13.23 8.36 10.6 10.6 0 0 1-8.08-12.7c1.24-6.2 6.89-9.78 13.18-8.35a10.68 10.68 0 0 1 8.13 12.69ZM525.337 151.126a10.76 10.76 0 1 1-9-12.78 11 11 0 0 1 9 12.78ZM181.007 246.646a10.65 10.65 0 1 1 12.8-7.91 10.65 10.65 0 0 1-12.8 7.91ZM631.067 370.376a10.54 10.54 0 0 1-12.16 8.94 10.67 10.67 0 0 1-8.85-12.26 10.87 10.87 0 0 1 12.22-9 10.7 10.7 0 0 1 8.79 12.32ZM241.007 131.006a10.54 10.54 0 0 1-12.23 8.84 10.67 10.67 0 0 1-8.74-12.34 10.83 10.83 0 0 1 12.29-8.89 10.69 10.69 0 0 1 8.68 12.39ZM241.287 228.056a10.59 10.59 0 0 1-7.77-12.88 10.83 10.83 0 0 1 12.94-7.82c5.54 1.46 9.24 7.59 7.83 13a10.8 10.8 0 0 1-13 7.7ZM212.847 230.656a10.61 10.61 0 0 1 8.48 12.41 10.44 10.44 0 0 1-12.57 8.15 10.21 10.21 0 0 1-8.09-11.86 10.37 10.37 0 0 1 12.18-8.7ZM489.947 127.006a10.51 10.51 0 0 1-8.85-12.18 10.69 10.69 0 0 1 11.81-8.48 10.39 10.39 0 0 1 8.73 12.23 10.25 10.25 0 0 1-11.69 8.43ZM655.277 335.746a10.36 10.36 0 0 1 8.49 11.66 10.72 10.72 0 0 1-12.24 8.83 10.5 10.5 0 0 1-8.23-12.57 10.14 10.14 0 0 1 11.98-7.92ZM438.387 89.286a10.2 10.2 0 0 1-8-12.58 10.65 10.65 0 0 1 12-8.09 10.84 10.84 0 0 1 8.52 12.47 10.36 10.36 0 0 1-12.52 8.2ZM533.837 372.126a10.39 10.39 0 0 1 8.28 12.47 10.26 10.26 0 0 1-11.92 8 10.51 10.51 0 0 1-8.53-11.59 10.64 10.64 0 0 1 12.17-8.88ZM558.217 397.356a10.28 10.28 0 0 1-8.28-11.81 10.44 10.44 0 0 1 11.63-8.6 10.66 10.66 0 0 1 8.68 12.34 10.53 10.53 0 0 1-12.03 8.07ZM338.877 61.576a10 10 0 0 1-11.45 8.43 10.25 10.25 0 0 1-9-11.85 10.69 10.69 0 0 1 12.36-8.48 10.47 10.47 0 0 1 8.09 11.9ZM153.457 241.566a10.11 10.11 0 0 1-8.24-11.74 10.26 10.26 0 0 1 11.5-8.65 10.56 10.56 0 0 1 8.69 12.28 10.45 10.45 0 0 1-11.95 8.11ZM645.067 286.856a10 10 0 0 1-11.77 8.15 10.24 10.24 0 0 1-8.56-11.55 10.6 10.6 0 0 1 12.34-8.63 10.41 10.41 0 0 1 7.99 12.03ZM514.007 379.476a10.1 10.1 0 0 1-11.74 8.25 10.333 10.333 0 1 1 3.87-20.3 10.27 10.27 0 0 1 7.87 12.05ZM435.007 337.006a9.91 9.91 0 0 1-11.72 8.14 10.22 10.22 0 0 1-8.51-11.58 10.55 10.55 0 0 1 12.35-8.6 10.24 10.24 0 0 1 7.88 12.04ZM150.127 201.496a10.19 10.19 0 0 1 11.68-8.27 10.4 10.4 0 0 1 8.29 12.45 10.14 10.14 0 0 1-12.09 7.63 9.88 9.88 0 0 1-7.88-11.81ZM325.647 242.126a9.88 9.88 0 0 1-8-11.75 10.21 10.21 0 0 1 11.58-8.37 10.47 10.47 0 0 1 8.45 12.4 10.18 10.18 0 0 1-12.03 7.72ZM656.347 327.896a10.32 10.32 0 0 1-8.14-11.89 10.48 10.48 0 0 1 11.91-8.24 10.74 10.74 0 0 1 8.21 12 10.51 10.51 0 0 1-11.98 8.13ZM207.627 154.186a10.08 10.08 0 0 1-11.62 8.37 10.23 10.23 0 0 1-8.27-11.76 10.34 10.34 0 0 1 11.7-8.41 10.23 10.23 0 0 1 8.19 11.8ZM647.337 383.486a11.67 11.67 0 1 1 .04 0ZM597.547 393.716a10.07 10.07 0 1 1-1.648-7.61 10 10 0 0 1 1.648 7.61ZM466.117 371.066a10.09 10.09 0 1 1 8.22 11.646 10.14 10.14 0 0 1-8.22-11.646ZM613.757 242.296a10 10 0 1 1-11.86 7.8 9.8 9.8 0 0 1 11.86-7.8ZM598.657 221.456a10.31 10.31 0 0 1-11.18 8.15c-5.28-.69-9.41-6.38-8.45-11.66a10 10 0 1 1 19.63 3.51ZM169.007 261.546a9.87 9.87 0 1 1 6.82 11.8 9.58 9.58 0 0 1-6.82-11.8ZM160.007 261.296a9.5 9.5 0 0 1-11.47 7.27 9.61 9.61 0 0 1-7.58-11.31 9.76 9.76 0 0 1 12-7.62 9.63 9.63 0 0 1 7.05 11.66ZM679.147 360.006a9.31 9.31 0 0 1-7.45-11.28 9.74 9.74 0 0 1 11.31-7.62 10 10 0 0 1 7.52 11.48 9.59 9.59 0 0 1-11.38 7.42ZM174.277 177.256a9.44 9.44 0 0 1-11.27 7.47 9.63 9.63 0 0 1-7.54-11.35 9.79 9.79 0 0 1 11.42-7.51 9.58 9.58 0 0 1 7.39 11.39ZM262.517 220.706a9.38 9.38 0 0 1 11.3-7.44 9.54 9.54 0 0 1 7.57 11.29 9.89 9.89 0 0 1-11.38 7.57 9.67 9.67 0 0 1-7.49-11.42ZM458.867 81.936a9.37 9.37 0 0 1 11.28-7.37 9.54 9.54 0 0 1 7.49 11.27 9.93 9.93 0 0 1-11.39 7.5 9.66 9.66 0 0 1-7.38-11.4ZM606.397 395.526a9.29 9.29 0 0 1 10.7-8.16 9.73 9.73 0 0 1 8.28 10.76 9.87 9.87 0 0 1-10.88 8.19 9.44 9.44 0 0 1-8.1-10.79ZM556.277 185.006a9.3 9.3 0 0 1 11.24-7.48 9.62 9.62 0 0 1 7.63 11.25 10.07 10.07 0 0 1-11.41 7.62 9.67 9.67 0 0 1-7.46-11.39ZM533.127 152.686a9.58 9.58 0 0 1 10.94-8 9.82 9.82 0 0 1 7.65 10.56 9.61 9.61 0 0 1-11 8 9.49 9.49 0 0 1-7.59-10.56ZM136.427 228.376a9.24 9.24 0 0 1-11.17 7.49 9.56 9.56 0 0 1-7.48-10.61 9.44 9.44 0 0 1 11-7.88 9.12 9.12 0 0 1 7.65 11ZM664.317 280.506a9.2 9.2 0 0 1 7.89 11 9.48 9.48 0 0 1-10.48 7.77 9.75 9.75 0 0 1-8-11.14 9.41 9.41 0 0 1 10.59-7.63ZM277.157 79.246a9.26 9.26 0 0 1-10.22 7.91 9.45 9.45 0 0 1-8.46-10.6 9.75 9.75 0 0 1 11.13-7.89 9.46 9.46 0 0 1 7.55 10.58ZM290.717 225.846a9.22 9.22 0 0 1 11-7.67 9.44 9.44 0 0 1 7.5 11.26 9.85 9.85 0 0 1-10.73 7.46 9.52 9.52 0 0 1-7.77-11.05ZM446.797 377.266a9.35 9.35 0 1 1 8.914-3.239 9.35 9.35 0 0 1-8.914 3.239ZM677.907 369.196a9.25 9.25 0 1 1-10.69 7.3 9.4 9.4 0 0 1 10.69-7.3ZM695.537 324.236a9.27 9.27 0 1 1-1.741-7.12 9.28 9.28 0 0 1 1.741 7.12ZM141.007 200.286a9.12 9.12 0 1 1-7-10.76 9.12 9.12 0 0 1 7 10.76ZM197.087 267.296a10.971 10.971 0 1 0 0-.03ZM226.367 99.726a9.14 9.14 0 1 1 7.3 10.65 9.35 9.35 0 0 1-7.3-10.65ZM349.237 273.876a9 9 0 1 1 10.64-7.21 9.11 9.11 0 0 1-10.64 7.21ZM113.497 252.756a9.12 9.12 0 1 1 7.23 10.66 9.29 9.29 0 0 1-7.23-10.66ZM638.307 266.326a9.11 9.11 0 0 1-7.55-10.4 9 9 0 0 1 10.37-7.53 8.79 8.79 0 0 1 7.51 10.34 9 9 0 0 1-10.33 7.59ZM387.857 50.386a9.44 9.44 0 0 1-7.55-10.55 9.3 9.3 0 0 1 10.7-7.28 9.09 9.09 0 0 1 7.15 10 9.2 9.2 0 0 1-10.3 7.83ZM299.007 63.876a9.18 9.18 0 0 1-7.26-10.72c1.09-4.78 6.34-8.12 11-7a9.36 9.36 0 0 1 6.88 10.36 9 9 0 0 1-10.62 7.36ZM237.527 254.476a8.57 8.57 0 0 1-7.14-9.78 8.73 8.73 0 0 1 10.2-7.58 9.09 9.09 0 0 1 7.29 9.86 8.93 8.93 0 0 1-10.35 7.5ZM518.107 130.266a8.65 8.65 0 0 1-7.36-9.71 8.833 8.833 0 1 1 7.36 9.71ZM642.117 410.246a8.63 8.63 0 0 1-7-10 8.81 8.81 0 0 1 10.45-7.36 9.06 9.06 0 0 1 7 10.07 8.88 8.88 0 0 1-10.45 7.29ZM375.767 289.006a8.53 8.53 0 0 1 6.95 10 8.7 8.7 0 0 1-9.85 7.22 8.94 8.94 0 0 1-7.36-10.53 8.8 8.8 0 0 1 10.26-6.69ZM418.467 37.646a8.56 8.56 0 0 1 7.5 9.59 8.75 8.75 0 0 1-10.25 7.66 9 9 0 0 1-7.12-10 8.76 8.76 0 0 1 9.87-7.25ZM144.147 295.716a8.4 8.4 0 0 1-7.1-9.77 8.94 8.94 0 0 1 10.29-7.6 9.45 9.45 0 0 1 7.23 10 8.88 8.88 0 0 1-10.42 7.37ZM182.317 293.306a8.35 8.35 0 0 1-9.75 7.23 8.77 8.77 0 0 1-7.63-9.58 9.24 9.24 0 0 1 10.37-7.74 8.86 8.86 0 0 1 7.01 10.09ZM528.877 402.006a8.56 8.56 0 0 1 6.86 10 8.88 8.88 0 0 1-9.87 7.19 9.06 9.06 0 0 1-7.24-10.59 8.77 8.77 0 0 1 10.25-6.6ZM211.007 126.176a8.29 8.29 0 0 1-10 6.76 8.76 8.76 0 0 1-7.17-9.89 9.179 9.179 0 0 1 10.69-7.25 8.83 8.83 0 0 1 6.48 10.38ZM710.727 347.006a8.6 8.6 0 0 1 6.88 10.09 8.9 8.9 0 0 1-10.16 7 9.13 9.13 0 0 1-6.92-10.25 8.77 8.77 0 0 1 10.2-6.84ZM715.757 318.926a8.82 8.82 0 0 1 6.57 10.31 8.73 8.73 0 0 1-10.23 6.62 8.92 8.92 0 0 1-6.65-10.28c1.02-4.44 5.96-7.63 10.31-6.65ZM557.437 407.006a8.7 8.7 0 0 1 6.15 10.44c-1.27 4.46-6.23 7.35-10.52 6.13a8.569 8.569 0 1 1 4.37-16.57ZM690.007 303.086a8.27 8.27 0 0 1-7.37-9.6 8.65 8.65 0 0 1 9.62-7.51 8.94 8.94 0 0 1 7.47 9.77 8.58 8.58 0 0 1-9.72 7.34ZM107.897 223.196a8.464 8.464 0 1 1-6.8-9.85 8.47 8.47 0 0 1 6.8 9.85ZM352.737 35.136a8.29 8.29 0 0 1 9.76-7 8.72 8.72 0 0 1 7.41 9.61 8.84 8.84 0 0 1-10.37 7.41 8.52 8.52 0 0 1-6.8-10.02ZM624.767 226.216a8.51 8.51 0 0 1-10.25 6.6 8.6 8.6 0 0 1-6.4-9.75 8.74 8.74 0 0 1 10-7.11 8.62 8.62 0 0 1 6.65 10.26ZM507.397 407.456a8.57 8.57 0 0 1-10.3 6.55 8.7 8.7 0 0 1-6.33-9.82 8.48 8.48 0 1 1 16.63 3.27ZM395.347 338.606a8.27 8.27 0 0 1-6.62-10.12 8.43 8.43 0 0 1 9.51-6.62 8.52 8.52 0 0 1 7.11 9.9 8.32 8.32 0 0 1-10 6.84ZM116.567 290.656a7.387 7.387 0 1 0 0-.04ZM138.457 162.356a8.5 8.5 0 0 1 6.8 9.4 8.41 8.41 0 0 1-10 6.88 8.31 8.31 0 0 1-6.76-9.36 8.41 8.41 0 0 1 9.96-6.92ZM161.467 145.796a8.38 8.38 0 1 1 6.54 9.886 8.379 8.379 0 0 1-6.535-9.886ZM93.647 257.656a7.91 7.91 0 0 1-7-8.92 8.27 8.27 0 1 1 7 8.92ZM105.897 185.896a8 8 0 0 1 6.56 9.28 8.3 8.3 0 0 1-9.2 6.8 8.11 8.11 0 0 1-6.8-9.83 7.78 7.78 0 0 1 9.44-6.25ZM574.907 418.796a8.29 8.29 0 0 1 9.06-7 8.47 8.47 0 0 1 7 9.81 8.09 8.09 0 0 1-9.43 6.4 7.88 7.88 0 0 1-6.63-9.21ZM666.477 270.126a8.31 8.31 0 0 1-6.89-9.16 8.71 8.71 0 0 1 9.91-6.95 8.48 8.48 0 0 1 6.34 9.59 8.1 8.1 0 0 1-9.36 6.52ZM497.687 80.876a8.06 8.06 0 0 1 6.57 9.28 8.44 8.44 0 0 1-9.43 6.53 8.05 8.05 0 0 1-6.4-9.4 7.7 7.7 0 0 1 9.26-6.41ZM469.567 408.536a7.88 7.88 0 0 1-6.33-9.49 8.4 8.4 0 0 1 9-6.27 8.12 8.12 0 0 1 6.68 9.34 7.64 7.64 0 0 1-9.35 6.42ZM203.007 289.006a7.71 7.71 0 0 1 6.07 9.59 8 8 0 0 1-9 6.17 8.41 8.41 0 0 1-6.68-9.44 8.09 8.09 0 0 1 9.61-6.32ZM453.097 52.206a7.73 7.73 0 0 1-9.09 6.65 8.11 8.11 0 0 1-6.48-9.4 8.29 8.29 0 0 1 8.85-6.34 7.82 7.82 0 0 1 6.72 9.09ZM421.837 355.556a7.87 7.87 0 0 1 6.17 9.45 8.11 8.11 0 0 1-9 6 7.89 7.89 0 0 1-6.53-9.25 7.71 7.71 0 0 1 9.36-6.2ZM601.257 193.006a7.87 7.87 0 0 1-8.62 6.49 8.15 8.15 0 0 1-6.69-9.25 7.86 7.86 0 0 1 9.49-6.2 7.56 7.56 0 0 1 5.82 8.96ZM325.937 30.746a7.79 7.79 0 0 1 9.14-6.65 8.09 8.09 0 0 1 6.2 8.85 7.94 7.94 0 0 1-9.23 6.6 7.68 7.68 0 0 1-6.11-8.8ZM720.087 291.636a8 8 0 0 1 6.51 9.29c-.84 4.14-5.53 7.22-9.56 6.29a7.93 7.93 0 0 1-6-8.95 7.57 7.57 0 0 1 9.05-6.63ZM696.707 381.576a7.58 7.58 0 0 1 9.44-6.08 8 8 0 0 1 6.13 8.87 8.38 8.38 0 0 1-9.27 6.64 7.94 7.94 0 0 1-6.3-9.43ZM670.007 413.706a7.5 7.5 0 1 1 7.3-2.284 7.5 7.5 0 0 1-7.3 2.284ZM139.347 322.466a7.52 7.52 0 0 1-6-8.85 7.63 7.63 0 0 1 9-5.72 7.54 7.54 0 0 1 5.9 8.88 7.44 7.44 0 0 1-8.9 5.69ZM97.697 278.706a8.16 8.16 0 0 1-8.63 6.58 8 8 0 0 1-6.78-8.42 7.79 7.79 0 0 1 9-6.86 8 8 0 0 1 6.41 8.7ZM618.347 426.006a7.526 7.526 0 1 1-6.21-8.64 7.38 7.38 0 0 1 6.21 8.64ZM116.517 166.816a7.63 7.63 0 0 1-8.58 6.33 7.48 7.48 0 0 1 2.1-14.8 7.59 7.59 0 0 1 6.48 8.47ZM694.927 274.366a7.62 7.62 0 0 1-6.47-8.51 7.35 7.35 0 0 1 7.91-6.2 7.46 7.46 0 0 1 6.95 8.06 7.71 7.71 0 0 1-8.39 6.65ZM111.297 317.436a7 7 0 0 1-5.59-8.22 7.19 7.19 0 0 1 8.69-6 7.45 7.45 0 0 1 5.67 8.3 7.27 7.27 0 0 1-8.77 5.92ZM743.007 324.906a7.38 7.38 0 1 1-2.37 14.56 7.08 7.08 0 0 1-6-8 7.16 7.16 0 0 1 8.37-6.56ZM643.707 236.436a7.29 7.29 0 0 1-6.37-8.43 7.43 7.43 0 0 1 8.06-6 7.2 7.2 0 0 1 6.28 8.47 7 7 0 0 1-7.97 5.96ZM170.557 312.866a7.41 7.41 0 0 1 5.63 8.4 7.3 7.3 0 0 1-8.92 5.84 7.45 7.45 0 0 1-5.7-8.37 7.57 7.57 0 0 1 8.99-5.87ZM70.267 224.206a7.18 7.18 0 0 1-6-8 7.31 7.31 0 0 1 8.57-6.32 7.53 7.53 0 0 1 6.11 8.11 7.39 7.39 0 0 1-8.68 6.21ZM143.237 135.596a7.14 7.14 0 0 1 5.46 8.46 7.53 7.53 0 0 1-8.59 5.46 7.22 7.22 0 0 1-5.35-8.58 6.92 6.92 0 0 1 8.48-5.34ZM744.327 361.556a7.59 7.59 0 0 1-8.2 6 7.32 7.32 0 0 1-5.93-8.83 6.93 6.93 0 0 1 8.4-5.39 7.18 7.18 0 0 1 5.73 8.22ZM753.897 305.066a7.06 7.06 0 0 1-7.94 6 6.84 6.84 0 0 1-6.13-7.78 7.17 7.17 0 0 1 7.88-6.19 7.49 7.49 0 0 1 6.19 7.97ZM65.397 251.796a7 7 0 0 1-5.61-8.22 6.82 6.82 0 0 1 8-5.87 7.23 7.23 0 0 1 6.1 8.61 7.57 7.57 0 0 1-8.49 5.48ZM247.007 74.606a7.12 7.12 0 0 1-8.44 5.34 7.43 7.43 0 0 1-5.3-7.86 7.16 7.16 0 0 1 8.19-5.72 7 7 0 0 1 5.55 8.24ZM279.407 51.776a6.78 6.78 0 0 1-8.48 5.15 6.64 6.64 0 0 1-4.92-8.58 6.86 6.86 0 0 1 7.94-5 7.07 7.07 0 0 1 5.46 8.43ZM724.337 264.906a7 7 0 0 1 5.94 8 7.13 7.13 0 0 1-7.61 5.6 6.87 6.87 0 1 1 1.67-13.63ZM577.397 160.086a7.15 7.15 0 0 1-8.28 5.73 7.43 7.43 0 0 1-5.76-8.34 7.2 7.2 0 0 1 8.35-5.62 7 7 0 0 1 5.69 8.23ZM83.307 190.476a7 7 0 0 1-8.42 5.33 6.77 6.77 0 0 1-5.38-8.3 7.09 7.09 0 0 1 8.34-5.5 7.49 7.49 0 0 1 5.46 8.47ZM450.177 397.186a6.841 6.841 0 1 1-13.49-2.28 7.18 7.18 0 0 1 7.51-5.61 7 7 0 0 1 5.98 7.89ZM235.757 266.786a6.87 6.87 0 1 1-8.139 5.055 6.87 6.87 0 0 1 8.139-5.055ZM529.187 439.006a6.792 6.792 0 1 1-5.73-7.43 6.86 6.86 0 0 1 5.73 7.43ZM91.587 307.056a6.78 6.78 0 0 1-7.84 5.08 6.61 6.61 0 0 1-4.91-7.89 6.47 6.47 0 0 1 7.76-5.05 6.66 6.66 0 0 1 4.99 7.86ZM557.007 444.266a6.82 6.82 0 0 1-7.67 5.24 6.89 6.89 0 0 1-5.39-8.26 6.76 6.76 0 0 1 8-4.68 6.54 6.54 0 0 1 5.06 7.7ZM273.537 252.146a6.8 6.8 0 0 1-7.76 5.11 6.7 6.7 0 0 1-5-8.45 6.61 6.61 0 0 1 8-4.64 6.77 6.77 0 0 1 4.76 7.98ZM329.007 262.006a6.6 6.6 0 0 1-8 4.61 6.74 6.74 0 0 1-4.5-8.18 6.64 6.64 0 0 1 8.11-4.56 6.47 6.47 0 0 1 4.39 8.13ZM181.007 120.406a6.64 6.64 0 1 1-13.13-1.9 6.46 6.46 0 0 1 7.5-5.4 6.38 6.38 0 0 1 5.63 7.3ZM197.397 318.336a6.5 6.5 0 0 1 5.61 7.47 6.73 6.73 0 0 1-7.65 5.42 7 7 0 0 1-5.29-7.09 6.73 6.73 0 0 1 7.33-5.8ZM60.727 279.236a6.68 6.68 0 0 1-5.24-7.62 6.38 6.38 0 0 1 7.59-5.16 6.2 6.2 0 0 1 5.18 7.5 6.52 6.52 0 0 1-7.53 5.28ZM208.467 89.946a6.5 6.5 0 0 1 5.37 7.54 6.39 6.39 0 0 1-7.56 5.31 6.28 6.28 0 0 1-5.33-7.5 6.39 6.39 0 0 1 7.52-5.35ZM640.277 423.116a6.91 6.91 0 0 1 5.12 7.77 6.38 6.38 0 0 1-7.63 5.07 6.62 6.62 0 0 1-5.23-7.6 7.1 7.1 0 0 1 7.74-5.24ZM87.367 161.776a6.29 6.29 0 0 1-6.69 5.49 6.365 6.365 0 1 1 6.69-5.49ZM553.567 127.056a6.65 6.65 0 0 1-7.34 5.63 6.41 6.41 0 0 1 1.43-12.68 6.59 6.59 0 0 1 5.91 7.05ZM479.347 57.006a6.391 6.391 0 1 1-5.26-7.57 6.55 6.55 0 0 1 5.26 7.57ZM493.007 439.486a6.43 6.43 0 0 1-4.53-8 6.15 6.15 0 0 1 7.41-4.23 6.37 6.37 0 0 1 4.8 7.1 6.66 6.66 0 0 1-7.68 5.13ZM584.377 448.866c-.65 3.35-4.57 5.86-7.77 5a6.46 6.46 0 0 1-4.57-7.31 6.15 6.15 0 0 1 7.67-4.87 6.36 6.36 0 0 1 4.67 7.18ZM114.727 131.526a6.65 6.65 0 0 1 5.53 6.7 6.26 6.26 0 0 1-6.52 5.58 6.11 6.11 0 0 1-5.83-7 6.31 6.31 0 0 1 6.82-5.28ZM304.487 33.096a6.18 6.18 0 1 1 2.42-12.09 6.64 6.64 0 0 1 4.65 7.25 6.44 6.44 0 0 1-7.07 4.84ZM678.717 235.096a6.19 6.19 0 0 1-6.75 5.28 6.54 6.54 0 0 1-5.65-7.3 6.37 6.37 0 0 1 7.66-5 6 6 0 0 1 4.74 7.02ZM757.517 277.666a5.85 5.85 0 0 1-6.93 4.86 6.06 6.06 0 0 1-5.18-6.77 6.48 6.48 0 0 1 7.5-5.32 6.22 6.22 0 0 1 4.61 7.23ZM622.307 190.496a6 6 0 1 1-6.92 5.09 6.17 6.17 0 0 1 6.92-5.09ZM134.887 348.796a6.42 6.42 0 0 1-4.7-7.18 6.55 6.55 0 0 1 7.19-4.73 6.084 6.084 0 0 1-2.49 11.91ZM774.197 314.856a5.92 5.92 0 1 1 1.74-11.711 6.29 6.29 0 0 1 4.88 6.331 6.15 6.15 0 0 1-6.62 5.38ZM42.737 218.006a5.49 5.49 0 0 1-5-6.08 5.63 5.63 0 0 1 6.51-5.42 5.75 5.75 0 0 1 5 6.9 5.67 5.67 0 0 1-6.51 4.6ZM107.367 343.836a5.93 5.93 0 0 1-5-6.1 5.78 5.78 0 0 1 6.42-5.43 5.809 5.809 0 0 1-1.42 11.53ZM775.877 338.296a6 6 0 1 1-4.8-7 6 6 0 0 1 4.8 7ZM706.357 239.896a5.89 5.89 0 0 1-6.46 4.56 5.47 5.47 0 0 1-4.8-6.15 5.58 5.58 0 0 1 6.76-5 6 6 0 0 1 4.5 6.59ZM39.627 234.296a5.76 5.76 0 0 1 4.73 6.31 5.83 5.83 0 0 1-6.92 4.86 5.71 5.71 0 0 1-4.21-6.65 5.59 5.59 0 0 1 6.4-4.52ZM49.007 178.506a5.93 5.93 0 0 1 4.86 6.18 5.48 5.48 0 0 1-5.93 5 5.33 5.33 0 0 1-5.17-6.41 5.87 5.87 0 0 1 6.24-4.77ZM169.687 348.886a5.87 5.87 0 0 1-6.56 4.48c-3.12-.6-5.46-4.34-4.56-7.29a6.09 6.09 0 0 1 7-3.93 5.72 5.72 0 0 1 4.12 6.74ZM293.837 260.876a5.68 5.68 0 0 1-4.27-6.52 5.8 5.8 0 0 1 7.22-4.28 5.57 5.57 0 0 1 3.69 6.85 5.37 5.37 0 0 1-6.64 3.95ZM151.777 116.316a5.45 5.45 0 0 1-6.83 3.65 5.16 5.16 0 0 1-3.74-6.68 5.59 5.59 0 0 1 6.75-3.8 5.78 5.78 0 0 1 3.82 6.83ZM733.667 382.516a5.83 5.83 0 0 1 4.17 6.64 5.49 5.49 0 0 1-6.61 4 5.23 5.23 0 0 1-4.12-6.47 5.67 5.67 0 0 1 6.56-4.17ZM607.537 447.006a5.68 5.68 0 0 1 4 6.76 5.27 5.27 0 0 1-6.65 3.93 5.45 5.45 0 0 1-4.08-6.61 5.81 5.81 0 0 1 6.73-4.08ZM524.887 87.906a5.84 5.84 0 0 1 5 6.12 5.47 5.47 0 0 1-6.08 4.85 5.26 5.26 0 0 1-4.93-5.94 5.71 5.71 0 0 1 6.01-5.03ZM62.247 302.456a5.35 5.35 0 1 1-10-3.67 5.41 5.41 0 0 1 6.41-3.24 5.61 5.61 0 0 1 3.59 6.91ZM729.297 238.316a5.66 5.66 0 0 1 4.16 6.69 5.55 5.55 0 0 1-6.13 3.94 5.73 5.73 0 0 1-4.36-5.88 5.79 5.79 0 0 1 6.33-4.75ZM698.267 416.306a5.67 5.67 0 0 1-4-6c.47-2.76 3.87-5 6.51-4.26a5.295 5.295 0 1 1-2.54 10.28ZM784.767 282.476a5.65 5.65 0 0 1-5.91 4.21 5.47 5.47 0 0 1-4.34-6.46 5.08 5.08 0 0 1 5.83-4.11 5.29 5.29 0 0 1 4.42 6.36ZM394.717 8.126a5.18 5.18 0 0 1 4.46 6.25 5.19 5.19 0 0 1-10.3-1.26 5.24 5.24 0 0 1 5.84-4.99ZM228.437 306.656a5 5 0 0 1-4.15-5.73 5.29 5.29 0 0 1 6.2-4.6 5.42 5.42 0 0 1 4.21 5.85 5.22 5.22 0 0 1-6.26 4.48ZM90.927 134.006a5.1 5.1 0 0 1-10-1.83 5.093 5.093 0 1 1 10 1.83ZM757.467 243.516a5.09 5.09 0 1 1-6.08 3.86 5.43 5.43 0 0 1 6.08-3.86ZM38.917 268.496a5.08 5.08 0 1 1-4.543-5.313 5.073 5.073 0 0 1 4.543 5.313ZM79.537 338.096a4.914 4.914 0 0 1 1.81-9.66 4.85 4.85 0 0 1 4 5.76 4.78 4.78 0 0 1-5.81 3.9ZM467.227 423.676a4.73 4.73 0 0 1 3.91 5.74 4.88 4.88 0 0 1-5.74 4 5 5 0 0 1-3.95-5.82 4.83 4.83 0 0 1 5.78-3.92ZM426.897 19.336a4.89 4.89 0 0 1-6.25 3.27 4.47 4.47 0 0 1-3-5.61 4.79 4.79 0 0 1 5.36-3.63 5.27 5.27 0 0 1 3.89 5.97ZM54.267 151.376a4.94 4.94 0 0 1 3.52 6.13 4.87 4.87 0 0 1-5.53 3.4 5 5 0 0 1-4-5.81 5.07 5.07 0 0 1 6.01-3.72ZM367.117 3.656a5.08 5.08 0 0 1 3.58 6.1 4.68 4.68 0 0 1-5.37 3.51 4.78 4.78 0 0 1-4.11-5.66 5.2 5.2 0 0 1 5.9-3.95ZM119.857 105.576a4.68 4.68 0 0 1 3.57 5.41 5 5 0 0 1-5.36 3.79 4.88 4.88 0 0 1-3.8-6 4.55 4.55 0 0 1 5.59-3.2ZM671.297 435.636a4.75 4.75 0 0 1-5.62 3.24 4.45 4.45 0 0 1-3.57-5.32c.51-2.64 3.62-4.57 6-3.71a5.18 5.18 0 0 1 3.19 5.79ZM192.587 348.126a4.75 4.75 0 0 1 3.7 5.28 4.37 4.37 0 0 1-5 4 4.71 4.71 0 0 1-4.16-5.63 5.08 5.08 0 0 1 5.46-3.65ZM764.707 369.756a4.71 4.71 0 0 1-4.22-5.58 5.2 5.2 0 0 1 5.24-3.93 4.92 4.92 0 0 1 4.13 5.71 4.5 4.5 0 0 1-5.15 3.8ZM396.667 359.426a4.874 4.874 0 1 1-3.3-5.46 4.55 4.55 0 0 1 3.3 5.46ZM602.707 164.406a4.39 4.39 0 0 1-5.23 3.5 4.48 4.48 0 0 1-3.08-5.51 4.67 4.67 0 0 1 4.77-3.23 4.59 4.59 0 0 1 3.54 5.24ZM179.777 87.146a4.67 4.67 0 0 1 3.88 5.09 4.441 4.441 0 1 1-3.88-5.09ZM788.567 254.766a4.42 4.42 0 0 1-8.42-2.59 4.52 4.52 0 0 1 5.56-3 4.36 4.36 0 0 1 2.86 5.59ZM573.007 479.946a4.24 4.24 0 1 1 4.78-3.62 4.26 4.26 0 0 1-4.78 3.62ZM638.427 458.376a4.34 4.34 0 1 1-.473-3.377 4.37 4.37 0 0 1 .473 3.377ZM650.487 197.006a4.34 4.34 0 0 1 3 5.52 4.55 4.55 0 0 1-4.83 3.07 4.48 4.48 0 0 1-3.44-5.29 4.31 4.31 0 0 1 5.27-3.3ZM550.007 471.636a4.24 4.24 0 0 1-5.21 3.58 4.33 4.33 0 1 1 5.21-3.58ZM347.417 296.836a13.47 13.47 0 0 1-5.41-6c1-2.25 2.62-3.19 4.59-2.8a6.14 6.14 0 0 1 3.22 2c1.98 2.33 1.28 4.22-2.4 6.8ZM414.427 395.316a4.53 4.53 0 0 1-3.21-4.79 4.26 4.26 0 0 1 5.44-3.11 4 4 0 0 1 2.68 5 4.24 4.24 0 0 1-4.91 2.9ZM504.947 61.666a4.15 4.15 0 0 1-4.9 3 4.25 4.25 0 0 1-3-5 4.07 4.07 0 0 1 7.88 2ZM370.007 329.806c-1.92-2.11-3.65-4.32-4-7.3 4.23-1.91 6.08-1.66 7.45.92s.55 4.39-3.45 6.38ZM16.457 203.726a3.9 3.9 0 0 1 2.42 5.11 3.9 3.9 0 1 1-2.42-5.11ZM806.317 314.166a3.72 3.72 0 0 1-4.46 3.32 4 4 0 0 1-3.27-3.84 4.11 4.11 0 0 1 4.2-3.82 3.9 3.9 0 0 1 3.53 4.34ZM228.407 330.656a3.91 3.91 0 0 1-5 2.61 3.84 3.84 0 0 1-2.52-4.35 3.94 3.94 0 0 1 4.66-3.15 4.07 4.07 0 0 1 2.86 4.89ZM811.007 286.356a4 4 0 0 1-4.39 3.55 4.3 4.3 0 0 1-3.15-4.06 3.89 3.89 0 0 1 4.43-3.43 3.75 3.75 0 0 1 3.11 3.94ZM605.127 481.426a3.79 3.79 0 0 1-4.84 2.82 4.06 4.06 0 0 1-2.82-4.23 4.21 4.21 0 0 1 4.62-3.36 4 4 0 0 1 3.04 4.77ZM521.477 467.006a3.88 3.88 0 0 1-4.69 3.07 4.09 4.09 0 0 1-3.12-4.72 4.16 4.16 0 0 1 4.77-3.09 4 4 0 0 1 3.04 4.74ZM342.177 4.216a4.07 4.07 0 0 1-4.43 3.51 4.29 4.29 0 0 1-3.25-4.72 3.89 3.89 0 0 1 4-3 3.7 3.7 0 0 1 3.68 4.21ZM32.887 296.646a4.05 4.05 0 0 1-4.84 3 3.88 3.88 0 0 1-2.7-4.3 4.08 4.08 0 0 1 4-3.17 4.16 4.16 0 0 1 3.54 4.47ZM135.167 371.656a3.89 3.89 0 0 1-4.75 2.89 3.5 3.5 0 0 1-2.85-4 4 4 0 0 1 4.34-3.54 4.29 4.29 0 0 1 3.26 4.65ZM61.647 128.786a4.07 4.07 0 0 1-4.81 2.87 4 4 0 0 1-2.57-4.27 3.68 3.68 0 0 1 4.74-2.81 4 4 0 0 1 2.64 4.21ZM56.067 329.186a3.71 3.71 0 0 1-4.75 2.82 3.45 3.45 0 0 1-2.53-4.17 3.41 3.41 0 0 1 3.9-2.92 3.65 3.65 0 0 1 3.38 4.27ZM94.197 106.266a3.48 3.48 0 0 1-4.3 2.48 3.43 3.43 0 0 1-2.74-4.14 3.62 3.62 0 1 1 7 1.66ZM764.807 221.266a3.84 3.84 0 0 1-4.21 2.69 3.64 3.64 0 0 1-3-3.94 3.72 3.72 0 0 1 4.61-3 3.87 3.87 0 0 1 2.6 4.25ZM102.537 369.596a3.61 3.61 0 0 1-2.9-4 3.67 3.67 0 1 1 7.19 1.48 3.8 3.8 0 0 1-4.29 2.52ZM736.757 216.226a3.6 3.6 0 0 1-4 2.92 3.64 3.64 0 0 1-3.15-4.51 3.68 3.68 0 0 1 7.17 1.59ZM212.677 64.866a3.476 3.476 0 1 1-3.94 2.94 3.476 3.476 0 0 1 3.94-2.94ZM678.157 202.746a3.423 3.423 0 1 1-4.09 2.59 3.423 3.423 0 0 1 4.09-2.59ZM154.677 87.166a3.49 3.49 0 0 1-4 2.87 3.74 3.74 0 0 1-2.92-3.33 3.508 3.508 0 1 1 7 .46ZM20.777 176.166a3.31 3.31 0 1 1-1.47 6.43 3.25 3.25 0 0 1-2.37-3.59 3.31 3.31 0 0 1 3.84-2.84ZM14.057 236.006a3.51 3.51 0 0 1-4.3 2.31 3.46 3.46 0 0 1-2.5-4.17 3.53 3.53 0 0 1 4.3-2.32 3.44 3.44 0 0 1 2.5 4.18ZM449.357 20.006c.87.39 1.59.74 2.32 1 1.33.58 2.49 1.61 1.92 3a5.24 5.24 0 0 1-2.83 2.45 2.93 2.93 0 0 1-3.8-2 5.92 5.92 0 0 1 .41-3.67c.17-.43 1.35-.54 1.98-.78ZM280.667 23.076a3.3 3.3 0 0 1-4.31 2.28 3.392 3.392 0 1 1 4.31-2.28ZM792.357 225.876a3.19 3.19 0 0 1-4.14 2.54 3.265 3.265 0 1 1 1.99-6.22 3 3 0 0 1 2.15 3.68ZM247.007 42.696a6 6 0 0 1 1.34 1.53 3.31 3.31 0 0 1-1.14 4.17 3.67 3.67 0 0 1-4.94-.46 2.13 2.13 0 0 1-.58-1.42c.17-2.02 3.16-4.25 5.32-3.82ZM158.727 379.096a3.29 3.29 0 0 1-2.59-4.15 3.344 3.344 0 1 1 2.59 4.15ZM707.067 208.006c.39.86 1.43 2.14 1.44 3.42a3 3 0 0 1-4 2.67 3.22 3.22 0 0 1-2.31-3.66c.24-1.97 2.13-3.15 4.87-2.43ZM801.007 342.236a3.63 3.63 0 0 1-4 2.75 3.44 3.44 0 0 1-2.41-3.55 3.24 3.24 0 0 1 3.18-2.76 3.41 3.41 0 0 1 3.23 3.56ZM76.457 358.526c.52.8 1.67 1.88 1.94 3.16s-1.92 3-3.27 2.41a4.85 4.85 0 0 1-2.33-2.7c-.45-1.45 1.34-3 3.66-2.87ZM662.167 458.786c1.1 1.63 2.07 2.55 2.37 3.65.38 1.38-1.61 3.2-3 2.66-1-.4-2.45-1.85-2.3-2.53.27-1.19 1.59-2.16 2.93-3.78ZM25.757 147.706c1.09 1.63 2.06 2.55 2.36 3.64.38 1.38-1.61 3.21-3 2.67-1-.4-2.46-1.85-2.31-2.53.28-1.2 1.61-2.17 2.95-3.78ZM122.797 84.806a2.92 2.92 0 0 1-1.89-3.8 2.86 2.86 0 0 1 3.1-1.89 3.12 3.12 0 0 1 2.44 3.49 3 3 0 0 1-3.65 2.2ZM628.357 488.166c-.46-.77-1.55-1.87-1.79-3.13-.28-1.47 1.47-2.64 3.16-2.5a2.69 2.69 0 0 1 2.57 3.14c-.29 1.76-1.54 2.81-3.94 2.49ZM813.507 255.486c.36.79 1.34 2 1.38 3.27 0 1.52-1.86 2.48-3.47 2.13a2.76 2.76 0 0 1-2.12-3.5c.33-1.65 1.81-2.54 4.21-1.9ZM491.007 458.946a8 8 0 0 1 1.42 2.79c.18 1.47-1.92 2.64-3.54 2.18a2.64 2.64 0 0 1-2.07-3c.1-1.59 1.83-2.62 4.19-1.97ZM6.137 260.286c1.91.89 2.48 2 2.13 3.42a2.58 2.58 0 0 1-2.94 2c-1.41-.09-2.7-2.49-1.85-3.65a9.07 9.07 0 0 1 2.66-1.77ZM766.847 189.636c.63 1.28 1.31 2.11 1.42 3 .15 1.18-1.61 2.27-2.83 2s-2.18-2.1-1.4-3.15c.54-.75 1.58-1.09 2.81-1.85ZM188.697 382.136a8 8 0 0 1-3.06-.11c-.44-.18-.71-2-.34-2.6a2.92 2.92 0 0 1 2.49-1c1.28.19 1.87 2.08.91 3.71ZM436.337 421.886c2.37-1.37 3.86-1.3 4.7.35a3.26 3.26 0 0 1-.16 2.73c-.75 1.15-1.8.47-2.51-.32s-1.14-1.54-2.03-2.76ZM819.677 230.476c-1.3.67-2.15 1.48-2.86 1.36a3.08 3.08 0 0 1-1.95-1.76c-.37-1 1.43-2.56 2.44-2.06.78.39 1.3 1.31 2.37 2.46ZM62.637 103.106c-.91-1.15-1.73-1.78-1.94-2.56-.31-1.13 1.45-2.66 2.4-2.11a3.32 3.32 0 0 1 1.54 2.27c.03.64-1.04 1.3-2 2.4ZM571.247 503.776c-1.33.93-2.13 1.92-2.77 1.82a2.55 2.55 0 0 1-1.66-1.91c0-.61 1.12-1.61 1.84-1.7s1.35.89 2.59 1.79ZM21.377 323.076c1.58-.65 2.59-1.46 3.28-1.24s1.2 1.41 1.78 2.18c-.82.54-1.66 1.51-2.45 1.47s-1.36-1.2-2.61-2.41ZM659.357 490.636c-1.18.61-1.83 1.23-2.45 1.21-1.39 0-1.64-1.23-1.28-2.25.2-.56 1.36-1.34 1.63-1.19a10.211 10.211 0 0 1 2.1 2.23ZM596.487 511.276c-.86-1.45-1.82-2.39-1.65-3s1.41-1.18 2.27-1.36c.31-.07 1.32 1.1 1.22 1.54-.17.8-.92 1.49-1.84 2.82ZM794.117 200.006c-1-1.52-1.69-2.23-1.81-3-.07-.45 1-1.58 1.29-1.49a3.61 3.61 0 0 1 2.27 1.53c.2.48-.81 1.46-1.75 2.96ZM218.347 359.276a5.44 5.44 0 0 1-.37-.67c-.58-1.42-.16-2.58 1.24-3 .51-.16 1.84.5 1.87.85a2.44 2.44 0 0 1-2 2.8 3.779 3.779 0 0 1-.74.02ZM49.357 356.596c-.84.63-1.42 1.38-1.87 1.31s-.92-.89-1.37-1.38c.48-.42.94-1.15 1.45-1.18s1 .66 1.79 1.25ZM4.187 291.866c-1.58.31-2.38.7-3 .51a2.222 2.222 0 0 1-1.18-1.56c-.09-.25.73-1.14.9-1.07a21.763 21.763 0 0 1 3.28 2.12ZM95.817 75.266c.51.81 1.19 1.41 1.13 1.93a2.15 2.15 0 0 1-1.28 1.49 1.456 1.456 0 0 1-1.63-1.89c.31-.55.97-.89 1.78-1.53ZM739.867 188.086c-1 .33-1.71.81-2.2.64s-.63-1-.93-1.56c.56-.29 1.19-.9 1.66-.8s.82.91 1.47 1.72ZM626.447 513.696c-.9.46-1.62 1.14-2.11 1s-1.26-1.2-1.14-1.62a2.14 2.14 0 0 1 1.67-1.23c.49.04.91 1.02 1.58 1.85ZM822.927 201.606l-.81 1.4a5.84 5.84 0 0 1-1.44-1c-.11-.13.47-1.15.62-1.12a6.75 6.75 0 0 1 1.63.72ZM156.447 59.626l-1.25-.55c.25-.29.62-.87.74-.82a4.31 4.31 0 0 1 1.06.83ZM799.157 170.096l-1.11-.8c.21-.13.48-.4.62-.34a6.566 6.566 0 0 1 1.08.69ZM183.797 64.656l-1-.91c.42-.14.87-.45 1.25-.37s.62.55.93.84Z"/></svg>