<svg xmlns="http://www.w3.org/2000/svg" width="828.36" height="732.947"><defs><style>.a{fill:#1a1a1a}</style></defs><path class="a" d="M329.73 562.2a39 39 0 0 1-3.73 5 35.71 35.71 0 0 1-4.91 3.51c6.17 5.92 7.58 9.16 5.9 13.7a9.55 9.55 0 0 1-8.81 6.76c-5.09.38-8.06-1.86-11.23-8.57a15.649 15.649 0 0 0-1.5 1.85c-5.05 8.62-13.46 9.26-19.53 1.44-.46-.58-.84-1.23-1.6-2.34-2.38 3.92-5.37 6.32-9.61 7.26a47.284 47.284 0 0 1 4.5 2.91 10.1 10.1 0 0 1 2.73 12.35 10.23 10.23 0 0 1-11.45 5.48 10.42 10.42 0 0 1-8.25-9.7 10.05 10.05 0 0 1 4.41-8.51 35.181 35.181 0 0 1 4.5-2.39 45.812 45.812 0 0 1-4.87-3.11 38.892 38.892 0 0 1-3.67-3.88l-7.71 6.55a41.852 41.852 0 0 1 3.22 2.82 10.59 10.59 0 1 1-15.66 14.22 41.888 41.888 0 0 1-2.67-4 37.065 37.065 0 0 1-3.88 4.46 43.141 43.141 0 0 1-5.32 3.36c0 1.31 1.44 1 2.07 1.59s1.68 1.23 2.39 2a10.26 10.26 0 1 1-14.29-.49 37 37 0 0 1 5-3.07c-3.16-2.06-6.48-4.05-8.17-8.31a49.518 49.518 0 0 1-4 4.27 50.148 50.148 0 0 1-4.84 3.22 43.25 43.25 0 0 1 3.91 2.94 10.45 10.45 0 1 1-13.48-.64 39.869 39.869 0 0 1 3.94-2.41 50.714 50.714 0 0 1-4.77-3.9 39.725 39.725 0 0 1-3.38-4.7c-3.42 5.46-7.83 8.36-14.2 6.13a10.25 10.25 0 0 1-6.76-9.58c.13-5.69 3.41-9.12 9.12-10.92-4.78-2.58-8.67-5.5-8.59-11.3s3.39-9.11 8.94-11.17c-4.1-2.51-7.39-5.32-7.64-10.18a10.17 10.17 0 0 1 3.16-7.86c5-5 11.11-3.95 17.42 3.07l6.47-6.52-5.77-6.92c-.65.74-1.24 1.45-1.88 2.12a12.654 12.654 0 0 1-1.78 1.73 10.19 10.19 0 0 1-11.16.9 9.64 9.64 0 0 1-5.55-9.08 10 10 0 0 1 6-9.42 10.41 10.41 0 0 1 11.54 1.9 43.729 43.729 0 0 1 3.14 3.78l6.57-6.56-6-7.24c-1-.47-1 .8-1.57 1.26s-1.09 1.25-1.71 1.8a10.264 10.264 0 1 1-9.76-17.5 9.47 9.47 0 0 1 9.8 2.25 32.134 32.134 0 0 1 3.16 3.88c2.44-2.32 4.92-4.67 7.4-7-4.71-5.61-5.63-7.48-5.31-11.12a10.34 10.34 0 0 1 4-7.47c5.85-4.6 11.81-2.66 17.72 5.74 8.25-11.85 18.19-8 22.22 2.05 2.77-5.3 6.37-9.14 12.73-8a9.88 9.88 0 0 1 8.22 7.6c1.57 5.94-1.64 9.84-6.59 13.07 1.48 1.28 2.76 2.22 3.83 3.36a47.588 47.588 0 0 1 3 3.79l7.86-6.47c0-1.66-2.12-1.78-3.16-2.9-3.51-3.79-4.21-8.35-1.58-12.54a9.7 9.7 0 0 1 10.11-4.67 9.24 9.24 0 0 1 7.9 6.21 9.55 9.55 0 0 1-2.27 10.9 39.181 39.181 0 0 1-4.15 3.1l7.4 7.14 8.35-6.43c-.94-.71-2.26-1.56-3.42-2.59a9.945 9.945 0 1 1 12.71.31 47.323 47.323 0 0 1-4.15 2.63 48.166 48.166 0 0 1 5.13 3.79 30.842 30.842 0 0 1 3.17 4.34c8.82-10 17.21-9.08 22.08 2.6 1.1-1.6 2-3.1 3.06-4.41a10.37 10.37 0 0 1 11.27-3.23c4 1.38 7.44 5.88 7.29 10a10.41 10.41 0 0 1-4.2 8 40.705 40.705 0 0 1-4.14 2.47c0 1.85 1.65 1.71 2.55 2.34 3.48 2.46 5.71 5.87 5.27 10-.48 4.57-3.32 7.75-7.87 9.55s-7.65-.19-10.66-2.83c-1.37-1.18-2.2-3-3.47-4.76a41.261 41.261 0 0 1-3.27 4.11 46.366 46.366 0 0 1-4.38 3.39 47 47 0 0 1 4.52 4.34 33.528 33.528 0 0 1 2.74 4.79 42.765 42.765 0 0 1 3.49-4.58 10.19 10.19 0 1 1 5.33 17.36 9.9 9.9 0 0 1-6.65-4.33c-.8-1.16-1.43-2.43-2.27-3.89Zm.45-27.31c1.68-2 2.69-3.63 4.08-4.8a46.555 46.555 0 0 1 5.58-3.5c-4.6-1.83-7.15-4.9-8.87-9.89-1.27 5.2-4.71 7.41-8.29 10a14.27 14.27 0 0 1 7.5 8.19Zm-23.11 28.88-6.75 6.22a36.141 36.141 0 0 1 3.74 3.88 47.1 47.1 0 0 1 2.9 5.22 32.633 32.633 0 0 1 3.3-4.93 33.01 33.01 0 0 1 4.46-3.42Zm-120 24.2c4 .77 6 4.28 8.14 7.07l7.15-7.1c-1.12-1-2.36-2-3.61-3.1s-1.55-2.8-2.56-3.28Zm122.1-56.3c.89-.86 1.84-1.92 2.92-2.81s2.52-1.79 3.66-2.58l-7.12-7.65-5.36 5.65c2.06 2.53 3.97 4.91 5.94 7.39Zm-71.84-31 5.86 6.21 6.83-5.55c-2.31-2.94-4.47-5.7-6.39-8.13Zm2.92 83.32c-2.38 2.08-4.45 3.88-6.52 5.7 1.29 1.3 2.44 2.46 3.6 3.6s1.15 3 2.37 3.67l7.3-6.97ZM211 588.57a38.662 38.662 0 0 1 3.51 3.16c1.07 1.16 1.93 2.48 2.94 3.8l6.43-6.46-6.08-6.08Zm10-82.72 6.49-5.72c-1.12-1.21-2.29-2.31-3.26-3.57s-1.69-2.64-2.56-4l-6.79 7.34Zm86.5 48.57c2.59-2.27 5-4.36 7.2-6.34l-6.31-6-6.24 6.16ZM201.74 566.2l-5.66-6.67-7.08 5.58 7.57 6.62Zm82.92 9.56 6.51-6.27-5.64-5.42-5.77 5.69c1.45 1.79 3.1 3.8 4.9 6Zm2.29-57.4-6.17 6.09 5.64 5.38 6-5.17Zm-22.1 10.32 5.76-4.72-5.74-6.17-5.3 5.48Zm-1.7 34.93-5.06 4.88 4.8 6.19 5.6-5.79Zm-42.47-46.62-6.33 5.5 4.65 4.33 5.95-4.87Zm65 25.15-4.84 4.8 5.46 6.05c.86-1.14 1.61-2.11 2.32-3.11s2.33-.95 2.25-2.64Zm-67.54 30.18 5.31-5.63c-2.16-1.37-3-3.67-5.37-4.5l-4.67 4.43Zm19.74-49.72c1.81 1.78 2.93 3.51 4.88 4.56l5-4.2-5-5.38Zm7.68 45.66a21.509 21.509 0 0 0-4.41-4.76l-4.86 4.23 4.38 5.16Zm18-17.64 5.16-4.44c-1.65-1.57-3.2-3.06-4.81-4.58-1.67 1.73-3.07 3.17-4.72 4.89Zm-44.39-1.23 4.33-4.38-4.61-5.2-5.03 4.18Zm18.2-3.57c1.34 1.54 2.51 2.87 3.89 4.44 1.79-1.8 3.17-3.17 4.74-4.74l-4.28-3.94ZM362.6 549.06a10 10 0 1 1 7.351-2.662 10.09 10.09 0 0 1-7.351 2.662ZM363.5 526.99a10 10 0 0 1-9.72-10.61 10.18 10.18 0 0 1 10.76-9.66 10.32 10.32 0 0 1 9.46 10.39 10 10 0 0 1-10.5 9.88Z"/><path class="a" d="M183.33 630.49a10.13 10.13 0 0 1-9.64-10.25 9.93 9.93 0 0 1 10.56-9.86 10.62 10.62 0 0 1 9.92 10.17c.04 5.17-5.41 10.17-10.84 9.94ZM294.19 612.4a9.84 9.84 0 0 1-9.61-10.06 10.08 10.08 0 0 1 10.51-9.89 10.32 10.32 0 0 1 9.37 10.47 10 10 0 0 1-10.27 9.48ZM162.79 587.45a10.24 10.24 0 0 1 9.72 10.11 10.12 10.12 0 0 1-10 9.79 9.83 9.83 0 0 1-9.9-10.38 9.94 9.94 0 0 1 10.18-9.52ZM199.48 488.91a43.4 43.4 0 0 1-2.3 4.9 10 10 0 1 1 .6-9.78 43.818 43.818 0 0 1 1.7 4.88ZM361.6 571.12a10 10 0 0 1-9.32-10.39 9.76 9.76 0 0 1 10.72-9.44 9.94 9.94 0 0 1 9.09 10.56 10.26 10.26 0 0 1-10.49 9.27ZM259.74 623.24a10.25 10.25 0 0 1-10.16 9.67 9.91 9.91 0 0 1-9.68-10 9.69 9.69 0 0 1 10.33-9.87 10 10 0 0 1 9.51 10.2ZM160.92 629.36a10 10 0 0 1-9-10.71 9.79 9.79 0 0 1 10.78-8.84 10 10 0 0 1 8.81 10.28 10.12 10.12 0 0 1-10.59 9.27ZM349.28 582.66a9.58 9.58 0 0 1-10.35 9.15 9.73 9.73 0 0 1-9.24-10.34 10.07 10.07 0 0 1 10.43-9.3 9.87 9.87 0 0 1 9.16 10.49ZM395 540.2a9.93 9.93 0 0 1-10.18 9.52 9.71 9.71 0 0 1-9.42-10.19 9.86 9.86 0 0 1 10.05-9.54A10.07 10.07 0 0 1 395 540.2ZM183.33 632.77a9.73 9.73 0 1 1-10.16 9.43 9.52 9.52 0 0 1 10.16-9.43ZM352.5 494.48a9.582 9.582 0 1 1-9.385-9.775 9.582 9.582 0 0 1 9.385 9.775ZM330.45 493.53c-.05 5.25-4.74 10-9.87 10-4.92 0-9.61-5.17-9.43-10.4a9.652 9.652 0 1 1 19.3.39ZM236.52 644.24a9.64 9.64 0 1 1-2.946-6.954 9.72 9.72 0 0 1 2.946 6.954ZM173 575.9a9.84 9.84 0 0 1-10.08 9 9.53 9.53 0 1 1 1.13-19c5.55.34 8.86 4.77 8.95 10ZM407.66 531.17a9.57 9.57 0 1 1-10 9.12 9.57 9.57 0 0 1 10-9.12ZM214.23 643.5a9.48 9.48 0 0 1-9.72 9.2 9.29 9.29 0 0 1-9.27-9.58 9.41 9.41 0 0 1 9.65-9.25 9.6 9.6 0 0 1 9.34 9.63ZM281.32 624.17a9.41 9.41 0 0 1-9.9 9 9.25 9.25 0 0 1-9-9.88 9.56 9.56 0 0 1 9.85-9.13 9.67 9.67 0 0 1 9.05 10.01ZM385.87 527.35a9.53 9.53 0 1 1 8.852-5.853 9.53 9.53 0 0 1-8.852 5.853ZM242.91 468.36a9.426 9.426 0 1 1-8.98-9.832 9.35 9.35 0 0 1 8.98 9.832ZM384 571.24a9.3 9.3 0 0 1-9.08-9.76 9.64 9.64 0 0 1 10-9 9.45 9.45 0 0 1 8.69 9.58 9.13 9.13 0 0 1-9.61 9.18ZM417.36 519.05a9.56 9.56 0 0 1-10 8.85 9.35 9.35 0 0 1-8.48-9.7 9.15 9.15 0 0 1 9.95-8.75 9.31 9.31 0 0 1 8.53 9.6ZM325.84 603.55a9.27 9.27 0 0 1-9.78 9.1 9.5 9.5 0 0 1-8.84-9.52 9.32 9.32 0 0 1 9.87-9 9.1 9.1 0 0 1 8.75 9.42ZM248.32 654.16a9.44 9.44 0 0 1-8.62-9.57 9.55 9.55 0 0 1 9.45-8.79 9.19 9.19 0 1 1-.83 18.361ZM173.32 553.8a8.93 8.93 0 0 1-9.13 8.88 9.16 9.16 0 0 1-9.29-9.44 9.45 9.45 0 0 1 9.86-9 9.23 9.23 0 0 1 8.56 9.56ZM373.8 495.66a8.91 8.91 0 0 1-9.5 8.57 9.06 9.06 0 0 1-8.83-9.34 9.37 9.37 0 0 1 9.92-9 9.2 9.2 0 0 1 8.41 9.77ZM439.27 519.52a9.25 9.25 0 0 1-9 9.15 9.247 9.247 0 1 1 9.02-9.15ZM220.47 467.7a9 9 0 1 1-8.44-9.58 8.86 8.86 0 0 1 8.44 9.58ZM370.24 583.05a8.89 8.89 0 0 1-17.77 0 8.889 8.889 0 1 1 17.77 0ZM302.54 624.92a8.94 8.94 0 0 1-9.37 8.6 8.79 8.79 0 0 1-8.39-8.93 8.65 8.65 0 0 1 9-8.85 8.75 8.75 0 0 1 8.76 9.18ZM139.76 609.87a8.61 8.61 0 0 1 8.58 9.36 8.81 8.81 0 0 1-9.05 8.37 9 9 0 0 1-8.63-9.45 8.73 8.73 0 0 1 9.1-8.28ZM264.59 469.18a8.93 8.93 0 0 1-9.61 8.4 8.82 8.82 0 0 1 .74-17.61 9 9 0 0 1 8.87 9.21ZM405.19 571.7a8.859 8.859 0 1 1 10.1-7.84 9.09 9.09 0 0 1-10.1 7.84ZM442.15 541.51a9 9 0 1 1 7.62 9.65 9 9 0 0 1-7.62-9.65ZM169.68 641.99a8.864 8.864 0 1 1-8.46-9.25 8.864 8.864 0 0 1 8.46 9.25ZM149.22 596.99a8.62 8.62 0 0 1-9.4 8.43 8.73 8.73 0 0 1-8.35-8.93 8.83 8.83 0 0 1 9.16-8.77 8.68 8.68 0 0 1 8.59 9.27ZM395.74 496.25a9.07 9.07 0 0 1-9.5 8.61 8.92 8.92 0 0 1-8.31-9.12 8.72 8.72 0 0 1 8.81-8.54 8.91 8.91 0 0 1 9 9.05ZM429 550.3a8.77 8.77 0 0 1-8.54-8.86 8.89 8.89 0 0 1 9.4-8.66 8.68 8.68 0 0 1 8.14 9.21 8.57 8.57 0 0 1-9 8.31ZM437.23 563.74a8.78 8.78 0 0 1-9.15 8.79 9 9 0 0 1-8.46-8.91 8.7 8.7 0 0 1 8.591-8.7 8.58 8.58 0 0 1 9.019 8.82ZM408.28 505.65a9 9 0 0 1-8.24-9.25 8.79 8.79 0 0 1 9.74-8.26 8.6 8.6 0 0 1 7.82 9.44 8.79 8.79 0 0 1-9.32 8.07ZM278.34 460.99a8.61 8.61 0 0 1 8 9.31 8.49 8.49 0 0 1-9.21 8.06 8.81 8.81 0 0 1-8.13-9.26 8.91 8.91 0 0 1 9.34-8.11ZM212.47 665.55a8.61 8.61 0 0 1-9.08 8.2 8.8 8.8 0 0 1-8.25-9.11 8.9 8.9 0 0 1 9.15-8.24 8.75 8.75 0 0 1 8.18 9.15ZM308.25 471.11a8.83 8.83 0 0 1-9.32 8 8.64 8.64 0 0 1-8-9.27 8.73 8.73 0 0 1 9.25-8.07 8.92 8.92 0 0 1 8.07 9.34ZM189.92 457.63a8.76 8.76 0 0 1 8.28 9.06 8.6 8.6 0 0 1-8.49 8.18 8.48 8.48 0 0 1-8.54-8.69 8.64 8.64 0 0 1 8.75-8.55ZM383.27 592.33a8.34 8.34 0 0 1-8.42-8.75 8.78 8.78 0 0 1 8.76-8.58 9 9 0 0 1 8.54 8.92 8.66 8.66 0 0 1-8.88 8.41ZM165.57 517.79a8.42 8.42 0 0 1-8.25-8.92 8.66 8.66 0 0 1 9.16-8.12 8.81 8.81 0 0 1 8 8.71 8.6 8.6 0 0 1-8.91 8.33ZM149.76 574.99a8.44 8.44 0 0 1-9.2 7.9 8.62 8.62 0 0 1-7.93-8.65 8.74 8.74 0 0 1 9-8.31 8.59 8.59 0 0 1 8.13 9.06ZM414 584.99a8.3 8.3 0 0 1-9 8.16 8.53 8.53 0 0 1-8.13-8.54 8.79 8.79 0 0 1 8.81-8.6 8.6 8.6 0 0 1 8.32 8.98ZM279.51 645.99a8.44 8.44 0 0 1-8.83 8.4 8.64 8.64 0 0 1-8.31-9 8.54 8.54 0 0 1 8.61-8 8.31 8.31 0 0 1 8.53 8.6ZM164.51 539.9a8.5 8.5 0 1 1 9-8.27 8.67 8.67 0 0 1-9 8.27ZM347 604.48a8.35 8.35 0 1 1-7.89-8.8 8.51 8.51 0 0 1 7.89 8.8ZM139.22 632.49a8.3 8.3 0 1 1-8.95 7.6 8.39 8.39 0 0 1 8.95-7.6ZM151.56 662.99a8.41 8.41 0 1 1 7.82 8.81 8.6 8.6 0 0 1-7.82-8.81ZM465.75 519.99a8.39 8.39 0 1 1 6.88 9.43 8.3 8.3 0 0 1-6.88-9.43ZM360.61 596.75a8.29 8.29 0 0 1 8.09 8.42 8.38 8.38 0 0 1-8.39 8.15 8.29 8.29 0 1 1 .3-16.57ZM452.25 512.07a8.08 8.08 0 0 1 7.92 8.55 8.18 8.18 0 0 1-8.54 8 8.31 8.31 0 0 1-8-8.61 8.17 8.17 0 0 1 8.62-7.94ZM431 505.78a8 8 0 0 1-8.14-8.33 8.32 8.32 0 0 1 8.52-8.06 8.55 8.55 0 0 1 7.91 8.15 8.21 8.21 0 0 1-8.29 8.24ZM487.23 543.65a8 8 0 0 1 8.71-7.68 8.32 8.32 0 0 1 7.61 8.29 8.41 8.41 0 0 1-8.53 8 8.13 8.13 0 0 1-7.79-8.61ZM226 657.8a8 8 0 0 1 8 8.37 8.17 8.17 0 0 1-7.86 8 8.43 8.43 0 0 1-8.47-8.12 8.33 8.33 0 0 1 8.33-8.25ZM190.18 664.3a8.22 8.22 0 0 1-8.31 8.23 8.38 8.38 0 0 1-8-8.59 8.25 8.25 0 0 1 8.06-7.87 8.09 8.09 0 0 1 8.25 8.23ZM239.86 666.26a8.25 8.25 0 0 1 8.88-7.63 8.11 8.11 0 0 1 7.4 9 8.29 8.29 0 0 1-8.49 7.42 8.42 8.42 0 0 1-7.79-8.79ZM323.81 625.99a7.91 7.91 0 0 1-8.8 7.5 8 8 0 0 1-7.45-8.3 8.43 8.43 0 0 1 8.57-8 8.26 8.26 0 0 1 7.68 8.8ZM480.59 565.7a8.15 8.15 0 0 1-8.58 7.81 8 8 0 0 1-7.79-8.55 8.3 8.3 0 0 1 8.52-7.93 8.47 8.47 0 0 1 7.85 8.67ZM174.76 487.53a7.9 7.9 0 0 1-7.78 8 8.12 8.12 0 0 1-8.47-8.07 8.42 8.42 0 0 1 8.51-8.16 8.21 8.21 0 0 1 7.74 8.23ZM329.69 471.91a8.16 8.16 0 0 1-8.31 7.6 8.31 8.31 0 0 1-7.88-8.73 8.2 8.2 0 0 1 8.38-7.54 8 8 0 0 1 7.81 8.67ZM481.34 543.43a8.24 8.24 0 0 1-8.6 7.92 8.08 8.08 0 0 1-7.57-8.26 7.91 7.91 0 0 1 7.91-7.85 8.09 8.09 0 0 1 8.26 8.19ZM458.26 564.73a7.78 7.78 0 0 1-7.94 7.72 8 8 0 0 1-8.16-8.2 8.34 8.34 0 0 1 8.64-7.86 8.16 8.16 0 0 1 7.46 8.34ZM516.79 552.99a8.21 8.21 0 0 1-7.77-8.67 8.08 8.08 0 0 1 8.36-7.38 7.92 7.92 0 0 1 7.71 8.59 8.07 8.07 0 0 1-8.3 7.46ZM125.72 618.13a7.8 7.8 0 0 1-8.12 7.63 8 8 0 0 1-7.93-7.91 8.29 8.29 0 0 1 8.52-8.08 8.13 8.13 0 0 1 7.53 8.36ZM119 587.78a7.88 7.88 0 0 1 7.56 8.12 8.05 8.05 0 0 1-8.48 7.9 8.22 8.22 0 0 1-7.63-8.2 8 8 0 0 1 8.55-7.82ZM504.16 522.13a8.21 8.21 0 0 1-8 7.92 8 8 0 0 1-7.92-7.87 7.77 7.77 0 0 1 8.18-8.11 8 8 0 0 1 7.74 8.06ZM452.48 506.36a8 8 0 0 1-7.7-8 8.15 8.15 0 0 1 8.62-7.78 8 8 0 0 1 7.31 8.41 7.8 7.8 0 0 1-8.23 7.37ZM390.5 606.13a7.77 7.77 0 1 1-2.047-5.639 7.84 7.84 0 0 1 2.047 5.639ZM343.68 479.99a7.84 7.84 0 0 1-7.84-7.9 7.871 7.871 0 1 1 7.86 7.9ZM395.51 474.28a7.74 7.74 0 1 1-2.012-5.654 7.8 7.8 0 0 1 2.012 5.654ZM504.82 501.09a7.8 7.8 0 0 1-8.72 6.9 7.67 7.67 0 0 1-6.87-8.68 7.77 7.77 0 0 1 8.66-7 7.87 7.87 0 0 1 6.93 8.78ZM124.71 640.46a8 8 0 0 1-8.48 7.31 7.86 7.86 0 1 1 8.48-7.31ZM517.38 530.57a7.774 7.774 0 1 1 8.465-7.015 7.78 7.78 0 0 1-8.465 7.015ZM474.49 506.99a7.85 7.85 0 0 1-7.29-7.86 7.63 7.63 0 0 1 8.37-7.29 7.44 7.44 0 0 1 6.92 8.06 7.73 7.73 0 0 1-8 7.09ZM502.14 566.55a7.71 7.71 0 1 1-7.5-8.06 7.59 7.59 0 0 1 7.5 8.06ZM516.25 574.74a7.84 7.84 0 0 1-7.75-8 7.762 7.762 0 1 1 15.51.64 7.86 7.86 0 0 1-7.76 7.36ZM373.31 473.38a7.79 7.79 0 1 1-7.56-8.12 7.6 7.6 0 0 1 7.56 8.12ZM493.14 595.59a7.59 7.59 0 0 1-7.12-8.41 7.78 7.78 0 0 1 8.08-6.91 7.65 7.65 0 0 1 7.06 8.49 7.42 7.42 0 0 1-8.02 6.83ZM137.92 654.99a7.57 7.57 0 1 1-7.68 7.35 7.57 7.57 0 0 1 7.68-7.35ZM142.32 545.16a7.36 7.36 0 0 1 7.29 7.66 7.54 7.54 0 0 1-8.14 7.49 7.67 7.67 0 0 1-7-8 7.48 7.48 0 0 1 7.85-7.15ZM435.13 585.99a7.33 7.33 0 0 1-7.88 7 7.51 7.51 0 0 1-7.21-7.73 7.79 7.79 0 0 1 8.27-7.4 7.65 7.65 0 0 1 6.82 8.13ZM511.37 500.91a7.26 7.26 0 0 1 7.58-7.3 7.51 7.51 0 0 1 7.41 7.59 7.8 7.8 0 0 1-7.71 7.4 7.51 7.51 0 0 1-7.28-7.69ZM449.4 593.69a7.26 7.26 0 0 1-7.42-7.47 7.65 7.65 0 0 1 7.52-7.53 7.94 7.94 0 0 1 7.5 7.64 7.48 7.48 0 0 1-7.6 7.36ZM293.15 639.25a7.53 7.53 0 0 1 7.16 7.81 7.68 7.68 0 0 1-7.87 7.17 7.51 7.51 0 0 1-7.1-7.88 7.35 7.35 0 0 1 7.81-7.1ZM256.36 453.99a7.12 7.12 0 0 1-7.19-7.65 7.46 7.46 0 0 1 7.81-7.16 7.77 7.77 0 0 1 7 7.48 7.38 7.38 0 0 1-7.62 7.33ZM112.21 572.57a7.38 7.38 0 0 1 7.83-6.35 7.61 7.61 0 0 1 6.79 8.15 7.31 7.31 0 0 1-8.27 6.5 7.13 7.13 0 0 1-6.35-8.3ZM277.42 668.36a7.31 7.31 0 0 1-8.16 6.63 7.52 7.52 0 0 1-6.51-7.77 7.62 7.62 0 0 1 8-7 7.42 7.42 0 0 1 6.67 8.14ZM219.64 445.39a7.22 7.22 0 0 1-7.9 6.89 7.38 7.38 0 0 1-6.91-7.37 7.72 7.72 0 0 1 7.7-7.34 7.47 7.47 0 0 1 7.11 7.82ZM225.16 680.78a7.4 7.4 0 0 1 7.31 7.64 7.68 7.68 0 0 1-7.41 7 7.42 7.42 0 0 1-7.24-7.72 7.25 7.25 0 0 1 7.34-6.92ZM545.57 568.16a7.3 7.3 0 0 1-7.8 7.06 7.46 7.46 0 0 1-6.7-7.61 7.24 7.24 0 0 1 7.86-7 7.15 7.15 0 0 1 6.64 7.55ZM234.14 452.99a7.166 7.166 0 1 1 .86-14.3 7.39 7.39 0 0 1 6.71 7.6 7.27 7.27 0 0 1-7.57 6.7ZM547.23 523.92a7.2 7.2 0 1 1-6.955-7.445 7.2 7.2 0 0 1 6.955 7.445ZM416.83 474.86a7.06 7.06 0 1 1-6.93-7.35 7.21 7.21 0 0 1 6.93 7.35ZM411.75 607.14a7.06 7.06 0 1 1-6.62-7.64 7.18 7.18 0 0 1 6.62 7.64ZM515.38 595.99a7.13 7.13 0 1 1 7.12-6.945 7.13 7.13 0 0 1-7.12 6.945ZM174.17 685.99a7.16 7.16 0 0 1 7.4-6.76 7.16 7.16 0 1 1-7.4 6.76ZM344.89 626.49a7.05 7.05 0 0 1-7.25 6.89 7.053 7.053 0 1 1 7.21-6.89ZM471.46 594.23a7 7 0 0 1-6.94-7.14 6.82 6.82 0 0 1 7.09-7 6.91 6.91 0 0 1 7 7.09 7.07 7.07 0 0 1-7.15 7.05ZM546.21 546.34a7.032 7.032 0 1 1-6.48-7.65 7.15 7.15 0 0 1 6.48 7.65ZM271.65 447.17a6.74 6.74 0 0 1 7.52-6.54 6.88 6.88 0 0 1 6.45 7 6.991 6.991 0 1 1-13.97-.46ZM95.11 623.75a6.92 6.92 0 0 1-6.41-7 7.28 7.28 0 0 1 7.45-6.69 7 7 0 0 1 6.24 7.74 6.58 6.58 0 0 1-7.28 5.95ZM174.33 465.73a6.87 6.87 0 0 1-6.79 6.61 7.15 7.15 0 0 1-6.93-7.19 7 7 0 0 1 7.52-6.5 6.64 6.64 0 0 1 6.2 7.08ZM143.22 523.78a7 7 0 0 1 6.64 6.8 7.14 7.14 0 0 1-7.22 6.91 6.89 6.89 0 0 1-6.49-7.49 6.67 6.67 0 0 1 7.07-6.22ZM366.3 627.55a6.38 6.38 0 0 1-7 6.24 6.76 6.76 0 0 1-6.53-6.83 7.08 7.08 0 0 1 7.43-6.67 6.82 6.82 0 0 1 6.1 7.26ZM427.15 600.76a7 7 0 0 1 6.58 6.86 7.14 7.14 0 0 1-7.28 6.84 6.89 6.89 0 0 1-6.43-7.55 6.67 6.67 0 0 1 7.13-6.15ZM540.92 508.47a6.58 6.58 0 0 1-6.69-6.56 6.69 6.69 0 0 1 6.63-6.69 6.88 6.88 0 0 1 6.76 6.64 6.73 6.73 0 0 1-6.7 6.61ZM381.39 634.55a6.75 6.75 0 0 1-6.37-6.93 6.91 6.91 0 0 1 7.05-6.32 6.71 6.71 0 0 1 6.31 7 6.6 6.6 0 0 1-6.99 6.25ZM136.63 691.27a6.41 6.41 0 0 1-6.22-7 6.66 6.66 0 0 1 7-6.33 6.82 6.82 0 0 1 6.29 7.11 6.56 6.56 0 0 1-7.07 6.22ZM259.57 365.23a6.88 6.88 0 0 1-6.32-7.07 7 7 0 0 1 7.23-6.16 6.631 6.631 0 1 1-.91 13.23ZM202.57 693.83a6.43 6.43 0 0 1-6.21-7.08 6.79 6.79 0 0 1 7.11-6.34 7 7 0 0 1 6.29 7.24 6.66 6.66 0 0 1-7.19 6.18ZM425.27 474.75a6.41 6.41 0 0 1 7.4-5.73 6.55 6.55 0 0 1 5.81 7.36 6.64 6.64 0 0 1-7.45 5.76 6.48 6.48 0 0 1-5.76-7.39ZM103.1 594.99a6.43 6.43 0 0 1-6.72 6.51 6.611 6.611 0 1 1 .22-13.22 6.39 6.39 0 0 1 6.5 6.71ZM116.23 655.22a6.51 6.51 0 1 1-5.926 2.917 6.52 6.52 0 0 1 5.926-2.917ZM165.63 685.88a6.54 6.54 0 1 1-6.038-6.5 6.54 6.54 0 0 1 6.038 6.5ZM561.25 553.08a6.46 6.46 0 1 1 6.51-6.11 6.23 6.23 0 0 1-6.51 6.11ZM514.37 617.39a6.48 6.48 0 1 1 5.929-3.087 6.47 6.47 0 0 1-5.929 3.087ZM493.09 603.7a6.38 6.38 0 1 1-6.74 6.37 6.31 6.31 0 0 1 6.74-6.37ZM247.15 682.52a6.45 6.45 0 0 1 6.57 6.65 6.62 6.62 0 0 1-6.45 6.19 6.55 6.55 0 0 1-6.57-6.69 6.48 6.48 0 0 1 6.45-6.15ZM294.06 448.45a6.47 6.47 0 0 1 6.12-6.55 6.55 6.55 0 0 1 6.61 6.71 6.32 6.32 0 0 1-6.46 6.16 6.25 6.25 0 0 1-6.27-6.32ZM453.51 482.77a6.45 6.45 0 0 1-6.37-6.82 6.52 6.52 0 0 1 13 .89 6.43 6.43 0 0 1-6.63 5.93ZM470.35 615.6a6.44 6.44 0 0 1-6.2-6.39 6.519 6.519 0 1 1 6.2 6.39ZM563.4 496.43a6.09 6.09 0 0 1 5.91 6.59 6.3 6.3 0 0 1-6.45 6.14 6.44 6.44 0 0 1-6.25-7 6.26 6.26 0 0 1 6.79-5.73ZM448.22 614.69a7.415 7.415 0 1 1 .01 0ZM565.9 591.07a6.335 6.335 0 0 1-12.64-.85 6.56 6.56 0 0 1 7.08-6.12 6.47 6.47 0 0 1 5.56 6.97ZM568.39 524.9a6.07 6.07 0 0 1-6.65 5.83 6.17 6.17 0 0 1-5.9-6.63 6.54 6.54 0 0 1 6.71-6 6.39 6.39 0 0 1 5.84 6.8ZM583.88 531.59a6.06 6.06 0 0 1-5.88-6.6 6.36 6.36 0 0 1 6.64-6 6.56 6.56 0 0 1 5.92 6.77 6.23 6.23 0 0 1-6.68 5.83ZM144.64 480.55a6 6 0 0 1 6.12 6.37 6.24 6.24 0 0 1-6.54 6 6.49 6.49 0 0 1-5.89-6.16 6.18 6.18 0 0 1 6.31-6.21ZM263.63 425.4a6.5 6.5 0 0 1-7.05 5.47 6.24 6.24 0 0 1-5.38-7 6.12 6.12 0 0 1 6.95-5.42 6.33 6.33 0 0 1 5.48 6.95ZM582.87 563.48a6.17 6.17 0 0 1 5.9 6.57 6.49 6.49 0 0 1-6.19 5.77 6.26 6.26 0 0 1-6.15-6.38 6 6 0 0 1 6.44-5.96ZM259 386.88a6.07 6.07 0 0 1-6.21-6.23 6.43 6.43 0 0 1 6.28-6.32 6.7 6.7 0 0 1 6.28 6.39 6.24 6.24 0 0 1-6.35 6.16ZM537.07 595.77a6.17 6.17 0 0 1-5.8-6.72 6.62 6.62 0 0 1 6.36-5.69 6.27 6.27 0 0 1 6 6.57 6 6 0 0 1-6.56 5.84ZM120.35 545.69a6.29 6.29 0 0 1 6.22 6.39 6.55 6.55 0 0 1-6.64 6.06 6.24 6.24 0 0 1-5.78-6.17 6 6 0 0 1 6.2-6.28ZM236.43 385.99a6 6 0 0 1-5.64-6.79 6.34 6.34 0 0 1 6.36-5.62 6.52 6.52 0 0 1 6 6.65 6.17 6.17 0 0 1-6.72 5.76ZM566.57 568.72a6.27 6.27 0 0 1-6.42 6.2 6.47 6.47 0 0 1-5.88-6.17 6.21 6.21 0 0 1 5.85-6.1 6.05 6.05 0 0 1 6.45 6.07ZM504 478.32a6.11 6.11 0 0 1-6.53 5.93 6.32 6.32 0 0 1-5.83-6.08 6.41 6.41 0 0 1 6.3-6.29 6.2 6.2 0 0 1 6.06 6.44ZM611.28 548.44a6 6 0 0 1-6.4 6 6.29 6.29 0 0 1-5.9-6.62 6.43 6.43 0 0 1 6.2-5.75 6.09 6.09 0 0 1 6.1 6.37ZM235.58 417.62a6.21 6.21 0 0 1 5.91 6.63 6.39 6.39 0 0 1-6.87 5.74 6.26 6.26 0 0 1-5.55-6.39 6.05 6.05 0 0 1 6.51-5.98ZM513.56 478.59a6.08 6.08 0 0 1 6.58-5.85 6.42 6.42 0 0 1 5.73 6.22 6.29 6.29 0 0 1-6.41 6.13 6 6 0 0 1-5.9-6.5ZM258.54 396.67a6.32 6.32 0 0 1 5.71 6.8 6.21 6.21 0 0 1-6.41 5.44 6 6 0 0 1-5.62-6.76 6.09 6.09 0 0 1 6.32-5.48ZM481.82 477.2a6 6 0 0 1-6.21 6.22 6.32 6.32 0 0 1-6.1-6.45 6.43 6.43 0 0 1 6-5.93 6.09 6.09 0 0 1 6.31 6.16ZM627.81 533.07a6.14 6.14 0 0 1-5.87-6.06 6.44 6.44 0 0 1 6.54-6.14 6.27 6.27 0 0 1 5.75 6.82 5.94 5.94 0 0 1-6.42 5.38ZM322.05 455.27a5.85 5.85 0 0 1-5.59-6.19 6.1 6.1 0 0 1 6.5-6 6.37 6.37 0 0 1 5.7 6.3 6.14 6.14 0 0 1-6.61 5.89ZM536.52 617.85a6.111 6.111 0 1 1 6.09-5.79 6 6 0 0 1-6.09 5.79ZM238.09 351.84a6 6 0 0 1 5.79 6.08 6.11 6.11 0 0 1-6.72 5.77 5.943 5.943 0 0 1 .93-11.85ZM94.94 633.12a5.993 5.993 0 1 1-.25 11.98 6 6 0 0 1-5.94-6.44 5.93 5.93 0 0 1 6.19-5.54ZM158 713.49a5.89 5.89 0 1 1 5.5-2.684 5.88 5.88 0 0 1-5.5 2.684ZM190.23 450.17a5.83 5.83 0 0 1-5.74-6 6.12 6.12 0 0 1 6.3-6.15 6.29 6.29 0 0 1 5.78 6.7 6 6 0 0 1-6.34 5.45ZM266.6 337.32a5.92 5.92 0 1 1-5.23-6.52 6 6 0 0 1 5.23 6.52ZM404.12 622.84a5.91 5.91 0 1 1-5.642 3.4 5.87 5.87 0 0 1 5.642-3.4ZM315.88 641.63a6 6 0 1 1-6.92 4.92 6 6 0 0 1 6.92-4.92ZM634.88 505.37a6 6 0 0 1-6.16 5.69 5.91 5.91 0 0 1-5.6-5.62 6.06 6.06 0 0 1 5.83-6.06 6.13 6.13 0 0 1 5.93 5.99ZM626.73 565.36a5.9 5.9 0 1 1-6.21 5.62 6.08 6.08 0 0 1 6.21-5.62ZM149.69 508.56a5.859 5.859 0 1 0-.01 0ZM97.47 567.06a5.8 5.8 0 0 1 5.75 6 5.89 5.89 0 0 1-11.77-.3 5.81 5.81 0 0 1 6.02-5.7ZM589.2 547.53a6 6 0 0 1-6 5.78 5.84 5.84 0 0 1 .1-11.67 6 6 0 0 1 5.9 5.89ZM291.61 674.26a6.14 6.14 0 0 1-5.43-6.41 6 6 0 0 1 6.08-5.1 5.75 5.75 0 0 1 5.36 6.37 5.89 5.89 0 0 1-6.01 5.14ZM547.45 480.05a5.86 5.86 0 0 1-6.28 5.48 5.69 5.69 0 0 1-5.06-6 5.59 5.59 0 0 1 6.21-5.44 5.77 5.77 0 0 1 5.13 5.96ZM246.86 705.14a5.88 5.88 0 1 1-6.39 5.34 5.69 5.69 0 0 1 6.39-5.34ZM285.18 425.99a5.62 5.62 0 0 1-6.38 5.14 5.715 5.715 0 1 1 6.38-5.14ZM625.49 598.81a5.77 5.77 0 0 1-5.56-5.57 5.52 5.52 0 0 1 5.84-5.8 5.69 5.69 0 0 1 5.63 5.46 6 6 0 0 1-5.91 5.91ZM606.79 510.15a5.62 5.62 0 0 1-5.59-6 5.82 5.82 0 0 1 6.11-5.56 6 6 0 0 1 5.34 5.76 5.73 5.73 0 0 1-5.86 5.8ZM287.61 359.84a5.64 5.64 0 0 1-5.86 5.19 5.46 5.46 0 0 1-5.28-6.28 5.57 5.57 0 0 1 6.07-4.9 5.76 5.76 0 0 1 5.07 5.99ZM611.74 526.47a5.84 5.84 0 0 1-6.23 5.42 5.66 5.66 0 0 1-5.06-5.9 5.42 5.42 0 0 1 6.15-5.33 5.61 5.61 0 0 1 5.14 5.81ZM584.81 509.14a5.65 5.65 0 0 1-5.45-5.53 6 6 0 0 1 6-5.78 5.75 5.75 0 0 1 5.32 6.28 5.39 5.39 0 0 1-5.87 5.03ZM603.56 597.99a5.66 5.66 0 0 1-5.67-5.39 5.44 5.44 0 0 1 5.61-6 5.6 5.6 0 0 1 5.73 5.3 5.82 5.82 0 0 1-5.67 6.09ZM394 451.99a5.63 5.63 0 0 1-5.57 5.49 5.81 5.81 0 0 1-5.61-6.12 5.57 5.57 0 0 1 5.93-5.07 5.37 5.37 0 0 1 5.25 5.7ZM342.6 648.65a5.7 5.7 0 0 1-5.72 5.29 5.48 5.48 0 0 1-5.41-5.53 5.57 5.57 0 0 1 6-5.61 5.81 5.81 0 0 1 5.13 5.85ZM269.37 695.26a5.38 5.38 0 0 1-5.61-5.34 5.71 5.71 0 0 1 5.83-5.88 6 6 0 0 1 5.37 5.8 5.55 5.55 0 0 1-5.59 5.42ZM366.52 445.36a5.4 5.4 0 0 1 5.45 5.44 5.69 5.69 0 0 1-5.78 5.83 6 6 0 0 1-5.52-6.16 5.64 5.64 0 0 1 5.85-5.11ZM286.68 382.06a5.86 5.86 0 0 1-6 5.05 5.59 5.59 0 0 1-5-6 5.37 5.37 0 0 1 5.95-4.95 5.56 5.56 0 0 1 5.05 5.9ZM79.14 616.54a5.48 5.48 0 0 1-6 5 5.3 5.3 0 0 1-5.09-5.86 5.61 5.61 0 0 1 5.89-5.2 6 6 0 0 1 5.2 6.06ZM633 549.4a5.93 5.93 0 0 1-5.73 5.41 5.54 5.54 0 0 1-5.44-6.16 5.4 5.4 0 0 1 5.9-5 5.74 5.74 0 0 1 5.27 5.75ZM241.48 402.07a5.29 5.29 0 0 1-5.51 5.37 5.58 5.58 0 0 1-5.44-5.57 5.46 5.46 0 0 1 5.62-5.32 5.23 5.23 0 0 1 5.33 5.52ZM99.42 660.84a5.42 5.42 0 0 1-5.42 5.61 5.75 5.75 0 0 1-5.66-5.46 5.61 5.61 0 0 1 5.53-5.56 5.33 5.33 0 0 1 5.55 5.41ZM141.71 706.8a5.66 5.66 0 0 1-5.56 5.49 5.43 5.43 0 0 1-5.41-5.55 5.54 5.54 0 0 1 5.47-5.53 5.77 5.77 0 0 1 5.5 5.59ZM202.23 714.82a5.39 5.39 0 0 1-5.49-5.46 5.51 5.51 0 0 1 5.38-5.62 5.7 5.7 0 0 1 5.57 5.51 5.63 5.63 0 0 1-5.46 5.57ZM344.58 455.48a5.55 5.55 0 0 1-5.34-5.1 5.41 5.41 0 0 1 5.37-5.64 5.54 5.54 0 0 1 5.4 5.67 5.77 5.77 0 0 1-5.43 5.07ZM609.84 570.99a5.46 5.46 0 0 1-6.05 4.75 5.29 5.29 0 0 1-4.85-5.91 5.52 5.52 0 0 1 6-4.86 5.74 5.74 0 0 1 4.9 6.02ZM115.52 678.35a5.55 5.55 0 0 1 5.12 5.79 5.33 5.33 0 0 1-5.74 5.07 5.49 5.49 0 0 1-5.2-5.69 5.79 5.79 0 0 1 5.82-5.17ZM269.41 248.77a5.45 5.45 0 0 1-5.07 5.24 5.3 5.3 0 1 1-.5-10.59 5.4 5.4 0 0 1 5.57 5.35ZM239.88 308.51a5.24 5.24 0 0 1 4.86 5.94 5.36 5.36 0 0 1-5.41 4.87 5.52 5.52 0 0 1-5.24-5.72 5.35 5.35 0 0 1 5.79-5.09ZM650.2 533.35a5.53 5.53 0 0 1-5.32-5.64 5.38 5.38 0 0 1 5.11-5.18 5.25 5.25 0 0 1 5.58 5.27 5.38 5.38 0 0 1-5.37 5.55ZM74.34 599.35a5.3 5.3 0 0 1-.18-10.6 5.3 5.3 0 1 1 .18 10.6ZM243.91 336.09a5.14 5.14 0 0 1-5.6 5.17 5.3 5.3 0 1 1 5.6-5.17ZM218.31 423.35a5.22 5.22 0 1 1-5-5.79 5.32 5.32 0 0 1 5 5.79ZM247.18 248.2a5.19 5.19 0 0 1-5.37 4.88 5.1 5.1 0 0 1-5-5.25 5.25 5.25 0 0 1 5.66-5.2 5.31 5.31 0 0 1 4.71 5.57ZM216 351.63a5.29 5.29 0 1 1-5.48 4.81 5.29 5.29 0 0 1 5.48-4.81ZM653 593.99a5.22 5.22 0 1 1-4.82-5.37 5.22 5.22 0 0 1 4.82 5.37ZM492.44 626.9a5.26 5.26 0 1 1-5.177 2.822 5.23 5.23 0 0 1 5.177-2.822ZM587 591.57a5.22 5.22 0 1 1-4.7-5.49 5.29 5.29 0 0 1 4.7 5.49ZM519 633.19a5.3 5.3 0 1 1-1.594-3.852A5.32 5.32 0 0 1 519 633.19ZM280.21 398.46a5.2 5.2 0 1 1-5.24 5 5.26 5.26 0 0 1 5.24-5ZM176.26 240.05a5.3 5.3 0 1 1-5.347 5.045 5.3 5.3 0 0 1 5.347-5.045ZM77.72 638.53a5.12 5.12 0 0 1-5.31 4.87 5.143 5.143 0 0 1 .59-10.27 5 5 0 0 1 4.72 5.4ZM181.94 223.56a5.26 5.26 0 0 1-5.41 4.84 5.15 5.15 0 0 1-4.72-5.47 5 5 0 0 1 5.36-4.8 5.16 5.16 0 0 1 4.77 5.43ZM656.31 506.23a5.21 5.21 0 1 1-4.949-5.273 5.21 5.21 0 0 1 4.949 5.273ZM214.2 395.93a5.19 5.19 0 1 1-4.71 2.457 5.19 5.19 0 0 1 4.71-2.457ZM215 373.84a5.19 5.19 0 0 1 4.86 5.31 4.85 4.85 0 0 1-5.2 4.87 5 5 0 0 1-4.92-5.21 5.28 5.28 0 0 1 5.26-4.97ZM265 221.46a5.171 5.171 0 1 1-.19 10.34 5.42 5.42 0 0 1-5-5.27 5.28 5.28 0 0 1 5.19-5.07ZM242.54 230.86a5 5 0 0 1-4.66-5.54 4.91 4.91 0 0 1 5-4.59 5.16 5.16 0 0 1 5.08 5.2 5.25 5.25 0 0 1-5.42 4.93ZM220 252.05a5.09 5.09 0 0 1-5.18-5 5.32 5.32 0 0 1 5-5.22 5.15 5.15 0 0 1 5.1 5.08 4.86 4.86 0 0 1-4.92 5.14ZM625.19 609.99a5 5 0 0 1 4.69 5.41 4.91 4.91 0 0 1-5.25 4.84 5 5 0 0 1-5-5.71 5.11 5.11 0 0 1 5.56-4.54ZM648.67 577.28a5.06 5.06 0 0 1-5.18-5 4.89 4.89 0 0 1 5-5.19 5.06 5.06 0 0 1 5.24 5 5.19 5.19 0 0 1-5.06 5.19ZM196.47 422.36a5.46 5.46 0 0 1-5.54 4.8 5.12 5.12 0 0 1-4.55-5.66 5 5 0 0 1 5.1-4.49 5.38 5.38 0 0 1 4.99 5.35ZM197.23 273.27a4.85 4.85 0 0 1-4.94-5.19 5 5 0 0 1 4.73-4.83 5.22 5.22 0 0 1 5.34 4.93 5.09 5.09 0 0 1-5.13 5.09ZM221.56 335.51a4.88 4.88 0 0 1-5.46 4.66 5 5 0 0 1-4.72-5.46 5.06 5.06 0 0 1 5.51-4.69 5 5 0 0 1 4.67 5.49ZM158.85 244.39a4.78 4.78 0 0 1-5 5 5 5 0 0 1-5-4.59 5.28 5.28 0 0 1 4.82-5.48 5.12 5.12 0 0 1 5.18 5.07ZM168.89 438.22a5.28 5.28 0 0 1 4.54 5.71 5 5 0 0 1-5.81 4.29 4.79 4.79 0 0 1-4.18-5.24 5.11 5.11 0 0 1 5.45-4.76ZM410.34 457.65a5.23 5.23 0 0 1-4.91-5.31 5.52 5.52 0 0 1 5.39-4.92 5.42 5.42 0 0 1 4.86 5.41 5.05 5.05 0 0 1-5.34 4.82ZM306.26 426.41a5.16 5.16 0 0 1-5.27 4.89 5 5 0 0 1-4.67-5.4 4.82 4.82 0 0 1 4.87-4.53 5.06 5.06 0 0 1 5.07 5.04ZM154.77 227.41a5.15 5.15 0 0 1-5.05-5.11 5 5 0 0 1 4.66-4.82 4.85 4.85 0 0 1 5.28 4.74 5 5 0 0 1-4.89 5.19ZM585.88 613.87a4.837 4.837 0 1 1-4.73-5.39 5.11 5.11 0 0 1 4.73 5.39ZM649.73 544.99a5.13 5.13 0 0 1 4.68 5.44 4.867 4.867 0 1 1-4.68-5.44ZM241.66 264.99a5.14 5.14 0 0 1 4.46 5.63 5.05 5.05 0 0 1-5.77 4.24 4.85 4.85 0 0 1-4.12-5.25 5 5 0 0 1 5.43-4.62ZM646.79 620.87a4.9 4.9 0 0 1-4.76-4.67 5 5 0 0 1 5-5.13 5.13 5.13 0 0 1 4.8 5.33 5 5 0 0 1-5.04 4.47ZM559.24 607.7a5 5 0 0 1 4.32 5.68 4.9 4.9 0 0 1-5.27 4.09 5 5 0 0 1-4.43-5 5.17 5.17 0 0 1 5.38-4.77ZM452.69 630.82a5.22 5.22 0 0 1-5.55 4.63 5 5 0 0 1-4.24-5.25 4.69 4.69 0 0 1 5.47-4.51 4.9 4.9 0 0 1 4.32 5.13ZM430.82 629.73a5 5 0 0 1-5.25 4.91 5.23 5.23 0 0 1-4.61-5 5 5 0 0 1 4.69-4.82 4.79 4.79 0 0 1 5.17 4.91ZM268.21 271.09a5 5 0 0 1-5.52 4.62 4.77 4.77 0 0 1-4.26-5.17 4.91 4.91 0 0 1 4.81-4.69 5.13 5.13 0 0 1 4.97 5.24ZM145.39 469.61c-2.51 0-4.69-1.89-4.66-4 .07-3.89 1.79-6.15 4.66-6.11a5 5 0 0 1 5.08 5.06 4.87 4.87 0 0 1-5.08 5.05ZM602.91 609.34a4.92 4.92 0 0 1 4.58 4.92 4.74 4.74 0 0 1-5.12 4.94 5 5 0 0 1-4.68-4.86 5.15 5.15 0 0 1 5.22-5ZM203 246.55a4.84 4.84 0 0 1-5.09 4.4 4.61 4.61 0 0 1-4.54-5.44 4.87 4.87 0 0 1 5.26-4.19 5.2 5.2 0 0 1 4.37 5.23ZM223 291.04a4.8 4.8 0 0 1-4.79 4.72 5.06 5.06 0 0 1-5-5.25 5 5 0 0 1 5.17-4.35 4.72 4.72 0 0 1 4.62 4.88ZM185.34 708.68a5.16 5.16 0 0 1-5.46 4.72 4.87 4.87 0 0 1-4.34-5.1 4.67 4.67 0 0 1 4.72-4.68 5 5 0 0 1 5.08 5.06ZM568.54 480.62a4.88 4.88 0 0 1-4.7 4.75 4.75 4.75 0 0 1 0-9.49 4.91 4.91 0 0 1 4.7 4.74ZM261.79 309.89a4.92 4.92 0 0 1 4.55 4.89 4.7 4.7 0 0 1-5.29 4.64 4.58 4.58 0 0 1-4.19-5.08 4.75 4.75 0 0 1 4.93-4.45ZM273.23 711.92a4.72 4.72 0 0 1-4.69 4.78 5 5 0 0 1-5-5.21 4.91 4.91 0 0 1 5.11-4.4 4.56 4.56 0 0 1 4.58 4.83ZM229.12 710.4a4.92 4.92 0 0 1-5 4.46 4.7 4.7 0 1 1 .48-9.38 4.85 4.85 0 0 1 4.52 4.92ZM285.74 254.22a4.54 4.54 0 0 1-4.21-5.09 4.681 4.681 0 1 1 9.32.88 4.57 4.57 0 0 1-5.11 4.21ZM629.75 487.84a4.686 4.686 0 1 1 4.74-4.74 4.85 4.85 0 0 1-4.74 4.74ZM586.37 476.91a4.77 4.77 0 0 1 4.07 5.32 4.592 4.592 0 0 1-9.06-1.5 5 5 0 0 1 4.99-3.82ZM157.64 266.82a4.85 4.85 0 0 1-5.12 4.36 4.62 4.62 0 0 1 1.06-9.17 4.89 4.89 0 0 1 4.06 4.81ZM175.08 262.75a5 5 0 0 1 4.72 4.8 4.67 4.67 0 1 1-4.72-4.8ZM225.53 225.13a4.73 4.73 0 0 1-4.85 4.51 4.9 4.9 0 0 1-4.8-4.63 4.83 4.83 0 0 1 5.21-4.77 4.68 4.68 0 0 1 4.44 4.89ZM358.54 653.85a4.64 4.64 0 1 1 4.285-2.043 4.64 4.64 0 0 1-4.285 2.043ZM282.45 342.43a4.79 4.79 0 0 1-4.28-5.13 4.66 4.66 0 1 1 9.291.73 4.79 4.79 0 0 1-5.011 4.4ZM291.71 227.69a4.5 4.5 0 0 1-4.9 4.4 4.64 4.64 0 1 1 .45-9.26 4.51 4.51 0 0 1 4.45 4.86ZM470 626.61a4.67 4.67 0 0 1 4.45 4.93 4.77 4.77 0 0 1-4.84 4.6 4.88 4.88 0 0 1-4.47-5 4.67 4.67 0 0 1 4.86-4.53ZM267.22 292.71a4.74 4.74 0 0 1-4.75 4.6 4.691 4.691 0 1 1 4.75-4.6ZM203.52 224.38a4.6 4.6 0 1 1-4.45-4.89 4.48 4.48 0 0 1 4.45 4.89ZM219 264.63a4.57 4.57 0 1 1-3.24 1.493 4.53 4.53 0 0 1 3.24-1.493ZM125.69 530.13a4.6 4.6 0 1 1-1.887-4.313 4.6 4.6 0 0 1 1.887 4.313ZM198.46 355.99a4.6 4.6 0 1 1-4.85-4.46 4.42 4.42 0 0 1 4.85 4.46ZM318.55 669.49a4.67 4.67 0 1 1-1.247-3.353 4.67 4.67 0 0 1 1.247 3.353ZM407.87 652.46a63.794 63.794 0 0 1-8.93 1.25c-2-2.61-1.29-4.65.39-6.47a4.83 4.83 0 0 1 5.69-1.09c2.56 1.25 3.54 3.23 2.85 6.31ZM675.66 551.28a4.7 4.7 0 0 1-4.57 4.11 4.57 4.57 0 0 1-4.27-5 4.5 4.5 0 0 1 4.52-4.09 4.57 4.57 0 0 1 4.32 4.98ZM540.33 634.27a4.518 4.518 0 0 1-9-.81 4.62 4.62 0 0 1 4.56-4.19 4.7 4.7 0 0 1 4.44 5ZM270.29 204.65a4.55 4.55 0 0 1-4.84 4.48 4.61 4.61 0 0 1-4.24-4.47 4.68 4.68 0 0 1 4.56-4.8 4.59 4.59 0 0 1 4.52 4.79ZM612.25 482.23a4.5 4.5 0 0 1-9 .18 4.61 4.61 0 0 1 4.7-4.7 4.69 4.69 0 0 1 4.3 4.52ZM285.68 267.08a4.61 4.61 0 1 1-4.76 4 4.66 4.66 0 0 1 4.76-4ZM174.73 284.8a4.431 4.431 0 1 1-4.845 3.975 4.431 4.431 0 0 1 4.845-3.975ZM240.43 296.16a4.58 4.58 0 0 1-4.68-4.58 4.68 4.68 0 0 1 4.41-4.27 4.49 4.49 0 0 1 4.63 4.61 4.42 4.42 0 0 1-4.36 4.24ZM197.42 378.37a4.44 4.44 0 0 1-4.42 4.31 4.55 4.55 0 0 1-4.41-5 4.33 4.33 0 0 1 4.75-3.9 4.2 4.2 0 0 1 4.08 4.59ZM669.16 599.17a4.48 4.48 0 0 1-4-4.63 4.19 4.19 0 0 1 5-4.06 4.31 4.31 0 0 1 3.7 4.8 4.6 4.6 0 0 1-4.7 3.89ZM200 312.51a4.47 4.47 0 0 1-4.55 4.18 4.58 4.58 0 0 1-4.27-5.1 4.35 4.35 0 0 1 4.87-3.75 4.21 4.21 0 0 1 3.95 4.67ZM176.94 333.35a4.46 4.46 0 0 1-4.11 4.53 4.71 4.71 0 0 1-4.69-4.64 4.6 4.6 0 0 1 4.5-4.19 4.37 4.37 0 0 1 4.3 4.3ZM199 334.62a4.34 4.34 0 0 1-4.62 4 4.46 4.46 0 0 1-4-4.67 4.38 4.38 0 0 1 4.67-4 4.22 4.22 0 0 1 3.95 4.67ZM199.33 206.35a4.38 4.38 0 0 1-4-4.68 4.78 4.78 0 0 1 4.58-4.25 4.61 4.61 0 0 1 4.24 5.13 4.26 4.26 0 0 1-4.82 3.8ZM55.83 615.76a4.31 4.31 0 0 1-4.7 3.83 4.16 4.16 0 0 1-4-4.5 4.49 4.49 0 0 1 5-4.21 4.59 4.59 0 0 1 3.7 4.88ZM98.25 555.29a4.39 4.39 0 0 1-4.53-4.08 4.73 4.73 0 0 1 4.64-4.69 4.61 4.61 0 0 1 4.15 4.5 4.19 4.19 0 0 1-4.26 4.27ZM244.07 199.21a4.48 4.48 0 0 1 3.93 4.68 4.19 4.19 0 0 1-5.06 4 4.34 4.34 0 0 1-3.67-4.82 4.73 4.73 0 0 1 4.8-3.86ZM292.31 205.32a4.29 4.29 0 0 1-4.24 4.34 4.17 4.17 0 0 1-4.51-4 4.51 4.51 0 0 1 4.49-4.79 4.71 4.71 0 0 1 4.26 4.45ZM385.17 650.31a4.27 4.27 0 0 1-4.55 4.06 4.46 4.46 0 0 1-4.12-4.56 4.56 4.56 0 0 1 4.62-4.1 4.34 4.34 0 0 1 4.05 4.6ZM171.84 350.91a4.27 4.27 0 0 1 4.12 4.4 4.15 4.15 0 0 1-4.29 4.18 4.45 4.45 0 0 1-4.23-4.35 4.56 4.56 0 0 1 4.4-4.23ZM307.17 382.52a4.41 4.41 0 0 1-4.38 4.27 4.71 4.71 0 0 1-4.29-4.47 4.51 4.51 0 0 1 4.5-4.18 4.11 4.11 0 0 1 4.17 4.38ZM272.54 138.81a4.09 4.09 0 0 1-4.54 3.88 4.35 4.35 0 0 1-4-4.5 4.67 4.67 0 0 1 4.62-4 4.46 4.46 0 0 1 3.92 4.62ZM676.41 528.67a4.55 4.55 0 0 1-4.26 4.46 4.42 4.42 0 0 1-4.38-4.28 4.11 4.11 0 0 1 4.23-4.36 4.32 4.32 0 0 1 4.41 4.18ZM677.2 506.84a4.25 4.25 0 0 1-4.22 4.28 4.07 4.07 0 0 1-4.33-4.1 4.41 4.41 0 0 1 4.16-4.4 4.55 4.55 0 0 1 4.39 4.22ZM221.68 313.24a4.54 4.54 0 0 1-4.66 4.09 4.27 4.27 0 0 1-3.8-4.8 4 4 0 0 1 4.19-3.71 4.38 4.38 0 0 1 4.27 4.42ZM432.57 449.27a4.34 4.34 0 0 1 4.44 4.23 4.6 4.6 0 0 1-4.47 4.29 4.33 4.33 0 0 1-4-4 4 4 0 0 1 4.03-4.52ZM131.93 247.99a4.6 4.6 0 0 1-4.16-4.47 4.4 4.4 0 0 1 4.46-4.09 4.21 4.21 0 0 1 4.11 4.38 4.53 4.53 0 0 1-4.41 4.18ZM520.55 460.99a4.44 4.44 0 0 1-4.26-4.39 4.37 4.37 0 0 1 4.11-3.89 4.16 4.16 0 0 1 4.2 3.72 4.25 4.25 0 0 1-4.05 4.56ZM290.71 694.8a4.44 4.44 0 0 1-4-4.62 4.72 4.72 0 0 1 4.73-4 4.36 4.36 0 0 1 3.87 4.73 4.06 4.06 0 0 1-4.6 3.89ZM159.87 200.68a4.27 4.27 0 0 1-4.83 3.74 3.94 3.94 0 0 1-3.63-4.25 4.4 4.4 0 0 1 4.45-4.21 4.59 4.59 0 0 1 4.01 4.72ZM652.14 479.85a4 4 0 0 1 4 4.55 4.12 4.12 0 0 1-4.1 3.84 4.41 4.41 0 0 1-4.37-4.3 4.29 4.29 0 0 1 4.47-4.09ZM181.94 201.1a4.09 4.09 0 0 1-4.26 4.26 4.36 4.36 0 0 1-4.38-4.25 4.73 4.73 0 0 1 4.36-4.4 4.48 4.48 0 0 1 4.28 4.39ZM133.17 217.29a4.37 4.37 0 0 1 3.94 4.65 4.25 4.25 0 0 1-4.11 3.83 4.46 4.46 0 0 1-4.33-4.31 4.56 4.56 0 0 1 4.5-4.17ZM349.56 428.21a4.38 4.38 0 0 1-4 3.88 4.29 4.29 0 0 1-4.17-4.33 4.111 4.111 0 0 1 8.21.45ZM498.37 460.24a4.23 4.23 0 0 1-3.76-4.72 3.94 3.94 0 0 1 4.12-3.68 4.27 4.27 0 0 1 4.18 4.35 4.5 4.5 0 0 1-4.54 4.05ZM283.76 311.49a4.3 4.3 0 0 1 4 4.48 4.5 4.5 0 0 1-4.21 3.69 4.28 4.28 0 0 1-4-3.9 4.16 4.16 0 0 1 4.21-4.27ZM200.45 290.12a4.034 4.034 0 0 1-8.06-.38 4.43 4.43 0 0 1 4.21-3.75 4.35 4.35 0 0 1 3.85 4.13ZM294.5 139.76a4.18 4.18 0 0 1-4.32 3.61 4.019 4.019 0 1 1 .78-8 4.16 4.16 0 0 1 3.54 4.39ZM672.75 616.99a4.09 4.09 0 0 1-4.12 3.77 3.939 3.939 0 1 1 4.12-3.77ZM273.23 116.76a4.16 4.16 0 0 1-3.81 4 4.31 4.31 0 0 1-4.4-4.09 4.38 4.38 0 0 1 3.86-4 4.17 4.17 0 0 1 4.35 4.09ZM184.25 135.47a3.82 3.82 0 0 1-4 3.72 4 4 0 0 1-4.08-4.37 4.18 4.18 0 0 1 4.1-3.81 4.13 4.13 0 0 1 3.98 4.46ZM312.75 229.06a4.19 4.19 0 0 1-4.53 3.32 4.14 4.14 0 0 1-3.22-5.14 4.19 4.19 0 0 1 4.13-3 4.14 4.14 0 0 1 3.62 4.82ZM79.2 571.91a4.07 4.07 0 0 1-3.79 4.08 4.16 4.16 0 0 1-4.14-3.759 4 4 0 1 1 7.93-.351ZM308.07 246.35a3.964 3.964 0 1 1-4.1 3.85 4 4 0 0 1 4.1-3.85ZM174.92 377.47a4 4 0 1 1-1.847-3.834 4 4 0 0 1 1.847 3.834ZM178.32 183.3a4 4 0 0 1 .43-7.95 4.06 4.06 0 0 1 3.72 4.19 4 4 0 0 1-4.15 3.76ZM245.57 155.76a4 4 0 1 1-4.08 3.68 4.1 4.1 0 0 1 4.08-3.68ZM291.64 113.62a4.13 4.13 0 0 1 3.52 4.32 3.94 3.94 0 1 1-7.841-.78 4.21 4.21 0 0 1 4.321-3.54ZM266.32 186.71a4.32 4.32 0 0 1-3.74-4.16 4.26 4.26 0 0 1 4-3.85 4.003 4.003 0 0 1-.3 8ZM670.47 569.13a3.91 3.91 0 0 1 3.79 4 4 4 0 0 1-4.06 3.76 4.1 4.1 0 0 1-3.8-4 3.93 3.93 0 0 1 4.07-3.76ZM601.73 640.33a4.11 4.11 0 0 1-3.85-4 3.931 3.931 0 0 1 7.86.16 4.06 4.06 0 0 1-4.01 3.84ZM302.18 408.51a4 4 0 1 1 3.895-4.105 4 4 0 0 1-3.895 4.105ZM494.85 654.43a3.85 3.85 0 0 1-4.05 3.71 4 4 0 0 1-3.52-4.26 3.89 3.89 0 0 1 3.72-3.39 3.82 3.82 0 0 1 3.85 3.94ZM161.9 134.56a3.78 3.78 0 0 1-4 3.62 3.9 3.9 0 0 1-3.61-4.11 3.77 3.77 0 0 1 4.09-3.56 3.66 3.66 0 0 1 3.52 4.05ZM177.35 311.35a3.83 3.83 0 0 1-3.91 3.82 3.72 3.72 0 0 1-3.8-3.9 3.88 3.88 0 0 1 3.87-3.89 4.07 4.07 0 0 1 3.84 3.97ZM222.42 184.87a3.86 3.86 0 0 1-3.89-3.85 4.06 4.06 0 0 1 3.85-3.95 3.93 3.93 0 0 1 3.85 3.9 3.76 3.76 0 0 1-3.81 3.9ZM173.93 399.88a3.8 3.8 0 0 1-4.28 3.34 3.69 3.69 0 0 1-3.35-4.23 3.73 3.73 0 0 1 4.25-3.35 3.82 3.82 0 0 1 3.38 4.24ZM246.11 141.51a3.77 3.77 0 0 1-3.62-4.08 3.58 3.58 0 0 1 3.51-3.44 3.77 3.77 0 0 1 4 3.71 3.91 3.91 0 0 1-3.89 3.81ZM554.12 634.28a3.82 3.82 0 0 1 4.4-3.24 3.58 3.58 0 0 1 3.13 3.87 3.79 3.79 0 0 1-4 3.64 4 4 0 0 1-3.53-4.27ZM458.35 454.47a3.82 3.82 0 0 1-4.19 3.55 3.72 3.72 0 0 1-3.47-3.64 4.08 4.08 0 0 1 3.86-4 4.19 4.19 0 0 1 3.8 4.09ZM480.36 455.35a3.69 3.69 0 0 1-4.17 3.5 3.88 3.88 0 0 1-3.49-3.66 4.18 4.18 0 0 1 3.95-3.95 4 4 0 0 1 3.71 4.11ZM184.92 113.71a3.87 3.87 0 0 1-4.24 3.47 3.76 3.76 0 0 1-3.41-4.25 3.9 3.9 0 0 1 4.19-3.52 4 4 0 0 1 3.46 4.3ZM150.37 336.33a3.73 3.73 0 0 1-3.66-4 3.85 3.85 0 0 1 4.22-3.49 3.68 3.68 0 0 1 3.31 3.75 3.59 3.59 0 0 1-3.87 3.74ZM225.29 203.22a3.81 3.81 0 0 1-4.25 3.42 4 4 0 0 1-3.24-4.48 3.76 3.76 0 0 1 4-3 3.58 3.58 0 0 1 3.49 4.06ZM267.32 156.91a4 4 0 0 1 4 3.87 4.09 4.09 0 0 1-3.64 3.58 3.79 3.79 0 0 1-3.88-3.86 3.68 3.68 0 0 1 3.52-3.59ZM130.84 269.49a3.78 3.78 0 0 1 .55-7.54 4 4 0 0 1 3.73 4.08 3.89 3.89 0 0 1-4.28 3.46ZM224.19 133.24a3.49 3.49 0 0 1 3.54 3.54 3.89 3.89 0 0 1-3.42 3.77 3.94 3.94 0 0 1-3.89-4 3.59 3.59 0 0 1 3.77-3.31ZM155.87 288.75a3.82 3.82 0 0 1-3.73 3.4 3.89 3.89 0 0 1-3.7-4.11 3.82 3.82 0 0 1 4.4-3.31 3.67 3.67 0 0 1 3.03 4.02ZM157.58 152.72a3.65 3.65 0 0 1 3.37 3.71 3.73 3.73 0 0 1-4 3.7 3.93 3.93 0 0 1-3.42-3.75 3.77 3.77 0 0 1 4.05-3.66ZM33.42 614.33a3.94 3.94 0 0 1-3.92 3.91 3.74 3.74 0 0 1-3.52-3.6 3.56 3.56 0 0 1 3.23-3.81 3.73 3.73 0 0 1 4.21 3.5ZM92.85 686.7a3.78 3.78 0 0 1-3.35-3.81 3.5 3.5 0 0 1 3.59-3.49 3.68 3.68 0 0 1 3.7 4 4 4 0 0 1-3.94 3.3ZM313.36 206.48a3.93 3.93 0 0 1-3.78 3.43 3.83 3.83 0 0 1-3.5-4.27 3.56 3.56 0 0 1 4-3 3.64 3.64 0 0 1 3.28 3.84ZM624 633.68a3.49 3.49 0 0 1 3.59 3.49 3.9 3.9 0 0 1-3.39 3.82 4 4 0 0 1-3.93-3.94 3.59 3.59 0 0 1 3.73-3.37ZM56.05 593.58a3.74 3.74 0 0 1-4.33 3.33 3.94 3.94 0 0 1-3.31-3.81 4 4 0 0 1 4.1-3.72 3.83 3.83 0 0 1 3.54 4.2ZM246.82 119.58a3.59 3.59 0 0 1-3.47-4.14 3.9 3.9 0 0 1 3.65-3.45 4.05 4.05 0 0 1 3.84 4 3.7 3.7 0 0 1-4.02 3.59ZM151.7 306.61a4 4 0 0 1 3.38 4.34 3.65 3.65 0 0 1-3.78 3.25 3.71 3.71 0 0 1-3.74-3.94 4 4 0 0 1 4.14-3.65ZM649.64 638.38a3.87 3.87 0 0 1-3.72 3.35 3.76 3.76 0 0 1-3.43-4.19 3.55 3.55 0 0 1 4-2.94 3.64 3.64 0 0 1 3.15 3.78ZM159.09 108.8a3.8 3.8 0 0 1 3.46 3.68 3.44 3.44 0 0 1-3.46 3.58 3.6 3.6 0 0 1-3.81-3.88 3.9 3.9 0 0 1 3.81-3.38ZM134.09 195.83a3.8 3.8 0 0 1 3.5 3.61 4 4 0 0 1-4.05 3.78 3.85 3.85 0 0 1-3.38-4.32 3.59 3.59 0 0 1 3.93-3.07ZM206.85 114.38a3.65 3.65 0 0 1-3.71 3.35 3.4 3.4 0 0 1-3.55-3.45 3.68 3.68 0 0 1 3.94-3.76 3.93 3.93 0 0 1 3.32 3.86ZM692.52 570.27a3.48 3.48 0 0 1 3.5 3.45 3.86 3.86 0 0 1-3.36 3.72 3.91 3.91 0 0 1-3.83-3.88 3.6 3.6 0 0 1 3.69-3.29ZM288.94 179.87a3.7 3.7 0 0 1 3.33 3.75 3.39 3.39 0 0 1-3.5 3.5 3.62 3.62 0 0 1-3.71-4 3.92 3.92 0 0 1 3.88-3.25ZM122.2 503.99a3.94 3.94 0 0 1 3.46 3.71 3.68 3.68 0 0 1-4.15 3.52 3.43 3.43 0 0 1-3.06-3.9 3.7 3.7 0 0 1 3.75-3.33ZM205.91 136.08a3.81 3.81 0 0 1-3.66 3.52 3.51 3.51 0 0 1-3.41-3.67 3.36 3.36 0 0 1 3.56-3.46 3.63 3.63 0 0 1 3.51 3.61ZM185.57 91.54a3.74 3.74 0 0 1-3.78 3.34 3.63 3.63 0 0 1-3.47-4.21 3.55 3.55 0 0 1 4-3 3.59 3.59 0 0 1 3.25 3.87ZM139.91 133.54a3.79 3.79 0 0 1-3.65 3.53 3.53 3.53 0 0 1-3.42-3.66 3.37 3.37 0 0 1 3.56-3.42 3.62 3.62 0 0 1 3.51 3.55ZM50.85 633.86a3.4 3.4 0 0 1 3.28 3.69 3.52 3.52 0 0 1-3.54 3.49 3.82 3.82 0 0 1-3.69-4.05 3.76 3.76 0 0 1 3.95-3.13ZM201.52 161.71a3.49 3.49 0 0 1-3.59-3.42 3.41 3.41 0 0 1 3.23-3.75 3.68 3.68 0 0 1 4 3.69 3.74 3.74 0 0 1-3.64 3.48ZM118.07 705.92a3.82 3.82 0 0 1-3.5 3.64 3.53 3.53 0 0 1-3.74-3.25 3.44 3.44 0 0 1 3.68-3.91 3.66 3.66 0 0 1 3.56 3.52ZM179.33 153.68a3.605 3.605 0 1 1-.25 7.2 3.66 3.66 0 0 1-3.36-3.72 3.49 3.49 0 0 1 3.61-3.48ZM288.07 293.37a3.64 3.64 0 0 1-3.32 3.74 3.82 3.82 0 0 1-3.92-3.84 3.62 3.62 0 0 1 3.69-3.35 3.41 3.41 0 0 1 3.55 3.45ZM159.91 178.44a3.41 3.41 0 0 1-3.42 3.49 3.59 3.59 0 0 1-3.63-3.35 3.68 3.68 0 0 1 3.48-3.55 3.55 3.55 0 0 1 3.57 3.41ZM289.83 157.92a3.41 3.41 0 0 1 3.28 3.7 3.53 3.53 0 0 1-3.54 3.49 3.82 3.82 0 0 1-3.69-4.07 3.77 3.77 0 0 1 3.95-3.12ZM327 427.49a3.75 3.75 0 0 1-3.82 3.27 3.56 3.56 0 0 1-3.34-4.24 3.44 3.44 0 0 1 4-2.89 3.59 3.59 0 0 1 3.16 3.86ZM152.31 376.75a3.38 3.38 0 0 1-3.75 3.14 3.49 3.49 0 0 1-3.26-3.66 3.64 3.64 0 0 1 3.78-3.21 3.58 3.58 0 0 1 3.23 3.73ZM307.46 360.39a3.76 3.76 0 0 1-3.6 3.54 3.64 3.64 0 0 1-3.69-4 3.54 3.54 0 0 1 3.85-3.17 3.62 3.62 0 0 1 3.44 3.63ZM244.32 185.29a3.35 3.35 0 0 1-3.28-3.61 3.51 3.51 0 0 1 3.69-3.26 3.64 3.64 0 0 1 3.32 3.68 3.49 3.49 0 0 1-3.73 3.19ZM697.63 529.52a3.4 3.4 0 0 1-3.42 3.49 3.58 3.58 0 0 1-3.62-3.35 3.68 3.68 0 0 1 3.48-3.54 3.53 3.53 0 0 1 3.56 3.4ZM153.25 354.8a3.6 3.6 0 0 1-3.84 3.21 3.73 3.73 0 0 1-3.41-4.32 3.81 3.81 0 0 1 4.17-2.86 3.55 3.55 0 0 1 3.08 3.97ZM324.48 401.67a3.86 3.86 0 0 1 3.38 3.8 3.77 3.77 0 0 1-4.26 3.52 3.67 3.67 0 0 1 .88-7.28ZM192.06 403.91a3.49 3.49 0 0 1-3.43-3.62 3.68 3.68 0 0 1 3.4-3.71 3.87 3.87 0 0 1 3.84 4 3.83 3.83 0 0 1-3.81 3.33ZM516.47 654.99a3.58 3.58 0 0 1-3.4 3.67 3.505 3.505 0 0 1-.36-7 3.58 3.58 0 0 1 3.76 3.33ZM315.68 140.11a3.46 3.46 0 0 1-6.9.47 3.59 3.59 0 0 1 3.19-3.81 3.69 3.69 0 0 1 3.71 3.34ZM468.55 656.92a3.49 3.49 0 1 1 3.88-3.05 3.49 3.49 0 0 1-3.88 3.05ZM273.59 94.51a3.55 3.55 0 0 1-3.46 3.61 3.29 3.29 0 0 1-3.6-3.36 3.34 3.34 0 0 1 3.37-3.61 3.57 3.57 0 0 1 3.69 3.36ZM248.31 90.42a3.43 3.43 0 0 1 3.07 3.91 3.56 3.56 0 0 1-4.18 2.77 3.46 3.46 0 0 1-2.79-3.58 3.41 3.41 0 0 1 3.9-3.1ZM70.8 685.42a3.44 3.44 0 0 1-3.14-3.21 3.37 3.37 0 1 1 3.14 3.21ZM673.61 488.31a3.52 3.52 0 0 1-3.17-3.75 3.313 3.313 0 0 1 6.62.26 3.52 3.52 0 0 1-3.45 3.49ZM75.29 659.91a3.58 3.58 0 0 1-3.45 3.59 3.65 3.65 0 0 1-3.42-3.63 3.82 3.82 0 0 1 3.16-3.3 3.7 3.7 0 0 1 3.71 3.34ZM49.59 655.74a3.41 3.41 0 0 1 3.5 3.42 3.53 3.53 0 0 1-3.44 3.5 3.6 3.6 0 0 1-3.21-3.13 3.56 3.56 0 0 1 3.15-3.79ZM32.3 636.99a3.62 3.62 0 0 1-4.09 2.92 3.53 3.53 0 0 1-2.91-3.51 3.45 3.45 0 0 1 3.8-3.22 3.4 3.4 0 0 1 3.2 3.81ZM546 457.66a3.27 3.27 0 0 1-3.55 3.43 3.43 3.43 0 1 1 3.55-3.43ZM314.77 162.74a3.445 3.445 0 1 1-3.12-3.73 3.3 3.3 0 0 1 3.12 3.73ZM163.22 90.67a3.38 3.38 0 0 1-3.86 3 3.3 3.3 0 0 1 .57-6.57 3.34 3.34 0 0 1 3.29 3.57ZM713.42 599.78a3.41 3.41 0 0 1-3.09-3.77 3.48 3.48 0 0 1 4-2.86 3.63 3.63 0 0 1 2.86 3.44 3.57 3.57 0 0 1-3.77 3.19ZM694.05 617.64a3.59 3.59 0 0 1-3.05 3.35 3.54 3.54 0 0 1-3.43-2.93 3.35 3.35 0 0 1 3.33-3.6 3.48 3.48 0 0 1 3.15 3.18ZM172.48 421.93a3.29 3.29 0 0 1-4.25 2.36 3.23 3.23 0 0 1-2.25-3.79 3.33 3.33 0 0 1 6.5 1.43ZM307.3 269.27a3.34 3.34 0 0 1 3 3.27 3.39 3.39 0 0 1-3.1 3.24 3.47 3.47 0 0 1-3.38-3.61 3.52 3.52 0 0 1 3.48-2.9ZM307.8 338.88a3.26 3.26 0 1 1-6.42-1 3.6 3.6 0 0 1 3.73-2.55 3.4 3.4 0 0 1 2.69 3.55ZM131.85 331.72a3.17 3.17 0 0 1-2.95 3.27 3.27 3.27 0 0 1-3.38-3.51 3.4 3.4 0 0 1 3.3-3 3.17 3.17 0 0 1 3.03 3.24ZM367.09 431.99a3.22 3.22 0 1 1 3.44-2.77 3.22 3.22 0 0 1-3.44 2.77ZM313 121.65a3.41 3.41 0 0 1-3.21-3.1 3.25 3.25 0 1 1 6.49.07 3.37 3.37 0 0 1-3.28 3.03ZM295.43 95.71a3.26 3.26 0 0 1-3.87 3 3.19 3.19 0 0 1-2.76-3.48 3.324 3.324 0 0 1 6.63.49ZM225.18 111.92a3.31 3.31 0 0 1 3 3.21 3.46 3.46 0 0 1-3.79 3.12 3.36 3.36 0 0 1-2.67-3.57 3.13 3.13 0 0 1 3.46-2.76ZM667.39 642.04a3.06 3.06 0 0 1-2.71-3.43 3.39 3.39 0 0 1 3.3-3 3.47 3.47 0 0 1 3 3.88 3.19 3.19 0 0 1-3.59 2.55ZM203.67 180.08a3.12 3.12 0 0 1-2.93 3.26 3.27 3.27 0 0 1-3.24-3 3.06 3.06 0 0 1 3-3.19 3 3 0 0 1 3.17 2.93ZM534.8 652.81a3.16 3.16 0 1 1-2.94 3.2 3.16 3.16 0 0 1 2.94-3.2ZM130 290.72a3.18 3.18 0 0 1-2.9-3.39 3.22 3.22 0 0 1 3.92-2.95 3.14 3.14 0 0 1 2.51 3.68 3 3 0 0 1-3.53 2.66ZM137.74 177.44a3.19 3.19 0 0 1-2.73 3.42 3.25 3.25 0 0 1-3.6-3.21 3.14 3.14 0 0 1 3.09-3.09 3 3 0 0 1 3.24 2.88ZM137.15 114.99a3.171 3.171 0 1 1 3.23-3.1 3.27 3.27 0 0 1-3.23 3.1ZM334 229.51a3 3 0 0 1-3.35 2.76 3.17 3.17 0 0 1-3-3.22 3.21 3.21 0 0 1 3.72-3 3.07 3.07 0 0 1 2.63 3.46ZM352.89 232.88a3 3 0 0 1-2.7-2.88 3.13 3.13 0 0 1 2.69-2.89 3.09 3.09 0 0 1 3 3.18 3.23 3.23 0 0 1-2.99 2.59ZM735.94 594.38a2.9 2.9 0 0 1 2.78 2.74 3.13 3.13 0 0 1-3.05 3.16 3.25 3.25 0 0 1-2.79-3.44 3.08 3.08 0 0 1 3.06-2.46ZM691.44 598.73a3.2 3.2 0 0 1-2.86-3.33 2.94 2.94 0 0 1 3.27-2.83 3.21 3.21 0 0 1 2.94 3.24 3.43 3.43 0 0 1-3.35 2.92ZM109.9 239.8a2.89 2.89 0 0 1 3.13 3 3.2 3.2 0 0 1-3 3.19 3.37 3.37 0 0 1-3.19-3.08 3.1 3.1 0 0 1 3.06-3.11ZM371.1 407.39a3.17 3.17 0 0 1-3.41 2.75 3.41 3.41 0 0 1-2.79-3.46 3.2 3.2 0 0 1 3.49-2.7 3 3 0 0 1 2.71 3.41ZM583.25 635.59a3.18 3.18 0 0 1-3.14 3.1 3.3 3.3 0 0 1-3.33-2.91 3.24 3.24 0 1 1 6.47-.19ZM605.7 459.83a2.91 2.91 0 0 1 3-2.52 3 3 0 0 1 2.84 3.3 3.34 3.34 0 0 1-3 2.61 3.13 3.13 0 0 1-2.84-3.39ZM130.81 353.67a3 3 0 0 1-2.76 2.81 3.15 3.15 0 0 1-3.18-3.07 3.24 3.24 0 0 1 3.44-2.82 3.18 3.18 0 0 1 2.5 3.08ZM389.58 426.55a3.08 3.08 0 0 1 2.8 3.36 3 3 0 0 1-3.33 2.82 3.15 3.15 0 0 1-2.85-3.34 3.22 3.22 0 0 1 3.38-2.84ZM741.25 531.1a3.11 3.11 0 0 1-3 3.18 3.33 3.33 0 0 1-2.84-2.81 3 3 0 0 1 3.06-3.09 2.91 2.91 0 0 1 2.78 2.72ZM316.78 96.72a2.86 2.86 0 0 1-3.49 2.52 3.044 3.044 0 1 1 3.49-2.52ZM222.86 92.69a3 3 0 1 1 .752 2.219 3 3 0 0 1-.752-2.219ZM207 92.39a3 3 0 0 1-3.44 2.67 3.16 3.16 0 0 1-2.6-3 3.26 3.26 0 0 1 3.18-3.07 3.1 3.1 0 0 1 2.86 3.4ZM141 89.99a2.94 2.94 0 0 1-3.54 2.51 3.18 3.18 0 0 1-2.49-3.08 3.26 3.26 0 0 1 3.35-2.91 3 3 0 0 1 2.68 3.48ZM378.85 209.05a3.15 3.15 0 0 1-3.39 2.8 3.28 3.28 0 0 1-3.06-3.21 3.47 3.47 0 0 1 3.77-3.17 3.42 3.42 0 0 1 2.68 3.58ZM357 207.87a3.09 3.09 0 0 1-3.21 3 2.87 2.87 0 0 1-2.83-2.66 3 3 0 0 1 2.82-3.34 3.31 3.31 0 0 1 3.22 3ZM135.13 158.55a3 3 0 0 1-2.67-3.48 3.13 3.13 0 0 1 3.64-2.5 3.09 3.09 0 0 1 2.37 3.16 3 3 0 0 1-3.34 2.82ZM111 217.66a3 3 0 0 1 2.71 3.4 2.87 2.87 0 0 1-2.84 2.65 3.16 3.16 0 0 1-3.14-3.07 3.27 3.27 0 0 1 3.27-2.98ZM328 383.44a3.16 3.16 0 0 1-3.32 2.86 3.22 3.22 0 0 1-2.68-3.51 3.1 3.1 0 0 1 3-2.51 3 3 0 0 1 3 3.16ZM715.85 549.66a2.8 2.8 0 0 1 2.38 3.52 3 3 0 0 1-3 2.37 3.14 3.14 0 0 1-2.82-3.33 3 3 0 0 1 3.44-2.56ZM720 508.99a2.7 2.7 0 0 1-2.81 2.59 3 3 0 0 1-3.14-3 3.32 3.32 0 0 1 3.23-3 3.08 3.08 0 0 1 2.72 3.41ZM694.75 504.88a3.06 3.06 0 0 1 3.17 3 2.88 2.88 0 0 1-2.69 2.75 2.71 2.71 0 0 1-3.06-2.28 3 3 0 0 1 2.58-3.47ZM421.52 651.6c0-2.6 1.51-3.53 3.45-3.68a4.56 4.56 0 0 1 2.73 1.07c.53.39.68 1.28 1.14 2.24-2.64 1.39-4.9.97-7.32.37ZM132.4 309.54a3 3 0 0 1-2.58 2.93 2.83 2.83 0 1 1-.2-5.65 2.9 2.9 0 0 1 2.78 2.72ZM332.92 251.52a3.16 3.16 0 0 1-3 2.61 3.27 3.27 0 0 1-2.76-2.87 2.92 2.92 0 0 1 3.32-2.79 2.85 2.85 0 0 1 2.44 3.05ZM716.35 527.55a2.75 2.75 0 0 1 2.72 2.7 3 3 0 0 1-3 3.17 3.12 3.12 0 0 1-2.75-3.4 2.94 2.94 0 0 1 3.03-2.47ZM310.36 187.39a3.09 3.09 0 0 1-2.71-3.42 2.91 2.91 0 0 1 3-2.45 2.78 2.78 0 0 1 2.66 3.34 3 3 0 0 1-2.95 2.53ZM332.7 188.1a3.1 3.1 0 0 1-2.94-2.63 2.93 2.93 0 0 1 3.07-3 2.9 2.9 0 0 1 2.64 2.88 3.07 3.07 0 0 1-2.77 2.75ZM737.84 619.76a2.967 2.967 0 1 1-2.21-3.12 2.7 2.7 0 0 1 2.21 3.12ZM567.46 458.5a2.92 2.92 0 0 1-2.62 2.86 2.82 2.82 0 0 1-2.89-3.12 2.73 2.73 0 0 1 2.87-2.54 2.83 2.83 0 0 1 2.64 2.8ZM800.29 646.77a2.87 2.87 0 0 1-3-2.41 2.94 2.94 0 0 1 3-3.15 3 3 0 0 1 2.71 2.78 2.78 2.78 0 0 1-2.71 2.78ZM226.07 158.93a2.93 2.93 0 0 1-2.67 2.85 2.78 2.78 0 0 1-2.87-2.55 3 3 0 0 1 2.88-3.21 3.16 3.16 0 0 1 2.66 2.91ZM148.89 442.77a2.63 2.63 0 1 1-2.29-3 2.74 2.74 0 0 1 2.29 3ZM273.6 72.32a2.78 2.78 0 0 1-2.51 2.88 2.73 2.73 0 0 1-3-2.4 2.68 2.68 0 0 1 2.53-2.81 2.77 2.77 0 0 1 2.98 2.33ZM349.73 383.99a2.64 2.64 0 0 1-2.69 2.67 2.539 2.539 0 1 1 2.69-2.67ZM334.27 143.75a2.66 2.66 0 1 1 2.71-2.61 2.66 2.66 0 0 1-2.71 2.61ZM633.27 461.35a2.64 2.64 0 1 1-.962-2.569 2.634 2.634 0 0 1 .962 2.569ZM55.74 570.99a2.63 2.63 0 0 1-2.69 2.66 2.58 2.58 0 0 1-2.53-2.21 2.79 2.79 0 0 1 2.37-3 2.76 2.76 0 0 1 2.85 2.55ZM220.27 732.31a2.84 2.84 0 0 1 2.57-3.44 5.23 5.23 0 0 1 3.14 1.21c.82.57.38 2.19-.54 2.51-1.5.52-1.55.51-5.17-.28ZM240.35 729.64c2.84-3.94 3-4 8.39-2.7-2.45 2.46-5.45 2.3-8.39 2.7ZM175.86 729.82c3-3.82 4.67-4.07 6.6-1.47a2 2 0 0 1 .26 1.69 1.72 1.72 0 0 1-1.4.84c-1.6-.19-3.18-.59-5.46-1.06ZM414.09 430.62a3 3 0 0 1-2.92 2.55 2.84 2.84 0 0 1-2.36-3 2.71 2.71 0 0 1 2.55-2.23 2.85 2.85 0 0 1 2.73 2.68ZM308.88 294.11a2.57 2.57 0 1 1-5.12.09 3 3 0 0 1 2.22-2.53 2.79 2.79 0 0 1 2.9 2.44ZM109.14 267.57a2.67 2.67 0 1 1 2.448-1.283 2.67 2.67 0 0 1-2.448 1.283ZM331.88 204.53a2.57 2.57 0 1 1-.47 5.1 2.53 2.53 0 0 1-2.19-2.49 2.56 2.56 0 0 1 2.66-2.61ZM739.3 575.46a2.77 2.77 0 0 1-2.72 2.66 2.74 2.74 0 0 1-2.51-2.84 2.54 2.54 0 0 1 2.38-2.27 2.63 2.63 0 0 1 2.85 2.45ZM715.57 618.87a2.71 2.71 0 1 1-2.35-3 2.62 2.62 0 0 1 2.35 3ZM559.62 656.92a2.57 2.57 0 1 1-5.1-.47 2.54 2.54 0 0 1 2.48-2.2 2.62 2.62 0 0 1 2.62 2.67ZM94.88 705.21a2.84 2.84 0 0 1-2.88 2.51 2.68 2.68 0 0 1-2.23-3 2.64 2.64 0 0 1 2.46-2.2 2.77 2.77 0 0 1 2.65 2.69ZM185 .56a2.63 2.63 0 1 1 .22 5.25 2.56 2.56 0 0 1-2.54-2.21A2.61 2.61 0 0 1 185 .56ZM655.39 461.99a2.59 2.59 0 0 1-2.88 2.4 2.38 2.38 0 0 1-2.22-2.38 2.63 2.63 0 0 1 2.51-2.79 2.73 2.73 0 0 1 2.59 2.77ZM693.23 554.17a2.47 2.47 0 0 1-2.47-2.86 2.52 2.52 0 0 1 2.58-2.15 2.46 2.46 0 0 1 2.43 2.88 2.36 2.36 0 0 1-2.54 2.13ZM149.48 421.26c-.61.39-1.48 1.36-2.49 1.52-1.47.23-2.65-1.51-2.28-3a2.63 2.63 0 0 1 2.84-1.86c1.18.2 2.17 1.53 1.93 3.34ZM111.5 201.26a2.62 2.62 0 1 1 1.962-.683 2.62 2.62 0 0 1-1.962.683ZM693.27 485.77a2.52 2.52 0 0 1 2.76-2.6 2.38 2.38 0 0 1 2.28 2.42 2.47 2.47 0 0 1-2.1 2.61 2.59 2.59 0 0 1-2.94-2.43ZM185.38 69.1a2.61 2.61 0 0 1-2.71 2.7 2.53 2.53 0 0 1-2.48-2.87 2.48 2.48 0 0 1 2.35-2.37 2.6 2.6 0 0 1 2.84 2.54ZM160.92 70.99c-2.07-.3-3.12-1.78-2.81-3.21a2.62 2.62 0 0 1 2.8-1.9c1.51.12 2.74 1.68 2.09 3.05-.44.89-1.54 1.51-2.08 2.06ZM251.37 71.41c-.32 2.1-1.8 3.17-3.2 2.84a2.71 2.71 0 0 1-1.89-2.83 2.29 2.29 0 0 1 3-2.09c.97.43 1.58 1.54 2.09 2.08ZM760 597.61c0 1.91-1 2.87-2.37 2.85a2.44 2.44 0 0 1-2.47-2.22c0-1.48 1.45-3.06 2.72-2.57.94.37 1.61 1.46 2.12 1.94ZM712.73 643.08a2.62 2.62 0 0 1-3.09-2.13 2.39 2.39 0 0 1 2-2.68c1.55-.21 3.18 1 2.81 2.4a7.572 7.572 0 0 1-1.72 2.41ZM739.81 507.17c.45.51 1.51 1.24 1.81 2.21.42 1.3-1.25 2.71-2.7 2.58a2.46 2.46 0 0 1-2.09-2.58c.03-1.32 1.06-2.29 2.98-2.21ZM344 405.36a7.781 7.781 0 0 1 2.52-1.46c1.16-.23 2.11 1.2 2 2.54a2.16 2.16 0 0 1-2.51 2.06 2.57 2.57 0 0 1-2.01-3.14ZM376.38 189.27a2.22 2.22 0 0 1-2.25-2.35 2.43 2.43 0 1 1 4.83.28 2.38 2.38 0 0 1-2.58 2.07ZM116.67 133.23a7.49 7.49 0 0 1-2.3 1.8c-1.35.44-2.64-1.1-2.53-2.69a2.28 2.28 0 0 1 2.54-2.08c1.41.12 2.35 1.09 2.29 2.97ZM589.24 459.61a2.38 2.38 0 0 1-2.55 2.1 2.23 2.23 0 0 1-2.28-2.33 2.43 2.43 0 1 1 4.83.23ZM307.78 315.74c.12 1.8-.9 2.84-2.25 2.9a2.2 2.2 0 0 1-2.38-2.2c0-1.27 1.15-2.66 2.23-2.35a8.11 8.11 0 0 1 2.4 1.65ZM115 107.68c1 1.34 2 2.11 2.34 3.09s-.87 2.24-2.23 2.28-2.63-1-2.29-2.18c.3-.99 1.18-1.8 2.18-3.19ZM739.84 552.74a2.57 2.57 0 0 1-2.25 3 2.17 2.17 0 0 1-2.33-2.27c0-1.34 1-2.68 2.19-2.35a8.4 8.4 0 0 1 2.39 1.62ZM226.47 73.32a2.45 2.45 0 1 1 .62-4.84 2.32 2.32 0 0 1 1.91 2.68 2.49 2.49 0 0 1-2.53 2.16ZM150.34 397.87c.08 1.94-.85 3-2.12 3.15a2.7 2.7 0 0 1-2.72-2c-.24-1.44 1.05-3.08 2.5-2.77 1 .17 1.77 1.19 2.34 1.62ZM295.29 73.62a2.37 2.37 0 0 1-2.45 2.23 2.7 2.7 0 0 1-2.39-3 2.73 2.73 0 0 1 2.85-1.86 2.28 2.28 0 0 1 1.99 2.63ZM102.16 529.42c-1.44.8-2.36 1.67-3.39 1.8-1.47.2-2.48-1.53-2-3 .35-1.24 1.82-2.25 2.84-1.65s1.47 1.59 2.55 2.85ZM331.4 273.47a2.17 2.17 0 0 1-2.42 2.11 2.06 2.06 0 0 1-1.87-2 2.24 2.24 0 0 1 2.1-2.47 2.28 2.28 0 0 1 2.19 2.36ZM762.35 532.26a2.12 2.12 0 0 1-2.5 2 2.19 2.19 0 0 1-2-2 2.29 2.29 0 0 1 2.26-2.34 2.25 2.25 0 0 1 2.24 2.34ZM338.28 670.46a2.17 2.17 0 0 1-2.58 1.92 2.253 2.253 0 1 1 2.58-1.92ZM742.21 487.24a2.25 2.25 0 0 1-2.17 2.38 2 2 0 0 1-2.1-1.79 2.18 2.18 0 1 1 4.27-.59ZM392.31 407.21c.1 1.83-1 2.93-2.2 2.9a2 2 0 0 1-2.05-1.85c-.26-1.22.79-2.82 1.86-2.59a7.36 7.36 0 0 1 2.39 1.54ZM110.57 287.58a8 8 0 0 1-2.56 1.33c-1.19.19-2.11-1.18-2-2.49a2.21 2.21 0 0 1 2.58-1.93c1.41.19 2.26 1.26 1.98 3.09ZM314.3 77.22c-.78-1.55-1.63-2.51-1.67-3.51s.95-1.72 2.14-1.7 2.6 1.32 2.15 2.35-1.43 1.63-2.62 2.86ZM354.44 251.7c-.09 1.93-1.14 2.77-2.5 2.6a2.27 2.27 0 0 1-2.08-2.45c.17-1.21 1.49-2.46 2.51-2a7.831 7.831 0 0 1 2.07 1.85ZM162.39 726.93a18.1 18.1 0 0 1-7.87-1.71c3.57-2.36 4.08-2.23 7.87 1.71ZM714.5 572.36a2.38 2.38 0 0 1 2.44 2.23 2.57 2.57 0 0 1-2.31 2.43 2.45 2.45 0 0 1-2.38-2.3 2.22 2.22 0 0 1 2.25-2.36ZM112.33 174.6a2.43 2.43 0 0 1 2.44 2.18 2.2 2.2 0 0 1-2.36 2.17 2.09 2.09 0 0 1-2.1-1.8 2.38 2.38 0 0 1 2.02-2.55ZM89.75 264.44c-1.34.72-2.12 1.41-3 1.53s-1.87-1.26-1.63-2.18c.3-1.11 1.12-1.95 2.22-1.6.81.26 1.37 1.22 2.41 2.25ZM76.42 548.05c1.2.21 2.26 1.71 1.63 2.67a3.28 3.28 0 0 1-2.31 1.38 1.87 1.87 0 0 1-1.79-2 2.19 2.19 0 0 1 2.47-2.05ZM249.74 46.92c.8 1.27 1.54 2 1.71 2.84s-1.1 2-2 1.78-2-.95-1.74-2.09c.15-.79 1.07-1.41 2.03-2.53ZM758.93 619.5c.13 1.83-.94 3-2.2 3a2.27 2.27 0 0 1-2.19-1.82c-.34-1.06.82-2.8 1.92-2.61a7 7 0 0 1 2.47 1.43ZM138 69.62a8.23 8.23 0 0 1-1.21-2.63c-.13-1.15 1.47-2 2.66-1.66a2.07 2.07 0 0 1 1.55 2.25 2.4 2.4 0 0 1-3 2.04ZM720.74 486.91c-1.43.75-2.37 1.6-3.33 1.62-.52 0-1.37-1.37-1.5-2.21a2 2 0 0 1 2.5-1.84 13.11 13.11 0 0 1 2.33 2.43ZM358.57 142.37a7.151 7.151 0 0 1-2.24 1.68c-1.1.32-2.2-1.11-2.07-2.38a2 2 0 0 1 1.9-2c1.29-.13 2.4.85 2.41 2.7ZM756.47 554.34a12.493 12.493 0 0 1 2.53-2.2 2 2 0 0 1 2.33 2c-.2.83-1.18 2.12-1.69 2.07-.95-.06-1.82-.99-3.17-1.87ZM106.26 333.12a7.149 7.149 0 0 1-1.66-1.74c-.5-1 .71-2.76 1.79-2.55a3.72 3.72 0 0 1 2.22 1.65c.57.97-.61 2.43-2.35 2.64ZM29.93 594.79c-.39-.43-1.4-1.06-1.5-1.8a3.16 3.16 0 0 1 2.57-2.93 2.08 2.08 0 0 1 2 2c.23 1.47-1 2.68-3.07 2.73ZM87.93 244.67c-.91-1.08-1.74-1.7-2-2.51-.41-1.11 1-2.34 2.27-2.14s2 1 1.77 2.07c-.21.81-1.12 1.45-2.04 2.58ZM118.15 88.91a2.36 2.36 0 0 1-2.75 1.85 2.08 2.08 0 0 1 .39-4.13 2.25 2.25 0 0 1 2.36 2.28ZM208.31 47.91c-1 .88-1.65 1.77-2.45 2-1.15.34-1.89-.6-2.17-1.66s1.07-2.78 2.09-2.44c.81.27 1.43 1.18 2.53 2.1ZM357.2 122.24a2.07 2.07 0 0 1-2.1-2.32 2.19 2.19 0 0 1 2.5-2 2.08 2.08 0 0 1 1.78 2.07 2 2 0 0 1-2.18 2.25ZM337.31 119.43a2.06 2.06 0 0 1-2.46 2 1.92 1.92 0 0 1-1.84-2 2.12 2.12 0 0 1 2.14-2.33 2.18 2.18 0 0 1 2.16 2.33ZM357.78 164.25a2.19 2.19 0 0 1-2.47 2 2.25 2.25 0 1 1 .49-4.46 2.07 2.07 0 0 1 1.98 2.46ZM205 67.22c.8 1.17 1.6 1.86 1.77 2.68.23 1.09-.59 1.91-1.77 2.09a1.89 1.89 0 0 1-2.1-2.27c.29-.8 1.15-1.41 2.1-2.5ZM65.49 238.48c1 1 1.94 1.57 2.25 2.34.45 1.13-.78 2.46-2 2.35s-2-.77-1.81-1.94c.07-.82.84-1.54 1.56-2.75ZM116.11 154.82c-1.15.79-1.86 1.59-2.7 1.77a1.74 1.74 0 0 1-2.11-1.67 1.87 1.87 0 0 1 2.26-2.11c.82.25 1.44 1.11 2.55 2.01ZM127.12 372.99c.8 1.11 1.61 1.79 1.79 2.6a1.66 1.66 0 0 1-1.67 2 1.81 1.81 0 0 1-2.13-2.19c.23-.71 1.11-1.31 2.01-2.41ZM736.74 641.38c-1 .91-1.64 1.79-2.44 2.06-1.16.39-2.32-.93-2.17-2.23a1.79 1.79 0 0 1 2-1.77c.87.14 1.49 1.05 2.61 1.94ZM674.65 464.88c-1.61-.41-2.11-1.18-2-2.33a1.89 1.89 0 0 1 2-1.8c1.19-.05 2.35 1.5 1.8 2.54-.36.7-1.3 1.18-1.8 1.59ZM187 25.69c-1.33.63-2.15 1.33-2.95 1.32a1.63 1.63 0 0 1-1.58-2.09 1.69 1.69 0 0 1 2.2-1.48c.79.27 1.33 1.19 2.33 2.25ZM274.78 28.75c-.88.68-1.4 1.34-2.06 1.53a1.75 1.75 0 0 1-2-1.75c.05-1 1.26-2 2.16-1.57.63.27 1.12 1.03 1.9 1.79ZM644.91 657.62c1 1.06 1.89 1.64 2.1 2.41.29 1.09-.52 1.9-1.67 2s-2.13-.51-2.06-1.65c.06-.79.87-1.53 1.63-2.76ZM623 656.74c.93 1.13 1.83 1.75 2 2.53.23 1.09-.63 1.86-1.78 1.93a1.69 1.69 0 0 1-2-1.76c.08-.77.94-1.45 1.78-2.7ZM601.18 661.14c-1-1.13-1.89-1.75-2.07-2.53a1.66 1.66 0 0 1 1.75-2c1.19-.05 2.14.62 2 1.79-.07.77-.86 1.5-1.68 2.74ZM580.76 658.79a6.24 6.24 0 0 1-2.26.57 1.68 1.68 0 0 1-1.15-2.35 1.89 1.89 0 0 1 2.46-1.12c.96.28 1.51 1.51.95 2.9ZM209.94 3.85c-1.12.89-1.75 1.77-2.51 1.92a1.64 1.64 0 0 1-2-1.74 1.7 1.7 0 0 1 1.79-1.95c.78.07 1.51.91 2.72 1.77ZM763.67 510.35c-1.19.8-1.87 1.61-2.67 1.73a1.64 1.64 0 0 1-1.89-1.83c.06-1.06.71-2.1 1.9-1.85.81.18 1.47 1.04 2.66 1.95ZM756.15 639.6a13.31 13.31 0 0 1 1.69 2.85c.22.89-1 1.77-2 1.68s-2.08-1.13-1.72-2a12 12 0 0 1 2.03-2.53ZM690.15 637.07a12.9 12.9 0 0 1 1.69 2.85c.23.89-1 1.76-2 1.68s-2.08-1.13-1.72-2a12.618 12.618 0 0 1 2.03-2.53ZM68.2 220.17a7.229 7.229 0 0 1-2.35.44c-.92-.12-1.43-1.82-.75-2.53a2.89 2.89 0 0 1 2.07-.77c1.09.1 1.64 1.38 1.03 2.86ZM91.44 219.99c-1.23.77-2 1.52-2.77 1.65a1.81 1.81 0 1 1 .18-3.6c.8.22 1.44 1.05 2.59 1.95ZM335.31 163.54c-.48.37-1.14 1.2-1.92 1.35-.49.09-1.4-.74-1.7-1.36-.46-.94.38-2 1.49-2.19s2.01.54 2.13 2.2ZM338.62 97.26c-1.19.81-1.89 1.57-2.74 1.79s-2-1-1.9-2a1.846 1.846 0 0 1 2.06-1.81c.8.18 1.45 1.1 2.58 2.02ZM67.56 263.28c-1.16.86-1.84 1.74-2.62 1.85-1.06.14-1.83-.72-1.83-1.9a1.71 1.71 0 0 1 1.89-1.88c.74.1 1.4 1.02 2.56 1.93ZM295.6 51.85a5.43 5.43 0 0 1-2.09 1.06c-.45 0-1.21-1-1.37-1.65-.22-.9.49-1.52 1.41-1.66 1.12-.17 2.08.64 2.05 2.25ZM271.53 48.08c.87.94 1.58 1.41 1.84 2.06.37.89-.79 2.29-1.69 2-.69-.19-1.75-1-1.71-1.41.09-.74.85-1.51 1.56-2.65ZM412.64 406.53a9.171 9.171 0 0 1 1.4 2.17c.23.9-1 1.92-2 1.79a1.73 1.73 0 0 1-1.4-2.28c.36-.61 1.13-.97 2-1.68ZM779.83 596.76c.65.87 1.3 1.39 1.47 2a1.68 1.68 0 0 1-1.68 2c-1-.08-2-1.25-1.59-2.12.27-.65.97-1.05 1.8-1.88ZM781.19 620.8c-1.1.91-1.7 1.72-2.44 1.89-.41.09-1.27-.8-1.56-1.42-.38-.83.7-2 1.7-1.82.64.11 1.2.68 2.3 1.35ZM109.64 308.9c-.85.72-1.34 1.39-2 1.62-.83.3-2-.85-2-1.74a1.76 1.76 0 0 1 2.15-1.53c.62.23 1.07.93 1.85 1.65ZM140.8 25.79c-.85-.89-1.54-1.32-1.8-1.94-.38-.87.76-2.21 1.63-1.9a2.5 2.5 0 0 1 1.42 1.6c.07.55-.64 1.21-1.25 2.24ZM760.25 576.14a1.88 1.88 0 0 1-2.42 1.7 1.32 1.32 0 0 1-.92-1.87c.3-.61 1.26-1.49 1.57-1.37a6 6 0 0 1 1.77 1.54ZM43.26 260.24c.64.82 1.28 1.32 1.46 1.94a1.65 1.65 0 0 1-1.67 1.94c-.94-.07-1.94-1.25-1.56-2.06.28-.62.98-1.07 1.77-1.82ZM782.7 530.66a9.27 9.27 0 0 1 1.19 2.43c.11 1-1.2 2-2 1.55-.61-.35-1.49-1.31-1.35-1.68.26-.75 1.13-1.28 2.16-2.3ZM378.32 140.06c.72 1.42 1.37 2.19 1.4 3 0 .43-1 1.27-1.58 1.24s-1.63-.94-1.57-1.32c.14-.82.86-1.53 1.75-2.92ZM67.59 194.28c.76 1.39 1.43 2.16 1.51 3 0 .38-1.08 1.24-1.65 1.22s-1.6-1-1.53-1.36c.08-.82.84-1.54 1.67-2.86ZM91 198.84a6.12 6.12 0 0 1-2.36.26c-.33-.08-.6-1.35-.51-2a1.3 1.3 0 0 1 1.81-1 1.94 1.94 0 0 1 1.06 2.74ZM536.68 678.05c-1.32.65-2.12 1.32-2.91 1.33-.45 0-1.18-1.06-1.28-1.72a1.49 1.49 0 0 1 2.07-1.49c.64.26 1.11.95 2.12 1.88ZM324.33 359.31l2.87 4.12c-3.08.12-3.61-.09-4-1.93-.09-.51.6-1.2 1.13-2.19ZM46.33 240.09c-1.1.9-1.71 1.71-2.47 1.9-.39.09-1.26-.86-1.54-1.5-.38-.87.71-2.05 1.73-1.84a9.46 9.46 0 0 1 2.28 1.44ZM457.47 432.57c-1 .56-1.7 1.27-2.24 1.17a2.47 2.47 0 0 1-1.5-1.54c-.27-.88 1.13-2 2-1.55a10.609 10.609 0 0 1 1.74 1.92ZM360.28 97.91c-.85.73-1.33 1.41-2 1.62-.85.29-1.52-.26-1.74-1.16s.71-2.27 1.59-2c.7.18 1.23.84 2.15 1.54ZM185.77 47.09c-.86.71-1.35 1.37-2 1.58-.89.29-2-.77-2-1.68a1.67 1.67 0 0 1 2.09-1.49c.65.2 1.14.88 1.91 1.59ZM163.29 46.48a5.67 5.67 0 0 1-1.87 1.35c-.36.1-1.23-.81-1.47-1.42a1.32 1.32 0 0 1 1.05-1.77 1.89 1.89 0 0 1 2.29 1.84ZM669.14 661.39c-1 .57-1.71 1.28-2.27 1.19a2.35 2.35 0 0 1-1.45-1.54 1.47 1.47 0 0 1 1.94-1.54c.64.32 1 1.03 1.78 1.89ZM164.16 24.24c-.3 1.49-1.59 2.28-2.43 1.71a2.32 2.32 0 0 1-.93-1.88c.13-.57 1.2-1.47 1.56-1.35a5.792 5.792 0 0 1 1.8 1.52ZM91.6 151.6a9.24 9.24 0 0 1 1.24 2.39c.13.94-1.35 1.9-2.1 1.35a2.38 2.38 0 0 1-.84-1.87c.1-.56.87-1.01 1.7-1.87ZM44.83 215.69a10.4 10.4 0 0 1 1.62 2.24c.31 1-.69 2.21-1.66 1.92-.65-.2-1.63-1-1.58-1.44.09-.79.85-1.51 1.62-2.72ZM379.41 165.23c-1 .54-1.65 1.25-2.15 1.14a2.5 2.5 0 0 1-1.46-1.55c-.26-.87 1.16-2 1.95-1.53.57.32.92 1.04 1.66 1.94ZM782.76 512.72c-.29-.33-1.14-.89-1.11-1.41a2.24 2.24 0 0 1 1.34-1.61c.84-.26 1.53.39 1.57 1.36s-.28 1.58-1.8 1.66ZM499.75 436.14c-.8-.91-1.58-1.4-1.61-1.94a2.46 2.46 0 0 1 1-1.85c.74-.52 2.15.52 2 1.5a10.275 10.275 0 0 1-1.39 2.29ZM72.25 131.36a9.63 9.63 0 0 1-2.61.83c-.39 0-1.1-1-1-1.12.35-.59.92-1.38 1.46-1.43s1.05.79 2.15 1.72ZM337.39 73.07a8.29 8.29 0 0 1 .75 2.51c0 .34-1.05 1-1.28.84-.59-.31-1.32-1-1.34-1.51s.9-.92 1.87-1.84ZM782.1 576.99c-.19 1.55-1 1.91-1.79 1.59-.56-.23-.86-1.1-1.27-1.69.6-.41 1.23-1.19 1.8-1.15s.98.95 1.26 1.25ZM433.08 433.73a9.72 9.72 0 0 1-1.21-2.46c-.13-1 1.18-2 2-1.56.62.34 1.51 1.32 1.38 1.67-.25.77-1.13 1.31-2.17 2.35ZM87.57 307.7c-1 .88-1.45 1.63-2.09 1.8-.91.25-1.56-.44-1.6-1.38s.23-1.79 1.31-1.66a9.241 9.241 0 0 1 2.38 1.24ZM250.41 25.3a10.16 10.16 0 0 1 1.59 2.24c.31 1-.69 2.21-1.65 1.92-.65-.2-1.64-1-1.59-1.45.12-.79.88-1.5 1.65-2.71ZM356.92 186.08c-.92.73-1.42 1.39-2.08 1.59a1.47 1.47 0 0 1-1.61-1.85 2.23 2.23 0 0 1 1.65-1.19c.58.01 1.12.77 2.04 1.45ZM228 29.17c-.59-1.05-1.26-1.7-1.18-2.26a2.3 2.3 0 0 1 1.36-1.56 1.46 1.46 0 0 1 1.6 1.86c-.2.61-.89 1.06-1.78 1.96ZM45.51 193.8c.81 1 1.48 1.53 1.62 2.15.2.83-.24 1.76-1.26 1.57a2.29 2.29 0 0 1-1.61-1.31c-.11-.55.6-1.22 1.25-2.41ZM70.48 174.69c-1 .9-1.59 1.76-2.07 1.72s-1.16-.83-1.5-1.42c-.1-.17.62-1.15 1-1.17.64-.04 1.29.4 2.57.87ZM203.63 731.44c-1.37.51-2 1-2.68.95-1.08 0-1.25-1-1-1.8a1.69 1.69 0 0 1 1.39-.86c.66.17 1.15.81 2.29 1.71ZM66.24 284.66c-1 .89-1.57 1.77-2 1.72s-1.18-.85-1.51-1.46c-.1-.19.66-1.2 1-1.21.63-.03 1.27.45 2.51.95ZM479.55 433.13a8.791 8.791 0 0 1-2.33 1.3c-.33.05-1.2-.85-1.12-1.11.2-.65.75-1.58 1.25-1.64s1.18.74 2.2 1.45ZM521.72 436.99c-.92-1.05-1.8-1.63-1.75-2.11s.86-1.18 1.47-1.55c.15-.09 1.16.67 1.18 1.08.05.58-.42 1.25-.9 2.58ZM70.5 111.17a8.37 8.37 0 0 1-1-2.44c0-.35.95-1.08 1.18-1 .62.28 1.47.88 1.51 1.4s-.82 1.07-1.69 2.04ZM763.25 487.65c.12 1.58-.7 1.94-1.49 1.95-.46 0-1.38-.76-1.33-.94.21-.66.62-1.54 1.17-1.72s1.22.51 1.65.71ZM208.68 26.49c-1.2.49-1.86 1-2.5.94-.39 0-1.14-1-1-1.22.31-.63.92-1.47 1.49-1.52s1.01.88 2.01 1.8ZM296.76 29.13c-1 .89-1.57 1.77-2 1.72s-1.18-.85-1.51-1.47c-.1-.19.66-1.19 1.05-1.21a8.31 8.31 0 0 1 2.46.96ZM141.23 45.91a5.27 5.27 0 0 1-1.92.55c-.36 0-.94-.82-.91-1.24.07-1 .83-1.29 1.75-1.06.58.15 1.13.42 1.7.63ZM73.8 87.36a8.13 8.13 0 0 1-2.46 1c-.36 0-1.12-1-1-1.2.29-.64.91-1.51 1.44-1.54s1.05.86 2.02 1.74ZM22.55 220.35a22.34 22.34 0 0 1-1.06-2.7c-.19-.95.28-1.67 1.24-1.66.41 0 1.16.67 1.16 1 0 .66-.46 1.29-1.34 3.36ZM366.25 387.15l4.71 1.78c-2.49 1.06-4.1.78-4.71-1.78ZM373 232.29c-.21-.75-.63-1.41-.45-1.81a4.89 4.89 0 0 1 1.51-1.7c.17-.13 1 .24 1 .33a5.51 5.51 0 0 1-.48 2.16c-.2.43-.89.62-1.58 1.02ZM691.19 661.78c-1.38.76-1.92 1.3-2.3 1.2s-.68-.79-1-1.23c.46-.32.89-.87 1.36-.89s.99.45 1.94.92ZM95.21 87.66c-.56.62-.92 1.33-1.28 1.33a1.61 1.61 0 0 1-1.22-1c-.08-.31.52-1.06.93-1.16s.9.46 1.57.83ZM733.29 665.1c-.46-.53-1.08-.92-1.12-1.36s.55-.86.86-1.3c.51.44 1 .87 1.55 1.3ZM719 466.28c-.72-.82-1.26-1.16-1.38-1.62-.24-.9.18-1.65 1.18-1.57.45 0 1.21.66 1.19 1a7.389 7.389 0 0 1-.99 2.19ZM756.47 664.21c-.55.62-.91 1.33-1.28 1.33a1.64 1.64 0 0 1-1.22-1c-.08-.31.53-1.06.94-1.16s.9.46 1.56.83ZM599.51 703.92c-.61-.54-1.28-.86-1.35-1.28a1.47 1.47 0 0 1 .89-1.19 1.53 1.53 0 0 1 1.3.81c.09.41-.45.96-.84 1.66ZM50.37 681.23c-.61.56-1 1.22-1.43 1.22s-.83-.66-1.25-1c.36-.41.68-1.07 1.09-1.13s.9.48 1.59.91ZM380.75 121.36a7.779 7.779 0 0 1-2.2.79c-.25 0-.75-1-.72-1.46a1.17 1.17 0 0 1 1.71-1c.46.12.64.82 1.21 1.67ZM92.85 107.99c.69.87 1.24 1.26 1.3 1.72.11.82-.25 1.67-1.29 1.48-.45-.09-1.15-.75-1.12-1.1.05-.59.58-1.16 1.11-2.1ZM543.45 437.08l-1.28-1.31 1.46-1.36c.34.43 1 .87.94 1.29s-.65.84-1.12 1.38ZM23.64 239.5c-.84.6-1.26 1.15-1.72 1.17a1.17 1.17 0 0 1-1.26-1.56c.11-.43.88-1.08 1.17-1 .59.17 1.05.77 1.81 1.39ZM94.44 43.88l.73-1.13a5.59 5.59 0 0 1 1.17.9c.09.11-.4.92-.49.89a6.64 6.64 0 0 1-1.41-.66ZM252.34 5.44l-.74 1.12a5.64 5.64 0 0 1-1.15-.88c-.08-.09.37-.85.49-.83a6.65 6.65 0 0 1 1.4.59ZM164.18 1.92c-.27.54-.43.88-.59 1.22a8.73 8.73 0 0 1-1.3-.74s.27-.81.43-.81a5.17 5.17 0 0 1 1.46.33ZM782.91 554.99c-.62.52-1 1.08-1.38 1.09s-1.08-.54-1.09-.87a1.42 1.42 0 0 1 .88-1.12c.38-.1.86.41 1.59.9ZM93.59 131.99c-.64.45-1 .92-1.5 1-.74.14-1.58-1-1.15-1.6a1.85 1.85 0 0 1 1.46-.68c.39.03.7.7 1.19 1.28ZM48.37 132.5c-.76-1.65-1.2-2.17-1.11-2.55a1.38 1.38 0 0 1 1.16-.75 1.45 1.45 0 0 1 .82 1.14c.02.51-.38 1.03-.87 2.16ZM29.49 658.65a5.68 5.68 0 0 1-1.59.83c-.77.1-1.49-1-1-1.61a1.79 1.79 0 0 1 1.47-.6c.38.09.63.77 1.12 1.38ZM579.91 679.5c-.59.48-1 1-1.4 1.06a1.72 1.72 0 0 1-1.3-.82c-.34-.7.57-1.68 1.3-1.42.49.17.8.67 1.4 1.18ZM621.91 682.14a5.459 5.459 0 0 1-.51-1.41c0-.14.85-.55.92-.47a6.328 6.328 0 0 1 .81 1.3ZM433.32 409.79c.32-.5.52-.82.73-1.13a5.27 5.27 0 0 1 1.17.9c.09.11-.4.92-.49.89a7.169 7.169 0 0 1-1.41-.66ZM27.13 128.99l-.7 1.2a9.57 9.57 0 0 1-1.2-1s.4-.77.56-.75a5.3 5.3 0 0 1 1.34.55ZM784.23 487.59a5.559 5.559 0 0 1 .89 1.58c.1.68-1.18 1.46-1.68 1a1.83 1.83 0 0 1-.58-1.5c.08-.36.77-.62 1.37-1.08ZM778.3 644.72c-.6-.47-1.28-.75-1.36-1.15a1.84 1.84 0 0 1 .61-1.49c.54-.43 1.75.34 1.66 1.06a5.585 5.585 0 0 1-.91 1.58ZM24 193.05c.35 1.1.7 1.64.63 2.12s-.58.81-.9 1.21c-.4-.34-1-.62-1.12-1s.39-.84 1.39-2.33ZM118.26 66.35c-.46.62-.7 1.23-1.13 1.48a1.11 1.11 0 0 1-1.49-1.23 1.6 1.6 0 0 1 1-1c.48-.1.97.39 1.62.75ZM696.57 461.99c.5.62 1 1 1 1.37s-.52.78-.81 1.17c-.41-.31-1.07-.57-1.13-.94s.49-.83.94-1.6ZM742.43 465.57c-.75.31-1.32.77-1.75.66a1.07 1.07 0 0 1 .5-2.08c.44.11.74.84 1.25 1.42ZM761.22 465.84c.75-.4 1.25-.91 1.62-.82a1.42 1.42 0 0 1 .76 1.2c0 .31-.74.8-1.11.77s-.71-.61-1.27-1.15ZM448.44 652.58c-.79.23-1.31.56-1.7.45s-.51-.7-.76-1.08c.32-.19.72-.59.93-.51a6.859 6.859 0 0 1 1.53 1.14ZM317.1 51.99c-.62.51-1 1.08-1.38 1.08s-1.08-.55-1.09-.87a1.43 1.43 0 0 1 .89-1.12c.38-.09.85.46 1.58.91ZM118.62 44.13c-.25.51-.46 1.13-.55 1.12a3.46 3.46 0 0 1-1.34-.6c-.07 0 .28-.95.42-.95a6.23 6.23 0 0 1 1.47.43ZM644.21 681.48c.17.16.45.38.43.41a6.442 6.442 0 0 1-.61.77c-.12-.12-.39-.32-.36-.37a6.007 6.007 0 0 1 .54-.81ZM828.17 490.24a7.881 7.881 0 0 1 .19 1s-.31.12-.47.18a6.113 6.113 0 0 1-.22-.94c0-.08.33-.17.5-.24ZM141.47.64l.76.76-1.28 1c-.13-.39-.4-.79-.34-1.14s.56-.43.86-.62ZM1.4 216.72l-.86.51-.54-1.24c.34-.08.77-.32 1-.2s.28.61.4.93ZM25.33 173.92a5.68 5.68 0 0 1-1.45.12c-.15 0-.22-.57-.33-.87l1.4-.46c.11.34.21.68.38 1.21ZM610.18 438.3l-.8.56c-.21-.4-.43-.8-.64-1.21.35-.11.76-.37 1-.27s.31.61.44.92ZM47.55 174.14c-.31.41-.6.92-.7.89a3.12 3.12 0 0 1-1.15-.74 1.88 1.88 0 0 1 .5-.83 7.431 7.431 0 0 1 1.35.68ZM501 412.45l-.44.34c-.17-.28-.36-.56-.5-.85 0 0 .29-.22.45-.33a5.223 5.223 0 0 1 .49.84ZM69.93 153.21l-.81.56-.63-1.21c.34-.11.75-.37 1-.27s.3.6.44.92ZM50.94 41.99l.29-.52a7.271 7.271 0 0 1 .68.79s-.22.28-.34.42ZM802.12 600.57l-1-.34.67-1.28c.28.23.73.41.81.7s-.32.61-.48.92ZM802.39 578.92l-.54-1 1.3-.61c.08.35.33.79.21 1a2.894 2.894 0 0 1-.97.61ZM785.8 466.82c-.32.42-.6.93-.7.89a3.13 3.13 0 0 1-1.16-.73c-.06-.07.42-.86.51-.83a7.359 7.359 0 0 1 1.35.67ZM72.62 64.09l.74.75-1.18.94c-.16-.37-.48-.76-.43-1.1s.56-.39.87-.59ZM556.48 679.31a3.31 3.31 0 0 1-.48-.26c.11-.31.26-.61.4-.92.15.08.43.2.42.24a8.845 8.845 0 0 1-.34.94ZM49 106.99l1 1.52c-.29.18-.57.49-.86.5s-.64-.26-1-.41ZM1.64 193.55l.66.82c-.41.27-.82.54-1.22.82-.15-.38-.47-.79-.4-1.11s.62-.36.96-.53ZM599.2 680.56c.28-.52.44-.84.61-1.16a4.3 4.3 0 0 1 1.1.85c.1.15-.26.62-.41 1ZM566.38 436.46c-.3.19-.62.54-.9.51s-.59-.41-.88-.64c.33-.19.65-.52 1-.51s.51.41.78.64ZM632.25 438.99a6.08 6.08 0 0 1-1 .26c-.11 0-.24-.27-.36-.42a9.315 9.315 0 0 1 1-.3c.11-.03.26.28.36.46ZM653.71 440.18l-.84-.51c.14-.12.34-.38.41-.35a6.321 6.321 0 0 1 .89.53ZM719.16 442.7l-.29-.49a5.6 5.6 0 0 1 1-.27c.1 0 .22.28.34.43ZM522 413.65a4.618 4.618 0 0 1-.32-1c0-.11.24-.26.37-.39a5.312 5.312 0 0 1 .35 1c.06.13-.22.27-.4.39ZM478.43 410.63a5.994 5.994 0 0 1 .3 1 .549.549 0 0 1-.42.3c-.14-.02-.37-.29-.35-.38a6.643 6.643 0 0 1 .47-.92ZM456.46 410.82l-.46.32a5.925 5.925 0 0 1-.26-1c0-.11.26-.24.41-.36.1.36.21.7.31 1.04ZM119.63.48l-.47.32c-.11-.25-.22-.51-.34-.76.19 0 .41-.09.55 0s.18.28.26.44ZM26.42 107.53c.14-.12.3-.37.4-.34a4.78 4.78 0 0 1 .86.4 5.179 5.179 0 0 1-.9.34c-.09.06-.23-.25-.36-.4ZM776.87 665.89l-.45-.86c.33-.12.68-.38 1-.33s.35.5.52.77ZM317.22 30.46c-.36.17-.71.44-1 .42s-.33-.5-.5-.78c.32-.14.66-.41.95-.37s.33.47.55.73ZM666.62 683.21l-.45.32a4.927 4.927 0 0 1-.27-1c0-.11.26-.24.4-.36.11.37.21.71.32 1.04ZM47.19 151.51l1 .52c-.21.25-.39.67-.62.7s-.61-.27-.92-.42ZM621.94 703.25l-.49.17-.09-.8c.18 0 .43 0 .53.11s.04.34.05.52ZM642.93 703.66l.49-.18.06.83c-.18 0-.42 0-.52-.13s-.03-.34-.03-.52ZM119.23 22.87a2.88 2.88 0 0 1-1 .42c-.17 0-.33-.51-.49-.78.31-.14.65-.41.94-.37s.32.47.55.73ZM94.89 65.99l-.49-.23.6-.6c.11.15.32.32.3.45s-.3.23-.41.38ZM359.46 75.99l-.44.35a8.182 8.182 0 0 1-.44-.95 3.829 3.829 0 0 1 .46-.26ZM805.11 512.45c-.15-.11-.43-.27-.41-.34a5.483 5.483 0 0 1 .38-.86 6.066 6.066 0 0 1 .43.84c.02.08-.26.24-.4.36ZM4.53 128.5l-.45.34c-.14-.31-.3-.63-.41-.95 0 0 .31-.17.48-.26.12.29.25.58.38.87ZM49.81 86.8l-.77-.7c.3-.18.62-.54.9-.51s.57.42.86.66ZM800.91 621.28a6.608 6.608 0 0 1 .33 1c0 .09-.26.23-.41.34a4.841 4.841 0 0 1-.3-1c-.02-.06.24-.21.38-.34ZM97.05 21.88a4.22 4.22 0 0 1-1 .26c-.11 0-.24-.26-.35-.41a6.25 6.25 0 0 1 1-.3c.13-.01.3.29.35.45ZM711 662.07l1 .51c-.21.25-.39.68-.62.7s-.61-.26-.92-.42a9.228 9.228 0 0 1 .54-.79ZM73.88 43.15l-.4.4a5 5 0 0 1-.35-1c0-.1.24-.26.36-.39.14.37.27.69.39.99ZM621.26 725.36a4.829 4.829 0 0 1-1 .27c-.1 0-.23-.27-.35-.42a6.361 6.361 0 0 1 1-.3c.09-.01.25.29.35.45ZM26 151.34a4.83 4.83 0 0 1-1 .27c-.1 0-.23-.27-.35-.42a6.36 6.36 0 0 1 1-.3c.12-.01.24.29.35.45ZM28.19 84.86l.37.44a5.53 5.53 0 0 1-.93.35c-.11 0-.27-.23-.41-.36ZM51 63.64v.48l-.87-.28c.12-.14.24-.36.39-.39s.29.12.48.19Z"/></svg>