<svg xmlns="http://www.w3.org/2000/svg" width="830.274" height="785.225"><defs><style>.a{fill:#1a1a1a}</style></defs><path class="a" d="M306.119 286.963a46.586 46.586 0 0 1-1-5.72 50 50 0 0 1 .33-5.85 48.056 48.056 0 0 1-6.48.57 40.138 40.138 0 0 1-5.92-1.1 48.856 48.856 0 0 1 1 5 11.31 11.31 0 0 1-6.73 11.79 11.75 11.75 0 0 1-14.85-16.69 11.1 11.1 0 0 1 10.23-5.57 36.86 36.86 0 0 1 5.5.94c-.77-3.91-2.05-7.79-.5-11.92a65.195 65.195 0 0 1-7.52.24 11.64 11.64 0 0 1-7.26-3.38 11.13 11.13 0 0 1-3.42-6.61 65.412 65.412 0 0 1-.1-7.41c-14.56 1.74-19.3-7.09-16.8-18-14 2.87-21-6.33-16.7-18.7-7.85 2.61-12.33 1.82-16.18-2.84a11.48 11.48 0 0 1-.68-13.6c3.43-5.33 8.56-6.16 14.76-4.67-.1-1.05-.19-1.9-.26-2.74-.24-2.67-.48-5.35-.74-8.34a42.681 42.681 0 0 1-5.36.15 54.063 54.063 0 0 1-6-1.22c.35 1.57.77 3 .94 4.35a11 11 0 0 1-6.53 11.86 11.32 11.32 0 0 1-14-16.82 10.71 10.71 0 0 1 9.43-4.83 37.258 37.258 0 0 1 5.46.88c-1.18-3.93-2.09-7.86-.83-12.21-4.37.81-8.39.81-12.13-1.18-1.19 1.18.08 1.83.18 2.62s.43 1.49.54 2.26a11.22 11.22 0 1 1-22-.93 11 11 0 0 1 11.64-8.51 45.765 45.765 0 0 1 5.47 1.11c-1.63-4.19-2.61-8.3-1.09-12.67-.72-.19-1.29-.54-1.73-.42a13.27 13.27 0 0 1-11.09-1.71c-1.24 1.36 0 2.2.36 3.18 1.49 4.14 1.13 8-1.76 11.48a11.09 11.09 0 0 1-14.68 2.46 11.23 11.23 0 0 1-4.42-13.76 11.1 11.1 0 0 1 12.77-6.79c1.47.3 2.88.88 5 1.54-.67-1.64-1.24-2.75-1.59-3.92a18.64 18.64 0 0 1-.8-4 12.61 12.61 0 0 1 .35-3.45c.28-1.3.74-2.57 1.21-4.11a46.126 46.126 0 0 1-5.18 1.49 11.51 11.51 0 0 1-11.99-5.56 11.75 11.75 0 0 1 .72-13.18c2.57-3.73 7.86-5.41 12.49-4.17a11.64 11.64 0 0 1 8.59 12.3 43.307 43.307 0 0 1-1.22 5.41c4.29-1.17 8.54-2.51 13.43 0-1.85-7.06-1.75-13.08 4.7-16.93a11.43 11.43 0 0 1 13.64.78c4.93 3.79 5.52 9 3.65 15.18a46.2 46.2 0 0 1 6.36-.92 48.822 48.822 0 0 1 6.56.83c.53-1.35-.45-2.49-.65-3.69-.92-5.41 1.13-9.52 5.53-12.51a11.59 11.59 0 0 1 13.15.48 11.36 11.36 0 0 1 4.78 11.19 42.106 42.106 0 0 1-1.4 5.44c1.3-.47 2.41-.93 3.56-1.27 9.38-2.71 17.42 4.45 15.76 14-.2 1.14-.58 2.25-1 3.73 1.24-.25 2.31-.43 3.35-.7 9.79-2.53 17.69 5.86 15.2 15.19l-.73 2.8c9-1.56 13.55-.43 16.52 3.91a12.75 12.75 0 0 1 .11 14.28c-2.49 3.91-7.47 5.32-15.39 4.24a44.708 44.708 0 0 1 .92 5.68 48.88 48.88 0 0 1-.5 6.06 41 41 0 0 1 6.07-.56 49 49 0 0 1 6.44 1.21 42.221 42.221 0 0 1-1.21-4.59 11.65 11.65 0 0 1 6.42-12.55 11.78 11.78 0 0 1 15.15 16.81c-2.48 4-6.25 5.7-10.87 5.43a39.189 39.189 0 0 1-5.29-1.08 39.788 39.788 0 0 1 1.3 6.23 45.071 45.071 0 0 1-.63 6.68c1.41-.25 2.81-.63 4.22-.74 4.74-.36 8.86.9 11.57 5.1a11.927 11.927 0 0 1-.17 14.18c-2.37 3.46-5.89 4.94-10 4.95-1.5 0-3-.27-4.83-.45a50.6 50.6 0 0 1 .64 5.85 43.364 43.364 0 0 1-.71 5.54 47.413 47.413 0 0 1 6-.65 39.781 39.781 0 0 1 5.57.82c1-1 0-1.88-.06-2.77a20.611 20.611 0 0 1-.36-4c.85-7.3 4.12-10.87 12.4-10.89 6.5 0 11.5 6 11 12.53a11.8 11.8 0 0 1-12.75 10.87c-1.48-.12-2.94-.51-4.75-.83a43.053 43.053 0 0 1 1.06 6.44 41 41 0 0 1-.81 6.16c9.87-1.2 13.39-.09 16.44 5 2.84 4.72 2.25 9.29-.5 13.73-2.46 4-7.53 5.19-15.62 3.86-.26 1.37.77 2.45.84 3.67a39.716 39.716 0 0 1 .17 4.62 36.449 36.449 0 0 1-.8 4.35c1.76-.35 3.17-.74 4.6-.9 5.41-.61 9.46 1.66 12.24 6.18a12.4 12.4 0 0 1-1.14 13.71c-2.81 3.38-6.64 4.61-10.95 4.19a40.715 40.715 0 0 1-4.87-1.09 17 17 0 0 1 .33 12.8c2.39-.39 4.39-1.05 6.36-.95a19.22 19.22 0 0 1 6.13 1.47 8.7 8.7 0 0 1 4.81 4.86 17.65 17.65 0 0 1 1.43 6.09c0 2.07-.73 4.15-1.19 6.44 1.39-.38 2.81-.88 4.28-1.14 5.05-.91 9.24.64 12.29 4.79a12 12 0 0 1-12.22 18.62c-1.32-.25-2.59-.74-4.29-1.23.5 2.38 1.29 4.56 1.32 6.75s-.67 4.55-1.1 7.1c.83-.2 1.83-.43 2.82-.68a18.087 18.087 0 0 1 2.25-.57c8.16-1 14.41 4.47 13.9 13.06a38.1 38.1 0 0 1-1 5c1.23-.24 2.3-.42 3.35-.67 10.3-2.41 17.51 6.91 14.59 15.6-.25.72-.47 1.46-.65 2.2 0 .12.18.31.29.46 8.79-2.28 13.64-1 16.84 4.33 2.69 4.52 2.22 11.08-1 14.76s-10.43 4.49-15.17 1.84c-5.25-2.93-6.69-8-4.74-16.76-8.52 1.7-11.71 1.35-15.15-2-4.28-4.11-4.55-9.14-2.64-14.88-1.9-.2-3.21.9-4.64.91a21.551 21.551 0 0 1-4.62-.16 12.56 12.56 0 0 1-4.25-1.78 11.9 11.9 0 0 1-3.24-3.28 12.47 12.47 0 0 1-1.72-4.28 14.841 14.841 0 0 1-.07-4.61 41.909 41.909 0 0 1 1.27-5c-6.39 3-12 2.72-16.54-2.48a11.75 11.75 0 0 1-1-13.65c4.12-6.51 10.16-6.92 17.31-4.41a46.647 46.647 0 0 1-1.37-4.74 14.411 14.411 0 0 1-.16-4 39.755 39.755 0 0 1 1-4.58c-1-.86-1.68.26-2.48.37s-1.87.56-2.83.65a16.109 16.109 0 0 1-3.47 0 21.347 21.347 0 0 1-2.79-.76c-.9-.24-1.8-.46-2.9-.74 3 7.52 1.91 13.61-2.67 16.59a12.13 12.13 0 0 1-15.09-1 11.88 11.88 0 0 1-2-14.46c3.33-5.46 9-6.86 16.81-3.88-1.47-4.56-2.88-8.93-.45-13.83l-3.67.69c-9.74 1.84-16.85-5.12-15.24-14.92.15-.93.41-1.84.65-2.88-1.54-.88-2.68.28-3.89.47-4.81.72-9-.56-11.95-4.38a11.94 11.94 0 0 1-1.55-12.65 11.73 11.73 0 0 1 11.65-7.05 44.06 44.06 0 0 1 5.27.72Zm17.77 5a36.472 36.472 0 0 1-4 .79 26.408 26.408 0 0 1-4.62.06 32.76 32.76 0 0 1-4-.86 43.585 43.585 0 0 1 .92 4.34 20.3 20.3 0 0 1 0 4 34.168 34.168 0 0 1-.76 3.81 44.453 44.453 0 0 1 6.66-1 40.358 40.358 0 0 1 6.28 1c-1.54-5.86-1.54-5.86-.48-12.14Zm-72.82-162.66c-.82-6-.82-6 .83-12.13a45.1 45.1 0 0 1-4.46 1.28 15.77 15.77 0 0 1-4 .16c-1.41-.12-2.8-.52-4.86-.93 2.09 4.2 1.71 8.11 1.38 11.56Zm72.75 140.3a56.009 56.009 0 0 1-1.05-7 47.7 47.7 0 0 1 .81-6.54c-4.18 2.33-8 2-12.08 1 .37 1.7.73 2.95.89 4.23s0 2.3.08 3.46-1.15 2.49.16 4a14.85 14.85 0 0 1 11.19.85Zm-48.26-116.53c.2 3.8.39 7.46.58 11.11a41.568 41.568 0 0 1 5.33-.49 51.751 51.751 0 0 1 5.83.88 28.481 28.481 0 0 1-.93-4.12c-.11-1.51.17-3 .14-4.57 0-1.19 1.64-2.31.26-3.54a41.823 41.823 0 0 1-5.69 1.14 36.821 36.821 0 0 1-5.52-.41Zm-60-34.14-10.9.26.54 10.76c1.8-.24 3.5-.61 5.22-.67a41.581 41.581 0 0 1 4.75.32c.17-3.74.3-7.15.42-10.64Zm23.61 82.68c4.06-2.22 8.22-2.26 12.49-1.67a50.455 50.455 0 0 1-.87-5 50.919 50.919 0 0 1 .07-5.34c-1.93.1-3.63.31-5.32.23-1.86-.1-3.7-.48-5.66-.75 1.09 6 1.09 6-.68 12.53Zm30.22-66.79a38.585 38.585 0 0 1-4.15 1.19 35.537 35.537 0 0 1-4 .21c-1.2.06-2.42-1.11-3.72-.11a47.353 47.353 0 0 1 .78 5.21 45.818 45.818 0 0 1-.35 5.1l11.41.09c-1.91-3.98-.81-7.73.06-11.69Zm25.21 115.9 10.39.14c-.07-3.47-.14-7.14-.2-10.39l-10.39.34c.1 3.39.17 6.78.23 9.91Zm-36.35-44.06a37.751 37.751 0 0 1 .51 5 46.708 46.708 0 0 1-.64 5.37l11.35-.58a48.933 48.933 0 0 1-.73-4.91 43.56 43.56 0 0 1 .23-4.58Zm46.45 9.19a44.721 44.721 0 0 1-.54-5.26 52.147 52.147 0 0 1 .61-5.43 55.174 55.174 0 0 1-5.48.91 42.939 42.939 0 0 1-5-.2c.08 3.53.15 6.74.21 9.82Zm-17.53 17.62c-.21-1.52-.56-3.22-.64-4.94a47.458 47.458 0 0 1 .25-5c-1.55.22-2.68.46-3.83.52s-2.31-.1-3.46-.08-2-1-2.89-.26c.1 3.5.18 6.74.26 9.75Zm-.2-45.17c-1.75.26-3.43.64-5.13.75a43.688 43.688 0 0 1-5-.08l1.62.31c-.3 3-.61 6.07-.92 9.26 1.05-.09 2.53-.31 4-.32 1.66 0 3.31.2 5.2.32a42.826 42.826 0 0 1-.4-4.9 38.549 38.549 0 0 1 .63-5.34Zm-54.15-42.53a39.223 39.223 0 0 1-.23-4.18 43.692 43.692 0 0 1 .5-4.78l-9.88.35c.12 3.21.24 6.37.3 8Zm27.1 35.29c1.35-.1 2.88-.14 4.39-.33s2.91 1 4.27-.15c-.1-1.64-.21-3.16-.29-4.69s.66-2.88.29-4.29l-8.61.46c0 2.9-.06 5.75-.08 9Zm-17.61-17.32c.87-.07 2.39-.16 3.91-.3s2.94.64 4.24 0c0-3.28.06-6.14.1-9.12l-8.17.42c-.05 3.09-.08 5.78-.11 9ZM642.779 601.963c-11.3 3.89-21.5-4.43-17-17.56-1-.79-1.64.28-2.44.39s-1.49.45-2.25.57a11.9 11.9 0 1 1 9.8-10.64 40.662 40.662 0 0 1-1.36 5.44 28.776 28.776 0 0 0 3-.8c9-3.45 18.36 5 16.09 14.16-.22.87-.37 1.76-.57 2.72 8.56-1.07 11.71-.54 14.93 2.83 3.86 4 4.6 8.82 2.69 13.9 1.39 1.65 2.63.26 3.8.07 5.07-.85 9.21.65 12.35 4.68a12.55 12.55 0 0 1 0 15.18c-2.72 3.74-8.88 5.39-13.71 3.91-6.52-2-8.62-8.14-8.33-12.51a41.551 41.551 0 0 1 .77-4.55c-.86-1-1.75-.27-2.63-.09a18.8 18.8 0 0 1-2.86.49c-7.77.27-13.32-5.2-13.07-13a47.912 47.912 0 0 1 .79-5.19ZM573.369 531.513c-5.88 2.88-10.85 3.2-15.4-.79-5.18-4.55-5-10.11-2.5-16.11-8.64 3.05-14 1.82-17.66-3.89a12 12 0 0 1 16.47-16.45c5.61 3.65 6.88 9 4 16.94 13.8-5.07 22.69 4.38 18.22 17.42 8.79-2.5 14-1.18 17.28 4.36 2.54 4.32 1.74 11.47-1.65 14.69-3.59 3.42-10.51 4.13-14.7 1.5-5.46-3.46-6.82-8.63-4.06-17.67ZM415.659 428.233a12 12 0 1 1-16.638.024 12 12 0 0 1 16.638-.024Z"/><path class="a" d="M433.319 462.143a11.76 11.76 0 0 1-16.67.38c-4.62-4.23-4.82-12.19-.58-16.8s12.65-4.88 17.23-.28a11.91 11.91 0 0 1 .02 16.7ZM609.619 547.873c5 4.75 4.32 12.44.37 16.77-4.39 4.79-12.45 4.61-17.17-.2a11.8 11.8 0 1 1 16.8-16.571ZM681.969 650.843a11.67 11.67 0 1 1 8.453 3.19 11.68 11.68 0 0 1-8.453-3.19ZM503.829 479.543a12 12 0 0 1 0 16.74 11.75 11.75 0 0 1-16.66-.06 11.53 11.53 0 0 1 0-16.59 11.8 11.8 0 0 1 16.66-.09ZM344.709 323.653c-4.41-4.25-4.46-12.49-.11-16.91a11.94 11.94 0 0 1 16.76.06 11.78 11.78 0 0 1 .2 16.3c-4.36 4.61-12.35 4.86-16.85.55ZM450.779 479.313a11.35 11.35 0 0 1-16.13.23c-5.11-5.12-4.91-12.06-.25-16.6 5.44-5.31 12.37-4.12 16.57.26a11.34 11.34 0 0 1-.19 16.11ZM469.509 478.783a11.551 11.551 0 0 1 16.4-16.27c4.24 4.32 5.19 10.84.15 16.19a11.2 11.2 0 0 1-16.55.08ZM363.219 375.423c-4.47-4.42-4.73-11.86-.23-16.17 4.94-4.73 11.4-4.63 16.24-.33s4.77 11.93.08 16.56a11.22 11.22 0 0 1-16.09-.06ZM360.509 271.793a11.29 11.29 0 0 1 .27 16.11c-5.12 5.16-11.19 4.51-16.26.75-4.74-3.52-4.56-12.18-.12-16.67a11.35 11.35 0 0 1 16.11-.19ZM538.499 495.253a11.85 11.85 0 0 1-16.32.06 11.43 11.43 0 0 1 15.94-16.35 11.89 11.89 0 0 1 .38 16.29ZM341.409 184.873a11.35 11.35 0 1 1-8.092-3.264 11.25 11.25 0 0 1 8.092 3.264ZM184.039 82.383a11.266 11.266 0 1 1 .14 15.72 11.24 11.24 0 0 1-.14-15.72Z"/><path class="a" d="M521.099 512.883a11.369 11.369 0 1 1-.224-16.077 11.367 11.367 0 0 1 .224 16.077ZM664.569 668.023a11.44 11.44 0 1 1 8.117 3.373 11.44 11.44 0 0 1-8.117-3.373ZM149.879 117.553a11.19 11.19 0 1 1-3.32 8.114 11.27 11.27 0 0 1 3.32-8.114ZM662.829 650.713a11.22 11.22 0 1 1 .14-15.65 11 11 0 0 1-.14 15.65ZM219.289 97.563a11.24 11.24 0 1 1 15.68.11 11.1 11.1 0 0 1-15.68-.11ZM343.969 237.333a11.2 11.2 0 0 1 15.71-.18 11.38 11.38 0 0 1-.17 16.17 11.1 11.1 0 0 1-15.64-.36 10.92 10.92 0 0 1 .1-15.63ZM289.859 115.773a10.9 10.9 0 0 1 15.61-.13 11.07 11.07 0 0 1 .38 15.65 11.28 11.28 0 0 1-16.14.15 11.12 11.12 0 0 1 .15-15.67ZM644.849 617.703a11.07 11.07 0 0 1 .2 15.69 11.3 11.3 0 0 1-15.76.17 11.11 11.11 0 0 1-.07-15.71 10.92 10.92 0 0 1 15.63-.15ZM467.739 445.613a11 11 0 0 1 .13 15.6 11.31 11.31 0 0 1-15.68.3 11.11 11.11 0 0 1 0-16 10.88 10.88 0 0 1 15.55.1ZM396.459 376.393a11 11 0 0 1 .45 15.67 11.32 11.32 0 0 1-15.76.41 11.12 11.12 0 0 1-.31-15.71 10.87 10.87 0 0 1 15.62-.37ZM287.479 98.253a11.1 11.1 0 0 1 .69 15.7 11.43 11.43 0 0 1-15.79.59 11.14 11.14 0 0 1-.52-15.71 10.87 10.87 0 0 1 15.62-.58ZM363.139 340.403c-4.56-4.73-4.51-11.33-.36-15.66a10.87 10.87 0 0 1 15.6-.46 11.15 11.15 0 0 1 .52 15.69 11.38 11.38 0 0 1-15.76.43ZM308.669 340.903a11 11 0 0 1-15.64.23 11.16 11.16 0 0 1-.44-15.27 11.32 11.32 0 0 1 15.73-.65 11.13 11.13 0 0 1 .35 15.69ZM698.249 669.663a11.09 11.09 0 0 1 0 15.66 11.39 11.39 0 0 1-15.74-.15 11 11 0 0 1 .24-15.64 10.8 10.8 0 0 1 15.5.13ZM272.369 255.753a11.1 11.1 0 1 1-11.015-3.142 11.1 11.1 0 0 1 11.015 3.142ZM611.039 546.433a11 11 0 0 1-.46-15.67 11.33 11.33 0 0 1 15.79-.16 11 11 0 0 1 .25 15.28 10.71 10.71 0 0 1-15.58.55ZM611.879 616.363a11 11 0 0 1 .1-15.67 10.89 10.89 0 0 1 15.2.07 11 11 0 0 1 0 15.65 11.22 11.22 0 0 1-15.3-.05ZM323.469 148.303a11.09 11.09 0 0 1-15.7.39 11.31 11.31 0 0 1-.31-15.35 11 11 0 0 1 15.25-.65 10.88 10.88 0 0 1 .76 15.61ZM593.339 529.163a10.94 10.94 0 0 1-.5-15.59 11.25 11.25 0 0 1 15.69-.19 11.09 11.09 0 0 1 .35 15.23 10.82 10.82 0 0 1-15.54.55ZM164.909 82.663a10.8 10.8 0 1 1-10.78-2.7 10.79 10.79 0 0 1 10.78 2.7ZM148.139 116.023a11 11 0 1 1 0-15.2 11 11 0 0 1 0 15.2ZM414.039 393.793a10.8 10.8 0 1 1-15.19.28 10.92 10.92 0 0 1 15.19-.28ZM468.199 495.963a10.82 10.82 0 1 1-.17-15.21 11 11 0 0 1 .17 15.21ZM644.179 563.113a10.78 10.78 0 1 1-.37-15.17 10.66 10.66 0 0 1 .37 15.17ZM364.439 444.673a10.7 10.7 0 1 1 15.21.2 10.85 10.85 0 0 1-15.21-.2ZM362.229 427.293a10.81 10.81 0 1 1-.61-15.2 10.81 10.81 0 0 1 .61 15.2ZM269.969 96.413a10.64 10.64 0 0 1-15.11.43 10.53 10.53 0 0 1-.35-15.08 10.65 10.65 0 1 1 15.46 14.65ZM343.849 217.963a10.76 10.76 0 1 1 15.12-.41 10.76 10.76 0 0 1-15.12.41ZM449.449 428.263a10.68 10.68 0 0 1 .47 15.1 10.52 10.52 0 0 1-15.06.61 10.64 10.64 0 0 1-.53-15.1 10.78 10.78 0 0 1 15.12-.61ZM594.349 598.723a10.51 10.51 0 0 1 0-15.06 10.8 10.8 0 0 1 14.74-.17 10.65 10.65 0 0 1 .23 15.1 10.34 10.34 0 0 1-14.97.13ZM362.839 304.893a10.58 10.58 0 0 1 0-15.09 10.33 10.33 0 0 1 15 .17 10.49 10.49 0 0 1 .09 14.65 10.69 10.69 0 0 1-15.09.27ZM523.219 529.663a10.54 10.54 0 0 1 .16-15.1 10.79 10.79 0 0 1 14.76-.07 10.67 10.67 0 0 1 .14 15.14 10.39 10.39 0 0 1-15.06.03ZM431.729 411.193a10.79 10.79 0 0 1 .52 14.77 10.45 10.45 0 0 1-15.09.51 10.28 10.28 0 0 1-.57-14.62 10.62 10.62 0 0 1 15.14-.66ZM397.519 447.303a10.48 10.48 0 0 1-.26 14.65 10.72 10.72 0 0 1-15.14-.32 10.56 10.56 0 0 1 .39-14.67 10.31 10.31 0 0 1 15.01.34ZM590.469 496.623a10.28 10.28 0 0 1 .09 14.61 10.55 10.55 0 0 1-15.1.16 10.82 10.82 0 0 1-.09-14.77 10.55 10.55 0 0 1 15.1 0ZM326.139 165.703a10.23 10.23 0 0 1-.69-14.54 10.59 10.59 0 0 1 15.07-.77 10.74 10.74 0 0 1 .24 15.13 10.42 10.42 0 0 1-14.62.18ZM715.439 686.873a10.62 10.62 0 0 1 .54 14.7 10.27 10.27 0 0 1-15 .65 10.56 10.56 0 0 1-.73-14.68 10.89 10.89 0 0 1 15.19-.67ZM344.319 395.613a10.24 10.24 0 0 1-.12 14.58 10.52 10.52 0 0 1-15.07 0c-3.84-4.08-3.86-10.9.13-14.73a10.4 10.4 0 0 1 15.06.15ZM715.249 666.773a10.36 10.36 0 0 1-14.58.62 10.5 10.5 0 1 1 14.58-.62ZM661.439 580.263a10.47 10.47 0 0 1-14.64.33 10.73 10.73 0 0 1-.41-14.73 10.44 10.44 0 0 1 15.05-.16 10.18 10.18 0 0 1 0 14.56ZM576.579 581.133a10.22 10.22 0 0 1 .19-14.53 10.48 10.48 0 0 1 14.62 0 10.66 10.66 0 0 1-.24 15.08 10.4 10.4 0 0 1-14.57-.55ZM519.869 462.583a10.65 10.65 0 0 1 .5 14.65 10.53 10.53 0 0 1-14.61.67 10.414 10.414 0 1 1 14.11-15.32ZM395.969 342.253a10.38 10.38 0 0 1-.24 14.62 10.25 10.25 0 0 1-14.59-.06 10.38 10.38 0 0 1 .15-14.64 10.54 10.54 0 0 1 14.68.08ZM254.759 253.833a10.35 10.35 0 0 1-14.6.36 10.21 10.21 0 0 1-.52-14.55 10.39 10.39 0 0 1 14.63-.48 10.59 10.59 0 0 1 .49 14.67ZM555.739 532.163a10.28 10.28 0 1 1-7.368-2.934 10.22 10.22 0 0 1 7.368 2.934ZM202.169 79.513a10.21 10.21 0 1 1 14.55 0 10.1 10.1 0 0 1-14.55 0ZM558.969 563.873a10.21 10.21 0 1 1 14.52.08 10.07 10.07 0 0 1-14.52-.08ZM326.499 392.533a10.214 10.214 0 1 1-.515-14.435 10.214 10.214 0 0 1 .515 14.435ZM376.649 269.723a10.19 10.19 0 1 1 3.11-7.217 10.14 10.14 0 0 1-3.11 7.217ZM290.179 323.243a10.16 10.16 0 1 1-.1-14.46 10 10 0 0 1 .1 14.46ZM181.829 80.123a10.14 10.14 0 1 1 2.947-7.337 10.09 10.09 0 0 1-2.947 7.337ZM648.559 685.143a10 10 0 1 1 14.08-.3 10 10 0 0 1-14.08.3ZM644.539 667.693a9.76 9.76 0 0 1-14-.16 9.993 9.993 0 1 1 14 .16ZM415.019 478.543a10 10 0 0 1-14.05.51 9.85 9.85 0 0 1-.83-14 10.12 10.12 0 0 1 14.48-.68 10.35 10.35 0 0 1 .4 14.17ZM251.259 64.693a9.7 9.7 0 0 1 .31 14 10 10 0 0 1-14 .37 10.12 10.12 0 0 1-.32-14.1 9.87 9.87 0 0 1 14.01-.27ZM343.879 182.363a10.22 10.22 0 0 1-.29-14.12 10 10 0 0 1 14-.19 9.65 9.65 0 0 1 .29 13.95 9.92 9.92 0 0 1-14 .36ZM679.869 687.823a9.9 9.9 0 1 1-13.62 14.37 9.66 9.66 0 0 1-.43-13.61 9.8 9.8 0 0 1 14.05-.76ZM485.129 512.443a9.68 9.68 0 0 1-13.58.47 9.828 9.828 0 1 1 13.58-.47ZM115.439 97.963a9.83 9.83 0 0 1 .38-14 9.64 9.64 0 0 1 14 .53 9.91 9.91 0 0 1-.23 13.65 10.07 10.07 0 0 1-14.15-.18ZM664.969 597.053a9.64 9.64 0 0 1-.55-13.53 9.87 9.87 0 0 1 14-.53 10 10 0 0 1 .12 14.06 9.78 9.78 0 0 1-13.57 0ZM376.049 234.373a10 10 0 0 1-14.07-.2 9.82 9.82 0 0 1 .19-13.61 9.93 9.93 0 0 1 13.64-.29 10.06 10.06 0 0 1 .24 14.1ZM626.789 650.303a10 10 0 0 1-14.06-.26 9.83 9.83 0 0 1 .24-13.6 9.94 9.94 0 0 1 13.64-.23 10.06 10.06 0 0 1 .18 14.09ZM412.969 373.503a9.71 9.71 0 1 1 0-13.54 9.71 9.71 0 0 1 0 13.54ZM236.459 236.053a9.77 9.77 0 0 1-13.65.44 9.65 9.65 0 1 1 13.65-.44ZM308.029 375.163a9.629 9.629 0 1 1-.144-13.617 9.627 9.627 0 0 1 .144 13.617ZM732.969 718.423a9.66 9.66 0 1 1-.716-13.428 9.66 9.66 0 0 1 .716 13.428ZM558.709 493.713a9.58 9.58 0 1 1 13.51-.48 9.47 9.47 0 0 1-13.51.48ZM258.569 305.743a9.63 9.63 0 1 1 13.52-.4 9.63 9.63 0 0 1-13.52.4Z"/><path class="a" d="M321.779 112.493a678.653 678.653 0 1 0 0 .04Z"/><path class="a" d="M146.549 79.883a9.37 9.37 0 0 1-13.47.17 9.51 9.51 0 0 1-.31-13.09 9.33 9.33 0 0 1 13.46-.5 9.22 9.22 0 0 1 .32 13.42ZM394.739 321.083a9.38 9.38 0 0 1-13.1.43 9.53 9.53 0 0 1-.35-13.56 9.3 9.3 0 0 1 13.49.09 9.15 9.15 0 0 1-.04 13.04ZM595.569 632.963a9.48 9.48 0 1 1 12.971-.391 9.48 9.48 0 0 1-12.971.391ZM697.679 718.963a9.305 9.305 0 1 1-.03-13.14 9.44 9.44 0 0 1 .03 13.14ZM488.479 459.733a9.35 9.35 0 0 1-.32-13.44 9.45 9.45 0 0 1 13.05-.43 9.57 9.57 0 0 1 .74 13.49 9.46 9.46 0 0 1-13.47.38ZM303.719 81.883a9.3 9.3 0 1 1-13.09.08 9.47 9.47 0 0 1 13.09-.08ZM431.749 482.353a9.194 9.194 0 1 1-12.96.22 9.2 9.2 0 0 1 12.96-.22ZM339.299 129.603a9.34 9.34 0 0 1-13.06 0 9.11 9.11 0 0 1 .06-13 9.21 9.21 0 0 1 13-.12 9.41 9.41 0 0 1 0 13.12ZM417.339 390.343a9.23 9.23 0 0 1 12.89-13.19 9.33 9.33 0 0 1 .18 13.1 9.21 9.21 0 0 1-13.07.09ZM470.219 441.663a9.2 9.2 0 1 1 12.55 1.13 9.2 9.2 0 0 1-12.55-1.13ZM277.019 357.603a9.21 9.21 0 1 1 6.565 2.582 9.15 9.15 0 0 1-6.565-2.582ZM591.099 615.333a9.11 9.11 0 1 1-.52-12.99 9 9 0 0 1 .52 12.99ZM362.099 198.683a9 9 0 1 1 13 .07 9.12 9.12 0 0 1-13-.07ZM489.679 529.283a8.92 8.92 0 1 1 12.51-.17 8.92 8.92 0 0 1-12.51.17ZM253.969 287.783a9 9 0 1 1-.25-12.57 9 9 0 0 1 .25 12.57ZM731.679 683.203a8.887 8.887 0 1 1 .24-12.56 9 9 0 0 1-.24 12.56ZM218.049 218.453a8.93 8.93 0 1 1-12.58-12.66 8.73 8.73 0 0 1 12.5.17 8.85 8.85 0 0 1 .08 12.49ZM198.459 61.293a8.9 8.9 0 1 1-.49-12.49 8.75 8.75 0 0 1 .49 12.49ZM465.539 411.793a9 9 0 1 1-12.62.37 9.24 9.24 0 0 1 12.62-.37ZM447.969 407.403a9 9 0 1 1 0-12.57 9.15 9.15 0 0 1 0 12.57ZM232.779 60.883a8.94 8.94 0 0 1-12.52-.3 8.8 8.8 0 0 1 .58-12.47 8.58 8.58 0 0 1 12 .32 8.74 8.74 0 0 1-.06 12.45ZM695.389 613.583a8.51 8.51 0 0 1-12.34-.42 8.66 8.66 0 0 1 .09-12 9 9 0 0 1 12.5 0 8.8 8.8 0 0 1-.25 12.42ZM273.359 77.593a8.94 8.94 0 0 1-.11-12.5 8.79 8.79 0 0 1 12.45.2 8.45 8.45 0 0 1 .06 11.94 8.66 8.66 0 0 1-12.4.36ZM573.099 597.653a8.57 8.57 0 0 1-12.37.38 8.83 8.83 0 0 1-.19-12.46 9 9 0 0 1 12.08-.32 8.69 8.69 0 0 1 .48 12.4ZM381.259 273.393c3.5-3.29 9.53-3.09 12.61.43a8.76 8.76 0 0 1-.53 12.1 8.41 8.41 0 0 1-12.4-.45 8.68 8.68 0 0 1 .32-12.08ZM343.439 443.683a8.85 8.85 0 0 1-12.56.12 8.66 8.66 0 0 1-.11-12.09 8.52 8.52 0 0 1 12-.52 8.71 8.71 0 0 1 .67 12.49ZM356.869 146.143a8.55 8.55 0 0 1-12.43.42 8.85 8.85 0 0 1-.39-12.11 8.72 8.72 0 0 1 12.47-.28 8.39 8.39 0 0 1 .35 11.97ZM714.609 735.783a8.6 8.6 0 1 1 2.022-9.388 8.67 8.67 0 0 1-2.022 9.388ZM553.639 463.253a8.67 8.67 0 0 1-.25 12.44 8.37 8.37 0 0 1-11.94-.16 8.59 8.59 0 0 1-.33-12 8.9 8.9 0 0 1 12.52-.28ZM543.189 580.783a8.76 8.76 0 0 1-.46-12.1 8.85 8.85 0 0 1 12.12-.45 8.75 8.75 0 0 1 .4 12.09 8.65 8.65 0 0 1-12.06.46ZM150.819 49.733a8.59 8.59 0 0 1 12.06-.19 8.74 8.74 0 0 1-.14 12.52 8.5 8.5 0 0 1-12-.36 8.35 8.35 0 0 1 .08-11.97ZM128.779 119.803a8.67 8.67 0 0 1 .72 12 8.82 8.82 0 0 1-12.45.48 8.71 8.71 0 0 1-.23-12 8.57 8.57 0 0 1 11.96-.48ZM313.559 426.783a8.56 8.56 0 1 1 11.918-.182 8.56 8.56 0 0 1-11.918.182ZM360.589 448.623a8.48 8.48 0 0 1 .7 12 8.525 8.525 0 1 1-.7-12ZM632.219 689.503a6 6 0 1 1-.02 0ZM271.649 327.703a8.69 8.69 0 0 1 .24 12.08 8.58 8.58 0 0 1-12.05.11 8.49 8.49 0 1 1 11.81-12.19ZM507.439 546.073a8.588 8.588 0 1 1 12.1-.1 8.59 8.59 0 0 1-12.1.1ZM537.099 563.293a8.41 8.41 0 1 1 .09-12 8.62 8.62 0 0 1-.09 12ZM626.329 684.393a8.5 8.5 0 1 1 0-11.94 8.5 8.5 0 0 1 0 11.94ZM111.369 102.963a8.45 8.45 0 1 1-12-.07 8.36 8.36 0 0 1 12 .07ZM199.679 200.963a8.41 8.41 0 1 1 2.622-5.956 8.39 8.39 0 0 1-2.622 5.956ZM661.509 706.753a8.13 8.13 0 0 1 .38 11.88 8.23 8.23 0 0 1-11.91.22 8.37 8.37 0 0 1-.37-11.52 8.22 8.22 0 0 1 11.9-.58ZM235.879 270.333a8.33 8.33 0 1 1-.15-12 8.47 8.47 0 0 1 .15 12ZM378.419 466.303a8.3 8.3 0 0 1-.11 11.91 8.134 8.134 0 1 1 .11-11.91ZM295.809 409.083a8.17 8.17 0 0 1 0-11.52 8.171 8.171 0 1 1 .08 11.51ZM146.389 149.103a8.24 8.24 0 0 1-11.5 0 8.36 8.36 0 0 1-.1-11.93 8.62 8.62 0 0 1 11.6 0 8.49 8.49 0 0 1 0 11.93ZM110.629 68.023a8.3 8.3 0 0 1-.22 11.87 8.19 8.19 0 0 1-11.44-.29 8 8 0 0 1 .24-11.79 8.14 8.14 0 0 1 11.42.21ZM392.869 250.473a8.62 8.62 0 0 1-12 .06 8.43 8.43 0 0 1 0-11.52 8.28 8.28 0 0 1 11.48-.48 8.49 8.49 0 0 1 .52 11.94ZM524.309 458.493a8.23 8.23 0 0 1-.58-11.43 8 8 0 0 1 11.77-.65 8.12 8.12 0 0 1 .69 11.4 8.37 8.37 0 0 1-11.88.68ZM182.059 183.283a8.05 8.05 0 0 1-11.44.22 7.89 7.89 0 0 1-.36-11.39 8.2 8.2 0 0 1 11.5-.37 8.36 8.36 0 0 1 .3 11.54ZM448.689 500.333a8.19 8.19 0 0 1 .41 11.49 8.39 8.39 0 0 1-11.56.34 8.14 8.14 0 0 1-.25-11.48 7.87 7.87 0 0 1 11.4-.35ZM608.219 655.333a7.88 7.88 0 0 1 .11 11.4 8.15 8.15 0 0 1-11.48.23 8.39 8.39 0 0 1-.12-11.57 8.18 8.18 0 0 1 11.49-.06ZM737.889 734.603a7.77 7.77 0 0 1 0-11.36 8.07 8.07 0 0 1 11-.27 8.22 8.22 0 0 1 .37 11.5 8 8 0 0 1-11.37.13ZM278.229 391.673a8.1 8.1 0 0 1 .31-11.45 8.21 8.21 0 0 1 11.07.05 8.33 8.33 0 0 1 .11 11.52 8.21 8.21 0 0 1-11.49-.12ZM152.699 166.053a7.79 7.79 0 0 1 .15-11.4 8.12 8.12 0 0 1 11.08-.16 8.31 8.31 0 0 1 .25 11.57 8.07 8.07 0 0 1-11.48-.01ZM253.699 322.083a8.12 8.12 0 0 1-11.51 0 8.26 8.26 0 0 1 0-11.14 8.13 8.13 0 0 1 11.08-.34 8 8 0 0 1 .43 11.48ZM362.639 163.223a8 8 0 1 1 11.06-.17 8.14 8.14 0 0 1-11.06.17ZM411.269 337.513a7.93 7.93 0 1 1 2.361-7.767 7.923 7.923 0 0 1-2.361 7.767ZM679.209 735.703a7.88 7.88 0 1 1 2.208-7.69 7.88 7.88 0 0 1-2.208 7.69ZM267.099 59.623a8.014 8.014 0 1 1 .34-11 7.87 7.87 0 0 1-.34 11ZM217.669 241.793a7.66 7.66 0 1 1-5.446-2.373 7.73 7.73 0 0 1 5.446 2.373ZM391.819 215.113a7.8 7.8 0 0 1-10.91.09 7.64 7.64 0 0 1 0-10.87 7.47 7.47 0 0 1 10.81-.08 7.6 7.6 0 0 1 .1 10.86ZM579.759 649.693a7.6 7.6 0 0 1-.3-10.89 7.75 7.75 0 0 1 10.93-.44 7.89 7.89 0 0 1 .29 11 7.7 7.7 0 0 1-10.92.33ZM127.709 61.233a7.55 7.55 0 0 1-10.92.34 7.71 7.71 0 0 1-.66-10.55 8.05 8.05 0 0 1 11-.79 7.85 7.85 0 0 1 .58 11ZM517.819 440.253a7.47 7.47 0 0 1-10.88.41 7.62 7.62 0 0 1-.63-10.51 7.91 7.91 0 0 1 11-.85 7.72 7.72 0 0 1 .51 10.95ZM92.889 86.283a7.45 7.45 0 0 1-.18 10.82 7.63 7.63 0 0 1-10.47.07 7.9 7.9 0 0 1-.24-11 7.66 7.66 0 0 1 10.89.11ZM395.739 484.143a7.66 7.66 0 0 1 .21 10.53 7.78 7.78 0 0 1-11 .14 7.53 7.53 0 0 1 .31-10.91 7.43 7.43 0 0 1 10.48.24ZM605.499 491.723a7.47 7.47 0 0 1-10.43.22 7.33 7.33 0 0 1-.34-10.79 7.63 7.63 0 0 1 10.48-.36 7.79 7.79 0 0 1 .29 10.93ZM576.969 474.353a7.24 7.24 0 0 1 0-10.34 7.53 7.53 0 0 1 10.84-.15 7.82 7.82 0 0 1 0 10.52 7.5 7.5 0 0 1-10.84-.03ZM260.969 374.223a7.71 7.71 0 0 1 .09-10.91 7.56 7.56 0 0 1 10.44.18 7.4 7.4 0 0 1-.08 10.8 7.57 7.57 0 0 1-10.45-.07ZM622.969 508.963a7.28 7.28 0 0 1-10.4-.24 7.43 7.43 0 0 1 .09-10.44 7.58 7.58 0 0 1 10.5.22 7.47 7.47 0 0 1-.19 10.46ZM235.559 304.343a7.19 7.19 0 0 1-10.31.39 7.35 7.35 0 0 1-.64-10.35 7.52 7.52 0 0 1 10.83-.42 7.36 7.36 0 0 1 .12 10.38ZM214.019 32.103a7.28 7.28 0 1 1-10.39.6 7.48 7.48 0 0 1 10.39-.6ZM179.309 42.963a7.3 7.3 0 1 1-.253-10.288 7.24 7.24 0 0 1 .253 10.288ZM199.429 235.213a7.28 7.28 0 1 1 .14-10.42 7.52 7.52 0 0 1-.14 10.42ZM748.199 689.043a7.12 7.12 0 1 1-6.965-1.958 7.12 7.12 0 0 1 6.965 1.958ZM569.659 456.963a7.16 7.16 0 1 1-10.21-10 7.146 7.146 0 1 1 10.21 10ZM571.969 632.213a7.18 7.18 0 1 1 .52-10.34 7 7 0 0 1-.52 10.34ZM711.969 619.373a7 7 0 0 1 .22 10.28 7.15 7.15 0 0 1-9.91.21 7.06 7.06 0 0 1-.16-10.29 6.91 6.91 0 0 1 9.85-.2ZM243.559 356.563a7.11 7.11 0 0 1-.27-9.88 7.21 7.21 0 0 1 10.31 0 7 7 0 0 1-.23 9.84 6.88 6.88 0 0 1-9.81.04ZM731.209 741.663a7.31 7.31 0 0 1 .19 10 7.41 7.41 0 0 1-10.4-.07 7.16 7.16 0 0 1 .3-9.92 7 7 0 0 1 9.91-.01ZM630.789 515.833a6.85 6.85 0 0 1 9.81.23 7 7 0 0 1 0 9.85 7.18 7.18 0 0 1-10.32-.2 7.08 7.08 0 0 1 .51-9.88ZM455.819 518.713a6.8 6.8 0 0 1 9.84-.32 7 7 0 0 1 .39 9.88 7.19 7.19 0 0 1-10 .35 7 7 0 0 1-.23-9.91ZM686.399 742.583a6.8 6.8 0 0 1 9.85-.16 7 7 0 0 1 .24 9.91 7.31 7.31 0 0 1-10 .17 7.06 7.06 0 0 1-.09-9.92ZM217.469 277.373a6.92 6.92 0 0 1 0 9.86 7.23 7.23 0 0 1-9.53.17 7 7 0 0 1-.32-9.89 6.8 6.8 0 0 1 9.85-.14ZM499.089 412.873a6.69 6.69 0 0 1 .19 9.78 6.92 6.92 0 0 1-9.84.11 7.18 7.18 0 0 1-.19-9.51 6.88 6.88 0 0 1 9.84-.38ZM336.969 92.873a6.88 6.88 0 0 1-9.47.28 7.09 7.09 0 0 1-.12-10 6.82 6.82 0 0 1 9.45-.14 6.68 6.68 0 0 1 .14 9.86ZM306.969 443.193a6.771 6.771 0 0 1-9.46-9.69 6.85 6.85 0 0 1 9.43-.11 6.76 6.76 0 0 1 .03 9.8ZM324.809 459.963a6.58 6.58 0 0 1-9.29.69 6.71 6.71 0 0 1-.74-9.75 6.87 6.87 0 0 1 9.83-.31 6.72 6.72 0 0 1 .2 9.37ZM554.279 604.763a6.9 6.9 0 0 1 .16 9.48 7 7 0 0 1-9.51.3 6.89 6.89 0 0 1-.1-9.9 6.82 6.82 0 0 1 9.45.12ZM354.589 100.363a6.68 6.68 0 0 1 .42 9.38 6.63 6.63 0 1 1-.42-9.38ZM390.589 169.873a6.743 6.743 0 1 1-9.535-.165 6.743 6.743 0 0 1 9.535.165ZM616.179 718.183a6.7 6.7 0 1 1 9.46-.13 6.92 6.92 0 0 1-9.46.13ZM172.029 217.493a6.65 6.65 0 1 1 9.39 0 6.74 6.74 0 0 1-9.39 0ZM658.279 542.733a6.69 6.69 0 1 1-.36-9.43 6.8 6.8 0 0 1 .36 9.43ZM409.589 292.043a6.644 6.644 0 0 1-8.92 9.85 6.73 6.73 0 0 1-.49-9.39 6.84 6.84 0 0 1 9.41-.46ZM134.519 43.243a6.623 6.623 0 1 1 9.36-.13 6.71 6.71 0 0 1-9.36.13ZM427.969 353.653a6.62 6.62 0 1 1 .3-9.43 6.71 6.71 0 0 1-.3 9.43ZM235.539 338.843a6.88 6.88 0 0 1-9.45.21 6.61 6.61 0 1 1 9.45-.21ZM288.969 416.283a6.62 6.62 0 1 1-6.546-1.653 6.62 6.62 0 0 1 6.546 1.653ZM341.969 467.963a6.26 6.26 0 0 1 .31 9.23 6.53 6.53 0 0 1-9.31.15 6.66 6.66 0 0 1-.26-8.93 6.42 6.42 0 0 1 9.26-.45ZM607.849 700.473a6.55 6.55 0 0 1-9.3.41 6.65 6.65 0 0 1-.08-9.35 6.56 6.56 0 0 1 8.91-.32 6.42 6.42 0 0 1 .47 9.26ZM239.509 32.133a6.4 6.4 0 0 1 9.25.3 6.52 6.52 0 0 1-.13 8.89 6.66 6.66 0 0 1-9.34.11 6.54 6.54 0 0 1 .22-9.3ZM163.569 199.713a6.28 6.28 0 0 1-8.81.64 6.52 6.52 0 0 1-.69-9.29 6.59 6.59 0 0 1 9.33-.2 6.35 6.35 0 0 1 .17 8.85ZM633.969 726.263a6.32 6.32 0 0 1 8.85-.47 6.59 6.59 0 0 1 .51 9.35 6.74 6.74 0 0 1-9.39 0 6.47 6.47 0 0 1 .03-8.88ZM271.189 408.413a6.47 6.47 0 0 1-8.89.17 6.7 6.7 0 0 1-.12-9.36 6.46 6.46 0 0 1 9.29.38 6.19 6.19 0 0 1-.28 8.81ZM551.429 439.423a6.15 6.15 0 0 1-8.82 0 6.47 6.47 0 0 1-.13-9.31 6.9 6.9 0 0 1 9 0 6.51 6.51 0 0 1-.05 9.31ZM310.119 75.413a6.13 6.13 0 0 1-.41-8.8 6.5 6.5 0 0 1 9.3-.51 6.8 6.8 0 0 1 0 9.39 6.45 6.45 0 0 1-8.89-.08ZM403.439 502.423a6.2 6.2 0 0 1 8.84-.47 6.38 6.38 0 0 1 .37 9.3 6.55 6.55 0 0 1-8.95.07 6.37 6.37 0 0 1-.26-8.9ZM612.679 464.403a6.43 6.43 0 0 1 8.86-.56 6.57 6.57 0 0 1 .33 9.33 6.5 6.5 0 0 1-8.9.08 6.32 6.32 0 0 1-.29-8.85ZM199.189 269.593a6.17 6.17 0 0 1-8.79-.27 6.36 6.36 0 0 1-.05-8.84 6.58 6.58 0 0 1 9.31.26 6.41 6.41 0 0 1-.47 8.85ZM527.289 596.583a6.32 6.32 0 0 1 .06-8.87 6.58 6.58 0 0 1 8.94.17 6.33 6.33 0 0 1-.18 8.89 6.15 6.15 0 0 1-8.82-.19ZM145.619 182.523a6.36 6.36 0 0 1-8.89.19 6.49 6.49 0 0 1-.2-8.93 6.63 6.63 0 0 1 9-.18 6.46 6.46 0 0 1 .09 8.92ZM127.969 165.163a6.49 6.49 0 0 1-8.85.39 6.272 6.272 0 0 1 8.45-9.27 6.61 6.61 0 0 1 .4 8.88ZM594.969 447.293a6.29 6.29 0 0 1 8.82-.6 6.3 6.3 0 0 1-8.39 9.4 6.19 6.19 0 0 1-.43-8.8ZM639.379 481.353a6.23 6.23 0 0 1-8.32 9.27 6.37 6.37 0 0 1-.59-8.86 6.52 6.52 0 0 1 8.91-.41ZM482.669 544.963a6.161 6.161 0 0 1-8.65-8.77 6.22 6.22 0 0 1 8.88-.06 6.13 6.13 0 0 1-.23 8.83ZM253.309 390.963a6.13 6.13 0 1 1-.2-8.85 6.3 6.3 0 0 1 .2 8.85ZM101.539 148.333a6.161 6.161 0 0 1 8.48-8.94 6.161 6.161 0 1 1-8.48 8.94ZM217.309 312.963a6 6 0 1 1-8.382-.117 6 6 0 0 1 8.382.117ZM589.629 674.643a6.14 6.14 0 1 1-6.774-1.331 6.15 6.15 0 0 1 6.774 1.331ZM675.129 550.963a6.085 6.085 0 1 1-8.39.2 6.12 6.12 0 0 1 8.39-.2ZM481.169 404.643a6.05 6.05 0 1 1-.29-8.36 6.05 6.05 0 0 1 .29 8.36ZM518.209 570.963a5.88 5.88 0 0 1 0 8.29 6.06 6.06 0 0 1-8.34.18 6.2 6.2 0 0 1 0-8.79 6 6 0 0 1 8.34.32ZM363.639 118.403a5.65 5.65 0 0 1 8.22 0 5.78 5.78 0 0 1 .28 8.25 6 6 0 0 1-8.72.06 5.89 5.89 0 0 1 .22-8.31ZM400.349 257.963a5.82 5.82 0 0 1 8.3-.29 6 6 0 0 1 .27 8.35 6.08 6.08 0 0 1-8.38.28 5.93 5.93 0 0 1-.19-8.34ZM351.319 494.123a5.62 5.62 0 0 1-.15-8.25 6 6 0 0 1 8.34-.22 6.11 6.11 0 0 1 .1 8.38 5.76 5.76 0 0 1-8.29.09ZM500.389 553.713a5.61 5.61 0 0 1-.12 8.24 5.87 5.87 0 0 1-8.31-.06 6 6 0 0 1 .13-8.36 5.8 5.8 0 0 1 8.3.18ZM652.399 752.183a5.867 5.867 0 1 1 7.97-8.61 5.876 5.876 0 1 1-8 8.61ZM445.259 370.363a6.17 6.17 0 0 1-8.36-.1 5.91 5.91 0 0 1 .17-8.29 5.65 5.65 0 0 1 8.21.11 5.87 5.87 0 0 1-.02 8.28ZM300.769 57.733a6.05 6.05 0 0 1-8.33-.21 5.91 5.91 0 0 1 .49-8.28 5.61 5.61 0 0 1 7.8.25 5.77 5.77 0 0 1 .04 8.24ZM83.099 52.363a5.74 5.74 0 0 1 8.3.33 5.841 5.841 0 0 1-8.51 8 5.66 5.66 0 0 1 .21-8.33ZM91.969 122.433a5.65 5.65 0 0 1 .13 8.27 5.85 5.85 0 0 1-7.91.34 6 6 0 0 1-.52-8.36 5.79 5.79 0 0 1 8.3-.25ZM656.759 507.553a5.94 5.94 0 0 1-8.34-.58 5.82 5.82 0 0 1 .8-8.3 5.71 5.71 0 0 1 7.86.56 5.81 5.81 0 0 1-.32 8.32ZM65.599 78.293a5.58 5.58 0 0 1 .37-8.24 5.87 5.87 0 0 1 7.91 0 6.24 6.24 0 0 1 .09 8.44 5.87 5.87 0 0 1-8.37-.2ZM181.339 251.533a5.77 5.77 0 0 1-8.23.41 6.06 6.06 0 0 1-.11-8.31 5.8 5.8 0 0 1 7.82-.25 5.53 5.53 0 0 1 .52 8.15ZM462.909 379.393a5.81 5.81 0 0 1 .23 7.86 6 6 0 0 1-8.33.17 5.87 5.87 0 0 1-.12-7.88 5.63 5.63 0 0 1 8.22-.15ZM199.349 295.903a6 6 0 0 1 .24 7.93 5.9 5.9 0 0 1-7.91.44 5.74 5.74 0 0 1-.23-8.28 5.83 5.83 0 0 1 7.9-.09ZM227.499 373.543a5.66 5.66 0 0 1-.35-8.2 5.8 5.8 0 0 1 7.85-.29 5.65 5.65 0 0 1 .23 8.2 5.43 5.43 0 0 1-7.73.29ZM585.859 438.163a5.65 5.65 0 0 1-7.85 0 5.55 5.55 0 1 1 7.81-7.87 5.64 5.64 0 0 1 .04 7.87ZM571.669 665.633a5.523 5.523 0 1 1 .02-7.84 5.63 5.63 0 0 1-.02 7.84ZM712.869 768.193a5.42 5.42 0 0 1-7.74.25 5.54 5.54 0 1 1 7.74-.25ZM692.699 568.703a5.52 5.52 0 0 1-8 7.6 5.41 5.41 0 0 1 .27-7.74 5.47 5.47 0 0 1 7.73.14ZM407.969 230.803a5.43 5.43 0 1 1 1.631-3.88 5.47 5.47 0 0 1-1.631 3.88ZM764.529 714.843a5.36 5.36 0 0 1-7.77 0 5.54 5.54 0 0 1 .11-7.4 5.43 5.43 0 0 1 7.79 0 5.27 5.27 0 0 1-.13 7.4ZM667.079 524.433a5.41 5.41 0 0 1-.44-7.76 5.48 5.48 0 0 1 8.17 7.29 5.39 5.39 0 0 1-7.73.47ZM764.969 742.383a5.35 5.35 0 0 1 0 7.75 5.488 5.488 0 1 1 0-7.75ZM728.839 638.153a5.74 5.74 0 0 1-.13 7.46 5.28 5.28 0 0 1-7.75-.41 5.08 5.08 0 0 1 .5-7.28 5.42 5.42 0 0 1 7.38.23ZM195.069 24.123a5.62 5.62 0 0 1-7.43-.06 5.32 5.32 0 0 1 .32-7.76 5.08 5.08 0 0 1 7.28.47 5.28 5.28 0 0 1-.17 7.35ZM163.369 234.023a5.26 5.26 0 0 1-7.32.42 5.05 5.05 0 0 1-.73-7.25 5.34 5.34 0 0 1 7.74-.6 5.69 5.69 0 0 1 .31 7.43ZM209.579 355.713a5.3 5.3 0 0 1 .22-7.32 5.08 5.08 0 0 1 7.66.39 5.21 5.21 0 0 1-.5 7.29 5.52 5.52 0 0 1-7.38-.36ZM66.799 113.263a5.33 5.33 0 0 1-.62-7.32 5.41 5.41 0 0 1 7.76-.37 5.23 5.23 0 0 1 .14 7.31 5.16 5.16 0 0 1-7.28.38ZM638.429 454.293a5.41 5.41 0 0 1-7.35.35 5.25 5.25 0 0 1-.46-6.89 5 5 0 0 1 7.21-.72 5.14 5.14 0 0 1 .6 7.26ZM281.969 459.703a5.17 5.17 0 0 1-.69-6.83 5 5 0 0 1 7.21-.72 5.14 5.14 0 0 1 .37 7.27 5.28 5.28 0 0 1-6.89.28ZM532.699 421.273a5.1 5.1 0 0 1-7.2-7.21 5.3 5.3 0 0 1 7.31-.06 5.17 5.17 0 0 1-.11 7.27ZM107.879 35.203a5.17 5.17 0 0 1-.14 7.3 5 5 0 0 1-6.8 0 5.08 5.08 0 0 1-.39-7.25 5.32 5.32 0 0 1 7.33-.05ZM655.749 464.503a5.1 5.1 0 0 1 .07 7.25 5 5 0 1 1-.07-7.25ZM159.749 16.963a5.054 5.054 0 1 1-7.24.69 5.09 5.09 0 0 1 7.24-.69ZM181.049 286.453a5 5 0 1 1 1.58-3.558 5 5 0 0 1-1.58 3.558ZM127.369 199.413a5 5 0 1 1-.06-6.83 5 5 0 0 1 .06 6.83ZM677.629 761.883a4.767 4.767 0 1 1-6.72-.35 4.83 4.83 0 0 1 6.72.35ZM137.969 216.573a4.94 4.94 0 1 1 6.75.43 4.82 4.82 0 0 1-6.75-.43ZM691.669 541.263a5.14 5.14 0 0 1-6.8-.15 5.22 5.22 0 0 1 0-6.83 5.13 5.13 0 0 1 7.21.2 5 5 0 0 1-.41 6.78ZM253.209 417.963a4.94 4.94 0 0 1-.05 6.76 4.81 4.81 0 0 1-7.12-.2 4.66 4.66 0 0 1 .44-6.68 4.85 4.85 0 0 1 6.73.12ZM270.759 434.963a4.91 4.91 0 1 1-3.741-1.226 4.9 4.9 0 0 1 3.741 1.226ZM91.969 158.203a5.276 5.276 0 1 1-6.81-.17 5 5 0 0 1 6.81.17ZM109.829 181.963a5 5 0 0 1-6.83.53 4.86 4.86 0 1 1 6.83-.53ZM229.969 22.833a4.62 4.62 0 0 1-6.66.45 4.79 4.79 0 0 1-.56-6.7 4.87 4.87 0 0 1 6.73-.44 4.72 4.72 0 0 1 .49 6.69ZM709.969 593.183a4.89 4.89 0 1 1-.119-6.687 4.879 4.879 0 0 1 .119 6.687ZM407.069 188.693a4.72 4.72 0 0 1-.26 6.7 4.64 4.64 0 0 1-6.68-.31 4.8 4.8 0 0 1 .2-6.71 4.89 4.89 0 0 1 6.74.32ZM199.109 338.223a4.77 4.77 0 0 1-6.7.09 4.63 4.63 0 0 1-.27-6.66 4.88 4.88 0 0 1 7.12-.18 5 5 0 0 1-.15 6.75ZM620.079 437.113a4.64 4.64 0 0 1-6.67-.12 4.905 4.905 0 1 1 6.67.12ZM282.539 39.513a5 5 0 0 1-6.75.35 4.78 4.78 0 0 1-.34-6.69 4.55 4.55 0 0 1 6.62-.35 4.79 4.79 0 0 1 .47 6.69ZM74.239 147.503a4.73 4.73 0 0 1-6.67.43 4.86 4.86 0 0 1-.36-6.71 4.63 4.63 0 0 1 6.64-.33 4.5 4.5 0 0 1 .39 6.61ZM388.889 142.883a4.84 4.84 0 0 1-6.79.36 4.71 4.71 0 0 1-.31-6.76 4.58 4.58 0 0 1 6.72-.36 4.71 4.71 0 0 1 .38 6.76ZM429.309 527.213a4.72 4.72 0 0 1-6.71 0 4.52 4.52 0 0 1-.22-6.24 4.67 4.67 0 0 1 6.67-.5 4.83 4.83 0 0 1 .26 6.74ZM673.359 488.813a4.71 4.71 0 0 1-6.67-.37 4.42 4.42 0 0 1 .09-6.2 4.73 4.73 0 0 1 6.69-.18 4.93 4.93 0 0 1-.11 6.75ZM305.969 469.393a4.87 4.87 0 0 1 .2 6.81 4.53 4.53 0 0 1-6.29.41 4.81 4.81 0 0 1-.77-6.76 5.15 5.15 0 0 1 6.86-.46ZM546.899 647.963a4.68 4.68 0 0 1-.26-6.69 4.75 4.75 0 0 1 6.71 0 4.63 4.63 0 0 1 .2 6.27 4.56 4.56 0 0 1-6.65.42ZM235.459 407.283a4.66 4.66 0 0 1-6.67.19 4.39 4.39 0 0 1-.47-6.19 4.83 4.83 0 0 1 6.69-.76 5.1 5.1 0 0 1 .45 6.76ZM747.389 767.103a4.77 4.77 0 0 1-6.29.42 4.52 4.52 0 0 1-.49-6.63 4.45 4.45 0 0 1 6.21-.46 4.68 4.68 0 0 1 .57 6.67ZM376.319 510.433a4.39 4.39 0 0 1-6.22.11 4.54 4.54 0 0 1-.23-6.66 4.86 4.86 0 0 1 6.34-.15 4.65 4.65 0 0 1 .11 6.7ZM162.969 268.623a4.48 4.48 0 0 1-6.21.11 4.59 4.59 0 0 1 .21-6.65 4.73 4.73 0 0 1 6.28.3 4.61 4.61 0 0 1-.28 6.24ZM174.969 320.713a4.363 4.363 0 1 1 6.42-5.91 4.65 4.65 0 0 1-.18 6.26 4.51 4.51 0 0 1-6.24-.35ZM211.339 390.193a4.351 4.351 0 1 1 6.135-.465 4.35 4.35 0 0 1-6.135.465ZM56.069 130.133a4.31 4.31 0 1 1-.22-6.091 4.309 4.309 0 0 1 .22 6.091ZM721.389 610.153a4.43 4.43 0 0 1-.58-5.8 4.58 4.58 0 0 1 6.27-.56 4.49 4.49 0 0 1 .13 6.27 4.31 4.31 0 0 1-5.82.09ZM690.969 499.863a4.32 4.32 0 1 1-3.087-1.392 4.32 4.32 0 0 1 3.087 1.392ZM426.039 311.353a4.41 4.41 0 0 1-.52 6.19 4.2 4.2 0 0 1-5.72-.46 4.1 4.1 0 0 1 .5-6.11 4.29 4.29 0 0 1 5.74.38ZM708.849 557.813a4.1 4.1 0 0 1-6.11-.42 4 4 0 0 1 .34-5.68 4.06 4.06 0 0 1 5.71 0 4.19 4.19 0 0 1 .06 6.1ZM566.969 419.963a3.92 3.92 0 0 1-5.69-.17 4.2 4.2 0 0 1 .16-5.76 4.26 4.26 0 0 1 5.78.22 4 4 0 0 1-.25 5.71ZM739.969 661.963a3.88 3.88 0 0 1-.16-5.68 4.28 4.28 0 0 1 5.77-.21 4.35 4.35 0 0 1 .11 5.8 4.07 4.07 0 0 1-5.72.09ZM49.569 94.963a4.16 4.16 0 0 1-.07-5.72 4.21 4.21 0 0 1 6.13.21 4 4 0 0 1-.4 5.67 3.94 3.94 0 0 1-5.66-.16ZM323.429 487.513a3.86 3.86 0 0 1-.18 5.67 4.14 4.14 0 0 1-5.75-.15 4.3 4.3 0 0 1 .22-5.78 4.07 4.07 0 0 1 5.71.26ZM199.119 366.723a4.15 4.15 0 0 1 .28 5.73 4.37 4.37 0 0 1-5.79.22 4.17 4.17 0 0 1-.16-5.74 3.88 3.88 0 0 1 5.67-.21ZM606.519 733.693a4 4 0 0 1-5.68.39 4.28 4.28 0 0 1-.09-5.76 4.05 4.05 0 0 1 5.28-.23 3.72 3.72 0 0 1 .49 5.6ZM163.209 303.153a4.05 4.05 0 0 1-5.72 0 4.3 4.3 0 0 1 0-5.35 4.15 4.15 0 0 1 5.3-.32 3.87 3.87 0 0 1 .42 5.67ZM139.189 250.963a4 4 0 0 1 .22-5.64 3.84 3.84 0 0 1 5.6.17 4.22 4.22 0 0 1-.1 5.68 4.28 4.28 0 0 1-5.72-.21ZM118.769 24.063a4 4 0 0 1-.14-5.67 4.22 4.22 0 0 1 5.31 0 4 4 0 0 1 0 5.67 3.79 3.79 0 0 1-5.17 0ZM73.969 182.173a3.83 3.83 0 0 1-5.58-.37 3.758 3.758 0 0 1 5.75-4.84 3.87 3.87 0 0 1-.17 5.21ZM649.449 435.963a3.7 3.7 0 1 1 5-5.4 3.82 3.82 0 0 1 .16 5.22 3.73 3.73 0 0 1-5.16.18ZM91.209 193.643a3.674 3.674 0 1 1-5.17.24 3.76 3.76 0 0 1 5.17-.24ZM672.299 447.903a3.74 3.74 0 0 1 0 5.13 3.66 3.66 0 0 1-5.5-.39 3.7 3.7 0 0 1 .38-5.1 3.8 3.8 0 0 1 5.12.36ZM588.519 716.623a4 4 0 0 1-5.3 0 4.13 4.13 0 0 1-.26-5.3 3.83 3.83 0 1 1 5.56 5.26ZM601.789 413.753a3.74 3.74 0 0 1 0 5.19 3.88 3.88 0 0 1-5.63-.12 3.8 3.8 0 0 1 .48-5.2 3.68 3.68 0 0 1 5.15.13ZM623.969 745.653a3.7 3.7 0 0 1 .18 5.18 3.8 3.8 0 0 1-5.18.53 3.87 3.87 0 0 1-.19-5.62 3.74 3.74 0 0 1 5.19-.09ZM708.219 517.213a4 4 0 0 1 .13 5.27 3.731 3.731 0 1 1-5.4-5.15 4 4 0 0 1 5.27-.12ZM109.389 216.173a3.728 3.728 0 1 1-.42-5.21 3.73 3.73 0 0 1 .42 5.21ZM726.409 569.433a4 4 0 0 1-.14 5.28 3.73 3.73 0 1 1 .14-5.28ZM181.239 354.963a3.64 3.64 0 0 1-5.16 0 3.55 3.55 0 0 1 0-5.13 3.65 3.65 0 0 1 5.16-.08 3.82 3.82 0 0 1 0 5.21ZM689.969 469.963a3.53 3.53 0 0 1-5.09 0 3.35 3.35 0 0 1 0-4.64 3.54 3.54 0 0 1 4.66-.46 3.63 3.63 0 0 1 .43 5.1ZM529.909 630.113a3.59 3.59 0 0 1-.56-5.09 3.65 3.65 0 0 1 5.08-.71 3.6 3.6 0 0 1 .57 5.48 3.54 3.54 0 0 1-5.09.32ZM127.179 233.333a3.67 3.67 0 1 1-.46-5.17 3.6 3.6 0 0 1 .46 5.17ZM55.969 164.863a3.58 3.58 0 0 1-5.13-.16 3.53 3.53 0 0 1-.08-5.12 3.71 3.71 0 1 1 5.21 5.28ZM744.719 626.573a3.65 3.65 0 0 1-5.1.54 3.69 3.69 0 0 1-.48-5.12 3.52 3.52 0 0 1 5.07-.48 3.47 3.47 0 0 1 .51 5.06ZM38.129 142.433a3.61 3.61 0 0 1 .17 4.71 3.53 3.53 0 0 1-5.1 0 3.38 3.38 0 0 1 .25-4.66 3.45 3.45 0 0 1 4.68-.05ZM780.819 725.963a3.63 3.63 0 0 1 .26 4.69 3.52 3.52 0 0 1-5.07.06 3.37 3.37 0 0 1 .16-4.64 3.41 3.41 0 0 1 4.65-.11ZM636.539 418.123a3.37 3.37 0 0 1-4.63.31 3.51 3.51 0 0 1-.1-5.07 3.63 3.63 0 0 1 4.69.1 3.44 3.44 0 0 1 .04 4.66ZM762.589 673.843a3.47 3.47 0 0 1 .51 4.62 3.6 3.6 0 0 1-5.07.27 3.31 3.31 0 0 1 0-4.59 3.17 3.17 0 0 1 4.56-.3ZM258.709 21.283a3.54 3.54 0 0 1 .26-4.72 3.41 3.41 0 0 1 4.69.26 3.19 3.19 0 0 1-.29 4.63 3.3 3.3 0 0 1-4.66-.17ZM163.599 337.413a3.27 3.27 0 0 1-4.65.26 3.16 3.16 0 0 1-.56-4.19 3.35 3.35 0 0 1 4.64-.75 3.41 3.41 0 0 1 .57 4.68ZM405.479 159.103a3.37 3.37 0 0 1-4.71.08 3.52 3.52 0 0 1 .11-4.74 3.48 3.48 0 0 1 4.29 0 3.27 3.27 0 0 1 .31 4.66ZM145.079 285.363a3.12 3.12 0 0 1-4.62.33 3.3 3.3 0 0 1-.38-4.66 3.54 3.54 0 0 1 4.73-.33 3.25 3.25 0 0 1 .27 4.66ZM515.159 399.383a16.688 16.688 0 0 1-1.58 3.38c-.94 1.17-2.33 1.12-3.64.56a3.21 3.21 0 0 1-1.81-3.27 2.19 2.19 0 0 1 2.6-2.28c1.24.32 2.47.88 4.43 1.61ZM234.559 441.643a3.32 3.32 0 0 1-4.62-.54 3.27 3.27 0 0 1 .16-4.22 3.21 3.21 0 0 1 4.62.15 3.15 3.15 0 0 1-.16 4.61ZM516.489 612.323a3.06 3.06 0 1 1-4-4.59 3.32 3.32 0 0 1 4.21 0 3.23 3.23 0 0 1-.21 4.59ZM689.499 784.503a3.178 3.178 0 0 1 4.38-4.6 3.18 3.18 0 0 1-4.38 4.59ZM216.699 419.523a3.13 3.13 0 1 1-4.391.56 3.129 3.129 0 0 1 4.391-.56ZM252.479 454.403a3.23 3.23 0 0 1 0 4.19 3.162 3.162 0 1 1 0-4.19ZM570.289 698.893a3 3 0 0 1-4.57-.14 3.09 3.09 0 0 1 .34-4.57 3.14 3.14 0 0 1 4.19.12 3.1 3.1 0 0 1 .04 4.59ZM743.699 587.193a3 3 0 1 1-4.58-.05 3.15 3.15 0 0 1 4.58.05ZM761.709 639.103a3.11 3.11 0 0 1 .25 4.55 3.05 3.05 0 0 1-4.76-3.79 3.11 3.11 0 0 1 4.51-.76ZM37.469 111.963a3.088 3.088 0 1 1-4.5-4.23 3.12 3.12 0 0 1 4.17-.37 3.06 3.06 0 0 1 .33 4.6ZM707.049 482.613a3.019 3.019 0 1 1-4.08 4.45 3.12 3.12 0 0 1 0-4.1 3 3 0 0 1 4.08-.35ZM127.219 267.873a3.26 3.26 0 0 1-4.11.61 3.11 3.11 0 0 1-.44-4.52 2.89 2.89 0 0 1 4.07-.16 2.94 2.94 0 0 1 .48 4.07ZM641.139 763.433a2.889 2.889 0 1 1-4.08.07 2.93 2.93 0 0 1 4.08-.07ZM725.499 538.963a3.06 3.06 0 0 1-4.51.16 3.055 3.055 0 1 1 4.51-.16ZM198.969 402.403a3.03 3.03 0 0 1-4.07 4.49 2.89 2.89 0 0 1-.39-4.05 3 3 0 0 1 4.46-.44ZM369.409 89.533a2.83 2.83 0 0 1-4.09.19 2.93 2.93 0 0 1-.31-4.11 2.75 2.75 0 0 1 4.06-.2 3 3 0 0 1 .34 4.12ZM69.439 215.963a2.82 2.82 0 0 1 .6-4.06 2.7 2.7 0 0 1 3.61.55 2.91 2.91 0 0 1-.07 3.68 3 3 0 0 1-4.14-.17ZM56.059 195.233a2.8 2.8 0 1 1-4.09-.02 2.8 2.8 0 0 1 4.09.02ZM266.049 475.683a2.81 2.81 0 0 1-.24-3.66 2.89 2.89 0 0 1 4.09-.36 2.78 2.78 0 0 1-3.85 4ZM145.309 320.013a2.818 2.818 0 1 1-3.84-4.11 2.83 2.83 0 0 1 3.65.07 2.75 2.75 0 0 1 .19 4.04ZM180.969 389.603a2.86 2.86 0 0 1-4.09-.49 2.82 2.82 0 0 1 .25-3.68 2.9 2.9 0 0 1 4.13 0 3 3 0 0 1-.29 4.17ZM171.459 4.963a3.1 3.1 0 0 1 .29-4.15 2.81 2.81 0 0 1 4.06.51 2.68 2.68 0 0 1-.23 3.64 3 3 0 0 1-4.12 0ZM38.319 181.963a3.11 3.11 0 0 1-4.18-.07 2.88 2.88 0 0 1 .34-4.09 2.62 2.62 0 0 1 3.63.06 3 3 0 0 1 .21 4.1ZM724.809 783.693a2.92 2.92 0 0 1-.09-4.09 3.13 3.13 0 0 1 4.17.2 2.88 2.88 0 0 1-.47 4.08 2.6 2.6 0 0 1-3.61-.19ZM340.289 505.573a2.61 2.61 0 0 1 .17 3.61 2.92 2.92 0 0 1-4.08.42 2.815 2.815 0 1 1 3.91-4.03ZM109.179 250.363a2.82 2.82 0 0 1-4 .37 3 3 0 0 1-.21-3.7 2.78 2.78 0 0 1 4-.26 2.57 2.57 0 0 1 .21 3.59ZM91.419 233.143a2.87 2.87 0 0 1-4 .28 3.07 3.07 0 0 1-.19-3.67 2.78 2.78 0 0 1 3.54-.52 2.64 2.64 0 0 1 .65 3.91ZM779.209 660.763a2.62 2.62 0 0 1-3.48-3.9 2.69 2.69 0 0 1 3.65.27 2.57 2.57 0 0 1-.17 3.63ZM780.079 691.683a2.83 2.83 0 0 1-.15 3.63 2.64 2.64 0 0 1-4-.25 2.78 2.78 0 0 1 .07-3.62 3 3 0 0 1 4.08.24ZM761.169 608.453a2.83 2.83 0 0 1-4.06-.2 2.74 2.74 0 0 1 .24-3.62 2.88 2.88 0 0 1 3.64-.26 2.93 2.93 0 0 1 .18 4.08ZM742.969 555.893a2.6 2.6 0 1 1-.25-3.57 2.73 2.73 0 0 1 .25 3.57ZM446.289 542.963a7.05 7.05 0 0 1-5.27-2.81c1.58-2.07 2.63-2.58 4.12-1.78 1.83.95 2.07 2.53 1.15 4.59ZM163.269 371.813a2.59 2.59 0 0 1-3.61.28 2.62 2.62 0 0 1-.15-3.61 2.74 2.74 0 0 1 3.62-.3 2.7 2.7 0 0 1 .14 3.63ZM724.729 503.723a2.418 2.418 0 1 1-.39-3.46 2.35 2.35 0 0 1 .39 3.46ZM210.359 4.213a2.36 2.36 0 0 1-3.56-.13 2.41 2.41 0 0 1-.13-3.12 2.38 2.38 0 0 1 3.58-.28 2.36 2.36 0 0 1 .11 3.53ZM688.499 434.483a2.54 2.54 0 0 1-3.52-.31 2.61 2.61 0 0 1 .45-3.53 2.69 2.69 0 0 1 3.11.32 2.49 2.49 0 0 1-.04 3.52ZM53.149 54.253c.56 1.3 1.3 2.27 1.26 3.21a2.75 2.75 0 0 1-1.67 1.94 3.18 3.18 0 0 1-2.57-.66c-.81-.73-.42-1.81.37-2.52a28.714 28.714 0 0 1 2.61-1.97ZM670.689 413.633a2.39 2.39 0 0 1-3 3.69 2.52 2.52 0 0 1-.46-3.5 2.46 2.46 0 0 1 3.46-.19ZM145.479 351.693a2.15 2.15 0 0 1-.1 3 2.43 2.43 0 0 1-3.45-.36 2.5 2.5 0 0 1 .56-3 2.16 2.16 0 0 1 2.99.36ZM19.209 129.603a7.44 7.44 0 0 1-2.65-.39 1.89 1.89 0 0 1-.28-2.94 2.18 2.18 0 0 1 3.43-.1 2.56 2.56 0 0 1-.5 3.43ZM20.319 164.143a2.34 2.34 0 1 1-3.58-3 2.66 2.66 0 0 1 3.16-.57 2.57 2.57 0 0 1 .42 3.57ZM550.419 681.963l-1.82-4c2.71-.83 3.58-.72 4.13.39s.09 2.2-2.31 3.61ZM779.119 625.683c-1.53-.07-2.68.18-3.53-.23-1.14-.55-1.09-2.58-.13-3.42a2.1 2.1 0 0 1 3 .24c.51.8.41 1.94.66 3.41ZM760.439 572.893a2.37 2.37 0 0 1-3.43-.28 1.93 1.93 0 0 1 .25-2.58c.83-.81 2.54-.85 3 .13a8 8 0 0 1 .18 2.73ZM126.599 298.733a2.36 2.36 0 0 1 .59 3.44 2 2 0 0 1-3 .22c-.94-.91-1.2-2.45-.25-3a7.85 7.85 0 0 1 2.66-.66ZM702.539 451.963c.19-1.52.09-2.63.51-3.5a1.91 1.91 0 0 1 2.94-.28c1.11.94 1.26 2.79.08 3.37-.86.41-2 .26-3.53.41ZM614.369 400.293c.26-1.33.2-2.34.65-3a1.89 1.89 0 1 1 2.41 2.88c-.7.34-1.73.09-3.06.12ZM796.679 677.103a2.18 2.18 0 0 1-3 .31 2.06 2.06 0 0 1 0-3 1.88 1.88 0 0 1 2.55-.28 2.09 2.09 0 0 1 .45 2.97ZM653.219 399.893c-1.34-.14-2.34 0-3-.38a1.76 1.76 0 0 1-.39-2.55 1.845 1.845 0 0 1 2.95-.12 11.073 11.073 0 0 1 .44 3.05ZM724.259 468.963c-1.35-.16-2.35 0-3-.42a1.76 1.76 0 0 1-.36-2.55 1.918 1.918 0 0 1 3-.08 14.043 14.043 0 0 1 .36 3.05ZM655.379 784.253a1.88 1.88 0 0 1 .28-2.91 2 2 0 0 1 2.56 0 2.05 2.05 0 0 1 .1 3 1.94 1.94 0 0 1-2.94-.09ZM287.149 491.963c-1.26 1-2.64.76-3.29-.31a1.78 1.78 0 0 1 .4-2.5 1.91 1.91 0 0 1 2.9.61 5.23 5.23 0 0 1-.01 2.2ZM351.059 72.363c-1.17 1.06-2.32 1.15-3.17.2-.66-.73-.91-1.83-1.6-3.34 2.57.52 4.05 1.27 4.77 3.14ZM140.599 4.633c-1.15 1.3-3 1.35-3.72.23a2.27 2.27 0 0 1-.07-2c.69-1.07 2.83-1.32 3.4-.42a5.52 5.52 0 0 1 .39 2.19ZM55.969 229.963c0 1.36.23 2.32-.12 3a1.55 1.55 0 0 1-2.4.31 1.47 1.47 0 0 1-.22-2.38c.49-.59 1.45-.61 2.74-.93ZM35.399 216.713a11 11 0 0 1 .2-3 1.58 1.58 0 0 1 2.44-.33c.76.72 1.13 1.72.28 2.46-.58.47-1.58.48-2.92.87ZM742.269 520.863a8.09 8.09 0 0 1-2.92-.15c-1-.48-.91-1.57-.45-2.43s2.42-1.27 2.9-.41c.39.69.28 1.66.47 2.99ZM127.969 337.313c-1.39-.05-2.36.18-3-.18a1.702 1.702 0 0 1 2.1-2.68c.53.51.55 1.51.9 2.86ZM109.169 285.053a7 7 0 0 1-2.35.1c-1-.29-1.21-2.25-.44-2.91a1.84 1.84 0 0 1 2.56 0c.82.64.92 1.5.23 2.81ZM88.109 267.963c.4-1.42.44-2.36.91-3a1.51 1.51 0 0 1 2.37.52c.21.61.14 1.77-.23 2-.64.37-1.62.25-3.05.48ZM36.689 76.363c-1.34 0-2.29.2-2.94-.14-.94-.5-1-1.49-.26-2.35s1.63-1.18 2.37-.34c.49.56.48 1.54.83 2.83ZM777.859 586.803c0 1.47.25 2.48-.13 3.06a1.47 1.47 0 0 1-2.39.13 2.06 2.06 0 0 1-.21-1.93c.46-.55 1.4-.69 2.73-1.26ZM20.839 199.353c-1.42-.38-2.39-.39-3-.87a1.48 1.48 0 0 1 .49-2.37 2.288 2.288 0 0 1 2 .25c.38.6.29 1.6.51 2.99ZM796.279 642.963c-1.31-.36-2.3-.37-2.85-.86a1.51 1.51 0 0 1 .17-2.45 1.57 1.57 0 0 1 2.46.29c.37.62.15 1.6.22 3.02ZM796.799 709.253a1.83 1.83 0 0 1-.33 2.82 1.29 1.29 0 0 1-1.92-.56c-.24-.59-.26-1.83 0-2a6 6 0 0 1 2.25-.26ZM160.099 406.463a8.469 8.469 0 0 1 .72-2.45c.59-.79 2.14-.65 2.39.19.2.64.2 1.86-.14 2.05-.65.35-1.6.15-2.97.21ZM181.409 420.593c-.36 1.49-.38 2.46-.85 3.09-.22.3-1.55.2-2-.18a1.845 1.845 0 0 1-.21-1.93c.62-.5 1.62-.56 3.06-.98ZM74.099 250.373c-1.38 0-2.34.14-3-.21-.34-.18-.36-1.41-.15-2a1.47 1.47 0 0 1 2.41-.23 9.46 9.46 0 0 1 .74 2.44ZM198.299 441.113a4.471 4.471 0 0 1-1.75-.2c-.93-.49-1.11-2-.32-2.4a3 3 0 0 1 2.12-.19c.85.26.92 1.71-.05 2.79ZM796.139 607.403c-1.39-.05-2.34.12-3-.22-.31-.14-.36-1.4-.14-2a1.43 1.43 0 0 1 2.39-.29 10.183 10.183 0 0 1 .75 2.51ZM420.819 277.333a3.79 3.79 0 0 1 .42 4.19c-2.33-1.93-2.33-1.93-.42-4.19ZM813.819 659.343c-1 0-1.9.22-2.29-.11a2.17 2.17 0 0 1-.45-1.86 1.44 1.44 0 0 1 2.27-.37 7.55 7.55 0 0 1 .47 2.34ZM759.589 535.113c-.14 1.07 0 2-.38 2.32a1.414 1.414 0 0 1-2-2c.3-.35 1.28-.19 2.38-.32ZM741.459 486.193a9.429 9.429 0 0 1-2.37-1 1.09 1.09 0 0 1 .2-1.88 2.08 2.08 0 0 1 1.93.26c.36.39.16 1.32.24 2.62ZM109.199 320.393a7.91 7.91 0 0 1-2.14-1.13 1.33 1.33 0 0 1 .91-2.08 2.14 2.14 0 0 1 1.67.92c.22.46-.2 1.23-.44 2.29ZM813.339 624.903c-1.18-.34-2.15-.34-2.4-.77s.07-1.34.14-2c.69.09 1.58 0 2 .34s.16 1.23.26 2.43ZM213.969 458.143c0-.94-.15-1.8.08-1.92a2.52 2.52 0 0 1 2-.32 1.12 1.12 0 0 1 .14 1.91c-.49.35-1.32.22-2.22.33ZM1.969 146.553c-.92-.13-1.77-.08-1.85-.3a3 3 0 0 1 .05-1.83 2.033 2.033 0 0 1 1.38 0 6.37 6.37 0 0 1 .42 2.13ZM145.309 389.603c-1.1-.4-2-.47-2.2-.88s.07-1.25.14-1.9c.66.08 1.55-.07 1.92.3s.1 1.23.14 2.48ZM723.029 432.963a5.371 5.371 0 0 1-1.69.21c-.67-.16-.8-1.43-.16-1.8a1.6 1.6 0 0 1 1.43 0c.36.24.27.91.42 1.59ZM810.849 589.413a5.1 5.1 0 0 1-.42-1.68 1.09 1.09 0 0 1 1.8-.32 1.65 1.65 0 0 1 .12 1.46c-.18.31-.87.33-1.5.54ZM109.789 352.753c0 .65.11 1.34-.15 1.6a1.63 1.63 0 0 1-1.45.19 1.06 1.06 0 0 1-.07-1.83 4.54 4.54 0 0 1 1.67.04ZM705.279 416.053c-.92-.1-1.81 0-1.88-.23a3.141 3.141 0 0 1 .05-1.87c0-.15 1.28-.21 1.43 0a6.1 6.1 0 0 1 .4 2.1ZM758.499 502.633a5.32 5.32 0 0 1-1.7-.45c-.57-.43-.27-1.72.42-1.78a1.76 1.76 0 0 1 1.35.62c.22.31-.02.94-.07 1.61ZM685.319 398.813a6.558 6.558 0 0 1 .17-2.09 1.8 1.8 0 0 1 1.43-.1 3.23 3.23 0 0 1 .25 1.87c-.02.16-.95.18-1.85.32ZM36.119 250.703a6.2 6.2 0 0 1 .32-2.09c.14-.23 1.37-.21 1.43-.05a3.18 3.18 0 0 1 .11 1.88c-.01.19-.96.15-1.86.26ZM56.159 267.963c-.92-.1-1.81 0-1.88-.23a3.14 3.14 0 0 1 0-1.87c0-.15 1.28-.21 1.43 0a6.21 6.21 0 0 1 .45 2.1ZM73.969 283.243a5.1 5.1 0 0 1-.44 1.68c-.43.57-1.7.26-1.76-.42a1.71 1.71 0 0 1 .6-1.35c.27-.19.88.03 1.6.09ZM91.589 300.403a5.1 5.1 0 0 1-.29 1.65c-.39.61-1.69.44-1.81-.22a1.72 1.72 0 0 1 .42-1.41c.32-.24.98-.04 1.68-.02ZM127.969 372.493c-1-.38-1.67-.44-2-.8a1.45 1.45 0 0 1-.18-1.37 1.39 1.39 0 0 1 1.34-.21c.31.21.33.85.84 2.38ZM73.699 318.253c.19.53.3.84.4 1.15a5.758 5.758 0 0 1-1.35.22c-.09 0-.33-.8-.21-.9a3.771 3.771 0 0 1 1.16-.47ZM54.699 302.293c.16-.45.31-.89.47-1.32.31.12.86.19.89.35a4.31 4.31 0 0 1-.18 1.26ZM71.499 39.803l-2.18 1.95-.59-.56 1.85-2.18ZM814.239 694.853c-1.07-.43-1.71-.51-2-.88a1.45 1.45 0 0 1-.19-1.37 1.35 1.35 0 0 1 1.33-.22c.29.21.32.87.86 2.47ZM794.569 572.103c-.73-.23-1.4-.24-1.59-.55s.06-.94.11-1.42c.5.07 1.17 0 1.44.25s.04.93.04 1.72ZM777.709 555.133c-1.59-.48-2.26-.49-2.47-.8a1.34 1.34 0 0 1 .19-1.34 1.43 1.43 0 0 1 1.36.16c.37.32.47.94.92 1.98ZM.589 181.263c0-.79-.1-1.44.14-1.67s.93-.22 1.42-.31c0 .5.3 1.11.1 1.46s-.87.29-1.66.52ZM793.559 535.073l.53 1.15a7.476 7.476 0 0 1-1.3.39c-.07 0-.4-.68-.3-.8a4.589 4.589 0 0 1 1.07-.74ZM810.229 553.733c.13-.46.25-.92.38-1.37.32.12.89.19.92.36a3.861 3.861 0 0 1-.2 1.27ZM758.129 466.963l-1 .38-.36-1c.33-.11.75-.4 1-.29s.2.58.36.91ZM91.459 336.853l-1 .07c.12-.47.23-.94.35-1.41.31.16.76.24.91.5s-.17.6-.26.84ZM37.039 284.963c.08-.33.16-.66.23-1l1.24.39c-.16.28-.25.72-.48.81s-.65-.11-.99-.2ZM20.409 232.813l-1 .38-.35-1c.33-.11.75-.39 1-.28s.22.56.35.9ZM829.969 604.963l-.12 1-1.35-.24c.16-.32.25-.76.52-.93s.58.17.95.17ZM829.969 640.963l-.94-.19c.12-.4.25-.8.38-1.2.28.14.75.22.81.42s-.16.68-.25.97ZM775.909 519.313h-1l.39-1.32c.31.14.76.2.9.44s-.23.53-.29.88ZM497.389 590.613a6.5 6.5 0 0 1 1.24.78c.2.21.2.64.45 1.59l-2-2c.08-.11.2-.24.31-.37ZM392.249 522.903a6.861 6.861 0 0 1-1-.37c-.06 0 0-.35 0-.54a5.936 5.936 0 0 1 .94.37c.11.05.05.35.06.54ZM740.029 449.963c-.29-.12-.69-.16-.85-.38s0-.55.09-.84a2.49 2.49 0 0 1 .92.39c.11.11-.09.53-.16.83ZM330.149 54.903l-.25-.45a4.56 4.56 0 0 1 .74 0s0 .33 0 .5ZM829.449 674.843h.81a6.761 6.761 0 0 1 0 .9s-.45.08-.48 0a4.194 4.194 0 0 1-.33-.9Z"/></svg>