<svg xmlns="http://www.w3.org/2000/svg" width="617.42" height="677.914"><defs><style>.a{fill:#1a1a1a}</style></defs><path class="a" d="M397.11 244.004c-8.61 12.43-2.35 19.72 7.35 21.68l-3.89 10c-9.2-4.69-16-3.28-18.94 3.93-2.73 6.79 1 12.55 10.67 16a48.514 48.514 0 0 0-2.38 4.41 48.7 48.7 0 0 0-1.54 4.84c-13.11-5.74-18.47-.63-21.08 10-11.31-6.44-17.91-3.17-20.38 10.45a44.259 44.259 0 0 0-4.72-3.13 10.72 10.72 0 1 0 5.58 12.63 37.56 37.56 0 0 0 .83-4.89c1.54-.52 2 .8 2.81 1.33a24.449 24.449 0 0 0 2.77 1.66 12.212 12.212 0 0 0 3.1.87 12.47 12.47 0 0 0 3.23 0 10 10 0 0 0 3.1-.86 10.7 10.7 0 0 0 2.56-2 13.132 13.132 0 0 0 2.05-2.48 12.59 12.59 0 0 0 1.29-3 27.108 27.108 0 0 0 .64-3.18l11.3 3.83a23.749 23.749 0 0 0-2.53 3.77c-3.14 7-1 12.49 5.85 15.29a10.88 10.88 0 0 0 14.42-7.15 50.45 50.45 0 0 0 .95-5c2 1.27 3.61 2.84 5.55 3.45 7.1 2.23 11 .67 14.46-5.86a32.153 32.153 0 0 0 1.76-5.54 42.159 42.159 0 0 0 5.37 2.7 39.092 39.092 0 0 0 5.66 1.12c.8 1.15-.53 1.35-.87 2s-1 1.41-1.4 2.17a10.43 10.43 0 0 0 5.32 14.51 10.55 10.55 0 0 0 13.82-6.12 10.32 10.32 0 0 0-7.17-13.71 38.439 38.439 0 0 0-4.61-.74 44.916 44.916 0 0 0 3.31-5 40.281 40.281 0 0 0 1.86-5.5c1.86.88 3.55 1.84 5.34 2.49a43 43 0 0 0 5 1.16c-4.25 7.41-4.46 11.69-.93 15.56s8.66 5 13 2.89a11.06 11.06 0 0 0 6-11.27c-.47-5.14-3.86-7.95-11.47-9.46q2.17-5.55 4.34-11.11a37.307 37.307 0 0 0 4.78 2.66 41.509 41.509 0 0 0 5.85 1.42c-.92 1.49-1.78 2.67-2.43 3.95-2.36 4.74-1.5 9.72 2.17 13a10.81 10.81 0 0 0 17.8-10.73 10 10 0 0 0-6.71-7.3 40.249 40.249 0 0 0-4.9-1.11c-.66-1.49.67-2 1.22-2.77 5.4-7.95 1-16.76-7.78-18.05-.84-.12-1.71-.14-3.09-.25 1-1.64 1.9-3 2.65-4.4 2.57-4.92 1.69-10.05-2.25-13.53a11.13 11.13 0 0 0-17.8 4.23 40.4 40.4 0 0 0-1.3 4.83l-10.6-4.38a15 15 0 0 0 3.29-11.51 52.786 52.786 0 0 0 4.54 3.31 10.26 10.26 0 0 0 13-1.74c3.58-3.88 4.26-9 1.73-13.1a11 11 0 0 0-13-4.77 10.48 10.48 0 0 0-6.74 7.37 45.069 45.069 0 0 0-.82 5.21 40.59 40.59 0 0 0-5.63-3.65 36.289 36.289 0 0 0-6.34-1.58c4-4.35 5.52-9 2.65-14.33a10.66 10.66 0 0 0-10.93-5.39c-6.54 1.12-9.44 5.49-10 11.63-1.81.8-2.32-.94-3.42-1.32-1.42-.49-2.77-1.2-4.2-1.6a34.54 34.54 0 0 0-4.23-.6 54.005 54.005 0 0 0 3-5 10.31 10.31 0 0 0-1.59-11.51 10.09 10.09 0 0 0-10.41-3.57 10.35 10.35 0 0 0-8.3 8.18 10.87 10.87 0 0 0 7.38 12.73 44.665 44.665 0 0 0 5.03.93Zm54.44 51.74a42.793 42.793 0 0 0 2.5-4.88 36.628 36.628 0 0 0 1.16-4.89l11.13 4a15.25 15.25 0 0 0-4.68 10.09ZM387 324.054c1.87-3.65 3.51-6.85 5-9.87l9.57 3.42a42.258 42.258 0 0 0-2.51 5 42.344 42.344 0 0 0-1.1 5.78c-3.23-2.91-6.57-4.77-10.96-4.33Zm25.35-61.87c.66-1.11 1.4-2.17 1.95-3.32.46-1 .62-2.05 1.06-3s-.49-2.63 1.54-3.37c2.56 2.59 5.95 3.67 10 3.56a48.908 48.908 0 0 0-3 4.6 54.988 54.988 0 0 0-2 5.21Zm-12.55 30.09a49.428 49.428 0 0 0 2.4-4.65c.57-1.52.87-3.14 1.29-4.73l9.52 4.3c-1.19 2.64-2.4 5.31-3.74 8.26-1.43-.63-2.74-1.31-4.12-1.77-1.59-.53-3.24-.87-5.35-1.41Zm35.07-14.59-4.46 8.74c-1.67-.75-3-1.43-4.43-2s-2.63-.81-3.9-1.2c1.26-3.13 2.37-5.86 3.6-8.9a41.992 41.992 0 0 0 4 1.87 53.382 53.382 0 0 0 5.19 1.49Zm-21.21 27.68 8.91 3.33c-.83 1.64-1.57 3.19-2.4 4.69s.08 3.47-1.46 4.31l-9.1-3.66Zm26 3-8.77-3.6c.74-1.32 1.56-2.59 2.18-3.95s1.16-3.05 1.71-4.53l8.8 3.05Z"/><path class="a" d="M363.82 334.094a10.572 10.572 0 1 0 13.72 5.94 10.572 10.572 0 0 0-13.72-5.94ZM412.24 214.004c-6.18 2.92-7.76 8.84-5.88 14.1 1.8 5 8.53 7.43 13.7 5.36a10.49 10.49 0 0 0 5.84-13.92 10.85 10.85 0 0 0-13.66-5.54ZM484.73 294.004a10.7 10.7 0 1 0 6.17-13.75 10.61 10.61 0 0 0-6.17 13.75ZM499.51 301.204a10.42 10.42 0 1 0 8.128.142 10.44 10.44 0 0 0-8.128-.142ZM350.43 362.564a10.23 10.23 0 0 0 5.75-13.27 10.34 10.34 0 0 0-13.72-5.93 10.61 10.61 0 0 0-5.59 14 10.47 10.47 0 0 0 13.56 5.2ZM436.59 239.764a10.72 10.72 0 0 0 13.41 5.88 10.37 10.37 0 1 0-7.52-19.32 10.77 10.77 0 0 0-5.89 13.44ZM376.86 215.884a10.365 10.365 0 1 0 5.355-13.645 10.365 10.365 0 0 0-5.355 13.645ZM306.77 344.654a10.226 10.226 0 1 0 5.715-13.285 10.226 10.226 0 0 0-5.715 13.285ZM476.07 273.074a10.26 10.26 0 0 0 13.56 5.05 10.14 10.14 0 0 0 5.3-13.42 10.45 10.45 0 0 0-13.57-5.2 10.58 10.58 0 0 0-5.29 13.57ZM315.7 365.764a10.23 10.23 0 1 0 .1-7.876 10.24 10.24 0 0 0-.1 7.876ZM414.86 337.494a10.143 10.143 0 1 0 13.335 5.285 10.15 10.15 0 0 0-13.335-5.285ZM294.89 374.884a10.21 10.21 0 1 0 5.341-13.221 10.21 10.21 0 0 0-5.341 13.221ZM480.17 256.824a9.81 9.81 0 1 0-7.29-18.21 10 10 0 0 0-5.62 12.84 9.87 9.87 0 0 0 12.91 5.37ZM347.05 203.584a10 10 0 1 0 5.16-12.98 10 10 0 0 0-5.16 12.98ZM373.88 266.634a10.031 10.031 0 1 0 5.25-12.92 10.06 10.06 0 0 0-5.25 12.92ZM274.06 383.904a9.884 9.884 0 1 0 5-13.04 9.85 9.85 0 0 0-5 13.04ZM388.52 359.824a9.81 9.81 0 1 0 5.455-12.756 9.809 9.809 0 0 0-5.455 12.756ZM521.18 327.394a9.93 9.93 0 1 0-4.17 13.41 9.93 9.93 0 0 0 4.17-13.41ZM487.05 332.204a9.56 9.56 0 0 0-4.79 13 9.84 9.84 0 0 0 13.07 4.8 10 10 0 0 0 4.82-13.12 9.82 9.82 0 0 0-13.1-4.68ZM356 224.474a9.64 9.64 0 0 0 12.9 5.12 9.808 9.808 0 1 0-12.9-5.12ZM446.13 210.184a9.81 9.81 0 0 0-13.36-3.82 9.52 9.52 0 0 0-3.69 13.28 9.78 9.78 0 0 0 12.84 3.84c4.73-2.48 6.71-8.78 4.21-13.3ZM398.18 206.484a9.81 9.81 0 1 0 5.24-12.82 9.81 9.81 0 0 0-5.24 12.82ZM286 353.874a10.09 10.09 0 0 0 13.18 4.84 9.73 9.73 0 0 0 4.65-12.71 9.47 9.47 0 0 0-13-4.78 9.77 9.77 0 0 0-4.83 12.65ZM370.29 233.004a9.43 9.43 0 0 0-5.17 12.27 9.68 9.68 0 0 0 12.75 5.42 10 10 0 0 0 5.24-12.43 9.69 9.69 0 0 0-12.82-5.26ZM368.67 194.694a9.6 9.6 0 1 0 4.92-12.446 9.6 9.6 0 0 0-4.92 12.446ZM461.4 353.874a9.91 9.91 0 0 0 12.6 4.92 9.63 9.63 0 0 0 4.8-13 9.46 9.46 0 0 0-12.59-4.44 9.65 9.65 0 0 0-4.81 12.52ZM515.93 305.774a9.68 9.68 0 0 0 12.48 4.79 9.53 9.53 0 0 0 4.7-12.94 9.63 9.63 0 0 0-12.58-4.43 9.77 9.77 0 0 0-4.6 12.58ZM368 368.754a9.414 9.414 0 1 0 5.02-12.33 9.414 9.414 0 0 0-5.02 12.33ZM258.31 380.294a9.38 9.38 0 1 0 12.39 5.1 9.51 9.51 0 0 0-12.39-5.1ZM459.11 230.464a9.27 9.27 0 1 0 5.16-12.16 9.12 9.12 0 0 0-5.16 12.16ZM338.7 182.554a9.35 9.35 0 0 0 12.53 4.45 9.22 9.22 0 0 0 4.5-12 9.37 9.37 0 0 0-12.35-4.92 9.47 9.47 0 0 0-4.68 12.47ZM507.2 284.594a9 9 0 0 0 12.29 4.81 9.223 9.223 0 0 0-7.16-17 9.13 9.13 0 0 0-5.13 12.19ZM277.9 367.294a9.25 9.25 0 0 0 4.54-12.47 9.35 9.35 0 0 0-12-4.65 9.49 9.49 0 0 0-5 12.35 9.36 9.36 0 0 0 12.46 4.77ZM359 382.684a9.22 9.22 0 0 0 4.83-12.4 9 9 0 0 0-11.94-4.6 9.19 9.19 0 0 0-4.89 12.32 9.4 9.4 0 0 0 12 4.68ZM537.16 331.484a9.27 9.27 0 0 0 4.93-12.39 9.49 9.49 0 0 0-12-4.74 9.36 9.36 0 0 0-4.86 12.44 9.15 9.15 0 0 0 11.93 4.69ZM262.21 413.634a9.3 9.3 0 1 0 5.12-12.12 9.3 9.3 0 0 0-5.12 12.12ZM317.29 191.104a9.332 9.332 0 1 0 5.2-12.13 9.332 9.332 0 0 0-5.2 12.13ZM283.58 404.824a9.39 9.39 0 0 0 12 4.78 9.14 9.14 0 0 0 4.71-12.44 8.88 8.88 0 0 0-12-4.3 9.17 9.17 0 0 0-4.71 11.96ZM325.67 386.554a9.2 9.2 0 1 0 5.14-11.661 9.2 9.2 0 0 0-5.14 11.661ZM304.92 395.694a9.124 9.124 0 1 0 4.975-11.905 9.124 9.124 0 0 0-4.975 11.905ZM440.49 362.394a9.141 9.141 0 1 0 5.245-11.815 9.141 9.141 0 0 0-5.245 11.815ZM510.23 268.094a9 9 0 0 0 5-11.8 9.41 9.41 0 0 0-12-4.88 9.13 9.13 0 0 0-4.79 11.9 8.73 8.73 0 0 0 11.79 4.78ZM253.09 427.614a9.37 9.37 0 0 0 5-11.79 9.15 9.15 0 0 0-12.22-4.82 8.79 8.79 0 0 0-4.56 11.8 9.11 9.11 0 0 0 11.78 4.81ZM232.34 401.334a8.88 8.88 0 0 0 11.74 4.91 9.11 9.11 0 0 0 4.75-11.88 9.22 9.22 0 0 0-11.42-4.75 9 9 0 0 0-5.07 11.72ZM362.26 296.114a9.036 9.036 0 1 0 5.07-11.73 9.036 9.036 0 0 0-5.07 11.73ZM513.14 356.614a8.932 8.932 0 1 0 4.545-11.785 8.932 8.932 0 0 0-4.545 11.785ZM435.5 363.854a8.8 8.8 0 1 0-3.35 11.69 8.8 8.8 0 0 0 3.35-11.69ZM320.39 174.524a8.7 8.7 0 1 0-11.33-4.27 8.52 8.52 0 0 0 11.33 4.27ZM244.78 371.284a8.76 8.76 0 1 0 .939-8.83 8.76 8.76 0 0 0-.939 8.83ZM492.36 365.814a8.639 8.639 0 1 0 4.12-11.5 8.7 8.7 0 0 0-4.12 11.5ZM231.79 436.184a8.72 8.72 0 1 0-11.2-4.85 8.72 8.72 0 0 0 11.2 4.85ZM420.4 197.004a8.73 8.73 0 1 0 4.6-11.25 8.55 8.55 0 0 0-4.6 11.25ZM390.24 184.834a8.64 8.64 0 1 0 4.5-11.3 8.64 8.64 0 0 0-4.5 11.3ZM268.33 345.534a8.52 8.52 0 0 0 4.78-11.16 8.65 8.65 0 0 0-11.27-4.62 8.47 8.47 0 0 0-4.7 11.18 8.38 8.38 0 0 0 11.19 4.6ZM287.83 179.144a8.52 8.52 0 0 0 11.41 4.16 8.37 8.37 0 0 0 4.29-11.3 8.46 8.46 0 0 0-11.37-4.22 8.63 8.63 0 0 0-4.33 11.36Z"/><path class="a" d="M494.53 230.794a37.858 37.858 0 1 0 .03 0ZM534.73 347.544a8.76 8.76 0 0 0 11.42 4.37 8.51 8.51 0 0 0 4.08-11.45 8.4 8.4 0 0 0-10.89-4.2 8.63 8.63 0 0 0-4.61 11.28ZM234.09 441.344a8.13 8.13 0 0 0-4.29 10.74 8.44 8.44 0 0 0 11.2 4.53 8.81 8.81 0 0 0 4.36-10.91 8.47 8.47 0 0 0-11.27-4.36ZM398.68 380.144a15.235 15.235 0 1 1 0 .05ZM462 213.604a8.62 8.62 0 0 0 4.5-11.27 8.51 8.51 0 0 0-15.68 6.58 8.61 8.61 0 0 0 11.18 4.69ZM289.49 336.384a8.22 8.22 0 0 0 4.24-10.8 8.33 8.33 0 0 0-11.23-4.47 8.73 8.73 0 0 0-4.36 10.9 8.58 8.58 0 0 0 11.35 4.37ZM266 436.644a8.11 8.11 0 0 0-10.78-4.23 8.4 8.4 0 0 0-4.59 10.73 8.64 8.64 0 0 0 11.37 4.46 8.35 8.35 0 0 0 4-10.96ZM364.71 162.154a8.3 8.3 0 1 0 6.554-.447 8.33 8.33 0 0 0-6.554.447ZM342.21 305.154a8.29 8.29 0 1 0 .666-8.483 8.281 8.281 0 0 0-.666 8.483ZM321 314.004a8.22 8.22 0 1 0 1.564-9.012 8.26 8.26 0 0 0-1.564 9.012ZM213 450.474a8.226 8.226 0 1 0 10.88 4.11 8.34 8.34 0 0 0-10.88-4.11ZM538.05 296.114a8.21 8.21 0 1 0 1.7-8.977 8.25 8.25 0 0 0-1.7 8.977ZM280.46 315.374a8.139 8.139 0 1 0-10.747-4.125 8.138 8.138 0 0 0 10.747 4.125ZM290 161.814a8 8 0 0 0 4.18-10.71 8.19 8.19 0 1 0-4.18 10.71ZM258.33 166.614a8 8 0 0 0 10.74 4.12 8.12 8.12 0 1 0-10.74-4.12Z"/><path class="a" d="M482.44 378.504a48.278 48.278 0 1 1 .05 0ZM210.78 444.364a8.19 8.19 0 1 0-6.292.191 8.19 8.19 0 0 0 6.292-.191ZM338.23 216.074a8.08 8.08 0 1 0-6.261.238 8 8 0 0 0 6.261-.238ZM263.5 313.154a8.15 8.15 0 1 0-3.81 10.9 8.06 8.06 0 0 0 3.81-10.9ZM304 312.224a8.18 8.18 0 1 0 10.88 4.37 8.52 8.52 0 0 0-10.88-4.37ZM547 317.154a8.13 8.13 0 1 0 4.57-10.66 8.24 8.24 0 0 0-4.57 10.66ZM260.77 289.834a8 8 0 0 0 10.17 4.48 8.11 8.11 0 0 0 4.67-10.62 8.22 8.22 0 0 0-10.82-4.25 8.12 8.12 0 0 0-4.02 10.39ZM378.22 389.004a7.941 7.941 0 1 0 4.31-10.37 7.941 7.941 0 0 0-4.31 10.37ZM282.59 438.444a7.947 7.947 0 1 0-10.36-4.23 8.21 8.21 0 0 0 10.36 4.23ZM345.43 154.554a7.77 7.77 0 0 0-10.07-4.4 8.06 8.06 0 0 0-4.36 10.64 8.16 8.16 0 0 0 10.35 4 7.89 7.89 0 0 0 4.08-10.24ZM539.63 279.354a7.69 7.69 0 0 0 4.42-10.11 7.8 7.8 0 0 0-10.05-4.58 8 8 0 0 0-4.65 10.59 7.88 7.88 0 0 0 10.28 4.1ZM491.85 225.104a7.88 7.88 0 0 0 4.51-10.1 8 8 0 0 0-10.67-4.34 7.75 7.75 0 0 0-4 10.25 7.65 7.65 0 0 0 10.16 4.19ZM238.89 158.474a7.6 7.6 0 0 0 3.89-10.22 7.802 7.802 0 0 0-14.19 6.49 7.62 7.62 0 0 0 10.3 3.73ZM222.78 414.004a7.57 7.57 0 0 0 3.88-10.18 7.68 7.68 0 0 0-10.17-4 8 8 0 0 0-4 10.26 7.88 7.88 0 0 0 10.29 3.92ZM187.94 469.934a7.47 7.47 0 0 0 10.06 4.07 7.76 7.76 0 0 0 4.26-10.1 8.19 8.19 0 0 0-10.26-4.16 7.82 7.82 0 0 0-4.06 10.19ZM527.16 367.434a7.64 7.64 0 1 0 5.973-.225 7.64 7.64 0 0 0-5.973.225ZM252 268.594a7.75 7.75 0 0 0 10.12 4.28 8.06 8.06 0 0 0 4.31-10.2 7.87 7.87 0 0 0-10.19-4.15 7.56 7.56 0 0 0-4.24 10.07ZM367 402.074a7.46 7.46 0 0 0 4.41-10 7.76 7.76 0 0 0-10.17-4.25 8.11 8.11 0 0 0-4.27 9.75 7.69 7.69 0 0 0 10.03 4.5ZM303.91 428.924a7.45 7.45 0 0 0 4-10.17 7.78 7.78 0 0 0-9.75-4.09 8.12 8.12 0 0 0-4.44 10.2 7.71 7.71 0 0 0 10.19 4.06Z"/><path class="a" d="M460.68 387.274a7.744 7.744 0 1 0-9.99-4.52 7.74 7.74 0 0 0 9.99 4.52ZM560.8 328.064a8 8 0 0 0-4.5 9.57 7.74 7.74 0 0 0 10 4.67 7.59 7.59 0 0 0 4.45-9.49 7.7 7.7 0 0 0-9.95-4.75ZM243.48 248.004a7.6 7.6 0 0 0 9.7 3.85 7.71 7.71 0 0 0 4-10.17 7.81 7.81 0 0 0-9.77-3.85 7.66 7.66 0 0 0-3.93 10.17ZM530.69 257.814a7.43 7.43 0 0 0 4.07-9.61 7.59 7.59 0 0 0-10.1-4.22 7.8 7.8 0 0 0-4.1 9.73 7.56 7.56 0 0 0 10.13 4.1ZM197.09 491.004a7.57 7.57 0 0 0 10.1 4 7.7 7.7 0 0 0 3.85-9.74 7.85 7.85 0 0 0-10.19-4 7.67 7.67 0 0 0-3.76 9.74ZM325.2 419.714a7.54 7.54 0 1 0-5.91.162 7.56 7.56 0 0 0 5.91-.162ZM254.32 135.504a7.44 7.44 0 1 0 9.57 4.19 7.44 7.44 0 0 0-9.57-4.19ZM250 302.564a7.43 7.43 0 1 0-9.617-3.926 7.43 7.43 0 0 0 9.617 3.926ZM291.62 302.004a7.47 7.47 0 1 0 3.41-10 7.47 7.47 0 0 0-3.41 10ZM336.16 406.864a5.739 5.739 0 1 0-.03 0ZM286.47 270.894a7.44 7.44 0 1 0 9.69 3.81 7.33 7.33 0 0 0-9.69-3.81ZM218.45 482.234a7.52 7.52 0 1 0 .5-7.671 7.52 7.52 0 0 0-.5 7.671ZM558.23 362.094a7.31 7.31 0 1 0 .29 5.628 7.38 7.38 0 0 0-.29-5.628ZM502.32 386.004a7.29 7.29 0 0 0 9.56 4.08 7.39 7.39 0 0 0 4.11-9.58 7.54 7.54 0 0 0-9.62-4.12 7.45 7.45 0 0 0-4.05 9.62ZM452.62 191.114a7.19 7.19 0 0 0 3.82-9.19 7.28 7.28 0 1 0-3.82 9.19ZM239.85 472.944a7.334 7.334 0 1 0 3.75-9.67 7.4 7.4 0 0 0-3.75 9.67ZM202.35 132.874a7.21 7.21 0 1 0 6.48 12.881 7 7 0 0 0 3.24-9.321 7.16 7.16 0 0 0-9.72-3.56ZM176.69 500.244a7.26 7.26 0 0 0 9.83 3.2 7.46 7.46 0 0 0 3.25-9.4 7.38 7.38 0 0 0-9.75-3.56 7.16 7.16 0 0 0-3.33 9.76ZM430.15 391.854a7.22 7.22 0 0 0 9.65 3.86 7.52 7.52 0 0 0 3.65-9.32 7.28 7.28 0 0 0-9.72-3.74 7 7 0 0 0-3.58 9.2ZM412.82 175.204a7 7 0 0 0 9.51 3.84 7.26 7.26 0 0 0 4-9 7.54 7.54 0 0 0-9.47-4.34 7.32 7.32 0 0 0-4.04 9.5ZM247.85 220.734a6.93 6.93 0 0 0-9.64-3.48 7.22 7.22 0 0 0-3.67 9.14 7.44 7.44 0 0 0 9.6 4 7.2 7.2 0 0 0 3.71-9.66ZM273.83 259.724a7.28 7.28 0 1 0 .565-7.429 7.28 7.28 0 0 0-.565 7.429ZM310.71 151.824a7 7 0 0 0 3.86-9.1 7.12 7.12 0 1 0-13.09 5.57 7 7 0 0 0 9.23 3.53ZM512.36 232.654a7 7 0 0 0 9.24 3.53 7.22 7.22 0 0 0 3.58-9.29 7.32 7.32 0 0 0-9.35-3.53 7.09 7.09 0 0 0-3.47 9.29ZM171.48 469.414a6.84 6.84 0 0 0-3.89 9 7.09 7.09 0 0 0 8.93 4.17 7.41 7.41 0 0 0 4.14-9.53 7.14 7.14 0 0 0-9.18-3.64ZM268.63 229.484a6.94 6.94 0 0 0-3.57 9.12 7.072 7.072 0 1 0 12.84-5.93 7 7 0 0 0-9.27-3.19ZM302.35 190.164a6.83 6.83 0 0 0-3.76 9.09 7 7 0 1 0 12.87-5.36 6.85 6.85 0 0 0-9.11-3.73ZM237.75 350.154c1.56 4.09 8.37 4.77 11.41 1.14a7.11 7.11 0 0 0 .68-8.36 7.32 7.32 0 0 0-8.47-2.84 5.159 5.159 0 0 0-1.66 1c-1.28 1.03-2.6 7.38-1.96 9.06ZM386.17 154.594a6.657 6.657 0 1 0 9.37 2.88 7 7 0 0 0-9.37-2.88ZM231.9 277.374a7 7 0 0 0 9.18 3.55 7.18 7.18 0 0 0 3.59-9.24 7.35 7.35 0 0 0-9.28-3.55 7.08 7.08 0 0 0-3.49 9.24ZM486.1 193.764a6.89 6.89 0 0 0-9.29-3.15 7 7 0 0 0-3.27 8.8 7.12 7.12 0 0 0 9.21 3.61 7 7 0 0 0 3.35-9.26ZM205.09 214.084a6.83 6.83 0 1 0 3.76-9.08 7 7 0 0 0-3.76 9.08ZM234.93 208.844a6.84 6.84 0 1 0-9-4.05 6.91 6.91 0 0 0 9 4.05ZM491 398.364a6.78 6.78 0 1 0-9.08-3.08 6.78 6.78 0 0 0 9.08 3.08ZM337.52 232.284a6.82 6.82 0 1 0 3.39-8.75 7.17 7.17 0 0 0-3.39 8.75ZM189.09 452.264a6.75 6.75 0 0 0 3.22-9.21 6.82 6.82 0 0 0-8.77-3.23 6.94 6.94 0 0 0-3.67 9.12 6.84 6.84 0 0 0 9.22 3.32ZM220.41 133.094a6.87 6.87 0 1 0 3.88-9.12 7.23 7.23 0 0 0-3.88 9.12ZM418.26 404.234a6.77 6.77 0 0 0 3.59-8.61 6.85 6.85 0 1 0-3.59 8.61ZM214 235.004a6.77 6.77 0 1 0 3.63-8.61 6.92 6.92 0 0 0-3.63 8.61ZM264.74 455.004a6.71 6.71 0 1 0 6.79.618 6.71 6.71 0 0 0-6.79-.618ZM208.31 163.124a6.7 6.7 0 0 0 8.5 3.7 6.79 6.79 0 0 0 3.87-8.93 6.93 6.93 0 0 0-8.54-3.7 6.76 6.76 0 0 0-3.83 8.93ZM242.25 166.204a6.6 6.6 0 1 0 8.58 3.63 6.67 6.67 0 0 0-8.58-3.63ZM164.66 512.064a6.74 6.74 0 0 0 3.52-8.6 6.83 6.83 0 1 0-3.52 8.6ZM178.31 150.824a6.94 6.94 0 0 0 8.57 3.77 6.7 6.7 0 1 0-5-12.42 6.88 6.88 0 0 0-3.57 8.65ZM272.35 178.214a6.72 6.72 0 1 0 8.507 3.736 6.713 6.713 0 0 0-8.507-3.736ZM232 259.764a6.46 6.46 0 0 0 3.52-8.59 6.55 6.55 0 0 0-8.52-3.67 6.7 6.7 0 0 0-3.73 9.06 6.63 6.63 0 0 0 8.73 3.2ZM265.28 220.504a6.53 6.53 0 0 0 3.27-8.69 6.91 6.91 0 0 0-8.8-3.22 7 7 0 0 0-3.25 8.81 6.6 6.6 0 0 0 8.78 3.1ZM189.58 512.074a6.63 6.63 0 0 0-3.78 8.51 6.82 6.82 0 0 0 9.11 3.65 6.63 6.63 0 0 0 3.27-8.71 6.46 6.46 0 0 0-8.6-3.45ZM210.47 503.224a6.42 6.42 0 0 0-3.57 8.51 6.63 6.63 0 0 0 8.48 3.78 6.8 6.8 0 0 0 3.76-9 6.58 6.58 0 0 0-8.67-3.29ZM173.25 120.944a6.68 6.68 0 0 0-4.09 8.41 6.79 6.79 0 0 0 9 4 6.663 6.663 0 0 0-4.88-12.4ZM322.45 295.754a6.38 6.38 0 0 0 3.13-8.6 6.45 6.45 0 0 0-8.54-3.33 6.56 6.56 0 1 0 5.41 11.93ZM208.53 188.004a6.36 6.36 0 0 0-8.29-3.88 6.57 6.57 0 0 0-4 8.81 6.82 6.82 0 0 0 8.59 3.51 6.52 6.52 0 0 0 3.7-8.44ZM304.45 271.284a6.58 6.58 0 0 0 8.52 3.54 6.47 6.47 0 0 0 3.85-8.37 6.7 6.7 0 0 0-8.93-3.84 6.91 6.91 0 0 0-3.44 8.67ZM230.17 369.824c-1.54 2.76-3 5.32-4.39 7.93a2.88 2.88 0 0 0 .57 3.5 6.83 6.83 0 0 0 12.07-3.57 6.49 6.49 0 0 0-3.66-6.83 23.405 23.405 0 0 0-4.59-1.03ZM578.37 353.604a6.23 6.23 0 0 0-8.6-3 6.5 6.5 0 0 0-3.19 8.62 6.85 6.85 0 0 0 8.75 3.11 6.55 6.55 0 0 0 3.04-8.73ZM168.38 521.264a6.47 6.47 0 0 0-3.56 8.47 6.55 6.55 0 1 0 12.09-5 6.46 6.46 0 0 0-8.53-3.47ZM541.67 400.864a6.29 6.29 0 0 0 3.56-7.95 6.4 6.4 0 1 0-11.76 5 6.28 6.28 0 0 0 8.2 2.95ZM299.28 241.634a6.58 6.58 0 0 0-3.68 8.52 6.78 6.78 0 0 0 8.7 3.37 6.46 6.46 0 0 0 3.36-8.12 6.29 6.29 0 0 0-8.38-3.77ZM578.07 310.804a6.24 6.24 0 0 0 3.5-8.42 6.372 6.372 0 0 0-11.59 5.3 6.27 6.27 0 0 0 8.09 3.12ZM388.71 409.614a6.37 6.37 0 1 0 .6-6.465 6.37 6.37 0 0 0-.6 6.465ZM283.76 131.084a6.62 6.62 0 0 0-8.64-3.24 6.38 6.38 0 0 0-3 8.16 6.06 6.06 0 0 0 8.49 3.16 6.32 6.32 0 0 0 3.15-8.08ZM232.05 494.324a6.2 6.2 0 0 0-3.57 8.43 6.31 6.31 0 1 0 11.58-5 6.2 6.2 0 0 0-8.01-3.43ZM152 130.334a6.21 6.21 0 0 0-3.41 8.5 6.312 6.312 0 1 0 11.48-5.25 6.22 6.22 0 0 0-8.07-3.25ZM359.58 266.004a6.3 6.3 0 0 0-3.66 7.94 6.2 6.2 0 1 0 3.66-7.94ZM560.9 286.334a6.38 6.38 0 1 0 3.518-8.189 6.38 6.38 0 0 0-3.518 8.189ZM356.94 142.844a6.15 6.15 0 1 0 8.21 2.91 6.24 6.24 0 0 0-8.21-2.91ZM291.39 457.694a6.22 6.22 0 1 0-8.19-2.91 6.14 6.14 0 0 0 8.19 2.91ZM287.23 229.454a6.41 6.41 0 0 0 8.28 2.88 6.22 6.22 0 1 0-8.28-2.88ZM461.36 404.004a6.38 6.38 0 0 0 8.3 2.81 6.17 6.17 0 1 0-8.3-2.81ZM504.12 211.054a6.22 6.22 0 0 0 7.85 3.69 6.3 6.3 0 0 0 3.64-7.89 6.38 6.38 0 0 0-7.89-3.71 6.29 6.29 0 0 0-3.6 7.91ZM143.07 520.744a6.172 6.172 0 1 0-8.115-3.215 6.172 6.172 0 0 0 8.115 3.215ZM190.86 120.834a6.32 6.32 0 0 0 8.08 3.16 6.42 6.42 0 0 0 3.33-8 6.29 6.29 0 0 0-8.52-3.26 6.21 6.21 0 0 0-2.89 8.1ZM147.16 530.574a6.16 6.16 0 1 0 8.1 3.19 6.16 6.16 0 0 0-8.1-3.19ZM515.49 398.624a6.08 6.08 0 0 0-3.13 8.09 6.18 6.18 0 0 0 8.15 3 6.1 6.1 0 1 0-5-11.11ZM169.8 172.734a6.138 6.138 0 1 0 8.09 3.14 6.2 6.2 0 0 0-8.09-3.14ZM555.49 257.464a6.4 6.4 0 0 0-3.12 8.19 6.131 6.131 0 0 0 11.24-4.9 6.34 6.34 0 0 0-8.12-3.29ZM221.13 175.654a6.14 6.14 0 1 0 7.723 3.612 6.14 6.14 0 0 0-7.723-3.612ZM191.38 163.764a6.09 6.09 0 1 0 6.155.85 6.09 6.09 0 0 0-6.155-.85ZM139.83 117.764a6.111 6.111 0 1 0 3.22-8.02 6.111 6.111 0 0 0-3.22 8.02ZM248.09 195.854a4.4 4.4 0 1 0-.03 0ZM554.87 388.514a6.14 6.14 0 0 0 8.09 3.08 6 6 0 0 0 2.88-8.12 5.78 5.78 0 0 0-7.59-2.88 6 6 0 0 0-3.38 7.92ZM157.94 159.944a6 6 0 1 0 .16-6.366 6 6 0 0 0-.16 6.366ZM367.81 418.304a6.07 6.07 0 1 0 3.45-7.84 5.93 5.93 0 0 0-3.45 7.84ZM155.12 490.594a6.1 6.1 0 1 0-7.9-3.42 6 6 0 0 0 7.9 3.42ZM350.28 245.374a5.86 5.86 0 0 0-2.85 8.13 6.02 6.02 0 1 0 10.91-5.09 5.87 5.87 0 0 0-8.06-3.04ZM587.34 331.534a6.14 6.14 0 0 0 2.65-8.19 6 6 0 0 0-7.75-2.45 5.89 5.89 0 0 0-2.65 8.13 6.13 6.13 0 0 0 7.75 2.51ZM338.41 275.714a5.63 5.63 0 0 0-2.76 7.61 5.774 5.774 0 0 0 10.41-5 5.6 5.6 0 0 0-7.65-2.61ZM121.7 119.184a5.9 5.9 0 0 0-2.93 7.63 6.27 6.27 0 0 0 7.67 3.06 5.89 5.89 0 0 0 2.94-8.1 5.62 5.62 0 0 0-7.68-2.59ZM175.85 201.934a5.91 5.91 0 1 0 2.82-7.65 6 6 0 0 0-2.82 7.65ZM182 553.654a5.83 5.83 0 0 0 3.25-7.44 5.76 5.76 0 1 0-10.71 4.23 5.83 5.83 0 0 0 7.46 3.21ZM140.11 160.944a6 6 0 0 0-3.5 7.38 5.92 5.92 0 0 0 7.38 3.43 5.64 5.64 0 0 0 3.4-7.3 5.72 5.72 0 0 0-7.28-3.51ZM329.58 254.484a5.68 5.68 0 0 0-3 7.55 6 6 0 0 0 7.64 3 5.92 5.92 0 0 0 2.94-7.64 5.65 5.65 0 0 0-7.58-2.91ZM250.19 493.264a5.47 5.47 0 0 0 7.4 3.16 5.73 5.73 0 0 0 3.33-7.4 6.18 6.18 0 0 0-7.55-3.27 5.82 5.82 0 0 0-3.18 7.51ZM161.55 108.844a5.83 5.83 0 0 0 7.7 2.72 6.15 6.15 0 0 0 2.7-7.79 5.79 5.79 0 0 0-7.75-2.57 5.57 5.57 0 0 0-2.65 7.64ZM195.91 541.514a5.69 5.69 0 0 0 7.57 2.94 5.93 5.93 0 0 0 3-7.12 6 6 0 0 0-7.48-3.33 5.77 5.77 0 0 0-3.09 7.51ZM278.68 208.104a5.8 5.8 0 0 0 7.65 2.71 6.11 6.11 0 0 0 2.69-7.74 5.78 5.78 0 0 0-7.7-2.57 5.55 5.55 0 0 0-2.64 7.6ZM112.94 98.004a6 6 0 0 0-2.92 7.68 5.88 5.88 0 0 0 7.74 2.65 5.64 5.64 0 0 0 2.68-7.16 5.76 5.76 0 0 0-7.5-3.17ZM127.73 147.514a5.71 5.71 0 0 0 7.55 2.88 5.47 5.47 0 0 0 3-7.43 5.76 5.76 0 0 0-7.51-3.05 6.11 6.11 0 0 0-3.04 7.6ZM245.53 116.204a5.7 5.7 0 0 0-2.56 7.65 5.6 5.6 0 0 0 7.65 2.43 5.89 5.89 0 0 0 2.53-7.22 6 6 0 0 0-7.62-2.86ZM160.69 562.574a5.62 5.62 0 1 0-7.3-3.14 5.619 5.619 0 0 0 7.3 3.14ZM354.59 430.334a5.776 5.776 0 1 0-7.73-2.65 5.83 5.83 0 0 0 7.73 2.65ZM304.63 445.114a5.56 5.56 0 0 0 7.33 3.26 5.89 5.89 0 0 0 3.38-7.36 5.79 5.79 0 0 0-7.41-3.19 5.54 5.54 0 0 0-3.3 7.29ZM309 220.114a5.572 5.572 0 1 0 2.84-7.35 5.572 5.572 0 0 0-2.84 7.35ZM333.16 439.154a5.48 5.48 0 1 0-7-2.78 5.32 5.32 0 0 0 7 2.78ZM317.63 240.534a5.6 5.6 0 1 0 .969-5.612 5.6 5.6 0 0 0-.969 5.612ZM193.22 418.264a5.7 5.7 0 0 0 10.49-4.42c-1-2.53-4.23-4.29-6.25-3.12-3.78 2.17-5.65 4.28-4.24 7.54ZM499.21 418.134a5.51 5.51 0 1 0-7.09-2.64 5.6 5.6 0 0 0 7.09 2.64ZM134.07 89.254a5.51 5.51 0 1 0 5.609.449 5.51 5.51 0 0 0-5.609-.449ZM543.89 244.004a5.52 5.52 0 1 0 .015-4.361 5.48 5.48 0 0 0-.015 4.361ZM123.25 547.324a5.53 5.53 0 1 0 .831-5.557 5.53 5.53 0 0 0-.831 5.557ZM217.08 532.444a5.38 5.38 0 1 0 2.74-7 5.5 5.5 0 0 0-2.74 7ZM132.46 568.184a5.24 5.24 0 1 0 3.026-6.565 5.24 5.24 0 0 0-3.026 6.565ZM435.64 165.354a5.39 5.39 0 1 0 3.083-6.792 5.39 5.39 0 0 0-3.083 6.792ZM98.14 135.464a5.25 5.25 0 1 0 2.74-6.9 5.249 5.249 0 0 0-2.74 6.9ZM89.09 114.084a5.23 5.23 0 1 0 3-6.546 5.23 5.23 0 0 0-3 6.546ZM443.4 405.584a5.3 5.3 0 0 0-2.54 7.09 5.51 5.51 0 0 0 7.19 2.46 5.38 5.38 0 0 0 2.46-7.16 5.13 5.13 0 0 0-7.11-2.39ZM163.32 450.084a5.42 5.42 0 0 0-3.22 6.79 5.5 5.5 0 0 0 7.36 3.09 5.32 5.32 0 0 0 2.73-7 5.19 5.19 0 0 0-6.87-2.88ZM472.83 180.674a5.63 5.63 0 0 0 3.17-7 5.56 5.56 0 0 0-6.93-3.19 5.42 5.42 0 0 0-3.13 6.91 5.52 5.52 0 0 0 6.89 3.28ZM215.44 104.614a5.17 5.17 0 0 0-2.39 7.11 5.3 5.3 0 0 0 9.5-4.67 5.17 5.17 0 0 0-7.11-2.44ZM331.43 141.234a5.32 5.32 0 0 0 2.6-7.07 5.1 5.1 0 0 0-7-2.56 5.29 5.29 0 0 0-2.69 7 5.49 5.49 0 0 0 7.09 2.63ZM114.39 525.894a5.311 5.311 0 1 0 3.21-6.79 5.311 5.311 0 0 0-3.21 6.79ZM113.61 159.224a5.33 5.33 0 0 0 3.09-6.84 5.08 5.08 0 0 0-6.27-3 5.14 5.14 0 0 0-3.55 6.56 5.33 5.33 0 0 0 6.73 3.28ZM550.25 420.934a5.109 5.109 0 1 0-6.61-2.3 5.15 5.15 0 0 0 6.61 2.3ZM104 77.594a4.91 4.91 0 0 0-2.38 6.49 5.14 5.14 0 0 0 6.93 2.62 5.48 5.48 0 0 0 2.45-6.61 5.19 5.19 0 0 0-7-2.5ZM126.82 495.774a4.94 4.94 0 0 0 6.82 2.87 5.29 5.29 0 0 0 3.05-6.35 5.59 5.59 0 0 0-6.79-3.37 5.3 5.3 0 0 0-3.08 6.85ZM182.87 99.134a4.84 4.84 0 0 0 6.18 3.09 5.22 5.22 0 0 0 3.46-6.63 5.55 5.55 0 0 0-7-2.93 5.17 5.17 0 0 0-2.64 6.47ZM576.57 379.414a5.32 5.32 0 0 0 7.13 2.37 5 5 0 0 0 2.49-6.51 5.35 5.35 0 0 0-6.91-2.95 5.6 5.6 0 0 0-2.71 7.09ZM405.84 153.694a5.09 5.09 0 0 0 6.41 2.66 4.83 4.83 0 0 0 3-6.69 5.19 5.19 0 0 0-6.37-2.86 5.52 5.52 0 0 0-3.04 6.89ZM185.32 222.424a5.21 5.21 0 1 0 2.732-6.712 5.21 5.21 0 0 0-2.732 6.712ZM80.28 93.004a5.29 5.29 0 0 0 6.38 3 5.36 5.36 0 0 0 3.16-6.29 5.05 5.05 0 1 0-9.54 3.29ZM146.57 189.624a4.83 4.83 0 0 0 6.43 2.38 5 5 0 0 0 2.73-6.35 5.31 5.31 0 0 0-7-2.59 5 5 0 0 0-2.16 6.56ZM109.36 558.774a5 5 0 0 0 2.57-6.47 4.867 4.867 0 0 0-9 3.71 5 5 0 0 0 6.43 2.76ZM153.09 87.284a5.07 5.07 0 0 0 6.49 2.4 4.8 4.8 0 0 0 2.47-6.85 4.75 4.75 0 0 0-6.54-2 5 5 0 0 0-2.42 6.45ZM522.43 427.054a4.87 4.87 0 1 0 2.78-6.37 5.21 5.21 0 0 0-2.78 6.37ZM272.09 484.324a4.78 4.78 0 1 0 8.771-3.8 4.83 4.83 0 0 0-6.341-2.66 4.91 4.91 0 0 0-2.43 6.46ZM238.79 523.004a4.73 4.73 0 1 0 8.54-4 4.56 4.56 0 0 0-5.92-2.23 4.63 4.63 0 0 0-2.62 6.23ZM118.45 579.454a4.5 4.5 0 0 0 2.31-5.9 4.65 4.65 0 1 0-8.36 4.05 4.46 4.46 0 0 0 6.05 1.85ZM71.44 116.804a4.58 4.58 0 0 0-2.66 6.28 4.67 4.67 0 0 0 8.74-3.22 4.57 4.57 0 0 0-6.08-3.06ZM565 409.114a5 5 0 0 0 6.44 2.52 4.84 4.84 0 1 0-6.44-2.52ZM589 348.764a4.9 4.9 0 0 0 6.44 2.63 4.75 4.75 0 0 0-3.35-8.89 4.93 4.93 0 0 0-3.09 6.26ZM169.4 582.494a4.69 4.69 0 1 0-6.02-2.4 4.69 4.69 0 0 0 6.02 2.4ZM538.22 216.484a4.59 4.59 0 1 0 3.42 8.52 4.64 4.64 0 0 0 2.77-5.7 4.72 4.72 0 0 0-6.19-2.82ZM502.88 192.094a4.83 4.83 0 0 0 2.14-6.55 4.64 4.64 0 0 0-6.1-1.9 4.47 4.47 0 0 0-2.11 6.46 4.64 4.64 0 0 0 6.07 1.99ZM184.4 570.804a4.61 4.61 0 1 0 2.51-5.94 4.72 4.72 0 0 0-2.51 5.94ZM420.24 421.394a4.73 4.73 0 1 0 .3-4.88 4.722 4.722 0 0 0-.3 4.88ZM100.26 537.384a4.83 4.83 0 0 0 2.52-6 4.61 4.61 0 1 0-8.521 3.52 4.85 4.85 0 0 0 6.001 2.48ZM129.5 77.344a4.65 4.65 0 1 0-3.689.172 4.69 4.69 0 0 0 3.689-.172ZM77.75 144.004a4.61 4.61 0 1 0 2.54-5.788 4.61 4.61 0 0 0-2.54 5.788ZM62.5 95.734a4.72 4.72 0 0 0-2.7 5.81 4.511 4.511 0 1 0 8.49-3.05 4.74 4.74 0 0 0-5.79-2.76ZM294.92 126.234a4.524 4.524 0 1 0 2.52-5.88 4.524 4.524 0 0 0-2.52 5.88ZM180.53 80.244a4.32 4.32 0 0 0 1.93-6 4.49 4.49 0 0 0-5.5-2.09 4.73 4.73 0 0 0-2.45 5.93 4.65 4.65 0 0 0 6.02 2.16ZM99.19 65.434a4.62 4.62 0 0 0 2.23-6 4.29 4.29 0 0 0-5.87-2.25 4.68 4.68 0 0 0-2.37 5.91 4.88 4.88 0 0 0 6.01 2.34ZM77.89 74.504a4.73 4.73 0 0 0 2.43-5.94 4.53 4.53 0 0 0-8.32 3.51 4.73 4.73 0 0 0 5.89 2.43ZM148.57 591.114a4.7 4.7 0 0 0 2.06-6 4.57 4.57 0 0 0-6-1.92 4.25 4.25 0 0 0-2 5.92 4.44 4.44 0 0 0 5.94 2ZM112.45 507.004a4.54 4.54 0 0 0 1.78-6.13 4.4 4.4 0 0 0-7.82 4 4.64 4.64 0 0 0 6.04 2.13ZM471.7 423.664a4.41 4.41 0 1 0 2.434-5.6 4.41 4.41 0 0 0-2.434 5.6ZM376.36 141.284a4.59 4.59 0 0 0 5.43 2.35 4.52 4.52 0 0 0 2.59-5.82 4.69 4.69 0 0 0-5.44-2.38 4.61 4.61 0 0 0-2.58 5.85ZM195.13 243.304a4.36 4.36 0 1 0 2.65-5.75 4.47 4.47 0 0 0-2.65 5.75ZM205 90.334a4.59 4.59 0 0 0 5.51 2 4.51 4.51 0 0 0 2.19-5.93 4.313 4.313 0 0 0-7.7 3.89ZM208.55 556.134a4.264 4.264 0 0 0 2.54 8.14 4.37 4.37 0 0 0 3.07-5.46 4.3 4.3 0 0 0-5.61-2.68ZM144.77 65.804a4.12 4.12 0 0 0 5.83 2 4.37 4.37 0 0 0 2.23-5.33 4.61 4.61 0 0 0-5.78-2.47 4.47 4.47 0 0 0-2.28 5.8ZM84.69 559.344a4.15 4.15 0 1 0 5.37 2.15 4.15 4.15 0 0 0-5.37-2.15ZM117.24 177.584a4.203 4.203 0 0 0 7.18-4.37 4.203 4.203 0 1 0-7.18 4.37ZM399.72 430.144a4.29 4.29 0 0 0 7.66-3.86 4.41 4.41 0 0 0-5.5-2.1 4.34 4.34 0 0 0-2.16 5.96ZM142.36 460.204a4.47 4.47 0 0 0-2.37 5.4 4.3 4.3 0 1 0 7.911-3.37 4.46 4.46 0 0 0-5.541-2.03ZM378.55 439.004a4.12 4.12 0 1 0 2.11-5.317 4.12 4.12 0 0 0-2.11 5.317ZM121.51 597.894a4.181 4.181 0 1 0 2.04-5.55 4.17 4.17 0 0 0-2.04 5.55ZM91.42 585.624a4.21 4.21 0 0 0 5.12 2.6 4.37 4.37 0 0 0 2.54-5.2 4.21 4.21 0 0 0-5.17-2.55 4.14 4.14 0 0 0-2.49 5.15ZM117.2 48.364a4.34 4.34 0 0 0-2.47 5.24 4.111 4.111 0 0 0 7.73-2.8 4.37 4.37 0 0 0-5.26-2.44ZM270.37 116.254a4.34 4.34 0 0 0 2.34-5.29 4.21 4.21 0 0 0-5.27-2.33 4.14 4.14 0 0 0-2.3 5.24 4.21 4.21 0 0 0 5.23 2.38ZM87.29 164.644a4.06 4.06 0 0 0 5.38 2.05 4.11 4.11 0 0 0 1.86-5 3.83 3.83 0 0 0-5.34-2 3.88 3.88 0 0 0-1.9 4.95ZM341.56 458.924a4 4 0 0 0 2.2-5.25 3.75 3.75 0 0 0-4.69-2.2 3.87 3.87 0 0 0-2.66 5 4 4 0 0 0 5.15 2.45ZM294 474.574a3.91 3.91 0 1 0 7.38-2.58 3.81 3.81 0 0 0-4.63-2.42 3.86 3.86 0 0 0-2.75 5ZM357.23 447.934a4.183 4.183 0 1 0 2.215-5.485 4.183 4.183 0 0 0-2.215 5.485ZM504.44 430.674a3.77 3.77 0 0 0-2 4.82 3.69 3.69 0 0 0 5.2 2.17 3.93 3.93 0 0 0 2.08-4.82 4.07 4.07 0 0 0-5.28-2.17ZM237.14 96.734a4 4 0 0 0-1.73 5.48 4.19 4.19 0 0 0 5.64 1.45 4.06 4.06 0 0 0 1.5-5.1 3.83 3.83 0 0 0-5.41-1.83ZM53.37 75.674a4.08 4.08 0 0 0-1.5 5.57 3.91 3.91 0 0 0 6.9-3.57 4.09 4.09 0 0 0-5.4-2ZM78.45 545.684a4 4 0 0 0 2.38-5.19 4.1 4.1 0 0 0-4.83-2.13 3.76 3.76 0 0 0-2.27 5.17 3.68 3.68 0 0 0 4.72 2.15ZM591.91 401.814a3.65 3.65 0 0 0 2-4.72 3.78 3.78 0 0 0-5.13-2.27 4.06 4.06 0 0 0-2.12 4.79 4 4 0 0 0 5.25 2.2ZM232.27 554.754a3.82 3.82 0 0 0-3.06-7 3.76 3.76 0 0 0-1.74 4.94 3.65 3.65 0 0 0 4.8 2.06ZM171 58.634a4.05 4.05 0 0 0 2.19-4.72 3.8 3.8 0 0 0-5.19-2.07 3.56 3.56 0 0 0-1.73 4.78 3.84 3.84 0 0 0 4.73 2.01ZM554 439.004a3.59 3.59 0 0 0 6.51-3 3.66 3.66 0 0 0-4.79-1.85 3.7 3.7 0 0 0-1.72 4.85ZM315.46 465.764a4.07 4.07 0 0 0 4.82 2 3.85 3.85 0 0 0 1.86-5.27 3.58 3.58 0 0 0-4.88-1.5 3.8 3.8 0 0 0-1.8 4.77ZM86.79 36.794a3.59 3.59 0 0 0-1.79 4.81 3.69 3.69 0 0 0 4.75 2 4 4 0 0 0 2.06-5.31 3.87 3.87 0 0 0-5.02-1.5ZM260.85 513.404a3.64 3.64 0 0 0 4.81 2 3.49 3.49 0 0 0 2.1-4.72 3.81 3.81 0 0 0-4.79-2.13 4 4 0 0 0-2.12 4.85ZM156.64 210.004a3.64 3.64 0 0 0 4.62 2.22 3.76 3.76 0 1 0-2.72-7 3.68 3.68 0 0 0-1.9 4.78ZM105.42 608.494a3.7 3.7 0 0 0 1.85-4.81 3.79 3.79 0 0 0-4.28-1.94 3.71 3.71 0 0 0-2.25 4.62 3.59 3.59 0 0 0 4.68 2.13ZM138.71 39.834a3.55 3.55 0 1 0 3.573.769 3.55 3.55 0 0 0-3.573-.769ZM91.08 515.114a3.51 3.51 0 0 0 1.61-4.87 3.62 3.62 0 1 0-6.48 3.23 3.52 3.52 0 0 0 4.87 1.64ZM177.9 602.574a3.523 3.523 0 1 0-4.72-1.94 3.6 3.6 0 0 0 4.72 1.94ZM601.38 365.004a3.46 3.46 0 1 0 4.57 1.75 3.47 3.47 0 0 0-4.57-1.75ZM205 264.004a3.42 3.42 0 1 0 2-4.65 3.55 3.55 0 0 0-2 4.65ZM63.79 50.494a3.6 3.6 0 0 0 4.76 1.74 3.403 3.403 0 1 0-2.55-6.31 3.6 3.6 0 0 0-2.21 4.57ZM48.52 131.664a3.48 3.48 0 1 0-.025-2.807 3.49 3.49 0 0 0 .025 2.807ZM584.78 276.114a3.39 3.39 0 0 0 4.72 1.73 3.25 3.25 0 0 0 1.71-4.22 3.39 3.39 0 0 0-4.12-2 3.44 3.44 0 0 0-2.31 4.49ZM154.28 605.004a3.51 3.51 0 0 0-1.8 4.77 3.37 3.37 0 0 0 4.31 1.64 3.55 3.55 0 0 0 2.08-4.15 3.6 3.6 0 0 0-4.59-2.26ZM529.64 196.764a3.76 3.76 0 0 0-1.63 4.92 3.89 3.89 0 0 0 4.52 1.43 3.77 3.77 0 0 0 1.62-4.93 3.9 3.9 0 0 0-4.51-1.42ZM44.3 112.124a3.33 3.33 0 0 0 1.7-4.28 3.49 3.49 0 0 0-4.72-1.9 3.62 3.62 0 0 0-1.45 4.92 3.58 3.58 0 0 0 4.47 1.26ZM121.46 469.904a3.64 3.64 0 0 0-1.94 4.29 3.4 3.4 0 0 0 4.76 1.86 3.24 3.24 0 0 0 1.5-4.36 3.48 3.48 0 0 0-4.32-1.79ZM131.44 618.754a3.13 3.13 0 0 0 4.33 1.29 3.09 3.09 0 0 0 1.35-4.3 3.4 3.4 0 0 0-4.37-1.39 3.33 3.33 0 0 0-1.31 4.4ZM593.76 297.154a3.47 3.47 0 0 0 4.64 2 3.4 3.4 0 0 0 1.84-4.21 3.31 3.31 0 0 0-4-2.18 3.43 3.43 0 0 0-2.48 4.39ZM198.65 593.294a3.12 3.12 0 0 0 2.1-4 3.3 3.3 0 0 0-4.07-2.12 3.37 3.37 0 0 0-2.05 4.08 3.08 3.08 0 0 0 4.02 2.04ZM201 70.424a3.26 3.26 0 0 0 2.2-4 3.407 3.407 0 1 0-2.2 4ZM68.07 570.874a3.67 3.67 0 0 0-4.27-1.87 3.53 3.53 0 0 0-1.8 4.79 3.37 3.37 0 0 0 4.38 1.32 3.3 3.3 0 0 0 1.69-4.24ZM70.91 594.564a2.527 2.527 0 1 0-.02 0ZM455.57 434.154a3.45 3.45 0 0 0 2-4.14 3.26 3.26 0 0 0-4.21-1.71 3 3 0 0 0-1.77 3.62 3.16 3.16 0 0 0 3.98 2.23ZM347.59 128.864a3.2 3.2 0 0 0 4.39 1.2 3.16 3.16 0 0 0 1.29-4.33 3.44 3.44 0 0 0-4.43-1.33 3.49 3.49 0 0 0-1.25 4.46ZM57.72 152.464a3.51 3.51 0 0 0 4.14 2 3.27 3.27 0 0 0 1.92-4.1 3 3 0 0 0-4-1.92 3.24 3.24 0 0 0-2.06 4.02ZM47.1 60.784a2.88 2.88 0 1 0-1.8-5.47 3.17 3.17 0 0 0-1.84 3.69 3.13 3.13 0 0 0 3.64 1.78ZM112.7 29.924a3.3 3.3 0 1 0-1.81 4.18 3.25 3.25 0 0 0 1.81-4.18ZM459.09 155.904a3.13 3.13 0 0 0 4.37 1.15 2.88 2.88 0 0 0 1.31-3.78 3.31 3.31 0 0 0-4.19-1.73 3.46 3.46 0 0 0-1.49 4.36ZM533.19 447.584a2.86 2.86 0 0 0 3.62 1.68 3.06 3.06 0 0 0 2-4 3.25 3.25 0 0 0-4.3-1.48 3.11 3.11 0 0 0-1.32 3.8ZM575.41 429.414a3.19 3.19 0 0 0 4.15 1.79 2.92 2.92 0 0 0 1.87-3.55 3.18 3.18 0 0 0-3.89-2.32 3.44 3.44 0 0 0-2.13 4.08ZM603.16 318.364a3.05 3.05 0 0 0 4.27 1.35 2.92 2.92 0 0 0-2.28-5.35 3.06 3.06 0 0 0-1.99 4ZM231 82.254a3.27 3.27 0 0 0 1.89-4.14 3.16 3.16 0 0 0-3.71-1.59 2.94 2.94 0 0 0-1.85 4 3.2 3.2 0 0 0 3.67 1.73ZM580.33 256.894a3.11 3.11 0 0 0 1.75-3.71 2.93 2.93 0 0 0-4.09-2 3.062 3.062 0 0 0 2.34 5.66ZM429.16 143.524a3 3 0 0 0 3.61 1.86 2.91 2.91 0 0 0 1.72-3.66 2.84 2.84 0 0 0-3.59-1.83 2.81 2.81 0 0 0-1.74 3.63ZM159.67 31.574a3 3 0 0 0-1.67 3.67 2.933 2.933 0 1 0 1.67-3.67ZM69.56 523.544a3.11 3.11 0 0 0 1.36-3.81 2.92 2.92 0 0 0-3.71-1.56 3 3 0 0 0-1.54 4.18 3.14 3.14 0 0 0 3.89 1.19ZM32.78 85.604a2.842 2.842 0 1 0 3.765 1.4 2.842 2.842 0 0 0-3.765-1.4ZM489.37 168.004a2.82 2.82 0 1 0 1.1-3.86 3 3 0 0 0-1.1 3.86ZM102.66 484.634a2.7 2.7 0 1 0-2.5-4.78 2.58 2.58 0 0 0-1.16 3.27 2.67 2.67 0 0 0 3.66 1.51ZM53.32 552.004a2.81 2.81 0 1 0 1.8-3.52 2.72 2.72 0 0 0-1.8 3.52ZM131 199.054a2.8 2.8 0 1 0-3.67-1.38 2.8 2.8 0 0 0 3.67 1.38ZM128.44 23.344a2.91 2.91 0 0 0 3.92 1 2.91 2.91 0 0 0 .78-3.47 2.7 2.7 0 0 0-3.29-1.26 2.83 2.83 0 0 0-1.41 3.73ZM250.91 539.744a2.83 2.83 0 0 0-1.36 3.71 2.86 2.86 0 1 0 1.36-3.71ZM80.29 615.124a2.58 2.58 0 0 0 3.6 1.52 2.63 2.63 0 0 0 1.61-3.09 2.75 2.75 0 0 0-3.45-1.94 2.64 2.64 0 0 0-1.76 3.51ZM114 628.944a2.79 2.79 0 0 0 1.69-3.55 2.7 2.7 0 0 0-3.55-1.63 2.73 2.73 0 0 0-1.7 3.52 2.79 2.79 0 0 0 3.56 1.66ZM188.21 47.114a2.84 2.84 0 1 0 1.79-3.56 2.91 2.91 0 0 0-1.79 3.56ZM216.38 582.274a2.74 2.74 0 0 0 3.62 1.51 2.64 2.64 0 0 0 1.31-3.67 2.59 2.59 0 0 0-3.15-1.32 2.67 2.67 0 0 0-1.78 3.48ZM347.38 474.114a8.66 8.66 0 0 0-.48 3c.19 1.23 1.91 1.63 3.16 1a2.28 2.28 0 0 0 1.1-3.19 2.74 2.74 0 0 0-3.78-.81ZM258.1 92.894a7.43 7.43 0 0 0 2.88.48c1.16-.23 1.64-2.12 1.11-3.17a2.48 2.48 0 0 0-3.24-1c-1.22.54-1.68 1.96-.75 3.69ZM180 423.684l-5 2.7c.6 2.43 2.11 2.45 3.54 1.85 1.78-.75 2.51-2.16 1.46-4.55ZM67.6 173.124a2.39 2.39 0 0 0 3.17 1.1 2.45 2.45 0 0 0 .89-3.28 2.27 2.27 0 0 0-2.77-.88 2.19 2.19 0 0 0-1.29 3.06ZM100.74 186.794a2.603 2.603 0 1 0-1.67-4.93 2.83 2.83 0 0 0-1.71 3 2.77 2.77 0 0 0 3.38 1.93ZM569.89 230.414a2.59 2.59 0 0 0-1.94 3.24 2.17 2.17 0 0 0 3 1.41c1.33-.52 2.19-2 1.44-2.94a8.859 8.859 0 0 0-2.5-1.71ZM325.27 485.314a2.52 2.52 0 0 0 3.25 1.93 2.2 2.2 0 0 0 1.46-3c-.52-1.25-2.07-2.15-3-1.44a8.421 8.421 0 0 0-1.71 2.51ZM282.89 503.284c.6 1.92 1.89 2.55 3.17 2a2.46 2.46 0 0 0 1.57-3c-.41-1.14-2-2.08-3.06-1.41-.86.58-1.28 1.81-1.68 2.41ZM317.85 115.754a2.52 2.52 0 0 0 3.25 1.93 2.19 2.19 0 0 0 1.45-3c-.53-1.26-2.06-2.15-3-1.44a8.31 8.31 0 0 0-1.7 2.51ZM487.24 443.154a2.64 2.64 0 0 0-3.24-2.15c-1.18.39-2 2.12-1.29 3.1.55.71 1.94 1.55 2.51 1.31.95-.41 1.51-1.63 2.02-2.26ZM609 390.344c1.51.39 2.5 1 3.34.79 1.19-.23 1.49-1.42 1.21-2.55-.23-.95-1.82-1.71-2.6-1.11s-1.09 1.53-1.95 2.87ZM90 636.704a7.1 7.1 0 0 0 2.41.65c1.2-.07 2.15-2 1.4-2.88a3.69 3.69 0 0 0-2.55-1.17c-1.26.01-1.97 1.7-1.26 3.4ZM308.07 496.494c.13-1.46.47-2.45.25-3.28-.34-1.24-1.54-1.36-2.6-1a2 2 0 0 0-.83 3.14c.64.55 1.72.65 3.18 1.14ZM600.48 421.944c.39-1.41.94-2.35.82-3.19a2 2 0 0 0-3-1.1 1.8 1.8 0 0 0-.68 2.68c.51.67 1.57.93 2.86 1.61ZM41.57 582.294c1.47.38 2.43.9 3.32.78 1.08-.14 1.58-2.3.83-3.22s-1.84-1.36-2.76-.53c-.63.59-.81 1.68-1.39 2.97ZM79.9 488.214c-.63 1.43-1.29 2.28-1.33 3.16a2.221 2.221 0 0 0 2.88 1.65c.96-.58 1.66-1.58 1-2.66-.45-.75-1.38-1.21-2.55-2.15ZM98 10.754c1.42.47 2.35 1.1 3.16 1a1.7 1.7 0 0 0 1.24-2.41 1.76 1.76 0 0 0-2.4-1.34c-.72.39-1.09 1.49-2 2.75ZM169.05 231.724c1.78-.64 2.58-2.19 1.94-3.22a2.21 2.21 0 0 0-2.72-1.06c-1.34.43-2.14 1.92-1.34 3a6 6 0 0 0 2.12 1.28ZM162.12 630.864c1.48.14 2.49.49 3.34.25a1.81 1.81 0 0 0 1.06-2.57 2 2 0 0 0-3.15-.81c-.59.63-.71 1.71-1.25 3.13ZM20.79 115.414a13.53 13.53 0 0 0-1.1 3.18c-.05 1 1.33 1.65 2.38 1.34s1.94-1.64 1.4-2.39a13.82 13.82 0 0 0-2.68-2.13ZM431.92 437.754c-.16 1.5-.62 2.59-.29 3.34.47 1.06 1.69 1.1 2.78.65a1.67 1.67 0 0 0 .64-2.64c-.65-.6-1.7-.77-3.13-1.35ZM617.42 336.894c-1.4-.36-2.37-.9-3.22-.76a1.9 1.9 0 0 0-1.16 3 1.76 1.76 0 0 0 2.69.63c.69-.57.98-1.62 1.69-2.87ZM76.81 20.114c1.53.28 2.52.77 3.31.54a1.67 1.67 0 0 0 .95-2.54c-.52-1.07-1.57-1.61-2.55-.94-.69.47-.95 1.57-1.71 2.94ZM149.79 13.744a2.16 2.16 0 0 0 3.11.91 1.71 1.71 0 0 0 .21-2.72c-.55-.42-1.8-.71-2.18-.39a5.81 5.81 0 0 0-1.14 2.2ZM219.45 59.274a6.31 6.31 0 0 0 2.37.61 1.77 1.77 0 0 0 1-2.55 3.29 3.29 0 0 0-2.15-.92c-1.06-.01-1.67 1.26-1.22 2.86ZM141.9 640.194a6.55 6.55 0 0 0 2.66-.34 1.68 1.68 0 0 0 .23-2.75 1.85 1.85 0 0 0-2.82-.2c-.97.84-.85 1.84-.07 3.29ZM184.36 622.184a7.159 7.159 0 0 0 2.46-.44c.86-.44.72-2.25-.23-2.72a2.91 2.91 0 0 0-2.28 0c-1.03.57-1.1 1.98.05 3.16ZM371.28 469.624c.14-1.61.46-2.61.23-3.46a1.61 1.61 0 0 0-2.65-.44c-.47.53-.9 1.77-.61 2.15.52.69 1.58.97 3.03 1.75ZM50.35 603.064c1.49.51 2.42 1.15 3.26 1a1.71 1.71 0 0 0 1.39-2.39 1.74 1.74 0 0 0-2.48-1.28c-.81.38-1.23 1.43-2.17 2.67ZM204.77 612.734c1.23.09 2.2.47 2.67.13a2.56 2.56 0 0 0 .79-2.1c-.13-1-2-1.37-2.56-.6a9.839 9.839 0 0 0-.9 2.57ZM287.51 104.324c1.58.38 2.55.89 3.38.72.49-.1 1-1.3 1-2a1.62 1.62 0 0 0-2.29-1.44c-.7.4-1.12 1.4-2.09 2.72ZM241 573.874a5.08 5.08 0 0 0 .45-2.28 2.234 2.234 0 0 0-1.93-1c-1.19.11-1.6 1.13-1.44 2.29.09.95 1.34 1.54 2.92.99ZM513.05 455.754c.64 1.38 2 1.82 2.89 1.07a2.67 2.67 0 0 0 .76-2.1c-.15-1.06-1.79-1.82-2.44-1.19a7.442 7.442 0 0 0-1.21 2.22ZM29.86 136.654c-.56 1.38-1.25 2.29-1.17 3.11.11 1.18 1.24 1.62 2.37 1.32a1.75 1.75 0 0 0 1.4-2.37c-.33-.71-1.4-1.15-2.6-2.06ZM60 623.004c.33 1.48 2 2.39 2.65 1.8a2.73 2.73 0 0 0 1-2.12 2.18 2.18 0 0 0-1.78-1.25c-.87.25-1.43 1.16-1.87 1.57ZM120.19 648.004c.87 1.34 2.42 1.61 3 .75a2.4 2.4 0 0 0 .2-2.18c-.33-.51-1.72-1-2-.71a6.071 6.071 0 0 0-1.2 2.14ZM23.11 67.624c.86 1.33 2.41 1.6 3 .74a2.4 2.4 0 0 0 .19-2.18c-.33-.51-1.72-1-2-.71a6.13 6.13 0 0 0-1.19 2.15ZM44.58 531.334c1.45.29 2.43.76 3.28.59a1.72 1.72 0 0 0 1.13-2.5 1.75 1.75 0 0 0-2.6-.92c-.71.5-1.03 1.55-1.81 2.83ZM179.34 25.834c1.41.49 2.36 1.15 3.17 1a1.79 1.79 0 0 0 1.23-2.45 1.78 1.78 0 0 0-2.45-1.27c-.72.33-1.09 1.45-1.95 2.72ZM68.59 645.004c1.47.34 2.38.84 2.84.57s.69-1.29.74-2a1.92 1.92 0 0 0-1.5-.6c-.61.24-1.04.95-2.08 2.03ZM32.87 561.224c1.46.07 2.44.4 2.91 0s.5-1.39.72-2.13c-.74-.17-1.62-.66-2.2-.42s-.74 1.27-1.43 2.55ZM37.42 160.664c1.15.63 1.88 1.35 2.41 1.22a2 2 0 0 0 1.08-1.73 2.07 2.07 0 0 0-1.61-1.23c-.52.02-1.02.9-1.88 1.74ZM11.28 98.404c1.1 0 2.1.09 2.15-.08a4.06 4.06 0 0 0 .07-2.13c0-.17-1.37-.34-1.56-.09a7.08 7.08 0 0 0-.66 2.3ZM314.14 516.004c.83.14 1.56.48 1.91.25a1.6 1.6 0 0 0 .46-1.54 1.63 1.63 0 0 0-1.54-.47c-.39.16-.5.96-.83 1.76ZM99.7 653.714c.06 2.21-.11 3 .17 3.6a1.65 1.65 0 0 0 1.56.41c.93-.4 1-1.28.4-2.06a22.378 22.378 0 0 0-2.13-1.95ZM56.62 29.774c1.36-.42 2.19-.48 2.7-.91a1.73 1.73 0 0 0 0-1.61 7.11 7.11 0 0 0-2.21-.43c-.11.76-.26 1.51-.49 2.95ZM273.86 534.924a6.9 6.9 0 0 0 .62-2.3c0-.29-1-.74-1.43-.67a1.179 1.179 0 0 0-1 1.78c.27.43.95.62 1.81 1.19ZM59 498.614l-1.06 1.62c.64.39 1.32 1.14 1.89 1.07a1.16 1.16 0 0 0 .77-1.89c-.28-.41-.98-.51-1.6-.8ZM137.17 218.184c1.11.33 1.68.71 2.15.6.86-.19 1.5-.86 1-1.78a1.68 1.68 0 0 0-1.45-.65c-.61.27-.97.97-1.7 1.83ZM403.24 131.414c-.39-.35-.54-.59-.7-.61-.78-.08-1.56-.1-2.34-.15.05.53 0 1.48.17 1.51a8.2 8.2 0 0 0 2.27 0c.13.02.24-.26.6-.75ZM172.34 650.394l1 .8a4.44 4.44 0 0 0 .79-1.25c0-.18-.52-.52-.8-.78ZM109.23 206.754l.93-1.59-1.92-.91c-.16.54-.55 1.14-.42 1.58s.84.57 1.41.92ZM129.84 668.254l1 1 1.06-1.14c-.29-.26-.64-.77-.85-.71a4.12 4.12 0 0 0-1.21.85ZM109.29 677.914a8.729 8.729 0 0 0 1-.38s-.08-.34-.13-.52a8.184 8.184 0 0 0-1 .36s.09.35.13.54ZM336 504.904c-.12.87-.42 1.56-.19 1.86a1.52 1.52 0 0 0 1.46.31 1.47 1.47 0 0 0 .33-1.4c-.18-.34-.88-.44-1.6-.77ZM47.3 181.254c.44.4.91.91 1 .86a4 4 0 0 0 1-1.09c0-.05-.57-.71-.72-.65a6.21 6.21 0 0 0-1.28.88ZM210.09 38.124c1.16 0 1.81.23 2.27 0a1.52 1.52 0 0 0 .7-1.27 1.41 1.41 0 0 0-1.23-.7c-.4.11-.69.74-1.74 1.97ZM172.62 3.214c-.19.33-.6.89-.53 1a8.33 8.33 0 0 0 1.33.89 7.889 7.889 0 0 0 .26-1.58c0-.13-.68-.22-1.06-.31ZM35.77 37.364a5.3 5.3 0 0 0 1.67.76 1.16 1.16 0 0 0 .83-1.78 1.78 1.78 0 0 0-1.51-.47c-.4.13-.6.87-.99 1.49ZM120.06 1.324c.66.44 1.1.94 1.6 1 .75.12 1.44-1.08 1-1.72a1.66 1.66 0 0 0-1.39-.6c-.45.12-.74.77-1.21 1.32ZM78 193.784l1 .31.3-1.47a2.173 2.173 0 0 0-1.16.13c-.28.2-.14.67-.14 1.03ZM227.19 602.914l1.1.24.15-1.43c-.36 0-.84-.05-1.06.15s-.14.68-.19 1.04ZM32.55 610.824l-1-.26c-.08.47-.17.94-.25 1.41.36 0 .84.08 1-.11a3.05 3.05 0 0 0 .25-1.04ZM250 69.314c.12.83.19 1.37.27 1.92a7.849 7.849 0 0 0 1.56-.32c.11 0 .12-.86-.05-1a8 8 0 0 0-1.78-.6ZM88 214.944a2.152 2.152 0 0 1 .14-.54 7.113 7.113 0 0 0-1-.05 3.15 3.15 0 0 0-.08.53ZM0 126.784l.86.69c.08-.18.27-.46.21-.53a4.73 4.73 0 0 0-.75-.65ZM391.13 456.894a5.39 5.39 0 0 0-1.07.11c-.1 0-.14.34-.2.52a6.49 6.49 0 0 0 1.08-.1c.06-.03.13-.34.19-.53ZM565.23 457.364c.06.12.12.35.2.36a2 2 0 0 0 .58-.1l-.34-.64ZM40.15 632.414l.4.39.24-.84c-.17 0-.44-.15-.5-.09a2.06 2.06 0 0 0-.14.54ZM294.43 524.884l.09-.56-.78-.07c.05.19 0 .44.16.56s.35.05.53.07ZM151.57 659.814l1 .31c.1-.33.37-.88.27-1a4.119 4.119 0 0 0-1.21-.51c-.03.39-.04.74-.06 1.2ZM3.29 75.824l-.22.51a5.92 5.92 0 0 0 1 0c.1 0 .15-.32.22-.48ZM261.29 564.194c.17-.31.51-.65.45-.9s-.47-.49-.73-.73c-.21.27-.65.64-.58.8.13.33.57.55.86.83ZM49 653.264c.15.12.29.3.45.31s.27-.18.41-.28l-.69-.52a4.748 4.748 0 0 0-.17.49ZM58 202.004a5.1 5.1 0 0 0-1 .09c-.1 0-.13.33-.19.5a5.8 5.8 0 0 0 1-.09c.12-.02.19-.32.19-.5ZM194 641.924c.16 0 .43 0 .46-.11a1.33 1.33 0 0 0 0-.56l-.75.16ZM239 326.004h.43l-.47-.51a2.071 2.071 0 0 1 .04.51Z"/></svg>