<svg xmlns="http://www.w3.org/2000/svg" width="628.03" height="766"><defs><style>.a{fill:#1a1a1a}</style></defs><path class="a" d="M320.42 377.8a52.436 52.436 0 0 1 4.78-5.07 46.826 46.826 0 0 1 5.56-3.41 47.629 47.629 0 0 1-4.33-2.83 12.26 12.26 0 0 1-4.24-13 13.21 13.21 0 0 1 11.81-9.22c4.74-.17 9.93 3.49 11.74 8.29a12.18 12.18 0 0 1-3.72 13.75 50.219 50.219 0 0 1-5.42 3.32c11.94 5.73 13.05 19.61-.42 26.09 11.88 8.14 11.84 16.81-.58 25.85 1.18.88 2.25 1.65 3.28 2.46 6.28 4.94 5.74 13.94 1 18.6s-14.19 4.67-18.6-1.42c-.71-1-1.35-2-2.29-3.42-.86.85-1.64 1.63-2.43 2.38-1.9 1.82-3.82 3.63-6 5.66l7.44 9c1.67.17 1.48-1.94 2.56-2.7 1.75-1.24 3.35-2.72 5.19-3.81 3.18-1.89 6.34-1.59 9.59.25 4.66 2.64 7.14 6.42 6.87 11.79a11.94 11.94 0 0 1-8.37 10.64c-4.73 1.58-9.54.16-13-4-1-1.24-1.84-2.67-3-4.37a53.207 53.207 0 0 1-4.17 5.17 41.911 41.911 0 0 1-4.68 3.53l8.48 10.44c1.11.09.77-1.64 1.46-2.41s1.12-1.58 1.78-2.28a11.8 11.8 0 1 1-.18 16c-1.37-1.62-2.23-3.68-3.53-5.89-1.36 1.95-2.46 4.08-4.06 5.71a49.123 49.123 0 0 1-5.89 4.42c.16 1.67 1.93 1.69 2.87 2.49 7.24 6.14 6.94 15.44-.81 20.87-1 .68-2.09 1.17-3.11 1.74-.44 2.14 1.52 2.2 2.53 3a12 12 0 0 1 5.05 10.66 11.73 11.73 0 0 1-8.23 10.82c-4.87 1.68-9.1.38-12.57-3.19-1.46-1.51-2.4-3.51-3.58-5.28-4.9 6.28-4.9 6.28-11.08 9.06a41.6 41.6 0 0 1 4.73 3.11c3.71 3.23 5.75 7.29 4.43 12.26-1.43 5.4-5.12 8.66-10.66 9.62-4.54.79-9.55-1.92-12.17-6.26-4.09-6.75-.88-12.46 3.54-16a45.5 45.5 0 0 1 5.37-3.11c-4.94-1.65-7.86-5-10.26-9.61-2.41 4.49-5.49 7.44-10.08 8.82a57.348 57.348 0 0 1 5.42 4.23A12 12 0 0 1 261 564c-2.11 4.71-7.26 8.15-12 8s-9.7-4-11.43-8.79A12 12 0 0 1 241 550a49.2 49.2 0 0 1 5.39-3.62c-5.84-4-5.84-4-9.45-10.6a40.721 40.721 0 0 1-3.38 4.74c-3.43 3.61-7.65 5.1-12.51 3.46s-7.68-4.9-8.27-10A11.82 11.82 0 0 1 219 521.8c5.43-3 11.39-1.72 15.24 3.39A43.006 43.006 0 0 1 237 530l8-9.51a55.767 55.767 0 0 1-3.9-4.05 59.74 59.74 0 0 1-3.31-5c-3.9 6.11-9 9.27-16.07 7.1a11.69 11.69 0 0 1-8.57-10.65c-.62-6.3 2.89-10.46 8.71-13.43-3.61-3.34-7.52-6.25-8.4-11.85-1.41 2.19-2.18 3.69-3.22 5a11.75 11.75 0 0 1-13.78 3.37 11.9 11.9 0 0 1-6.75-11.83 11.68 11.68 0 0 1 10.63-10.27 11 11 0 0 1 10.09 4.6 43.291 43.291 0 0 1 2.94 5.39c1.92-4.55 4.74-8.09 9.22-10.19a62.141 62.141 0 0 1-5-4.46 47.683 47.683 0 0 1-3.44-4.94 48.54 48.54 0 0 1-4.28 4.65 12 12 0 1 1-13.6-19.71 11.42 11.42 0 0 1 14.51 2 43.718 43.718 0 0 1 3.42 4.56l8.44-8.38-7.47-8.08c-1.68.09-2 2.11-3 3.18a12.62 12.62 0 0 1-18.62-1.05c-4.36-5.71-3.12-13.49 3-17.82 1.3-.92 2.77-1.6 4.75-2.72-6.53-3.51-10.49-8.07-8.77-15.32a11.3 11.3 0 0 1 9.45-9c7-1.24 11.42 2.51 14.56 9.09a29.655 29.655 0 0 0 2.36-2.94c4.82-7.95 17.22-7.83 21.74.49.46.84 1 1.66 1.7 2.88a44.847 44.847 0 0 1 4.62-5.23c1.79-1.5 4-2.51 6.47-4-1.49-1-2.84-1.87-4.06-2.87a12 12 0 0 1-3.55-14.33 11.75 11.75 0 0 1 22.18 3.87 11 11 0 0 1-4.42 10.18 40.075 40.075 0 0 1-4.84 2.88c0 2.17 2.05 1.74 3 2.64 1.21 1.17 2.6 2.16 3.73 3.39a30.887 30.887 0 0 1 2.42 3.46l9.43-8.31c-6.94-6.6-8.69-10.44-6.83-15.77 1.76-5 5.45-8.12 10.73-8.46 6.64-.43 10.67 3.53 13.29 10.11 1.16-1.72 1.81-2.87 2.65-3.87a23.06 23.06 0 0 1 3.54-3.58 10.14 10.14 0 0 1 3.89-1.82 15.731 15.731 0 0 1 5-.2 10.63 10.63 0 0 1 4.08 1.31 17.71 17.71 0 0 1 3.9 3.17 33.7 33.7 0 0 1 2.85 4.12Zm-25.64 6.46c-2.59 2.63-4.73 4.84-6.92 7-.75.75-1.62 1.37-2.26 1.9l8.66 7.95a48 48 0 0 1 3.67-3.8c1.39-1.18 3-2.12 4.66-3.3a44.515 44.515 0 0 1-4.37-4.2 56.263 56.263 0 0 1-3.44-5.55Zm-71 32.29c-1.94-2.26-3.87-4.37-5.63-6.6-.68-.87-.69-2.35-2.17-2.18-1.45 1.76-2.84 3.4-4.2 5.08s-4.16 1.28-5 3.72c1.36.88 2.63 1.57 3.75 2.44.94.74 1.66 1.75 2.57 2.53s.86 2.8 2.38 2.84Zm95.62-13.67 9.12-7.47-8.48-8.4-8.27 7.82a36.839 36.839 0 0 1 4 3.22 58.316 58.316 0 0 1 3.67 4.83Zm-37.65 119.39 4.37 4.23c1.41 1.38 1.62 3.74 3.44 5 1.11-1.6 1.74-3 2.78-3.93 1.89-1.72 4-3.17 5.88-4.6l-8.34-8.33Zm30.36-102.16q3.3 4 7 8.63a54.742 54.742 0 0 1 4-4.31 48.4 48.4 0 0 1 4.4-3.16l-8.2-8.39Zm-73.65 82.45 7-7c-2.42-2.61-4.78-5.18-7-7.62l-7.57 6.46ZM264 513.72c-1.19 1.38-2.22 2.74-3.41 3.92s-2.75 2.39-4 3.45l7 8.41 7.79-7.93Zm26.26-9.31 8.86-7.43c-.83-.61-2-1.39-3.07-2.27-.92-.76-1.71-1.67-2.61-2.46s-1.06-2.67-2.77-2.66c-2.61 2.47-5.14 4.84-7.46 7 2.53 2.88 4.92 5.51 7.01 7.82Zm-48.63-79.81c1.18-1.26 2.26-2.54 3.47-3.68s2.8-2.42 3.93-3.39l-6.84-8.42-7.83 8Zm29.53 70.46-5.41-5.59-7.52 6.6 5.68 6.37Zm3-76.77-6.45-7.82a43.285 43.285 0 0 1-3.17 3.79c-1.17 1.17-2.71 2.35-4.08 3.52l1.86-1.26 4.34 7.42Zm17.56 45.85-6.38 5.93 6.26 7.85 7.56-6.64Zm-58.31-21.31 6.2 6.35 6.6-5.19-5.42-7.73Zm-1.33 25.92 7.3 7.53 6.56-6.6-6.62-7Zm53.92-24.3 6.1 6.74 7.32-6-6.72-6.6Zm8.31-31.1-7.15 6.38 5.23 5.29 7.29-5.61Zm-21 30.63-6.46-6.66c-1.25 1.32-2.19 2.39-3.21 3.37s-2.32 2-2.72 2.37l5.82 6.93Zm-1.07 25.68-5.31-5.29-7.4 5.67 5.63 6.18ZM260.46 585.53A12.07 12.07 0 1 1 249 572.875a12.07 12.07 0 0 1 11.46 12.655ZM372.81 333.12a11.94 11.94 0 1 1-5.421-10.851 11.94 11.94 0 0 1 5.421 10.851ZM360.67 346.16a11.64 11.64 0 0 1 11 12.65 11.83 11.83 0 0 1-12.19 10.84 12.15 12.15 0 0 1-11.54-12.41c.14-6.39 6.18-11.46 12.73-11.08ZM274.72 574.21a11.65 11.65 0 0 1 11.07 11.91 11.49 11.49 0 0 1-12.2 11.42 11.83 11.83 0 0 1-11.25-11.83c.07-6.35 5.93-11.79 12.38-11.5ZM362.19 295.19a11.3 11.3 0 0 1 11.18 11.65 11.49 11.49 0 0 1-12.17 11.44 11.86 11.86 0 0 1-11-12.08 11.63 11.63 0 0 1 11.99-11.01Z"/><path class="a" d="M235.38 558.83c-.53 5.18-4.79 11.17-12.15 10.81a11.34 11.34 0 0 1-11-12.45 11.69 11.69 0 0 1 12.31-10.62c6.03.49 11.18 6.3 10.84 12.26ZM301.36 549.57A11.91 11.91 0 0 1 312.12 562a11.59 11.59 0 0 1-23.12-1.67 11.8 11.8 0 0 1 12.36-10.76ZM231 367.26a11.51 11.51 0 0 1 11.16 11.83 11.72 11.72 0 0 1-12 11.09 11.53 11.53 0 0 1-11.07-11.93A11.32 11.32 0 0 1 231 367.26ZM320.25 356.55A11.75 11.75 0 0 1 308 367.41c-5.83-.22-10.79-6-10.65-11.82a11.49 11.49 0 1 1 22.95 1ZM370.32 383.69a11.18 11.18 0 0 1-11.5 11.31c-6.32-.19-11.32-4.33-11.37-11.52a11.44 11.44 0 0 1 22.87.21ZM335.82 320.09a11.33 11.33 0 0 1 10.61 12.21 11.19 11.19 0 0 1-12.32 10.4 11.06 11.06 0 0 1-10.22-11.7 11.24 11.24 0 0 1 11.93-10.91ZM328.5 499.55a11.43 11.43 0 0 1-.13 22.84A11.31 11.31 0 0 1 317 510.93a11.43 11.43 0 0 1 11.5-11.38ZM258.83 610.76a11.32 11.32 0 1 1-10.811-11.718 11.27 11.27 0 0 1 10.811 11.718ZM216.28 377.93a10.92 10.92 0 0 1-11.19 10.82 10.81 10.81 0 0 1-11-11 11.1 11.1 0 1 1 22.2.14ZM222.8 572.81a11.16 11.16 0 1 1-9.985 5.364 11.16 11.16 0 0 1 9.985-5.364ZM178.32 413.63a11.139 11.139 0 1 1 .52-22.272 10.87 10.87 0 0 1 10.65 11.372 11 11 0 0 1-11.17 10.9ZM358.34 398.41A10.91 10.91 0 0 1 369 409.74a11.15 11.15 0 0 1-11.4 10.68A11 11 0 0 1 347 409a10.72 10.72 0 0 1 11.34-10.59ZM386.92 318.57a10.78 10.78 0 0 1-10.19-11.64 10.94 10.94 0 0 1 11.68-10.22 11.19 11.19 0 0 1 10.29 11.71 11 11 0 0 1-11.78 10.15ZM211.24 506.47a10.93 10.93 0 0 1-11.93 10.06 10.62 10.62 0 0 1-9.94-11.23 11.05 11.05 0 0 1 11.48-10.64 11.31 11.31 0 0 1 10.39 11.81ZM188.26 428.06A10.62 10.62 0 0 1 177 438.62a10.88 10.88 0 0 1-10.52-10.68 11.24 11.24 0 0 1 11-11.1 11 11 0 0 1 10.78 11.22ZM363.37 270a11.23 11.23 0 0 1 10.42 11.63 10.82 10.82 0 0 1-11.74 10.09 10.57 10.57 0 0 1-10-11.05A11 11 0 0 1 363.37 270ZM399.66 282.14a11 11 0 0 1-11.41 10.6A10.57 10.57 0 0 1 377.78 282a11.06 11.06 0 0 1 10.92-11.16 11.37 11.37 0 0 1 10.96 11.3ZM284.11 611.88a10.981 10.981 0 1 1-10.51-11.46 11.06 11.06 0 0 1 10.51 11.46ZM190 378.16a10.76 10.76 0 0 1-21.36-2.57c.68-5.72 6.07-10.19 11.65-9.65a10.92 10.92 0 0 1 9.71 12.22ZM367.82 435.21a10.78 10.78 0 0 1-11 10.18 10.58 10.58 0 0 1-10.61-11.17 10.85 10.85 0 0 1 10.88-10.34 11.1 11.1 0 0 1 10.73 11.33ZM337.93 536.63a10.77 10.77 0 0 1-10.71 10.43 10.94 10.94 0 0 1-10.63-11.28 11.09 11.09 0 0 1 11.13-10.12 10.9 10.9 0 0 1 10.21 10.97ZM257.09 636.58a10.86 10.86 0 0 1-10.95 10.2 11 11 0 0 1-10.39-10.85 10.8 10.8 0 0 1 11.39-10.44 10.69 10.69 0 0 1 9.95 11.09ZM366.64 460.58a10.92 10.92 0 0 1-10.74 10.54 10.65 10.65 0 1 1 .19-21.3 11 11 0 0 1 10.55 10.76ZM397.27 333.7a10.59 10.59 0 1 1-10.5-10.68 10.59 10.59 0 0 1 10.5 10.68ZM232.24 609.68a10.56 10.56 0 1 1-5.052-9.458 10.56 10.56 0 0 1 5.052 9.458ZM390 245.67a10.51 10.51 0 1 1-10.87 10.15A10.29 10.29 0 0 1 390 245.67ZM300.18 576.46a10.45 10.45 0 1 1-11.06 9.83 10.28 10.28 0 0 1 11.06-9.83ZM188.8 531.17a10.43 10.43 0 1 1 10.49 10.77 10.72 10.72 0 0 1-10.49-10.77ZM176.69 443.25a10.37 10.37 0 1 1-10.352 10.15 10.37 10.37 0 0 1 10.352-10.15ZM413.83 293.14a10.17 10.17 0 0 1-9.83-10.43 9.85 9.85 0 0 1 10.28-9.89 10.24 10.24 0 0 1 10 10.31 10.49 10.49 0 0 1-10.45 10.01ZM230.88 635.38a10.06 10.06 0 0 1-10.45 9.7 9.83 9.83 0 0 1-9.78-10.3A10.21 10.21 0 0 1 221 624.9a10.45 10.45 0 0 1 9.88 10.48ZM283.57 344.83a9.82 9.82 0 0 1 9.48 10.61 10.12 10.12 0 0 1-10.59 9.65 10.48 10.48 0 0 1-9.63-10.74 10.22 10.22 0 0 1 10.74-9.52ZM373.88 255.8a9.9 9.9 0 0 1-10.66 9.48 10.27 10.27 0 0 1-9.56-10.73 10.4 10.4 0 0 1 10.81-9.55 10 10 0 0 1 9.41 10.8ZM414.46 267.59a9.9 9.9 0 0 1-9.56-10.47 10.36 10.36 0 0 1 10.32-9.92 10.68 10.68 0 0 1 10 11 10.31 10.31 0 0 1-10.76 9.39ZM354.94 496.27a10.21 10.21 0 0 1-10.17-10.11A10.54 10.54 0 0 1 355 476a10.21 10.21 0 0 1 10 10.27 9.8 9.8 0 0 1-10.06 10ZM391.28 220.82a9.87 9.87 0 0 1 9.33 10.67 10 10 0 0 1-10.72 9.35 10.24 10.24 0 0 1-9.43-10.74 10.08 10.08 0 0 1 10.82-9.28ZM384.58 369a10.45 10.45 0 0 1-9-11.26 10.15 10.15 0 0 1 11.21-8.94 10 10 0 0 1 9 11.11 10.31 10.31 0 0 1-11.21 9.09ZM384.84 374.79a9.79 9.79 0 1 1-8.78 4.682 9.79 9.79 0 0 1 8.78-4.682ZM416.35 221.92a9.852 9.852 0 1 1-10.21 9.48 9.852 9.852 0 0 1 10.21-9.48ZM267 354.32a9.68 9.68 0 1 1-2.42-7.01 9.74 9.74 0 0 1 2.42 7.01ZM384.08 400.62a9.731 9.731 0 1 1-10.265 9.165 9.731 9.731 0 0 1 10.265-9.165ZM153.47 385.42a9.71 9.71 0 0 1-9.69-10.26 9.89 9.89 0 1 1 19.75 1.09 9.74 9.74 0 0 1-10.06 9.17ZM198.16 567a9.82 9.82 0 1 1 9.9-10 9.64 9.64 0 0 1-9.9 10ZM232.25 343.16a10 10 0 0 1 9 10.28A9.76 9.76 0 1 1 221.8 352a10 10 0 0 1 10.45-8.84ZM412.42 318.23a9.62 9.62 0 1 1 10.2-9 9.37 9.37 0 0 1-10.2 9ZM382.44 445.33a9.67 9.67 0 0 1-9.4-9.94A9.89 9.89 0 0 1 383 426a10 10 0 0 1 9.43 10 9.75 9.75 0 0 1-9.99 9.33ZM281.91 637.37a9.7 9.7 0 1 1-5.777-9.142 9.63 9.63 0 0 1 5.777 9.142ZM185 479.66a9.51 9.51 0 0 1-9.87 9.36 9.69 9.69 0 0 1-9.33-10 9.5 9.5 0 0 1 9.93-9.28 9.37 9.37 0 0 1 9.27 9.92ZM364.88 220.25a9.58 9.58 0 0 1 9.54 9.75 9.45 9.45 0 0 1-9.23 9.27 9.514 9.514 0 1 1-.31-19.02ZM162.3 401.55a9.73 9.73 0 0 1-9.72 9.57 9.92 9.92 0 0 1-9.64-9.71 9.66 9.66 0 0 1 9.77-9.47 9.51 9.51 0 0 1 9.59 9.61ZM215.69 352.36a9.41 9.41 0 0 1-10.16 9 9.22 9.22 0 0 1-8.84-9.52 9.62 9.62 0 0 1 9.73-9.54 9.82 9.82 0 0 1 9.27 10.06ZM316.83 561.67a9.36 9.36 0 0 1 10.3-8.84 9.18 9.18 0 0 1 8.54 9.8 9.51 9.51 0 0 1-9.49 9 9.71 9.71 0 0 1-9.35-9.96ZM255 661.87a9.6 9.6 0 0 1-9.7 9.61 9.76 9.76 0 0 1-9.34-10 9.63 9.63 0 0 1 9.4-9.19 9.46 9.46 0 0 1 9.64 9.58ZM416.51 215.34a9.35 9.35 0 0 1-9-9.44 9.76 9.76 0 0 1 9.93-9.44 9.58 9.58 0 0 1 8.91 10.33 9.18 9.18 0 0 1-9.84 8.55ZM441.55 242.12a9.28 9.28 0 0 1-9.16-9.22 9.4 9.4 0 0 1 9.55-9.59 9.63 9.63 0 0 1 9.24 10 9.51 9.51 0 0 1-9.63 8.81ZM391.39 214.3a9 9 0 0 1-9.09-9.14 9.34 9.34 0 0 1 9.51-9.61 9.69 9.69 0 0 1 9.22 10 9.35 9.35 0 0 1-9.64 8.75ZM381.92 452a9.4 9.4 0 0 1-.31 18.8 9.18 9.18 0 0 1-9.14-9.17 9.28 9.28 0 0 1 9.45-9.63ZM189.69 351.51a9.1 9.1 0 0 1-9.53 8.68 9.33 9.33 0 0 1-9.19-9.84 9.76 9.76 0 0 1 9.63-8.87 9.56 9.56 0 0 1 9.09 10.03ZM206.73 583.44a9.54 9.54 0 0 1-10.24 8.91 9.35 9.35 0 0 1-8.54-9.8 9.21 9.21 0 0 1 10.15-8.84 9.38 9.38 0 0 1 8.63 9.73ZM307.8 612.32a9.18 9.18 0 0 1-9.08 9.29 9.49 9.49 0 0 1-9.49-9.73 9.62 9.62 0 0 1 9.57-9 9.28 9.28 0 0 1 9 9.44ZM353.73 521.44a9.48 9.48 0 0 1-9.07-9.39 9.25 9.25 0 0 1 9.68-9.39 9.46 9.46 0 0 1 9.15 9.28 9.64 9.64 0 0 1-9.76 9.5ZM220.2 651.59a9.06 9.06 0 0 1 8.77 9.59 9.2 9.2 0 0 1-9.41 9 9.52 9.52 0 0 1-9.25-10.05 9.35 9.35 0 0 1 9.89-8.54ZM441.35 249.28a9.41 9.41 0 0 1 8.75 9.65 9.76 9.76 0 0 1-9.59 8.95 9.5 9.5 0 0 1-9-10.16 9.2 9.2 0 0 1 9.84-8.44ZM443.35 197.82a9.41 9.41 0 0 1 8.61 9.8 9.22 9.22 0 0 1-9.85 8.45 9.08 9.08 0 0 1-8.56-9.7 9.29 9.29 0 0 1 9.8-8.55ZM412.76 325.29a9.2 9.2 0 1 1-8.944 4.992 9.22 9.22 0 0 1 8.944-4.992ZM174.83 495.7a9 9 0 1 1-9.51 8.88 9.15 9.15 0 0 1 9.51-8.88ZM163.69 350a8.92 8.92 0 1 1-2.648-6.54 9 9 0 0 1 2.648 6.54ZM205.37 609a9.08 9.08 0 1 1-8.311-9.55 9.08 9.08 0 0 1 8.311 9.55ZM151.92 418a8.95 8.95 0 1 1-9.12 8.34 8.67 8.67 0 0 1 9.12-8.34ZM439.81 275.18a8.59 8.59 0 0 1 8.74 8.61 8.92 8.92 0 0 1-9.23 9 9.11 9.11 0 0 1-8.44-9.09 8.8 8.8 0 0 1 8.93-8.52ZM402.33 359.13a8.58 8.58 0 0 1 9.26-8 8.82 8.82 0 0 1 8.38 9 9.1 9.1 0 0 1-9.73 8.49 8.92 8.92 0 0 1-7.91-9.49ZM389.42 487.5a8.44 8.44 0 0 1-9 8.32 8.65 8.65 0 0 1-8.44-8.94 9 9 0 0 1 9.07-8.49 8.82 8.82 0 0 1 8.37 9.11ZM418.37 171.48a9 9 0 0 1 8.45 9 8.84 8.84 0 0 1-9.58 8.48 8.58 8.58 0 0 1-8-9.26 8.7 8.7 0 0 1 9.13-8.22ZM401.39 385.43a8.7 8.7 0 0 1 8.84-8.67 9 9 0 0 1 8.72 8.93 9.18 9.18 0 0 1-9 8.7 8.81 8.81 0 0 1-8.56-8.96ZM374.5 204.47a8.81 8.81 0 0 1-9.11 8.4 9.1 9.1 0 0 1-8.41-9.22 8.78 8.78 0 0 1 9.23-8.27 8.49 8.49 0 0 1 8.29 9.09ZM399.44 436.23a8.5 8.5 0 0 1 9.19-8.2 8.77 8.77 0 0 1 8.33 9.16 9.16 9.16 0 0 1-9.3 8.33 8.83 8.83 0 0 1-8.22-9.29ZM408.81 420a8.59 8.59 0 0 1-8.47-8.87 9 9 0 0 1 8.75-8.74c4.76-.06 9.17 4.6 8.89 9.39a8.86 8.86 0 0 1-9.17 8.22ZM401.12 179.65a8.54 8.54 0 0 1-9.12 8.2 8.77 8.77 0 0 1-8.1-8.6 8.88 8.88 0 0 1 8.86-8.63 8.66 8.66 0 0 1 8.36 9.03ZM477 208.45a8.7 8.7 0 0 1-8.61 8.14 9 9 0 0 1-8.48-9.07 8.62 8.62 0 0 1 9.41-8 8.46 8.46 0 0 1 7.68 8.93ZM444.24 172.52a8.64 8.64 0 0 1 8 9.26 8.5 8.5 0 0 1-9.13 8.1 8.8 8.8 0 0 1-8.18-9.2 9 9 0 0 1 9.31-8.16ZM173 539.05a8.4 8.4 0 0 1-7.93-9.28 8.26 8.26 0 0 1 9.38-7.71 8.56 8.56 0 0 1 7.73 8.81 8.73 8.73 0 0 1-9.18 8.18ZM203.47 634.56a8.42 8.42 0 0 1-9.34 7.94 8.55 8.55 0 0 1-7.77-8.86 8.81 8.81 0 0 1 8.69-8.09 8.63 8.63 0 0 1 8.42 9.01ZM137.61 349.31a8.47 8.47 0 0 1-8.34 8.2 8.56 8.56 0 0 1-8.43-8.86 8.391 8.391 0 1 1 16.77.66ZM415.51 463.08a8.38 8.38 0 1 1-7.55-8.94 8.23 8.23 0 0 1 7.55 8.94ZM469.74 173.85a8.38 8.38 0 1 1-8.63 8.11 8.63 8.63 0 0 1 8.63-8.11ZM467.21 242a8.27 8.27 0 1 1 8.68-7.8 8.27 8.27 0 0 1-8.68 7.8ZM151 444.34a8.27 8.27 0 1 1-8.72 7.77 8.39 8.39 0 0 1 8.72-7.77ZM128.88 366.44a8.32 8.32 0 1 1-8.93 7.49 8.13 8.13 0 0 1 8.93-7.49ZM218.66 694.5a8.006 8.006 0 1 1 0 .031ZM279.42 663.48a8.274 8.274 0 1 1-7.53-8.97 8.37 8.37 0 0 1 7.53 8.97ZM310.3 322.35a8.154 8.154 0 1 1-8.83 7.61 8.28 8.28 0 0 1 8.83-7.61ZM361.25 537.68a8.07 8.07 0 0 1-8.51 7.81 7.9 7.9 0 0 1-7.82-8.44 8 8 0 0 1 8.46-7.84 8.15 8.15 0 0 1 7.87 8.47ZM244.61 679.07a8 8 0 0 1 8 8.45 7.88 7.88 0 0 1-7.89 7.8 8 8 0 0 1-8.4-8.05 8.13 8.13 0 0 1 8.29-8.2ZM172.73 548.14a7.91 7.91 0 0 1 7.88 8.53 8.12 8.12 0 0 1-8.71 7.76 8.25 8.25 0 0 1-7.57-8.22 8.06 8.06 0 0 1 8.4-8.07ZM444.69 163.84a7.82 7.82 0 0 1-8-7.64 8 8 0 0 1 8-8.4 8.16 8.16 0 0 1 8.05 8.41 8.06 8.06 0 0 1-8.05 7.63ZM438.82 317.59a7.84 7.84 0 0 1-7.95-7.57 8 8 0 0 1 7.91-8.39 8.16 8.16 0 0 1 8 8.34 8.07 8.07 0 0 1-7.96 7.62ZM358.94 177.9a7.72 7.72 0 0 1 8.11-7.47 8 8 0 0 1 7.77 7.93 8.09 8.09 0 0 1-8.59 7.88 7.88 7.88 0 0 1-7.29-8.34ZM426.91 155a7.84 7.84 0 0 1-7.77 7.85 8.06 8.06 0 0 1-8.29-8.14 8.16 8.16 0 0 1 8.57-7.89 8 8 0 0 1 7.49 8.18ZM458.71 259.29a7.62 7.62 0 0 1 7.83-7.63 7.94 7.94 0 0 1 7.9 8.4 8.31 8.31 0 0 1-8.31 7.4 8 8 0 0 1-7.42-8.17ZM171.9 574.21a7.68 7.68 0 0 1 7.48 8 7.86 7.86 0 1 1-7.48-7.99ZM157.45 478.62a7.89 7.89 0 0 1-8 7.65 8.17 8.17 0 0 1-7.6-8.18 7.83 7.83 0 0 1 8.13-7.51 7.58 7.58 0 0 1 7.47 8.04ZM433.62 445.37a7.65 7.65 0 0 1-7.52-8 7.91 7.91 0 0 1 8-7.57 8.16 8.16 0 0 1 7.6 8.11 7.87 7.87 0 0 1-8.08 7.46ZM338.63 297.29c5.34 3.44 7 6.42 6.14 10.17a9 9 0 0 1-7.5 6.93c-3.88.61-6.63-1.2-9.56-6.55ZM413.86 488.2A7.88 7.88 0 0 1 406 496a8.1 8.1 0 0 1-7.56-8.13 7.9 7.9 0 0 1 7.56-7.37 7.81 7.81 0 0 1 7.86 7.7ZM135.15 400.55a8.22 8.22 0 0 1-7.92 7.82 8 8 0 0 1-7.76-7.92 7.79 7.79 0 0 1 7.85-7.72 7.93 7.93 0 0 1 7.83 7.82ZM462.73 156.29A7.87 7.87 0 0 1 471 149a8.08 8.08 0 0 1 7.25 8.43 7.89 7.89 0 0 1-8.35 7.28 7.73 7.73 0 0 1-7.17-8.42ZM432.76 471.14a7.731 7.731 0 0 1 .61-15.45 8.14 8.14 0 0 1 7.23 7.69 8 8 0 0 1-7.84 7.76ZM186.21 659.22a7.54 7.54 0 0 1 8.25-7.13 7.9 7.9 0 0 1 7.45 8.08 8 8 0 0 1-8.76 7.52 7.72 7.72 0 0 1-6.94-8.47ZM385.85 153.71a7.86 7.86 0 0 1 7.88-7.69 8 8 0 0 1 7.6 8 7.88 7.88 0 0 1-8 7.64 7.72 7.72 0 0 1-7.48-7.95ZM170.58 615a7.63 7.63 0 1 1 7.59-7.98 7.83 7.83 0 0 1-7.59 7.98ZM502.77 183.37a7.33 7.33 0 0 1-8.07 7.34 7.519 7.519 0 1 1 1.05-15 7.33 7.33 0 0 1 7.02 7.662ZM380.16 505.39a7.6 7.6 0 1 1-8 7.35 7.43 7.43 0 0 1 8-7.35ZM163.24 324.35a7.62 7.62 0 1 1-7.64-7.75 7.36 7.36 0 0 1 7.64 7.75ZM181.12 332.7a7.52 7.52 0 1 1 7.9-6.89 7.52 7.52 0 0 1-7.9 6.89ZM486.77 208.8a7.3 7.3 0 0 1 7.3-7.33 7.53 7.53 0 1 1-7.3 7.33ZM141.38 503.73a7.11 7.11 0 0 1 7.23-7.34 7.29 7.29 0 0 1 7.56 7.77 7.5 7.5 0 0 1-7.63 7.06 7.32 7.32 0 0 1-7.16-7.49ZM129.78 330.54a7.47 7.47 0 0 1-7-7.6 7.55 7.55 0 0 1 8.28-7.05 7.39 7.39 0 0 1 6.58 8 7.3 7.3 0 0 1-7.86 6.65ZM206.31 333.81a7.39 7.39 0 0 1-6.66-7.91 7.87 7.87 0 0 1 7.89-6.87 7.62 7.62 0 0 1 6.92 8.44 7.3 7.3 0 0 1-8.15 6.34ZM324.92 595.16a7.15 7.15 0 0 1-6.87-7.7 7.23 7.23 0 0 1 7.71-6.9 7.54 7.54 0 0 1 7 7.74 7.45 7.45 0 0 1-7.84 6.86ZM489 157.25a7.23 7.23 0 0 1 7.84-6.73 7.38 7.38 0 0 1 6.74 7.9 7.55 7.55 0 0 1-7.91 6.8 7.43 7.43 0 0 1-6.67-7.97ZM420.74 122a7.2 7.2 0 0 1 6.79 7.77 7.57 7.57 0 0 1-7.33 6.65 7.29 7.29 0 0 1-7.08-7.56 7 7 0 0 1 7.62-6.86ZM471.78 124a7 7 0 0 1 6.75 7.65 7.33 7.33 0 0 1-7.14 6.69 7.53 7.53 0 0 1-7.2-7.44 7.19 7.19 0 0 1 7.59-6.9ZM445.71 122.91a7 7 0 0 1 7.17 7.28 7.35 7.35 0 0 1-7.3 7.29 7.69 7.69 0 0 1-7.29-7.43 7.3 7.3 0 0 1 7.42-7.14ZM444.93 335.33a6.93 6.93 0 0 1-7.3 7.19 7.24 7.24 0 0 1-7.14-7.49 7.65 7.65 0 0 1 7.08-7 7.23 7.23 0 0 1 7.36 7.3ZM232.28 334.52a6.94 6.94 0 0 1-6.89-6.89 7.3 7.3 0 0 1 7.37-7.3 7.47 7.47 0 0 1 6.93 7.77 7.12 7.12 0 0 1-7.41 6.42ZM148.61 522.43a7.21 7.21 0 0 1 6.34 8.11 7.42 7.42 0 0 1-7.67 6.17 7.21 7.21 0 0 1-6.67-7.86 7.06 7.06 0 0 1 8-6.42ZM200.1 685.49a7.08 7.08 0 0 1-7 6.86 7.28 7.28 0 0 1-7.3-7.35 7.08 7.08 0 0 1 7-6.79 7 7 0 0 1 7.3 7.28ZM96.54 347.33a6.86 6.86 0 0 1 7.28-6.35 7 7 0 0 1 6.71 7.69 7.3 7.3 0 0 1-7.34 6.47 7.13 7.13 0 0 1-6.65-7.81ZM133.27 426.21a7.11 7.11 0 0 1-7 6.84 7.34 7.34 0 0 1-7.1-7.5 7.11 7.11 0 0 1 7.77-6.68 6.85 6.85 0 0 1 6.33 7.34ZM169.19 640.14a6.82 6.82 0 0 1-6.65-7A7.12 7.12 0 0 1 170 626a7.36 7.36 0 0 1 6.74 7.18 7.06 7.06 0 0 1-7.55 6.96ZM434.3 419.27a7.09 7.09 0 0 1-6.61-7.19 7.47 7.47 0 0 1 7.69-7 7.17 7.17 0 0 1 6.43 8.07 6.75 6.75 0 0 1-7.51 6.12ZM224.85 712.05a7 7 0 0 1-7 6.87 6.92 6.92 0 0 1-7.16-6.63A7.11 7.11 0 0 1 218 705a7.28 7.28 0 0 1 6.85 7.05ZM146.59 562.22a6.94 6.94 0 0 1-6.9-6.81 7.19 7.19 0 0 1 7.27-7.26 7.38 7.38 0 0 1 6.95 7.64 7.14 7.14 0 0 1-7.32 6.43ZM152.81 581.19a7.34 7.34 0 0 1-7 6.82 7 7 0 0 1 .38-14 7.45 7.45 0 0 1 6.62 7.18ZM493.74 227.79a7.07 7.07 0 0 1 6.66 7.07 7.15 7.15 0 0 1-7.64 6.83 7 7 0 0 1-6.59-7.11 6.9 6.9 0 0 1 7.57-6.79ZM465 291.92a7.41 7.41 0 0 1-6.57-7.36 7.2 7.2 0 0 1 7.93-6.62 7.06 7.06 0 0 1 6.13 7.62 7.23 7.23 0 0 1-7.49 6.36ZM401.46 128.44a7.06 7.06 0 0 1-7.24 6.62 6.93 6.93 0 1 1 .62-13.84 7.07 7.07 0 0 1 6.62 7.22ZM368.31 145.94a6.78 6.78 0 0 1 6.44 7.31 6.87 6.87 0 0 1-7.14 6.68 7.009 7.009 0 1 1 .7-14ZM504.05 132.35a6.881 6.881 0 1 1-6.585-7.165 6.881 6.881 0 0 1 6.585 7.165ZM520.67 191a6.72 6.72 0 0 1-6.67-6.91 6.61 6.61 0 0 1 6.21-6.63 6.84 6.84 0 0 1 7.11 6.51 6.92 6.92 0 0 1-6.65 7.03ZM521.48 152.17a6.68 6.68 0 0 1 6.77 6.87 6.58 6.58 0 0 1-6.54 6.33 6.36 6.36 0 0 1-6.68-6.1 6.49 6.49 0 0 1 6.45-7.1ZM264.9 328.44a6.61 6.61 0 0 1-6.75 6.83 6.77 6.77 0 0 1-6.63-7 6.57 6.57 0 0 1 6.44-6.4 6.44 6.44 0 0 1 6.94 6.57ZM431.47 496a6.65 6.65 0 0 1-6.26-7.39 6.51 6.51 0 0 1 6.79-6.15 6.67 6.67 0 0 1 6.69 7 6.75 6.75 0 0 1-7.22 6.54ZM102.62 367a6.59 6.59 0 0 1 6.57 7 6.46 6.46 0 0 1-6.48 6.36 6.56 6.56 0 0 1-7-6.63 6.66 6.66 0 0 1 6.91-6.73ZM151.53 607a6.67 6.67 0 1 1-5.948-7.25 6.7 6.7 0 0 1 5.948 7.25ZM442.39 387a6.59 6.59 0 0 1-6.85 6 6.37 6.37 0 0 1-6.11-7.35 6.46 6.46 0 0 1 7.1-5.65 6.71 6.71 0 0 1 5.86 7ZM290.62 329.58a6.79 6.79 0 0 1-7 6.55 6.59 6.59 0 0 1-6.11-6.67 6.3 6.3 0 0 1 6.24-6.44 6.47 6.47 0 0 1 6.87 6.56ZM405.06 520.6a6.91 6.91 0 0 1-6.53-6.37 6.69 6.69 0 0 1 6.69-6.87 6.52 6.52 0 0 1 6.46 6.32 6.63 6.63 0 0 1-6.62 6.92ZM175.07 658.91a6.54 6.54 0 0 1-6.34 6.58 6.76 6.76 0 0 1-6.74-7 6.64 6.64 0 0 1 6.76-6.18 6.47 6.47 0 0 1 6.32 6.6ZM443.45 361.4a6.57 6.57 0 0 1-7.62 5.85 6.37 6.37 0 0 1-5.53-7.16 6.74 6.74 0 0 1 6.84-6.07 6.91 6.91 0 0 1 6.31 7.38ZM478.84 105.72a6.46 6.46 0 0 1-6.79 6 6.15 6.15 0 0 1-5.92-6.71 6.08 6.08 0 0 1 6.68-5.93 6.32 6.32 0 0 1 6.03 6.64ZM526.1 209.91a6.4 6.4 0 0 1-6.44 6.33 6.19 6.19 0 0 1-6.41-6.29 6.51 6.51 0 0 1 6.36-6.48 6.81 6.81 0 0 1 6.49 6.44ZM249.78 713.57a6.45 6.45 0 0 1-7 5.7 6.73 6.73 0 0 1-5.6-6.53 6.45 6.45 0 0 1 6.78-6 6.29 6.29 0 0 1 5.82 6.83ZM104.4 315.82a6.37 6.37 0 0 1 6.54 6.2 6.53 6.53 0 0 1-6.76 6.78 6.79 6.79 0 0 1-6.26-6.65 6.54 6.54 0 0 1 6.48-6.33ZM446.62 98a6.48 6.48 0 0 1 6.56 6.34 6.63 6.63 0 0 1-6.46 6.49 6.43 6.43 0 0 1-6.49-6.4 6.27 6.27 0 0 1 6.39-6.43ZM358.36 563.37a6.64 6.64 0 0 1-6.19 6 6.41 6.41 0 0 1-6.36-6.52 6.32 6.32 0 0 1 6.13-6 6.43 6.43 0 0 1 6.42 6.52ZM150.1 632.65a6.44 6.44 0 0 1-6.79 6 6.77 6.77 0 0 1-5.9-6.93 6.37 6.37 0 0 1 6.87-5.83 6.22 6.22 0 0 1 5.82 6.76ZM427.49 103.68a6.1 6.1 0 0 1-6.73 5.93 6.27 6.27 0 0 1-5.83-6.19 6.17 6.17 0 0 1 6.44-6.27 6 6 0 0 1 6.12 6.53ZM131.26 452.18a6.46 6.46 0 0 1-7.06 5.76 6.3 6.3 0 0 1-5.42-7.26 6.4 6.4 0 0 1 6.57-5.48 6.66 6.66 0 0 1 5.91 6.98ZM465 464.87a6.45 6.45 0 0 1-7 5.88 6.28 6.28 0 0 1-5.54-7.17 6.39 6.39 0 0 1 6.48-5.59 6.67 6.67 0 0 1 6.06 6.88ZM528.89 133.58a6.33 6.33 0 0 1-7 5.62 6.16 6.16 0 0 1-5.52-7 6.43 6.43 0 0 1 6.57-5.42 6.58 6.58 0 0 1 5.95 6.8ZM385 538.93a6.35 6.35 0 0 1-7 5.71 6.28 6.28 0 0 1-5.36-7.21 6.35 6.35 0 0 1 6.51-5.43 6.46 6.46 0 0 1 5.85 6.93ZM102 393.36a6.14 6.14 0 1 1-6.55 5.7 6.14 6.14 0 0 1 6.55-5.7ZM276.45 688.52a6.66 6.66 0 0 1-6.15 5.9 6.21 6.21 0 1 1 .6-12.38 6.59 6.59 0 0 1 5.55 6.48ZM463.77 490.39a6.129 6.129 0 1 1-5.906-6.346 6.128 6.128 0 0 1 5.906 6.346ZM498.35 260.88a6.16 6.16 0 1 1-1.6-4.586 6.13 6.13 0 0 1 1.6 4.586ZM368.71 133.24a6.26 6.26 0 0 1-6.08-5.94 6.14 6.14 0 0 1 12.28.11 6.24 6.24 0 0 1-6.2 5.83ZM162.63 298.89a6.21 6.21 0 0 1-5.92 6.06 6.13 6.13 0 1 1 5.92-6.06ZM191.89 704.91a6 6 0 0 1 6 5.79 5.77 5.77 0 0 1-5.46 6.25 6 6 0 0 1-6.46-6 6.22 6.22 0 0 1 5.92-6.04ZM498.6 100.3a6.03 6.03 0 1 1-6.605 5.395 6.03 6.03 0 0 1 6.605-5.395ZM143.28 652a5.9 5.9 0 0 1 5.5 6.34 5.84 5.84 0 0 1-6.37 5.45 5.69 5.69 0 0 1-5.45-6.32 5.79 5.79 0 0 1 6.32-5.47ZM346.18 203.3a6.21 6.21 0 0 1-6.18 5.81c-3.15 0-5.63-3.12-5.62-7.11 0-2.79 2.81-5.05 6-4.87a6.05 6.05 0 0 1 5.8 6.17ZM131.56 291.89a6 6 0 0 1 5.55 6.32 6.17 6.17 0 0 1-6.29 5.61 6 6 0 1 1 .74-11.93ZM173.56 684.16a6.24 6.24 0 0 1-6 6.05 6 6 0 0 1-5.76-5.43 5.75 5.75 0 0 1 5.5-6.34 6.06 6.06 0 0 1 6.26 5.72ZM436.57 515.46a5.6 5.6 0 0 1-6.41 5.18 5.86 5.86 0 0 1-5.1-5.91 6 6 0 0 1 6.18-5.61 5.72 5.72 0 0 1 5.33 6.34ZM401.34 102.79a5.65 5.65 0 0 1-6.26 5.42 5.8 5.8 0 0 1-5.48-6.21 5.88 5.88 0 0 1 6.31-5.46 5.76 5.76 0 0 1 5.43 6.25ZM125.63 580.45a5.67 5.67 0 0 1-5.88 5.21 5.86 5.86 0 0 1-5.43-5.74 6 6 0 0 1 6.32-5.61 5.87 5.87 0 0 1 4.99 6.14ZM551.94 185.25a5.7 5.7 0 0 1-5.5 5.56 5.86 5.86 0 0 1-5.74-6.09 6 6 0 0 1 5.91-5.22 5.79 5.79 0 0 1 5.33 5.75ZM124.73 605.65a5.65 5.65 0 0 1-6.28 5.46 5.92 5.92 0 0 1-5.19-5.92 5.8 5.8 0 0 1 6.37-5.4 5.54 5.54 0 0 1 5.1 5.86ZM547.82 154.18A5.54 5.54 0 0 1 553 160a5.64 5.64 0 0 1-6.19 5.54 5.9 5.9 0 0 1-5.26-5.83 5.77 5.77 0 0 1 6.27-5.53ZM346.85 177.66a5.86 5.86 0 0 1-6.48 5.33 5.55 5.55 0 0 1-4.91-6.06 5.72 5.72 0 0 1 5.64-5.42 6 6 0 0 1 5.75 6.15ZM523.93 101.56a5.78 5.78 0 0 1 5.15 6.48 5.52 5.52 0 0 1-6 4.91 5.82 5.82 0 0 1-5.25-6.42 6.05 6.05 0 0 1 6.1-4.97ZM123.76 482.92a5.77 5.77 0 0 1-5.56-5.42 6 6 0 0 1 6-5.85 5.78 5.78 0 0 1 5.45 6.25 5.52 5.52 0 0 1-5.89 5.02ZM470.18 310.76a5.59 5.59 0 0 1-5.58 5.5 5.89 5.89 0 0 1-5.8-6.1 5.79 5.79 0 0 1 6-5.08 5.49 5.49 0 0 1 5.38 5.68ZM188.14 300a6 6 0 0 1-6.34 5.48 5.61 5.61 0 0 1-5.06-5.91 5.43 5.43 0 0 1 5.48-5.45 5.82 5.82 0 0 1 5.92 5.88ZM78.06 341.48a5.71 5.71 0 0 1 5.34 5.66 6 6 0 0 1-5.6 5.5 5.7 5.7 0 0 1-5.62-6.11 5.59 5.59 0 0 1 5.88-5.05ZM553.82 134.52a5.65 5.65 0 0 1-6 5 5.94 5.94 0 0 1-5.09-6 5.7 5.7 0 0 1 6-5 5.56 5.56 0 0 1 5.09 6ZM123.69 631.68a5.52 5.52 0 0 1-6 5 5.69 5.69 0 0 1-5.35-5.74 6 6 0 0 1 6.44-5.47 5.82 5.82 0 0 1 4.91 6.21ZM294.29 644.59c-3.15-.49-4.08-2.56-4.49-4.66a9.851 9.851 0 0 1 .4-4.87 8.53 8.53 0 0 1 2.55-3.38 6.35 6.35 0 0 1 3.21-1.44 24.186 24.186 0 0 1 4.78.45c-2.32 5.01-4.41 9.51-6.45 13.9ZM524.14 236.19a5.41 5.41 0 0 1-5.82 5.1 5.58 5.58 0 1 1 .95-11.11 5.33 5.33 0 0 1 4.87 6.01ZM117.52 651.48a5.45 5.45 0 1 1-1.23 10.83 5.87 5.87 0 0 1-4.63-5.65 5.77 5.77 0 0 1 5.86-5.18ZM78.65 315.91a5.35 5.35 0 1 1-5.27 5 5.66 5.66 0 0 1 5.27-5ZM473.81 74.55a5.45 5.45 0 0 1 5.09 5.82 5.447 5.447 0 1 1-5.05-5.82ZM453.11 78.92a5.31 5.31 0 0 1-5.44 5.52 5.49 5.49 0 0 1-5.59-5.44 5.38 5.38 0 0 1 5.5-5.47 5.25 5.25 0 0 1 5.53 5.39ZM105.23 302.1a5.15 5.15 0 0 1-5.08-5.64 5.371 5.371 0 1 1 5.08 5.641ZM427.69 78.09a5.42 5.42 0 1 1-1.626-3.852 5.43 5.43 0 0 1 1.626 3.852ZM147.31 683.8a5.54 5.54 0 0 1-6.16 4.77 5.33 5.33 0 1 1 6.16-4.77ZM456.81 510.68a5.27 5.27 0 1 1-.25 10.53 5.43 5.43 0 0 1-5.07-5.76 5.37 5.37 0 0 1 5.32-4.77ZM120.55 559.55a5.43 5.43 0 0 1-4.88-5.36 5.32 5.32 0 0 1 5.81-5.09 5.39 5.39 0 0 1 4.9 5.3 5.49 5.49 0 0 1-5.83 5.15ZM488.27 491a5.18 5.18 0 0 1-5.27 5.47 5.32 5.32 0 0 1-5.27-5.52 5.13 5.13 0 0 1 5-5 5 5 0 0 1 5.54 5.05ZM105.71 425.13a5 5 0 0 1-5.1 5 5.15 5.15 0 0 1-5.31-5.49 5.51 5.51 0 0 1 5.14-5.06 5.33 5.33 0 0 1 5.27 5.55ZM504.5 81a5.37 5.37 0 0 1-10.73-.25 5.48 5.48 0 0 1 5.12-5.11A5.41 5.41 0 0 1 504.5 81ZM76.92 378a5.41 5.41 0 0 1-5.55-5.4 5.52 5.52 0 0 1 5.21-5 5.22 5.22 0 1 1 .34 10.4ZM128.27 503.07a5.32 5.32 0 0 1-5.25 4.81 5.21 5.21 0 0 1-5.24-5.52 5.5 5.5 0 0 1 5.22-4.91 5.59 5.59 0 0 1 5.27 5.62ZM127.15 528.6a5.31 5.31 0 0 1-5.22 4.94 4.92 4.92 0 0 1-4.9-5.14 5 5 0 0 1 5.09-5 5.34 5.34 0 0 1 5.03 5.2ZM409.24 539.61a5 5 0 0 1-5.18 4.79 5.12 5.12 0 0 1-5-5 5.22 5.22 0 0 1 5.61-5.15 5 5 0 0 1 4.57 5.36ZM342.49 146.81a5.092 5.092 0 0 1-.58 10.16 5.1 5.1 0 0 1-5-5.71 5.24 5.24 0 0 1 5.58-4.45ZM374.84 101.74a5.25 5.25 0 0 1-5.38 4.71 5.08 5.08 0 0 1-4.66-5.36 4.91 4.91 0 0 1 5.31-4.65 5.11 5.11 0 0 1 4.73 5.3ZM167 705.11a4.8 4.8 0 0 1 4.53 5.37 5.15 5.15 0 0 1-5.41 4.63 5.32 5.32 0 0 1-4.6-5.5 5.07 5.07 0 0 1 5.48-4.5ZM550.53 211.36a5.14 5.14 0 0 1-5.41 4.55 4.82 4.82 0 0 1-4.77-5.13 5.19 5.19 0 0 1 5.69-5 5.53 5.53 0 0 1 4.49 5.58ZM213.14 300.82a5.2 5.2 0 0 1-5.06 4.94 5 5 0 0 1-4.91-5 5.07 5.07 0 0 1 5-5 5.3 5.3 0 0 1 4.97 5.06ZM549.27 113.24a4.9 4.9 0 0 1-4.81-5.2 4.65 4.65 0 0 1 4.58-4.61 5 5 0 0 1 5.29 4.76 5.16 5.16 0 0 1-5.06 5.05ZM221.7 738.11a5.11 5.11 0 0 1-5.32 4.71 5.38 5.38 0 0 1-4.71-5.42 5.13 5.13 0 0 1 5.42-4.6 4.83 4.83 0 0 1 4.61 5.31ZM397 72a5.14 5.14 0 0 1 4.38 5.57 5 5 0 0 1-5.64 4.24 4.84 4.84 0 0 1-4-5.13A5 5 0 0 1 397 72ZM121 682.48a5 5 0 0 1-5.27 4.71 4.8 4.8 0 0 1-4.43-4.73 4.94 4.94 0 0 1 4.81-5.12 5.17 5.17 0 0 1 4.89 5.14ZM524.56 86.82a5 5 0 0 1-4.92-5.08 5.17 5.17 0 0 1 5.24-4.81 5.36 5.36 0 0 1 4.6 4.77 5.11 5.11 0 0 1-4.92 5.12ZM491.28 290.57a4.67 4.67 0 0 1-4.74-5.07 4.84 4.84 0 0 1 4.74-4.43 4.78 4.78 0 0 1 4.68 5.16 4.46 4.46 0 0 1-4.68 4.34ZM486.87 517.26a4.78 4.78 0 1 1-4.1-5.03 4.62 4.62 0 0 1 4.1 5.03ZM145.4 709.56a4.591 4.591 0 1 1-3.97-5.18 4.64 4.64 0 0 1 3.97 5.18ZM80.31 398.94a4.57 4.57 0 0 1-5 4.1 4.44 4.44 0 0 1-4-5 4.54 4.54 0 0 1 4.93-4.13 4.68 4.68 0 0 1 4.07 5.03ZM97.36 630.18a4.67 4.67 0 0 1-9.33.32 4.85 4.85 0 0 1 4.84-5 5 5 0 0 1 4.49 4.68ZM572.94 156.12a4.82 4.82 0 0 1 4.69 4.51 4.526 4.526 0 1 1-4.69-4.51ZM92 651.46a4.68 4.68 0 0 1 4.24 4.8 4.61 4.61 0 0 1-4.89 4.11 4.48 4.48 0 0 1-4.21-4.78 4.56 4.56 0 0 1 4.86-4.13ZM448.9 48.76a4.54 4.54 0 0 1 4.26 4.77 4.66 4.66 0 0 1-4.86 4.22 4.77 4.77 0 0 1-4.3-4.83 4.55 4.55 0 0 1 4.9-4.16ZM434.34 540.78a4.6 4.6 0 0 1-5 4 5 5 0 0 1-3.9-4.54 4.84 4.84 0 0 1 4.8-4.41 4.6 4.6 0 0 1 4.1 4.95ZM195.5 736.78a4.3 4.3 0 0 1-4.54 4.45 4.5 4.5 0 1 1 .08-9 4.32 4.32 0 0 1 4.46 4.55ZM474.63 49.74a4.34 4.34 0 0 1 4.19 4.77 4.39 4.39 0 0 1-4.75 4.24 4.53 4.53 0 0 1-4.23-4.81 4.41 4.41 0 0 1 4.79-4.2ZM578.56 135a4.57 4.57 0 0 1-4.59 4.54 4.43 4.43 0 0 1-4.28-4.77 4.24 4.24 0 0 1 4.16-4.12 4.44 4.44 0 0 1 4.71 4.35ZM576.45 186.19a4.39 4.39 0 0 1-4.72 4.24 4.18 4.18 0 0 1-3.86-4.31 4.4 4.4 0 0 1 3.94-4.31 4.52 4.52 0 0 1 4.64 4.38ZM512.27 517.93a4.454 4.454 0 1 1-4.61-4.51 4.46 4.46 0 0 1 4.61 4.51ZM79.42 300.45a4.65 4.65 0 0 1-4.16-4.87 4.56 4.56 0 0 1 4.74-4.25 4.66 4.66 0 0 1 4.21 4.84 4.76 4.76 0 0 1-4.79 4.28ZM93.84 600.17a4.38 4.38 0 0 1 4.21 4.83 4.66 4.66 0 0 1-4.52 3.82 4.31 4.31 0 0 1-4.1-4.84 4.19 4.19 0 0 1 4.41-3.81ZM504.51 55.17a4.6 4.6 0 0 1-4.7 4.41 4.35 4.35 0 0 1-4-4.33 4.13 4.13 0 0 1 3.9-4.33 4.38 4.38 0 0 1 4.8 4.25ZM517.57 265.66a4.37 4.37 0 0 1-4.36-3.94 4.74 4.74 0 0 1 4.45-4.69 4.38 4.38 0 0 1 4.21 4.77 4.05 4.05 0 0 1-4.3 3.86ZM422.92 56.55a4.39 4.39 0 0 1-3.92-4.44 4.06 4.06 0 0 1 4.17-4.06 4.28 4.28 0 0 1 4.31 4.7 4.64 4.64 0 0 1-4.56 3.8ZM47.77 345.8a4.22 4.22 0 0 1 4.23-3.88 4.06 4.06 0 0 1 4.12 4 4.33 4.33 0 0 1-4.56 4.31 4.51 4.51 0 0 1-3.79-4.43ZM550.28 78.75a4.15 4.15 0 0 1 4.22 4 4.35 4.35 0 0 1-3.91 4.41A4.45 4.45 0 0 1 546 82.7a4.22 4.22 0 0 1 4.28-3.95ZM119.22 708a4 4 0 0 1-4 4.13 4.23 4.23 0 0 1-4.29-4 4.38 4.38 0 0 1 4.12-4.22 4.22 4.22 0 0 1 4.17 4.09ZM463.64 332.34a4.12 4.12 0 0 1 4 4.15 3.9 3.9 0 0 1-4.16 3.87 4.06 4.06 0 0 1-4-4.07 4.27 4.27 0 0 1 4.16-3.95ZM103.85 450.81a4.3 4.3 0 0 1-4.25 4 4.12 4.12 0 0 1-4.18-4.7 4 4 0 0 1 4.5-3.61 4.19 4.19 0 0 1 3.93 4.31ZM132.6 268a4 4 0 0 1 3.62 4.51 4.14 4.14 0 0 1-4.45 3.75 4.44 4.44 0 0 1-3.74-4.57 4.27 4.27 0 0 1 4.57-3.69ZM343.06 130.37a4.07 4.07 0 0 1-4.09-4.16 4 4 0 0 1 4-4.16 4.26 4.26 0 0 1 4.21 4.1 4.44 4.44 0 0 1-4.12 4.22ZM459.81 541.32a4.07 4.07 0 0 1-4.14 4.06 4.015 4.015 0 1 1 4.14-4.07ZM53.33 316.16a4.33 4.33 0 0 1 3.67 4.45 4.23 4.23 0 0 1-4.39 3.73 4.34 4.34 0 0 1-3.74-4.43 4.46 4.46 0 0 1 4.46-3.75ZM94.85 681.43a4 4 0 1 1-1.157-2.874 4 4 0 0 1 1.157 2.874ZM157.47 269.06a4.25 4.25 0 0 1 4.17 4.06 4.35 4.35 0 0 1-3.58 3.92 4.22 4.22 0 0 1-4.49-3.7 4.14 4.14 0 0 1 3.9-4.28ZM575.08 105.12a4.45 4.45 0 0 1 4.1 4.17 4.31 4.31 0 0 1-4.14 4.08 4.13 4.13 0 0 1 0-8.25ZM548.41 237.12a4 4 0 0 1-4.67 3.45 4.21 4.21 0 0 1-3.5-4 4.14 4.14 0 0 1 4.4-3.83 3.91 3.91 0 0 1 3.77 4.38ZM525.57 52.17a3.9 3.9 0 0 1 3.83 4.18 3.866 3.866 0 0 1-7.73-.07 3.9 3.9 0 0 1 3.9-4.11ZM377.85 560.32a3.84 3.84 0 0 1-.07 7.68 4 4 0 0 1-3.9-4.26 3.9 3.9 0 0 1 3.97-3.42ZM165.27 739.7a4.11 4.11 0 0 1-3.44-4.62 4.18 4.18 0 0 1 4.14-3.22 3.94 3.94 0 0 1-.7 7.84ZM50.71 375.41a3.71 3.71 0 0 1-3.47-3.78 3.81 3.81 0 0 1 3.76-3.56 3.75 3.75 0 0 1 3.79 4.19 3.68 3.68 0 0 1-4.08 3.15ZM237.19 302.23a3.64 3.64 0 0 1-4 3.19 3.9 3.9 0 0 1-3.53-3.79 4 4 0 0 1 4.48-3.55 3.81 3.81 0 0 1 3.05 4.15ZM106 275a3.93 3.93 0 1 1 4.31-3.51A3.93 3.93 0 0 1 106 275ZM484.93 542.44a3.72 3.72 0 0 1-3.67 3.63 3.8 3.8 0 1 1 3.67-3.63ZM95 575.5a3.51 3.51 0 0 1 3.19 3.93 3.67 3.67 0 0 1-3.93 3.23 3.8 3.8 0 0 1-3.26-4 3.7 3.7 0 0 1 4-3.16ZM374.55 76a3.67 3.67 0 0 1-3.6 3.74 3.57 3.57 0 0 1-3.95-3.37 3.72 3.72 0 0 1 3.9-4.15 3.77 3.77 0 0 1 3.65 3.78ZM507.09 539.56a3.78 3.78 0 0 1 3.49 3.75 3.68 3.68 0 0 1-4.29 3.56 3.5 3.5 0 0 1-3.07-4 3.61 3.61 0 0 1 3.87-3.31ZM459 434.83a17 17 0 0 1 3 7.87c-4.25.8-5.9.26-6.71-2.09s.15-4.14 3.71-5.78ZM242.72 742.39a3.88 3.88 0 0 1-3.87-3.44 3.73 3.73 0 0 1 3.46-3.81 3.631 3.631 0 0 1 .41 7.25ZM93.18 707.22a3.67 3.67 0 0 1-3.77 3.41 3.81 3.81 0 0 1-3.19-4 3.55 3.55 0 0 1 3.43-3 3.42 3.42 0 0 1 3.53 3.59ZM536.17 544.34a3.76 3.76 0 0 1-3.81 3.42 3.36 3.36 0 0 1-3.16-3.23 3.49 3.49 0 0 1 3.32-3.82 3.77 3.77 0 0 1 3.65 3.63ZM571.16 208.21a3.81 3.81 0 0 1 3.47 3.73 3.4 3.4 0 0 1-3.61 3.45 3.67 3.67 0 0 1-3.57-3.57 4.09 4.09 0 0 1 3.71-3.61ZM69.36 655.06a3.52 3.52 0 0 1-3.72 3.41 3.67 3.67 0 0 1-3.25-4 3.6 3.6 0 0 1 3.43-3 3.32 3.32 0 0 1 3.54 3.59ZM143.29 734.76a3.47 3.47 0 0 1-3.56 3.55 3.67 3.67 0 0 1-3.41-3.8 3.5 3.5 0 0 1 3.3-3.11 3.27 3.27 0 0 1 3.67 3.36ZM401.17 51.38a3.71 3.71 0 0 1-3.83 3.36 3.45 3.45 0 0 1-3.4-3.71 3.85 3.85 0 0 1 3.75-3.5 4.09 4.09 0 0 1 3.48 3.85ZM551.06 53.74a3.53 3.53 0 0 1 3.62 3.54 3.35 3.35 0 0 1-3.19 3.15A3.14 3.14 0 0 1 548 57.7a3.44 3.44 0 0 1 3.06-3.96ZM74.76 420.33A3.64 3.64 0 0 1 78.2 424a3.19 3.19 0 0 1-3.07 3.22 3.41 3.41 0 0 1-3.87-3.18 3.8 3.8 0 0 1 3.5-3.71ZM83.9 270.45a3.12 3.12 0 0 1-3.37 2.91 3.19 3.19 0 0 1-3.09-3.22 3.25 3.25 0 0 1 3.77-3.24 3.16 3.16 0 0 1 2.69 3.55ZM536.93 518.64a3.31 3.31 0 0 1-3.47 3.55 3.18 3.18 0 0 1-3.18-3.08 3.1 3.1 0 0 1 2.71-3.48 3.33 3.33 0 0 1 3.94 3.01ZM475 31.82a3.32 3.32 0 0 1-3-3.4 3.23 3.23 0 0 1 3.78-3.28 3.37 3.37 0 1 1-.8 6.68ZM453.07 27.64a3.47 3.47 0 0 1-4 3.05 3.26 3.26 0 0 1 .35-6.5 3.49 3.49 0 0 1 3.65 3.45ZM67.36 625.88a3.24 3.24 0 0 1 2.87 3.42 3.47 3.47 0 0 1-3.77 3.29 3.7 3.7 0 0 1-2.95-3.5 3.45 3.45 0 0 1 3.85-3.21ZM601.77 161.73a3.58 3.58 0 0 1-3.11 3.29 3.4 3.4 0 0 1-3.42-2.89 3.52 3.52 0 0 1 3.38-3.72 3.83 3.83 0 0 1 3.15 3.32ZM579.35 84a3.4 3.4 0 0 1-3.07 3.33 3.56 3.56 0 0 1-3.69-3.51 3.65 3.65 0 0 1 3.87-3.34 3.55 3.55 0 0 1 2.89 3.52ZM50.66 294.47a3.48 3.48 0 0 1 3.34-3.09 3.68 3.68 0 0 1 3.33 3.9 3.52 3.52 0 0 1-4.16 3 3.41 3.41 0 0 1-2.51-3.81ZM101.78 476.76A3.23 3.23 0 1 1 99 473.2a3.31 3.31 0 0 1 2.78 3.56ZM183.76 270.9a3.29 3.29 0 0 1 2.85 3.43 3.283 3.283 0 1 1-6.51-.84 3.37 3.37 0 0 1 3.66-2.59ZM64.82 677a3.38 3.38 0 0 1 .65 6.7 3.42 3.42 0 0 1-3.8-3.35 3.59 3.59 0 0 1 3.15-3.35ZM602.74 135.92a3.27 3.27 0 1 1-3.39-3.08 3.37 3.37 0 0 1 3.39 3.08ZM508.74 569.84a3.06 3.06 0 0 1-5.94-1.39 3.24 3.24 0 0 1 3.72-2.45 3.18 3.18 0 0 1 2.22 3.84ZM501 26.3a3.08 3.08 0 0 1 3.31 3 3 3 0 0 1-3 3.25 3.129 3.129 0 1 1-.31-6.25ZM347.08 100.66a3.07 3.07 0 0 1-3.48 2.64 3 3 0 0 1-2.55-3.52 3.06 3.06 0 0 1 6 .88ZM117.12 734a3.03 3.03 0 0 1-6.06-.11 3 3 0 0 1 3.11-3.14 2.9 2.9 0 0 1 2.95 3.25ZM494.06 311.79c-1.58 1.16-2.54 2.31-3.73 2.63-1.6.45-3.09-1.5-2.82-3.28.24-1.48 1.74-2.79 3.08-2.25 1.14.47 2 1.63 3.47 2.9ZM403.43 561.3c1.15 1.59 2.27 2.57 2.61 3.76.43 1.58-1.52 3-3.34 2.74-1.53-.23-2.77-1.7-2.19-3.08.49-1.14 1.65-1.98 2.92-3.42ZM505.65 489.79c1.84.83 3.13 1.33 4.34 2s2.06 1.68 1 2.78a4.28 4.28 0 0 1-3.15.89 3.06 3.06 0 0 1-2-1.75c-.41-1.01-.16-2.21-.19-3.92ZM52.86 397.4c-.31 2.07-1.71 3-3.24 2.81a2.69 2.69 0 0 1-2.45-2.94c.21-1.68 2.2-3.3 3.51-2.53 1.05.62 1.66 1.98 2.18 2.66ZM483 567.34a3 3 0 0 1-2.7 3.45 2.84 2.84 0 0 1-3-2.44c-.12-1.71 1.6-3.74 3-3.22 1.15.43 2.03 1.64 2.7 2.21ZM603.72 110.35a2.93 2.93 0 0 1-2.8 2.69 2.66 2.66 0 0 1-2.89-2.53 2.79 2.79 0 0 1 3.09-3.08 3 3 0 0 1 2.6 2.92ZM534.43 569.77c-.23 2.11-1.62 3.14-3.14 3a2.68 2.68 0 0 1-2.55-2.87c.15-1.7 2.13-3.42 3.45-2.69 1.07.55 1.71 1.91 2.24 2.56ZM27.71 322a2.55 2.55 0 0 1-2.77-2.64 2.73 2.73 0 0 1 2.59-2.87 2.76 2.76 0 1 1 .18 5.51ZM428 26.68c-1.6 1.13-2.56 2.19-3.72 2.52-1.44.4-2.73-1-2.8-2.54-.07-1.87 1.51-3.55 3.12-2.95 1.08.42 1.9 1.65 3.4 2.97ZM529.25 30.78a2.62 2.62 0 0 1-3 2.39 2.91 2.91 0 0 1-2.67-2.82 3 3 0 0 1 3.46-2.78 2.88 2.88 0 0 1 2.21 3.21ZM68.6 606c-2.12.07-3.32-1.09-3.33-2.55a2.46 2.46 0 0 1 2.62-2.59c1.52 0 3 1.25 2.65 2.53A8.539 8.539 0 0 1 68.6 606ZM600.14 187.41a2.5 2.5 0 0 1-2.62 2.74 2.76 2.76 0 0 1-2.86-2.63 3.06 3.06 0 0 1 2.73-2.85 2.79 2.79 0 0 1 2.75 2.74ZM580.59 57.83c-1.56 1.29-2.42 2.4-3.55 2.83s-2.65-1.24-2.59-2.66 1-2.47 2.15-2.35 2.23 1.16 3.99 2.18ZM66.64 705.35c.13 2.06-1.06 3.26-2.6 3.31a2.51 2.51 0 0 1-2.71-2.53c0-1.45 1.31-3 2.56-2.67a9.492 9.492 0 0 1 2.75 1.89ZM462.59 365.33c-1.18-1.66-2.27-2.61-2.56-3.76s1.44-2.57 2.89-2.34 2.41 1.12 2.15 2.33-1.33 2.1-2.48 3.77ZM29.16 346a9 9 0 0 1-2.85 1.68c-1.3.25-2.38-1.39-2.28-2.9a2.43 2.43 0 0 1 2.88-2.3 2.81 2.81 0 0 1 2.25 3.52ZM87.91 730.22a2.82 2.82 0 0 1 3.35 2.6 2.58 2.58 0 0 1-2.68 2.61 2.14 2.14 0 0 1-2.25-2.22c.14-1.15 1.14-2.21 1.58-2.99ZM457.29 566.31c.11 2.17-1 3.32-2.52 3.31a2.66 2.66 0 0 1-2.77-2.52c0-1.35 1.29-2.93 2.62-2.62 1.1.26 2.01 1.35 2.67 1.83ZM39.78 657c-.84-1.44-1.69-2.31-1.81-3.27-.17-1.37 1.68-2.54 2.94-2s2 1.52 1.54 2.72c-.36.93-1.45 1.55-2.67 2.55ZM533.77 596c-1.48.94-2.36 1.91-3.31 2-1.3.11-2.1-1-2.08-2.36 0-1.19 1.37-2.46 2.43-2.05s1.65 1.29 2.96 2.41ZM54.84 266.67a2.46 2.46 0 0 1 2.55 2.68 2.12 2.12 0 0 1-2.31 2.1 4 4 0 0 1-2.52-1.95c-.56-1.14.85-2.75 2.28-2.83ZM555.42 31.62c-1.49.93-2.36 1.9-3.31 2-1.3.1-2.1-1-2.09-2.37 0-1.19 1.37-2.45 2.43-2.05s1.65 1.3 2.97 2.42ZM186.7 762.57c1.34-1.14 2.05-2.11 3-2.46 1.32-.48 2.77.89 2.82 2.35a2.16 2.16 0 0 1-2.07 2.38c-1.12-.1-2.13-1.23-3.75-2.27ZM543.47 265.59c-1.07-1.25-2.05-2-2.4-2.9-.48-1.3 1.12-2.74 2.63-2.52 1.34.2 2.35 1.11 2.08 2.39-.2.94-1.25 1.7-2.31 3.03ZM559.47 571.05a2.37 2.37 0 0 1-2.89 2.38 2.22 2.22 0 0 1-2.06-2.47 2.42 2.42 0 0 1 2.15-2.47 2.53 2.53 0 0 1 2.8 2.56ZM560.59 546.19a9.079 9.079 0 0 1-2.9 1.59c-1.42.24-2.42-1.24-2.3-2.83a2.44 2.44 0 0 1 2.88-2.28c1.52.2 2.58 1.46 2.32 3.52ZM98.29 553.16c-.35 2-1.92 3-3.34 2.58a2.28 2.28 0 0 1-1.82-2.59c.1-1.51 1.54-2.89 2.78-2.32 1.09.49 1.78 1.71 2.38 2.33ZM431.43 566.16a2.3 2.3 0 0 1-2.72 2.4 2.35 2.35 0 0 1-2.29-2.19 2.56 2.56 0 0 1 2.43-2.81 2.48 2.48 0 0 1 2.58 2.6ZM97.77 504.8c-1.1-1.35-2.12-2.07-2.34-3a1.972 1.972 0 0 1 2-2.36 1.9 1.9 0 0 1 2.22 2.11c-.08.96-.99 1.81-1.88 3.25ZM516.8 283.6c1 1.37 1.91 2.16 2.13 3.12a2.19 2.19 0 0 1-2.67 2.42c-1.33-.32-2.17-1.33-1.78-2.6.28-.94 1.27-1.66 2.32-2.94ZM25.3 372.85c-.43-.47-1.5-1.11-1.7-2a1.78 1.78 0 0 1 2-2.12 2.87 2.87 0 0 1 1.86 1.57c.54 1.17-.38 2.36-2.16 2.55ZM96.59 524.65a12.371 12.371 0 0 1 1.92 2.62 1.806 1.806 0 0 1-2 2.24c-.75-.23-1.9-1.2-1.83-1.71.13-.93 1.01-1.8 1.91-3.15ZM41.13 680.66a7.8 7.8 0 0 1-2.67.65c-1.16-.08-1.78-1.66-1.3-2.74a2.15 2.15 0 0 1 2.84-1.29c1.17.34 1.81 1.79 1.13 3.38ZM374.8 50.42c-1.45.91-2.3 1.85-3.21 1.91a1.91 1.91 0 0 1-2-2.31c.12-1.36 1-2.3 2.3-2 .9.19 1.6 1.27 2.91 2.4ZM604.84 85.09c-1.57.86-2.47 1.7-3.4 1.74-.59 0-1.51-1-1.78-1.79a1.91 1.91 0 0 1 2.05-2.27c.93.23 1.68 1.23 3.13 2.32ZM28.68 290.94c.91 1.33 1.87 2.14 2 3a1.9 1.9 0 0 1-2.23 2.06c-1.26-.08-2.34-1-2.07-2.22.19-.86 1.25-1.58 2.3-2.84ZM573.16 238.18c-1.55.74-2.5 1.56-3.44 1.54a1.9 1.9 0 0 1-1.83-2.43 2 2 0 0 1 2.56-1.73c.88.31 1.49 1.44 2.71 2.62ZM164.8 758.37c.89 1.43 1.77 2.27 1.91 3.22a1.881 1.881 0 0 1-2.21 2.08c-1.21-.09-2.4-.89-2-2.29.26-.94 1.23-1.67 2.3-3.01ZM73.79 446.6c1 1.49 1.87 2.3 2 3.21.07.56-.93 1.55-1.65 1.84-1.07.44-2.63-.75-2.39-1.83s1.04-1.72 2.04-3.22ZM504.78 597.58a11.924 11.924 0 0 1-1.88-2.58 1.85 1.85 0 0 1 2.14-2.14c.76.26 1.91 1.3 1.81 1.75-.21.91-1.13 1.7-2.07 2.97ZM558.09 597.05a6.811 6.811 0 0 1-1.56 1.6c-1 .53-2.7-.53-2.58-1.62a3.18 3.18 0 0 1 1.44-2.1c1.09-.61 2.46.34 2.7 2.12ZM212 275.06c-1.24.88-1.86 1.59-2.62 1.8-1.26.36-2.58-.79-2.22-1.9.24-.77 1.2-1.92 1.68-1.85.93.13 1.75 1.02 3.16 1.95ZM266.47 716.25c-1.12-3.13-.27-4.65 2.11-5.7.7 2.6.69 2.6-2.11 5.7ZM141.53 761.51c-1.51.42-2.32.88-3.08.8a1.61 1.61 0 0 1-1.34-2.51c.47-.62 1.73-1.39 2.13-1.17.81.44 1.27 1.52 2.29 2.88ZM215.76 766c-.95-1.1-1.83-1.67-1.94-2.36a1.84 1.84 0 0 1 2-2.18c.62 0 1.74 1.1 1.69 1.6-.11.87-.94 1.66-1.75 2.94ZM398.47 28.24a11.349 11.349 0 0 1-1.82-2.49 1.69 1.69 0 0 1 1.91-2.13c.73.22 1.88 1.16 1.8 1.61-.16.91-1.01 1.7-1.89 3.01ZM599.13 212.7c-1 .88-1.61 1.76-2.24 1.8a2.74 2.74 0 0 1-2.1-1.09c-.56-.88.66-2.56 1.71-2.35.76.16 1.41.85 2.63 1.64ZM132.91 243.84c1 1.09 1.92 1.63 2.1 2.35a1.45 1.45 0 0 1-1.64 1.8 2.66 2.66 0 0 1-1.89-1.54c-.14-.57.72-1.39 1.43-2.61ZM582.85 574.47c-.83-1-1.6-1.52-1.85-2.25a1.49 1.49 0 0 1 1.31-2c1.18-.26 2.63.78 2.33 1.79a10.168 10.168 0 0 1-1.79 2.46ZM504.63 3.76c-1.2.84-2 1.82-2.58 1.72a2.57 2.57 0 0 1-1.68-1.87c0-.61 1.13-1.61 1.84-1.61s1.31.89 2.42 1.76ZM478.92 2.39c-1.13 1-1.69 1.89-2.44 2.1-1.06.29-1.81-.52-1.85-1.62s.26-2.08 1.52-1.93c.78.06 1.49.75 2.77 1.45ZM110 245.78c-1.3.65-2 1.27-2.78 1.34-1.16.11-2.24-1.57-1.57-2.39a2.85 2.85 0 0 1 2.21-1c.64.11 1.14 1.05 2.14 2.05ZM43.66 628.05c-1 .91-1.52 1.68-2.25 2-1 .44-2.34-.85-2-2a2.58 2.58 0 0 1 1.78-1.56c.7-.05 1.4.82 2.47 1.56ZM347.58 74.14c-1.23 1.08-1.9 2.08-2.45 2s-1.35-1-1.78-1.67c-.1-.17.77-1.32 1.24-1.35.72-.04 1.48.47 2.99 1.02ZM453.11 1.2c-1.2 1.05-1.85 2.05-2.41 2s-1.35-1-1.75-1.66c-.11-.19.73-1.33 1.17-1.36.74-.04 1.51.47 2.99 1.02ZM626 162.81c-.53.59-1.25 1.58-1.4 1.51a10.3 10.3 0 0 1-1.94-1.64l2-1.59c.4.55.81 1.09 1.34 1.72ZM482.76 593.83c-2.62.85-3.39 1.31-4.11 1.24a1.8 1.8 0 0 1-1.06-1.44c.08-1.12 1-1.52 2-1.23a29.183 29.183 0 0 1 3.17 1.43ZM581.71 599.67a7.819 7.819 0 0 1-1.45-2.14c-.07-.3.78-1.12 1.29-1.2a1.32 1.32 0 0 1 1.67 1.54c-.07.52-.75.94-1.51 1.8ZM65.64 732.21c-1.57.59-2.3 1.1-3 1.06-.44 0-1.29-1.09-1.2-1.26.38-.69 1-1.59 1.65-1.68s1.22.85 2.55 1.88ZM583.4 544.6c.65.49 1.6 1 1.54 1.19a10.357 10.357 0 0 1-1.33 2c-.46-.47-1.21-.89-1.3-1.42s.61-1.07 1.09-1.77ZM29.73 269.92c-.62-.59-1.23-.93-1.48-1.45-.37-.8.65-1.85 1.55-1.53a1.89 1.89 0 0 1 1.13 1.33c-.01.49-.68.98-1.2 1.65ZM555.56 620.94c.35.82.92 1.53.75 1.92a1.84 1.84 0 0 1-1.56.92 1.9 1.9 0 0 1-1-1.57c.1-.42 1-.73 1.81-1.27ZM261 303.71c-.54.65-.78 1.22-1.08 1.25a3.22 3.22 0 0 1-2-.27c-.48-.34-.6-1.18-.88-1.8.59-.24 1.28-.8 1.75-.66a9.59 9.59 0 0 1 2.21 1.48ZM604.6 59.38c-.88.52-1.52 1.19-2 1.08s-.78-1-1.16-1.5c.52-.36 1.06-1 1.56-1s.93.78 1.6 1.42ZM38.09 702.8c.81 1 1.46 1.48 1.53 2 .12 1-.3 2-1.51 1.72-.53-.09-1.34-.87-1.31-1.27.06-.69.67-1.35 1.29-2.45ZM626 108.5c.91 1.88 1.44 2.48 1.33 2.92a1.62 1.62 0 0 1-1.34.91 1.74 1.74 0 0 1-1-1.34 8.924 8.924 0 0 1 1.01-2.49ZM57.08 243.79a5.92 5.92 0 0 1-1.64.5c-.19 0-.63-.95-.55-1a8.88 8.88 0 0 1 1.55-1ZM4.51 318.17c-1.81.84-2.42 1.37-2.86 1.27a1.64 1.64 0 0 1-.91-1.36 1.74 1.74 0 0 1 1.36-.94c.58-.02 1.17.46 2.41 1.03ZM82.15 242.08a15.1 15.1 0 0 1 .94 2.13 1.31 1.31 0 0 1-1.73 1.45 1.9 1.9 0 0 1-1-1.48c.08-.47.76-.91 1.79-2.1ZM158.25 248.93c-.38-.82-.91-1.43-.78-1.84a1.818 1.818 0 0 1 1.34-.93 1.73 1.73 0 0 1 1 1.38c-.07.46-.81.77-1.56 1.39ZM454.84 593.4a6 6 0 0 1-1.73.21c-.2 0-.48-1-.42-1.08a10.361 10.361 0 0 1 1.65-.67c.14.42.27.84.5 1.54ZM71.55 577.91c-1.81.85-2.41 1.38-2.86 1.27a1.64 1.64 0 0 1-.9-1.35 1.73 1.73 0 0 1 1.35-1 10.79 10.79 0 0 1 2.41 1.08ZM.38 342.94l1.49.64a10.479 10.479 0 0 1-.87 1.49c-.06.07-1-.31-1-.51a6 6 0 0 1 .38-1.62ZM623.4 137c.69-.56 1.15-1.23 1.63-1.24a2 2 0 0 1 1.5 1c.39.83-.69 2-1.51 1.69a10.1 10.1 0 0 1-1.62-1.45ZM343.56 225.75a17.492 17.492 0 0 1 .61 2.31c0 .2-.49.5-.8.69-.05 0-.42-.22-.43-.37-.09-.82-.12-1.66-.17-2.49ZM580.68 32.24c-1.81.84-2.41 1.37-2.86 1.26a1.6 1.6 0 0 1-.9-1.35 1.72 1.72 0 0 1 1.35-.95c.58-.01 1.17.47 2.41 1.04ZM113.51 757.91c.39.74 1 1.31.89 1.78a2 2 0 0 1-1.22 1.28 1.351 1.351 0 0 1-1.42-1.79c.24-.5 1-.75 1.75-1.27ZM530 620c.36.81.88 1.42.75 1.82s-.88.69-1.36 1c-.34-.49-1-1-.94-1.48s.79-.77 1.55-1.34ZM529.16 4.68c-.75.52-1.31 1.22-1.77 1.15s-1.28-.92-1.22-1.31a1.93 1.93 0 0 1 1.35-1.31c.48-.03.94.79 1.64 1.47ZM580.54 624.51l-.74-1.12 1.53-.76c.1.43.39.92.26 1.25s-.68.43-1.05.63ZM87.85 757.62l.88.88-1.49 1.12c-.15-.44-.46-.92-.39-1.32s.64-.46 1-.68ZM504.94 620.16c-.29.62-.47 1-.64 1.38a6.726 6.726 0 0 1-1.34-.91c-.1-.1.3-.94.44-.93a6.261 6.261 0 0 1 1.54.46ZM607.91 598.11a9 9 0 0 1 .22 1.15c0 .06-.35.15-.55.22a7.265 7.265 0 0 1-.25-1.1c0-.07.38-.18.58-.27ZM50.47 422.81l-.86 1.26-1.55-1.87c.4-.14.88-.51 1.19-.4a5.05 5.05 0 0 1 1.22 1.01ZM426.37 1.22a6.85 6.85 0 0 1-1.72.28c-.16 0-.28-.67-.42-1a6 6 0 0 1 1.53-.5c.16 0 .35.67.61 1.22ZM624.35 188.05a6.09 6.09 0 0 1-.61 1.26 9.644 9.644 0 0 1-1.6-.59c.21-.35.37-1 .62-1a4.91 4.91 0 0 1 1.59.33ZM37.63 730.25a7.926 7.926 0 0 1 .23 1.16c0 .05-.36.14-.55.21a6.88 6.88 0 0 1-.25-1.09c-.01-.08.37-.18.57-.28ZM529.53 647.15a6.219 6.219 0 0 1-1.08.3c-.09 0-.21-.33-.32-.51a9.705 9.705 0 0 1 1.13-.34c.06 0 .18.4.27.55ZM626.24 85.62c.42-.19.83-.51 1.21-.48.21 0 .39.59.58.91-.37.15-.76.47-1.09.42s-.47-.55-.7-.85ZM3.77 292.75c-.26.29-.48.77-.75.8s-.72-.3-1.07-.48c.21-.31.42-.88.64-.87.41 0 .76.33 1.18.55ZM554.21 6c-.35.22-.72.63-1 .6s-.69-.49-1-.75c.38-.22.77-.61 1.14-.59s.55.51.86.74ZM14.72 652.26a7.646 7.646 0 0 1 .39 1.17c0 .1-.31.26-.48.4a6.63 6.63 0 0 1-.36-1.12c-.01-.13.29-.3.45-.45ZM607.16 624a1.028 1.028 0 0 1-.1.58c-.1.11-.4.07-.6.1a5.558 5.558 0 0 1 .14-.91ZM609.33 573.14a5.125 5.125 0 0 1-1.05.39c-.1 0-.27-.29-.42-.45a8.728 8.728 0 0 1 1.12-.45c.07-.02.23.37.35.51ZM43.14 602.5c-.35.22-.72.63-1 .6s-.69-.49-1-.75c.38-.22.76-.61 1.13-.6s.56.48.87.75Z"/></svg>