<svg xmlns="http://www.w3.org/2000/svg" viewBox="0 0 489.55 471.13"><defs><style>.d{fill:#fffcbb}.d,.e,.g,.h{fill-rule:evenodd}.e,.i{fill:#fff}.j{fill:#52accc}.k{fill:#fdc6a3}.g{fill:#379cb7}</style></defs><g id="b"><g id="c"><path class="g" d="M65.94 262.73c.07-.11.14-.22.22-.34-.07.11-.14.23-.22.34ZM65.65 263.19c.09-.14.19-.29.29-.46-.09.14-.2.31-.29.46ZM65.65 263.19c-.14.21-.25.39-.32.51.12-.19.22-.34.32-.51ZM65.27 263.78s.03-.05.06-.09l-.06.09ZM65.23 263.84l.04-.06-.04.06ZM66.92 261.19c-.25.39-.51.8-.76 1.2.31-.48.56-.87.76-1.2ZM66.92 261.19c.1-.16.21-.33.3-.47-.09.14-.19.3-.3.47ZM67.23 260.72c.08-.12.15-.23.21-.33-.06.09-.13.21-.21.33ZM67.68 260c.08-.12.07-.11 0 0ZM378.95 374.89c2.06-4.72-24.27-8.94-33.5-12.1s-63.68-12.82-70.7-16.33c-7.03-3.51-32.49-16.69-32.49-16.69L65.24 263.84c-5.64 8.85-17.06 32.56-24.08 41.34-4.82 6.03-27.44 23.18-41.15 33.34v132.6h413.46c-2.02-3.92-3.61-7.07-4.35-8.75-3.51-7.9-32.23-82.78-30.17-87.49ZM67.59 260.15c.04-.06.07-.11.09-.14-.02.04-.05.08-.09.14ZM67.44 260.38Z"/><path class="d" d="M211.78 411.73c.28-5.03 7.45-55.92 7.45-55.92L61.82 270.16c-1.95 3.35-7.26 20.66-7.26 20.66s12.85 43 15.36 48.03 30.72 63.67 32.39 66.46c1.68 2.79 23.46 36.86 24.85 38.54.8.96 11.97 15.02 21.73 27.28h37.23c3.66-9.1 8.09-18.99 12.53-26.17 3.44-5.56 12.85-28.2 13.12-33.23Z"/><path d="M185.33 464.23c-.45-.3-4.93-30.64-4.93-31.54s7.77-22.72 5.83-25.41-11.81-14.05-12.41-14.05-7.77 1.2-7.77 1.2 2.39-3.59-.75-.15-7.03 13.45-7.18 14.05c-.15.6 10.61 32.29 10.61 32.29l4.33 14.05s-5.08-4.04-5.68-3.29c-.46.58-5.69 13.84-8.02 19.76h24.01c1.24-3.95 2.07-6.81 1.94-6.9Z" style="fill:#9371a5;fill-rule:evenodd"/><path class="k" d="M308.21 109.22s-5.93-25.32-8.62-24.78c-2.69.54-130.91-21.55-130.91-21.55l-39.87 15.62-38.35 39.04c-6.66 6.26-24.69 35.31-27.92 38-3.23 2.69-7.31 9.36-9.31 12.22-2 2.86-4.88 2.08-3.08 7.17 1.8 5.09 16.7 49.03 16.7 49.03l5.39 17.24-7 22.63s-3.97 2.26-1.45 4.9c2.53 2.64 14.9 22.99 17.6 27.09 2.7 4.1 18.76 28.53 22.31 30.86 3.56 2.33 24.57 24.42 28.88 25.5 4.31 1.08 32.06 18.72 32.06 18.72l14.28 7.14 21-23.37s12.94 5.05 19.41 3.44c6.46-1.62 13.97 1.41 14.8-2.26.83-3.67 2.5-4.96 3.55-9.43 1.05-4.47 15.59-35.72 15.59-35.72s6.11-11.04 7.54-15.62c2.69-8.62 18.32-43.64 21.01-51.18 2.12-5.94 8.75-43.45 10.27-49.26 1.1-4.2 14.51-31.01 11.82-37.48-2.69-6.46-3.09-21.5-2.58-28.09.51-6.58 6.89-19.86 6.89-19.86Z"/><path d="M306.97 62.79s-4.83-9.67-7.47-12.3-14.77-15.62-18.59-15.72c-3.82-.1-17.11-5.28-17.11-5.28s-13.96-10.2-19.67-13.28c-5.71-3.08-25.05-7.47-25.05-7.47s-13.62-5.71-18.46-6.59c-4.83-.88-17.58-1.32-23.29.44-5.71 1.76-23.29 7.47-27.68 9.67-4.39 2.2-34.71 14.94-39.11 18.02-4.39 3.08-15.38 10.55-16.7 12.74-1.32 2.2-15.38 28.56-16.7 32.08-1.32 3.52-13.18 37.35-14.5 42.62-1.32 5.27-5.71 41.31-8.37 41.82-2.66.51.41 3.02 2.66-.51 2.24-3.54 12.3-13.18 16.26-14.06 3.95-.88 7.47-.88 9.23.88 1.76 1.76 16.26 18.02 16.26 18.02l-.88 9.23s0 4.83 4.83 3.51c4.83-1.32 12.74-3.84 10.32-8.51-2.41-4.67.66-29.28 4.18-32.79 3.52-3.52 17.67-11.26 16.7-14.5-.97-3.24 4.19-4.7 3.63-7.85-.56-3.14.32-13.25.76-15.44.44-2.2 4.41-14.6 4.41-14.6l21.36-8.43s16.44 3.07 25.65 3.83c9.22.75 25.48 5.59 30.75 7.34 5.27 1.76 11.86 6.59 16.26 7.47 4.39.88 10.41 4.34 17.95 2.61 7.54-1.73 28.63-.41 31.71.03 3.08.44 8.35 2.64 8.35 2.64s-.44.88-.44 8.35 0 14.5 4.83 16.7c4.83 2.2 13.06 3.45 10.55-3.52-2.52-6.97 2.63-16.22 4.61-18.43 1.98-2.22 4.62-.02 5.94-7.05 1.32-7.03.88-18.46-2.2-22.85-3.08-4.39-10.99-8.79-10.99-8.79Z" style="fill:#779cb2"/><path class="e" d="M217.57 277.84s-18.4-3.81-20.76-3.81-29.86-4.71-29.86-4.71c1.31 2.1 9.53 13.95 14.41 16.77 4.88 2.82 28.56 9.43 33.27 9.43s11.79 0 14.93-1.83c3.14-1.83 8.91-12.31 8.91-12.31s-14.33-.01-15.68-.92c-1.35-.91-5.22-2.6-5.22-2.6Z"/><path class="i" d="M183.91 166.01c-10.87-1.32-18.5 2.94-18.5 2.94-3.52 2.35-7.34 5.87-6.9 7.63.44 1.76 3.82 3.08 4.85 4.26s13.36 5.58 15.86 5.87c2.5.29 9.69 1.62 11.89 1.47 2.2-.15 3.3.91 4.99-.15 1.17-.73 1.16-1.68 1.76-5.73.5-3.34 0-3.52-1.17-5.87s-8.97-9.96-12.78-10.43ZM279.65 182.31c-3.67-1.32-12.48-1.47-14.39-.88-1.91.59-7.64 2.5-7.64 2.5-3.23 1.62-4.99 2.2-7.34 5.58-2.35 3.38-2.64 2.35-2.5 4.85.15 2.5 1.03 3.52 2.94 4.85s11.18 3.25 13.96 3.24c2.78-.01 9.14 1.09 11.83-.78 2.69-1.87 6.36-3.2 7.39-4.08 1.03-.88 2.06-1.17 1.91-2.79-.15-1.62-2.5-11.16-6.17-12.48Z"/><path class="j" d="M179.04 177.24c-1.21-.54-1.35-2.69-.54-4.04l3.91-2.16s-3.37-2.29-4.71-2.56c-1.35-.27-5.25.94-6.47 1.75-1.21.81-2.83 4.18-3.23 5.66-.4 1.48.67 4.45 1.62 6.2.94 1.75 3.91 2.96 5.79 3.5 1.89.54 4.18-.13 6.33-1.35 2.16-1.21 2.42-3.1 3.23-5.12s-.13-2.96-.13-2.96-4.58 1.62-5.79 1.08ZM268.9 192.46s-2.69 2.56-3.64 2.29c-.94-.27-2.83-2.42-2.96-3.1-.13-.67 2.56-3.91 2.56-3.91s.27-1.08-.94-1.35-5.79.4-5.79.4c-1.35 1.08-3.77 3.91-3.77 5.52s-.4 4.58.4 5.52c.81.94 4.18 3.37 5.79 3.5 1.62.13 4.99 0 5.79-.94.81-.94 2.96-4.45 2.83-5.52l-.13-1.08-.14-1.35Z"/><path d="M401.8 442.32c-4.07-8.71-7.09-17.8-9.14-27.2-2.13-9.8-4.88-19.42-8.22-28.88-3.05-8.62-7.82-16.29-12.8-23.85-1.28-1.94-2.94-3.08-5.41-2.74-.64.09-1.35-.16-1.99-.36-1.07-.33-2.1-1.01-3.18-1.1-7.05-.59-14.11-1.26-21.18-1.51a130.41 130.41 0 0 1-20.29-2.34c-5.1-1-10.3-1.58-15.31-2.89-9.96-2.61-19.89-5.37-29.52-9.1-6.43-2.49-13.11-4.34-19.19-7.71-3.11-1.72-6.26-3.34-9.46-5.05.13-.55.2-.99.35-1.41 1.33-3.71 2.65-7.44 4.04-11.12.27-.74.81-1.39 1.31-2.01 2.05-2.49 3.92-5.07 5.53-7.9 2.11-3.7 3.37-7.71 4.97-11.59 1.23-2.98 2.4-5.99 3.51-9.01 1.24-3.35 2.18-6.83 3.6-10.1 3.66-8.47 7.68-16.8 11.24-25.32 3.43-8.21 5.7-16.79 6.99-25.61.75-5.14 1.48-10.29 2.21-15.43.73-5.15 1.39-10.31 2.21-15.44.29-1.82.75-3.69 1.53-5.35 2.53-5.35 5.27-10.59 7.88-15.9 1.98-4.01 2.84-8.36 2.8-12.73-.05-6.55-1.22-13.02-2.77-19.38-.8-3.28-1.02-6.54-.83-9.86.04-.65.34-1.29.62-2.34 4.89 5.64 10.36 8.74 17.53 5.79 2.9-1.19 4.19-4.31 6.49-6.28.35-.3.29-1.07.5-1.94-1.9.76-3.48 1.31-5 2.01-1.93.9-3.73-.05-5.36-.63-1.47-.52-.97-2.51-1.32-3.85-.15-.6-.08-1.25-.11-1.88-.23-3.83.92-7.45 1.72-11.12.34-1.59.93-3.01 2.24-4.18.9-.81 1.61-1.98 2.05-3.12 3.39-9.01 4.71-18.07 1.56-27.57-2.54-7.68-7.11-12.92-14.93-15.21-1.87-.55-3.67-.91-4.89 1.05-2.4-.44-4.7-.87-7.5-1.38 1.38-.76 2.33-1.24 3.23-1.8.45-.27.94-.59 1.21-1.02.77-1.22.03-2.47-1.46-2.62-2.86-.28-5.29 1.05-7.83 2.01-.03.04-.06.07-.09.11h-.11c-.78.93-1.56 1.86-2.44 2.9.44.39.87.76 1.51 1.33-11.26 2.88-20.09 9.36-27.84 17.52-3.38 3.56-7.13 6.85-8.84 11.75.65.72 1.29 1.42 2.23 2.47-4.52 1.09-8.89.64-12.99 1.92 2.98 0 5.97-.04 8.95.02 1.59.03 3.18.21 4.77.33 4.38.34 8.77.64 13.14 1.04 2.13.2 4.23.64 6.35.88 3.12.34 6.25.58 9.37.88 3.19.31 6.38.66 9.81 1.01-.19 1.28-.24 2.35-.53 3.34-2.35 8-.87 15.23 4.21 21.81.77 1 1.4 2.39 1.46 3.63.22 4.56.05 9.15.28 13.71.16 3.3.7 6.58 1.11 9.86.16 1.32.44 2.63.7 4.15-1.55-.17-2.93-.36-4.33-.46-3.92-.29-7.64.86-11.42 1.59-7.87 1.52-15.5 3.77-22.61 7.55-1.66.88-3.27 1.88-4.93 2.76-.84.45-1.75.77-2.79 1.22-.17-1.98-.32-3.65-.48-5.58-1.68 2.57-2.86 7.83-2.24 10.14.38 1.41.62 3.15 2.77 3.02 4 2.93 7.87.69 11.43-.75 8.54-3.46 17.35-5.64 26.4-7.14 2.46-.41 4.88-1.12 7.24-1.94.69-.24 1.08-1.32 1.69-2.14.79 1.08.52 2.18.11 3.27-1.35 3.61-2.65 7.23-4.1 10.8-1.37 3.4-2.92 6.72-4.34 10.1-.46 1.11-.84 2.2-2.05 1.97-1.76 9.61-3.61 19.03-5.19 28.49-1.12 6.75-2.91 13.3-4.86 19.83-.92 3.09-1.49 6.29-2.03 9.46-.63 3.68-2.13 7.02-3.67 10.34-4.48 9.68-9.1 19.28-12.99 29.24-1.88 4.83-4.5 9.37-6.79 14.04-.08.16-.13.39-.26.46-3.01 1.7-3.11 5.02-4.19 7.73-2.88 7.24-5.61 14.55-8.29 21.87-1.76 4.79-3.38 9.64-4.95 14.49-.67 2.07-1.7 3.72-3.74 4.63-.41.18-.85.38-1.15.69-3.76 3.86-8.76 4.06-13.53 4.07-6.44 0-12.89-.68-19.33-1.13-3.67-.25-7.33-.52-10.98-.96-5.06-.61-10.11-1.31-15.13-2.18-1.01-.18-1.94-1.21-2.75-2-6.06-5.86-12.22-11.62-18.07-17.68-4.6-4.77-8.8-9.92-13.18-14.9-.77-.87-1.52-1.77-2.37-2.55-.24-.22-.91-.25-1.18-.06-.28.19-.53.84-.4 1.13.45 1.07.93 2.17 1.63 3.07 2.78 3.52 5.65 6.97 8.48 10.45.32.39.6.8.57 1.55-1.82-1.48-3.75-2.85-5.45-4.46-4.79-4.55-9.59-9.11-14.2-13.84-10.48-10.75-19.83-22.43-28.15-34.93-.79-1.19-1.7-2.32-2.66-3.38-1.25-1.4-1.56-2.94-1.22-4.75.26-1.4.41-2.83.45-4.25.19-7.08.38-14.17.46-21.26.05-4.39-.08-8.79-.17-13.19-.02-.93.06-1.98-1.25-2.85-1.08 2.05-.67 4.13-.89 6.07-.24 2.14-.32 4.3-.46 6.45-.13 2.06-.24 4.11-.38 6.39-1.04-.23-2.17 1.3-2.86-.64-.07-.19-.8-.24-1.21-.2-3.56.3-6.98-.44-10.14-1.88-1.99-.91-4.34-2.12-3.78-5.17.06-.31-.1-.73-.29-1.01-2.61-3.81-2.72-8.23-3.09-12.58-.13-1.52-.05-3.06-.28-4.56-.19-1.26-.73-2.43-2.48-2.45-.38 1.06-.76 2.12-1.35 3.75-.69-1.27-1.29-2.09-1.62-3.01-1.56-4.39-3.13-8.79-4.53-13.23-2.16-6.84-4.28-13.69-6.24-20.58-.88-3.09-1.33-6.3-1.97-9.46-.07-.35 0-.77-.18-1.05-1.22-1.95-.27-3.57.72-5.2 5.02-8.3 11.36-15.44 18.95-21.47 1.08-.86 2.12-1.82 3.84-1.21.62.22 1.57-.64 2.41-.88.97-.28 1.98-.5 2.35.92.08.3.41.75.62.75 1.59-.01 2.12 1.22 2.73 2.28 2.46 4.32 5.84 7.91 9.24 11.44 2.05 2.13 3.09 4.51 3.4 7.36.33 3.02.71 6.04 1.16 9.05.18 1.19.58 2.35.89 3.52.18 0 .37-.01.55-.02.31-.79.63-1.57 1.05-2.63 2.11 2.21 4.67 2.94 7.58 2.54.35-.05.73 0 1.07-.1 1.06-.31 1.98-.76 2.29-2.01.34-1.4-.34-2.17-1.91-2.74 1.06-.69 1.78-1.15 2.49-1.62 2.51-1.65 2.8-2.89 1.31-5.61-.12-.23-.22-.47-.35-.74.89-1.41 3.41-1.72 3.11-3.72-.23-1.56-1.3-3-2.12-4.77.89-1.05 1.11-2.54.83-4.38-.25-1.6.16-3.22 1.9-4.38 2.35-1.57 2.26-2.91.07-6.14.64-.82 1.22-1.85 2.06-2.59 2.96-2.61 6.02-5.11 9.03-7.67 3.29-2.79 6.62-5.52 9.83-8.4 2.29-2.06 2.21-2.41.19-4.85.09-.68.34-1.41.25-2.09-.18-1.37.26-2.38 1.16-3.4 1.28-1.45 1.13-2.42-.02-4.04-.42-.59-.79-1.42-.72-2.1.35-3.65.84-7.3 1.3-10.94.61-4.77 1.24-9.54 1.87-14.38 1.45-1.43 2.93-2.82 5.15-3.42 1.72-.46 3.27-.74 4.94-.15 2.87 1.01 5.69.04 8.51-.3 3.83-.46 7.62-1.21 11.45-1.56 3.02-.28 6.1-.39 9.13-.19 10.68.69 21.13 2.74 31.33 5.93 4.61 1.45 9.04 3.45 13.57 5.14 2 .75 4.06 1.35 6.1 2.03.5-1.64-.01-2.56-1.22-3.35-4.57-3-9.23-5.71-14.51-7.42-2.34-.76-4.59-1.92-7.02-2.55-3.63-.94-7.2-2.18-10.87-2.87-5.09-.96-10.23-1.75-15.39-2.17-4.33-.36-8.72-.62-13.08.1-.31.05-.64 0-.99-.21.68-.15 1.35-.35 2.04-.43 11.57-1.35 23.07-1.15 34.47 1.5 5.14 1.19 10.33 2.2 15.5 3.24.74.15 1.53.02 2.4-.28-2.61-2.79-6.15-3.89-9.26-5.93 5.39 1.62 10.77 3.25 16.16 4.87.09-.14.19-.28.28-.42-.85-.68-1.65-1.43-2.56-2.01-6.79-4.31-14.32-6.03-22.27-6.21-1.68-.04-3.39-.35-5 .59-.45.26-1.21.03-1.83-.04-4.97-.54-9.94-1.1-14.9-1.65-.18-.02-.36-.06-.54-.04-3.28.19-6.57.31-9.84.62-3.81.36-7.61.89-11.23 1.32 4.5-3.58 26.32-7.61 38.87-6.96-6.25 1.04-12.11 2.01-17.98 2.99.01.16.03.32.04.47 3.28 0 6.56-.08 9.85.02 3.41.1 6.82.24 10.21.59 3.47.35 6.96.77 10.36 1.52 3.31.73 6.58 1.78 9.77 2.95 3.16 1.17 6.21 2.67 9.91 4.29-.86-1.38-1.39-2.22-2.1-3.36 1.31.25 2.29.44 3.28.63.08-.15.16-.3.24-.44-1.22-.97-2.43-1.94-3.8-3.03 1.39-.15 2.51 1.44 3.96 0-1.16-1.69-2.35-3.4-3.61-5.24 4.08.91 9.55 7.08 13.14 14.67 1.01-1.64 1.23-3.42 1.07-5.21-.7-7.57-4.04-13.84-9.39-19.15-4.72-4.68-10.39-7.93-16.16-11.04a37.299 37.299 0 0 0-15.89-4.47c-.43-.02-.87.1-1.3.2-1.1.25-2.18.66-3.29.76-4.47.4-8.85 1.09-13.13 2.54-5.59 1.89-11.25 3.59-16.88 5.35-.41.13-.86.12-1.49-.25 1.27-.62 2.48-1.42 3.82-1.84 5.37-1.71 10.8-3.26 16.18-4.96 1.87-.59 3.73-1.31 5.46-2.21 3.2-1.66 6.66-2.5 10.12-2.15 3.44.34 6.81 1.48 10.15 2.45 2.06.6 4 1.58 6.01 2.35.47.18.99.22 1.96.43-1.77-2.31-4.3-2.57-6.2-4.24.5.03.81-.02 1.06.07 3.51 1.36 7.02 2.72 10.51 4.12.83.33 1.59.82 2.4 1.2.73.34 1.53.99 2.21.9 3.57-.52 5.37 2.3 7.79 3.92 2.88 1.93 3.47 5.13 4.06 8.15 1.41 7.22 2.56 14.49 3.82 21.74.11.62.06 1.3.3 1.85 1.01 2.24.85 4.52.38 6.83-.07.35-.13.71-.14 1.07-.01.82-.03 1.66.94 2.02.87.32 2.32-.18 2.76-1.07.75-1.53 1.61-3.05 2.06-4.67 1.99-7.26 4.18-14.51 4.27-22.11.07-5.82-.12-11.67-1.88-17.3-1.9-6.09-5.24-11.34-9.53-16.05-3.88-4.25-8.41-7.72-12.92-11.22-2.18-1.69-4.65-3.01-7-4.5-.36-.23-.71-.46-.93-.94 8.15 3.07 16.68 5.12 24.19 10.24-.03 3.04 1.29 5.87 2.61 8.71 2.1 4.5 3.34 9.28 4.41 14.1 1 4.53 1.85 9.1 2.87 13.63.83 3.71.98 7.42.31 11.16-.17.95-.31 1.7.68 2.33.29.19.31.9.34 1.38.04.55-.04 1.11-.08 2.06.83-.42 1.29-.62 1.71-.87 2.05-1.23 4.37-2.19 6.09-3.78 3.18-2.93 7.15-4.25 10.82-6.21 3-1.6 5.87-3.44 8.81-5.14.25-.14.6-.12.91-.15l.06-.07s.1-.04.14-.06c2.17-2.82 5.73-3.49 8.49-5.66 2.79 2.9 5.5 5.71 8.2 8.52.29-.75.31-1.31.07-1.73-1.34-2.32-2.48-4.84-4.18-6.87a67.776 67.776 0 0 0-21.12-16.84c-4.7-2.41-9.69-4.22-14.53-6.36-1.05-.46-2.17-.97-2.98-1.75-3.94-3.86-8.47-6.88-13.19-9.68-8.8-5.2-18.04-9.17-28.2-10.85-2.47-.41-5-.86-7.3-1.8C205.02.37 194.95-.45 184.64.2c-6.52.41-12.68 2.26-18.74 4.57-8.46 3.22-16.94 6.38-25.41 9.57-.5.19-.96.48-1.45.71-3.71 1.8-7.43 3.6-11.15 5.39-10.47 5.04-20.65 10.51-29.15 18.62-.37.35-.96.82-1.34.74-1.26-.26-1.84.57-2.42 1.32-1.81 2.33-3.74 4.6-5.29 7.1-3.53 5.72-7.21 11.4-10.2 17.4-3.95 7.94-7.44 16.13-10.83 24.33-2.19 5.29-3.94 10.78-5.76 16.22-.96 2.88-1.68 5.84-2.47 8.78-.4 1.47-.73 2.95-1.09 4.43-.62 2.53-1.35 5.03-1.82 7.59-.76 4.14-1.31 8.32-2.03 12.47-1.14 6.66-1.53 13.36-1.22 20.1.04.85-.01 1.85-.42 2.56-1.71 2.98-2.8 6.17-3.82 9.44-.97 3.1-1.28 6.13-.45 9.18 1.29 4.75 2.69 9.49 4.28 14.15 3.09 9.09 6.27 18.14 9.57 27.16 1.69 4.62 3.76 9.11 5.54 13.7.32.81.23 1.93-.03 2.79-.57 1.88-1.47 3.66-2.05 5.54-1.81 5.81-3.81 11.54-6.38 17.06-2.31 4.95-4.38 10.02-6.82 14.91-2.72 5.45-5.71 10.77-8.65 16.1-3.22 5.84-7.13 11.19-11.36 16.33-5.67 6.89-12.36 12.75-18.86 18.81-4.69 4.38-9.62 8.45-14.81 12.17v7.5c5.15-3.26 10.13-6.78 14.71-10.89 1.24-1.12 2.66-2.05 4.48-3.43-.56 4.91-1.17 9.19-1.51 13.5-.34 4.3-.45 8.62 1.44 12.8.59-3.77 1.19-7.55 1.79-11.32.06-.35.07-.72.17-1.06 2.03-6.77 3.2-13.79 6.13-20.3.68-1.5 1.45-2.83 2.61-4 6.35-6.49 12.25-13.36 17.28-20.94 1.24-1.87 2.44-3.77 3.71-5.62.31-.46.83-.79 1.46-1.37.92 3.23 1.79 6.13 2.56 9.06 3.01 11.48 7 22.61 11.79 33.46 5.25 11.88 10.48 23.76 15.86 35.58 2.56 5.62 5.23 11.2 8.2 16.61 3.92 7.14 8.19 14.1 12.28 21.15 3.51 6.04 6.7 12.29 10.55 18.1 4.94 7.47 10.42 14.58 15.61 21.88 1.06 1.5 2.7 2.66 2.87 4.73.02.28.4.55.64.79.75.74 1.6 1.41 2.26 2.22 3.55 4.4 6.93 8.95 10.61 13.23h5.03c-3.64-4.3-7.28-8.69-10.68-13.89 5.66.29 10.97 1.77 16.23-1.5-2.56-.76-4.8-1.14-7.08-1.18-3.14-.05-6.29-.08-9.42.04-1.5.06-2.51-.42-3.41-1.61-5.9-7.78-11.99-15.42-17.73-23.32-2.84-3.9-5.07-8.24-7.56-12.39-3.37-5.61-6.82-11.18-10.06-16.86-3.69-6.46-7.37-12.93-10.71-19.58-3.01-6-5.36-12.34-8.34-18.36-4.21-8.52-8.05-17.2-11.7-25.97-3.48-8.36-6.75-16.8-9.22-25.53-1.44-5.09-2.75-10.21-4.02-15.34-.58-2.35-.95-4.74-1.35-7.12-.08-.5-.02-1.12.21-1.56 2.61-4.9 5.27-9.77 8.05-14.9.54.71 1.02 1.14 1.24 1.67 2.92 7.01 7.13 13.26 11.51 19.4 4.37 6.12 8.58 12.39 13.29 18.25 4.32 5.37 9.09 10.39 13.89 15.34 5.68 5.85 11.62 11.46 17.45 17.17 5.92 5.8 12.49 10.77 19.42 15.3 4.43 2.89 8.61 6.16 13.03 9.06 4.12 2.7 8.22 5.58 12.69 7.56 3.26 1.45 6.05 3.39 9.05 5.22-1.16 1.01-2.13 2.03-3.26 2.81-1.45 1.01-2.94 2.17-4.59 2.65-1.72.5-2.91 1.36-3.73 2.8-2 3.5-4.04 6.98-5.87 10.57-2.57 5.03-4.97 10.15-7.43 15.23-3.27 6.76-7.85 12.39-14.09 16.64-2.3 1.57-4.55 3.21-6.81 4.83-.44.31-.87.64-1.25 1.02-1.28 1.25-1.48 2.21-.79 3.31.88 1.41 1.99.77 3.08.38.67-.24 1.33-.49 2-.73l-.09.09c.67-.56 1.29-1.2 2.02-1.66 4.51-2.82 8.9-5.81 12.2-10.05 1.81-2.32 3.3-4.9 4.93-7.37.47-.71.9-1.44 1.52-2.43.59.84 1 1.3 1.29 1.83 2.71 5.16 5.4 10.33 8.1 15.5.54 1.03 1.06 2.08 1.58 3.12.42.83.99 1.49.75 2.68-.16.82.79 1.85 1.33 2.98-1.45 3.14-3.06 6.45-4.52 9.81-1.85 4.28-3.63 8.59-5.36 12.92-.4 1.02-.6 2.12-.83 3.2h5.54c.8-3.4 2.16-6.65 3.38-9.94.65-1.77 1.38-3.51 2.13-5.24.2-.45.6-.8 1.18-1.56.28 1.25.53 2.08.64 2.92.24 1.87.4 3.74.63 5.61.23 1.92-.04 3.69-.81 5.5-.38.89-.72 1.79-1.05 2.7h19.61c.58-1.3 1.2-2.59 1.6-3.94.84-2.79 1.9-5.39 4.03-7.49.62-.61 1.01-1.48 1.41-2.28 3.62-7.21 7.25-14.42 10.83-21.65 4.88-9.86 7.91-20.37 10.75-30.94.34-1.28.37-2.66.45-4 .19-3.31.05-6.66.55-9.91 1.21-7.89 2.74-15.72 4.06-23.59.38-2.27.48-4.58.69-6.71 3.03-.68 5.91-1.33 8.79-1.99 1.74-.4 3.21-1.33 4.17-2.77 1.6-2.37 3.2-4.78 4.44-7.34 1.6-3.3 2.84-6.78 4.26-10.17.37-.88.84-1.71 1.34-2.71 2.08 1.09 3.87 2.11 5.72 2.98 1.47.7 2.46 1.81 3.04 3.25 1.68 4.15 3.36 8.31 4.91 12.51.98 2.67 1.72 5.43 2.56 8.14l.53-.15c-1.89-6.92-3.79-13.83-5.77-21.08 1.21.41 1.98.64 2.72.93 9.94 3.86 19.89 7.74 30.23 10.46 4.28 1.13 8.28 3.24 12.79 3.52.08 0 .16.08.25.09 7.01 1.48 13.99 3.16 21.05 4.37 5.29.9 10.68 1.18 16.03 1.74 2.23.23 4.45.57 6.69.67 4.3.21 8.61.24 12.92.43 2.56.11 5.03.05 7.06-2.35 1.03.97 2.07 1.68 2.77 2.65 3.44 4.82 6.7 9.77 9.22 15.16 5.6 12.01 9.2 24.66 11.67 37.63 1.67 8.78 4.23 17.25 8.15 25.28 3.93 8.06 7.84 16.14 12.05 24.05.94 1.76 1.97 3.47 3.02 5.17h4.71c-2.95-5.87-5.86-11.75-8.84-17.6-1.91-3.75-4.06-7.39-5.84-11.21Zm-97.63-328.41h-.38c-.32-3.34-.67-6.68-.93-10.03-.04-.46.39-.96.71-1.7 1.22.42 2.36.82 3.81 1.32-1.1 3.55-2.15 6.98-3.21 10.41Zm5.27-7.43v-2.23c.11 0 .23 0 .34-.01.03.74.06 1.48.1 2.22-.14 0-.29.01-.44.02Zm-15.63-40.37c3.97-.8 7.99-.52 12-.67 3.4-.13 4.91 1.79 6.17 3.86 3.53 5.8 5.73 12.07 6.01 19.01.19 4.69-1.33 8.71-3.79 13.17 0-2.74.12-4.91-.03-7.07-.24-3.47-.24-7.04-1.1-10.37-1.49-5.77-5.86-9-11.3-10.89-.9-.31-1.84-.53-3.03-.87 2.85-1.88 6.31-1.38 9.22-3.57-4.19-2.18-8.23-1.96-12.15-1.45-3.93.5-7.79 1.62-12 2.54 3.31-1.84 6.56-3 9.98-3.68Zm8.15 16.29c-2.26-.74-4.19-1.38-6.11-2.01.1-.29.21-.58.31-.87 1.88.75 4.64-.86 5.81 2.88Zm-12.21 4.86c5.53-2.07 8.43-1.9 12.11 3.82l-12.11-3.82Zm16.3 9.79c1.26.85 1.89 2.62 2.81 3.98-.17.16-.35.32-.53.48-4.06-2.29-8.11-4.58-12.56-7.09 3.94-.08 7.35.65 10.27 2.63Zm-8.38 16.25c-1.61-4.25-1.05-8.45-.14-12.99 1.49.44 2.72.81 4.26 1.27-2.44 3.75-3.77 7.56-4.12 11.72Zm-91.86-57.39c2.81.23 5.54 1.35 8.36 1.78 4.24.65 7.11 3.48 10.8 6.14-12.33-2.92-24.2-4.91-36.33-5.72 1.13-.9 2.43-1.2 3.78-1.43 4.44-.78 8.93-1.14 13.4-.77Zm-14.97-6.58c0 .16.01.31.02.47l-3.21.18c-.02-.22-.03-.43-.05-.65h3.25Zm54.52-10c1.5 1.11 3.15 2.01 4.64 3.13.58.43 1.22 1.17 1.3 1.83.83 7.49 1.53 14.99 0 22.49-.01.05-.13.08-.51.3-1.4-10.68-3.9-20.78-10.47-29.83 2.18.17 3.62 1.03 5.03 2.08Zm31.56 4.51c.17-2.2.04-4.43.04-7.13 6.73 3.71 12.87 7.27 17.87 12.6-4.25-1.11-7.74.94-11.57 2.68.49-2.15.94-4.02 1.34-5.89.44-2.06-1.05-3.46-1.81-5.67-2.35 3.65-4.43 6.89-6.52 10.13-.12-.04-.23-.08-.35-.12.35-2.2.84-4.38 1.01-6.6Zm-4.74-10.79c-.77.56-1.29.75-1.47 1.11-.22.45-.15 1.03-.2 1.56-.26 2.84-.48 5.69-.79 8.52-.1.94-.45 1.86-.69 2.79h-.67c-.21-6.15.02-12.43-4.58-17.54 2.68 1.13 5.35 2.27 8.4 3.56Zm-15.56-8.73c1.79 1.4 3.36 2.63 4.93 3.85-.21 1.89-.41 3.71-.61 5.53-.19.01-.38.02-.58.04-1.29-2.75-2.59-5.49-3.86-8.24-.09-.19.04-.49.12-1.17ZM82.06 144.21c-.46-.18-1.1-.43-1.72-.68.2-1.31 6.48-4.46 8.55-3.71-2.21 1.42-4.41 2.84-6.83 4.39Zm20.08 27.5c-.56.21-1.16.31-1.87.5-.05-.73-.09-1.32-.15-2.03 1.53-.18 2.97-.58 4.79.3-1.18.53-1.96.92-2.77 1.23Zm33.46-59.56c-9.46 4.07-18.2 9.8-28.76 11.65 1.08-.6 2.13-1.25 3.24-1.78 7-3.36 14.01-6.68 21.01-10.03 1.95-.93 3.71-2.08 4.51-4.89v5.06Zm-1.17-11.31c.72-.69 1.31-1.25 2.06-1.98q.08 2.22-2.06 1.98Zm3.22-5.53c-2.93-.09-5.53.9-8.1 1.89-4.51 1.75-8.97 3.61-13.45 5.45-3.23 1.33-6.43 2.7-9.66 4.04-1.46.61-2.92 1.2-4.55 1.4 3.18-1.48 6.37-2.94 9.54-4.44 1.93-.91 3.84-1.88 5.76-2.82.88-.43 1.76-.88 2.66-1.28 3.18-1.42 6.43-2.7 9.54-4.26 1.9-.95 3.62-2.27 5.39-3.49.32-.22.45-.71.67-1.08-.12-.19-.25-.39-.37-.58-12.68 3.9-25.4 7.69-37.25 13.91-.09-.19-.17-.37-.26-.56 1.73-1.07 3.43-2.2 5.21-3.19 5.4-3 10.79-6 16.26-8.87 2.29-1.2 4.76-2.07 7.16-3.07 1.28-.54 2.53-.95 3.73-1.84 1.17-.86 3.19-1.57 4.75-.55 1.28.84 2.17.37 3.2-.19.84-.45 1.66-.93 2.91-1.64-1.15 4.08-2.16 7.65-3.14 11.17Zm5.38-22.98c.06-.19.11-.38.17-.57 1.29.42 2.59.84 4.2 1.37-2.17 1.54-3.02-.58-4.38-.8Zm11.76-1.96c-2.87 1.4-4.23 1.61-5.79.9 1.97-.97 4.04-.31 5.79-.9.3-.15.61-.3.95-.47-.3.22-.62.36-.95.47Zm-95.95 80.48c1.25-10.25 3-20.39 5.38-30.45 2.63-11.12 6.23-21.89 10.22-32.57.63-1.68 1.28-3.36 1.72-5.09.63-2.5 2.58-4.34 3.06-7.02.46-2.58 1.89-5.02 3.02-7.46 1.66-3.58 3.44-7.1 5.15-10.65 1.01-2.1 2.11-4.17 2.96-6.34 1.57-3.98 4.16-7.07 7.69-9.42 5.59-3.73 11.18-7.47 16.76-11.21 5.16-3.46 10.72-6.18 16.35-8.76 10.84-4.96 21.7-9.89 32.56-14.8 1.36-.61 2.69-1.49 4.34-.87.28.11.73-.04 1.03-.21 2.44-1.38 5.11-1.51 7.82-1.57.98-.02 1.97-.16 2.94-.34 6.86-1.22 13.75-1.25 20.65-.52 1.96.21 3.91.55 5.84.95.92.19 1.79.64 2.68.97-.03.19-.06.38-.09.56-3.22.06-4.67 1.99-5.22 4.77q-2.58.81-4.28 3.62c-2.3-.32-4.68-.7-7.06-.97-2.7-.31-5.37-.1-7.95.86-.3.11-.56.35-1.08.68l5.09 2.18c0 .15.02.31.02.46-1.08.13-2.18.18-3.24.4-1.92.4-3.86.77-5.71 1.38-1.45.48-1.94 1.69-1.6 3.39h7.46c.01.15.02.3.04.45-1.7.47-3.4.94-5.09 1.43-.69.2-1.39.39-2.03.69-3 1.38-3.11 1.25-6.17 1.44-4.2.26-8.43.55-12.56 1.29-5.82 1.04-11.64 2.24-17.31 3.86-6.27 1.79-12.37 4.14-18.55 6.25-.74.25-1.46.52-2.26.63 4.33-2.86 8.87-5.28 13.69-7.14 5.1-1.97 10.2-3.95 15.39-5.65 2.96-.97 6.11-1.33 9.15-2.09 4.42-1.12 9-1.58 13.22-3.49 1.04-.47 2.27-.48 3.41-.74.83-.19 1.66-.43 2.49-.65 0-.19.01-.37.02-.55-.51-.18-1.02-.48-1.54-.51-10.75-.62-21.29.37-31.6 3.7-11.04 3.56-21.12 8.83-30.31 15.89-2.21 1.69-4.09 3.79-5.28 5.98.85-.19 1.49-.29 2.11-.48.66-.2 1.29-.47 2.11-.4-1.22.97-2.49 1.89-3.64 2.93-1.78 1.63-3.73 3.16-5.13 5.08-1.32 1.81-2.93 2.77-4.94 3.36-.48.14-.93.36-1.52.59.55 1.2 1.42 1.21 2.31 1.11.92-.11 1.75-.18 2.41.71.84 1.13 1.79.88 2.79.12.62-.47 1.36-.79 2.13-1.23 2.31 2.59 5.06 2.93 8.18 2.37 9.88-1.78 19.09-5.48 28.07-9.79 1.28-.61 2.55-1.42 3.53-2.43 1.69-1.73 3.71-2.83 5.95-3.51 4.03-1.21 8.1-2.32 12.15-3.44 4.84-1.34 9.76-2.43 14.51-4.02 4.07-1.36 8.08-1.37 12.57-.68-1.11.31-1.86.57-2.64.73-.79.16-1.61.16-2.4.32-7.92 1.65-15.68 3.85-23.17 6.91-6.13 2.5-12.14 5.23-17.63 9.03-4.59 3.18-8.27 7.11-11.04 11.94-.22.38-.48.74-.79 1.2-1.87-.45-3.68-.9-5.49-1.33-10.37-2.47-20.61-2.11-30.79 1.11-4.47 1.41-7.9 4.14-10.86 7.6-.16.18-.17.49-.4 1.19 4.76-1 9.33-1.67 13.72-2.94 6.11-1.77 12.28-2.62 18.59-2.17 3.45.24 6.87.81 10.31 1.23 0 .19-.02.38-.03.57-1.5.07-2.99.2-4.49.2-9.11 0-18.05 1.18-26.76 3.94-5.43 1.72-9.82 5.11-14.16 8.59-.1.08-.09.32-.17.65 1.88.42 3.82-.99 5.96.19-3.29 2.52-6.52 4.85-8.88 8.04.12.19.23.37.35.55.73-.34 1.44-.78 2.2-.98.84-.22 1.74-.22 2.88.1-.67.65-1.32 1.33-2.02 1.95-3.71 3.26-7.62 6.3-10.48 10.41-.51.74-1.07 1.45-1.52 2.22-1.94 3.42-3.88 6.85-5.75 10.32-.46.84-.64 1.83-1.02 2.97.87.47 1.61.87 2.48 1.35-1.07 1.6-2.21 3.2-3.24 4.87-.8 1.3-1.58 2.63-2.14 4.03-.86 2.16-.22 2.83 2.35 2.5-.8 1.89-1.58 3.72-2.41 5.66.9.53 1.55.91 2.18 1.29q-2.21 4.92-.12 7.12c-.22 1.21-.44 2.42-.68 3.63-.05.25-.11.56-.28.73-2.02 1.97-4.07 3.93-6.11 5.89-.2-.08-.4-.17-.59-.25.08-1.46.07-2.94.25-4.39Zm105.8 220.07c-8.05-5.06-16.07-10.18-24.09-15.29-6.15-3.92-11.85-8.42-17.15-13.42-5.42-5.11-10.82-10.25-16.08-15.52-4.24-4.25-8.29-8.71-12.38-13.11-1.04-1.12-1.93-2.37-2.85-3.58-3.58-4.71-7.17-9.41-10.7-14.16-6.1-8.23-11.54-16.87-15.86-26.18-.26-.57-.29-1.41-.08-2.01 2.49-6.92 5.04-13.81 7.59-20.7.15-.4.43-.74.73-1.24 1.29.64 2.52 1.15 3.64 1.85.47.3.85.94.99 1.5.48 1.9.91 3.82 1.22 5.76.36 2.25 1.07 3.16 3.35 3.41 2.93.32 5.88.5 9.01.75.21.95.46 1.79.57 2.65.32 2.4.61 4.81.88 7.22.14 1.22.5 2.42-.38 3.62-.28.38-.05 1.4.26 1.94 2.48 4.26 4.74 8.69 7.64 12.66 5.72 7.82 11.82 15.36 17.72 23.05 2.24 2.92 4.28 5.99 6.54 8.89 2.76 3.53 5.98 6.74 8.43 10.46 5.76 8.73 12.93 16.31 19.34 24.5 2.59 3.31 5.7 6.21 8.57 9.3 2.75 2.96 5.49 5.92 8.23 8.88.22.24.35.57.66 1.08-2.44 0-4.12-1.25-5.81-2.32Zm9.26 68.66c-.04 1.67-1.08 1.51-2.07 1.2.05-13.94-3.77-26.28-11.13-37.73 1.24-2.13 2.22-4.55 4.63-6.32.58.56 1.27 1.01 1.67 1.64 3.58 5.76 6.39 11.85 6.79 18.73.22 3.74-.07 7.52-.08 11.28 0 1.42.16 2.85.18 4.27.04 2.31.08 4.63.02 6.94Zm28.6-7.97c-1.53 3.34-3.11 6.66-4.64 10-.48 1.05-1.21 1.67-2.3 2.07-2.95 1.07-5.86 2.22-8.78 3.36-.57.22-1.1.54-1.64 1.3.5.05 1.07.29 1.47.12 2.23-.93 4.43-1.96 6.64-2.94.78-.34 1.59-.64 2.54-1.01-.64 2.79-6.96 15.57-8.33 16.9-2.43-5.46-1.77-11.72-4.66-17.1.75-1.43 1.57-2.91 2.31-4.43 1.92-3.94 3.79-7.91 5.72-11.86.43-.88 1-1.7 1.53-2.53.53-.81 1.26-.97 2.1-.51 2.8 1.54 5.6 3.09 8.61 4.76-.16.55-.27 1.24-.55 1.86Zm-7.44-11.43c.43-.86.57-1.85 1.79-2.08.42 1.33.81 2.56 1.28 4.04-1.62 0-2.26-1.02-3.07-1.95Zm22.62-53.94c-1.62 9.45-2.85 18.96-4.22 28.45-1.19 8.2-3.87 16.19-5.97 24.24-.51 1.95-.96 3.97-2.55 5.84-2.12-3.96-4.87-7.23-6.34-11.36-1.95-5.48-4.2-10.86-6.58-16.16-1.7-3.78-4.44-6.92-7.37-9.81-1.18-1.16-2.83-1.82-4.19-2.81-.92-.67-1.71-1.51-2.74-2.45 1.22-.64 2.15-1.13 3.25-1.72-.86-1.77.55-2.63 1.63-3.63 3.41-3.17 6.86-6.29 10.22-9.52 2-1.92 3.93-3.93 5.75-6.01 1.47-1.69 3.07-2.43 5.39-2.14 3.64.44 7.33.53 10.99.79.97.07 1.94.23 3.37.4-.23 2.19-.33 4.05-.64 5.88Z"/><path d="M371.69 435.44c-.29-4.74-.52-9.5-1.26-14.17-1.43-8.96-4.22-17.59-6.97-26.21-.73-2.27-1.96-4.37-2.97-6.55.06.64.06 1.31.26 1.91 2.68 7.92 4.36 16.08 5.71 24.31 1.94 11.85 2.28 23.85 3.26 35.79.28 3.36.79 6.66 2.35 9.81.36-.8.64-1.62.66-2.45.03-1.34-.11-2.69-.17-4.03-.28-6.14-.48-12.28-.86-18.41ZM360.42 388.36s.05.09.07.14c0-.06 0-.12-.02-.18l-.05.04ZM56.77 370.18c-10.23 7.12-20.19 14.57-28.91 23.53-1.68 1.73-3.29 3.56-4.71 5.5-1.38 1.88-1.16 2.77.54 4.63 1.58-1.8 3.02-3.77 4.78-5.37 5.48-5 11.02-9.95 16.67-14.75 3.89-3.3 7.98-6.35 11.34-10.24.85-.98 1.45-1.97 1.34-3.62-.56.16-.84.17-1.04.31ZM39.28 438.95c-2.87-3.88-5.54-7.92-8.21-11.95-3-4.52-5.03-9.47-6.45-14.7-.63-2.33-1.57-4.53-3.48-6.28 1.72 4.68 3.41 9.38 5.19 14.04.67 1.75 1.33 3.56 2.34 5.11 5.44 8.33 10.7 16.8 16.6 24.8 4.72 6.4 10.17 12.28 15.48 18.23.9 1 1.83 1.97 2.78 2.93h2.42c-4.36-4.73-8.82-9.37-12.92-14.31-4.8-5.78-9.28-11.84-13.75-17.88ZM20.13 365.55c-.85.21-1.76.19-2.64.27 2.92 2.27 5.9 3.77 9.47 3.59 1.51-.08 3.04-.04 4.55-.02 5.97.06 11.94 1.23 18.04-.39-2.48-.68-4.94-1.45-7.44-2.01-7.24-1.62-14.49-3.28-21.98-1.45ZM259.77 375.12c-7.7.21-15.02 2.11-22.2 4.75-1.2.44-1.16 1.11-.96 1.98 1.32.28 2.49.53 3.59.77.47-.37.9-.96 1.43-1.08 4.45-.96 8.91-1.94 13.4-2.68 2.35-.38 4.78-.27 7.17-.43.54-.04 1.08-.28 1.62-.43-.18-.63-.17-1.44-.58-1.86-.91-.95-2.12-1.06-3.46-1.03ZM259.46 420.46c-2.79 6.33-10.69 30.75-16.75 50.67h2.18c9.87-28.71 23.71-71.29 24.44-74.92.2-1.01-1.81 0-9.86 24.25ZM355.61 379.63l1.74 2.58c.16-.1.32-.2.48-.31-.57-.86-1.15-1.72-1.73-2.59-.16.11-.33.21-.49.32Z"/><path d="m360.42 388.36.05-.04c-.05-.08-.09-.16-.14-.24l.09.28ZM358.67 385.12c.56.99 1.11 1.97 1.67 2.96-.34-1.09-.67-2.17-1.01-3.26-.22.1-.44.2-.65.3ZM360.42 388.36l.02-.02-.02.02ZM360.44 388.34l.03-.02-.03.02Z"/><path class="i" d="M289.27 57.48h.11l-.05-.06-.06.07ZM309.45 106.48c.15 0 .29-.01.44-.02-.03-.74-.07-1.48-.1-2.22-.11 0-.34 1.5-.34 2.24Z"/><path d="M215.45 153.5c-3.97-2.44-8.01-4.79-12.18-6.83-5.87-2.88-11.81-5.66-17.87-8.07-3.39-1.35-7.01-1.77-10.72-.24-3.72 1.53-7.69 2.42-11.48 3.77-6.87 2.44-13.54 5.32-19.04 10.29-1.25 1.13-2.26 2.53-3.27 3.89-.22.3-.14 1.14.13 1.4.26.26 1.04.3 1.41.1 1.1-.6 2.11-1.36 3.14-2.07 4.76-3.26 9.64-6.28 15.32-7.67 2.87-.71 5.78-1.34 8.7-1.79.96-.15 2.1.2 3.02.62 4.07 1.85 8.07 3.86 12.14 5.72 3.83 1.76 7.76 3.29 11.55 5.13 5.08 2.47 10.07 5.12 15.07 7.74.82.43 1.57 1.07 2.2 1.75 1.37 1.49 2.62 1.95 4.52 1.03 2.17-1.06 4.19-2.38 6.28-3.6 2.28-1.34 3.04-3.88 4.53-5.84.3-.4.18-1.11.33-2.18-2.12 1.11-3.83 2-5.4 2.82-2.97-2.14-5.55-4.24-8.35-5.97ZM245.9 277.46c-.2.73-.4 1.47-.66 2.45-1.86 0-3.72.05-5.58-.01-2.68-.1-5.36-.48-8.04-.4-4.78.14-9.42-.32-14.05-1.66-12.16-3.52-24.64-5.51-37.1-7.6-4.06-.68-8.13-1.32-12.19-2.05-1.01-.18-2.13-.4-2.53-1.79 1.74-1.08 3.17-2.37 2.81-4.79-2.81-.04-5.59-.18-8.02 1.56-1.22.87-1.68 3.09-.96 4.36.54.96 1.47 1.08 3.34.41.24-.09.49-.14.84-.24.38.51.74 1 1.12 1.48 2.38 3.04 4.63 6.18 7.18 9.06 2.37 2.68 5.21 4.95 7.57 7.64 4.24 4.84 9.39 7.92 15.69 9.23 3.07.64 6.11 1.45 9.11 2.36 5.88 1.8 11.8 2.88 18 2.05 2.34-.32 4.29-1 5.95-2.68 1.04-1.06 1.94-2.3 3.63-2.59.54-.09 1.04-.91 1.39-1.5 2.13-3.51 4.22-7.04 6.37-10.65.81.13 1.5.3 2.2.35 1.34.09 2.69.22 4.02.12 1.22-.09 2.39-1.65 2.37-2.86-.01-1.32-.61-1.89-2.46-2.25Zm-13.2 13.17c-.45.81-1.58 1.55-2.52 1.73-4.67.88-9.42 1.59-14.13.78-7.06-1.21-14.05-2.77-21.07-4.18-2.98-.6-5.95-1.26-8.94-1.83-2.18-.41-3.81-1.71-5.64-2.87-4.46-2.84-7.29-7.07-10.44-11.06-.44-.56-.79-1.2-1.13-1.82-.11-.2-.07-.48-.1-.67 7.19 1.17 14.33 2.34 21.47 3.48 8.47 1.36 16.95 2.69 25.43 4.04.53.08 1.27.07 1.52.4 1.48 1.95 3.7 1.54 5.63 1.81 4.5.64 9.04 1.06 14.1 1.63-1.5 3.11-2.71 5.91-4.19 8.55ZM83.04 188.64c1.59-1.45 3.46-2.19 6.07-2.52-.68-2.88-1.25-5.48-1.91-8.06-1.1-4.25-2.25-8.48-3.4-12.71-.45-1.64-.88-3.29-1.43-4.9-1.53-4.41-6.69-4.96-9.47-2.57-1.97 1.69-3.74 3.61-5.53 5.49-.58.61-.91 1.45-1.65 2.65 2.84.02 4.38-1.41 5.9-2.8 1.63-1.49 3.21-3.04 5.08-4.83.77 2.59 1.5 4.69 1.99 6.85.28 1.21.02 2.32-1.33 3.09-5.38 3.05-9.83 7.22-13.61 12.06-1.07 1.37-1.98 3.11-2.25 4.8-.96 5.98-.33 11.82 2.49 17.29 1.2 2.33 2.67 4.48 5.3 6.48-.6-1.4-.88-2.25-1.3-3.03-2.01-3.66-3.23-7.54-3.79-11.69-.84-6.18.33-11.7 5.21-15.87 3.44-2.94 7.15-5.56 10.83-8.39 2.39 4.99 4.73 9.87 7.12 14.85-2.73.42-4.6 1.92-6.37 3.61-1.86 1.77-2.65 3.81-1.57 6.29 1.32 3.04 2.68 6.06 3.99 9.1.31.73.69 1.49.73 2.26.08 1.52-.06 3.04-.1 4.56-.08 3.03-.93 3.77-3.77 2.88-1.13-.35-2.19-1.17-3.07-2-.8-.76-1.31-1.83-2.07-2.94.02 4.22 3.41 7.96 7.37 8.4 3.65.4 6.34-1.97 6.26-5.65a9.331 9.331 0 0 0-.62-3.14c-.76-1.91-1.69-3.76-2.58-5.62-1.31-2.75-2.74-5.45-3.93-8.25-1.12-2.63-.7-3.74 1.43-5.68ZM280.7 180.84c-2.38-2.33-5.49-3.34-8.92-2.61-2.1.44-4.17 1-6.27 1.43-2.48.51-4.83 1.26-6.95 2.72-.79.55-1.79.81-2.65 1.26-4.11 2.16-7.86 4.68-9.31 9.47-.24.78-.63 1.54.36 2.09 2.24-3.97 6.24-7.41 8.87-7.58-2.91 3.87-3.01 7.82-.04 12.15-2.78-.61-5.09-1.12-7.4-1.63-.1.15-.2.3-.3.46.67.61 1.23 1.5 2.02 1.78 3.27 1.16 6.56 2.35 9.93 3.12 4.51 1.02 9.05.52 13.56-.38 2.21-.44 4.48-.61 6.37-1.91 2.25-1.54 4.38-3.24 6.63-4.92-.02-3.08 0-6.21-1.27-8.94-1.11-2.38-2.75-4.67-4.63-6.51Zm-19.25 19.61c-.35-.05-.71-.14-1.06-.12-2.58.16-4.28-1.16-5.28-3.35-1.07-2.36-.82-4.72.63-6.88 2.16-3.2 5.14-4.07 8.42-2.39-1.12.97-1.37 2.75-3.29 2.79-1.78.04-2.52 1.35-2.78 2.8-.22 1.25-.66 2.74.69 3.74 1.44 1.07 3.03 1.57 4.77.75.48-.22 1.12-.51 1.28-.92.66-1.71 2.18-2.1 3.83-2.71-.28 4.58-3.06 6.92-7.21 6.3Zm4.37-12.37c.96 1.07 1.87 2.08 2.74 3.05-.8 1.65-1.73 2.73-3.37 2.46-.62-.1-1.45-.81-1.63-1.4-.55-1.83.65-2.93 2.26-4.12Zm1.02 12.75c3.11-3 4.38-6.5 2.53-10.32-1.99-4.11-5.64-5.57-10.35-4.73.34-1.34 1.35-1.53 2.14-1.94 2.79-1.44 5.88-1.44 8.89-1.82.97-.12 1.98-.04 2.96-.13 3.67-.36 6.13 1.51 8.07 4.33 2.02 2.94 3.23 6.18 3.55 9.92-5.34 3.17-10.57 6.81-17.8 4.69ZM227.82 309.16c-.31.17-.69.34-.85.62-1.81 3.29-4.33 3.36-7.85 2.77-8.11-1.37-16.33-2.07-24.52-2.91-2.98-.3-5.57-1.13-7.53-3.53-.78-.95-1.74-1.73-3.56-1.73 2.06 3.67 5.35 5.62 8.25 7.94-.09.17-.18.35-.27.52-1.68-.11-3.36-.22-5.43-.37.54.73.75 1.29 1.15 1.52 2.82 1.57 5.62 3.23 8.96 3.37 8.65.36 17.3.69 25.95.96 1.06.03 2.2-.32 2.53-1.56.19-.72.57-.89 1.21-1.16 2.66-1.12 3.54-3.3 2.68-6.45-.38 0-.59-.06-.73.01Z"/><path d="M191.34 168.04c-2.59-1.94-5.59-2.66-8.51-3.74-3.1-1.14-6.02-1.25-9.09-.02-1.62.65-3.36.98-5.05 1.46-.04-.19-.07-.38-.11-.57 2.53-.86 5.12-1.58 7.57-2.64 2.17-.94 4.25-1.09 6.54-.68 2.2.4 4.46.48 6.69.7-5.6-1.75-11.11-2.98-17.03-1.21-6.08 1.82-11.78 4.31-17.15 7.6-1.28.78-2.34 1.93-3.41 3.01-.58.58-.62 1.29.44 1.78 2.94-1.56 5.96-3.17 8.97-4.77-.76 1.43-1.84 2.43-2.54 3.66-1.38 2.44-1.8 5.62 1.35 7.52 1.9 1.15 3.97 2.03 5.98 2.98.46.22 1.04.19 1.57.27-1.95-1.63-4.04-2.83-6.08-4.1-1.71-1.08-2.04-2.03-.86-3.49 3.22-3.96 6.31-8.17 12.01-8.76 4.11-.42 8.21-.76 12.26.45 6.12 1.83 10.03 5.7 11.21 12.11.15.79.28 1.61.58 2.34.18.41.7.67 1.06 1 .33-.46.97-.95.92-1.37-.13-1.33-.45-2.65-.83-3.94-1.15-3.88-3.2-7.1-6.52-9.6Z"/><path d="M185.47 179.34c1.01-3.73 0-6.91-2.9-9.43-2.75-2.4-5.96-2.79-9.3-1.53-5.16 1.95-7.07 9.09-4.33 13.31 1.49 2.3 2.91 4.01 5.68 4.39.97.13 1.91.47 2.84.78 3.09 1.02 6.24 1.54 9.5 1.33.45-.03.96-.16 1.33 0 2.4 1.06 4.92.64 7.4.68h1.89c0-.25.02-.49.02-.74-5.71-1.24-11.79.17-17.96-2.15 3.17-1.66 5.04-3.75 5.83-6.66Zm-2.01-3.34c-1.38 1.42-2.99 1.33-4.99-.36.29-2.48 1.62-3.65 3.87-3.85 2.15 2.18 2.35 2.94 1.12 4.21Zm-14.24 3.79c-1.41-3.22.19-7.41 2.93-9.29 2.92-2 6.13-1.97 8.92.33-2.08 1.06-4.11 2.09-6.14 3.13-1.69.86-2.77 2.55-2.57 4.06.21 1.64 1.42 2.96 3.06 3.36 2.21.53 3.74-.04 4.89-1.72.32-.46.79-.86 1.28-1.13.85-.48 1.76-.84 2.87-1.35-.46 4.39-2.87 7.37-6.62 7.75-3.63.37-6.89-1.24-8.6-5.14ZM243.87 224.07c-.43-4.81-.99-9.6-1.44-14.4-.29-3.12-.31-6.27-.78-9.36-.51-3.36-1.09-6.67.13-10.41-1.96.75-2.16.84-2.38 2.54-.27 2.12-.27 4.28-.47 6.42-.59 6.19.03 12.34.62 18.48.42 4.35 1.25 8.66 2.06 12.96.73 3.87 1.66 7.7 2.57 11.53.17.71.31 1.69 1.57 1.37.03-.26.12-.51.09-.75-.44-3-1.01-5.99-1.33-9.01-.33-3.11-.36-6.25-.64-9.37ZM245.03 244.54c-.59.3-1.3.47-1.74.92-2.12 2.16-4.11 4.46-6.27 6.59-1.53 1.51-3.23 2.84-4.88 4.21-1.15.96-2.08 2.25-3.8 2.34-.34.02-.76.47-.96.83-.19.33-.31.89-.14 1.17.17.29.71.48 1.09.49.6.02 1.24-.3 1.81-.2 4.81.86 8.97-.92 13.01-3.14 1.1-.61 1.93-1.56 2-2.98.12-2.32.3-4.64.47-7.23 0-.27.08-.82-.02-1.34-.11-.57-.37-1.11-.57-1.66ZM111.04 212.01c-1.45-3.07-2.91-6.14-4.43-9.18-1.59-3.2-3.25-6.37-4.9-9.54-.38-.74-.83-1.44-2.12-.87.06.59.01 1.3.21 1.93.99 3.06 2.05 6.11 3.09 9.16 1.79 5.28 4.17 10.3 7.05 15.07 1.43 2.37 3.12 4.54 6.19 6.24-.1-1.17 0-1.83-.22-2.34-1.58-3.51-3.22-6.99-4.86-10.47ZM150.92 137.63c1.29-.5 2.4-.78 3.38-1.32 6.9-3.82 14.4-5.79 22.06-7.31.98-.19 1.88-.73 3.12-1.22-6.43-2.26-24.57 4.05-28.56 9.85ZM78.3 186.14c-2.62 3.96-3.66 8.47-4.62 12.98-.45 2.11.97 3.88 3.23 4.74-.09-1.82-.37-3.67-.25-5.5.28-4.46 1.68-8.55 4.43-12.14.36-.46.4-1.16.63-1.88-1.78-.01-2.64.61-3.42 1.79ZM220.9 251.92c-1.95-.24-3.93-.31-5.85-.68-1.87-.36-3.26.2-4.59 1.48-1.3 1.25-1.5 1.67-.84 2.9.68 1.27 1.75 1.44 2.97 1.05 1.1-.35 2.25-.67 3.25-1.21 2.53-1.38 5.08-2.52 8.15-1.65-.67-1.46-1.87-1.74-3.09-1.89ZM148.34 246.14c-.7.65-1.26 1.34-.2 2.5 2.58-1.01 4.48-2.76 6.3-4.6 1.76-1.79 3.58-3.53 5.22-5.43 1.63-1.88 3.91-3.24 4.78-5.77-3.17 2.2-6.25 4.49-9.18 6.95-2.4 2.01-4.63 4.23-6.93 6.36ZM186.27 118.46c-1.89-.78-3.86-1.57-5.87-1.8-6.08-.7-11.7 1.07-17.07 3.77-.27.13-.42.47-1.08 1.24 1.61-.48 2.63-.72 3.6-1.09 4.8-1.82 9.76-2.28 14.82-1.77 2.48.25 5.02.48 7.16 2.61.56-1.85-.59-2.56-1.57-2.97ZM204.59 237.14c-1.09.4-2.12 1.09-3.23 1.29-1.8.33-2.83 1.49-3.7 2.86-1.6 2.54-2.16 5.35-1.54 8.26.29 1.35 1.06 2.65 1.84 3.83.27.42 1.2.4 1.83.58.09-.56.32-1.14.23-1.66-.1-.6-.55-1.13-.73-1.72-.42-1.45-.99-2.91-1.1-4.39-.25-3.26 1.68-5.87 4.73-6.81 1.2-.37 2.41-.7 3.59-1.12.34-.12.59-.49 1.02-.87-1.1-.88-2.05-.58-2.94-.25ZM212.13 234.96c.83-1.15 1.99-1.97 2.9-2.99 1.18-1.33 2.21-2.79 3.21-4.25.46-.68.64-1.52-.19-2.01-2.41 2.84-4.8 5.66-7.33 8.64l1.11 2.07c2.17-.74 4.16-1.29 6.04-2.1 2.71-1.16 3.84-3.99 2.82-7.53-1.41 4.64-5.3 6.05-8.56 8.19ZM181.2 193.99c-5.63-2.11-11.56-2.97-17.45-4 5.55 2.48 11.13 4.83 17.45 4ZM150.66 249.64c.35-.21.73-.4 1.06-.65 3.6-2.66 7.21-5.3 10.77-8.01.99-.75 2.09-1.51 2.16-3.05-4.97 3.54-10.15 6.76-14.44 11.1.15.2.3.41.46.61ZM254.43 181.94c6.66-2.64 13.32-5.28 20.72-4.6-6.74-1.63-17.23.73-20.72 4.6ZM211.64 189.47c-.78 1.7-2.29 3.07-3.48 4.59 4.4-.23 6.73-5.16 4.55-10.35-.38 2.21-.34 4.16-1.08 5.76ZM258.77 265.62c-.12-2.66-.91-5.07-2.58-7.16.3 2.58.87 5.07 2.58 7.16ZM219.24 263.21c-2.6 1.24-3.12 5.2-1.27 8.51-.1-1.66-.39-3.1-.19-4.47.19-1.3.89-2.54 1.46-4.04ZM245.76 183.02c.14.12.28.24.42.35.68-.77 1.36-1.53 2.04-2.29-.16-.14-.32-.29-.48-.43-.65.79-1.31 1.58-1.97 2.38ZM94.65 356c-1-3.91-2.37-7.72-3.31-11.64-1.31-5.44-3.9-10.37-5.76-15.59-.29-.81-.76-1.47-1.77-1.72.36 4.94 10.79 37.36 13.63 42.26-.04-.65 0-.97-.07-1.27-.89-4.02-1.7-8.06-2.72-12.05ZM103.75 363.26c-.36-4.4-1.28-8.66-3.42-12.58-.54-.98-1.19-1.9-1.78-2.85-.2.08-.39.16-.59.24 2.15 10.64 4.29 21.29 6.44 31.93.16.02.32.05.47.07 0-.79.05-1.58 0-2.37-.36-4.81-.72-9.62-1.11-14.43ZM138.78 439.33c-2.11.24-4.19.83-6.28 1.27l.09-.09c-1.1.82-2.19 1.63-3.4 2.53 1.38 1.28 2.87 1.78 4.35 1.49 4.19-.81 8.36-1.76 12.49-2.81.89-.23 1.62-1.13 2.86-2.05-1.31-.34-1.98-.68-2.65-.67-2.49.03-5 .05-7.47.33ZM132.59 440.51l-.09.09.09-.09ZM108.59 364.54c-.88 6.6-.48 12.8 1.9 18.88 1.47-4.79 1.76-9.68 1.25-14.58-.18-1.71-.95-3.38-3.15-4.3ZM175.78 9.16c-3.61-1.26-9.2-.34-12.13 1.94-.38.3-.94.46-1.43.51-7.69.82-14.21 4.69-20.93 8.02-.13.06-.18.26-.4.59.57-.1 1-.14 1.4-.25 2.06-.59 4.08-1.46 6.18-1.76 3.64-.53 7.24-1.13 10.75-2.27 4.49-1.45 9.19-1.32 13.83-1.63.47-.03.93-.13 1.63-.24-1.2-2.21-3.51-1.93-5.53-3.29 2.62-.34 4.73-.62 7.16-.93-.43-.56-.47-.67-.54-.69ZM200.52 379.87c-.07 5.47-.65 10.62-.09 15.81.39-.73.51-1.48.59-2.24.39-3.63.8-7.26 1.13-10.89.08-.94.16-2.01-1.63-2.68ZM206.42 401.6c1.49-3.39 1.57-6.85.58-10.35-.76 3.42-1.05 6.87-.58 10.35Z"/><path class="g" d="m426.02 370.39-81.89 59.5s-3.29.88-4.4 3.29c-3.05 6.6-7.42 11.2-7.42 11.2s7.8 17.49 14.64 24.77c.49.52 1.01 1.2 1.54 1.98h128.13l-41.6-93.05-9-7.68Z"/><path class="d" d="M420.53 354.66c-1.99-3.51-7.68-4.97-7.68-4.97l-61.5 31.91s4.2-1.18 1.27 2.33-4.1 8.78-5.85 13.47c-1.76 4.68-10.64 12.79-10.64 12.79s1.27 3.02 4.2 8.87 8.2 25.76 8.2 25.76 5.85 1.76 13.47-.59c7.61-2.34 18.74-5.85 22.25-7.03 3.51-1.17 12.2-7.65 16.98-13.47s18.29-18.33 20.85-19.71c2.57-1.37 10.76-10.74 10.76-13.08s-9.28-14.52-9.62-18.39c-.34-3.86-.68-14.4-2.68-17.91Z"/><path class="k" d="M447.49 225.78s.05.05.08.06c-.08-.22-.13-.28-.08-.06Z"/><path class="k" d="M484.8 217.98c-3.77 0-8.41 2.9-10.15 6.09-1.74 3.19-5.8 10.44-4.93 12.76.87 2.32-1.45 4.06-2.61 6.09-1.16 2.03-7.83 9.57-8.41 12.18-.58 2.61-3.19 2.03-4.35 3.19-1.16 1.16-8.41 6.38-10.73 8.41-2.32 2.03-4.93 4.06-5.8 4.06s-3.77-2.9-4.93-4.93c-1.16-2.03-.87-4.06-.87-5.22s6.67-13.92 8.99-18.28c2.32-4.35 7.54-13.63 7.54-13.63s-.7-2.2-.97-2.88c-.03 0-.06-.02-.08-.06.18.9-.47-.91 0 0-.04-.22 0-.16.08.06.56.11 2.19-6.61 1.59-9.2-.63-2.72-.04-14.62-.63-16.07-.58-1.45-1.45-13.34-1.45-17.12s.58-9.86-.87-10.73c-1.45-.87-6.96-2.32-8.7-1.16-1.74 1.16-5.22 8.7-5.51 13.63-.29 4.93-.87 10.15.29 11.31 1.16 1.16.87 2.03 0 4.06s-4.64 14.5-4.64 17.99v7.83s-2.03-.29-4.64 4.35l-7.83 13.92-1.45.58s-.58-5.8 0-9.28c.58-3.48 2.03-17.41 2.03-18.28s-.58-7.83-.58-7.83l-6.38-17.99s-2.03-6.67-3.48-7.25c-1.45-.58-5.8-3.48-6.38-4.93-.58-1.45-6.09-14.51-7.25-15.67-1.16-1.16-4.35-2.61-5.22-2.32-.87.29-4.93-.29-6.09 1.45-1.16 1.74-.32 12.7.87 14.79s3.77 9.57 5.51 10.73c1.74 1.16 1.16 1.45 1.45 4.64.29 3.19 3.19 15.96 3.19 15.96l-4.33.82-7.56-5.17s-11.6-5.51-13.05-5.8c-1.45-.29-8.7-.87-11.02.29-2.32 1.16-20.6 6.09-23.79 7.25-3.19 1.16-7.54 3.77-7.54 5.22s2.9 5.8 3.48 6.96c.16.32.64.91 1.31 1.6 1.77 1.82 4.84 4.26 6.53 3.62 2.32-.87 22.92-6.09 22.92-6.09l9.28 4.35 2.81 2.29-3.1 6.71-.93 10.46s-2.55-.31-5.45 2.59-11.6 11.31-15.38 15.67c-3.77 4.35-7.83 9.28-7.83 9.28l-6.09-4.06c-2.61-1.74-4.64-5.8-6.96-7.83-2.32-2.03-5.3-11.04-5.3-11.04s3.26-4.62 4.71-7.53c1.45-2.9 3.93-8.32 4.35-11.6 1.45-11.31-6.96-13.92-6.96-13.92-2.32.87-5.51 5.22-9.28 8.7-3.77 3.48-8.7 8.41-11.31 12.76-2.61 4.35-6.67 8.7-6.67 13.34s4.06 18.57 5.22 21.47c1.16 2.9 8.7 16.54 10.15 19.44 1.45 2.9 8.41 28.43 10.15 32.78 1.74 4.35 15.08 22.34 17.12 24.95 2.03 2.61 5.8 13.34 5.8 13.34l8.7 21.47 5.8 18.57s20.02-2.61 26.4-5.8c6.38-3.19 25.82-12.18 28.72-15.67 2.9-3.48 6.38-8.7 6.09-13.05-.29-4.35-5.22-14.8-5.51-15.96-.29-1.16.58-5.8 2.03-8.41 1.45-2.61 20.02-27.27 22.34-31.62 2.32-4.35 8.7-13.63 10.15-16.54 1.45-2.9 7.25-8.12 7.25-8.12s17.99-13.92 19.73-17.41c1.74-3.48 6.09-12.19 6.09-13.35s6.09-20.6 6.09-21.47 3.48-8.12 2.32-9.86c-1.16-1.74-.29-4.93-4.06-4.93Z"/><path d="M359.38 417.13c-1.25 0-8.08 5.1-8.08 5.1-.58 1.54 1.06 3.56 1.54 4.91s3.27 8.18 3.85 8.85c.58.67 1.06 1.83 3.27.48s4.81-1.73 5.29-2.89l.48-1.15s.96-3.85-1.92-7.7c-2.89-3.85-3.17-7.6-4.43-7.6Z" style="fill:#8dcbdb"/><path class="h" d="M419.71 362.4v.08h.01v-.02c0-.02-.01-.04-.02-.06Z"/><path class="h" d="M451.67 411.74c-1.04-2.67-2.28-5.26-3.37-7.92-1.93-4.68-3.88-9.36-5.7-14.08-1.09-2.83-2.11-5.7-2.84-8.63-.59-2.39-1.26-4.68-2.74-6.66-.93-1.25-1.83-2.54-3.53-2.94-2.16-.51-4.27-1.24-6.44-1.71-.78-.17-1.09-.41-1.26-1.16-.91-3.96-1.85-7.92-2.81-11.87-.62-2.54-1.83-4.62-4.43-5.63-1.31-.51-2.58-1.13-3.64-1.6.18-1.87.3-3.59.53-5.3.1-.69.35-1.42.72-2.01 1-1.58 2.11-3.09 3.14-4.65.63-.95 1.15-1.98 1.81-2.91 2.39-3.39 4.88-6.71 7.22-10.13 2.79-4.08 5.42-8.27 8.2-12.36 1.61-2.37 3.39-4.64 5.08-6.95 2.64-3.61 4.74-7.53 6.65-11.56 1.16-2.45 2.2-4.98 4.87-6.31.92-.46 1.73-1.2 2.53-1.89 5.66-4.88 11.35-9.73 16.93-14.7 1.47-1.31 2.86-2.84 3.82-4.54 1.32-2.31 2.28-4.84 3.24-7.34 1.01-2.65 1.79-5.39 2.76-8.06.63-1.75 1.55-3.4 2.1-5.17 1.22-3.99 2.27-8.03 3.43-12.04.94-3.24 1.79-6.48 1.59-9.92-.16-2.86-1.78-4.96-3.96-6.24-3.57-2.08-7.93-1.04-10.44 2.38-1.77 2.4-3.3 5.04-4.48 7.77-1.12 2.58-1.87 5.37-2.35 8.15-.22 1.23-.31 2.28-1.15 3.31-1.88 2.33-3.64 4.76-5.37 7.21-1.93 2.75-4.19 5.32-5.22 8.63-.07.21-.47.33-.74.45-1.09.48-2.36.74-3.27 1.46-3.28 2.56-6.42 5.3-9.66 7.92-2.09 1.69-4.25 3.28-6.13 4.71-.65-.52-1.15-.88-1.59-1.28-.33-.3-.69-.63-.89-1.02-.67-1.33-1.28-2.7-2.06-4.37 1.19-2.16 2.55-4.71 3.98-7.22 1.76-3.1 3.67-6.13 5.35-9.27 1.8-3.36 3.53-6.76 5.05-10.25 1.14-2.61 2.32-5.28 2.09-8.26-.03-.41-.26-.8-.4-1.2-.16-.48-.51-.96-.47-1.42.27-2.85.69-5.68.92-8.54.23-2.88.33-5.77.42-8.65.07-2.16.33-4.37-.04-6.46-.36-2.03-.63-4.05-.56-6.08.14-4.51.51-9.02.69-13.53.11-2.83.11-5.68-1.22-8.33-.93-1.86-3.72-3.25-5.77-2.94-.89.14-1.98.79-2.7-.45-.06-.11-.28-.17-.43-.21-1.61-.4-5.25 1.05-6.06 2.53-.71 1.28-1.38 2.61-1.83 3.99-1.39 4.26-1.76 8.71-1.79 13.15-.02 2.89.03 5.92 2.16 8.05-1.11 2.35-2.44 4.46-3.14 6.77-1.15 3.81-2.03 7.71-2.78 11.63-.54 2.82-.67 5.72-1.01 8.58-.03.22-.26.44-.43.62-1.14 1.25-2.52 2.35-3.38 3.77-1.91 3.17-3.55 6.5-5.33 9.75-.85 1.55-1.75 3.06-2.64 4.58-.18-.05-.35-.1-.52-.15.06-.44.06-.89.18-1.32.67-2.43 1.52-4.82 2.03-7.28.59-2.86.81-5.79 1.32-8.66.77-4.32 1.13-8.61.04-12.93-.14-.57.22-1.26.4-2.12-.15-.4-.46-1.06-.68-1.76-1.08-3.28-2.04-6.6-3.24-9.84a264.05 264.05 0 0 0-4.99-12.49c-.5-1.18-1.27-2.58-2.31-3.13-2.33-1.22-3.95-3.03-5.16-5.19-1.69-3.02-3.13-6.19-4.68-9.29-1.21-2.41-1.94-5.13-4.11-6.95a6.067 6.067 0 0 0-2.43-1.22c-2.56-.6-5.02.24-7.49.79-1.71.38-2.74 1.51-3.4 3.05-1.08 2.56-.58 5.17.07 7.66.77 2.97 1.99 5.83 2.92 8.76 1.07 3.36 2.44 6.52 5.04 9.03.28.27.35.93.29 1.37-.31 2.19-.44 4.35.23 6.51.64 2.06 1.15 4.16 1.71 6.24.27 1 .52 2 .85 3.26-1.98-.8-3.69-1.48-5.39-2.19-4.88-2.02-9.54-4.44-14.05-7.19-1.54-.94-3.33-1.8-5.14-1.37-1.64.39-3.22-.04-4.78.21-3.28.54-6.56 1.12-9.77 1.97-4.72 1.25-9.39 2.66-14.04 4.16-3.42 1.1-6.84 2.26-10.09 3.77-1.85.86-4.18 1.85-3.65 4.75-1.93-.1-3.01.38-3.91 1.51-1.36 1.72-2.7 3.47-4.2 5.08-2.54 2.73-4.98 5.62-7.83 7.98-4.81 3.99-8.14 8.95-10.69 14.52-.82 1.78-1.3 3.72-1.94 5.58-1.17 3.42-1.83 6.87-.56 10.42 1.21 3.37 2.37 6.76 3.71 10.07 2.25 5.55 5.08 10.8 8.45 15.77 1.14 1.68 2.3 3.33 2.78 5.4.74 3.24 1.64 6.43 2.53 9.63 1.26 4.58 2.65 9.12 3.84 13.71.96 3.7 1.41 7.55 2.61 11.16 1.24 3.7 2.93 7.3 4.8 10.73 1.34 2.46 3.17 4.7 5.03 6.83 1.54 1.76 3.49 3.18 5.18 4.82 1.81 1.75 3.82 3.16 4.66 5.92 1.47 4.81 3.44 9.49 5.44 14.12 2.69 6.22 5.61 12.34 8.4 18.52.17.37.19.94.03 1.3-1.06 2.31-2.32 4.53-3.26 6.88-1.59 4-3.06 8.06-5.59 11.58-1.68 2.35-3.65 4.48-5.43 6.76-1.37 1.76-1.33 1.86 0 3.65.09.13.15.28.22.43 1.21 2.62 2.42 5.24 3.62 7.86 1.62 3.53 1.54 3.68-.71 6.46-3.47 4.28-6.12 8.93-5.86 14.71.04.84-.35 1.04-1.09 1.08-.47.02-.94.22-1.52.37.81 1.53 1.6 2.79 2.16 4.15 1 2.4 2.82 4.28 4.05 6.55 1.39 2.57 3.44 4.77 5.18 7.15 1.6 2.18 3.11 4.42 4.76 6.55.5.64.96 1.31 1.42 1.98h4.48c-2.2-3.32-4.45-6.61-6.65-9.93-1.88-2.83-3.76-5.67-5.59-8.54-1.19-1.85-1.96-4.11-3.51-5.55-2.09-1.92-2.01-3.48-.81-5.76 1.37-2.6 2.31-5.44 3.44-8.17.3.3.42.53.4.76-.17 2.65-.35 5.29-.56 7.94-.04.5-.41 1.12-.22 1.47.63 1.21 1.38 2.41 2.89 2.72 3.75.77 7.51 1.03 11.35.81 4.83-.27 9.66-.34 14.27-2.04 3.28-1.21 6.58-2.38 9.79-3.75 3.07-1.31 6.05-2.77 9.43-3.23 2.74-.37 5.25-1.35 7.2-3.46.71-.76 1.46-1.5 2.26-2.17 3.45-2.94 6.95-5.82 10.39-8.78 3.45-2.98 6.94-5.9 10-9.31 1.62-1.81 3.5-3.38 5.12-5.19 2.41-2.68 4.74-5.43 7.01-8.23 2.09-2.57 3.35-5.76 5.89-8 .17-.15.22-.43.33-.65.44-.92.89-1.83 1.32-2.75.05-.1.04-.23.05-.36-.21.06-.4.11-.62.17v-3.56c5.68 11.28 23.92 52.78 37.97 85.57h4.59c-9.84-20.42-20.13-41.42-20.77-43.15-2-5.44-4.06-10.85-6.16-16.24Zm-121.2-202.27c2.36-.94 4.78-1.77 7.11-2.79 1.3-.57 2.36-.2 3.44.4 1.31.72 2.68 1.33 3.01 3.08.37 1.92-.16 2.92-1.99 3.43-1.86.53-3.73 1.02-5.54 1.68-2.31.85-4.31.66-6.08-1.2-1-1.05-2.16-1.96-3.4-3.07 1.22-.54 2.32-1.08 3.46-1.54Zm98.34 183.14c-1.31 2.52-2.73 4.99-4.13 7.53.29.06.47.1.87.19-1.21 1.31-2.3 2.57-3.49 3.72-1.16 1.12-2.42 2.13-3.64 3.19-4.14 3.57-8.25 7.18-12.43 10.7-3.18 2.68-6.47 5.24-9.7 7.87-2.06 1.69-4.12 3.38-6.13 5.13-.94.82-1.89 1.7-2.6 2.71-1.79 2.56-4.57 3.26-7.28 4.08-4.42 1.34-8.84 2.72-13.32 3.85-3.19.8-6.46 1.37-9.73 1.77-2.17.27-4.39.05-6.92.05-.33-1.29-.67-2.75-1.07-4.2-1.43-5.15-2.76-10.34-4.35-15.44-1.02-3.25-2.46-6.37-4.58-9.08-.69-.88-1.72-1.48-2.47-2.11 1.18-1.13 2.47-2.22 3.58-3.46 2.51-2.82 4.44-6.03 5.84-9.54 1.36-3.39 2.72-6.79 4.07-10.18.15-.37.26-.74.45-1.26 1.32 3.16 2.59 6.23 3.87 9.29.25.61-.04.82-.58 1.07-1.82.84-3.88 1.45-5.34 2.73-3.07 2.67-5.06 6.15-6.2 10.06.11.1.21.2.31.3.45-.47 1.02-.87 1.34-1.41 1.39-2.33 3.17-4.36 5.47-5.74 3.2-1.92 6.7-3.18 10.42-3.75 2.48-.39 4.96-.81 7.43-1.25 2.96-.53 5.94-.96 8.85-1.7 2.31-.58 4.56-1.45 6.75-2.39 2.65-1.14 5.21-2.5 7.82-3.74 2.04-.97 2.05-.96 2.99-2.71.14.22.25.38.46.7 2.39-1.43 4.79-2.85 7.17-4.3.14-.08.17-.34.09-.78-1.07.5-2.14 1.01-3.21 1.51-2.12 1-4.22 2.05-6.38 2.98-2.13.93-4.32 1.75-6.48 2.6-5.36 2.09-10.94 3.32-16.62 4.18-4.27.64-8.53 1.32-12.98 2.02-.41-2.01-.71-4.1-1.27-6.11-1.12-3.96-2.32-7.89-3.61-11.79-.98-2.96-2.12-5.86-3.25-8.77-1.08-2.79-2.23-5.56-3.38-8.33-.89-2.13-1.88-4.21-2.72-6.36-.19-.5-.89-1.36.38-1.74.11-.03.11-1.19-.15-1.65-1.55-2.82-3.2-5.57-5.64-7.76-2.42-2.17-4.86-4.34-7.16-6.64-2.72-2.73-4.36-6.2-6.09-9.58-.77-1.5-1.68-2.96-2.19-4.54-1.18-3.67-2.2-7.4-3.22-11.12a912.79 912.79 0 0 1-3.83-14.53c-.42-1.63-.58-3.34-1.11-4.94-.93-2.79-1.85-5.63-4.19-7.69-.54-.48-.96-1.16-1.28-1.81-1.38-2.76-2.64-5.58-4.07-8.31-2.44-4.68-4.48-9.52-5.9-14.6-.83-2.97-1.74-5.92-2.47-8.91-.34-1.39-.36-2.86-.44-4.29-.02-.35.21-.75.39-1.09 2.32-4.18 4.5-8.45 7.05-12.49 1.84-2.91 3.68-5.9 6.64-7.98 3.44-2.42 5.96-5.73 8.3-9.18.68-1 1.49-1.94 2.37-2.78 1.15-1.08 2.93-.53 3.6.89.58 1.24 1.2 2.53 2.07 3.55 1.43 1.67 1.63 3.48 1.1 5.44-.63 2.33-1.32 4.66-2.09 6.95-1.65 4.9-3.94 9.44-7.63 13.18-1.31 1.33-3.03 1.19-4.62 1.46-2.5.43-5.04.73-7.57.98-1.35.13-2.72.02-4.15.02.16 1.16.76 1.87 1.81 2.21 1.99.64 3.99.99 6.09.57 2.42-.48 4.88-.83 7.31-1.3.62-.12 1.21-.44 1.95-.73.47 1.13.94 2.25 1.42 3.37.94 2.21 1.58 4.63 2.9 6.59 2.23 3.3 4.72 6.55 8.36 8.45 2.52 1.31 3.92 3.71 5.99 5.45 2.79 2.35 5.88 4.03 9.35 4.99.93.26 1.93.24 2.91.28.21 0 .43-.31.64-.47-.17-.2-.3-.51-.51-.58-3-.99-5.4-2.9-7.73-4.93-.81-.71-1.66-1.38-2.61-2.18.85-.64 1.7-1.09 2.31-1.76 1.51-1.64 2.86-3.44 4.38-5.07 3.15-3.39 6.35-6.73 9.57-10.05 1.13-1.17 2.38-2.21 3.83-3.55-.3 1.95-.49 3.63-.82 5.29-.82 4.2-1.4 8.42-1.32 12.71.04 2.3.13 4.61.36 6.9.12 1.23.6 2.42 1.19 3.6.23-1.73.51-3.46.67-5.19.43-4.91.83-9.82 1.2-14.73.06-.88-.14-1.78-.15-2.67-.03-1.87.02-3.73-.04-5.6-.04-1.24.39-2.19 1.33-2.99 1.05-.88 2.04-1.84 3.16-2.86.36.56.65 1.08 1.01 1.55.12.15.44.27.61.21.16-.05.38-.39.34-.54-.55-1.76.24-3.39.59-5.02.59-2.7 1.46-5.33 2.17-8.01.3-1.15.48-2.34.7-3.39.95.58 1.82 1.27 2.81 1.68 2.78 1.17 7.2-.27 8.88-3.26.48-.86-.25-.86-.79-.78-1.8.27-3.6.55-5.38.88-2.18.4-3.97.39-5.33-1.69 2.55.84 5.01 1.02 7.45.31 2.41-.7 4.6-1.86 6.29-3.92-1.57.17-3.15.31-4.72.52-4.78.66-9.36.16-13.76-2.02-2.1-1.04-4.4-1.69-6.71-2.56.28-.47.62-1.02 1.06-1.74-.42 0-.68-.08-.84.01-2.13 1.19-4.14 2.71-6.4 3.54-2.69.98-5.59 1.4-8.42 2-2.84.6-5.68 1.41-8.56 1.59-1.89.12-3.84-.72-5.75-1.14-.14-.03-.26-.2-.35-.33-.89-1.25-1.84-2.47-2.62-3.79-.62-1.05-1.57-2.15-.43-3.48.84.74 1.66 1.58 2.6 2.24 1.39.98 2.82 1.92 4.32 2.71 1.14.61 2.31.14 3.37-.45 1.63-.9 3.24-1.84 4.87-2.74.27-.15.61-.29.91-.27.43.03 1.09.43 1.22.28.63-.69 1.44-1.45 1.6-2.3.69-3.76.05-4.93-3.36-6.88-.2-.11-.39-.25-.67-.43 5.61-2.04 11.15-3.89 16.93-4.92 1.47-.26 2.88-.84 4.3-1.33 1.1-.38 2.6.5 2.75 1.72.07.55-.05 1.13.02 1.68.08.64.27 1.27.47 2.15 1.52-1.12 1.06-2.67 1.7-3.97.73.36 1.51.71 2.28 1.11 3.03 1.59 6.02 3.27 9.09 4.77.98.48 2.19.74 3.26.67 1-.06 1.46.34 2.12.91.75.65 1.73 1.04 2.62 1.53.5.27 1.13.4 1.5.78.71.75 1.25.55 1.85-.11.34.51.64.98.97 1.45q1.62 2.31.38 5.18c-1.33-1.33-2.34-3.03-4.18-3.64-.09.08-.17.16-.26.24.09.25.15.5.28.73.1.17.28.3.41.45 3.27 3.51 3.23 4 2.28 8.6-1.26 6.05-2.64 12.13-2.34 18.37.1 2.08.78 4.14 1.25 6.19.1.43.43.81.66 1.22.16-.01.32-.03.48-.04.3-1.84.66-3.67.89-5.52.4-3.22.68-6.45 1.08-9.66.43-3.38.84-6.77 1.46-10.12.49-2.64 1.28-5.22 1.93-7.78 1.77.58 3.27 1.18 4.83 1.53 1.36.31 2.77.21 3.85-.89.22-.22.31-.57.56-1.04-4.16.64-6.97-1.4-9.48-3.98-1.8-1.85-2.59-4.3-3.38-6.68-.92-2.77-1.69-5.6-2.36-8.44-.29-1.24-.18-2.58-.25-3.96 1.68.16 3.29.5 4.53-.66.52-.49.69-1.34.91-2.08-2.34 1.12-2.7 1.11-4.46-.72-2.05-2.13-4.17-4.21-5.99-6.52-1-1.27-1.55-2.92-2.15-4.46-.84-2.16-1.8-4.33-2.2-6.58-.4-2.3-1.02-4.71.08-7.05.66-1.4 1.91-2.16 3.22-2.36 1.65-.25 3.4-.94 5.09.18 1.34.88 1.76 2.26 2.29 3.6 2.11 5.32 4.28 10.63 8.13 14.97 1.12 1.26 2.71 2.22 4.26 2.94.88.41 1.3.93 1.55 1.67 2.51 7.34 4.95 14.71 7.49 22.04.45 1.28 1.38 2.4 1.85 3.67.41 1.11.74 2.36.67 3.52-.1 1.67-.67 3.31-.9 4.98-.29 2.09-.45 4.21-.62 6.31-.26 3.24-.54 6.49-.71 9.73-.11 2.23-.24 4.49.04 6.69.14 1.12.06 1.92-.43 2.9-.97 1.96-1.87 3.97-2.57 6.05-.46 1.35-.4 2.84.4 4.14.21.34.56.6.85.89.21-.32.47-.62.63-.96 1.1-2.52 1.99-5.15 3.31-7.54 2.88-5.2 5.96-10.3 9.02-15.4.85-1.43 1.92-2.73 2.94-4.17 1.86 1.92 3.61 3.57 6.11 4.02.12-.08.24-.16.36-.25-.49-.81-.96-1.64-1.49-2.43-1.2-1.82-2.79-3.51-2.91-5.79-.08-1.59.28-3.22.54-4.82.63-3.9 1.13-7.83 2.04-11.67.56-2.38 1.75-4.61 2.7-6.89.34-.81.93-.87 1.78-.53 2.11.84 4.27 1.6 6.61 1.21.3-.05.56-.3.84-.46-.21-.22-.37-.52-.62-.63-1.75-.75-3.54-1.39-5.25-2.22-1.95-.94-3.26-2.37-3.49-4.72-.64-6.53.11-12.82 2.96-18.77.72-1.5 2.08-2.22 3.7-2.42.69-.09 1.38-.16 2.07-.21 1.48-.1 2.47.69 2.6 2.21.16 1.94.27 3.9.29 5.85.04 4.22-.06 8.45 0 12.67.05 3.24.75 6.36 1.98 9.38.37.91.22 2.06.17 3.09-.1 2.35-.41 4.7-.41 7.05 0 4.45.16 8.9.23 13.36 0 .55-.04 1.16-.28 1.65-2.91 6.01-5.82 12.03-8.82 17.99-1.48 2.93-3.19 5.75-4.73 8.65-1.5 2.82-3.07 5.63-4.29 8.57-.91 2.18-1.31 4.57-1.92 6.8 2.1.87 3.11-.03 3.61-1.45 1.16 1.03 2.37 2.11 3.74 3.32-.75.76-1.73 1.75-2.69 2.75-.31.32-.63.64-.91.99-.42.55-.87 1.09-.25 1.82.56.67 1.19.79 1.93.35.69-.42 1.39-.82 2.03-1.3 3.02-2.3 6.06-4.58 9.03-6.97 4.13-3.33 8.2-6.74 12.3-10.11.12-.09.24-.18.45-.34.43 1.14.71 2.24 1.24 3.22.45.84 1.11 1.58 1.78 2.27.25.27.78.27 1.18.39.08-.41.28-.84.23-1.24-.19-1.52-.42-3.05-.72-4.55-.27-1.33 0-2.53.76-3.58 2.3-3.14 4.65-6.24 6.98-9.36.88-1.18 1.76-2.37 2.73-3.67.57.51 1.05 1.07 1.65 1.45 1.19.75 2.43 1.43 3.69 2.05.2.1.63-.27.96-.43-.21-.25-.39-.52-.62-.73-.37-.34-.88-.56-1.14-.96-1.03-1.58-2.1-3.15-2.92-4.84-.35-.71-.36-1.8-.09-2.55 1.14-3.14 2.22-6.35 3.77-9.3 1.25-2.38 2.52-4.93 5.28-6.15 1.68-.74 3.34-.61 5-.15.28.08.59.88.5 1.28-.68 3.28-1.45 6.53-2.2 9.8-.73 3.15-1.53 6.29-2.18 9.46-.5 2.42-.78 4.88-1.23 7.3-.13.69-.57 1.32-.85 1.98-1.96 4.58-3.93 9.14-5.84 13.74-.59 1.42-1.42 2.53-2.65 3.52-3.01 2.44-5.85 5.08-8.76 7.64-3.12 2.75-6.29 5.45-9.34 8.3-1.3 1.22-2.32 2.74-3.47 4.12-.75.9-1.56 1.77-2.25 2.72-1.82 2.52-3.59 5.08-5.38 7.62-2.22 3.14-4.46 6.28-6.68 9.42-3 4.27-6.01 8.54-8.99 12.82-2.63 3.78-5.22 7.58-7.86 11.35-2.34 3.34-4.65 6.71-7.11 9.96-2.65 3.51-5.5 6.87-8.18 10.36-.99 1.28-1.82 2.71-2.58 4.14-.35.66-.36 1.5-.26 2.44 3.08-3.03 6.17-6.06 9.47-9.3.1 1.61.12 2.87.28 4.1.28 2.06.87 3.99 2.78 5.19.5.31 1.02.81 1.58.1.44-.55.27-.92-.21-1.44-.34-.37-.27-1.11-.42-1.88 2.08 2.24 3.25 8.94 1.68 14.01-1.48 4.77-4.68 8.44-7.97 12.05.08.11.16.22.25.33.73-.26 1.55-.38 2.16-.81 2.85-1.97 5.65-4.03 8.47-6.05-.06-.1-.11-.21-.17-.31-.58.23-1.16.46-1.75.69-.12-.06-.24-.11-.36-.17 2.97-3.68 3.98-7.82 3.25-12.36h-.01v-.09c-.7-2.94-2.37-5.42-3.78-8.02-.57-1.05-1.18-2.08-1.83-3.2 1.55-.22 3.18.72 3.58 1.88 1.04 3.03 1.84 6.12 2.03 9.34 0 .02.01.04.02.06v.03c.13.09.33.15.36.26 1.03 3.27 1.91 6.61 3.12 9.81.95 2.51 2.38 4.83 3.47 7.29.54 1.23.89 2.57 1.16 3.89.48 2.31.87 4.65 1.22 6.99.09.6.03 1.34-.25 1.86Zm-99.59-168.42c0-.16.03-.32.04-.39 1.94.47 3.85 1.02 5.8 1.35.79.13 1.67-.19 2.49-.39 3.15-.74 6.32-1.43 9.43-2.3 1.89-.53 3.71-1.33 5.54-2.04 1.28-.5 2.57-1 3.81-1.58.93-.43 1.88-.42 2.49.3 1.73 2.03 4.2 2.65 6.5 3.58 2.66 1.08 2.63 1.01 1.48 3.56-1.78 3.96-2.8 8.12-2.97 12.47-.04.94-.27 1.68-1.02 2.34-1.54 1.36-2.82 3.1-4.52 4.2-2.7 1.75-5.19 3.7-7.53 5.89-3.99 3.74-7.96 7.51-11.05 12.05-.92 1.34-1.46 2.94-2.21 4.49-.51-.43-1.18-1.02-1.88-1.56-.41-.32-.87-.8-1.31-.8-1.86 0-2.84-1.34-3.84-2.5-2.3-2.66-4.18-5.61-5.74-8.79-.71-1.45-1.3-3.07-2.88-4.07-.92-.58-1.52-1.75-2.12-2.73-.16-.26.11-.95.38-1.27 2.38-2.72 4.52-5.6 6.1-8.85 1.98-4.09 3.27-8.35 3.01-12.96Z"/><path class="e" d="M414.1 351.19c.65 1.12 1.26 2.15 1.83 3.2 1.41 2.59 3.07 5.06 3.77 7.98-.26-3.33-4.07-11.4-5.6-11.18ZM419.71 362.49v-.03s0-.06-.01-.1c0 .04.01.08.01.12Z"/><path class="h" d="M366.22 427.82c-1.29-3.51-2.21-7.16-4.28-10.36-1.21-1.86-3.09-2.44-4.85-1.28-.5.33-.96.73-1.42 1.12-1.55 1.31-3.09 2.64-4.64 3.97-.31-.21-.63-.43-1.29-.87.13 1.34.13 2.38.35 3.37.41 1.79.87 3.57 1.46 5.31.46 1.37 1.09 2.69 1.75 3.98.64 1.25 1.37 2.46 2.16 3.62.22.32.79.39 1.21.58.13-.37.41-.76.37-1.11-.5-4.11-1.89-7.88-4.35-11.22-.78-1.06-.79-1.53.19-2.36 1.8-1.51 3.63-3 5.54-4.57.2.24.35.34.4.48.58 1.39 1.12 2.8 1.71 4.18 1.26 2.93 2.58 5.84 3.8 8.79.16.38.09 1.17-.18 1.37-1.62 1.22-3.33 2.31-4.99 3.48-.29.21-.49.56-.74.84.37.14.77.43 1.12.39 2.4-.28 4.69-.94 6.85-2.06 1.12-.58 1.72-1.41 1.36-2.67-.47-1.68-.95-3.36-1.55-4.99ZM411 265.61c-3.78-3.23-7.64-6.39-11.65-9.32-3.24-2.37-6.73-4.41-10.18-6.5-1.72-1.04-3.55-1.9-5.37-2.77-.59-.28-1.38-.19-1.93-.51-3.29-1.91-6.53-3.9-9.8-5.85-.38-.23-.83-.36-1.36-.59.02.37-.04.62.04.67 7.44 4.86 13.68 11.24 20.77 16.52.33.25.74.38 1.12.58l.2-.23c-1.3-1.65-2.59-3.3-3.89-4.95 8.77 6.33 17.49 12.67 26.47 18.63l.42-.54c-1.6-1.72-3.06-3.62-4.84-5.14ZM381.31 302.16c-1.23 3.39-2.26 6.85-3.67 10.15-2.02 4.74-3.73 9.56-4.51 14.65-.56 3.65-.99 7.34-1.28 11.02-.14 1.85.08 3.74.31 5.59.08.65.67 1.24 1.02 1.86.14-.04.28-.08.43-.13.25-.82.59-1.62.73-2.45.7-4.16 1.25-8.35 2.05-12.5.71-3.67 1.62-7.3 2.56-10.92.49-1.87 1.38-3.64 1.81-5.51.5-2.15.69-4.36 1.03-6.54.1-.64.52-1.33.38-1.9-.41-1.66.27-3.11.62-4.63.26-1.13.52-2.26.79-3.4-.15-.04-.3-.09-.44-.13-.61 1.6-1.25 3.2-1.84 4.82ZM355.16 288.78c-1.94-1.82-3.97-3.55-6.01-5.27-2.01-1.7-4.2-3.2-6.07-5.03-1.59-1.56-3.44-2.64-5.27-3.81-.45-.28-.98-.43-1.63-.71-.04.44-.08.57-.05.67.1.27.22.53.35.78 1.47 2.84 3.77 4.97 6.14 7 2.03 1.74 4.26 3.23 6.33 4.92 4.81 3.93 8.55 8.67 10.77 14.54.56 1.48 1.25 2.92 1.88 4.38.17-1.13.08-2.22.18-3.3.37-3.96-.68-7.46-3.26-10.48-1.08-1.27-2.15-2.55-3.36-3.69ZM365.16 297.8c-.13 0-.25.02-.38.02-.08.13-.2.26-.22.4-.37 4.51-.7 9.02-1.11 13.52-.25 2.72-.55 5.43-.93 8.13-.68 4.84-1.44 9.66-2.13 14.5-.07.47.11.98.19 1.62.35-.21.55-.26.61-.37.81-1.63 1.81-3.2 2.36-4.91 1.53-4.76 2.64-9.63 3.3-14.61.71-5.39 1.27-10.72-1.11-15.89-.34-.73-.39-1.6-.58-2.4ZM370.18 366.37a39.792 39.792 0 0 0-4.99-8.46c-.51-.67-1.02-1.44-2.26-1.32.5 1.24.9 2.34 1.38 3.4 1.59 3.46 3.34 6.85 4.79 10.36 2.28 5.53 4.39 11.12 6.5 16.72.31.82.83 1.1 1.42.75.43-.25.9-1.09.78-1.5-.99-3.34-1.98-6.7-3.23-9.94-1.31-3.4-2.94-6.67-4.38-10.02ZM391.9 310.06c-2.37 3-4.28 6.37-6.39 9.57l.42.3c.29-.31.59-.61.87-.92 1.08-1.26 2.12-2.56 3.24-3.77 1.29-1.39 2.68-2.69 3.98-4.07 1.98-2.09 3.89-4.24 5.9-6.29 1.07-1.08 2.59-1.79 2.52-3.9-4.62 1.82-7.66 5.44-10.54 9.08ZM311.24 251.37c-2.3 1.36-4.55 2.82-7.09 4.4.61.33 1.06.74 1.55.8 1.59.19 3.16.15 4.55-.85 1.05-.75 2.21-1.36 3.2-2.18 1.23-1.02 2.36-2.18 2.78-4.04-.56.05-1.03 0-1.4.15-1.22.53-2.45 1.05-3.59 1.73ZM364.37 415.62c.65-.59 1.31-1.16 1.95-1.76 2.54-2.41 5.2-4.64 8.22-6.48 2.58-1.57 4.67-3.75 6.35-6.37-3 .14-16.28 11.65-16.52 14.61ZM380.08 408.4c-2.68 1.78-5.37 3.54-8 5.4-1.37.97-2.62 2.12-3.92 3.19.08.17.16.35.25.52.56-.21 1.15-.37 1.68-.65 1.19-.63 2.27-1.53 3.52-1.93 2.19-.69 3.99-1.9 5.61-3.44.67-.63 1.23-1.4 1.73-2.18.18-.28.04-.76.05-1.15-.31.07-.67.06-.91.22ZM377.29 368.66c-.18-.63-.57-1.19-.91-1.88.46-.58-.3-2.66-1.76-3.92-.09.56-.23 1-.21 1.44.16 3.34.87 6.58 2.1 9.68.37.94.62 2.2 2.24 2.33.08-.5.31-1 .21-1.42-.5-2.09-1.06-4.17-1.66-6.23ZM407.9 206.31c1.12 4.85 2.14 9.31 3.18 13.83.14-.11.26-.16.26-.21.04-.68.11-1.37.08-2.05-.12-3.73-.59-7.39-2.59-10.67-.17-.27-.47-.46-.94-.9ZM366.53 261.2c1.28 7.42 2.57 14.84 3.85 22.26-.11-7.63-2.41-14.87-3.51-22.33-.12.02-.23.04-.34.06ZM442.55 225.55c-.61 2.37-1.19 4.6-1.78 6.91 1.06-.11 2.42-2.23 2.78-4.44.14-.86.2-1.85-1-2.48ZM369.2 206.57c-2.1-.25-4.21-.43-6.31-.63l-.18.51c.36.21.69.55 1.07.61 1.75.27 3.51.47 5.27.65.18.02.57-.29.56-.42-.02-.26-.23-.69-.41-.71ZM444.09 207.83c1.55-1.47 2.32-7.73 1.25-8.8-.41 2.87-.82 5.75-1.25 8.8ZM373.06 418.67c.99 1.04 1.73.36 2.43.06.65-.27 1.43-.57.93-1.73-1.14.57-2.19 1.08-3.36 1.66Z"/></g></g></svg>