<svg xmlns="http://www.w3.org/2000/svg" viewBox="0 0 5355.38 3118.32"><defs><style>.cls-1{fill:#d81f25}.cls-3{fill:#582900}.cls-4{fill:#fff}.cls-5{fill:#002fdb}.cls-6{fill:#000058}.cls-7{fill:#5d7fff}</style></defs><g id="Explosion"><path class="cls-1" d="m2353 2087.57-134.56-98.94H2353s-190-209.74-205.79-249.32c0 0 241.4 106.85 288.89 146.43 0 0-158.29-478.85-174.12-593.62 0 0 249.31 431.36 304.72 554 0 0 4-158.29 15.83-233.49 0 0 51.45 138.51 71.23 186 0 0 47.49-114.76 63.32-146.42 0 0 31.66 130.59 31.66 162.25 0 0 237.45-284.93 356.17-383.87 0 0-182 360.13-221.61 415.53l67.27 15.83-19.78 43.54 67.21 11.91-15.83 51.44 237.45 7.92-229.53 55.4-67.28 55.41s245.36 87.06 324.51 138.51c0 0-110.81-7.92-221.62 0 0 0 122.69 130.6 158.3 253.28 0 0-182-102.9-213.7-138.51 0 0 39.57 102.89 39.57 158.29L2911 2392.29s67.27 312.64 87.06 451.15c0 0-182-368-197.87-431.36 0 0-15.83 213.7-27.7 269.11 0 0-47.49-213.71-47.49-253.28v39.57s-158.3 300.77-205.79 376c0 0 63.32-372 79.15-431.36 0 0-95 83.11-138.51 106.85 0 0 51.44-114.77 75.19-146.42 0 0-237.45 67.27-281 67.27 0 0 166.21-130.59 225.58-158.3l-190 19.79 146.42-126.64-75.19-11.87 71.24-55.4Z"/><path class="cls-1" d="m3011 1916.55 150.46-5-95.28 75s251.5 42.57 284.79 61.76c0 0-230.54 59-286.24 57.46 0 0 379.19 250.77 454.41 323.21 0 0-417.15-166.38-524.81-222.34 0 0 85.49 114.29 119 174.16 0 0-113.69-69.38-154.19-92 0 0 30.39 107.75 36.84 139 0 0-95.27-74.82-112.93-97.23 0 0-9.19 334.2-38.08 470.48 0 0-72-356.54-74.85-417.85l-56.47 26.32-10.27-41.86-54.26 29.12-17.49-45.26-172.55 126.84 131.63-167.26 16.73-76.76s-222.3 75.21-307 82.93c0 0 82.88-56.2 156.92-123.62 0 0-159.71-24-253.36-91 0 0 186.29-28.69 228.58-21.13 0 0-85.42-50.78-116.32-90l129.67 20.48s-222-183.85-313.3-270.89c0 0 334.19 159.07 380.72 195.07 0 0-108-160.15-130.49-206 0 0 152.83 124.83 174.91 152.85s-22.08-28-22.08-28-55.67-301.27-64-381c0 0 162.66 298.73 184.57 349.59 0 0 20.89-111.82 38.47-152.92 0 0 27.59 110 28.44 145.63 0 0 130.6-180.09 161.43-204.37 0 0-44.85 185.19-71.43 237.92l123.47-120-33.05 171.34 59.87-33.53-19.54 79Z" style="opacity:.5"/></g><g id="Hand2"><path class="cls-3" d="M4488.4 942.66q-10.41-9.12-21.2-18.16c-1.91-145.66-115.81-206.49-178.72-261.1s-95-124.38-157.54-192.19-126.79-90.77-170.41-79.65-70.53 87.15-70.53 87.15l.46.35a87.5 87.5 0 0 0-36.8 6.78c-17.62 7.33-36 22.26-53.78 40.64 0 0-25.28-46.66-58.16-49s-50.47 1.09-63.57-.35-37.39-9.4-59.2-3.84-39.68 23.47-59.4 70.34-35.67 83.54-51.78 109.6-9.29 68.15 4.06 95.85c10.74 22.27 28.42 38.81 55.17 52.12a203.24 203.24 0 0 0-18.71 74.38c-.42 7.62-.42 15.32-2 22.78-3.3 15.71-13.18 29.08-20.6 43.31-8.49 16.3-13.84 34-19.14 51.61-16.07 53.34-32.26 109.63-20.39 164-13.37 38.92-22.24 79.1-16.82 119.47 1.88 14 5.7 28.23 14.52 39.26.47.58 1 1.13 1.44 1.69-2.84 13-2 26.59-1.13 39.92l1.38 21.15c.31 4.81.63 9.62 1.25 14.4a101.65 101.65 0 0 0 14.19 40.65l.1 1.26a194.35 194.35 0 0 0-21 21.39c-27.41 32.66-43.73 69.89-49.93 126.45-4.87 44.39-10.25 80.43 1.8 123.43a189.73 189.73 0 0 0 19.68 45.51s-50.57 550-176.77 806.51c0 0 146 130.52 351.31 158.18s266.54-37.39 266.54-37.39c-19.82-492.45 97.15-885.47 97.15-885.47 14.21-17.12 31.27-31.61 47.41-46.92C4095.06 1692 4160 1604.1 4205.82 1539c25.09-35.64 50.92-74 64.66-114.73l100.86-134.85c8.07-10.79 16.2-21.68 21.7-34 0 0 89-85.86 109.32-126s65.82-116.79-13.96-186.76Z"/><path class="cls-3" d="M3525.32 1836a40.21 40.21 0 0 0-35.85 0c-19.31 9.49-16.68 50.76-22.83 90.27s-17.66 146.39 2.64 191.58c25 55.59 86.93 96 137.86 107.37s158.56 13 245.13 8c0 0-195.91 39-313.16-12.34s-140.9-91.51-140.9-91.51l53.47-377.43ZM3520.31 1257.85s84.75 110.68 150.77 130.06c0 0-3.63 13-2.66 22.62 0 0-52.82 4-87.53-21s-67.5-85.29-60.58-131.68Z"/><path class="cls-3" d="m3485.32 1317.71 104.31 77.43s-53.79.88-88.52 39.95c0 0-25.2-63.82-15.79-117.38ZM4003.74 1136.26s-76.16-59.15-99.39-78.47-96.27-69.37-129.56-81.66-109.69-39.23-133.4-36.74-73.64 7.71-86.43 82.81c0 0 43.4-57.49 139.12-22.37s157.18 59.72 157.18 59.72ZM3614.75 819.33l-47.9 103.27-27.35 74.21s-5.6 25.83 3.8 39l-56 117.22s-8.09-39.5-2.53-70.84 25.84-102.11 25.84-102.11 24.28-50.77 30-66.23 9.19-53.82 9.19-53.82 11.34-47.52 17.22-58.8Z"/><path class="cls-3" d="M3689 680.31s-58.12.77-85.34 24.48-47.77 60.32-36.62 96.46l47.74 18.08 44.46-65s-9.92-12.67 2.38-33.75a404.84 404.84 0 0 1 27.38-40.27ZM3922.1 420s74.93 18.67 135.52 86.29 95.72 86.93 115.91 102.74 136.52 159.08 159.15 206.43c0 0-104.7-95.79-110.85-110.71s-69.37-70.49-86.06-82.23-87.6-64.42-113.58-81.54-96.23-63.7-126-61.58l2.73-22.18ZM4127 902.3s-61.47-39.45-86.93-64.92-67.62-59.71-96.6-79-91.32-54.44-113.27-63.22-63.23-40.4-106.26 23.71l133.48 45.66 77 36.34 86.29 50.59s85.21 49.9 106.29 50.84ZM3431.18 1574.85s28 176.17 75.2 243.59c0 0-68.08-62.5-77.18-121.8s1.98-121.79 1.98-121.79ZM3675 1440.89s32.1 61.25 51.5 71.34 50.65 59.11 54.36 67.35c0 0-32.33-36.19-45.5-45.85s-61.01-27.62-60.36-92.84ZM3500.25 2480.05s-68.62-8.48-102 23.13-56.38 104.46-56.38 104.46l-66.92-49.26s59.8-153.8 70.53-195.46Z"/><path class="cls-3" d="m3892.76 2450.49-1.77 62s-103.39 34.16-175.84 32.84-164.65-7.9-208.11-22.39-92.37-23.46-127.19 2.76l-3.69-52.81 58.43-58Z"/><path class="cls-4" d="M4082.18 1162.58a258.06 258.06 0 0 1-33.35-7.12 318.73 318.73 0 0 1-32.33-11.14c-21.2-8.45-41.62-18.68-61.82-29.06s-40.25-20.83-60.69-30.49c-10.22-4.84-20.47-9.59-30.81-14.15-5.16-2.31-10.31-4.61-15.51-6.83s-10.37-4.46-15.59-6.62a1331.81 1331.81 0 0 0-127.46-45.69C3683 1005 3661.5 998.6 3639.86 997a129.11 129.11 0 0 0-16.09-.19 102.52 102.52 0 0 0-15.69 2.19c-1.3.22-2.54.64-3.81 1a37.75 37.75 0 0 0-3.76 1.12l-7.39 2.71-7.09 3.44c-2.32 1.23-4.52 2.71-6.79 4a118.64 118.64 0 0 0-23.9 21.17 179.74 179.74 0 0 0-19.16 26.53c-11.34 19-20.38 39.47-28.89 60.4s-16.71 41.87-23 63.3c-3.1 10.72-5.74 21.55-7.75 32.47a226.3 226.3 0 0 0-3.52 33c0 2.76-.17 5.52-.1 8.28l.29 8.26c.14 2.75.48 5.48.71 8.23s.56 5.47 1 8.16c1.72 10.73 4.85 21.18 10.71 29.72s14.87 14.88 24 21.69l27.31 20.31 27.31 20.32 13.6 10.15c4.56 3.26 9.12 6.52 13.84 9.5 9.43 5.92 19.3 11.24 30 14.24a35.09 35.09 0 0 0 4 1 33.42 33.42 0 0 0 4.07.74c1.37.15 2.74.38 4.12.48l4.15.09a50 50 0 0 0 16.43-3.25 45.74 45.74 0 0 1-16.26 5.46 55.93 55.93 0 0 1-17.41-.72 83.18 83.18 0 0 1-16.67-5.08 127.7 127.7 0 0 1-15.57-7.66c-10.08-5.64-19.36-12.47-28.61-19l-27.74-19.73-27.74-19.72c-4.6-3.29-9.32-6.53-13.93-10.27a67.56 67.56 0 0 1-12.69-13.06c-7.25-10.12-10.92-22-13-33.49-.53-2.9-1-5.8-1.26-8.7s-.73-5.79-.93-8.7l-.47-8.74c-.12-2.92 0-5.83-.06-8.75a238.1 238.1 0 0 1 3-34.7 345.37 345.37 0 0 1 7.42-33.86 612.22 612.22 0 0 1 22.48-64.95c8.38-21.16 17.47-42.42 29.24-62.56a195.54 195.54 0 0 1 20.38-28.76 127.8 127.8 0 0 1 26.91-23.77c2.61-1.55 5.15-3.23 7.84-4.64l8.23-4 8.6-3.13c1.42-.57 2.93-.87 4.39-1.3s2.94-.85 4.43-1.11a117.18 117.18 0 0 1 18-2.47 144.75 144.75 0 0 1 17.93.25 213.78 213.78 0 0 1 34.67 5.83c11.27 2.77 22.27 6 33.12 9.48a1186.19 1186.19 0 0 1 128 48.19c41.72 18.34 82.25 39.57 121.51 62.31q14.79 8.41 29.71 16.45c10 5.38 20 10.51 30.28 15.22 20.39 9.62 41.74 17.37 63.92 22.2Z"/><path class="cls-4" d="M4004.58 1133.35a137.28 137.28 0 0 0 23.37 5.06 172.88 172.88 0 0 0 24.09 1.5 150.07 150.07 0 0 0 24.12-2.06 93 93 0 0 0 23.25-6.93 93.37 93.37 0 0 1-22.94 8.41 152 152 0 0 1-24.31 3.61 176.63 176.63 0 0 1-24.67 0 142.65 142.65 0 0 1-24.59-3.75ZM3840.37 1386.06c-29.81 9.13-60.36 16.37-92 18.42a210.22 210.22 0 0 1-47.73-2.5 206.75 206.75 0 0 1-23.4-5.84l-11.35-4c-3.74-1.45-7.36-3.17-11.05-4.75a232.36 232.36 0 0 1-40.92-24.63l-9.41-7.27-9-7.75c-3-2.53-5.79-5.35-8.7-8-1.43-1.36-2.89-2.69-4.29-4.07l-4.15-4.19a441.16 441.16 0 0 1-31.14-35.22c-9.79-12.18-19-24.74-27.92-37.53l2.09-1.66c20.85 23.07 41.39 46.32 64.13 67a355.24 355.24 0 0 0 35.47 29 251.06 251.06 0 0 0 39.18 22.7c3.46 1.47 6.87 3.08 10.37 4.43l10.61 3.74c7.2 2.08 14.42 4.1 21.78 5.52a250.59 250.59 0 0 0 45.09 4c7.62-.1 15.27-.19 22.94-.7 3.83-.18 7.66-.52 11.5-.83s7.69-.64 11.54-1c15.35-1.61 30.8-3.49 46.36-4.87Z"/><path class="cls-4" d="m3593.93 1340.42-47.29-5.8 47.6-1.92-.31 7.72zM3748.51 1395c39.37 9.7 80.19 14 120.69 19.21-40.76-2.61-81.69-4.18-122.35-11.41ZM3677.7 1389.75a68.84 68.84 0 0 0-2.69 27 97.94 97.94 0 0 0 6.85 27.28c7.15 17.75 18.28 34.12 31 49s27.05 29 40 44.26 24.74 31.79 31.67 50.53c-8-18.3-20.58-34-34.22-48.24s-28.56-27.49-42.52-41.92-26.56-30.76-35.41-49.51a108.89 108.89 0 0 1-9.33-29.93 81.71 81.71 0 0 1 1.38-32.14Z"/><path class="cls-4" d="M3695.59 1471.9a111.6 111.6 0 0 1 16.49-1.52 130.51 130.51 0 0 1 16.44 1c5.43.74 10.79 1.79 16.09 3.06s10.48 2.88 15.62 4.61c20.58 7 39.67 17 59.09 26 9.72 4.49 19.54 8.72 29.63 12.22a189.57 189.57 0 0 0 31 7.84c21.12 3.54 42.65 4.09 64.08 4.63-21.44 0-43-.07-64.31-3.13a192.31 192.31 0 0 1-31.5-7.18c-10.28-3.29-20.28-7.33-30.15-11.61-19.72-8.55-39-18.1-59.26-24.46-5.07-1.57-10.19-3-15.34-4.13s-10.36-2-15.58-2.59a124.8 124.8 0 0 0-15.69-.6 105.45 105.45 0 0 0-15.48 1.8ZM3718 1579.58a259 259 0 0 0 33.28 18.05 217.53 217.53 0 0 0 35 12.28 235 235 0 0 0 36.55 6.27 304.18 304.18 0 0 0 37.84.83 110.13 110.13 0 0 1-38.09 7.57 135.13 135.13 0 0 1-38.93-4.65 140.59 140.59 0 0 1-36.09-15.26c-11.16-6.82-21.41-15.1-29.56-25.09ZM3676.13 1002.15a51.44 51.44 0 0 1-15.48-14.9 72.48 72.48 0 0 1-9-18.32 78.76 78.76 0 0 1-3.9-19.55 63.73 63.73 0 0 1 1.46-19.52 62.47 62.47 0 0 0 1.5 19.08 75.11 75.11 0 0 0 6.47 17.68 64.88 64.88 0 0 0 10.51 15 41 41 0 0 0 13.94 9.87Z"/><path class="cls-4" d="M4201.71 914.15c-18.64 3.13-38 2-56.56-2.07-18.58-4.28-36.45-11.23-53.63-19.36s-33.67-17.59-50.06-27-32.63-18.76-49.2-27.65c-66.11-35.75-135.32-65.31-205.75-90.59-17.46-6.23-34.89-11.51-52.13-12.87a85.07 85.07 0 0 0-25.17 1.72 78 78 0 0 0-23.24 9.36 107.39 107.39 0 0 0-20.4 15.89 177.45 177.45 0 0 0-17.35 20.34 262.93 262.93 0 0 0-15.08 22.8c-4.73 7.91-9.14 16-13.49 24.32-8.7 16.59-17.23 33.28-25.33 50.19s-15.91 34-23.43 51.16-14.71 34.57-21.51 52.05c-3.36 8.66-6.44 17.32-8 26.14s-1.59 17.81 1.51 26l-5.58 2.37c-4.37-9.21-5.28-19.74-4.21-29.55s3.68-19.32 6.57-28.43c5.86-18 12-35.94 18.81-53.67s13.82-35.3 21.52-52.63 15.46-34.67 24-51.67 17.57-34.16 28.91-50.21A193.32 193.32 0 0 1 3652 748a125.93 125.93 0 0 1 23.91-19 97.81 97.81 0 0 1 28.89-12 104.9 104.9 0 0 1 31.06-2.17c20.48 1.57 39.4 7.8 57.31 14.41 35.6 13.41 70.52 28.34 104.6 45.06s67.52 34.61 100.1 54c16.29 9.63 32.39 19.7 48.26 29.83s31.83 20.05 48.38 28.79 33.57 16.58 51.56 21.72l6.79 1.71 3.4.87c1.14.25 2.29.44 3.44.66l6.9 1.28c2.31.4 4.64.55 7 .83 9.27 1.09 18.69.79 28.11.16Z"/><path class="cls-4" d="M4122.37 899.71c10.64 7 21.87 13.37 33 19.79s22.43 12.8 33.21 19.89c-11.29-6.22-23-11.67-34.61-17.2s-23.35-11-34.79-17.3ZM3588.72 1398.15c-23.61 3.31-45.93 12.77-65.37 26.17a193.4 193.4 0 0 0-49.4 50.23 198.06 198.06 0 0 0-17.28 30.7 206.29 206.29 0 0 0-11.49 33.36 291.45 291.45 0 0 0-6.79 34.92l-1.06 8.88-1 9.07-1.91 18.09c-1.22 12-2.31 23.94-2.61 35.79a217 217 0 0 0 1.88 35.19 193.33 193.33 0 0 0 8.09 34.1 221.42 221.42 0 0 0 14.24 32.14 279.39 279.39 0 0 0 19.42 29.79c7.13 9.58 14.94 18.7 22.93 27.74s16.49 17.68 24.94 26.41 17.14 17.29 25.65 26c-19.71-14.4-38.92-29.49-56.9-46.28a364.2 364.2 0 0 1-25.61-26.76 265 265 0 0 1-21.91-30.31 201.08 201.08 0 0 1-16.3-34.06 189.33 189.33 0 0 1-9.1-36.73A234 234 0 0 1 3417 1645c.29-12.48 1.29-24.82 2.59-37l2.07-18.19 1.06-9.07 1.17-9.23a305 305 0 0 1 7.44-36.64 220 220 0 0 1 13-35.32 199.7 199.7 0 0 1 19.2-32.42c14.68-20.23 33.05-38.06 54.27-51.35s45.49-22 70.37-23.68ZM3894.25 1949.15q26.09-47.58 52.75-94.81c8.88-15.73 17.51-31.68 27.71-46.91a221.67 221.67 0 0 1 16.66-22c6-7 12.42-13.53 19-19.85s13.17-12.5 19.67-18.72c3.26-3.09 6.41-6.27 9.58-9.44l4.76-4.75 4.64-4.87q18.56-19.48 36-40.14c23.29-27.43 45.24-56 66.86-84.89s42.43-58.43 63-88c10.14-14.83 19.88-29.87 28.53-45.44a287.12 287.12 0 0 0 22.13-48.28c5.62-16.69 9.41-34 10-51.55.05-2.19.23-4.39.17-6.58l-.31-6.56c-.16-2.19-.09-4.41-.43-6.57l-.79-6.52a148.54 148.54 0 0 0-6.35-25.56c-11.76-33.25-35.83-62.58-67.56-80.09 33.27 14.55 60.27 43.28 74.18 77.58a155.28 155.28 0 0 1 7.94 26.67l1.12 6.9c.44 2.3.45 4.63.69 6.94l.57 7c.13 2.32 0 4.65.05 7a179.85 179.85 0 0 1-9 54.8 296.35 296.35 0 0 1-22 50.64c-8.81 16.1-18.64 31.51-28.8 46.58s-20.66 29.82-31.25 44.52-21.32 29.3-32.2 43.8c-21.75 29-44.39 57.37-68.25 84.78-11.9 13.72-24.21 27.12-37.11 40l-4.82 4.84-4.95 4.72c-3.3 3.15-6.58 6.32-10 9.37-6.7 6.13-13.46 12.12-20 18.22s-13 12.3-19 18.83a213.44 213.44 0 0 0-16.74 20.72c-10.38 14.53-19.51 30.13-29.07 45.49q-28.47 46.21-57.38 92.13Z"/><path class="cls-4" d="M4263.1 1426.14q35.32-49.34 71.41-98.1l36-48.74c5.88-8 11.35-16.13 15.38-24.66a91.57 91.57 0 0 0 7.63-27 108.37 108.37 0 0 0-.56-28.43 129.8 129.8 0 0 0-7.67-27.8 148 148 0 0 0-13.11-26l-4.06-6.07-4.4-5.84c-3-3.84-6.15-7.66-9.48-11.29a299.31 299.31 0 0 0-44.46-40c-16.18-12-33.51-22.59-51.05-32.62 17.75 9.69 35.7 19 53.3 29.22s34.67 21.84 49.5 36.39c3.71 3.62 7.23 7.43 10.66 11.37l4.93 6.12 4.59 6.38a159.62 159.62 0 0 1 15.12 27.61 140.87 140.87 0 0 1 8.88 30.43 112.55 112.55 0 0 1 .78 32 102.6 102.6 0 0 1-8.85 31.07c-4.68 9.74-10.7 18.43-16.78 26.67l-36.61 48.45q-36.61 48.38-73.93 96.22Z"/><path class="cls-4" d="M4388.48 1251.11c11.46-10.72 22.76-21.79 33.82-33s22-22.59 32.6-34.21 20.76-23.64 30.1-36.12c1.15-1.57 2.38-3.1 3.46-4.7l3.26-4.79c2.29-3.16 4-6.5 6-9.76 3.69-7 7.37-14 10.87-21 7-14 13.12-28.39 16.93-43.38s5.3-30.46 3.2-45.59a101.81 101.81 0 0 0-5.66-22.12 111 111 0 0 0-10.48-20.36l-3.2-4.78-3.51-4.58c-1.13-1.56-2.4-3-3.67-4.46s-2.49-2.94-3.81-4.35c-2.73-2.73-5.29-5.64-8.21-8.19l-4.27-3.94-4.48-3.85c-23.92-20.56-48.64-40.24-73.45-59.84l-37.24-29.46c-12.4-9.85-24.82-19.72-37-29.86-24.48-20.21-48.37-41.39-70.06-65.12-10.75-12.24-20.41-24.32-30.87-36.11s-21.15-23.22-32.14-34.42-22.42-21.93-34-32.49-23.67-20.63-35.94-30.31-24.8-19.1-37.74-27.89c-6.37-4.52-13-8.66-19.52-13l-20.06-12.37c-27.26-16.67-53.24-34.94-79.9-51.12-13.34-8-26.87-15.57-40.83-21.35s-28.34-9.87-42.63-10.24a79.78 79.78 0 0 0-40.83 9.89c-3.19 1.65-6.26 3.69-9.37 5.66-3 2.17-6.08 4.25-9 6.64s-5.82 4.8-8.72 7.23c-2.8 2.59-5.67 5.07-8.38 7.79-5.54 5.27-10.81 10.92-16.08 16.56s-10.32 11.55-15.24 17.58c-9.94 12-19.37 24.44-28.5 37.15s-17.89 25.74-26.6 38.82l-25.9 39.82c-4.74 6.89-9.85 13-14.74 19.2s-9.79 12.21-14.16 18.48-8.36 12.69-10.78 19.47-3 13.81.06 20.13l-5.2 3.11a27.88 27.88 0 0 1-4.65-12.59 39 39 0 0 1 .95-13.2 88.52 88.52 0 0 1 9.84-23.11c8.11-14.2 18.21-26.84 26.09-39.66 3.9-6.48 7.89-13.54 11.89-20.35s8.19-13.63 12.38-20.41q12.54-20.34 26.32-40c9.17-13.09 18.67-26 28.79-38.5a385.6 385.6 0 0 1 32.5-36c2.88-2.88 6-5.58 9-8.35s6.22-5.4 9.55-7.91 6.68-5 10.09-7.43c3.57-2.28 7.1-4.61 10.94-6.61a100.36 100.36 0 0 1 24.32-9.41 94.09 94.09 0 0 1 26-2.58c17.44.66 33.9 5.69 49.06 12.16s29.3 14.6 43 23c27.26 16.95 52.9 35.41 79.47 52l5 3.11 5.07 3.23 10.12 6.47c6.61 4.52 13.34 8.87 19.8 13.59 13.11 9.19 25.74 19 38.17 29.07s24.38 20.68 36.14 31.48 23 22.16 34 33.71 21.61 23.47 31.91 35.63 20.15 24.93 30 36.67c20.56 23.4 43.74 44.79 67.65 65.3 6 5.14 12 10.26 18.06 15.3s12.13 10.11 18.26 15.09l36.91 29.8c24.64 19.87 49.24 39.87 73.11 60.79a224 224 0 0 1 17.5 16.62c1.38 1.48 2.66 3 4 4.57s2.66 3.06 3.86 4.71l3.69 4.84 3.4 5.08a119.59 119.59 0 0 1 11.2 21.81 111.34 111.34 0 0 1 6.07 23.75c2.34 16.25.83 32.83-3.13 48.51s-10.17 30.68-17.08 45.06c-3.48 7.2-7 14.24-10.67 21.31-2 3.56-3.93 7.28-6.24 10.57l-3.34 5.07c-1.11 1.69-2.34 3.26-3.51 4.9-9.44 13-19.67 25.21-30.11 37.22-20.86 24-42.75 47-65.06 69.67Z"/><path class="cls-4" d="M3789.55 742a91.73 91.73 0 0 1-3.62-10c-1-3.34-1.85-6.68-2.56-10.06a129.2 129.2 0 0 1-2.73-20.39 124.23 124.23 0 0 1 .43-20.42 131.55 131.55 0 0 1 3.58-20l1.55.34a128.21 128.21 0 0 0-1.58 19.81 119.54 119.54 0 0 0 1.51 19.66 122.24 122.24 0 0 0 4.49 19.06c1 3.1 2.1 6.15 3.3 9.14a86.52 86.52 0 0 0 4 8.52ZM3879.52 475.12c.95-2.54 1.81-4.68 2.77-7s1.9-4.45 2.9-6.65q3-6.61 6.32-13a226 226 0 0 1 15-25 142 142 0 0 1 19.38-22.84c7.43-7 16.29-13.24 26.81-17a56.18 56.18 0 0 1 7.91-2.07c2.54-.46 5.08-1.08 7.64-1.36l7.66-.69c2.55-.19 5.08-.05 7.62-.08h3.81l3.76.34c2.49.26 5 .38 7.49.77a145.24 145.24 0 0 1 14.61 2.93 192.34 192.34 0 0 1 53.49 23 296.37 296.37 0 0 1 45.64 34.67 454.4 454.4 0 0 1 38.9 41.3c24.33 28.76 45.31 59.77 66.83 89.84 10.76 15 21.71 29.84 33.39 44a373.37 373.37 0 0 0 37.7 39.68c13.44 12.3 28.13 23.6 42.63 35.24s29 23.43 42.89 36.07a377.07 377.07 0 0 1 38.89 40.73c6 7.27 11.49 15 16.74 22.8 2.51 4 5.14 7.93 7.42 12.07 1.16 2.06 2.38 4.08 3.5 6.16l3.25 6.29c17.17 33.72 25.35 71.61 25.41 109.11l-6.06.08c-.77-36.71-9.43-73.21-26.62-105.44l-3.25-6c-1.12-2-2.34-3.92-3.5-5.88-2.27-4-4.89-7.7-7.38-11.52a273.16 273.16 0 0 0-16.63-21.76c-11.73-14-24.91-26.84-38.66-39s-28.31-23.53-43-34.8-29.68-22.4-43.88-34.92a387.12 387.12 0 0 1-39.63-40.36c-12.23-14.3-23.61-29.2-34.7-44.17-22.18-29.95-43.4-60.2-67.54-87.79a437.33 437.33 0 0 0-38.03-39.13 278.46 278.46 0 0 0-43.44-31.92c-15.37-9.1-31.82-16.18-48.73-20.13a123.86 123.86 0 0 0-12.71-2.34c-2.13-.3-4.25-.35-6.37-.54l-3.18-.25h-3.16c-2.1.07-4.22 0-6.29.16l-6.2.66c-2 .25-4 .81-6 1.18a38 38 0 0 0-5.53 1.52c-7 2.63-13.61 7.27-19.57 13.09a121.71 121.71 0 0 0-16.23 19.85 204.79 204.79 0 0 0-13.31 22.98c-2 4-3.86 8-5.63 12.11-.89 2-1.74 4.1-2.56 6.15s-1.65 4.2-2.29 6ZM3792.57 530.26c-1.36-2.52-3.13-5.4-4.85-8s-3.59-5.31-5.51-7.87a114.72 114.72 0 0 0-12.52-14.23 68.33 68.33 0 0 0-14.55-10.86 40.89 40.89 0 0 0-7.91-3.26 35.92 35.92 0 0 0-4-.93l-2-.24c-.68-.08-1.61-.12-2.4-.18a349.84 349.84 0 0 0-39.69-.5c-6.74.19-13.55.66-21.15 0-7.56-.85-13.93-2.47-20.46-3.6-12.85-2.37-25.69-3.56-37.29-.71a48.76 48.76 0 0 0-16.06 7.42 67.15 67.15 0 0 0-13.28 12.7c-8 9.81-14.34 21.36-19.94 33.28s-10.58 24.54-16 36.92c-10.71 24.81-21.51 49.68-34.71 73.75-1.64 3-3.37 6-5.13 9-.85 1.44-1.87 3-2.59 4.36l-2.13 3.9a64 64 0 0 0-5.06 17.56 93.54 93.54 0 0 0-.89 9.36c0 3.17-.09 6.34.17 9.53a119.81 119.81 0 0 0 2.65 19 124.8 124.8 0 0 0 13.47 35.81 96.75 96.75 0 0 0 11.15 15.15 110.47 110.47 0 0 0 14.11 12.56 154.81 154.81 0 0 0 33.74 18.62 292.38 292.38 0 0 0 37.46 12.25l-4.83 16.57a355 355 0 0 1-38.77-14.7c-12.62-5.87-25.08-12.62-36.28-21.5a125.12 125.12 0 0 1-15.59-14.79 118.23 118.23 0 0 1-12.5-17.63 142.45 142.45 0 0 1-14.51-39.76 132.82 132.82 0 0 1-2.78-21c-.26-3.54-.17-7.12-.15-10.69a106 106 0 0 1 1-10.76 76.31 76.31 0 0 1 6.13-21.16l2.7-5c.9-1.62 1.71-2.88 2.57-4.34 1.68-2.83 3.34-5.68 4.92-8.59 12.73-23.26 23.44-48 34.06-72.65 10.68-24.42 19.77-50.74 37.56-73.35a80.43 80.43 0 0 1 15.76-15.26 62.45 62.45 0 0 1 20.39-9.59 79.64 79.64 0 0 1 22-2.18 149.82 149.82 0 0 1 21 2.37c6.76 1.14 13.54 2.71 19.38 3.29s12.55.09 19.28-.18a371.94 371.94 0 0 1 41.17 0c.89.06 1.65.07 2.64.16l3 .32a51.32 51.32 0 0 1 5.84 1.25 55.36 55.36 0 0 1 10.83 4.27 82.7 82.7 0 0 1 18 13 136.41 136.41 0 0 1 14.45 15.85q3.29 4.19 6.27 8.58c2 3 3.86 5.8 5.77 9.17Z"/><path class="cls-4" d="M3715.56 634.64a248.1 248.1 0 0 0-10.8-26.66 119.6 119.6 0 0 0-6.77-12.33 40.89 40.89 0 0 0-8.36-9.93 13.62 13.62 0 0 0-2.27-1.47 6.84 6.84 0 0 0-1.09-.48l-.26-.11-.42-.13-.85-.26c-2.23-.7-4.53-1.32-6.83-1.93-4.6-1.22-9.27-2.29-13.95-3.26a248.56 248.56 0 0 0-28.35-4.12c-9.45-.73-19-.91-28.08.46-8.94 1.12-17.25 4.9-25.05 9.85a110.44 110.44 0 0 0-21.15 18.28 148.45 148.45 0 0 0-17 22.66c-1.18 2-2.45 4.06-3.56 6.15s-2.24 4.11-3.37 6.33l-6.77 13-6.81 13-.42.81-.2.39-.1.23a3.5 3.5 0 0 0-.33.9 4.14 4.14 0 0 0-.12 1.82 5.19 5.19 0 0 0 1.81 3.27 4.86 4.86 0 0 0 3.53 1.09h.6l.91-.14 1.82-.27 3.64-.54 14.57-2q14.59-1.94 29.24-3.43c19.53-2 39.15-3.35 58.85-3.54 9.84-.18 19.71.14 29.57.72a213.18 213.18 0 0 1 29.51 4l-1.28 5.93c-18.81-3.47-38.29-3.87-57.65-3.26s-38.76 2.35-58.08 4.54c-9.66 1.09-19.31 2.37-28.94 3.77l-14.42 2.19-3.6.58-1.8.3-.9.14c-.25 0-.83.1-1.23.14a14.13 14.13 0 0 1-10.15-3 14.53 14.53 0 0 1-5.26-9.17 13.48 13.48 0 0 1 .27-5.44 12.75 12.75 0 0 1 .9-2.54l.27-.62.22-.42.41-.82 6.61-13.05 6.65-13c1.08-2.15 2.32-4.42 3.49-6.63s2.51-4.36 3.76-6.54a157.42 157.42 0 0 1 18-24.24 120.28 120.28 0 0 1 23-20c2.21-1.35 4.35-2.79 6.69-4 1.16-.59 2.28-1.24 3.47-1.79l3.61-1.57a38.18 38.18 0 0 1 3.71-1.38c1.26-.4 2.48-.9 3.78-1.2a67.32 67.32 0 0 1 7.76-1.6c10.26-1.57 20.4-1.38 30.4-.67a226 226 0 0 1 29.63 4.32c4.87 1.07 9.73 2.16 14.54 3.57 2.41.7 4.81 1.42 7.22 2.24l.9.3.45.15.58.24a16.45 16.45 0 0 1 2.24 1 23.09 23.09 0 0 1 3.8 2.6 34.77 34.77 0 0 1 5.71 6.13 62.17 62.17 0 0 1 4.35 6.57 109.31 109.31 0 0 1 6.64 13.71c1.93 4.63 3.52 9.36 5 14.09s2.83 9.48 3.91 14.4Z"/><path class="cls-4" d="m3520.57 663.81-1.1-6c126.65-23.47 183.18-4.43 185.52-3.61l-2 5.72c-.14-.05-14.38-4.9-43.85-6.84-27.22-1.75-73.35-1.35-138.57 10.73ZM3569.6 802.13a216.26 216.26 0 0 0-12.94 43.79 206.92 206.92 0 0 0-2.84 22.56c-.29 3.78-.41 7.52-.5 11.38s-.18 7.85-.52 12a67.65 67.65 0 0 1-2.18 12.51 83.63 83.63 0 0 1-4.27 11.81c-3.34 7.54-7.45 14.37-11.16 21.07a166.58 166.58 0 0 0-9.78 20.24c-2.86 6.95-5.34 14.13-7.67 21.42-8.87 29.57-18.35 59.2-24.56 89.09a302.46 302.46 0 0 0-6.23 45.21 209.64 209.64 0 0 0 2.28 45.5l-5.9 1.37a173.17 173.17 0 0 1-6.6-47.08 266.7 266.7 0 0 1 4.11-47.35c2.73-15.57 6.4-30.89 10.62-46s8.63-29.91 13.42-44.92c2.45-7.49 5.08-15 8.21-22.4a179.92 179.92 0 0 1 10.92-21.5c8-13.58 15.93-26 17.29-40.18.44-3.62.63-7.4.9-11.3s.59-7.93 1.07-11.88a188.78 188.78 0 0 1 4.19-23.51 192.62 192.62 0 0 1 16.65-44.42ZM3488 1318c-1 9.54-.53 19.09.31 28.84s1.8 19.76 2.47 29.66l1.12 14.57a108.54 108.54 0 0 0 2.13 14.07 128.77 128.77 0 0 0 9.2 27.08l-5.14 3.2a83.17 83.17 0 0 1-14.05-27.7 93.86 93.86 0 0 1-3.25-15.28c-.45-5.06-1.05-10.2-1.38-15.2-.56-10-1.17-19.8-1.26-30s.6-20.67 3.94-30.61ZM3992.47 1794.57c-9.27 35.92-17.22 72.31-25 108.63l-5.52 27.34-2.76 13.67-2.57 13.7c-3.41 18.28-7.1 36.5-10.11 54.84-12.87 73.23-24.19 146.77-32 220.74s-14.22 148.09-17 222.42l-1.17 27.87-.59 13.93c-.19 4.65-.16 9.3-.24 13.95l-.87 55.78-.23 13.95-.1 7 .1 7 .42 27.9.72 55.81-6.06.25c-3-74.51-4.75-149.18-1.76-223.76l.88-28 .46-14 .82-14 3.27-55.88c.31-4.65.46-9.32.9-14l1.22-13.94 2.44-27.89 2.45-27.88c.79-9.29 2-18.55 3-27.82 2.12-18.54 4-37.11 6.33-55.62l7.44-55.48c1.15-9.27 2.76-18.46 4.14-27.69l4.31-27.65 2.2-13.82 2.45-13.79 4.93-27.55c3.18-18.39 7.14-36.63 10.77-54.94l2.84-13.7 3.08-13.66 6.17-27.3 6.57-27.21c1.13-4.53 2.16-9.08 3.35-13.59l3.61-13.53 3.61-13.53 3.79-13.48c2.49-9 5.21-17.92 8-26.87ZM3459.53 1752.62c-3.54 34.54-7.71 68.83-12.15 103.16s-9.27 68.56-14.45 102.76-10.72 68.34-16.63 102.43S3404 2129 3397.16 2163c-13.72 67.81-29.25 135.3-48.17 201.91l-7.23 24.94-7.7 24.8c-2.48 8.3-5.4 16.46-8.09 24.69l-4.12 12.31-4.41 12.22c-11.73 32.59-24.68 64.81-40.15 95.89l-5.44-2.68c14.93-31 27.39-63.12 38.64-95.66l4.23-12.19 4-12.3c2.57-8.22 5.38-16.36 7.74-24.65l7.35-24.77 6.89-24.92c18-66.54 32.63-134 45.46-201.74q9.53-50.85 17.8-101.92t15.3-102.34q7.11-51.24 13.12-102.63c4-34.24 7.73-68.58 10.81-102.81ZM3457.85 1679.58c18.21 18.27 36.72 36 56 53s39.09 33 59.69 48.2L3589 1792l15.8 10.87 16 10.61q8.14 5.05 16.23 10.25c21.79 13.46 44.16 26 66.91 38.18a478.23 478.23 0 0 1-70.58-31.89q-8.47-4.72-16.85-9.62l-16.51-10.17-16.14-10.81-15.86-11.28a573.13 573.13 0 0 1-59.05-50.39 489.87 489.87 0 0 1-51.1-58.17ZM3571.7 1608.82a113.06 113.06 0 0 0 21.39 32.11c8.7 9.34 18.44 17.72 28.48 26s20.33 16.66 30.13 25.5a368.17 368.17 0 0 1 28.35 28 366.37 366.37 0 0 1-33.77-21.1c-10.85-7.58-21.46-15.28-31.81-23.77s-20.16-18-28.18-29.08-13.8-24.22-14.59-37.66ZM3576 1605.45c19.89 5.7 39.57 11.6 59.32 17.16s39.55 10.8 59.44 15.67 39.89 9.32 60 13.52 40.3 7.89 60.6 11.83a483.1 483.1 0 0 1-61.83-4.63 596.6 596.6 0 0 1-61-11.45 571.48 571.48 0 0 1-59.5-17.68 456.39 456.39 0 0 1-57.03-24.42Z"/><path class="cls-5" d="M3973.61 2169.12a70 70 0 0 0 1-26.39c-6.14-39.82-45.52-63.77-45.52-63.77l-5.93 39c35.17 30.12 31.1 138.8-227.53 129S3367 2102.2 3377.12 2063.55s43.12-66.74 43.12-66.74l3.53-23.44c-21.7 4.84-78.85 37.43-81.82 100.36l-.17-.43c-8.18 34.77-29.56 257.69-29.56 257.69s62.05 150.31 319.41 178.16c204.92 22.17 323.31-73.19 323.31-73.19 9.54-65.28 16.21-207.83 18.67-266.84Z"/><path class="cls-6" d="M3692.25 2515.38a566.79 566.79 0 0 1-60.93-3.32c-133.72-14.47-214-62.49-257.87-100.24-47.68-41.05-63.37-78.21-64-79.77l-.29-.7.08-.75c.87-9.11 21.48-223.52 29.62-258.1l5.91 1.39c-7.81 33.15-28 241.92-29.42 256.51 2.34 5.18 19.08 39.9 62.39 77.1S3500 2491.76 3632 2506c105.12 11.37 186.81-8.94 236.83-28 48.92-18.64 77.92-39.71 83.33-43.83 11.93-83.16 19.42-289.6 19.5-291.69l6.06.22c-.08 2.1-7.65 210.88-19.73 293.56l-.17 1.18-.93.74c-1.22 1-30.61 24.38-85.64 45.38-40.58 15.52-101.67 31.82-179 31.82Z"/><path class="cls-6" d="M3692.25 2515.38a566.79 566.79 0 0 1-60.93-3.32c-133.72-14.47-214-62.49-257.87-100.24-47.68-41.05-63.37-78.21-64-79.77l-.29-.7.08-.75c.87-9.11 21.48-223.52 29.62-258.1l5.91 1.39c-7.81 33.15-28 241.92-29.42 256.51 2.34 5.18 19.08 39.9 62.39 77.1S3500 2491.76 3632 2506c105.12 11.37 186.81-8.94 236.83-28 48.92-18.64 77.92-39.71 83.33-43.83 11.93-83.16 19.42-289.6 19.5-291.69l6.06.22c-.08 2.1-7.65 210.88-19.73 293.56l-.17 1.18-.93.74c-1.22 1-30.61 24.38-85.64 45.38-40.58 15.52-101.67 31.82-179 31.82Z"/><path class="cls-6" d="M3730.75 2300.66c-17.79 0-36.61-.89-56.53-2.8-86.82-8.31-169.66-35.63-233.25-76.93-57.62-37.42-94.32-82.48-100.71-123.63-6.73-43.44 11.18-73.78 27.39-91.58 18.09-19.86 41.44-32.28 55.47-35.41l4.32-1-4.36 28.93-.86.74c-.33.27-32.43 28-42.16 65.2-3.16 12.12 2.53 36.33 22.4 63.09 15.31 20.62 44.66 50.32 97.63 74.8 53.57 24.75 119.41 38.77 195.7 41.67 61.83 2.35 208.64.15 236.42-70.82 8.75-22.35.45-43.05-11-52.82l-1.21-1.1 6.87-45.14 3.89 2.36c.66.41 65.89 41 42.8 103.71-22.46 60.99-97.81 120.73-242.81 120.73Zm-310.66-323.21c-12 3.94-31.76 14.56-48 32.35-15.32 16.82-32.24 45.5-25.87 86.57 12.47 80.41 147.46 178.13 328.53 195.45 84.76 8.11 155-1.29 208.83-28 55.94-27.71 76.77-65.77 84.21-86 18.43-50.11-23.08-84.42-36.4-93.86l-5 32.65c12.32 11.53 20.9 34.23 11.4 58.5-6.28 16-22.86 38.54-66.25 54.84-42.55 16-101.79 22.64-176.05 19.83-77.09-2.93-143.72-17.13-198-42.23-54.12-25-84.22-55.5-99.95-76.68-22.51-30.32-26.67-55.71-23.39-68.25 9.42-36 37.76-62.66 43.22-67.52Z"/><path class="cls-7" d="M3420.25 1996.71s-33 28.1-43.12 66.74S3437 2237 3695.68 2246.81s262.7-98.85 227.53-129l5.93-39s64 38.94 41.54 100.08-107.34 134-296.17 115.91-319.12-119.82-331.25-198 56.3-118.17 80.52-123.57Z"/><path class="cls-6" d="M3420.25 1996.71 3397.09 2125s-22.49-30.66-20.84-51.85 24.27-64.61 44-76.44ZM3923.21 2117.83l-11 86.29s27.27-23.86 26.26-43.14-3.98-35.37-15.26-43.15Z"/><path class="cls-5" d="m3443.72 2335.06-9.42-43.69a12.09 12.09 0 0 0-14-9.35c-16.3 3-45.18 8.31-55 9.32h-.35v-.17l.31.14s20-32.8 13.45-63.46v-.12.43c.06-.31.09-.63.15-.94 1.31-3.63 2.15-8 .88-12-.45-15-6-29.8-9.94-38.53a13.24 13.24 0 0 0-12.5-7.74l-3.36.11-.08-.11-28.27 1a142.67 142.67 0 0 0-48.36-14.95c-11.09-1.21-25.23-4.32-40.65-6.16a433.98 433.98 0 0 0-4.33-3.79c-13.62-15.73-34.41-31.65-48.69-41.77a70.31 70.31 0 0 0-16-11.35 75.18 75.18 0 0 0-19.34-33.21c-44.49-45.45-78.33-70.94-102.83-86.49-21.59-13.7-59.68-34.56-95.72-6.48h-.05c-33.13-22.35-59.59-19.17-59.59-19.17l.54.17h-.44l-.1-.15c-9.83-15.31-20.25-27.44-23.68-33.55-8.27-14.77-33.18-40.26-33.18-40.26l-7.91 17.94-16.62-1.83-22.14 12.42 11.42 13.12c-8.14 2.08-20.32 13.86-20.32 13.86 12 5.67 23.26 16.42 33.87 28.81-55.26 16.7-66 56.48-59.47 96.31 2.2 13.46 10.6 26.06 22.24 37.15-18.81 5.47-29.33-22.62-29.33-22.62l-10.31 8.76-11.6-1.31 6.23 24.44-12.71-1.4-8.1 10.65 9.88 9.17-15.41 5.23c15.13 15.35 47.26 20.2 62.9 21.92s56.47-23.83 56.47-23.83a179.09 179.09 0 0 0 35.89 12c27.1 5.63 75.05 7 113.24 1.24l2.73 2.05-3.19-2s32 31.56 64.75 40.1l-2.55-1.58c.78.29 1.54.55 2.27.79.1.27.18.52.28.79 16.14 42.34 63.23 82.14 112.26 113.25a64.88 64.88 0 0 0 19.8 8.48s32.79 34.63 116 47.36l-.18-.07c.92.16 1.81.31 2.66.44 24.14 16 52.75 19.05 66.22 18.68 21.21-.59 62.1-9.23 82.16-13.73a12.1 12.1 0 0 0 9.12-14.32ZM2882 2067.21s21.09-27.09 21.91-37.1l8.59 2.56s-2.45 13.7 7.4 35.64c.03 0-27.99 1.21-37.9-1.1Zm154.42 43.58-5.72-4.74s10-30.38 7.73-56.68l35 27s-24.15 13.81-36.98 34.42Zm131.22 186 .88.18.67.45Z"/><path class="cls-6" transform="rotate(-73.3 2908.233 2031.39)" d="M2905.16 2026.95h6.06v8.88h-6.06z"/><path class="cls-6" d="M3730.75 2300.66c-17.79 0-36.61-.89-56.53-2.8-86.82-8.31-169.66-35.63-233.25-76.93-57.62-37.42-94.32-82.48-100.71-123.63-6.73-43.44 11.18-73.78 27.39-91.58 18.09-19.86 41.44-32.28 55.47-35.41l4.32-1-4.36 28.93-.86.74c-.33.27-32.43 28-42.16 65.2-3.16 12.12 2.53 36.33 22.4 63.09 15.31 20.62 44.66 50.32 97.63 74.8 53.57 24.75 119.41 38.77 195.7 41.67 61.83 2.35 208.64.15 236.42-70.82 8.75-22.35.45-43.05-11-52.82l-1.21-1.1 6.87-45.14 3.89 2.36c.66.41 65.89 41 42.8 103.71-22.46 60.99-97.81 120.73-242.81 120.73Zm-310.66-323.21c-12 3.94-31.76 14.56-48 32.35-15.32 16.82-32.24 45.5-25.87 86.57 12.47 80.41 147.46 178.13 328.53 195.45 84.76 8.11 155-1.29 208.83-28 55.94-27.71 76.77-65.77 84.21-86 18.43-50.11-23.08-84.42-36.4-93.86l-5 32.65c12.32 11.53 20.9 34.23 11.4 58.5-6.28 16-22.86 38.54-66.25 54.84-42.55 16-101.79 22.64-176.05 19.83-77.09-2.93-143.72-17.13-198-42.23-54.12-25-84.22-55.5-99.95-76.68-22.51-30.32-26.67-55.71-23.39-68.25 9.42-36 37.76-62.66 43.22-67.52ZM3310.34 2269.6s-32.87-25.23-63-26.67l2.77-19.09s48.81 9.32 60.23 45.76ZM3246.6 2269.6s-22.76 18.16-35.49 21.59c0 0 14.49 10.9 43.47 13.54 0 0-8.49-24.15-7.98-35.13ZM3157 2161.62s-28.42-17.35-47.51-41.62l-6.79 8.66a34.67 34.67 0 0 0 6.79 29.36c11.21 14.11 26.29 29.18 26.29 29.18l14.78-15.56Z"/><path class="cls-6" d="M3169.22 2134.78s14.67 7.93 17.74 16.71l-30 10.13ZM3357.35 2169s-18.86-20.44-20.23-43.16l-6 45.83ZM3439.76 2346.82s16.24 1.26 9.65-35.29-17.78-53.67-31.28-52.36-14.82 10.16-19.92 15.62-18.2 14.4-18.2 14.4l40.25-7.17s11.24-3.2 15.42 15.62 8 37.42 8 37.42 1.32 9.16-3.92 11.76Z"/><path class="cls-6" d="m3420.98 2259.17-44.8 6.36-11.29 25.84 55.37-9.35.72-22.85z"/><path class="cls-6" d="M3380.32 2221.5c12.25 13 10.81 44.59 10.81 44.59s-1 4.87-7.24 4.77-8.83-.62-7.71-5.33 5-18 4.41-23.32-.27-20.71-.27-20.71M3030.73 2104.64l5.72 6.16c-11.3 14.2-7.22 39.38-7.22 39.38s-21.28-12.14-23.65-23.85c0 0 20.42-9.59 25.15-21.69ZM2969.62 2054s-1.92-13.19 4.62-16.47c0 0-30.36 15.8-61.78 0 0 0 1.57 19.68 7.47 30.75 0 .03 36.84 3.22 49.69-14.28ZM2897.18 2044.14s-37.21.66-56.31-22.06c0 0-7 10.54-14.84 13.5 0 0-2.86 17.3 18 24.46s34.37 7.74 34.37 7.74a39.13 39.13 0 0 0 18.78-23.64ZM2797.4 2107.37s-18.48-9.93-23.07-16.82a11.52 11.52 0 0 1-6.89.35 73.69 73.69 0 0 0 28.38 45.23l26.37-14.56ZM2811.56 1957.09l-21.09 8.53s23.07 19.25 30.31 28.8 15.48 19.76 11.2 32.27c0 0 10.54-4.61 10.54-15.48s0-19.43-8.89-28.65-22.07-25.47-22.07-25.47ZM2935.15 1957.09s-23.08 17.78-24.76 34.8-3.73 31.38-5.09 34.8 4.33 6.91 7.16 0 7-28.77 14-34.8 23.33-26.12 23.33-26.12Z"/><path class="cls-6" d="M2971.37 2049.37s10.11-6.94 27.56-4.44 39.19 16.66 39.19 16.66.25-11.39-2.51-14.42-24.16-12.25-24.16-12.25-18.77-2-26-1.31-14.3 3.86-14.08 15.76ZM3226.28 2138.41s-44-2.72-62.39 9.79l-6.93 16.41s27-17.32 39.88-17 39.79 1.28 39.79 1.28ZM3209.08 2225.73s-52.9-21.42-64.51-47.83c0 0-10.3 6.52-5.69 13.77s24.7 22.72 24.7 22.72 20.73 16.22 28.31 15.19a142.2 142.2 0 0 0 17.19-3.85Z"/><path class="cls-7" d="M2958.55 1959.89s38.17-23.68 86.93 12.36 102.83 86.49 102.83 86.49-71.11-56.53-101-71.46-43.63-33.28-88.76-27.39ZM3363 2198.43s-47.78-24.58-73.69-29.61-59.83-10.74-80.18-10.74-58.56 13.56-58.56 13.56 21.94-31.91 93.07-21.86 95.09 21.39 119.36 48.65ZM2828 1884.68s51.17 53.87 59.07 77.58 18.87 30.07 18.22 64.43c0 0 13-23.16-5.48-63.12s-42.59-64.1-42.59-64.1l-24-26.7ZM2963.92 2076.1s-42.45 5-62.94 4-57.36-6.3-68.34-14.64c0 0 22.53 20.63 68.34 22.39s62.94-11.75 62.94-11.75ZM3091.25 2145.35s9.66 28.1 31.61 49.61 43 44.43 66.74 46.37c0 0-21.08 6.36-68.5-37.57s-29.85-58.41-29.85-58.41ZM3290.14 2274.79s5.27 41.3 48.74 45.49c0 0-49.18 8.87-48.74-45.49Z"/><path class="cls-7" d="M3209.08 2184.86s56.68-6.58 95.87 22.39c.05 0-50.95-18.88-95.87-22.39ZM3949.61 2274.79s-90.45 76.48-245.87 65.06-194.95-35.12-194.95-35.12 64.11 56.19 226.56 51.8 214.26-81.74 214.26-81.74Z"/><path class="cls-6" d="M3415.5 2382.88s101.8 73 274.19 86.93c0 0-150.95 12.7-274.19-86.93ZM3350.67 2366.07c-10.8 0-56.55-2.1-85.27-36.08-21-24.85-27.15-60.31-18.25-105.38l5.95 1.18c-8.52 43.17-2.83 76.91 16.93 100.28 23.59 27.92 62.84 34.45 82.29 33.91 20.62-.57 60-8.8 81.58-13.66a9.09 9.09 0 0 0 6.86-10.76l-9.43-43.7a9 9 0 0 0-10.51-7c-16.38 3.06-45.34 8.34-55.28 9.36l-1.52.16c-15.39 1.63-51.42 5.45-62-36.17l5.87-1.49c9.29 36.52 40.5 33.21 55.49 31.63l1.55-.17c9.72-1 38.49-6.24 54.77-9.28a15 15 0 0 1 17.56 11.69l9.43 43.7a15.18 15.18 0 0 1-11.46 18c-21.83 4.9-61.61 13.22-82.74 13.8-.39-.04-1.01-.02-1.82-.02Z"/><path class="cls-6" d="m3367.83 2292.77-5.18-3.16c.25-.42 25.42-42.53 8.39-74.23-17.68-32.9-60.72-53.83-94.09-57.49-5.43-.59-11.61-1.64-18.14-2.75-36.89-6.25-87.4-14.81-120.33 33.56l-5-3.41c35.12-51.59 90-42.29 126.35-36.13 6.45 1.09 12.53 2.13 17.79 2.7 33.87 3.72 79.23 24.28 98.77 60.65 7.78 14.47 8.74 33 2.79 53.52a120.84 120.84 0 0 1-11.35 26.74Z"/><path class="cls-6" d="m3315.5 2275.15-6-.72c.61-5.09-3.38-9.88-3.42-9.93l-.27-.36c-35-56.36-112.18-31.89-112.95-31.64l-1.89-5.76c.81-.27 82.3-26.17 119.88 34 .95 1.26 5.51 7.26 4.65 14.41Z"/><path class="cls-6" d="M3181.94 2301.27a65.48 65.48 0 0 1-35.69-10.59c-42-26.62-95.72-68.14-113.47-114.73-16.81-44.09-4.84-75.69 38.79-102.44l3.17 5.17c-41.22 25.27-52.07 53.72-36.3 95.11 17.17 45 69.87 85.64 111 111.77 19.41 12.32 41.23 13 64.86 2a116.32 116.32 0 0 0 30.1-20.52l4.31 4.27c-.35.41-30.25 29.96-66.77 29.96Z"/><path class="cls-6" d="M3196.69 2233.1c-24.84 0-56.57-36.08-76.93-59.22-4.92-5.59-9.16-10.42-12.23-13.47-8.05-8-10.94-19.07-8.36-31.93a58.86 58.86 0 0 1 6.21-16.79l5.22 3.09a53.21 53.21 0 0 0-5.52 15c-2.13 10.86.13 19.7 6.73 26.28 3.21 3.2 7.52 8.09 12.5 13.76 21.6 24.56 61.81 70.26 82.88 53.48l3.78 4.75a22.35 22.35 0 0 1-14.28 5.05ZM3283.25 2347c-83.32-12.73-116.41-46.83-117.78-48.27l4.4-4.17-2.2 2.09 2.2-2.09c.08.08 8.28 8.59 26.38 18.51 16.72 9.17 45.55 21.46 87.92 27.94Z"/><path class="cls-6" d="m3158.9 2166.67-5.21-3.11c.36-.59 34.76-59.63-7.54-102.84-36.74-37.54-70.2-65.69-102.3-86-30.6-19.42-70.32-36.16-106.22 7.08-37.92 45.66-16.14 81.32-15.19 82.81l-5.11 3.26c-.26-.4-25.22-40.74 15.63-90 43.92-52.89 94.93-20.51 114.14-8.32 32.49 20.62 66.31 49 103.38 86.92 45.6 46.59 8.8 109.53 8.42 110.2Z"/><path class="cls-6" d="m3102.4 2129.29-1.33-5.92c4.73-1.06 5.13-2.94 5.26-3.56.69-3.23-1.62-17.2-60.49-61.38-34.3-25.74-48.86-23.52-60.56-21.73-1.42.22-2.79.43-4.15.59-9.93 1.17-8.41 16.07-8.39 16.22l-6 .67c-.8-7.27 1-21.42 13.71-22.92 1.29-.15 2.6-.35 3.94-.55 12.82-2 28.78-4.41 65.12 22.87 66.55 49.94 63.71 63.16 62.78 67.5-.64 2.92-2.85 6.62-9.89 8.21Z"/><path class="cls-6" d="M2909.86 2071.35c-30.55 0-61.27-2.83-74.79-12.79-13.17-9.71-12.54-19.9-11.66-23.83 1.33-5.92 5.84-10.61 11.23-11.67l1.17 6c-3.07.6-5.67 3.43-6.48 7-1.31 5.85 2.09 12.27 9.34 17.62 13.06 9.62 49.17 13.45 101.7 10.78 12.29-.62 20.76-3.88 25.18-9.67a17 17 0 0 0 3.11-13.12l5.92-1.35a23.25 23.25 0 0 1-4.13 18c-5.54 7.34-15.55 11.43-29.78 12.15-9.77.53-20.28.88-30.81.88Z"/><path class="cls-6" d="M2917.53 2141.44c-22.63 0-44.51-1.78-60.07-5-41.16-8.55-101.72-42-108.37-82.68-5.76-35.26.25-81.18 61.6-99.71l1.76 5.8c-45.88 13.86-65.19 45.13-57.37 92.93 6.12 37.45 65.15 69.73 103.61 77.72 38 7.9 118.82 7.2 152.51-10 32.17-16.38 23-70.92 22.91-71.47l6-1.06c.43 2.42 10.05 59.52-26.12 77.94-16 8.16-43.36 13.51-76.95 15.06-6.5.32-13.04.47-19.51.47Z"/><path class="cls-6" d="M2879.27 2070.24h-.27l.36-6.05a2 2 0 0 0-.35 0c.11 0 9.79-2.14 25-42.61 13.17-35.09-16-74.07-31.64-95a133.59 133.59 0 0 1-8.57-12.21c-6.27-11.18-22.7-29.07-29.6-36.36l-7 15.82-17.87-2-18 10.11 12.21 14-4.77 1.22c-4.63 1.18-11.44 6.43-15.81 10.22 19.08 10.74 35.56 32.55 51.52 53.69 2 2.68 4 5.34 6 7.94 5.17 6.76 7.25 14.07 6.18 21.74-2.28 16.33-18.1 28.29-18.77 28.79l-3.63-4.86c.15-.11 14.48-11 16.39-24.79.83-6-.85-11.78-5-17.19q-3-3.93-6-8c-16.63-22-33.81-44.75-53.24-53.91l-4-1.87 3.15-3c.44-.42 9.27-8.92 17.32-12.92l-11.05-12.7 26.24-14.71 15.38 1.68 8.82-20 3.14 3.21c1 1 25.28 26 33.66 40.89a134.29 134.29 0 0 0 8.14 11.54c16.35 21.87 46.8 62.57 32.46 100.77-16.03 42.78-27.04 46.56-30.4 46.56ZM2767.28 2148.37a18.6 18.6 0 0 1-1.87-.09c-21.61-2.37-50.38-8.25-64.73-22.8l-3.4-3.45 15.18-5.15-8.16-7.59 10.79-14.19 10.07 1.1-6.22-24.43 14.78 1.62 12.6-10.71 1.52 4c.09.26 9.77 25.39 25.64 20.78l1.66-.48 1.26 1.17c13 12.07 28.81 22.32 47 30.48l5.19 2.33-4.82 3c-4.06 2.62-39.41 24.41-56.49 24.41Zm-58.52-23.83c11.31 8.73 30.95 14.82 57.31 17.71 10.51 1.15 36.13-12.44 49.71-20.46a175.78 175.78 0 0 1-42.3-28.05c-8.37 1.71-16.37-2-23.25-10.72a57.7 57.7 0 0 1-6.36-10.3l-8.21 7-8.69-.95 6.23 24.43-15.36-1.68-5.39 7.09 11.59 10.77Z"/><path class="cls-6" d="M2948 1968.14c-31.69-21.4-57.31-18.73-57.56-18.7l-.72-6c1.13-.13 28-3.05 61.68 19.69ZM3034.84 2177.81c-33.11-8.65-64.78-39.56-66.11-40.87l4.25-4.32c.32.31 31.87 31.09 63.4 39.32ZM3232.19 2149.49c-21.24-26.07-65.61-54.22-66.06-54.5l3.24-5.13c1.85 1.17 45.66 29 67.52 55.8ZM3376.59 2253.63l-.85-25.49c0-.22-1.71-24.64-46.41-56l-7.45-5.22 35.37-1.15a16.28 16.28 0 0 1 15.36 9.51c5.18 11.38 13.24 33.45 9.13 53.34Zm-36.62-81.2c21 16 31.47 30 36.68 40-1-13.63-6-26.78-9.56-34.6a10.21 10.21 0 0 0-9.64-6ZM3302.5 2259.24c-.21-.29-20.95-28.31-52.63-31l.52-6c34.49 2.94 56.11 32.25 57 33.49Z"/></g><g id="Hand1"><path class="cls-3" d="M917 942.66q10.41-9.12 21.2-18.16c1.89-145.66 115.8-206.5 178.7-261.1s95-124.38 157.54-192.19 126.79-90.77 170.41-79.65 70.52 87.15 70.52 87.15l-.46.35a87.5 87.5 0 0 1 36.8 6.78c17.62 7.33 36 22.26 53.78 40.64 0 0 25.28-46.66 58.16-49s50.47 1.09 63.57-.35 37.39-9.4 59.2-3.84 39.68 23.47 59.4 70.34 35.67 83.54 51.78 109.6 9.29 68.15-4.06 95.85c-10.74 22.27-28.42 38.81-55.17 52.12a203.24 203.24 0 0 1 18.71 74.38c.42 7.62.42 15.32 2 22.78 3.3 15.71 13.18 29.08 20.6 43.31 8.49 16.3 13.84 34 19.14 51.61 16.07 53.34 32.26 109.63 20.39 164 13.37 38.92 22.24 79.1 16.82 119.47-1.88 14-5.7 28.23-14.52 39.26-.47.58-1 1.13-1.44 1.69 2.84 13 2 26.59 1.13 39.92l-1.38 21.15c-.31 4.81-.63 9.62-1.25 14.4a101.65 101.65 0 0 1-14.19 40.65l-.1 1.26a194.35 194.35 0 0 1 21 21.39c27.41 32.66 43.73 69.89 49.93 126.45 4.87 44.39 10.25 80.43-1.8 123.43a189.73 189.73 0 0 1-19.68 45.51s50.57 550 176.77 806.51c0 0-146 130.52-351.31 158.18s-266.54-37.39-266.54-37.39c19.82-492.45-97.15-885.47-97.15-885.47-14.21-17.12-31.27-31.61-47.41-46.92-57.74-54.77-122.69-142.68-168.5-207.75-25.09-35.64-50.92-74-64.66-114.73L1034 1289.45c-8.07-10.79-16.2-21.68-21.7-34 0 0-89-85.86-109.32-126S837.2 1012.63 917 942.66Z"/><path class="cls-3" d="M1880.06 1836a40.21 40.21 0 0 1 35.85 0c19.31 9.49 16.68 50.76 22.83 90.27s17.66 146.39-2.64 191.58c-25 55.59-86.93 96-137.86 107.37s-158.56 13-245.13 8c0 0 195.91 39 313.16-12.34s140.9-91.51 140.9-91.51l-53.47-377.43ZM1885.07 1257.85s-84.75 110.68-150.77 130.06c0 0 3.63 13 2.66 22.62 0 0 52.82 4 87.53-21s67.51-85.29 60.58-131.68Z"/><path class="cls-3" d="m1920.06 1317.71-104.31 77.43s53.79.88 88.52 39.95c0 0 25.2-63.82 15.79-117.38ZM1401.64 1136.26s76.16-59.15 99.39-78.47 96.27-69.37 129.56-81.66 109.69-39.23 133.4-36.74 73.64 7.71 86.43 82.81c0 0-43.4-57.49-139.12-22.37s-157.18 59.72-157.18 59.72ZM1790.63 819.33l47.9 103.27 27.35 74.21s5.6 25.83-3.8 39l56 117.22s8.09-39.5 2.53-70.84-25.84-102.11-25.84-102.11-24.28-50.77-30-66.23-9.19-53.82-9.19-53.82-11.34-47.52-17.22-58.8Z"/><path class="cls-3" d="M1716.41 680.31s58.12.77 85.34 24.48 47.77 60.32 36.62 96.46l-47.74 18.08-44.46-65s9.92-12.67-2.38-33.75a404.84 404.84 0 0 0-27.38-40.27ZM1483.28 420s-74.93 18.67-135.52 86.29-95.76 86.97-115.91 102.78-136.52 159.08-159.15 206.43c0 0 104.7-95.79 110.85-110.71s69.37-70.49 86.06-82.23 87.6-64.42 113.58-81.54 96.23-63.7 126-61.58l-2.73-22.18ZM1278.39 902.3s61.47-39.45 86.93-64.92 67.62-59.71 96.6-79 91.32-54.44 113.27-63.22 63.23-40.4 106.26 23.71L1548 764.5l-77 36.34-86.29 50.59s-85.25 49.93-106.32 50.87ZM1974.2 1574.85s-28 176.17-75.2 243.59c0 0 68.08-62.5 77.18-121.8s-1.98-121.79-1.98-121.79ZM1730.39 1440.89s-32.1 61.25-51.5 71.34-50.65 59.11-54.36 67.35c0 0 32.33-36.19 45.5-45.85s60.97-27.62 60.36-92.84ZM1905.13 2480.05s68.62-8.48 102 23.13 56.38 104.46 56.38 104.46l66.92-49.26s-59.8-153.8-70.53-195.46Z"/><path class="cls-3" d="m1512.62 2450.49 1.77 62s103.39 34.16 175.84 32.84 164.65-7.9 208.11-22.39 92.37-23.46 127.19 2.76l3.69-52.81-58.43-58Z"/><path class="cls-4" d="M1323.2 1162.58a258.06 258.06 0 0 0 33.35-7.12 318.73 318.73 0 0 0 32.33-11.14c21.2-8.45 41.62-18.68 61.82-29.06s40.25-20.83 60.69-30.49c10.22-4.84 20.47-9.59 30.81-14.15 5.16-2.31 10.31-4.61 15.51-6.83s10.37-4.46 15.59-6.62a1331.81 1331.81 0 0 1 127.46-45.69c21.62-6.53 43.12-12.88 64.76-14.48a129.11 129.11 0 0 1 16.09-.19 102.52 102.52 0 0 1 15.69 2.19c1.3.22 2.54.64 3.81 1a37.75 37.75 0 0 1 3.76 1.12l7.39 2.71 7.09 3.44c2.32 1.23 4.52 2.71 6.79 4a118.64 118.64 0 0 1 23.9 21.17 179.74 179.74 0 0 1 19.16 26.56c11.34 19 20.38 39.47 28.89 60.4s16.71 41.87 23 63.3c3.1 10.72 5.74 21.55 7.75 32.47a226.3 226.3 0 0 1 3.52 33c0 2.76.17 5.52.1 8.28l-.29 8.26c-.14 2.75-.48 5.48-.71 8.23s-.56 5.47-1 8.16c-1.72 10.73-4.85 21.18-10.71 29.72s-14.87 14.88-24 21.69l-27.31 20.31-27.31 20.32-13.6 10.15c-4.56 3.26-9.12 6.52-13.84 9.5-9.43 5.92-19.3 11.24-30 14.24a35.09 35.09 0 0 1-4 1 33.42 33.42 0 0 1-4.07.74c-1.37.15-2.74.38-4.12.48l-4.15.09A50 50 0 0 1 1751 1406a45.74 45.74 0 0 0 16.26 5.46 55.93 55.93 0 0 0 17.41-.72 83.18 83.18 0 0 0 16.67-5.08 127.7 127.7 0 0 0 15.57-7.66c10.08-5.64 19.36-12.47 28.61-19l27.74-19.73 27.74-19.72c4.6-3.29 9.32-6.53 13.93-10.27a67.56 67.56 0 0 0 12.69-13.06c7.25-10.12 10.92-22 13-33.49.53-2.9 1-5.8 1.26-8.7s.73-5.79.93-8.7l.47-8.74c.12-2.92 0-5.83.06-8.75a238.1 238.1 0 0 0-3-34.7 345.37 345.37 0 0 0-7.42-33.86 612.22 612.22 0 0 0-22.48-64.95c-8.38-21.16-17.47-42.42-29.24-62.56a195.54 195.54 0 0 0-20.38-28.76 127.8 127.8 0 0 0-26.91-23.77c-2.61-1.55-5.15-3.23-7.84-4.64l-8.23-4-8.6-3.13c-1.42-.57-2.93-.87-4.39-1.3s-2.94-.85-4.43-1.11a117.18 117.18 0 0 0-18-2.47 144.75 144.75 0 0 0-17.93.25 213.78 213.78 0 0 0-34.67 5.83c-11.27 2.77-22.27 6-33.12 9.48a1186.19 1186.19 0 0 0-128 48.19c-41.72 18.34-82.25 39.57-121.51 62.31q-14.79 8.41-29.71 16.45c-10 5.38-20 10.51-30.28 15.22-20.47 9.68-41.8 17.43-64 22.26Z"/><path class="cls-4" d="M1400.8 1133.35a137.28 137.28 0 0 1-23.37 5.06 172.88 172.88 0 0 1-24.09 1.5 150.07 150.07 0 0 1-24.12-2.06 93 93 0 0 1-23.25-6.93 93.37 93.37 0 0 0 22.94 8.41 152 152 0 0 0 24.31 3.61 176.63 176.63 0 0 0 24.67 0 142.65 142.65 0 0 0 24.59-3.75ZM1565 1386.06c29.81 9.13 60.36 16.37 92 18.42a210.22 210.22 0 0 0 47.73-2.5 206.75 206.75 0 0 0 23.4-5.84l11.35-4c3.74-1.45 7.36-3.17 11-4.75a232.36 232.36 0 0 0 40.92-24.63l9.41-7.27 9-7.75c3-2.53 5.79-5.35 8.7-8 1.43-1.36 2.89-2.69 4.29-4.07l4.15-4.19a441.16 441.16 0 0 0 31.14-35.22c9.79-12.18 19-24.74 27.92-37.53L1884 1257c-20.85 23.07-41.39 46.32-64.13 67a355.24 355.24 0 0 1-35.47 29 251.06 251.06 0 0 1-39.18 22.7c-3.46 1.47-6.87 3.08-10.37 4.43l-10.61 3.74c-7.2 2.08-14.42 4.1-21.78 5.52a250.59 250.59 0 0 1-45.09 4c-7.62-.1-15.27-.19-22.94-.7-3.83-.18-7.66-.52-11.5-.83s-7.69-.64-11.54-1c-15.39-1.54-30.82-3.42-46.39-4.8Z"/><path class="cls-4" d="m1811.45 1340.42 47.29-5.8-47.6-1.92.31 7.72zM1656.87 1395c-39.37 9.7-80.19 14-120.69 19.21 40.76-2.61 81.69-4.18 122.35-11.41ZM1727.68 1389.75a68.84 68.84 0 0 1 2.69 27 97.94 97.94 0 0 1-6.85 27.28c-7.15 17.75-18.28 34.12-31 49s-27 29-40 44.26-24.74 31.79-31.67 50.53c8-18.3 20.58-34 34.22-48.24s28.56-27.49 42.52-41.92 26.56-30.76 35.41-49.51a108.89 108.89 0 0 0 9.33-29.93 81.71 81.71 0 0 0-1.38-32.14Z"/><path class="cls-4" d="M1709.79 1471.9a111.6 111.6 0 0 0-16.49-1.52 130.51 130.51 0 0 0-16.44 1c-5.43.74-10.79 1.79-16.09 3.06s-10.48 2.88-15.62 4.61c-20.58 7-39.67 17-59.09 26-9.72 4.49-19.54 8.72-29.63 12.22a189.57 189.57 0 0 1-31 7.84c-21.12 3.54-42.65 4.09-64.08 4.63 21.44 0 43-.07 64.31-3.13a192.31 192.31 0 0 0 31.5-7.18c10.28-3.29 20.28-7.33 30.15-11.61 19.72-8.55 39-18.1 59.26-24.46 5.07-1.57 10.19-3 15.34-4.13s10.36-2 15.58-2.59a124.8 124.8 0 0 1 15.69-.6 105.45 105.45 0 0 1 15.48 1.8ZM1687.43 1579.58a259 259 0 0 1-33.28 18.05 217.53 217.53 0 0 1-35 12.28 235 235 0 0 1-36.55 6.27 304.18 304.18 0 0 1-37.84.83 110.13 110.13 0 0 0 38.09 7.57 135.13 135.13 0 0 0 38.93-4.65 140.45 140.45 0 0 0 36.09-15.26c11.13-6.82 21.36-15.1 29.56-25.09ZM1729.25 1002.15a51.44 51.44 0 0 0 15.48-14.9 72.48 72.48 0 0 0 9-18.32 78.76 78.76 0 0 0 3.9-19.55 64 64 0 0 0-1.45-19.52 62.79 62.79 0 0 1-1.51 19.08 75.11 75.11 0 0 1-6.47 17.68 64.88 64.88 0 0 1-10.51 15 41 41 0 0 1-13.94 9.87Z"/><path class="cls-4" d="M1203.67 914.15c18.64 3.13 38 2 56.56-2.07 18.58-4.28 36.45-11.23 53.63-19.36s33.67-17.59 50.06-27 32.63-18.76 49.2-27.65c66.11-35.75 135.32-65.31 205.75-90.59 17.46-6.23 34.89-11.51 52.13-12.87a85.07 85.07 0 0 1 25.17 1.72 78 78 0 0 1 23.24 9.36 107.08 107.08 0 0 1 20.4 15.89 177.45 177.45 0 0 1 17.35 20.34 262.93 262.93 0 0 1 15.08 22.8c4.73 7.91 9.14 16 13.49 24.32 8.7 16.59 17.23 33.28 25.33 50.19s15.91 34 23.43 51.16S1849.2 965 1856 982.46c3.36 8.66 6.44 17.32 8 26.14s1.6 17.81-1.51 26l5.58 2.37c4.37-9.21 5.28-19.74 4.21-29.55s-3.68-19.32-6.57-28.43c-5.86-18-12-35.94-18.81-53.67s-13.82-35.33-21.47-52.69-15.51-34.66-24-51.63-17.57-34.16-28.91-50.21A193.32 193.32 0 0 0 1753.4 748a125.93 125.93 0 0 0-23.91-19 97.81 97.81 0 0 0-28.89-12 104.9 104.9 0 0 0-31.06-2.17c-20.48 1.57-39.4 7.8-57.31 14.41-35.6 13.41-70.52 28.34-104.6 45.06s-67.52 34.61-100.1 54c-16.29 9.63-32.39 19.7-48.26 29.83s-31.83 20.05-48.38 28.79-33.57 16.58-51.56 21.72l-6.79 1.71-3.4.87c-1.14.25-2.29.44-3.44.66l-6.9 1.28c-2.31.4-4.64.55-7 .83-9.29 1.09-18.71.79-28.13.16Z"/><path class="cls-4" d="M1283 899.71c-10.64 7-21.87 13.37-33 19.79s-22.43 12.8-33.21 19.89c11.29-6.22 23-11.67 34.61-17.2s23.35-11 34.79-17.3ZM1816.66 1398.15c23.61 3.31 45.93 12.77 65.37 26.17a193.4 193.4 0 0 1 49.4 50.23 198.06 198.06 0 0 1 17.28 30.7 206.29 206.29 0 0 1 11.49 33.36 291.45 291.45 0 0 1 6.79 34.92l1.06 8.88 1 9.07 1.91 18.09c1.22 12 2.31 23.94 2.61 35.79a217 217 0 0 1-1.88 35.19 193.33 193.33 0 0 1-8.09 34.1 221.42 221.42 0 0 1-14.24 32.14 279.39 279.39 0 0 1-19.42 29.79c-7.13 9.58-14.94 18.7-22.93 27.74s-16.49 17.68-24.94 26.41-17.14 17.29-25.65 26c19.71-14.4 38.92-29.49 56.9-46.28a364.2 364.2 0 0 0 25.61-26.76 265 265 0 0 0 21.91-30.31 201.08 201.08 0 0 0 16.3-34.06 189.33 189.33 0 0 0 9.1-36.73 234 234 0 0 0 2.18-37.61c-.29-12.48-1.29-24.82-2.59-37l-2.07-18.19-1.06-9.07-1.17-9.23a305 305 0 0 0-7.44-36.64 220 220 0 0 0-13-35.32 199.7 199.7 0 0 0-19.2-32.42c-14.68-20.23-33.05-38.06-54.27-51.35s-45.49-22-70.37-23.68ZM1511.13 1949.15q-26.09-47.58-52.75-94.81c-8.88-15.73-17.51-31.68-27.71-46.91a221.67 221.67 0 0 0-16.66-22c-6-7-12.42-13.53-19-19.85s-13.17-12.5-19.67-18.72c-3.26-3.09-6.41-6.27-9.58-9.44l-4.76-4.75-4.64-4.87q-18.56-19.48-36-40.14c-23.29-27.43-45.24-56-66.86-84.89s-42.43-58.43-63-88c-10.14-14.83-19.88-29.87-28.53-45.44a287.12 287.12 0 0 1-22.13-48.28c-5.62-16.69-9.41-34-10-51.55 0-2.19-.23-4.39-.17-6.58l.31-6.56c.16-2.19.09-4.41.43-6.57l.79-6.52a148.54 148.54 0 0 1 6.35-25.56c11.76-33.25 35.83-62.58 67.56-80.09-33.27 14.55-60.27 43.28-74.18 77.58a155.28 155.28 0 0 0-7.94 26.67l-1.12 6.9c-.44 2.3-.45 4.63-.69 6.94l-.57 7c-.13 2.32 0 4.65 0 7a179.85 179.85 0 0 0 9 54.8 296.35 296.35 0 0 0 22 50.64c8.81 16.1 18.64 31.51 28.8 46.58s20.66 29.82 31.25 44.52 21.32 29.3 32.2 43.8c21.75 29 44.39 57.37 68.25 84.78 11.9 13.72 24.21 27.12 37.11 40l4.82 4.84 5 4.72c3.3 3.15 6.58 6.32 10 9.37 6.7 6.13 13.46 12.12 20 18.22s13 12.3 19 18.83a213.44 213.44 0 0 1 16.74 20.72c10.38 14.53 19.51 30.13 29.07 45.49q28.37 46.21 57.28 92.13Z"/><path class="cls-4" d="M1142.28 1426.14q-35.33-49.34-71.41-98.1l-36-48.74c-5.88-8-11.35-16.13-15.38-24.66a91.57 91.57 0 0 1-7.63-27 108.37 108.37 0 0 1 .56-28.43 129.8 129.8 0 0 1 7.67-27.8 148 148 0 0 1 13.11-26l4.06-6.07 4.4-5.84c3-3.84 6.15-7.66 9.48-11.29a299.31 299.31 0 0 1 44.46-40c16.18-12 33.51-22.59 51-32.62-17.75 9.69-35.7 19-53.3 29.22s-34.67 21.84-49.5 36.39c-3.71 3.62-7.23 7.43-10.66 11.37l-4.93 6.12-4.59 6.38a159.62 159.62 0 0 0-15.12 27.61 140.87 140.87 0 0 0-8.88 30.43 112.55 112.55 0 0 0-.78 32 102.6 102.6 0 0 0 8.85 31.07c4.68 9.74 10.7 18.43 16.78 26.67l36.61 48.45q36.62 48.38 73.93 96.22Z"/><path class="cls-4" d="M1016.9 1251.11c-11.46-10.72-22.76-21.79-33.82-33s-22-22.59-32.6-34.21-20.76-23.64-30.1-36.12c-1.15-1.57-2.38-3.1-3.46-4.7l-3.26-4.79c-2.29-3.16-4-6.5-6-9.76-3.69-7-7.37-14-10.87-21-7-14-13.11-28.39-16.93-43.38s-5.3-30.46-3.2-45.59a101.81 101.81 0 0 1 5.66-22.12 111 111 0 0 1 10.48-20.36l3.2-4.78 3.51-4.58c1.13-1.56 2.4-3 3.67-4.46s2.49-2.94 3.81-4.35c2.73-2.73 5.29-5.64 8.21-8.19l4.27-3.94L924 942c23.92-20.56 48.64-40.24 73.45-59.84l37.24-29.46c12.4-9.85 24.82-19.72 37-29.86 24.48-20.21 48.37-41.39 70.06-65.12 10.75-12.24 20.41-24.32 30.87-36.11s21.15-23.22 32.14-34.42 22.42-21.93 34-32.49 23.58-20.64 35.87-30.33 24.8-19.1 37.74-27.89c6.37-4.52 13-8.66 19.52-13l20.11-12.4c27.26-16.67 53.24-34.94 79.9-51.12 13.34-8 26.87-15.57 40.83-21.35s28.34-9.87 42.63-10.24a79.78 79.78 0 0 1 40.83 9.89c3.19 1.65 6.26 3.69 9.37 5.66 3 2.17 6.08 4.25 9 6.64s5.82 4.8 8.72 7.23c2.8 2.59 5.67 5.07 8.38 7.79 5.54 5.27 10.81 10.92 16.08 16.56s10.26 11.55 15.26 17.58c9.94 12 19.37 24.44 28.5 37.15s17.89 25.74 26.6 38.82l25.9 39.82c4.74 6.89 9.85 13 14.74 19.2s9.79 12.21 14.16 18.48 8.36 12.69 10.78 19.47 3 13.81-.06 20.13l5.2 3.11a27.88 27.88 0 0 0 4.65-12.59 39 39 0 0 0-1-13.2 88.52 88.52 0 0 0-9.84-23.11c-8.11-14.2-18.21-26.84-26.09-39.66-3.9-6.48-7.89-13.54-11.89-20.35s-8.19-13.63-12.38-20.41q-12.54-20.34-26.32-40c-9.17-13.09-18.67-26-28.79-38.5a385.6 385.6 0 0 0-32.5-36c-2.88-2.88-6-5.58-9-8.35-3.16-2.66-6.22-5.4-9.55-7.91s-6.68-5-10.09-7.43c-3.57-2.28-7.1-4.61-10.94-6.61a100.36 100.36 0 0 0-24.32-9.41 94.09 94.09 0 0 0-26-2.58c-17.44.66-33.9 5.69-49.06 12.16s-29.3 14.6-43 23c-27.26 16.95-52.9 35.41-79.47 52l-5 3.11-5.07 3.23-10.12 6.47c-6.61 4.52-13.34 8.87-19.8 13.59-13.11 9.19-25.74 19-38.17 29.07s-24.38 20.68-36.14 31.48-23 22.16-34 33.71-21.61 23.47-31.91 35.63-20.15 24.93-30 36.67c-20.56 23.4-43.74 44.79-67.65 65.3-6 5.14-12 10.26-18.06 15.3s-12.13 10.11-18.26 15.09l-36.91 29.8c-24.64 19.87-49.24 39.87-73.11 60.79a222.09 222.09 0 0 0-17.49 16.62c-1.39 1.48-2.67 3-4 4.57s-2.66 3.06-3.86 4.71l-3.69 4.84-3.4 5.08a119.59 119.59 0 0 0-11.15 21.78 111.34 111.34 0 0 0-6.07 23.75c-2.34 16.25-.83 32.83 3.13 48.51s10.17 30.68 17.08 45.06c3.48 7.2 7 14.24 10.67 21.31 2 3.56 3.93 7.28 6.24 10.57l3.34 5.07c1.11 1.69 2.34 3.26 3.51 4.9 9.44 13 19.67 25.21 30.11 37.22 20.86 24 42.75 47 65.06 69.67Z"/><path class="cls-4" d="M1615.83 742a91.73 91.73 0 0 0 3.62-10c1-3.34 1.85-6.68 2.56-10.06a129.2 129.2 0 0 0 2.73-20.39 124.23 124.23 0 0 0-.43-20.42 131.55 131.55 0 0 0-3.58-20l-1.55.34a128.21 128.21 0 0 1 1.58 19.81 119.54 119.54 0 0 1-1.51 19.66 122.24 122.24 0 0 1-4.49 19.06c-1 3.1-2.1 6.15-3.3 9.14a86.52 86.52 0 0 1-4 8.52ZM1525.86 475.12c-.95-2.54-1.81-4.68-2.77-7s-1.9-4.45-2.9-6.65q-3-6.61-6.32-13a226 226 0 0 0-15-25 142 142 0 0 0-19.38-22.84c-7.43-7-16.29-13.24-26.81-17a56.18 56.18 0 0 0-7.91-2.07c-2.54-.46-5.08-1.08-7.64-1.36l-7.66-.69c-2.55-.19-5.08-.05-7.62-.08h-3.81l-3.76.34c-2.49.26-5 .38-7.49.77a145.24 145.24 0 0 0-14.61 2.93 192.34 192.34 0 0 0-53.49 23 296.37 296.37 0 0 0-45.64 34.67 454.4 454.4 0 0 0-38.9 41.3c-24.33 28.76-45.31 59.77-66.83 89.84-10.76 15-21.71 29.84-33.39 44a373.37 373.37 0 0 1-37.7 39.68c-13.44 12.3-28.13 23.6-42.63 35.24s-29 23.43-42.89 36.07A377.07 377.07 0 0 0 991.82 768c-6 7.27-11.49 15-16.74 22.8-2.51 4-5.14 7.93-7.42 12.07-1.16 2.06-2.38 4.08-3.5 6.16l-3.25 6.29c-17.17 33.75-25.35 71.68-25.41 109.14l6.06.08c.78-36.71 9.43-73.21 26.62-105.44l3.25-6c1.12-2 2.34-3.92 3.5-5.88 2.27-4 4.89-7.7 7.38-11.52a273.16 273.16 0 0 1 16.63-21.76c11.73-14 24.91-26.84 38.66-39s28.31-23.53 43-34.8 29.68-22.4 43.88-34.92a387.12 387.12 0 0 0 39.63-40.36c12.23-14.3 23.61-29.2 34.7-44.17 22.18-29.95 43.4-60.2 67.54-87.79a437.33 437.33 0 0 1 38.06-39.13 278.46 278.46 0 0 1 43.44-31.92c15.37-9.1 31.82-16.18 48.73-20.13a123.86 123.86 0 0 1 12.71-2.34c2.13-.3 4.25-.35 6.37-.54l3.18-.25h3.16c2.1.07 4.22 0 6.29.16l6.2.66c2 .25 4 .81 6 1.18a38 38 0 0 1 5.53 1.52c7 2.63 13.61 7.27 19.57 13.09a121.71 121.71 0 0 1 16.23 19.85A204.79 204.79 0 0 1 1495.1 458c2 4 3.86 8 5.63 12.11.89 2 1.74 4.1 2.56 6.15s1.65 4.2 2.29 6ZM1612.81 530.26c1.36-2.52 3.13-5.4 4.85-8s3.59-5.31 5.51-7.87a114.72 114.72 0 0 1 12.52-14.23 68.33 68.33 0 0 1 14.55-10.86 40.89 40.89 0 0 1 7.91-3.26 35.92 35.92 0 0 1 4-.93l2-.24c.68-.08 1.61-.12 2.4-.18a349.84 349.84 0 0 1 39.69-.5c6.74.19 13.55.66 21.15 0 7.56-.85 13.93-2.47 20.46-3.6 12.85-2.37 25.69-3.56 37.29-.71a48.76 48.76 0 0 1 16.06 7.42 67.15 67.15 0 0 1 13.28 12.7c8 9.81 14.34 21.36 19.94 33.28s10.58 24.54 16 36.92c10.71 24.81 21.51 49.68 34.71 73.75 1.64 3 3.37 6 5.13 9 .85 1.44 1.87 3 2.59 4.36l2.13 3.9a64 64 0 0 1 5.06 17.56 93.54 93.54 0 0 1 .89 9.36c0 3.17.09 6.34-.17 9.53a119.81 119.81 0 0 1-2.65 19 124.8 124.8 0 0 1-13.47 35.81 96.75 96.75 0 0 1-11.15 15.15 110.47 110.47 0 0 1-14.07 12.63 154.81 154.81 0 0 1-33.74 18.62 292.38 292.38 0 0 1-37.46 12.25l4.83 16.57a355 355 0 0 0 38.77-14.7c12.62-5.87 25.08-12.62 36.28-21.5a125.12 125.12 0 0 0 15.59-14.79 118.23 118.23 0 0 0 12.46-17.7 142.45 142.45 0 0 0 14.51-39.76 132.82 132.82 0 0 0 2.78-21c.26-3.54.17-7.12.15-10.69a106 106 0 0 0-1-10.76 76.31 76.31 0 0 0-6.13-21.16l-2.7-5c-.9-1.62-1.71-2.88-2.57-4.34-1.68-2.83-3.34-5.68-4.92-8.59-12.73-23.26-23.44-48-34.06-72.65-10.68-24.42-19.77-50.74-37.56-73.35a80.43 80.43 0 0 0-15.76-15.26 62.45 62.45 0 0 0-20.39-9.59 79.64 79.64 0 0 0-22-2.18 149.82 149.82 0 0 0-21 2.37c-6.76 1.14-13.54 2.71-19.38 3.29s-12.55.09-19.28-.18a371.94 371.94 0 0 0-41.17 0c-.89.06-1.65.07-2.64.16l-3 .32a51.32 51.32 0 0 0-5.84 1.25 55.36 55.36 0 0 0-10.83 4.27 82.7 82.7 0 0 0-18 13 136.41 136.41 0 0 0-14.45 15.85q-3.29 4.19-6.27 8.58c-2 3-3.86 5.8-5.77 9.17Z"/><path class="cls-4" d="M1689.82 634.64a248.1 248.1 0 0 1 10.8-26.66 119.6 119.6 0 0 1 6.77-12.33 40.89 40.89 0 0 1 8.36-9.93 13.62 13.62 0 0 1 2.27-1.47 6.84 6.84 0 0 1 1.09-.48l.26-.11.42-.13.85-.26c2.23-.7 4.53-1.32 6.83-1.93 4.6-1.22 9.27-2.29 14-3.26a248.56 248.56 0 0 1 28.35-4.12c9.45-.73 19-.91 28.08.46 8.94 1.12 17.25 4.9 25.05 9.85a110.44 110.44 0 0 1 21.15 18.28 148.45 148.45 0 0 1 17 22.66c1.18 2 2.45 4.06 3.56 6.15s2.24 4.11 3.37 6.33l6.77 13 6.81 13 .42.81.2.39.1.23a3.5 3.5 0 0 1 .33.9 4.14 4.14 0 0 1 .12 1.82 5.19 5.19 0 0 1-1.81 3.27 4.86 4.86 0 0 1-3.53 1.09h-.6l-.91-.14-1.82-.27-3.64-.54-14.57-2q-14.6-1.94-29.24-3.43c-19.53-2-39.15-3.35-58.85-3.54-9.84-.18-19.71.14-29.57.72a213.18 213.18 0 0 0-29.51 4.07L1710 673c18.81-3.47 38.29-3.87 57.65-3.26s38.76 2.35 58.08 4.54c9.66 1.09 19.31 2.37 28.94 3.77l14.42 2.19 3.6.58 1.8.3.9.14c.25 0 .83.1 1.23.14a14.13 14.13 0 0 0 10.15-3 14.53 14.53 0 0 0 5.26-9.17 13.48 13.48 0 0 0-.27-5.44 12.16 12.16 0 0 0-.9-2.54l-.27-.62-.22-.42-.41-.82-6.61-13.05-6.65-13c-1.08-2.15-2.32-4.42-3.49-6.63s-2.51-4.36-3.76-6.54a157.42 157.42 0 0 0-18-24.24 120.28 120.28 0 0 0-23-20c-2.21-1.35-4.35-2.79-6.69-4-1.16-.59-2.28-1.24-3.47-1.79l-3.61-1.57a38.18 38.18 0 0 0-3.71-1.38c-1.26-.4-2.48-.9-3.78-1.2a67.32 67.32 0 0 0-7.76-1.6c-10.26-1.57-20.4-1.38-30.4-.67a226 226 0 0 0-29.63 4.32c-4.87 1.07-9.73 2.16-14.54 3.57-2.41.7-4.81 1.42-7.22 2.24l-.9.3-.45.15-.58.24a16.45 16.45 0 0 0-2.24 1 23.09 23.09 0 0 0-3.8 2.6 34.77 34.77 0 0 0-5.71 6.13 62.17 62.17 0 0 0-4.35 6.57 109.31 109.31 0 0 0-6.64 13.71c-1.93 4.63-3.52 9.36-5 14.09s-2.83 9.48-3.91 14.4Z"/><path class="cls-4" d="m1884.81 663.81 1.1-6c-126.65-23.47-183.18-4.43-185.52-3.61l2 5.72c.14-.05 14.38-4.9 43.85-6.84 27.22-1.75 73.35-1.35 138.57 10.73ZM1835.78 802.13a216.26 216.26 0 0 1 12.94 43.79 206.92 206.92 0 0 1 2.84 22.56c.29 3.78.41 7.52.5 11.38s.18 7.85.52 12a67.65 67.65 0 0 0 2.18 12.51 83.63 83.63 0 0 0 4.27 11.81c3.34 7.54 7.45 14.37 11.16 21.07a166.58 166.58 0 0 1 9.78 20.24c2.86 6.95 5.34 14.13 7.67 21.42 8.87 29.57 18.35 59.2 24.56 89.09a302.46 302.46 0 0 1 6.23 45.21 209.64 209.64 0 0 1-2.28 45.5l5.9 1.37a173.17 173.17 0 0 0 6.6-47.08 266.7 266.7 0 0 0-4.11-47.35c-2.73-15.57-6.4-30.89-10.62-46s-8.63-29.91-13.42-44.92c-2.45-7.49-5.08-15-8.21-22.4a179.92 179.92 0 0 0-10.92-21.5c-8-13.58-15.93-26-17.29-40.18-.44-3.62-.63-7.4-.9-11.3s-.59-7.93-1.07-11.88a188.78 188.78 0 0 0-4.19-23.51 192.62 192.62 0 0 0-16.65-44.42ZM1917.38 1318c1 9.54.53 19.09-.31 28.84s-1.8 19.76-2.47 29.66l-1.12 14.57a108.54 108.54 0 0 1-2.13 14.07 128.77 128.77 0 0 1-9.2 27.08l5.14 3.2a83.17 83.17 0 0 0 14-27.7 93.86 93.86 0 0 0 3.25-15.28c.45-5.06 1.05-10.2 1.38-15.2.56-10 1.17-19.8 1.26-30s-.6-20.67-3.94-30.61ZM1412.91 1794.57c9.27 35.92 17.22 72.31 25 108.63l5.52 27.34 2.76 13.67 2.57 13.7c3.41 18.28 7.1 36.5 10.11 54.84 12.87 73.23 24.19 146.77 32 220.74s14.22 148.09 17 222.42l1.17 27.87.59 13.93c.19 4.65.16 9.3.24 13.95l.87 55.78.23 13.95.1 7-.1 7-.42 27.9-.72 55.81 6.06.25c3-74.51 4.75-149.18 1.76-223.76l-.88-28-.46-14-.82-14-3.27-55.88c-.31-4.65-.46-9.32-.89-14l-1.23-13.94-2.44-27.89-2.45-27.88c-.79-9.29-2-18.55-3-27.82-2.12-18.54-4-37.11-6.33-55.62l-7.44-55.48c-1.15-9.27-2.76-18.46-4.14-27.69l-4.31-27.65-2.2-13.82-2.45-13.79-4.93-27.55c-3.18-18.39-7.14-36.63-10.77-54.94l-2.84-13.7-3.08-13.66-6.17-27.3-6.57-27.21c-1.13-4.53-2.16-9.08-3.35-13.59l-3.61-13.53-3.61-13.53-3.79-13.48c-2.49-9-5.21-17.92-8-26.87ZM1945.85 1752.62c3.54 34.54 7.71 68.83 12.15 103.16s9.27 68.56 14.45 102.76 10.72 68.34 16.63 102.43 12.34 68.07 19.14 102c13.72 67.81 29.25 135.3 48.17 201.91l7.23 24.94 7.7 24.8c2.48 8.3 5.4 16.46 8.09 24.69l4.12 12.31 4.41 12.22c11.73 32.59 24.68 64.81 40.15 95.89l5.44-2.68c-14.93-31-27.39-63.12-38.64-95.66l-4.23-12.19-3.95-12.3c-2.57-8.22-5.37-16.36-7.74-24.65l-7.35-24.77-6.89-24.92c-18-66.54-32.63-134-45.46-201.74q-9.52-50.85-17.8-101.92t-15.3-102.34q-7.11-51.24-13.12-102.63c-4-34.24-7.73-68.58-10.81-102.81ZM1947.53 1679.58c-18.21 18.27-36.72 36-56 53s-39.09 33-59.69 48.2l-15.46 11.22-15.8 10.87-16 10.61q-8.14 5.05-16.23 10.25c-21.79 13.46-44.16 26-66.91 38.18A478.23 478.23 0 0 0 1772 1830q8.48-4.72 16.86-9.62l16.53-10.18 16.14-10.81 15.81-11.28a573.13 573.13 0 0 0 59.05-50.39 489.87 489.87 0 0 0 51.14-58.14ZM1833.68 1608.82a113.06 113.06 0 0 1-21.39 32.11c-8.7 9.34-18.44 17.72-28.48 26s-20.33 16.66-30.13 25.5a368.17 368.17 0 0 0-28.35 28 366.37 366.37 0 0 0 33.77-21.1c10.85-7.58 21.46-15.28 31.81-23.77s20.16-18 28.18-29.08 13.8-24.22 14.59-37.66ZM1829.38 1605.45c-19.89 5.7-39.57 11.6-59.32 17.16s-39.55 10.8-59.44 15.67-39.89 9.32-60 13.52-40.3 7.89-60.6 11.83a483.1 483.1 0 0 0 61.83-4.63 596.6 596.6 0 0 0 61-11.45 571.48 571.48 0 0 0 59.5-17.68 456.39 456.39 0 0 0 57.03-24.42Z"/><path class="cls-5" d="M1431.77 2169.12a70 70 0 0 1-1-26.39c6.14-39.82 45.52-63.77 45.52-63.77l5.93 39c-35.17 30.12-31.1 138.8 227.53 129s328.65-144.71 318.55-183.36-43.12-66.74-43.12-66.74l-3.53-23.44c21.7 4.84 78.85 37.43 81.82 100.36l.17-.43c8.18 34.77 29.56 257.69 29.56 257.69s-62 150.31-319.41 178.16c-204.92 22.17-323.31-73.19-323.31-73.19-9.58-65.33-16.25-207.88-18.71-266.89Z"/><path class="cls-6" d="M1713.13 2515.38a566.79 566.79 0 0 0 60.93-3.32c133.72-14.47 214-62.49 257.87-100.24 47.68-41.05 63.37-78.21 64-79.77l.29-.7-.08-.75c-.87-9.11-21.48-223.52-29.62-258.1l-5.91 1.39c7.81 33.15 28 241.92 29.42 256.51-2.34 5.18-19.08 39.9-62.39 77.1s-122.31 84.26-254.25 98.53c-105.12 11.37-186.81-8.94-236.83-28-48.92-18.64-77.92-39.71-83.33-43.83-11.93-83.16-19.42-289.6-19.5-291.69l-6.06.22c.08 2.1 7.65 210.88 19.73 293.56l.17 1.18.93.74c1.22 1 30.61 24.38 85.64 45.38 40.57 15.49 101.66 31.79 178.99 31.79Z"/><path class="cls-6" d="M1713.13 2515.38a566.79 566.79 0 0 0 60.93-3.32c133.72-14.47 214-62.49 257.87-100.24 47.68-41.05 63.37-78.21 64-79.77l.29-.7-.08-.75c-.87-9.11-21.48-223.52-29.62-258.1l-5.91 1.39c7.81 33.15 28 241.92 29.42 256.51-2.34 5.18-19.08 39.9-62.39 77.1s-122.31 84.26-254.25 98.53c-105.12 11.37-186.81-8.94-236.83-28-48.92-18.64-77.92-39.71-83.33-43.83-11.93-83.16-19.42-289.6-19.5-291.69l-6.06.22c.08 2.1 7.65 210.88 19.73 293.56l.17 1.18.93.74c1.22 1 30.61 24.38 85.64 45.38 40.57 15.49 101.66 31.79 178.99 31.79Z"/><path class="cls-6" d="M1431.86 2180c-23.09-62.75 42.14-103.3 42.8-103.71l3.89-2.36 6.87 45.14-1.28 1.1c-11.42 9.77-19.72 30.47-11 52.82 27.79 71 174.59 73.17 236.42 70.82 76.29-2.9 142.13-16.92 195.7-41.67 53-24.48 82.32-54.18 97.63-74.8 19.87-26.76 25.56-51 22.4-63.09-9.73-37.23-41.83-64.93-42.16-65.2l-.86-.74-4.36-28.93 4.32 1c14 3.13 37.38 15.55 55.47 35.41 16.21 17.8 34.12 48.14 27.39 91.58-6.39 41.15-43.09 86.21-100.71 123.63-63.59 41.3-146.43 68.62-233.25 76.93-19.92 1.91-38.74 2.81-56.53 2.8-144.97-.07-220.32-59.81-242.74-120.73ZM1988 1995.16c5.46 4.86 33.8 31.47 43.22 67.52 3.28 12.54-.88 37.93-23.39 68.25-15.73 21.18-45.83 51.67-100 76.68-54.3 25.1-120.93 39.3-198 42.23-74.26 2.81-133.5-3.85-176-19.83-43.39-16.3-60-38.82-66.25-54.84-9.5-24.27-.92-47 11.4-58.5l-5-32.65c-13.32 9.44-54.83 43.75-36.4 93.86 7.44 20.22 28.27 58.28 84.21 86 53.81 26.66 124.07 36.06 208.83 28 181.07-17.32 316.06-115 328.53-195.45 6.37-41.07-10.55-69.75-25.87-86.57-16.2-17.79-36-28.41-48-32.35Z"/><path class="cls-7" d="M1985.13 1996.71s33 28.1 43.12 66.74-59.91 173.55-318.55 183.36-262.7-98.85-227.53-129l-5.93-39s-64 38.94-41.54 100.08 107.34 134 296.17 115.91 319.12-119.82 331.25-198-56.3-118.17-80.52-123.57Z"/><path class="cls-6" d="m1985.13 1996.71 23.16 128.29s22.49-30.66 20.84-51.85-24.27-64.61-44-76.44ZM1482.17 2117.83l11 86.29s-27.27-23.86-26.26-43.14 3.98-35.37 15.26-43.15Z"/><path class="cls-6" d="M1431.86 2180c-23.09-62.75 42.14-103.3 42.8-103.71l3.89-2.36 6.87 45.14-1.28 1.1c-11.42 9.77-19.72 30.47-11 52.82 27.79 71 174.59 73.17 236.42 70.82 76.29-2.9 142.13-16.92 195.7-41.67 53-24.48 82.32-54.18 97.63-74.8 19.87-26.76 25.56-51 22.4-63.09-9.73-37.23-41.83-64.93-42.16-65.2l-.86-.74-4.36-28.93 4.32 1c14 3.13 37.38 15.55 55.47 35.41 16.21 17.8 34.12 48.14 27.39 91.58-6.39 41.15-43.09 86.21-100.71 123.63-63.59 41.3-146.43 68.62-233.25 76.93-19.92 1.91-38.74 2.81-56.53 2.8-144.97-.07-220.32-59.81-242.74-120.73ZM1988 1995.16c5.46 4.86 33.8 31.47 43.22 67.52 3.28 12.54-.88 37.93-23.39 68.25-15.73 21.18-45.83 51.67-100 76.68-54.3 25.1-120.93 39.3-198 42.23-74.26 2.81-133.5-3.85-176-19.83-43.39-16.3-60-38.82-66.25-54.84-9.5-24.27-.92-47 11.4-58.5l-5-32.65c-13.32 9.44-54.83 43.75-36.4 93.86 7.44 20.22 28.27 58.28 84.21 86 53.81 26.66 124.07 36.06 208.83 28 181.07-17.32 316.06-115 328.53-195.45 6.37-41.07-10.55-69.75-25.87-86.57-16.2-17.79-36-28.41-48-32.35ZM2050.4 2195.7s16.49-47.17 17.86-69.89l6.33 51.65ZM1965.62 2346.82s-16.24 1.26-9.65-35.29 17.78-53.67 31.28-52.36 14.82 10.16 19.92 15.62 18.2 14.4 18.2 14.4l-40.25-7.17s-11.24-3.2-15.42 15.62-8 37.42-8 37.42-1.28 9.16 3.92 11.76Z"/><path class="cls-6" d="m1984.4 2259.17 44.8 6.36 11.29 25.84-55.37-9.35-.72-22.85z"/><path class="cls-6" d="M2039.69 2223.73c-17.89 14-13.32 50.06-10.8 50.4Z"/><path class="cls-7" d="M1455.77 2274.79s90.45 76.48 245.87 65.06 194.95-35.12 194.95-35.12-64.11 56.19-226.56 51.8-214.26-81.74-214.26-81.74Z"/><path class="cls-6" d="M1989.88 2382.88s-101.8 73-274.19 86.93c0 0 150.95 12.7 274.19-86.93Z"/><path class="cls-5" d="M1956.46 2334.22c18.4 9.17 56 27.33 76.49 33 13 3.58 41.5 7.47 68.76-2.31q1.29.12 2.7.21h-.2c83.88 7.55 124-18.24 124-18.24a65.1 65.1 0 0 0 21.25-3.5c55.05-18.48 110.3-45.87 136.09-83.12.16-.24.3-.47.46-.7.77-.06 1.56-.13 2.39-.23l-2.85.93c33.8-.47 72.46-23.45 72.46-23.45l-3.58 1.16 3.15-1.34c35.71 14.7 82.59 24.85 110.25 25.87a178.7 178.7 0 0 0 37.72-3.11s33.54 34.57 49.14 36.65 47.95 5 66.32-6.24l-13.72-8.77 11.79-6.54-5.32-12.28-12.67-1.68 11.91-22.23-11.7-1.55-7.91-11s-16.94 24.76-33.9 14.95c14-8 25.13-18.2 30.49-30.74 15.85-37.13 14.94-78.32-34.72-107.74 13.26-9.5 26.71-17.25 39.78-19.89 0 0-9-14.34-16.42-18.31l14.23-10-18.53-17.35-16.58-2.2-3.39-19.31s-30.28 18.8-41.85 31.15c-4.79 5.12-17.8 14.4-31 26.92l-.13.12-.44-.08h.57s-24.93-9.41-62.45 4.37c-28.28-35.89-70.25-24.74-94.49-16.6-27.51 9.24-66.46 25.9-120.53 59.39a75.29 75.29 0 0 0-26.83 27.57 70.23 70.23 0 0 0-18.21 7.2c-16.29 6.41-40.28 16.9-57.27 28.91-1.77.91-3.48 1.79-5.1 2.65-15.42-1.9-29.89-2.27-40.95-3.74a142.51 142.51 0 0 0-50.53 3l-27.22-7.74-.09.09-3.24-.91a13.24 13.24 0 0 0-14 4.53c-5.95 7.53-14.83 20.53-18.87 35-2.18 3.55-2.42 8-2 11.84 0 .31-.06.63-.08 1l.14-.41v.13c-13.65 28.21-2.11 64.83-2.11 64.83l.33-.06v.18l-.33-.12c-9.32-3.33-36.1-15.35-51.2-22.2a12.08 12.08 0 0 0-15.86 5.72l-19.6 40.18a12.08 12.08 0 0 0 5.45 16.14Zm566.93-149.91c14.81-18.94 15.7-32.84 15.7-32.84l9-.42c-1.6 9.92 12.4 41.25 12.4 41.25-10.19-.11-37.1-7.99-37.1-7.99Zm-150.95-28.92 40.39-17.81c-8.54 25-6 56.89-6 56.89l-6.69 3.23c-7.58-23.08-27.7-42.31-27.7-42.31Zm-145.89 191.74.76-.27h.9Z"/><path class="cls-6" transform="rotate(-2.87 2539.168 2147.69)" d="M2539.17 2148.24h8.88v6.06h-8.88z"/><path class="cls-6" d="M2096.17 2286.41s38-16.64 67.53-10.83l1.88-19.2s-49.58-2.62-69.41 30.03ZM2158.06 2301.65s17.76 23.07 29.3 29.45c0 0-16.67 7.12-45.44 2.75 0 0 14.01-21.42 16.14-32.2ZM2270.93 2218.24s31.74-10 56.07-29l4.53 10a34.7 34.7 0 0 1-13.62 26.89c-14.26 11-32.5 22-32.5 22l-10.63-18.65ZM2265.43 2189.25s-16.13 4.19-21.22 12l26.72 17ZM2407.11 2193.1l-7 4.61c7.57 16.49-2.41 40-2.41 40s23.56-6.69 28.67-17.5c-.02-.04-17.53-14.21-19.26-27.11ZM2478.56 2158.57s5-12.35-.55-17.1c0 0 25.7 22.6 60 14.77 0 0-6.23 18.73-14.6 28.07-.02 0-36.55-5.7-44.85-25.74ZM2551.26 2166.29s36 9.53 59.95-8c0 0 4.24 11.9 11.18 16.66 0 0-1.36 17.48-23.33 19.44s-35.23-.7-35.23-.7a39.14 39.14 0 0 1-12.57-27.4ZM2633 2251.54s20.32-5.22 26.42-10.82a11.56 11.56 0 0 0 6.61 2s-10.15 25.55-38.37 37.13l-22.13-20.44ZM2655.21 2102.24l18.43 13.32s-27 13.17-36.31 20.71-19.76 15.49-18.59 28.66c0 0-9.13-7-6.53-17.55s4.64-18.86 15.48-25.69 27.52-19.45 27.52-19.45ZM2535.21 2072.68s18.15 22.79 15.72 39.71-3.89 31.36-3.38 35-5.87 5.68-7-1.71.09-29.61-5.24-37.13-16.41-30.94-16.41-30.94Z"/><path class="cls-6" d="M2478 2153.62s-8.15-9.16-25.69-10.9-42 6.81-42 6.81 2.48-11.12 5.89-13.4 26.39-6.12 26.39-6.12 18.69 2.58 25.57 4.95 12.84 7.17 9.84 18.66ZM2209.17 2179.13s43.33 7.86 58.23 24.42l2.81 17.6s-22.11-23.29-34.65-26.08-38.94-8.27-38.94-8.27ZM2205 2268s56.48-8.15 74.07-31c0 0 8.44 8.8 2.23 14.73s-29.42 16.15-29.42 16.15-24 10.8-31.12 8A143.3 143.3 0 0 1 2205 2268Z"/><path class="cls-7" d="M2511.81 2069.8s-31.4-32.11-87.36-8.78-120.53 59.39-120.53 59.39 82.57-37.88 115.13-45.24 50.35-21.87 92.76-5.37ZM2062.1 2204.73s52.28-12.44 78.64-11.13 60.66 3.87 80.42 8.74 53.62 27.17 53.62 27.17-13.67-36.23-85.15-43.48-97.49-1.98-127.53 18.7ZM2656.55 2028s-62.57 40.07-75.91 61.2-25.51 24.69-33.09 58.21c0 0-7.05-25.59 20.41-60s56.68-52.06 56.68-52.06l29.66-20.2ZM2478.81 2181.36s40 15 60.16 18.91 57.21 7.6 69.86 2.13c0 0-26.81 14.65-71.71 5.4s-58.31-26.44-58.31-26.44ZM2338.62 2218.15s-16.1 25-42.56 40.62-52.4 32.85-75.89 29.06c0 0 18.94 11.22 75.49-20.09s42.96-49.59 42.96-49.59ZM2114.54 2296.28s-15 38.84-58.2 32.52c0 0 45.66 20.37 58.2-32.52Z"/><path class="cls-7" d="M2214.76 2228.35s-53.47-19.95-98.45-1.19c0 0 53.97-6.16 98.45 1.19Z"/><path class="cls-6" d="M2033.94 2370.44c10.5 2.58 55.41 11.49 91.43-14.64 26.34-19.11 40.78-52.07 42.91-98l-6.06-.28c-2 44-15.64 75.36-40.41 93.33-29.58 21.46-69.26 18.42-88 13.24-19.88-5.48-56.11-22.88-75.94-32.77a9.08 9.08 0 0 1-4.08-12.09l19.6-40.17a9 9 0 0 1 11.88-4.29c15.17 6.88 42 18.93 51.43 22.3l1.44.52c14.56 5.26 48.63 17.58 68.86-20.3l-5.35-2.85c-17.75 33.24-47.26 22.57-61.44 17.44l-1.46-.52c-9.21-3.29-35.89-15.27-51-22.12a15.05 15.05 0 0 0-19.84 7.16l-19.61 40.17a15.19 15.19 0 0 0 6.83 20.18c20 10 56.67 27.57 77 33.19Z"/><path class="cls-6" d="m2034.81 2295.16 5.79-1.82c-.15-.47-14.52-47.38 9.6-74.09 25-27.72 71.82-37.75 105.11-33.32 5.41.72 11.66 1.18 18.27 1.67 37.31 2.75 88.4 6.51 108.81 61.36l5.68-2.12c-21.76-58.49-77.3-62.58-114.05-65.29-6.52-.48-12.67-.94-17.91-1.63-33.79-4.49-82.75 4.63-110.41 35.27-11 12.19-16.37 29.93-15.5 51.3a120.65 120.65 0 0 0 4.61 28.67Z"/><path class="cls-6" d="m2089.83 2290.57 6 .74c.62-5.09 5.65-8.79 5.7-8.82l.35-.29c47.46-46.36 116.55-4.14 117.24-3.71l3.21-5.14c-.73-.46-73.66-45.1-124.55 4.36-1.2.93-7.08 5.75-7.95 12.86Z"/><path class="cls-6" d="M2213.27 2347.86a65.43 65.43 0 0 0 37.19-1.74c47.12-15.81 109.23-43.27 137.62-84.27 26.85-38.8 22.79-72.34-13.18-108.74l-4.31 4.26c34 34.39 37.71 64.61 12.5 101-27.43 39.62-88.32 66.45-134.56 82-21.78 7.32-43.13 2.75-63.45-13.56a116.05 116.05 0 0 1-24.32-27.12l-5.2 3.12c.28.48 22.25 36.32 57.71 45.05Z"/><path class="cls-6" d="M2215.26 2278.15c24.11 5.94 63.55-21.51 88.85-39.11 6.11-4.25 11.39-7.92 15.1-10.16 9.73-5.87 15.18-15.9 15.75-29a58.66 58.66 0 0 0-2-17.79l-5.8 1.75a53.76 53.76 0 0 1 1.76 15.94c-.53 11-4.84 19.09-12.82 23.91-3.88 2.34-9.23 6.06-15.43 10.37-26.85 18.68-76.82 53.45-93.26 32.11l-4.8 3.71a22.3 22.3 0 0 0 12.65 8.27ZM2104 2368c83.94 7.55 124.23-17.63 125.9-18.71l-3.27-5.1 1.64 2.55-1.64-2.55c-.1.06-10.1 6.35-30.05 11.66-18.42 4.91-49.35 9.95-92 6.11Z"/><path class="cls-6" d="m2267.83 2222.68 5.8-1.78c-.2-.66-19.49-66.2 31.92-98.05 44.65-27.66 83.87-47 119.9-59.09 34.35-11.54 76.93-18.3 101.45 32.27 25.9 53.41-3.78 82.82-5.05 84l4.18 4.39c.35-.33 34.23-33.53 6.33-91.08-30-61.86-87.27-42.62-108.84-35.37-36.48 12.25-76.11 31.77-121.16 59.68-55.42 34.35-34.74 104.35-34.53 105.03Z"/><path class="cls-6" d="m2331.63 2199.89 2.7-5.43c-4.33-2.16-4.27-4.08-4.25-4.71.1-3.3 5.69-16.32 73.41-45.14 39.46-16.79 53.07-11.15 64-6.61 1.33.55 2.61 1.08 3.89 1.56 9.36 3.51 4.32 17.62 4.27 17.76l5.69 2.08c2.52-6.86 4.11-21-7.83-25.52-1.22-.46-2.44-1-3.69-1.48-12-5-26.89-11.16-68.71 6.63-76.55 32.58-77 46.1-77.09 50.54-.09 2.93 1.16 7.1 7.61 10.32Z"/><path class="cls-6" d="M2532.44 2189.68c29.66 7.3 60.17 11.9 75.67 5.46 15.12-6.28 16.94-16.33 17-20.35.13-6.07-3.13-11.7-8.11-14l-2.56 5.5c2.84 1.32 4.69 4.69 4.61 8.39-.12 6-5 11.42-13.28 14.88-15 6.22-51 1.3-101.33-13.85-11.78-3.54-19.23-8.73-22.14-15.42a17 17 0 0 1 .12-13.47l-5.42-2.73a23.25 23.25 0 0 0-.31 18.51c3.62 8.45 12.37 14.82 26 18.92 9.4 2.8 19.52 5.64 29.75 8.16Z"/><path class="cls-6" d="M2508.23 2255.9c22 5.41 43.65 8.91 59.53 9.49 42 1.54 108.82-16.5 125-54.37 14-32.85 19.17-78.87-36-111.54l-3.09 5.22c41.23 24.42 52.5 59.4 33.48 103.94-14.9 34.91-79.93 52.13-119.19 50.69-38.81-1.42-117.09-21.42-145.7-46.14-27.32-23.6-5.38-74.37-5.15-74.88l-5.55-2.45c-1 2.25-24 55.38 6.73 81.92 13.61 11.76 38.87 23.49 71.11 33 6.23 1.86 12.6 3.57 18.83 5.12Z"/><path class="cls-6" d="m2562.41 2195.91.24.05 1.1-6a2.17 2.17 0 0 1 .34.09c-.1-.05-9-4.41-14.07-47.34-4.4-37.23 33.22-68.1 53.44-84.69a133.36 133.36 0 0 0 11.24-9.81c8.76-9.36 29-22.79 37.43-28.23l3 17 17.82 2.37 15.1 14.13-15.21 10.71 4.34 2.32c4.22 2.25 9.57 9 12.9 13.7-21.09 5.87-42.3 23.11-62.86 39.82-2.61 2.12-5.2 4.22-7.75 6.27-6.63 5.32-10.4 11.93-11.2 19.63-1.69 16.4 10.81 31.79 11.34 32.44l4.69-3.85c-.12-.14-11.44-14.13-10-28 .63-6 3.64-11.24 9-15.5 2.56-2.06 5.15-4.17 7.77-6.3 21.41-17.39 43.54-35.37 64.59-39.62l4.3-.86-2.33-3.72c-.33-.52-6.87-10.88-13.73-16.69l13.77-9.69-22-20.56-15.33-2-3.78-21.53-3.81 2.36c-1.25.78-30.76 19.16-42.47 31.66a134.1 134.1 0 0 1-10.66 9.26c-21.11 17.32-60.4 49.57-55.61 90.09 5.35 45.38 15.13 51.69 18.4 52.49ZM2603.39 2261.37l-4-4.08 5.6-1c19.66-3.57 37.48-9.74 53-18.35l1.5-.83 1.49.86c14.31 8.27 29.72-13.82 29.87-14l2.44-3.56 9.67 13.41 14.74 2-11.86 22.18 10 1.33 7.09 16.37-9.75 5.41 13.52 8.64-4.13 2.53c-17.42 10.7-46.76 9.52-68.31 6.66-.59-.08-1.2-.2-1.83-.35-16.55-4.12-45.66-33.73-49.04-37.22Zm98 19.35 13.83-7.68-3.54-8.18-15.32-2 11.89-22.23-8.66-1.15-6.3-8.74a58.19 58.19 0 0 1-8.64 8.47c-8.77 6.86-17.43 8.51-25.14 4.85a175.81 175.81 0 0 1-47.78 17.13c11.26 11 32.89 30.35 43.37 31.75 26.29 3.49 46.82 2.28 59.88-3.49Z"/><path class="cls-6" d="M2520 2080.32c35.89-13.19 60.13-4.47 60.37-4.38l2.13-5.68c-1.06-.4-26.43-9.65-64.59 4.37ZM2385.62 2263.16c34.22-.48 72.37-22.92 74-23.88l-3.09-5.21c-.38.23-38.38 22.57-71 23ZM2200.78 2188.48c26.85-20.24 76.67-37 77.17-37.13l-1.92-5.76c-2.08.69-51.25 17.2-78.9 38ZM2036.63 2229.58c.77-20.3 13.88-39.8 21.62-49.61a16.3 16.3 0 0 1 17.19-5.57l34.07 9.58-8.48 3.29c-50.89 19.73-58.39 43-58.45 43.25l-6.91 24.54Zm37.17-49.34a10.22 10.22 0 0 0-10.79 3.49c-5.32 6.74-13.34 18.31-17.55 31.3 7.44-8.43 20.95-19.57 45.17-30.06ZM2106.26 2278.22c.27-.22 27.12-22.47 58.52-17.53l.94-6c-34.19-5.38-62.2 17.9-63.37 18.89Z"/></g></svg>