<svg xmlns="http://www.w3.org/2000/svg" viewBox="0 0 149.21 235.55"><defs><style>.cls-2{fill:#99533d}.cls-3{fill:#ffa92c}.cls-4{fill:#ffc6a6}.cls-6{fill:#fffae3}.cls-7{mix-blend-mode:overlay}</style></defs><g style="isolation:isolate"><g id="Layer_3" data-name="Layer 3"><circle cx="76.35" cy="117.77" r="72.86"/><path class="cls-2" d="M132.68 215.89a28.77 28.77 0 0 1-3.51-5 73.85 73.85 0 0 1-3.44-7c-.94-2.18-1.8-4.4-2.63-6.63-.57-1.53-1.15-3.07-1.75-4.6l.35-.15a2.79 2.79 0 0 1-.82-.71 4.12 4.12 0 0 1-.48-.77 21 21 0 0 0-1.27-1.81c-.45-.62-.88-1.25-1.37-1.86l-.4-.37-.19-.08h-.08a24 24 0 0 0-3.17.47c-1 .19-2 .41-2.93.62-2 .44-4.09.91-6.13 1.35-4.08.89-8.2 1.55-12.27 2.45-3.38.91-6.71 2-10.15 2.57-3.14.55-6.27 1.08-9.37 1.77a22.81 22.81 0 0 0-4.3 1.42c-.21.13-.4.26-.59.4s-.32.35-.46.54v.4a14.92 14.92 0 0 0 .32 2.58A39.63 39.63 0 0 0 70.1 207a1.5 1.5 0 0 1 .06 1c0 .11.1.2.14.31 1.29 2.77 2.47 5.6 3.84 8.34a40.22 40.22 0 0 0 3 4.64c1.19 1.55 2.34 3.15 3.64 4.62l.22.23a2.94 2.94 0 0 1 .69 1 14 14 0 0 0 1.62.72l.44.11c1-.06 2-.17 3.07-.32-.42-.63-.84-1.27-1.25-1.91-1-1.49-1.89-3-2.78-4.5l-2.72-4.62c-.83-1.4-1.62-2.82-2.46-4.22a26.25 26.25 0 0 1-2.33-4.65 15.68 15.68 0 0 1-.69-2.61 7.64 7.64 0 0 1-.1-1.91 3.45 3.45 0 0 1 .32-1.39 5.7 5.7 0 0 1 1-1.25 10.86 10.86 0 0 1 3-1.84 32.89 32.89 0 0 1 3.35-1.26c1.12-.36 2.24-.67 3.36-1 1.61-.46 3.25-.83 4.89-1.19l5-1.08q3.42-.81 6.81-1.68c2.29-.57 4.61-1 6.92-1.49a13.36 13.36 0 0 1 2.8-.43 3.68 3.68 0 0 1 .56.06 4.09 4.09 0 0 1 1.87.84 8 8 0 0 1 2 2.67 60.71 60.71 0 0 1 2.31 5.82c.68 1.73 1.39 3.43 2.17 5.11s1.47 3 2.25 4.54a27.81 27.81 0 0 0 2.91 4.76 17 17 0 0 0 2.67 2.27c.6.37 1.21.71 1.81 1.07 1-.37 1.94-.76 2.87-1.2a5.13 5.13 0 0 1-.46-.47Z"/><path class="cls-3" d="M139.45 129c-.44 2.14-.83 4.3-1.48 6.4a60.21 60.21 0 0 1-5 11.72c-1.11 2-2.12 4-3.31 5.91s-2.36 3.6-3.57 5.38a32.11 32.11 0 0 1-4.18 4.91c-.75.74-1.51 1.47-2.24 2.24a16.83 16.83 0 0 0-1.74 2.22 11.68 11.68 0 0 0-1 2 10.67 10.67 0 0 0-.32 1.76 7.52 7.52 0 0 1-.38 2.36c-.83 2.1-3.27 2.66-5.25 3-1.51.29-3 .34-4.56.51a37 37 0 0 0-4 .67l-2.1.51h.15c-1.33.31-2.68.52-4 .82l-1.56.4c.83-.39 1.66-.8 2.5-1.15s1.51-.62 2.25-1c1.37-.62 2.69-1.34 4.1-1.9.71-.27 1.43-.55 2.16-.77s1.46-.4 2.19-.59a21.3 21.3 0 0 0 3.85-1.38c.21-.12.42-.26.62-.4v-.18a13.74 13.74 0 0 1 .24-3.45 8.15 8.15 0 0 1 .84-2.15 14.6 14.6 0 0 1 1.3-1.91c1.75-2.07 4-3.58 6.06-5.33a27 27 0 0 0 2.63-2.82c.33-.49.73-1 1.09-1.41s.61-.77.9-1.16c.68-.91 1.36-1.83 2-2.78.81-1.31 1.51-2.68 2.32-4s1.86-2.74 2.77-4.13a49.68 49.68 0 0 0 5.2-10.82c.67-2.21 1.28-4.44 1.88-6.67-.51-1.47-1-2.94-1.48-4.43a62.36 62.36 0 0 1-3.76 16 63.51 63.51 0 0 1-24.5 30.51A62.64 62.64 0 0 1 91.53 176a64.19 64.19 0 0 1-10.48 1.82c-1.84.16-3.69.24-5.53.24-1.66 0-3.32-.07-5-.19q-2.86-.24-5.71-.73a63.51 63.51 0 0 1-22.69-8.65v.06c.63 1.76 1.1 3.53 1.49 5v.12l.15.54h.23a2.15 2.15 0 0 1 .63.22l.28.14.16.08.15.08.13.07.09.05c1.19.61 2.39 1.2 3.61 1.75l.16.08.39.18.14.06.83.36.18.09.45.19.14.07c1.26.53 2.52 1.06 3.79 1.53a2.14 2.14 0 0 1 1.36 1 1.68 1.68 0 0 1 .22.42 5.38 5.38 0 0 1 .47.48c.15.18.32.36.45.55a10.33 10.33 0 0 1 1.49 3.21c.13.5.27 1 .4 1.51.26 1 .55 1.91.87 2.86.24.71.46 1.43.7 2.14l1.14 2 .15.27a12.39 12.39 0 0 1 .87-1.31 14.14 14.14 0 0 1 2.48-2.59 13.93 13.93 0 0 1 6.34-2.7 19.26 19.26 0 0 1 3-.22h2.36c1-.32 1.91-.63 2.86-.93 1.83-.57 3.68-1.06 5.52-1.6 2-.59 4.07-1.19 6.11-1.75 4.35-1.21 8.77-2.11 13.07-3.49 1.92-.62 4.09-1.27 6.08-.8l1.1-.19.56-.06h.87a4.17 4.17 0 0 1 1.17 0l.26.07a6.32 6.32 0 0 1 1.2.42c.27.15.54.32.8.49l.27.19a4 4 0 0 1 .65.72 2 2 0 0 1 .26.5 5.91 5.91 0 0 1 1.07 1.27l.14.25a8.71 8.71 0 0 0 1-1.15 8 8 0 0 0 .51-1.06c0-.25.1-.49.13-.75a8.77 8.77 0 0 0-.09-1.15 30.39 30.39 0 0 0-1.28-3.06c-.47-1.07-.94-2.13-1.4-3.2a2.17 2.17 0 0 1-.12-1.35 2.57 2.57 0 0 1-.39-1.81 2.63 2.63 0 0 1 1-1.6c.64-.54 1.28-1.09 1.91-1.66a66.94 66.94 0 0 0 18.7-29.25q1-3.19 1.66-6.46c-.38-1-.75-2.07-1.12-3.11Z"/><path class="cls-4" d="M0 19.62c.2-.72.42-1.45.64-2.21l-.06.17c-.2.68-.39 1.36-.58 2.04Z"/><path class="cls-2" d="M123.5 217.41a12.42 12.42 0 0 1-.89-1.26 4 4 0 0 1-1.06 1.08 6.18 6.18 0 0 1-2.12.93c-2.22.53-4.47.84-6.69 1.33-1.85.43-3.68.87-5.53 1.27s-3.43.69-5.14 1.06c-3.77.84-7.54 1.7-11.3 2.55a13.56 13.56 0 0 0-2.58.89l-.09.07h-.07c.41.64.83 1.28 1.25 1.91l2.1-.31c1.55-.22 3.1-.45 4.63-.72 3.61-.62 7.22-1.3 10.83-1.87 2.93-.47 5.86-.81 8.8-1.19 1.26-.32 2.52-.65 3.77-1.05a22.85 22.85 0 0 0 2.5-.94c.79-.35 1.56-.72 2.35-1.08l1.27-.53-.17-.15a21.12 21.12 0 0 1-1.86-1.99Z"/><path class="cls-4" d="M26.64 124.56a10.51 10.51 0 0 0-.44-1.18l-.15-.21-.18-.16a3.3 3.3 0 0 0-.43-.19 1.5 1.5 0 0 0-.29-.06h-.29l-.13.16a3.36 3.36 0 0 0-.16.33v.3a5.58 5.58 0 0 0 .12 1.08 8.38 8.38 0 0 0 .6 1.53 6.38 6.38 0 0 0 .53.82l.1.09.38.17h.29l.2-.14a2.85 2.85 0 0 0 .21-.1.36.36 0 0 0 0-.09 2.7 2.7 0 0 0 .07-.41 3.75 3.75 0 0 0-.09-.75c-.1-.44-.23-.81-.34-1.19ZM112.58 196.12zM112.57 196.13l.18-.29-.21.33Zm0 0Z"/><path d="M130.52 101.65a56.85 56.85 0 0 0-24.6-34.85 57.94 57.94 0 0 0-13.62-6.37 57.84 57.84 0 0 0-14.77-2.56 58.55 58.55 0 0 0-15.1 1.44h-.08a57.89 57.89 0 0 0-13.53 5A57.06 57.06 0 0 0 37 72.64a58.06 58.06 0 0 0-9.37 11.14 58.15 58.15 0 0 0-6.53 13.73 57.37 57.37 0 0 0-2.57 14.82A58.19 58.19 0 0 0 20 127.42v.07A57.55 57.55 0 0 0 25.05 141a57.86 57.86 0 0 0 8.06 11.5c.46.38.91.78 1.35 1.22a18.72 18.72 0 0 1 1.54 1.81 56.64 56.64 0 0 0 37.06 15.72 58.53 58.53 0 0 0 15-1.44h.09a57.7 57.7 0 0 0 13.57-5.09 57.8 57.8 0 0 0 11.76-8.29A58.58 58.58 0 0 0 123 145.2v-.06a56.69 56.69 0 0 0 8.91-28.4 58.61 58.61 0 0 0-.49-9.82q-.31-2.67-.9-5.27ZM30.08 131.11a2.21 2.21 0 0 1-.69 1.36 2 2 0 0 1-.36.3 2.25 2.25 0 0 1-.38.19 2.55 2.55 0 0 1-.54.15 2.73 2.73 0 0 1-1.27 0 1.92 1.92 0 0 1-.45-.18l-.31-.19-.11-.08a.92.92 0 0 1-.35-.3l-.12-.22a1 1 0 0 1 1.33-1.22l.35.2.2.1h.13a1.63 1.63 0 0 0 .31 0l.21-.07.06-.05.1-.11.07-.15a4.53 4.53 0 0 0 .09-.74 5 5 0 0 0-.08-1.16c-.08-.3-.17-.58-.26-.87l-.1.1-.17.17a1.45 1.45 0 0 1-.65.6 1.6 1.6 0 0 1-1.32 0 3.37 3.37 0 0 1-1.23-1l-.1-.14-.1-.12a4.82 4.82 0 0 1-.65-1.12 4.43 4.43 0 0 1-.2-.58 6.12 6.12 0 0 1-.52-2.59 3 3 0 0 1 .25-1.06 2.37 2.37 0 0 1 .51-.81 2 2 0 0 1 1.4-.6 3.71 3.71 0 0 1 .47 0 3.61 3.61 0 0 1 .64.19 2.58 2.58 0 0 1 .81.49 2.29 2.29 0 0 1 .56.68 4.9 4.9 0 0 1 .38.84 5.94 5.94 0 0 1 .18.6c.12.44.23.89.31 1.34a1.88 1.88 0 0 1 .05.33c.18.44.34.89.53 1.33.22.43.45.86.63 1.31a5.3 5.3 0 0 1 .38 1.52 7.68 7.68 0 0 1 .01 1.56Zm.11-27.77a1.83 1.83 0 1 1-1.49-2.11 1.85 1.85 0 0 1 1.49 2.11Zm33.5-40.05a.34.34 0 0 1 0-.1v-.2a3.55 3.55 0 0 1 .17-.66A2.71 2.71 0 0 1 65 60.75a3.25 3.25 0 0 1 2.12-.35 3 3 0 0 1 1.53.74 1.94 1.94 0 0 1 .61 1.23 5 5 0 0 1 0 .77A4.83 4.83 0 0 1 69 64.6a8.2 8.2 0 0 1-.42 1 7.31 7.31 0 0 1-.5 1.19c-.15.3-.32.59-.49.89s-.17.43-.24.65-.06.19-.08.28c.41-.12.83-.22 1.25-.3s.79-.14 1.19-.19c.21 0 .41 0 .61-.07h.17a1 1 0 0 1 .9.41 1 1 0 0 1 .08 1 1 1 0 0 1-.59.53 3.58 3.58 0 0 1-.73.11 18.68 18.68 0 0 0-2.07.36 7 7 0 0 0-.88.3 2.71 2.71 0 0 1-.78.24 1.07 1.07 0 0 1-1.2-.66 1.65 1.65 0 0 1 0-.7v-.28a7.2 7.2 0 0 1 .19-.77 10.06 10.06 0 0 1 .9-2.08l.57-.93a5.05 5.05 0 0 0 .43-.79 4.31 4.31 0 0 0 .13-.8v-.52a3.12 3.12 0 0 0-.15-.43 2.75 2.75 0 0 0-.19-.28 2.78 2.78 0 0 0-.32-.26l-.17-.08-.16.06a3.27 3.27 0 0 0-.36.25c-.06.07-.12.13-.17.2s-.11.22-.16.33l-.06.36a1 1 0 0 1 0 .17 1 1 0 0 1-.22.5 1 1 0 0 1-1.62-.28 1 1 0 0 1-.06-.41 1.49 1.49 0 0 1-.11-.31ZM59 65.37c.19-.39.39-.77.59-1.15s.39-.68.55-1 .21-.45.33-.67a1.76 1.76 0 0 1 .3-.43 1 1 0 0 1 .76-.32h.06a.91.91 0 0 1 .41.2.8.8 0 0 1 .15.17.74.74 0 0 1 .14.44 1.25 1.25 0 0 1 .19.46c.19 1.28.42 2.56.71 3.83.16.63.35 1.25.5 1.88a20.34 20.34 0 0 1 .33 2 1 1 0 0 1-2 .2 17.36 17.36 0 0 0-.26-1.76c-.11-.42-.23-.83-.34-1.24s-.25-1.06-.37-1.59-.16-.91-.24-1.36l-.15.22-.42.7a1.3 1.3 0 0 1-.1.15.72.72 0 0 1-.29.2.68.68 0 0 1-.54 0 .71.71 0 0 1-.31-.93Zm-18.64 80.76a2 2 0 1 1-3.89-.68 2 2 0 0 1 3.89.68Zm16.8 13.45a1.5 1.5 0 1 1-1.22-1.73 1.51 1.51 0 0 1 1.22 1.73Zm16.67-37.82a5.7 5.7 0 0 1-6.07-7.76L40.05 84.15a2.64 2.64 0 0 1-.86-1.64 2.44 2.44 0 0 1 2.21-2.7 2.08 2.08 0 0 1 .7 0 2 2 0 0 1 1.13.54l26.45 28.55c-.35-2.25-.72-4.51-1.06-6.76-1-6.51-1.85-13-2.88-19.53a2.2 2.2 0 0 1 2-2.4 1.65 1.65 0 0 1 .59 0 2.28 2.28 0 0 1 1.82 2c1 6.51 2.26 13 3.35 19.48.5 3 1 6.06 1.47 9.09a5.69 5.69 0 0 1-1.11 11ZM87 166a4.48 4.48 0 0 1-.23 1 3.27 3.27 0 0 1-.3.69 2.23 2.23 0 0 1-1.39 1.1 3 3 0 0 1-1.11.06 6.88 6.88 0 0 1-.89-.24 5.38 5.38 0 0 1-.51-.2 4.13 4.13 0 0 1-1-.68 3.57 3.57 0 0 1-.63-1 9.63 9.63 0 0 1-.41-1.39c-.13-.51-.29-1-.44-1.52s-.29-1-.41-1.57-.19-1-.26-1.44a7.69 7.69 0 0 1-.07-1.07 3.75 3.75 0 0 1 .12-1 4 4 0 0 1 .33-.89 4.32 4.32 0 0 1 .58-.77 3 3 0 0 1 .77-.56 2.85 2.85 0 0 1 1.65-.26h.1a2.13 2.13 0 0 1 .76.25 2.67 2.67 0 0 1 .64.46c.24.25.45.51.67.77a.82.82 0 0 1-.2 1.16.81.81 0 0 1-.62.14.73.73 0 0 1-.4-.18 4.37 4.37 0 0 0-.59-.55l-.32-.14a1.67 1.67 0 0 0-.31-.05h-.26l-.26.09-.16.12a2.52 2.52 0 0 0-.3.35c-.06.12-.11.24-.16.37a4.21 4.21 0 0 0-.11.6 11 11 0 0 0 .15 1.41v.15a2.11 2.11 0 0 1 1.94-.8 3.18 3.18 0 0 1 .86.21 4 4 0 0 1 .77.38 2.92 2.92 0 0 1 .54.38c.13.12.25.26.37.39a3.43 3.43 0 0 1 .49.8 4.23 4.23 0 0 1 .23.53 8.78 8.78 0 0 1 .35 1.43A5.88 5.88 0 0 1 87 166Zm6-96.91a1.66 1.66 0 1 1-1.36-1.93A1.69 1.69 0 0 1 93 69.08Zm13.52 9.79a1.59 1.59 0 1 1 1.3 1.84 1.6 1.6 0 0 1-1.26-1.85ZM110.2 150a2 2 0 1 1-1.6-2.29 2 2 0 0 1 1.6 2.29Zm10.34-44.76a2.81 2.81 0 0 1-.71-.08 3 3 0 0 1-1.12-.53 2.5 2.5 0 0 1-.23-.23c-.12-.13-.26-.24-.37-.38a1 1 0 0 1 .46-1.48 1 1 0 0 1 .51 0 1.24 1.24 0 0 1 .72.46 1.12 1.12 0 0 0 .2.18l.2.1h.27a2.43 2.43 0 0 0 .38 0l.17-.06.2-.14.07-.08a2.34 2.34 0 0 0 0-.26 4.94 4.94 0 0 0-.11-.86c-.07-.4-.15-.79-.24-1.18a6.25 6.25 0 0 0-.36-1.11l-.1-.15-.12-.1h-.35l-.26.07a1.33 1.33 0 0 1-.59.06.87.87 0 0 1-.5-.32.75.75 0 0 1-.13-.58.87.87 0 0 1 .42-.57l.21-.13a2.82 2.82 0 0 0 .36-.24 2 2 0 0 0 .19-.22l.05-.1a4.25 4.25 0 0 0 .08-.61 10.94 10.94 0 0 0-.15-2 3 3 0 0 0-.11-.32v-.06l-.12-.1-.16-.07h-.23a1.43 1.43 0 0 0-.29 0 1.72 1.72 0 0 0-.29.11 2.61 2.61 0 0 0-.27.19l-.06.07a2.14 2.14 0 0 0-.1.22 4.54 4.54 0 0 0-.13.9c0 .42 0 .84.07 1.27a.64.64 0 0 1-.56.68.68.68 0 0 1-.33.13.67.67 0 0 1-.69-.43 2.61 2.61 0 0 1-.14-.6 5.77 5.77 0 0 1 0-.72 7.36 7.36 0 0 1 .14-1.23 3.19 3.19 0 0 1 .4-.93 2.13 2.13 0 0 1 .61-.69 3.28 3.28 0 0 1 .71-.39 2.83 2.83 0 0 1 1.15-.14.91.91 0 0 1 .23 0 2.32 2.32 0 0 1 .8.28 1.93 1.93 0 0 1 .63.54 2.37 2.37 0 0 1 .26.56 3.47 3.47 0 0 1 .11.63 5.9 5.9 0 0 1 0 1.26 1.84 1.84 0 0 1 0 .25 7.22 7.22 0 0 1 0 1.23c0 .12 0 .23-.07.35a1.69 1.69 0 0 1 .28.12 2.06 2.06 0 0 1 .53.4 1.66 1.66 0 0 1 .31.39c0 .1.11.2.16.31a5.59 5.59 0 0 1 .4 1.15c.13.51.25 1 .35 1.55a5.79 5.79 0 0 1 .1 1.32 2.58 2.58 0 0 1-.16.78 2.25 2.25 0 0 1-.71.93 2.73 2.73 0 0 1-1.3.6 3.69 3.69 0 0 1-.67 0Zm4.56 21.38a2 2 0 1 1-1.61-2.28 2 2 0 0 1 1.61 2.28Z" style="fill:#ffe5c2"/><path class="cls-4" d="m77.91 205 .08.08ZM101.5 195l1.34-.33h-.06ZM130.51 101.64h.01l-.01-.01v.01zM120.32 103.27ZM84.49 163.2a2.11 2.11 0 0 0-.18-.27 2.75 2.75 0 0 0-.26-.22 3.65 3.65 0 0 0-.53-.25l-.29-.06h-.07l-.13.17a7 7 0 0 0-.52 1.15c0 .16-.08.33-.11.49a12.1 12.1 0 0 0 .55 1.8 1.64 1.64 0 0 0 .14.22l.19.15a3.31 3.31 0 0 0 .66.31 3.49 3.49 0 0 0 .54.12h.27a.31.31 0 0 0 .07-.09 2.18 2.18 0 0 0 .21-.47 3.23 3.23 0 0 0 .11-.54 8 8 0 0 0-.2-1.46 6.07 6.07 0 0 0-.45-1.05ZM62.29 59.28h.07-.08ZM36.95 72.66v.01-.01z"/><path class="cls-2" d="M102.45 6.89h-.14a1.37 1.37 0 0 1-.2.29 10.12 10.12 0 0 0-1 1c-.18.23-.35.47-.52.71s-.43.59-.64.89c-.33.46-.66.93-1 1.41s-.52.85-.75 1.29c-.31.6-.59 1.2-.84 1.81-.48 1.18-.88 2.39-1.28 3.6-.07.2-.13.41-.19.61-.43 1.38-.83 2.78-1.19 4.18s-.66 2.56-1 3.83c-.12.46-.28.92-.42 1.37-.08.23-.15.46-.23.68-.14.38-.29.75-.44 1.13s-.27.58-.41.88a16.5 16.5 0 0 1-.91 1.71 10.7 10.7 0 0 1-.81 1.18 8.19 8.19 0 0 1-1 1 7.28 7.28 0 0 1-3 1.61 31.39 31.39 0 0 1-4.08.72c-1.21.14-2.43.24-3.65.36l-3.75.41-7.66.75c-2.61.25-5.22.5-7.82.88-1.18.16-2.35.41-3.53.62s-2.65.46-4 .63l-2 .23-1.06.1a8.87 8.87 0 0 1-.89.06H46.7a2.22 2.22 0 0 1-1.21-.83 1.85 1.85 0 0 1-.35-1 7.34 7.34 0 0 1 .07-1.48c.08-.63.17-1.25.3-1.87s.21-1 .31-1.43l-.2.17a.73.73 0 0 0-.09.08l.36-.47c.44-2 .92-4 1.48-5.91.39-1.33.8-2.65 1.28-3.95a39.29 39.29 0 0 1 1.62-3.71 31.2 31.2 0 0 1 2-3.39 32.62 32.62 0 0 1 2.46-3.4l-.66.19a23.72 23.72 0 0 0-3.07 2.3 26.38 26.38 0 0 0-3.7 4.51 27.09 27.09 0 0 0-1.43 2.59 26.5 26.5 0 0 0-1 2.73c-.5 1.66-.94 3.34-1.29 5a35.34 35.34 0 0 0-.73 4.57 24.41 24.41 0 0 0 .2 3.31c.13 1 .28 2.11.5 3.14.11.45.23.9.37 1.34a1.83 1.83 0 0 1 1.31.45 2.11 2.11 0 0 0 .23.19 1 1 0 0 0 .23.12 7.17 7.17 0 0 0 1 .15A38.81 38.81 0 0 0 55.51 43c1-.26 2-.51 3.07-.75 1.24-.29 2.48-.54 3.74-.78 2-.38 4-.6 6-.8 2.42-.25 4.84-.52 7.27-.69 2.22-.15 4.43-.16 6.65-.31s4.53-.33 6.8-.35a33 33 0 0 0 6.28-.5 2.7 2.7 0 0 0 .5-.18c.28-.12.54-.25.82-.36v-2.07c0-1.13-.07-2.27-.12-3.4a58 58 0 0 1 .18-7.57c.11-1.31.35-2.6.57-3.9.19-1.12.46-2.26.76-3.36a22.16 22.16 0 0 1 2.36-5.85 32.64 32.64 0 0 1 3-4.18c.2-.23.41-.46.62-.68l-.54-.24a7.93 7.93 0 0 0-1.02-.14Z"/><path class="cls-4" d="M4.68 41.05h-.16Z"/><path class="cls-2" d="M115.88 200.78c-.66-1.94-1.15-4-2-5.83a17.24 17.24 0 0 1-2.46 5.35 24.94 24.94 0 0 1-2.9 3.8 18.83 18.83 0 0 1-4.14 3 30.39 30.39 0 0 1-4.77 2.31 30.05 30.05 0 0 1-3.94 1.14 19.61 19.61 0 0 1-3.57.34c-.56 0-1.11 0-1.67-.08-1.25-.1-2.5-.21-3.73-.39l-1-.15a19.28 19.28 0 0 1-5.29-1.6 8.49 8.49 0 0 1-3.52-2.9 20.7 20.7 0 0 0 1.48 3.7l.23.4c.42.75.88 1.47 1.33 2.2s.82 1.38 1.22 2.07c.85 1.43 1.72 2.85 2.56 4.29.73 1.23 1.45 2.46 2.19 3.68l.18-.12a2.55 2.55 0 0 1-.42-1.84 2.87 2.87 0 0 1 .32-1 5.34 5.34 0 0 1 .68-1c.26-.26.52-.51.79-.74s.35-.3.54-.43a16.07 16.07 0 0 1 3.25-1.79c1-.38 1.92-.72 2.91-1 2-.64 4-1.34 6-1.88 1.32-.35 2.66-.62 4-.85s2.42-.32 3.62-.46c2.45-.3 4.92-.62 7.38-.82a18.68 18.68 0 0 1 4.42 0q-1-2.16-1.92-4.33c-.6-1.7-1.2-3.38-1.77-5.07Z"/><path class="cls-4" d="M10 30.68h.09-.11ZM10.06 30.66Z"/><path class="cls-2" d="m91.14 7.91-11.5 1.44-11.38 1.45c-1.77.22-3.53.57-5.29.86-.81.13-1.63.36-2.44.54l-2.27.5-1.72.46A20.94 20.94 0 0 0 54.89 15c-.58.72-1.11 1.48-1.64 2.25-.41.6-.8 1.22-1.2 1.83l.07-.1c-.29.52-.62 1-.88 1.56s-.55 1.13-.83 1.68-.47 1.12-.71 1.67-.4 1.1-.6 1.65v-.13c-.6 1.91-1.17 3.82-1.58 5.77-.07.36-.15.72-.22 1.08.14-.14.28-.29.43-.42.92-.89 1.92-1.69 2.91-2.49l.18-.15a17.63 17.63 0 0 1 3.75-3.3 33.28 33.28 0 0 1 12.2-5 24.5 24.5 0 0 1 6.4-.24c1 .09 2 .25 3 .41l1.23.19c1.1.19 2.19.42 3.25.7A26.55 26.55 0 0 1 89 25.63c.43.3.85.61 1.25.95.08-.29.17-.58.25-.88.16-.65.32-1.31.47-2 .25-1.16.49-2.32.78-3.47a69 69 0 0 1 2.38-8 17.08 17.08 0 0 1 2-3.61c.33-.48.67-1 1-1.42L96 7.36c-1.64.16-3.25.35-4.86.55Z"/><path class="cls-4" d="M49.05 31.66s-.2.14-.29.22ZM90 27.43a.14.14 0 0 1 0-.06c-.4-.22-.81-.41-1.23-.59a8.61 8.61 0 0 1 1.23.65ZM120.32 103.27Z"/><path class="cls-3" d="M110.3 60.47c-.17-.5-.34-1-.5-1.53s-.29-.93-.43-1.4l-.28-.13a2.14 2.14 0 0 1-1.13-.19l-.15-.08a2 2 0 0 1-.34-.12c-1.36-.67-2.72-1.33-4.12-1.94l-.21-.08-.91-.41-.16-.07c-.7-.3-1.4-.61-2.1-.89q-.75-.3-1.5-.57a2.72 2.72 0 0 1-.59-.3l-.19-.15a2.1 2.1 0 0 1-.38-.41 2.21 2.21 0 0 1-.37-.86 23 23 0 0 1-2.62-.1c-1.18-.11-2.36-.26-3.53-.43s-2.53-.27-3.79-.41-2.8-.31-4.21-.36a30.7 30.7 0 0 0-5.56.74c1.24-.46 2.47-1 3.74-1.32a20.19 20.19 0 0 1 3.87-.65c1.49-.1 3-.25 4.45-.36s2.82-.11 4.22-.17l2.2-.06c.69 0 1.39-.09 2.08-.07h-.16a26 26 0 0 0 3.52-.41 7.55 7.55 0 0 0 1.47-.52 3.65 3.65 0 0 0 .45-.32 8.19 8.19 0 0 0 .72-.84 9.1 9.1 0 0 0 .59-1.27 16.11 16.11 0 0 0 .4-3.32v.14a1.48 1.48 0 0 1 0-.21v-.76a31.88 31.88 0 0 0-2-6.21 8.22 8.22 0 0 0-.68-1 2.61 2.61 0 0 0-.31-.27l-.33-.16V34.45c.13.73.27 1.47.34 2.21.05.43.08.86.11 1.3v.08a11.45 11.45 0 0 1 .44 2.32 8 8 0 0 1-.12 2.23 6 6 0 0 1-.41 1.24 4.28 4.28 0 0 1-.4.69 1.8 1.8 0 0 1-.44.43 1 1 0 0 1-.57.18h-.14a5.27 5.27 0 0 1-2.61 1.46 10.3 10.3 0 0 1-2.28.27h-2.82c-1.86 0-3.71 0-5.56.16-2 .15-4 .36-6 .51s-3.86.21-5.79.34c-2.46.17-4.92.47-7.37.74s-4.81.54-7.21.91-4.75 1-7.16 1.24c-1.22.14-2.44.29-3.68.35a19.59 19.59 0 0 1-4.4-.14 9 9 0 0 1-1.17-.27 6.1 6.1 0 0 1-1.22-.5 11.53 11.53 0 0 1-1.07-.63c-.54-.36-1.06-.76-1.58-1.15a2 2 0 0 1-.68-2c-.1-.23-.19-.45-.27-.68-.14-.41-.28-.83-.4-1.25a25.91 25.91 0 0 1-.66-2.9c-.07-.41-.13-.83-.2-1.25v.34c-.05.42-.1.84-.13 1.27s0 .73-.06 1.1c0 1.32-.08 2.65 0 4a20.7 20.7 0 0 0 .49 3.84 11 11 0 0 0 .56 1.85 3.29 3.29 0 0 0 .38.54 5.5 5.5 0 0 0 .69.57 6.63 6.63 0 0 0 1.29.61c.36.1.72.19 1.09.27a9 9 0 0 0 1.26.16h.94a1.06 1.06 0 0 1 .71.22 1 1 0 0 1 .12 1.35.91.91 0 0 1-.64.34h-2.11a8 8 0 0 1-1.36-.29 8.93 8.93 0 0 1-1.45-.51l-.53-.29a7.85 7.85 0 0 1-.76-.52 4.32 4.32 0 0 1-1.24-1.51 7.58 7.58 0 0 1-.5-1.55 14.3 14.3 0 0 1-.23-1.46c0-.51-.07-1-.09-1.52 0-1.09 0-2.17.09-3.25s.12-2 .2-3q.06-.82.15-1.65a13.41 13.41 0 0 1 .26-1.52 16.67 16.67 0 0 1 .45-1.64l.15-.43v-1h-.06a3.58 3.58 0 0 0-.45.31l-.15.22a13.85 13.85 0 0 0-1.39 3l-.09.31a17.82 17.82 0 0 0-.34 2.81 52.39 52.39 0 0 0 .35 7.08c.1.91.23 1.82.36 2.73.09.23.18.47.26.71a16.26 16.26 0 0 1 .51 1.68c.15.61.3 1.23.4 1.85a6.07 6.07 0 0 1 0 1.65 5.43 5.43 0 0 1-.42 1.58c0 .1-.09.19-.13.29a2.58 2.58 0 0 1-1 2.14c-.72.56-1.44 1.13-2.13 1.7S32 66 31.23 66.73a66.87 66.87 0 0 0-18.6 29.11A66.34 66.34 0 0 0 11.31 131 70.2 70.2 0 0 0 16 144.37a1.93 1.93 0 0 1 .16.87c.67.06 1.35.14 2.06.26s1.56.31 2.42.53a63.42 63.42 0 0 1-7.77-38.57 62.32 62.32 0 0 1 5.5-19.27 63.45 63.45 0 0 1 26.75-28.61 62.7 62.7 0 0 1 9.35-4.2 64.77 64.77 0 0 1 10.15-2.66 63.17 63.17 0 0 1 20.76-.2l.85.15a63.6 63.6 0 0 1 25.08 10.22c-.19-.39-.37-.78-.55-1.17a11 11 0 0 1-.46-1.25Z"/><path class="cls-4" d="M34.69 58.57h.18v-.13h-.16a.7.7 0 0 1-.02.13ZM45.5 44.1l-.11-.1Z"/></g><g id="Layer_2" data-name="Layer 2"><path class="cls-6" d="m70.22 175.99-8.42 18.79 23-5.18 4.86-14.26-11.34 1.3-8.1-.65zM44.95 60.34l17.82-6.48 7.13-8.75-16.2 3.57-8.75 11.66z"/><g class="cls-7"><path class="cls-6" d="m105.53 60.34-4.21-1.3-45.35 108.85 14.25 3.24 11.01.33 11.34-2.27 6.16-3.24 30.13-72.57 2.91-6.15-11.98-16.2-14.26-10.69z"/></g><g class="cls-7"><path class="cls-6" d="m35.56 155.91 1.94 7.12 8.75 6.48 2.27-5.18-4.86-1.94-8.1-6.48z"/></g><g class="cls-7"><path class="cls-6" d="m91.28 183.12 5.18-.97 5.51-11.66-7.78 3.56-2.91 9.07z"/></g></g><g id="Layer_1" data-name="Layer 1"><path d="M74.94 110.75c-.49-3-1-6.06-1.47-9.09-1.09-6.5-2.31-13-3.35-19.48a2.28 2.28 0 0 0-1.82-2 1.65 1.65 0 0 0-.59 0 2.2 2.2 0 0 0-2 2.4c1 6.5 1.88 13 2.88 19.53.34 2.25.71 4.51 1.06 6.76L43.23 80.38a2 2 0 0 0-1.13-.54 2.08 2.08 0 0 0-.7 0 2.44 2.44 0 0 0-2.21 2.7 2.64 2.64 0 0 0 .86 1.64L67.76 114a5.69 5.69 0 1 0 10.94 1.31 5.69 5.69 0 0 0-3.76-4.56ZM70.44 68h-.17c-.2 0-.4 0-.61.07-.4 0-.79.11-1.19.19s-.84.18-1.25.3c0-.09 0-.19.08-.28s.16-.44.24-.65.34-.59.49-.89a7.31 7.31 0 0 0 .5-1.19 8.2 8.2 0 0 0 .42-1 4.83 4.83 0 0 0 .32-1.46 5 5 0 0 0 0-.77 1.94 1.94 0 0 0-.61-1.23 3 3 0 0 0-1.53-.74 3.25 3.25 0 0 0-2.12.35 2.71 2.71 0 0 0-1.14 1.58 3.55 3.55 0 0 0-.17.66v.2a.34.34 0 0 0 0 .1 1.49 1.49 0 0 0 0 .21 1 1 0 0 0 .06.41 1 1 0 0 0 1.62.28 1 1 0 0 0 .22-.5 1 1 0 0 0 0-.17l.06-.36c0-.11.1-.22.16-.33s.11-.13.17-.2a3.27 3.27 0 0 1 .36-.25l.16-.06.17.08a2.78 2.78 0 0 1 .32.26 2.75 2.75 0 0 1 .19.28 3.12 3.12 0 0 1 .15.43v.52a4.31 4.31 0 0 1-.13.8 5.05 5.05 0 0 1-.43.79l-.57.93a10.06 10.06 0 0 0-.9 2.08 7.2 7.2 0 0 0-.19.77v.28a1.65 1.65 0 0 0 0 .7 1.07 1.07 0 0 0 1.2.66 2.71 2.71 0 0 0 .78-.24 7 7 0 0 1 .88-.3A18.68 18.68 0 0 1 70.1 70a3.58 3.58 0 0 0 .73-.11 1 1 0 0 0 .59-.53 1 1 0 0 0-.08-1 1 1 0 0 0-.9-.36ZM63.18 66.87a50.52 50.52 0 0 1-.71-3.83 1.25 1.25 0 0 0-.19-.46.74.74 0 0 0-.14-.44A.8.8 0 0 0 62 62a.91.91 0 0 0-.41-.19h-.06a1 1 0 0 0-.76.32 1.76 1.76 0 0 0-.3.43c-.12.22-.23.45-.33.67s-.36.7-.55 1-.4.76-.59 1.15a.71.71 0 0 0 .34.93.68.68 0 0 0 .54 0 .72.72 0 0 0 .29-.2 1.3 1.3 0 0 0 .1-.15l.42-.7.15-.22c.08.45.15.91.24 1.36s.24 1.06.37 1.59.23.82.34 1.24A17.36 17.36 0 0 1 62 71a1 1 0 0 0 2-.2 20.34 20.34 0 0 0-.33-2c-.14-.68-.33-1.3-.49-1.93ZM86.58 163.05a4.23 4.23 0 0 0-.23-.53 3.43 3.43 0 0 0-.49-.8c-.12-.13-.24-.27-.37-.39A2.92 2.92 0 0 0 85 161a4 4 0 0 0-.63-.29 3.18 3.18 0 0 0-.86-.21 2.11 2.11 0 0 0-1.94.8v-.15a11 11 0 0 1-.15-1.41 4.21 4.21 0 0 1 .11-.6c0-.13.1-.25.16-.37a2.52 2.52 0 0 1 .3-.35l.16-.12.26-.09h.26a1.67 1.67 0 0 1 .31.05l.32.14a4.37 4.37 0 0 1 .59.55.73.73 0 0 0 .4.18.81.81 0 0 0 .62-.14.82.82 0 0 0 .2-1.16c-.22-.26-.43-.52-.67-.77a2.67 2.67 0 0 0-.64-.46 2.13 2.13 0 0 0-.76-.25h-.1a2.85 2.85 0 0 0-1.65.26 3 3 0 0 0-.77.56 4.32 4.32 0 0 0-.58.77 4 4 0 0 0-.33.89 3.75 3.75 0 0 0-.12 1 7.69 7.69 0 0 0 .07 1.07c.07.48.15 1 .26 1.44s.25 1.05.41 1.57.31 1 .44 1.52a9.63 9.63 0 0 0 .41 1.39 3.57 3.57 0 0 0 .63 1 4.13 4.13 0 0 0 1 .68 5.38 5.38 0 0 0 .51.2 6.88 6.88 0 0 0 .89.24 3 3 0 0 0 1.11-.06 2.23 2.23 0 0 0 1.39-1.1 3.27 3.27 0 0 0 .3-.69 4.48 4.48 0 0 0 .23-1 5.88 5.88 0 0 0-.1-1.51 8.78 8.78 0 0 0-.46-1.53ZM85 166.23a2.18 2.18 0 0 1-.21.47.31.31 0 0 1-.07.09h-.27a3.49 3.49 0 0 1-.54-.12 3.31 3.31 0 0 1-.66-.31l-.19-.15a1.64 1.64 0 0 1-.14-.22 12.1 12.1 0 0 1-.55-1.8c0-.16.07-.33.11-.49a7 7 0 0 1 .52-1.15l.13-.17h.07l.29.06a3.65 3.65 0 0 1 .53.25 2.75 2.75 0 0 1 .26.22 2.11 2.11 0 0 1 .18.27 6.07 6.07 0 0 1 .39 1 8 8 0 0 1 .2 1.46 3.23 3.23 0 0 1-.05.59ZM122.84 100a5.59 5.59 0 0 0-.4-1.15c0-.11-.11-.21-.16-.31a1.66 1.66 0 0 0-.31-.39 2.06 2.06 0 0 0-.53-.4 1.69 1.69 0 0 0-.28-.12c0-.12 0-.23.07-.35a7.22 7.22 0 0 0 0-1.23 1.84 1.84 0 0 0 0-.25 5.9 5.9 0 0 0 0-1.26 3.47 3.47 0 0 0-.11-.63 2.37 2.37 0 0 0-.26-.56 1.93 1.93 0 0 0-.63-.54 2.32 2.32 0 0 0-.8-.28.91.91 0 0 0-.23 0 2.83 2.83 0 0 0-1.15.14 3.28 3.28 0 0 0-.71.39 2.13 2.13 0 0 0-.61.69 3.19 3.19 0 0 0-.4.93 7.36 7.36 0 0 0-.14 1.23 5.77 5.77 0 0 0 0 .72 2.61 2.61 0 0 0 .14.6.67.67 0 0 0 .69.43.68.68 0 0 0 .33-.13.64.64 0 0 0 .56-.68c0-.43-.07-.85-.07-1.27a4.54 4.54 0 0 1 .13-.9 2.14 2.14 0 0 1 .1-.22l.06-.07a2.61 2.61 0 0 1 .27-.19 1.72 1.72 0 0 1 .29-.11 1.43 1.43 0 0 1 .29 0h.23l.16.07.12.1v.06a3 3 0 0 1 .11.32 10.94 10.94 0 0 1 .15 2 4.25 4.25 0 0 1-.08.61l-.05.1a2 2 0 0 1-.19.22 2.82 2.82 0 0 1-.36.24l-.21.13a.87.87 0 0 0-.42.57.75.75 0 0 0 .13.58.87.87 0 0 0 .5.32 1.33 1.33 0 0 0 .59-.06l.26-.07h.35l.12.1.1.15a6.25 6.25 0 0 1 .36 1.11c.09.39.17.78.24 1.18a4.94 4.94 0 0 1 .11.86 2.34 2.34 0 0 1 0 .26l-.07.08-.2.14-.17.06a2.43 2.43 0 0 1-.38 0h-.27l-.2-.1a1.12 1.12 0 0 1-.2-.18 1.24 1.24 0 0 0-.72-.46 1 1 0 0 0-.51 0 1 1 0 0 0-.46 1.48c.11.14.25.25.37.38a2.5 2.5 0 0 0 .23.23 3 3 0 0 0 1.12.53 2.81 2.81 0 0 0 .71.08 3.69 3.69 0 0 0 .58 0 2.73 2.73 0 0 0 1.3-.6 2.25 2.25 0 0 0 .71-.93 2.58 2.58 0 0 0 .16-.78 5.79 5.79 0 0 0-.1-1.32c-.01-.5-.1-1.02-.26-1.55Zm-2.55 3.24Zm0 0ZM29.69 128c-.18-.45-.41-.88-.63-1.31-.19-.44-.35-.89-.53-1.33a1.88 1.88 0 0 0-.05-.33c-.08-.45-.19-.9-.31-1.34a5.94 5.94 0 0 0-.18-.6 4.9 4.9 0 0 0-.38-.84 2.29 2.29 0 0 0-.56-.68 2.58 2.58 0 0 0-.81-.49 3.61 3.61 0 0 0-.64-.19 3.71 3.71 0 0 0-.47 0 2 2 0 0 0-1.4.6 2.37 2.37 0 0 0-.51.81 3 3 0 0 0-.25 1.06 6.12 6.12 0 0 0 .52 2.59 4.43 4.43 0 0 0 .2.58 4.82 4.82 0 0 0 .65 1.12l.1.12.1.14a3.37 3.37 0 0 0 1.23 1 1.6 1.6 0 0 0 1.32 0 1.45 1.45 0 0 0 .65-.6l.17-.17.1-.1c.09.29.18.57.26.87a5 5 0 0 1 .08 1.16 4.53 4.53 0 0 1-.09.74l-.07.15-.1.11-.06.05-.21.07a1.63 1.63 0 0 1-.31 0h-.13l-.2-.1-.35-.2a1 1 0 0 0-1.33 1.22l.12.22a.92.92 0 0 0 .35.3l.11.08.31.19a1.92 1.92 0 0 0 .45.18 2.73 2.73 0 0 0 1.27 0 2.55 2.55 0 0 0 .54-.15 2.25 2.25 0 0 0 .38-.19 2 2 0 0 0 .36-.3 2.21 2.21 0 0 0 .69-1.36 7.68 7.68 0 0 0 0-1.59 5.3 5.3 0 0 0-.39-1.49ZM27 126.86a.36.36 0 0 1 0 .09 2.85 2.85 0 0 1-.23.26l-.2.14h-.29l-.38-.17-.1-.09a6.38 6.38 0 0 1-.53-.82 8.38 8.38 0 0 1-.6-1.53 5.58 5.58 0 0 1-.12-1.08v-.3a3.36 3.36 0 0 1 .16-.33l.13-.16h.29a1.5 1.5 0 0 1 .29.06 3.3 3.3 0 0 1 .43.19l.18.16.15.21a10.51 10.51 0 0 1 .44 1.18c.11.38.24.75.34 1.14a3.75 3.75 0 0 1 .09.75 2.7 2.7 0 0 1-.05.3ZM91.68 67.15A1.66 1.66 0 1 0 93 69.08a1.69 1.69 0 0 0-1.32-1.93ZM108.4 77.57a1.59 1.59 0 1 0 1.3 1.84 1.6 1.6 0 0 0-1.3-1.84ZM123.49 124.34a2 2 0 1 0 1.61 2.28 2 2 0 0 0-1.61-2.28ZM108.6 147.71a2 2 0 1 0 1.6 2.29 2 2 0 0 0-1.6-2.29ZM55.94 157.85a1.51 1.51 0 0 0-1.73 1.22 1.5 1.5 0 1 0 2.95.51 1.5 1.5 0 0 0-1.22-1.73ZM38.75 143.85a2 2 0 0 0-.68 3.89 2 2 0 1 0 .68-3.89ZM28.7 101.23a1.83 1.83 0 1 0 1.49 2.11 1.84 1.84 0 0 0-1.49-2.11ZM88.13 169.81v-.01.01z"/><path d="m147 126.77-.21-.76c-.29-1-.64-2.07-1-3.06-.44-1.31-1-2.52-1.49-3.7-.35-.78-.69-1.56-1-2.35s-.53-1.36-.78-2.05c-.49-1.28-1-2.61-1.56-3.88l-.78-1.7q-1-2.08-1.88-4.18c-.23-.52-.45-1.07-.66-1.63a65.53 65.53 0 0 0-1.87-7.55v-1.09a16.56 16.56 0 0 1 .16-1.72c.12-.83.26-1.66.39-2.49a16.08 16.08 0 0 0 .26-3.76 4.14 4.14 0 0 0-1.46-2.85 7.21 7.21 0 0 0-.72-.51l-.2-.13c-1.1-.74-2.15-1.52-3.22-2.33a23.9 23.9 0 0 1-2.67-2.36l-.19-.23-.18-.22-.19-.23c-1.19-1.45-2.42-3-3.59-4.45a73 73 0 0 1-6.71-9.92c-.36-.69-.72-1.38-1-2.08s-.49-1.61-.69-2.43c-.2-1.13-.39-2.26-.5-3.39-.06-.6-.12-1.21-.15-1.81s0-1.26 0-1.9v-.81c-.61-2.1-1.29-4.17-2-6.26-.46-1.46-.93-2.89-1.25-4.36a24.05 24.05 0 0 0-.65-2.53 13.57 13.57 0 0 0-.54-1.51 9.57 9.57 0 0 0-.78-1.53 11.39 11.39 0 0 0-1-1.34 17.2 17.2 0 0 0-1.34-1.36 8.88 8.88 0 0 0-.47-.42 9.76 9.76 0 0 0-1.08-1.6 6.56 6.56 0 0 0-1.71-1.49v-.07a8.45 8.45 0 0 1-.7-1.7 9 9 0 0 1-.18-1.79 12.93 12.93 0 0 1 .51-2.83c.1-.29.21-.56.31-.84s.24-.56.37-.81c.31-.6.64-1.18 1-1.75.64-1.06 1.3-2.11 2-3.17.35-.53.69-1.06 1.06-1.57.23-.31.46-.61.68-.92a3.94 3.94 0 0 1 .36-.45c.26-.26.53-.51.78-.77.59-.52 1.18-1 1.79-1.53h.06a20.08 20.08 0 0 0-.33-2.55 12.37 12.37 0 0 0-.75-2.93c-.25-.6-.51-1.19-.76-1.78-.59-.42-1.17-.85-1.77-1.25a15.88 15.88 0 0 0-2.09-1.22 10.19 10.19 0 0 0-3.11-.8 29.81 29.81 0 0 0-6.26.3c-3.55.44-7.1 1-10.62 1.64q-5.56 1.05-11.1 2.24c-3.89.83-7.78 1.68-11.61 2.75-1.68.48-3.34 1-5 1.63a23.13 23.13 0 0 0-3 .59 20.93 20.93 0 0 0-3.09 1 28.69 28.69 0 0 0-3.24 1.72A15 15 0 0 0 46.88 14c-.27.25-.53.5-.78.76l-.4.32a15.52 15.52 0 0 0-3.7 4.51 19.28 19.28 0 0 0-1.64 4 1.47 1.47 0 0 1-.1.22c-.15.47-.33.93-.46 1.42s-.23 1.05-.32 1.58c0 .24-.11.48-.17.72v.14a.58.58 0 0 1 0 .1 1.77 1.77 0 0 1 0 .23c0 .09 0 .17-.06.25-.23.92-.44 1.84-.63 2.77s-.33 1.76-.45 2.65h-.15a7.56 7.56 0 0 0-2.6 1.33 6.74 6.74 0 0 0-1.75 2.4 13.82 13.82 0 0 0-1 3.09 18.86 18.86 0 0 0-.35 3.1c-.08 1.71 0 3.42.05 5.13a42.37 42.37 0 0 0 .5 4.28l.3 2.05c0 .15 0 .31.08.46 0 .33-.08.67-.13 1a21.86 21.86 0 0 1-.58 2.49 3.62 3.62 0 0 1-.13.35c-.54.42-1.08.86-1.61 1.29a73.19 73.19 0 0 0-12.31 12.97 71.73 71.73 0 0 0-9.62 18 70.77 70.77 0 0 0-4.11 20.2 72.31 72.31 0 0 0 1.83 20.52 71.05 71.05 0 0 0 4.15 12.34c1.37 1.37 2.61 2.87 3.9 4.32h.75l1.18.1c1.05.07 2.09.15 3.13.26l1.15.14c.5.27 1 .57 1.48.88l1 .65.94.61a64.08 64.08 0 0 0 9.08 10.11c.64 1.58 1.24 3.34 1.85 5.38.71 2.39 1.52 5.21 2.19 8l.14.59.13.58c.14.66.28 1.29.4 1.89a18.87 18.87 0 0 0 2.69 2.25c1.61 1.16 3.19 2.38 4.87 3.42a.37.37 0 0 0 0-.11c.27.2.55.39.84.58s.68.4 1 .57l.12.08.53.25c.63.29 1.27.55 1.91.79 1.15.43 2.32.68 3.48 1a13.15 13.15 0 0 1 .56 1.85c.42 2.14.52 4.32.86 6.48a9.42 9.42 0 0 0 2.89 5.68c.8.71 1.67 1.3 2.45 2a6.54 6.54 0 0 1 .62.93 18.48 18.48 0 0 1 1 2.78c2.44 3.87 3.91 8.22 5.86 12.34a19.71 19.71 0 0 0 4.17 5.93c1.43 1.36 3.16 2.68 3.66 4.69.36.41.71.82 1.08 1.22a7 7 0 0 0 1.88 1.42l.35.34A9.27 9.27 0 0 0 80.8 234a12.78 12.78 0 0 0 3.92 1.27h.24a20.53 20.53 0 0 0 3.32.25c1.11 0 2.22-.07 3.32-.17a98.82 98.82 0 0 0 11.71-1.9c3.75-.79 7.5-1.58 11.27-2.29 2.07-.39 4.15-.75 6.2-1.25s3.93-1.08 5.88-1.71c1.32-.44 2.64-.88 4-1.34s2.64-.85 3.93-1.35a18.55 18.55 0 0 0 2.31-1.07 9.36 9.36 0 0 0 1.92-1.46 7.27 7.27 0 0 0 1.39-1.82c.2-.38.38-.78.55-1.17 0-3.05-1.9-5.5-3.1-8.22-.29-.64-.56-1.31-.83-2l-.4-.42a6 6 0 0 1-.81-1 6.55 6.55 0 0 1-.56-1.2 9.49 9.49 0 0 1-.33-1c-.12-.2-.24-.4-.35-.6-.29-.6-.56-1.2-.83-1.81a1.53 1.53 0 0 1-.26-.55c-.39-.87-.76-1.75-1.13-2.62-.75-1.73-1.55-3.44-2.35-5.14s-1.54-3.13-2.22-4.74a27 27 0 0 1-1-2.65c-.23-.75-.43-1.52-.62-2.28a6.66 6.66 0 0 1-.12-1 4.93 4.93 0 0 1 .11-.67 15.93 15.93 0 0 0 .77-2.61 26.16 26.16 0 0 0 .31-2.79c.09-1.18.14-2.37.13-3.56v-2.86a16.67 16.67 0 0 1 .46-3.38 12.67 12.67 0 0 1 .82-1.65c1.13-1.62 2.4-3.15 3.65-4.69s2.67-3.35 3.95-5.07a27.71 27.71 0 0 0 1.7-2.56 21.72 21.72 0 0 0 1.12-2.27c.45-1 .85-2 1.26-2.94q1.29-3 2.59-6.07l.75-1.73a1.7 1.7 0 0 1 .18-.39c.22-.51.44-1 .67-1.55v.69c1.67-2.44 2.24-5.65 3.24-8.36.22-.6.41-1.2.59-1.81-.13-.42-.27-.84-.39-1.26Zm-41.21-79.08a8 8 0 0 0 .47-1.09 10.51 10.51 0 0 0 .41 1.35 2.43 2.43 0 0 0 1.67 1.48 12.23 12.23 0 0 0-.06 2.9c-1-.52-1.92-1-2.91-1.46a1.83 1.83 0 0 0-.24-.13l-.91-.39-.18-.07-.69-.28a5.7 5.7 0 0 0 2.44-2.31ZM56.54 13.16l1.72-.46 2.27-.5c.81-.18 1.63-.41 2.44-.54 1.76-.29 3.52-.64 5.29-.86l11.38-1.45 11.5-1.44c1.61-.2 3.22-.39 4.83-.55l1.18-.11c-.34.47-.68.94-1 1.42a16.68 16.68 0 0 0-2 3.61 69 69 0 0 0-2.38 8c-.29 1.15-.53 2.31-.78 3.47-.15.66-.31 1.32-.47 2-.08.3-.17.59-.25.88a14.67 14.67 0 0 0-1.27-1A26.55 26.55 0 0 0 80.72 22c-1.06-.28-2.15-.51-3.25-.7l-1.23-.19c-1-.16-2-.32-3-.41a24.5 24.5 0 0 0-6.4.24 33.28 33.28 0 0 0-12.2 5 17.63 17.63 0 0 0-3.75 3.3l-.18.15c-1 .8-2 1.6-2.91 2.49-.15.13-.29.28-.43.42.07-.36.15-.72.22-1.08.41-1.95 1-3.86 1.58-5.77v.13c.2-.55.37-1.12.6-1.65s.45-1.12.71-1.67.56-1.12.83-1.68.59-1 .88-1.56l-.07.1c.4-.61.79-1.23 1.2-1.83.53-.77 1.06-1.53 1.64-2.25a20.94 20.94 0 0 1 1.58-1.88ZM43.48 31c.35-1.7.79-3.38 1.29-5a26.5 26.5 0 0 1 1-2.73 27.09 27.09 0 0 1 1.43-2.59 26.38 26.38 0 0 1 3.8-4.55 23.72 23.72 0 0 1 3-2.3l.66-.19A32.62 32.62 0 0 0 52.23 17a31.2 31.2 0 0 0-2 3.39 39.29 39.29 0 0 0-1.62 3.71c-.48 1.3-.89 2.62-1.28 3.95C46.79 30 46.31 32 45.87 34l-.36.47a.73.73 0 0 1 .09-.08l.2-.17c-.1.47-.21.95-.31 1.43s-.22 1.24-.3 1.87a7.34 7.34 0 0 0-.05 1.48 1.85 1.85 0 0 0 .35 1 2.22 2.22 0 0 0 1.28.73H48.11a8.87 8.87 0 0 0 .89-.06l1.06-.1 2-.23c1.34-.17 2.67-.4 4-.63s2.35-.46 3.53-.62c2.6-.38 5.21-.63 7.82-.88l7.59-.65 3.73-.38c1.22-.12 2.44-.22 3.65-.36a31.39 31.39 0 0 0 4.08-.72 7.28 7.28 0 0 0 3-1.61 8.19 8.19 0 0 0 1-1 10.7 10.7 0 0 0 .81-1.18 16.5 16.5 0 0 0 .91-1.71c.14-.3.3-.59.41-.88s.3-.75.44-1.13c.08-.22.15-.45.23-.68.14-.45.3-.91.42-1.37.36-1.27.69-2.54 1-3.83s.76-2.8 1.19-4.18c.06-.2.12-.41.19-.61.4-1.21.8-2.42 1.28-3.6.25-.61.53-1.21.84-1.81.23-.44.49-.87.75-1.29s.65-.95 1-1.41c.21-.3.42-.6.64-.89s.34-.48.52-.71a10.12 10.12 0 0 1 1-1 1.37 1.37 0 0 0 .2-.29h.14a7.93 7.93 0 0 1 1.07.17l.54.24c-.21.22-.42.45-.62.68a32.64 32.64 0 0 0-3 4.18A22.16 22.16 0 0 0 98.06 18c-.3 1.1-.57 2.24-.76 3.36-.22 1.3-.46 2.59-.57 3.9a58 58 0 0 0-.18 7.57c0 1.13.08 2.27.12 3.4v2.07c-.28.11-.54.24-.82.36a2.7 2.7 0 0 1-.5.18 33 33 0 0 1-6.28.5c-2.27 0-4.54.19-6.8.35s-4.43.16-6.65.31c-2.43.17-4.85.44-7.27.69-2 .2-4 .42-6 .8-1.26.24-2.5.49-3.74.78-1 .24-2 .49-3.07.75a38.81 38.81 0 0 1-8.9 1.24 7.17 7.17 0 0 1-1-.15 1 1 0 0 1-.23-.12 2.11 2.11 0 0 1-.23-.19 1.83 1.83 0 0 0-1.31-.45c-.14-.44-.26-.89-.37-1.34-.22-1-.37-2.09-.5-3.14a24.41 24.41 0 0 1-.2-3.31 35.34 35.34 0 0 1 .68-4.56ZM18.21 145.5c-.71-.12-1.39-.2-2.06-.26a1.93 1.93 0 0 0-.16-.87 66.65 66.65 0 0 1-6.39-31.13 69.48 69.48 0 0 1 3-17.4 66.87 66.87 0 0 1 18.6-29.11c.76-.69 1.54-1.36 2.34-2S35 63.57 35.7 63a2.58 2.58 0 0 0 1-2.14c0-.1.09-.19.13-.29a5.43 5.43 0 0 0 .46-1.57 6.07 6.07 0 0 0 0-1.65c-.1-.62-.25-1.24-.4-1.85s-.31-1.13-.5-1.68l-.27-.71c-.13-.91-.26-1.82-.36-2.73a52.39 52.39 0 0 1-.35-7.08 17.82 17.82 0 0 1 .34-2.81l.09-.31a13.85 13.85 0 0 1 1.39-3l.15-.22a3.58 3.58 0 0 1 .45-.31h.06v1l-.15.43a16.67 16.67 0 0 0-.45 1.64 13.41 13.41 0 0 0-.29 1.52q-.09.82-.15 1.65c-.08 1-.14 2-.2 3s-.12 2.16-.09 3.25c0 .51 0 1 .09 1.52a14.3 14.3 0 0 0 .23 1.46 7.58 7.58 0 0 0 .5 1.55 4.32 4.32 0 0 0 1.24 1.51 7.85 7.85 0 0 0 .76.52l.53.29a8.93 8.93 0 0 0 1.43.49 8 8 0 0 0 1.36.29c.7.06 1.4 0 2.11 0a.91.91 0 0 0 .64-.34 1 1 0 0 0-.12-1.35 1.06 1.06 0 0 0-.71-.22h-.94a9 9 0 0 1-1.26-.16c-.37-.08-.73-.17-1.09-.27a6.63 6.63 0 0 1-1.29-.61 5.5 5.5 0 0 1-.69-.57 3.29 3.29 0 0 1-.38-.54 11 11 0 0 1-.63-1.91 20.7 20.7 0 0 1-.48-3.8v-4c0-.37 0-.74.06-1.1s.08-.85.13-1.27v-.34c.07.42.13.84.2 1.25a25.91 25.91 0 0 0 .66 2.9c.12.42.26.84.4 1.25.08.23.17.45.27.68a2 2 0 0 0 .68 2c.52.39 1 .79 1.58 1.15a11.53 11.53 0 0 0 1.16.68 6.3 6.3 0 0 0 1.32.47 9 9 0 0 0 1.17.27 19.59 19.59 0 0 0 4.4.14c1.24-.06 2.46-.21 3.68-.35 2.41-.28 4.77-.87 7.16-1.24s4.79-.64 7.21-.91 4.91-.57 7.37-.74c1.93-.13 3.86-.19 5.79-.34s4-.36 6-.51c1.85-.14 3.7-.15 5.56-.16h2.82a10.3 10.3 0 0 0 2.28-.27 5.27 5.27 0 0 0 2.61-1.46h.14a1 1 0 0 0 .57-.18 1.8 1.8 0 0 0 .44-.43 4.28 4.28 0 0 0 .4-.69 6 6 0 0 0 .41-1.24 8 8 0 0 0 .12-2.23A11.45 11.45 0 0 0 102 38v-.08c0-.44-.06-.87-.11-1.3-.07-.74-.21-1.48-.34-2.21V32.96l.33.16a2.61 2.61 0 0 1 .31.27 8.22 8.22 0 0 1 .68 1 31.88 31.88 0 0 1 2 6.21v.76a1.48 1.48 0 0 0 0 .21v-.14a16.11 16.11 0 0 1-.4 3.32 9.1 9.1 0 0 1-.59 1.27 8.19 8.19 0 0 1-.72.84 3.65 3.65 0 0 1-.45.32 7.55 7.55 0 0 1-1.47.52 26 26 0 0 1-3.52.41h.16c-.69 0-1.39 0-2.08.07l-2.2.06c-1.4.06-2.81.08-4.22.17s-3 .26-4.45.36a20.19 20.19 0 0 0-3.87.65c-1.27.35-2.5.86-3.74 1.32a30.7 30.7 0 0 1 5.46-.74c1.41 0 2.8.21 4.21.36s2.53.23 3.79.41 2.35.32 3.53.43a23 23 0 0 0 2.62.1 2.21 2.21 0 0 0 .37.86 2.1 2.1 0 0 0 .38.41l.19.15a2.72 2.72 0 0 0 .59.3q.75.27 1.5.57c.7.28 1.4.59 2.1.89l.16.07.91.41.21.08c1.4.61 2.76 1.27 4.12 1.94a2 2 0 0 0 .34.12l.15.08a2.14 2.14 0 0 0 1.13.19l.28.13c.14.47.28.94.43 1.4s.33 1 .5 1.53a10.18 10.18 0 0 0 .46 1.24c.18.4.36.79.55 1.18a63.6 63.6 0 0 0-25.07-10.18l-.85-.15a63.17 63.17 0 0 0-20.76.2 64.77 64.77 0 0 0-10.15 2.66 62.7 62.7 0 0 0-9.35 4.2 63.45 63.45 0 0 0-26.76 28.61 62.32 62.32 0 0 0-5.5 19.27A63.08 63.08 0 0 0 20.63 146c-.86-.19-1.63-.36-2.42-.5Zm17.82 10a18.72 18.72 0 0 0-1.54-1.74c-.44-.44-.89-.84-1.35-1.22a57.86 57.86 0 0 1-8.06-11.5A57.55 57.55 0 0 1 20 127.48v-.07a58.19 58.19 0 0 1-1.44-15.11.34.34 0 0 0 0 .1.57.57 0 0 1 0-.13 57.37 57.37 0 0 1 2.57-14.82 58.15 58.15 0 0 1 6.36-13.57 57.75 57.75 0 0 1 9.37-11.14 57.06 57.06 0 0 1 11.71-8.26 57.89 57.89 0 0 1 13.53-5h.08-.07.08a58.55 58.55 0 0 1 15.1-1.44 57.84 57.84 0 0 1 14.77 2.56 57.94 57.94 0 0 1 13.62 6.37 57.87 57.87 0 0 1 11.2 9.45 56.54 56.54 0 0 1 13.37 25.28q.58 2.59.95 5.24a58.61 58.61 0 0 1 .49 9.82 56.69 56.69 0 0 1-8.91 28.4v.06a58.34 58.34 0 0 1-9.39 11.16 57.8 57.8 0 0 1-11.76 8.29 57.7 57.7 0 0 1-13.57 5.09h-.09a58.49 58.49 0 0 1-15 1.44A56.79 56.79 0 0 1 36 155.53Zm4.4 8.2a40.3 40.3 0 0 0-2.3-5l1.46 1.19a58.34 58.34 0 0 0 14.75 8.42 57.65 57.65 0 0 0 16.84 3.78 58.75 58.75 0 0 0 8.9-.06 59.67 59.67 0 0 0 8.92-1.42 57.72 57.72 0 0 0 43.46-63.82 59.55 59.55 0 0 0-1.89-8.79 57.36 57.36 0 0 0-12.71-22.4 58.41 58.41 0 0 0-6.16-5.82A58.29 58.29 0 0 0 89 58.45c-1.27-.32-2.55-.58-3.84-.81a57.65 57.65 0 0 0-46 11.83 57.71 57.71 0 0 0-18.92 62.6 56.91 56.91 0 0 0 7.68 15.52c.64.92 1.31 1.83 2 2.71a42.1 42.1 0 0 0-4.29-2.3l-.43-.21c-1-1.56-2-3.18-2.88-4.84A61.5 61.5 0 0 1 17 128.6 60.16 60.16 0 0 1 18.1 97a.19.19 0 0 1 0-.07.88.88 0 0 1 .05-.15 62.22 62.22 0 0 1 6.67-14.23l.09-.14a.56.56 0 0 0-.05.08A60.29 60.29 0 0 1 47.3 61.75a62 62 0 0 1 14.55-5.46 63 63 0 0 1 16.08-1.54 60.11 60.11 0 0 1 30 9.41 63.58 63.58 0 0 1 7.37 5.57l.16.22.61.81c.66.89 1.28 1.8 1.86 2.65a26 26 0 0 0 2.43 3l1.18 1.23 1 1.11c.29.33.58.68.86 1 .46.55.93 1.11 1.42 1.64a25.88 25.88 0 0 0 2 2 62.81 62.81 0 0 1 1.94 3.38 63.41 63.41 0 0 1 2.69 5.87c-.06.5-.1 1-.14 1.58a16.61 16.61 0 0 0 .13 3.58c.24 1.35.56 2.63.83 3.6s.56 1.92 1 3c.3.88.67 1.73 1 2.56l.13.31c0 .09.09.19.12.28l.34 1.14.25.86c.17.59.33 1.17.49 1.76q.18 2.85.09 5.7a60.06 60.06 0 0 1-9.43 30.19l-.06.11a63 63 0 0 1-10.06 11.91 62.92 62.92 0 0 1-12.42 8.74A60.58 60.58 0 0 1 73.36 175a62.21 62.21 0 0 1-15.78-2.71h.08a62.65 62.65 0 0 1-14.75-6.92c-.84-.48-1.66-1.05-2.48-1.64ZM86.12 222l-.18.12c-.74-1.22-1.46-2.45-2.19-3.68-.84-1.44-1.71-2.86-2.56-4.29-.4-.69-.8-1.39-1.22-2.07s-.91-1.45-1.33-2.2l-.23-.4a20.7 20.7 0 0 1-1.48-3.7 8.49 8.49 0 0 0 3.52 2.9 19.28 19.28 0 0 0 5.29 1.6l1 .15c1.23.18 2.48.28 3.73.39.56 0 1.11.08 1.67.08a19.61 19.61 0 0 0 3.57-.34 30.05 30.05 0 0 0 3.94-1.14 30.39 30.39 0 0 0 4.77-2.31 18.83 18.83 0 0 0 4.14-3 24.32 24.32 0 0 0 2.9-3.8 17.24 17.24 0 0 0 2.46-5.35c.85 1.87 1.34 3.89 2 5.83.57 1.69 1.17 3.37 1.87 5q.93 2.18 1.92 4.33a18.68 18.68 0 0 0-4.42 0c-2.46.2-4.93.52-7.38.82-1.2.14-2.42.26-3.62.46s-2.69.5-4 .85c-2 .54-4 1.24-6 1.88-1 .31-2 .65-2.91 1a16.07 16.07 0 0 0-3.38 1.79c-.19.13-.36.28-.54.43s-.53.48-.79.74a5.34 5.34 0 0 0-.68 1 2.87 2.87 0 0 0-.32 1 2.55 2.55 0 0 0 .45 1.91Zm38.14-1.85c-.79.36-1.56.73-2.35 1.08a22.85 22.85 0 0 1-2.5.94c-1.25.4-2.51.73-3.77 1.05-2.94.38-5.87.72-8.8 1.19-3.61.57-7.22 1.25-10.83 1.87-1.53.27-3.08.5-4.63.72l-2.1.31c-.42-.63-.84-1.27-1.25-1.91h.07l.09-.07a13.56 13.56 0 0 1 2.58-.89c3.76-.85 7.53-1.71 11.3-2.55 1.71-.37 3.43-.7 5.14-1.06s3.69-.84 5.53-1.27c2.22-.49 4.47-.8 6.69-1.33a6.18 6.18 0 0 0 2.12-.93 4 4 0 0 0 1.06-1.08 12.42 12.42 0 0 0 .89 1.26 21.12 21.12 0 0 0 1.86 2l.17.15Zm4.91-9.26a28.77 28.77 0 0 0 3.51 5l.19.21a5.13 5.13 0 0 0 .46.47c-.93.44-1.9.83-2.87 1.2-.6-.36-1.21-.7-1.81-1.07a17 17 0 0 1-2.67-2.27 27.81 27.81 0 0 1-2.91-4.76c-.78-1.5-1.54-3-2.25-4.54s-1.49-3.38-2.17-5.11a62 62 0 0 0-2.31-5.83 8.1 8.1 0 0 0-2-2.66 4.09 4.09 0 0 0-1.87-.84 3.68 3.68 0 0 0-.56-.06 13.36 13.36 0 0 0-2.8.43c-2.31.47-4.63.92-6.92 1.49s-4.53 1.14-6.81 1.68l-5 1.08c-1.64.36-3.28.73-4.89 1.19-1.12.32-2.24.63-3.36 1a32.89 32.89 0 0 0-3.35 1.26 10.86 10.86 0 0 0-3 1.84 5.7 5.7 0 0 0-1 1.25 3.45 3.45 0 0 0-.32 1.39 7.64 7.64 0 0 0 .1 1.91 15.68 15.68 0 0 0 .69 2.61 26.25 26.25 0 0 0 2.33 4.65c.84 1.4 1.63 2.82 2.46 4.22l2.72 4.62c.89 1.52 1.83 3 2.78 4.5.41.64.83 1.28 1.25 1.91-1 .15-2 .26-3.07.32l-.44-.11a14 14 0 0 1-1.62-.72 2.94 2.94 0 0 0-.69-1l-.22-.23c-1.3-1.47-2.45-3.07-3.64-4.62a40.22 40.22 0 0 1-3-4.64c-1.37-2.74-2.55-5.57-3.84-8.34 0-.11-.09-.2-.14-.31a1.5 1.5 0 0 0-.06-1 39.63 39.63 0 0 1-2.07-5.62 14.92 14.92 0 0 1-.32-2.58v-.4c.14-.19.3-.36.46-.54s.38-.27.59-.4a22.81 22.81 0 0 1 4.3-1.42c3.1-.69 6.23-1.22 9.37-1.77 3.44-.61 6.77-1.66 10.15-2.57 4.07-.9 8.19-1.56 12.27-2.45 2-.44 4.08-.91 6.13-1.35 1-.21 2-.43 2.93-.62a24 24 0 0 1 3.17-.47h.08l.19.08.4.37c.49.61.92 1.24 1.37 1.86a21 21 0 0 1 1.31 1.87 4.12 4.12 0 0 0 .48.77 2.79 2.79 0 0 0 .82.71l-.35.15c.6 1.53 1.18 3.07 1.75 4.6.83 2.23 1.69 4.45 2.63 6.63a73.85 73.85 0 0 0 3.44 7Zm10.31-75.11a66.94 66.94 0 0 1-18.7 29.22c-.63.57-1.27 1.12-1.91 1.66a2.63 2.63 0 0 0-1 1.6 2.57 2.57 0 0 0 .39 1.81 2.17 2.17 0 0 0 .12 1.35c.46 1.07.93 2.13 1.4 3.2a30.39 30.39 0 0 1 1.28 3.06 8.77 8.77 0 0 1 .09 1.15c0 .26-.08.5-.13.75a8 8 0 0 1-.51 1.06 8.71 8.71 0 0 1-1 1.15l-.14-.25a5.91 5.91 0 0 0-1.07-1.27 2 2 0 0 0-.26-.5 4 4 0 0 0-.65-.72l-.27-.19c-.26-.17-.53-.34-.8-.49a6.09 6.09 0 0 0-1.2-.42l-.26-.07a4.17 4.17 0 0 0-1.17 0h-.87l-.56.06-1.1.19c-2-.47-4.16.18-6.08.8-4.3 1.38-8.72 2.28-13.07 3.49-2 .56-4.07 1.16-6.11 1.75-1.84.54-3.69 1-5.52 1.6-.95.3-1.91.61-2.86.93h-2.36a19.26 19.26 0 0 0-3 .22 13.93 13.93 0 0 0-6.13 2.78 14.14 14.14 0 0 0-2.48 2.59 12.39 12.39 0 0 0-.87 1.31l-.15-.27-1.14-2c-.24-.71-.46-1.43-.7-2.14-.32-1-.61-1.89-.87-2.86-.13-.51-.27-1-.4-1.51a10.33 10.33 0 0 0-1.49-3.21c-.13-.19-.3-.37-.45-.55a5.38 5.38 0 0 0-.47-.48 1.68 1.68 0 0 0-.22-.42 2.14 2.14 0 0 0-1.36-1c-1.27-.47-2.53-1-3.79-1.53l-.14-.07-.45-.19-.18-.09-.83-.36-.24.08-.39-.18-.16-.08c-1.22-.55-2.42-1.14-3.61-1.75l-.09-.05-.13-.07-.15-.08-.16-.08-.28-.14a2.15 2.15 0 0 0-.63-.22h-.23l-.15-.54v-.12c-.39-1.5-.86-3.27-1.49-5v-.06a63.51 63.51 0 0 0 22.69 8.65q2.85.5 5.71.73c1.65.12 3.31.19 5 .19 1.84 0 3.69-.08 5.53-.24A64.19 64.19 0 0 0 91.53 176a63.07 63.07 0 0 0 46.82-54.76c.48 1.49 1 3 1.48 4.43-.6 2.23-1.21 4.46-1.88 6.67a49.68 49.68 0 0 1-5.2 10.82c-.91 1.39-1.88 2.73-2.77 4.13s-1.51 2.68-2.32 4c-.64 1-1.32 1.87-2 2.78-.29.39-.6.77-.9 1.16s-.76.92-1.09 1.41a27 27 0 0 1-2.63 2.82c-2 1.75-4.31 3.26-6.06 5.33a14.6 14.6 0 0 0-1.3 1.91 8.15 8.15 0 0 0-.84 2.15 13.74 13.74 0 0 0-.24 3.45v.18c-.2.14-.41.28-.62.4a21.3 21.3 0 0 1-3.85 1.38c-.73.19-1.47.36-2.19.59s-1.45.5-2.16.77c-1.41.56-2.73 1.28-4.1 1.9-.74.34-1.49.65-2.25 1s-1.67.76-2.5 1.15l1.56-.4c1.33-.3 2.68-.51 4-.82h-.15l2.1-.51a37 37 0 0 1 4-.67c1.52-.17 3-.22 4.56-.51 2-.38 4.42-.94 5.25-3a7.52 7.52 0 0 0 .38-2.36 10.67 10.67 0 0 1 .32-1.76 11.68 11.68 0 0 1 1-2 16.2 16.2 0 0 1 1.74-2.22c.73-.77 1.49-1.5 2.24-2.24a32.11 32.11 0 0 0 4.18-4.91c1.21-1.78 2.43-3.56 3.57-5.38s2.2-3.94 3.31-5.91a60.21 60.21 0 0 0 5-11.72c.65-2.1 1-4.26 1.48-6.4l.57-2.77c.37 1 .74 2.08 1.12 3.11q-.71 3.36-1.68 6.55Z"/><path class="cls-3" d="M75.83 52.16a63 63 0 1 1-63 63 63 63 0 0 1 63-63m0-4a67 67 0 1 0 67 67 67 67 0 0 0-66.95-67Z"/><path d="M75.32 56.41A58.33 58.33 0 1 1 17 114.74a58.4 58.4 0 0 1 58.32-58.33m0-2a60.33 60.33 0 1 0 60.33 60.33 60.33 60.33 0 0 0-60.33-60.33Z" style="fill:#ce8017"/></g></g></svg>