<svg xmlns="http://www.w3.org/2000/svg" viewBox="0 0 1933.45 1973.8"><defs><style>.cls-2{fill:#1d1d1b}.cls-10,.cls-4{fill:#e93c85}.cls-5{fill:#bc115c}.cls-7{fill:#00b0d9}.cls-8{fill:#008fb8}.cls-9{fill:#98d0ea}.cls-10,.cls-17{stroke:#1d1d1b;stroke-linecap:round;stroke-linejoin:round;stroke-width:9.98px}.cls-11{fill:#fee600}.cls-12{fill:#3e6398}.cls-14,.cls-17{fill:#f7a927}.cls-19{fill:#c3bdbb}</style></defs><g style="isolation:isolate"><g id="Capa_1" data-name="Capa 1"><path class="cls-2" d="M286.76 1701.3s396.89-329.55 437.92 7.62c0 0 188.93-278 472-49.19 0 0-24.11-447.19 545.83-152 0 0-506.48-349.19 157.92-609.19 0 0-557.89-49.26-288.7-312.36 0 0-406.08 148-225-396.82 0 0-275.06 579.81-532.63 164 0 0 38 429.24-332.63 256.39 0 0 207.58 468.47-417.19 306.78 0 0 620.65 250.38 112.08 435.78.04 0 355.27.48 70.4 348.99Z"/><path d="M348.9 1738.19a8.93 8.93 0 0 1-7.27-14.1c81.9-115.12 109-201.56 80.4-256.91-32.78-63.55-132.8-68.49-162.67-68.49-7 0-11.2.25-11.25.25a5 5 0 0 1-.55 0 8.93 8.93 0 0 1-3.55-17.12c123.83-53.63 185.13-110.39 182.21-168.71C419.64 1081.88 97.1 977.54 93.84 976.5a8.93 8.93 0 0 1 2.71-17.43 9.15 9.15 0 0 1 1.63.15c71.73 13.24 135.66 19.95 190 19.95h.06c113.53 0 188-28.79 221.35-85.56 57.45-97.8-25.45-248.85-26.29-250.36a8.93 8.93 0 0 1 10.94-12.71c53.6 20.16 101.06 30.38 141.07 30.38 51.24 0 91.26-16.8 119-49.9 69.52-83.11 41.84-242.92 41.55-244.53a8.93 8.93 0 0 1 15.92-6.95c65.8 87.33 133 131.61 199.71 131.61 180.58 0 307-322.12 308.27-325.38a8.93 8.93 0 0 1 17 5.36c-40.68 164.64-37 279.11 10.81 340.22C1373.84 545 1413.66 562 1465.88 562c62 0 119.66-24.58 120.23-24.83a8.93 8.93 0 0 1 10.18 14.17c-53.58 59.52-71.86 110.25-54.34 150.78 49.73 115.07 363.32 123.32 366.48 123.39a8.92 8.92 0 0 1 3.53 17c-202.81 93.55-308.16 197.06-313.14 307.66-7.27 161.33 205.21 285.51 207.35 286.74a8.93 8.93 0 0 1-7.92 16c-123.09-52-227-78.4-309-78.4-74.36 0-130.83 21.66-167.84 64.37-64.37 74.29-48.84 188.35-48.68 189.5a8.92 8.92 0 0 1-4.09 8.84 9 9 0 0 1-9.75-.18c-72.2-48.93-142.44-73.74-208.76-73.74-161.67 0-249.89 148.24-250.77 149.73a8.91 8.91 0 0 1-7.7 4.44 9.57 9.57 0 0 1-1.41-.11 8.93 8.93 0 0 1-7.32-6.95c-19.11-89-62.71-134.18-129.6-134.18-127.33 0-296.62 158-298.31 159.55a8.9 8.9 0 0 1-6.12 2.41Z" style="fill:#fff"/><path class="cls-2" d="M1328.06 169c-83.26 337 34.58 401.93 137.82 401.93 64.76 0 123.77-25.56 123.77-25.56-248.89 276.52 318.58 289.07 318.58 289.07-648.13 299-106.51 610.24-106.51 610.24-134.88-57-236.28-79.1-312.47-79.1-263.32 0-225.35 264.06-225.35 264.06-81.26-55.07-152.67-75.27-213.77-75.27-168.67 0-258.48 154.16-258.48 154.16-22.61-105.41-76.06-141.24-138.32-141.24-132.34 0-304.43 162-304.43 162 228.92-321.75-29.68-339.5-89.54-339.5-7.43 0-11.8.28-11.8.28 497.31-215.43-151-422-151-422 75.6 14 138.83 20.09 191.67 20.09 397.8 0 202.86-349.19 202.86-349.19 57.72 21.71 105.2 31 144.24 31 224.16 0 169.3-304.94 169.3-304.94 74.08 98.31 143.85 135.16 206.84 135.16 188.79 0 316.6-331.08 316.6-331.08m0-17.85a17.86 17.86 0 0 0-16.65 11.41c-1.24 3.2-125.62 319.67-300 319.67-63.76 0-128.55-43.08-192.59-128a17.85 17.85 0 0 0-31.82 13.9c.27 1.56 27.18 157.44-39.65 237.26-25.88 30.8-63.59 46.5-112.04 46.5-39 0-85.37-10-138-29.81a17.85 17.85 0 0 0-21.87 25.41c.81 1.46 81.23 148.22 26.36 241.55-31.6 53.85-103.47 81.09-213.59 81.09-53.82 0-117.22-6.66-188.42-19.8a18.22 18.22 0 0 0-3.26-.3A17.85 17.85 0 0 0 91.13 985c89 28.39 321 124.77 326.17 228.58 2.68 53.45-58.47 108.8-176.84 160.08a17.85 17.85 0 0 0 7.09 34.23h1.13s4-.24 10.68-.24c28.6 0 124.27 4.59 154.73 63.65 26.53 51.42-1 137-79.73 247.65a17.86 17.86 0 0 0 26.78 23.36c1.66-1.58 168.52-157.14 292.19-157.14 63 0 102.51 41.59 120.87 127.13a17.84 17.84 0 0 0 32.88 5.24c.2-.34 22.06-37.24 63.26-73.46 54.2-47.66 114.7-71.83 179.79-71.83 64.51 0 133.06 24.29 203.75 72.2a17.85 17.85 0 0 0 27.69-17.32c-.15-1.09-14.91-111.61 46.73-182.55 35.24-40.56 89.39-61.12 161-61.12 80.75 0 183.54 26.14 305.53 77.69a17.85 17.85 0 0 0 15.84-31.92c-2.09-1.2-209.94-122.8-202.89-278.65 4.85-107 108.47-207.88 308-299.9a17.86 17.86 0 0 0-7.09-34.07c-86.37-1.93-319.13-26.91-358.48-118-16-37 1.75-84.57 52.78-141.26a17.86 17.86 0 0 0-20.44-28.35c-.54.24-56.6 24.1-116.67 24.1-49.34 0-86.79-15.89-111.32-47.22-46.07-58.84-49.16-170.74-9.17-332.58a17.83 17.83 0 0 0-17.33-22.13Z"/><path class="cls-4" d="M715.93 1537.17a5.09 5.09 0 0 1-1.84-.35 5 5 0 0 1-2.89-3L504.43 918.09a5 5 0 0 1 2.69-6.14L1473 480.85a4.94 4.94 0 0 1 2-.43 5.12 5.12 0 0 1 2.06.44 5 5 0 0 1 2.71 3.06l171.35 550a5 5 0 0 1-2.42 5.88l-930.42 496.78a5 5 0 0 1-2.35.59Z"/><path class="cls-2" d="m1475.07 485.41 171.35 550-930.49 496.77L509.16 916.5l965.91-431.09m0-10a9.8 9.8 0 0 0-4.07.87L505.09 907.39a10 10 0 0 0-5.39 12.29l206.77 615.68a10 10 0 0 0 5.78 6.09 9.75 9.75 0 0 0 3.68.71 9.9 9.9 0 0 0 4.7-1.18l930.49-496.81a10 10 0 0 0 4.83-11.77l-171.35-550a10 10 0 0 0-9.53-7Z"/><path class="cls-5" d="M1364.66 546.51c34.17 42.59 64.19 90.42 86.33 140.29 44.39 100 64.87 220.68 18.47 323.77-31.32 69.63-87.88 114.59-157.66 142.83-38.53 15.6-78.45 27.14-117.47 41.38a634.14 634.14 0 0 0-115.11 55.64c-69.73 42.9-135.34 93.65-201 142.51-45.88 34.15-89.54 71.35-122 117.72l890.16-475.28-171.35-550-117.55 52.46c2.46 2.9 4.86 5.78 7.18 8.68Z"/><path d="M650.57 1289.29c-8.54-45.72-15.86-91.63-23.26-137.54-6.49-40.21-12.53-81.65-4.27-122.11 14.07-68.89 62.6-118 116.74-159.06 60.89-46.24 121.4-93.33 183-138.69L509.16 916.5 669 1392.28c-6.2-34.28-12-68.72-18.43-102.99Z" style="fill:#f29aba"/><path class="cls-7" d="M715.93 1537.17a5 5 0 0 1-.94-.09L558 1506.9a4.94 4.94 0 0 1-3.77-3.28l-200.59-584.8a5 5 0 0 1 4.7-6.61l150.82-.7a5 5 0 0 1 4.72 3.4l206.78 615.68a5 5 0 0 1-4.73 6.58Z"/><path class="cls-2" d="m509.16 916.5 206.77 615.68-157-30.18-200.57-584.8 150.8-.7m0-10h-.05l-150.8.7a10 10 0 0 0-9.39 13.22l200.56 584.8a10 10 0 0 0 7.55 6.56l157 30.18a10 10 0 0 0 11.34-13L518.61 913.32a10 10 0 0 0-9.45-6.8Z"/><path class="cls-8" d="M538.09 1059.43c20.1 70.47 42.94 140.81 68.12 209.63 13.12 35.87 27.51 71.22 39.18 107.63 7.74 24.18 22.84 57.35 14 83.25-10.84 31.56-41.52 43.21-74.22 47.1l130.81 25.14L509.16 916.5h-8.63a14.31 14.31 0 0 1-4.42 2c-2.87.79-6.08 1.54-9.48 2.3 26.18 41.7 37.99 91.38 51.46 138.63Z"/><path class="cls-9" d="M504.54 1331.08c-16.75-59.53-36.84-118.12-56.39-176.79-10.59-31.79-20.82-63.46-28.85-96-6.64-26.93-15-54.59-17.89-82.26-2.07-20 2.21-40.82 17.5-55 1.58-1.47 3.21-2.81 4.86-4.1l-65.41.3 154.88 451.62c-2.24-12.85-5.24-25.46-8.7-37.77Z"/><path class="cls-10" d="m527.37 1295.17 69.56-.32-39.65-118.05-70.4.33 40.49 118.04zM587.15 1469.49l73.15 14.06-46.35-137.99-69.2.32 42.4 123.61zM482.41 953.88l-71.97.33 21.62 63.06 71.53-.33-21.18-63.06zM511.19 1039.56l-71.37.33 8.16 23.8 71.2-.32-7.99-23.81zM477.49 1149.75l70.59-.33-10.95-32.61-70.82.32 11.18 32.62z"/><path class="cls-10" d="m519.18 1063.37-71.2.32 9.16 26.72 71.02-.33-8.98-26.71zM457.14 1090.41l9.17 26.72 70.82-.32-8.97-26.73-71.02.33z"/><path class="cls-7" d="M358.36 922.19a5 5 0 0 1-2.14-9.5l880.86-418.88a4.87 4.87 0 0 1 1.87-.47l236.12-12.92a5 5 0 0 1 2 9.54l-965.88 431.1a5 5 0 0 1-2 .43Z"/><path class="cls-2" d="M1475.07 485.41 509.16 916.5l-150.8.7 880.86-418.88 235.85-12.91m0-10h-.63l-235.76 12.9a10.08 10.08 0 0 0-3.74.95L354.07 908.19a10 10 0 0 0 4.29 19h.05l150.79-.7a9.92 9.92 0 0 0 4-.87l965.68-431a10 10 0 0 0-3.76-19.19Z"/><path class="cls-7" d="M358.36 922.19a5 5 0 0 1-2.14-9.5l880.86-418.88a4.87 4.87 0 0 1 1.87-.47l236.12-12.92a5 5 0 0 1 2 9.54l-965.88 431.1a5 5 0 0 1-2 .43Z"/><path class="cls-2" d="M1475.07 485.41 509.16 916.5l-150.8.7 880.86-418.88 235.85-12.91m0-10h-.63l-235.76 12.9a10.08 10.08 0 0 0-3.74.95L354.07 908.19a10 10 0 0 0 4.29 19h.05l150.79-.7a9.92 9.92 0 0 0 4-.87l965.68-431a10 10 0 0 0-3.76-19.19Z"/><path class="cls-9" d="M530.22 858.32c56.39-21.76 107.53-51.21 160.07-80.82 63.86-36 129.7-67.35 192.2-105.89 7.18-4.43 14.49-9.07 21.72-14L358.36 917.2l98.07-.45c1.91-31.75 49.06-48.9 73.79-58.43Z"/><path class="cls-8" d="M1176.24 611.21c-31.51 14.06-64.33 23.78-96.72 35.44-86 31-173 70.56-247.38 125.7l642.93-286.94-210 11.49c.33 1.14.63 2.3.86 3.52 3.62 19.9-2.2 39.87-13.6 56.37-17.33 25.21-48.82 42.21-76.09 54.42Z"/><path class="cls-11" d="M613.53 1050.79a5 5 0 0 1-2.08-.46 5 5 0 0 1-2.71-3.15L577.46 939a5 5 0 0 1 2.76-5.94l850.55-379.3a5 5 0 0 1 6.82 3.17l28.65 99.1a5 5 0 0 1-2.72 5.92l-847.91 388.38a5 5 0 0 1-2.08.46Z"/><path class="cls-2" d="m1432.8 558.31 28.65 99.11-847.92 388.37-31.28-108.17 850.55-379.31m0-10a9.92 9.92 0 0 0-4.07.86L578.19 928.5a10 10 0 0 0-5.53 11.89L604 1048.57a10 10 0 0 0 13.73 6.3l847.93-388.38a10 10 0 0 0 5.42-11.85l-28.65-99.1a9.94 9.94 0 0 0-9.58-7.2Z"/><path class="cls-7" d="M1207.84 592.7a5.24 5.24 0 0 1-1.42-.2l-48.87-14.5a5 5 0 0 1-3.35-3.35l-60.94-202.13a5 5 0 0 1 4.45-6.42l79.1-5.06a5 5 0 0 1 4.72 3.37L1251.79 569a5 5 0 0 1-2.73 6.2l-39.23 17.06a5.06 5.06 0 0 1-1.99.44Z"/><path class="cls-2" d="m1176.81 366.07 70.26 204.58-39.23 17.06-48.84-14.46-61-202.13 78.78-5.05m0-10h-.64l-78.79 5.05a10 10 0 0 0-8.91 12.84l60.94 202.13a10 10 0 0 0 6.72 6.69l48.9 14.5a10 10 0 0 0 6.81-.42l39.23-17.06a10 10 0 0 0 5.46-12.39l-70.26-204.58a10 10 0 0 0-9.43-6.74Z"/><path class="cls-7" d="M622.29 857a4.85 4.85 0 0 1-1-.1l-66.86-13.7a5 5 0 0 1-3.79-3.46l-62-208a5 5 0 0 1 .77-4.4 5 5 0 0 1 4-2l54.37-.25a5 5 0 0 1 4.73 3.41L627 850.45a5 5 0 0 1-4.73 6.57Z"/><path class="cls-2" d="M547.76 630.13 622.29 852l-66.86-13.69-62-208 54.35-.25m0-10-54.35.25a10 10 0 0 0-9.51 12.82l62 208a10 10 0 0 0 7.56 6.92l66.87 13.7a9.62 9.62 0 0 0 2 .2 10 10 0 0 0 9.46-13.15L557.22 627a10 10 0 0 0-9.46-6.8Z"/><path class="cls-7" d="M493.41 635.37a5 5 0 0 1-2-9.57l604.62-259.26a5 5 0 0 1 1.65-.4l79.11-5.06a5 5 0 0 1 1.92 9.59l-629 264.06a4.87 4.87 0 0 1-1.91.39Z"/><path class="cls-2" d="m1176.81 366.07-629 264.06-54.35.25L1098 371.12l78.78-5.05m0-10h-.73l-78.7 5a9.85 9.85 0 0 0-3.29.79L489.48 621.21a10 10 0 0 0 3.93 19.15l54.35-.25a10 10 0 0 0 3.81-.77l628.82-264a10 10 0 0 0-3.48-19.28Z"/><path class="cls-4" d="M622.29 857a5 5 0 0 1-4.73-3.4L543 631.72a5 5 0 0 1 2.79-6.18l629.05-264.07a5 5 0 0 1 6.65 3l70.3 204.53a5 5 0 0 1-2.73 6.2l-39.23 17.06a5.05 5.05 0 0 1-3.94 0 5 5 0 0 1-2.72-2.85L1137 412.81 591.8 648.38l64.32 187.87a5 5 0 0 1-2.54 6.09l-29.1 14.18a5.08 5.08 0 0 1-2.19.48Z"/><path class="cls-2" d="m1176.81 366.07 70.26 204.58-39.23 17.06-68.06-181.55-554.19 239.47 65.8 192.23-29.1 14.14L557 657.49l-9.19-27.36 629.05-264.06m0-10a10 10 0 0 0-3.86.78L543.9 620.93a10 10 0 0 0-5.6 12.38l9.19 27.36 65.34 194.54a10 10 0 0 0 9.46 6.8 9.85 9.85 0 0 0 4.37-1l29.1-14.17a10 10 0 0 0 5.08-12.21L598 651.13l536.09-231.66 64.38 171.74a10 10 0 0 0 5.46 5.69 9.88 9.88 0 0 0 3.89.79 10 10 0 0 0 4-.83l39.23-17.06a10 10 0 0 0 5.46-12.39l-70.26-204.58a10 10 0 0 0-5.36-5.87 10.14 10.14 0 0 0-4.08-.87Z"/><path class="cls-7" d="M827.79 1413.9c-70 0-139.42-64.21-165-152.68-30.17-104.34 8.87-207.61 87-230.21l2.76-.8c13.2-3.85 33.13-9.64 47.48-9.64a44.23 44.23 0 0 1 5 .27c60.88 7 115 67.73 141.21 158.4 20 69 23.91 159.7-24.83 207.36-11 10.77-30.52 15.28-47.74 19.27-5.25 1.21-10.21 2.36-14.46 3.58a113.14 113.14 0 0 1-31.42 4.45Z"/><path class="cls-2" d="M800.06 1025.55a39.06 39.06 0 0 1 4.45.24c62.5 7.23 113.06 72.08 137 154.84C964 1258.37 960.67 1341.28 918 1383c-13.25 13-42.2 16.45-60.11 21.62a107.83 107.83 0 0 1-30.08 4.25c-66.93 0-134.61-60.56-160.21-149.08-29.45-101.86 8-202.16 83.63-224 12.81-3.7 34.21-10.25 48.85-10.25m0-10c-15.06 0-35.41 5.92-48.88 9.84l-2.74.79c-80.81 23.37-121.38 129.42-90.44 236.4 12.77 44.17 36.72 84.05 67.43 112.3s67.18 44 102.36 44a118.08 118.08 0 0 0 32.85-4.64c4.12-1.19 9-2.32 14.2-3.52 17.86-4.14 38.1-8.82 50.11-20.56 50.3-49.2 46.49-141.93 26.14-212.31-26.79-92.64-82.52-154.7-145.43-162a49.31 49.31 0 0 0-5.6-.3Z"/><path class="cls-7" d="M860.82 1404.34c-70 0-139.41-64.2-165-152.67-30.17-104.34 8.88-207.62 87-230.22a113.37 113.37 0 0 1 31.46-4.43c70 0 139.42 64.2 165 152.67 30.17 104.34-8.88 207.61-87 230.22a113.39 113.39 0 0 1-31.46 4.43Z"/><path class="cls-2" d="M814.32 1022c66.94 0 134.62 60.56 160.22 149.07 29.45 101.86-8 202.17-83.63 224a107.9 107.9 0 0 1-30.09 4.25c-66.93 0-134.61-60.56-160.21-149.07-29.45-101.86 8-202.16 83.63-224a108.2 108.2 0 0 1 30.08-4.25m0-10a118.45 118.45 0 0 0-32.85 4.63c-80.8 23.37-121.38 129.41-90.44 236.4 12.77 44.16 36.72 84 67.43 112.3s67.18 44 102.36 44a118.52 118.52 0 0 0 32.86-4.63c80.8-23.37 121.37-129.41 90.44-236.4-12.77-44.16-36.72-84-67.43-112.29s-67.18-44-102.36-44Z"/><path class="cls-2" d="M857 1373.39c-58.9 0-117.23-53.93-138.71-128.22-12.2-42.2-11.45-85.47 2.13-121.84 13.77-36.89 39.05-62.31 71.18-71.61a95.26 95.26 0 0 1 26.53-3.74c58.89 0 117.23 53.92 138.71 128.21 25.35 87.65-7.54 174.44-73.31 193.45a95.27 95.27 0 0 1-26.53 3.75Z"/><path class="cls-2" d="M818.14 1053c56 0 112.52 50.63 133.92 124.61 24.62 85.15-6.68 169-69.91 187.28a90.44 90.44 0 0 1-25.15 3.51c-56 0-112.53-50.62-133.92-124.61-24.62-85.15 6.68-169 69.91-187.28a90.44 90.44 0 0 1 25.14-3.55m0-10a100.22 100.22 0 0 0-27.91 3.94c-33.69 9.74-60.14 36.25-74.48 74.66-14 37.36-14.74 81.74-2.24 125 22.5 77.61 81.5 131.82 143.5 131.82a100.23 100.23 0 0 0 27.91-4c68.42-19.78 102.83-109.33 76.72-199.63C939.2 1097.19 880.19 1043 818.14 1043Z"/><path class="cls-4" d="M838.84 1273.43c-22.72 0-44.29-19.72-52.45-48-9.51-32.89 3.18-65.56 28.28-72.82a37.1 37.1 0 0 1 10.33-1.41c22.73 0 44.3 19.72 52.46 48 9.51 32.89-3.18 65.56-28.28 72.83a37.53 37.53 0 0 1-10.34 1.4Z"/><path class="cls-2" d="M825 1156.18c19.92 0 40 18 47.66 44.36 8.77 30.3-2.37 60.14-24.87 66.64a31.88 31.88 0 0 1-8.95 1.26c-19.91 0-40.05-18-47.66-44.34-8.76-30.3 2.38-60.15 24.87-66.65a31.89 31.89 0 0 1 9-1.27m0-10a42 42 0 0 0-11.71 1.65c-27.75 8-42 43.47-31.7 79 8.78 30.35 32.32 51.55 57.25 51.55a42.11 42.11 0 0 0 11.72-1.65c27.75-8 42-43.47 31.69-79-8.78-30.36-32.32-51.56-57.25-51.56Z"/><path class="cls-5" d="M816.05 1157.45c-.81.24-1.6.52-2.39.83 30.61 28.27 38.7 73.63 19.41 109.62a32.6 32.6 0 0 0 14.72-.72c22.5-6.5 33.64-36.34 24.87-66.64s-34.1-49.6-56.61-43.09Z"/><path class="cls-2" d="m818.68 1166.51 1.36-.31a17.59 17.59 0 0 1 4-.63 24.49 24.49 0 0 1 6.39.32 30 30 0 0 1 8 2.4 38.87 38.87 0 0 1 8.6 5.06 47.51 47.51 0 0 1 8 7.74 55.17 55.17 0 0 1 6.61 9.91 63.05 63.05 0 0 1 4.66 11.55c.44 1.92 1 3.56 1.31 5.72a51.42 51.42 0 0 1 .83 6.19 55.58 55.58 0 0 1-.3 11.92 47.69 47.69 0 0 1-2.66 10.83 39 39 0 0 1-4.57 8.88 30 30 0 0 1-5.52 6.31 23.55 23.55 0 0 1-5.22 3.66 28.94 28.94 0 0 1-5 2.06l1.05-.93a26.35 26.35 0 0 0 2.76-2.7 31.15 31.15 0 0 0 3.55-4.6 21.55 21.55 0 0 0 1.74-3.05 28.13 28.13 0 0 0 1.62-3.49 51.8 51.8 0 0 0 3.51-17.71 61.83 61.83 0 0 0-.57-10.18c-.19-1.75-.54-3.4-.85-5s-.91-3.63-1.33-5.43a72.77 72.77 0 0 0-3.65-9.7 60.8 60.8 0 0 0-4.94-8.92 51.58 51.58 0 0 0-12.42-13.1 36.61 36.61 0 0 0-6.34-3.73 30.12 30.12 0 0 0-5.44-2 24.85 24.85 0 0 0-3.8-.81Z"/><path class="cls-11" d="M946.68 1026.23c-15.9 0-30.86-13.32-36.37-32.38-6.47-22.39 2.71-44.79 20.47-49.92l16.93-4.9a13.52 13.52 0 0 1 3.79-.55c12.73 0 17.61 17.08 22.32 33.6l.91 3.15c2.3 7.95 4.81 17.08 5.53 24.92 1.29 14.09-4.22 18.71-9.06 20.1l-16.93 4.91a27.34 27.34 0 0 1-7.59 1.07Z"/><path class="cls-2" d="M951.5 943.46c9.64 0 14.13 18.26 18.44 33.16 4.36 15.09 9.94 35.94-.13 38.84l-16.93 4.9a21.91 21.91 0 0 1-6.2.88c-13.31 0-26.63-11.65-31.57-28.77-5.72-19.79 1.91-39.37 17-43.75l16.94-4.9a8.63 8.63 0 0 1 2.4-.36m0-10a19 19 0 0 0-5.18.74l-16.92 4.9c-20.35 5.9-31.07 31.1-23.83 56.14 6.12 21.19 23.05 36 41.16 36a32.3 32.3 0 0 0 9-1.27l12.87-3.72 4.07-1.18c5.44-1.57 14.32-7 12.63-25.35-.76-8.28-3.34-17.68-5.7-25.86l-.9-3.13c-5-17.44-10.62-37.22-27.12-37.22Z"/><path class="cls-11" d="M963.62 1021.33c-15.9 0-30.85-13.31-36.37-32.37-6.48-22.39 2.7-44.8 20.46-49.93a27.33 27.33 0 0 1 7.58-1.07c15.91 0 30.86 13.31 36.38 32.37 3.07 10.62 2.76 21.57-.85 30.85-3.8 9.75-10.77 16.52-19.62 19.07a27.33 27.33 0 0 1-7.58 1.08Z"/><path class="cls-2" d="M955.29 943c13.31 0 26.63 11.65 31.59 28.76 5.71 19.79-1.92 39.38-17.07 43.75a22.2 22.2 0 0 1-6.19.88c-13.31 0-26.63-11.66-31.58-28.77-5.72-19.78 1.92-39.37 17.06-43.75a22.24 22.24 0 0 1 6.19-.87m0-10a32.34 32.34 0 0 0-9 1.26c-20.39 5.91-31.1 31.08-23.87 56.11 6.14 21.18 23.06 36 41.17 36a32.35 32.35 0 0 0 9-1.27c10.22-2.95 18.56-11 22.87-22.06 4-10.29 4.37-22.38 1-34-6.13-21.19-23.05-36-41.17-36Z"/><path class="cls-11" d="M1220.75 908.16c-15.9 0-30.86-13.31-36.37-32.37-6.47-22.39 2.7-44.79 20.46-49.93l17-4.9a13.77 13.77 0 0 1 3.78-.55c12.73 0 17.61 17.09 22.33 33.61l.9 3.14c4.67 16.18 11.72 40.62-3.53 45l-17 4.9a27.2 27.2 0 0 1-7.57 1.1Z"/><path class="cls-2" d="M1225.57 825.4c9.64 0 14.13 18.26 18.44 33.15 4.35 15.1 9.94 35.94-.13 38.85l-16.94 4.9a22.24 22.24 0 0 1-6.19.87c-13.3 0-26.63-11.65-31.58-28.76-5.72-19.79 1.92-39.37 17.06-43.76l16.94-4.89a8.63 8.63 0 0 1 2.4-.36m0-10a18.85 18.85 0 0 0-5.17.75l-3.61 1-13.32 3.86c-20.42 5.9-31.13 31.07-23.88 56.11 6.13 21.18 23.05 36 41.16 36a32.28 32.28 0 0 0 9-1.27l17-4.9c20-5.79 11.83-34.21 6.94-51.19l-.9-3.14c-5-17.45-10.63-37.23-27.13-37.23Z"/><path class="cls-11" d="M1237.68 903.26c-15.9 0-30.86-13.31-36.37-32.37-3.07-10.61-2.76-21.57.85-30.85 3.8-9.74 10.77-16.52 19.63-19.08a27.2 27.2 0 0 1 7.57-1.07c15.91 0 30.86 13.32 36.37 32.38 3.07 10.61 2.77 21.57-.84 30.85-3.8 9.74-10.77 16.52-19.62 19.07a27.34 27.34 0 0 1-7.59 1.07Z"/><path class="cls-2" d="M1229.36 824.88c13.3 0 26.62 11.66 31.57 28.77 5.73 19.78-1.91 39.37-17 43.75a22.26 22.26 0 0 1-6.2.87c-13.3 0-26.63-11.65-31.57-28.76-5.73-19.79 1.91-39.37 17.06-43.75a21.89 21.89 0 0 1 6.19-.88m0-10a31.86 31.86 0 0 0-9 1.27c-10.23 2.94-18.57 11-22.88 22.05-4 10.29-4.37 22.39-1 34 6.12 21.18 23 36 41.16 36a32.24 32.24 0 0 0 9-1.27c10.23-3 18.56-11 22.89-22.05 4-10.3 4.35-22.39 1-34-6.12-21.18-23-36-41.15-36Z"/><path class="cls-7" d="M1449.65 1090.43c-54 0-110.43-59.59-134.17-141.69-27-93.32-1.93-182.82 55.83-199.53l2-.59c9-2.61 22.53-6.56 33.16-6.56a33.63 33.63 0 0 1 6.29.55c45.82 8.87 88.82 64.64 112.22 145.54 17.79 61.53 24.58 141.53-9.74 181.56-8.08 9.44-22.71 12.65-35.62 15.47-3.82.83-7.42 1.62-10.46 2.5a70.47 70.47 0 0 1-19.51 2.75Z"/><path class="cls-2" d="M1406.5 747.05a28 28 0 0 1 5.34.46c46.71 9 87 68.24 108.37 142 20.06 69.31 21.17 142.06-8.73 176.92-9.26 10.82-30.61 12.65-43.68 16.43a65.06 65.06 0 0 1-18.15 2.55c-50.82 0-105.94-57-129.37-138.08C1294 856.54 1317.49 770 1372.7 754c8.78-2.54 23.08-7 33.8-7m0-10c-11.34 0-25.31 4.07-34.55 6.76l-2 .59c-30.18 8.73-52.78 35.57-63.62 75.58-10.38 38.26-8.82 84.47 4.38 130.12 24.35 84.19 82.78 145.3 139 145.3a75.36 75.36 0 0 0 20.92-3c2.88-.83 6.41-1.6 10.15-2.42 13-2.84 29.17-6.39 38.34-17.09 35.61-41.54 28.9-123.42 10.74-186.19-23.92-82.71-68.39-139.82-116.06-149.06a38.7 38.7 0 0 0-7.24-.64Z"/><path class="cls-7" d="M1473.77 1083.45c-54 0-110.43-59.59-134.17-141.68-27-93.32-1.94-182.83 55.83-199.53a69.9 69.9 0 0 1 19.52-2.75c54 0 110.44 59.59 134.17 141.69 27 93.31 2 182.82-55.81 199.52a70.09 70.09 0 0 1-19.54 2.75Z"/><path class="cls-2" d="M1415 744.48c50.83 0 106 57 129.38 138.09 26.26 90.82 2.79 177.38-52.41 193.34a65.06 65.06 0 0 1-18.15 2.55c-50.83 0-105.94-57-129.37-138.08-26.26-90.82-2.8-177.38 52.41-193.35a65 65 0 0 1 18.14-2.55m0-10a74.92 74.92 0 0 0-20.91 3c-30.18 8.72-52.77 35.56-63.61 75.57-10.38 38.26-8.82 84.48 4.38 130.13 24.34 84.19 82.78 145.29 139 145.29a75.36 75.36 0 0 0 20.92-2.94c30.17-8.73 52.77-35.57 63.61-75.58 10.38-38.26 8.82-84.47-4.39-130.13-24.34-84.18-82.78-145.29-139-145.29Z"/><path class="cls-2" d="M1468.94 1056.05c-45.49 0-93-50.06-112.94-119-22.67-78.43-1.49-153.71 47.23-167.8a59.72 59.72 0 0 1 16.55-2.33c45.49 0 93 50.06 113 119 22.67 78.44 1.49 153.72-47.23 167.8a59.37 59.37 0 0 1-16.61 2.33Z"/><path class="cls-2" d="M1419.79 771.88c42.48 0 88.54 47.68 108.14 115.43 22 75.91 2.33 148.28-43.82 161.62a54.28 54.28 0 0 1-15.17 2.13c-42.48 0-88.55-47.68-108.14-115.42-22-75.92-2.34-148.28 43.82-161.62a54.61 54.61 0 0 1 15.17-2.14m0-10a64.73 64.73 0 0 0-17.94 2.52c-25.79 7.46-45.08 30.3-54.3 64.32-8.75 32.27-7.45 71.21 3.67 109.66 20.55 71.05 70.06 122.63 117.73 122.63a64.86 64.86 0 0 0 18-2.52c25.79-7.47 45.08-30.31 54.3-64.32 8.75-32.27 7.44-71.22-3.67-109.66-20.56-71.06-70.07-122.63-117.73-122.63Z"/><path class="cls-4" d="M1449 967.33c-17.59 0-35.79-18.79-43.28-44.68-8.7-30.11-.36-58.1 19-63.69a24.2 24.2 0 0 1 6.78-1c17.6 0 35.81 18.79 43.29 44.68 8.71 30.12.35 58.1-19 63.7a24.51 24.51 0 0 1-6.79.99Z"/><path class="cls-2" d="M1431.48 863c15.13 0 31.53 17 38.5 41.08 7.81 27 .83 52.77-15.6 57.52a19.45 19.45 0 0 1-5.4.75c-15.12 0-31.52-17-38.48-41.07-7.81-27-.84-52.77 15.59-57.52a19 19 0 0 1 5.39-.76m0-10a29.51 29.51 0 0 0-8.16 1.15c-22 6.38-31.89 37.07-22.41 69.88 8.22 28.43 28 48.28 48.07 48.28a29.53 29.53 0 0 0 8.17-1.15c22-6.37 31.89-37.07 22.41-69.87-8.22-28.43-28-48.29-48.08-48.29Z"/><path class="cls-5" d="M1426.09 863.75a19.19 19.19 0 0 0-4.08 1.78c14.24 18.88 26 39.45 30 63.22a100.84 100.84 0 0 1-.14 33.35 18.56 18.56 0 0 0 2.55-.51c16.43-4.75 23.41-30.5 15.6-57.52s-27.5-45.07-43.93-40.32Z"/><path class="cls-2" d="m1426.43 871.56 1.18-.25a12.39 12.39 0 0 1 3.46-.38 24.85 24.85 0 0 1 12.18 3.69 44.2 44.2 0 0 1 13.1 12.35 59.69 59.69 0 0 1 5.16 8.73 67.91 67.91 0 0 1 3.74 9.73c.46 1.9.83 3.16 1.2 5s.67 3.55.84 5.25a58.51 58.51 0 0 1 .3 10.13 44.23 44.23 0 0 1-4.48 17.44 24.83 24.83 0 0 1-8.33 9.61 13.1 13.1 0 0 1-3.14 1.54l-1.13.42.83-.87a18.82 18.82 0 0 0 2.09-2.54 27 27 0 0 0 2.38-4.28 39 39 0 0 0 1.94-5.91 56.69 56.69 0 0 0 1-7.26 74.33 74.33 0 0 0 0-8.19 76.86 76.86 0 0 0-1.09-8.7c-.21-1.51-.61-2.89-.88-4.32s-.85-3.25-1.17-4.53a86.38 86.38 0 0 0-6.7-16.52 74.56 74.56 0 0 0-4.39-6.91 55.73 55.73 0 0 0-4.75-5.59 40 40 0 0 0-4.8-4 26.85 26.85 0 0 0-4.29-2.34 16.44 16.44 0 0 0-3.13-1Z"/><path class="cls-11" d="M1048.67 1268.78a5.05 5.05 0 0 1-1.84-.35 5 5 0 0 1-2.89-3l-71.6-213.17a5 5 0 0 1 2.7-6.14l289.26-129.6a5 5 0 0 1 4.1 0 5 5 0 0 1 2.71 3.06l60.5 194.19a5 5 0 0 1-2.41 5.89L1051 1268.2a5.1 5.1 0 0 1-2.33.58Z"/><path class="cls-2" d="m1266.35 921.07 60.5 194.18-278.18 148.54-71.6-213.17 289.28-129.55m0-10a10 10 0 0 0-4.08.87L973 1041.52a10 10 0 0 0-5.39 12.28l71.6 213.16a10 10 0 0 0 14.16 5.63l278.18-148.53a10 10 0 0 0 4.83-11.77l-60.51-194.19a10 10 0 0 0-9.52-7Z"/><path class="cls-12" d="M1299.72 1134.73a5 5 0 0 1-4.76-3.5L1243 964.59l-255.82 114.59a5 5 0 0 1-6.77-3l-8.07-24a5 5 0 0 1 2.7-6.14l289.26-129.52a5 5 0 0 1 4.1 0 5 5 0 0 1 2.71 3.06l60.5 194.19a5 5 0 0 1-2.41 5.89l-27.13 14.48a4.88 4.88 0 0 1-2.35.59Z"/><path class="cls-2" d="m1266.35 921.07 60.5 194.18-27.13 14.5-53.59-172-261 116.89-8.07-24 289.28-129.55m0-10a10 10 0 0 0-4.08.87L973 1041.52a10 10 0 0 0-5.39 12.28l8.07 24a10 10 0 0 0 5.45 6 10.15 10.15 0 0 0 4 .84 9.78 9.78 0 0 0 4.07-.88L1240 971.44l50.25 161.27a10 10 0 0 0 5.73 6.27 10.19 10.19 0 0 0 3.79.74 10 10 0 0 0 4.7-1.17l27.13-14.49a10 10 0 0 0 4.83-11.77l-60.56-194.19a10 10 0 0 0-9.52-7Z"/><path style="fill:none;stroke:#1d1d1b;stroke-linecap:round;stroke-linejoin:round;stroke-width:9.98px" d="m1243.46 963.83 22.89-42.76"/><path class="cls-12" d="M1068.51 1235.23a5 5 0 0 1-1.81-.33 5 5 0 0 1-2.9-3l-10.26-29.16a5 5 0 0 1 2.41-6.09l201.28-104.15a5.07 5.07 0 0 1 2.3-.56 4.83 4.83 0 0 1 1.93.39 5 5 0 0 1 2.84 3.12l8.38 26.86a5 5 0 0 1-2.42 5.89l-199.4 106.44a5 5 0 0 1-2.35.59Z"/><path class="cls-2" d="m1259.53 1096.94 8.38 26.87-199.4 106.44-10.26-29.16 201.28-104.15m0-10a9.84 9.84 0 0 0-4.58 1.12l-201.29 104.15a10 10 0 0 0-4.83 12.18l10.27 29.15a10 10 0 0 0 14.11 5.49l199.4-106.44a10 10 0 0 0 4.83-11.77l-8.39-26.87a10 10 0 0 0-9.52-7Z"/><path class="cls-12" d="M1030.36 1126.91a5.16 5.16 0 0 1-2-.39 5 5 0 0 1-2.74-2.93l-9.47-26.87a5 5 0 0 1 2.67-6.22l209-93.39a5 5 0 0 1 2-.43 4.88 4.88 0 0 1 2.05.44 5 5 0 0 1 2.72 3.07l8.4 26.94a5 5 0 0 1-2.72 6l-207.91 93.3a4.94 4.94 0 0 1-2 .48Z"/><path class="cls-2" d="m1229.85 1001.67 8.4 27-207.89 93.3-9.47-26.87 209-93.39m0-10a9.93 9.93 0 0 0-4.07.87l-209 93.39a10 10 0 0 0-5.34 12.43l9.46 26.86a9.94 9.94 0 0 0 5.48 5.85 9.82 9.82 0 0 0 3.94.81 10 10 0 0 0 4.08-.87l207.9-93.3a10 10 0 0 0 5.44-12.08l-8.4-27a10 10 0 0 0-9.53-7Z"/><path class="cls-2" d="M1058.25 1206.08a5.05 5.05 0 0 1-1.84-.35 5 5 0 0 1-2.87-3l-27.89-79.16a5 5 0 0 1 2.66-6.21l207.9-93.31a5 5 0 0 1 6.81 3.07l21.28 68.32a5 5 0 0 1-2.48 5.91l-201.28 104.15a5 5 0 0 1-2.29.58Z"/><path class="cls-2" d="m1238.25 1028.63 21.28 68.31-201.28 104.15-27.89-79.16 207.89-93.3m0-10a10 10 0 0 0-4.08.87l-207.9 93.3a10 10 0 0 0-5.33 12.42l27.89 79.17a10 10 0 0 0 9.42 6.66 9.87 9.87 0 0 0 4.58-1.12l201.29-104.15a10 10 0 0 0 4.93-11.83l-21.27-68.32a10 10 0 0 0-5.42-6.13 10.15 10.15 0 0 0-4.11-.87Z"/><path class="cls-14" d="M819.65 926.43a4.88 4.88 0 0 1-2-.41 5 5 0 0 1-2.75-3l-17.58-52a5 5 0 0 1 2.7-6.15l53-23.64a5 5 0 0 1 2-.43 5.16 5.16 0 0 1 2 .41 5 5 0 0 1 2.72 3l17.39 51.49a5 5 0 0 1-2.65 6.13L821.73 926a5 5 0 0 1-2.08.43Z"/><path class="cls-2" d="m855.08 845.75 17.39 51.5-52.82 24.2-17.58-52.06 53-23.64m0-10a9.91 9.91 0 0 0-4.06.86l-53 23.65a10 10 0 0 0-5.39 12.3l17.58 52a10 10 0 0 0 13.61 5.88l52.82-24.2a10 10 0 0 0 5.31-12.27l-17.39-51.49a10 10 0 0 0-5.45-5.95 10.14 10.14 0 0 0-4-.83Z"/><path class="cls-14" d="M1402 659.7a5.05 5.05 0 0 1-2-.41 5 5 0 0 1-2.74-3l-15.52-45.92a5 5 0 0 1 2.7-6.16l28.85-12.86a5 5 0 0 1 6.82 3.16l13.45 46.53a5 5 0 0 1-2.71 5.92l-26.79 12.28a5 5 0 0 1-2.06.46Z"/><path class="cls-2" d="m1415.33 595.91 13.45 46.53-26.78 12.27-15.51-45.93 28.85-12.87m0-10a9.92 9.92 0 0 0-4.06.87l-28.86 12.86A10 10 0 0 0 1377 612l15.51 45.93a10 10 0 0 0 13.6 5.88l26.8-12.27a10 10 0 0 0 5.42-11.84l-13.45-46.53a10 10 0 0 0-9.58-7.21Z"/><path class="cls-14" d="M897.11 891a5.05 5.05 0 0 1-2-.41 5 5 0 0 1-2.75-3l-17.3-51.24a5 5 0 0 1 2.69-6.14L1142.84 712a5 5 0 0 1 6.76 3l16.4 48.38a5 5 0 0 1-2.65 6.14l-264.13 121a5 5 0 0 1-2.11.48Z"/><path class="cls-2" d="m1144.88 716.52 16.36 48.48-264.13 121-17.31-51.27 265.08-118.21m0-10a10 10 0 0 0-4.07.87L875.74 825.62a10 10 0 0 0-5.39 12.3l17.31 51.24a10 10 0 0 0 13.61 5.84l264.13-121a10 10 0 0 0 5.3-12.26l-16.37-48.47a10 10 0 0 0-9.45-6.78Z"/><path d="M1123 773.16c-15.84 18-41.07 25.55-62.94 33.45-28 10.09-55.5 19.91-80.89 35.67-8.79 5.46-17.9 11-25.76 17.91L1161.24 765l-16.36-48.46-16.52 7.37c5.55 16.88 7.9 34.18-5.36 49.25Z" style="fill:#ee7028"/><path d="M910 837.46c14.26-15.34 33.37-23.71 50.95-34.48 7.35-4.5 14.55-9.21 21.65-14.07l-102.8 45.82 14.75 43.64c.5-14.97 4.86-29.57 15.45-40.91Z" style="fill:#fccd87"/><path class="cls-14" d="M1324.53 695.18a5 5 0 0 1-4.73-3.4L1304 645a5 5 0 0 1 2.7-6.15l53-23.64a5 5 0 0 1 6.75 3l15.6 46.2a5 5 0 0 1-2.65 6.13l-52.82 24.19a5 5 0 0 1-2.05.45Z"/><path class="cls-2" d="m1361.76 619.8 15.59 46.2-52.82 24.2-15.78-46.74 53-23.65m0-10a9.85 9.85 0 0 0-4.06.87l-53 23.64a10 10 0 0 0-5.38 12.31l15.78 46.74a10 10 0 0 0 5.49 6 10.05 10.05 0 0 0 8.11-.09l52.83-24.2a10 10 0 0 0 5.29-12.26l-15.59-46.19a10 10 0 0 0-9.45-6.79Z"/><path class="cls-14" d="M1184.42 759.36a5.05 5.05 0 0 1-2-.41 5 5 0 0 1-2.75-3l-16.29-48.21a5 5 0 0 1 2.69-6.16l53-23.64a5 5 0 0 1 6.75 3l16.1 47.66a5 5 0 0 1-2.65 6.14l-52.82 24.19a5 5 0 0 1-2.03.43Z"/><path class="cls-2" d="m1221.14 682.51 16.1 47.66-52.82 24.2-16.3-48.22 53-23.64m0-10a10.12 10.12 0 0 0-4.07.86l-53 23.65a10 10 0 0 0-5.38 12.3l16.33 48.24a10 10 0 0 0 13.61 5.88l52.82-24.2a10 10 0 0 0 5.3-12.26l-16.1-47.67a10 10 0 0 0-9.45-6.78Z"/><path class="cls-14" d="M1261.87 723.88a5 5 0 0 1-4.73-3.4l-16-47.4a5 5 0 0 1 2.7-6.15l39.62-17.68a5 5 0 0 1 6.76 3l15.87 47a5 5 0 0 1-2.65 6.13L1264 723.43a5 5 0 0 1-2.13.45Z"/><path class="cls-2" d="m1285.5 653.81 15.86 47-39.49 18.09-16-47.41 39.63-17.67m0-10a9.93 9.93 0 0 0-4.07.87l-39.63 17.67a10 10 0 0 0-5.39 12.31l16 47.4a10 10 0 0 0 9.46 6.79 9.91 9.91 0 0 0 4.13-.86l39.49-18.09a10 10 0 0 0 5.29-12.26l-15.86-47a10 10 0 0 0-9.45-6.79Z"/><path class="cls-17" d="m778.82 879.77-24.72 11.01 15.5 53.59 26.88-12.32-17.66-52.28zM675.51 925.84l15.74 54.41 19.59-8.97-15.68-54.21-19.65 8.77z"/><path class="cls-17" d="m655.86 934.59 15.8 54.64 19.59-8.98-15.74-54.41-19.65 8.75zM614.99 952.82l15.92 55.07 21.17-9.69-15.86-54.84-21.23 9.46z"/><path class="cls-17" d="m636.22 943.36 15.86 54.84 19.58-8.97-15.8-54.64-19.64 8.77zM695.16 917.07l15.68 54.21 19.58-8.97-15.61-54-19.65 8.76zM734.45 899.55l15.56 53.79 19.59-8.97-15.5-53.59-19.65 8.77zM714.81 908.31l15.61 54 19.59-8.97-15.56-53.79-19.64 8.76z"/><path class="cls-4" d="m578.27 1107.2 92-46.08"/><path class="cls-2" d="m576 1102.74 94.24-41.62-89.77 50.54a5 5 0 1 1-4.9-8.7ZM1026.6 987.91s9.45-5.95 24.17-13.66c7.34-3.91 16-8.25 25.33-12.73 4.69-2.18 9.48-4.59 14.46-6.78l15-6.75 15.17-6.44c5-2.17 10-4 14.8-6 9.64-3.82 18.71-7.2 26.56-9.92 15.66-5.54 26.46-8.42 26.46-8.42s-9.45 5.95-24.17 13.67c-7.33 3.9-16 8.26-25.33 12.72-4.69 2.19-9.48 4.6-14.46 6.78l-15 6.75-15.18 6.43c-5 2.16-10 4-14.8 6-9.64 3.82-18.71 7.2-26.56 9.93-15.66 5.51-26.45 8.42-26.45 8.42ZM1000.57 919.19s9.46-6 24.17-13.66c7.34-3.91 16-8.26 25.33-12.73 4.7-2.19 9.49-4.59 14.47-6.78l15-6.75 15.18-6.44c5-2.18 10-4 14.8-6 9.63-3.83 18.7-7.2 26.56-9.92 15.66-5.55 26.45-8.43 26.45-8.43s-9.45 6-24.16 13.68c-7.34 3.9-16 8.26-25.34 12.72-4.69 2.19-9.48 4.6-14.46 6.78l-15 6.75-15.17 6.43c-5 2.16-10 4-14.81 6-9.63 3.81-18.7 7.19-26.56 9.92-15.67 5.54-26.46 8.43-26.46 8.43Z"/><path class="cls-4" d="m1044.06 1312.62 317.6-172.41"/><path class="cls-2" d="M1044.06 1312.62s4.75-3.08 13.19-8.26 20.46-12.61 35.08-21.19 31.69-18.54 50.13-29c9.24-5.16 18.72-10.63 28.49-15.94l29.53-16.24 29.7-15.93c9.78-5.3 19.53-10.26 28.9-15.2 18.77-9.8 36.4-18.76 51.59-26.27s28-13.52 36.88-17.87 14.11-6.55 14.11-6.55-4.75 3.08-13.18 8.26-20.45 12.62-35.07 21.2-31.7 18.54-50.14 28.95c-9.24 5.16-18.72 10.64-28.49 16l-29.54 16.23-29.7 15.92c-9.78 5.29-19.53 10.26-28.9 15.2-18.78 9.79-36.4 18.75-51.59 26.26s-28 13.54-36.88 17.87-14.11 6.56-14.11 6.56ZM793.35 1047.21c-.08 0 1.5-.53 4-1.21s6.1-1.62 10.44-2.46 9.41-1.62 14.87-2.2c2.73-.24 5.56-.45 8.44-.59s5.79-.23 8.71-.06 5.83.16 8.68.49a80.93 80.93 0 0 1 8.33 1.06 61.72 61.72 0 0 1 7.68 1.54 59 59 0 0 1 6.75 1.84l5.6 1.86 4.16 1.79 3.61 1.57-3.76-1.16-4.29-1.33-5.7-1.22a59.85 59.85 0 0 0-6.78-1.08 62.44 62.44 0 0 0-7.61-.67 73.07 73.07 0 0 0-8.14-.14c-2.76 0-5.57.21-8.38.44s-5.57.66-8.31 1-5.39.92-8 1.44c-5.13 1.11-9.86 2.33-13.83 3.61s-7.24 2.45-9.46 3.35-3.32 1.42-3.4 1.44a5 5 0 1 1-3.65-9.28ZM887.45 1372.91c.07 0-1.5.52-4 1.2s-6.11 1.62-10.44 2.46-9.42 1.62-14.88 2.2c-2.73.25-5.56.45-8.43.59s-5.79.23-8.72.05-5.82-.15-8.68-.49a73.72 73.72 0 0 1-8.33-1.06 106.72 106.72 0 0 1-14.43-3.37l-5.59-1.85-4.17-1.81-3.61-1.56 3.76 1.16 4.3 1.33 5.7 1.22a59.73 59.73 0 0 0 6.77 1.07 60.81 60.81 0 0 0 7.61.68 73.19 73.19 0 0 0 8.14.13c2.77 0 5.58-.21 8.38-.43s5.58-.66 8.31-1 5.4-.92 8-1.43c5.12-1.12 9.85-2.33 13.83-3.62s7.24-2.45 9.45-3.34 3.32-1.43 3.4-1.45a5 5 0 0 1 3.66 9.29ZM1398.88 766.33c-.09 0 1.28-.47 3.35-1a84.8 84.8 0 0 1 8.65-1.91 93.29 93.29 0 0 1 26.34-.84 77.36 77.36 0 0 1 13.69 2.69 54.29 54.29 0 0 1 6 2 39.88 39.88 0 0 1 5.24 2.21 57.09 57.09 0 0 1 7.44 4l2.74 1.64s-1.07-.45-2.93-1.26a56.44 56.44 0 0 0-7.82-2.92 36 36 0 0 0-5.34-1.45 54.09 54.09 0 0 0-6-1.15 73.83 73.83 0 0 0-13.24-.78 86.23 86.23 0 0 0-24.16 4 75.29 75.29 0 0 0-7.46 2.74c-1.77.75-2.51 1.17-2.61 1.21a5 5 0 1 1-3.89-9.19ZM1491.3 1056.15c.09 0-1.31.48-3.44 1.06s-5.2 1.35-8.9 2a100.05 100.05 0 0 1-27.15 1.14 87.32 87.32 0 0 1-14.18-2.52 54.57 54.57 0 0 1-6.29-1.94 38.2 38.2 0 0 1-5.45-2.17 57.76 57.76 0 0 1-7.79-4l-2.86-1.63 3 1.25a58.8 58.8 0 0 0 8.13 2.87 37.47 37.47 0 0 0 5.55 1.4 53.47 53.47 0 0 0 6.27 1.08 64.11 64.11 0 0 0 6.76.59 59.83 59.83 0 0 0 7 0c2.33 0 4.65-.28 6.93-.49s4.49-.66 6.63-1c2.12-.48 4.18-.81 6.1-1.36s3.72-1 5.36-1.51a80.69 80.69 0 0 0 7.75-2.83c1.83-.77 2.63-1.22 2.72-1.25a5 5 0 0 1 3.85 9.21ZM704 805s6.64-3.44 18.36-9.25S750.78 781.66 771 772s43.85-20.84 69.28-32.57l39.25-18 40.64-18.31 40.77-18c13.43-6 26.76-11.61 39.6-17.19 25.72-11.09 49.81-21.24 70.54-29.77s38.1-15.39 50.21-20.32 19.15-7.47 19.15-7.47-6.64 3.44-18.36 9.25-28.44 14.14-48.68 23.77-43.84 20.84-69.28 32.56c-12.73 5.82-25.83 12-39.25 18l-40.64 18.3-40.78 18-39.6 17.18c-25.72 11.08-49.81 21.24-70.53 29.77s-38.1 15.39-50.21 20.33S704 805 704 805ZM403 915.51l102.87-44-98.54 53a5 5 0 1 1-4.73-8.79ZM467.41 915.29l94.1-40.49-89.71 49.45a5 5 0 1 1-4.8-8.75 4.39 4.39 0 0 1 .41-.21ZM1426.9 488.54l-102.87 44 98.54-53a5 5 0 1 1 4.73 8.8ZM1328.23 493.82l-81.4 34.27 77-43.24a5 5 0 0 1 4.89 8.72Z"/><g style="mix-blend-mode:multiply"><path class="cls-19" d="M1147.23 377.5a12.18 12.18 0 0 0 23.39-6.77 11.88 11.88 0 0 0-2.13-4.12l-20 1.27a12.08 12.08 0 0 0-1.26 9.62ZM1110.55 376.1a11.53 11.53 0 1 0 14.29 7.87 11.52 11.52 0 0 0-14.29-7.87ZM1071.62 410.7a10.89 10.89 0 1 0-13.5-7.44 10.91 10.91 0 0 0 13.5 7.44ZM1013.56 416.14a10.25 10.25 0 1 0 9.91-13.05l-7.5 3.21a10.25 10.25 0 0 0-2.41 9.84ZM980.92 435.59a9.61 9.61 0 0 0 6.56-11.9 9.48 9.48 0 0 0-2.48-4.1l-16.33 7A9.91 9.91 0 0 0 969 429a9.62 9.62 0 0 0 11.92 6.59ZM935.57 448a8.94 8.94 0 0 0 6.33-10l-15.9 6.89a9 9 0 0 0 9.57 3.11ZM893.08 459l-3.9 1.68a7.34 7.34 0 0 0 1-.2 8.11 8.11 0 0 0 2.9-1.48ZM1166 398.62a12.18 12.18 0 1 0 15.08 8.32 12.18 12.18 0 0 0-15.08-8.32ZM1121 412.31a11.5 11.5 0 0 0-8 8.54l3.28 10.84a11.51 11.51 0 1 0 4.72-19.38ZM1076 426a10.88 10.88 0 0 0-7.83 11.1l18.73-8.09A10.84 10.84 0 0 0 1076 426ZM1043.73 446.66a10.25 10.25 0 1 0-18.12 8.83l18.29-7.91c-.06-.3-.08-.58-.17-.92ZM998 459.9a9.61 9.61 0 1 0-10.66 12.15l9.28-4a9.57 9.57 0 0 0 1.38-8.15ZM952.16 473.14a9 9 0 1 0-6.16 11.11 9 9 0 0 0 6.16-11.11ZM906.38 486.38a8.33 8.33 0 1 0-5.68 10.31 8.33 8.33 0 0 0 5.68-10.31ZM860.6 499.61a7.69 7.69 0 1 0-5.26 9.53 7.7 7.7 0 0 0 5.26-9.53ZM806.08 508a7 7 0 1 0 8.73 4.82 7 7 0 0 0-8.73-4.82ZM764.65 534a6.41 6.41 0 1 0-7.94-4.38 6.41 6.41 0 0 0 7.94 4.38ZM719.3 546.47a5.77 5.77 0 1 0-7.14-3.93 5.77 5.77 0 0 0 7.14 3.93ZM674 558.92a5.13 5.13 0 0 0 3.5-6.35 5.27 5.27 0 0 0-.39-1l-9.37 4a5.12 5.12 0 0 0 6.26 3.35ZM1176.48 434.84a12.17 12.17 0 1 0 15.07 8.31 12.16 12.16 0 0 0-15.07-8.31ZM1131.49 448.51a11.47 11.47 0 0 0-7.8 7.69l3.7 12.3a11.53 11.53 0 1 0 4.1-20ZM816.55 544.25a7 7 0 0 0-4.23 3.41l7.95-3.44a6.92 6.92 0 0 0-3.72.03ZM771.56 557.93a6.41 6.41 0 0 0-4.38 7.93 8.31 8.31 0 0 0 .45 1.11l11.71-5.06a6.38 6.38 0 0 0-7.78-3.98ZM729.77 582.68a5.77 5.77 0 1 0-7.14-3.94 5.77 5.77 0 0 0 7.14 3.94ZM687.93 588.78a5.13 5.13 0 1 0-3.51 6.34 5.13 5.13 0 0 0 3.51-6.34ZM642.14 602a4.49 4.49 0 1 0-3.06 5.55 4.48 4.48 0 0 0 3.06-5.55ZM596.36 615.26a3.85 3.85 0 1 0-2.63 4.76 3.86 3.86 0 0 0 2.63-4.76ZM546.6 626.31a3.2 3.2 0 1 0 4 2.19 3.21 3.21 0 0 0-4-2.19ZM501.61 640a2.57 2.57 0 1 0 3.18 1.75 2.57 2.57 0 0 0-3.18-1.75ZM1187 471a12.17 12.17 0 1 0 15.08 8.32A12.17 12.17 0 0 0 1187 471ZM1142 484.72a11.44 11.44 0 0 0-7.55 7l4 13.33a11.51 11.51 0 1 0 3.53-20.37ZM557.07 662.52a3.2 3.2 0 1 0 4 2.18 3.2 3.2 0 0 0-4-2.18ZM513.51 681.12a2.57 2.57 0 1 0-3.17-1.75 2.56 2.56 0 0 0 3.17 1.75ZM1341.7 492.71l-9.48.52a12.54 12.54 0 0 0 9.48-.52ZM1294.88 505.75a13.44 13.44 0 0 0 9.55-11l-26.29 1.43c0 .13 0 .25.07.38a13.47 13.47 0 0 0 16.67 9.19ZM1249.53 518.19a12.72 12.72 0 0 0 6-20.76l-16.33.89-4.88 2.32a12.75 12.75 0 0 0 15.19 17.55ZM1197.42 507.25a12.17 12.17 0 1 0 15.08 8.31 12.16 12.16 0 0 0-15.08-8.31ZM1152.43 520.93a11.38 11.38 0 0 0-7.29 6.43l4.14 13.73-.41.2a11.52 11.52 0 1 0 3.56-20.36ZM567.54 698.72a3.21 3.21 0 1 0 4 2.19 3.21 3.21 0 0 0-4-2.19ZM524 717.32a2.56 2.56 0 1 0-3.18-1.75 2.56 2.56 0 0 0 3.18 1.75ZM1477.1 491.93l-2-6.52-6 .33a16 16 0 0 0 8 6.19ZM1441.39 504.62a15.33 15.33 0 0 0 10.7-17.95l-30.25 1.65a15.33 15.33 0 0 0 19.55 16.3ZM1377.8 507a14.74 14.74 0 1 0 20.38-17.38l-13.88.76a14.68 14.68 0 0 0-6.5 16.62ZM1342.87 502.43a14.09 14.09 0 1 0 17.45 9.62 14.1 14.1 0 0 0-17.45-9.62ZM1297.87 516.11a13.46 13.46 0 1 0 16.66 9.18 13.44 13.44 0 0 0-16.66-9.18ZM1252.89 529.78a12.81 12.81 0 1 0 15.86 8.75 12.82 12.82 0 0 0-15.86-8.75ZM1207.89 543.45a12.18 12.18 0 1 0 15.07 8.32 12.17 12.17 0 0 0-15.07-8.32ZM1162.9 557.13a11.53 11.53 0 1 0 14.28 7.88 11.55 11.55 0 0 0-14.28-7.88ZM1117.91 570.81a10.89 10.89 0 1 0 13.48 7.44 10.88 10.88 0 0 0-13.48-7.44ZM1072.91 584.48a10.26 10.26 0 1 0 12.7 7 10.26 10.26 0 0 0-12.7-7ZM1021.36 610.06a9.61 9.61 0 1 0 8.63-12.24l-6.38 3a9.57 9.57 0 0 0-2.25 9.24ZM987.92 629.07a8.86 8.86 0 0 0 4.92-13.59l-16 7.6a9 9 0 0 0 11.08 5.99ZM942.57 641.52a8.26 8.26 0 0 0 5.27-4.64l-9.77 4.65a8.29 8.29 0 0 0 4.5-.01ZM578 734.93a3.21 3.21 0 1 0 4 2.19 3.2 3.2 0 0 0-4-2.19ZM534.45 753.53a2.56 2.56 0 1 0-3.18-1.75 2.57 2.57 0 0 0 3.18 1.75ZM1488.46 528.41l-8-25.69a16 16 0 0 0 8 25.69ZM1443.32 511.28a15.38 15.38 0 1 0 19 10.5 15.38 15.38 0 0 0-19-10.5ZM1398.33 525a14.73 14.73 0 1 0 18.25 10 14.73 14.73 0 0 0-18.25-10ZM1353.34 538.63a14.1 14.1 0 1 0 17.45 9.63 14.11 14.11 0 0 0-17.45-9.63ZM1308.34 552.31a13.46 13.46 0 1 0 16.66 9.19 13.46 13.46 0 0 0-16.66-9.19ZM1263.36 566a12.82 12.82 0 1 0 15.86 8.76 12.83 12.83 0 0 0-15.86-8.76ZM1218.36 579.66a12.17 12.17 0 1 0 15.08 8.32 12.18 12.18 0 0 0-15.08-8.32ZM1173.37 593.34a11.53 11.53 0 1 0 14.28 7.88 11.54 11.54 0 0 0-14.28-7.88ZM1128.38 607a10.89 10.89 0 1 0 13.49 7.44 10.88 10.88 0 0 0-13.49-7.44ZM1083.38 620.7a10.25 10.25 0 1 0 12.7 7 10.24 10.24 0 0 0-12.7-7ZM1038.39 634.37a9.61 9.61 0 1 0 11.91 6.57 9.62 9.62 0 0 0-11.91-6.57ZM993.41 648.05a9 9 0 1 0 11.1 6.13 9 9 0 0 0-11.1-6.13ZM948.41 661.73a8.33 8.33 0 1 0 10.32 5.68 8.32 8.32 0 0 0-10.32-5.68ZM903.42 675.4a7.69 7.69 0 1 0 9.52 5.25 7.69 7.69 0 0 0-9.52-5.25ZM858.43 689.08a7 7 0 1 0 8.73 4.81 7 7 0 0 0-8.73-4.81ZM813.44 702.76a6.4 6.4 0 1 0 7.93 4.37 6.39 6.39 0 0 0-7.93-4.37ZM771.65 727.51a5.76 5.76 0 0 0 3.94-7.14 5.66 5.66 0 0 0-.58-1.3L764.68 724a5.73 5.73 0 0 0 6.97 3.51ZM588.48 771.14a3.21 3.21 0 1 0 4 2.19 3.21 3.21 0 0 0-4-2.19ZM544.92 789.74a2.56 2.56 0 1 0-3.17-1.75 2.55 2.55 0 0 0 3.17 1.75ZM1499.82 564.85l-8.28-26.58a16 16 0 0 0 8.28 26.58ZM1453.79 547.49a15.38 15.38 0 1 0 19 10.5 15.37 15.37 0 0 0-19-10.5ZM1408.8 561.16a14.74 14.74 0 1 0 18.25 10.07 14.76 14.76 0 0 0-18.25-10.07ZM1363.81 574.84a14.09 14.09 0 1 0 17.45 9.62 14.1 14.1 0 0 0-17.45-9.62ZM1318.81 588.52a13.46 13.46 0 1 0 16.66 9.19 13.45 13.45 0 0 0-16.66-9.19ZM1273.82 602.19a12.81 12.81 0 1 0 15.88 8.81 12.82 12.82 0 0 0-15.88-8.81ZM1228.83 615.87a12.17 12.17 0 1 0 15.08 8.31 12.17 12.17 0 0 0-15.08-8.31ZM1183.84 629.55a11.53 11.53 0 1 0 14.28 7.88 11.53 11.53 0 0 0-14.28-7.88ZM1138.85 643.23a10.89 10.89 0 1 0 13.49 7.43 10.88 10.88 0 0 0-13.49-7.43ZM1093.85 656.9a10.26 10.26 0 1 0 12.7 7 10.25 10.25 0 0 0-12.7-7ZM1048.86 670.58a9.61 9.61 0 1 0 11.91 6.56 9.62 9.62 0 0 0-11.91-6.56ZM1003.88 684.25a9 9 0 1 0 11.1 6.13 9 9 0 0 0-11.1-6.13ZM958.89 697.93a8.33 8.33 0 1 0 10.31 5.69 8.32 8.32 0 0 0-10.31-5.69ZM913.89 711.61a7.69 7.69 0 1 0 9.52 5.25 7.69 7.69 0 0 0-9.52-5.25ZM868.9 725.29a7 7 0 1 0 8.73 4.81 7 7 0 0 0-8.73-4.81ZM823.91 739a6.41 6.41 0 1 0 7.94 4.38 6.41 6.41 0 0 0-7.94-4.38ZM778.92 752.64a5.77 5.77 0 1 0 7.14 3.94 5.77 5.77 0 0 0-7.14-3.94ZM733.93 766.32a5.12 5.12 0 1 0 6.35 3.5 5.11 5.11 0 0 0-6.35-3.5ZM688.93 780a4.49 4.49 0 1 0 5.56 3.06 4.5 4.5 0 0 0-5.56-3.06ZM644 793.67a3.84 3.84 0 1 0 4.76 2.62 3.85 3.85 0 0 0-4.76-2.62ZM599 807.35a3.2 3.2 0 1 0 4 2.19 3.18 3.18 0 0 0-4-2.19ZM555.39 826a2.57 2.57 0 1 0-3.18-1.75 2.57 2.57 0 0 0 3.18 1.75ZM1511.15 601.2l-8.53-27.36a16 16 0 0 0 8.53 27.36ZM1464.25 583.7a15.38 15.38 0 1 0 19 10.49 15.35 15.35 0 0 0-19-10.49ZM1419.27 597.37a14.73 14.73 0 1 0 18.25 10.06 14.74 14.74 0 0 0-18.25-10.06ZM1374.28 611.05a14.09 14.09 0 1 0 17.45 9.62 14.1 14.1 0 0 0-17.45-9.62ZM1329.28 624.72a13.46 13.46 0 1 0 16.66 9.19 13.48 13.48 0 0 0-16.66-9.19ZM1284.3 638.4a12.81 12.81 0 1 0 15.86 8.75 12.81 12.81 0 0 0-15.86-8.75ZM1239.3 652.07a12.18 12.18 0 1 0 15.08 8.32 12.18 12.18 0 0 0-15.08-8.32ZM1194.31 665.75a11.53 11.53 0 1 0 14.28 7.88 11.55 11.55 0 0 0-14.28-7.88ZM1149.32 679.43a10.89 10.89 0 1 0 13.48 7.44 10.88 10.88 0 0 0-13.48-7.44ZM1104.32 693.11a10.25 10.25 0 1 0 12.7 7 10.24 10.24 0 0 0-12.7-7ZM1059.33 706.79a9.61 9.61 0 1 0 11.91 6.55 9.6 9.6 0 0 0-11.91-6.55ZM1014.34 720.46a9 9 0 1 0 11.11 6.13 9 9 0 0 0-11.11-6.13ZM969.36 734.13a8.33 8.33 0 1 0 10.31 5.69 8.33 8.33 0 0 0-10.31-5.69ZM924.36 747.81a7.69 7.69 0 1 0 9.52 5.25 7.7 7.7 0 0 0-9.52-5.25ZM879.37 761.49a7 7 0 1 0 8.73 4.81 7.06 7.06 0 0 0-8.73-4.81ZM834.38 775.16a6.41 6.41 0 1 0 7.93 4.38 6.42 6.42 0 0 0-7.93-4.38ZM789.39 788.84a5.77 5.77 0 1 0 7.14 3.95 5.77 5.77 0 0 0-7.14-3.95ZM744.39 802.52a5.13 5.13 0 1 0 6.35 3.5 5.14 5.14 0 0 0-6.35-3.5ZM699.41 816.2a4.49 4.49 0 1 0 5.55 3.06 4.48 4.48 0 0 0-5.55-3.06ZM654.41 829.88a3.84 3.84 0 1 0 4.77 2.62 3.82 3.82 0 0 0-4.77-2.62ZM609.42 843.55a3.21 3.21 0 1 0 4 2.19 3.21 3.21 0 0 0-4-2.19ZM565.86 862.15a2.56 2.56 0 1 0-3.18-1.75 2.57 2.57 0 0 0 3.18 1.75ZM519.44 870.91a1.91 1.91 0 0 0-1.31 2.38 1.92 1.92 0 1 0 3.69-1.07 1.91 1.91 0 0 0-2.38-1.31ZM475.16 887a1.29 1.29 0 0 0 .88-1.59 1.29 1.29 0 1 0-.88 1.59ZM429.81 899.49a.63.63 0 0 0 .44-.79.64.64 0 1 0-.44.79ZM1522.48 637.54l-8.75-28.06a16 16 0 0 0 8.75 28.06ZM1474.73 619.9a15.38 15.38 0 1 0 19 10.5 15.38 15.38 0 0 0-19-10.5ZM1429.74 633.58a14.73 14.73 0 1 0 18.26 10.06 14.74 14.74 0 0 0-18.26-10.06ZM1384.74 647.25a14.1 14.1 0 1 0 17.46 9.63 14.1 14.1 0 0 0-17.46-9.63ZM1339.75 660.93a13.46 13.46 0 1 0 16.66 9.19 13.47 13.47 0 0 0-16.66-9.19ZM1294.77 674.61a12.81 12.81 0 1 0 15.86 8.75 12.82 12.82 0 0 0-15.86-8.75ZM1249.77 688.29a12.17 12.17 0 1 0 15.08 8.31 12.16 12.16 0 0 0-15.08-8.31ZM1204.78 702a11.53 11.53 0 1 0 14.28 7.88 11.53 11.53 0 0 0-14.28-7.88ZM1159.79 715.64a10.89 10.89 0 1 0 13.49 7.44 10.88 10.88 0 0 0-13.49-7.44ZM1114.79 729.32a10.25 10.25 0 1 0 12.7 7 10.25 10.25 0 0 0-12.7-7ZM1069.8 743a9.61 9.61 0 1 0 11.91 6.56 9.61 9.61 0 0 0-11.91-6.56ZM1024.82 756.67a9 9 0 1 0 11.1 6.12 9 9 0 0 0-11.1-6.12ZM979.82 770.34a8.33 8.33 0 1 0 10.32 5.66 8.33 8.33 0 0 0-10.32-5.66ZM934.83 784a7.69 7.69 0 1 0 9.52 5.25 7.69 7.69 0 0 0-9.52-5.25ZM889.84 797.7a7 7 0 1 0 8.73 4.81 7.06 7.06 0 0 0-8.73-4.81ZM844.85 811.38a6.41 6.41 0 1 0 7.93 4.37 6.39 6.39 0 0 0-7.93-4.37ZM799.86 825.05A5.77 5.77 0 1 0 807 829a5.77 5.77 0 0 0-7.14-3.95ZM754.86 838.73a5.13 5.13 0 1 0 6.35 3.5 5.14 5.14 0 0 0-6.35-3.5ZM709.87 852.41a4.48 4.48 0 1 0 5.56 3.06 4.49 4.49 0 0 0-5.56-3.06ZM664.89 866.08a3.85 3.85 0 1 0 4.75 2.63 3.84 3.84 0 0 0-4.75-2.63ZM619.89 879.76a3.2 3.2 0 1 0 4 2.19 3.21 3.21 0 0 0-4-2.19ZM576.33 898.36a2.56 2.56 0 1 0-3.18-1.75 2.55 2.55 0 0 0 3.18 1.75ZM531 910.8a1.9 1.9 0 0 0 1.31-2.37 1.92 1.92 0 1 0-1.31 2.37ZM485.63 923.25a1.28 1.28 0 1 0-1.59-.87 1.28 1.28 0 0 0 1.59.87ZM440.29 935.7a.65.65 0 1 0-.8-.44.64.64 0 0 0 .8.44ZM1533.77 673.8l-8.93-28.64a16 16 0 0 0 8.93 28.64ZM1485.2 656.11a15.37 15.37 0 1 0 19 10.5 15.37 15.37 0 0 0-19-10.5ZM1440.21 669.78a14.74 14.74 0 1 0 18.25 10.07 14.75 14.75 0 0 0-18.25-10.07ZM1395.21 683.46a14.1 14.1 0 1 0 17.46 9.63 14.09 14.09 0 0 0-17.46-9.63ZM1350.22 697.14a13.46 13.46 0 1 0 16.66 9.18 13.47 13.47 0 0 0-16.66-9.18ZM1305.23 710.82a12.81 12.81 0 1 0 15.88 8.74 12.8 12.8 0 0 0-15.88-8.74ZM1260.24 724.49a12.17 12.17 0 1 0 15.08 8.31 12.17 12.17 0 0 0-15.08-8.31ZM1215.25 738.17a11.53 11.53 0 1 0 14.29 7.87 11.53 11.53 0 0 0-14.29-7.87ZM1170.26 751.84a10.89 10.89 0 1 0 13.49 7.44 10.9 10.9 0 0 0-13.49-7.44ZM1125.26 765.52a10.25 10.25 0 1 0 12.7 7 10.25 10.25 0 0 0-12.7-7ZM1080.27 779.2a9.61 9.61 0 1 0 11.91 6.56 9.61 9.61 0 0 0-11.91-6.56ZM1035.29 792.88a9 9 0 1 0 11.1 6.12 9 9 0 0 0-11.1-6.12ZM990.3 806.55a8.33 8.33 0 1 0 10.31 5.69 8.33 8.33 0 0 0-10.31-5.69ZM945.3 820.23a7.69 7.69 0 1 0 9.52 5.25 7.69 7.69 0 0 0-9.52-5.25ZM900.31 833.91a7 7 0 1 0 8.73 4.81 7 7 0 0 0-8.73-4.81ZM855.32 847.58a6.41 6.41 0 1 0 7.93 4.38 6.41 6.41 0 0 0-7.93-4.38ZM810.33 861.26a5.77 5.77 0 1 0 7.14 3.94 5.76 5.76 0 0 0-7.14-3.94ZM765.33 874.94a5.12 5.12 0 1 0 6.35 3.5 5.12 5.12 0 0 0-6.35-3.5ZM720.34 888.61a4.49 4.49 0 1 0 5.56 3.07 4.49 4.49 0 0 0-5.56-3.07ZM675.36 902.29a3.84 3.84 0 1 0 4.76 2.62 3.85 3.85 0 0 0-4.76-2.62ZM630.36 916a3.2 3.2 0 1 0 4 2.18 3.18 3.18 0 0 0-4-2.18ZM586.8 934.57a2.57 2.57 0 1 0-3.18-1.75 2.57 2.57 0 0 0 3.18 1.75ZM541.45 947a1.92 1.92 0 1 0-1.07-3.69 1.92 1.92 0 0 0 1.07 3.69ZM496.1 959.46a1.29 1.29 0 1 0-1.58-.88 1.29 1.29 0 0 0 1.58.88ZM450.75 971.9a.64.64 0 1 0-.35-1.23.64.64 0 0 0-.44.79.63.63 0 0 0 .79.44ZM1545.05 710l-9.05-29.12a16 16 0 0 0 9.08 29.16ZM1495.66 692.31a15.38 15.38 0 1 0 19 10.5 15.38 15.38 0 0 0-19-10.5ZM1450.67 706a14.74 14.74 0 1 0 18.26 10.06 14.74 14.74 0 0 0-18.26-10.06ZM1405.68 719.67a14.09 14.09 0 1 0 17.46 9.62 14.1 14.1 0 0 0-17.46-9.62ZM1360.68 733.34a13.46 13.46 0 1 0 16.67 9.2 13.49 13.49 0 0 0-16.67-9.2ZM1315.71 747a12.81 12.81 0 1 0 15.86 8.75 12.8 12.8 0 0 0-15.86-8.75ZM1270.71 760.7a12.18 12.18 0 1 0 15.07 8.31 12.17 12.17 0 0 0-15.07-8.31ZM1225.71 774.38a11.53 11.53 0 1 0 14.29 7.87 11.53 11.53 0 0 0-14.29-7.87ZM1180.73 788.05a10.89 10.89 0 1 0 13.48 7.44 10.88 10.88 0 0 0-13.48-7.44ZM1135.73 801.73a10.25 10.25 0 1 0 12.7 7 10.25 10.25 0 0 0-12.7-7ZM1090.74 815.4a9.61 9.61 0 1 0 11.91 6.57 9.62 9.62 0 0 0-11.91-6.57ZM1045.75 829.08a9 9 0 1 0 11.11 6.13 9 9 0 0 0-11.11-6.13ZM1000.77 842.76a8.33 8.33 0 1 0 10.31 5.69 8.33 8.33 0 0 0-10.31-5.69ZM955.77 856.43a7.69 7.69 0 1 0 9.52 5.26 7.7 7.7 0 0 0-9.52-5.26ZM910.78 870.11a7 7 0 1 0 8.72 4.82 7.05 7.05 0 0 0-8.72-4.82ZM865.79 883.79a6.41 6.41 0 1 0 7.93 4.37 6.41 6.41 0 0 0-7.93-4.37ZM820.8 897.46a5.77 5.77 0 1 0 7.13 3.94 5.77 5.77 0 0 0-7.13-3.94ZM775.8 911.14a5.13 5.13 0 1 0 6.35 3.5 5.14 5.14 0 0 0-6.35-3.5ZM730.82 924.82a4.48 4.48 0 1 0 5.55 3.06 4.49 4.49 0 0 0-5.55-3.06ZM685.82 938.5a3.84 3.84 0 1 0 4.77 2.62 3.84 3.84 0 0 0-4.77-2.62ZM640.83 952.18a3.2 3.2 0 1 0 4 2.18 3.19 3.19 0 0 0-4-2.18ZM597.27 970.77a2.56 2.56 0 1 0-3.18-1.75 2.57 2.57 0 0 0 3.18 1.75ZM551.92 983.22a1.93 1.93 0 1 0-2.38-1.31 1.92 1.92 0 0 0 2.38 1.31ZM506.57 995.66a1.28 1.28 0 1 0-1.59-.87 1.28 1.28 0 0 0 1.59.87ZM461.22 1008.11a.64.64 0 0 0 .44-.79.63.63 0 0 0-.79-.44.64.64 0 0 0 .35 1.23ZM1556.33 746.22l-9.21-29.58a16 16 0 0 0 9.21 29.58ZM1506.14 728.52a15.38 15.38 0 1 0 19 10.5 15.37 15.37 0 0 0-19-10.5ZM1461.15 742.2a14.73 14.73 0 1 0 18.25 10.06 14.74 14.74 0 0 0-18.25-10.06ZM1416.15 755.88a14.09 14.09 0 1 0 17.46 9.62 14.09 14.09 0 0 0-17.46-9.62ZM1371.16 769.55a13.46 13.46 0 1 0 16.66 9.19 13.46 13.46 0 0 0-16.66-9.19ZM1326.18 783.23A12.81 12.81 0 1 0 1342 792a12.81 12.81 0 0 0-15.82-8.77ZM1281.18 796.91a12.17 12.17 0 1 0 15.07 8.3 12.16 12.16 0 0 0-15.07-8.3ZM1236.19 810.58a11.53 11.53 0 1 0 14.28 7.88 11.53 11.53 0 0 0-14.28-7.88ZM1191.2 824.26a10.89 10.89 0 1 0 13.49 7.44 10.89 10.89 0 0 0-13.49-7.44ZM1146.2 837.93a10.25 10.25 0 1 0 12.7 7 10.26 10.26 0 0 0-12.7-7ZM1101.21 851.61a9.61 9.61 0 1 0 11.91 6.56 9.61 9.61 0 0 0-11.91-6.56ZM1056.23 865.29a9 9 0 1 0 11.1 6.12 9 9 0 0 0-11.1-6.12ZM1011.23 879a8.33 8.33 0 1 0 10.32 5.69 8.33 8.33 0 0 0-10.32-5.69ZM966.24 892.64a7.69 7.69 0 1 0 9.52 5.25 7.69 7.69 0 0 0-9.52-5.25ZM921.25 906.32a7 7 0 1 0 8.73 4.81 7.06 7.06 0 0 0-8.73-4.81ZM876.25 920a6.4 6.4 0 1 0 7.94 4.37 6.39 6.39 0 0 0-7.94-4.37ZM831.27 933.67a5.77 5.77 0 1 0 7.14 3.94 5.77 5.77 0 0 0-7.14-3.94ZM786.27 947.35a5.13 5.13 0 1 0 6.35 3.5 5.13 5.13 0 0 0-6.35-3.5ZM741.29 961a4.48 4.48 0 1 0 5.55 3.07 4.5 4.5 0 0 0-5.55-3.07ZM696.29 974.71a3.84 3.84 0 1 0 4.76 2.62 3.83 3.83 0 0 0-4.76-2.62ZM651.3 988.38a3.21 3.21 0 1 0 4 2.19 3.21 3.21 0 0 0-4-2.19ZM607.73 1007a2.56 2.56 0 1 0-3.17-1.75 2.55 2.55 0 0 0 3.17 1.75ZM562.39 1019.43a1.93 1.93 0 1 0-2.38-1.32 1.93 1.93 0 0 0 2.38 1.32ZM517 1031.88a1.28 1.28 0 0 0 .87-1.59 1.27 1.27 0 0 0-1.58-.88 1.29 1.29 0 0 0 .71 2.47ZM471.7 1044.32a.64.64 0 0 0 .43-.8.64.64 0 0 0-1.23.36.65.65 0 0 0 .8.44ZM1567.59 782.38l-9.32-29.93a16 16 0 0 0 9.32 29.93ZM1516.6 764.73a15.37 15.37 0 1 0 19.05 10.5 15.38 15.38 0 0 0-19.05-10.5ZM1471.61 778.41a14.74 14.74 0 1 0 18.26 10.06 14.74 14.74 0 0 0-18.26-10.06ZM1426.62 792.09a14.09 14.09 0 1 0 17.46 9.62 14.08 14.08 0 0 0-17.46-9.62ZM1381.62 805.76a13.46 13.46 0 1 0 16.67 9.19 13.47 13.47 0 0 0-16.67-9.19ZM1336.64 819.44a12.81 12.81 0 1 0 15.87 8.75 12.81 12.81 0 0 0-15.87-8.75ZM1291.65 833.11a12.17 12.17 0 1 0 15.07 8.32 12.17 12.17 0 0 0-15.07-8.32ZM1246.66 846.79a11.53 11.53 0 1 0 14.29 7.88 11.54 11.54 0 0 0-14.29-7.88ZM1201.67 860.47a10.89 10.89 0 1 0 13.49 7.44 10.89 10.89 0 0 0-13.49-7.44ZM1156.67 874.15a10.25 10.25 0 1 0 12.7 7 10.24 10.24 0 0 0-12.7-7ZM1111.68 887.82a9.61 9.61 0 1 0 11.91 6.57 9.61 9.61 0 0 0-11.91-6.57ZM1066.7 901.5a9 9 0 1 0 11.1 6.12 9 9 0 0 0-11.1-6.12ZM1021.7 915.17a8.33 8.33 0 1 0 10.32 5.69 8.32 8.32 0 0 0-10.32-5.69ZM976.71 928.85a7.69 7.69 0 1 0 9.52 5.25 7.7 7.7 0 0 0-9.52-5.25ZM931.72 942.53a7 7 0 1 0 8.73 4.81 7 7 0 0 0-8.73-4.81ZM886.73 956.2a6.41 6.41 0 1 0 7.93 4.38 6.42 6.42 0 0 0-7.93-4.38ZM841.74 969.88a5.77 5.77 0 1 0 7.14 3.94 5.76 5.76 0 0 0-7.14-3.94ZM796.74 983.56a5.13 5.13 0 1 0 6.35 3.5 5.11 5.11 0 0 0-6.35-3.5ZM751.75 997.23a4.49 4.49 0 1 0 5.56 3.07 4.5 4.5 0 0 0-5.56-3.07ZM706.76 1010.91a3.85 3.85 0 1 0 4.77 2.63 3.85 3.85 0 0 0-4.77-2.63ZM661.77 1024.59a3.21 3.21 0 1 0 4 2.19 3.19 3.19 0 0 0-4-2.19ZM618.2 1043.19a2.56 2.56 0 1 0-3.17-1.75 2.58 2.58 0 0 0 3.17 1.75ZM572.86 1055.64a1.93 1.93 0 1 0-2.38-1.32 1.93 1.93 0 0 0 2.38 1.32ZM527.51 1068.08a1.29 1.29 0 0 0 .88-1.59 1.29 1.29 0 1 0-.88 1.59ZM482.16 1080.53a.64.64 0 1 0-.79-.44.64.64 0 0 0 .79.44ZM1578.85 818.48l-9.41-30.19a16 16 0 0 0 9.41 30.19ZM1527.07 800.94a15.37 15.37 0 1 0 19 10.5 15.36 15.36 0 0 0-19-10.5ZM1482.08 814.61a14.74 14.74 0 1 0 18.26 10.07 14.75 14.75 0 0 0-18.26-10.07ZM1437.09 828.29a14.1 14.1 0 1 0 17.46 9.62 14.11 14.11 0 0 0-17.46-9.62ZM1392.09 842a13.46 13.46 0 1 0 16.67 9.2 13.47 13.47 0 0 0-16.67-9.2ZM1347.12 855.64a12.81 12.81 0 1 0 15.86 8.75 12.83 12.83 0 0 0-15.86-8.75ZM1302.12 869.32a12.17 12.17 0 1 0 15.07 8.32 12.18 12.18 0 0 0-15.07-8.32ZM1257.13 883a11.53 11.53 0 1 0 14.28 7.87 11.53 11.53 0 0 0-14.28-7.87ZM1212.14 896.68a10.89 10.89 0 1 0 13.48 7.43 10.89 10.89 0 0 0-13.48-7.43ZM1167.14 910.35a10.25 10.25 0 1 0 12.7 7 10.26 10.26 0 0 0-12.7-7ZM1122.15 924a9.61 9.61 0 1 0 11.9 6.56 9.61 9.61 0 0 0-11.9-6.56ZM1077.16 937.71a9 9 0 1 0 11.11 6.12 9 9 0 0 0-11.11-6.12ZM1032.17 951.38a8.33 8.33 0 1 0 10.32 5.69 8.33 8.33 0 0 0-10.32-5.69ZM987.18 965.06a7.69 7.69 0 1 0 9.52 5.24 7.69 7.69 0 0 0-9.52-5.24ZM942.19 978.73a7 7 0 1 0 8.73 4.81 7.06 7.06 0 0 0-8.73-4.81ZM897.2 992.41a6.41 6.41 0 1 0 7.93 4.38 6.42 6.42 0 0 0-7.93-4.38ZM852.21 1006.09a5.77 5.77 0 1 0 7.14 3.93 5.76 5.76 0 0 0-7.14-3.93ZM807.21 1019.77a5.12 5.12 0 1 0 6.35 3.5 5.13 5.13 0 0 0-6.35-3.5ZM762.23 1033.45a4.48 4.48 0 1 0 5.55 3 4.48 4.48 0 0 0-5.55-3ZM717.23 1047.12a3.84 3.84 0 1 0 4.77 2.63 3.85 3.85 0 0 0-4.77-2.63ZM672.24 1060.8a3.2 3.2 0 1 0 4 2.18 3.2 3.2 0 0 0-4-2.18ZM628.67 1079.4a2.57 2.57 0 1 0-3.17-1.76 2.57 2.57 0 0 0 3.17 1.76ZM583.33 1091.84a1.92 1.92 0 1 0-2.38-1.31 1.92 1.92 0 0 0 2.38 1.31ZM538 1104.29a1.29 1.29 0 0 0 .88-1.59 1.29 1.29 0 0 0-2.47.71 1.29 1.29 0 0 0 1.59.88ZM492.63 1116.73a.63.63 0 0 0 .44-.79.64.64 0 0 0-1.23.35.63.63 0 0 0 .79.44ZM1590.09 854.56l-9.47-30.39a16 16 0 0 0 9.47 30.39ZM1537.54 837.14a15.38 15.38 0 1 0 19 10.5 15.38 15.38 0 0 0-19-10.5ZM1492.55 850.82a14.74 14.74 0 1 0 18.26 10.06 14.74 14.74 0 0 0-18.26-10.06ZM1447.56 864.5a14.09 14.09 0 1 0 17.46 9.62 14.09 14.09 0 0 0-17.46-9.62ZM1402.57 878.17a13.45 13.45 0 1 0 16.66 9.19 13.48 13.48 0 0 0-16.66-9.19ZM1357.59 891.85a12.81 12.81 0 1 0 15.86 8.75 12.81 12.81 0 0 0-15.86-8.75ZM1312.59 905.53a12.17 12.17 0 1 0 15.07 8.31 12.16 12.16 0 0 0-15.07-8.31ZM1267.59 919.2a11.53 11.53 0 1 0 14.29 7.88 11.54 11.54 0 0 0-14.29-7.88ZM1222.61 932.88a10.89 10.89 0 1 0 13.49 7.44 10.89 10.89 0 0 0-13.49-7.44ZM1177.61 946.56a10.25 10.25 0 1 0 12.7 7 10.25 10.25 0 0 0-12.7-7ZM1132.62 960.23a9.61 9.61 0 1 0 11.91 6.57 9.62 9.62 0 0 0-11.91-6.57ZM1087.63 973.91a9 9 0 1 0 11.11 6.13 9 9 0 0 0-11.11-6.13ZM1042.64 987.59a8.33 8.33 0 1 0 10.32 5.68 8.31 8.31 0 0 0-10.32-5.68ZM997.65 1001.26a7.69 7.69 0 1 0 9.52 5.26 7.7 7.7 0 0 0-9.52-5.26ZM952.66 1014.94a7 7 0 1 0 8.73 4.81 7 7 0 0 0-8.73-4.81ZM907.66 1028.62a6.41 6.41 0 1 0 7.94 4.37 6.41 6.41 0 0 0-7.94-4.37ZM862.68 1042.3a5.76 5.76 0 1 0 7.14 3.93 5.76 5.76 0 0 0-7.14-3.93ZM817.68 1056a5.13 5.13 0 1 0 6.35 3.51 5.11 5.11 0 0 0-6.35-3.51ZM772.7 1069.65a4.48 4.48 0 1 0 5.55 3.06 4.48 4.48 0 0 0-5.55-3.06ZM727.7 1083.32a3.85 3.85 0 1 0 4.76 2.63 3.86 3.86 0 0 0-4.76-2.63ZM682.71 1097a3.2 3.2 0 1 0 4 2.19 3.21 3.21 0 0 0-4-2.19ZM639.14 1115.6a2.56 2.56 0 1 0-3.17-1.75 2.55 2.55 0 0 0 3.17 1.75ZM593.8 1128.05a1.93 1.93 0 0 0-1.07-3.7 1.93 1.93 0 1 0 1.07 3.7ZM548.45 1140.49a1.27 1.27 0 0 0 .87-1.59 1.28 1.28 0 1 0-.87 1.59ZM503.11 1152.94a.64.64 0 0 0 .43-.79.64.64 0 1 0-1.23.35.64.64 0 0 0 .8.44ZM1601.31 890.59l-9.5-30.5a16 16 0 0 0 9.5 30.5ZM1548 873.35a15.37 15.37 0 1 0 19 10.5 15.37 15.37 0 0 0-19-10.5ZM1503 887a14.74 14.74 0 1 0 18.26 10.06A14.73 14.73 0 0 0 1503 887ZM1458 900.7a14.1 14.1 0 1 0 17.45 9.63 14.09 14.09 0 0 0-17.45-9.63ZM1413 914.38a13.46 13.46 0 1 0 16.66 9.19 13.47 13.47 0 0 0-16.66-9.19ZM1368.05 928.05a12.82 12.82 0 1 0 15.87 8.75 12.84 12.84 0 0 0-15.87-8.75ZM1323.06 941.73a12.17 12.17 0 1 0 15.07 8.32 12.17 12.17 0 0 0-15.07-8.32ZM1278.06 955.41a11.53 11.53 0 1 0 14.3 7.88 11.53 11.53 0 0 0-14.3-7.88ZM1233.07 969.09a10.89 10.89 0 1 0 13.5 7.44 10.89 10.89 0 0 0-13.5-7.44ZM1188.08 982.77a10.25 10.25 0 1 0 12.7 7 10.24 10.24 0 0 0-12.7-7ZM1143.09 996.44A9.61 9.61 0 1 0 1155 1003a9.61 9.61 0 0 0-11.91-6.56ZM1098.1 1010.11a9 9 0 1 0 11.11 6.13 9 9 0 0 0-11.11-6.13ZM1053.11 1023.79a8.33 8.33 0 1 0 10.32 5.69 8.32 8.32 0 0 0-10.32-5.69ZM1008.11 1037.47a7.69 7.69 0 1 0 9.53 5.25 7.7 7.7 0 0 0-9.53-5.25ZM963.13 1051.14a7.05 7.05 0 1 0 8.73 4.82 7.05 7.05 0 0 0-8.73-4.82ZM918.14 1064.82a6.41 6.41 0 1 0 7.93 4.38 6.41 6.41 0 0 0-7.93-4.38ZM873.15 1078.5a5.77 5.77 0 1 0 7.14 3.94 5.76 5.76 0 0 0-7.14-3.94ZM828.15 1092.18a5.13 5.13 0 1 0 6.35 3.5 5.11 5.11 0 0 0-6.35-3.5ZM783.16 1105.85a4.49 4.49 0 1 0 5.56 3.07 4.49 4.49 0 0 0-5.56-3.07ZM738.17 1119.53a3.84 3.84 0 1 0 4.76 2.62 3.85 3.85 0 0 0-4.76-2.62ZM693.18 1133.21a3.2 3.2 0 1 0 4 2.18 3.19 3.19 0 0 0-4-2.18ZM649.61 1151.81a2.57 2.57 0 1 0-3.17-1.76 2.58 2.58 0 0 0 3.17 1.76ZM604.26 1164.25a1.92 1.92 0 1 0-2.37-1.31 1.9 1.9 0 0 0 2.37 1.31ZM558.92 1176.7a1.28 1.28 0 1 0-1.59-.88 1.27 1.27 0 0 0 1.59.88ZM513.57 1189.14a.63.63 0 0 0 .44-.78.64.64 0 1 0-1.23.35.62.62 0 0 0 .79.43ZM1592.54 915.72a16 16 0 0 0 19.83 10.94h.16L1603 896a16 16 0 0 0-10.46 19.72ZM1558.48 909.56a15.37 15.37 0 1 0 19 10.49 15.36 15.36 0 0 0-19-10.49ZM1513.49 923.23a14.74 14.74 0 1 0 18.26 10.07 14.74 14.74 0 0 0-18.26-10.07ZM1468.5 936.91a14.1 14.1 0 1 0 17.46 9.63 14.1 14.1 0 0 0-17.46-9.63ZM1423.5 950.59a13.46 13.46 0 1 0 16.67 9.19 13.46 13.46 0 0 0-16.67-9.19ZM1378.53 964.27a12.81 12.81 0 1 0 15.86 8.75 12.8 12.8 0 0 0-15.86-8.75ZM1333.53 977.94a12.17 12.17 0 1 0 15.07 8.31 12.18 12.18 0 0 0-15.07-8.31ZM1288.54 991.62a11.53 11.53 0 1 0 14.28 7.88 11.53 11.53 0 0 0-14.28-7.88ZM1243.55 1005.3a10.89 10.89 0 1 0 13.49 7.43 10.88 10.88 0 0 0-13.49-7.43ZM1198.55 1019a10.25 10.25 0 1 0 12.7 7 10.25 10.25 0 0 0-12.7-7ZM1153.56 1032.65a9.61 9.61 0 1 0 11.9 6.56 9.61 9.61 0 0 0-11.9-6.56ZM1108.57 1046.32a9 9 0 1 0 11.11 6.13 9 9 0 0 0-11.11-6.13ZM1063.58 1060a8.33 8.33 0 1 0 10.32 5.69 8.33 8.33 0 0 0-10.32-5.69ZM1018.58 1073.68a7.69 7.69 0 1 0 9.53 5.25 7.7 7.7 0 0 0-9.53-5.25ZM973.6 1087.36a7 7 0 1 0 8.72 4.81 7 7 0 0 0-8.72-4.81ZM928.61 1101a6.41 6.41 0 1 0 7.93 4.38 6.42 6.42 0 0 0-7.93-4.38ZM883.62 1114.71a5.77 5.77 0 1 0 7.13 3.93 5.76 5.76 0 0 0-7.13-3.93ZM838.62 1128.39a5.13 5.13 0 1 0 6.35 3.49 5.14 5.14 0 0 0-6.35-3.49ZM793.64 1142.06a4.48 4.48 0 1 0 5.55 3.07 4.49 4.49 0 0 0-5.55-3.07ZM748.64 1155.74a3.85 3.85 0 1 0 4.76 2.62 3.85 3.85 0 0 0-4.76-2.62ZM703.65 1169.42a3.2 3.2 0 1 0 4 2.18 3.2 3.2 0 0 0-4-2.18ZM660.08 1188a2.57 2.57 0 1 0-3.17-1.75 2.56 2.56 0 0 0 3.17 1.75ZM614.74 1200.46a1.92 1.92 0 1 0-2.38-1.31 1.91 1.91 0 0 0 2.38 1.31ZM569.39 1212.91a1.29 1.29 0 0 0 .88-1.59 1.29 1.29 0 1 0-.88 1.59ZM524 1225.36a.64.64 0 0 0-.35-1.24.63.63 0 0 0-.44.79.64.64 0 0 0 .79.45ZM1613.94 932.09a16 16 0 1 0 8.9 30.77c.3-.09.59-.2.89-.31l-9.51-30.55ZM1569 945.77a15.37 15.37 0 1 0 19 10.5 15.35 15.35 0 0 0-19-10.5ZM1524 959.44a14.74 14.74 0 1 0 18.26 10.06 14.73 14.73 0 0 0-18.26-10.06ZM1479 973.12a14.09 14.09 0 1 0 17.46 9.63 14.1 14.1 0 0 0-17.46-9.63ZM1434 986.8a13.45 13.45 0 1 0 16.66 9.18 13.46 13.46 0 0 0-16.66-9.18ZM1389 1000.47a12.81 12.81 0 1 0 15.86 8.75 12.82 12.82 0 0 0-15.86-8.75ZM1344 1014.14a12.18 12.18 0 1 0 15.07 8.32 12.18 12.18 0 0 0-15.07-8.32ZM1299 1027.82a11.53 11.53 0 1 0 14.29 7.88 11.54 11.54 0 0 0-14.29-7.88ZM1254 1041.5a10.89 10.89 0 1 0 13.48 7.44 10.89 10.89 0 0 0-13.48-7.44ZM1209 1055.18a10.25 10.25 0 1 0 12.69 7 10.25 10.25 0 0 0-12.69-7ZM1164 1068.86a9.61 9.61 0 1 0 11.91 6.56 9.61 9.61 0 0 0-11.91-6.56ZM1119 1082.53a9 9 0 1 0 11.11 6.13 9 9 0 0 0-11.11-6.13ZM1074.05 1096.21a8.33 8.33 0 1 0 10.32 5.68 8.32 8.32 0 0 0-10.32-5.68ZM1029.05 1109.89a7.69 7.69 0 1 0 9.53 5.24 7.69 7.69 0 0 0-9.53-5.24ZM984.07 1123.56a7 7 0 1 0 8.73 4.81 7.06 7.06 0 0 0-8.73-4.81ZM939.07 1137.24a6.41 6.41 0 1 0 7.94 4.37 6.41 6.41 0 0 0-7.94-4.37ZM894.08 1150.91a5.77 5.77 0 1 0 7.15 3.94 5.79 5.79 0 0 0-7.15-3.94ZM849.09 1164.59a5.13 5.13 0 1 0 6.35 3.5 5.11 5.11 0 0 0-6.35-3.5ZM804.1 1178.27a4.48 4.48 0 1 0 5.56 3.06 4.49 4.49 0 0 0-5.56-3.06ZM759.11 1192a3.84 3.84 0 1 0 4.76 2.62 3.84 3.84 0 0 0-4.76-2.62ZM714.12 1205.63a3.2 3.2 0 1 0 4 2.18 3.19 3.19 0 0 0-4-2.18ZM670.55 1224.22a2.56 2.56 0 1 0-3.17-1.74 2.55 2.55 0 0 0 3.17 1.74ZM625.2 1236.67a1.92 1.92 0 0 0-1.06-3.7 2 2 0 0 0-1.32 2.39 1.93 1.93 0 0 0 2.38 1.31ZM579.86 1249.11a1.28 1.28 0 0 0-.71-2.46 1.28 1.28 0 1 0 .71 2.46ZM534.51 1261.56a.64.64 0 1 0-.36-1.23.64.64 0 1 0 .36 1.23ZM1624.41 968.29a16 16 0 0 0 8.9 30.78c.56-.16 1.1-.36 1.62-.56l-9.49-30.46ZM1579.42 982a15.37 15.37 0 1 0 19 10.49 15.35 15.35 0 0 0-19-10.49ZM1534.43 995.64a14.74 14.74 0 1 0 18.26 10.07 14.75 14.75 0 0 0-18.26-10.07ZM1489.45 1009.32a14.1 14.1 0 1 0 17.45 9.63 14.09 14.09 0 0 0-17.45-9.63ZM1444.45 1023a13.46 13.46 0 1 0 16.66 9.19 13.45 13.45 0 0 0-16.66-9.19ZM1399.46 1036.68a12.81 12.81 0 1 0 15.87 8.75 12.82 12.82 0 0 0-15.87-8.75ZM1354.47 1050.36a12.17 12.17 0 1 0 15.07 8.31 12.16 12.16 0 0 0-15.07-8.31ZM1309.47 1064a11.53 11.53 0 1 0 14.28 7.87 11.54 11.54 0 0 0-14.28-7.87ZM1264.48 1077.71a10.89 10.89 0 1 0 13.5 7.43 10.9 10.9 0 0 0-13.5-7.43ZM1219.49 1091.38a10.26 10.26 0 1 0 12.69 7 10.26 10.26 0 0 0-12.69-7ZM1174.5 1105.06a9.61 9.61 0 1 0 11.91 6.57 9.61 9.61 0 0 0-11.91-6.57ZM1129.51 1118.74a9 9 0 1 0 11.11 6.12 9 9 0 0 0-11.11-6.12ZM1084.52 1132.41a8.33 8.33 0 1 0 10.32 5.69 8.32 8.32 0 0 0-10.32-5.69ZM1039.52 1146.09a7.69 7.69 0 1 0 9.53 5.25 7.69 7.69 0 0 0-9.53-5.25ZM994.54 1159.77a7 7 0 1 0 8.73 4.81 7 7 0 0 0-8.73-4.81ZM949.55 1173.45a6.4 6.4 0 1 0 7.93 4.37 6.4 6.4 0 0 0-7.93-4.37ZM904.55 1187.13a5.76 5.76 0 1 0 7.15 3.93 5.75 5.75 0 0 0-7.15-3.93ZM859.56 1200.8a5.12 5.12 0 1 0 6.35 3.5 5.12 5.12 0 0 0-6.35-3.5ZM814.57 1214.48a4.48 4.48 0 1 0 5.56 3.06 4.48 4.48 0 0 0-5.56-3.06ZM769.58 1228.15a3.85 3.85 0 1 0 4.76 2.63 3.84 3.84 0 0 0-4.76-2.63ZM724.59 1241.83a3.2 3.2 0 1 0 4 2.19 3.2 3.2 0 0 0-4-2.19ZM681 1260.43a2.56 2.56 0 1 0-3.17-1.75 2.56 2.56 0 0 0 3.17 1.75ZM635.67 1272.88a1.92 1.92 0 1 0-2.37-1.32 1.92 1.92 0 0 0 2.37 1.32ZM590.32 1285.32a1.28 1.28 0 1 0-1.58-.87 1.27 1.27 0 0 0 1.58.87ZM545 1297.77a.64.64 0 1 0-.36-1.23.63.63 0 0 0-.43.79.64.64 0 0 0 .79.44ZM1623.94 1024.34a16 16 0 0 0 19.84 10.94 15.42 15.42 0 0 0 2.33-.9l-9.43-30.28a16.6 16.6 0 0 0-1.8.4 16 16 0 0 0-10.94 19.84ZM1589.89 1018.18a15.37 15.37 0 1 0 19 10.5 15.37 15.37 0 0 0-19-10.5ZM1544.9 1031.85a14.74 14.74 0 1 0 18.26 10.07 14.75 14.75 0 0 0-18.26-10.07ZM1499.91 1045.53a14.09 14.09 0 1 0 17.46 9.63 14.11 14.11 0 0 0-17.46-9.63ZM1454.91 1059.21a13.46 13.46 0 1 0 16.67 9.18 13.47 13.47 0 0 0-16.67-9.18ZM1409.93 1072.88a12.82 12.82 0 1 0 15.87 8.75 12.82 12.82 0 0 0-15.87-8.75ZM1364.94 1086.56a12.17 12.17 0 1 0 15.07 8.32 12.18 12.18 0 0 0-15.07-8.32ZM1319.94 1100.24a11.53 11.53 0 1 0 14.29 7.87 11.54 11.54 0 0 0-14.29-7.87ZM1275 1113.91a10.9 10.9 0 1 0 13.48 7.45 10.9 10.9 0 0 0-13.48-7.45ZM1230 1127.6a10.25 10.25 0 1 0 12.69 7 10.23 10.23 0 0 0-12.69-7ZM1185 1141.27a9.61 9.61 0 1 0 11.91 6.57 9.61 9.61 0 0 0-11.91-6.57ZM1140 1155a9 9 0 1 0 11.11 6.12A9 9 0 0 0 1140 1155ZM1095 1168.62a8.33 8.33 0 1 0 10.32 5.69 8.33 8.33 0 0 0-10.32-5.69ZM1050 1182.3a7.69 7.69 0 1 0 9.53 5.25 7.68 7.68 0 0 0-9.53-5.25ZM1005 1196a7 7 0 1 0 8.73 4.81 7 7 0 0 0-8.73-4.81ZM960 1209.65a6.41 6.41 0 1 0 8 4.35 6.42 6.42 0 0 0-8-4.35ZM915 1223.33a5.77 5.77 0 1 0 7.14 3.94 5.76 5.76 0 0 0-7.14-3.94ZM870 1237a5.13 5.13 0 1 0 6.34 3.5 5.12 5.12 0 0 0-6.34-3.5ZM825 1250.68a4.49 4.49 0 1 0 5.55 3.06 4.49 4.49 0 0 0-5.55-3.06ZM780.05 1264.36a3.84 3.84 0 1 0 4.76 2.62 3.84 3.84 0 0 0-4.76-2.62ZM735.06 1278a3.2 3.2 0 1 0 4 2.18 3.2 3.2 0 0 0-4-2.18ZM691.49 1296.64a2.57 2.57 0 1 0-3.17-1.76 2.56 2.56 0 0 0 3.17 1.76ZM646.14 1309.08a1.92 1.92 0 1 0-2.37-1.31 1.9 1.9 0 0 0 2.37 1.31ZM600.79 1321.53a1.28 1.28 0 1 0-1.58-.88 1.28 1.28 0 0 0 1.58.88ZM555.45 1334a.64.64 0 0 0 .44-.79.63.63 0 0 0-.8-.43.64.64 0 0 0 .36 1.22ZM1589.74 1065.63l20.28-10.82a15.2 15.2 0 0 0-20.28 10.82ZM1555.37 1068.06a14.74 14.74 0 0 0-10.06 18.25 15.82 15.82 0 0 0 1 2.51l26-13.86a14.73 14.73 0 0 0-16.94-6.9ZM1510.38 1081.74a14.06 14.06 0 0 0-.9 26.74l18.44-9.84a14 14 0 0 0-.08-7.28 14.1 14.1 0 0 0-17.46-9.62ZM1472.86 1121.27a13.45 13.45 0 1 0-16.66-9.19 13.46 13.46 0 0 0 16.66 9.19ZM1427.52 1133.71a12.81 12.81 0 1 0-15.88-8.75 12.81 12.81 0 0 0 15.88 8.75ZM1375.41 1122.77a12.17 12.17 0 1 0 15.07 8.32 12.17 12.17 0 0 0-15.07-8.32ZM1330.41 1136.45a11.53 11.53 0 1 0 14.29 7.87 11.53 11.53 0 0 0-14.29-7.87ZM1285.43 1150.13a10.89 10.89 0 1 0 13.48 7.43 10.88 10.88 0 0 0-13.48-7.43ZM1240.43 1163.8a10.25 10.25 0 1 0 12.69 7 10.25 10.25 0 0 0-12.69-7ZM1195.44 1177.48a9.61 9.61 0 1 0 11.91 6.56 9.61 9.61 0 0 0-11.91-6.56ZM1150.45 1191.15a9 9 0 1 0 11.11 6.13 9 9 0 0 0-11.11-6.13ZM1105.46 1204.83a8.33 8.33 0 1 0 10.32 5.69 8.32 8.32 0 0 0-10.32-5.69ZM1060.46 1218.5a7.69 7.69 0 1 0 9.53 5.26 7.7 7.7 0 0 0-9.53-5.26ZM1015.48 1232.18a7 7 0 1 0 8.72 4.82 7 7 0 0 0-8.72-4.82ZM970.48 1245.86a6.41 6.41 0 1 0 7.94 4.37 6.41 6.41 0 0 0-7.94-4.37ZM925.49 1259.54a5.77 5.77 0 1 0 7.15 3.94 5.78 5.78 0 0 0-7.15-3.94ZM880.5 1273.21a5.13 5.13 0 1 0 6.35 3.5 5.13 5.13 0 0 0-6.35-3.5ZM835.51 1286.89a4.49 4.49 0 1 0 5.56 3.06 4.48 4.48 0 0 0-5.56-3.06ZM790.52 1300.57a3.84 3.84 0 1 0 4.76 2.62 3.85 3.85 0 0 0-4.76-2.62ZM745.53 1314.25a3.2 3.2 0 1 0 4 2.18 3.18 3.18 0 0 0-4-2.18ZM702 1332.85a2.57 2.57 0 1 0-3.17-1.76 2.57 2.57 0 0 0 3.17 1.76ZM656.61 1345.29a1.92 1.92 0 1 0-2.38-1.31 1.92 1.92 0 0 0 2.38 1.31ZM611.27 1357.74a1.28 1.28 0 0 0-.71-2.46 1.26 1.26 0 0 0-.88 1.58 1.29 1.29 0 0 0 1.59.88ZM565.92 1370.19a.65.65 0 1 0-.8-.44.65.65 0 0 0 .8.44ZM1421.88 1155.25l17.56-9.37a12.67 12.67 0 0 0-17.56 9.37ZM1385.88 1159a12.16 12.16 0 0 0-8.31 15.07 11.91 11.91 0 0 0 1.93 3.83l21.16-11.3a12.11 12.11 0 0 0-14.78-7.6ZM1355.17 1180.53a11.53 11.53 0 1 0-7.87 14.28 12.56 12.56 0 0 0 2-.8l.31-.17a11.53 11.53 0 0 0 5.56-13.31ZM1295.89 1186.33a10.89 10.89 0 1 0 13.49 7.44 10.9 10.9 0 0 0-13.49-7.44ZM1250.9 1200a10.25 10.25 0 1 0 12.69 7 10.24 10.24 0 0 0-12.69-7ZM1205.91 1213.69a9.61 9.61 0 1 0 11.91 6.56 9.61 9.61 0 0 0-11.91-6.56ZM1160.92 1227.36a9 9 0 1 0 11.11 6.12 9 9 0 0 0-11.11-6.12ZM1115.93 1241a8.33 8.33 0 1 0 10.32 5.69 8.31 8.31 0 0 0-10.32-5.69ZM1070.93 1254.72a7.69 7.69 0 1 0 9.53 5.24 7.69 7.69 0 0 0-9.53-5.24ZM1026 1268.39a7 7 0 1 0 8.72 4.81 7 7 0 0 0-8.72-4.81ZM981 1282.07a6.41 6.41 0 1 0 7.93 4.38 6.41 6.41 0 0 0-7.93-4.38ZM936 1295.75a5.76 5.76 0 1 0 7.15 3.94 5.76 5.76 0 0 0-7.15-3.94ZM891 1309.42a5.13 5.13 0 1 0 6.35 3.5 5.13 5.13 0 0 0-6.35-3.5ZM846 1323.1a4.48 4.48 0 1 0 5.56 3.06 4.48 4.48 0 0 0-5.56-3.06ZM801 1336.78a3.84 3.84 0 1 0 4.76 2.62 3.84 3.84 0 0 0-4.76-2.62ZM756 1350.45a3.21 3.21 0 1 0 4 2.19 3.19 3.19 0 0 0-4-2.19ZM712.43 1369.05a2.56 2.56 0 1 0-3.17-1.75 2.55 2.55 0 0 0 3.17 1.75ZM667.08 1381.5a1.92 1.92 0 1 0-2.37-1.31 1.91 1.91 0 0 0 2.37 1.31ZM621.74 1394a1.28 1.28 0 1 0-.72-2.46 1.27 1.27 0 0 0-.87 1.58 1.29 1.29 0 0 0 1.59.88ZM576.39 1406.39a.64.64 0 1 0-.79-.43.64.64 0 0 0 .79.43ZM1254 1244.87l14.83-7.92a10.21 10.21 0 0 0-14.83 7.92ZM1216.38 1249.89a9.58 9.58 0 0 0-3.21 16.8l15.46-8.26a10.66 10.66 0 0 0-.34-2 9.63 9.63 0 0 0-11.91-6.54ZM1171.39 1263.57a9 9 0 1 0 11.11 6.13 9 9 0 0 0-11.11-6.13ZM1126.4 1277.25a8.33 8.33 0 1 0 10.31 5.68 8.31 8.31 0 0 0-10.31-5.68ZM1081.4 1290.92a7.69 7.69 0 1 0 9.53 5.25 7.69 7.69 0 0 0-9.53-5.25ZM1036.41 1304.6a7 7 0 1 0 8.73 4.81 7 7 0 0 0-8.73-4.81ZM991.43 1318.27a6.41 6.41 0 1 0 7.93 4.38 6.42 6.42 0 0 0-7.93-4.38ZM946.43 1332a5.77 5.77 0 1 0 7.14 3.94 5.76 5.76 0 0 0-7.14-3.94ZM901.45 1345.63a5.13 5.13 0 1 0 6.34 3.5 5.12 5.12 0 0 0-6.34-3.5ZM856.45 1359.3a4.49 4.49 0 1 0 5.55 3.07 4.49 4.49 0 0 0-5.55-3.07ZM811.46 1373a3.85 3.85 0 1 0 4.76 2.63 3.85 3.85 0 0 0-4.76-2.63ZM766.47 1386.66a3.2 3.2 0 1 0 4 2.19 3.21 3.21 0 0 0-4-2.19ZM722.9 1405.26a2.56 2.56 0 1 0-3.17-1.75 2.56 2.56 0 0 0 3.17 1.75ZM677.55 1417.7a1.92 1.92 0 1 0-2.37-1.31 1.91 1.91 0 0 0 2.37 1.31ZM632.2 1430.15a1.28 1.28 0 1 0-1.58-.88 1.27 1.27 0 0 0 1.58.88ZM586.86 1442.59a.64.64 0 1 0-.79-.43.63.63 0 0 0 .79.43ZM1091.88 1327.13a7.66 7.66 0 0 0-5.52 7.26l11.82-6.3a7.62 7.62 0 0 0-6.3-.96ZM1055.61 1345.62a7 7 0 1 0-7.06 9l6.3-3.37a7 7 0 0 0 .76-5.63ZM1001.89 1354.48a6.41 6.41 0 1 0 7.94 4.38 6.41 6.41 0 0 0-7.94-4.38ZM956.9 1368.16a5.77 5.77 0 1 0 7.15 3.94 5.78 5.78 0 0 0-7.15-3.94ZM911.91 1381.84a5.12 5.12 0 1 0 6.35 3.5 5.11 5.11 0 0 0-6.35-3.5ZM866.92 1395.51a4.49 4.49 0 1 0 5.56 3.06 4.49 4.49 0 0 0-5.56-3.06ZM821.93 1409.19a3.85 3.85 0 1 0 4.76 2.62 3.85 3.85 0 0 0-4.76-2.62ZM776.94 1422.87a3.2 3.2 0 1 0 4 2.18 3.2 3.2 0 0 0-4-2.18ZM733.37 1441.46a2.56 2.56 0 1 0-3.17-1.75 2.55 2.55 0 0 0 3.17 1.75ZM688 1453.91a1.92 1.92 0 1 0-2.38-1.31 1.92 1.92 0 0 0 2.38 1.31ZM642.68 1466.36a1.29 1.29 0 1 0-1.59-.88 1.29 1.29 0 0 0 1.59.88ZM597.33 1478.8a.64.64 0 0 0-.36-1.23.64.64 0 0 0-.43.8.63.63 0 0 0 .79.43ZM922.38 1418a5.11 5.11 0 0 0-3.59 5.83l8.57-4.57a5.12 5.12 0 0 0-4.98-1.26ZM877.39 1431.72a4.48 4.48 0 1 0 5.56 3.06 4.48 4.48 0 0 0-5.56-3.06ZM832.4 1445.39a3.85 3.85 0 1 0 4.76 2.63 3.85 3.85 0 0 0-4.76-2.63ZM789.19 1465.23a3.21 3.21 0 1 0-4-2.19 3.21 3.21 0 0 0 4 2.19ZM743.84 1477.68a2.57 2.57 0 1 0-3.17-1.75 2.56 2.56 0 0 0 3.17 1.75ZM698.49 1490.12a1.92 1.92 0 1 0-2.37-1.32 1.91 1.91 0 0 0 2.37 1.32ZM653.14 1502.57a1.28 1.28 0 1 0-.71-2.46 1.27 1.27 0 0 0-.87 1.58 1.28 1.28 0 0 0 1.58.88ZM756.06 1510.71a2.56 2.56 0 1 0-4.92 1.42 2.4 2.4 0 0 0 .54 1l4.39-2.34s0-.06-.01-.08ZM709 1526.32a1.91 1.91 0 0 0 1.31-2.37 1.91 1.91 0 1 0-3.68 1.06 1.9 1.9 0 0 0 2.37 1.31Z"/></g><path class="cls-2" d="m1095.76 1960.54-103.4-357.71 32.03 370.97 71.37-13.26zM78.65 665.68l351.68 122.35-321.26-188.26-30.42 65.91zM1894.93 448.63l-294.86 227.38 333.37-165.86-38.51-61.52zM1596.63 1647.63l74.96 128.89 54.2-35.79-104.21-139.87-18.24-24.48-16.77 21.15-54.63 68.91-100.15-151.02 88.89 177.35 6.42 12.82 12.54-10.46 56.99-47.5zM157.17 1215.37l-144.15-38.13L0 1240.87l172.6 25.22 30.2 4.41-3.1-26.81-10.1-87.36 177.61 35.97-188.26-62.55-13.6-4.52-1.48 16.25-6.7 73.89zM919.52 152.78 939.41 5l-64.75-5-3.55 174.39-.61 30.52 26.21-6.41 85.43-20.89-13.59 180.7 38.64-194.58 2.78-14.06-16.31.56-74.14 2.55z"/></g></g></svg>