<svg xmlns="http://www.w3.org/2000/svg" width="168.337" height="282.014"><defs><style>.a{fill:#ed2257}.b{fill:#201f1d}.c{fill:#f5f1d6}</style></defs><path class="a" d="m96.185 143.494-.063.1c0 .047-.055.111-.095.174-4.361 7.876-2 20.643 7.915 41.412 10.013 21.054 13.511 30.007 20.176 33.442l-21.134 26.16c-16.559-27.98-33.3-74.814-39.576-96.621Z"/><path class="b" d="M63.392 148.196c6.245 21.806 22.954 68.641 39.576 96.621-1.512-5.184 1.86-12.174 1.86-12.174s-8.461-16.242-12.664-24.133a11.441 11.441 0 0 0-.325 3.332 20.025 20.025 0 0 1-1.005-5.826c.111-.475.174-.942.253-1.417a16.879 16.879 0 0 1 .443-1.844c.364-1.219.863-2.438 1.338-3.657a26.24 26.24 0 0 0-2.192 3.3 15.523 15.523 0 0 0-.792 1.765c-2.81-5.351-5.105-10.29-6.49-13.67-1.456-3.562-5.319-15.522-8.351-27.125a4.623 4.623 0 0 1 .736-3.958 13.884 13.884 0 0 1 3.166-3.111 9.268 9.268 0 0 1 1.156-.7.982.982 0 0 1 1.448.839v.7c.1 4 .206 7.773 6.443 22.8 4.227 10.2 7.417 17.524 9.5 22.36 1.583 3.593 2.572 5.857 3.119 7.3l11.968 7.432-10.82-8.3c-.586-1.5-1.583-3.744-2.984-6.989a1094.89 1094.89 0 0 1-9.5-22.337c-6.142-14.793-6.237-18.45-6.332-22.313a20.169 20.169 0 0 1 .633-5.042c8.6-2.929 11.7-7.124 12.427-8.279.04-.063.071-.127.095-.174l.063-.1Z"/><path class="a" d="M65.814 152.138c1.361 3.728 2.652 7.48 4.045 11.192q1.005 2.8 2.042 5.588l2.066 5.58c1.393 3.712 2.77 7.432 4.2 11.129.712 1.852 1.417 3.7 2.137 5.541s1.433 3.7 2.169 5.541c1.441 3.7 2.929 7.369 4.433 11.034.792 1.828 1.5 3.673 2.272 5.493l2.319 5.469 2.375 5.454 2.438 5.422 2.5 5.4a665.13 665.13 0 0 1 2.6 5.359 237.667 237.667 0 0 1-10.9-21.189c-1.67-3.6-3.261-7.242-4.82-10.9-.792-1.82-1.52-3.665-2.28-5.541s-1.5-3.681-2.232-5.541c-2.9-7.393-5.659-14.849-8.224-22.36s-4.987-15.033-7.14-22.671Z"/><path class="b" d="m102.826 246.447-.689-1.156c-15.91-26.872-32.753-72.82-39.639-96.834l-.293-1.029 35.278-5.058-.435 1.488-.135.237-.1.182c-4.219 7.654-1.773 20.16 7.915 40.542q1.876 3.958 3.459 7.322c7.385 15.672 10.749 22.827 16.305 25.693l1.013.522ZM64.58 148.971c6.934 23.848 23.081 67.722 38.484 94.191l19.6-24.236c-5.541-3.427-9.008-10.812-16.155-25.993a1716.23 1716.23 0 0 0-3.451-7.314c-9.5-19.915-12.142-32.666-8.509-40.953Z"/><path class="a" d="M104.48 102.778a32.041 32.041 0 0 1-1.2 32.856 32.54 32.54 0 0 1-55.66-1.5 32.01 32.01 0 0 1-2.865-7.124 29.991 29.991 0 0 1-.681-3.166s0-.047 0-.063a32.516 32.516 0 0 1 60.422-21.011Z"/><path class="b" d="M92.014 147.388a33.047 33.047 0 0 1-48.156-20.112 34.617 34.617 0 0 1-.7-3.253.911.911 0 0 1 0-.127 33.446 33.446 0 0 1 62.15-21.569 33 33 0 0 1-1.243 33.814 33.687 33.687 0 0 1-12.055 11.247Zm-47.016-23.682a30.507 30.507 0 0 0 .657 3.087 31.182 31.182 0 0 0 45.457 18.965 31.756 31.756 0 0 0 11.39-10.622 31.124 31.124 0 0 0-41.5-43.985 31.558 31.558 0 0 0-16.014 32.452Z"/><path class="b" d="M82.769 110.551a1.472 1.472 0 1 1-.883-.713 1.48 1.48 0 0 1 .883.713ZM79.911 104.306a1.472 1.472 0 1 1-.881-.7 1.472 1.472 0 0 1 .881.7ZM75.922 100.128a1.472 1.472 0 1 1-.881-.7 1.472 1.472 0 0 1 .881.7ZM71.767 104.116a1.472 1.472 0 1 1-.881-.7 1.472 1.472 0 0 1 .881.7ZM69.123 108.936a1.472 1.472 0 1 1-.885-.708 1.48 1.48 0 0 1 .885.708ZM67.928 113.979a1.48 1.48 0 1 1-2.01-.578 1.48 1.48 0 0 1 2.01.578ZM69.345 119.63a1.472 1.472 0 1 1-2-.578 1.472 1.472 0 0 1 2 .578ZM72.059 124.561a1.472 1.472 0 1 1-.88-.709 1.472 1.472 0 0 1 .88.709ZM76.516 128.503a1.48 1.48 0 1 1-2-.578 1.48 1.48 0 0 1 2 .578ZM81.835 130.64a1.472 1.472 0 1 1-2-.578 1.472 1.472 0 0 1 2 .578ZM88.032 130.603a1.472 1.472 0 1 1-.88-.709 1.472 1.472 0 0 1 .88.709ZM94.374 128.028a1.48 1.48 0 1 1-.889-.722 1.472 1.472 0 0 1 .889.722ZM98.021 123.405a1.472 1.472 0 1 1-.885-.708 1.48 1.48 0 0 1 .885.708ZM99.47 117.532a1.48 1.48 0 1 1-2.01-.578 1.48 1.48 0 0 1 2.01.578ZM98.876 112.071a1.472 1.472 0 1 1-.881-.7 1.48 1.48 0 0 1 .881.7ZM97.546 106.601a1.48 1.48 0 1 1-.9-.694 1.472 1.472 0 0 1 .9.694ZM94.38 102.778a1.48 1.48 0 1 1-2.01-.578 1.48 1.48 0 0 1 2.01.578ZM90.336 99.636a1.472 1.472 0 1 1-.883-.713 1.48 1.48 0 0 1 .883.713ZM86.014 97.926a1.48 1.48 0 1 1-2-.578 1.48 1.48 0 0 1 2 .578ZM81.265 98.151a1.48 1.48 0 1 1-2.01-.586 1.48 1.48 0 0 1 2.01.586ZM75.614 108.074a1.472 1.472 0 1 1-.88-.709 1.48 1.48 0 0 1 .88.709ZM73.563 113.979a1.472 1.472 0 1 1-.881-.7 1.48 1.48 0 0 1 .881.7ZM75.455 119.78a1.472 1.472 0 1 1-.881-.7 1.472 1.472 0 0 1 .881.7ZM79.033 123.857a1.472 1.472 0 1 1-2-.578 1.472 1.472 0 0 1 2 .578ZM84.067 125.535a1.48 1.48 0 1 1-2.01-.578 1.48 1.48 0 0 1 2.01.578ZM89.497 124.735a1.48 1.48 0 1 1-2.01-.578 1.48 1.48 0 0 1 2.01.578ZM93.502 120.311a1.472 1.472 0 1 1-.881-.7 1.48 1.48 0 0 1 .881.7ZM94.309 115.237a1.472 1.472 0 1 1-.881-.7 1.472 1.472 0 0 1 .881.7ZM93.193 110.147a1.472 1.472 0 1 1-.885-.708 1.48 1.48 0 0 1 .885.708ZM90.106 105.992a1.48 1.48 0 1 1-2.01-.578 1.48 1.48 0 0 1 2.01.578ZM85.595 103.934a1.472 1.472 0 1 1-.88-.709 1.48 1.48 0 0 1 .88.709ZM79.737 113.907a1.472 1.472 0 1 1-.885-.708 1.48 1.48 0 0 1 .885.708ZM84.558 114.771a1.472 1.472 0 1 1-.881-.7 1.472 1.472 0 0 1 .881.7ZM81.692 118.174a1.48 1.48 0 1 1-2.01-.578 1.48 1.48 0 0 1 2.01.578ZM86.323 118.989a1.472 1.472 0 1 1-2-.578 1.472 1.472 0 0 1 2 .578ZM88.903 115.047a1.472 1.472 0 1 1-.885-.708 1.48 1.48 0 0 1 .885.708ZM87.344 110.893a1.472 1.472 0 1 1-.885-.708 1.48 1.48 0 0 1 .885.708Z"/><path class="b" d="M82.769 110.551a1.472 1.472 0 1 1-.883-.713 1.48 1.48 0 0 1 .883.713ZM79.737 113.907a1.472 1.472 0 1 1-.885-.708 1.48 1.48 0 0 1 .885.708ZM84.558 114.771a1.472 1.472 0 1 1-.881-.7 1.472 1.472 0 0 1 .881.7ZM81.692 118.174a1.48 1.48 0 1 1-2.01-.578 1.48 1.48 0 0 1 2.01.578ZM86.323 118.989a1.472 1.472 0 1 1-2-.578 1.472 1.472 0 0 1 2 .578ZM88.903 115.047a1.472 1.472 0 1 1-.885-.708 1.48 1.48 0 0 1 .885.708ZM87.344 110.893a1.472 1.472 0 1 1-.885-.708 1.48 1.48 0 0 1 .885.708ZM57.305 105.541c-.372 2.224-.792 4.425-1.053 6.617a41.645 41.645 0 0 0-.261 3.277 31.57 31.57 0 0 0 .079 3.245 25.241 25.241 0 0 0 1.369 6.332 37.892 37.892 0 0 0 2.723 5.9 27.425 27.425 0 0 0 1.718 2.723 21.261 21.261 0 0 0 2.058 2.375 26.459 26.459 0 0 0 2.375 2.113 25.488 25.488 0 0 0 2.683 1.789 39.007 39.007 0 0 0 5.936 2.715 51.48 51.48 0 0 0 3.166 1.037c.53.15 1.061.309 1.583.435a10.363 10.363 0 0 0 1.638.332 7.252 7.252 0 0 1-1.7.2c-.57 0-1.14 0-1.71-.055a22.557 22.557 0 0 1-3.4-.514 25.873 25.873 0 0 1-6.459-2.375 24.537 24.537 0 0 1-5.675-4.06 21.29 21.29 0 0 1-2.327-2.66 25.064 25.064 0 0 1-1.836-2.968 34.342 34.342 0 0 1-2.747-6.332 25.218 25.218 0 0 1-1.2-6.847 22.025 22.025 0 0 1 .166-3.467 25.323 25.323 0 0 1 .625-3.372 40.044 40.044 0 0 1 2.24-6.443Z"/><path class="b" d="M67.69 136.759c1.536 1.045 3.032 2.105 4.591 3.016a23.257 23.257 0 0 0 2.375 1.243c.42.158.792.364 1.219.514s.792.317 1.251.435a21.45 21.45 0 0 0 10.44.459c.443-.063.871-.19 1.306-.293s.871-.2 1.3-.325c.839-.285 1.7-.5 2.509-.863a26.328 26.328 0 0 0 4.749-2.375 27.833 27.833 0 0 0 4.235-3.166c.332-.3.681-.578.989-.894s.665-.609.981-.934c.641-.633 1.29-1.282 1.908-1.995a12.838 12.838 0 0 1-2.691 4.979 21.229 21.229 0 0 1-4.3 3.768 22.662 22.662 0 0 1-5.121 2.525c-.887.356-1.821.562-2.731.831-.459.127-.918.206-1.385.309a13.926 13.926 0 0 1-1.393.261 26.12 26.12 0 0 1-5.675.277 18.07 18.07 0 0 1-5.541-1.259 20.136 20.136 0 0 1-4.868-2.786 34.034 34.034 0 0 1-4.148-3.728Z"/><path class="b" d="M103.285 135.635a32.539 32.539 0 0 1-55.66-1.5 32.01 32.01 0 0 1-2.865-7.124l-.681-3.166v-.063h.9c.4 4.25 3.863 10.606 7.211 13.392-12.11-17.311-2.525-30.2.309-29.286 1.464.451 2.66 2.335 3.119 4.5 0 0-1.377 6.847 2.509 16.946s14.9 13.559 14.9 13.559 2.857.792 12.664.792 17.239-8.374 17.239-8.374Z"/><path class="a" d="M71.45 149.026a38.183 38.183 0 0 0 5.936.135 37.2 37.2 0 0 0 5.834-.792 44.555 44.555 0 0 0 5.675-1.623c1.86-.657 3.681-1.433 5.541-2.256a29.535 29.535 0 0 1-5.24 2.937 30.417 30.417 0 0 1-5.746 1.852 27 27 0 0 1-6.016.617 21.22 21.22 0 0 1-5.984-.871ZM57.029 142.639c.451-.792 6.5 3.411 8.659 3.958a23.745 23.745 0 0 1-6.332-2c-1.164-.542-2.628-1.475-2.327-1.958Z"/><path class="b" d="M55.667 104.987a7.527 7.527 0 0 1 2.375-4.282 9.435 9.435 0 0 1 2.042-1.417 11.793 11.793 0 0 1 2.3-.863c-.617.554-1.282 1.013-1.908 1.48s-1.235.966-1.8 1.48a15.946 15.946 0 0 0-1.583 1.678 54.287 54.287 0 0 0-1.426 1.924ZM75.051 96.557l8.374-10 1.346 1.29ZM81.019 95.631a6.245 6.245 0 0 1 1.219-1.583 11.024 11.024 0 0 1 1.583-1.219 13.076 13.076 0 0 1 3.578-1.638l-1.678 1.005c-.554.332-1.108.665-1.646 1.021a17.223 17.223 0 0 0-3.056 2.414Z"/><path class="b" d="M62.601 95.773a25.62 25.62 0 0 1 4.7-4.6 27.2 27.2 0 0 1 5.746-3.348 22.89 22.89 0 0 1 6.53-1.7 14.9 14.9 0 0 1 6.807.792l-.586 1.773a20.16 20.16 0 0 0-12.316.332 27.172 27.172 0 0 0-5.81 2.731 26.475 26.475 0 0 0-5.071 4.02ZM47.229 109.158c2.375-5.675 4.314-11.754 10.369-16.289 0 0 4.488-2.565 5.074-.894s-3.079 2.913-7.322 6.514-6.783 8.366-8.121 10.669ZM6.569.522c3.095-1.828 5.335 4.053 2.873 8.422 3.752-1.82 5.454-1.393 6.981.887s.293 5.485-1.187 6.9a7.211 7.211 0 0 1 7.717 3.958c1.148 2.09-.53 5.074-1.915 6.174a3.166 3.166 0 0 1 .792 3.958c3.016-1.694 4.622-1.52 6.332 1.686 1.417 2.636-1.2 6.071-1.2 6.071s4.472-1.037 7.124 3.831c1.282 2.311 0 4.63-1.623 6.419a6.166 6.166 0 0 1-.15 4.092s4.892-2.5 6.847.894-1.385 6.878-1.385 6.878 5.6-.514 7.749 3.783c1.8 3.578-3.032 6.9-3.032 6.9 2.691.507 3.918 1.2 4.749 1.987a14.763 14.763 0 0 1 1.947 3.221l-3.388 2.24s-1.092-1.852-1.583-2.9-6.023-2.129-6.023-2.129-4.749 2.1-6.934-1.005 1.156-5.374 2.438-5.541a32.9 32.9 0 0 1 4.306 0s1.82-.871 1.947-1.583c-2.105-1.164-5.058-1.33-6.506-.594s-4.33 3.119-6.008.19 3.562-4.5 3.562-4.5 3.166-2.937 2.937-4.076-7.076 4.037-8.976 3.356-3.3-3.688-1.583-4.749a10 10 0 0 0 3.681-3.688c-2.256 1.005-6.277 1.274-7.179-1.33a3.657 3.657 0 0 1 3.633-4.971c2.778 0 4-.475 5.216-1.583a7.124 7.124 0 0 0-6.68-.388c-1.82.871-3.958 3.111-5.794.095s2.572-4.25 3.776-5.05 2.375-3.6 2.375-3.6a66.268 66.268 0 0 0-6.039 2.762c-2.707 1.448-3.633 0-4.211-.958-1.417-2.493 1.828-4.243 3.166-6.19-5.667 1.536-7.472-1.5-6.989-3.364s2.153-4.2 7.124-3.617c0 0 1.48-.855 1.662-1.4s-3.823-1.48-5.541-.894-4.931 3.348-6.752.364 3.293-4.472 4.187-5.01a8.134 8.134 0 0 0 2.232-3.269c-1.211-.475-5.232 1.828-6.752 2.62a2.881 2.881 0 0 1-3.91-1.3c-1.393-2.683 1.164-2.8 3.166-5.541 1.631-2.185 2.018-3.419 1.726-5.074S5.397 1.21 6.569.522Z"/><path class="b" d="m45.781 79.1-.095-.158s-1.1-1.876-1.583-2.921c-.34-.7-3.744-1.583-5.849-2.018-.53.214-5 1.923-7.124-1.092a3.308 3.308 0 0 1-.475-3.372 4.575 4.575 0 0 1 3.032-2.446 31.2 31.2 0 0 1 4.29 0 4.536 4.536 0 0 0 1.773-1.346c-2.129-1.124-4.915-1.187-6.213-.53a9.415 9.415 0 0 0-.736.42c-1.061.625-2.517 1.48-3.823 1.132a2.762 2.762 0 0 1-1.677-1.429 2.208 2.208 0 0 1-.206-1.995c.681-1.7 3.451-2.62 3.831-2.739.879-.792 3.024-3.047 2.857-3.886-.237-.206-1.995.752-3.166 1.385-2.161 1.164-4.607 2.485-5.7 2.1a4.068 4.068 0 0 1-2.462-3.166 1.908 1.908 0 0 1 .855-1.923 11.026 11.026 0 0 0 3.4-3.206 7.622 7.622 0 0 1-5.279.142 2.921 2.921 0 0 1-1.694-1.757 3.871 3.871 0 0 1 .419-3.546 4.053 4.053 0 0 1 3.388-1.631c2.731 0 3.863-.475 4.915-1.346a6.942 6.942 0 0 0-6.332-.261c-.34.158-.681.364-1.053.586-1.5.91-3.388 2.034-4.971-.562a2.493 2.493 0 0 1-.38-2.05c.388-1.338 2.05-2.145 3.269-2.739a9.389 9.389 0 0 0 .934-.491 8.82 8.82 0 0 0 2.121-3.166c-.966.388-3.514 1.456-5.636 2.588-2.9 1.583-3.9-.119-4.44-1.021-1.092-1.915.372-3.38 1.781-4.8.4-.412.792-.792 1.116-1.187-3.467.792-5.161-.206-5.865-.9a2.952 2.952 0 0 1-.855-2.794c.435-1.662 1.947-4.361 7.258-3.76.554-.325 1.425-.934 1.536-1.282-.166-.348-3.7-1.219-5.311-.665a12.212 12.212 0 0 0-1.274.594c-1.765.918-4.179 2.169-5.691-.309a2.28 2.28 0 0 1-.317-1.931c.467-1.5 2.588-2.43 3.847-2.984a7.82 7.82 0 0 0 .72-.332 7.743 7.743 0 0 0 2.082-3c-1.3-.182-4.884 1.8-6.269 2.557l-.158.095a2.865 2.865 0 0 1-2.224.23 3.229 3.229 0 0 1-1.923-1.583c-.982-1.892-.087-2.628 1.148-3.649a11.8 11.8 0 0 0 2.129-2.067c1.583-2.1 1.979-3.293 1.686-4.931s-.2-2.81 1.132-3.586a2.137 2.137 0 0 1 2.77.309c1.456 1.433 2 4.939.578 7.915 3.38-1.512 5.169-1.179 6.736 1.164 1.472 2.208.491 5.184-.879 6.775a7.289 7.289 0 0 1 7.417 4.116c1.187 2.161-.451 5.074-1.8 6.261a3.245 3.245 0 0 1 .855 3.57c1.5-.792 2.565-1.021 3.491-.752s1.757 1.14 2.636 2.723c1.211 2.248-.348 4.987-.981 5.928a7.017 7.017 0 0 1 6.942 3.958c1.076 1.963.53 4.227-1.583 6.546a6.1 6.1 0 0 1-.048 3.728c1.211-.514 5-1.8 6.7 1.132s-.38 5.826-1.148 6.775c1.354 0 5.683.23 7.519 3.894 1.583 3.111-1.71 6.047-2.778 6.886 2.675.546 3.752 1.29 4.456 1.955a14.349 14.349 0 0 1 1.987 3.277l.063.135ZM32.808 67.785a4.258 4.258 0 0 0-1.828 1.868 2.992 2.992 0 0 0 .443 3.039c2.05 2.96 6.673.966 6.72.95h.1c.578.111 5.612 1.132 6.15 2.224.412.855 1.227 2.264 1.5 2.731l3.108-2.057a13.7 13.7 0 0 0-1.844-3.032c-.7-.657-1.8-1.4-4.662-1.939l-.412-.079.34-.237c.048 0 4.686-3.285 2.984-6.68-2.082-4.14-7.527-3.7-7.583-3.688h-.467l.325-.332s3.229-3.435 1.361-6.672-6.57-.855-6.617-.792l-.427.214.182-.443a5.928 5.928 0 0 0 .15-3.958l-.04-.1.079-.079c2.09-2.264 2.628-4.353 1.583-6.221a6.541 6.541 0 0 0-6.95-3.712l-.475.111.293-.388s2.541-3.38 1.187-5.889c-.792-1.512-1.583-2.3-2.462-2.557s-1.987 0-3.641.942l-.467.269.222-.491a2.984 2.984 0 0 0-.736-3.744l-.166-.142.166-.135c1.251-.989 3-3.9 1.868-5.944a7 7 0 0 0-7.535-3.894l-.522.063.38-.364c1.441-1.377 2.636-4.456 1.156-6.672-1.33-1.995-2.794-2.715-6.76-.831l-.5.237.277-.483c1.631-2.9 1.164-6.506-.285-7.915A1.781 1.781 0 0 0 6.633.7c-1.013.594-1.274 1.464-.958 3.221s-.119 3.016-1.757 5.208a12.411 12.411 0 0 1-2.117 2.118C.566 12.26-.114 12.83.74 14.468a2.937 2.937 0 0 0 1.718 1.433 2.446 2.446 0 0 0 1.943-.201l.158-.087.079-.04c2.683-1.48 5.541-2.921 6.665-2.5l.158.063-.063.166a8.374 8.374 0 0 1-2.3 3.356c-.166.087-.427.206-.792.356-1.211.522-3.237 1.409-3.657 2.762a1.931 1.931 0 0 0 .285 1.646c1.338 2.2 3.5 1.084 5.232.182a10.812 10.812 0 0 1 1.314-.609c1.583-.538 5.018.119 5.651.792a.332.332 0 0 1 .111.356c-.2.586-1.583 1.4-1.741 1.5h-.1c-5.1-.594-6.538 1.931-6.942 3.491a2.58 2.58 0 0 0 .792 2.454c.689.681 2.375 1.678 6.016.7l.467-.127-.277.4a13.583 13.583 0 0 1-1.448 1.623c-1.385 1.385-2.691 2.691-1.733 4.377.546.91 1.369 2.287 3.958.894a64.952 64.952 0 0 1 6.071-2.77l.38-.15-.158.38c-.048.111-1.187 2.865-2.414 3.681-.237.15-.586.317-.982.514-1.156.562-2.739 1.33-3.087 2.517a2.161 2.161 0 0 0 .348 1.773c1.4 2.3 2.9 1.4 4.5.443.372-.222.72-.435 1.076-.6a7.322 7.322 0 0 1 6.839.4l.206.127-.174.158c-1.33 1.164-2.675 1.583-5.327 1.583a3.744 3.744 0 0 0-3.1 1.5 3.514 3.514 0 0 0-.372 3.237 2.6 2.6 0 0 0 1.5 1.583 7.566 7.566 0 0 0 5.446-.325l.412-.182-.182.412a10.084 10.084 0 0 1-3.72 3.688 1.583 1.583 0 0 0-.689 1.583 3.776 3.776 0 0 0 2.272 2.9c.95.332 3.435-1.005 5.422-2.082s3.024-1.583 3.467-1.409a.348.348 0 0 1 .206.261c.237 1.2-2.66 3.958-2.984 4.235s-3 .918-3.649 2.557a1.86 1.86 0 0 0 .182 1.686 2.438 2.438 0 0 0 1.464 1.266c1.171.309 2.549-.507 3.562-1.1.277-.166.53-.317.752-.427 1.583-.792 4.638-.522 6.665.6l.111.063v.119c-.142.792-1.852 1.638-2.05 1.733h-.087a32.451 32.451 0 0 0-4.266 0 2.937 2.937 0 0 0-1.066.376Z"/><path class="c" d="M1.764 13.574a5.422 5.422 0 0 1 .792.047 4.394 4.394 0 0 1 .657.135 3.751 3.751 0 0 1 .649.23 3.348 3.348 0 0 1 .673.412 1.48 1.48 0 0 1-.792.309 1.908 1.908 0 0 1-.792-.055 2.209 2.209 0 0 1-.72-.364 1.449 1.449 0 0 1-.467-.714ZM5.833 20.959a5.619 5.619 0 0 1 .792.047 4.391 4.391 0 0 1 .657.135 3.68 3.68 0 0 1 .641.23 3.387 3.387 0 0 1 .681.412 1.48 1.48 0 0 1-.791.309 2.011 2.011 0 0 1-.792-.055 1.955 1.955 0 0 1-.72-.372 1.354 1.354 0 0 1-.467-.7ZM9.45 27.513l.918.206.792.2a7.141 7.141 0 0 1 .792.245 5.019 5.019 0 0 1 .886.4 2.074 2.074 0 0 1-.958.332 2.976 2.976 0 0 1-.989-.071 2.738 2.738 0 0 1-.918-.443 1.646 1.646 0 0 1-.523-.869ZM13.281 35.879a2.374 2.374 0 0 1 .594-.166 1.687 1.687 0 0 1 .491 0 1.622 1.622 0 0 1 .459.142c.158.063.277.166.514.269a.791.791 0 0 1-.514.459 1.219 1.219 0 0 1-.6.047 1.267 1.267 0 0 1-.546-.222 1.053 1.053 0 0 1-.398-.529ZM17.429 43.414a2.556 2.556 0 0 1 .6-.174 2.027 2.027 0 0 1 .491 0 1.5 1.5 0 0 1 .451.142c.158.071.285.166.522.269a.792.792 0 0 1-.522.459 1.2 1.2 0 0 1-.6.047 1.274 1.274 0 0 1-.538-.222 1 1 0 0 1-.4-.522ZM20.785 49.501l.839.119c.253.04.491.087.736.15a6.209 6.209 0 0 1 .72.214 8.142 8.142 0 0 0 .792.285 1.235 1.235 0 0 1-.839.451 2.47 2.47 0 0 1-.9-.047 2.208 2.208 0 0 1-.792-.388 1.4 1.4 0 0 1-.556-.784ZM24.149 57.409l.839.119.736.15c.237.063.483.135.728.222a7.362 7.362 0 0 0 .792.277 1.2 1.2 0 0 1-.839.451 2.121 2.121 0 0 1-.894-.047 2.184 2.184 0 0 1-.792-.388 1.377 1.377 0 0 1-.57-.784ZM28.534 64.754c.317 0 .554.055.792.063l.665.063a3 3 0 0 1 .681.119l.792.2a1.227 1.227 0 0 1-.72.53 1.924 1.924 0 0 1-.847.079 1.836 1.836 0 0 1-.792-.309 1.148 1.148 0 0 1-.571-.745ZM31.85 71.371c.348.119.625.214.894.293s.53.135.792.19l.831.166c.285.055.578.135.934.182a1.583 1.583 0 0 1-.91.554 2.446 2.446 0 0 1-1.045 0 2.129 2.129 0 0 1-.966-.475 1.52 1.52 0 0 1-.53-.91ZM15.331 11.588c-1.354 1.409-3.008 3.388-2.058 4.148s2.05-2.153 2.058-4.148ZM19.265 25.518c.6.7 2.018-.918 2.082-3.894-1.505 1.488-2.819 3.039-2.082 3.894ZM24.473 37.612c.6.7 2.018-.91 2.082-3.894-1.488 1.5-2.818 3.039-2.082 3.894ZM30.505 47.348c.6.7 2.018-.91 2.09-3.894-1.504 1.5-2.826 3.039-2.09 3.894ZM35.729 59.363c.6.7 2.018-.918 2.082-3.894-1.492 1.52-2.818 3.02-2.082 3.894ZM41.99 69.384c.6.7 2.018-.91 2.09-3.894-1.504 1.496-2.826 3.039-2.09 3.894Z"/><path class="b" d="m44.958 79.325 9.672 17.793 7.045-5.153-11.707-16.059Z"/><path class="a" d="M51.021 88.183s2.652-1.765 2.375-2.28a59.5 59.5 0 0 0-4.464-6.736 2.643 2.643 0 0 0-1.654-.792c.427-.309 1.583-2.145 2.857-1.583.7.309 1.971 2.565 2.739 3.641a175.29 175.29 0 0 1 2.913 4.211l4.844 6.688-1.425.91a12.016 12.016 0 0 1-2.644-3.1c-1.555-2.867-5.541-.959-5.541-.959Z"/><path class="b" d="m50.39 88.751-.516-.779 6.021-3.985.516.78z"/><path class="b" d="m54.401 98.148-9.625-17.706a1.67 1.67 0 0 1 .522-2.193l3.491-2.375a1.67 1.67 0 0 1 2.3.4l11.556 15.83Zm-4.8-21.141-3.483 2.375a.285.285 0 0 0-.087.372l8.865 16.305 5.786-4.243-10.733-14.73a.285.285 0 0 0-.348-.079ZM95.512 144.8c-6.49 5.4-11.643 10.187-10.923 13.416s4.559 4.227 9.759-.15c0 0-1.235-5.454-.237-8.208a33.637 33.637 0 0 0 1.401-5.058Z"/><path class="a" d="M84.273 189.505a13.788 13.788 0 0 1 1.179-4.116 25.73 25.73 0 0 1 2.042-3.76 31.24 31.24 0 0 1 2.549-3.4 22.106 22.106 0 0 1 3.024-3c-.673 1.266-1.4 2.462-2.145 3.649s-1.5 2.375-2.256 3.514-1.52 2.327-2.256 3.506-1.44 2.356-2.137 3.607Z"/><path class="b" d="M111.778 226.564c-.792-1.045-1.583-2.09-2.375-3.166s-1.512-2.121-2.248-3.166-1.456-2.169-2.137-3.277a34.323 34.323 0 0 1-1.892-3.419 34.465 34.465 0 0 0 2.375 3.087c.831.989 1.694 1.955 2.565 2.9s1.765 1.884 2.667 2.81 1.813 1.844 2.731 2.731Z"/><path class="a" d="M163.456 233.181a32.294 32.294 0 1 1-18.359-15.007 31.851 31.851 0 0 1 18.359 15.007Z"/><path class="b" d="M150.982 277.823a33.044 33.044 0 1 1-31.914-57.868 33.561 33.561 0 0 1 26.31-2.667 32.674 32.674 0 0 1 18.885 15.419 33.305 33.305 0 0 1-13.281 45.116Zm-31.012-56.2a31.181 31.181 0 1 0 42.671 12.01 30.869 30.869 0 0 0-17.825-14.572 31.415 31.415 0 0 0-18.165-.261 31.787 31.787 0 0 0-6.68 2.755Z"/><path class="b" d="M133.418 238.247a1.472 1.472 0 1 1-1.091-.3 1.472 1.472 0 0 1 1.091.3ZM131.922 242.508a1.48 1.48 0 1 1-2.074.253 1.48 1.48 0 0 1 2.074-.253ZM136.727 241.413a1.48 1.48 0 1 1-2.074.253 1.48 1.48 0 0 1 2.074-.253ZM135.428 245.663a1.472 1.472 0 1 1-1.09-.3 1.472 1.472 0 0 1 1.09.3ZM140.012 244.579a1.472 1.472 0 1 1-1.091-.3 1.48 1.48 0 0 1 1.091.3ZM140.827 239.949a1.472 1.472 0 1 1-1.091-.3 1.472 1.472 0 0 1 1.091.3ZM137.763 236.743a1.48 1.48 0 1 1-2.074.253 1.48 1.48 0 0 1 2.074-.253Z"/><path class="b" d="M130.339 222.994a20.991 20.991 0 0 1 7.124-1.2 19.383 19.383 0 0 1 7.227 1.464 18.933 18.933 0 0 1 6.229 4.148 23.135 23.135 0 0 1 4.3 6.095 24.149 24.149 0 0 1 2.216 7.124 17.524 17.524 0 0 1-.546 7.472 18.467 18.467 0 0 1-3.53 6.5 20.438 20.438 0 0 1-5.588 4.591 25.448 25.448 0 0 0 4.694-5.264 19.036 19.036 0 0 0 2.707-6.269 17.413 17.413 0 0 0 .135-6.712c-.055-.277-.071-.554-.142-.831l-.214-.791-.206-.792a7.75 7.75 0 0 0-.277-.792l-.277-.792a7.435 7.435 0 0 0-.309-.792l-.7-1.583a23.493 23.493 0 0 0-3.847-5.667 19.36 19.36 0 0 0-5.406-4.037 20.374 20.374 0 0 0-6.57-1.963 26.729 26.729 0 0 0-7.02.091Z"/><path class="b" d="M148.109 226.374s-4.266 5.5-.435 14.2 7.48 9.894 7.48 9.894a20.4 20.4 0 0 0-6.966-24.094Z"/><path class="a" d="m139.418 225.907-.34-.609-.356-.6c.222-.135 3.625-2.454 5.857-3.958l.792 1.148c-2.637 1.77-5.803 3.932-5.953 4.019Z"/><path class="b" d="M138.254 225.352a4.139 4.139 0 0 1 .792-1.923 6.332 6.332 0 0 1 1.448-1.456 5.959 5.959 0 0 1 1.868-.918 3.546 3.546 0 0 1 2.09 0c-.617.348-1.132.673-1.646 1.013s-1 .689-1.488 1.045ZM131.582 229.809a2.43 2.43 0 0 1 .158-1.211 4.2 4.2 0 0 1 .594-1.076 4.251 4.251 0 0 1 .847-.879 2.422 2.422 0 0 1 1.092-.546 6.332 6.332 0 0 0-.847.792c-.253.293-.5.586-.72.894a8.61 8.61 0 0 0-.633.95 5.654 5.654 0 0 0-.491 1.076ZM118.466 231.463a1.836 1.836 0 0 1 .736-.792 2.5 2.5 0 0 1 1.061-.293 3.262 3.262 0 0 1 1.076.119 2.763 2.763 0 0 1 .966.451l-1.029-.1a8.164 8.164 0 0 0-.981 0 4.192 4.192 0 0 0-.942.166 3.547 3.547 0 0 0-.886.443ZM123.215 279.184a32.185 32.185 0 0 1-5.849-2.9l.237-.4c.293.166 2.944 1.654 5.786 2.873Z"/><path class="b" d="M145.101 218.174c-.665.419-.942.7-.649.792a26.334 26.334 0 0 1 16.886 15.83c4.5 11.873-.514 25.265-13.725 32.017s-32.368 1.792-37.465-18.055 11.643-28.439 16.551-30.014l-.317-.839a32.817 32.817 0 0 0-19.709 15.632l.792.174c-3.657 4.939-4.749 23.785 6.182 39.576a32.35 32.35 0 0 0 3.744 2.762c-3.475-2.557-6.728-9.878-7.124-15.253 2.066 2.715 5.612 4.567 7.258 6.269s8.564 7.915 11.255 9.562 4.179 3.744.617 3.958a32.666 32.666 0 0 0 11.335-.111 46.762 46.762 0 0 0 15.253-11.269 65.577 65.577 0 0 0 8.176-11.168 33.64 33.64 0 0 1-12.316 18.2 32.27 32.27 0 0 0 11.612-43.059 31.851 31.851 0 0 0-18.355-15.007Z"/><path class="b" d="M122.194 259.008a20.973 20.973 0 0 1-3.958-5.343 24.394 24.394 0 0 1-2.3-6.332 20.009 20.009 0 0 1-.293-6.728 13.939 13.939 0 0 1 2.375-6.229 18.854 18.854 0 0 0-1.48 6.332 24.252 24.252 0 0 0 .522 6.411 31.5 31.5 0 0 0 1.955 6.166 34.723 34.723 0 0 0 3.179 5.723ZM83.829 188.706a16.233 16.233 0 0 1 1.338-4.037 30.945 30.945 0 0 1 2.082-3.712 39.009 39.009 0 0 1 2.493-3.427 30.552 30.552 0 0 1 2.881-3.111c-.744 1.211-1.52 2.375-2.3 3.546s-1.583 2.327-2.3 3.5c-.388.578-.792 1.171-1.124 1.765l-.554.887-.538.894c-.696 1.202-1.376 2.413-1.978 3.695Z"/><path class="a" d="M89.908 192.505a2.375 2.375 0 0 1 .72-1.235 4.385 4.385 0 0 1 1.164-.792 13.2 13.2 0 0 1 2.628-.894 23.247 23.247 0 0 1 5.4-.586c-.871.261-1.741.483-2.612.7s-1.726.451-2.565.712a20.584 20.584 0 0 0-2.462.887c-.388.174-.791.332-1.156.53a5.946 5.946 0 0 0-1.116.673Z"/><path class="b" d="M89.584 191.911a2.438 2.438 0 0 1 .712-1.243 4.748 4.748 0 0 1 1.171-.792 13.274 13.274 0 0 1 2.62-.886 23.371 23.371 0 0 1 5.383-.609c-.871.261-1.741.475-2.6.7s-1.726.451-2.572.712a21 21 0 0 0-2.454.887c-.388.174-.792.332-1.156.53a5.7 5.7 0 0 0-1.1.7ZM104.464 214.129c.689.435 1.385.831 2.074 1.227s1.409.792 2.129 1.116c1.425.728 2.873 1.4 4.322 2.121a21.183 21.183 0 0 1-4.535-1.718 15.632 15.632 0 0 1-3.989-2.747Z"/><path class="c" d="M102.217 105.177a32.2 32.2 0 0 1 1.48 7.076 34.082 34.082 0 0 1 0 7.076c-.514 4.63-2.082 9.15-5.153 12.371a21.988 21.988 0 0 1-11.762 6.538 23.826 23.826 0 0 1-6.965.364 22.02 22.02 0 0 1-6.942-1.813l.736.562a7.25 7.25 0 0 0 .792.53l.792.475.4.23.42.2a14.409 14.409 0 0 0 1.733.736l.894.309c.3.1.609.166.918.245a21.426 21.426 0 0 0 7.591.538 21.822 21.822 0 0 0 13.583-6.847 5.914 5.914 0 0 0 .649-.744l.625-.792a7.174 7.174 0 0 0 .57-.792l.538-.839a7.687 7.687 0 0 0 .467-.871l.443-.879c.285-.594.491-1.211.728-1.82a24.426 24.426 0 0 0 1.29-7.511 27.909 27.909 0 0 0-.879-7.488 25.265 25.265 0 0 0-1.2-3.593c-.23-.578-.538-1.124-.792-1.678a14.77 14.77 0 0 0-.956-1.583ZM92.346 165.807a127.864 127.864 0 0 0 4.045 13.345q2.375 6.562 5.216 12.918a137.019 137.019 0 0 0 6.332 12.443c.594 1.005 1.187 2 1.8 2.992s1.259 1.971 1.939 2.921 1.354 1.908 2.105 2.81a34.96 34.96 0 0 0 2.3 2.644c-2.193-4.124-4.108-8.279-6.031-12.466l-5.667-12.6c-1.9-4.2-3.807-8.39-5.786-12.569s-3.981-8.346-6.253-12.438ZM160.737 243.107a22.234 22.234 0 0 1-2.976 8.105 34.279 34.279 0 0 1-5.264 6.657 42.308 42.308 0 0 1-6.609 5.4 39.2 39.2 0 0 1-7.8 4.013 19.171 19.171 0 0 0 8.968-1.908 26.316 26.316 0 0 0 7.607-5.351 23.746 23.746 0 0 0 5.224-7.756 17.113 17.113 0 0 0 1.2-4.52 12.165 12.165 0 0 0-.34-4.638ZM143.518 259.008c-1.377.467-2.62.934-3.878 1.3a29.182 29.182 0 0 1-3.76.839 36.761 36.761 0 0 1-3.878.388c-1.33.071-2.66.063-4.108.079a9.8 9.8 0 0 0 3.958 1.631 12.711 12.711 0 0 0 4.345.063 12.111 12.111 0 0 0 4.124-1.425 9.973 9.973 0 0 0 3.197-2.875Z"/></svg>