<svg xmlns="http://www.w3.org/2000/svg" width="652.275" height="416.133"><defs><style>.a{fill:#ffac83}.b{fill:#ba3c3c}.d{fill:#fff5d7}</style></defs><path class="a" d="m493.671 101.489-.072.043-.116.123a11.092 11.092 0 0 0-.812 1.536 6.417 6.417 0 0 1-.145.348 9.991 9.991 0 0 0-.384 1.3 3.739 3.739 0 0 0 0 .9 4.606 4.606 0 0 0 .3 1.036 5.116 5.116 0 0 0 1.247 1.616 2.955 2.955 0 0 0 .725.42 3.345 3.345 0 0 0 .609.116h.065a4 4 0 0 0 .66 0 5.609 5.609 0 0 0 1.21-.348 4.129 4.129 0 0 0 .8-.457h.044c-.21-1.964-.333-3.943-.565-5.907a7.062 7.062 0 0 0-.283-1.232 23.109 23.109 0 0 1-2.986.493 1.6 1.6 0 0 0-.297.013ZM499.556 210.158l-.435-.152a2.089 2.089 0 0 0 .435.152ZM523.571 182.414v.051c-.048.261-.07.379 0-.051ZM522.211 183.951v-.029ZM520.747 198.75ZM499.123 210.005l-.217-.123a1.367 1.367 0 0 0 .217.123ZM124.693 309.115c.326.87.652 1.732.986 2.6a21.1 21.1 0 0 0-.725-2.174 1.616 1.616 0 0 1-.261-.426ZM119.338 290.591v.043c-.682-1.514-.116-.29 0-.043ZM495.004 108.939Z"/><path class="a" d="M125.694 311.732c-.071-.174-.312-.725 0 0ZM589.606 360l.123-.377ZM495.062 108.939ZM589.729 359.615c.138-.42.275-.862 0 0ZM580.655 358.529l.065-.167ZM580.72 358.362ZM574.147 321.791l.167-.326Z"/><path class="b" d="M631.986 319.885a85.881 85.881 0 0 1-6.813-6.081c-2.254-2.174-4.522-4.349-6.631-6.7s-3.841-4.725-6.226-6.646a33.466 33.466 0 0 0-6.581-3.682 19.148 19.148 0 0 0-3.334-.993 25.946 25.946 0 0 1 14.053 6.465 61.363 61.363 0 0 0-3.283-5.573c-1.3-1.819-2.747-3.537-4.153-5.283-3.624-2.558-7.523-4.544-11.241-6.914-3.153-2.022-6.168-4.291-9.154-6.559a48.813 48.813 0 0 1-4.349-3.559 37.362 37.362 0 0 1-3.725-4.349c-2.348-3.058-5.073-5.841-7.334-8.958s-4.138-6.689-6.523-9.835a57 57 0 0 0-7.813-8.052 11.176 11.176 0 0 0-3.79-1.341 14.886 14.886 0 0 0-2.841 0 41.361 41.361 0 0 0-8.6 2.254 37.093 37.093 0 0 0-7.943 3.877c-1.2.942-2.4 1.906-3.558 2.9-.674.725-1.334 1.449-1.942 2.218-1.268 1.725-2.247 3.624-3.37 5.457s-2.435 3.769-3.732 5.588c-2.247 3.153-4.406 6.392-6.726 9.487-1.16 1.544-2.413 3.022-3.674 4.486a52.094 52.094 0 0 1-3.74 4.16 62.167 62.167 0 0 1-9.009 6.755c-3.247 2.124-6.6 4.088-9.951 6.044a38.148 38.148 0 0 0-3.551 3.464c-1.087 1.254-2.334 2.37-3.385 3.624-.08.109-.138.232-.2.341a2.8 2.8 0 0 0-.138.652 9.314 9.314 0 0 0 0 1.906 47.513 47.513 0 0 0 2.8 6.523c.428.631.862 1.247 1.319 1.855 3.066 3.74 6.117 7.516 9.291 11.154 2.9 3.334 5.646 6.813 8.393 10.277a110.636 110.636 0 0 1 7.327 10.755c4.588 7.407 7.871 15.481 11.951 23.192 1.4 1.964 2.667 4 4.138 5.914-1.073-3.348-2.058-6.718-3.116-10.074s-2.377-6.523-3.254-9.9c.188.515.384 1.022.58 1.536 1.45 3.334 2.9 6.668 4.349 10.045 2.413 5.892 5.073 11.639 7.885 17.394s6.472 10.625 10.081 15.756a138.17 138.17 0 0 1 9.7 13.379 65.38 65.38 0 0 1 2.283 2.638l.674.652h31.94c.181-2.442.275-4.9.493-7.342a167.666 167.666 0 0 1 2.486-18.423c1.2-6.037 2.776-12 4.515-17.909a8.7 8.7 0 0 0 0 1.573c0 .623 0 1.254-.051 1.877q-.065 1.884-.152 3.761a176.07 176.07 0 0 1-.573 7.813c.478-4.994-.312 3.341 0 0a122.78 122.78 0 0 1-2.522 15.945c-.964 4.225-2.037 8.523-3.414 12.669h4.87c.188-1.138.37-2.268.58-3.392q.819-4.349 1.725-8.646c1.218-5.8 2.638-11.495 3.957-17.235-.92 5.8-2.008 11.6-3.124 17.322a239.08 239.08 0 0 1-1.8 8.567c-.254 1.116-.507 2.247-.768 3.377h7.465q.891-3.414 1.819-6.82a99.6 99.6 0 0 0 2.79-12.386 6.084 6.084 0 0 1 .072-.623 1 1 0 0 1 .051-.413s-.036.341 0 0a4.006 4.006 0 0 1-.051.413v.819c0 .507-.065 1.022-.116 1.536a65.66 65.66 0 0 1-.442 3.363 112.257 112.257 0 0 1-1.189 6.443q-.8 3.841-1.631 7.668h48.2v-82.683a133.019 133.019 0 0 1-12.64-8.008c-2.564-1.792-5.188-3.565-7.634-5.515Zm-88.209-5.668c.384-.776.776-1.551 1.181-2.319.159-.3.42-.725.623-1.044.087-.188.167-.384.261-.573a2.587 2.587 0 0 1-.261.573c-2.283 4.907-4.349 9.915-6.7 14.8a67.615 67.615 0 0 1-3.624 6.813 38.169 38.169 0 0 1-2.3 3.29 29.514 29.514 0 0 1-1.29 1.558 15.812 15.812 0 0 0-1.189 1.254 66.219 66.219 0 0 0 6.559-10.828c.725-1.507.246-.507 0 0 1.45-3 2.979-5.957 4.45-8.951.776-1.551 1.508-3.066 2.261-4.573Zm-22.264-10.676a14.567 14.567 0 0 0 .645-2.66c.239-.978.486-1.964.725-2.943.457-1.826.833-3.667 1.2-5.508 1.4-6.936 2.544-13.922 4.03-20.837 1.45-6.646 3.624-12.973 7.69-18.51a43.132 43.132 0 0 0-4.3 9.871 96.23 96.23 0 0 0-2.29 10.625c-.109.645-.341 2.037 0 .043-.862 5.175-1.863 10.32-3.066 15.43a102.708 102.708 0 0 1-4.638 14.488Zm.348 14.981c.819-4.022 1.623-8.045 2.464-12.067 1.45-7.016 3.015-14.024 4.769-20.974a243.152 243.152 0 0 1 2.9-10.378c.507-1.718 1.007-3.428 1.536-5.131.268-.87.551-1.732.841-2.595a13.972 13.972 0 0 1 .725-2.174c-.13 0-.833 3.841-.92 4.254q-.478 2.174-.935 4.406c-2.174 10.386-4.349 20.757-7.2 30.99.333-1.2.645-2.334-.058.2-.536 1.935-.355 1.283-.08.3-1.268 4.414-2.58 8.82-4.037 13.169Zm2.9 1.7a624.664 624.664 0 0 1 2.384-8.885c2.9-10.581 5.8-21.2 9.617-31.5-.63 2.471-1.058 5.124-1.616 7.661q-.906 4.08-1.877 8.132a144.577 144.577 0 0 1-4.921 15.879 119.212 119.212 0 0 1-3.624 8.7v.022Zm.645 10.748c.638-1.928 1.2-3.95 1.892-5.892s1.449-3.863 2.174-5.8c1.565-3.972 3.182-7.922 4.943-11.813 1.515-3.928 3.073-7.856 4.783-11.7.536-1.348 1.036-2.718 1.558-4.073-.355 1.073-.536 2.355-.833 3.486-.37 1.384-.8 2.747-1.225 4.109-.855 2.769-1.7 5.544-2.674 8.269a152.218 152.218 0 0 1-6.95 15.778c1.3-2.66-1.247 2.544 0 0-1.268 2.515-2.529 5.073-3.7 7.639Zm2.674 1.58c.355-.725.725-1.449 1.08-2.174q1.087-2.174 2.218-4.349c1.449-2.725 2.9-5.465 4.167-8.262 2.595-5.624 5.153-11.371 7.893-16.872-.109.225-.2.457-.3.689-2.986 7.349-5.7 14.77-9.422 21.8l-.667 1.268v.065-.065c.08-.152.283-.529.667-1.268-1.993 3.8-4.2 7.494-6.523 11.089a15.761 15.761 0 0 0 .855-1.921Zm7.189 10.487c-.775 1.08-.449.631-.08.1a180.037 180.037 0 0 1-4.863 6.523c2.667-5.32 5.385-10.61 8.378-15.756s6.189-10.364 9.357-15.5a125.122 125.122 0 0 1-5.581 12.937 94.214 94.214 0 0 1-7.168 11.6c.319-.471.616-.884-.08.094Zm1.45 8.965c-.181.457-.355.906-.529 1.37 2.051-10.364 8.045-19.336 13.618-28.084-1.065 2.174-2.174 4.349-3.3 6.472s-2.334 4.2-3.348 6.363c-.616 1.3-.326.725-.1.217-1.964 4.175-3.979 8.313-5.863 12.524-.159.384-.326.768-.486 1.16Zm2.725 14.814c-.2.58-.167.507-.094.275a55.32 55.32 0 0 1-.725 2.124 16.012 16.012 0 0 0-.631 1.834 1.569 1.569 0 0 0-.036.3 1.57 1.57 0 0 1 .036-.3 84.707 84.707 0 0 1 1.5-8.929 103.285 103.285 0 0 1 4.349-15.684c.957-2.587 2.174-5.073 3.29-7.6a166.048 166.048 0 0 1 1.8-3.79c.319-.645.645-1.29.978-1.928.109-.2.645-1.515.8-1.515a18.646 18.646 0 0 0-.725 2.073 48.901 48.901 0 0 1-.725 2.066 250.492 250.492 0 0 0-1.45 4.435c-.986 2.95-2.008 5.878-2.9 8.864s-1.877 5.856-2.747 8.806-1.8 5.943-2.769 8.893c.175-.319.247-.544.044.068Zm9.625-15.22c-.58 2.834-1.08 5.7-1.609 8.545s-1.051 5.7-1.645 8.545-1.334 5.7-1.892 8.567a71.089 71.089 0 0 1 .044-9.132 64.569 64.569 0 0 1 .978-8.762 49.9 49.9 0 0 1 2.479-8.6c.515-1.341 1.13-2.631 1.761-3.921q.478-.964.978-1.935a15.025 15.025 0 0 0 .877-1.638c-.654 2.776-1.411 5.53-1.976 8.328Zm22.293 18.409a62.23 62.23 0 0 1 .724-11.897 88.1 88.1 0 0 1 5.109-20.373 89.212 89.212 0 0 1 4.254-9.335 89.289 89.289 0 0 1 2.573-4.515c.464-.768.935-1.522 1.413-2.276.159-.246 1-1.877 1.218-1.877a11.1 11.1 0 0 0-.812 1.638l-.964 1.884q-.892 1.848-1.739 3.7a123.567 123.567 0 0 0-3.131 7.566 143.531 143.531 0 0 0-4.885 15.727 233.559 233.559 0 0 0-3.232 14.952c-.116 1.276-.42 3.24-.529 4.8Zm3.667 4.928c-.3.891-.6 1.79-.87 2.689a10.364 10.364 0 0 0-.681 2.442 85.745 85.745 0 0 1 1.66-12.669 88.212 88.212 0 0 1 6.436-20.982c1.5-3.269 3.16-6.465 4.914-9.6.9-1.616 1.834-3.211 2.783-4.8.464-.775.928-1.544 1.4-2.3a17.318 17.318 0 0 0 1.051-1.565 1.529 1.529 0 0 0 .08-.21 1.545 1.545 0 0 1-.08.21c-3.58 10.1-7.392 20.126-10.994 30.215-1.319 3.682-2.573 7.378-3.834 11.074Zm3.008 16.582a79.719 79.719 0 0 1 .725-12.676 126.726 126.726 0 0 1 4.5-21.779 74.741 74.741 0 0 1 3.943-10.277 80.68 80.68 0 0 1 2.5-4.849c.449-.819.913-1.623 1.392-2.428.254-.435.783-1.044 1.007-1.536a1.052 1.052 0 0 0 .08-.225 1.052 1.052 0 0 1-.08.225c-1.537 4.117-3 8.255-4.167 12.487s-2.066 8.7-3.1 13.045q-1.681 7.045-3.486 14.038c-1.2 4.609-2.544 9.255-3.312 13.973Zm4.073 7.066-.065.529a7.445 7.445 0 0 0 0-1.131 12.171 12.171 0 0 1 .051-1.363c.036-.877.094-1.747.159-2.616q.2-2.747.507-5.494a140.814 140.814 0 0 1 3.254-19.1 78.927 78.927 0 0 1 2.9-9.1c.551-1.45 1.152-2.9 1.776-4.349.3-.689.623-1.363.971-2.029.174-.326.486-.725.725-1.152.065-.145.123-.3.188-.449a2.059 2.059 0 0 1-.189.449 74.102 74.102 0 0 0-2.58 6.805 144.387 144.387 0 0 0-4.349 19.184c-1.16 6.581-2.174 13.183-3.254 19.778Zm10.2-26.214c-.515 3.087-1.116 6.16-1.587 9.255a.549.549 0 0 0 0-.109c0 .036-.551 4.211 0 0-1.138 8.639-2.529 17.242-4.03 25.823a81.865 81.865 0 0 1 .812-9.755c.725-5.863 1.508-11.777 2.689-17.568.6-2.9 1.239-5.8 1.863-8.74a50.607 50.607 0 0 1 2.29-7.972 57.983 57.983 0 0 0-2.036 9.067Zm6.61-75.9a28.4 28.4 0 0 0-9.2 4.348c-3.356 2.667-5.994 6.2-8.7 9.516a61.679 61.679 0 0 0-6.711 11.067v.051c-.848 1.652-1.565 3.377-2.341 5.073a70.2 70.2 0 0 0-3.689 11.422 114.585 114.585 0 0 0-2.515 21.779c-.1 3.624-.073 7.248-.094 10.871 0 1.8-.043 3.624-.065 5.407v2.783a12.308 12.308 0 0 0 0 2.479c-1.007-4.225-1.783-8.5-2.58-12.77a131.022 131.022 0 0 1-1.863-12.995 69.121 69.121 0 0 1 1.45-22.641 59.016 59.016 0 0 1 9.349-19.431 47.446 47.446 0 0 1 7.436-7.972 48.794 48.794 0 0 1 8.625-6.653 32.526 32.526 0 0 1 10.064-3.393 37.955 37.955 0 0 1 10.451-.152 2.944 2.944 0 0 1 .652.072l-.652-.072c-.631 0-1.384.094-1.921.116-.862 0-1.718.065-2.573.145a29.22 29.22 0 0 0-5.124.949Z"/><path class="a" d="M574.314 321.457v-.043c.2-.406.507-1 .58-1.138Z"/><path d="M235.7 223.278a6.037 6.037 0 0 0 1.1.652 5.366 5.366 0 0 0 1 .268 3.524 3.524 0 0 0 .478 0h.507a4.943 4.943 0 0 0 2.174-.949 9.726 9.726 0 0 0 2.732-3.856 18.916 18.916 0 0 0 1.145-9.3 4.434 4.434 0 0 0-.065-.5 17.729 17.729 0 0 0-1.065-3.943 9.828 9.828 0 0 0-2.674-3.776 6.169 6.169 0 0 0-1.109-.667 4.692 4.692 0 0 0-1.036-.29 4.552 4.552 0 0 0-.993 0 4.639 4.639 0 0 0-1.073.3 5.711 5.711 0 0 0-.949.558c1.363 6.675 1.326 13.807-1.493 20.1a7.384 7.384 0 0 0 1.319 1.4Z" transform="translate(-64.513 -74.05)" style="fill:#ace8ef"/><path class="a" d="M155.858 146.394ZM162.684 130.58a7.248 7.248 0 0 0 .529-.92 7.843 7.843 0 0 0 .362-1.283 1.45 1.45 0 0 1 .043-.246 4.066 4.066 0 0 0-.275-2.239 12.024 12.024 0 0 0-1.16-1.95 2.536 2.536 0 0 0-.275-.283 2.021 2.021 0 0 0-.239-.138 10.415 10.415 0 0 0-1.551-.348 15.418 15.418 0 0 0-2.834 0l-.348.073a58.664 58.664 0 0 1-.587 7.972c1.979-.493 4.008-.319 6.008-.58a2.377 2.377 0 0 0 .326-.058ZM155.865 146.394ZM163.612 128.232a1.057 1.057 0 0 1-.036.145.716.716 0 0 0 .036-.145ZM157.213 153.388Z"/><path class="d" d="M131.499 290.156c-.036-.254-.065-.515-.1-.768 0 0-.109-.841-.065-.515a4.417 4.417 0 0 0-.072-.529c.065.515-.065-.464-.072-.551l-.174-1.21a73.41 73.41 0 0 0-4.522-11.6c-.862-1.87-1.812-3.689-2.747-5.53a39.432 39.432 0 0 0-3.008-5.341 27.336 27.336 0 0 0-4.348-4.211 9.784 9.784 0 0 0-1.667-1.022 10.218 10.218 0 0 0-2.174-.42l.319.043a83.329 83.329 0 0 0-11.335 0c-3.848.116-7.777.043-11.6.478a20.749 20.749 0 0 0-4.008 1.036c-1.522.681-2.964 1.573-4.421 2.4a33.172 33.172 0 0 1 11.415.043c3.45.783 7.045 2.174 9.081 5.225a36.962 36.962 0 0 1 7.777 10.77c-.341-.725 0 0 0 0l.036.08c3.261 4.464 5.689 9.422 8.574 14.14 1.449 2.413 3.058 4.725 4.392 7.248s2.754 4.66 4.24 6.958a34.548 34.548 0 0 0 4.24-6.769 20.25 20.25 0 0 0 .986-3.8c.036-.4.058-.8.072-1.2-.188-1.087-.428-2.174-.609-3.261a31.84 31.84 0 0 0-.21-1.694Zm-12.161.435c-2.5-5.378-5.523-10.523-8.509-15.64a51.073 51.073 0 0 1 5.073 7.3 36.6 36.6 0 0 1 3.443 8.4Zm2.971.949a92.783 92.783 0 0 1-6.523-16.669 99.79 99.79 0 0 1 6.559 16.669s-.036.015-.036 0Zm3.747 2.464c-.29-.783-.616-1.558-.935-2.341-2.174-5.073-3.921-10.241-5.979-15.321a37.353 37.353 0 0 1 4.53 8.277 46.955 46.955 0 0 1 2.435 9.386s-.043.014-.051 0Zm2.95 2.508-.464-1.29c0 .072.152.42.464 1.29a103.836 103.836 0 0 1-4.588-19.01c.348 1.413 1.036 2.9 1.45 4.348q.725 2.341 1.3 4.733c.761 3.269 1.326 6.6 1.826 9.915.052.014.012.014.012.014Zm2.254-7.972v.188c.065.123.058.058.022-.188Z"/><path class="a" d="M140.848 262.92c0-.073.08-.145.123-.217.21-.378.551-.979-.123.217ZM163.62 128.131a.515.515 0 0 0 0 .1.821.821 0 0 0 0-.1ZM518.443 156.744Z"/><path class="a" d="M163.794 260.774a9.08 9.08 0 0 1-1.776 0c-1.268-.283-.978-1.783-.978-2.754v-23.917a16.166 16.166 0 0 1-8.074 6.523c-3.935 1.333-7.972.877-11.973.1 1.594-.159 3.2-.3 4.791-.449a39.927 39.927 0 0 0 7.378-1.942l.681-.283a26.53 26.53 0 0 0 4.03-2.384c1.08-.877 2.124-1.8 3.167-2.718v-2.7a51.119 51.119 0 0 1-6.842 5.8 46.747 46.747 0 0 0 6.2-8.936 38.187 38.187 0 0 0 3.53-10.465c.522-4.508.058-9.146.051-13.669v-2.754a9.573 9.573 0 0 1-.2-2.457 102.526 102.526 0 0 0-.681-7.733 52.558 52.558 0 0 0-1.689-6.914c-.638-2.044-1.667-3.964-1.739-6.146a4.5 4.5 0 0 1-2.653 2.174l.275-.145a6.747 6.747 0 0 0 1.8-2.587 32.434 32.434 0 0 0 1.116-4.269v-.116a8.393 8.393 0 0 1-2.24 2.174l.21-.246a10.066 10.066 0 0 0 1.268-2.109 47.946 47.946 0 0 0 1.529-6.211 35.759 35.759 0 0 1 2.037-5.885c.333-1.6.66-3.2.957-4.805.239-1.341.326-2.95 1.189-4.059.058-.5.109-1 .167-1.493.058.37.109.725.167 1.1.326-.333.66-.667.964-1.029.065-.087.13-.188.188-.283.109-.21.225-.42.319-.645.544-1.45.935-2.95 1.449-4.421a23.559 23.559 0 0 0 .652-2.326c.087-.391.167-.783.239-1.181 0-.1.123-.783.138-.848a45.31 45.31 0 0 0 .362-4.856c-.159-3.856-.413-8.168-2.638-11.466a8.1 8.1 0 0 0-.9-.9 14.822 14.822 0 0 0-2.631-1.565 5.7 5.7 0 0 0-1.138-.29 12.081 12.081 0 0 0-2.29.036 6.437 6.437 0 0 0-1.029.246 9.424 9.424 0 0 0-1.348.819 5.511 5.511 0 0 0-.725.667c0 .036-.043.072-.072.109s0 .2 0 .29a8.849 8.849 0 0 1 3.761-.812 3.624 3.624 0 0 1 3.247 1.449 5.675 5.675 0 0 1-.094 7.588.58.58 0 0 1-.145.152 4.348 4.348 0 0 1-1.384.986 3.624 3.624 0 0 1-1.71 0 19.873 19.873 0 0 0-4.508.891l-.3.138a31.07 31.07 0 0 1-3.16 7.3c1.486-.652 2.653.862 3.348 1.906l-.536-.457a8.226 8.226 0 0 0-1.449-.92l-.268-.087a1.826 1.826 0 0 0-1.058.087c-.217.123-.428.254-.638.391a22.8 22.8 0 0 0-1.848 3.08c-.072.174-.13.348-.2.529a2.767 2.767 0 0 0 .449.471 4.074 4.074 0 0 0 .79.457 12.324 12.324 0 0 0 2.261.522 9.688 9.688 0 0 0 1.834 0 1.638 1.638 0 0 0 .486-.116l.116-.072c-.725.8-2.283.812-3.261.725a3.55 3.55 0 0 1-2.848-1.515c-.594 1.79-1.109 3.624-1.725 5.392l.174-1.065c-.609 2.442-1.45 4.754-2.283 7.124a19.114 19.114 0 0 1-3.1 6.233 50.273 50.273 0 0 1-5.289 4.859 73.78 73.78 0 0 0-2.587 2.421l-1.42 1.341a7.206 7.206 0 0 0-1.16 1.138c1.174-2.037 2.4-4.051 3.761-5.972s3.087-3.544 4.544-5.37a16.857 16.857 0 0 0 1.384-2.37 67.713 67.713 0 0 1 3.718-10.233 89.834 89.834 0 0 0 1.884-5.073 24.372 24.372 0 0 1 2.312-4.349 20.775 20.775 0 0 0-.681-2.094 4.9 4.9 0 0 0-.457-.725 2.535 2.535 0 0 0-.377-.362 5.515 5.515 0 0 0-1.065-.6 12.6 12.6 0 0 0-1.884-.486c1.848-.181 3.943.167 4.464 2.225l-.109-.928c0-.167-.13-.848-.188-1.218a45.009 45.009 0 0 0-.3-1.573 13.089 13.089 0 0 1 1.239 4.53c.13-.268.261-.529.377-.8 1.449-3.914 1.8-8.1 2.674-12.161.377-1.718.79-3.7 2.058-5a7.182 7.182 0 0 1 5.146-2.174v-4.957a38.058 38.058 0 0 1-9.538 7.878c-3.674 1.986-7.624 3.493-10.973 5.965a4.8 4.8 0 0 0-.573.58 4.349 4.349 0 0 0-.486.855l-.044.123a12.878 12.878 0 0 0-.58 2.551c-.377 3.348-.319 6.682-1.247 9.958-.906 4.566-2.095 9.023-2.609 13.662a24.1 24.1 0 0 1-1.348 6.487 25.893 25.893 0 0 1-3.457 5.428 25.555 25.555 0 0 0-2.522 7.711c-.333 2.8-.486 5.631-.645 8.451.681 6.008 1.109 12-.2 17.974-1.283 5.834-3.682 11.313-5.407 17.017a72.292 72.292 0 0 0-.986 13.633c.13 2.283.4 4.544.5 6.827s.065 4.551 0 6.827c-.848-3.79-1.761-7.574-2.515-11.386-.072.188-.159.37-.232.551-.66 3.732-1.616 7.248-4.066 10.226a29.2 29.2 0 0 1-4.3 4c-1.623 1.334-3.3 2.6-4.986 3.841-.812.8-1.558 1.674-2.377 2.471 4.348-.348 8.632-.283 12.647 1.587a10.263 10.263 0 0 1 3.725 2.326c.239.188.464.384.689.594a21.8 21.8 0 0 1 4.088 4.66 38.151 38.151 0 0 1 6.755 8.654 34.846 34.846 0 0 1 6.226-11.016c-.862 1.942-1.66 3.914-2.653 5.8a57.708 57.708 0 0 1-3.4 5.53 35.437 35.437 0 0 1 3.218 6.682 39.984 39.984 0 0 1 6.269-11.1 74.582 74.582 0 0 1 9.023-8.878 11.844 11.844 0 0 0-1.087 1.689c-.486.725-.978 1.45-1.449 2.174q-1.406 2.022-2.9 3.964a165.507 165.507 0 0 1-3.131 3.914c-.544.667-1.087 1.333-1.623 2.008l-.761.949c-.123.159-.246.319-.377.471l-.167.217-.036.051a552.865 552.865 0 0 0-3.624 4.82c1.348 4.2 1.449 8.7 1.863 13.089 1.5-1.964 2.935-4 4.522-5.892a90.7 90.7 0 0 1 5.646-7.7 54.19 54.19 0 0 1 10.922-11.19c-.42.138-.841.268-1.254.435-.978.428-1.906.971-2.841 1.493a19.889 19.889 0 0 1 3.58-2.7 30.575 30.575 0 0 1 4.16-1.783l.391-.268-.13.152c1.587-.565 3.2-1.036 4.805-1.551.268-.565.652-1.065.906-1.645a.641.641 0 0 1 .072-.217 8.877 8.877 0 0 0-.5-1.449Zm-6.588-107.382a18.288 18.288 0 0 0-.725 2.863 6.059 6.059 0 0 1 .3-3.095 11.937 11.937 0 0 1 1.623-2.558c-.406.964-.8 1.863-1.189 2.79Zm2.45-6.61c-.515 1.065-1.044 2.116-1.645 3.138s-1.218 1.819-1.667 2.783a1.578 1.578 0 0 1 0 .188l.123.051h-.145c-.232-.92.689-2.384 1.131-3.153a19.974 19.974 0 0 1 2.225-3s-.015-.022-.015-.007Zm-10.146.181a2.579 2.579 0 0 0 .544.507l.4.239a4.352 4.352 0 0 0 .8.181 8.909 8.909 0 0 0 1.391 0 19.271 19.271 0 0 0 5.494-1.848 3.392 3.392 0 0 0 .261-.964 14.06 14.06 0 0 0 .043-1.565 5.124 5.124 0 0 1 .043 3.276c.413-1.087-.341.884 0 0a7.073 7.073 0 0 1-2.037 3.124 10.871 10.871 0 0 1-3.3 1.7 5.009 5.009 0 0 0 .928-.645c.384-.261.768-.536 1.138-.819a10.3 10.3 0 0 0 1.334-1.363 15.084 15.084 0 0 0 1.558-2.718 8.516 8.516 0 0 1-4.856 2.529c-1.449.152-3.1-.138-3.761-1.58.014-.043.022-.058.036-.051Zm-10.227 115.435a169.545 169.545 0 0 1-3.624 5.841 23.467 23.467 0 0 1 6.8-11.487c-1.132 1.826-2.065 3.79-3.176 5.646Zm7.117-9.081a44.274 44.274 0 0 0-2.682 4.566c-.9 1.609-1.812 3.211-2.718 4.82-.072.123-.123.225-.123.217.3-.891.457-1.884.783-2.8a19.112 19.112 0 0 1 1.167-2.682 12.929 12.929 0 0 1 3.906-4.573l-.355.457ZM486.575 137.219v21.018c.355-.725.645-1.45 1.015-2.174s.833-1.326 1.174-2.029a3.557 3.557 0 0 0 .123-.457 3.494 3.494 0 0 0 0-.551 17.521 17.521 0 0 1-.659-2.754c-.043-1.058.145-2.116.051-3.174-.3-1.616-.826-3.174-1.094-4.8s-.435-3.392-.6-5.073c.128 1.364-.01 7.01-.01-.006ZM486.575 125.608v2.247c.094-.652.2-1.3.312-1.95l-.312-.3ZM488.953 125.405c.08-.109.152-.217.239-.326l-.406-.116a1.688 1.688 0 0 1 .145.377.228.228 0 0 0 .022.065Z"/><path d="M554.769 138.627V47.54H256.44v230.869h298.329v-52.6a81.775 81.775 0 0 1-1.392-11.2c-.152-1.877-.362-3.754-.457-5.639a28.906 28.906 0 0 1 .42-5.588 22.322 22.322 0 0 1 1.449-8.038v-40.208c-1.623-1.565-1.971-4.08-1.863-6.24-.674-3.515.478-7.052 1.863-10.248-.267.544-.02-30.381-.02-.021Z" transform="translate(-70.585 -31.84)" style="fill:#22cbff"/><path class="a" d="M580.575 358.76c-.065.196-.058.152 0 0Z"/><path d="M548.644 227.181v23.192c0 7.972.159 15.944 0 23.859-.043 2.116-2.537 1.515-4.037 1.515H248.185c-.725 0-1.71.2-2.276-.355s-.355-1.681-.355-2.428V42.283c0-.783-.116-1.739.783-2.073a8.434 8.434 0 0 1 2.638-.072h296.567a5.5 5.5 0 0 1 2.508.167c.8.471.594 1.522.594 2.3v86.76c.13-.174.261-.348.4-.515a7.777 7.777 0 0 1 7.066-4.066V29.31h-330.6v115.916a10.871 10.871 0 0 1 4.907 2.8 11.777 11.777 0 0 1 2.7 5.3c2.66-1.66 5.653-.573 7.494 1.725 3.472 4.348 3.856 11.118 2.174 16.249-.8 2.508-2.268 5.218-4.754 6.385s-5.008.145-6.7-1.812a12.508 12.508 0 0 1-2.334 2.935c-.051.08-.094.159-.138.239a24.8 24.8 0 0 0-.725 3.921q-.348 1.906-.725 3.8a75.743 75.743 0 0 1-1.906 7.566v14.14c.232.66.42 1.341.616 2.015a31.57 31.57 0 0 1 3.624 9.175 57.588 57.588 0 0 1 1.174 8.842 87.369 87.369 0 0 1 .239 9.241 28.6 28.6 0 0 1-1.45 8.6 33.5 33.5 0 0 1-4.2 7.82v31.055h330.603v-49.474a21.5 21.5 0 0 1-7.465-8.567Zm3.986-107.5a1.2 1.2 0 1 1 1.2-1.2 1.2 1.2 0 0 1-1.2 1.198Zm-.275-15.089a1.213 1.213 0 1 0 0-.029Zm-.094-6.342a1.2 1.2 0 1 1 0 2.392 1.21 1.21 0 0 1 0-2.421Zm-.544 155.821a1.223 1.223 0 1 0 0-.044Z" transform="translate(-62.069 -26.822)" style="fill:#d2f9ff"/><path class="a" d="M180.231 135.559v.232c-.029-.478-.029-.435 0-.232ZM180.267 135.791v.268c.07.334.101.522 0-.268ZM543.918 377.248ZM57.01 308.68l.3.21c-.315-.232-.366-.261-.3-.21ZM500.874 252.237c.188.515.37 1.036.551 1.565a5.161 5.161 0 0 1 .471 1.536c.406-.783.833-1.558 1.254-2.334a2.6 2.6 0 0 1-.551-.964c-.065-.167-.13-.341-.2-.515a50.732 50.732 0 0 0-4.496-8.775c.58 2.131 1.189 4.247 1.87 6.342.377 1.038.739 2.101 1.101 3.145ZM57.306 308.89c.152.123.3.254.457.377s.217.181-.457-.377ZM504.172 125.739c.058.145.072.174.043.094Z"/><path class="a" d="M496.454 208.277a.773.773 0 0 0 .116.1 19.04 19.04 0 0 0 2.356 1.5 4.852 4.852 0 0 1 .652.275 22.745 22.745 0 0 0 3.74.928 13.423 13.423 0 0 1-6.856-.884v13.051a20.786 20.786 0 0 1 5.428 8.893 4.255 4.255 0 0 0-.558-.725l-.725-1.007-1.348-1.892c-.928-1.3-1.863-2.595-2.8-3.877v6.965a67.5 67.5 0 0 1 5.523 6.747 39.961 39.961 0 0 1 4.588 7.769 86.641 86.641 0 0 1 4.464-8.77 28.136 28.136 0 0 1 5.436-7.313c2.174-1.986 5.073-2.986 7.762-4.08a24.513 24.513 0 0 1 9.088-1.66 52.035 52.035 0 0 1-3.231-7.12 44.33 44.33 0 0 1-2.537-7.247 21.829 21.829 0 0 1-1.928-9.7c0-6.008 1.377-11.857 1.834-17.822.471-6.153 0-12.321-.341-18.43-.848-5.167-1.877-10.241-2.4-15.481a41.459 41.459 0 0 1-.558-8.632 60.476 60.476 0 0 0 .167-8.342 6.747 6.747 0 0 0-.384-1.45 4.249 4.249 0 0 0-.391-.681 2.867 2.867 0 0 0-.362-.362 14.881 14.881 0 0 0-2.312-1.073q-4.762-1.631-9.465-3.435c-2.711-.725-5.581-1.29-7.726-3.254a2.174 2.174 0 0 1-.725-.573 43.328 43.328 0 0 0 1.268 5.167l.043.1-.043-.094s.065.152 0 .08c.4.913.79 1.841 1.254 2.725.384.725.9 1.355 1.348 2.044a11.314 11.314 0 0 1 .819 1.152 13.813 13.813 0 0 1 2.7-4.8 39.621 39.621 0 0 0-2.174 5.617l.616 1a6.606 6.606 0 0 1 3.276-4.406c-.29.333-.565.681-.848 1.029a13.843 13.843 0 0 0-1.718 2.9 10.08 10.08 0 0 0-.312 1.08c1.971 2 4.124 3.972 5.436 6.487s.92 5.508.87 8.291c.891 2.558 1.921 5.073 2.9 7.617.29.681.565 1.37.833 2.058a8.352 8.352 0 0 0-.993-1.413c-.362-.565-.725-1.131-1.044-1.718a25.359 25.359 0 0 1-1.7-3.819c.138 2.247.377 4.486.652 6.726-.544-2.174-1.587-4.269-2.08-6.479a63.681 63.681 0 0 1-1.044-7.11 11.4 11.4 0 0 0-.536-2.174 40.012 40.012 0 0 0-4.885-6.776 1.1 1.1 0 0 0 0 .159v-.261a25.573 25.573 0 0 1-3.073-5.254 17.329 17.329 0 0 1-2.471-5.617 28.794 28.794 0 0 1-.355-1.768 5.174 5.174 0 0 1-2.979 2.268c-1.268.2-2.406-.551-1.855-1.855a.558.558 0 0 0 0 .109v.355a.642.642 0 0 0 .058.239 1.357 1.357 0 0 0 .29.464l.21.159a1.71 1.71 0 0 0 1.044.08h-.072a3.26 3.26 0 0 0 .587-.188 9.738 9.738 0 0 0 1.268-.725l-.058.043c.507-.391.993-.8 1.45-1.2a17 17 0 0 0-.616-2.819c-.42-.87-.971-1.652-1.4-2.515a12.261 12.261 0 0 1-.884-2.653 25.092 25.092 0 0 1-.906-6.443l-.044-.37a3.733 3.733 0 0 1-4.349 1.3 4.653 4.653 0 0 1-2.616-3.385 6 6 0 0 1 1.37-4.588c1.094-1.515 2.942-.942 4.573-.913a1.445 1.445 0 0 0-.232-.13 11.859 11.859 0 0 0-2.116-.515 6.313 6.313 0 0 0-1.384 0 7.246 7.246 0 0 0-1.616.42 10.583 10.583 0 0 0-1.848 1.109 6.575 6.575 0 0 0-1.015.993 28.827 28.827 0 0 0-1.906 3.551 66.762 66.762 0 0 0-1.834 7.7 19.268 19.268 0 0 0-.159 2.225 14.99 14.99 0 0 0 .964 4.095 15.293 15.293 0 0 0 1.37 2.479 12.031 12.031 0 0 1 1.334 1.681 1.864 1.864 0 0 1 .145.188c.268.181.544.355.819.529a8.574 8.574 0 0 0 1.2-1.493c-.42.964-.862 2.08-1.3 2.957-.044.1-.073.2-.109.312 0 1.413-.08 2.841-.159 4.262.406 2.326.957 4.638 1.174 6.994s.08 4.928.312 7.378l.087.616a9.347 9.347 0 0 0 .37 1.45 5.908 5.908 0 0 0 .623 1.051 3.123 3.123 0 0 0 .573.544c.428.29.862.551 1.3.8a5.4 5.4 0 0 1-2.783-1.268 28.182 28.182 0 0 0 .131 3.225 4.2 4.2 0 0 0 .29.884c0 .065.08.13.123.2l.043-.072a.148.148 0 0 1-.036.094 3.771 3.771 0 0 0 .855 1.16 3.863 3.863 0 0 0 1.058.616 3.2 3.2 0 0 1-2.123-1.044c-.1 1.486-1.116 2.711-1.7 4.03-.072.2-.348.841-.5 1.181-2.232 5.675-2.493 12.009-1.8 18.025a66.608 66.608 0 0 1 .87 7.856c.123 2.587-.043 5.146.246 7.726a31.78 31.78 0 0 0 1.783 6.523 29.409 29.409 0 0 0 3.283 5.8 22.8 22.8 0 0 0 3.261 3.428h.079Zm27.323-17.727a47.9 47.9 0 0 1-2.993 8.2c.638-2.942 1.2-5.907 1.913-8.827.355-1.45.725-2.9 1.131-4.349.2-.725.391-1.384.6-2.08a8.914 8.914 0 0 0 .565-1.768 51.453 51.453 0 0 1-1.239 8.82Zm1.094-15.908a46.531 46.531 0 0 1-2.471 14.017 7.251 7.251 0 0 0 .29-1.45c.094-.486.188-.978.275-1.449.2-1.087.42-2.174.6-3.247.051-.3.123-.725 0-.051.428-2.638.92-5.218 1.283-7.82Zm-.565-6.827.044-.232-.044.232c-.044.464.08 1.167.08 1.587v2.109c-.043 1.449-.116 2.9-.283 4.348a40.979 40.979 0 0 1-.768 4.283 49.084 49.084 0 0 1-.493 2.037c-.13.493-.464 1.2-.565 1.739v.029c.3-2.7.471-5.392.8-8.081s.7-5.378 1.2-8.052Zm-1.508-6.7a49.927 49.927 0 0 1 .167 8.769v-.754 1.283-.536a42.399 42.399 0 0 1-.457 3.624c-.109.6-.217 1.2-.348 1.8a8.931 8.931 0 0 0-.355 1.449c.442-5.167.573-10.407.971-15.626Zm-2.276-2.841a29 29 0 0 1 .667 12.074 6.648 6.648 0 0 0 0-1.312c0-.536 0-1.073-.051-1.6-.145-3.058-.5-6.1-.623-9.161h-.014Zm-29.715-40.361a26.348 26.348 0 0 1-.181-1.928c.217 0 .616 2.174.652 2.406a12.112 12.112 0 0 1 .174 1.45 8.247 8.247 0 0 0 0 1.044 21.714 21.714 0 0 1-.681-2.971Zm1.971 4.609a32.253 32.253 0 0 1-.551-4.646c.217 0 .486 1.935.515 2.174a13.715 13.715 0 0 1 0 2.471Zm.913 1.449a16.352 16.352 0 0 1 0-4.53 14.837 14.837 0 0 1-.036 4.53Zm.442 76.918h-.058v-.391a1.481 1.481 0 0 0 .072.3c.022.1-.043.043-.051.094Zm1.036-80.128a2.9 2.9 0 0 1 1.732-2.413c1.29-.42 2.123.638 2.711 1.609a5.668 5.668 0 0 0-1.341-1.08 1.566 1.566 0 0 0-.725-.123 2.8 2.8 0 0 0-.58.174s-.087.051-.109.058a5.276 5.276 0 0 0-.6.384 7.076 7.076 0 0 0-.536.507 4.151 4.151 0 0 0-.587.884Zm.877.594v.109a1.317 1.317 0 0 0 0 .413l.08.2c.036.065.072.13.116.2a1.188 1.188 0 0 0 .3.3 4.349 4.349 0 0 0 1.631.544 5.557 5.557 0 0 0 1.3 0l.312-.043a3.283 3.283 0 0 1-2.812.217c-.754-.362-1.355-1.094-.964-1.928ZM622.43 306.955ZM548.265 239.257Z"/><path class="d" d="M548.266 239.26c-1.638-1.971-3.385-3.841-5.073-5.8-.8-.913-1.631-1.783-2.4-2.718a18.9 18.9 0 0 0-2.428-2.674 4.008 4.008 0 0 0-2.08-.87c-4.733-.391-9.291 1.131-13.683 2.7a18.249 18.249 0 0 0-3.682 2.21 24.11 24.11 0 0 0-3.218 3.276c-1.45 1.957-2.979 3.914-4.392 5.914a95.258 95.258 0 0 0-2.29 4.646 83.344 83.344 0 0 1-5.008 12.879 34.054 34.054 0 0 1-3.334 5.508c-1.3 1.725-2.7 3.377-3.986 5.117-.406.652-.819 1.3-1.261 1.921-.109.2-.21.406-.3.616-.3.725-.6 1.486-.942 2.218v.087c1.225 2.573 2.718 5.073 4.16 7.494.486.594.986 1.181 1.45 1.768a82.374 82.374 0 0 0 12.473-11.2 64.525 64.525 0 0 1 4.588-7.378 74.44 74.44 0 0 0 4.834-7.247 24.918 24.918 0 0 1-1.573 4.812c2.609-3.261 4.849-6.8 7.45-10.052a19.245 19.245 0 0 1 3.935-4.283 30.188 30.188 0 0 1 4.508-3.334 19.688 19.688 0 0 1 4.349-2.073 42.09 42.09 0 0 1 8.552-2.819c-.21-.239-.428-.486-.631-.725.054.083.031.054-.018.007Zm-37.926 10a70.787 70.787 0 0 1 5.494-11.154c-1.529 3.87-2.957 7.777-4.443 11.668v.072c-1.094 2.841-.268.689 0 .043-1.4 3.624-2.9 7.247-4.385 10.871a102.4 102.4 0 0 1 3.334-11.5Zm-3.74 15.8c1.7-7.972 5-15.386 8.8-22.554a103.159 103.159 0 0 1-4.2 12.516c-1.449 3.392-3.138 6.653-4.588 10.038Zm1.348-.428c.92-2.442 2.022-5.073 2.9-7.378a120.542 120.542 0 0 1 5.436-11.132c-2.363 6.342-4.841 12.7-8.306 18.5h-.022Zm.725 3.2c-.1-.043 0-.239.051-.268 1.4-3.124 2.8-6.247 4.428-9.248a142.631 142.631 0 0 1 2.558-4.5l1.261-2.08a17.367 17.367 0 0 0 .993-1.449.654.654 0 0 1 .08-.2.558.558 0 0 1-.072.188c-.862 2.377-.225.616 0 0a75.373 75.373 0 0 1-3.964 9.284 58.81 58.81 0 0 1-2.573 4.435c-.254.362-2.457 3.972-2.769 3.841Zm6.755-4.725a36.46 36.46 0 0 1-5.928 7.32s.254-.544.326-.66c.188-.341.391-.674.587-1.007.428-.725.855-1.406 1.276-2.109.833-1.449 1.587-2.9 2.413-4.3a60.253 60.253 0 0 1 5.588-7.922s-2.225 2.718 0 0a85.52 85.52 0 0 1-4.269 8.675Z"/><path class="a" d="M31.889 334.793ZM517.964 250.243a.6.6 0 0 1 .072-.188l-.072.2ZM506.166 247.04c.058-.159.13-.319.188-.478l-.565-.725c-1.645-2.044-3.464-3.943-5.073-6.044a57.456 57.456 0 0 1-4.349-6.842v5.189a62.286 62.286 0 0 1 8.052 12.429 34.5 34.5 0 0 0 1.747-3.529ZM529.227 273.632v-.044c.065-.311.087-.449 0 .044ZM496.802 118.998l.058-.043c-.066.036-.073.043-.058.043Z"/><path class="b" d="M67.134 399.593q.522-.891 1.022-1.783a699.85 699.85 0 0 1 5.856-15.553c1.79-4.609 3.624-9.212 5.624-13.77a80.447 80.447 0 0 1 6.9-12.321c1.319-1.971 2.754-3.863 4.037-5.856s2.5-3.979 3.689-6a110.733 110.733 0 0 0 6.631-12.538 65.841 65.841 0 0 0 2.174-6.776c.551-2.319.92-4.66 1.312-7 .558-4.53.913-9.074 1.529-13.589 0 4.907.087 9.936-.159 14.879a63.2 63.2 0 0 1-1.942 12.922 71.619 71.619 0 0 1-4.812 12.27 130.381 130.381 0 0 1-6.226 12c-2.355 3.9-4.638 7.864-6.682 11.937 1.45-1.776 2.9-3.479 4.276-5.305s2.493-3.544 3.819-5.262c2.051-3.211 4.348-6.24 6.617-9.3 2.058-2.747 4.146-5.486 6.378-8.1s4.573-4.994 6.755-7.581 4.269-5.2 6.291-7.885a43.75 43.75 0 0 0 5.262-8.074 11.7 11.7 0 0 0 .573-2.1 9.419 9.419 0 0 0 0-1.754 10.674 10.674 0 0 0-.2-.935 17.6 17.6 0 0 1-1.819-2.957q-.928-1.631-1.747-3.312c-1.1-2.254-2.116-4.559-3.283-6.784-2.377-4.537-4.928-9-7.429-13.473a60.822 60.822 0 0 1-.833-1.4c-.565-.862-1.152-1.7-1.645-2.609a64.752 64.752 0 0 0-4.733-6.059 24.554 24.554 0 0 1-2.261-2.993c-.652-1.058-1.181-2.174-1.841-3.24-.312-.283-.616-.573-.942-.833a13.682 13.682 0 0 0-2.4-1.406 30.336 30.336 0 0 0-5.965-1.884 32.836 32.836 0 0 0-6.907 0c-4.124.594-8.037 1.993-12.125 2.725a52.8 52.8 0 0 1-12.654.319c-6.284 0-12.321-1.45-18.452-2.479a9.531 9.531 0 0 0-1.819 0 11.287 11.287 0 0 0-1.674.413 65.1 65.1 0 0 0-5.668 5.8c-1.877 1.986-3.848 3.877-5.856 5.733-7.168 6.631-14.285 13.328-21.742 19.626-1.316 1.119-2.657 2.177-4.012 3.243v115.547h27.294a100.54 100.54 0 0 0 2.515-7.661c1.239-4.435 2.174-8.965 3.182-13.451s2.174-9.088 3.254-13.618a118.765 118.765 0 0 1 3.985-12.952 66.586 66.586 0 0 0 3.776-12.77 22.742 22.742 0 0 0 .08-4.711 17.576 17.576 0 0 0-.971-3.7c-2.334-5.073-6.892-9.038-11.219-12.408h-.043c-1.768-1.355-3.566-2.667-5.363-4 6.1 3.856 12.719 7.784 17.1 13.676l-.573-.775c.109.145 2.283 3.066.573.775 3.406 4.566 4.167 10.1 3.66 15.647s-1.826 10.7-2.79 16.082-1.689 10.69-2.7 16.01-2.174 10.487-3.667 15.626a73.846 73.846 0 0 1-2.971 8.226h20.865c1.022-1.689 2.044-3.385 3.095-5.073 2.471-3.925 5.37-7.599 8.001-11.426Zm-3.1-31.643a8.313 8.313 0 0 0 0-2.174c0-.768-.065-1.536-.109-2.3-.1-1.587-.246-3.174-.355-4.762a199.949 199.949 0 0 1-1.7-20.808 4.892 4.892 0 0 0 .3.862c.138.435.268.87.4 1.3.246.819.478 1.638.725 2.464q.725 2.631 1.261 5.291c-.725-3.363.232 1.1 0 0a41.869 41.869 0 0 1-.522 20.126Zm3.624-9.661c-.174-4.827-.66-9.625-1-14.444.159 2.247-.391-2.848 0 0a241.936 241.936 0 0 1-1.761-17.64c1.08 5.37 2.218 10.7 2.942 16.126a60.451 60.451 0 0 1-.159 15.959Zm-42.125-57.682Zm6.936 1.507c-6.117.833-12.364.319-18.5-.188 1.971-.188 3.935-.4 5.907-.623l2.95-.348 1.392-.167.775-.094c.087 0 .689-.094.362-.043l.261-.036.365-.052.442-.065c.341-.058.689-.109 1.029-.174.689-.116 1.37-.246 2.051-.391q2.044-.42 4.059-.993a58.344 58.344 0 0 0 8.023-2.855c4.74-2.131 9.422-4.414 14.169-6.523s9.19-4.349 14.154-5.6a32.527 32.527 0 0 1 14.567-.362c4.682.978 8.7 3.5 12.6 6.146a.919.919 0 0 1 .29.2l-.29-.2c-.333-.174-.8-.319-1.065-.449l-1.631-.754c-.986-.464-1.986-.92-3.008-1.312a30.968 30.968 0 0 0-6.479-1.768 34.79 34.79 0 0 0-7.972-.065 39.818 39.818 0 0 0-10.1 2.964c-2.776 1.225-5.363 2.754-8.066 4.109-2.848 1.45-5.755 2.725-8.7 4.008s-5.624 2.537-8.538 3.559a46.674 46.674 0 0 1-9.052 2.116Zm20.293 72.605v-.2a117.713 117.713 0 0 1-2.029 15.031c.333-5.53.515-11.067.906-16.6s1.051-11.212 1.812-16.836c0 6.088-.225 12.321-.725 18.4.4-4.747.087-.761.014.2Zm4.269-66.036a20.471 20.471 0 0 0-3.8-2.254 21.7 21.7 0 0 0-5.015-1.283h-.072a31.021 31.021 0 0 0-6.24-.3 69.668 69.668 0 0 0-6.581.471c5.073-.833 10.465-1.363 15.589-.515a24.6 24.6 0 0 1 11.6 5.515 27.006 27.006 0 0 1 7.421 10.748 42.6 42.6 0 0 1 2.682 13.14c.167 2.348.239 4.7.3 7.045.036 1.254.065 2.5.08 3.747v1.877a7.132 7.132 0 0 0 0 1.565c-.725-3.138-1.348-6.276-1.928-9.422-.551-2.986-1.007-6-1.66-8.972a42.036 42.036 0 0 0-7.074-16.285 30.272 30.272 0 0 0-4.551-4.486c-.239-.167-.66-.5-.768-.587Zm1.37 69.989a.827.827 0 0 0 0-.167 13.647 13.647 0 0 0-.043-1.558v-5.474c0-2.3-.087-4.595-.159-6.885a145.348 145.348 0 0 1 .355-14.865c.587 4.914 1.167 9.828 1.312 14.778a55.87 55.87 0 0 1-1.449 14 .827.827 0 0 1 0 .167s.471-2.174-.036 0Z"/><path d="M155.857 146.395ZM158.502 146.75c-.34.884.413-1.087 0 0Z"/><path d="M158.459 143.474a14.061 14.061 0 0 1-.043 1.565 3.392 3.392 0 0 1-.261.964 19.271 19.271 0 0 1-5.494 1.848 8.91 8.91 0 0 1-1.392 0 4.349 4.349 0 0 1-.8-.181l-.4-.239a2.58 2.58 0 0 1-.544-.507c.66 1.449 2.326 1.732 3.761 1.58a8.516 8.516 0 0 0 4.856-2.529 15.082 15.082 0 0 1-1.558 2.718 10.3 10.3 0 0 1-1.334 1.363c-.37.283-.725.558-1.138.819a5.008 5.008 0 0 1-.928.645 10.871 10.871 0 0 0 3.3-1.7 7.074 7.074 0 0 0 2.037-3.124 5.124 5.124 0 0 0-.065-3.225ZM157.423 149.765c-.442.768-1.363 2.232-1.131 3.153h.145l-.123-.051a1.572 1.572 0 0 0 0-.188c.449-.964 1.123-1.855 1.667-2.783s1.131-2.073 1.645-3.138a19.976 19.976 0 0 0-2.2 3.008ZM156.741 153.156a6.059 6.059 0 0 0-.3 3.095 18.291 18.291 0 0 1 .725-2.863c.391-.928 0 0 0 0 .391-.928.8-1.848 1.167-2.783a11.938 11.938 0 0 0-1.592 2.551ZM135.68 268.247c1.21-1.935 2.428-3.87 3.624-5.841 1.109-1.855 2.058-3.819 3.218-5.639a23.467 23.467 0 0 0-6.842 11.48ZM135.68 268.247ZM140.971 262.702c-.043.072-.087.145-.123.217s.051-.094.123-.217Z"/><path d="M146.708 252.867a12.93 12.93 0 0 0-3.906 4.573 19.108 19.108 0 0 0-1.167 2.682c-.326.913-.486 1.906-.783 2.8.674-1.2.333-.594.123-.217.906-1.609 1.819-3.211 2.718-4.82a44.265 44.265 0 0 1 2.682-4.566l.355-.457a.073.073 0 0 1-.022.005ZM137.478 275.204ZM131.281 288.54c.036.261.043.326 0 .188ZM119.337 290.591v.044ZM119.359 290.634a36.6 36.6 0 0 0-3.443-8.4 51.072 51.072 0 0 0-5.073-7.3c2.986 5.117 6.008 10.262 8.509 15.64-.131-.23-.696-1.455.007.06ZM122.309 291.538ZM122.309 291.54a99.79 99.79 0 0 0-6.559-16.669c1.457 5.747 4.015 11.292 6.559 16.669ZM125.128 291.685ZM119.171 276.35c2.058 5.073 3.827 10.277 5.979 15.321.319.783.645 1.558.935 2.341a46.957 46.957 0 0 0-2.377-9.378 37.355 37.355 0 0 0-4.537-8.284ZM128.563 295.215ZM129.006 296.512c-.312-.87-.442-1.218-.464-1.29Z"/><path d="M125.918 281.85c-.442-1.449-1.131-2.942-1.45-4.349a103.834 103.834 0 0 0 4.537 19.01c-.5-3.319-1.065-6.646-1.826-9.915q-.529-2.405-1.261-4.746ZM32.469 302.114ZM69.909 283.96c-4.965 1.254-9.494 3.551-14.154 5.6s-9.422 4.348-14.169 6.523a58.34 58.34 0 0 1-8.023 2.855q-2.015.565-4.059.993c-.681.145-1.363.275-2.051.391-.341.065-.725.116-1.029.174l-.442.065-.362.051-.261.036c.326-.051-.275 0-.362.043l-.775.094-1.392.167-2.95.348c-1.971.225-3.935.435-5.907.623 6.131.507 12.379 1.022 18.5.188a46.676 46.676 0 0 0 9.052-2.116c2.9-1.022 5.718-2.312 8.538-3.559s5.8-2.587 8.7-4.008c2.7-1.355 5.291-2.9 8.066-4.109a39.818 39.818 0 0 1 10.1-2.964 34.79 34.79 0 0 1 7.972.065 30.972 30.972 0 0 1 6.479 1.768c1.022.391 2.022.848 3.008 1.312l1.631.79c.268.13.725.275 1.065.449-3.892-2.645-7.914-5.167-12.6-6.146a32.526 32.526 0 0 0-14.567.362ZM97.073 289.743l.29.2a.92.92 0 0 0-.29-.2ZM25.53 300.607ZM72.993 344.997c0-1.247-.043-2.493-.08-3.747-.065-2.348-.138-4.7-.3-7.045a42.6 42.6 0 0 0-2.7-13.176 26.928 26.928 0 0 0-7.42-10.747 24.6 24.6 0 0 0-11.6-5.515c-5.124-.848-10.5-.319-15.589.515a67.632 67.632 0 0 1 6.581-.471 31.016 31.016 0 0 1 6.24.3h.068a21.7 21.7 0 0 1 5.015 1.283 20.473 20.473 0 0 1 3.8 2.254c-.065-.051 0 0 .3.21.725.558.674.551.457.377a30.273 30.273 0 0 1 4.559 4.515 42.036 42.036 0 0 1 7.074 16.278c.652 2.971 1.109 5.986 1.66 8.972.58 3.16 1.239 6.3 1.928 9.422a7.131 7.131 0 0 1 0-1.565c.018-.606.007-1.236.007-1.86Z"/><path d="M57.009 308.681c.109.087.529.42.725.587-.159-.123-.3-.254-.457-.377ZM48.152 305.137ZM66.677 343.838c-.392-2.849.154 2.246 0 0Z"/><path d="M64.916 326.227c.37 5.878.957 11.806 1.761 17.64.341 4.82.826 9.617 1 14.444a60.451 60.451 0 0 0 .181-15.945c-.724-5.478-1.862-10.805-2.942-16.139ZM64.508 347.839c.227 1.101-.73-3.363 0 0Z"/><path d="M63.249 342.548a50.878 50.878 0 0 0-.725-2.464c-.13-.435-.261-.87-.4-1.3a4.893 4.893 0 0 1-.3-.862c.283 6.943.725 13.922 1.7 20.808.109 1.587.254 3.174.355 4.762.043.768.087 1.536.109 2.3a8.313 8.313 0 0 1 0 2.174 41.869 41.869 0 0 0 .515-20.126q-.544-2.661-1.254-5.292ZM58.379 378.673a.826.826 0 0 0 0-.167.262.262 0 0 1 0 .167ZM58.379 378.67ZM59.864 364.503c-.145-4.95-.725-9.864-1.312-14.778-.341 4.936-.507 9.922-.355 14.865.072 2.29.145 4.588.159 6.885v5.472a13.644 13.644 0 0 1 .043 1.558 55.87 55.87 0 0 0 1.464-14ZM52.733 374.785ZM52.755 374.517a2.853 2.853 0 0 0 0 .29c.036-.747.376-5.19 0-.29ZM51.646 372.951c-.391 5.53-.573 11.067-.906 16.6a117.714 117.714 0 0 0 2-15.031c.471-6.1.725-12.321.725-18.4-.775 5.619-1.42 11.2-1.819 16.831ZM52.726 374.857ZM43.079 343.679l.573.776c1.71 2.29-.464-.631-.573-.776ZM43.079 343.679ZM31.947 334.822Z"/><path d="M41.804 392.237c1.015-5.32 1.739-10.683 2.7-16.01s2.3-10.683 2.8-16.126-.254-11.081-3.66-15.647c-4.348-5.892-10.994-9.82-17.1-13.676 1.8 1.334 3.624 2.645 5.363 4h.043c4.348 3.37 8.885 7.334 11.219 12.408a17.577 17.577 0 0 1 .971 3.7 22.743 22.743 0 0 1-.08 4.711 66.587 66.587 0 0 1-3.776 12.77 118.757 118.757 0 0 0-3.969 12.948q-1.667 6.8-3.254 13.618c-1.036 4.486-1.942 9.016-3.182 13.451a95.921 95.921 0 0 1-2.515 7.661h7.801a73.85 73.85 0 0 0 2.971-8.233c1.501-5.088 2.668-10.321 3.668-15.575ZM491.423 119.826a12.1 12.1 0 0 0-.174-1.449c-.036-.239-.435-2.406-.652-2.406.036.609.116 1.515.181 1.928a21.706 21.706 0 0 0 .667 2.95 8.228 8.228 0 0 1-.022-1.022ZM492.185 117.869a32.243 32.243 0 0 0 .551 4.646 13.726 13.726 0 0 0-.044-2.5c-.017-.211-.29-2.146-.507-2.146ZM493.648 119.448a16.352 16.352 0 0 0 0 4.53 14.831 14.831 0 0 0 0-4.53ZM496.801 118.999s.138-.065.109-.058h-.051Z"/><path d="M496.852 118.347a2.9 2.9 0 0 0-1.732 2.413 4.161 4.161 0 0 1 .529-.877 7.083 7.083 0 0 1 .536-.507 5.274 5.274 0 0 1 .6-.384l.058-.043h.051a2.8 2.8 0 0 1 .58-.174 1.566 1.566 0 0 1 .725.123 5.668 5.668 0 0 1 1.341 1.08c-.564-.993-1.398-2.051-2.688-1.631ZM499.773 123.065ZM499.454 123.094a5.557 5.557 0 0 1-1.3 0 4.348 4.348 0 0 1-1.631-.544 1.187 1.187 0 0 1-.3-.3 1.892 1.892 0 0 1-.116-.2l-.08-.2a1.317 1.317 0 0 1 0-.413v-.109c-.391.833.21 1.565.949 1.921a3.283 3.283 0 0 0 2.812-.217ZM518.45 156.773ZM521.095 167.442c.051.971 0-.87 0 0Z"/><path d="M520.479 158.281c.123 3.058.478 6.1.623 9.161 0-.87.051.971 0 0 0 .529.043 1.065.051 1.6a6.658 6.658 0 0 1 0 1.312 29.28 29.28 0 0 0-.667-12.074ZM523.001 169.463ZM523.008 169.398ZM523.037 169.014ZM523.03 169.152ZM522.979 169.681ZM523.037 169.014ZM522.965 169.891ZM522.965 169.891ZM522.921 170.406a3.417 3.417 0 0 1 .043-.544c-.021.261-.036.471-.043.544Z"/><path d="M522.798 161.122c-.4 5.218-.529 10.458-.971 15.669a8.925 8.925 0 0 1 .355-1.449c.13-.6.239-1.2.348-1.8.2-1.2.355-2.406.457-3.624a49.918 49.918 0 0 0-.188-8.8ZM522.921 170.406ZM524.284 167.818l.043-.232a1.017 1.017 0 0 0-.043.232ZM522.189 184.172v-.254a1.571 1.571 0 0 0 0 .254ZM522.218 183.922c.072-.602.203-1.776 0 0ZM522.189 184.176v-.283Z"/><path d="M524.284 167.818c-.5 2.674-.935 5.349-1.268 8.052s-.507 5.385-.8 8.081c.2-1.776.072-.6 0 0 .1-.544.435-1.247.565-1.739a48.7 48.7 0 0 0 .493-2.037c.312-1.413.594-2.848.768-4.283s.239-2.9.283-4.348v-2.109c.039-.479-.085-1.153-.041-1.617ZM523.559 182.466v-.051c.123-.652.051-.246 0 .051Z"/><path d="M523.574 182.415c-.073.435-.051.275 0 .051-.181 1.087-.406 2.174-.6 3.247-.087.493-.181.986-.275 1.449a7.25 7.25 0 0 1-.29 1.45 46.535 46.535 0 0 0 2.471-14.017c-.393 2.653-.883 5.233-1.306 7.82ZM523.791 185.625q-.6 2.174-1.131 4.348c-.725 2.9-1.276 5.885-1.913 8.827a47.9 47.9 0 0 0 2.993-8.2 51.459 51.459 0 0 0 1.2-8.813 8.907 8.907 0 0 1-.565 1.768c-.193.621-.381 1.345-.584 2.07ZM511.405 249.788v.072c.029-.159.029-.159 0-.072ZM515.833 238.1a70.781 70.781 0 0 0-5.494 11.154 102.405 102.405 0 0 0-3.363 11.487c1.493-3.624 2.986-7.2 4.385-10.871l.043-.116c1.449-3.892 2.9-7.8 4.443-11.668.001.014-.006.014-.014.014ZM511.376 249.86v.043c-.269.646-1.095 2.798 0-.043Z"/><path d="M511.376 249.857v-.072l-.043.116ZM515.406 242.504c-3.8 7.168-7.1 14.582-8.8 22.554 1.45-3.385 3.167-6.646 4.588-10.038a103.181 103.181 0 0 0 4.2-12.516s.019-.007.012 0ZM511.217 255.027ZM516.261 246.12a120.56 120.56 0 0 0-5.436 11.132c-.848 2.334-1.95 4.936-2.9 7.378 3.464-5.8 5.943-12.176 8.3-18.51h.036ZM517.964 250.244c-.225.609-.863 2.377 0 0Z"/><path d="M515.703 253.81a144.918 144.918 0 0 0-2.558 4.5c-1.631 3-3.029 6.124-4.428 9.248 0 0-.152.225-.051.268.312.13 2.515-3.479 2.768-3.877.92-1.449 1.783-2.9 2.573-4.435a75.38 75.38 0 0 0 3.95-9.255 17.412 17.412 0 0 1-.993 1.449ZM517.964 250.244a.6.6 0 0 1 .072-.188Z"/><path d="m517.957 250.259.072-.2a1.59 1.59 0 0 1-.072.2ZM514.108 262.326c-.826 1.449-1.58 2.9-2.413 4.3-.42.725-.848 1.406-1.276 2.109-.2.333-.4.667-.587 1.007-.073.116-.312.645-.326.66a36.465 36.465 0 0 0 5.907-7.3 85.539 85.539 0 0 0 4.3-8.7 60.26 60.26 0 0 0-5.6 7.921ZM519.696 254.404ZM574.147 321.791ZM574.313 321.465v-.011ZM608.521 295.258l.652.072a2.941 2.941 0 0 0-.652-.072ZM574.929 320.248ZM598.071 295.411a32.526 32.526 0 0 0-10.066 3.391 48.789 48.789 0 0 0-8.625 6.653 47.44 47.44 0 0 0-7.436 7.972 59.017 59.017 0 0 0-9.349 19.431 69.122 69.122 0 0 0-1.45 22.638 131.027 131.027 0 0 0 1.86 13c.8 4.269 1.573 8.545 2.58 12.77a12.322 12.322 0 0 1 0-2.479v-2.783c0-1.8.058-3.624.065-5.407 0-3.624 0-7.247.094-10.871a114.576 114.576 0 0 1 2.515-21.779 70.2 70.2 0 0 1 3.689-11.422c.776-1.7 1.493-3.421 2.341-5.073l-.167.326.167-.333.616-1.21-.594 1.167a62.552 62.552 0 0 1 6.711-11.067c2.732-3.392 5.312-6.849 8.7-9.516a28.4 28.4 0 0 1 9.2-4.349 29.229 29.229 0 0 1 5.073-.942c.855-.08 1.71-.123 2.573-.145.536 0 1.29-.123 1.921-.116a37.955 37.955 0 0 0-10.418.144ZM605.666 296.751h.043ZM123.7 194.25ZM622.364 306.862l-.065-.08ZM125.693 311.732ZM495.004 108.94ZM163.967 202.94ZM109.829 278.488ZM506.165 247.041c-.109.261.058-.16 0 0ZM486.575 125.609ZM488.952 125.406Z"/><path d="M640.055 319.823c-2.79-1.6-5.631-3.167-8.277-5s-5.073-3.841-7.53-5.8a36.747 36.747 0 0 1-1.95-2.247l.065.08-.072-.087c-.145-.188-.3-.4-.435-.558a186.04 186.04 0 0 1-2.174-3.124 84.941 84.941 0 0 0-3.624-7.835 28.305 28.305 0 0 0-4.928-6.24c-4.022-3.986-8.958-6.827-13.466-10.2-2.725-2.044-5.414-4.131-8.153-6.16a71.858 71.858 0 0 1-7.646-7.574c-2.5-2.624-5.414-5.189-7.856-8.059a70.814 70.814 0 0 0-5.385-6.581 52.141 52.141 0 0 0-7.03-8.03 12.06 12.06 0 0 0-10-2.9c-2.587-3.153-5.378-6.175-8.124-9.19-1.6-2.66-3.385-5.668-6.472-6.7l-.2-.116a5.546 5.546 0 0 1-.587-.58c-.833-1.254-1.449-2.674-2.174-3.993s-1.558-2.856-2.363-4.269c.087-.58-.413-1.094-.652-1.594-.268-.725-.312-1.855-.862-2.421a4.538 4.538 0 0 0-.333-1.87c-.159-.631-.319-1.261-.471-1.892-.326-1.29-.674-2.566-.935-3.877.109-3.08.522-6.153.8-9.226s.283-5.972.326-8.965a104.964 104.964 0 0 0 .08-17.01 51.1 51.1 0 0 0-.348-6.313 62.789 62.789 0 0 0-1.58-10.509 39.244 39.244 0 0 1-1.181-10.6c.109-3.443.9-7.248-.152-10.61a5.146 5.146 0 0 0-2.942-3.3c-1.616-.725-3.218-1.45-4.863-2.1a55.194 55.194 0 0 0-5.537-1.863 59.007 59.007 0 0 1-5.689-1.58 13.629 13.629 0 0 1-2.276-1.254 28.349 28.349 0 0 0-2.131-1.558c-1.863-3.015-2.558-6.8-3.182-10.241-.167-2-.159-4.059-.464-6.044-.275-1.841-.993-3.095-2.9-3.493V2.531c0-.775.2-1.8-.594-2.268s-2.015-.167-2.827-.167H162.88c-.79 0-1.616.058-1.812.986a16.567 16.567 0 0 0 0 3.392v106.335c-1.449 1.239-2.732 2.58-4.2 3.754-2.493 1.565-4.907 3.29-7.465 4.747s-5.262 2.384-7.6 4.218c-1.674.942-3.559 1.928-4.348 3.783a1.343 1.343 0 0 0-.094.21 6.417 6.417 0 0 1-.145.348.1.1 0 0 1 0 .044 20.451 20.451 0 0 0-.9 6.146 29.418 29.418 0 0 1-.978 6.458 58.536 58.536 0 0 0-3.232 8.784 60.158 60.158 0 0 0-.942 9.545c-.2.573-.413 1.145-.638 1.718-1.181 2.674-2.58 5.254-3.674 7.972a28.8 28.8 0 0 0-1.79 8.407c-.529 5.8-.573 11.6-1.326 17.343v.283c-.812 5.689-1.529 11.886-3.472 17.575a53.016 53.016 0 0 0-2.457 8.654c-.478 3.066-.515 6.153-.848 9.233a15.6 15.6 0 0 1-.959 3.572 55.429 55.429 0 0 1-5.225 9.081c-.993 1.2-2.116 2.283-3.109 3.486a32.668 32.668 0 0 1-2.993 3.182 83.832 83.832 0 0 0-3.312 3.327c-.884.913-2.037 1.638-2.856 2.6-2.9.3-5.878.217-8.777.725a16 16 0 0 0-4.095 1.145 20 20 0 0 0-3.544 2.392c-2.008 1.21-4 2.435-5.9 3.812-3.428.674-6.813 1.493-10.284 1.928.341-.051-.667.08-.783.094l-.92.116c-.725.08-1.449.159-2.174.217a36.835 36.835 0 0 1-4.291.109 64.382 64.382 0 0 1-8.335-.891c-1.739-.551-3.486-1.116-5.254-1.58a7.973 7.973 0 0 0-4.907.043c-3.4.312-5.994 2.174-8.262 4.631a79.633 79.633 0 0 1-7.139 7.023c-2.457 1.87-4.907 3.754-7.247 5.726s-4.617 3.718-6.762 5.747c-3.308 3.06-6.519 6.183-9.831 9.177v4.907c1.355-1.058 2.7-2.124 4.008-3.24 7.465-6.3 14.582-12.995 21.742-19.626 2.008-1.855 3.979-3.747 5.856-5.733a65.1 65.1 0 0 1 5.668-5.8 11.294 11.294 0 0 1 1.674-.413 9.531 9.531 0 0 1 1.819 0c6.153 1.007 12.169 2.515 18.452 2.479a51.342 51.342 0 0 0 12.654-.319c4.088-.725 7.973-2.125 12.127-2.725a32.842 32.842 0 0 1 6.907 0 30.34 30.34 0 0 1 5.965 1.884 13.681 13.681 0 0 1 2.421 1.355c.326.261.631.551.942.833.66 1.051 1.189 2.174 1.841 3.24a24.553 24.553 0 0 0 2.261 2.993 64.771 64.771 0 0 1 4.733 6.059c.493.906 1.08 1.747 1.645 2.609.275.471.551.942.833 1.4 2.5 4.472 5.073 8.936 7.429 13.473 1.167 2.225 2.174 4.53 3.283 6.784q.826 1.689 1.747 3.312a17.6 17.6 0 0 0 1.817 2.958c.08.3.152.616.2.935a9.421 9.421 0 0 1 0 1.754 11.7 11.7 0 0 1-.573 2.1 43.748 43.748 0 0 1-5.262 8.074c-2.022 2.682-4.124 5.32-6.291 7.885s-4.559 5-6.755 7.581-4.348 5.349-6.378 8.1c-2.283 3.058-4.566 6.088-6.617 9.3-1.326 1.718-2.537 3.515-3.819 5.262s-2.863 3.53-4.276 5.305c2.044-4.073 4.348-8.038 6.682-11.937a130.37 130.37 0 0 0 6.269-11.966 71.618 71.618 0 0 0 4.812-12.27 63.2 63.2 0 0 0 1.942-12.922c.246-4.943.159-9.973.159-14.879-.616 4.515-.971 9.059-1.529 13.589-.391 2.341-.761 4.682-1.312 7a65.835 65.835 0 0 1-2.174 6.776 110.735 110.735 0 0 1-6.631 12.538q-1.783 3.037-3.689 6c-1.283 1.993-2.718 3.885-4.037 5.856a80.447 80.447 0 0 0-6.9 12.321c-2 4.53-3.834 9.132-5.624 13.77a699.85 699.85 0 0 0-5.856 15.553q-.5.891-1.022 1.783c-2.643 3.792-5.543 7.463-8.011 11.392a295.326 295.326 0 0 0-3.095 5.073h4.254a38.951 38.951 0 0 0 2.509-4.173 75.378 75.378 0 0 0 4.9-7.835c1.152-1.747 2.377-3.5 3.37-5.349s1.986-3.711 2.971-5.573c6.863-8.864 13.77-17.7 20.735-26.613q2.9-3.725 5.8-7.472c3.79-4.493 7.414-9.11 11.038-13.691a163.577 163.577 0 0 0 10.328-13.459 95.532 95.532 0 0 0 4.936-8.451 19.786 19.786 0 0 0 2.957-7.19 12.671 12.671 0 0 0-1.493-7.189 56.336 56.336 0 0 0 3.464-4.9 19.135 19.135 0 0 0 2.848-3.276 8.016 8.016 0 0 0 1.087-3.74c.848-1.094 1.565-2.29 2.413-3.392s1.718-2.239 2.566-3.37c1.725-2.3 3.827-4.254 5.668-6.45s3.74-4.348 5.552-6.624a45.145 45.145 0 0 1 5.8-6.327 11.987 11.987 0 0 1 1.986-1.087 66.946 66.946 0 0 0 9.11-3.986c2.769-1.507 5.74-2.986 8.03-5.182H491.4a28.323 28.323 0 0 0 3.921 0c1.2-.181 1.087-1.334 1.087-2.276v-3.885c1.08 1.776 2.218 3.493 3.225 5.312-1.022 1.913-2.254 3.725-3.363 5.6a57.193 57.193 0 0 1-3.348 5.233c-1.1 1.37-2.761 2.682-1.979 4.6a20.866 20.866 0 0 0 3.2 4.493c1.239 1.739 2.37 3.472 3.747 5.073-1.594 1.2-3.073 2.566-4.638 3.812s-2.841 2.624-4.262 3.957a53.134 53.134 0 0 0-4.269 4.109c-1.232 1.449-2.848 2.682-3.863 4.283-1.138 1.8-.8 3.834 0 5.7s1.536 3.863 2.471 5.718a41.231 41.231 0 0 0 3.066 5.356c1.181 1.674 2.435 3.3 3.624 4.972a82.126 82.126 0 0 0 8.929 10.364c2.131 2.9 4.348 5.8 6.269 8.871s3.79 5.979 5.631 9 3.385 6.073 4.994 9.168 3.406 6.073 5.291 9a69.749 69.749 0 0 0 7.03 9.494c.109.152.225.29.333.435-.348-.428.29.4.4.551a13.1 13.1 0 0 1 .725 1.1c.391.631.725 1.276 1.08 1.928a71.849 71.849 0 0 0 3.624 8.82 70.651 70.651 0 0 0 5.269 8.117 85.345 85.345 0 0 0 8.313 11.864c1.3 1.551 2.66 3.058 4.037 4.551h5.167l-.674-.652c-.725-.9-1.5-1.783-2.283-2.638a138.167 138.167 0 0 0-9.683-13.379c-3.624-5.131-7.305-10.1-10.081-15.756s-5.472-11.466-7.885-17.394a305.185 305.185 0 0 0-4.349-10.045c-.2-.515-.391-1.022-.58-1.536.877 3.356 2.174 6.6 3.254 9.9s2.044 6.726 3.116 10.074c-1.45-1.913-2.74-3.95-4.138-5.914-4.08-7.682-7.363-15.756-11.951-23.192a110.658 110.658 0 0 0-7.327-10.755c-2.747-3.464-5.486-6.943-8.393-10.277-3.174-3.624-6.226-7.414-9.291-11.154a48.24 48.24 0 0 1-1.319-1.855 47.5 47.5 0 0 1-2.8-6.523 9.3 9.3 0 0 1 0-1.906c.036-.225.087-.435.138-.652s.123-.232.2-.341c1.051-1.276 2.3-2.392 3.385-3.624a38.156 38.156 0 0 1 3.55-3.457c3.356-1.957 6.7-3.921 9.951-6.044a62.165 62.165 0 0 0 9.009-6.755c1.348-1.29 2.529-2.747 3.74-4.16s2.515-2.942 3.674-4.486c2.319-3.095 4.479-6.334 6.726-9.487 1.3-1.819 2.551-3.689 3.733-5.588s2.1-3.732 3.37-5.457a31.601 31.601 0 0 1 1.942-2.218 79.614 79.614 0 0 1 3.559-2.9 37.093 37.093 0 0 1 7.914-3.87 41.358 41.358 0 0 1 8.6-2.254 14.884 14.884 0 0 1 2.841 0 11.176 11.176 0 0 1 3.79 1.341 57.006 57.006 0 0 1 7.813 8.052c2.384 3.145 4.2 6.653 6.523 9.835s4.986 5.9 7.334 8.958a37.358 37.358 0 0 0 3.725 4.349 48.807 48.807 0 0 0 4.348 3.559c2.986 2.268 6 4.537 9.154 6.559 3.718 2.37 7.646 4.349 11.241 6.914 1.406 1.747 2.848 3.464 4.153 5.283a61.355 61.355 0 0 1 3.283 5.573 25.946 25.946 0 0 0-14.046-6.429 19.152 19.152 0 0 1 3.334.993 33.471 33.471 0 0 1 6.581 3.682c2.384 1.921 4.2 4.385 6.226 6.646s4.349 4.508 6.631 6.7a85.9 85.9 0 0 0 6.813 6.081c2.471 1.95 5.073 3.725 7.675 5.515a133.034 133.034 0 0 0 12.64 8v-6.979c-4.155-2.031-8.192-4.285-12.222-6.601ZM497.178 102.184c.232 1.964.355 3.943.565 5.907h-.043a4.132 4.132 0 0 1-.8.457 5.609 5.609 0 0 1-1.21.348 4 4 0 0 1-.66 0H495a3.35 3.35 0 0 1-.609-.116 2.957 2.957 0 0 1-.725-.42 5.117 5.117 0 0 1-1.246-1.616 4.614 4.614 0 0 1-.3-1.036 3.734 3.734 0 0 1 0-.9 10 10 0 0 1 .384-1.3c.051-.116.1-.232.145-.348a11.1 11.1 0 0 1 .812-1.536l.116-.123.072-.043a1.594 1.594 0 0 1 .268-.044 23.108 23.108 0 0 0 2.986-.493 7.068 7.068 0 0 1 .275 1.268ZM125.693 311.731c-.3-.768-.072-.2 0 0-.333-.87-.66-1.732-.986-2.6.08.174.174.341.254.515a21.092 21.092 0 0 1 .725 2.174Zm6.6-15.437a20.252 20.252 0 0 1-.986 3.8 34.549 34.549 0 0 1-4.24 6.769c-1.486-2.3-2.957-4.544-4.24-6.958s-2.9-4.812-4.392-7.247c-2.9-4.689-5.312-9.675-8.574-14.14l-.036-.08a36.961 36.961 0 0 0-7.777-10.77c-2.037-3.044-5.631-4.443-9.081-5.225a33.173 33.173 0 0 0-11.415-.043c1.45-.826 2.9-1.718 4.421-2.4a20.749 20.749 0 0 1 4.008-1.036c3.819-.435 7.748-.362 11.6-.478a76.851 76.851 0 0 1 11.335 0l-.319-.043a10.222 10.222 0 0 1 2.174.42 9.783 9.783 0 0 1 1.667 1.022 27.338 27.338 0 0 1 4.349 4.211 39.426 39.426 0 0 1 3.008 5.341c.935 1.841 1.884 3.66 2.747 5.53a73.41 73.41 0 0 1 4.522 11.6l.116 1.247c0 .087.138 1.065.072.551a4.418 4.418 0 0 0 .072.529c-.043-.326.065.536.065.515a5.578 5.578 0 0 0 .1.768c.08.565.159 1.131.261 1.7.181 1.087.42 2.174.609 3.261-.007.377-.029.783-.065 1.181Zm34.121-33.846c-.254.58-.638 1.08-.906 1.645-1.6.515-3.218.986-4.805 1.551l.13-.152-.391.268a30.574 30.574 0 0 0-4.16 1.783 19.887 19.887 0 0 0-3.58 2.7c.935-.522 1.863-1.065 2.841-1.493.413-.167.833-.3 1.254-.435a54.189 54.189 0 0 0-10.922 11.19c-2 2.486-3.906 5.03-5.646 7.7-1.587 1.892-3.022 3.928-4.522 5.892-.4-4.349-.515-8.885-1.863-13.089 1.21-1.609 2.522-3.363 3.674-4.878l.043-.058-.043.058.167-.217c.13-.152.254-.312.377-.471l.761-.949c.536-.674 1.08-1.341 1.623-2.008 1.058-1.29 2.109-2.587 3.131-3.914s1.964-2.616 2.9-3.964c.493-.725.986-1.449 1.449-2.174a11.843 11.843 0 0 1 1.087-1.689 74.581 74.581 0 0 0-9.023 8.878 39.984 39.984 0 0 0-6.269 11.1 35.441 35.441 0 0 0-3.218-6.682 57.7 57.7 0 0 0 3.4-5.53c.993-1.884 1.79-3.856 2.653-5.8a34.846 34.846 0 0 0-6.226 11.016 38.151 38.151 0 0 0-6.755-8.654 21.8 21.8 0 0 0-4.088-4.66c-.225-.21-.449-.406-.688-.594a10.263 10.263 0 0 0-3.725-2.326c-4.015-1.87-8.3-1.935-12.647-1.587.819-.8 1.565-1.667 2.377-2.471a115.1 115.1 0 0 0 4.986-3.841 29.2 29.2 0 0 0 4.3-4c2.45-2.986 3.406-6.523 4.066-10.226.072-.181.159-.362.232-.551.725 3.812 1.667 7.6 2.515 11.386.072-2.276.109-4.551 0-6.827s-.37-4.544-.5-6.827a72.292 72.292 0 0 1 .986-13.633c1.725-5.7 4.124-11.183 5.407-17.017 1.3-5.972.877-11.966.2-17.974.159-2.819.312-5.646.645-8.451a25.555 25.555 0 0 1 2.558-7.682 26.8 26.8 0 0 0 3.457-5.428 24.1 24.1 0 0 0 1.344-6.496c.515-4.638 1.7-9.1 2.609-13.662.928-3.276.87-6.61 1.247-9.958a12.88 12.88 0 0 1 .58-2.551l.043-.123a4.349 4.349 0 0 1 .486-.855 4.8 4.8 0 0 1 .573-.58c3.348-2.471 7.342-3.993 10.973-5.965a38.525 38.525 0 0 0 9.538-7.878v4.928a7.182 7.182 0 0 0-5.146 2.174c-1.268 1.3-1.681 3.283-2.058 5-.877 4.066-1.2 8.248-2.674 12.161-.116.268-.246.529-.377.8a13.089 13.089 0 0 0-1.239-4.53c.116.522.21 1.044.3 1.573.058.37.188 1.051.188 1.218l.109.928c-.522-2.058-2.616-2.406-4.464-2.225a12.6 12.6 0 0 1 1.884.486 5.516 5.516 0 0 1 1.065.6 2.536 2.536 0 0 1 .377.362 4.9 4.9 0 0 1 .457.725 20.774 20.774 0 0 1 .681 2.095 24.375 24.375 0 0 0-2.312 4.348 88.46 88.46 0 0 1-1.884 5.073 67.712 67.712 0 0 0-3.718 10.233 16.858 16.858 0 0 1-1.384 2.37c-1.45 1.826-3.189 3.457-4.544 5.37s-2.587 3.935-3.761 5.972a7.2 7.2 0 0 1 1.16-1.138l1.363-1.341c.848-.826 1.7-1.638 2.587-2.421a50.209 50.209 0 0 0 5.291-4.863 19.043 19.043 0 0 0 3.1-6.233c.833-2.37 1.674-4.682 2.283-7.124l-.174 1.065c.616-1.783 1.131-3.624 1.725-5.392a3.535 3.535 0 0 0 2.848 1.515c1.044.116 2.544.1 3.261-.725l-.116.072a1.638 1.638 0 0 1-.486.116 9.691 9.691 0 0 1-1.834 0 12.319 12.319 0 0 1-2.261-.522 4.073 4.073 0 0 1-.79-.457 2.769 2.769 0 0 1-.486-.471c.065-.181.123-.355.2-.529a22.8 22.8 0 0 1 1.848-3.08c.21-.138.42-.268.638-.391a1.826 1.826 0 0 1 1.058-.087l.268.087a8.226 8.226 0 0 1 1.449.92l.536.457c-.725-1.044-1.863-2.558-3.348-1.906a31.07 31.07 0 0 0 3.153-7.313l.3-.138a19.874 19.874 0 0 1 4.508-.891 3.623 3.623 0 0 0 1.71 0 4.348 4.348 0 0 0 1.384-.986.581.581 0 0 0 .145-.152 5.675 5.675 0 0 0 .094-7.588 3.624 3.624 0 0 0-3.247-1.449 8.849 8.849 0 0 0-3.761.812v-.29c0-.094.043-.072.072-.109a5.514 5.514 0 0 1 .725-.667 9.421 9.421 0 0 1 1.348-.819 6.434 6.434 0 0 1 1.029-.246 12.08 12.08 0 0 1 2.29-.036 5.7 5.7 0 0 1 1.138.29 14.821 14.821 0 0 1 2.631 1.565 8.1 8.1 0 0 1 .9.9c2.225 3.3 2.479 7.61 2.638 11.466a45.318 45.318 0 0 1-.362 4.856 1.361 1.361 0 0 1 0 .261v-.261c0 .065-.116.725-.138.848-.072.4-.152.79-.239 1.181a23.563 23.563 0 0 1-.652 2.326c-.486 1.449-.877 2.971-1.449 4.421-.094.225-.21.435-.319.645-.058.094-.123.2-.188.283a11.95 11.95 0 0 1-.964 1.029c-.058-.37-.109-.725-.167-1.1-.058.493-.109.993-.167 1.493-.862 1.109-.949 2.718-1.189 4.059-.3 1.609-.623 3.2-.957 4.805a35.761 35.761 0 0 0-2.037 5.885 47.95 47.95 0 0 1-1.529 6.211 10.066 10.066 0 0 1-1.268 2.109l-.21.246a8.393 8.393 0 0 0 2.239-2.174v.116a32.434 32.434 0 0 1-1.116 4.269 6.747 6.747 0 0 1-1.8 2.587l-.275.145a4.5 4.5 0 0 0 2.653-2.174c.072 2.174 1.1 4.1 1.739 6.146a52.559 52.559 0 0 1 1.739 6.907c.225 1.754.391 3.522.529 5.291.065.812.109 1.631.152 2.442a9.574 9.574 0 0 0 .2 2.457v2.758c0 4.522.471 9.161-.051 13.669a38.186 38.186 0 0 1-3.53 10.465 46.747 46.747 0 0 1-6.2 8.936 51.122 51.122 0 0 0 6.842-5.8v2.7c-1.044.92-2.087 1.841-3.167 2.718a26.534 26.534 0 0 1-4.03 2.384l-.681.283a39.932 39.932 0 0 1-7.378 1.942c-1.594.145-3.2.29-4.791.449 3.993.775 8.037 1.232 11.973-.1a16.515 16.515 0 0 0 8.074-6.523v23.917c0 .971-.29 2.471.978 2.754a9.08 9.08 0 0 0 1.776 0h2.174a8.88 8.88 0 0 1 .5 1.45.49.49 0 0 1-.023.28Zm-2.8-134.238c0 .138-.036.167-.036.145a7.844 7.844 0 0 1-.362 1.283 7.243 7.243 0 0 1-.529.92 2.376 2.376 0 0 1-.326.08c-2 .261-4.03.087-6.008.58a58.659 58.659 0 0 0 .587-7.972l.348-.072a15.414 15.414 0 0 1 2.834 0 10.414 10.414 0 0 1 1.551.348 2.023 2.023 0 0 1 .239.138 2.539 2.539 0 0 1 .275.283 12.025 12.025 0 0 1 1.16 1.95 4.066 4.066 0 0 1 .275 2.239.818.818 0 0 1-.007.1ZM494.04 258.39H163.431v-31.041a33.5 33.5 0 0 0 4.2-7.82 28.6 28.6 0 0 0 1.45-8.6 87.374 87.374 0 0 0-.239-9.241 57.587 57.587 0 0 0-1.174-8.842 31.57 31.57 0 0 0-3.624-9.175c-.2-.674-.384-1.355-.616-2.015v-14.15a75.754 75.754 0 0 0 1.9-7.581q.377-1.892.725-3.8a24.8 24.8 0 0 1 .725-3.921c.043-.08.087-.159.138-.239a12.509 12.509 0 0 0 2.334-2.935c1.7 1.957 4.247 2.964 6.7 1.812s3.95-3.877 4.754-6.385c1.652-5.131 1.268-11.915-2.174-16.249-1.841-2.3-4.834-3.385-7.494-1.725a11.777 11.777 0 0 0-2.7-5.3 10.871 10.871 0 0 0-4.907-2.8V2.488H494.04V97.93a7.777 7.777 0 0 0-7.066 4.066c-.138.167-.268.341-.4.515V15.773c0-.775.21-1.826-.594-2.3a5.49 5.49 0 0 0-2.508-.167H186.884a8.454 8.454 0 0 0-2.638.072c-.9.333-.783 1.29-.783 2.073V246.17c0 .725-.225 1.841.355 2.428s1.558.355 2.276.355h296.423c1.5 0 3.993.6 4.037-1.515.159-7.972 0-15.944 0-23.859v-23.191a21.5 21.5 0 0 0 7.465 8.567ZM171.331 127.746a5.707 5.707 0 0 1 .949-.558 4.64 4.64 0 0 1 1.073-.3 4.551 4.551 0 0 1 .993 0 4.689 4.689 0 0 1 1.036.29 6.166 6.166 0 0 1 1.109.667 9.828 9.828 0 0 1 2.674 3.776 17.729 17.729 0 0 1 1.065 3.943v.232c.1.79.072.6 0 .268a18.916 18.916 0 0 1-1.145 9.3 9.726 9.726 0 0 1-2.732 3.856 4.943 4.943 0 0 1-2.174.949h-.507a3.526 3.526 0 0 1-.478 0 5.365 5.365 0 0 1-1-.268 6.037 6.037 0 0 1-1.1-.652 7.385 7.385 0 0 1-1.348-1.384c2.911-6.312 2.947-13.442 1.585-20.119Zm310.99-10.712c-.109 2.174.239 4.675 1.863 6.24v40.231a22.322 22.322 0 0 0-1.449 8.037 28.9 28.9 0 0 0-.42 5.588c.094 1.884.3 3.761.457 5.639a81.77 81.77 0 0 0 1.392 11.2v52.6H185.855V15.7h298.328v91.087c-1.383 3.196-2.536 6.736-1.862 10.248Zm4.856 25.272c.268 1.623.8 3.182 1.094 4.8.094 1.058-.094 2.116-.051 3.174a17.525 17.525 0 0 0 .66 2.754 3.494 3.494 0 0 1 0 .551 3.55 3.55 0 0 1-.123.457c-.341.725-.819 1.334-1.174 2.029s-.66 1.449-1.015 2.174v-21.022c.174 1.692.332 3.395.609 5.084Zm-.6-14.452v-2.247l.312.3c-.111.651-.22 1.296-.314 1.948Zm2.174-2.9.406.116c-.087.109-.159.217-.239.326a.234.234 0 0 1 0-.065 1.693 1.693 0 0 0-.13-.37Zm7.588 83.266a22.8 22.8 0 0 1-3.261-3.428 29.4 29.4 0 0 1-3.283-5.8 31.777 31.777 0 0 1-1.783-6.523c-.29-2.58-.123-5.138-.246-7.726a66.6 66.6 0 0 0-.87-7.856c-.725-6.015-.435-12.321 1.8-18.024.152-.341.428-.986.5-1.181.58-1.319 1.594-2.544 1.7-4.03a3.2 3.2 0 0 0 2.124 1.044 3.863 3.863 0 0 1-1.058-.616 3.769 3.769 0 0 1-.855-1.16.1.1 0 0 1 .036-.094l-.043.072c-.043-.065-.087-.13-.123-.2a4.207 4.207 0 0 1-.29-.884 28.168 28.168 0 0 1-.13-3.225 5.4 5.4 0 0 0 2.783 1.268 15.547 15.547 0 0 1-1.3-.8 3.124 3.124 0 0 1-.573-.544 5.9 5.9 0 0 1-.623-1.051 9.356 9.356 0 0 1-.37-1.45l-.087-.616c-.232-2.45-.087-4.921-.312-7.378s-.768-4.667-1.174-6.994c.08-1.45.159-2.848.159-4.262.036-.109.065-.21.109-.312.435-.877.877-1.993 1.3-2.957a8.574 8.574 0 0 1-1.2 1.493c-.275-.174-.551-.348-.819-.529a1.865 1.865 0 0 0-.145-.188 12.027 12.027 0 0 0-1.334-1.681 15.28 15.28 0 0 1-1.37-2.479 14.99 14.99 0 0 1-.964-4.095 19.267 19.267 0 0 1 .159-2.225 66.763 66.763 0 0 1 1.834-7.7 28.841 28.841 0 0 1 1.906-3.551 6.58 6.58 0 0 1 1.015-.993 10.583 10.583 0 0 1 1.848-1.109 7.25 7.25 0 0 1 1.616-.42 6.314 6.314 0 0 1 1.384 0 11.857 11.857 0 0 1 2.116.515 1.45 1.45 0 0 1 .232.13c-1.631 0-3.479-.6-4.573.913a6 6 0 0 0-1.37 4.588 4.653 4.653 0 0 0 2.616 3.385 3.732 3.732 0 0 0 4.349-1.3l.043.37a25.093 25.093 0 0 0 .906 6.443 12.269 12.269 0 0 0 .884 2.653c.428.862.978 1.645 1.4 2.515a17.009 17.009 0 0 1 .616 2.819c-.493.406-.978.812-1.45 1.2l.058-.043a9.744 9.744 0 0 1-1.268.725 3.263 3.263 0 0 1-.587.188h.073a1.71 1.71 0 0 1-1.044-.08l-.21-.159a1.356 1.356 0 0 1-.29-.464 1.433 1.433 0 0 0-.058-.239 2.88 2.88 0 0 1 0-.355.553.553 0 0 1 0-.109c-.551 1.3.725 2.037 1.855 1.855a5.617 5.617 0 0 0 2.979-2.268c.1.594.217 1.181.355 1.768a17.331 17.331 0 0 0 2.471 5.617 25.575 25.575 0 0 0 3.073 5.254v.261a1.1 1.1 0 0 1 0-.159 41.874 41.874 0 0 1 4.885 6.776 11.411 11.411 0 0 1 .536 2.174 63.667 63.667 0 0 0 1.044 7.11c.493 2.21 1.537 4.312 2.08 6.479-.275-2.239-.515-4.479-.652-6.726a25.365 25.365 0 0 0 1.7 3.819c.326.587.681 1.152 1.044 1.718a8.356 8.356 0 0 1 .993 1.413 73.136 73.136 0 0 0-.833-2.058c-1.007-2.515-2.037-5.073-2.9-7.617.051-2.783.471-5.733-.87-8.291s-3.464-4.486-5.436-6.487a10.09 10.09 0 0 1 .312-1.08 13.842 13.842 0 0 1 1.718-2.9c.283-.348.558-.725.848-1.029a6.606 6.606 0 0 0-3.276 4.406l-.616-1a39.631 39.631 0 0 1 2.174-5.617 13.813 13.813 0 0 0-2.7 4.8 14.44 14.44 0 0 0-.819-1.152c-.449-.689-.964-1.312-1.348-2.044-.464-.884-.855-1.812-1.254-2.725v-.08l.043.094-.043-.1a43.34 43.34 0 0 1-1.217-5.254 2.175 2.175 0 0 0 .725.573c2.174 1.964 5.015 2.515 7.726 3.254q4.7 1.8 9.465 3.435a14.876 14.876 0 0 1 2.296 1.093 2.855 2.855 0 0 1 .362.362 4.246 4.246 0 0 1 .391.681 6.747 6.747 0 0 1 .384 1.45 60.476 60.476 0 0 1-.167 8.342 41.464 41.464 0 0 0 .558 8.632c.493 5.2 1.522 10.313 2.348 15.466.326 6.146.812 12.277.341 18.43-.457 5.965-1.826 11.813-1.834 17.822a21.831 21.831 0 0 0 1.928 9.7 43.387 43.387 0 0 0 2.537 7.247 52.041 52.041 0 0 0 3.225 7.124 24.512 24.512 0 0 0-9.088 1.66c-2.667 1.094-5.617 2.095-7.762 4.08a28.136 28.136 0 0 0-5.436 7.313 86.668 86.668 0 0 0-4.464 8.769 39.962 39.962 0 0 0-4.588-7.769 67.5 67.5 0 0 0-5.523-6.747v-6.965c.942 1.283 1.877 2.58 2.8 3.877l1.348 1.892.725 1.007a4.251 4.251 0 0 1 .558.725 20.742 20.742 0 0 0-5.428-8.893v-13.049a13.422 13.422 0 0 0 6.856.884 22.742 22.742 0 0 1-3.74-.928 2.088 2.088 0 0 1-.435-.152c-.174-.087-.232-.123-.217-.123a19.044 19.044 0 0 1-2.355-1.5.782.782 0 0 1-.116-.1v-.043Zm7.8-82.491.043.094c.065.087.051.058-.007-.087Zm-7.686 107.194a57.446 57.446 0 0 0 4.348 6.842c1.573 2.1 3.392 4 5.073 6.044l.565.725c-.058.159-.13.319-.188.478.058-.159-.109.261 0 0a34.5 34.5 0 0 1-1.681 3.5 62.288 62.288 0 0 0-8.117-12.4Zm1.449 9.828a50.729 50.729 0 0 1 4.464 8.777c.072.174.138.348.2.515-.065-.167 0 .087 0 0a2.6 2.6 0 0 0 .551.964c-.42.775-.848 1.551-1.254 2.334a5.159 5.159 0 0 0-.471-1.536 73.249 73.249 0 0 0-.551-1.565 242.36 242.36 0 0 1-1.073-3.145 342.224 342.224 0 0 1-1.868-6.345Zm42.507.058a19.689 19.689 0 0 0-4.349 2.073 30.183 30.183 0 0 0-4.508 3.334 19.242 19.242 0 0 0-3.935 4.283c-2.6 3.254-4.841 6.791-7.45 10.052a24.922 24.922 0 0 0 1.573-4.812 74.425 74.425 0 0 1-4.834 7.247 64.534 64.534 0 0 0-4.588 7.378 82.368 82.368 0 0 1-12.473 11.2c-.493-.587-.993-1.174-1.45-1.768-1.449-2.45-2.9-4.921-4.16-7.494v-.087c.341-.725.638-1.449.942-2.218.094-.21.2-.413.3-.616.442-.623.855-1.268 1.261-1.921 1.29-1.739 2.689-3.392 3.986-5.117a34.068 34.068 0 0 0 3.334-5.508 83.351 83.351 0 0 0 5.008-12.85c.725-1.573 1.45-3.116 2.29-4.646 1.45-2 2.9-3.957 4.392-5.914a24.108 24.108 0 0 1 3.218-3.276 18.245 18.245 0 0 1 3.682-2.21c4.392-1.573 8.951-3.095 13.683-2.7a4.008 4.008 0 0 1 2.08.87 18.9 18.9 0 0 1 2.428 2.674c.768.935 1.6 1.8 2.4 2.718 1.689 1.928 3.435 3.8 5.073 5.8-.13-.152-.457-.551 0 0 .2.246.42.493.631.725a42.085 42.085 0 0 0-8.508 2.79Zm81.991 64.146ZM548.28 239.257ZM502.599 252.041Z"/><path d="m499.123 210.006.435.152a4.858 4.858 0 0 0-.652-.275ZM169.367 139.705v.261a1.365 1.365 0 0 0 0-.261ZM163.96 202.881ZM486.575 137.219c0 7.016.138 1.37 0 0ZM137.521 275.148l.043-.058ZM484.183 106.787c0-30.36-.246.58 0 0ZM180.267 135.792v-.232a5.016 5.016 0 0 0 .065.5.964.964 0 0 1-.065-.268ZM163.576 128.37a1.058 1.058 0 0 0 .036-.145.512.512 0 0 1 0-.1 1.45 1.45 0 0 0-.036.245ZM575.147 350.252ZM585.432 321.589c-.478.725-.949 1.507-1.413 2.276a77.91 77.91 0 0 0-2.573 4.515 89.208 89.208 0 0 0-4.283 9.356 88.1 88.1 0 0 0-5.11 20.38 62.221 62.221 0 0 0-.725 11.893c.109-1.558.413-3.522.558-4.8.906-5.023 2-10 3.232-14.952a143.52 143.52 0 0 1 4.885-15.727 125.422 125.422 0 0 1 3.131-7.566q.848-1.855 1.739-3.7l.935-1.906a11.105 11.105 0 0 1 .812-1.638c-.188-.016-1.022 1.622-1.188 1.869ZM591.715 328.14a1.544 1.544 0 0 0 .08-.21c-.029.065-.051.138-.08.21ZM580.655 358.529a.672.672 0 0 1-.08.232ZM580.727 358.333l.065-.174ZM580.887 357.877l.123-.341a4.145 4.145 0 0 1-.123.341Z"/><path d="M580.575 358.76c-.058.152-.065.2 0 0a1.106 1.106 0 0 1 .08-.232l.065-.167.065-.174.094-.283c.051-.123.094-.246.123-.341l.058-.159v-.1.1l-.058.159-.123.341a1.081 1.081 0 0 1-.094.283l-.065.174c3.624-10.089 7.414-20.112 10.994-30.215a17.318 17.318 0 0 1-1.044 1.558c-.471.761-.935 1.529-1.4 2.3a174.516 174.516 0 0 0-2.783 4.8c-1.754 3.138-3.414 6.334-4.914 9.6a88.209 88.209 0 0 0-6.433 20.993 85.749 85.749 0 0 0-1.66 12.669 10.363 10.363 0 0 1 .681-2.442c.268-.9.565-1.8.87-2.689l1.863-5.494c1.261-3.7 2.515-7.392 3.834-11.074l-.065.167ZM581.068 357.391ZM580.72 358.355ZM581.111 357.261ZM584.822 363.479ZM592.12 337.956a1.05 1.05 0 0 0 .08-.225.279.279 0 0 0-.08.225ZM589.693 341.925a79.205 79.205 0 0 0-2.5 4.849 74.738 74.738 0 0 0-3.943 10.277 126.731 126.731 0 0 0-4.5 21.779 79.735 79.735 0 0 0-.725 12.676c.768-4.718 2.109-9.364 3.3-13.995s2.363-9.342 3.486-14.038c1.036-4.349 1.913-8.7 3.1-13.046s2.631-8.371 4.167-12.487a14.037 14.037 0 0 1-1.007 1.537c-.465.825-.929 1.629-1.378 2.448ZM592.309 352.804a2.057 2.057 0 0 0 .188-.449c-.065.149-.123.303-.188.449ZM589.605 360ZM589.729 359.616ZM589.606 360l.123-.384c.275-.862.138-.42 0 0a68.307 68.307 0 0 1 2.58-6.805c-.21.391-.522.826-.725 1.152a30.637 30.637 0 0 0-.971 2.029c-.623 1.449-1.225 2.9-1.776 4.348a78.89 78.89 0 0 0-2.9 9.1 140.818 140.818 0 0 0-3.254 19.1q-.3 2.74-.507 5.494a78.12 78.12 0 0 0-.159 2.616 12.3 12.3 0 0 1-.051 1.363 7.453 7.453 0 0 1 0 1.131l.065-.529c1.065-6.6 2.095-13.2 3.254-19.778a144.42 144.42 0 0 1 4.349-19.184l-.123.377c.066.057.073.043.095-.03ZM590.739 381.511c-.554 4.211 0 .036 0 0Z"/><path d="M592.07 371.27c-.623 2.9-1.261 5.8-1.863 8.74-1.181 5.8-1.971 11.7-2.689 17.568a81.866 81.866 0 0 0-.812 9.755c1.5-8.581 2.9-17.184 4.03-25.823a.548.548 0 0 1 0 .109c.471-3.095 1.073-6.168 1.587-9.255a57.974 57.974 0 0 1 2.073-9.059 50.6 50.6 0 0 0-2.326 7.965ZM595.782 387.446c.254-2.6.435-5.2.573-7.813q.087-1.884.152-3.761c0-.623.036-1.254.051-1.877a8.721 8.721 0 0 1 0-1.573c-1.739 5.907-3.312 11.871-4.515 17.909a167.627 167.627 0 0 0-2.486 18.423c-.217 2.443-.312 4.9-.493 7.342h.768c1.377-4.146 2.45-8.443 3.414-12.669a122.783 122.783 0 0 0 2.537-15.981Z"/><path d="M595.78 387.446c-.311 3.341.479-4.994 0 0ZM600.977 386.823ZM597.875 404.152a608.385 608.385 0 0 0 3.124-17.322c-1.319 5.74-2.74 11.466-3.957 17.235q-.915 4.305-1.725 8.645c-.21 1.123-.391 2.254-.58 3.392h.594c.261-1.131.515-2.261.768-3.377q.946-4.272 1.776-8.573ZM607.449 396.266a4.024 4.024 0 0 1 .051-.413 1 1 0 0 0-.051.413ZM606.905 401.985c.174-1.116.326-2.239.442-3.363.051-.515.087-1.029.116-1.536v-.819a4.561 4.561 0 0 1-.072.623 99.6 99.6 0 0 1-2.79 12.386q-.928 3.406-1.819 6.82h1.312q.826-3.827 1.631-7.668c.433-2.138.839-4.283 1.18-6.443ZM607.5 395.853ZM529.234 273.588v.044c-.34 1.993-.109.601 0-.044Z"/><path d="M528.118 271.595c-1.486 6.914-2.631 13.9-4.03 20.836-.37 1.841-.725 3.682-1.2 5.508-.247.978-.493 1.964-.725 2.943a14.557 14.557 0 0 1-.645 2.66 102.7 102.7 0 0 0 4.653-14.495c1.2-5.109 2.174-10.255 3.066-15.43.087-.493.065-.355 0-.044a96.216 96.216 0 0 1 2.29-10.625 43.137 43.137 0 0 1 4.3-9.871c-4.05 5.545-6.274 11.872-7.709 18.518ZM525.943 305.05a1.575 1.575 0 0 1-.08.3c-.275.983-.42 1.635.08-.3ZM534.329 267.37c-.29.862-.573 1.725-.841 2.595-.529 1.7-1.029 3.414-1.536 5.131-1.022 3.443-2 6.892-2.9 10.378-1.754 6.95-3.3 13.959-4.769 20.974-.841 4.022-1.645 8.045-2.464 12.067 1.449-4.349 2.769-8.755 4.008-13.169.043-.159.087-.333.138-.5 2.834-10.233 5.015-20.6 7.2-30.99q.457-2.174.935-4.406c.087-.413.79-4.254.92-4.254a13.973 13.973 0 0 0-.7 2.174ZM526.002 304.853a.259.259 0 0 1-.058.2c.703-2.533.391-1.395.058-.2Z"/><path d="M525.944 305.05a.259.259 0 0 1 .058-.2c-.051.167-.094.341-.138.5.02-.097.058-.199.08-.3ZM528.342 311.5ZM524.719 320.219c1.276-2.9 2.5-5.8 3.624-8.7a144.54 144.54 0 0 0 4.9-15.879q.978-4.051 1.877-8.132c.558-2.537.986-5.189 1.616-7.661-3.8 10.306-6.7 20.923-9.617 31.5q-1.24 4.411-2.4 8.872ZM529.067 323.324c-1.246 2.548 1.298-2.656 0 0Z"/><path d="M539.214 295.788c-1.71 3.848-3.269 7.777-4.783 11.7-1.761 3.892-3.377 7.842-4.943 11.813-.725 1.921-1.507 3.841-2.174 5.8s-1.254 3.964-1.892 5.892c1.174-2.58 2.435-5.124 3.682-7.668a152.167 152.167 0 0 0 6.965-15.734c.971-2.725 1.819-5.5 2.674-8.269.42-1.363.855-2.725 1.225-4.109.3-1.131.478-2.413.833-3.486-.522 1.355-1.022 2.725-1.558 4.073ZM535.499 317.777c-1.29 2.8-2.74 5.537-4.167 8.262q-1.131 2.174-2.218 4.348c-.362.725-.725 1.449-1.08 2.174a15.785 15.785 0 0 1-.9 1.935c2.348-3.624 4.551-7.291 6.523-11.089 3.7-7.03 6.421-14.452 9.422-21.8.1-.232.2-.464.3-.689-2.716 5.487-5.28 11.235-7.88 16.859Z"/><path d="m533.684 323.393-.725 1.334c.152-.24 1.384-2.585.725-1.334ZM532.988 324.727ZM537.039 327.742c.254-.507.725-1.515 0 0ZM537.04 327.676c-.131.348-.08.246 0 0Z"/><path d="M543.752 314.218c-.725 1.507-1.45 3.022-2.232 4.537-1.449 2.993-3.008 5.95-4.45 8.951a66.214 66.214 0 0 1-6.646 10.842 15.834 15.834 0 0 1 1.189-1.254c.449-.507.877-1.022 1.29-1.558a38.152 38.152 0 0 0 2.3-3.29 67.653 67.653 0 0 0 3.624-6.813c2.341-4.885 4.414-9.893 6.7-14.8-.2.355-.464.725-.623 1.044-.378.79-.77 1.565-1.152 2.341ZM545.555 310.855a2.584 2.584 0 0 0 .261-.573c-.08.188-.174.384-.261.573ZM535.271 342.962l-.043.072c.7-.978.4-.564.043-.072ZM535.228 343.034l-.08.1c-.369.531-.696.98.08-.1Z"/><path d="m535.228 343.034.043-.073-.123.174ZM538.648 333.891c-2.993 5.146-5.711 10.436-8.378 15.756 1.674-2.138 3.283-4.348 4.863-6.523l.123-.174a94.221 94.221 0 0 0 7.168-11.6 125.154 125.154 0 0 0 5.581-12.937c-3.168 5.118-6.327 10.27-9.357 15.478ZM542.975 338.344l.1-.217ZM543.077 338.127l-.1.217c-.227.486-.516 1.088.1-.217Z"/><path d="M536.097 353.369c.174-.464.348-.913.529-1.37.16-.391.326-.775.486-1.16 1.884-4.211 3.9-8.349 5.863-12.524l.1-.217c1.015-2.174 2.254-4.24 3.348-6.363s2.239-4.3 3.3-6.472c-5.581 8.77-11.575 17.742-13.626 28.106ZM539.439 366.813a.889.889 0 0 1-.094.275c-.073.232-.131.305.094-.275Z"/><path d="M549.918 333.112a99.535 99.535 0 0 0-.978 1.928 198.976 198.976 0 0 0-1.8 3.79c-1.152 2.508-2.334 5.015-3.29 7.6a103.3 103.3 0 0 0-4.349 15.684 84.69 84.69 0 0 0-1.5 8.929 16 16 0 0 1 .631-1.834c.232-.725.478-1.45.725-2.124.036-.109.08-.239.123-.355q1.449-4.421 2.769-8.893c.87-2.95 1.892-5.849 2.747-8.806s1.892-5.914 2.9-8.864c.493-1.45.978-2.957 1.449-4.435.232-.689.457-1.377.725-2.066a18.648 18.648 0 0 1 .725-2.073c-.232.004-.768 1.316-.877 1.519Z"/><path d="M539.467 366.733a.261.261 0 0 0 0 .08c.174-.616.101-.391 0-.08ZM538.003 371.045a1.57 1.57 0 0 0-.036.3c.007-.097.02-.184.036-.3ZM539.438 366.813a.26.26 0 0 1 0-.08 8.93 8.93 0 0 0-.123.355 1.011 1.011 0 0 0 .123-.275ZM549.157 346.831c-.63 1.29-1.247 2.58-1.761 3.921a49.9 49.9 0 0 0-2.479 8.6 64.57 64.57 0 0 0-.978 8.762 71.112 71.112 0 0 0-.044 9.132c.558-2.9 1.3-5.7 1.892-8.567s1.116-5.7 1.645-8.545 1.029-5.711 1.609-8.545 1.319-5.552 1.95-8.335a15.005 15.005 0 0 1-.877 1.638q-.479.975-.957 1.939ZM504.259 125.95l.007.007ZM528.342 378.967ZM494.04 200.903ZM494.04 200.903h.058v-.087c0-.029-.051-.2-.072-.3ZM490.561 90.437a1.2 1.2 0 1 0 1.2 1.2 1.2 1.2 0 0 0-1.2-1.2ZM490.286 75.347a1.2 1.2 0 1 0 1.2 1.2 1.2 1.2 0 0 0-1.2-1.2ZM490.192 71.398a1.2 1.2 0 1 0 1.2 1.2 1.2 1.2 0 0 0-1.2-1.2ZM489.648 224.82a1.2 1.2 0 1 0 1.1 1.192 1.2 1.2 0 0 0-1.1-1.192Z"/></svg>