<svg xmlns="http://www.w3.org/2000/svg" width="654" height="647"><g fill="none" fill-rule="evenodd"><circle cx="326" cy="326" r="100" stroke="#FFF" stroke-opacity=".8"/><circle cx="326" cy="326" r="160" stroke="#FFF" stroke-opacity=".5"/><circle cx="326" cy="326" r="225.5" stroke="#FFF" stroke-opacity=".35"/><circle cx="327" cy="324" r="290" stroke="#FFF" stroke-opacity=".2"/><g class="group" transform="translate(502 73)"><rect width="50" height="50" fill="#BEE4E0" rx="25"/><path fill="#000" class="st0" d="M24.6 5.6 5.98 12.24l2.84 24.62L24.6 45.6l15.78-8.74 2.84-24.62z"/><path fill="#000" class="st1" d="M24.6 5.6v4.44-.02V45.6l15.78-8.74 2.84-24.62L24.6 5.6z"/><path fill="#FFF" class="st2" d="m24.6 10.02-11.64 26.1h4.34l2.34-5.84h9.88l2.34 5.84h4.34l-11.6-26.1zM28 26.68h-6.8l3.4-8.18 3.4 8.18z"/></g><g class="group" transform="translate(76 299)"><rect width="50" height="50" fill="#BEE4E0" rx="25"/><g fill="#000"><path d="M47.967 22.532c-.12-.094-1.235-.935-3.582-.935a11.334 11.334 0 0 0-1.85.159c-.456-3.118-3.032-4.636-3.146-4.704l-.632-.363-.415.599a8.472 8.472 0 0 0-1.122 2.622c-.42 1.78-.165 3.45.739 4.88-1.091.607-2.843.756-3.197.77H5.777a1.377 1.377 0 0 0-1.375 1.37 20.863 20.863 0 0 0 1.27 7.447c.998 2.618 2.483 4.548 4.415 5.727 2.165 1.326 5.685 2.083 9.671 2.083 1.802.007 3.6-.158 5.37-.486a22.517 22.517 0 0 0 7.01-2.545 19.25 19.25 0 0 0 4.782-3.916c2.297-2.6 3.666-5.494 4.682-8.068h.405c2.514 0 4.061-1.005 4.912-1.85a5.33 5.33 0 0 0 1.296-1.918l.185-.528-.433-.344z"/><path d="M8.463 24.708h3.883a.339.339 0 0 0 .34-.339v-3.458a.339.339 0 0 0-.337-.341H8.463a.339.339 0 0 0-.338.339v3.463c0 .184.151.336.338.336m5.353 0h3.883a.339.339 0 0 0 .339-.339v-3.458a.337.337 0 0 0-.337-.341h-3.885a.339.339 0 0 0-.341.341v3.46a.342.342 0 0 0 .341.337m5.434 0h3.883a.339.339 0 0 0 .339-.339v-3.458a.339.339 0 0 0-.337-.341H19.25a.339.339 0 0 0-.339.339v3.463c0 .184.152.336.339.336m5.368 0h3.883a.341.341 0 0 0 .341-.339v-3.458a.339.339 0 0 0-.341-.341h-3.883a.339.339 0 0 0-.339.339v3.463c0 .184.152.336.339.336m-10.802-4.976h3.883a.34.34 0 0 0 .339-.341v-3.459a.339.339 0 0 0-.339-.338h-3.883a.341.341 0 0 0-.341.338v3.461a.344.344 0 0 0 .341.339m5.434 0h3.883a.34.34 0 0 0 .339-.341v-3.459a.339.339 0 0 0-.339-.338H19.25a.339.339 0 0 0-.339.338v3.461a.34.34 0 0 0 .339.339m5.368 0h3.883a.343.343 0 0 0 .341-.341v-3.459a.341.341 0 0 0-.341-.338h-3.883a.339.339 0 0 0-.339.338v3.461a.34.34 0 0 0 .339.339m0-4.979h3.883a.341.341 0 0 0 .341-.339v-3.462a.341.341 0 0 0-.341-.34h-3.883a.339.339 0 0 0-.339.34v3.46c0 .19.152.341.339.341m5.419 9.955h3.883a.341.341 0 0 0 .34-.339v-3.458a.339.339 0 0 0-.34-.341h-3.883a.339.339 0 0 0-.34.339v3.463a.337.337 0 0 0 .34.336"/></g></g><g class="group" transform="translate(512 222)"><rect width="50" height="50" fill="#BEE4E0" rx="25"/><path fill="#f7df1e" d="M9.25 9.25h31.5v31.5H9.25z"/><path fill="#000" d="M30.41 33.86c.635 1.035 1.46 1.797 2.92 1.797 1.227 0 2.01-.613 2.01-1.46 0-1.015-.805-1.375-2.155-1.965l-.74-.318c-2.136-.91-3.555-2.05-3.555-4.46 0-2.22 1.691-3.91 4.335-3.91 1.882 0 3.235.655 4.21 2.37l-2.305 1.48c-.508-.91-1.055-1.268-1.905-1.268-.867 0-1.417.55-1.417 1.269 0 .888.55 1.247 1.82 1.797l.74.317c2.515 1.079 3.935 2.178 3.935 4.65 0 2.665-2.093 4.125-4.904 4.125-2.75 0-4.526-1.31-5.395-3.027zm-10.457.256c.465.825.888 1.522 1.905 1.522.973 0 1.586-.38 1.586-1.86V23.715h2.96v10.105c0 3.064-1.797 4.46-4.42 4.46-2.37 0-3.742-1.227-4.44-2.704z"/></g><g class="group" transform="translate(137 541)"><rect width="50" height="50" fill="#BEE4E0" rx="25"/><path fill="#000" d="M11.97 41.3 9.1 9.1h31.57L37.8 41.3l-12.95 3.64"/><path fill="#000" d="m24.92 42.14 10.43-2.87 2.45-27.58H24.92M24.92 23.66h-5.25l-.35-4.06h5.6v-3.92h-9.94l.07 1.05.98 10.92h8.89zm0 10.29h-.07l-4.41-1.19-.28-3.15h-3.92l.49 6.23 8.12 2.24h.07z"/><path fill="#FFF" d="M24.85 23.66v3.99h4.9l-.49 5.11-4.41 1.19v4.13l8.12-2.24.07-.7.91-10.43.14-1.05h-1.12zm0-7.98v3.92h9.59l.07-.84.21-2.03.07-1.05z"/></g><g class="group" transform="translate(300 138)"><rect width="50" height="50" fill="#BEE4E0" rx="25"/><path fill="#470137" class="st0" d="M14.35 8.4h21.7c3.29 0 5.95 2.66 5.95 5.95v20.86c0 3.29-2.66 5.95-5.95 5.95h-21.7c-3.29 0-5.95-2.66-5.95-5.95V14.35c0-3.29 2.66-5.95 5.95-5.95z"/><g fill="#FF61F6"><path class="st1" d="m26.068 17.01-4.2 6.93 4.48 7.35c.028.056.042.112.028.168-.014.056-.07.014-.154.028h-3.206c-.224 0-.378-.014-.476-.154-.294-.588-.602-1.162-.896-1.75a56.59 56.59 0 0 0-.952-1.764c-.336-.602-.672-1.204-1.008-1.82h-.028c-.294.602-.616 1.204-.938 1.806-.322.602-.644 1.204-.952 1.792-.322.588-.644 1.19-.966 1.764-.056.14-.168.154-.322.154h-3.08c-.056 0-.098.028-.098-.042a.194.194 0 0 1 .028-.154l4.354-7.14-4.242-7.182c-.042-.056-.056-.112-.028-.14.028-.042.084-.056.14-.056h3.178c.07 0 .14.014.196.028.056.028.098.07.14.126.266.602.574 1.204.896 1.806.336.602.658 1.19 1.008 1.778.336.588.644 1.176.938 1.778h.028a54.31 54.31 0 0 1 .91-1.806c.308-.588.63-1.176.952-1.764.322-.588.63-1.19.938-1.764.014-.056.042-.112.084-.14.056-.028.112-.042.182-.028h2.954c.07-.014.14.028.154.098.014.014-.014.07-.042.098zM32.536 31.78a6.96 6.96 0 0 1-3.01-.63 4.88 4.88 0 0 1-2.114-1.904c-.518-.854-.77-1.918-.77-3.192a5.75 5.75 0 0 1 .77-2.954 5.814 5.814 0 0 1 2.226-2.17c.98-.546 2.156-.812 3.542-.812.07 0 .168 0 .294.014.126.014.266.014.434.028v-4.424c0-.098.042-.154.14-.154h2.842c.07-.014.126.042.14.098v13.356c0 .252.014.532.028.84.028.294.042.574.056.812 0 .098-.042.182-.14.224-.728.308-1.498.532-2.282.672a12.35 12.35 0 0 1-2.156.196zm1.372-2.8v-6.16a3.581 3.581 0 0 0-.378-.07c-.154-.014-.308-.028-.462-.028-.546 0-1.092.112-1.582.364a3.139 3.139 0 0 0-1.19 1.036c-.308.448-.462 1.05-.462 1.778-.014.49.07.98.238 1.442.14.378.35.714.63.994.266.252.588.448.952.56.378.126.77.182 1.162.182.21 0 .406-.014.588-.028.182.014.336-.014.504-.07z"/></g></g><g class="group" transform="translate(300 524)"><rect width="50" height="50" fill="#BEE4E0" rx="25"/><path fill="#8A93BE" d="M15.889 21.853h-1.766l-.962 4.943h1.568c1.035 0 1.808-.196 2.319-.59.502-.386.845-1.042 1.02-1.954.174-.875.094-1.495-.225-1.859-.329-.357-.979-.539-1.954-.539zm9.311-8.435c-12.375 0-22.4 5.279-22.4 11.782s10.025 11.782 22.4 11.782c12.375 0 22.4-5.279 22.4-11.782S37.575 13.418 25.2 13.418zm-6.089 13.911a4.478 4.478 0 0 1-1.706 1.027c-.627.197-1.428.306-2.398.306h-2.211l-.605 3.136H9.617l2.297-11.805h4.943c1.489 0 2.575.387 3.26 1.167.679.78.89 1.874.611 3.274a5.345 5.345 0 0 1-.567 1.584c-.27.471-.611.911-1.051 1.311zm7.518 1.333 1.014-5.226c.116-.592.073-.998-.133-1.22-.196-.21-.627-.32-1.282-.32h-2.035l-1.311 6.766h-2.56l2.296-11.812h2.553l-.612 3.143h2.275c1.438 0 2.42.248 2.96.744.548.504.708 1.312.498 2.429l-1.074 5.498zm14.174-4.228a5.156 5.156 0 0 1-.567 1.584 5.352 5.352 0 0 1-1.043 1.311 4.595 4.595 0 0 1-1.714 1.027c-.627.197-1.429.306-2.398.306H32.88l-.612 3.136h-2.574l2.297-11.805h4.943c1.489 0 2.575.387 3.26 1.175.679.773.89 1.866.611 3.266zm-4.84-2.581h-1.758l-.962 4.943h1.561c1.042 0 1.814-.196 2.318-.59.51-.386.853-1.042 1.03-1.954.173-.875.093-1.495-.236-1.859-.319-.357-.976-.539-1.953-.539z"/></g><g class="group" transform="translate(425 397)"><rect width="50" height="50" fill="#BEE4E0" rx="25"/><path clip-rule="evenodd" fill="#C69" d="M25 4.456c11.346 0 20.544 9.198 20.544 20.544S36.346 45.544 25 45.544 4.456 36.346 4.456 25 13.654 4.456 25 4.456"/><path fill="#FFF" d="M37.886 13.25c-.93-3.65-6.98-4.849-12.706-2.815-3.407 1.211-7.096 3.111-9.748 5.592-3.154 2.95-3.657 5.517-3.45 6.59.731 3.785 5.918 6.26 8.05 8.095v.012c-.628.31-5.23 2.638-6.307 5.019-1.136 2.511.18 4.314 1.053 4.556 2.702.752 5.474-.6 6.964-2.823 1.438-2.144 1.319-4.914.694-6.292.862-.227 1.867-.329 3.144-.18 3.604.421 4.31 2.671 4.175 3.613-.135.942-.89 1.46-1.143 1.616-.253.156-.33.21-.309.326.03.17.148.163.363.127.297-.05 1.892-.766 1.96-2.505.087-2.207-2.027-4.676-5.772-4.611-1.543.027-2.512.173-3.213.434a7.187 7.187 0 0 0-.159-.176c-2.315-2.47-6.595-4.217-6.414-7.538.066-1.207.486-4.386 8.224-8.242 6.34-3.159 11.414-2.29 12.29-.363 1.254 2.752-2.711 7.867-9.294 8.605-2.508.281-3.829-.69-4.158-1.053-.345-.38-.397-.398-.526-.327-.21.117-.077.453 0 .654.197.512 1.003 1.419 2.378 1.87 1.21.397 4.155.615 7.716-.762 3.989-1.543 7.103-5.835 6.188-9.423M20.917 31.843c.3 1.106.266 2.137-.042 3.07a5.031 5.031 0 0 1-.246.608 5.74 5.74 0 0 1-.95 1.384c-1.193 1.302-2.86 1.794-3.576 1.38-.772-.448-.385-2.284.999-3.747 1.489-1.574 3.63-2.586 3.63-2.586l-.002-.006.187-.103"/></g><g class="group" transform="translate(87 98)"><rect width="50" height="50" fill="#BEE4E0" rx="25"/><path fill="#424242" d="M37.8 40.5H12.6A3.6 3.6 0 0 1 9 36.9V11.7a3.6 3.6 0 0 1 3.6-3.6h25.2a3.6 3.6 0 0 1 3.6 3.6v25.2a3.6 3.6 0 0 1-3.6 3.6z"/><path fill="#40c4ff" d="M36.792 18.918a13.201 13.201 0 0 1-2.799 4.293c-.018.018-.036.045-.054.063-1.368 1.395-3.186 2.691-5.589 3.726-.243.108-.477.198-.711.297-.846.342-1.638.63-2.394.873-6.336 2.052-9.783 1.323-12.492 8.334-.054.126-.099.261-.153.396 0-.171 0-.342.009-.513.063-3.861 1.053-11.988 13.041-14.787a29.55 29.55 0 0 0 2.889-.837c7.902-2.763 8.811-7.668 8.811-9.288.468 1.386.693 4.329-.558 7.443z"/><path fill="#ff4081" d="M33.993 23.211c-.018.018-.036.045-.054.063-1.368 1.395-3.186 2.691-5.589 3.726-.243.108-.477.198-.711.297-.846.342-1.638.63-2.394.873-6.336 2.052-9.783 1.323-12.492 8.334-.054.126-.099.261-.153.396.018-.144.036-.297.063-.468.036-.243.081-.513.144-.801 0-.009 0-.027.009-.045.513-2.619 1.926-6.696 6.084-8.586 2.52-1.143 9.891-3.024 15.093-3.789z"/><path fill="#ffb74d" d="M25.245 28.17c-6.336 2.052-9.936 1.719-12.645 8.73l.063-.468-.054-.045c.063-.234.126-.486.198-.756 0-.009 0-.027.009-.045.765-2.727 2.466-6.867 8.784-7.686a9.015 9.015 0 0 1 3.645.27z"/><path fill="#7c4dff" d="M36.792 18.918c-2.124 1.62-7.353 4.464-16.992 6.282 1.602-.999 5.517-1.998 8.739-4.437 7.902-2.763 8.811-7.668 8.811-9.288.468 1.386.693 4.329-.558 7.443z"/><path fill="#e040fb" d="M33.939 23.274c-1.449.882-3.6 1.872-7.29 2.574-.459.09-.945.171-1.449.252-3.618.558-6.894 1.629-9.288 4.176-.342.36-.657.756-.963 1.179-1.017 1.413-1.818 3.195-2.349 5.445 0-.171 0-.342.009-.513.126-3.753 1.719-8.064 6.588-11.034 1.413-.864 3.096-1.611 5.103-2.196A28.956 28.956 0 0 1 27 22.5c4.437-.873 6.993-2.511 8.451-4.284 2.322-2.799 1.899-5.913 1.899-6.741.684 2.043.846 7.443-3.411 11.799z"/><path fill="#ff80ab" d="M28.409 22.178c-.449.116-.914.225-1.409.322-.963.189-1.854.405-2.7.657-2.007.585-3.69 1.332-5.103 2.196-2.691 2.394-3.897 4.752-4.248 6.102.306-.423.621-.819.963-1.179 2.01-2.138 4.647-3.23 7.58-3.857 1.522-.913 3.58-2.326 4.917-4.241z"/><path fill="#ffe0b2" d="M24.3 23.157v.018c-1.53.657-6.453 3.429-8.388 7.101-1.476 1.575-2.628 3.708-3.312 6.624 0-.171 0-.342.009-.513.162-4.842 2.763-10.611 11.691-13.23z"/></g><g class="group" transform="translate(200 98)"><rect width="50" height="50" fill="#BEE4E0" rx="25"/><g transform="matrix(.17 0 0 .17 3.06 3.06)"><circle fill="#1A171B" cx="128" cy="128.827" r="128"/><circle fill="#1A171B" cx="128" cy="128.827" r="128"/><circle fill="#1A171B" cx="128" cy="128.827" r="128"/><path d="M183.706 48.124c-12.986.453-24.32 7.61-32.757 17.51-9.342 10.855-15.557 23.73-20.035 36.872-8.01-6.565-14.19-15.064-27.041-18.77-9.933-2.852-20.366-1.674-29.96 5.474-4.545 3.395-7.676 8.527-9.165 13.351-3.855 12.537 4.053 23.694 7.645 27.7l7.853 8.416c1.619 1.65 5.518 5.955 3.612 12.127-2.06 6.71-10.15 11.055-18.448 8.495-3.706-1.13-9.03-3.891-7.838-7.779.493-1.59 1.631-2.78 2.241-4.155.56-1.181.827-2.067.997-2.587 1.516-4.95-.555-11.39-5.857-13.025-4.946-1.516-10.007-.315-11.969 6.054-2.225 7.235 1.237 20.366 19.783 26.084 21.729 6.676 40.11-5.155 42.717-20.586 1.642-9.665-2.722-16.845-10.717-26.08l-6.514-7.204c-3.946-3.942-5.301-10.661-1.217-15.825 3.446-4.356 8.354-6.215 16.392-4.029 11.733 3.186 16.963 11.327 25.69 17.893-3.603 11.819-5.958 23.682-8.09 34.32l-1.299 7.931c-6.238 32.721-11 50.688-23.375 61.003-2.493 1.773-6.057 4.427-11.429 4.612-2.816.087-3.726-1.85-3.765-2.694-.067-1.977 1.599-2.883 2.706-3.773 1.654-.902 4.155-2.398 3.985-7.191-.18-5.664-4.872-10.575-11.654-10.35-5.08.173-12.823 4.954-12.532 13.705.303 9.039 8.728 15.813 21.43 15.384 6.79-.233 21.952-2.997 36.895-20.76 17.392-20.362 22.256-43.705 25.915-60.79l4.084-22.556c2.269.272 4.695.453 7.334.516 21.661.457 32.496-10.763 32.657-18.924.107-4.939-3.241-9.799-7.928-9.689-3.355.095-7.57 2.328-8.582 6.968-.988 4.552 6.893 8.66.733 12.65-4.376 2.832-12.221 4.828-23.269 3.206l2.009-11.103c4.1-21.055 9.157-46.954 28.341-47.584 1.398-.071 6.514.063 6.633 3.446.035 1.13-.245 1.418-1.568 4.005-1.347 2.017-1.855 3.734-1.792 5.707.185 5.376 4.273 8.909 10.185 8.696 7.916-.256 10.193-7.963 10.063-11.921-.32-9.3-10.122-15.175-23.1-14.75Z" fill="#FFF"/></g></g><g class="group" transform="translate(512 500)"><rect width="50" height="50" fill="#BEE4E0" rx="25"/><path fill="#000" d="M9 9h32v32H9zm2.803 28h12v-2h-12zm1.598-18.803h.401c.932-.129 1.599-.932 1.599-2V13h-1.469v3.333c0 .531-.129.667-.531.667s-.667-.136-.803-.401l-.932.803c.401.667 1.068.932 1.735.796zm6.667 0V17h-2.803v-.803h2.401V15h-2.401v-.803h2.803V13h-4.265v5.333h4.265zm1.735 0h1.463v-4h1.599V13h-4.531v1.197h1.599v4zm-5.334 5.068c0-.667-.401-1.197-1.068-1.197.531-.136.796-.667.796-1.204 0-.265-.129-.667-.265-.932-.401-.401-.932-.531-1.463-.531h-2.667v5.197h2.667c1.197 0 2-.531 2-1.333zm-3.333-2.666h.932c.401 0 .667.136.667.401 0 .401-.265.531-.667.531h-.932zm0 2.802v-.932h1.061c.537 0 .803.129.667.395 0 .272-.265.537-.667.537zm9.864-4-2 4.667-.803-1.204c.667-.265 1.068-.932 1.068-1.599 0-.401-.129-.932-.401-1.197-.531-.537-1.197-.667-1.728-.667h-2.537v5.197h1.469v-1.599h.667l1.068 1.599h2.395l.401-.932h2l.401.932h1.599l-2.129-5.333h-1.469zm-4 2.531h-.932v-1.197H19c.401 0 .803.129.803.667 0 .265-.272.531-.803.531zm5.197.667h-1.061l.531-1.463zm2.538 2h1.463v-5.197h-1.463zm5.333-2.402-2.136-2.796h-1.333v5.197h1.469v-2.796l2.265 2.932h1.197v-5.333h-1.463zm4.129-.796c-.667-.136-.932-.265-.932-.537 0-.129.136-.265.537-.265.531 0 1.061.265 1.463.537l.803-1.068c-.667-.537-1.333-.667-2.136-.667-1.197 0-2 .796-2 1.735 0 1.061.803 1.333 2 1.599.667.129.932.265.932.531s-.265.401-.667.401c-.667 0-1.197-.265-1.728-.667l-.803.932c.667.537 1.599.803 2.401.803 1.333 0 2.129-.667 2.129-1.735 0-.932-.796-1.333-2-1.599z"/></g><g class="group" transform="translate(505 388)"><rect width="50" height="50" fill="#BEE4E0" rx="25"/><g transform="matrix(.07 0 0 .07 7 7)"><rect width="512" height="512" rx="50" fill="#3178c6"/><path d="M317 407v50c8.1 4.2 18 7.3 29 9.4s23 3.1 35 3.1 23-1.1 34-3.4 20-6.1 28-11c8.1-5.3 15-12 19-21s7.1-19 7.1-32c0-9.1-1.4-17-4.1-24s-6.6-13-12-18c-5.1-5.3-11-10-18-14s-15-8.2-24-12c-6.6-2.7-12-5.3-18-7.9-5.2-2.6-9.7-5.2-13-7.8-3.7-2.7-6.5-5.5-8.5-8.4-2-3-3-6.3-3-10 0-3.4.89-6.5 2.7-9.3s4.3-5.1 7.5-7.1 7.2-3.5 12-4.6c4.7-1.1 9.9-1.6 16-1.6 4.2 0 8.6.31 13 .94 4.6.63 9.3 1.6 14 2.9 4.7 1.3 9.3 2.9 14 4.9 4.4 2 8.5 4.3 12 6.9v-47c-7.6-2.9-16-5.1-25-6.5s-19-2.1-31-2.1-23 1.3-34 3.8-20 6.5-28 12c-8.1 5.4-14 12-19 21-4.7 8.4-7 18-7 30 0 15 4.3 28 13 38 8.6 11 22 19 39 27 6.9 2.8 13 5.6 19 8.3s11 5.5 15 8.4c4.3 2.9 7.7 6.1 10 9.5 2.5 3.4 3.8 7.4 3.8 12 0 3.2-.78 6.2-2.3 9s-3.9 5.2-7.1 7.2-7.1 3.6-12 4.8c-4.7 1.1-10 1.7-17 1.7-11 0-22-1.9-32-5.7-11-3.8-21-9.5-30-17zm-84-123h64v-41H118v41h64v183h51z" clip-rule="evenodd" fill="#fff" style="fill:#fff"/></g></g><g class="group" transform="translate(170 388)"><rect width="50" height="50" fill="#BEE4E0" rx="25"/><path d="M4.084 18.956s-.96-.692.192-1.616l2.684-2.4s.768-.808 1.58-.104l24.768 18.752v8.992s-.012 1.412-1.824 1.256z" fill="#2489ca"/><path d="m10.468 24.752-6.384 5.804s-.656.488 0 1.36l2.964 2.696s.704.756 1.744-.104l6.768-5.132z" fill="#1070b3"/><path d="m21.676 24.8 11.708-8.94-.076-8.944s-.5-1.952-2.168-.936L15.56 20.16z" fill="#0877b9"/><path d="M31.484 43.848c.68.696 1.504.468 1.504.468l9.124-4.496c1.168-.796 1.004-1.784 1.004-1.784V11.188c0-1.18-1.208-1.588-1.208-1.588L34 5.788c-1.728-1.068-2.86.192-2.86.192s1.456-1.048 2.168.936v35.5c0 .244-.052.484-.156.7-.208.42-.66.812-1.744.648z" fill="#3c99d4"/></g><g class="group" transform="translate(450 250)"><rect width="50" height="50" fill="#BEE4E0" rx="25"/><g fill="#464342"><path d="M6.548 24.941c0 7.28 4.23 13.573 10.366 16.554L8.14 17.455a18.324 18.324 0 0 0-1.592 7.486zM37.359 24.013c0-2.273-.817-3.848-1.517-5.073-.932-1.515-1.806-2.798-1.806-4.314 0-1.69 1.282-3.264 3.088-3.264.082 0 .16.01.239.014a18.326 18.326 0 0 0-12.421-4.828c-6.426 0-12.08 3.297-15.369 8.29.432.014.838.023 1.184.023 1.924 0 4.902-.234 4.902-.234.992-.058 1.108 1.398.118 1.515 0 0-.997.118-2.105.176L20.37 36.24l4.025-12.072-2.865-7.852a33.515 33.515 0 0 1-1.93-.175c-.99-.058-.874-1.574.117-1.516 0 0 3.038.234 4.845.234 1.924 0 4.902-.234 4.902-.234.992-.058 1.109 1.398.118 1.516 0 0-.999.117-2.105.175l6.647 19.773 1.835-6.131c.795-2.544 1.4-4.372 1.4-5.946z"/><path d="m25.264 26.55-5.518 16.037a18.393 18.393 0 0 0 11.304-.294 1.615 1.615 0 0 1-.131-.253zM41.082 16.116c.079.586.124 1.215.124 1.891 0 1.867-.35 3.965-1.4 6.589L34.189 40.84c5.469-3.188 9.147-9.113 9.147-15.899 0-3.198-.817-6.205-2.253-8.825z"/><path d="M24.942 3.5C13.119 3.5 3.5 13.118 3.5 24.941c0 11.824 9.62 21.442 21.442 21.442 11.822 0 21.442-9.618 21.442-21.442 0-11.823-9.62-21.441-21.442-21.441zm0 41.9c-11.28 0-20.459-9.178-20.459-20.459 0-11.28 9.178-20.458 20.459-20.458 11.28 0 20.457 9.178 20.457 20.458 0 11.281-9.177 20.46-20.457 20.46z"/></g></g><path class="i" d="M654 647H0V0h654v647ZM1 646h652V1H1v645Z"/></g></svg>