<svg xmlns="http://www.w3.org/2000/svg" width="3028.294" height="3056.559"><defs><style>.a{fill:#231f20}</style></defs><g transform="translate(136.126 790.105)"><path class="a" d="M-108.782 206.11a27.239 27.239 0 1 1 27.345-27.239 27.292 27.292 0 0 1-27.345 27.239ZM-25.655 230.352a24.745 24.745 0 0 1-24.792-24.696 24.654 24.654 0 0 1 24.792-24.606 24.652 24.652 0 1 1 0 49.3ZM57.472 254.958a22.141 22.141 0 1 1 22.149-22.064 22.242 22.242 0 0 1-22.149 22.064ZM140.599 279.382a19.691 19.691 0 1 1 19.687-19.612 19.781 19.781 0 0 1-19.687 19.612ZM223.634 304.624a17.433 17.433 0 1 1 17.5-17.433 17.467 17.467 0 0 1-17.5 17.433ZM306.761 329.864a15.526 15.526 0 1 1 15.587-15.526 15.556 15.556 0 0 1-15.587 15.526ZM389.886 355.106a13.62 13.62 0 1 1 13.674-13.62 13.646 13.646 0 0 1-13.674 13.62ZM473.015 380.619a11.978 11.978 0 1 1 11.94-11.894 12.033 12.033 0 0 1-11.94 11.894ZM556.142 406.496a10.351 10.351 0 1 1 10.391-10.35 10.371 10.371 0 0 1-10.391 10.35ZM639.177 432.01a9.08 9.08 0 1 1 9.115-9.08 9.1 9.1 0 0 1-9.115 9.08ZM722.304 457.797a7.627 7.627 0 1 1 7.657-7.624 7.733 7.733 0 0 1-7.656 7.627ZM805.431 483.945a6.628 6.628 0 1 1 6.656-6.626 6.641 6.641 0 0 1-6.654 6.628ZM888.556 510.82a6.352 6.352 0 1 1 6.289-6.265 6.277 6.277 0 0 1-6.289 6.265ZM971.684 538.15a6.54 6.54 0 1 1 0-12.984 6.54 6.54 0 1 1 0 12.984ZM1054.72 565.934a7.169 7.169 0 1 1 7.2-7.082 7.1 7.1 0 0 1-7.2 7.082ZM1137.938 593.627a7.627 7.627 0 1 1 7.656-7.627 7.733 7.733 0 0 1-7.656 7.627ZM1220.974 621.138a7.99 7.99 0 1 1 8.021-7.99 7.915 7.915 0 0 1-8.021 7.99ZM1304.1 648.831a8.53 8.53 0 1 1 8.477-8.535 8.46 8.46 0 0 1-8.477 8.535ZM1387.227 677.159a9.709 9.709 0 1 1 9.662-9.624 9.643 9.643 0 0 1-9.662 9.624ZM1470.262 699.223a4.64 4.64 0 0 1-4.557-4.54 4.652 4.652 0 0 1 9.115 0 4.64 4.64 0 0 1-4.558 4.54ZM1553.39 726.738a4.9 4.9 0 1 1 4.922-4.9 4.913 4.913 0 0 1-4.922 4.9ZM1636.517 754.336a5.367 5.367 0 0 1-5.378-5.357 5.458 5.458 0 0 1 5.378-5.357 5.367 5.367 0 0 1 5.378 5.357 5.277 5.277 0 0 1-5.378 5.357ZM1719.644 781.938a5.811 5.811 0 1 1 5.833-5.811 5.822 5.822 0 0 1-5.833 5.811ZM1802.769 809.631a6.352 6.352 0 1 1 6.289-6.265 6.277 6.277 0 0 1-6.289 6.265ZM1885.897 837.232a7.273 7.273 0 0 1-3.687-13.265 6.834 6.834 0 0 1 10.434 6.546 6.732 6.732 0 0 1-6.745 6.719ZM1968.933 864.925a7.264 7.264 0 1 1 7.292-7.264 7.278 7.278 0 0 1-7.292 7.264ZM2052.059 892.527a7.718 7.718 0 1 1 7.748-7.718 7.733 7.733 0 0 1-7.748 7.718ZM2135.186 920.311a8.353 8.353 0 1 1 8.385-8.353 8.369 8.369 0 0 1-8.385 8.353ZM2218.313 948.276a9.08 9.08 0 1 1 9.115-9.08 9.1 9.1 0 0 1-9.115 9.08ZM2301.439 976.15a9.891 9.891 0 1 1 9.844-9.806 9.936 9.936 0 0 1-9.844 9.806ZM2384.475 1004.025a10.553 10.553 0 1 1 7.535-3.052 10.552 10.552 0 0 1-7.535 3.052ZM2467.601 1031.899a11.281 11.281 0 1 1 8.051-3.265 11.28 11.28 0 0 1-8.051 3.265ZM2550.728 1060.228a12.159 12.159 0 1 1 12.123-12.167 12.1 12.1 0 0 1-12.123 12.167ZM2633.855 1088.011a13.075 13.075 0 1 1 13.125-13.075 13.009 13.009 0 0 1-13.125 13.075ZM2716.983 1116.158a14.065 14.065 0 1 1 14.037-13.983 14.129 14.129 0 0 1-14.037 13.983ZM2800.018 1144.305a15.063 15.063 0 1 1 15.13-14.985 15.011 15.011 0 0 1-15.131 14.981ZM-108.782 293.274a27.239 27.239 0 1 1 27.345-27.239 27.292 27.292 0 0 1-27.345 27.239ZM-25.655 317.516A24.7 24.7 0 1 1-.867 292.82a24.745 24.745 0 0 1-24.792 24.7ZM57.472 342.031a22.064 22.064 0 1 1 22.149-22.067 22.106 22.106 0 0 1-22.149 22.067ZM140.599 366.728a19.559 19.559 0 1 1 13.948-5.717 19.65 19.65 0 0 1-13.948 5.717ZM223.635 391.701a17.423 17.423 0 1 1 17.5-17.342 17.5 17.5 0 0 1-17.5 17.342ZM306.761 416.938a15.435 15.435 0 1 1 15.495-15.436 15.465 15.465 0 0 1-15.495 15.436ZM389.886 442.27a13.62 13.62 0 1 1 13.674-13.62 13.646 13.646 0 0 1-13.674 13.62ZM473.015 467.784a11.978 11.978 0 1 1 11.94-11.98 12.033 12.033 0 0 1-11.94 11.98ZM556.139 493.297a10.344 10.344 0 1 1 10.3-10.35 10.392 10.392 0 0 1-10.3 10.35ZM639.177 519.083a9.08 9.08 0 1 1 9.115-9.08 9.1 9.1 0 0 1-9.115 9.08ZM722.304 544.961a7.627 7.627 0 1 1 7.657-7.624 7.642 7.642 0 0 1-7.656 7.627Z"/><ellipse class="a" cx="6.563" cy="6.537" rx="6.563" ry="6.537" transform="translate(798.868 557.944)"/><path class="a" d="M888.558 597.168a5.539 5.539 0 1 1 0-11.077 5.64 5.64 0 0 1 5.56 5.539 5.549 5.549 0 0 1-5.56 5.539ZM971.684 623.497a4.718 4.718 0 1 1 4.648-4.721 4.741 4.741 0 0 1-4.648 4.721ZM1054.72 650.102a4.179 4.179 0 1 1 4.14-1.868 4.182 4.182 0 0 1-4.14 1.868Z"/><ellipse class="a" cx="3.737" cy="3.723" rx="3.737" ry="3.723" transform="translate(1134.11 669.351)"/><path class="a" d="M1220.973 704.04a3.821 3.821 0 0 1-3.737-3.723 3.737 3.737 0 1 1 3.737 3.723ZM1304.1 731.274a3.821 3.821 0 0 1-3.828-3.813 3.805 3.805 0 1 1 3.828 3.813ZM1387.226 758.695a4.086 4.086 0 1 1 4.1-4.086 4.094 4.094 0 0 1-4.1 4.086ZM1470.263 786.205a4.446 4.446 0 1 1 4.465-4.358 4.466 4.466 0 0 1-4.466 4.358ZM1553.39 813.898a4.913 4.913 0 0 1-4.922-4.9 4.968 4.968 0 1 1 4.922 4.9ZM1636.517 841.591a5.535 5.535 0 1 1 5.56-5.448 5.459 5.459 0 0 1-5.56 5.448ZM1719.643 869.557a6.083 6.083 0 1 1 6.107-6.083 6.1 6.1 0 0 1-6.107 6.083ZM1802.77 896.799a6.628 6.628 0 1 1 6.654-6.628 6.641 6.641 0 0 1-6.654 6.628ZM1885.897 924.76a7.168 7.168 0 1 1 7.109-7.173 7.2 7.2 0 0 1-7.109 7.173ZM1968.933 952.544a7.718 7.718 0 1 1 7.747-7.718 7.733 7.733 0 0 1-7.747 7.718ZM2052.059 980.236a8.348 8.348 0 1 1 8.295-8.262 8.279 8.279 0 0 1-8.295 8.262ZM2135.186 1008.111a9.08 9.08 0 1 1 9.115-9.08 9.1 9.1 0 0 1-9.115 9.08ZM2218.313 1036.166a9.9 9.9 0 1 1 9.935-9.9 9.916 9.916 0 0 1-9.935 9.9Z"/><ellipse class="a" cx="10.755" cy="10.714" rx="10.755" ry="10.714" transform="translate(2290.593 1042.704)"/><path class="a" d="M2384.475 1092.184a11.615 11.615 0 1 1 11.667-11.531 11.554 11.554 0 0 1-11.667 11.531ZM2467.605 1120.244a12.439 12.439 0 1 1 12.487-12.439 12.463 12.463 0 0 1-12.487 12.439Z"/><ellipse class="a" cx="13.49" cy="13.438" rx="13.49" ry="13.438" transform="translate(2537.239 1121.515)"/><path class="a" d="M2633.852 1176.629a14.528 14.528 0 1 1 14.584-14.527 14.556 14.556 0 0 1-14.584 14.527ZM2716.982 1204.961a15.7 15.7 0 1 1 15.677-15.708 15.647 15.647 0 0 1-15.677 15.708ZM2800.018 1233.285a16.83 16.83 0 1 1 12.015-4.92 16.921 16.921 0 0 1-12.015 4.92ZM-108.782 380.35a27.239 27.239 0 1 1 27.345-27.241 27.292 27.292 0 0 1-27.345 27.241ZM-25.655 403.954a24.016 24.016 0 1 1 17.139-41.016 23.99 23.99 0 0 1-17.139 41.016ZM57.472 428.015a20.883 20.883 0 1 1 20.964-20.883 20.924 20.924 0 0 1-20.964 20.883ZM140.599 452.439a18.159 18.159 0 1 1 18.23-18.159 18.194 18.194 0 0 1-18.23 18.159ZM223.634 477.045a15.617 15.617 0 1 1 15.678-15.617 15.647 15.647 0 0 1-15.678 15.617ZM306.761 502.014a13.438 13.438 0 1 1 13.49-13.8 13.371 13.371 0 0 1-13.49 13.8ZM389.888 527.074a11.35 11.35 0 1 1 11.3-11.622 11.279 11.279 0 0 1-11.3 11.622ZM473.015 552.406a9.08 9.08 0 1 1 9.115-9.08 9.1 9.1 0 0 1-9.115 9.08ZM556.141 577.919a7.8 7.8 0 1 1 7.565-7.99 7.842 7.842 0 0 1-7.565 7.99ZM639.18 603.615a6.369 6.369 0 1 1 4.662-1.827 6.367 6.367 0 0 1-4.662 1.827ZM722.304 629.401a5.006 5.006 0 1 1 3.842-1.292 5 5 0 0 1-3.843 1.292ZM805.43 655.55a4 4 0 1 1 4.375-3.9 3.914 3.914 0 0 1-4.375 3.9ZM888.557 681.972a3.267 3.267 0 0 1 0-6.447 3.267 3.267 0 0 1 0 6.447ZM971.685 708.757a2.815 2.815 0 1 1 2.826-2.815 2.82 2.82 0 0 1-2.826 2.815ZM1054.716 735.905a2.82 2.82 0 1 1 2.057-.792 2.819 2.819 0 0 1-2.057.792Z"/><ellipse class="a" cx="3.099" cy="3.087" rx="3.099" ry="3.087" transform="translate(1134.748 757.151)"/><path class="a" d="M1220.974 790.925a3.543 3.543 0 1 1 3.546-1.564 3.561 3.561 0 0 1-3.546 1.564Z"/><ellipse class="a" cx="3.919" cy="3.904" rx="3.919" ry="3.904" transform="translate(1300.181 810.63)"/><path class="a" d="M1387.227 845.949a4.174 4.174 0 1 1 4.1-4.177 4.194 4.194 0 0 1-4.1 4.177ZM1470.263 873.37a4.449 4.449 0 1 1 4.466-4.449 4.458 4.458 0 0 1-4.466 4.449ZM1553.389 900.699a4.6 4.6 0 1 1 4.648-4.631 4.64 4.64 0 0 1-4.649 4.631ZM1636.516 928.024a4.809 4.809 0 1 1 4.831-4.721 4.831 4.831 0 0 1-4.831 4.721ZM1719.641 955.358a4.9 4.9 0 1 1 4.922-4.9 4.912 4.912 0 0 1-4.922 4.9ZM1802.77 982.688a5.186 5.186 0 0 1-5.2-5.086 5.277 5.277 0 0 1 5.2-5.174 5.185 5.185 0 0 1 5.1 5.175 5.094 5.094 0 0 1-5.1 5.085ZM1885.897 1010.017a5.266 5.266 0 1 1 5.287-5.266 5.276 5.276 0 0 1-5.287 5.266ZM1968.932 1037.347a5.448 5.448 0 1 1 5.469-5.448 5.458 5.458 0 0 1-5.469 5.448ZM2052.059 1064.586a5.539 5.539 0 1 1 5.56-5.539 5.549 5.549 0 0 1-5.56 5.539ZM2135.186 1092.006a5.807 5.807 0 1 1 5.742-5.72 5.731 5.731 0 0 1-5.742 5.72ZM2218.313 1119.881a6.447 6.447 0 1 1 6.471-6.447 6.459 6.459 0 0 1-6.471 6.447ZM2301.439 1148.3a7.713 7.713 0 1 1 7.656-7.718 7.749 7.749 0 0 1-7.656 7.718ZM2384.476 1176.719a9.08 9.08 0 1 1 9.115-9.08 9.1 9.1 0 0 1-9.115 9.08ZM2467.602 1205.502a10.26 10.26 0 1 1 10.3-10.26 10.28 10.28 0 0 1-10.3 10.26ZM2550.729 1233.739a11.706 11.706 0 1 1 11.758-11.622 11.645 11.645 0 0 1-11.758 11.622ZM2633.855 1262.43a13.248 13.248 0 1 1 13.217-13.162 13.309 13.309 0 0 1-13.217 13.162ZM2716.982 1291.122a14.709 14.709 0 1 1 14.766-14.708 14.737 14.737 0 0 1-14.766 14.708ZM2800.018 1320.086a16.466 16.466 0 1 1 11.757-4.813 16.557 16.557 0 0 1-11.757 4.813ZM-108.781 460.067a20.112 20.112 0 1 1 0-40.223 20.112 20.112 0 1 1 0 40.223ZM-25.655 487.215A20.111 20.111 0 1 1-5.51 467.058a20.1 20.1 0 0 1-20.145 20.157ZM57.472 513.454a19.237 19.237 0 1 1 19.323-19.158 19.2 19.2 0 0 1-19.323 19.158ZM140.602 539.15a18.147 18.147 0 1 1 17.68-18.16 18.235 18.235 0 0 1-17.68 18.16ZM223.634 563.301a14.709 14.709 0 1 1 14.764-14.709 14.738 14.738 0 0 1-14.764 14.709Z"/><ellipse class="a" cx="10.938" cy="10.896" rx="10.938" ry="10.896" transform="translate(295.823 564.845)"/><path class="a" d="M389.888 610.243a7.351 7.351 0 1 1 6.568-7.309 7.393 7.393 0 0 1-6.568 7.309ZM473.015 635.303a5.263 5.263 0 1 1 5.2-5.266 5.288 5.288 0 0 1-5.2 5.266ZM556.141 662.087a4.9 4.9 0 1 1 4.831-4.812 4.923 4.923 0 0 1-4.831 4.812ZM639.177 688.963a4.549 4.549 0 1 1 3.281-1.3 4.548 4.548 0 0 1-3.281 1.3ZM722.304 715.839a4.267 4.267 0 1 1 4.286-4.265 4.276 4.276 0 0 1-4.286 4.265ZM805.431 742.896a4.177 4.177 0 1 1 4.193-4.177 4.185 4.185 0 0 1-4.193 4.177ZM888.557 769.681a4.174 4.174 0 1 1 3.576-4.131 4.2 4.2 0 0 1-3.576 4.131ZM971.685 796.919a4.185 4.185 0 0 1-4.193-4.087 4.276 4.276 0 0 1 4.193-4.176 4.184 4.184 0 0 1 4.1 4.177 4.094 4.094 0 0 1-4.1 4.086ZM1054.717 824.159a3.927 3.927 0 1 1 4.284-4.177 4.276 4.276 0 0 1-4.284 4.177ZM1137.938 851.397a4.267 4.267 0 1 1 4.284-4.267 4.276 4.276 0 0 1-4.284 4.267ZM1220.974 878.636a4.366 4.366 0 0 1-4.284-4.358 4.276 4.276 0 0 1 4.284-4.267 4.367 4.367 0 0 1 4.375 4.268 4.458 4.458 0 0 1-4.375 4.357ZM1304.1 905.874a4.446 4.446 0 1 1 4.375-4.449 4.467 4.467 0 0 1-4.375 4.449ZM1387.227 933.113a4.367 4.367 0 0 1-4.466-4.358 4.558 4.558 0 0 1 9.115 0 4.368 4.368 0 0 1-4.648 4.358ZM1470.263 960.352a4.356 4.356 0 1 1 4.375-4.267 4.276 4.276 0 0 1-4.375 4.267ZM1553.39 987.591a4.185 4.185 0 0 1-4.193-4.177 4.282 4.282 0 1 1 8.477 0 4.185 4.185 0 0 1-4.284 4.177ZM1636.516 1014.83a4.086 4.086 0 1 1 4.1-4.086 4.094 4.094 0 0 1-4.1 4.086ZM1719.644 1041.524a3.95 3.95 0 1 1 0-7.9 3.912 3.912 0 0 1 3.919 3.9 4 4 0 0 1-3.919 3.995ZM1802.77 1068.581a3.9 3.9 0 1 1 3.828-3.9 3.82 3.82 0 0 1-3.828 3.9ZM1885.897 1095.638a3.73 3.73 0 0 1-3.828-3.723 3.826 3.826 0 1 1 7.565 0 3.729 3.729 0 0 1-3.737 3.723Z"/><ellipse class="a" cx="3.828" cy="3.813" rx="3.828" ry="3.813" transform="translate(1965.104 1115.25)"/><path class="a" d="M2052.059 1150.116a3.9 3.9 0 1 1 3.919-3.9 3.912 3.912 0 0 1-3.919 3.9ZM2135.186 1177.536a4.094 4.094 0 0 1-4.193-4.177 4.193 4.193 0 0 1 8.385 0 4.094 4.094 0 0 1-4.193 4.177ZM2218.313 1205.502a4.537 4.537 0 1 1 4.466-4.54 4.457 4.457 0 0 1-4.466 4.54ZM2301.44 1236.554a9.08 9.08 0 1 1 9.115-9.08 9.1 9.1 0 0 1-9.115 9.08ZM2384.475 1264.882a10.007 10.007 0 1 1 7.148-2.893 10.006 10.006 0 0 1-7.148 2.893ZM2467.602 1293.21a11.19 11.19 0 1 1 7.986-3.238 11.189 11.189 0 0 1-7.986 3.238ZM2550.729 1321.63a12.439 12.439 0 1 1 12.483-12.439 12.463 12.463 0 0 1-12.483 12.439ZM2633.855 1349.686a13.339 13.339 0 1 1 13.308-13.347 13.281 13.281 0 0 1-13.307 13.347ZM2716.983 1378.014a14.156 14.156 0 1 1 14.219-14.073 14.1 14.1 0 0 1-14.219 14.073ZM2800.018 1405.253a14.791 14.791 0 1 1 15.04-14.527 14.856 14.856 0 0 1-15.04 14.527ZM-108.781 551.77a25.017 25.017 0 0 1-25.066-24.969 25.2 25.2 0 0 1 43.042-17.662 24.94 24.94 0 0 1-17.976 42.631ZM-46.364 553.245a20.691 20.691 0 1 1 19.742 21.521 20.66 20.66 0 0 1-19.742-21.521ZM57.472 597.895a16.525 16.525 0 1 1 16.589-16.525 16.466 16.466 0 0 1-16.589 16.525ZM140.599 621.229a12.712 12.712 0 1 1 12.759-12.712 12.645 12.645 0 0 1-12.759 12.712ZM223.63 644.746a9.08 9.08 0 1 1 9.115-9.08 9.1 9.1 0 0 1-9.115 9.08ZM306.761 670.259a7.369 7.369 0 0 1-7.383-7.355 7.429 7.429 0 1 1 7.383 7.354ZM389.888 695.682a5.629 5.629 0 1 1 5.651-5.629 5.64 5.64 0 0 1-5.651 5.629ZM473.015 721.831a4.631 4.631 0 1 1 4.649-4.631 4.64 4.64 0 0 1-4.649 4.631ZM556.141 748.889a4.54 4.54 0 1 1 4.557-4.54 4.458 4.458 0 0 1-4.557 4.54ZM639.177 775.946a4.367 4.367 0 0 1-4.466-4.358 4.558 4.558 0 0 1 9.115 0 4.368 4.368 0 0 1-4.648 4.358ZM722.309 803.093a4.458 4.458 0 0 1-4.375-4.358 4.367 4.367 0 0 1 4.375-4.358 4.276 4.276 0 0 1 4.375 4.358 4.367 4.367 0 0 1-4.375 4.358ZM805.431 830.151a4.267 4.267 0 1 1 4.284-4.267 4.276 4.276 0 0 1-4.284 4.267Z"/><ellipse class="a" cx="4.193" cy="4.177" rx="4.193" ry="4.177" transform="translate(884.365 848.855)"/><path class="a" d="M971.685 884.356a4.094 4.094 0 0 1-4.193-4.177 4.185 4.185 0 0 1 4.193-4.177 4.276 4.276 0 0 1 4.193 4.177 4.185 4.185 0 0 1-4.193 4.177ZM1054.72 911.595a4.267 4.267 0 1 1 4.284-4.267 4.276 4.276 0 0 1-4.284 4.267ZM1137.938 938.834a4.267 4.267 0 1 1 4.284-4.267 4.276 4.276 0 0 1-4.284 4.267ZM1220.969 965.981a4.356 4.356 0 1 1 4.375-4.267 4.375 4.375 0 0 1-4.375 4.267ZM1304.1 993.22a4.358 4.358 0 1 1 4.375-4.358 4.276 4.276 0 0 1-4.375 4.358ZM1387.227 1020.459a4.449 4.449 0 1 1 4.466-4.449 4.458 4.458 0 0 1-4.466 4.449ZM1470.263 1047.519a4.056 4.056 0 1 1 4.375-4.358 4.366 4.366 0 0 1-4.375 4.358ZM1553.39 1074.482a4.094 4.094 0 0 1-4.1-4.086 4.184 4.184 0 0 1 4.1-4.177 4.276 4.276 0 0 1 4.193 4.177 4.185 4.185 0 0 1-4.193 4.086ZM1636.516 1101.449a3.9 3.9 0 1 1 3.919-3.9 3.912 3.912 0 0 1-3.919 3.9ZM1719.643 1128.507a3.814 3.814 0 1 1 3.828-3.813 3.821 3.821 0 0 1-3.828 3.813ZM1802.77 1155.563a3.723 3.723 0 1 1 3.733-3.725 3.73 3.73 0 0 1-3.733 3.725ZM1885.897 1183.165a4.276 4.276 0 0 1-4.193-4.177 4.186 4.186 0 0 1 4.193-4.086 4.094 4.094 0 0 1 4.1 4.086 4.184 4.184 0 0 1-4.1 4.177ZM1968.932 1210.677a4.537 4.537 0 1 1 4.557-4.449 4.458 4.458 0 0 1-4.557 4.449ZM2052.063 1238.642a5.266 5.266 0 1 1 5.287-5.266 5.276 5.276 0 0 1-5.287 5.266ZM2135.186 1266.516a5.993 5.993 0 1 1 6.016-5.992 6 6 0 0 1-6.016 5.992ZM2218.313 1294.391a6.719 6.719 0 1 1 6.745-6.719 6.732 6.732 0 0 1-6.745 6.719Z"/><ellipse class="a" cx="7.565" cy="7.536" rx="7.565" ry="7.536" transform="translate(2293.783 1307.284)"/><path class="a" d="M2384.476 1350.775a8.353 8.353 0 1 1 8.386-8.353 8.37 8.37 0 0 1-8.386 8.353Z"/><ellipse class="a" cx="9.388" cy="9.352" rx="9.388" ry="9.352" transform="translate(2458.214 1359.764)"/><path class="a" d="M2550.729 1406.706a10.351 10.351 0 1 1 10.391-10.351 10.371 10.371 0 0 1-10.391 10.351ZM2633.855 1434.852a11.35 11.35 0 1 1 11.394-11.349 11.372 11.372 0 0 1-11.394 11.349ZM2716.982 1463.271a12.621 12.621 0 1 1 12.67-12.621 12.646 12.646 0 0 1-12.67 12.621ZM2800.018 1491.691a13.892 13.892 0 1 1 13.946-13.892 13.828 13.828 0 0 1-13.946 13.892ZM-108.781 628.039a13.882 13.882 0 0 1-9.829-4.075 13.773 13.773 0 0 1-4.026-9.817 13.828 13.828 0 0 1 13.855-13.801 13.919 13.919 0 0 1 13.945 13.801 13.919 13.919 0 0 1-13.945 13.892Z"/><ellipse class="a" cx="12.305" cy="12.257" rx="12.305" ry="12.257" transform="translate(-37.96 629.038)"/><ellipse class="a" cx="10.755" cy="10.714" rx="10.755" ry="10.714" transform="translate(46.716 657.82)"/><ellipse class="a" cx="9.115" cy="9.08" rx="9.115" ry="9.08" transform="translate(131.393 686.602)"/><path class="a" d="M223.634 730.276a7.445 7.445 0 1 1 7.474-7.445 7.46 7.46 0 0 1-7.474 7.445ZM306.761 755.334a5.354 5.354 0 1 1 5.287-5.353 5.276 5.276 0 0 1-5.287 5.357ZM389.888 782.3a5.172 5.172 0 1 1 5.2-5.085 5.2 5.2 0 0 1-5.2 5.085ZM473.015 809.359a5.081 5.081 0 1 1 5.013-4.994 5.105 5.105 0 0 1-5.013 4.994ZM556.142 836.416a4.9 4.9 0 1 1 4.922-4.9 4.913 4.913 0 0 1-4.922 4.9ZM639.177 863.473a4.812 4.812 0 1 1 4.831-4.812 4.822 4.822 0 0 1-4.831 4.812ZM722.304 890.53a4.721 4.721 0 1 1 4.74-4.721 4.64 4.64 0 0 1-4.74 4.721ZM805.431 917.588a4.628 4.628 0 1 1 4.557-4.54 4.549 4.549 0 0 1-4.557 4.54ZM888.558 944.645a4.537 4.537 0 1 1 4.466-4.449 4.458 4.458 0 0 1-4.466 4.449ZM971.684 971.793a4.458 4.458 0 0 1-4.557-4.449 4.558 4.558 0 0 1 9.115 0 4.458 4.458 0 0 1-4.557 4.449ZM1054.72 998.941a4.458 4.458 0 1 1 3.216-1.27 4.457 4.457 0 0 1-3.216 1.27ZM1137.938 1026.18a4.549 4.549 0 1 1 3.281-1.3 4.548 4.548 0 0 1-3.281 1.3ZM1220.974 1053.328a4.537 4.537 0 1 1 4.466-4.54 4.457 4.457 0 0 1-4.466 4.54ZM1304.1 1080.476a4.458 4.458 0 0 1-4.466-4.449 4.558 4.558 0 0 1 9.115 0 4.458 4.458 0 0 1-4.648 4.449ZM1387.227 1107.624a4.449 4.449 0 1 1 4.466-4.449 4.458 4.458 0 0 1-4.466 4.449ZM1470.263 1134.59a4.276 4.276 0 1 1 3.088-1.217 4.275 4.275 0 0 1-3.088 1.217ZM1553.39 1161.557a4.086 4.086 0 1 1 4.1-4.086 4.094 4.094 0 0 1-4.1 4.086ZM1636.516 1188.522a3.9 3.9 0 1 1 3.919-3.9 3.912 3.912 0 0 1-3.919 3.9ZM1719.643 1215.489a3.725 3.725 0 1 1 3.717-1.65 3.743 3.743 0 0 1-3.717 1.65ZM1802.77 1242.546a3.548 3.548 0 0 1-3.646-3.541 3.644 3.644 0 1 1 7.2 0 3.548 3.548 0 0 1-3.554 3.541ZM1885.897 1269.694a3.541 3.541 0 1 1 3.555-3.541 3.548 3.548 0 0 1-3.555 3.541ZM1968.935 1297.024a3.723 3.723 0 1 1 3.737-3.723 3.639 3.639 0 0 1-3.737 3.723ZM2052.06 1324.536a4.086 4.086 0 1 1 4.1-4.086 4.094 4.094 0 0 1-4.1 4.086ZM2135.186 1352.137a4.537 4.537 0 1 1 4.466-4.449 4.458 4.458 0 0 1-4.466 4.449ZM2218.312 1380.012a5.186 5.186 0 0 1-5.2-5.176 5.094 5.094 0 0 1 5.2-5.175 5.185 5.185 0 0 1 5.2 5.175 5.276 5.276 0 0 1-5.2 5.175ZM2301.439 1407.886a5.9 5.9 0 1 1 5.833-5.9 5.926 5.926 0 0 1-5.833 5.9ZM2384.475 1435.943a6.81 6.81 0 1 1 6.836-6.81 6.823 6.823 0 0 1-6.836 6.81Z"/><ellipse class="a" cx="7.839" cy="7.808" rx="7.839" ry="7.808" transform="translate(2459.763 1448.472)"/><path class="a" d="M2550.729 1492.598a9.08 9.08 0 1 1 9.115-9.08 9.1 9.1 0 0 1-9.115 9.08ZM2633.856 1521.018a10.351 10.351 0 1 1 10.391-10.351 10.371 10.371 0 0 1-10.391 10.351ZM2716.982 1549.53a11.8 11.8 0 1 1 11.758-11.713 11.851 11.851 0 0 1-11.758 11.713ZM2800.019 1578.401a13.465 13.465 0 1 1 9.6-3.9 13.463 13.463 0 0 1-9.6 3.9ZM-108.781 719.288a18.159 18.159 0 1 1 0-36.318 18.159 18.159 0 1 1 0 36.318ZM-25.655 741.625a13.211 13.211 0 1 1 13.216-13.257 13.139 13.139 0 0 1-3.839 9.368 13.242 13.242 0 0 1-9.378 3.888ZM57.472 765.689a10.078 10.078 0 1 1 10.118-10.082 10.1 10.1 0 0 1-10.118 10.082ZM140.597 790.745a7.985 7.985 0 1 1 7.93-7.9 7.915 7.915 0 0 1-7.93 7.9ZM223.634 816.713a6.719 6.719 0 1 1 6.745-6.719 6.732 6.732 0 0 1-6.745 6.719ZM306.761 843.318a6.174 6.174 0 1 1 6.2-6.174 6.1 6.1 0 0 1-6.2 6.174Z"/><ellipse class="a" cx="5.651" cy="5.629" rx="5.651" ry="5.629" transform="translate(384.237 858.661)"/><path class="a" d="M473.015 896.795a5.173 5.173 0 1 1 4.513-5.13 5.2 5.2 0 0 1-4.508 5.13ZM556.141 923.307a4.718 4.718 0 1 1 4.648-4.631 4.64 4.64 0 0 1-4.648 4.631ZM639.177 950.365a4.549 4.549 0 1 1 3.281-1.3 4.548 4.548 0 0 1-3.281 1.3ZM722.304 977.332a4.54 4.54 0 1 1 4.557-4.54 4.549 4.549 0 0 1-4.557 4.54ZM805.431 1004.388a4.267 4.267 0 1 1 4.284-4.267 4.276 4.276 0 0 1-4.284 4.267ZM888.562 1031.627a4.356 4.356 0 1 1 3.745-4.313 4.382 4.382 0 0 1-3.745 4.313ZM971.685 1058.866a4.446 4.446 0 1 1 4.375-4.358 4.467 4.467 0 0 1-4.375 4.358ZM1054.72 1086.105a4.54 4.54 0 1 1 4.557-4.54 4.549 4.549 0 0 1-4.557 4.54ZM1137.938 1113.253a4.449 4.449 0 1 1 4.466-4.449 4.458 4.458 0 0 1-4.466 4.449ZM1220.973 1140.401a4.449 4.449 0 1 1 4.466-4.449 4.458 4.458 0 0 1-4.466 4.449ZM1304.1 1167.549a4.449 4.449 0 1 1 4.466-4.449 4.458 4.458 0 0 1-4.466 4.449ZM1387.227 1194.697a4.446 4.446 0 1 1 4.466-4.358 4.466 4.466 0 0 1-4.466 4.358ZM1470.263 1221.754a4.267 4.267 0 1 1 4.284-4.268 4.276 4.276 0 0 1-4.284 4.268ZM1553.39 1248.63a4.083 4.083 0 1 1 4.1-4 4 4 0 0 1-4.1 3.995ZM1636.516 1275.596a3.813 3.813 0 1 1 3.828-3.813 3.821 3.821 0 0 1-3.828 3.813ZM1719.643 1302.653a3.723 3.723 0 1 1 3.737-3.723 3.73 3.73 0 0 1-3.737 3.723ZM1802.77 1329.801a3.725 3.725 0 1 1 3.716-1.65 3.743 3.743 0 0 1-3.716 1.65ZM1885.897 1357.313a4.083 4.083 0 1 1 4.01-4 4.1 4.1 0 0 1-4.01 4ZM1968.932 1384.914a4.458 4.458 0 0 1-4.466-4.449 4.558 4.558 0 0 1 9.115 0 4.458 4.458 0 0 1-4.648 4.449ZM2052.059 1412.789a5.236 5.236 0 0 1-3.706-8.894 5.206 5.206 0 0 1 3.706-1.548 5.276 5.276 0 0 1 5.287 5.266 5.186 5.186 0 0 1-5.287 5.175ZM2135.186 1440.754a5.993 5.993 0 1 1 6.016-5.992 6.1 6.1 0 0 1-6.016 5.992ZM2218.313 1468.81a6.719 6.719 0 1 1 6.745-6.719 6.732 6.732 0 0 1-6.745 6.719ZM2301.436 1496.594a7.445 7.445 0 1 1 7.474-7.445 7.46 7.46 0 0 1-7.474 7.445ZM2384.475 1524.559a8.348 8.348 0 1 1 8.386-8.262 8.279 8.279 0 0 1-8.386 8.262ZM2467.602 1552.707a9.08 9.08 0 1 1 9.115-9.08 9.1 9.1 0 0 1-9.115 9.08ZM2550.655 1560.274a10.351 10.351 0 1 1-10.373 10.369 10.371 10.371 0 0 1 10.373-10.37ZM2633.855 1609.09a11.35 11.35 0 1 1 11.394-11.349 11.371 11.371 0 0 1-11.394 11.349ZM2716.981 1637.509a12.613 12.613 0 1 1 12.579-12.62 12.671 12.671 0 0 1-12.579 12.62ZM2800.018 1665.928a13.884 13.884 0 1 1 13.946-13.8 13.828 13.828 0 0 1-13.946 13.8ZM-108.781 796.284a7.824 7.824 0 0 1-7.84-7.808 7.793 7.793 0 0 1 2.263-5.58 7.854 7.854 0 0 1 5.577-2.32 7.915 7.915 0 0 1 7.93 7.9 7.915 7.915 0 0 1-7.93 7.808ZM-25.654 822.614a7.033 7.033 0 0 1-5.022-2.015 6.978 6.978 0 0 1-2.088-4.976 7.089 7.089 0 0 1 12.105-5 6.977 6.977 0 0 1 2.023 5 6.887 6.887 0 0 1-2.028 4.971 6.941 6.941 0 0 1-4.99 2.02ZM57.471 849.218a6.447 6.447 0 1 1 6.471-6.447 6.459 6.459 0 0 1-6.471 6.447ZM140.599 875.822a5.9 5.9 0 1 1 5.925-5.9 5.913 5.913 0 0 1-5.925 5.9ZM223.634 902.696a5.632 5.632 0 1 1 5.487-2.565 5.637 5.637 0 0 1-5.487 2.565ZM306.761 929.569a5.359 5.359 0 1 1 5.235-2.434 5.364 5.364 0 0 1-5.235 2.434ZM389.887 956.629a5.175 5.175 0 1 1 5.2-5.175 5.186 5.186 0 0 1-5.2 5.175ZM473.014 983.687a5.085 5.085 0 1 1 5.1-5.085 5.094 5.094 0 0 1-5.1 5.085ZM556.141 1010.744a4.667 4.667 0 1 1 4.922-4.994 5 5 0 0 1-4.922 4.994ZM639.177 1037.801a4.9 4.9 0 1 1 4.922-4.9 4.913 4.913 0 0 1-4.922 4.9ZM722.304 1064.859a4.809 4.809 0 1 1 4.74-4.721 4.731 4.731 0 0 1-4.74 4.721ZM805.431 1091.915a4.627 4.627 0 1 1 4.375-4.449 4.651 4.651 0 0 1-4.375 4.449ZM888.56 1118.973a4.54 4.54 0 1 1 4.557-4.54 4.549 4.549 0 0 1-4.557 4.54ZM971.684 1146.121a4.54 4.54 0 1 1 0-9.08 4.64 4.64 0 0 1 4.557 4.54 4.549 4.549 0 0 1-4.557 4.54ZM1054.72 1173.269a4.54 4.54 0 1 1 4.557-4.54 4.458 4.458 0 0 1-4.557 4.54Z"/><ellipse class="a" cx="4.557" cy="4.54" rx="4.557" ry="4.54" transform="translate(1133.289 1191.337)"/><path class="a" d="M1220.974 1227.565a4.537 4.537 0 1 1 4.466-4.449 4.458 4.458 0 0 1-4.466 4.449ZM1304.1 1254.713a4.449 4.449 0 1 1 4.466-4.449 4.458 4.458 0 0 1-4.466 4.449ZM1387.227 1281.861a4.449 4.449 0 1 1 4.466-4.449 4.458 4.458 0 0 1-4.466 4.449ZM1470.263 1309.009a4.458 4.458 0 1 1 3.217-1.27 4.457 4.457 0 0 1-3.217 1.27ZM1553.389 1336.157a4.446 4.446 0 1 1 4.466-4.358 4.367 4.367 0 0 1-4.466 4.358ZM1636.516 1363.396a4.449 4.449 0 1 1 4.466-4.449 4.458 4.458 0 0 1-4.466 4.449ZM1719.647 1390.546a4.449 4.449 0 1 1 4.466-4.449 4.458 4.458 0 0 1-4.466 4.449ZM1802.77 1417.692a4.449 4.449 0 1 1 4.466-4.449 4.458 4.458 0 0 1-4.466 4.449ZM1885.896 1444.84a4.54 4.54 0 1 1 4.557-4.54 4.549 4.549 0 0 1-4.557 4.54ZM1968.932 1471.988a4.458 4.458 0 0 1-4.466-4.449 4.558 4.558 0 0 1 9.115 0 4.458 4.458 0 0 1-4.648 4.449ZM2052.059 1499.227a4.458 4.458 0 0 1-4.466-4.449 4.558 4.558 0 0 1 9.115 0 4.458 4.458 0 0 1-4.649 4.449ZM2135.186 1526.375a4.449 4.449 0 1 1 4.466-4.449 4.458 4.458 0 0 1-4.466 4.449ZM2218.313 1553.523a4.449 4.449 0 1 1 4.466-4.449 4.458 4.458 0 0 1-4.466 4.449ZM2301.439 1580.671a4.449 4.449 0 1 1 4.466-4.449 4.458 4.458 0 0 1-4.466 4.449ZM2384.475 1607.819a4.54 4.54 0 1 1 4.557-4.54 4.549 4.549 0 0 1-4.557 4.54ZM2467.602 1635.057a4.457 4.457 0 0 1-4.466-4.449 4.558 4.558 0 0 1 9.115 0 4.459 4.459 0 0 1-4.649 4.449ZM2550.729 1662.206a4.449 4.449 0 1 1 4.466-4.449 4.457 4.457 0 0 1-4.466 4.449ZM2633.86 1689.354a4.449 4.449 0 1 1 4.466-4.449 4.457 4.457 0 0 1-4.466 4.449ZM2716.982 1716.504a4.449 4.449 0 1 1 4.466-4.449 4.457 4.457 0 0 1-4.466 4.449ZM2800.018 1743.65a4.54 4.54 0 1 1 4.557-4.54 4.549 4.549 0 0 1-4.557 4.54ZM-108.778 879.998a4.458 4.458 0 0 1-4.466-4.449 4.458 4.458 0 0 1 4.466-4.449 4.458 4.458 0 0 1 4.466 4.449 4.458 4.458 0 0 1-4.466 4.449ZM-25.655 907.237a4.458 4.458 0 0 1-4.466-4.449 4.349 4.349 0 0 1 1.28-3.173 4.384 4.384 0 0 1 3.186-1.276 4.384 4.384 0 0 1 3.183 1.275 4.349 4.349 0 0 1 1.28 3.174 4.458 4.458 0 0 1-4.463 4.449ZM57.472 934.384a4.46 4.46 0 1 1 3.457-1.131 4.454 4.454 0 0 1-3.457 1.131ZM140.598 961.533a4.54 4.54 0 1 1 4.557-4.54 4.549 4.549 0 0 1-4.557 4.54ZM223.634 988.681a4.449 4.449 0 1 1 4.466-4.449 4.458 4.458 0 0 1-4.466 4.449ZM306.761 1015.829a4.449 4.449 0 1 1 4.466-4.449 4.458 4.458 0 0 1-4.466 4.449ZM389.888 1042.977a4.446 4.446 0 1 1 4.466-4.358 4.466 4.466 0 0 1-4.466 4.358ZM473.014 1070.216a4.449 4.449 0 1 1 4.466-4.449 4.458 4.458 0 0 1-4.466 4.449ZM556.141 1097.363a4.449 4.449 0 1 1 4.466-4.449 4.458 4.458 0 0 1-4.466 4.449ZM639.177 1124.514a4.449 4.449 0 1 1 4.466-4.449 4.458 4.458 0 0 1-4.466 4.449ZM722.304 1151.66a4.449 4.449 0 1 1 4.466-4.449 4.458 4.458 0 0 1-4.466 4.449ZM805.435 1178.808a4.449 4.449 0 1 1 4.466-4.449 4.458 4.458 0 0 1-4.466 4.449ZM888.557 1206.046a4.449 4.449 0 1 1 4.466-4.449 4.458 4.458 0 0 1-4.466 4.449ZM971.684 1233.194a4.449 4.449 0 1 1 4.466-4.449 4.458 4.458 0 0 1-4.466 4.449ZM1054.72 1259.98a4.54 4.54 0 1 1 4.557-4.54 4.549 4.549 0 0 1-4.557 4.54ZM1137.938 1287.218a4.449 4.449 0 1 1 4.466-4.449 4.458 4.458 0 0 1-4.466 4.449ZM1220.973 1314.457a4.449 4.449 0 1 1 4.466-4.449 4.458 4.458 0 0 1-4.466 4.449ZM1304.1 1341.696a4.367 4.367 0 0 1-4.466-4.358 4.558 4.558 0 0 1 9.115 0 4.368 4.368 0 0 1-4.648 4.358ZM1387.227 1368.934a4.449 4.449 0 1 1 4.466-4.449 4.458 4.458 0 0 1-4.466 4.449ZM1470.263 1396.173a4.458 4.458 0 1 1 3.217-1.27 4.457 4.457 0 0 1-3.217 1.27ZM1553.389 1423.412a4.449 4.449 0 1 1 4.466-4.449 4.458 4.458 0 0 1-4.466 4.449ZM1636.516 1450.651a4.449 4.449 0 1 1 4.466-4.449 4.458 4.458 0 0 1-4.466 4.449ZM1719.647 1477.89a4.449 4.449 0 1 1 4.466-4.449 4.367 4.367 0 0 1-4.466 4.449ZM1802.77 1505.128a4.449 4.449 0 1 1 4.466-4.449 4.458 4.458 0 0 1-4.466 4.449ZM1885.896 1532.368a4.54 4.54 0 1 1 4.557-4.54 4.549 4.549 0 0 1-4.557 4.54ZM1968.932 1559.606a4.449 4.449 0 1 1 4.466-4.449 4.458 4.458 0 0 1-4.466 4.449ZM2052.059 1586.3a4.449 4.449 0 1 1 4.466-4.449 4.458 4.458 0 0 1-4.466 4.449ZM2135.186 1613.448a4.458 4.458 0 0 1-4.466-4.449 4.558 4.558 0 0 1 9.115 0 4.458 4.458 0 0 1-4.648 4.449ZM2218.313 1640.687a4.449 4.449 0 1 1 4.466-4.449 4.458 4.458 0 0 1-4.466 4.449ZM2301.439 1667.835a4.449 4.449 0 1 1 4.466-4.449 4.458 4.458 0 0 1-4.466 4.449ZM2384.475 1694.983a4.54 4.54 0 1 1 4.557-4.54 4.549 4.549 0 0 1-4.557 4.54ZM2467.602 1722.131a4.449 4.449 0 1 1 4.466-4.449 4.457 4.457 0 0 1-4.466 4.449ZM2550.729 1749.279a4.449 4.449 0 1 1 4.466-4.449 4.457 4.457 0 0 1-4.466 4.449ZM2633.86 1776.518a4.457 4.457 0 0 1-4.466-4.449 4.558 4.558 0 0 1 9.115 0 4.458 4.458 0 0 1-4.649 4.449ZM2716.982 1803.668a4.449 4.449 0 1 1 4.466-4.449 4.457 4.457 0 0 1-4.466 4.449ZM2800.018 1830.814a4.54 4.54 0 1 1 4.557-4.54 4.549 4.549 0 0 1-4.557 4.54ZM-108.778 967.162a4.458 4.458 0 0 1-4.466-4.449 4.458 4.458 0 0 1 4.466-4.449 4.458 4.458 0 0 1 4.466 4.449 4.458 4.458 0 0 1-4.466 4.449ZM-25.655 994.31a4.458 4.458 0 0 1-4.466-4.449 4.458 4.458 0 0 1 4.466-4.449 4.458 4.458 0 0 1 4.466 4.449 4.458 4.458 0 0 1-4.466 4.449ZM57.472 1021.458a4.449 4.449 0 1 1 4.464-4.448 4.458 4.458 0 0 1-4.466 4.449ZM140.599 1048.697a4.458 4.458 0 0 1-4.466-4.449 4.444 4.444 0 1 1 4.466 4.449ZM223.634 1075.845a4.449 4.449 0 1 1 4.466-4.449 4.458 4.458 0 0 1-4.466 4.449ZM306.761 1102.993a4.449 4.449 0 1 1 4.466-4.449 4.458 4.458 0 0 1-4.466 4.449ZM389.888 1130.141a4.449 4.449 0 1 1 4.466-4.449 4.458 4.458 0 0 1-4.466 4.449ZM473.014 1157.289a4.449 4.449 0 1 1 4.466-4.449 4.458 4.458 0 0 1-4.466 4.449ZM556.141 1184.439a4.446 4.446 0 1 1 4.466-4.358 4.367 4.367 0 0 1-4.466 4.358ZM639.177 1211.678a4.449 4.449 0 1 1 4.466-4.449 4.458 4.458 0 0 1-4.466 4.449ZM722.304 1238.824a4.449 4.449 0 1 1 4.466-4.449 4.458 4.458 0 0 1-4.466 4.449ZM805.435 1265.972a4.449 4.449 0 1 1 4.466-4.449 4.458 4.458 0 0 1-4.466 4.449ZM888.557 1293.12a4.449 4.449 0 1 1 4.466-4.449 4.457 4.457 0 0 1-4.466 4.449ZM971.684 1320.268a4.446 4.446 0 1 1 4.465-4.358 4.466 4.466 0 0 1-4.466 4.358ZM1054.72 1347.507a4.54 4.54 0 1 1 4.557-4.54 4.549 4.549 0 0 1-4.557 4.54ZM1137.938 1374.654a4.449 4.449 0 1 1 4.466-4.449 4.458 4.458 0 0 1-4.466 4.449ZM1220.973 1401.802a4.449 4.449 0 1 1 4.466-4.449 4.458 4.458 0 0 1-4.466 4.449ZM1304.1 1428.95a4.449 4.449 0 1 1 4.466-4.449 4.458 4.458 0 0 1-4.466 4.449ZM1387.227 1456.099a4.449 4.449 0 1 1 4.466-4.449 4.458 4.458 0 0 1-4.466 4.449ZM1470.263 1483.339a4.457 4.457 0 0 1-4.466-4.449 4.558 4.558 0 0 1 9.115 0 4.458 4.458 0 0 1-4.648 4.449ZM1553.389 1510.485a4.449 4.449 0 1 1 4.466-4.449 4.458 4.458 0 0 1-4.466 4.449ZM1636.516 1537.635a4.449 4.449 0 1 1 4.466-4.449 4.458 4.458 0 0 1-4.466 4.449ZM1719.647 1564.781a4.449 4.449 0 1 1 4.466-4.449 4.458 4.458 0 0 1-4.466 4.449ZM1802.77 1591.93a4.449 4.449 0 1 1 4.466-4.449 4.458 4.458 0 0 1-4.466 4.449ZM1885.896 1619.077a4.458 4.458 0 0 1-4.466-4.449 4.367 4.367 0 0 1 4.466-4.358 4.275 4.275 0 0 1 4.375 4.358 4.366 4.366 0 0 1-4.375 4.449ZM1968.932 1646.316a4.449 4.449 0 1 1 4.466-4.449 4.458 4.458 0 0 1-4.466 4.449ZM2052.059 1673.464a4.449 4.449 0 1 1 4.466-4.449 4.458 4.458 0 0 1-4.466 4.449ZM2135.186 1700.612a4.449 4.449 0 1 1 4.467-4.448 4.458 4.458 0 0 1-4.467 4.448ZM2218.313 1727.76a4.456 4.456 0 1 1 3.14-1.463 4.46 4.46 0 0 1-3.14 1.463ZM2301.439 1754.908a4.449 4.449 0 1 1 4.466-4.449 4.458 4.458 0 0 1-4.466 4.449ZM2384.475 1782.147a4.54 4.54 0 1 1 4.557-4.54 4.549 4.549 0 0 1-4.557 4.54ZM2467.602 1809.295a4.449 4.449 0 1 1 4.466-4.449 4.458 4.458 0 0 1-4.466 4.449ZM2550.729 1836.443a4.449 4.449 0 1 1 4.466-4.449 4.457 4.457 0 0 1-4.466 4.449ZM2633.86 1863.593a4.449 4.449 0 1 1 4.466-4.449 4.457 4.457 0 0 1-4.466 4.449ZM2716.982 1890.739a4.449 4.449 0 1 1 4.466-4.449 4.457 4.457 0 0 1-4.466 4.449ZM2800.018 1917.89a4.275 4.275 0 0 1-4.375-4.358 4.366 4.366 0 0 1 4.375-4.449 4.458 4.458 0 0 1 4.466 4.449 4.367 4.367 0 0 1-4.466 4.358ZM-108.778 1054.326a4.458 4.458 0 0 1-4.466-4.449 4.458 4.458 0 0 1 4.466-4.449 4.458 4.458 0 0 1 4.466 4.449 4.458 4.458 0 0 1-4.466 4.449ZM-25.655 1081.474a4.458 4.458 0 0 1-4.466-4.449 4.458 4.458 0 0 1 4.466-4.449 4.458 4.458 0 0 1 4.466 4.449 4.458 4.458 0 0 1-4.466 4.449ZM57.472 1108.622a4.449 4.449 0 1 1 4.464-4.448 4.458 4.458 0 0 1-4.466 4.449ZM140.598 1135.771a4.54 4.54 0 1 1 4.557-4.54 4.549 4.549 0 0 1-4.557 4.54ZM223.634 1162.918a4.449 4.449 0 1 1 4.466-4.449 4.458 4.458 0 0 1-4.466 4.449ZM306.761 1190.157a4.449 4.449 0 1 1 4.466-4.449 4.458 4.458 0 0 1-4.466 4.449ZM389.888 1217.305a4.449 4.449 0 1 1 4.466-4.449 4.458 4.458 0 0 1-4.466 4.449ZM473.014 1244.453a4.449 4.449 0 1 1 4.466-4.449 4.458 4.458 0 0 1-4.466 4.449ZM556.141 1271.603a4.449 4.449 0 1 1 4.466-4.449 4.458 4.458 0 0 1-4.466 4.449ZM639.177 1298.749a4.449 4.449 0 1 1 4.466-4.449 4.458 4.458 0 0 1-4.466 4.449ZM722.304 1325.897a4.446 4.446 0 1 1 4.466-4.358 4.367 4.367 0 0 1-4.466 4.358ZM805.435 1353.136a4.449 4.449 0 1 1 4.466-4.449 4.458 4.458 0 0 1-4.466 4.449ZM888.557 1380.284a4.449 4.449 0 1 1 4.466-4.449 4.458 4.458 0 0 1-4.466 4.449ZM971.684 1407.432a4.449 4.449 0 1 1 4.466-4.449 4.458 4.458 0 0 1-4.466 4.449ZM1054.72 1434.58a4.54 4.54 0 1 1 4.557-4.54 4.549 4.549 0 0 1-4.557 4.54ZM1137.938 1461.728a4.449 4.449 0 1 1 4.466-4.449 4.367 4.367 0 0 1-4.466 4.449ZM1220.973 1488.967a4.449 4.449 0 1 1 4.466-4.449 4.458 4.458 0 0 1-4.466 4.449ZM1304.1 1516.115a4.449 4.449 0 1 1 4.466-4.449 4.458 4.458 0 0 1-4.466 4.449ZM1387.227 1543.263a4.449 4.449 0 1 1 4.466-4.449 4.458 4.458 0 0 1-4.466 4.449ZM1470.263 1570.411a4.458 4.458 0 1 1 3.217-1.27 4.457 4.457 0 0 1-3.217 1.27ZM1553.389 1597.561a4.449 4.449 0 1 1 4.466-4.449 4.458 4.458 0 0 1-4.466 4.449ZM1636.516 1624.8a4.449 4.449 0 1 1 4.466-4.449 4.458 4.458 0 0 1-4.466 4.449ZM1719.647 1651.946a4.449 4.449 0 1 1 4.466-4.449 4.458 4.458 0 0 1-4.466 4.449ZM1802.77 1679.094a4.449 4.449 0 1 1 4.466-4.449 4.458 4.458 0 0 1-4.466 4.449ZM1885.896 1706.242a4.54 4.54 0 1 1 4.557-4.54 4.549 4.549 0 0 1-4.557 4.54ZM1968.932 1733.39a4.449 4.449 0 1 1 4.466-4.449 4.458 4.458 0 0 1-4.466 4.449ZM2052.059 1760.628a4.449 4.449 0 1 1 4.466-4.449 4.458 4.458 0 0 1-4.466 4.449ZM2135.186 1787.776a4.449 4.449 0 1 1 4.466-4.449 4.458 4.458 0 0 1-4.466 4.449ZM2218.313 1814.924a4.449 4.449 0 1 1 4.466-4.449 4.458 4.458 0 0 1-4.466 4.449ZM2301.439 1842.072a4.449 4.449 0 1 1 4.466-4.449 4.458 4.458 0 0 1-4.466 4.449ZM2384.475 1869.221a4.54 4.54 0 1 1 4.557-4.54 4.549 4.549 0 0 1-4.557 4.54ZM2467.602 1896.368a4.449 4.449 0 1 1 4.466-4.449 4.367 4.367 0 0 1-4.466 4.449ZM2550.729 1923.607a4.449 4.449 0 1 1 4.466-4.449 4.457 4.457 0 0 1-4.466 4.449ZM2633.86 1950.757a4.449 4.449 0 1 1 4.466-4.449 4.457 4.457 0 0 1-4.466 4.449ZM2716.982 1977.903a4.449 4.449 0 1 1 4.466-4.449 4.457 4.457 0 0 1-4.466 4.449ZM2800.018 2005.052a4.54 4.54 0 1 1 4.557-4.54 4.549 4.549 0 0 1-4.557 4.54ZM-108.778 1141.4a4.458 4.458 0 0 1-4.466-4.449 4.458 4.458 0 0 1 4.466-4.449 4.458 4.458 0 0 1 4.466 4.449 4.458 4.458 0 0 1-4.466 4.449ZM-25.655 1168.547a4.458 4.458 0 0 1-4.466-4.359 4.349 4.349 0 0 1 1.281-3.173 4.384 4.384 0 0 1 3.185-1.275 4.384 4.384 0 0 1 3.183 1.275 4.349 4.349 0 0 1 1.28 3.173 4.458 4.458 0 0 1-4.463 4.359ZM57.472 1195.786a4.449 4.449 0 1 1 4.464-4.448 4.458 4.458 0 0 1-4.466 4.449ZM140.598 1222.935a4.54 4.54 0 1 1 4.557-4.54 4.549 4.549 0 0 1-4.557 4.54ZM223.634 1250.082a4.449 4.449 0 1 1 4.466-4.449 4.458 4.458 0 0 1-4.466 4.449ZM306.761 1277.23a4.449 4.449 0 1 1 4.466-4.449 4.458 4.458 0 0 1-4.466 4.449ZM389.888 1304.378a4.449 4.449 0 1 1 4.466-4.449 4.458 4.458 0 0 1-4.466 4.449ZM473.014 1331.617a4.457 4.457 0 0 1-4.466-4.449 4.558 4.558 0 0 1 9.115 0 4.458 4.458 0 0 1-4.649 4.449ZM556.141 1358.767a4.449 4.449 0 1 1 4.466-4.449 4.458 4.458 0 0 1-4.466 4.449ZM639.177 1385.913a4.449 4.449 0 1 1 4.466-4.449 4.458 4.458 0 0 1-4.466 4.449ZM722.304 1413.061a4.449 4.449 0 1 1 4.466-4.449 4.458 4.458 0 0 1-4.466 4.449ZM805.435 1440.209a4.449 4.449 0 1 1 4.466-4.449 4.458 4.458 0 0 1-4.466 4.449ZM888.557 1467.357a4.449 4.449 0 1 1 4.466-4.449 4.366 4.366 0 0 1-4.466 4.449ZM971.684 1494.596a4.449 4.449 0 1 1 4.466-4.449 4.458 4.458 0 0 1-4.466 4.449ZM1054.72 1521.744a4.54 4.54 0 1 1 4.557-4.54 4.549 4.549 0 0 1-4.557 4.54ZM1137.938 1548.892a4.449 4.449 0 1 1 4.466-4.449 4.458 4.458 0 0 1-4.466 4.449ZM1220.973 1576.04a4.449 4.449 0 1 1 4.466-4.449 4.458 4.458 0 0 1-4.466 4.449ZM1304.1 1603.189a4.458 4.458 0 0 1-4.466-4.449 4.558 4.558 0 0 1 9.115 0 4.458 4.458 0 0 1-4.648 4.449ZM1387.227 1630.427a4.449 4.449 0 1 1 4.466-4.449 4.458 4.458 0 0 1-4.466 4.449ZM1470.263 1657.575a4.458 4.458 0 1 1 3.217-1.27 4.457 4.457 0 0 1-3.217 1.27ZM1553.389 1684.725a4.449 4.449 0 1 1 4.466-4.449 4.458 4.458 0 0 1-4.466 4.449ZM1636.516 1711.871a4.449 4.449 0 1 1 4.466-4.449 4.458 4.458 0 0 1-4.466 4.449ZM1719.647 1739.019a4.449 4.449 0 1 1 4.466-4.449 4.458 4.458 0 0 1-4.466 4.449ZM1802.77 1766.258a4.449 4.449 0 1 1 4.466-4.449 4.458 4.458 0 0 1-4.466 4.449ZM1885.896 1793.406a4.54 4.54 0 1 1 4.557-4.54 4.549 4.549 0 0 1-4.557 4.54ZM1968.932 1820.554a4.449 4.449 0 1 1 4.466-4.449 4.458 4.458 0 0 1-4.466 4.449ZM2052.059 1847.702a4.449 4.449 0 1 1 4.466-4.449 4.458 4.458 0 0 1-4.466 4.449ZM2135.186 1874.85a4.449 4.449 0 1 1 4.466-4.449 4.458 4.458 0 0 1-4.466 4.449ZM2218.312 1901.998a4.446 4.446 0 1 1 4.466-4.358 4.367 4.367 0 0 1-4.466 4.358ZM2301.439 1929.237a4.449 4.449 0 1 1 4.466-4.449 4.458 4.458 0 0 1-4.466 4.449ZM2384.475 1956.385a4.54 4.54 0 1 1 4.557-4.54 4.549 4.549 0 0 1-4.557 4.54ZM2467.602 1983.533a4.449 4.449 0 1 1 4.466-4.449 4.457 4.457 0 0 1-4.466 4.449ZM2550.729 2010.683a4.449 4.449 0 1 1 4.466-4.449 4.457 4.457 0 0 1-4.466 4.449ZM2633.86 2037.829a4.449 4.449 0 1 1 4.466-4.449 4.367 4.367 0 0 1-4.466 4.449ZM2716.982 2065.067a4.449 4.449 0 1 1 4.466-4.449 4.458 4.458 0 0 1-4.466 4.449ZM2800.018 2092.216a4.54 4.54 0 1 1 4.557-4.54 4.549 4.549 0 0 1-4.557 4.54ZM-108.778 1228.564a4.458 4.458 0 0 1-4.466-4.449 4.458 4.458 0 0 1 4.466-4.449 4.458 4.458 0 0 1 4.466 4.449 4.458 4.458 0 0 1-4.466 4.449ZM-25.655 1255.712a4.457 4.457 0 0 1-4.466-4.448 4.458 4.458 0 0 1 4.466-4.45 4.458 4.458 0 0 1 4.466 4.45 4.458 4.458 0 0 1-4.466 4.449ZM57.472 1282.86a4.458 4.458 0 1 1 3.564-1.22 4.454 4.454 0 0 1-3.564 1.22ZM140.598 1310.008a4.54 4.54 0 1 1 4.557-4.54 4.549 4.549 0 0 1-4.557 4.54ZM223.634 1337.246a4.449 4.449 0 1 1 4.466-4.449 4.458 4.458 0 0 1-4.466 4.449ZM306.761 1364.395a4.449 4.449 0 1 1 4.466-4.449 4.457 4.457 0 0 1-4.466 4.449ZM389.888 1391.543a4.449 4.449 0 1 1 4.466-4.449 4.457 4.457 0 0 1-4.466 4.449ZM473.014 1418.693a4.449 4.449 0 1 1 4.466-4.449 4.458 4.458 0 0 1-4.466 4.449ZM556.141 1445.839a4.458 4.458 0 0 1-4.466-4.449 4.558 4.558 0 0 1 9.115 0 4.458 4.458 0 0 1-4.649 4.449ZM639.177 1473.077a4.449 4.449 0 1 1 4.466-4.449 4.458 4.458 0 0 1-4.466 4.449ZM722.304 1500.225a4.449 4.449 0 1 1 4.466-4.449 4.458 4.458 0 0 1-4.466 4.449ZM805.43 1527.374a4.446 4.446 0 1 1 4.375-4.086 4.466 4.466 0 0 1-4.375 4.086ZM888.557 1554.521a4.449 4.449 0 1 1 4.466-4.449 4.458 4.458 0 0 1-4.466 4.449ZM971.684 1581.669a4.449 4.449 0 1 1 4.464-4.448 4.458 4.458 0 0 1-4.464 4.448ZM1054.72 1608.909a4.54 4.54 0 1 1 4.557-4.54 4.549 4.549 0 0 1-4.557 4.54ZM1137.938 1636.056a4.449 4.449 0 1 1 4.466-4.449 4.458 4.458 0 0 1-4.466 4.449ZM1220.973 1663.204a4.449 4.449 0 1 1 4.466-4.449 4.458 4.458 0 0 1-4.466 4.449ZM1304.1 1690.352a4.449 4.449 0 1 1 4.466-4.449 4.458 4.458 0 0 1-4.466 4.449ZM1387.227 1717.5a4.449 4.449 0 1 1 4.466-4.449 4.458 4.458 0 0 1-4.466 4.449ZM1470.263 1744.651a4.449 4.449 0 1 1 4.557-4.449 4.367 4.367 0 0 1-4.557 4.449ZM1553.389 1771.889a4.449 4.449 0 1 1 4.466-4.449 4.458 4.458 0 0 1-4.466 4.449ZM1636.516 1799.035a4.449 4.449 0 1 1 4.466-4.449 4.458 4.458 0 0 1-4.466 4.449ZM1719.647 1826.183a4.449 4.449 0 1 1 4.466-4.449 4.458 4.458 0 0 1-4.466 4.449ZM1802.77 1853.331a4.449 4.449 0 1 1 4.466-4.449 4.458 4.458 0 0 1-4.466 4.449ZM1885.896 1880.48a4.54 4.54 0 1 1 4.557-4.54 4.549 4.549 0 0 1-4.557 4.54ZM1968.932 1907.718a4.449 4.449 0 1 1 4.466-4.449 4.458 4.458 0 0 1-4.466 4.449ZM2052.059 1934.866a4.449 4.449 0 1 1 4.466-4.449 4.458 4.458 0 0 1-4.466 4.449ZM2135.186 1962.014a4.449 4.449 0 1 1 4.466-4.449 4.458 4.458 0 0 1-4.466 4.449ZM2218.313 1989.162a4.449 4.449 0 1 1 4.466-4.449 4.458 4.458 0 0 1-4.466 4.449ZM2301.439 2016.31a4.449 4.449 0 1 1 4.466-4.449 4.458 4.458 0 0 1-4.466 4.449ZM2384.475 2043.458a4.449 4.449 0 1 1 4.466-4.449 4.366 4.366 0 0 1-4.466 4.449ZM2467.602 2070.697a4.449 4.449 0 1 1 4.466-4.449 4.457 4.457 0 0 1-4.466 4.449ZM2550.729 2097.847a4.449 4.449 0 1 1 4.466-4.449 4.457 4.457 0 0 1-4.466 4.449ZM2633.86 2124.993a4.449 4.449 0 1 1 4.466-4.449 4.457 4.457 0 0 1-4.466 4.449ZM2716.982 2152.141a4.449 4.449 0 1 1 4.466-4.449 4.458 4.458 0 0 1-4.466 4.449ZM2800.018 2179.289a4.54 4.54 0 1 1 4.557-4.54 4.548 4.548 0 0 1-4.557 4.54ZM-108.778 1315.637a4.384 4.384 0 0 1-3.153-1.244 4.35 4.35 0 0 1-1.313-3.114 4.458 4.458 0 0 1 4.466-4.449 4.458 4.458 0 0 1 4.466 4.449 4.351 4.351 0 0 1-1.314 3.115 4.384 4.384 0 0 1-3.152 1.243ZM-25.655 1342.876a4.458 4.458 0 0 1-4.466-4.448 4.458 4.458 0 0 1 4.466-4.45 4.457 4.457 0 0 1 4.466 4.45 4.458 4.458 0 0 1-4.466 4.449ZM57.472 1370.024a4.449 4.449 0 1 1 4.466-4.449 4.458 4.458 0 0 1-4.466 4.449ZM140.598 1397.172a4.54 4.54 0 1 1 4.557-4.54 4.549 4.549 0 0 1-4.557 4.54ZM223.634 1424.32a4.449 4.449 0 1 1 4.466-4.449 4.458 4.458 0 0 1-4.466 4.449ZM306.761 1451.468a4.449 4.449 0 1 1 4.466-4.449 4.366 4.366 0 0 1-4.466 4.449ZM389.888 1478.707a4.449 4.449 0 1 1 4.466-4.449 4.457 4.457 0 0 1-4.466 4.449ZM473.014 1505.857a4.449 4.449 0 1 1 4.466-4.449 4.457 4.457 0 0 1-4.466 4.449ZM556.141 1533.003a4.449 4.449 0 1 1 4.466-4.449 4.457 4.457 0 0 1-4.466 4.449ZM639.177 1560.151a4.449 4.449 0 1 1 4.466-4.449 4.458 4.458 0 0 1-4.466 4.449ZM722.304 1587.299a4.449 4.449 0 1 1 4.466-4.449 4.458 4.458 0 0 1-4.466 4.449ZM805.435 1614.538a4.449 4.449 0 1 1 4.466-4.449 4.458 4.458 0 0 1-4.466 4.449ZM888.557 1641.323a4.449 4.449 0 1 1 4.466-4.449 4.457 4.457 0 0 1-4.466 4.449ZM971.684 1668.561a4.449 4.449 0 1 1 4.466-4.449 4.458 4.458 0 0 1-4.466 4.449ZM1054.72 1695.801a4.54 4.54 0 1 1 4.557-4.54 4.549 4.549 0 0 1-4.557 4.54ZM1137.938 1723.039a4.449 4.449 0 1 1 4.466-4.449 4.458 4.458 0 0 1-4.466 4.449ZM1220.973 1750.278a4.449 4.449 0 1 1 4.466-4.449 4.458 4.458 0 0 1-4.466 4.449ZM1304.1 1777.517a4.449 4.449 0 1 1 4.466-4.449 4.458 4.458 0 0 1-4.466 4.449ZM1387.227 1804.755a4.449 4.449 0 1 1 4.466-4.449 4.458 4.458 0 0 1-4.466 4.449ZM1470.263 1831.994a4.458 4.458 0 1 1 3.217-1.27 4.457 4.457 0 0 1-3.217 1.27ZM1553.389 1859.233a4.449 4.449 0 1 1 4.466-4.449 4.458 4.458 0 0 1-4.466 4.449ZM1636.516 1886.472a4.446 4.446 0 1 1 4.466-4.358 4.367 4.367 0 0 1-4.466 4.358ZM1719.647 1913.711a4.449 4.449 0 1 1 4.466-4.449 4.458 4.458 0 0 1-4.466 4.449ZM1802.77 1940.949a4.449 4.449 0 1 1 4.466-4.449 4.458 4.458 0 0 1-4.466 4.449ZM1885.896 1967.644a4.54 4.54 0 1 1 4.557-4.54 4.549 4.549 0 0 1-4.557 4.54ZM1968.932 1994.791a4.449 4.449 0 1 1 4.466-4.449 4.458 4.458 0 0 1-4.466 4.449ZM2052.059 2021.939a4.449 4.449 0 1 1 4.466-4.449 4.367 4.367 0 0 1-4.466 4.449ZM2135.186 2049.178a4.449 4.449 0 1 1 4.466-4.449 4.458 4.458 0 0 1-4.466 4.449ZM2218.313 2076.326a4.449 4.449 0 1 1 4.466-4.449 4.458 4.458 0 0 1-4.466 4.449ZM2301.439 2103.474a4.449 4.449 0 1 1 4.466-4.449 4.458 4.458 0 0 1-4.466 4.449ZM2384.475 2130.623a4.54 4.54 0 1 1 4.557-4.54 4.549 4.549 0 0 1-4.557 4.54ZM2467.602 2157.772a4.449 4.449 0 1 1 4.466-4.449 4.457 4.457 0 0 1-4.466 4.449ZM2550.729 2185.011a4.449 4.449 0 1 1 4.466-4.449 4.457 4.457 0 0 1-4.466 4.449ZM2633.86 2212.157a4.449 4.449 0 1 1 4.466-4.449 4.457 4.457 0 0 1-4.466 4.449ZM2716.982 2239.305a4.449 4.449 0 1 1 4.466-4.449 4.458 4.458 0 0 1-4.466 4.449ZM2800.018 2266.454a4.54 4.54 0 1 1 4.557-4.54 4.549 4.549 0 0 1-4.557 4.54ZM-108.781-682.602a10.189 10.189 0 0 1-10.209-10.169 10.189 10.189 0 0 1 10.209-10.169 10.189 10.189 0 0 1 10.208 10.169 10.189 10.189 0 0 1-10.208 10.169ZM-25.654-655.817a10.189 10.189 0 0 1-10.209-10.169 10.191 10.191 0 0 1 10.209-9.806 10.189 10.189 0 0 1 10.208 10.169 10.191 10.191 0 0 1-10.208 9.806ZM57.472-628.577a10.189 10.189 0 0 1-10.209-10.171 10.189 10.189 0 0 1 10.209-10.169 10.189 10.189 0 0 1 10.208 10.169 10.189 10.189 0 0 1-10.208 10.171ZM140.599-601.338a10.189 10.189 0 0 1-10.209-10.171 10.189 10.189 0 0 1 10.209-10.169 10.189 10.189 0 0 1 10.117 10.169 10.189 10.189 0 0 1-10.118 10.171ZM223.635-574.099a10.28 10.28 0 0 1-10.209-10.171 10.189 10.189 0 0 1 10.209-10.169 10.189 10.189 0 0 1 10.208 10.169 10.189 10.189 0 0 1-10.208 10.171ZM306.763-546.86a10.189 10.189 0 0 1-10.21-10.171 10.189 10.189 0 0 1 10.21-10.169 10.189 10.189 0 0 1 10.207 10.169 10.189 10.189 0 0 1-10.207 10.171ZM389.888-519.621a10.189 10.189 0 0 1-10.209-10.171 10.189 10.189 0 0 1 10.209-10.169 10.189 10.189 0 0 1 10.208 10.169 10.189 10.189 0 0 1-10.208 10.171ZM473.015-492.383a10.189 10.189 0 0 1-10.209-10.171 10.189 10.189 0 0 1 10.208-10.169 10.189 10.189 0 0 1 10.209 10.169 10.189 10.189 0 0 1-10.209 10.171ZM556.142-465.144a10.189 10.189 0 0 1-10.209-10.171 10.189 10.189 0 0 1 10.209-10.169 10.28 10.28 0 0 1 10.208 10.169 10.189 10.189 0 0 1-10.208 10.171ZM639.178-437.907a10.189 10.189 0 0 1-10.209-10.078 10.189 10.189 0 0 1 10.208-10.169 10.189 10.189 0 0 1 10.209 10.17 10.189 10.189 0 0 1-10.208 10.077ZM722.304-410.666a10.189 10.189 0 0 1-10.209-10.171 10.189 10.189 0 0 1 10.209-10.169 10.189 10.189 0 0 1 10.211 10.169 10.189 10.189 0 0 1-10.211 10.171ZM805.431-383.427a10.189 10.189 0 0 1-10.209-10.171 10.189 10.189 0 0 1 10.209-10.169 10.189 10.189 0 0 1 10.209 10.169 10.189 10.189 0 0 1-10.209 10.171ZM888.558-356.188a10.189 10.189 0 0 1-10.209-10.171 10.189 10.189 0 0 1 10.209-10.169 10.189 10.189 0 0 1 10.209 10.169 10.189 10.189 0 0 1-10.209 10.171ZM971.685-329.496a10.189 10.189 0 0 1-10.209-10.169 10.189 10.189 0 0 1 10.209-10.169 10.189 10.189 0 0 1 10.209 10.169 10.189 10.189 0 0 1-10.209 10.169ZM1054.72-302.348a10.188 10.188 0 0 1-10.117-10.169 10.189 10.189 0 0 1 10.118-10.17 10.229 10.229 0 0 1 7.277 2.946 10.15 10.15 0 0 1 3.022 7.223 10.15 10.15 0 0 1-3.022 7.223 10.229 10.229 0 0 1-7.278 2.947ZM1137.938-275.11a10.189 10.189 0 0 1-10.209-10.169 10.189 10.189 0 0 1 10.209-10.169 10.189 10.189 0 0 1 10.211 10.169 10.189 10.189 0 0 1-10.208 10.169ZM1220.973-247.962a10.188 10.188 0 0 1-10.117-10.169 10.189 10.189 0 0 1 10.208-10.169 10.189 10.189 0 0 1 10.208 10.169 10.15 10.15 0 0 1-3.022 7.223 10.229 10.229 0 0 1-7.277 2.946ZM1304.1-220.814a10.189 10.189 0 0 1-10.208-10.169 10.189 10.189 0 0 1 10.208-10.169 10.189 10.189 0 0 1 10.208 10.169 10.189 10.189 0 0 1-10.208 10.169ZM1387.227-193.664a10.189 10.189 0 0 1-10.208-10.171 10.189 10.189 0 0 1 10.208-10.169 10.189 10.189 0 0 1 10.208 10.169 10.189 10.189 0 0 1-10.208 10.171ZM1470.262-166.518a10.188 10.188 0 0 1-10.117-10.169 10.189 10.189 0 0 1 10.118-10.169 10.189 10.189 0 0 1 10.208 10.169 10.189 10.189 0 0 1-10.209 10.17ZM1553.39-139.279a10.189 10.189 0 0 1-10.209-10.169 10.189 10.189 0 0 1 10.209-10.169 10.189 10.189 0 0 1 10.208 10.169 10.189 10.189 0 0 1-10.208 10.169ZM1636.516-112.131a10.189 10.189 0 0 1-10.208-10.169 10.189 10.189 0 0 1 10.208-10.169 10.189 10.189 0 0 1 10.212 10.169 10.189 10.189 0 0 1-10.212 10.169ZM1719.643-84.983a10.189 10.189 0 0 1-10.208-10.168 10.189 10.189 0 0 1 10.208-10.17 10.189 10.189 0 0 1 10.209 10.17 10.189 10.189 0 0 1-10.209 10.168ZM1802.77-57.835a10.189 10.189 0 0 1-10.209-10.169 10.189 10.189 0 0 1 10.209-10.169 10.189 10.189 0 0 1 10.208 10.169 10.189 10.189 0 0 1-10.208 10.169ZM1885.896-30.687a10.189 10.189 0 0 1-10.208-10.169 10.189 10.189 0 0 1 10.208-10.169 10.28 10.28 0 0 1 10.209 10.169 10.189 10.189 0 0 1-10.209 10.169ZM1968.932-3.538a10.189 10.189 0 0 1-10.208-10.079 10.189 10.189 0 0 1 10.208-10.169 10.189 10.189 0 0 1 10.209 10.169 10.189 10.189 0 0 1-10.209 10.079ZM2052.059 23.7a10.189 10.189 0 0 1-10.208-10.169 10.189 10.189 0 0 1 10.208-10.169 10.189 10.189 0 0 1 10.209 10.169 10.189 10.189 0 0 1-10.209 10.169ZM2135.188 50.848a10.189 10.189 0 0 1-10.21-10.169 10.209 10.209 0 0 1 20.417 0 10.189 10.189 0 0 1-10.207 10.169ZM2218.312 77.996a10.169 10.169 0 1 1 10.209-10.169 10.189 10.189 0 0 1-10.209 10.169ZM2301.439 105.144a10.169 10.169 0 1 1 10.209-10.169 10.189 10.189 0 0 1-10.209 10.169ZM2384.476 132.294a10.163 10.163 0 1 1 10.208-10.08 10.209 10.209 0 0 1-10.208 10.08ZM2467.603 159.533a10.169 10.169 0 1 1 10.208-10.169 10.189 10.189 0 0 1-10.208 10.169ZM2550.728 186.679a10.169 10.169 0 1 1 10.212-10.169 10.189 10.189 0 0 1-10.212 10.169ZM2633.856 213.827a10.169 10.169 0 1 1 10.208-10.169 10.189 10.189 0 0 1-10.208 10.169ZM2716.982 240.975a10.169 10.169 0 1 1 10.209-10.168 10.189 10.189 0 0 1-10.209 10.168ZM2800.018 268.123a10.169 10.169 0 1 1 10.208-10.169 10.189 10.189 0 0 1-10.208 10.169ZM-108.781-769.766a10.189 10.189 0 0 1-10.209-10.169 10.189 10.189 0 0 1 10.209-10.169 10.189 10.189 0 0 1 10.208 10.169 10.189 10.189 0 0 1-10.209 10.169ZM-25.654-742.618a10.189 10.189 0 0 1-10.209-10.169 10.189 10.189 0 0 1 10.209-10.169 10.189 10.189 0 0 1 10.208 10.169 10.189 10.189 0 0 1-10.209 10.169ZM57.472-715.38a10.189 10.189 0 0 1-10.209-10.169 10.189 10.189 0 0 1 10.209-10.169 10.189 10.189 0 0 1 10.208 10.169 10.189 10.189 0 0 1-10.209 10.169ZM140.599-688.232a10.189 10.189 0 0 1-10.209-10.169 10.189 10.189 0 0 1 10.209-10.169 10.189 10.189 0 0 1 10.117 10.169 10.189 10.189 0 0 1-10.118 10.169ZM223.635-661.084a10.189 10.189 0 0 1-10.209-10.169 10.189 10.189 0 0 1 10.209-10.169 10.189 10.189 0 0 1 10.208 10.169 10.189 10.189 0 0 1-10.208 10.169ZM306.763-633.936a10.189 10.189 0 0 1-10.21-10.169 10.189 10.189 0 0 1 10.21-10.169 10.189 10.189 0 0 1 10.207 10.169 10.189 10.189 0 0 1-10.207 10.169Z"/><ellipse class="a" cx="10.209" cy="10.169" rx="10.209" ry="10.169" transform="translate(379.679 -627.125)"/><path class="a" d="M473.015-579.639a10.189 10.189 0 0 1-10.209-10.17 10.189 10.189 0 0 1 10.209-10.078 10.189 10.189 0 0 1 10.208 10.079 10.189 10.189 0 0 1-10.208 10.169Z"/><ellipse class="a" cx="10.209" cy="10.169" rx="10.209" ry="10.169" transform="translate(545.842 -572.829)"/><path class="a" d="M639.178-525.253a10.189 10.189 0 0 1-10.209-10.169 10.189 10.189 0 0 1 10.209-10.169 10.189 10.189 0 0 1 10.208 10.169 10.189 10.189 0 0 1-10.208 10.169ZM722.304-498.105a10.189 10.189 0 0 1-10.209-10.168 10.189 10.189 0 0 1 10.209-10.17 10.189 10.189 0 0 1 10.211 10.17 10.189 10.189 0 0 1-10.211 10.168ZM805.431-470.957a10.189 10.189 0 0 1-10.209-10.169 10.189 10.189 0 0 1 10.209-10.169 10.189 10.189 0 0 1 10.209 10.169 10.189 10.189 0 0 1-10.209 10.169ZM888.558-443.809a10.189 10.189 0 0 1-10.209-10.169 10.189 10.189 0 0 1 10.208-10.169 10.189 10.189 0 0 1 10.209 10.169 10.189 10.189 0 0 1-10.208 10.169ZM971.685-416.57a10.189 10.189 0 0 1-10.209-10.169 10.189 10.189 0 0 1 10.209-10.169 10.189 10.189 0 0 1 10.209 10.169 10.28 10.28 0 0 1-10.209 10.169ZM1054.72-389.421a10.188 10.188 0 0 1-10.117-10.169 10.189 10.189 0 0 1 10.118-10.17 10.229 10.229 0 0 1 7.277 2.946 10.15 10.15 0 0 1 3.022 7.223 10.15 10.15 0 0 1-3.022 7.223 10.229 10.229 0 0 1-7.278 2.947ZM1137.938-362.274a10.189 10.189 0 0 1-10.209-10.169 10.189 10.189 0 0 1 10.209-10.169 10.189 10.189 0 0 1 10.211 10.169 10.189 10.189 0 0 1-10.208 10.169ZM1220.973-335.126a10.188 10.188 0 0 1-10.117-10.169 10.189 10.189 0 0 1 10.208-10.169 10.189 10.189 0 0 1 10.208 10.169 10.15 10.15 0 0 1-3.022 7.223 10.229 10.229 0 0 1-7.277 2.946ZM1304.1-307.978a10.189 10.189 0 0 1-10.208-10.169 10.189 10.189 0 0 1 10.208-10.169 10.189 10.189 0 0 1 10.208 10.169 10.189 10.189 0 0 1-10.208 10.169ZM1387.227-280.739a10.189 10.189 0 0 1-10.208-10.169 10.189 10.189 0 0 1 10.208-10.169 10.189 10.189 0 0 1 10.208 10.169 10.189 10.189 0 0 1-10.208 10.169ZM1470.262-253.589a10.188 10.188 0 0 1-10.117-10.171 10.189 10.189 0 0 1 10.118-10.169 10.189 10.189 0 0 1 10.208 10.169 10.189 10.189 0 0 1-10.209 10.171ZM1553.39-226.443a10.189 10.189 0 0 1-10.209-10.169 10.189 10.189 0 0 1 10.209-10.169 10.189 10.189 0 0 1 10.208 10.169 10.189 10.189 0 0 1-10.208 10.169ZM1636.516-199.296a10.189 10.189 0 0 1-10.208-10.169 10.148 10.148 0 0 1 2.858-7.427 10.228 10.228 0 0 1 7.35-3.104 10.189 10.189 0 0 1 10.206 10.169 10.147 10.147 0 0 1-2.858 7.427 10.228 10.228 0 0 1-7.348 3.104ZM1719.644-172.146a10.189 10.189 0 0 1-10.212-10.169 10.147 10.147 0 0 1 2.891-7.367 10.228 10.228 0 0 1 7.321-3.075 10.189 10.189 0 0 1 10.208 10.169 10.146 10.146 0 0 1-2.891 7.367 10.228 10.228 0 0 1-7.317 3.075ZM1802.77-144.907a10.189 10.189 0 0 1-10.208-10.169 10.146 10.146 0 0 1 2.891-7.367 10.228 10.228 0 0 1 7.317-3.075 10.189 10.189 0 0 1 10.208 10.169 10.147 10.147 0 0 1-2.891 7.367 10.228 10.228 0 0 1-7.317 3.075ZM1885.897-117.76a10.189 10.189 0 0 1-10.208-10.169 10.149 10.149 0 0 1 2.925-7.308 10.228 10.228 0 0 1 7.283-3.043 10.189 10.189 0 0 1 10.208 10.169 10.149 10.149 0 0 1-2.925 7.308 10.228 10.228 0 0 1-7.283 3.043ZM1968.933-90.612a10.189 10.189 0 0 1-10.209-10.169 10.148 10.148 0 0 1 2.958-7.249 10.228 10.228 0 0 1 7.251-3.011 10.189 10.189 0 0 1 10.209 10.169 10.148 10.148 0 0 1-2.958 7.249 10.228 10.228 0 0 1-7.251 3.011ZM2052.059-63.464a10.189 10.189 0 0 1-10.208-10.169 10.189 10.189 0 0 1 10.208-10.169 10.189 10.189 0 0 1 10.209 10.169 10.189 10.189 0 0 1-10.209 10.169ZM2135.188-36.315a10.189 10.189 0 0 1-10.21-10.169 10.19 10.19 0 0 1 10.21-10.079 10.189 10.189 0 0 1 10.207 10.169 10.189 10.189 0 0 1-10.207 10.079ZM2218.312-9.167a10.189 10.189 0 0 1-10.208-10.169 10.19 10.19 0 0 1 10.208-9.988 10.189 10.189 0 0 1 10.209 10.079 10.189 10.189 0 0 1-10.209 10.078ZM2301.439 18.071a10.189 10.189 0 0 1-10.208-10.169 10.19 10.19 0 0 1 10.208-9.988 10.189 10.189 0 0 1 10.209 10.169 10.281 10.281 0 0 1-10.208 9.988ZM2384.476 45.219a10.189 10.189 0 0 1-10.209-10.166 10.211 10.211 0 0 1 20.417.273 10.19 10.19 0 0 1-10.208 9.9ZM2467.603 72.367a10.189 10.189 0 0 1-10.209-10.169 10.217 10.217 0 0 1 20.417 0 10.189 10.189 0 0 1-10.208 10.169ZM2550.728 99.515a10.189 10.189 0 0 1-10.208-10.169 10.215 10.215 0 0 1 20.417.454 10.191 10.191 0 0 1-10.208 9.715ZM2633.856 126.663a10.169 10.169 0 1 1 10.208-10.169 10.189 10.189 0 0 1-10.208 10.169ZM2716.982 153.902a10.169 10.169 0 1 1 10.208-10.169 10.189 10.189 0 0 1-10.208 10.169ZM2800.018 181.05a10.169 10.169 0 1 1 10.209-10.168 10.189 10.189 0 0 1-10.209 10.168ZM-108.781-595.528a10.189 10.189 0 0 1-10.209-10.17 10.189 10.189 0 0 1 10.209-10.078 10.189 10.189 0 0 1 10.208 10.079 10.189 10.189 0 0 1-10.208 10.169ZM-25.655-568.108a10.371 10.371 0 0 1-10.391-10.35A10.461 10.461 0 0 1-25.655-588.9a10.461 10.461 0 0 1 10.39 10.442 10.371 10.371 0 0 1-10.39 10.35ZM57.472-540.774a10.6 10.6 0 0 1-7.535-3.053 10.512 10.512 0 0 1-3.129-7.48 10.644 10.644 0 0 1 10.664-10.627 10.594 10.594 0 0 1 7.509 3.117 10.511 10.511 0 0 1 3.064 7.506 10.553 10.553 0 0 1-10.573 10.537ZM140.599-513.359a10.826 10.826 0 0 1-10.847-10.8 10.826 10.826 0 0 1 10.847-10.8 10.776 10.776 0 0 1 7.638 3.17 10.692 10.692 0 0 1 3.118 7.634 10.692 10.692 0 0 1-3.118 7.635 10.776 10.776 0 0 1-7.638 3.17ZM223.634-486.028a11.008 11.008 0 0 1-11.029-10.987 11.008 11.008 0 0 1 11.029-10.986 11.008 11.008 0 0 1 11.029 10.986 11.008 11.008 0 0 1-11.029 10.987ZM306.761-458.699a11.142 11.142 0 0 1-7.9-3.277 11.055 11.055 0 0 1-3.224-7.891 11.1 11.1 0 0 1 11.124-11.077 11.188 11.188 0 0 1 10.847 11.077 11.188 11.188 0 0 1-10.847 11.168Z"/><ellipse class="a" cx="11.211" cy="11.168" rx="11.211" ry="11.168" transform="translate(378.677 -453.887)"/><path class="a" d="M473.015-404.312a11.19 11.19 0 0 1-11.211-11.168 11.19 11.19 0 0 1 11.211-11.168 11.19 11.19 0 0 1 11.211 11.168 11.19 11.19 0 0 1-11.211 11.168ZM556.141-377.164a11.234 11.234 0 0 1-7.986-3.239 11.146 11.146 0 0 1-3.316-7.927 11.146 11.146 0 0 1 3.316-7.929 11.233 11.233 0 0 1 7.986-3.238 11.19 11.19 0 0 1 11.211 11.167 11.19 11.19 0 0 1-11.211 11.166ZM639.177-349.925a11.28 11.28 0 0 1-11.211-11.259 11.19 11.19 0 0 1 11.211-11.168 11.234 11.234 0 0 1 7.987 3.239 11.147 11.147 0 0 1 3.316 7.929 11.281 11.281 0 0 1-11.3 11.259ZM722.304-322.777a11.281 11.281 0 0 1-11.3-11.259 11.281 11.281 0 0 1 11.3-11.168 11.234 11.234 0 0 1 7.987 3.239 11.147 11.147 0 0 1 3.316 7.929 11.146 11.146 0 0 1-3.283 7.988 11.233 11.233 0 0 1-8.019 3.271ZM805.43-295.72a11.19 11.19 0 0 1-11.21-11.077 11.189 11.189 0 0 1 11.21-11.168 11.19 11.19 0 0 1 11.212 11.168 11.19 11.19 0 0 1-11.212 11.077ZM888.558-268.663a11.1 11.1 0 0 1-11.12-10.986 11.1 11.1 0 0 1 11.12-11.077 11.1 11.1 0 0 1 11.029 11.077 11.008 11.008 0 0 1-11.029 10.986ZM971.687-241.606a10.917 10.917 0 0 1-10.938-10.9 10.917 10.917 0 0 1 10.938-10.891 10.917 10.917 0 0 1 10.938 10.9 10.917 10.917 0 0 1-10.938 10.9ZM1054.72-214.639a10.735 10.735 0 0 1-10.755-10.714 10.735 10.735 0 0 1 10.755-10.714 10.777 10.777 0 0 1 7.664 3.106 10.693 10.693 0 0 1 3.182 7.608 10.693 10.693 0 0 1-3.183 7.608 10.777 10.777 0 0 1-7.663 3.106ZM1137.938-187.582a10.644 10.644 0 0 1-10.664-10.623 10.735 10.735 0 0 1 10.664-10.623 10.644 10.644 0 0 1 10.664 10.623 10.644 10.644 0 0 1-10.664 10.623ZM1220.974-160.525a10.46 10.46 0 0 1-10.118-10.442 10.421 10.421 0 0 1 3.038-7.442 10.5 10.5 0 0 1 7.444-3.09 10.5 10.5 0 0 1 7.445 3.091 10.421 10.421 0 0 1 3.037 7.442 10.422 10.422 0 0 1-3.2 7.515 10.5 10.5 0 0 1-7.646 2.926Z"/><ellipse class="a" cx="10.391" cy="10.351" rx="10.391" ry="10.351" transform="translate(1293.709 -154.26)"/><path class="a" d="M1387.227-106.499a10.189 10.189 0 0 1-10.208-10.171 10.189 10.189 0 0 1 10.208-10.169 10.189 10.189 0 0 1 10.208 10.169 10.189 10.189 0 0 1-10.208 10.171ZM1470.263-79.718a9.825 9.825 0 0 1-9.844-9.8 9.825 9.825 0 0 1 9.844-9.806 9.825 9.825 0 0 1 9.844 9.806 9.825 9.825 0 0 1-9.844 9.8ZM1553.39-53.204a9.1 9.1 0 0 1-9.115-9.08 9.1 9.1 0 0 1 9.115-9.08 9.1 9.1 0 0 1 9.115 9.08 9.1 9.1 0 0 1-9.115 9.08ZM1636.516-27.146a8.1 8.1 0 0 1-8.112-8.081 7.975 7.975 0 0 1 2.382-5.683 8.037 8.037 0 0 1 5.73-2.308 8.037 8.037 0 0 1 5.731 2.308 7.975 7.975 0 0 1 2.381 5.682 8.1 8.1 0 0 1-8.112 8.082ZM1719.643-1.178a6.85 6.85 0 0 1-4.893-1.962 6.8 6.8 0 0 1-2.034-4.848 6.914 6.914 0 0 1 6.927-6.9 6.914 6.914 0 0 1 6.927 6.9 6.8 6.8 0 0 1-2.035 4.848 6.849 6.849 0 0 1-4.892 1.962ZM1802.77 25.153a5.914 5.914 0 0 1-5.925-5.812 5.913 5.913 0 0 1 5.924-5.9 5.913 5.913 0 0 1 5.834 5.9 5.822 5.822 0 0 1-5.833 5.811ZM1885.897 51.216a4.912 4.912 0 0 1-4.922-4.9 4.912 4.912 0 0 1 4.922-4.9 4.912 4.912 0 0 1 4.831 4.9 4.912 4.912 0 0 1-4.831 4.9ZM1968.932 77.906a4.457 4.457 0 0 1-4.375-4.448 4.367 4.367 0 0 1 4.375-4.358 4.384 4.384 0 0 1 3.153 1.244 4.35 4.35 0 0 1 1.313 3.114 4.458 4.458 0 0 1-4.466 4.448ZM2052.059 105.055a4.458 4.458 0 0 1-4.466-4.45 4.558 4.558 0 0 1 9.115 0 4.459 4.459 0 0 1-4.649 4.45ZM2135.186 132.655a4.9 4.9 0 1 1 4.827-4.812 4.822 4.822 0 0 1-4.827 4.812ZM2218.313 160.257a5.278 5.278 0 1 1 4.037-1.372 5.274 5.274 0 0 1-4.037 1.372ZM2301.439 188.041a5.914 5.914 0 0 1-6.016-5.9 6.013 6.013 0 1 1 11.94 0 5.914 5.914 0 0 1-5.925 5.9ZM2384.475 215.825a6.823 6.823 0 0 1-6.745-6.81 6.839 6.839 0 0 1 13.581 0 6.823 6.823 0 0 1-6.836 6.81ZM2467.602 244.244a7.823 7.823 0 0 1-7.748-7.808 7.733 7.733 0 0 1 7.748-7.718 7.811 7.811 0 1 1 0 15.526ZM2550.729 272.482a9.08 9.08 0 1 1 9.115-9.08 9.1 9.1 0 0 1-9.115 9.08ZM2633.856 301.082a10.26 10.26 0 1 1 10.3-10.26 10.28 10.28 0 0 1-10.3 10.26ZM2716.982 329.865a11.978 11.978 0 1 1 11.94-11.89 12.033 12.033 0 0 1-11.94 11.89ZM2800.018 358.919a13.8 13.8 0 1 1 13.854-13.8 13.828 13.828 0 0 1-13.854 13.8ZM-108.781-508.365a10.189 10.189 0 0 1-10.209-10.169 10.189 10.189 0 0 1 10.209-10.169 10.189 10.189 0 0 1 10.208 10.169 10.189 10.189 0 0 1-10.208 10.169ZM-25.655-480.944a10.462 10.462 0 0 1-10.482-10.442 10.464 10.464 0 0 1 10.482-10.078 10.371 10.371 0 0 1 10.391 10.351 10.372 10.372 0 0 1-10.391 10.169ZM57.472-453.61a10.644 10.644 0 0 1-10.664-10.627 10.512 10.512 0 0 1 3.129-7.48 10.594 10.594 0 0 1 7.535-3.052 10.644 10.644 0 0 1 10.665 10.532 10.644 10.644 0 0 1-10.664 10.627ZM140.599-426.194a10.869 10.869 0 0 1-7.729-3.132 10.784 10.784 0 0 1-3.209-7.668 10.917 10.917 0 0 1 10.938-10.9 10.916 10.916 0 0 1 10.846 10.9 10.826 10.826 0 0 1-10.846 10.8ZM223.634-398.774a11.1 11.1 0 0 1-11.12-11.077 11.1 11.1 0 0 1 11.12-11.077 11.1 11.1 0 0 1 11.12 11.077 11.1 11.1 0 0 1-11.12 11.077ZM306.761-371.444a11.28 11.28 0 0 1-11.211-11.257 11.28 11.28 0 0 1 11.212-11.26 11.372 11.372 0 0 1 11.302 11.26 11.372 11.372 0 0 1-11.303 11.257ZM389.888-344.296a11.281 11.281 0 0 1-11.3-11.259 11.372 11.372 0 0 1 11.3-11.259 11.372 11.372 0 0 1 11.3 11.259 11.281 11.281 0 0 1-11.3 11.259ZM473.015-317.057a11.325 11.325 0 0 1-8.025-3.33 11.236 11.236 0 0 1-3.278-8.02 11.281 11.281 0 0 1 11.3-11.259 11.372 11.372 0 0 1 11.3 11.259 11.371 11.371 0 0 1-11.3 11.35ZM556.141-289.909a11.372 11.372 0 0 1-11.393-11.259 11.371 11.371 0 0 1 11.393-11.349 11.371 11.371 0 0 1 11.3 11.349 11.372 11.372 0 0 1-11.3 11.259ZM639.177-262.761a11.327 11.327 0 0 1-8.229-3.166 11.237 11.237 0 0 1-3.438-8.092 11.371 11.371 0 0 1 11.3-11.35 11.371 11.371 0 0 1 11.4 11.349 11.279 11.279 0 0 1-11.033 11.259ZM722.304-235.522a11.415 11.415 0 0 1-8.188-3.452 11.325 11.325 0 0 1-3.206-8.26 11.372 11.372 0 0 1 11.394-11.35 11.372 11.372 0 0 1 11.393 11.35 11.325 11.325 0 0 1-3.205 8.261 11.415 11.415 0 0 1-8.188 3.451ZM805.43-208.465a11.324 11.324 0 0 1-8.09-3.393 11.235 11.235 0 0 1-3.212-8.138 11.372 11.372 0 0 1 11.3-11.259 11.372 11.372 0 0 1 11.3 11.259 11.235 11.235 0 0 1-3.212 8.138 11.324 11.324 0 0 1-8.09 3.393ZM888.558-181.407a11.141 11.141 0 0 1-7.961-3.34 11.054 11.054 0 0 1-3.159-8.009 11.1 11.1 0 0 1 11.12-11.077 11.1 11.1 0 0 1 11.12 11.077 11.145 11.145 0 0 1-3.186 7.982 11.232 11.232 0 0 1-7.934 3.367ZM971.684-154.441a11.008 11.008 0 0 1-11.029-10.895 11.008 11.008 0 0 1 11.029-10.986 11.052 11.052 0 0 1 7.912 3.056 10.967 10.967 0 0 1 3.391 7.749 10.874 10.874 0 0 1-3.265 7.954 10.961 10.961 0 0 1-8.037 3.123ZM1054.72-127.384a10.825 10.825 0 0 1-10.756-10.9 10.693 10.693 0 0 1 3.118-7.635 10.777 10.777 0 0 1 7.638-3.17 10.826 10.826 0 0 1 10.847 10.8 10.783 10.783 0 0 1-3.145 7.7 10.867 10.867 0 0 1-7.7 3.2ZM1137.937-100.417a10.686 10.686 0 0 1-7.599-3.077 10.6 10.6 0 0 1-3.156-7.544 10.6 10.6 0 0 1 3.156-7.544 10.685 10.685 0 0 1 7.6-3.079 10.644 10.644 0 0 1 10.664 10.621 10.644 10.644 0 0 1-10.665 10.623ZM1220.974-73.361a10.46 10.46 0 0 1-10.118-10.441 10.33 10.33 0 0 1 3.043-7.41 10.411 10.411 0 0 1 7.439-3.031 10.46 10.46 0 0 1 10.209 10.442 10.553 10.553 0 0 1-10.573 10.44ZM1304.101-46.394a10.372 10.372 0 0 1-10.391-10.171 10.37 10.37 0 0 1 10.389-10.349 10.371 10.371 0 0 1 10.393 10.352 10.372 10.372 0 0 1-10.391 10.168ZM1387.228-19.336a10.281 10.281 0 0 1-10.3-9.988 10.28 10.28 0 0 1 10.3-10.26 10.229 10.229 0 0 1 7.251 3.011 10.148 10.148 0 0 1 2.957 7.249 10.19 10.19 0 0 1-10.208 9.988ZM1470.263 6.994a9.737 9.737 0 0 1-9.753-9.08 9.734 9.734 0 0 1 9.753-9.715 9.773 9.773 0 0 1 6.957 2.814 9.7 9.7 0 0 1 2.889 6.9 9.738 9.738 0 0 1-9.844 9.08ZM1553.39 33.325a8.551 8.551 0 0 1-8.568-8.535 8.551 8.551 0 0 1 8.568-8.535 8.551 8.551 0 0 1 8.568 8.535 8.551 8.551 0 0 1-8.568 8.535ZM1636.516 58.929a7 7 0 0 1-7.019-6.991 7 7 0 0 1 7.018-6.991 6.942 6.942 0 0 1 4.99 2.02 6.887 6.887 0 0 1 2.028 4.971 6.887 6.887 0 0 1-2.029 4.971 6.941 6.941 0 0 1-4.99 2.021ZM1719.643 84.624a5.539 5.539 0 1 1 5.56-5.539 5.549 5.549 0 0 1-5.56 5.539ZM1802.77 110.863a4.64 4.64 0 0 1-4.648-4.63 4.603 4.603 0 0 1 9.206 0 4.548 4.548 0 0 1-4.558 4.63ZM1885.896 137.922a4.54 4.54 0 1 1 4.557-4.54 4.549 4.549 0 0 1-4.557 4.54ZM1968.932 165.433a4.9 4.9 0 1 1 4.922-4.812 4.822 4.822 0 0 1-4.922 4.812ZM2052.063 193.035a5.266 5.266 0 1 1 5.287-5.266 5.276 5.276 0 0 1-5.287 5.266Z"/><ellipse class="a" cx="5.833" cy="5.811" rx="5.833" ry="5.811" transform="translate(2129.353 209.106)"/><path class="a" d="M2218.313 248.602a6.533 6.533 0 1 1 6.471-6.537 6.459 6.459 0 0 1-6.471 6.537ZM2301.439 276.385a7.168 7.168 0 1 1 7.11-7.082 7.1 7.1 0 0 1-7.11 7.082ZM2384.476 304.44a8.084 8.084 0 1 1 7.736-3.75 8.092 8.092 0 0 1-7.736 3.75ZM2467.602 332.498a9.08 9.08 0 1 1 9.115-9.08 9.1 9.1 0 0 1-9.115 9.08ZM2550.728 361.099a10.078 10.078 0 1 1 10.117-10.078 10.1 10.1 0 0 1-10.117 10.078ZM2633.855 389.154a11.259 11.259 0 1 1 11.3-11.259 11.28 11.28 0 0 1-11.3 11.259ZM2716.982 417.755a12.712 12.712 0 1 1 12.761-12.711 12.646 12.646 0 0 1-12.761 12.711ZM2800.018 446.447a14.192 14.192 0 1 1 10.113-4.116 14.191 14.191 0 0 1-10.113 4.116ZM-108.781-421.2a10.189 10.189 0 0 1-10.209-10.169 10.189 10.189 0 0 1 10.209-10.169 10.189 10.189 0 0 1 10.208 10.169 10.189 10.189 0 0 1-10.208 10.169ZM-25.655-392.508a11.372 11.372 0 0 1-11.393-11.35 11.372 11.372 0 0 1 11.393-11.35 11.372 11.372 0 0 1 11.394 11.35 11.372 11.372 0 0 1-11.394 11.35ZM57.472-365.27a12.283 12.283 0 0 1-12.3-11.8 12.282 12.282 0 0 1 12.3-12.167 12.19 12.19 0 0 1 12.214 12.164 12.192 12.192 0 0 1-12.214 11.803ZM140.598-336.941a13.06 13.06 0 0 1-9.275-3.771 12.959 12.959 0 0 1-3.85-9.213 12.959 12.959 0 0 1 3.85-9.213 13.06 13.06 0 0 1 9.275-3.77 13.009 13.009 0 0 1 12.943 12.983 13.009 13.009 0 0 1-12.943 12.984ZM223.634-308.885a13.919 13.919 0 0 1-13.854-13.8 13.918 13.918 0 0 1 13.855-13.893 13.918 13.918 0 0 1 13.854 13.892 13.919 13.919 0 0 1-13.855 13.801ZM306.761-281.102a14.556 14.556 0 0 1-14.584-14.437 14.556 14.556 0 0 1 14.583-14.527 14.556 14.556 0 0 1 14.584 14.528 14.556 14.556 0 0 1-14.583 14.436ZM389.888-253.409a15.01 15.01 0 0 1-15.039-14.981 14.951 14.951 0 0 1 4.34-10.711 15.069 15.069 0 0 1 10.699-4.452 15.01 15.01 0 0 1 15.04 14.981 14.951 14.951 0 0 1-4.34 10.711 15.069 15.069 0 0 1-10.7 4.452ZM473.014-225.715a15.556 15.556 0 0 1-15.586-15.528 15.559 15.559 0 0 1 15.586-15.072 15.647 15.647 0 0 1 15.587 15.526 15.65 15.65 0 0 1-15.587 15.074ZM556.142-198.203a15.92 15.92 0 0 1-15.951-15.891 15.768 15.768 0 0 1 4.678-11.2 15.891 15.891 0 0 1 11.273-4.599 15.829 15.829 0 0 1 15.86 15.8 15.767 15.767 0 0 1-4.613 11.23 15.891 15.891 0 0 1-11.247 4.66ZM639.177-170.785a16.193 16.193 0 0 1-16.224-16.161 16.193 16.193 0 0 1 16.224-16.162 16.193 16.193 0 0 1 16.225 16.162 16.039 16.039 0 0 1-4.725 11.455 16.165 16.165 0 0 1-11.5 4.706ZM722.304-143.273a16.466 16.466 0 0 1-16.5-16.434 16.557 16.557 0 0 1 16.5-16.525 16.557 16.557 0 0 1 16.5 16.525 16.466 16.466 0 0 1-16.5 16.434ZM805.431-115.944a16.648 16.648 0 0 1-16.68-16.615 16.648 16.648 0 0 1 16.68-16.616 16.648 16.648 0 0 1 16.68 16.616 16.648 16.648 0 0 1-16.68 16.615ZM888.557-88.705a16.739 16.739 0 0 1-16.771-16.707 16.739 16.739 0 0 1 16.771-16.706 16.83 16.83 0 0 1 16.771 16.706 16.83 16.83 0 0 1-16.771 16.707ZM971.684-61.466a16.83 16.83 0 0 1-16.862-16.8 16.674 16.674 0 0 1 4.945-11.846 16.8 16.8 0 0 1 11.918-4.861 16.739 16.739 0 0 1 16.771 16.71 16.674 16.674 0 0 1-4.88 11.872 16.8 16.8 0 0 1-11.891 4.925ZM1054.72-34.227a16.9 16.9 0 0 1-12.074-4.887 16.764 16.764 0 0 1-4.971-12 16.83 16.83 0 0 1 16.862-16.8 16.9 16.9 0 0 1 11.982 4.888 16.765 16.765 0 0 1 4.971 11.91 16.92 16.92 0 0 1-16.772 16.888Z"/><ellipse class="a" cx="16.771" cy="16.706" rx="16.771" ry="16.706" transform="translate(1121.076 -40.674)"/><path class="a" d="M1220.973 19.796a16.557 16.557 0 0 1-16.589-16.52 16.4 16.4 0 0 1 4.832-11.712 16.766 16.766 0 0 1 23.514 0 16.4 16.4 0 0 1 4.832 11.712 16.557 16.557 0 0 1-16.589 16.52ZM1304.1 46.762a16.44 16.44 0 0 1-11.66-4.755 16.29 16.29 0 1 1 11.66 4.755ZM1387.227 73.82a16.253 16.253 0 1 1 16.315-16.253 16.284 16.284 0 0 1-16.315 16.253ZM1470.262 99.788a15.034 15.034 0 1 1 15.13-15.072 15.069 15.069 0 0 1-15.13 15.072ZM1542.29 111.87a11.211 11.211 0 1 1 11.188 11.191 11.19 11.19 0 0 1-11.188-11.191ZM1636.517 145.822a6.806 6.806 0 1 1 6.836-6.719 6.836 6.836 0 0 1-6.836 6.719ZM1719.643 170.427a4.54 4.54 0 1 1 4.557-4.54 4.549 4.549 0 0 1-4.557 4.54ZM1802.77 197.666a4.449 4.449 0 1 1 4.466-4.449 4.458 4.458 0 0 1-4.466 4.449ZM1885.898 224.905a4.537 4.537 0 1 1 4.466-4.54 4.558 4.558 0 0 1-4.466 4.54ZM1968.932 252.144a4.54 4.54 0 1 1 4.557-4.54 4.549 4.549 0 0 1-4.557 4.54ZM2052.059 279.382a4.767 4.767 0 0 1 0-9.534 4.822 4.822 0 0 1 4.831 4.812 4.731 4.731 0 0 1-4.831 4.721ZM2135.186 307.165a5.085 5.085 0 1 1 5.1-5.085 5.094 5.094 0 0 1-5.1 5.085ZM2218.314 334.677a5.448 5.448 0 1 1 5.469-5.448 5.458 5.458 0 0 1-5.469 5.448ZM2301.44 362.461a6.083 6.083 0 1 1 6.107-6.083 6.1 6.1 0 0 1-6.107 6.083ZM2384.475 390.244a6.719 6.719 0 1 1 6.745-6.719 6.732 6.732 0 0 1-6.745 6.719ZM2467.602 418.207a7.532 7.532 0 1 1 7.565-7.445 7.461 7.461 0 0 1-7.565 7.445ZM2550.729 446.356a8.444 8.444 0 1 1 8.477-8.444 8.46 8.46 0 0 1-8.477 8.444ZM2633.855 474.593a9.1 9.1 0 1 1 6.742-2.493 9.093 9.093 0 0 1-6.742 2.493ZM2716.982 503.012a10.8 10.8 0 1 1 10.755-10.8 10.848 10.848 0 0 1-10.755 10.8ZM2800.018 531.705a12.348 12.348 0 1 1 12.4-12.348 12.372 12.372 0 0 1-12.4 12.348ZM-108.781-334.127a10.189 10.189 0 0 1-10.209-10.169 10.189 10.189 0 0 1 10.209-10.169 10.189 10.189 0 0 1 10.208 10.169 10.189 10.189 0 0 1-10.208 10.169ZM-25.655-306.161a10.917 10.917 0 0 1-10.938-10.896 11.007 11.007 0 0 1 10.938-10.986 11.007 11.007 0 0 1 10.937 10.986 10.917 10.917 0 0 1-10.937 10.896ZM57.472-278.469a11.463 11.463 0 0 1-11.485-11.444 11.325 11.325 0 0 1 3.2-8.353 11.415 11.415 0 0 1 8.285-3.447 11.506 11.506 0 0 1 8.253 3.478 11.416 11.416 0 0 1 3.231 8.322 11.553 11.553 0 0 1-11.484 11.444ZM140.599-250.867a12.009 12.009 0 0 1-12.032-11.894 11.919 11.919 0 0 1 12.032-11.713 11.917 11.917 0 0 1 11.94 11.894 11.918 11.918 0 0 1-11.94 11.713ZM223.634-223.174a12.421 12.421 0 0 1-8.8-3.649 12.324 12.324 0 0 1-3.6-8.79 12.372 12.372 0 0 1 12.4-12.348 12.421 12.421 0 0 1 8.825 3.579 12.324 12.324 0 0 1 3.663 8.764 12.463 12.463 0 0 1-12.488 12.444ZM306.761-195.662a12.827 12.827 0 0 1-12.761-12.8 12.736 12.736 0 0 1 12.761-12.714 12.828 12.828 0 0 1 12.852 12.712 12.827 12.827 0 0 1-12.852 12.8ZM389.888-168.333a12.918 12.918 0 0 1-12.943-12.893 12.867 12.867 0 0 1 3.758-9.176 12.968 12.968 0 0 1 9.184-3.808 12.968 12.968 0 0 1 9.185 3.809 12.867 12.867 0 0 1 3.763 9.175 12.918 12.918 0 0 1-12.947 12.893ZM473.014-141.004a13.191 13.191 0 0 1-13.216-13.075 13.191 13.191 0 0 1 13.216-13.165 13.151 13.151 0 0 1 9.314 3.862 13.048 13.048 0 0 1 3.812 9.3 13.1 13.1 0 0 1-13.126 13.078Z"/><ellipse class="a" cx="13.308" cy="13.256" rx="13.308" ry="13.256" transform="translate(542.743 -140.186)"/><path class="a" d="M639.177-86.344a13.464 13.464 0 0 1-13.49-13.436 13.464 13.464 0 0 1 13.49-13.44 13.555 13.555 0 0 1 13.581 13.44 13.555 13.555 0 0 1-13.581 13.436ZM722.304-59.015a13.646 13.646 0 0 1-13.672-13.62 13.646 13.646 0 0 1 13.672-13.619 13.646 13.646 0 0 1 13.672 13.619 13.646 13.646 0 0 1-13.672 13.62ZM805.43-31.776a13.791 13.791 0 0 1-9.791-3.983 13.684 13.684 0 0 1-4.063-9.728 13.646 13.646 0 0 1 13.672-13.619 13.646 13.646 0 0 1 13.672 13.619 13.736 13.736 0 0 1-13.492 13.711ZM888.557-4.719a13.646 13.646 0 0 1-13.672-13.529 13.646 13.646 0 0 1 13.672-13.619 13.646 13.646 0 0 1 13.672 13.62 13.646 13.646 0 0 1-13.672 13.528ZM971.684 22.429a13.555 13.555 0 0 1-13.581-13.528 13.581 13.581 0 0 1 27.162 0 13.555 13.555 0 0 1-13.581 13.528ZM1054.72 49.491a13.464 13.464 0 0 1-13.49-13.442 13.464 13.464 0 0 1 13.49-13.438 13.555 13.555 0 0 1 13.581 13.438 13.555 13.555 0 0 1-13.581 13.442ZM1137.938 76.452a13.282 13.282 0 0 1-13.308-13.256 13.373 13.373 0 0 1 13.308-13.256 13.256 13.256 0 1 1 0 26.512ZM1220.973 103.419a13.03 13.03 0 1 1 13.126-13.074 13.06 13.06 0 0 1-13.125 13.074ZM1304.1 130.385a12.8 12.8 0 1 1 12.852-12.8 12.827 12.827 0 0 1-12.852 12.8ZM1387.227 157.261a12.613 12.613 0 1 1 12.578-12.53 12.671 12.671 0 0 1-12.578 12.53ZM1470.263 183.774a11.918 11.918 0 1 1 8.5-3.451 11.917 11.917 0 0 1-8.5 3.451ZM1553.389 209.109a10.078 10.078 0 1 1 10.113-10.082 10.1 10.1 0 0 1-10.113 10.082ZM1636.516 233.984a7.536 7.536 0 1 1 7.565-7.536 7.551 7.551 0 0 1-7.565 7.536ZM1719.643 258.408a5 5 0 0 1-5.013-4.994 4.913 4.913 0 0 1 5.013-4.994 4.994 4.994 0 1 1 0 9.988ZM1802.77 283.922a3.366 3.366 0 0 1-3.372-3.359 3.275 3.275 0 0 1 3.372-3.36 3.366 3.366 0 0 1 3.372 3.359 3.457 3.457 0 0 1-3.372 3.36ZM1885.897 310.707a3 3 0 1 1 3.008-3 3 3 0 0 1-3.008 3ZM1968.932 338.123a3.275 3.275 0 0 1-3.19-3.269 3.283 3.283 0 0 1 6.472 0 3.275 3.275 0 0 1-3.282 3.269ZM2052.06 365.547a3.547 3.547 0 0 1-3.464-3.541 3.464 3.464 0 0 1 6.927 0 3.547 3.547 0 0 1-3.464 3.541ZM2135.186 393.059a3.9 3.9 0 1 1 3.828-3.9 3.821 3.821 0 0 1-3.828 3.9ZM2218.313 420.752a4.367 4.367 0 0 1-4.466-4.358 4.558 4.558 0 0 1 9.115 0 4.368 4.368 0 0 1-4.648 4.358ZM2301.44 448.535a5.082 5.082 0 1 1 4.724-3.16 5.095 5.095 0 0 1-4.724 3.16ZM2384.476 476.592a5.9 5.9 0 1 1 5.925-5.9 5.913 5.913 0 0 1-5.925 5.9ZM2467.602 504.647a6.822 6.822 0 0 1-6.745-6.81 6.732 6.732 0 0 1 6.745-6.719 6.823 6.823 0 0 1 6.836 6.719 6.914 6.914 0 0 1-6.836 6.81ZM2550.729 532.976a7.985 7.985 0 1 1 7.93-7.99 7.914 7.914 0 0 1-7.93 7.99ZM2633.856 561.304a9.08 9.08 0 1 1 9.115-9.08 9.1 9.1 0 0 1-9.115 9.08ZM2716.982 589.996a10.714 10.714 0 1 1 10.665-10.986 10.642 10.642 0 0 1-10.665 10.986ZM2800.018 618.868a12.439 12.439 0 1 1 12.487-12.621 12.372 12.372 0 0 1-12.487 12.621ZM-108.778-252.683a4.458 4.458 0 0 1-4.466-4.449 4.458 4.458 0 0 1 4.466-4.449 4.458 4.458 0 0 1 4.466 4.449 4.458 4.458 0 0 1-4.466 4.449ZM-25.655-225.081a4.913 4.913 0 0 1-4.922-4.9 4.913 4.913 0 0 1 4.922-4.9 4.913 4.913 0 0 1 4.922 4.9 4.913 4.913 0 0 1-4.922 4.9ZM57.471-197.479a5.3 5.3 0 0 1-3.83-1.542 5.256 5.256 0 0 1-1.548-3.815 5.256 5.256 0 0 1 1.582-3.757 5.3 5.3 0 0 1 3.8-1.509 5.368 5.368 0 0 1 5.378 5.267 5.367 5.367 0 0 1-5.377 5.356ZM140.599-169.876a5.754 5.754 0 0 1-4.119-1.643 5.709 5.709 0 0 1-1.714-4.077 5.709 5.709 0 0 1 1.681-4.136 5.754 5.754 0 0 1 4.152-1.675 5.754 5.754 0 0 1 4.093 1.708 5.708 5.708 0 0 1 1.649 4.1 5.731 5.731 0 0 1-5.742 5.723ZM223.635-142.184a6.21 6.21 0 0 1-4.416-1.841 6.161 6.161 0 0 1-1.782-4.424 6.161 6.161 0 0 1 1.783-4.425 6.21 6.21 0 0 1 4.415-1.84 6.277 6.277 0 0 1 6.291 6.265 6.277 6.277 0 0 1-6.291 6.265ZM306.761-114.582a6.732 6.732 0 0 1-6.745-6.719 6.732 6.732 0 0 1 6.745-6.719 6.732 6.732 0 0 1 6.745 6.719 6.732 6.732 0 0 1-6.745 6.719ZM389.888-86.98a7.187 7.187 0 0 1-7.2-7.173 7.187 7.187 0 0 1 7.2-7.173 7.278 7.278 0 0 1 7.2 7.173 7.187 7.187 0 0 1-7.2 7.173ZM473.014-59.378a7.642 7.642 0 0 1-7.656-7.627 7.642 7.642 0 0 1 7.656-7.536 7.551 7.551 0 0 1 7.565 7.536 7.521 7.521 0 0 1-2.183 5.388 7.58 7.58 0 0 1-5.382 2.239ZM556.141-31.776a8.037 8.037 0 0 1-5.731-2.308 7.974 7.974 0 0 1-2.381-5.682 8.1 8.1 0 0 1 8.112-8.081 8.037 8.037 0 0 1 5.7 2.373 7.974 7.974 0 0 1 2.316 5.708 7.883 7.883 0 0 1-2.322 5.677 7.946 7.946 0 0 1-5.694 2.313ZM639.177-4.174a8.46 8.46 0 0 1-8.477-8.444 8.551 8.551 0 0 1 8.477-8.535 8.551 8.551 0 0 1 8.567 8.534 8.552 8.552 0 0 1-8.567 8.445ZM722.304 23.519a9.1 9.1 0 0 1-9.115-9.079 9.1 9.1 0 0 1 9.115-9.08 9.1 9.1 0 0 1 9.115 9.08 9.1 9.1 0 0 1-9.115 9.079ZM805.431 51.121a9.1 9.1 0 0 1-9.115-9.079 9.115 9.115 0 0 1 18.23 0 9.1 9.1 0 0 1-9.115 9.079ZM888.557 78.723a9.916 9.916 0 0 1-9.935-9.9 9.89 9.89 0 0 1 19.779 0 9.825 9.825 0 0 1-9.844 9.9ZM971.685 106.325a10.371 10.371 0 0 1-10.391-10.351 10.346 10.346 0 0 1 20.69 0 10.371 10.371 0 0 1-10.3 10.351ZM1054.72 134.109a10.8 10.8 0 1 1 10.847-10.714 10.735 10.735 0 0 1-10.847 10.714Z"/><ellipse class="a" cx="11.211" cy="11.168" rx="11.211" ry="11.168" transform="translate(1126.636 139.193)"/><path class="a" d="M1220.977 189.131a11.622 11.622 0 1 1 11.667-11.622 11.645 11.645 0 0 1-11.667 11.622ZM1304.1 216.823a12.159 12.159 0 1 1 12.123-12.163 12.1 12.1 0 0 1-12.123 12.167Z"/><ellipse class="a" cx="12.578" cy="12.53" rx="12.578" ry="12.53" transform="translate(1374.649 219.275)"/><path class="a" d="M1470.263 271.937a12.976 12.976 0 1 1 13.036-12.893 13.034 13.034 0 0 1-13.036 12.893ZM1553.39 298.631a12.465 12.465 0 1 1 9.126-3.479 12.46 12.46 0 0 1-9.126 3.479ZM1636.516 324.78a10.986 10.986 0 1 1 11.029-10.986 11.008 11.008 0 0 1-11.029 10.986ZM1719.643 349.386a9.08 9.08 0 1 1 9.115-9.08 9.1 9.1 0 0 1-9.115 9.08Z"/><ellipse class="a" cx="7.018" cy="6.991" rx="7.018" ry="6.991" transform="translate(1795.752 360.644)"/><path class="a" d="M1885.897 400.685a5.9 5.9 0 1 1 5.737-2.7 5.933 5.933 0 0 1-5.737 2.7ZM1968.933 427.47a5.535 5.535 0 1 1 5.56-5.448 5.459 5.459 0 0 1-5.56 5.448ZM2052.059 454.255a5.094 5.094 0 0 1-5.1-5.085 5.185 5.185 0 0 1 5.1-5.175 5.276 5.276 0 0 1 5.195 5.175 5.186 5.186 0 0 1-5.2 5.085ZM2135.186 481.126a4.822 4.822 0 0 1-4.831-4.812 4.808 4.808 0 1 1 4.831 4.812ZM2218.313 507.916a4.458 4.458 0 0 1-4.467-4.449 4.368 4.368 0 0 1 4.467-4.358 4.276 4.276 0 0 1 4.375 4.358 4.366 4.366 0 0 1-4.375 4.449ZM2301.44 534.701a4.083 4.083 0 1 1 4.01-4.086 4.1 4.1 0 0 1-4.01 4.086ZM2384.476 561.758a3.912 3.912 0 1 1 2.831-1.111 3.911 3.911 0 0 1-2.831 1.111ZM2467.602 588.815a3.821 3.821 0 0 1-3.829-3.814 3.922 3.922 0 0 1 7.748 0 3.821 3.821 0 0 1-3.919 3.814ZM2550.729 615.872a3.723 3.723 0 1 1 3.737-3.723 3.73 3.73 0 0 1-3.737 3.723ZM2633.855 643.02a3.723 3.723 0 1 1 0-7.445 3.821 3.821 0 0 1 3.737 3.723 3.729 3.729 0 0 1-3.737 3.723ZM2716.982 670.35a3.905 3.905 0 1 1 0-7.809 4 4 0 0 1 3.919 3.9 3.912 3.912 0 0 1-3.919 3.9Z"/><ellipse class="a" cx="4.102" cy="4.086" rx="4.102" ry="4.086" transform="translate(2795.916 689.508)"/><path class="a" d="M-108.778-165.519a4.458 4.458 0 0 1-4.466-4.449 4.458 4.458 0 0 1 4.466-4.449 4.458 4.458 0 0 1 4.466 4.449 4.458 4.458 0 0 1-4.466 4.449ZM-25.654-138.825a4 4 0 0 1-4.011-4 4 4 0 0 1 4.011-4 4 4 0 0 1 4.011 4 4 4 0 0 1-4.011 4ZM57.472-111.949a3.747 3.747 0 0 1-2.942-.916 3.716 3.716 0 0 1-1.251-2.81 3.716 3.716 0 0 1 1.127-2.665 3.745 3.745 0 0 1 2.7-1.058 3.73 3.73 0 0 1 3.738 3.723 3.728 3.728 0 0 1-3.372 3.726ZM140.599-84.982a3.471 3.471 0 0 1-2.546-1.009 3.443 3.443 0 0 1-1.013-2.532 3.548 3.548 0 0 1 3.555-3.541 3.547 3.547 0 0 1 3.464 3.541 3.443 3.443 0 0 1-.982 2.5 3.47 3.47 0 0 1-2.482 1.042ZM223.635-57.834a3.548 3.548 0 0 1-3.555-3.541 3.639 3.639 0 0 1 3.555-3.541 3.548 3.548 0 0 1 3.555 3.541 3.443 3.443 0 0 1-1.01 2.532 3.471 3.471 0 0 1-2.542 1.009ZM306.761-30.595a3.639 3.639 0 0 1-3.555-3.543 3.638 3.638 0 0 1 3.555-3.632 3.562 3.562 0 0 1 2.546 1.069 3.534 3.534 0 0 1 1.008 2.563 3.548 3.548 0 0 1-3.554 3.543ZM389.892-3.448a3.548 3.548 0 0 1-3.555-3.541 3.443 3.443 0 0 1 1.013-2.532 3.471 3.471 0 0 1 2.542-1.009 3.471 3.471 0 0 1 2.541 1.009 3.443 3.443 0 0 1 1.013 2.532 3.548 3.548 0 0 1-3.554 3.541ZM473.015 23.974a3.821 3.821 0 0 1-3.828-3.813 3.8 3.8 0 0 1 1.02-2.874 3.835 3.835 0 0 1 2.808-1.213 3.821 3.821 0 0 1 3.833 3.813 3.8 3.8 0 0 1-1.02 2.874 3.835 3.835 0 0 1-2.813 1.213ZM556.139 51.393a4.185 4.185 0 0 1-4.19-4.087 4.186 4.186 0 0 1 4.19-3.994 4.094 4.094 0 0 1 4.1 4.086 4.094 4.094 0 0 1-4.1 4ZM639.177 78.904a4.457 4.457 0 0 1-4.375-4.453 4.437 4.437 0 0 1 8.841.455 4.46 4.46 0 0 1-4.466 3.994ZM722.304 106.325a4.731 4.731 0 0 1-4.74-4.631 4.73 4.73 0 0 1 4.739-4.721 4.726 4.726 0 0 1 5.17 7.269 4.749 4.749 0 0 1-5.169 1.811ZM805.431 134.108a5 5 0 0 1-4.74-5.266 5.013 5.013 0 0 1 10.026 0 5 5 0 0 1-5.287 5.266ZM888.557 161.348a5.629 5.629 0 1 1 5.651-5.629 5.64 5.64 0 0 1-5.651 5.629ZM971.685 189.766a6.628 6.628 0 1 1 6.654-6.628 6.641 6.641 0 0 1-6.654 6.628ZM1054.72 218.277a8.006 8.006 0 1 1 5.73-2.308 8 8 0 0 1-5.73 2.308ZM1137.938 246.877a9.08 9.08 0 1 1 9.115-9.08 9.1 9.1 0 0 1-9.115 9.08ZM1220.973 275.387a10.714 10.714 0 1 1 10.755-10.714 10.734 10.734 0 0 1-10.755 10.714ZM1304.1 303.625a11.8 11.8 0 1 1 11.849-11.8 11.826 11.826 0 0 1-11.849 11.8ZM1387.227 331.408a12.439 12.439 0 1 1 12.487-12.439 12.463 12.463 0 0 1-12.487 12.439ZM1470.263 358.375a12.282 12.282 0 1 1 8.76-3.558 12.281 12.281 0 0 1-8.76 3.558ZM1553.39 383.979a10.707 10.707 0 1 1 10.663-10.714 10.757 10.757 0 0 1-10.664 10.714ZM1636.517 409.493a9.08 9.08 0 1 1 9.115-9.08 9.1 9.1 0 0 1-9.115 9.08ZM1719.645 435.279a7.713 7.713 0 1 1 7.656-7.627 7.642 7.642 0 0 1-7.656 7.627ZM1802.77 460.974a6.265 6.265 0 1 1 6.289-6.265 6.277 6.277 0 0 1-6.289 6.265ZM1885.897 487.123a5.172 5.172 0 1 1 5.1-5.175 5.2 5.2 0 0 1-5.1 5.175ZM1968.932 513.636a4.54 4.54 0 1 1 4.557-4.54 4.458 4.458 0 0 1-4.557 4.54ZM2052.059 540.421a4.179 4.179 0 1 1 4.14-1.868 4.182 4.182 0 0 1-4.14 1.868ZM2135.186 567.299a3.813 3.813 0 1 1 3.828-3.813 3.821 3.821 0 0 1-3.828 3.813ZM2218.313 594.353a3.723 3.723 0 1 1 3.737-3.723 3.73 3.73 0 0 1-3.737 3.723ZM2301.439 621.592a3.813 3.813 0 1 1 3.828-3.813 3.821 3.821 0 0 1-3.828 3.813ZM2384.475 649.013a4.086 4.086 0 1 1 4.1-4.086 4.094 4.094 0 0 1-4.1 4.086ZM2467.602 676.343a4.27 4.27 0 1 1 4.225-1.911 4.272 4.272 0 0 1-4.225 1.911ZM2550.728 703.763a4.54 4.54 0 1 1 4.557-4.54 4.549 4.549 0 0 1-4.557 4.54ZM2633.855 731.455a5 5 0 0 1-5.013-4.994 4.913 4.913 0 0 1 5.013-4.994 4.994 4.994 0 1 1 0 9.988ZM2716.983 759.33a5.717 5.717 0 1 1 5.651-5.72 5.744 5.744 0 0 1-5.651 5.72ZM2800.018 787.844a6.628 6.628 0 1 1 6.654-6.628 6.641 6.641 0 0 1-6.654 6.628ZM-108.778-78.445a4.458 4.458 0 0 1-4.466-4.449 4.458 4.458 0 0 1 4.466-4.449 4.458 4.458 0 0 1 4.466 4.449 4.458 4.458 0 0 1-4.466 4.449ZM-25.655-50.389a5.368 5.368 0 0 1-5.378-5.267 5.367 5.367 0 0 1 5.377-5.356 5.368 5.368 0 0 1 5.379 5.358 5.368 5.368 0 0 1-5.378 5.265ZM57.472-22.333a6.278 6.278 0 0 1-6.289-6.175 6.277 6.277 0 0 1 6.289-6.264 6.277 6.277 0 0 1 6.2 6.265 6.277 6.277 0 0 1-6.2 6.174ZM140.599 5.723a7.033 7.033 0 0 1-5.054-2.047 6.977 6.977 0 0 1-2.056-5.035 6.977 6.977 0 0 1 2.055-5.035 7.033 7.033 0 0 1 5.055-2.048 7.1 7.1 0 0 1 7.11 7.082 7.1 7.1 0 0 1-7.11 7.083ZM223.634 34.233a7.946 7.946 0 0 1-5.64-2.346 7.883 7.883 0 0 1-2.29-5.644 8.005 8.005 0 0 1 7.93-7.99 8.005 8.005 0 0 1 8.02 7.99 7.884 7.884 0 0 1-2.322 5.677 7.946 7.946 0 0 1-5.698 2.313ZM306.761 61.471a9.1 9.1 0 0 1-9.115-9.079 9.115 9.115 0 0 1 18.23 0 9.1 9.1 0 0 1-9.115 9.08Z"/><ellipse class="a" cx="9.753" cy="9.715" rx="9.753" ry="9.715" transform="translate(380.135 70.37)"/><path class="a" d="M473.015 118.219a10.9 10.9 0 1 1 10.938-10.9 10.917 10.917 0 0 1-10.938 10.9ZM556.141 146.456a12.076 12.076 0 1 1 12.032-12.351 12.007 12.007 0 0 1-12.032 12.351ZM639.175 173.151a11.553 11.553 0 1 1 8.343-3.44 11.553 11.553 0 0 1-8.343 3.44ZM722.304 195.305a6.537 6.537 0 1 1 6.563-6.537 6.55 6.55 0 0 1-6.563 6.537ZM805.431 218.549a2.635 2.635 0 1 1 2.692-1.132 2.636 2.636 0 0 1-2.692 1.132ZM888.558 246.423a3.275 3.275 0 1 1 2.353-.989 3.275 3.275 0 0 1-2.353.989ZM971.685 275.114a4.9 4.9 0 1 1 4.831-4.812 4.923 4.923 0 0 1-4.831 4.812ZM1054.72 304.532a7.1 7.1 0 0 1-7.11-7.082 7.205 7.205 0 1 1 7.11 7.082ZM1137.938 333.86a9.618 9.618 0 1 1 9.571-9.08 9.662 9.662 0 0 1-9.571 9.08ZM1220.974 363.641a11.887 11.887 0 1 1 11.94-11.622 11.941 11.941 0 0 1-11.94 11.622ZM1304.1 392.333a13.429 13.429 0 1 1 13.4-13.075 13.491 13.491 0 0 1-13.4 13.075ZM1387.224 420.116a14.065 14.065 0 1 1 14.04-13.62 14.129 14.129 0 0 1-14.04 13.62ZM1470.263 446.991a13.7 13.7 0 1 1 14.036-13.258 13.761 13.761 0 0 1-14.036 13.258Z"/><ellipse class="a" cx="12.123" cy="12.076" rx="12.123" ry="12.076" transform="translate(1541.267 448.353)"/><path class="a" d="M1636.515 497.293a9.624 9.624 0 1 1 9.662-9.624 9.552 9.552 0 0 1-9.662 9.624ZM1719.643 521.626a6.9 6.9 0 1 1 6.836-6.9 6.823 6.823 0 0 1-6.836 6.9ZM1802.77 546.413a4.537 4.537 0 1 1 4.466-4.449 4.458 4.458 0 0 1-4.466 4.449ZM1885.897 572.199a3.087 3.087 0 1 1 3.1-3.087 3.093 3.093 0 0 1-3.1 3.087Z"/><ellipse class="a" cx="2.552" cy="2.542" rx="2.552" ry="2.542" transform="translate(1966.38 593.718)"/><path class="a" d="M2052.059 625.497a2.092 2.092 0 0 1-2.1-2.088 2.183 2.183 0 0 1 2.1-2.088 2.089 2.089 0 1 1 0 4.177ZM2135.186 652.826a2.268 2.268 0 1 1 2.188-2.27 2.28 2.28 0 0 1-2.188 2.27ZM2218.309 680.337a2.547 2.547 0 0 1-2.552-2.542 2.457 2.457 0 0 1 2.552-2.544 2.547 2.547 0 0 1 2.552 2.542 2.638 2.638 0 0 1-2.552 2.542ZM2301.439 708.121a3.184 3.184 0 0 1-3.191-3.177 3.094 3.094 0 0 1 3.19-3.178 3.178 3.178 0 1 1 0 6.356ZM2384.476 735.905a3.813 3.813 0 1 1 3.831-3.813 3.821 3.821 0 0 1-3.828 3.813ZM2467.602 763.688a4.449 4.449 0 1 1 4.466-4.449 4.457 4.457 0 0 1-4.466 4.449ZM2550.729 791.744a5.359 5.359 0 1 1 5.235-2.434 5.364 5.364 0 0 1-5.235 2.434ZM2633.855 819.8a6.261 6.261 0 1 1 6.2-6.269 6.186 6.186 0 0 1-6.2 6.265ZM2716.982 848.219a7.445 7.445 0 1 1 7.475-7.445 7.46 7.46 0 0 1-7.475 7.445ZM2800.018 876.82a9.08 9.08 0 1 1 9.115-9.08 9.1 9.1 0 0 1-9.115 9.08ZM-108.781 26.242a21.973 21.973 0 1 1 0-43.945 21.973 21.973 0 1 1 0 43.945ZM-25.837 52.392a20.915 20.915 0 0 1-15-6.056 20.751 20.751 0 0 1-6.147-14.918 20.751 20.751 0 0 1 6.082-14.761 20.93 20.93 0 0 1 29.583 0 20.751 20.751 0 0 1 6.081 14.761 20.831 20.831 0 0 1-20.6 20.974ZM57.107 78.178a19.7 19.7 0 1 1 19.779-19.705 19.741 19.741 0 0 1-19.779 19.7ZM140.052 104.055a18.159 18.159 0 1 1 18.23-18.159 18.194 18.194 0 0 1-18.23 18.159ZM222.997 129.751a17.07 17.07 0 1 1 17.136-17.07 17.1 17.1 0 0 1-17.136 17.07ZM305.941 155.536a15.789 15.789 0 1 1 15.769-15.708 15.861 15.861 0 0 1-15.769 15.708ZM388.794 181.322a14.437 14.437 0 1 1 14.493-14.436 14.465 14.465 0 0 1-14.493 14.436ZM471.743 206.745a13.075 13.075 0 1 1 13.121-13.074 13.1 13.1 0 0 1-13.121 13.074Z"/><ellipse class="a" cx="11.849" cy="11.803" rx="11.849" ry="11.803" transform="translate(542.834 209.288)"/><path class="a" d="M637.628 258.677a10.442 10.442 0 1 1 10.482-10.438 10.462 10.462 0 0 1-10.482 10.438ZM720.572 283.559a8.258 8.258 0 1 1 8.294-8.172 8.188 8.188 0 0 1-8.294 8.172ZM803.516 308.71a6.277 6.277 0 0 1-6.289-6.265 6.308 6.308 0 0 1 10.7-4.393 6.071 6.071 0 0 1 1.788 4.393 6.186 6.186 0 0 1-6.2 6.265ZM886.461 335.131a5.55 5.55 0 0 1-5.651-5.539 5.64 5.64 0 0 1 5.651-5.629 5.584 5.584 0 0 1 0 11.168ZM969.406 362.551a5.9 5.9 0 1 1 5.833-5.9 5.926 5.926 0 0 1-5.833 5.9ZM1052.259 390.062a6.277 6.277 0 1 1 4.506-1.8 6.276 6.276 0 0 1-4.506 1.8ZM1135.204 418.3a7.459 7.459 0 0 1-7.383-7.445 7.369 7.369 0 0 1 7.383-7.355 7.4 7.4 0 1 1 0 14.8ZM1218.148 447.718a9.8 9.8 0 1 1 9.844-9.715 9.734 9.734 0 0 1-9.844 9.715ZM1301.088 478.044a12.984 12.984 0 1 1 13.038-12.988 12.918 12.918 0 0 1-13.038 12.988ZM1384.037 506.373a14.346 14.346 0 1 1 14.4-14.346 14.374 14.374 0 0 1-14.4 14.346ZM1466.981 532.703a13.43 13.43 0 1 1 13.4-13.438 13.491 13.491 0 0 1-13.4 13.438Z"/><ellipse class="a" cx="10.482" cy="10.442" rx="10.482" ry="10.442" transform="translate(1539.444 535.972)"/><path class="a" d="M1632.87 580.553a7.078 7.078 0 1 1 7.018-6.991 7.11 7.11 0 0 1-7.018 6.991ZM1715.724 605.613a5 5 0 0 1-4.922-4.994 5.016 5.016 0 0 1 9.935 0 5 5 0 0 1-5.013 4.994ZM1798.669 631.762a4.083 4.083 0 1 1 4.1-4 4 4 0 0 1-4.1 3.995ZM1881.613 658.274a3.45 3.45 0 1 1 3.464-3.45 3.457 3.457 0 0 1-3.464 3.45ZM1964.557 685.331a3.452 3.452 0 1 1 3.461-1.521 3.454 3.454 0 0 1-3.461 1.521ZM2047.502 712.842a3.784 3.784 0 1 1 3.828-3.813 3.821 3.821 0 0 1-3.828 3.813ZM2130.446 740.535a4.367 4.367 0 0 1-4.466-4.358 4.558 4.558 0 0 1 9.115 0 4.368 4.368 0 0 1-4.648 4.358ZM2213.482 768.591a5.354 5.354 0 1 1 4.679-5.312 5.385 5.385 0 0 1-4.679 5.312Z"/><ellipse class="a" cx="6.198" cy="6.174" rx="6.198" ry="6.174" transform="translate(2290.046 784.208)"/><path class="a" d="M2379.279 824.612a7.168 7.168 0 1 1 7.11-7.082 7.1 7.1 0 0 1-7.11 7.082ZM2462.131 852.668a8.081 8.081 0 1 1 8.112-8.081 8.006 8.006 0 0 1-8.113 8.081ZM2545.078 880.996a9.08 9.08 0 1 1 9.115-9.08 9.1 9.1 0 0 1-9.115 9.08ZM2628.022 909.419a10.617 10.617 0 1 1 10.573-10.623 10.552 10.552 0 0 1-10.573 10.623ZM2710.966 937.834a11.894 11.894 0 1 1 11.94-11.894 11.917 11.917 0 0 1-11.94 11.894ZM2793.911 966.527a13.62 13.62 0 1 1 13.672-13.619 13.646 13.646 0 0 1-13.672 13.619ZM2876.856 995.4a15.254 15.254 0 1 1 15.313-15.254 15.284 15.284 0 0 1-15.312 15.254ZM-108.781 117.584a26.2 26.2 0 1 1 0-52.389A26.291 26.291 0 0 1-82.44 91.434a26.1 26.1 0 0 1-7.721 18.522 26.3 26.3 0 0 1-18.62 7.628ZM-25.654 141.644a23.062 23.062 0 1 1 23.148-23.062 23.107 23.107 0 0 1-23.148 23.062Z"/><ellipse class="a" cx="20.326" cy="20.248" rx="20.326" ry="20.248" transform="translate(37.146 125.483)"/><path class="a" d="M140.599 190.765a18.159 18.159 0 1 1 18.229-18.158 18.194 18.194 0 0 1-18.229 18.158ZM223.635 215.825a15.8 15.8 0 1 1 15.86-15.8 15.829 15.829 0 0 1-15.86 15.8ZM306.761 240.975a13.71 13.71 0 1 1 13.764-13.71 13.737 13.737 0 0 1-13.764 13.71ZM389.888 266.398a12.069 12.069 0 1 1 12.122-11.985 12.123 12.123 0 0 1-12.122 11.985ZM473.014 292.003a10.435 10.435 0 1 1 10.391-10.442 10.483 10.483 0 0 1-10.391 10.442ZM556.142 317.789a9.08 9.08 0 1 1 9.115-9.079 9.1 9.1 0 0 1-9.115 9.079ZM639.177 343.757a7.9 7.9 0 1 1 7.93-7.9 7.915 7.915 0 0 1-7.93 7.9ZM722.299 370.178a6.719 6.719 0 1 1 6.745-6.719 6.732 6.732 0 0 1-6.745 6.719ZM805.431 396.055a5.9 5.9 0 1 1 5.925-5.811 5.924 5.924 0 0 1-5.925 5.811ZM888.557 422.476a5.085 5.085 0 1 1 5.1-5.085 5.094 5.094 0 0 1-5.1 5.085ZM971.684 448.898a4.358 4.358 0 1 1 4.375-4.358 4.367 4.367 0 0 1-4.375 4.358ZM1054.72 476.863a5.185 5.185 0 0 1-5.1-5.175 5.2 5.2 0 0 1 10.3 0 5.185 5.185 0 0 1-5.2 5.175ZM1137.938 506.373a7.63 7.63 0 1 1 0-15.163 7.63 7.63 0 1 1 0 15.163ZM1220.974 537.061a11.07 11.07 0 1 1 11.029-10.986 11.008 11.008 0 0 1-11.029 10.986ZM1304.101 567.115a13.892 13.892 0 1 1 13.946-13.892 13.919 13.919 0 0 1-13.946 13.892ZM1387.227 595.625a15.244 15.244 0 1 1 15.039-15.254 15.316 15.316 0 0 1-15.039 15.254ZM1470.263 621.501a13.983 13.983 0 1 1 14.037-13.983 14.01 14.01 0 0 1-14.037 13.983ZM1553.39 644.2a9.08 9.08 0 1 1 9.115-9.08 9.1 9.1 0 0 1-9.115 9.08ZM1636.516 668.259a6.442 6.442 0 1 1 6.38-6.356 6.368 6.368 0 0 1-6.38 6.356ZM1719.643 694.229a5.186 5.186 0 0 1-5.287-5.175 5.287 5.287 0 0 1 10.573 0 5.186 5.186 0 0 1-5.287 5.175ZM1802.77 720.469a4.267 4.267 0 1 1 4.284-4.267 4.276 4.276 0 0 1-4.284 4.267ZM1885.897 746.891a3.267 3.267 0 1 1 3.464-3.541 3.548 3.548 0 0 1-3.464 3.541ZM1968.932 773.857a3.36 3.36 0 1 1 3.372-3.359 3.275 3.275 0 0 1-3.372 3.359ZM2052.059 801.46a3.815 3.815 0 1 1 3.8-1.694 3.818 3.818 0 0 1-3.8 1.694ZM2135.186 829.243a4.446 4.446 0 1 1 4.375-4.358 4.367 4.367 0 0 1-4.375 4.358ZM2218.314 857.39a5.368 5.368 0 0 1-5.469-5.357 5.458 5.458 0 0 1 5.469-5.448 5.367 5.367 0 0 1 5.378 5.448 5.276 5.276 0 0 1-5.378 5.357ZM2301.439 885.627a6.447 6.447 0 1 1 6.472-6.447 6.459 6.459 0 0 1-6.472 6.447ZM2384.476 914.137a7.809 7.809 0 1 1 7.838-7.807 7.824 7.824 0 0 1-7.839 7.809ZM2467.602 942.738a9.08 9.08 0 1 1 9.115-9.08 9.1 9.1 0 0 1-9.115 9.08ZM2550.729 971.611a10.98 10.98 0 1 1 10.938-10.9 10.916 10.916 0 0 1-10.938 10.9ZM2633.855 1000.665a12.825 12.825 0 1 1 9.186-3.845 12.827 12.827 0 0 1-9.186 3.845ZM2716.982 1029.902a14.891 14.891 0 1 1 14.952-14.89 14.92 14.92 0 0 1-14.952 14.89ZM2800.018 1059.501a17.342 17.342 0 1 1 17.409-17.342 17.375 17.375 0 0 1-17.409 17.342Z"/></g></svg>